<?xml version="1.0" encoding="utf-8"?>
<!-- Generator: Adobe Illustrator 18.0.0, SVG Export Plug-In . SVG Version: 6.00 Build 0)  -->
<!DOCTYPE svg PUBLIC "-//W3C//DTD SVG 1.1//EN" "http://www.w3.org/Graphics/SVG/1.1/DTD/svg11.dtd">
<svg version="1.1" id="Layer_1" xmlns="http://www.w3.org/2000/svg" xmlns:xlink="http://www.w3.org/1999/xlink" x="0px" y="0px"
	 viewBox="0 0 144 144" enable-background="new 0 0 144 144" xml:space="preserve">
<g>
	<g>
		<g>
			<g>
				<g>
					<g>
						<path fill="#202020" d="M50.1,94.4c-0.1,0.1,0,0.2,0.3,0.1l0.2-0.3L50.1,94.4z"/>
						<path fill="#202020" d="M52.4,94.3c0.4-0.1,0.8-0.3,0.6-0.5c-0.4,0.2-0.5,0.1-0.9,0.4c-0.3,0.1-0.6,0-0.5-0.1
							c-0.1,0.1-0.5,0-0.7,0.2c0.5,0,1,0,1.5-0.2C52.5,94.2,52.4,94.2,52.4,94.3z"/>
						<path fill="#202020" d="M84.2,93.8l-0.2,0C84,93.8,84.1,93.8,84.2,93.8z"/>
						<path fill="#202020" d="M101.4,84.5c-0.1,0.1-0.1,0.2-0.1,0.2C101.3,84.6,101.4,84.5,101.4,84.5z"/>
						<path fill="#202020" d="M103.5,81.8c0,0.1-0.1,0.1-0.1,0.2C103.5,81.9,103.5,81.9,103.5,81.8z"/>
						<path fill="#202020" d="M84.2,93.8l0.5,0C84.7,93.7,84.4,93.7,84.2,93.8z"/>
						<path fill="#202020" d="M56.8,94.1c-0.1,0-0.2,0-0.3,0L56.8,94.1C56.8,94.1,56.8,94.1,56.8,94.1z"/>
						<path fill="#202020" d="M75.6,95.4l-0.2,0c0,0-0.1,0.1-0.1,0.1L75.6,95.4z"/>
						<path fill="#202020" d="M68.8,95.9c0.2,0,0.2-0.2,0.3-0.2c-0.1,0.1-0.2,0.1-0.3,0.1C68.8,95.8,68.8,95.9,68.8,95.9z"/>
						<path fill="#202020" d="M58.2,95L58,95C58.1,95,58.2,95,58.2,95z"/>
						<path fill="#202020" d="M80.3,94.7C80.3,94.7,80.4,94.7,80.3,94.7C80.4,94.7,80.4,94.7,80.3,94.7z"/>
						<path fill="#202020" d="M45,93.7C45,93.7,45,93.7,45,93.7C45.1,93.7,45.1,93.7,45,93.7z"/>
						<path fill="#202020" d="M52.6,94.9l-0.1,0c0,0,0,0.1,0,0.1L52.6,94.9z"/>
						<path fill="#202020" d="M106.5,76.2C106.5,76.3,106.5,76.3,106.5,76.2C106.5,76.4,106.5,76.3,106.5,76.2z"/>
						<path fill="#202020" d="M75.6,42.2c0.6,0.2-1.1,0.1-0.1,0.3C75.4,42.4,76.4,42.3,75.6,42.2z"/>
						<path fill="#202020" d="M57,94.2l0.3,0C57.2,94.2,57.1,94.2,57,94.2z"/>
						<path fill="#202020" d="M75.5,42.5L75.5,42.5L75.5,42.5C75.5,42.5,75.5,42.5,75.5,42.5z"/>
						<path fill="#202020" d="M109,62c0,0-0.1,0.1-0.1,0.1C108.9,62.2,108.9,62.1,109,62z"/>
						<path fill="#202020" d="M107.3,72.6l0.1-0.3C107.4,72.5,107.4,72.5,107.3,72.6z"/>
						<path fill="#202020" d="M108.5,56.4c0-0.2,0-0.2-0.1-0.4c0,0,0,0,0,0.1C108.5,56.1,108.5,56.2,108.5,56.4z"/>
						<path fill="#202020" d="M105.2,51.6C105.2,51.6,105.2,51.6,105.2,51.6c0.1,0.1,0.2,0.2,0.2,0.2L105.2,51.6z"/>
						<path fill="#202020" d="M30.5,85.9c0,0.1,0,0.2,0,0.3C30.5,86,31,86.6,30.5,85.9z"/>
						<path fill="#202020" d="M56.8,94.2c0,0,0.1,0,0.2,0C56.9,94.2,56.9,94.2,56.8,94.2C56.8,94.2,56.8,94.2,56.8,94.2z"/>
						<path fill="#202020" d="M107.2,56.4c0,0,0-0.2-0.1-0.4c0-0.2-0.1-0.4-0.1-0.4C107.1,55.9,107.2,56.1,107.2,56.4z"/>
						<path fill="#202020" d="M38.9,50l-0.1,0.2C38.8,50.1,38.9,50.1,38.9,50z"/>
						<path fill="#202020" d="M105.7,53.8c-0.1-0.1-0.2-0.3-0.3-0.4c0,0-0.1,0-0.1,0L105.7,53.8z"/>
						<path fill="#202020" d="M30.5,86.2L30.5,86.2L30.5,86.2z"/>
						<path fill="#202020" d="M35,89.7c-0.7-0.5-0.4,0-0.7,0c-0.9-0.5-0.3-0.4-0.5-0.7c-0.5-0.3-1-0.5-1.4-0.8c0,0-0.1-0.1,0-0.1
							c-0.6-0.3-1.4-1.3-2-1.8c0-0.1,0-0.1,0-0.1c0,0.2-0.1,0.2-0.2,0.3c-0.2-0.3-0.5-0.5-0.5-0.7c0.1,0.2,0.2,0.2,0.3,0.2l-0.3-0.3
							c0-0.4,0.4,0.4,0.5,0.3c-0.5-0.6-1.1-1.3-1.3-1.9c0.1-0.2,0.7,1.2,0.5,0.4c0,0,0.1,0.2,0.2,0.4c0.1,0.2,0.2,0.4,0.2,0.4
							c-0.1-0.7,0.3,0.5,0.2-0.2c-0.5-1-0.7-1.1-1.2-2.2c-0.2-0.2-0.1,0.1-0.3-0.1c-0.8-1.6,0-1.4-0.5-2.6c-0.2-0.3-0.5-0.4-0.5-1.3
							l0.3,0.3c-0.2-1.2-0.4-0.6-0.5-1.9c0.1,0.2,0.2,0.9,0.2,0.7c0.1-0.8-0.2-0.5-0.3-1.2l0.2-0.1c-0.2-1.2-0.4-2.6-0.4-4
							c0.1,0.1,0.1,0.3,0.2,0c-0.1-1.8,0.2-3.7,0.7-5.4l0-0.7c0-0.1,0.1-0.3,0.1-0.1c0.2-0.6-0.1-0.1-0.1-0.4
							c0.1-0.4,0.2-0.5,0.2-0.2c0.1-1.2,0.6-3.3,1.3-4.3l0,0.2c0.4-0.8,0.1-1.1,0.6-1.9l0,0.2c1-1.8,2.1-3.8,3.4-4.9
							c0-0.4,1.4-1.5,1.3-1.8c1-0.7,0.8-0.5,2-1.5c0.3-0.3,0.3-0.6,0.7-1l0.1,0.1l0.4-0.6l0.4-0.1l0.4-0.4c-0.2,0.1-0.4,0.2-0.4,0.2
							c0.6-0.6,1.6-1.2,1.6-1.2c0,0,0.3-0.3,0.7-0.7c0.3-0.3,0.7-0.6,0.7-0.6c0,0.1-0.2,0.3-0.4,0.5c0.7-0.8,0.3,0,0.9-0.7
							c-0.1,0,0-0.1,0-0.2c0.4-0.2,1.3-0.7,1.9-1.1l-0.1,0.2c1.2-0.6,2.7-1.1,4.2-1.4c-0.6,0.1-0.5-0.2,0-0.3l0.2,0.1
							c0.3-0.2-0.5,0,0.1-0.2c0.6-0.1,0.4,0.1,0.1,0.3l0.7-0.2c0.1,0-0.1,0.1-0.1,0.2c0.3-0.2,1.3,0,1.7-0.3l0,0
							c1.6-0.2,2.3-0.4,3.6-0.6c0-0.2,0.5-0.2,0.9-0.4c1,0,2,0,3.2-0.1c0.8-0.1,0.2-0.2,0.6-0.3c0.1,0.1,1.2,0,0.6,0.2
							c1.4-0.1,1.8-0.1,3.5-0.3c-0.2-0.1-0.4-0.1-0.3-0.1c0.3,0,0.7,0,0.7,0.1l-0.1,0c2-0.3,4.6,0.3,6.1,0l-0.1,0l1.6-0.2
							c0.7,0-0.5,0.1,0.1,0.2c1.8-0.2,2.8,0.1,4.2,0.1c1.1,0.5,4,0.4,5.4,0.9l-0.1-0.1c0.4,0,0.5,0.1,0.7,0.2c0-0.1-0.4-0.2-0.2-0.2
							c3.3,0.4,6.7,1.4,10,2.2c1.2,0.3,0.8-0.4,2.3,0.2l-0.5,0.1c2.5,0.3,4.9,1.3,6.9,2.4c-0.1,0-0.2,0-0.4-0.1
							c0.4,0.4,1.6,1,1.6,0.9c0.3,0.2,0,0.1,0.2,0.3c0.4,0.4,1.1,0.6,1.3,0.9c0,0-0.1-0.1-0.2-0.1c0.3,0.1,1.2,1,1.1,0.7
							c0.7,0.6,1.4,1.1,1.9,1.6c0.5,0.2,1,1.1,1.2,1.1c-0.1,0.1,0.1,0.4,0.2,0.7c0.2,0.4,0.4,0.8,0.5,1.1c-0.1-0.2,0,0.5-0.1,0.3
							c0.1,0.6,0.2,1.2,0.3,1.1c-0.2,1.2,0.3,2.4-0.1,3.1c0.1,2,0.1,3.8,0,5.6c-0.2-0.1,0.1-1.9-0.1-1.9c0,1.7,0.1,2.7-0.2,4.3
							c-0.1,0.4-0.1-0.3-0.1-0.4c-0.1,1.7-0.6,3.2-0.9,4.6c0,0,0-0.2,0-0.3c-0.1,0.3-0.2,0.6-0.1,0.6l0-0.3c0.3-0.4,0,1.2,0.1,1.3
							c-0.2-0.6-0.5,1.4-0.7,0.5c0,0.2-0.1,0.4,0,0.4c-0.1,0.3-0.2,0.3-0.2,0c-0.3,1-0.1,0.7-0.4,1.6c-0.1,0,0-0.2,0-0.3
							c-0.1,0.5-0.2,1-0.5,1.7c0-0.1-0.1,0,0-0.2c-0.6,1.2-0.8,2.2-1.7,3.5c0-0.5-0.3,0.4-0.6,0.3l-0.4,0.7l0.3-0.2
							c-0.4,0.6-0.7,1.2-1.1,1.6l0.3-0.5c0,0-0.2,0.3-0.4,0.5c-0.2,0.3-0.4,0.5-0.4,0.5l0.5-0.5c-0.4,0.6,0.3,0.1-0.4,0.8
							c0.1-0.2-0.5,0.5-0.8,0.7l0,0c-0.2,0.3-0.4,0.6-0.8,1c-0.1,0-0.1-0.2-0.2-0.2c-0.1,0.4-1.2,1.2-1.4,1.6c0.1-0.1,0-0.2,0-0.2
							l-0.1,0.3c-0.3,0.2-0.3,0.2-0.4,0.1c-0.8,0.6,0.4,0-0.6,0.6c0.1-0.1,0-0.1,0.2-0.2c-1,0.7-1.8,1.4-2.8,1.8
							c-0.4,0,0.8-0.5,0.4-0.5c-1.3,0.8-2.8,1.7-4.3,2.1l0.3-0.1c-0.1,0.4-1.1,0.2-1.8,0.6c0.2-0.1,0.2-0.2,0.2-0.2
							c-1,0.2-2,0.6-3.6,1l0.2-0.1c-0.6,0.1-1.6,0.3-2.3,0.4c-0.2,0.1-0.6,0.2-0.3,0.2c-2.1-0.1-3.8,0.9-5.7,0.8
							c0.2,0,0.5-0.1,0.3-0.1l-1.5,0.3c0.1,0.1,0.2,0.1,0.6,0.1c-0.2,0.1-0.6,0.2-1,0.3c0.7-0.2,0-0.2-0.3-0.2c0.1,0,0,0.1,0,0.1
							c-0.8-0.1-0.1,0.3-1.2,0.2l0.1-0.1c-0.4,0.1-0.8,0.2-1.2,0.2c-0.2-0.1,0.4-0.1,0.5-0.2c-0.6,0.1-1.2,0.4-1.8,0.3
							c0.3-0.1,0.7-0.1,0.9-0.1C71.1,95,71,95,70.5,95l0,0l-1.1,0l0.3,0c-0.8,0.4-1.6,0.1-2.7,0.4c1-0.3,0.2-0.1,0.2-0.3
							c-0.3,0-0.7-0.1-0.6-0.1c-0.5,0.1-0.8-0.1-1.5,0.1c0-0.1-0.5,0-0.4-0.2c-0.6,0,0.1,0.1,0.1,0.2c-1,0.2-2.3-0.3-3.8-0.2
							c-1.2,0-1.5,0.1-2.7,0.1c-0.4-0.1,0.3-0.2,0.3-0.2c-0.6-0.2-1.1-0.2-1.7-0.3c0.1,0,0-0.1-0.2-0.2c-0.5-0.1-0.3,0.2-1,0
							c0.1,0,0.3-0.1,0.5-0.2c-0.6,0-1.1,0-1.7,0C54.7,94,55.2,94,55.4,94c-0.7,0-1.7-0.1-1.9,0.1l0.4,0.1c-0.2,0-0.1-0.1,0.1-0.2
							c0.6-0.1,0.8,0.1,0.8,0.2l-0.4,0c0.4,0.3,1.7,0.1,2.5,0.3l-0.4,0.2l0.9-0.1c0.2,0.1,0.3,0.2-0.1,0.2c0.6,0.2,0.5,0,1,0.2
							c0.1,0,0,0,0,0l0.6,0c-0.1,0,0.1,0.2-0.3,0.1c1,0.3,1.7,0.1,2.1,0.3l-0.1,0c1.5,0.1,0.2-0.2,1.3-0.3l0.7,0.5l0.2-0.2
							c0.2,0,0.4,0.1,0.4,0.1c0.6-0.1-0.1-0.1,0.2-0.2c0.7,0.2,2,0,2.2,0.3c0.3-0.1-0.7-0.1,0.1-0.2c0.2,0.3,0.9,0,1.6,0.1
							c-0.2,0.2-0.8,0.1-0.2,0.2c0.4-0.3,1.3,0.1,1.9,0c0-0.2,1.2-0.1,2.2-0.3c-0.1,0.1,1.8,0,2.7,0l0,0c0.1-0.2,1.1-0.3,1.7-0.4
							c0,0.1-0.1,0.2-0.5,0.3l0.6-0.1c0.1-0.1,0.3-0.1,0.7-0.2L76,95.3c0.8-0.1,1.6-0.4,2.7-0.5c0-0.2-0.9-0.3,0.2-0.5
							c0.1,0.1,0.1,0.2-0.2,0.3c0.1,0,0.3-0.1,0.5-0.1l-0.4,0.2c0.5,0,0.2-0.1,0.6-0.2c0,0.1,0.3,0,0.3,0.1c-0.1,0-0.3,0-0.5,0.1
							c0.4-0.1,1-0.1,1.1,0c0-0.1,0-0.2,0.3-0.2c0.8-0.2,0.3,0.1,0.8,0.1c0.2-0.1,0.7-0.1,0.7-0.3c0.2,0,0.3,0,0.4,0.1
							c0.4-0.2,1.9-0.4,1.4-0.5l-0.1,0c0,0,0,0,0.1,0l0,0l0,0c1.3-0.4,2.9-0.5,4.2-0.9l0,0.1c0.8-0.3,1.8-0.6,2.3-0.9
							c0.2-0.1,0.6-0.1,0.5,0c0.6-0.3,0.6-0.3,1.5-0.6c-0.5,0.3,0.2,0-0.6,0.3c0.8-0.3,1-0.3,1.7-0.8c-0.2,0.3,0.6-0.1,1-0.4
							l-0.6,0.2c0.4-0.2,0.7-0.4,1.1-0.6l-0.1,0.3c1.6-0.7,2.3-2,3.6-2.6c0.3-0.4-0.8,0.5-0.6,0.1c0.6-0.5,1.4-0.8,1.6-1
							c0.8-0.7,0.5-0.9,1.3-1.7c-0.2,0.1-0.4,0,0.1-0.6c0.5-0.6,0.8-0.6,0.6-0.1c-0.1,0.1-0.2,0.2-0.2,0.2c-0.1,0.2-0.3,0.5-0.1,0.3
							l0-0.1c0.3-0.2,1-1.1,0.9-0.8c0.3-0.5,0.1-0.3-0.2,0.1c0.7-0.7,0.9-1.3,1.6-2.1c-0.1,0.1-0.3,0.2-0.2,0.1
							c0.9-1.2,0.2-0.6,0.7-1.5c0.4-0.5,0.1,0.3,0.5-0.6c0.4-0.5,0.2,0,0.2,0.2c0.3-0.9,0.9-1.5,1.1-2l-0.2,0.5
							c0.1-0.3,0.2-0.5,0.3-0.7l-0.2,0.2c0.1-0.3,0.2-0.5,0.3-0.5c0-0.3-0.3,0.1-0.2-0.5c0.2-0.3,0.4-1.1,0.6-1.2
							c-0.5,1.1,0.2-0.1-0.1,0.9c0.1-0.2,0.1-0.4,0.3-0.7c0,0,0,0.1,0,0.1c0.6-1.1,0-0.6,0.4-1.7c0.1,0.2,0.3-0.2,0.3-0.4
							c-0.1,0.5-0.2,0.2-0.2-0.3c0.3-0.7,0.2-0.8,0.3-1.2l-0.2,0.4c-0.1-0.2,0.1-0.5,0.2-1.1c0.1,0-0.1,0.5,0,0.3
							c0-0.6,0.5-1.3,0.5-2.1c0.1-0.4,0.2,0,0.3-0.3c0-0.9,0.3-1,0.4-2c-0.2,0.3-0.1,0.3-0.2-0.4c0,0,0,0.4-0.1,0.8
							c0,0.4-0.1,0.8-0.1,0.8l0-1.1c-0.1,0.5-0.1,1-0.1,1.3c0-0.5,0-0.4-0.2-0.2c0.3-0.6,0.1-1.3,0.3-2.1l0.3,0.1
							c0.3-1.1,0.1-2.1,0.2-3.6l-0.1,0.5c-0.1-0.2,0-0.9,0-1.4c0.1,0,0.2-0.3,0.2-0.5c-0.1,0,0-1.1-0.2-1.2l0.1-0.7
							c0-1.2-0.4-1.4-0.4-2.5c0.1,0.3,0.2-0.2,0.3,0.6c0-0.4,0-0.7-0.1-0.7c0.1-0.2-0.3-1.1-0.2-1.5c-0.1-0.2-0.2-0.2-0.3-0.6
							c0-0.1,0.1,0,0.1,0c0,0-0.3-0.6-0.3-0.2c0-0.6-0.5-1.4-1.1-2c-0.6-0.6-1.2-1.1-1.5-1.5c-0.7-0.5-1.5-1.1-2.1-1.6
							c0.1,0,0,0,0.1,0.1c-0.8-0.7-0.7-0.2-1.6-1c-0.4-0.5,0.6,0.3,0.3,0c0.1-0.4-1.2-0.8-1.8-1.4l0.2,0.1c-0.5-0.4-1.4-0.6-2.4-1.1
							c0,0,0.1,0,0-0.1c-0.7-0.1-2-0.5-3-0.7c0.3-0.1,0.4,0,0.3-0.2c-0.4-0.1,0.1,0.3-0.8,0.1c-0.3-0.1-0.9-0.4-0.9-0.5l0.8,0.2
							c-0.4-0.3-1-0.2-1.5-0.4l0.1-0.1c-1.2-0.2-1.3,0-2.6-0.3l0.1,0.1c-0.8,0.1-0.6-0.2-1.3-0.2l-0.2-0.3c-0.5,0-1.7-0.1-2.6-0.3
							c0.5-0.1,1.5,0,2.2,0.1c-0.5-0.1-1.6-0.3-1.9-0.2c0.2,0,0.4,0,0.6,0.1c-0.6,0.1-1.4,0-2.3-0.2c0.2-0.4-2.4-0.6-3.1-1
							c-1.7-0.1-3.3-0.6-5.3-0.7c0.7,0.4-0.6,0-0.5,0.3c-0.5,0-0.6,0-0.7-0.1l-1.4-0.3c-0.3-0.1,0.4-0.1,0.4-0.1
							c-1-0.1-0.4-0.2-1.1-0.3c0.1,0.1-0.4,0.2-0.9,0.1l0.8,0.2c-1.4,0.1-1.2-0.3-2.7-0.2l0.5-0.1c-0.7,0-2.7,0-3.4,0.3
							c-0.1,0-0.3-0.1,0-0.2c-1.8,0-3.9,0.4-5.3,0.3l0.1-0.1c-0.3,0-0.6,0.2-1,0.1c0,0,0.1-0.1,0-0.1c-0.2,0-0.9,0.2-1.3,0.2
							l0.4-0.1c-1.7,0-2.6,0.4-4,0.6c0-0.3-1.4-0.2-2-0.2l0,0c-2,0.2-3.3,0.6-5.1,1c-1.2-0.1-3.9,0.6-5.7,1.2c0.3-0.1,0,0.2-0.3,0.4
							c-0.4,0.1-1,0.7-1.1,0.5l0.1-0.1c-0.4,0-1.2,0.5-1.8,0.9l0.1,0.3c-1.8,0.8-3.5,3.2-4.5,3.6c-0.3,0.4-0.7,0.7-0.9,1.1l-0.1-0.1
							c-0.9,0.8-1.4,1.2-2.4,2.4l0.1-0.3c-0.6,0.6-0.4,1.1-0.9,1.7l-0.3,0c-0.9,1.2-2,2.3-2.5,3.8c0,0-0.1-0.1,0-0.3
							c-0.4,0.6-1.4,2.4-0.9,2.3c-0.2-0.1-0.6,1.4-0.8,2.2L27.6,63c0,0.7,0,0.8-0.2,1.7c-0.1,0.2-0.2,0.2-0.1-0.1
							c-0.3,0.7,0,0.6-0.3,1.5l0-0.4c-0.2,0.7-0.1,0.7-0.1,1.1c0,0.5-0.3,1.4-0.5,1.5c0.1,0.1,0.1,0.5,0,1c-0.1,0.1-0.1-0.1-0.1-0.2
							c-0.3,1.3,0,1.9-0.2,2.8c-0.1,0-0.1,0.1-0.1,0.1c0-1,0.1-1.8,0.1-1.8c-0.1,0-0.3,0.8-0.4,0.1c0.1,0.7,0.2,1.8,0.2,2.6
							c0,0,0,0.1-0.1,0.1l0-0.1c0,0.2,0,0.4,0,0.5c0,0.3,0,0.4,0,0.7c-0.1,0.1,0,1,0,1.4c0.2,0,0.2,0.5,0.3,0c0,0.1,0-0.1-0.1-0.3
							c0-0.1,0-0.1,0-0.2l0,0c0-0.3,0-0.6,0-1c0.1,0.3,0.2,0.7,0.1,1.1c0.1,0.2,0.2,0.4,0.3,0.6c-0.2,0.6-0.2,1.7-0.3,1.8
							c0.2,1.2,0.6,2.9,1.1,3.6c0.1,0.3,0,0.4,0,0.6c-0.1-0.2-0.2-0.4-0.2-0.5c0.2,0.7,0.7,2,1,2.1c0.3,0.9-0.4-0.4,0.1,0.7L28.1,84
							c0.4,1.2,1,2,1.7,2.8c0.7,0.8,1.5,1.4,2.4,2.5C32.1,89.1,32,89,32,89c2.3,2.2,5.4,3.3,8.1,4.6c0.8,0.3,0.9,0.2,1.5,0.3
							l0.1,0.2c0,0,0.2,0,0.5,0c0.2,0,0.5,0,0.5,0c1.3,0.2,2.1,0.9,3.7,0.9l-0.2-0.1c0.6,0.1,1.8,0.1,1.7,0.3c0.1,0,0.2-0.1,0.4,0
							l0,0.1c0,0,0.4,0,0.7,0c0.4,0,0.7-0.1,0.7-0.1c1.1,0.1-0.2,0.4,1.4,0.4c0.6,0,1.7-0.4,1.5-0.4c-0.2,0-0.6,0-0.6-0.1l0.5-0.1
							c0.1-0.3,0.5-0.6-0.8-0.7l-0.9,0.2l-0.3-0.1l0.8,0c-0.4-0.1-0.7,0-1,0.1c-0.1-0.1-0.2-0.1-0.4-0.1c0,0-0.2,0.1-0.4,0.1
							c-0.2,0.1-0.5,0.1-0.5,0.1c-0.1-0.1,0.4-0.2-0.2-0.3c-0.4,0.1,0.4,0.3-0.3,0.3c-0.4-0.2-0.3-0.2-0.8-0.2
							c-0.1-0.1,0-0.1,0.2-0.1c-0.5,0.1-1.2-0.1-1.4,0c-0.4-0.2-1.5-0.2-1.4-0.4c-0.1,0-0.8,0.1-1.2,0c0.8-0.1-1.5-0.4-1.2-0.7
							c-0.6,0.1-2-0.4-3-0.7c0.1,0,0.2,0,0.3,0c-0.5-0.2-0.6-0.4-0.9-0.5c-0.2,0.2-1-0.1-1.5-0.2c-0.5-0.5,0.5-0.1,0.4-0.3
							c-0.1,0.2-1.1-0.4-1-0.1c-0.4-0.4-0.4-0.3-0.5-0.6c-0.2,0.2-0.5-0.2-0.9-0.3c-0.6-0.5,0-0.3-0.8-0.7
							C34.3,89.4,35,89.7,35,89.7z M27,72.9L27,72.9c0,0.2,0,0.3,0,0.4C27,73.2,27,73.1,27,72.9z M27.1,71.2c0,0.2,0,0.5,0,0.7
							c-0.1,0.1-0.1,0-0.1-0.2C27,71.8,27,71.4,27.1,71.2z M25.9,74.8c0-0.3,0-0.4,0-0.4C26,74.5,26,74.7,25.9,74.8
							c0.1,0.1,0.1,0.1,0.1,0.1C26,74.9,26,74.9,25.9,74.8z"/>
						<path fill="#202020" d="M26.2,75.3c0,0,0,0.1,0,0.1C26.2,75.3,26.2,75.3,26.2,75.3c0-0.1,0-0.1,0-0.1
							C26.2,75.2,26.2,75.2,26.2,75.3z"/>
						<path fill="#202020" d="M83.9,93.8L83.9,93.8C83.9,93.8,83.9,93.8,83.9,93.8C83.9,93.8,83.9,93.8,83.9,93.8z"/>
						<polygon fill="#202020" points="37.5,51.3 37.5,51.3 37.4,51.4 						"/>
						<path fill="#202020" d="M74.6,94.7c0,0-0.1,0-0.1,0C74.4,94.7,74.5,94.7,74.6,94.7z"/>
						<path fill="#202020" d="M70.5,95L70,95C70.2,95,70.4,95,70.5,95z"/>
						<path fill="#202020" d="M67.4,95.1C67.4,95.1,67.4,95.1,67.4,95.1L67.4,95.1L67.4,95.1z"/>
						<path fill="#202020" d="M106.2,72.5c0,0,0-0.1,0-0.1C106.3,72.2,106.3,72.3,106.2,72.5z"/>
						<path fill="#202020" d="M99.7,85.4c0.1-0.1,0.2-0.3,0.3-0.4C99.8,85.2,99.7,85.3,99.7,85.4z"/>
						<polygon fill="#202020" points="107.2,56.5 107.2,56.5 107.2,56.4 						"/>
						<path fill="#202020" d="M100.4,84.5c-0.2,0.2-0.3,0.3-0.4,0.5C100.1,84.9,100.3,84.7,100.4,84.5z"/>
						<path fill="#202020" d="M54,93.8l-0.2,0c0,0,0,0,0,0L54,93.8z"/>
						<path fill="#202020" d="M53.8,93.8l-0.2,0C53.8,93.8,53.8,93.8,53.8,93.8z"/>
						<path fill="#202020" d="M53.3,93.8l0.4,0C53.5,93.8,53.4,93.8,53.3,93.8z"/>
						<path fill="#202020" d="M58.2,94.4L58.2,94.4C58.2,94.4,58.2,94.4,58.2,94.4z"/>
						<path fill="#202020" d="M59.4,94.6c-0.3-0.1-0.7-0.2-1.1-0.3l0,0C58.4,94.3,59.1,94.6,59.4,94.6z"/>
						<path fill="#202020" d="M64.5,95.7l-1.1-0.1c0.2,0.1,0.4,0.2-0.1,0.2C64.7,96.1,63.2,95.7,64.5,95.7z"/>
						<path fill="#202020" d="M67.8,95.9c-0.6,0,0,0.1,0,0.1C68.2,95.9,68.2,95.9,67.8,95.9z"/>
						<path fill="#202020" d="M91.1,92l0,0.2C91.5,92,91.1,92.1,91.1,92z"/>
						<polygon fill="#202020" points="94.8,89.3 94.4,89.5 94.3,89.7 						"/>
						<polygon fill="#202020" points="97.6,88.6 97.4,88.8 98,88.3 						"/>
						<path fill="#202020" d="M106,52.1l0,0.2C106.3,52.5,106.4,52.4,106,52.1z"/>
						<path fill="#202020" d="M90.6,44.9c-0.2-0.1-0.6-0.3-0.9-0.3C90.1,44.7,90.4,44.8,90.6,44.9z"/>
						<polygon fill="#202020" points="40,47.2 40.2,47 39.7,47.4 						"/>
					</g>
				</g>
			</g>
		</g>
	</g>
	<g>
		<g>
			<g>
				<g>
					<g>
						<path fill="#202020" d="M99.4,57.9c0,0-0.2,0-0.1,0L99.4,57.9L99.4,57.9z"/>
						<path fill="#202020" d="M99,58.1c0.1,0,0.3,0,0.4,0c-0.2,0-0.1,0-0.3,0c0,0,0.1,0,0.1,0c0,0,0,0-0.1,0c-0.1,0-0.1,0.1,0,0.1
							C99.1,58.1,99.1,58.1,99,58.1z"/>
						<path fill="#202020" d="M100.1,60.5L100.1,60.5C100.1,60.5,100.1,60.5,100.1,60.5z"/>
						<path fill="#202020" d="M101.7,61.2C101.7,61.2,101.7,61.2,101.7,61.2C101.7,61.2,101.7,61.2,101.7,61.2z"/>
						<path fill="#202020" d="M102,61.4C102,61.4,102,61.4,102,61.4C102,61.4,102,61.4,102,61.4z"/>
						<path fill="#202020" d="M100.1,60.5L100.1,60.5C100.1,60.5,100.1,60.5,100.1,60.5z"/>
						<path fill="#202020" d="M99.5,58.3C99.5,58.3,99.5,58.3,99.5,58.3L99.5,58.3L99.5,58.3z"/>
						<path fill="#202020" d="M99.4,60.1L99.4,60.1C99.4,60.1,99.3,60.1,99.4,60.1L99.4,60.1z"/>
						<path fill="#202020" d="M99,59.6c0,0,0.1-0.1,0.2-0.1C99.1,59.5,99.1,59.5,99,59.6C99.1,59.5,99,59.6,99,59.6z"/>
						<path fill="#202020" d="M98.9,58.6L98.9,58.6L98.9,58.6z"/>
						<path fill="#202020" d="M99.7,60.4C99.7,60.4,99.6,60.5,99.7,60.4C99.7,60.5,99.7,60.4,99.7,60.4z"/>
						<path fill="#202020" d="M99.8,57.4C99.8,57.4,99.8,57.4,99.8,57.4C99.8,57.4,99.8,57.4,99.8,57.4z"/>
						<polygon fill="#202020" points="99,57.9 98.9,57.9 98.9,57.9 						"/>
						<path fill="#202020" d="M102.7,61.5L102.7,61.5C102.7,61.6,102.7,61.6,102.7,61.5z"/>
						<path fill="#202020" d="M105.5,57.1c-0.1,0.1-0.2-0.1-0.3,0.1C105.2,57.2,105.4,57.2,105.5,57.1z"/>
						<path fill="#202020" d="M99.5,58.4C99.5,58.4,99.5,58.4,99.5,58.4C99.5,58.4,99.5,58.4,99.5,58.4z"/>
						<polygon fill="#202020" points="105.1,57.2 105.1,57.2 105.1,57.2 						"/>
						<path fill="#202020" d="M104,60.9C104,60.9,104,60.9,104,60.9C103.9,60.9,104,60.9,104,60.9z"/>
						<path fill="#202020" d="M103,61.1L103,61.1C103,61.1,103,61.1,103,61.1z"/>
						<path fill="#202020" d="M104.3,60.4C104.3,60.4,104.3,60.4,104.3,60.4L104.3,60.4C104.3,60.4,104.3,60.4,104.3,60.4z"/>
						<polygon fill="#202020" points="104.6,60 104.6,60 104.6,60 						"/>
						<path fill="#202020" d="M100.2,56.4c0,0-0.1-0.1-0.1-0.1C100.2,56.4,100.2,56.5,100.2,56.4z"/>
						<path fill="#202020" d="M99.4,58.4C99.5,58.3,99.5,58.3,99.4,58.4C99.5,58.4,99.5,58.3,99.4,58.4
							C99.5,58.3,99.4,58.3,99.4,58.4z"/>
						<path fill="#202020" d="M103.4,59.4L103.4,59.4C103.4,59.4,103.4,59.4,103.4,59.4z"/>
						<path fill="#202020" d="M102.6,55.7L102.6,55.7C102.6,55.7,102.6,55.7,102.6,55.7z"/>
						<path fill="#202020" d="M103.6,59.3c0,0,0.1,0,0.1,0C103.7,59.3,103.6,59.3,103.6,59.3L103.6,59.3z"/>
						<path fill="#202020" d="M100.1,56.3L100.1,56.3L100.1,56.3z"/>
						<path fill="#202020" d="M100.2,56.9c0,0-0.2-0.1-0.3-0.2c0-0.1,0.1,0.1,0.3,0.1c0-0.1-0.2-0.2-0.1-0.2c0,0,0,0,0.1,0.1
							c-0.1-0.1,0.1-0.1-0.1-0.3l0,0c-0.1-0.1-0.2-0.1-0.2-0.2c0,0-0.1-0.1,0,0c0,0,0,0,0.1,0.1l0-0.1c0.2,0.1,0,0.1,0.1,0.2
							c0-0.1-0.1-0.2,0-0.2c0.1,0.1,0,0.1,0.1,0.2l-0.1,0c0.3,0.2,0,0,0.2,0.2c0.1,0,0-0.1,0.1-0.1c-0.1-0.1-0.1-0.1-0.2-0.2
							c0-0.2,0.4,0.3,0.3,0.1c-0.1-0.1-0.2-0.3-0.1-0.2l0.1,0.2c0.1,0-0.2-0.3,0-0.2c0,0.1,0,0.1,0,0.1c0.1,0.1,0-0.1,0-0.2l0.1,0.2
							c0.1-0.1,0.1-0.2,0.1-0.3c0,0.1,0,0.1,0.1,0.2c0.1-0.1,0.2-0.1,0.4,0l0-0.2c0,0,0,0.1,0,0.1c0.1,0.1,0-0.1,0-0.2
							c0,0,0.1,0.1,0.1,0.1c0-0.2,0.1-0.4,0.3-0.2l0,0.1c0.1,0.1,0-0.4,0.1-0.2l0,0c0.1,0.1,0.3-0.1,0.4,0.2c0-0.2,0.1,0.1,0.2-0.2
							c0.1,0.2,0,0.2,0.1,0.4c0,0,0.1-0.2,0.1-0.2l0,0.2l0.1-0.2l0,0.2l0,0c0,0,0-0.1,0-0.1c0.1-0.1,0.1,0.2,0.1,0.2l0.2-0.1
							c0,0.1-0.1,0.1-0.1,0.1c0.1-0.1-0.1,0.2,0.1,0c0,0,0-0.1,0.1-0.1c0,0.1,0,0.1,0.1,0.1l-0.1,0.1c0.1,0.1,0.2,0,0.3,0.1
							c0-0.1,0.1-0.2,0.2-0.2l-0.1,0.2c0.1-0.1,0-0.1,0.1-0.2c0,0-0.1,0.2-0.2,0.2l0.1,0c0,0-0.1,0.1-0.1,0.1c0.1-0.1-0.1,0.2,0.1,0
							l0,0c0.1,0.1,0.1,0,0.2,0.1c0.1-0.1,0.1-0.1,0.2-0.1c0,0.1,0,0.2,0,0.3c0.1,0,0.1-0.1,0.2-0.1c-0.1,0.1-0.1,0.1-0.2,0.2
							c0.1,0.1,0.1,0.1,0.3,0.1c0,0,0.1-0.1,0.1-0.1c0,0,0,0.1-0.1,0.1l0,0c0.3,0-0.2,0.5,0.1,0.4l0,0l0.2,0c0,0.1-0.1,0-0.2,0.1
							c0.3,0,0,0.2,0.2,0.2c-0.4,0.2,0.1,0.2-0.2,0.4l0.1,0c0.1,0-0.1,0-0.1,0.1c0.1,0,0.1,0,0.1,0c0.1,0.2-0.2,0.4-0.3,0.6
							c0,0.1,0.5,0.2,0.2,0.2l-0.2-0.1c0.2,0.2-0.1,0.3,0,0.5c0,0-0.1-0.1-0.1-0.1c-0.1,0-0.1,0.1,0,0.2c0,0-0.1,0-0.1-0.1
							c-0.1,0,0.1,0.2,0,0.1c0,0,0,0,0,0c0,0.1-0.1,0.1,0.1,0.1c-0.1,0,0,0.1-0.1,0.1c0.1,0.1-0.1,0,0,0.2c-0.2-0.2-0.2-0.1-0.2,0
							c0-0.1-0.1,0-0.1-0.1c0,0,0,0.1,0.1,0.2c-0.3-0.2,0,0.3-0.2,0c0,0.2-0.1,0.3-0.2,0.4c-0.1-0.2,0.1-0.1,0-0.3
							c0,0.1,0,0.4-0.1,0.4c0,0,0-0.1,0-0.2c-0.1,0.1-0.2,0.1-0.3,0.2c0,0,0-0.1,0-0.1c0,0-0.1,0,0,0.1l0,0c0.1,0.2,0,0.4,0,0.5
							c0-0.3-0.1-0.1-0.2-0.5c0,0,0,0.1,0,0.2c0,0,0-0.1,0-0.2c-0.1,0.1,0,0.2-0.1,0.2c0-0.1,0-0.1,0-0.1c0,0.1,0,0.2-0.1,0.2
							c0,0,0-0.1,0-0.1c-0.1,0-0.1,0.3-0.3,0.2c0-0.3,0-0.1,0-0.3l-0.1,0.1l0,0.1c0,0-0.1,0.1-0.1,0.1l0-0.1l-0.1,0l0,0.1
							c-0.1,0.1,0,0.3-0.1,0.2c0,0-0.1,0-0.1-0.1l0,0c0,0.1-0.1,0.1-0.1,0.1c0-0.1,0-0.2,0-0.3c-0.1,0.2-0.1,0-0.2,0.2
							c0,0,0-0.2,0-0.2l-0.1,0.1c0-0.1,0-0.1,0-0.2c-0.1,0,0,0.3-0.1,0.1c0,0,0,0,0,0c-0.1-0.1-0.2,0-0.2-0.1c0-0.2,0.1,0,0.1-0.2
							c-0.1,0-0.3,0.2-0.4,0.1l0,0c-0.1,0.3,0-0.2-0.1-0.1c0,0,0.1-0.1,0.1-0.1c0-0.1-0.2,0-0.3,0l0.1-0.1c0-0.1-0.1-0.1-0.1-0.2
							c-0.1,0.1-0.1,0-0.1,0.1c0.2-0.4-0.4,0-0.2-0.4c0,0,0.1,0,0.1,0l-0.1,0c-0.1,0.1-0.1,0.1-0.1,0.2c-0.1,0-0.1,0.1-0.2,0
							c0.1,0,0.2-0.1,0.2-0.2l-0.1,0.1c0.1-0.2-0.2,0.2-0.1,0l0.1,0c0,0-0.1,0-0.1,0c0.1-0.1,0.1,0,0.2-0.1c0,0-0.3,0.1-0.2,0
							c0,0,0.1,0,0.1,0c0.1-0.1,0.1-0.1,0.1-0.2l0,0l0-0.1l0,0c-0.4,0.2-0.1-0.1-0.4,0c0.3,0,0.1-0.1,0.3-0.1c0,0,0.1-0.1,0.1-0.1
							c-0.1,0,0.1-0.1-0.1-0.1c0.1,0,0,0,0.1-0.1c-0.1,0-0.1,0-0.2,0.1c-0.2,0,0.2-0.2-0.1-0.2c-0.1-0.1-0.3,0-0.4-0.1
							c0.1-0.1,0.2,0,0.2,0c0.1-0.1,0-0.1,0-0.1c0,0,0.1,0,0.1,0c0,0-0.2,0-0.1,0c0.1,0,0.2,0,0.2,0c-0.1,0-0.2-0.1-0.2-0.1
							c0.1,0,0.2,0,0.2,0c-0.1,0-0.1-0.1-0.3-0.1l-0.1,0c0,0,0.1,0,0.2,0c0.1,0,0,0.1-0.1,0.1l0,0c-0.3,0.1,0.1,0.1,0.1,0.2l-0.2,0
							l0.2,0c-0.1,0-0.2,0.1-0.2,0c-0.1,0.1,0.1,0,0,0.1c0,0,0,0,0,0l0.1,0c-0.1,0-0.2,0-0.1,0c-0.1,0.1,0.2,0.1,0,0.2l0,0
							c0.1,0.1,0.2,0,0.4,0L98.9,59l0.2,0c0,0,0,0-0.1,0.1c0.1,0,0.1,0,0.2,0c-0.1,0.1,0.1,0.1-0.1,0.3c0.1,0,0.1-0.1,0.2-0.1
							c-0.3,0.1,0.1,0,0,0.2c-0.1,0.1-0.1,0-0.2,0.1c0.2-0.1,0,0.1,0.1,0.2c0.2-0.1,0.1,0,0.2,0.1c-0.1,0,0,0.2,0,0.3l0,0
							c0.2-0.1,0.2,0,0.3,0C99.4,60,99.4,60,99.3,60l0,0c0.1,0,0.1,0,0.1,0l-0.1,0.1c0.1,0.1,0.2,0,0.2,0.1c0.1-0.1,0.2-0.3,0.4-0.3
							c-0.1,0.1-0.1,0.2-0.2,0.2c0,0,0.1,0,0.1,0l-0.1,0.1c0,0.1,0.1-0.1,0.1,0c-0.1,0.1,0,0.1-0.1,0.1c0,0,0-0.1,0,0
							c0,0,0,0.1,0,0.2c0-0.1,0.1-0.1,0.1-0.1c0.1,0-0.1,0.1-0.1,0.2c0.1,0,0.1,0,0.2-0.1c0,0,0,0.1-0.1,0.1c0.1,0,0.2,0.1,0.2-0.1
							l0,0l0,0l0,0l0,0c0.2-0.1,0.2,0.2,0.3,0.2l0,0c0.1,0,0.2,0,0.3,0c0,0,0,0.1,0,0.2c0.1,0,0.1-0.1,0.1,0c-0.1,0.1,0,0.1-0.1,0
							c0.1,0.1,0,0.2,0.2,0c-0.1,0.1,0,0.2,0,0.2l0-0.1c0,0,0.1,0,0.1,0l-0.1,0.2c0.1,0.3,0.4-0.3,0.4,0.1c0.1-0.1-0.1-0.1,0-0.3
							c0.1,0,0.1,0.3,0.1,0.3c0.1,0.1,0.1-0.3,0.2-0.2c0-0.1,0-0.3,0.1-0.3c0.1,0,0.1,0.3,0,0.3c0,0,0,0,0,0c0,0-0.1,0.1,0,0.1
							l0-0.1c0,0.1,0.1,0.1,0.1,0.2c0.1-0.1,0-0.1,0-0.1c0.1,0.1,0.1,0,0.2,0.1c0,0,0-0.1,0-0.1c0.1,0.1,0.1-0.1,0.1-0.2
							c0.1,0.1,0,0.2,0.1,0.2c0.1,0.1,0,0.2,0,0.2c0.1-0.1,0.2,0.1,0.2,0.1l0,0.1c0,0,0.1,0,0.1,0l0-0.1c0,0,0.1,0,0.1,0.1
							c0-0.1-0.1-0.2,0-0.4c0,0.1,0.1-0.1,0.1,0.1c-0.1,0,0.1,0.2,0,0.2c0,0,0,0,0.1,0c0,0,0,0,0,0c0.2,0.1,0-0.2,0.1-0.2
							c0,0.1,0.1,0.2,0.1,0.2c0,0-0.1-0.2,0-0.2c0.1,0.1,0.1-0.1,0.1-0.1l-0.1,0c0-0.1,0-0.1,0.1-0.1c0,0.1,0,0.1,0,0.1
							c0-0.2,0.2,0.1,0.2,0c0.1,0.1,0.1,0.2,0.1,0.2c0-0.2,0.1,0.1,0.2-0.1c-0.1-0.1-0.1-0.1-0.1-0.2l-0.1,0.2l0-0.2
							c0,0-0.1,0.1-0.1,0.1c0-0.1,0-0.1-0.1-0.2c0.1,0.2,0.1-0.2,0.2-0.1l0.1,0.3c0.2,0.1,0.1-0.2,0.3-0.2l-0.1,0
							c-0.1-0.1,0.1-0.1,0.1-0.1c0.1,0.1,0.1,0.1,0.2,0.2c0-0.1,0.1-0.1,0-0.2l0.1,0.1c0.1,0-0.1-0.3,0-0.4c0.1,0.1,0.1,0.1,0.1,0.3
							c0,0,0.1,0,0-0.1c0.1,0,0-0.2,0.1-0.1c0,0-0.1-0.1-0.1-0.2c0,0,0,0,0,0c0,0,0-0.1-0.1-0.2c0.3,0.2,0.2-0.2,0.5-0.1
							c0-0.1,0-0.2,0.1-0.2c0,0,0,0,0,0c0.1,0-0.2-0.2-0.1-0.3c0.2,0,0.1,0.1,0.1,0.1c0.3,0.2,0-0.1,0.3-0.1l0,0
							c0.1,0-0.1-0.2,0-0.3c0,0,0,0,0.1,0c-0.1-0.1-0.2-0.3-0.2-0.4c0.1,0.1,0.1,0.1,0.2,0.1c0,0-0.2-0.1-0.2-0.2c0.1,0,0.2,0,0.3,0
							l0,0.1c0.2,0,0-0.1,0.1-0.1l0.1,0c0-0.1-0.2-0.2-0.2-0.3l-0.1,0c-0.2-0.1,0.1,0,0-0.1l0.2,0c0-0.1-0.2-0.2-0.2-0.3
							c0.2,0.1,0.2,0.2,0.3,0.2c0,0,0-0.2-0.1-0.2c0,0,0.1,0,0,0.1c-0.2-0.1-0.3-0.2-0.2-0.2c0.4,0,0.1-0.2,0.5-0.3
							c-0.2-0.2,0-0.3,0-0.5c-0.3,0.1,0-0.1-0.4,0c0,0,0-0.1,0-0.1l0.2-0.2c0.1-0.1,0.1,0,0.2,0c0-0.1,0.1-0.1,0.2-0.2
							c-0.1,0-0.2,0-0.2-0.1l-0.1,0.1c-0.2-0.1,0.2-0.2,0-0.3l0.1,0c-0.1,0-0.1-0.3-0.4-0.2c0,0,0.1-0.1,0.1-0.1
							c0-0.2-0.4-0.2-0.4-0.4l0.1,0c0,0-0.2,0-0.1,0c0,0,0.1,0,0.1-0.1c0,0-0.2,0-0.2,0l0.1,0c0-0.2-0.3-0.1-0.5-0.1
							c0.2-0.2,0.2-0.3,0.1-0.4l0,0c-0.1-0.2-0.4-0.1-0.6-0.1c0.1-0.3-0.3-0.3-0.3-0.5c0,0.1-0.1,0.2-0.1,0.2c0-0.1-0.2,0.1-0.1-0.1
							l0,0c0.1-0.2,0-0.2-0.1-0.2l-0.1,0.3c0-0.5-0.5,0-0.5-0.4c-0.1,0.1-0.1,0.1-0.2,0.1l0-0.2c-0.1-0.1-0.2-0.1-0.3-0.1l0-0.1
							c-0.1,0-0.1,0.5-0.2,0.5l0-0.2c-0.1,0-0.3-0.2-0.4,0c0,0,0-0.1,0-0.1c-0.1,0-0.3-0.1-0.2,0.2c0-0.2-0.2,0-0.2,0.1l0-0.2
							c0,0.2,0,0.3-0.1,0.3c0,0,0-0.1,0-0.1c-0.1-0.1,0,0.2-0.1,0.1l0-0.1c-0.1,0-0.1,0.1-0.1,0.2c0,0.1-0.1,0-0.2-0.1
							c0,0.1,0,0.2,0,0.2c0,0,0-0.1,0-0.1c-0.2-0.1-0.1,0.2-0.2,0.1c0,0,0-0.1-0.1-0.1c0.1,0,0.2-0.1,0.2,0
							c-0.1-0.1-0.1-0.1-0.2-0.3c0,0.1,0,0.4-0.1,0.4c0,0,0,0,0,0l0,0c0,0,0,0,0,0c0,0-0.1,0-0.1,0c-0.1-0.1-0.1,0-0.2,0
							c0.1,0.1,0,0.1,0.1,0.2c0,0,0,0,0,0c0,0,0,0,0,0l0,0c0,0,0,0,0.1-0.1c0,0.1,0,0.2-0.1,0.1c0,0.1,0.1,0.2,0.1,0.2
							c-0.2-0.2-0.3-0.2-0.4-0.3c0,0.1-0.2,0.2-0.1,0.5c0,0.1-0.1,0-0.1-0.1c0,0,0,0,0-0.1c0,0.1-0.1,0.2,0,0.3
							c-0.1,0-0.1-0.2-0.2-0.1l0-0.1c-0.4,0,0.2,0.6-0.3,0.5c0,0,0,0,0.1,0c-0.3,0.1-0.1,0.6-0.5,0.7c-0.1,0.1,0,0.1,0.1,0.2l-0.2,0
							l0.2,0.1c0.1,0.1-0.5,0.1-0.2,0.3l0.1,0c0,0,0,0.2-0.1,0.1c0,0,0.1,0,0.1,0l-0.1,0l0.1,0.1c-0.1,0.1-0.4,0-0.4,0.1
							c0,0.1,0.3,0.2,0.3,0.1c0,0,0.1-0.1,0.2-0.1l0,0c0.3,0,0.5,0,0.7,0l-0.2-0.1l0.1,0l0,0.1c0.1,0,0,0-0.1-0.1c0.1,0,0.1,0,0.1,0
							l-0.3-0.1c0.1,0,0.2,0,0.3,0c-0.1,0-0.2,0-0.3-0.1c0.1,0,0.2,0,0.1,0c0.1,0,0.1,0,0.1,0c-0.1,0,0-0.1-0.2-0.1
							c0.2,0,0-0.1,0.2-0.1c-0.1,0-0.2-0.1-0.2-0.1c0.3,0.1,0-0.1,0.4,0c-0.3-0.1-0.1-0.2-0.2-0.3c0,0,0.1,0,0,0c0,0,0.1,0,0.2,0
							c-0.2-0.1-0.2-0.2-0.3-0.3c0.2,0.1,0.2,0.1,0.4,0.2c-0.2-0.1-0.1-0.1-0.3-0.2c0.1,0,0.1,0,0.2,0.1c-0.2-0.1,0-0.1-0.2-0.2
							c0.1,0,0.2,0.1,0.2,0C100.1,56.8,100.2,56.9,100.2,56.9z M100.8,55.7L100.8,55.7C100.8,55.7,100.8,55.7,100.8,55.7
							C100.8,55.7,100.8,55.7,100.8,55.7z M100.9,55.6C100.9,55.6,100.9,55.6,100.9,55.6C100.8,55.6,100.8,55.5,100.9,55.6
							C100.8,55.5,100.9,55.6,100.9,55.6z M100.1,54.7C100.1,54.7,100.1,54.7,100.1,54.7C100.1,54.8,100.1,54.8,100.1,54.7
							L100.1,54.7C100.1,54.8,100.1,54.8,100.1,54.7z"/>
						<path fill="#202020" d="M100.2,55C100.2,55,100.2,55,100.2,55C100.2,55,100.2,55,100.2,55L100.2,55L100.2,55z"/>
						<path fill="#202020" d="M100.1,60.5L100.1,60.5C100.1,60.5,100.1,60.5,100.1,60.5L100.1,60.5z"/>
						<polygon fill="#202020" points="102.4,55.7 102.4,55.7 102.4,55.7 						"/>
						<path fill="#202020" d="M99.9,59.5C99.9,59.5,99.9,59.5,99.9,59.5C99.9,59.5,99.9,59.5,99.9,59.5z"/>
						<path fill="#202020" d="M99.8,59.3L99.8,59.3C99.8,59.3,99.8,59.3,99.8,59.3z"/>
						<path fill="#202020" d="M99.7,59.1C99.7,59.1,99.7,59.1,99.7,59.1L99.7,59.1L99.7,59.1z"/>
						<path fill="#202020" d="M102.6,60.1L102.6,60.1C102.6,60.1,102.6,60.1,102.6,60.1z"/>
						<path fill="#202020" d="M101.6,60.6C101.6,60.5,101.7,60.5,101.6,60.6C101.7,60.5,101.6,60.5,101.6,60.6z"/>
						<polygon fill="#202020" points="103.4,59.4 103.4,59.4 103.4,59.4 						"/>
						<path fill="#202020" d="M101.7,60.5C101.7,60.5,101.7,60.5,101.7,60.5C101.7,60.5,101.7,60.5,101.7,60.5z"/>
						<path fill="#202020" d="M99.5,58.1L99.5,58.1C99.5,58.1,99.5,58.1,99.5,58.1L99.5,58.1z"/>
						<path fill="#202020" d="M99.5,58.1L99.5,58.1C99.5,58.1,99.5,58.1,99.5,58.1z"/>
						<path fill="#202020" d="M99.4,58.1L99.4,58.1C99.5,58.1,99.5,58.1,99.4,58.1z"/>
						<path fill="#202020" d="M99.5,58.4L99.5,58.4C99.5,58.4,99.5,58.4,99.5,58.4z"/>
						<path fill="#202020" d="M99.5,58.5C99.5,58.5,99.6,58.4,99.5,58.5L99.5,58.5C99.6,58.4,99.4,58.5,99.5,58.5z"/>
						<path fill="#202020" d="M99,59.2l0-0.1c-0.1,0-0.1,0.1-0.2,0.1C98.7,59.3,98.9,59,99,59.2z"/>
						<path fill="#202020" d="M99,59.5c0,0-0.1,0-0.1,0.1C99,59.5,99,59.5,99,59.5z"/>
						<path fill="#202020" d="M100.6,60.9l-0.1,0.1C100.6,61,100.5,61,100.6,60.9z"/>
						<polygon fill="#202020" points="101.2,60.3 101.2,60.2 101.1,60.4 						"/>
						<polygon fill="#202020" points="101.2,61.4 101.1,61.4 101.2,61.4 						"/>
						<path fill="#202020" d="M104.7,60.1l-0.1-0.1C104.5,60.1,104.7,60.2,104.7,60.1z"/>
						<path fill="#202020" d="M105.2,58.6C105.3,58.6,105.4,58.6,105.2,58.6C105.3,58.5,105.2,58.6,105.2,58.6z"/>
						<polygon fill="#202020" points="103.2,54.5 103.3,54.4 103.2,54.4 						"/>
					</g>
				</g>
			</g>
		</g>
	</g>
	<g>
		<g>
			<g>
				<g>
					<g>
						<path fill="#202020" d="M96.2,73.9c0,0,0-0.2-0.1-0.1L96,73.9L96.2,73.9z"/>
						<path fill="#202020" d="M95.5,73.5c-0.1,0.1-0.2,0.3-0.2,0.4c0.1-0.2,0.1-0.1,0.3-0.3c0.1,0,0.2,0.1,0.2,0.1
							c0,0,0.2,0,0.2-0.1c-0.1-0.1-0.3-0.2-0.5,0C95.5,73.6,95.5,73.5,95.5,73.5z"/>
						<path fill="#202020" d="M86.6,77.6L86.6,77.6C86.7,77.6,86.6,77.6,86.6,77.6z"/>
						<path fill="#202020" d="M82,80.8C82,80.8,82.1,80.8,82,80.8C82,80.8,82,80.8,82,80.8z"/>
						<path fill="#202020" d="M80.9,80.8C80.9,80.8,81,80.8,80.9,80.8C81,80.8,80.9,80.8,80.9,80.8z"/>
						<path fill="#202020" d="M86.6,77.6l-0.2,0.1C86.5,77.8,86.6,77.7,86.6,77.6z"/>
						<path fill="#202020" d="M94.2,74.1C94.2,74.1,94.3,74,94.2,74.1L94.2,74.1L94.2,74.1z"/>
						<path fill="#202020" d="M88.5,75.5L88.5,75.5c0-0.1,0-0.1,0-0.1L88.5,75.5z"/>
						<path fill="#202020" d="M90.3,74.4c0,0,0,0.2,0,0.2C90.4,74.5,90.4,74.5,90.3,74.4C90.4,74.4,90.4,74.4,90.3,74.4z"/>
						<path fill="#202020" d="M93.6,73.5L93.6,73.5C93.7,73.5,93.7,73.5,93.6,73.5z"/>
						<path fill="#202020" d="M87.3,76.6C87.3,76.5,87.3,76.5,87.3,76.6C87.3,76.5,87.3,76.6,87.3,76.6z"/>
						<path fill="#202020" d="M34.7,72L34.7,72C34.7,72,34.7,72,34.7,72z"/>
						<polygon fill="#202020" points="33.5,69.7 33.6,69.7 33.6,69.7 						"/>
						<path fill="#202020" d="M79,81L79,81C79,81,79,81,79,81z"/>
						<path fill="#202020" d="M63.4,78c0.1,0.2-0.4,0-0.2,0.3C63.2,78.2,63.6,78.2,63.4,78z"/>
						<path fill="#202020" d="M94.2,74.1L94.2,74.1C94.1,74.1,94.1,74.1,94.2,74.1z"/>
						<path fill="#202020" d="M63.2,78.3L63.2,78.3L63.2,78.3C63.2,78.3,63.2,78.3,63.2,78.3z"/>
						<path fill="#202020" d="M74.6,82C74.6,82.1,74.7,82.1,74.6,82C74.7,82.1,74.7,82.1,74.6,82z"/>
						<path fill="#202020" d="M77.9,81.6L77.9,81.6C77.9,81.6,77.9,81.6,77.9,81.6z"/>
						<path fill="#202020" d="M73,82.6c0,0-0.1,0-0.1,0C72.9,82.6,72.9,82.6,73,82.6C72.9,82.6,72.9,82.6,73,82.6z"/>
						<path fill="#202020" d="M71.3,82.9C71.3,83,71.3,83,71.3,82.9L71.3,82.9L71.3,82.9z"/>
						<path fill="#202020" d="M39.1,75.5c0-0.1,0-0.1,0-0.2C39.1,75.4,38.8,75.3,39.1,75.5z"/>
						<path fill="#202020" d="M94.2,74C94.2,74,94.2,74,94.2,74L94.2,74C94.2,74,94.2,74,94.2,74z"/>
						<path fill="#202020" d="M73.2,83.9l-0.3,0C73,83.9,73.1,83.9,73.2,83.9z"/>
						<path fill="#202020" d="M51.6,79.6L51.6,79.6C51.5,79.7,51.5,79.6,51.6,79.6z"/>
						<path fill="#202020" d="M72,84.1c-0.1,0-0.1-0.1-0.2-0.1c0,0,0,0,0,0L72,84.1z"/>
						<path fill="#202020" d="M39.1,75.3L39.1,75.3L39.1,75.3z"/>
						<path fill="#202020" d="M37.3,74.5c0.2,0.2,0.2-0.1,0.4-0.1c0.3,0.2,0,0.2,0.1,0.4c0.2,0.1,0.4,0,0.6,0.1c0,0,0,0.1,0,0.1
							c0.3,0,0.5,0.4,0.9,0.3c0,0,0,0,0,0.1c0-0.1,0.1-0.2,0.1-0.3c0.1,0.1,0.3,0,0.2,0.2c-0.1,0-0.1,0-0.2,0l0.1,0
							c0,0.2-0.2,0-0.3,0.1c0.2,0.1,0.6,0.1,0.7,0.3c-0.1,0.2-0.4-0.2-0.3,0.1l-0.2-0.2c0,0.4-0.1-0.1-0.1,0.3
							c0.3,0.3,0.4,0.2,0.7,0.4c0.1,0,0.1-0.2,0.2-0.2c0.6,0.1,0.1,0.7,0.6,0.6c0.2-0.1,0.3-0.3,0.5,0l-0.2,0.1
							c0.3,0.2,0.3-0.2,0.6,0.2c-0.1,0-0.3-0.1-0.3,0c0.1,0.3,0.2,0,0.4,0.1l-0.1,0.2c0.4,0.2,0.8,0.2,1.3,0.4c0,0-0.1,0.1-0.1,0.2
							c0.6,0.2,1.1,0.5,1.6,0.9l0.3-0.1c0,0,0.1,0.1,0,0.1c0.2,0.1,0.1-0.1,0.2-0.1c0.1,0,0.1,0.2,0,0.2c0.4,0,1.1,0.1,1.4,0.4
							l-0.1,0c0.3,0.2,0.4-0.2,0.7,0l-0.1,0c0.6,0.3,1.4,0.4,1.9,0.7c0.1-0.2,0.7,0.2,0.8-0.1c0.4,0.2,0.3,0.3,0.9,0.3
							c0.2,0,0.2-0.2,0.4-0.3l0,0.2l0.2-0.2l0.2,0.2l0.2-0.1c-0.1,0-0.2,0-0.2-0.1c0.2-0.1,0.7-0.1,0.7,0l0.5-0.4
							c0,0.1-0.1,0.1-0.1,0.2c0.2-0.3,0.1,0.2,0.3-0.1c-0.1,0,0-0.1,0-0.1c0.2,0,0.5-0.1,0.7-0.2l0,0.1c0.4-0.1,0.8-0.4,1.3-0.5
							c-0.2,0-0.2-0.2-0.1-0.3l0.1,0.2c0.1-0.1-0.2,0,0-0.2c0.2,0,0.2,0.2,0.1,0.3l0.2-0.1c0,0.1,0,0.1,0,0.2
							c0.1-0.1,0.4,0.1,0.5-0.1l0,0.1c0.5-0.1,0.7-0.2,1.1-0.2c0-0.2,0.1-0.1,0.3-0.3c0.3,0,0.6,0.2,1,0.1c0.2-0.1,0.1-0.1,0.2-0.2
							c0,0.1,0.4,0.2,0.2,0.2c0.4,0,0.5,0,1.1-0.1c-0.1-0.1-0.1-0.1-0.1-0.1c0.1,0,0.2,0.1,0.2,0.2l0,0c0.6-0.2,1.3,0.7,1.8,0.5l0,0
							c0,0,0.1,0,0.3,0c0.1,0,0.3,0,0.3,0c0.2,0.1-0.2,0.1,0,0.2c0.6-0.1,0.8,0.3,1.2,0.3c0.1,0.5,1.1,0.5,1.3,1l0-0.1
							c0.2,0,0.1,0.1,0.2,0.2c0-0.1-0.1-0.1,0-0.2c0.9,0.4,1.6,1.3,2.2,2.1c0.3,0.3,0.5-0.2,0.7,0.3l-0.2,0c0.7,0.4,1.3,1.3,2.3,1.4
							c-0.1,0-0.1,0.1-0.2,0c0.1,0.2,0.7,0.2,0.7,0.1c0.1,0,0,0.1,0.1,0.2c0.2,0.1,0.5-0.1,0.6,0c0,0-0.1,0-0.1,0.1
							c0.1-0.1,0.6,0,0.5-0.1c0.3,0.1,0.6-0.1,0.9-0.1c0.1-0.2,0.5,0,0.5-0.3c0,0.3,0.6,0.1,0.7-0.1c0,0.1,0.2,0,0.1,0.2
							c0.2,0,0.4-0.1,0.3-0.3c0.4,0.2,0.7-0.4,1-0.1c0.6-0.3,1.1-0.5,1.7-0.7c0,0.3-0.6,0.2-0.5,0.4c0.5-0.2,0.8-0.5,1.3-0.5
							c0.1,0-0.1,0.1-0.1,0.2c0.5-0.2,1-0.2,1.4-0.4c0,0,0,0.1-0.1,0.1c0.1,0,0.2,0,0.2-0.1l-0.1,0.1c-0.2-0.1,0.3-0.4,0.3-0.5
							c-0.1,0.4,0.5,0,0.3,0.5c0.1,0,0.1-0.1,0.1-0.2c0.1,0,0.1,0,0.1,0.1c0.3-0.1,0.2-0.2,0.5-0.3c0,0.1,0,0.1-0.1,0.2
							c0.1-0.1,0.3-0.3,0.5-0.3c0,0,0,0.1,0,0.1c0.4-0.1,0.7-0.4,1.2-0.4c-0.1,0.3,0.2,0,0.2,0.3l0.2-0.1l-0.1-0.1
							c0.2,0,0.4-0.2,0.6-0.2l-0.1,0.1l0.4-0.1l-0.3,0c0.2-0.2-0.1-0.3,0.2-0.3c-0.1,0,0.2,0,0.4,0.1l0,0c0.1-0.1,0.2-0.2,0.4-0.2
							c0.1,0.1,0,0.2,0.1,0.3c0.1-0.2,0.5-0.2,0.6-0.4c0,0.1,0,0.2,0,0.2l0.1-0.2c0.1,0,0.1,0,0.1,0.1c0.3,0-0.2-0.2,0.2-0.2
							c0,0,0,0-0.1,0.1c0.4,0,0.7-0.3,1.1-0.5c0.2,0.1-0.3,0.2-0.1,0.3c0.6-0.4,0.7-1,1-1.4L86,79.5c-0.2-0.2,0.3-0.2,0.3-0.5
							c0,0.1,0.1,0.2,0.1,0.1c0.2-0.2,0.3-0.6,0.5-1l0,0.1c0.2-0.1,0.3-0.4,0.5-0.5c0-0.1,0.1-0.2-0.1-0.2c0.7-0.2,0.7-1,1.4-1.1
							c0,0-0.1,0.2,0,0.1l0.3-0.4c-0.1-0.1-0.1,0-0.2,0c0-0.1,0.1-0.2,0.2-0.3C88.8,76,89.1,76,89.2,76c0,0,0-0.1-0.1-0.1
							c0.3,0-0.1-0.2,0.3-0.3l0,0.1c0.1-0.1,0.1-0.2,0.3-0.3c0.1,0.1-0.1,0.1,0,0.2c0.2-0.1,0.2-0.5,0.4-0.4
							c-0.1,0.1-0.2,0.1-0.2,0.2c0.3,0.1,0.3,0,0.4,0l0,0l0.3-0.1l-0.1,0c0-0.5,0.4-0.3,0.6-0.7c-0.2,0.4,0,0.2,0.1,0.3
							c0.1,0,0.2,0,0.2,0.1c0.1-0.2,0.3,0,0.4-0.3c0,0,0.2-0.1,0.2,0.1c0.2-0.1-0.1-0.1-0.1-0.1c0.2-0.3,0.7,0,1.1-0.4
							c0.3-0.2,0.4-0.4,0.7-0.6c0.1,0.1-0.1,0.2-0.1,0.2c0.2,0,0.3,0,0.5-0.1c0,0.1,0,0.1,0.1,0.1c0.1,0,0.1-0.2,0.3-0.2
							c0,0.1-0.1,0.2-0.1,0.2c0.2-0.1,0.3-0.2,0.5-0.3c0.1,0.1-0.1,0.2-0.1,0.2c0.2-0.1,0.5-0.1,0.6-0.3l-0.1,0c0.1,0,0,0.1,0,0.2
							c-0.2,0.1-0.3,0-0.3-0.1l0.1,0c-0.2-0.3-0.5,0.1-0.8,0.1l0.1-0.3L94,73.8c-0.1-0.1-0.1-0.2,0-0.2c-0.2-0.1-0.1,0.1-0.3,0
							c0,0,0,0,0,0l-0.2,0.1c0-0.1-0.1-0.2,0.1-0.1c-0.4-0.1-0.5,0.3-0.7,0.1l0,0c-0.4,0.2,0,0.2-0.3,0.5l-0.3-0.3l0,0.2
							c0,0-0.1,0-0.1,0c-0.1,0.2,0.1,0.1,0,0.2c-0.3-0.1-0.6,0.3-0.7,0c0,0.2,0.2,0,0.1,0.2c-0.2-0.2-0.2,0.2-0.5,0.1
							c0-0.2,0.2-0.2,0-0.2c0,0.3-0.4,0.1-0.5,0.3c0.1,0.2-0.3,0.3-0.5,0.5c0-0.1-0.5,0.2-0.8,0.3l0,0c0.1,0.2-0.2,0.3-0.3,0.5
							c-0.1-0.1-0.1-0.2,0-0.3l-0.2,0.1c0,0.1,0,0.1-0.1,0.2l-0.1-0.2c-0.2,0.2-0.3,0.5-0.6,0.6c0.1,0.1,0.5,0.1,0.3,0.4
							c-0.1,0-0.2-0.1-0.1-0.2c0,0,0,0.1-0.1,0.1l0-0.2c-0.2,0.1,0,0.1-0.1,0.2c-0.1-0.1-0.1,0-0.2-0.1c0,0,0.1,0,0.1-0.1
							c-0.1,0.1-0.3,0.2-0.4,0.1c0.1,0,0.1,0.1,0,0.2c-0.2,0.2-0.2,0-0.3,0c0,0.1-0.2,0.2,0,0.3c-0.1,0.1-0.1,0-0.2,0
							c0,0.1-0.4,0.5-0.2,0.5l0,0l0,0l0,0l0,0c-0.1,0.4-0.6,0.7-0.8,1.1l0,0c-0.1,0.3-0.3,0.5-0.3,0.7c0,0.1-0.2,0.1-0.2,0
							c-0.1,0.2,0,0.2-0.3,0.4c0-0.2-0.1,0,0.1-0.2c-0.2,0.1-0.3,0.1-0.3,0.4c0-0.2-0.2-0.1-0.3,0l0.2,0c-0.1,0.1-0.2,0.1-0.3,0.1
							l0-0.2c-0.4-0.1-0.7,0.6-1.1,0.3c-0.1,0.2,0.3,0,0.2,0.2c-0.2,0-0.5-0.2-0.6-0.2c-0.3,0-0.2,0.3-0.6,0.3
							c0.1,0.1,0.1,0.2-0.1,0.3c-0.2,0-0.3-0.2-0.2-0.3c0.1,0,0.1,0,0.1,0c0.1,0,0.2-0.1,0.1-0.1l0,0.1c-0.1,0-0.5,0-0.4-0.1
							c-0.2,0.1-0.1,0.1,0.1,0.1c-0.3,0-0.5,0.1-0.8,0.1c0.1,0,0.1,0.1,0.1,0.1c-0.5,0-0.2,0.2-0.5,0.3c-0.2-0.1,0-0.3-0.3-0.1
							c-0.2,0-0.1-0.2,0-0.2c-0.3,0.2-0.5,0-0.7,0l0.1-0.1c-0.1,0.1-0.2,0.1-0.2,0.1l0.1,0.1c-0.1,0-0.2,0-0.2,0
							c-0.1,0.1,0.1,0.2,0,0.4c-0.1,0-0.3,0.1-0.4,0c0.4,0-0.1-0.2,0.2-0.3c-0.1,0-0.1,0-0.2,0c0,0,0,0,0-0.1
							c-0.4-0.1-0.1,0.2-0.5,0.3c0-0.1-0.1-0.2-0.2-0.1c0.1,0,0.1,0.2,0,0.3c-0.3,0-0.2,0.1-0.4,0.1l0.1,0c0,0.1-0.1,0.1-0.3,0.2
							c0-0.1,0.1-0.1,0.1-0.1c-0.1,0.2-0.4-0.1-0.7,0.1c-0.1,0-0.1-0.2-0.2-0.2c-0.3,0.2-0.3-0.1-0.6,0.1c0.1,0.1,0.1,0.1-0.1,0.3
							l0.5-0.2L76.5,82c0.1,0,0.3-0.2,0.4-0.1c-0.1,0.1-0.1,0.1,0,0.2c-0.2-0.2-0.4,0.2-0.6,0.1l-0.1-0.3c-0.4-0.1-0.6,0.3-1.1,0.3
							l0.2,0c0,0.1-0.3,0.1-0.4,0.2c0-0.1-0.1-0.1-0.2-0.2c0,0.1-0.3,0.1-0.3,0.3l-0.2-0.1c-0.4,0-0.4,0.4-0.7,0.4
							c0.1-0.1-0.1-0.2,0.1-0.3c-0.1,0-0.2,0-0.2,0.1c-0.1-0.1-0.3,0.2-0.4,0.1c0,0.1,0,0.2-0.2,0.2c0,0,0-0.1,0-0.1
							c0,0.1-0.2,0.1,0,0.2c-0.4-0.3-1,0.2-1.4,0c-0.2,0.1-0.5,0.1-0.8,0.1c0,0,0-0.1,0,0c-0.3-0.1-0.2,0.3-0.6,0.1
							c-0.1-0.2,0.2-0.1,0.1-0.2c0-0.4-0.4,0-0.5-0.3l0.1,0c-0.1-0.2-0.4,0-0.7-0.2c0,0,0,0,0,0c-0.3,0.1-0.6-0.1-0.9-0.3
							c0.2,0,0.2,0,0.2-0.1c-0.1-0.1-0.1,0.2-0.4,0.1c0-0.1-0.1-0.3,0-0.4l0.2,0.2c0.1-0.2-0.2-0.2-0.3-0.3l0.1-0.1
							c-0.3-0.3-0.5-0.1-0.7-0.4l0,0.1c-0.3,0-0.1-0.2-0.3-0.3l0.1-0.2c-0.2-0.1-0.5-0.2-0.8-0.3c0.2,0,0.5,0.1,0.8,0.2
							c-0.1-0.1-0.4-0.3-0.5-0.3c0.1,0,0.2,0,0.2,0.1c-0.3,0-0.5-0.1-0.8-0.3c0.3-0.3-0.6-0.6-0.6-1c-0.6-0.1-0.9-0.6-1.5-0.9
							c0.1,0.4-0.2-0.1-0.3,0.3c-0.1,0-0.2-0.1-0.2-0.1l-0.3-0.4c-0.1-0.1,0.2,0,0.2-0.1c-0.3-0.1-0.1-0.2-0.2-0.4
							c0,0.1-0.2,0.1-0.3,0l0.2,0.2c-0.5,0-0.3-0.4-0.8-0.4l0.2-0.1c-0.2,0-0.9-0.2-1.2,0c0,0-0.1-0.2,0-0.2
							c-0.6-0.2-1.3,0.1-1.7-0.2l0.1-0.1c-0.1,0-0.2,0.1-0.3,0c0,0,0.1-0.1,0-0.1c-0.1,0-0.3,0.1-0.4,0.1l0.1-0.1
							c-0.6-0.1-0.9,0.2-1.3,0.3c0-0.3-0.5-0.3-0.7-0.3l0,0c-0.7,0-1.1,0.3-1.7,0.5c-0.2-0.1-0.5,0-0.9,0c-0.3,0.1-0.7,0.2-1,0.2
							c0.1,0,0.1,0.2,0,0.3c-0.1,0-0.3,0.3-0.4,0.1l0,0c-0.2-0.2-0.4,0-0.6,0.1l0.1,0.3c-0.7-0.2-1.3,0.6-1.7,0.3
							c-0.1,0.1-0.2,0.1-0.4,0.2l0-0.2c-0.3,0-0.5,0-0.9,0l0.1-0.1c-0.2,0-0.4,0.4-0.6,0.4l0-0.3c-0.4-0.1-0.8-0.4-1.3-0.3
							c0,0,0.1-0.1,0.1-0.1C47.5,78,47,77.6,46.9,78c0.1-0.2-0.4-0.2-0.7-0.2l0.1-0.1c-0.3,0.1-0.3,0.2-0.6,0.1
							c-0.1,0,0-0.1,0.1-0.1c-0.2-0.2-0.2,0.1-0.4-0.1l0.1-0.1c-0.2-0.1-0.2,0-0.4,0c-0.2,0-0.4-0.2-0.4-0.4c-0.1,0.1-0.2,0.1-0.3,0
							c0-0.1,0.1-0.1,0.1-0.1c-0.3-0.3-0.6-0.1-0.8-0.3c0-0.1,0-0.1,0-0.1c0.3,0.1,0.5,0.2,0.5,0.2c0.1-0.1-0.2-0.3,0.1-0.4
							c-0.2,0-0.6,0.1-0.8-0.1c0,0,0,0,0-0.1l0,0c0,0-0.1,0-0.1,0c-0.1-0.1-0.1-0.1-0.2-0.1c0-0.1-0.2-0.2-0.3-0.2
							c-0.1,0.1-0.2,0-0.1,0.2c0,0,0,0,0.1,0c0,0,0,0,0.1,0l0,0c0.1,0,0.2,0.1,0.3,0.1c-0.1,0-0.3,0-0.3-0.1
							c-0.1,0.1-0.2,0.1-0.3,0.1c0-0.3-0.3-0.5-0.3-0.7c-0.4-0.1-0.8-0.4-1.2-0.2c-0.1,0-0.1-0.1-0.1-0.2c0.1,0,0.1,0,0.2,0
							c-0.2,0-0.6-0.3-0.7-0.2c-0.2-0.2,0.2-0.1-0.1-0.3l0.1,0c-0.4-0.7-1.3-0.2-1.7-1c0,0.1,0,0.1,0,0.1c-0.7-0.7-1.7-1-2.2-1.9
							c-0.2-0.2-0.3-0.1-0.5-0.2l0.1-0.2l-0.3,0c-0.4-0.2-0.2-0.8-0.7-0.9l0,0.1c-0.1-0.1-0.4-0.4-0.3-0.4c0,0-0.1,0-0.1,0l0.1-0.1
							l-0.4-0.2c-0.2-0.3,0.3-0.2,0-0.6c-0.1-0.1-0.5-0.2-0.5-0.1c0,0.1,0.1,0.2,0,0.2l-0.2-0.1c-0.2,0.2-0.5,0.2-0.4,0.7l0.3,0.1
							l0,0.2l-0.2-0.2c0,0.2,0.1,0.2,0.3,0.2c0,0.1,0,0.1,0,0.2l0.4,0c-0.1,0.1-0.2,0.1-0.1,0.2c0.2,0,0.1-0.3,0.3-0.2
							c0,0.2-0.1,0.2,0.1,0.3c0,0.1-0.1,0.1-0.2,0c0.2,0,0.3,0.3,0.5,0.2c0,0.2,0.4,0.3,0.2,0.5c0.1,0,0.3,0,0.4,0.1
							c-0.4,0.1,0.4,0.4,0.1,0.6c0.3-0.1,0.6,0.4,0.9,0.4c0,0-0.1,0-0.1,0c0.1,0.1,0.1,0.2,0.2,0.3c0.2-0.2,0.4,0,0.6,0
							c0,0.3-0.3,0.1-0.4,0.3c0.1-0.1,0.4,0.1,0.5-0.1c0,0.2,0.1,0.1,0,0.3c0.2-0.2,0.2,0.1,0.4,0c0.1,0.3-0.1,0.2,0.2,0.3
							C37.6,74.5,37.3,74.5,37.3,74.5z M43.1,77.5L43.1,77.5c-0.1,0-0.1,0-0.1,0C43,77.4,43,77.4,43.1,77.5z M43.6,77.7
							c-0.1,0-0.1-0.1-0.2-0.1c0-0.1,0-0.1,0.1-0.1C43.4,77.5,43.5,77.6,43.6,77.7z M43,76.2C43.1,76.2,43.1,76.3,43,76.2
							C43.1,76.3,43.1,76.3,43,76.2L43,76.2C43,76.2,43,76.2,43,76.2z"/>
						<path fill="#202020" d="M42.8,76.3C42.8,76.3,42.8,76.3,42.8,76.3C42.8,76.3,42.8,76.3,42.8,76.3L42.8,76.3L42.8,76.3z"/>
						<path fill="#202020" d="M86.7,77.6L86.7,77.6C86.7,77.6,86.7,77.6,86.7,77.6C86.7,77.6,86.7,77.6,86.7,77.6z"/>
						<polygon fill="#202020" points="50.9,79.9 50.9,79.8 50.9,79.9 						"/>
						<path fill="#202020" d="M89.2,76C89.2,76,89.2,76,89.2,76C89.2,76,89.2,76,89.2,76z"/>
						<path fill="#202020" d="M90.2,75.3l0.2,0C90.3,75.3,90.3,75.3,90.2,75.3z"/>
						<path fill="#202020" d="M91.1,75C91.1,74.9,91.1,74.9,91.1,75L91.1,75L91.1,75z"/>
						<path fill="#202020" d="M78.2,82.6L78.2,82.6C78.1,82.7,78.2,82.7,78.2,82.6z"/>
						<path fill="#202020" d="M82.7,81.3c0,0-0.1,0.1-0.1,0.1C82.6,81.4,82.7,81.4,82.7,81.3z"/>
						<polygon fill="#202020" points="73.2,83.9 73.2,83.9 73.2,83.9 						"/>
						<path fill="#202020" d="M82.3,81.4c0.1,0,0.2,0,0.2,0C82.5,81.4,82.4,81.4,82.3,81.4z"/>
						<path fill="#202020" d="M95,74L95,74C95.1,74,95.1,74,95,74L95,74z"/>
						<path fill="#202020" d="M95.1,74L95.1,74C95.1,74,95.1,74,95.1,74z"/>
						<path fill="#202020" d="M95.2,73.9l-0.1,0C95.2,74,95.2,74,95.2,73.9z"/>
						<path fill="#202020" d="M93.8,74.1L93.8,74.1C93.8,74.1,93.8,74.1,93.8,74.1z"/>
						<path fill="#202020" d="M93.4,74.2c0.1,0,0.2,0.1,0.4,0l0,0C93.8,74.2,93.5,74.1,93.4,74.2z"/>
						<path fill="#202020" d="M91.7,73.9l0.3-0.1c-0.1,0-0.2-0.1,0-0.2C91.5,73.7,92.1,73.8,91.7,73.9z"/>
						<path fill="#202020" d="M90.7,74.3c0.2-0.1,0-0.1,0-0.1C90.5,74.3,90.5,74.3,90.7,74.3z"/>
						<path fill="#202020" d="M85.3,79.5l-0.1-0.1C85.1,79.5,85.2,79.4,85.3,79.5z"/>
						<polygon fill="#202020" points="84.7,80.9 84.9,81 84.9,80.8 						"/>
						<polygon fill="#202020" points="83.6,80.2 83.7,80.1 83.5,80.2 						"/>
						<path fill="#202020" d="M71.5,82.8l0.1,0.2C71.7,82.9,71.7,82.7,71.5,82.8z"/>
						<path fill="#202020" d="M67.3,80.9c0-0.1,0-0.3-0.2-0.3C67.2,80.8,67.3,80.9,67.3,80.9z"/>
						<polygon fill="#202020" points="51.9,78 52,78 51.8,78.1 						"/>
					</g>
				</g>
			</g>
		</g>
	</g>
	<g>
		<g>
			<g>
				<g>
					<g>
						<path fill="#202020" d="M78.4,66.4c0-0.1,0-0.2,0-0.1L78.4,66.4L78.4,66.4z"/>
						<path fill="#202020" d="M78,66.1c-0.1,0.1-0.1,0.3-0.1,0.4c0-0.2,0.1-0.1,0.1-0.3c0.1,0,0.1,0.1,0.1,0.1c0-0.1,0.1,0,0.1-0.1
							c-0.1-0.1-0.2-0.1-0.2,0C78,66.2,78,66.1,78,66.1z"/>
						<path fill="#202020" d="M72.9,66.6L72.9,66.6C72.9,66.6,72.9,66.6,72.9,66.6z"/>
						<path fill="#202020" d="M70.1,65.8C70.2,65.8,70.2,65.8,70.1,65.8C70.2,65.8,70.2,65.8,70.1,65.8z"/>
						<path fill="#202020" d="M69.9,65.3C69.9,65.3,69.9,65.3,69.9,65.3C69.9,65.3,69.9,65.3,69.9,65.3z"/>
						<path fill="#202020" d="M72.9,66.6L72.9,66.6C72.8,66.6,72.9,66.6,72.9,66.6z"/>
						<path fill="#202020" d="M77.4,66.6C77.4,66.6,77.4,66.6,77.4,66.6L77.4,66.6L77.4,66.6z"/>
						<path fill="#202020" d="M74.2,66.3L74.2,66.3C74.3,66.3,74.3,66.2,74.2,66.3L74.2,66.3z"/>
						<path fill="#202020" d="M75.3,66.1c0,0,0,0.2,0,0.2c0-0.1,0-0.1,0-0.1C75.3,66.1,75.3,66.1,75.3,66.1z"/>
						<path fill="#202020" d="M77,66L77,66L77,66z"/>
						<path fill="#202020" d="M73.5,66.4C73.5,66.4,73.5,66.3,73.5,66.4C73.5,66.3,73.5,66.4,73.5,66.4z"/>
						<path fill="#202020" d="M47.8,57.8C47.8,57.8,47.8,57.8,47.8,57.8C47.8,57.8,47.8,57.8,47.8,57.8z"/>
						<polygon fill="#202020" points="48.9,56.6 48.9,56.6 48.9,56.6 						"/>
						<path fill="#202020" d="M69.5,64.5L69.5,64.5C69.6,64.5,69.5,64.5,69.5,64.5z"/>
						<path fill="#202020" d="M61.4,60.2c0.1,0.1-0.1,0.2,0.1,0.3C61.4,60.5,61.5,60.3,61.4,60.2z"/>
						<path fill="#202020" d="M77.3,66.6C77.3,66.6,77.3,66.6,77.3,66.6C77.3,66.6,77.3,66.6,77.3,66.6z"/>
						<polygon fill="#202020" points="61.4,60.6 61.4,60.6 61.5,60.6 						"/>
						<path fill="#202020" d="M68.2,62.6C68.2,62.6,68.2,62.6,68.2,62.6C68.2,62.6,68.2,62.6,68.2,62.6z"/>
						<path fill="#202020" d="M68.9,64.2L68.9,64.2C68.9,64.2,68.9,64.2,68.9,64.2z"/>
						<path fill="#202020" d="M67.4,62C67.4,62,67.4,62,67.4,62L67.4,62C67.4,62,67.4,62,67.4,62z"/>
						<polygon fill="#202020" points="66.6,61.4 66.6,61.4 66.6,61.4 						"/>
						<path fill="#202020" d="M49.1,60.8c0,0,0-0.1,0.1-0.1C49.1,60.7,48.9,60.6,49.1,60.8z"/>
						<path fill="#202020" d="M77.4,66.5C77.4,66.6,77.4,66.6,77.4,66.5L77.4,66.5C77.4,66.6,77.4,66.5,77.4,66.5z"/>
						<path fill="#202020" d="M66.4,62.9l-0.1-0.1C66.4,62.8,66.4,62.8,66.4,62.9z"/>
						<path fill="#202020" d="M55.6,63.1L55.6,63.1C55.6,63.2,55.6,63.2,55.6,63.1z"/>
						<path fill="#202020" d="M66.1,62.6c0-0.1,0-0.1,0-0.1c0,0,0,0,0,0L66.1,62.6z"/>
						<path fill="#202020" d="M49.1,60.6L49.1,60.6L49.1,60.6z"/>
						<path fill="#202020" d="M48.2,59.9c0.1,0.2,0.2,0,0.3-0.1c0.1,0.1-0.1,0.2-0.2,0.3c0.1,0.1,0.3,0,0.4,0.1c0,0,0,0-0.1,0.1
							c0.2,0,0.2,0.3,0.5,0.3c0,0,0,0,0,0c0.1-0.1,0.1-0.2,0.2-0.2c0,0,0.2,0,0.1,0.1c0,0-0.1,0-0.1,0l0.1,0c-0.1,0.2-0.1,0-0.2,0.1
							c0.1,0.1,0.4,0.1,0.4,0.2c-0.1,0.2-0.2-0.1-0.2,0.1l-0.1-0.2c-0.1,0.3-0.1-0.1-0.2,0.2c0.1,0.2,0.2,0.1,0.4,0.3
							c0.1,0,0.1-0.1,0.2-0.2c0.4,0.1-0.1,0.5,0.2,0.5c0.1-0.1,0.3-0.2,0.4,0L50,61.7c0.2,0.1,0.3-0.2,0.4,0.1c-0.1,0.1-0.2,0-0.2,0
							c0,0.2,0.2,0,0.3,0L50.4,62c0.2,0.1,0.5,0.1,0.7,0.2c0,0-0.1,0.1-0.1,0.2c0.3,0,0.6,0.3,0.9,0.5l0.2-0.1c0,0,0,0.1,0,0.1
							c0.1,0.1,0-0.1,0.1-0.2c0.1,0,0.1,0.1,0,0.2c0.2-0.1,0.6-0.2,0.8,0.1l-0.1,0c0.2,0.1,0.2-0.3,0.4-0.1l0,0c0.3,0.1,0.7,0,1,0.3
							c0.1-0.2,0.3,0.1,0.4-0.2c0.2,0.2,0.1,0.2,0.4,0.4c0.1,0,0.1-0.2,0.2-0.2l0,0.2l0.1-0.2l0.1,0.2l0.1,0c0,0-0.1-0.1-0.1-0.1
							c0.1-0.1,0.3,0.1,0.3,0.2l0.3-0.1c0,0.1-0.1,0.1-0.1,0.1c0.2-0.2,0,0.2,0.2,0c0,0,0-0.1,0-0.1c0.1,0.1,0.2,0.1,0.4,0.1l0,0.1
							c0.2,0,0.5-0.1,0.8-0.1c-0.1-0.1-0.1-0.3,0-0.3l0,0.2c0-0.1-0.1-0.1,0-0.2c0.1,0,0.1,0.2,0,0.3l0.1-0.1c0,0.1,0,0.1,0,0.2
							c0-0.1,0.2,0.2,0.3,0l0,0.1c0.3,0,0.4-0.1,0.7-0.2c0-0.2,0.1-0.1,0.1-0.3c0.2,0,0.4,0,0.6-0.1c0.1-0.1,0-0.1,0-0.3
							c0.1,0.1,0.3,0,0.2,0.2c0.2-0.1,0.3-0.2,0.4-0.4c-0.1,0-0.1,0-0.1-0.1c0,0,0.1,0,0.2,0.1l0,0c0.2-0.4,0.8,0,0.9-0.4l0,0
							l0.1-0.2c0.1,0,0,0.1,0.1,0.2c0.1-0.3,0.4-0.1,0.5-0.3c0.3,0.4,0.5-0.2,0.8,0.1l0-0.1c0-0.1,0.1,0.1,0.1,0.1
							c0-0.1-0.1-0.1,0-0.1c0.5-0.2,1,0.1,1.4,0.3c0.2,0.1,0.2-0.5,0.4-0.2l-0.1,0.2c0.4-0.1,0.7,0.2,1.1,0.2c0,0-0.1,0.1-0.1,0.1
							c0,0.2,0.2,0.1,0.3,0c0,0,0,0.1,0,0.2c0,0.1,0.2-0.1,0.2,0.1c0,0,0,0-0.1,0c0.1,0,0.2,0.1,0.2,0c0.1,0.1,0.2,0.1,0.3,0.2
							c0.2-0.1,0.1,0.2,0.3,0c-0.2,0.2,0,0.3,0.2,0.3c-0.1,0,0,0.1-0.1,0.2c0.1,0.1,0.2,0.1,0.2,0c-0.1,0.3,0.4,0.1,0.2,0.4
							c0.3,0.1,0.5,0.3,0.7,0.5c-0.2,0.1-0.2-0.2-0.4-0.1c0.2,0.2,0.5,0.2,0.6,0.4c0,0.1-0.1,0-0.2,0c0.2,0.2,0.3,0.5,0.5,0.6
							c0,0-0.1,0-0.1,0c0,0,0,0.1,0.1,0l-0.1,0c0.1-0.2,0.4,0,0.5-0.1c-0.3,0.1,0.1,0.3-0.4,0.4c0,0,0.1,0,0.2,0
							c0,0.1,0,0.1-0.1,0.1c0.2,0.1,0.2,0,0.3,0.1c0,0-0.1,0-0.1,0c0.1,0,0.3,0,0.3,0.1c0,0-0.1,0.1-0.1,0c0.2,0.2,0.5,0.1,0.6,0.4
							c-0.2,0.1,0,0.1-0.1,0.3l0.2,0.1l0-0.1c0.1,0.1,0.3,0,0.3,0.2l-0.1,0l0.2,0.1l-0.1-0.1c0.2,0,0.2-0.2,0.3-0.1
							c0,0,0.1,0.1,0.1,0.2l0,0c0.1,0,0.2-0.1,0.2,0c0,0.1-0.1,0.2-0.1,0.2c0.1-0.1,0.3,0.1,0.4,0c0,0-0.1,0.1-0.1,0.2l0.1-0.1
							c0,0.1,0,0.1,0,0.2c0.2,0.1,0.1-0.3,0.2-0.1c0,0,0,0-0.1,0c0.2,0.1,0.4,0.1,0.6,0.2c0,0.2-0.2,0-0.2,0.2
							c0.3,0.1,0.6-0.1,0.9,0l0,0c0.1-0.3,0.2,0.2,0.3,0c0,0-0.1,0.2,0,0.1c0.2,0.1,0.4-0.1,0.6-0.2l0,0.1c0.1,0.1,0.3,0,0.4,0.1
							c0-0.1,0.1-0.1,0-0.2c0.4,0.4,0.6-0.3,1,0c0,0-0.1,0.1,0,0.1l0.2-0.1c0-0.1,0-0.1-0.1-0.2c0-0.1,0.1-0.2,0.1-0.2
							c-0.1,0.1,0,0.2,0.1,0.3c0,0,0-0.1,0-0.1c0.2,0.2,0-0.3,0.2-0.1l0,0.1c0.1,0,0.1-0.2,0.2-0.1c0.1,0.1-0.1,0.1,0,0.2
							c0.1,0,0.1-0.3,0.3-0.2c0,0.1-0.1,0.1-0.1,0.1c0.1,0.2,0.1,0.1,0.2,0.1l0,0l0.2,0l-0.1,0c0-0.4,0.2-0.1,0.4-0.4
							c-0.1,0.3,0,0.1,0,0.3c0.1,0,0.1,0.1,0.1,0.1c0-0.2,0.2,0.1,0.2-0.1c0,0.1,0.1,0,0.1,0.1c0.1-0.1,0-0.1,0-0.2
							c0.1-0.2,0.4,0.2,0.6-0.1c0.2-0.1,0.2-0.3,0.3-0.5c0.1,0.1,0,0.2,0,0.2c0.1,0.1,0.2,0,0.3,0c0,0.1,0,0.1,0.1,0.1
							c0.1,0,0-0.2,0.1-0.1c0,0.1,0,0.2,0,0.2c0.1-0.1,0.2-0.2,0.2-0.2c0,0.1,0,0.2-0.1,0.2c0.1-0.1,0.3-0.1,0.3-0.3l-0.1,0
							c0,0,0,0.1,0,0.2c-0.1,0.1-0.1,0-0.1-0.1l0.1,0c-0.1-0.3-0.3,0.1-0.4,0.1l0-0.2l-0.1,0.2c0-0.1-0.1-0.2,0-0.2
							c-0.1-0.1-0.1,0.1-0.2,0c0,0,0,0,0,0L77,66.1c0-0.1,0-0.2,0-0.1c-0.2-0.1-0.2,0.2-0.3,0.1l0,0c-0.2,0.1,0,0.2-0.1,0.4L76.3,66
							l0,0.2c0,0-0.1,0-0.1-0.1c-0.1,0.1,0,0.1,0,0.2c-0.1-0.1-0.3,0.1-0.4-0.1c0,0.1,0.1,0.1,0,0.2c-0.1-0.3-0.1,0.1-0.3,0
							c0-0.2,0.1-0.1,0-0.2c0,0.3-0.2,0-0.3,0.1c0,0.2-0.2,0.1-0.3,0.2c0-0.1-0.3-0.1-0.5-0.1l0,0c0,0.2-0.1,0.2-0.2,0.3
							c0-0.1,0-0.2,0-0.2l-0.1,0c0,0.1,0,0.1-0.1,0.1l0-0.2c-0.1,0-0.2,0.2-0.4,0.1c0,0.1,0.2,0.4,0,0.5c0-0.1,0-0.2,0-0.3
							c0,0,0,0.1-0.1,0l0.1-0.1c-0.1,0,0,0.1-0.1,0.1c0-0.1-0.1-0.1-0.1-0.2c0,0,0.1,0,0.1,0c-0.1,0-0.2-0.1-0.2-0.1
							c0,0.1,0,0.2,0,0.2c-0.1,0-0.1-0.1-0.1-0.2c0,0.1-0.1,0-0.1,0.2c0,0-0.1-0.1-0.1-0.1c-0.1,0.1-0.3,0-0.2,0.2l0,0l0,0l0,0l0,0
							c-0.2,0.2-0.5-0.1-0.7,0l0-0.1c-0.1,0.1-0.3,0-0.4,0.1c0,0-0.1-0.1,0-0.2c-0.1,0-0.1,0.1-0.2,0c0.1-0.1,0-0.1,0.1-0.1
							c-0.1-0.1-0.1-0.2-0.3,0c0.1-0.1,0-0.2-0.1-0.2l0.1,0.1c-0.1,0-0.1,0-0.2,0l0.1-0.2c-0.1-0.3-0.5,0.2-0.5-0.2
							c-0.1,0.1,0.1,0.1,0,0.3c-0.1-0.1-0.1-0.4-0.1-0.4c-0.1-0.2-0.3,0.2-0.4,0c0,0.1-0.1,0.2-0.3,0.2c-0.1-0.1,0.1-0.3,0.2-0.3
							c0,0,0,0,0,0.1c0,0,0.1,0,0.1-0.1l-0.1,0c0-0.1-0.1-0.2,0-0.2c-0.1,0-0.1,0.1-0.1,0.1c0-0.2-0.2-0.1-0.2-0.3
							c0,0-0.1,0.1-0.1,0.1c-0.1-0.2-0.2,0-0.3-0.1c0-0.1,0.2-0.1,0-0.2c0-0.1,0.1-0.1,0.2-0.1c-0.2,0-0.1-0.2-0.1-0.3l0.1,0
							c-0.1,0-0.1,0-0.1-0.1l-0.1,0.1c0,0,0-0.1,0-0.1c-0.1,0-0.2,0.2-0.3,0.2c0-0.1-0.2-0.1,0-0.2c0.1,0.2,0.1-0.1,0.2,0
							c0,0-0.1,0-0.1-0.1c0,0,0,0,0,0c0-0.2-0.2,0.1-0.3-0.1c0.1,0,0.1-0.1,0.1-0.2c0,0.1-0.1,0.1-0.2,0.1c0-0.1-0.1-0.1-0.1-0.1
							l0,0.1c-0.1,0-0.1,0-0.2-0.1c0.1,0,0.1,0,0.1,0c-0.2,0,0-0.3-0.1-0.3c0-0.1,0.2-0.1,0.2-0.2c-0.2-0.1,0-0.2-0.1-0.3
							c-0.1,0.1-0.1,0.1-0.2,0.1l0.2,0.2l-0.3,0c0,0.1,0.2,0.1,0.2,0.1c-0.1,0-0.1,0-0.2,0.1c0.1-0.2-0.2-0.1-0.2-0.3l0.3-0.2
							c0-0.2-0.3-0.2-0.4-0.4l0,0.1c-0.1,0-0.1-0.1-0.2-0.2c0.1-0.1,0.1-0.1,0.1-0.2c-0.1,0.1-0.1-0.2-0.3,0l0-0.2
							c-0.1-0.2-0.4,0-0.5-0.1c0.1,0,0.1-0.2,0.3-0.1c0-0.1-0.1-0.1-0.1-0.1c0-0.1-0.2,0-0.2-0.2c-0.1,0-0.1,0.1-0.2,0c0,0,0,0,0,0
							c0,0-0.1,0-0.2,0.1c0.1-0.4-0.4-0.3-0.4-0.7c-0.1-0.1-0.3-0.1-0.4-0.2c0,0,0,0,0,0c-0.1-0.2-0.3,0.2-0.4,0
							c0-0.2,0.1,0,0.1-0.1c0.1-0.3-0.2-0.1-0.3-0.3l0,0c0-0.2-0.3,0-0.4-0.1c0,0,0,0,0-0.1c-0.2,0.1-0.4,0.1-0.6,0.1
							c0.1-0.1,0.1-0.1,0.1-0.2c-0.1,0,0,0.2-0.2,0.2c0-0.1-0.1-0.2-0.1-0.3l0.1,0c0-0.2-0.2,0-0.2-0.1l0-0.1
							c-0.2,0-0.3,0.2-0.5,0.1l0,0.1c-0.2,0.2-0.1-0.1-0.2,0l0-0.2c-0.1,0-0.3,0.2-0.5,0.2c0.1-0.2,0.3-0.2,0.4-0.3
							c-0.1,0-0.3,0-0.3,0.1c0,0,0.1-0.1,0.1,0c-0.1,0.2-0.2,0.2-0.4,0.2c0-0.4-0.4-0.1-0.6-0.4c-0.3,0.2-0.6,0-1,0.1
							c0.2,0.3-0.1,0,0,0.4c-0.1,0-0.1,0-0.1,0l-0.3-0.1c-0.1-0.1,0.1-0.1,0-0.2c-0.2,0-0.1-0.1-0.3-0.2c0.1,0.1,0,0.2-0.1,0.2
							l0.2,0.1c-0.2,0.3-0.3-0.2-0.5,0.1l0-0.1c-0.1,0.1-0.5,0.2-0.4,0.5c0,0-0.1-0.1-0.1-0.1c-0.3,0.1-0.4,0.6-0.7,0.6l0-0.1
							c0,0,0,0.2-0.1,0.1c0,0,0-0.1,0-0.1c0,0,0,0.2-0.1,0.2l0-0.1c-0.3,0-0.2,0.4-0.4,0.5c-0.1-0.2-0.3-0.2-0.4-0.3l0,0
							c-0.2,0-0.4,0.3-0.6,0.4c-0.2-0.3-0.6-0.1-0.9-0.3c0,0,0,0.2-0.1,0.2c-0.1-0.1-0.2,0.2-0.2-0.1l0,0c0-0.2-0.2-0.2-0.3-0.2
							l0,0.3c-0.3-0.4-0.8,0.1-0.9-0.3c-0.1,0.1-0.2,0.1-0.2,0.1l0-0.2c-0.2-0.1-0.3-0.1-0.5-0.1l0.1-0.1c-0.1,0-0.2,0.5-0.3,0.5
							l0-0.2c-0.2,0-0.4-0.3-0.7-0.1c0,0,0-0.1,0.1-0.1c-0.1,0-0.4-0.2-0.4,0.1c0-0.2-0.2-0.1-0.4,0l0.1-0.2
							c-0.1,0.2-0.2,0.2-0.3,0.3c0,0,0-0.1,0-0.1c-0.1-0.1-0.1,0.1-0.2,0l0.1-0.1c-0.1,0-0.1,0-0.2,0.1c-0.1,0-0.2-0.1-0.2-0.2
							c0,0.1-0.1,0.2-0.2,0.1c0-0.1,0-0.1,0.1-0.1c-0.1-0.2-0.3,0.1-0.4-0.1c0,0,0-0.1,0-0.1c0.1,0.1,0.2,0.1,0.2,0.1
							c0.1-0.1,0-0.2,0.1-0.4c-0.1,0.1-0.4,0.2-0.5,0.1c0,0,0,0,0-0.1l0,0c0,0,0,0-0.1,0c0,0,0-0.1-0.1-0.1c0-0.1-0.1-0.1-0.1-0.2
							c-0.1,0.1-0.1,0.1-0.1,0.2c0,0,0,0,0.1,0c0,0,0,0,0,0l0,0c0,0,0.1,0,0.1,0.1c-0.1,0.1-0.2,0.1-0.2,0c-0.1,0.1-0.2,0.2-0.2,0.2
							c0-0.2,0-0.4,0-0.6c-0.2,0-0.4-0.2-0.6,0c-0.1,0,0-0.1,0-0.2c0,0,0.1,0,0.1,0c-0.1,0-0.3-0.2-0.4,0c0-0.2,0.2-0.1,0-0.2l0.1,0
							c0-0.5-0.8-0.1-0.7-0.7c0,0,0,0.1,0,0.1c-0.1-0.5-0.6-0.8-0.4-1.3c0-0.1-0.1-0.1-0.2-0.2l0.2-0.1l-0.2-0.1
							c-0.2-0.2,0.4-0.3,0.1-0.6l-0.1,0c0-0.1,0-0.3,0.1-0.2c0,0-0.1,0-0.1-0.1l0.1,0l-0.1-0.2c0.1-0.1,0.3,0.1,0.4-0.1
							c0-0.1-0.2-0.3-0.2-0.3c0,0-0.1,0.1-0.2,0l0-0.1c-0.2-0.1-0.5-0.3-0.7-0.1l0.1,0.2l-0.1,0l0-0.1c-0.1,0-0.1,0.1,0,0.2
							c-0.1,0-0.1,0-0.2,0l0.2,0.2c-0.1,0-0.2-0.1-0.3,0c0.1,0.1,0.2,0,0.3,0.1c-0.1,0.1-0.2,0-0.1,0.1c-0.1,0-0.1,0-0.1-0.1
							c0.1,0.1,0,0.2,0.1,0.3c-0.2,0.1,0,0.3-0.2,0.3c0.1,0,0.2,0.2,0.2,0.2c-0.3-0.1,0,0.3-0.3,0.3c0.3,0.1,0.2,0.4,0.4,0.5
							c0,0-0.1,0-0.1,0c0,0.1-0.1,0.2-0.1,0.2c0.2-0.1,0.3,0.1,0.5,0.1c-0.2,0.2-0.3,0-0.5,0.1c0.2-0.1,0.3,0.1,0.4,0
							c-0.1,0.1,0,0.1-0.2,0.2c0.3-0.1,0.1,0.1,0.3,0.1c-0.1,0.2-0.2,0.2-0.1,0.3C48.4,60,48.2,59.9,48.2,59.9z M51.2,62.1
							L51.2,62.1C51.2,62.1,51.1,62.1,51.2,62.1C51.1,62.1,51.2,62.1,51.2,62.1z M51.5,62.2c0,0-0.1,0-0.1-0.1c0-0.1,0-0.1,0.1-0.1
							C51.4,62.1,51.4,62.1,51.5,62.2z M51.4,60.9C51.5,60.9,51.5,61,51.4,60.9C51.4,61,51.4,61,51.4,60.9L51.4,60.9
							C51.4,61,51.4,61,51.4,60.9z"/>
						<path fill="#202020" d="M51.3,61.1C51.3,61.1,51.2,61.1,51.3,61.1C51.2,61.1,51.2,61.1,51.3,61.1L51.3,61.1L51.3,61.1z"/>
						<path fill="#202020" d="M73,66.6L73,66.6C73,66.6,73,66.7,73,66.6L73,66.6z"/>
						<polygon fill="#202020" points="55.3,63.2 55.3,63.2 55.3,63.2 						"/>
						<path fill="#202020" d="M74.5,67C74.5,67,74.5,67,74.5,67C74.6,67,74.5,67,74.5,67z"/>
						<path fill="#202020" d="M75.2,66.9l0.1,0C75.2,66.9,75.2,66.9,75.2,66.9z"/>
						<path fill="#202020" d="M75.7,66.9C75.7,66.8,75.7,66.8,75.7,66.9L75.7,66.9L75.7,66.9z"/>
						<path fill="#202020" d="M68.1,64.8L68.1,64.8C68,64.8,68,64.8,68.1,64.8z"/>
						<path fill="#202020" d="M70,66.4c0,0-0.1,0-0.1,0C69.9,66.5,70,66.5,70,66.4z"/>
						<polygon fill="#202020" points="66.5,62.9 66.5,62.9 66.4,62.9 						"/>
						<path fill="#202020" d="M69.8,66.4C69.8,66.4,69.9,66.5,69.8,66.4C69.9,66.4,69.9,66.4,69.8,66.4z"/>
						<path fill="#202020" d="M77.8,66.6L77.8,66.6C77.8,66.6,77.8,66.6,77.8,66.6L77.8,66.6z"/>
						<path fill="#202020" d="M77.8,66.5L77.8,66.5C77.8,66.5,77.8,66.5,77.8,66.5z"/>
						<path fill="#202020" d="M77.9,66.5L77.9,66.5C77.9,66.5,77.9,66.5,77.9,66.5z"/>
						<path fill="#202020" d="M77.2,66.6L77.2,66.6C77.2,66.6,77.2,66.6,77.2,66.6z"/>
						<path fill="#202020" d="M77,66.6c0,0,0.1,0.1,0.2,0.1l0,0C77.1,66.7,77,66.5,77,66.6z"/>
						<path fill="#202020" d="M76,66.1l0.2,0c0-0.1-0.1-0.1,0-0.2C75.9,65.8,76.2,66.1,76,66.1z"/>
						<path fill="#202020" d="M75.5,66.1c0.1,0,0-0.1,0-0.1C75.4,66,75.4,66.1,75.5,66.1z"/>
						<path fill="#202020" d="M71.8,66.5l0-0.1C71.8,66.3,71.9,66.4,71.8,66.5z"/>
						<polygon fill="#202020" points="71,67.1 71,67.2 71.1,67 						"/>
						<polygon fill="#202020" points="71,65.9 71,65.9 70.9,65.9 						"/>
						<path fill="#202020" d="M66.8,61.3l-0.1,0.2C66.8,61.5,66.9,61.4,66.8,61.3z"/>
						<path fill="#202020" d="M64,60.4c0-0.1-0.1-0.2-0.2-0.1C63.9,60.3,64,60.4,64,60.4z"/>
						<polygon fill="#202020" points="56.1,61.8 56.2,61.7 56,61.8 						"/>
					</g>
				</g>
			</g>
		</g>
	</g>
	<g>
		<g>
			<g>
				<g>
					<g>
						<path fill="#202020" d="M91.5,65.4c0,0,0-0.2,0-0.1L91.5,65.4L91.5,65.4z"/>
						<path fill="#202020" d="M91.4,65c0,0.1-0.1,0.2-0.1,0.4c0.1-0.2,0.1-0.1,0.1-0.3c0,0,0,0.1,0,0.1c0,0,0,0,0.1-0.1
							c0-0.2-0.1-0.2-0.1,0C91.4,65.1,91.4,65,91.4,65z"/>
						<path fill="#202020" d="M89.4,63.7L89.4,63.7C89.4,63.7,89.4,63.7,89.4,63.7z"/>
						<path fill="#202020" d="M88.2,62.8C88.2,62.8,88.2,62.8,88.2,62.8C88.2,62.8,88.2,62.8,88.2,62.8z"/>
						<path fill="#202020" d="M88.1,62.5C88.1,62.5,88.1,62.5,88.1,62.5C88.1,62.5,88.1,62.5,88.1,62.5z"/>
						<path fill="#202020" d="M89.4,63.7L89.4,63.7C89.3,63.7,89.4,63.7,89.4,63.7z"/>
						<path fill="#202020" d="M90.9,65.4C90.9,65.4,91,65.4,90.9,65.4C91,65.3,91,65.3,90.9,65.4L90.9,65.4z"/>
						<path fill="#202020" d="M90,63.9L90,63.9C90,63.9,90,63.9,90,63.9L90,63.9z"/>
						<path fill="#202020" d="M90.4,64.2c0,0-0.1,0.1-0.1,0.2c0-0.1,0.1-0.1,0.1-0.1C90.4,64.2,90.4,64.2,90.4,64.2z"/>
						<path fill="#202020" d="M91,64.7L91,64.7L91,64.7z"/>
						<path fill="#202020" d="M89.7,63.7C89.7,63.7,89.7,63.7,89.7,63.7L89.7,63.7z"/>
						<path fill="#202020" d="M76.5,59.2C76.5,59.2,76.5,59.2,76.5,59.2C76.5,59.2,76.5,59.2,76.5,59.2z"/>
						<polygon fill="#202020" points="76,58.3 76.1,58.3 76.1,58.2 						"/>
						<path fill="#202020" d="M87.8,62L87.8,62C87.8,62,87.8,62,87.8,62z"/>
						<path fill="#202020" d="M83.9,60.1c0,0.2-0.1,0.1-0.1,0.3C83.7,60.4,83.9,60.2,83.9,60.1z"/>
						<path fill="#202020" d="M90.9,65.4C90.9,65.4,90.9,65.3,90.9,65.4C90.9,65.4,90.9,65.4,90.9,65.4z"/>
						<polygon fill="#202020" points="83.7,60.4 83.7,60.4 83.7,60.4 						"/>
						<path fill="#202020" d="M86.8,61.6C86.8,61.6,86.8,61.6,86.8,61.6C86.8,61.6,86.8,61.6,86.8,61.6z"/>
						<path fill="#202020" d="M87.4,62.2L87.4,62.2C87.4,62.2,87.4,62.2,87.4,62.2z"/>
						<path fill="#202020" d="M86.3,61.6C86.3,61.6,86.3,61.5,86.3,61.6L86.3,61.6C86.3,61.5,86.3,61.5,86.3,61.6z"/>
						<polygon fill="#202020" points="85.9,61.4 85.9,61.4 85.9,61.4 						"/>
						<path fill="#202020" d="M77.7,59.4c0,0,0-0.1,0-0.1C77.7,59.4,77.7,59.4,77.7,59.4z"/>
						<path fill="#202020" d="M91,65.3C90.9,65.3,90.9,65.3,91,65.3L91,65.3C90.9,65.3,91,65.3,91,65.3z"/>
						<path fill="#202020" d="M85.7,62.7L85.7,62.7C85.6,62.6,85.7,62.7,85.7,62.7z"/>
						<path fill="#202020" d="M80.7,60.3L80.7,60.3C80.6,60.3,80.6,60.3,80.7,60.3z"/>
						<path fill="#202020" d="M85.4,62.5c0-0.1,0-0.1,0-0.1C85.5,62.4,85.4,62.5,85.4,62.5L85.4,62.5z"/>
						<path fill="#202020" d="M77.7,59.3L77.7,59.3L77.7,59.3z"/>
						<path fill="#202020" d="M77.2,59.5c0.1,0,0.1-0.2,0.1-0.3c0.1,0,0,0.2,0,0.3c0.1,0,0.1-0.2,0.2-0.2c0,0,0,0,0,0.1
							c0.1-0.2,0.1,0,0.3-0.2l0,0.1c0-0.1,0-0.2,0.1-0.3c0,0,0.1-0.1,0.1,0c0,0,0,0-0.1,0.1l0-0.1c0,0.2-0.1,0.1-0.1,0.2
							c0.1,0,0.2-0.2,0.2-0.1c0,0.2-0.1,0-0.1,0.2l0-0.1c0,0.3,0,0-0.1,0.3c0.1,0.1,0.1-0.1,0.2,0c0-0.1,0-0.2,0.1-0.3
							c0.2-0.2,0,0.5,0.1,0.3c0.1-0.1,0.1-0.4,0.2-0.2l-0.1,0.2c0.1,0,0.1-0.3,0.2-0.1c0,0.1-0.1,0.1-0.1,0.1c0,0.2,0.1-0.1,0.1-0.1
							l0,0.2c0.1,0,0.2-0.1,0.3-0.1c0,0.1-0.1,0.1,0,0.2c0.2-0.1,0.3,0.1,0.4,0.2l0.1-0.1c0,0,0,0.1,0,0.1c0,0.1,0-0.1,0.1-0.2
							c0,0,0,0.1,0,0.1c0.1-0.1,0.3-0.2,0.4,0l0,0c0,0.1,0.2-0.3,0.2-0.1l0,0c0.1,0.1,0.3,0,0.4,0.3c0.1-0.2,0.1,0.2,0.2-0.2
							c0,0.2,0,0.2,0.1,0.4c0,0,0.1-0.2,0.2-0.2l-0.1,0.2l0.1-0.2l0,0.2l0.1,0c0,0,0-0.1,0-0.1c0.1-0.1,0.1,0.2,0.1,0.3l0.2-0.1
							c0,0.1-0.1,0.1-0.1,0.1c0.1-0.1,0,0.2,0.1,0c0,0,0-0.1,0.1-0.1c0,0.1,0.1,0.1,0.1,0.1L81,60.6c0.1,0.1,0.2,0,0.3,0.1
							c0-0.1,0.1-0.3,0.1-0.3l-0.1,0.2c0.1-0.1,0-0.1,0.1-0.2c0,0,0,0.2-0.1,0.3l0.1,0c0,0.1,0,0.1-0.1,0.1c0.1-0.1,0,0.2,0.1,0
							l0,0.1c0.1,0,0.2,0,0.3,0c0.1-0.2,0.1-0.1,0.2-0.2c0,0.1,0.1,0.2,0.2,0.2c0.1-0.1,0.1-0.1,0.1-0.2c-0.1,0.1,0,0.2,0,0.2
							c0.1,0,0.1,0,0.3,0c0-0.1,0-0.1,0-0.1c0,0,0,0.1,0,0.1l0,0c0.2-0.1,0.1,0.5,0.4,0.3l0,0l0.2-0.1c0,0-0.1,0.1-0.1,0.2
							c0.2-0.2,0.2,0.1,0.3,0c-0.1,0.4,0.3,0.1,0.3,0.4l0-0.1c0.1-0.1,0,0.1,0,0.1c0-0.1,0-0.1,0.1-0.1c0.3,0,0.4,0.3,0.6,0.5
							c0.1,0.1,0.3-0.5,0.3-0.2l-0.1,0.2c0.3-0.1,0.3,0.2,0.6,0.1c0,0-0.1,0.1-0.1,0.1c0,0.1,0.1,0.1,0.2,0c0,0,0,0.1-0.1,0.2
							c0,0.1,0.2-0.1,0.1,0c0,0,0,0,0,0c0.1,0,0.1,0.1,0.1-0.1c0,0.1,0.1,0,0.2,0.1c0.1-0.1,0.1,0.1,0.2-0.1c-0.1,0.2,0,0.2,0.1,0.2
							c-0.1,0.1,0,0.1-0.1,0.2c0,0,0.1,0,0.2-0.1c-0.1,0.3,0.3-0.1,0.1,0.2c0.2,0,0.4-0.1,0.5-0.1c-0.1,0.2-0.1,0-0.3,0.2
							c0.2,0,0.3-0.2,0.4-0.1c0,0-0.1,0.1-0.1,0.1c0.2,0,0.2,0.1,0.4,0.1c0,0,0,0-0.1,0c0,0,0,0.1,0.1,0l0,0
							c0.1-0.2,0.3-0.3,0.3-0.3C87,63,87.2,62.9,87,63.2c0,0,0.1,0,0.1-0.1c0,0,0,0.1-0.1,0.1c0.1,0,0.1-0.1,0.2-0.1
							c0,0-0.1,0.1-0.1,0.1c0.1-0.1,0.2-0.2,0.2-0.1c0,0,0,0.1-0.1,0.1c0.1,0,0.3-0.2,0.3,0c-0.2,0.2,0,0.1-0.1,0.3l0.1,0l0-0.1
							c0,0,0.2-0.1,0.2,0l-0.1,0.1l0.1,0l0-0.1c0.1-0.1,0.1-0.2,0.2-0.1c0,0,0,0,0,0.2l0,0c0.1,0,0.1-0.1,0.1,0
							c0,0.1-0.1,0.2-0.2,0.2c0.1-0.1,0.1,0,0.3-0.1c0,0-0.1,0.1-0.1,0.1l0.1-0.1c0,0.1,0,0.1-0.1,0.1c0,0.1,0.1-0.2,0.1-0.1
							c0,0,0,0,0,0c0,0.1,0.2,0,0.2,0.1c-0.1,0.2-0.1,0-0.2,0.2c0.1,0,0.3-0.1,0.4,0l0,0c0.2-0.2,0,0.2,0.1,0.1c0,0-0.1,0.1-0.1,0.1
							c0,0.1,0.2,0,0.3,0L89,64.2c0,0.1,0.1,0.1,0.1,0.2c0.1-0.1,0.1,0,0.1-0.1c-0.1,0.5,0.4,0,0.3,0.4c0,0-0.1,0-0.1,0l0.1,0
							c0.1-0.1,0-0.1,0.1-0.2c0.1-0.1,0.1-0.1,0.1-0.1c-0.1,0-0.1,0.2-0.1,0.3c0,0,0-0.1,0.1-0.1c-0.1,0.2,0.1-0.2,0.1,0l0,0.1
							c0,0,0.1-0.1,0.1,0c-0.1,0.1-0.1,0-0.1,0.2c0,0,0.2-0.2,0.2,0c0,0-0.1,0-0.1,0c0,0.2,0,0.1,0,0.2l0,0l0,0.1l0-0.1
							c0.2-0.3,0.1,0,0.3-0.2c-0.2,0.2-0.1,0.1-0.2,0.3c0,0.1,0,0.1,0,0.2c0.1-0.1,0,0.1,0.2,0c0,0.1,0,0,0,0.1c0.1,0,0-0.1,0.1-0.2
							c0.1-0.1,0.1,0.3,0.3,0.1c0.1-0.1,0.2-0.2,0.3-0.3c0,0.1-0.1,0.2-0.1,0.2c0,0.1,0.1,0.1,0.1,0c0,0,0,0.1,0,0.2
							c0,0,0.1-0.2,0.1-0.1c0,0.1-0.1,0.2-0.1,0.2c0.1,0,0.1-0.1,0.2-0.2c0,0.1-0.1,0.1-0.1,0.2c0.1,0,0.2-0.1,0.2-0.2l0-0.1
							c0,0,0,0.1,0,0.2c-0.1,0.1-0.1-0.1,0-0.1l0,0c0-0.3-0.1,0-0.2,0l0.1-0.2L91,65c0-0.1,0-0.2,0.1-0.2c0-0.1-0.1,0.1-0.1-0.1
							c0,0,0,0,0,0l-0.1,0.1c0,0,0-0.2,0.1-0.1c0-0.2-0.2,0.1-0.1,0l0,0c-0.1,0-0.1,0.2-0.2,0.3l0.1-0.4l-0.1,0.2c0,0,0,0,0-0.1
							c-0.1,0.1,0,0.1-0.1,0.2c0-0.2-0.2,0-0.1-0.3c-0.1,0.1,0,0.1-0.1,0.2c0.1-0.3-0.1,0-0.1-0.1c0.1-0.1,0.1,0,0.1-0.2
							c-0.1,0.2-0.1-0.1-0.1-0.1c-0.1,0.2-0.1,0-0.2,0.1c0-0.1-0.1-0.2-0.1-0.3l0,0c-0.1,0.2-0.2,0.1-0.2,0.1C90,64,90,64,90,64l0,0
							c0,0.1-0.1,0.1-0.1,0.1l0.1-0.1c-0.1,0-0.2,0.1-0.2,0c-0.1,0.1-0.2,0.4-0.3,0.4c0-0.1,0.1-0.2,0.2-0.2c0,0-0.1,0-0.1,0
							l0.1-0.1c0-0.1-0.1,0.1-0.1,0.1c0.1-0.1,0-0.1,0.1-0.2c0,0,0,0.1,0,0c0,0,0-0.1,0-0.2c0,0.1-0.1,0.1-0.1,0.1
							c-0.1,0,0.1-0.1,0.1-0.2c-0.1,0.1,0,0-0.1,0.1c0,0,0-0.1,0-0.1c-0.1,0-0.1-0.1-0.2,0.1l0,0l0,0l0,0l0,0
							c-0.2,0.1-0.1-0.2-0.3-0.2l0,0c-0.1,0-0.1,0-0.2,0c0,0,0-0.1,0.1-0.2c-0.1,0-0.1,0.1-0.1-0.1c0.1-0.1,0-0.1,0.1,0
							c0-0.1,0-0.2-0.1-0.1c0.1-0.1,0.1-0.2,0-0.2l0,0.1c0,0-0.1,0-0.1-0.1l0.1-0.2c0-0.3-0.4,0.2-0.3-0.2c-0.1,0.1,0,0.1-0.1,0.2
							c0-0.1,0.1-0.3,0-0.3c0-0.1-0.2,0.2-0.2,0.1c0,0.1-0.1,0.2-0.2,0.2c0-0.1,0.1-0.3,0.2-0.3c0,0,0,0,0,0c0,0,0.1,0,0.1-0.1
							l0,0.1c0-0.1-0.1-0.1,0-0.2c-0.1,0-0.1,0.1-0.1,0.1c0-0.1-0.1-0.1-0.1-0.2c0,0,0,0.1-0.1,0.1c-0.1-0.1-0.1,0.1-0.2,0.1
							c0-0.1,0.1-0.2,0-0.2c0-0.1,0.1-0.2,0.1-0.2c-0.1,0.1-0.1-0.1-0.1-0.2l0.1,0c0,0-0.1,0-0.1,0l-0.1,0.1c0,0,0,0,0-0.1
							c-0.1,0.1-0.1,0.2-0.2,0.3c0-0.1-0.1,0,0-0.1c0,0.1,0.1-0.2,0.2-0.1c0,0,0,0,0,0c0,0,0,0,0,0c0-0.2-0.1,0.2-0.2,0.1
							c0.1-0.1,0.1-0.2,0.1-0.2c0,0-0.1,0.2-0.1,0.2c0-0.1-0.1,0-0.1,0l0,0.1c-0.1,0.1-0.1,0.1-0.1,0.1c0-0.1,0.1,0,0.1-0.1
							c-0.1,0.1,0-0.2-0.1-0.1c0-0.1,0.1-0.2,0.1-0.2c-0.1,0.1,0-0.2-0.1-0.1c-0.1,0.1,0,0.1-0.1,0.2l0.2,0L87,62.1c0,0,0.1,0,0.1,0
							c-0.1,0.1-0.1,0-0.1,0.2c0.1-0.2-0.1,0.1-0.1-0.1l0.2-0.3c0-0.2-0.2,0.1-0.3-0.1l0,0.1c-0.1,0.1-0.1,0-0.1,0
							c0.1-0.1,0.1-0.1,0.1-0.2c0,0.1-0.1,0-0.2,0.1l0-0.2c-0.1-0.1-0.3,0.2-0.3,0.2c0.1-0.1,0.1-0.2,0.2-0.2c0,0,0,0-0.1,0
							c0-0.1-0.1,0.1-0.1,0c0,0-0.1,0.1-0.1,0.1c0,0,0,0,0,0c0,0-0.1,0-0.1,0.2c0.1-0.4-0.2-0.1-0.2-0.4c-0.1,0-0.2,0-0.2,0
							c0,0,0-0.1,0,0c0-0.1-0.2,0.3-0.2,0.1c0-0.2,0.1-0.1,0.1-0.1c0.2-0.3-0.1,0-0.1-0.2l0,0c0-0.1-0.2,0.1-0.2,0c0,0,0,0,0-0.1
							c-0.1,0.1-0.3,0.2-0.3,0.2c0.1-0.1,0.1-0.1,0.1-0.2c0,0-0.1,0.2-0.2,0.2c0-0.1,0-0.2,0.1-0.3l0.1,0c0.1-0.2-0.1,0-0.1-0.1
							l0-0.1c-0.1,0-0.2,0.2-0.3,0.1l0,0.1c-0.1,0.2,0-0.1-0.1,0l0.1-0.2c-0.1,0-0.2,0.1-0.3,0.2c0.1-0.1,0.2-0.2,0.3-0.2
							c0,0-0.1,0-0.2,0.1c0,0,0.1-0.1,0.1,0c-0.1,0.1-0.2,0.2-0.3,0.2c0.2-0.4-0.1-0.2,0-0.5c-0.2,0.1-0.2-0.2-0.4-0.2
							c-0.1,0.3,0,0-0.2,0.3c0,0-0.1,0,0,0l0-0.2c0-0.1,0.1-0.1,0.1-0.1c-0.1-0.1,0-0.1,0-0.3c0,0.1-0.1,0.2-0.1,0.1l0,0.2
							c-0.2,0.1,0-0.3-0.1-0.2l0.1-0.1c-0.1,0-0.2-0.1-0.4,0.2c0,0,0-0.1,0.1-0.1c-0.1-0.1-0.4,0.2-0.4,0l0-0.1c0,0-0.1,0.1-0.1,0
							c0,0,0-0.1,0-0.1c0,0-0.1,0.1-0.1,0.1l0.1-0.1c-0.1-0.2-0.3,0.1-0.4,0.2c0.1-0.2,0-0.4,0-0.4l0,0c-0.1-0.1-0.3,0.1-0.5,0.1
							c0-0.3-0.2-0.2-0.3-0.4c0,0.1-0.1,0.2-0.1,0.2c0-0.1-0.1,0.1-0.1-0.1l0,0c0.1-0.2,0-0.2-0.1-0.2l-0.1,0.3c0-0.5-0.4,0-0.3-0.4
							c-0.1,0.1-0.1,0-0.2,0.1l0.1-0.2c-0.1-0.1-0.1-0.1-0.2-0.1l0.1-0.1c-0.1,0-0.2,0.4-0.3,0.4l0.1-0.2c-0.1,0-0.2-0.3-0.3-0.1
							c0,0,0-0.1,0.1-0.1c0,0-0.1-0.2-0.2,0.1c0.1-0.2-0.1-0.1-0.2,0l0.1-0.2c-0.1,0.2-0.1,0.2-0.2,0.3c0,0,0-0.1,0-0.1
							c0-0.1-0.1,0.1-0.1,0l0.1-0.1c-0.1,0-0.1,0-0.1,0.1c-0.1,0.1-0.1-0.1-0.1-0.2c0,0.1-0.1,0.2-0.1,0.1c0-0.1,0-0.1,0-0.1
							c-0.1-0.1-0.2,0.1-0.2,0c0-0.1,0-0.1,0-0.1c0.1,0,0.1,0.1,0.1,0.1c0-0.1,0-0.2,0.1-0.4c-0.1,0.1-0.2,0.3-0.3,0.2
							c0,0,0,0,0-0.1l0,0c0,0,0,0,0,0c0,0,0,0,0-0.1c0-0.1-0.1-0.1-0.1-0.1c0,0.2-0.1,0.1-0.1,0.3c0,0,0,0,0,0c0,0,0,0,0,0l0,0
							c0,0,0,0,0.1,0c0,0.1-0.1,0.1-0.1,0c0,0.1-0.1,0.2-0.1,0.2c0-0.2,0-0.4,0-0.5c-0.1,0.1-0.2,0-0.4,0.3c0,0,0-0.1,0-0.1
							c0,0,0,0,0.1-0.1c-0.1,0.1-0.2,0-0.2,0.2c0-0.1,0.1-0.2,0-0.2l0-0.1c-0.1-0.4-0.4,0.4-0.5,0c0,0,0,0,0,0.1
							c-0.2-0.2-0.5,0.1-0.7-0.3C77,58,77,58.2,76.9,58.3l0-0.2l-0.1,0.2c-0.1,0.1-0.1-0.5-0.3-0.2l0,0.1c0,0-0.1,0-0.1-0.1
							c0,0,0,0.1,0,0.1l0-0.1l-0.1,0.1c-0.1-0.1,0.1-0.4,0-0.4c-0.1,0-0.2,0.2-0.2,0.3c0,0,0,0.1,0,0.2l0,0C76,58.5,75.9,58.8,76,59
							l0.1-0.1l0,0.1L76,59c0,0.1,0,0,0.1,0c0,0.1,0,0.1,0,0.1l0.1-0.2c0,0.1-0.1,0.2,0,0.3c0.1-0.1,0-0.2,0.1-0.3
							c0,0.1,0,0.2,0,0.1c0,0.1,0,0.1,0,0.1c0.1-0.1,0.1,0,0.1-0.2c0,0.2,0.1,0,0.1,0.2c0-0.1,0.1-0.2,0.1-0.2c-0.1,0.3,0.1,0,0,0.4
							c0.1-0.3,0.2-0.1,0.3-0.2c0,0,0,0.1,0,0c0,0,0,0.1,0,0.2c0.1-0.2,0.1-0.3,0.2-0.4c0,0.2-0.1,0.3-0.1,0.5
							c0-0.2,0.1-0.2,0.1-0.3c0,0.1,0,0.1,0,0.3c0.1-0.3,0,0,0.1-0.2c0,0.1,0,0.3,0,0.2C77.3,59.4,77.2,59.5,77.2,59.5z M78.8,59.4
							L78.8,59.4C78.8,59.4,78.8,59.4,78.8,59.4C78.8,59.4,78.8,59.4,78.8,59.4z M78.9,59.5C78.9,59.5,78.9,59.5,78.9,59.5
							c0-0.1,0-0.1,0-0.1C78.9,59.4,78.9,59.4,78.9,59.5z M79,58.3C79,58.3,79,58.3,79,58.3C79,58.4,79,58.4,79,58.3L79,58.3
							C78.9,58.4,79,58.3,79,58.3z"/>
						<path fill="#202020" d="M78.9,58.5L78.9,58.5C78.9,58.5,78.9,58.5,78.9,58.5L78.9,58.5L78.9,58.5z"/>
						<path fill="#202020" d="M89.4,63.7L89.4,63.7C89.4,63.8,89.4,63.8,89.4,63.7L89.4,63.7z"/>
						<polygon fill="#202020" points="80.5,60.3 80.5,60.3 80.5,60.3 						"/>
						<path fill="#202020" d="M89.7,64.6C89.7,64.6,89.7,64.6,89.7,64.6C89.7,64.6,89.7,64.6,89.7,64.6z"/>
						<path fill="#202020" d="M89.9,64.8L89.9,64.8C89.9,64.8,89.9,64.8,89.9,64.8z"/>
						<path fill="#202020" d="M90.1,65C90.1,65,90.1,64.9,90.1,65L90.1,65L90.1,65z"/>
						<path fill="#202020" d="M86.8,63.1C86.8,63.1,86.8,63.1,86.8,63.1C86.8,63.1,86.8,63.1,86.8,63.1z"/>
						<path fill="#202020" d="M88,63.4C87.9,63.4,87.9,63.4,88,63.4C87.9,63.4,87.9,63.5,88,63.4z"/>
						<polygon fill="#202020" points="85.7,62.7 85.7,62.7 85.7,62.7 						"/>
						<path fill="#202020" d="M87.9,63.4C87.9,63.4,87.9,63.4,87.9,63.4C87.9,63.4,87.9,63.4,87.9,63.4z"/>
						<path fill="#202020" d="M91.2,65.4L91.2,65.4C91.2,65.4,91.2,65.4,91.2,65.4L91.2,65.4z"/>
						<path fill="#202020" d="M91.2,65.4L91.2,65.4C91.2,65.4,91.2,65.4,91.2,65.4z"/>
						<path fill="#202020" d="M91.2,65.4L91.2,65.4C91.2,65.4,91.2,65.4,91.2,65.4z"/>
						<path fill="#202020" d="M90.8,65.3L90.8,65.3C90.8,65.3,90.8,65.3,90.8,65.3z"/>
						<path fill="#202020" d="M90.7,65.3c0,0,0,0.1,0.1,0.1L90.7,65.3C90.8,65.4,90.8,65.2,90.7,65.3z"/>
						<path fill="#202020" d="M90.6,64.4L90.6,64.4c0.1,0,0.1-0.1,0.1-0.1C90.7,64.2,90.7,64.5,90.6,64.4z"/>
						<path fill="#202020" d="M90.4,64.3c0,0,0-0.1,0.1-0.1C90.5,64.2,90.4,64.2,90.4,64.3z"/>
						<path fill="#202020" d="M89,63.3l0.1-0.1C89,63.2,89,63.3,89,63.3z"/>
						<polygon fill="#202020" points="88.3,63.8 88.3,63.9 88.3,63.8 						"/>
						<polygon fill="#202020" points="88.7,62.8 88.7,62.8 88.6,62.8 						"/>
						<path fill="#202020" d="M86.1,61.3L86,61.4C86,61.4,86.1,61.2,86.1,61.3z"/>
						<path fill="#202020" d="M84.8,60.8C84.8,60.7,84.8,60.7,84.8,60.8C84.8,60.8,84.8,60.8,84.8,60.8z"/>
						<polygon fill="#202020" points="81.3,59 81.3,59 81.3,59 						"/>
					</g>
				</g>
			</g>
		</g>
	</g>
</g>
</svg>
