<?xml version="1.0" encoding="utf-8"?>
<!-- Generator: Adobe Illustrator 18.0.0, SVG Export Plug-In . SVG Version: 6.00 Build 0)  -->
<!DOCTYPE svg PUBLIC "-//W3C//DTD SVG 1.1//EN" "http://www.w3.org/Graphics/SVG/1.1/DTD/svg11.dtd">
<svg version="1.1" id="Layer_1" xmlns="http://www.w3.org/2000/svg" xmlns:xlink="http://www.w3.org/1999/xlink" x="0px" y="0px"
	 viewBox="0 0 144 144" enable-background="new 0 0 144 144" xml:space="preserve">
<g>
	<g>
		<g>
			<g>
				<g>
					<g>
						<g>
							<path fill="#202020" d="M18.4,100c0-0.1-0.1-0.1-0.1,0c0,0,0,0.2-0.1,0.5c0,0,0,0.4-0.1,0.4c0,0,0.2-0.2,0.2-0.4
								C18.5,100.3,18.4,100,18.4,100z"/>
							<path fill="#202020" d="M17.3,101.6c0.5,0.3,0.9,0.4,0.8,0.1c-0.2,0-0.3-0.1-0.4-0.1c-0.1-0.1-0.3-0.1-0.5-0.2
								c-0.5-0.3,0.2-0.2,0.2-0.2c0,0,0,0,0,0c0.1,0,0.4-0.1,0.4-0.2c-0.2,0.1-0.4,0.1-0.7,0.2c-0.6,0,0,0.3,0.3,0.5
								C17.5,101.7,17.4,101.6,17.3,101.6z"/>
							<path fill="#202020" d="M46.8,103.9l-0.1,0.2C46.8,104,46.8,104,46.8,103.9z"/>
							<path fill="#202020" d="M53.4,81.6c-0.1,0.2-0.1,0.2-0.1,0.2C53.4,81.7,53.5,81.6,53.4,81.6z"/>
							<path fill="#202020" d="M55.9,78.7c-0.1,0.1-0.1,0.1-0.2,0.2C55.8,78.8,55.9,78.7,55.9,78.7z"/>
							<path fill="#202020" d="M46.8,103.9l0.3-0.6C47,103.2,47,103.6,46.8,103.9z"/>
							<path fill="#202020" d="M22,103.4c-0.1,0-0.2,0-0.3,0L22,103.4C22,103.4,22,103.4,22,103.4z"/>
							<path fill="#202020" d="M42.1,113l-0.2,0c-0.1,0-0.1,0-0.2,0.1C41.6,113.1,42.1,113,42.1,113z"/>
							<path fill="#202020" d="M34.8,109.5c0.1,0.1,0.3,0,0.4,0c-0.1,0-0.2,0-0.4-0.1C34.8,109.4,34.8,109.4,34.8,109.5z"/>
							<path fill="#202020" d="M23.5,104.5l-0.2,0C23.4,104.5,23.5,104.5,23.5,104.5z"/>
							<path fill="#202020" d="M45.5,108.3C45.5,108.3,45.5,108.3,45.5,108.3C45.5,108.3,45.5,108.3,45.5,108.3z"/>
							<path fill="#202020" d="M20.5,92.7C20.5,92.7,20.5,92.7,20.5,92.7C20.5,92.7,20.5,92.7,20.5,92.7z"/>
							<path fill="#202020" d="M18.1,101.5l0-0.1c0,0-0.1,0-0.1,0L18.1,101.5z"/>
							<path fill="#202020" d="M61.7,74.5C61.7,74.5,61.7,74.5,61.7,74.5C61.5,74.6,61.6,74.6,61.7,74.5z"/>
							<path fill="#202020" d="M81.2,20.1c0.6,0.5-1.2-0.5-0.3,0.3C80.9,20.3,82,20.7,81.2,20.1z"/>
							<path fill="#202020" d="M22.2,103.5l0.3,0.1C22.4,103.5,22.3,103.5,22.2,103.5z"/>
							<path fill="#202020" d="M80.9,20.4L80.9,20.4L80.9,20.4C81,20.4,81,20.4,80.9,20.4z"/>
							<path fill="#202020" d="M74.3,63.2c0,0-0.1,0.1-0.1,0.1C74.1,63.3,74.2,63.3,74.3,63.2z"/>
							<path fill="#202020" d="M65.1,71.9l0.3-0.2C65.3,71.8,65.2,71.9,65.1,71.9z"/>
							<path fill="#202020" d="M76.8,57.1c0.1-0.2,0.1-0.2,0.2-0.4c0,0,0,0,0,0.1C76.9,56.8,76.9,56.9,76.8,57.1z"/>
							<path fill="#202020" d="M78.9,50.6c0,0,0,0.1-0.1,0.1c0,0.1,0,0.1-0.1,0.2L78.9,50.6z"/>
							<path fill="#202020" d="M27.6,73.7c-0.1,0.1-0.2,0.2-0.3,0.2C27.5,73.8,27,74.7,27.6,73.7z"/>
							<path fill="#202020" d="M22,103.5c0,0,0.1,0,0.2,0C22.1,103.5,22.1,103.5,22,103.5C22,103.5,21.9,103.5,22,103.5z"/>
							<path fill="#202020" d="M75.7,56.4l0.4-1C75.9,55.7,75.8,56,75.7,56.4z"/>
							<path fill="#202020" d="M59.9,44.1l0,0.2C59.9,44.3,59.9,44.2,59.9,44.1z"/>
							<path fill="#202020" d="M77,52.4c0.1-0.2,0.2-0.3,0.3-0.5c0,0,0-0.1,0-0.1L77,52.4z"/>
							<path fill="#202020" d="M27.3,73.9L27.3,73.9L27.3,73.9z"/>
							<path fill="#202020" d="M24.7,80.3c0.4-0.9,0-0.5,0-0.8c0.4-1.1,0.4-0.5,0.6-0.8c0.2-0.7,0.3-1.3,0.6-1.8c0,0,0.1-0.1,0.1,0
								c0.2-0.8,1-2.1,1.3-3c0-0.1,0.1-0.1,0.1-0.1c-0.2,0.1-0.3,0-0.3,0c0.2-0.4,0.3-0.8,0.5-0.9c-0.1,0.2-0.1,0.3-0.1,0.4l0.2-0.4
								c0.4-0.3-0.3,0.6-0.1,0.7c0.4-0.8,0.8-1.9,1.2-2.4c0.2,0-0.8,1.5-0.2,0.7c0,0-0.2,0.2-0.3,0.4c-0.2,0.2-0.3,0.5-0.3,0.5
								c0.7-0.6-0.4,0.6,0.3,0.1c0.8-1.2,0.7-1.4,1.6-2.6c0.1-0.3-0.2,0-0.1-0.3c1-1.8,1.3-1,2.1-2.3c0.2-0.4,0-0.7,0.9-1.4
								l-0.1,0.4c1-1,0.3-0.8,1.4-1.7c-0.1,0.2-0.7,0.8-0.6,0.7c0.8-0.5,0.4-0.6,0.9-1.1l0.2,0c1.1-1,2.2-2.2,3.6-3.1
								c0,0.1-0.2,0.3,0.1,0.1c1.7-1.2,3.8-2.1,5.7-2.7l0.7-0.4c0.2-0.1,0.3,0,0.2,0.1c0.8-0.2,0-0.1,0.3-0.3
								c0.4-0.1,0.6-0.1,0.3,0.1c1.3-0.5,3.7-1.2,5.2-1.1l-0.3,0.1c1.1,0,1.2-0.4,2.3-0.3l-0.2,0c0.6,0,1.1,0,1.7,0.1l0.9,0
								c0.3,0,0.8,0,1.1-0.3c0.4-0.3,0.6-0.8,0.7-1.1c0.1-0.3,0.2-0.6,0.3-0.9c0.2-0.6,0.4-1.1,0.6-1.6c-0.1-0.4,0.7-2.4,0.4-2.6
								c0.5-1.3,0.5-0.9,1-2.9c0.1-0.5,0-0.8,0.1-1.5l0.2,0l0-0.9l0.3-0.4l0.1-0.6c-0.1,0.2-0.2,0.5-0.2,0.4c0.1-1,0.7-2.3,0.7-2.3
								l0.4-2.3c0.1,0.1,0,0.4,0,0.8c0.1-1.2,0.2-0.2,0.3-1.3c-0.1,0.1-0.1-0.1-0.1-0.1c0.2-0.5,0.5-1.8,0.7-2.7l0.1,0.2
								c0.4-1.6,0.8-3.5,1.3-5.3c-0.2,0.6-0.4,0.4-0.3-0.1l0.2-0.2c0-0.4-0.2,0.5-0.2-0.2c0.2-0.7,0.3-0.4,0.3,0l0.2-0.9
								c0.1,0,0,0.2,0.1,0.2c0-0.4,0.6-1.4,0.5-1.9l0.1,0c0.5-1.8,0.7-2.7,1.1-4.1c-0.1-0.1,0.1-0.6,0.1-1.1
								c0.4-1.1,0.9-2.2,1.4-3.4c0.3-0.9,0-0.3,0.1-0.7c0.2,0,0.7-1.2,0.5-0.6c0.7-1.5,0.9-1.9,1.9-3.6c-0.2,0.1-0.3,0.3-0.3,0.2
								c0.2-0.3,0.5-0.7,0.5-0.5l0,0c0.1-0.1,0.1-0.3,0.2-0.3l0.2,0.1l0.2,0.2c0.5,0.4,1.1,0.7,1.6,1.1c1.1,0.7,2.1,1.4,3,1.8
								l-0.1,0l1.7,0.9c0.8,0.5-0.5-0.2,0,0.2c1.9,0.9,2.8,1.7,4.4,2.5c0.9,1.1,4.1,2.4,5.5,3.5l0-0.1c0.5,0.2,0.5,0.3,0.7,0.5
								c0-0.1-0.4-0.3-0.1-0.2c0.9,0.5,1.7,0.9,2,1.6c0.3,0.7,0.2,1.5-0.3,2.3c-0.4,0.8-1,1.6-1.6,2.5c-0.6,0.8-1.2,1.7-1.7,2.6
								c-0.8,1.3,0,1-1.1,2.5l0.1-0.6c-1.3,2.7-2.8,5.5-3.8,8.3c0-0.2,0-0.2,0.1-0.5c-0.4,0.5-0.9,2.1-0.7,2.2
								c-0.2,0.4-0.1,0.1-0.3,0.3c-0.3,0.6-0.4,1.5-0.6,1.8c0,0,0-0.2,0-0.3c-0.1,0.4-0.6,1.8-0.3,1.5c-0.4,1-0.6,2-0.9,2.8
								c0,0.6-0.7,1.7-0.5,2c-0.2-0.2-0.8,1.7-0.9,2.4c0-0.2-0.3,0.5-0.3,0.2c-0.3,0.7-0.5,1.4-0.3,1.3c-0.8,1.2-0.9,2.8-1.6,3.3
								c-0.9,2.1-2,3.9-3.4,5.5c-0.1-0.1,0.3-0.5,0.6-1c0.3-0.4,0.7-0.8,0.5-0.9c-1.1,1.6-1.7,2.6-3.2,3.8c-0.4,0.3,0.1-0.3,0.2-0.4
								c-1.4,1.3-3,2.3-4.4,3.3c0,0,0.1-0.1,0.3-0.3c-0.3,0.2-0.7,0.4-0.6,0.5l0.3-0.2c0.6-0.2-1,1-1,1.2c0.3-0.6-1.5,0.9-1,0
								c-0.2,0.1-0.4,0.3-0.3,0.4c-0.3,0.2-0.4,0.2-0.2-0.1c-1,0.7-0.6,0.6-1.5,1.2c0-0.1,0.2-0.2,0.2-0.3c-0.4,0.4-0.9,0.8-1.7,1.4
								c0-0.1-0.1,0,0.1-0.2c-1.4,1-2.1,1.9-3.5,3.2c0.2-0.6-0.5,0.4-0.7,0.3l-0.6,0.8l0.3-0.2c-0.6,0.7-0.9,1.4-1.3,2l0.3-0.6
								c0,0-0.2,0.4-0.4,0.7c-0.2,0.4-0.4,0.7-0.4,0.7s0.1-0.2,0.3-0.4c0.1-0.2,0.3-0.4,0.3-0.4c-0.3,0.8,0.3,0-0.3,1
								c0.1-0.2-0.4,0.8-0.7,1.1l0,0c-0.1,0.4-0.2,0.9-0.4,1.4c-0.1,0.1-0.2-0.2-0.3-0.1c0,0.5-0.6,1.9-0.5,2.5
								c0-0.2-0.1-0.2-0.1-0.2l0.1,0.4c-0.1,0.4-0.2,0.4-0.2,0.3c-0.3,1.2,0.3-0.3-0.1,1c0-0.1,0-0.1,0-0.3
								c-0.4,1.4-0.5,2.7-0.8,3.9c-0.3,0.3,0.2-1.1-0.1-0.7c-0.4,1.8-0.6,3.8-1.2,5.6l0.1-0.3c0.2,0.3-0.5,1.3-0.6,2.2
								c0-0.2-0.1-0.3-0.1-0.3c-0.4,1.2-0.6,2.5-1.1,4.3l0-0.2c-0.3,0.7-0.6,1.8-0.9,2.5c0,0.2-0.2,0.7,0,0.4
								c-0.6,1.1-1,2.2-1.3,3.3c-0.4,1-0.6,2.2-1.4,2.8c0.2-0.2,0.3-0.5,0.2-0.3c0,0-0.2,0.3-0.5,0.5c-0.3,0.2-0.7,0.2-0.7,0.2
								c0.1,0.1,0.2,0.1,0.6,0.1c-0.2,0.2-0.7,0.3-1.1,0.2c0.8,0,0-0.2-0.3-0.4c0,0.1-0.1,0.1-0.1,0.1c-0.8-0.6-0.3,0.2-1.4-0.5
								l0.1,0c-0.5-0.2-0.9-0.3-1.3-0.6c-0.1-0.2,0.5,0.2,0.6,0.1c-0.6-0.3-1.4-0.5-1.9-1c0.3,0.1,0.7,0.4,1,0.5
								c-0.5-0.5-0.6-0.5-1.1-0.9l0,0l-1-0.8l0.2,0.2c-1-0.2-1.6-1-2.8-1.4c1.2,0.4,0.2,0,0.4-0.1c-0.2-0.2-0.6-0.5-0.5-0.5
								c-0.6-0.2-0.8-0.6-1.7-0.8c0-0.1-0.6-0.3-0.4-0.4c-0.7-0.3,0.1,0.2,0,0.2c-1.1-0.4-2.5-1.4-4.3-1.6c-1.5-0.3-1.8-0.1-3.1-0.3
								c-0.4-0.2,0.4-0.1,0.4-0.1c-0.7-0.2-1.3-0.4-1.9-0.5c0.1,0,0-0.1-0.2-0.2c-0.5-0.1-0.4,0.1-1.1-0.2c0.1,0,0.3-0.1,0.6,0
								c-0.6-0.1-1.3-0.3-1.9-0.5c-0.1-0.2,0.4,0,0.7,0.1c-0.7-0.2-1.8-0.7-2.1-0.8l0.4,0.3c-0.2-0.1-0.1-0.2,0.1-0.1
								c0.6,0.2,0.8,0.5,0.8,0.5c0,0-0.1,0-0.2-0.1c-0.1,0-0.2-0.1-0.2-0.1c0.3,0.5,1.8,0.7,2.7,1l-0.5,0.1l1,0.1
								c0.2,0.1,0.3,0.3-0.2,0.2c0.7,0.3,0.6,0.1,1.2,0.3c0.1,0,0,0,0,0l0.7,0.1c-0.1,0,0.1,0.2-0.3,0.1c1.2,0.4,2,0.3,2.4,0.6
								l-0.1,0c1.7,0.4,0.2-0.1,1.5,0c0,0,0.2,0.2,0.4,0.3c0.2,0.2,0.3,0.3,0.3,0.3l0.2-0.1c0.2,0.1,0.5,0.2,0.4,0.2
								c0.7,0.1-0.1-0.1,0.3-0.1c0.7,0.4,2.2,0.9,2.2,1.3c0.3,0-0.7-0.5,0.2-0.1c0.1,0.4,0.9,0.5,1.5,1c-0.3,0-0.9-0.4-0.3,0.1
								c0.5,0,1.2,0.9,1.8,1.2c0.1-0.2,1.2,0.7,2.2,1.2c-0.1,0,1.7,1.2,2.6,1.7l0,0c0.3-0.1,1.2,0.5,2.1,0.5c0,0.1-0.2,0.2-0.7,0.1
								c0,0,0.8,0.2,0.8,0.1c0.2-0.1,0.5-0.1,1-0.3c0,0-0.1,0.2-0.1,0.2c0.6-0.2,1-0.7,1.2-1.2c0.3-0.5,0.5-1,0.7-1.6
								c-0.1-0.1-0.7,0.8-0.4-0.5c0.1,0,0.2,0,0.1,0.3c0-0.1,0.1-0.4,0.2-0.6l-0.1,0.5c0.3-0.5,0-0.3,0.2-0.7c0.1,0,0.2-0.3,0.3-0.2
								c0,0.1-0.2,0.4-0.2,0.5c0.2-0.5,0.5-1,0.6-1.2c-0.1,0-0.1-0.1,0-0.4c0.3-0.9,0.2-0.3,0.5-0.8c0-0.2,0.3-0.8,0.1-0.9
								c0.1-0.3,0.2-0.3,0.3-0.4c0.1-0.5,0.7-2.2,0.4-1.7l-0.1,0.1c0,0,0-0.1,0-0.1l0,0l0,0c0.4-1.6,1.1-3.2,1.5-4.8l0.1,0
								c0.2-1,0.6-2.1,0.6-2.8c0.1-0.3,0.3-0.6,0.3-0.5c0.1-0.7,0.1-0.8,0.5-1.8C49.6,95,49.8,94,49.5,95c0.3-0.9,0.4-1.1,0.5-2.2
								c0.1,0.4,0.3-0.7,0.4-1.1l-0.3,0.6c0.1-0.5,0.2-0.9,0.3-1.4l0.1,0.3c0.6-1.9,0.4-3.6,1.1-4.9c0-0.5-0.4,1-0.4,0.5
								c0.3-0.9,0.8-1.7,0.9-1.9c0.5-1.1,0.1-1.2,0.7-2.3c-0.1,0.1-0.4,0.2,0-0.7c0.5-0.8,0.8-0.8,0.6-0.3c-0.1,0.2-0.2,0.3-0.2,0.2
								c-0.1,0.3-0.3,0.6,0,0.3l0-0.1c0.3-0.4,0.9-1.4,0.8-1.1c0.3-0.6,0.1-0.3-0.2,0.1c0.3-0.4,0.6-0.8,0.9-1.2
								c0.3-0.3,0.6-0.7,1-1.1c-0.2,0.1-0.3,0.2-0.2,0c1.3-1.1,0.4-0.6,1.3-1.5c0.6-0.4,0,0.3,0.8-0.5c0.6-0.4,0.2,0,0,0.3
								c0.7-0.8,1.6-1.1,2.2-1.5l-0.4,0.4c0.3-0.2,0.5-0.4,0.7-0.5l-0.3,0.1c0.3-0.2,0.5-0.3,0.6-0.3c0.2-0.3-0.3,0,0.2-0.5
								c0.4-0.2,1.1-0.8,1.3-0.7c-1.2,0.7,0.2,0.1-0.8,0.7c0.2-0.1,0.4-0.3,0.7-0.5c0.1,0,0,0.1-0.1,0.1c1.2-0.6,0.4-0.5,1.6-1.2
								c-0.1,0.2,0.4,0,0.6-0.1c-0.5,0.3-0.3,0,0.1-0.3c0.8-0.4,0.8-0.6,1.2-0.8l-0.5,0.3c0.1-0.2,0.5-0.4,1-0.8
								c0.1,0-0.4,0.4-0.2,0.3c0.5-0.5,1.4-0.7,2.2-1.4c0.4-0.2,0.1,0.1,0.5-0.1c0.8-0.8,1-0.6,1.9-1.5c-0.3,0.1-0.4,0.2,0.2-0.5
								c0,0-0.3,0.4-0.7,0.7c-0.4,0.3-0.7,0.7-0.7,0.7l0.8-0.9c-0.4,0.4-0.9,0.9-1.2,1c0.4-0.4,0.4-0.4,0.1-0.3
								c0.7-0.3,1.1-1.1,1.9-1.6l0.2,0.3c1.1-0.9,1.6-1.9,2.6-3.3l-0.4,0.4c0-0.3,0.6-0.9,0.9-1.4c0.1,0.1,0.3-0.2,0.5-0.4
								c-0.1,0,0.6-1.1,0.5-1.4l0.5-0.6c0.7-1.3,0.4-1.6,1-2.9c0,0.4,0.3-0.1,0,0.8c0.2-0.4,0.3-0.8,0.3-0.8
								c0.2-0.2,0.3-1.2,0.6-1.6c0-0.2-0.1-0.3,0.1-0.8c0,0,0.1,0,0.1,0c-0.1,0,0.2-0.8-0.1-0.4c0.8-1.2,1.2-3.7,1.9-4.8
								c0.3-1,0.6-2.1,0.9-3c0,0.1,0.1,0,0,0.2c0.5-1.1-0.1-0.8,0.5-2.1c0.4-0.6-0.2,0.7,0.1,0.3c0.4-0.1,0.6-1.6,1.1-2.4L81.4,44
								c0.4-0.6,0.5-1.7,1.1-2.7c0,0,0,0.1,0,0c0.2-0.8,0.8-2.2,1.3-3.3c0,0.4-0.2,0.5,0.1,0.4c0.2-0.5-0.3,0,0.2-0.9
								c0.2-0.3,0.6-0.9,0.8-0.9l-0.5,0.8c0.4-0.3,0.6-1.1,0.9-1.5l0,0.1c0.7-1.3,0.5-1.4,1.4-2.8l-0.1,0.1c0.3-0.9,0.5-0.5,0.8-1.4
								l0.3-0.1c0.3-0.5,1-1.8,1.4-2.8c-0.1,0.6-0.7,1.7-1,2.4c0.3-0.4,1.1-1.7,1.1-2c-0.1,0.2-0.2,0.5-0.3,0.7
								c0.2-0.7,0.6-1.6,0.7-2.8c0.2,0.2,0.4-0.7-0.1-1.7c-0.5-0.9-1.5-1.5-1.7-1.8c-1.8-0.9-3.4-2.1-5.4-3.3c0.5,0.7-0.6-0.3-0.6,0
								c-0.5-0.3-0.7-0.4-0.7-0.4l-1.3-1c-0.3-0.3,0.5,0.2,0.5,0.1c-1-0.6-0.4-0.4-1-0.9c0.1,0.2-0.4-0.1-1-0.4l0.7,0.6
								c-1.5-0.7-1.1-1-2.6-1.7l0.5,0.2c-0.8-0.4-2.7-1.6-3.6-1.8c-0.1-0.1-0.2-0.3,0.1-0.1c-0.9-0.5-1.9-1.1-2.9-1.6
								c-0.4-0.2-0.7-0.4-1.1-0.6L69.1,13c-0.1,0-0.1,0.2-0.2,0.2c-0.1,0.2-0.2,0.3-0.4,0.5c-0.2,0.3-0.4,0.5-0.5,0.7
								c-0.1,0.2-0.3,0.4-0.4,0.5l0-0.2c-0.2,0.3-0.2,0.7-0.5,1c0,0,0-0.2-0.1,0c-0.1,0.2-0.4,1-0.7,1.4l0.1-0.4
								c-1,1.8-1.1,2.9-1.7,4.6c-0.2-0.1-0.9,1.4-1.1,2.1l0,0c-0.7,2.2-0.9,3.9-1.4,6c-0.6,1.2-1.3,4.4-1.9,6.5
								c0.1-0.3,0.2,0.1,0.1,0.5c-0.2,0.5-0.1,1.4-0.4,1.3l0-0.2c-0.3,0.3-0.5,1.3-0.7,2.1l0.3,0.2c-0.9,2-1.1,5.5-1.7,6.5
								c0,0.5-0.2,1.1-0.2,1.6l-0.2-0.1c-0.4,1.4-0.6,2.1-0.9,3.8l0-0.4c-0.3,1,0.1,1.3-0.1,2.2l-0.3,0.2c-0.1,0.5-0.3,0.9-0.4,1.3
								c-0.1,0.5-0.3,0.9-0.4,0.9c0,0.1-1.1,0-1.9,0.1c0,0,0.1-0.1,0.4-0.1c-0.8-0.1-3.2-0.2-2.9,0.2c0-0.2-1.8,0.1-2.7,0.4l0.1-0.2
								c-0.8,0.3-0.8,0.4-1.9,0.7c-0.3,0-0.3-0.1,0.1-0.1C45.8,57,46,57.2,45,57.4l0.4-0.2c-0.9,0.2-0.8,0.3-1.2,0.5
								c-0.5,0.2-1.6,0.5-1.8,0.5c-0.1,0.1-0.5,0.4-1,0.6c-0.1,0,0.1-0.1,0.2-0.2c-1.4,0.5-1.9,1.2-2.9,1.6c0,0-0.1,0-0.2,0
								c1-0.6,1.9-1,1.8-1c-0.1-0.1-0.9,0.3-0.4-0.2c-0.7,0.5-1.7,1.4-2.5,1.8c0,0-0.1,0-0.1,0l0.1-0.1c-0.2,0.1-0.3,0.2-0.5,0.4
								c-0.3,0.2-0.4,0.3-0.7,0.4c-0.2,0-0.9,0.6-1.3,0.9c0.1,0.1-0.4,0.5,0.2,0.2c-0.1,0,0.1-0.1,0.3-0.3c0.1,0,0.1-0.1,0.2-0.1
								l0,0c0.3-0.2,0.6-0.5,0.9-0.8c-0.3,0.3-0.5,0.6-1,0.9c-0.1,0.2-0.3,0.5-0.4,0.6c-0.6,0.3-1.7,1-1.9,1.1
								c-1,1.1-2.4,2.6-2.7,3.5C30.2,68,30.1,67.9,30,68c0.1-0.2,0.3-0.4,0.4-0.6c-0.5,0.7-1.5,2-1.4,2.3c-0.7,0.8,0.2-0.6-0.6,0.6
								l0.1-0.2c-1.9,2.2-1.9,4.2-3.7,6.9c0.1-0.2,0.2-0.3,0.2-0.3c-1.7,3.2-2.7,6.9-4,10.2c-0.4,0.9-0.3,1.1-0.3,1.7l-0.2,0.2
								l-0.1,1.1c-0.2,1.5-1.1,2.4-1.2,4.3l0.2-0.2c-0.2,0.7-0.4,2.1-0.5,2c0,0.1,0.1,0.2,0,0.5l-0.1,0l-0.1,1.7
								c-0.3,1.3-0.3-0.3-0.6,1.6c-0.1,0.7,0,2,0.1,1.8c0-0.3,0.2-0.7,0.2-0.7l0,0.6c0.3,0.1,0.5,0.7,0.8-0.9l0-1.1l0.2-0.3L19,100
								c0.2-0.5,0.1-0.8,0.1-1.2c0.1-0.1,0.2-0.2,0.2-0.4l-0.1-1.1c0.1-0.1,0.1,0.5,0.3-0.2c0-0.5-0.3,0.4-0.2-0.4
								c0.2-0.5,0.3-0.3,0.3-0.9c0.1-0.1,0.1,0.1,0.1,0.3c0-0.5,0.2-1.4,0.2-1.7c0.3-0.5,0.4-1.8,0.6-1.7c0-0.2,0-1,0.1-1.5
								c0.1,1,0.5-1.8,0.7-1.5c-0.1-0.7,0.5-2.4,0.8-3.5c0,0.1,0,0.2,0,0.3c0.2-0.6,0.4-0.8,0.6-1.2c-0.2-0.2,0.1-1.2,0.2-1.7
								c0.5-0.7,0.1,0.6,0.4,0.4c-0.2,0,0.3-1.4,0.1-1.2c0.3-0.5,0.3-0.5,0.5-0.7C23.6,81.9,24,81.5,24,81c0.5-0.8,0.3-0.1,0.6-1.1
								C24.9,79.5,24.7,80.3,24.7,80.3z M38.1,61.4L38.1,61.4c-0.2,0.1-0.3,0.2-0.4,0.3C37.8,61.6,37.9,61.6,38.1,61.4z M39.8,60.4
								c-0.2,0.1-0.5,0.3-0.7,0.4c-0.1,0-0.1-0.1,0.1-0.2C39.1,60.7,39.5,60.5,39.8,60.4z M35.6,61.8c0.2-0.2,0.3-0.3,0.4-0.3
								c-0.1,0.1-0.3,0.2-0.4,0.4c0,0,0,0,0,0C35.6,61.9,35.6,61.9,35.6,61.8z"/>
							<path fill="#202020" d="M35.3,62.4C35.3,62.4,35.2,62.4,35.3,62.4C35.3,62.4,35.3,62.4,35.3,62.4c0.1,0,0.1-0.1,0.1-0.1
								C35.4,62.3,35.3,62.3,35.3,62.4z"/>
							<path fill="#202020" d="M46.7,104.1L46.7,104.1C46.7,104.1,46.7,104.2,46.7,104.1C46.7,104.2,46.7,104.2,46.7,104.1z"/>
							<polygon fill="#202020" points="59.5,46.3 59.4,46.3 59.4,46.5 							"/>
							<path fill="#202020" d="M41.1,112.2c0,0,0,0-0.1-0.1C41,112.1,41,112.1,41.1,112.2z"/>
							<path fill="#202020" d="M37,109.9l-0.5-0.4C36.6,109.7,36.8,109.8,37,109.9z"/>
							<path fill="#202020" d="M33.9,107.9C33.9,107.9,33.8,107.9,33.9,107.9L33.9,107.9L33.9,107.9z"/>
							<path fill="#202020" d="M64.3,71.2c0,0,0.1-0.1,0.1-0.1C64.7,70.9,64.5,71,64.3,71.2z"/>
							<path fill="#202020" d="M52,83.2c0-0.2,0.1-0.4,0.2-0.6C52,83,51.9,83.2,52,83.2z"/>
							<polygon fill="#202020" points="75.6,56.5 75.6,56.5 75.7,56.4 							"/>
							<path fill="#202020" d="M52.5,81.9c-0.2,0.3-0.3,0.5-0.4,0.7C52.2,82.4,52.4,82.2,52.5,81.9z"/>
							<path fill="#202020" d="M19.1,102.3l-0.1-0.1c0,0,0,0,0,0L19.1,102.3z"/>
							<path fill="#202020" d="M18.9,102.2l-0.2-0.1C18.8,102.1,18.9,102.2,18.9,102.2z"/>
							<path fill="#202020" d="M18.4,101.9l0.4,0.2C18.6,102,18.5,101.9,18.4,101.9z"/>
							<path fill="#202020" d="M23.5,103.9L23.5,103.9C23.5,103.8,23.5,103.9,23.5,103.9z"/>
							<path fill="#202020" d="M25,104.2c-0.3-0.1-0.8-0.3-1.3-0.4l-0.1,0C23.8,103.8,24.6,104.2,25,104.2z"/>
							<path fill="#202020" d="M30.6,106.8c0,0-0.3-0.2-0.5-0.3c-0.3-0.1-0.6-0.3-0.6-0.3c0.2,0.1,0.4,0.3-0.1,0.1
								C30.7,107.1,29.1,106.1,30.6,106.8z"/>
							<path fill="#202020" d="M33.8,108.8C33.3,108.4,33.8,108.8,33.8,108.8C34.1,109,34.2,109.1,33.8,108.8z"/>
							<path fill="#202020" d="M49.3,95.8l0.1,0.1C49.6,95.4,49.4,95.9,49.3,95.8z"/>
							<polygon fill="#202020" points="49.8,90.5 49.6,91 49.7,91.2 							"/>
							<polygon fill="#202020" points="51.5,87.7 51.5,87.9 51.6,87.1 							"/>
							<path fill="#202020" d="M78.7,51.8l-0.2,0.1C78.4,52.3,78.6,52.4,78.7,51.8z"/>
							<path fill="#202020" d="M86.6,33.5c0.2-0.1,0.5-0.6,0.7-0.9C87,33,86.7,33.3,86.6,33.5z"/>
							<polygon fill="#202020" points="59.3,40.8 59.3,40.4 59.2,41.1 							"/>
						</g>
					</g>
				</g>
			</g>
		</g>
		<g>
			<g>
				<g>
					<g>
						<g>
							<path fill="#202020" d="M70.6,23.7c0-0.1-0.1-0.1-0.2,0l0.1,0.2L70.6,23.7z"/>
							<path fill="#202020" d="M69.9,24.3c0,0.2,0.1,0.4,0.3,0.4c-0.1-0.2,0-0.2-0.1-0.5c0-0.1,0.2-0.2,0.2-0.1
								c0-0.1,0.1-0.2,0.1-0.3c-0.2,0.1-0.3,0.3-0.3,0.5C69.9,24.4,69.9,24.3,69.9,24.3z"/>
							<path fill="#202020" d="M65.5,36.3L65.5,36.3C65.5,36.3,65.5,36.3,65.5,36.3z"/>
							<path fill="#202020" d="M63.4,44C63.4,43.9,63.4,43.9,63.4,44C63.4,43.9,63.4,44,63.4,44z"/>
							<path fill="#202020" d="M62.8,45.2C62.8,45.2,62.9,45.2,62.8,45.2C62.8,45.2,62.8,45.2,62.8,45.2z"/>
							<path fill="#202020" d="M65.5,36.3l-0.1,0.2C65.5,36.5,65.5,36.4,65.5,36.3z"/>
							<path fill="#202020" d="M69.5,26.1c0,0,0-0.1,0-0.1L69.5,26.1L69.5,26.1z"/>
							<path fill="#202020" d="M66.3,32.9L66.3,32.9c0-0.1,0-0.1,0-0.1L66.3,32.9z"/>
							<path fill="#202020" d="M67,30.3c0,0.1,0.1,0.1,0.2,0.2c-0.1-0.1-0.1-0.1-0.1-0.2C67.1,30.3,67,30.3,67,30.3z"/>
							<path fill="#202020" d="M68.7,26.4L68.7,26.4C68.7,26.3,68.7,26.4,68.7,26.4z"/>
							<path fill="#202020" d="M65.7,34.8C65.7,34.8,65.7,34.8,65.7,34.8C65.7,34.8,65.7,34.8,65.7,34.8z"/>
							<path fill="#202020" d="M28.7,95.3C28.6,95.3,28.6,95.3,28.7,95.3C28.6,95.4,28.6,95.4,28.7,95.3z"/>
							<path fill="#202020" d="M27.3,98.2L27.3,98.2C27.2,98.2,27.2,98.2,27.3,98.2L27.3,98.2z"/>
							<path fill="#202020" d="M62,47.6C62,47.5,62,47.5,62,47.6C62,47.5,62,47.5,62,47.6z"/>
							<path fill="#202020" d="M49.7,64.2c0.3,0-0.3,0.4,0.2,0.3C49.8,64.5,50,64.1,49.7,64.2z"/>
							<path fill="#202020" d="M69.5,26.1L69.5,26.1C69.5,26.2,69.5,26.2,69.5,26.1z"/>
							<path fill="#202020" d="M49.9,64.5L49.9,64.5L49.9,64.5C49.9,64.5,49.9,64.5,49.9,64.5z"/>
							<path fill="#202020" d="M60.6,53.1C60.7,53.1,60.7,53.1,60.6,53.1C60.7,53.1,60.7,53.1,60.6,53.1z"/>
							<path fill="#202020" d="M61.9,49L61.9,49C61.9,49.1,61.9,49.1,61.9,49z"/>
							<path fill="#202020" d="M60.3,55.3c0,0.1-0.1,0.1-0.1,0.1l0,0C60.3,55.4,60.3,55.3,60.3,55.3z"/>
							<path fill="#202020" d="M59.7,57.5C59.7,57.5,59.7,57.4,59.7,57.5L59.7,57.5L59.7,57.5z"/>
							<path fill="#202020" d="M30.3,88.6c-0.1,0-0.1,0-0.2,0.1C30.2,88.7,30.1,89,30.3,88.6z"/>
							<path fill="#202020" d="M69.5,26.1C69.5,26.1,69.5,26.1,69.5,26.1L69.5,26.1C69.5,26.1,69.5,26,69.5,26.1z"/>
							<path fill="#202020" d="M61.5,55.7L61.4,56C61.4,56,61.5,55.8,61.5,55.7z"/>
							<path fill="#202020" d="M39.1,75.6L39.1,75.6C39.1,75.7,39.1,75.6,39.1,75.6z"/>
							<path fill="#202020" d="M61.1,57.1c-0.1,0-0.1,0.1-0.2,0.2c0,0,0,0,0,0.1L61.1,57.1z"/>
							<path fill="#202020" d="M30.1,88.7L30.1,88.7L30.1,88.7z"/>
							<path fill="#202020" d="M29.8,91.1c0.1-0.3-0.2-0.2-0.3-0.3c0.1-0.4,0.2-0.1,0.3-0.2c0-0.3-0.1-0.5-0.1-0.7c0,0,0.1,0,0.1,0
								c-0.1-0.3,0.2-0.8,0.1-1.1c0,0,0,0,0.1,0c-0.1,0-0.2,0-0.3,0c0-0.1,0-0.3,0.1-0.3c0,0.1,0,0.1,0,0.2l0-0.2
								c0.2-0.1,0,0.2,0.1,0.3c0-0.3,0-0.7,0.1-0.9c0.2,0-0.1,0.6,0.1,0.3l-0.2,0.3c0.4-0.2-0.1,0.2,0.3,0.1c0.2-0.4,0.1-0.5,0.3-1
								c-0.1-0.1-0.2,0-0.2-0.2c0-0.7,0.6-0.3,0.6-0.9c-0.1-0.2-0.3-0.3,0-0.6l0.2,0.2c0.2-0.4-0.2-0.4,0.1-0.8c0,0.1-0.1,0.4,0,0.3
								c0.3-0.2,0-0.3,0.1-0.5l0.2,0c0.2-0.5,0.3-1,0.5-1.5c0,0.1,0,0.2,0.2,0.1c0.2-0.7,0.7-1.3,1.2-1.8l0-0.3c0,0,0.1,0,0.1,0
								c0.2-0.2-0.1-0.1-0.1-0.2c0.1-0.1,0.2-0.1,0.2,0c0.1-0.2,0.2-0.5,0.3-0.8c0.2-0.3,0.4-0.5,0.6-0.7l0,0.1
								c0.3-0.3,0-0.6,0.3-0.7l0,0.1c0.3-0.3,0.6-0.6,0.9-0.9c0.3-0.3,0.6-0.5,0.9-0.6c-0.1-0.3,0.7-0.5,0.5-0.8
								c0.5-0.2,0.4,0,1-0.4c0.1-0.1,0.1-0.3,0.2-0.5l0.1,0.1l0.1-0.3l0.3,0.1l0.1-0.2c-0.1,0-0.2,0-0.2,0c0.2-0.3,0.7-0.4,0.8-0.3
								l0.5-0.6c0,0.1-0.1,0.2-0.1,0.3c0.2-0.4,0.2,0.1,0.4-0.3c-0.1,0,0-0.1-0.1-0.1c0.2,0,0.6-0.3,0.8-0.6l0,0.1
								c0.5-0.4,0.9-0.9,1.3-1.5c-0.2,0.1-0.3,0-0.2-0.2l0.2,0.1c0-0.2-0.2,0.1-0.1-0.2c0.2-0.2,0.3,0,0.2,0.2l0.1-0.3
								c0.1,0,0,0.1,0.1,0.2c0-0.2,0.5-0.3,0.4-0.6l0.1,0c0.4-0.5,0.5-0.8,0.8-1.2c-0.1-0.1,0-0.2,0-0.4c0.3-0.3,0.6-0.5,0.9-0.8
								c0.2-0.3,0-0.2,0-0.3c0.1,0.1,0.4-0.2,0.3,0c0.4-0.4,0.5-0.5,0.9-1c-0.1,0-0.2,0-0.2,0c0.1-0.1,0.3-0.1,0.3-0.1l0,0
								c0.5-0.7,1.7-0.7,2-1.3l0,0l0.5-0.5c0.3-0.1-0.1,0.2,0.1,0.1c0.5-0.6,1-0.6,1.4-1c0.6,0.1,1.3-0.9,2-1l-0.1-0.1
								c0.1-0.2,0.2-0.1,0.3-0.1c-0.1-0.1-0.2,0-0.1-0.1c1.1-0.8,2.4-1.3,3.6-2c0.4-0.2,0-0.6,0.6-0.7l-0.1,0.3
								c0.8-0.7,1.7-1,2.5-1.8c0,0.1,0,0.1-0.1,0.2c0.3,0,0.7-0.5,0.6-0.6c0.1-0.1,0.1,0,0.2,0c0.3-0.1,0.3-0.6,0.5-0.7
								c0,0,0,0.1,0,0.1c0.1-0.2,0.4-0.7,0.2-0.6c0.3-0.4,0.2-0.8,0.4-1c-0.1-0.2,0.3-0.6,0-0.7c0.2,0.1,0.4-0.6,0.3-0.8
								c0.1,0.1,0.1-0.2,0.2-0.1c0.1-0.3,0.1-0.5-0.1-0.5c0.4-0.4,0-1,0.5-1.2c0.1-0.8,0.2-1.5,0.3-2.2c0.2,0.1-0.2,0.8,0.1,0.8
								c0.1-0.7,0-1.1,0.2-1.8c0.1-0.2,0.1,0.1,0.1,0.2c0.1-0.7,0.4-1.3,0.4-1.9c0,0,0,0.1,0,0.1c0-0.1,0.1-0.3,0-0.3l0,0.1
								c-0.2,0.1-0.2-0.5-0.3-0.6c0.3,0.3,0.2-0.6,0.6-0.1c0-0.1,0-0.2-0.1-0.2c0.1-0.1,0.1-0.1,0.2,0c0-0.4-0.1-0.3,0-0.7
								c0.1,0,0.1,0.1,0.1,0.2c-0.1-0.2-0.1-0.4,0-0.7c0,0,0.1,0,0.1,0.1c0.1-0.5,0-1,0.2-1.6c0.2,0.2,0.1-0.2,0.3-0.2l0-0.3
								L63.9,45c0.1-0.3,0-0.6,0.1-0.8l0,0.2l0.1-0.5L64,44.2c0-0.3-0.3,0-0.1-0.4c0,0.1,0.1-0.3,0.2-0.4l0,0c0-0.2-0.1-0.3,0-0.5
								c0.1,0,0.2,0.1,0.3,0.1c-0.1-0.2,0.1-0.7,0-0.9c0,0.1,0.1,0.1,0.2,0.1L64.5,42c0.1-0.1,0.1-0.1,0.2-0.1
								c0.1-0.4-0.3,0.1-0.1-0.4c0,0,0,0,0,0.1c0.2-0.4,0.1-0.9,0.3-1.3c0.2-0.1,0,0.4,0.2,0.3c0.1-0.6,0.1-1.3,0.3-1.9l-0.1,0.1
								c-0.3-0.2,0.3-0.4,0.2-0.7c0,0.1,0.1,0.1,0.1,0.1c0.2-0.4,0.1-0.9,0.2-1.5l0.1,0.1c0.1-0.2,0.2-0.6,0.3-0.9
								c-0.1-0.1,0-0.2-0.1-0.2c0.6-0.7,0.2-1.6,0.7-2.2c0,0.1,0,0.2,0,0.2l0.1-0.6c-0.1,0-0.1,0.1-0.2,0.2c-0.1-0.1-0.1-0.3,0-0.4
								c0,0.3,0.2,0.1,0.3,0c0,0-0.1,0-0.1,0c0.3-0.3-0.2-0.1,0-0.5l0.1,0c0-0.2,0-0.3,0-0.5c0.2,0,0,0.2,0.1,0.2
								c0.1-0.2-0.1-0.6,0.1-0.7c0,0.1,0,0.3,0,0.4c0.2-0.2,0.2-0.2,0.3-0.4l0,0l0.2-0.4l-0.1,0.1c-0.3-0.4,0.1-0.6,0-1.1
								c0.1,0.5,0.1,0.1,0.3,0.2c0.1-0.1,0.2-0.2,0.2-0.2c-0.1-0.2,0.2-0.3,0.1-0.6c0.1,0,0.1-0.2,0.2-0.1c0-0.3-0.1,0-0.2,0
								c-0.1-0.4,0.5-0.8,0.5-1.4c0.1-0.5-0.1-0.7,0-1.1c0.1-0.1,0.1,0.2,0.1,0.2c0.2-0.2,0.2-0.4,0.3-0.6c0,0.1,0.1,0,0.2,0
								c0.1-0.2-0.1-0.2,0-0.4c0,0.1,0.1,0.2,0.1,0.3c0-0.2,0-0.5,0.1-0.7c0.1,0,0.1,0.2,0.1,0.3c0.1-0.3,0.2-0.6,0.1-0.8l-0.1,0.1
								c0-0.1,0.1,0,0.1,0.1c0,0.3-0.2,0.3-0.2,0.3l0-0.2c-0.4,0-0.2,0.6-0.4,0.9l-0.2-0.2l0,0.4c-0.1,0-0.2,0-0.2-0.1
								c-0.2,0.2,0,0.2-0.2,0.4c0,0,0,0,0,0l0,0.2c0-0.1-0.2,0-0.1-0.1c-0.3,0.3-0.1,0.7-0.3,0.8l0,0c-0.1,0.6,0.1,0.1,0.2,0.6
								l-0.5,0.1l0.1,0.1c0,0.1-0.1,0.2-0.1,0.1c0,0.3,0.1,0,0.1,0.2c-0.3,0.2-0.2,0.8-0.5,0.8c0.1,0.1,0.2-0.2,0.2,0.1
								c-0.3,0-0.1,0.4-0.3,0.6c-0.1-0.1,0-0.3-0.2-0.1c0.2,0.2-0.2,0.5-0.2,0.7c0.2,0.1-0.1,0.5-0.1,0.9c-0.1,0-0.3,0.6-0.5,1l0,0
								c0.2,0.1,0,0.5,0,0.7c-0.1,0-0.2-0.1-0.2-0.3l-0.1,0.2c0,0.1,0.1,0.2,0,0.3l-0.1-0.1c-0.1,0.3,0,0.7-0.2,1.1
								c0.1,0.1,0.5-0.2,0.5,0.2c-0.1,0-0.2,0-0.2-0.1c0,0,0,0.1,0,0.2l-0.1-0.2c-0.1,0.2,0.1,0.1,0,0.3c-0.1,0-0.1,0.1-0.2,0
								c0,0,0.1-0.1,0.1-0.2c-0.1,0.2-0.2,0.3-0.3,0.4c0.1,0,0.1,0,0.1,0.2c-0.1,0.3-0.2,0.1-0.3,0.2c0.1,0.1-0.1,0.3,0.1,0.3
								c0,0.1-0.1,0.1-0.2,0.1c0,0.2-0.2,0.8,0,0.6l0,0l0,0l0,0l0,0c0,0.6-0.4,1.1-0.5,1.6l-0.1,0c0,0.3-0.2,0.7-0.1,1
								c0,0.1-0.2,0.2-0.2,0.1c0,0.3,0,0.3-0.2,0.6c0-0.3-0.1,0.1,0-0.3c-0.1,0.3-0.2,0.4-0.2,0.7c-0.1-0.2-0.2,0.2-0.2,0.4l0.2-0.2
								c0,0.2-0.1,0.3-0.1,0.5l-0.2-0.1c-0.4,0.6,0.1,1.3-0.4,1.7c0.1,0.2,0.2-0.3,0.3-0.1c-0.1,0.3-0.5,0.5-0.5,0.6
								c-0.2,0.4,0.2,0.5,0,0.9c0.1,0,0.3,0,0.2,0.3c-0.1,0.3-0.4,0.3-0.4,0.1c0-0.1,0-0.1,0.1-0.1c0-0.1,0-0.2-0.1-0.1l0.1,0.1
								c-0.1,0.1-0.2,0.5-0.3,0.4c0,0.2,0.1,0.1,0.2,0c-0.2,0.4-0.2,0.6-0.3,1c0.1-0.1,0.1-0.1,0.1,0c-0.2,0.6,0.1,0.3,0,0.7
								c-0.2,0.2-0.2-0.1-0.2,0.3c-0.1,0.2-0.2,0-0.2-0.1c0,0.4-0.3,0.6-0.3,0.8l0-0.2c0,0.1,0,0.2,0,0.3l0.2-0.1
								c-0.1,0.1-0.1,0.2-0.1,0.2c0.1,0.1,0.2,0,0.3,0.2c-0.1,0.1,0,0.5-0.2,0.5c0.2-0.4-0.2,0-0.1-0.4c0,0.1,0,0.2-0.1,0.3
								c0,0,0,0,0-0.1c-0.3,0.4,0.1,0.3,0,0.7c-0.1-0.1-0.2,0.1-0.2,0.1c0.1-0.2,0.2,0,0.2,0.1c-0.2,0.3,0,0.3-0.1,0.5l0.1-0.2
								c0.1,0.1,0,0.2,0,0.4c-0.1,0,0-0.2-0.1-0.1c0.1,0.3-0.3,0.5-0.3,0.8c-0.1,0.1-0.2,0-0.3,0.1c0,0.4-0.2,0.4-0.2,0.8
								c0.2-0.1,0.1-0.1,0.2,0.2l0.1-0.6l0.1,0.4c0.1-0.2,0-0.4,0.1-0.5c0.1,0.2,0,0.2,0.2,0.1c-0.3,0.2,0,0.5-0.2,0.8l-0.3-0.1
								c-0.3,0.4,0,0.8-0.3,1.4l0.1-0.2c0.1,0.1-0.1,0.4-0.1,0.6c-0.1,0-0.2,0.1-0.3,0.1c0.1,0-0.1,0.4,0.1,0.5l-0.2,0.2
								c-0.2,0.4,0.2,0.6,0,1.1c-0.1-0.2-0.2,0-0.2-0.3c0,0.1-0.1,0.3,0,0.3c-0.1,0.1,0,0.5-0.1,0.6c0,0.1,0.1,0.1,0.1,0.3
								c0,0-0.1,0-0.1,0c0.1,0,0,0.3,0.2,0.2c-0.5,0.4-0.3,1.3-0.7,1.6c-0.1,0.3-0.2,0.7-0.3,0.9c0,0,0,0,0-0.1
								c-0.3,0.2,0.1,0.4-0.3,0.6c-0.3,0,0.1-0.2,0-0.2c-0.3-0.2-0.4,0.4-0.8,0.4l0-0.1c-0.3,0-0.4,0.4-0.8,0.6c0,0,0,0,0,0
								c-0.1,0.3-0.5,0.6-0.9,0.9c0-0.2,0.1-0.2,0-0.2c-0.1,0.1,0.2,0.2-0.1,0.4c-0.1,0-0.4,0.1-0.5-0.1l0.3-0.2
								c-0.3-0.1-0.4,0.2-0.5,0.3l0-0.1c-0.4,0.3-0.3,0.5-0.8,0.8l0.1,0c-0.1,0.3-0.3,0-0.4,0.3l-0.2-0.1c-0.1,0.1-0.5,0.5-0.7,0.8
								c0.1-0.2,0.4-0.5,0.5-0.8c-0.2,0.1-0.6,0.4-0.6,0.5c0.1-0.1,0.1-0.2,0.2-0.2c-0.1,0.3-0.3,0.5-0.7,0.7
								c-0.2-0.4-0.9,0.4-1.3,0.3c-0.5,0.5-1.2,0.7-1.9,1.1c0.4,0.1-0.2,0.1,0,0.4c-0.1,0.1-0.2,0.1-0.2,0.1l-0.6,0.1
								c-0.2,0,0.1-0.2,0-0.2c-0.4,0.2-0.2,0-0.5,0c0.1,0.1,0,0.2-0.2,0.3l0.4,0c-0.4,0.5-0.6,0-1,0.5l0.1-0.2c-0.2,0.2-0.9,0.6-1,1
								c-0.1,0-0.2,0-0.1-0.1c-0.6,0.4-1.1,1.2-1.6,1.4l0-0.1c-0.1,0.1-0.1,0.3-0.3,0.3c0,0,0-0.1-0.1-0.1c0,0.1-0.2,0.4-0.3,0.4
								l0-0.2c-0.6,0.4-0.6,0.9-1,1.4c-0.2-0.2-0.6,0.2-0.8,0.4l0,0c-0.5,0.6-0.6,1.2-1,1.9c-0.5,0.2-1,1.1-1.7,1.4
								c0.1,0,0.1,0.2,0,0.3c-0.2,0.1-0.2,0.4-0.4,0.2l0,0c-0.2-0.1-0.5,0.2-0.7,0.3l0.2,0.3c-0.8,0.1-1.4,1.3-1.9,1.2
								c-0.1,0.2-0.3,0.3-0.4,0.5l-0.1-0.1c-0.4,0.3-0.6,0.4-1.1,0.8l0-0.2c-0.3,0.2,0,0.7-0.2,0.9l-0.2-0.1c-0.4,0.4-1,0.7-1.3,1.3
								c0,0-0.1-0.1,0-0.2c-0.2,0.2-0.9,0.7-0.5,0.9c-0.2-0.1-0.4,0.5-0.5,0.8l-0.1-0.1c0,0.3,0,0.4-0.1,0.7c-0.1,0.1-0.2,0,0-0.1
								c-0.2,0.2,0,0.3-0.3,0.5l0-0.2c-0.2,0.2-0.1,0.3-0.1,0.5c-0.1,0.2-0.3,0.5-0.5,0.4c0.1,0.1,0.1,0.3-0.1,0.4
								c-0.1,0-0.1-0.1-0.1-0.1c-0.4,0.4-0.2,0.8-0.5,1c-0.1,0-0.1,0-0.1,0c0.2-0.4,0.4-0.7,0.4-0.6c-0.1-0.1-0.3,0.2-0.4-0.1
								c0,0.3,0,0.8-0.2,1.1c0,0,0,0-0.1,0l0,0c0,0.1-0.1,0.1-0.1,0.2c-0.1,0.1-0.1,0.1-0.2,0.2c-0.1,0-0.2,0.3-0.3,0.5
								c0.2,0.1,0,0.2,0.2,0.1c0,0,0,0,0-0.1c0,0,0-0.1,0-0.1l0,0c0-0.1,0.1-0.2,0.2-0.4c0,0.2,0,0.3-0.1,0.4
								c0.1,0.1,0.1,0.3,0.1,0.3c-0.3,0.1-0.6,0.5-0.7,0.5c-0.1,0.5-0.4,1.1-0.2,1.5c0,0.1-0.1,0.1-0.2,0.2c0-0.1,0-0.2,0-0.2
								c0,0.3-0.3,0.8-0.1,0.9c-0.2,0.3-0.1-0.3-0.2,0.2l0-0.1c-0.6,0.8,0,1.7-0.7,2.6c0-0.1,0.1-0.1,0.1-0.1
								c-0.5,1.1-0.5,2.5-1,3.6c-0.1,0.3,0,0.4,0,0.6l-0.2,0l0.1,0.4c0,0.5-0.6,0.8-0.5,1.5l0.1-0.1c-0.1,0.2-0.1,0.7-0.2,0.7
								c0,0,0.1,0.1,0,0.2l-0.1,0l0,0.6c-0.1,0.4-0.3-0.1-0.5,0.5c0,0.2,0.1,0.7,0.2,0.6c0-0.1,0.1-0.2,0.2-0.2l0,0.2
								c0.3,0.1,0.5,0.3,0.8-0.2L28,97.6l0.1-0.1l0,0.3c0.2-0.2,0.1-0.3,0-0.4c0.1,0,0.1-0.1,0.2-0.1l-0.2-0.4c0.1,0,0.2,0.2,0.3,0
								c-0.1-0.2-0.3,0.1-0.3-0.2c0.2-0.2,0.2-0.1,0.2-0.3c0.1,0,0.1,0,0.1,0.1c0-0.2,0.1-0.5-0.1-0.6c0.2-0.2,0.1-0.6,0.3-0.5
								c0-0.1-0.1-0.4-0.1-0.5c0.2,0.4,0.1-0.6,0.4-0.5c-0.2-0.3,0.1-0.8,0-1.3c0,0,0,0.1,0,0.1c0.1-0.2,0.2-0.3,0.2-0.4
								c-0.2-0.1-0.2-0.4-0.3-0.7c0.3-0.2,0.2,0.2,0.4,0.2c-0.2,0-0.1-0.5-0.2-0.5c0.2-0.2,0.1-0.2,0.3-0.2c-0.3-0.1,0-0.2-0.1-0.4
								c0.2-0.3,0.3,0,0.3-0.4C29.8,90.8,29.8,91.1,29.8,91.1z M32.1,83.4L32.1,83.4c0,0.1,0,0.1-0.1,0.2C32,83.5,32,83.5,32.1,83.4
								z M32.4,82.8c0,0.1-0.1,0.2-0.1,0.3c-0.1,0-0.1-0.1-0.1-0.1C32.2,83,32.3,82.9,32.4,82.8z M30.7,83.6c0-0.1,0.1-0.1,0.1-0.1
								C30.8,83.5,30.8,83.6,30.7,83.6L30.7,83.6C30.7,83.7,30.7,83.6,30.7,83.6z"/>
							<path fill="#202020" d="M30.8,83.9C30.8,83.9,30.8,83.9,30.8,83.9C30.8,83.9,30.9,83.9,30.8,83.9L30.8,83.9L30.8,83.9z"/>
							<path fill="#202020" d="M65.6,36.2L65.6,36.2C65.6,36.2,65.6,36.2,65.6,36.2C65.6,36.2,65.6,36.2,65.6,36.2z"/>
							<polygon fill="#202020" points="38.5,76.1 38.5,76.1 38.5,76.2 							"/>
							<path fill="#202020" d="M67.1,32.8C67.1,32.8,67.1,32.7,67.1,32.8C67.1,32.7,67.1,32.7,67.1,32.8z"/>
							<path fill="#202020" d="M67.6,31.2l0.1-0.2C67.6,31.1,67.6,31.2,67.6,31.2z"/>
							<path fill="#202020" d="M68,30C68,30,68,30,68,30L68,30L68,30z"/>
							<path fill="#202020" d="M63,49.2C63,49.3,63,49.3,63,49.2C63,49.4,63,49.3,63,49.2z"/>
							<path fill="#202020" d="M64.2,43.4c0,0.1,0,0.1,0,0.2C64.2,43.5,64.2,43.5,64.2,43.4z"/>
							<polygon fill="#202020" points="61.5,55.7 61.5,55.7 61.5,55.7 							"/>
							<path fill="#202020" d="M64.1,43.9c0.1-0.1,0.1-0.2,0.1-0.3C64.2,43.7,64.1,43.8,64.1,43.9z"/>
							<path fill="#202020" d="M70,25.1L70,25.1C70,25.1,70,25,70,25.1L70,25.1z"/>
							<path fill="#202020" d="M70,25L70,25C70,25,70,25,70,25z"/>
							<path fill="#202020" d="M70.1,24.8l0,0.1C70.1,24.9,70.1,24.9,70.1,24.8z"/>
							<path fill="#202020" d="M69.3,26.6L69.3,26.6C69.3,26.6,69.3,26.6,69.3,26.6z"/>
							<path fill="#202020" d="M69.1,27c0.1-0.1,0.2-0.2,0.3-0.4l0,0C69.4,26.7,69,26.9,69.1,27z"/>
							<path fill="#202020" d="M67.7,28.7l0.2-0.4c-0.1,0-0.2,0.1-0.1-0.1C67.4,28.7,67.9,28.2,67.7,28.7z"/>
							<path fill="#202020" d="M67.2,29.9c0-0.2-0.1,0-0.1,0C67.1,30.1,67.1,30.1,67.2,29.9z"/>
							<path fill="#202020" d="M64.7,39.1L64.5,39C64.5,39.2,64.6,39,64.7,39.1z"/>
							<polygon fill="#202020" points="65,41 65.1,40.8 65,40.7 							"/>
							<polygon fill="#202020" points="63.7,41.8 63.7,41.7 63.6,42 							"/>
							<path fill="#202020" d="M59.7,57.1l0.2,0C59.9,56.9,59.7,56.9,59.7,57.1z"/>
							<path fill="#202020" d="M55,61.2c-0.1,0-0.3,0-0.4,0.2C54.8,61.3,55,61.3,55,61.2z"/>
							<polygon fill="#202020" points="39.1,73.9 39.2,73.8 39,74 							"/>
						</g>
					</g>
				</g>
			</g>
		</g>
		<g>
			<g>
				<g>
					<g>
						<g>
							<path fill="#202020" d="M74.6,27.7c0-0.1-0.1-0.1-0.2,0l0.1,0.2L74.6,27.7z"/>
							<path fill="#202020" d="M73.9,28.3c0,0.2,0.1,0.4,0.3,0.4c-0.1-0.2,0-0.2-0.1-0.5c0-0.1,0.2-0.2,0.2-0.1
								c0-0.1,0.1-0.2,0.1-0.3c-0.2,0.1-0.3,0.3-0.3,0.5C73.9,28.4,73.9,28.3,73.9,28.3z"/>
							<path fill="#202020" d="M69.5,40.3L69.5,40.3C69.5,40.3,69.5,40.3,69.5,40.3z"/>
							<path fill="#202020" d="M67.4,48C67.4,47.9,67.4,47.9,67.4,48C67.4,47.9,67.4,48,67.4,48z"/>
							<path fill="#202020" d="M66.8,49.2C66.8,49.2,66.9,49.2,66.8,49.2C66.8,49.2,66.8,49.2,66.8,49.2z"/>
							<path fill="#202020" d="M69.5,40.3l-0.1,0.2C69.5,40.5,69.5,40.4,69.5,40.3z"/>
							<path fill="#202020" d="M73.5,30.1c0,0,0-0.1,0-0.1L73.5,30.1L73.5,30.1z"/>
							<path fill="#202020" d="M70.3,36.9L70.3,36.9c0-0.1,0-0.1,0-0.1L70.3,36.9z"/>
							<path fill="#202020" d="M71,34.3c0,0.1,0.1,0.1,0.2,0.2c-0.1-0.1-0.1-0.1-0.1-0.2C71.1,34.3,71,34.3,71,34.3z"/>
							<path fill="#202020" d="M72.7,30.4L72.7,30.4C72.7,30.3,72.7,30.4,72.7,30.4z"/>
							<path fill="#202020" d="M69.7,38.8C69.7,38.8,69.7,38.8,69.7,38.8C69.7,38.8,69.7,38.8,69.7,38.8z"/>
							<path fill="#202020" d="M32.7,99.3C32.6,99.3,32.6,99.3,32.7,99.3C32.6,99.4,32.6,99.4,32.7,99.3z"/>
							<path fill="#202020" d="M31.3,102.2L31.3,102.2C31.2,102.2,31.2,102.2,31.3,102.2L31.3,102.2z"/>
							<path fill="#202020" d="M66,51.6C66,51.5,66,51.5,66,51.6C66,51.5,66,51.5,66,51.6z"/>
							<path fill="#202020" d="M53.7,68.2c0.3,0-0.3,0.4,0.2,0.3C53.8,68.5,54,68.1,53.7,68.2z"/>
							<path fill="#202020" d="M73.5,30.1L73.5,30.1C73.5,30.2,73.5,30.2,73.5,30.1z"/>
							<path fill="#202020" d="M53.9,68.5L53.9,68.5L53.9,68.5C53.9,68.5,53.9,68.5,53.9,68.5z"/>
							<path fill="#202020" d="M64.6,57.1C64.7,57.1,64.7,57.1,64.6,57.1C64.7,57.1,64.7,57.1,64.6,57.1z"/>
							<path fill="#202020" d="M65.9,53L65.9,53C65.9,53.1,65.9,53.1,65.9,53z"/>
							<path fill="#202020" d="M64.3,59.3c0,0.1-0.1,0.1-0.1,0.1l0,0C64.3,59.4,64.3,59.3,64.3,59.3z"/>
							<path fill="#202020" d="M63.7,61.5C63.7,61.5,63.7,61.4,63.7,61.5L63.7,61.5L63.7,61.5z"/>
							<path fill="#202020" d="M34.3,92.6c-0.1,0-0.1,0-0.2,0.1C34.2,92.7,34.1,93,34.3,92.6z"/>
							<path fill="#202020" d="M73.5,30.1C73.5,30.1,73.5,30.1,73.5,30.1L73.5,30.1C73.5,30.1,73.5,30,73.5,30.1z"/>
							<path fill="#202020" d="M65.5,59.7L65.4,60C65.4,60,65.5,59.8,65.5,59.7z"/>
							<path fill="#202020" d="M43.1,79.6L43.1,79.6C43.1,79.7,43.1,79.6,43.1,79.6z"/>
							<path fill="#202020" d="M65.1,61.1c-0.1,0-0.1,0.1-0.2,0.2c0,0,0,0,0,0.1L65.1,61.1z"/>
							<path fill="#202020" d="M34.1,92.7L34.1,92.7L34.1,92.7z"/>
							<path fill="#202020" d="M33.8,95.1c0.1-0.3-0.2-0.2-0.3-0.3c0.1-0.4,0.2-0.1,0.3-0.2c0-0.3-0.1-0.5-0.1-0.7c0,0,0.1,0,0.1,0
								c-0.1-0.3,0.2-0.8,0.1-1.1c0,0,0,0,0.1,0c-0.1,0-0.2,0-0.3,0c0-0.1,0-0.3,0.1-0.3c0,0.1,0,0.1,0,0.2l0-0.2
								c0.2-0.1,0,0.2,0.1,0.3c0-0.3,0-0.7,0.1-0.9c0.2,0-0.1,0.6,0.1,0.3l-0.2,0.3c0.4-0.2-0.1,0.2,0.3,0.1c0.2-0.4,0.1-0.5,0.3-1
								c-0.1-0.1-0.2,0-0.2-0.2c0-0.7,0.6-0.3,0.6-0.9c-0.1-0.2-0.3-0.3,0-0.6l0.2,0.2c0.2-0.4-0.2-0.4,0.1-0.8c0,0.1-0.1,0.4,0,0.3
								c0.3-0.2,0-0.3,0.1-0.5l0.2,0c0.2-0.5,0.3-1,0.5-1.5c0,0.1,0,0.2,0.2,0.1c0.2-0.7,0.7-1.3,1.2-1.8l0-0.3c0,0,0.1,0,0.1,0
								c0.2-0.2-0.1-0.1-0.1-0.2c0.1-0.1,0.2-0.1,0.2,0c0.1-0.2,0.2-0.5,0.3-0.8c0.2-0.3,0.4-0.5,0.6-0.7l0,0.1
								c0.3-0.3,0-0.6,0.3-0.7l0,0.1c0.3-0.3,0.6-0.6,0.9-0.9c0.3-0.3,0.6-0.5,0.9-0.6c-0.1-0.3,0.7-0.5,0.5-0.8
								c0.5-0.2,0.4,0,1-0.4c0.1-0.1,0.1-0.3,0.2-0.5l0.1,0.1l0.1-0.3l0.3,0.1l0.1-0.2c-0.1,0-0.2,0-0.2,0c0.2-0.3,0.7-0.4,0.8-0.3
								l0.5-0.6c0,0.1-0.1,0.2-0.1,0.3c0.2-0.4,0.2,0.1,0.4-0.3c-0.1,0,0-0.1-0.1-0.1c0.2,0,0.6-0.3,0.8-0.6l0,0.1
								c0.5-0.4,0.9-0.9,1.3-1.5c-0.2,0.1-0.3,0-0.2-0.2l0.2,0.1c0-0.2-0.2,0.1-0.1-0.2c0.2-0.2,0.3,0,0.2,0.2l0.1-0.3
								c0.1,0,0,0.1,0.1,0.2c0-0.2,0.5-0.3,0.4-0.6l0.1,0c0.4-0.5,0.5-0.8,0.8-1.2c-0.1-0.1,0-0.2,0-0.4c0.3-0.3,0.6-0.5,0.9-0.8
								c0.2-0.3,0-0.2,0-0.3c0.1,0.1,0.4-0.2,0.3,0c0.4-0.4,0.5-0.5,0.9-1c-0.1,0-0.2,0-0.2,0c0.1-0.1,0.3-0.1,0.3-0.1l0,0
								c0.5-0.7,1.7-0.7,2-1.3l0,0l0.5-0.5c0.3-0.1-0.1,0.2,0.1,0.1c0.5-0.6,1-0.6,1.4-1c0.6,0.1,1.3-0.9,2-1l-0.1-0.1
								c0.1-0.2,0.2-0.1,0.3-0.1c-0.1-0.1-0.2,0-0.1-0.1c1.1-0.8,2.4-1.3,3.6-2c0.4-0.2,0-0.6,0.6-0.7l-0.1,0.3
								c0.8-0.7,1.7-1,2.5-1.8c0,0.1,0,0.1-0.1,0.2c0.3,0,0.7-0.5,0.6-0.6c0.1-0.1,0.1,0,0.2,0c0.3-0.1,0.3-0.6,0.5-0.7
								c0,0,0,0.1,0,0.1c0.1-0.2,0.4-0.7,0.2-0.6c0.3-0.4,0.2-0.8,0.4-1c-0.1-0.2,0.3-0.6,0-0.7c0.2,0.1,0.4-0.6,0.3-0.8
								c0.1,0.1,0.1-0.2,0.2-0.1c0.1-0.3,0.1-0.5-0.1-0.5c0.4-0.4,0-1,0.5-1.2c0.1-0.8,0.2-1.5,0.3-2.2c0.2,0.1-0.2,0.8,0.1,0.8
								c0.1-0.7,0-1.1,0.2-1.8c0.1-0.2,0.1,0.1,0.1,0.2c0.1-0.7,0.4-1.3,0.4-1.9c0,0,0,0.1,0,0.1c0-0.1,0.1-0.3,0-0.3l0,0.1
								c-0.2,0.1-0.2-0.5-0.3-0.6c0.3,0.3,0.2-0.6,0.6-0.1c0-0.1,0-0.2-0.1-0.2c0.1-0.1,0.1-0.1,0.2,0c0-0.4-0.1-0.3,0-0.7
								c0.1,0,0.1,0.1,0.1,0.2c-0.1-0.2-0.1-0.4,0-0.7c0,0,0.1,0,0.1,0.1c0.1-0.5,0-1,0.2-1.6c0.2,0.2,0.1-0.2,0.3-0.2l0-0.3
								L67.9,49c0.1-0.3,0-0.6,0.1-0.8l0,0.2l0.1-0.5L68,48.2c0-0.3-0.3,0-0.1-0.4c0,0.1,0.1-0.3,0.2-0.4l0,0c0-0.2-0.1-0.3,0-0.5
								c0.1,0,0.2,0.1,0.3,0.1c-0.1-0.2,0.1-0.7,0-0.9c0,0.1,0.1,0.1,0.2,0.1L68.5,46c0.1-0.1,0.1-0.1,0.2-0.1
								c0.1-0.4-0.3,0.1-0.1-0.4c0,0,0,0,0,0.1c0.2-0.4,0.1-0.9,0.3-1.3c0.2-0.1,0,0.4,0.2,0.3c0.1-0.6,0.1-1.3,0.3-1.9l-0.1,0.1
								c-0.3-0.2,0.3-0.4,0.2-0.7c0,0.1,0.1,0.1,0.1,0.1c0.2-0.4,0.1-0.9,0.2-1.5l0.1,0.1c0.1-0.2,0.2-0.6,0.3-0.9
								c-0.1-0.1,0-0.2-0.1-0.2c0.6-0.7,0.2-1.6,0.7-2.2c0,0.1,0,0.2,0,0.2l0.1-0.6c-0.1,0-0.1,0.1-0.2,0.2c-0.1-0.1-0.1-0.3,0-0.4
								c0,0.3,0.2,0.1,0.3,0c0,0-0.1,0-0.1,0c0.3-0.3-0.2-0.1,0-0.5l0.1,0c0-0.2,0-0.3,0-0.5c0.2,0,0,0.2,0.1,0.2
								c0.1-0.2-0.1-0.6,0.1-0.7c0,0.1,0,0.3,0,0.4c0.2-0.2,0.2-0.2,0.3-0.4l0,0l0.2-0.4l-0.1,0.1c-0.3-0.4,0.1-0.6,0-1.1
								c0.1,0.5,0.1,0.1,0.3,0.2c0.1-0.1,0.2-0.2,0.2-0.2c-0.1-0.2,0.2-0.3,0.1-0.6c0.1,0,0.1-0.2,0.2-0.1c0-0.3-0.1,0-0.2,0
								c-0.1-0.4,0.5-0.8,0.5-1.4c0.1-0.5-0.1-0.7,0-1.1c0.1-0.1,0.1,0.2,0.1,0.2c0.2-0.2,0.2-0.4,0.3-0.6c0,0.1,0.1,0,0.2,0
								c0.1-0.2-0.1-0.2,0-0.4c0,0.1,0.1,0.2,0.1,0.3c0-0.2,0-0.5,0.1-0.7c0.1,0,0.1,0.2,0.1,0.3c0.1-0.3,0.2-0.6,0.1-0.8l-0.1,0.1
								c0-0.1,0.1,0,0.1,0.1c0,0.3-0.2,0.3-0.2,0.3l0-0.2c-0.4,0-0.2,0.6-0.4,0.9l-0.2-0.2l0,0.4c-0.1,0-0.2,0-0.2-0.1
								c-0.2,0.2,0,0.2-0.2,0.4c0,0,0,0,0,0l0,0.2c0-0.1-0.2,0-0.1-0.1c-0.3,0.3-0.1,0.7-0.3,0.8l0,0c-0.1,0.6,0.1,0.1,0.2,0.6
								l-0.5,0.1l0.1,0.1c0,0.1-0.1,0.2-0.1,0.1c0,0.3,0.1,0,0.1,0.2c-0.3,0.2-0.2,0.8-0.5,0.8c0.1,0.1,0.2-0.2,0.2,0.1
								c-0.3,0-0.1,0.4-0.3,0.6c-0.1-0.1,0-0.3-0.2-0.1c0.2,0.2-0.2,0.5-0.2,0.7c0.2,0.1-0.1,0.5-0.1,0.9c-0.1,0-0.3,0.6-0.5,1l0,0
								c0.2,0.1,0,0.5,0,0.7c-0.1,0-0.2-0.1-0.2-0.3l-0.1,0.2c0,0.1,0.1,0.2,0,0.3l-0.1-0.1c-0.1,0.3,0,0.7-0.2,1.1
								c0.1,0.1,0.5-0.2,0.5,0.2c-0.1,0-0.2,0-0.2-0.1c0,0,0,0.1,0,0.2l-0.1-0.2c-0.1,0.2,0.1,0.1,0,0.3c-0.1,0-0.1,0.1-0.2,0
								c0,0,0.1-0.1,0.1-0.2c-0.1,0.2-0.2,0.3-0.3,0.4c0.1,0,0.1,0,0.1,0.2c-0.1,0.3-0.2,0.1-0.3,0.2c0.1,0.1-0.1,0.3,0.1,0.3
								c0,0.1-0.1,0.1-0.2,0.1c0,0.2-0.2,0.8,0,0.6l0,0l0,0l0,0l0,0c0,0.6-0.4,1.1-0.5,1.6l-0.1,0c0,0.3-0.2,0.7-0.1,1
								c0,0.1-0.2,0.2-0.2,0.1c0,0.3,0,0.3-0.2,0.6c0-0.3-0.1,0.1,0-0.3c-0.1,0.3-0.2,0.4-0.2,0.7c-0.1-0.2-0.2,0.2-0.2,0.4l0.2-0.2
								c0,0.2-0.1,0.3-0.1,0.5l-0.2-0.1c-0.4,0.6,0.1,1.3-0.4,1.7c0.1,0.2,0.2-0.3,0.3-0.1c-0.1,0.3-0.5,0.5-0.5,0.6
								c-0.2,0.4,0.2,0.5,0,0.9c0.1,0,0.3,0,0.2,0.3c-0.1,0.3-0.4,0.3-0.4,0.1c0-0.1,0-0.1,0.1-0.1c0-0.1,0-0.2-0.1-0.1l0.1,0.1
								c-0.1,0.1-0.2,0.5-0.3,0.4c0,0.2,0.1,0.1,0.2,0c-0.2,0.4-0.2,0.6-0.3,1c0.1-0.1,0.1-0.1,0.1,0c-0.2,0.6,0.1,0.3,0,0.7
								c-0.2,0.2-0.2-0.1-0.2,0.3c-0.1,0.2-0.2,0-0.2-0.1c0,0.4-0.3,0.6-0.3,0.8l0-0.2c0,0.1,0,0.2,0,0.3l0.2-0.1
								c-0.1,0.1-0.1,0.2-0.1,0.2c0.1,0.1,0.2,0,0.3,0.2c-0.1,0.1,0,0.5-0.2,0.5c0.2-0.4-0.2,0-0.1-0.4c0,0.1,0,0.2-0.1,0.3
								c0,0,0,0,0-0.1c-0.3,0.4,0.1,0.3,0,0.7c-0.1-0.1-0.2,0.1-0.2,0.1c0.1-0.2,0.2,0,0.2,0.1c-0.2,0.3,0,0.3-0.1,0.5l0.1-0.2
								c0.1,0.1,0,0.2,0,0.4c-0.1,0,0-0.2-0.1-0.1c0.1,0.3-0.3,0.5-0.3,0.8c-0.1,0.1-0.2,0-0.3,0.1c0,0.4-0.2,0.4-0.2,0.8
								c0.2-0.1,0.1-0.1,0.2,0.2l0.1-0.6l0.1,0.4c0.1-0.2,0-0.4,0.1-0.5c0.1,0.2,0,0.2,0.2,0.1c-0.3,0.2,0,0.5-0.2,0.8l-0.3-0.1
								c-0.3,0.4,0,0.8-0.3,1.4l0.1-0.2c0.1,0.1-0.1,0.4-0.1,0.6c-0.1,0-0.2,0.1-0.3,0.1c0.1,0-0.1,0.4,0.1,0.5l-0.2,0.2
								c-0.2,0.4,0.2,0.6,0,1.1c-0.1-0.2-0.2,0-0.2-0.3c0,0.1-0.1,0.3,0,0.3c-0.1,0.1,0,0.5-0.1,0.6c0,0.1,0.1,0.1,0.1,0.3
								c0,0-0.1,0-0.1,0c0.1,0,0,0.3,0.2,0.2c-0.5,0.4-0.3,1.3-0.7,1.6c-0.1,0.3-0.2,0.7-0.3,0.9c0,0,0,0,0-0.1
								c-0.3,0.2,0.1,0.4-0.3,0.6c-0.3,0,0.1-0.2,0-0.2c-0.3-0.2-0.4,0.4-0.8,0.4l0-0.1c-0.3,0-0.4,0.4-0.8,0.6c0,0,0,0,0,0
								c-0.1,0.3-0.5,0.6-0.9,0.9c0-0.2,0.1-0.2,0-0.2c-0.1,0.1,0.2,0.2-0.1,0.4c-0.1,0-0.4,0.1-0.5-0.1l0.3-0.2
								c-0.3-0.1-0.4,0.2-0.5,0.3l0-0.1c-0.4,0.3-0.3,0.5-0.8,0.8l0.1,0c-0.1,0.3-0.3,0-0.4,0.3l-0.2-0.1c-0.1,0.1-0.5,0.5-0.7,0.8
								c0.1-0.2,0.4-0.5,0.5-0.8c-0.2,0.1-0.6,0.4-0.6,0.5c0.1-0.1,0.1-0.2,0.2-0.2c-0.1,0.3-0.3,0.5-0.7,0.7
								c-0.2-0.4-0.9,0.4-1.3,0.3c-0.5,0.5-1.2,0.7-1.9,1.1c0.4,0.1-0.2,0.1,0,0.4c-0.1,0.1-0.2,0.1-0.2,0.1l-0.6,0.1
								c-0.2,0,0.1-0.2,0-0.2c-0.4,0.2-0.2,0-0.5,0c0.1,0.1,0,0.2-0.2,0.3l0.4,0c-0.4,0.5-0.6,0-1,0.5l0.1-0.2c-0.2,0.2-0.9,0.6-1,1
								c-0.1,0-0.2,0-0.1-0.1c-0.6,0.4-1.1,1.2-1.6,1.4l0-0.1c-0.1,0.1-0.1,0.3-0.3,0.3c0,0,0-0.1-0.1-0.1c0,0.1-0.2,0.4-0.3,0.4
								l0-0.2c-0.6,0.4-0.6,0.9-1,1.4c-0.2-0.2-0.6,0.2-0.8,0.4l0,0c-0.5,0.6-0.6,1.2-1,1.9c-0.5,0.2-1,1.1-1.7,1.4
								c0.1,0,0.1,0.2,0,0.3c-0.2,0.1-0.2,0.4-0.4,0.2l0,0c-0.2-0.1-0.5,0.2-0.7,0.3l0.2,0.3c-0.8,0.1-1.4,1.3-1.9,1.2
								c-0.1,0.2-0.3,0.3-0.4,0.5l-0.1-0.1c-0.4,0.3-0.6,0.4-1.1,0.8l0-0.2c-0.3,0.2,0,0.7-0.2,0.9l-0.2-0.1c-0.4,0.4-1,0.7-1.3,1.3
								c0,0-0.1-0.1,0-0.2c-0.2,0.2-0.9,0.7-0.5,0.9c-0.2-0.1-0.4,0.5-0.5,0.8l-0.1-0.1c0,0.3,0,0.4-0.1,0.7c-0.1,0.1-0.2,0,0-0.1
								c-0.2,0.2,0,0.3-0.3,0.5l0-0.2c-0.2,0.2-0.1,0.3-0.1,0.5c-0.1,0.2-0.3,0.5-0.5,0.4c0.1,0.1,0.1,0.3-0.1,0.4
								c-0.1,0-0.1-0.1-0.1-0.1c-0.4,0.4-0.2,0.8-0.5,1c-0.1,0-0.1,0-0.1,0c0.2-0.4,0.4-0.7,0.4-0.6c-0.1-0.1-0.3,0.2-0.4-0.1
								c0,0.3,0,0.8-0.2,1.1c0,0,0,0-0.1,0l0,0c0,0.1-0.1,0.1-0.1,0.2c-0.1,0.1-0.1,0.1-0.2,0.2c-0.1,0-0.2,0.3-0.3,0.5
								c0.2,0.1,0,0.2,0.2,0.1c0,0,0,0,0-0.1c0,0,0-0.1,0-0.1l0,0c0-0.1,0.1-0.2,0.2-0.4c0,0.2,0,0.3-0.1,0.4
								c0.1,0.1,0.1,0.3,0.1,0.3c-0.3,0.1-0.6,0.5-0.7,0.5c-0.1,0.5-0.4,1.1-0.2,1.5c0,0.1-0.1,0.1-0.2,0.2c0-0.1,0-0.2,0-0.2
								c0,0.3-0.3,0.8-0.1,0.9c-0.2,0.3-0.1-0.3-0.2,0.2l0-0.1c-0.6,0.8,0,1.7-0.7,2.6c0-0.1,0.1-0.1,0.1-0.1
								c-0.5,1.1-0.5,2.5-1,3.6c-0.1,0.3,0,0.4,0,0.6l-0.2,0l0.1,0.4c0,0.5-0.6,0.8-0.5,1.5l0.1-0.1c-0.1,0.2-0.1,0.7-0.2,0.7
								c0,0,0.1,0.1,0,0.2l-0.1,0l0,0.6c-0.1,0.4-0.3-0.1-0.5,0.5c0,0.2,0.1,0.7,0.2,0.6c0-0.1,0.1-0.2,0.2-0.2l0,0.2
								c0.3,0.1,0.5,0.3,0.8-0.2l-0.1-0.4l0.1-0.1l0,0.3c0.2-0.2,0.1-0.3,0-0.4c0.1,0,0.1-0.1,0.2-0.1l-0.2-0.4c0.1,0,0.2,0.2,0.3,0
								c-0.1-0.2-0.3,0.1-0.3-0.2c0.2-0.2,0.2-0.1,0.2-0.3c0.1,0,0.1,0,0.1,0.1c0-0.2,0.1-0.5-0.1-0.6c0.2-0.2,0.1-0.6,0.3-0.5
								c0-0.1-0.1-0.4-0.1-0.5c0.2,0.4,0.1-0.6,0.4-0.5c-0.2-0.3,0.1-0.8,0-1.3c0,0,0,0.1,0,0.1c0.1-0.2,0.2-0.3,0.2-0.4
								c-0.2-0.1-0.2-0.4-0.3-0.7c0.3-0.2,0.2,0.2,0.4,0.2c-0.2,0-0.1-0.5-0.2-0.5c0.2-0.2,0.1-0.2,0.3-0.2c-0.3-0.1,0-0.2-0.1-0.4
								c0.2-0.3,0.3,0,0.3-0.4C33.8,94.8,33.8,95.1,33.8,95.1z M36.1,87.4L36.1,87.4c0,0.1,0,0.1-0.1,0.2C36,87.5,36,87.5,36.1,87.4
								z M36.4,86.8c0,0.1-0.1,0.2-0.1,0.3c-0.1,0-0.1-0.1-0.1-0.1C36.2,87,36.3,86.9,36.4,86.8z M34.7,87.6c0-0.1,0.1-0.1,0.1-0.1
								C34.8,87.5,34.8,87.6,34.7,87.6L34.7,87.6C34.7,87.7,34.7,87.6,34.7,87.6z"/>
							<path fill="#202020" d="M34.8,87.9C34.8,87.9,34.8,87.9,34.8,87.9C34.8,87.9,34.9,87.9,34.8,87.9L34.8,87.9L34.8,87.9z"/>
							<path fill="#202020" d="M69.6,40.2L69.6,40.2C69.6,40.2,69.6,40.2,69.6,40.2C69.6,40.2,69.6,40.2,69.6,40.2z"/>
							<polygon fill="#202020" points="42.5,80.1 42.5,80.1 42.5,80.2 							"/>
							<path fill="#202020" d="M71.1,36.8C71.1,36.8,71.1,36.7,71.1,36.8C71.1,36.7,71.1,36.7,71.1,36.8z"/>
							<path fill="#202020" d="M71.6,35.2l0.1-0.2C71.6,35.1,71.6,35.2,71.6,35.2z"/>
							<path fill="#202020" d="M72,34C72,34,72,34,72,34L72,34L72,34z"/>
							<path fill="#202020" d="M67,53.2C67,53.3,67,53.3,67,53.2C67,53.4,67,53.3,67,53.2z"/>
							<path fill="#202020" d="M68.2,47.4c0,0.1,0,0.1,0,0.2C68.2,47.5,68.2,47.5,68.2,47.4z"/>
							<polygon fill="#202020" points="65.5,59.7 65.5,59.7 65.5,59.7 							"/>
							<path fill="#202020" d="M68.1,47.9c0.1-0.1,0.1-0.2,0.1-0.3C68.2,47.7,68.1,47.8,68.1,47.9z"/>
							<path fill="#202020" d="M74,29.1L74,29.1C74,29.1,74,29,74,29.1L74,29.1z"/>
							<path fill="#202020" d="M74,29L74,29C74,29,74,29,74,29z"/>
							<path fill="#202020" d="M74.1,28.8l0,0.1C74.1,28.9,74.1,28.9,74.1,28.8z"/>
							<path fill="#202020" d="M73.3,30.6L73.3,30.6C73.3,30.6,73.3,30.6,73.3,30.6z"/>
							<path fill="#202020" d="M73.1,31c0.1-0.1,0.2-0.2,0.3-0.4l0,0C73.4,30.7,73,30.9,73.1,31z"/>
							<path fill="#202020" d="M71.7,32.7l0.2-0.4c-0.1,0-0.2,0.1-0.1-0.1C71.4,32.7,71.9,32.2,71.7,32.7z"/>
							<path fill="#202020" d="M71.2,33.9c0-0.2-0.1,0-0.1,0C71.1,34.1,71.1,34.1,71.2,33.9z"/>
							<path fill="#202020" d="M68.7,43.1L68.5,43C68.5,43.2,68.6,43,68.7,43.1z"/>
							<polygon fill="#202020" points="69,45 69.1,44.8 69,44.7 							"/>
							<polygon fill="#202020" points="67.7,45.8 67.7,45.7 67.6,46 							"/>
							<path fill="#202020" d="M63.7,61.1l0.2,0C63.9,60.9,63.7,60.9,63.7,61.1z"/>
							<path fill="#202020" d="M59,65.2c-0.1,0-0.3,0-0.4,0.2C58.8,65.3,59,65.3,59,65.2z"/>
							<polygon fill="#202020" points="43.1,77.9 43.2,77.8 43,78 							"/>
						</g>
					</g>
				</g>
			</g>
		</g>
	</g>
	<g>
		<g>
			<g>
				<g>
					<g>
						<g>
							<path fill="#202020" d="M49.6,116.1C49.5,116,49.5,116,49.6,116.1c-0.1,0-0.1,0.2-0.2,0.5c0,0-0.1,0.4-0.1,0.4
								c0,0,0.2-0.2,0.3-0.4C49.6,116.3,49.6,116.1,49.6,116.1z"/>
							<path fill="#202020" d="M48.3,117.6c0.5,0.3,0.8,0.4,0.8,0.2c-0.2,0-0.3-0.1-0.4-0.1c-0.1-0.1-0.3-0.1-0.5-0.3
								c-0.4-0.3,0.2-0.2,0.2-0.2c0,0,0,0,0,0c0.1,0,0.4-0.1,0.4-0.2c-0.2,0-0.4,0.1-0.7,0.1c-0.6-0.1,0,0.3,0.3,0.5
								C48.5,117.7,48.4,117.6,48.3,117.6z"/>
							<path fill="#202020" d="M77.5,122.2l-0.1,0.2C77.5,122.4,77.5,122.3,77.5,122.2z"/>
							<path fill="#202020" d="M85.9,100.6c-0.1,0.1-0.1,0.2-0.1,0.2C85.9,100.7,85.9,100.5,85.9,100.6z"/>
							<path fill="#202020" d="M88.6,97.8c-0.1,0.1-0.1,0.1-0.2,0.1C88.5,97.9,88.6,97.9,88.6,97.8z"/>
							<path fill="#202020" d="M77.5,122.2l0.3-0.6C77.8,121.6,77.7,121.9,77.5,122.2z"/>
							<path fill="#202020" d="M52.8,119.8c-0.1,0-0.2-0.1-0.3-0.1L52.8,119.8C52.8,119.8,52.8,119.8,52.8,119.8z"/>
							<path fill="#202020" d="M72,131l-0.2,0c-0.1,0-0.1,0-0.2,0.1C71.6,131,72,131,72,131z"/>
							<path fill="#202020" d="M65.1,126.8c0.1,0.1,0.3,0,0.4,0c-0.1,0-0.2-0.1-0.4-0.2C65.1,126.7,65.1,126.8,65.1,126.8z"/>
							<path fill="#202020" d="M54.3,121l-0.2,0C54.1,120.9,54.2,120.9,54.3,121z"/>
							<path fill="#202020" d="M75.8,126.5C75.8,126.5,75.9,126.5,75.8,126.5C75.9,126.5,75.8,126.5,75.8,126.5z"/>
							<path fill="#202020" d="M52.2,108.9C52.2,108.9,52.2,108.9,52.2,108.9C52.2,109,52.2,109,52.2,108.9z"/>
							<path fill="#202020" d="M49.1,117.5l0-0.1c0,0-0.1,0-0.1,0L49.1,117.5z"/>
							<path fill="#202020" d="M94.7,94.1C94.7,94.1,94.7,94.1,94.7,94.1C94.5,94.2,94.6,94.2,94.7,94.1z"/>
							<path fill="#202020" d="M118.6,41.5c0.5,0.6-1.1-0.6-0.3,0.2C118.3,41.6,119.3,42.1,118.6,41.5z"/>
							<path fill="#202020" d="M53,119.8l0.3,0.1C53.2,119.9,53.1,119.9,53,119.8z"/>
							<path fill="#202020" d="M118.3,41.7L118.3,41.7L118.3,41.7C118.4,41.8,118.4,41.8,118.3,41.7z"/>
							<path fill="#202020" d="M108.2,83.9c0,0-0.1,0.1-0.2,0.1C108,84,108.1,84,108.2,83.9z"/>
							<path fill="#202020" d="M98.4,91.9l0.3-0.1C98.5,91.8,98.4,91.8,98.4,91.9z"/>
							<path fill="#202020" d="M111.2,78c0.1-0.1,0.1-0.2,0.2-0.4c0,0,0,0,0,0.1C111.3,77.7,111.3,77.8,111.2,78z"/>
							<path fill="#202020" d="M113.9,71.8c0,0-0.1,0.1-0.1,0.1c0,0.1-0.1,0.1-0.1,0.2L113.9,71.8z"/>
							<path fill="#202020" d="M60.8,90.5c-0.1,0.1-0.2,0.1-0.3,0.2C60.7,90.7,60.2,91.5,60.8,90.5z"/>
							<path fill="#202020" d="M52.8,119.8c0.1,0,0.1,0,0.2,0C52.9,119.8,52.9,119.8,52.8,119.8C52.8,119.8,52.8,119.8,52.8,119.8z"
								/>
							<path fill="#202020" d="M110.1,77.2l0.5-1C110.5,76.5,110.3,76.9,110.1,77.2z"/>
							<path fill="#202020" d="M95.4,63.7L95.4,64C95.4,63.9,95.4,63.8,95.4,63.7z"/>
							<path fill="#202020" d="M111.8,73.3c0.1-0.2,0.2-0.3,0.3-0.5c0,0,0-0.1,0-0.1L111.8,73.3z"/>
							<path fill="#202020" d="M60.5,90.7L60.5,90.7L60.5,90.7z"/>
							<path fill="#202020" d="M57.4,97c0.5-0.9,0-0.5,0-0.8c0.5-1.1,0.4-0.4,0.7-0.7c0.3-0.7,0.4-1.3,0.7-1.8c0.1,0,0.1-0.1,0.1,0
								c0.2-0.8,1.2-2,1.5-2.9c0.1,0,0.1-0.1,0.1-0.1c-0.2,0.1-0.3,0-0.3,0c0.2-0.4,0.4-0.8,0.6-0.8c-0.2,0.2-0.1,0.3-0.2,0.4
								l0.2-0.4c0.4-0.2-0.3,0.6-0.2,0.7c0.5-0.8,1-1.8,1.4-2.3c0.2,0-0.9,1.4-0.2,0.7c0,0-0.2,0.2-0.4,0.4
								c-0.2,0.2-0.3,0.4-0.3,0.4c0.7-0.5-0.4,0.5,0.3,0.1c0.9-1.1,0.9-1.4,1.8-2.5c0.1-0.3-0.2,0-0.1-0.3c1.2-1.7,1.4-0.9,2.2-2.2
								c0.2-0.4,0.1-0.7,1-1.3L66.3,84c1-0.9,0.3-0.8,1.6-1.6c-0.1,0.2-0.8,0.8-0.6,0.6c0.8-0.5,0.4-0.5,1-1l0.2,0.1
								c1.1-0.9,2.4-2,3.8-2.8c-0.1,0.1-0.3,0.3,0.1,0.2c1.8-1.1,4-1.8,5.9-2.2l0.7-0.3c0.2,0,0.3,0,0.2,0.1c0.8-0.1,0-0.1,0.4-0.3
								c0.4-0.1,0.6,0,0.3,0.1c1.3-0.4,3.8-0.9,5.3-0.6l-0.3,0c1.1,0.1,1.3-0.3,2.3-0.1l-0.2,0c0.6,0.1,1.1,0.1,1.7,0.2l0.9,0.1
								c0.3,0,0.8,0,1.2-0.2c0.5-0.3,0.6-0.8,0.7-1.1c0.1-0.3,0.2-0.6,0.3-0.9c0.2-0.6,0.5-1.1,0.7-1.6c-0.1-0.4,0.9-2.3,0.6-2.6
								c0.6-1.3,0.5-0.9,1.3-2.8c0.2-0.5,0-0.8,0.2-1.5l0.2,0l0.1-0.9l0.3-0.4l0.1-0.6c-0.1,0.2-0.2,0.5-0.3,0.4
								c0.2-0.9,0.8-2.2,0.9-2.2l0.6-2.2c0.1,0.1,0,0.4-0.1,0.7c0.2-1.2,0.2-0.2,0.4-1.3c-0.1,0.1-0.1-0.1-0.1-0.1
								c0.3-0.5,0.7-1.7,0.9-2.6l0.1,0.2c0.6-1.6,1.1-3.4,1.7-5.2c-0.3,0.6-0.4,0.4-0.3-0.1l0.2-0.1c0-0.4-0.3,0.5-0.1-0.2
								c0.3-0.7,0.4-0.4,0.3,0l0.2-0.8c0.1,0,0,0.2,0.1,0.2c0-0.4,0.7-1.3,0.7-1.9l0.1,0c0.7-1.8,0.9-2.6,1.5-4
								c-0.1-0.1,0.1-0.6,0.2-1.1c0.5-1,1.1-2.1,1.7-3.3c0.4-0.9,0-0.3,0.1-0.7c0.2,0,0.8-1.2,0.6-0.5c0.8-1.4,1-1.8,2.2-3.5
								c-0.2,0.1-0.4,0.3-0.3,0.2c0.2-0.3,0.6-0.6,0.6-0.5l0,0c0.1-0.1,0.1-0.3,0.2-0.3l0.2,0.1l0.2,0.2c0.5,0.4,1,0.8,1.5,1.2
								c1,0.8,2,1.6,2.8,2l-0.1,0l1.7,1c0.7,0.5-0.5-0.2,0,0.2c1.8,1,2.7,1.9,4.2,2.8c0.8,1.1,3.9,2.7,5.2,4l0-0.1
								c0.4,0.2,0.4,0.4,0.7,0.6c0-0.1-0.4-0.4-0.1-0.2c0.8,0.5,1.6,1.1,1.9,1.8c0.3,0.7,0,1.5-0.4,2.3c-0.5,0.8-1.1,1.5-1.8,2.3
								c-0.7,0.8-1.3,1.6-1.9,2.4c-0.9,1.2-0.1,1-1.3,2.4l0.1-0.5c-1.5,2.6-3.3,5.2-4.4,7.9c0-0.2,0-0.2,0.1-0.5
								c-0.4,0.5-1,2.1-0.9,2.1c-0.2,0.4-0.1,0.1-0.3,0.3c-0.3,0.5-0.5,1.5-0.7,1.7c0,0,0-0.2,0.1-0.3c-0.1,0.4-0.8,1.7-0.5,1.4
								c-0.5,1-0.7,2-1.2,2.7c-0.1,0.6-0.8,1.7-0.6,2c-0.2-0.2-0.9,1.7-1.1,2.3c0-0.2-0.3,0.5-0.3,0.2c-0.3,0.7-0.6,1.4-0.4,1.3
								c-0.9,1.1-1.1,2.7-1.9,3.2c-1.1,2-2.3,3.7-3.8,5.2c-0.1-0.1,0.4-0.5,0.7-0.9c0.4-0.4,0.7-0.8,0.6-0.9
								c-1.2,1.5-1.9,2.4-3.5,3.5c-0.4,0.3,0.2-0.3,0.3-0.4c-1.5,1.2-3.2,2-4.7,3c0,0,0.1-0.1,0.3-0.2c-0.3,0.2-0.7,0.3-0.6,0.4
								l0.3-0.2c0.6-0.1-1.1,1-1.1,1.1c0.4-0.6-1.6,0.7-1-0.1c-0.2,0.1-0.4,0.3-0.3,0.4c-0.3,0.1-0.4,0.1-0.2-0.1
								c-1.1,0.6-0.6,0.5-1.6,1.1c0-0.1,0.2-0.2,0.2-0.3c-0.5,0.4-0.9,0.7-1.8,1.2c0-0.1-0.1,0,0.2-0.2c-1.4,0.9-2.3,1.8-3.7,2.9
								c0.2-0.5-0.5,0.3-0.7,0.3l-0.7,0.8L87,98c-0.6,0.6-1,1.3-1.5,1.9l0.3-0.6c0,0-0.2,0.3-0.5,0.7c-0.2,0.3-0.4,0.7-0.4,0.7
								s0.1-0.2,0.3-0.4c0.1-0.2,0.3-0.4,0.3-0.4c-0.4,0.8,0.3,0.1-0.4,1c0.1-0.2-0.4,0.7-0.8,1.1l0,0c-0.1,0.4-0.3,0.8-0.6,1.4
								c-0.1,0.1-0.2-0.2-0.3-0.1c0,0.5-0.7,1.9-0.7,2.5c0-0.2-0.1-0.2-0.1-0.2l0,0.4c-0.2,0.4-0.2,0.4-0.3,0.3
								c-0.4,1.1,0.4-0.3-0.2,1c0-0.1,0-0.1,0-0.3c-0.5,1.3-0.7,2.7-1.2,3.9c-0.3,0.3,0.3-1.1,0-0.7c-0.5,1.8-0.9,3.8-1.6,5.5
								l0.1-0.3c0.2,0.3-0.6,1.2-0.8,2.1c0.1-0.2-0.1-0.3,0-0.3c-0.5,1.1-0.8,2.4-1.5,4.2l0-0.2c-0.3,0.6-0.8,1.8-1.1,2.5
								c0,0.2-0.2,0.7,0,0.4c-0.7,1-1.1,2.1-1.6,3.1c-0.4,1-0.8,2.2-1.7,2.7c0.2-0.1,0.3-0.4,0.2-0.3c0,0-0.2,0.3-0.6,0.5
								c-0.3,0.2-0.7,0.2-0.7,0.2c0.1,0.1,0.2,0.1,0.6,0.1c-0.2,0.2-0.7,0.2-1.1,0.1c0.8,0.1,0-0.2-0.2-0.4c0,0.1-0.1,0.1-0.1,0.1
								c-0.7-0.6-0.3,0.2-1.3-0.6l0.1,0c-0.4-0.2-0.9-0.4-1.3-0.7c-0.1-0.3,0.5,0.2,0.6,0.1c-0.6-0.4-1.4-0.6-1.8-1.1
								c0.3,0.2,0.6,0.4,0.9,0.6c-0.5-0.6-0.6-0.6-1-0.9l0,0l-0.9-0.8l0.2,0.2c-1-0.3-1.5-1.1-2.7-1.7c1.1,0.5,0.2,0,0.4-0.1
								c-0.2-0.2-0.6-0.6-0.5-0.5c-0.6-0.2-0.8-0.7-1.6-1c0-0.1-0.5-0.4-0.4-0.4c-0.7-0.4,0.1,0.2,0,0.2c-1.1-0.5-2.4-1.6-4.2-1.9
								c-1.4-0.4-1.8-0.3-3.1-0.6c-0.4-0.2,0.4-0.1,0.4-0.1c-0.7-0.3-1.2-0.5-1.9-0.6c0.1,0,0-0.1-0.2-0.2c-0.5-0.2-0.4,0.1-1.1-0.3
								c0.1,0,0.3,0,0.6,0c-0.6-0.2-1.3-0.4-1.9-0.6c-0.1-0.2,0.4,0.1,0.7,0.1c-0.7-0.3-1.7-0.9-2-0.9l0.4,0.3
								c-0.2-0.2,0-0.2,0.1-0.1c0.6,0.2,0.8,0.5,0.8,0.6c0,0-0.1,0-0.2-0.1c-0.1,0-0.2-0.1-0.2-0.1c0.3,0.6,1.8,0.9,2.7,1.2
								l-0.5,0.1l1,0.2c0.2,0.1,0.3,0.3-0.2,0.2c0.6,0.3,0.6,0.1,1.2,0.4c0.1,0,0,0,0,0l0.7,0.1c-0.1,0,0.1,0.2-0.3,0
								c1.1,0.5,2,0.4,2.3,0.8l-0.1,0c1.6,0.5,0.2-0.1,1.5,0.1c0,0,0.2,0.2,0.3,0.4c0.2,0.2,0.3,0.4,0.3,0.4l0.2-0.1
								c0.2,0.1,0.5,0.2,0.4,0.3c0.6,0.2-0.1-0.1,0.3-0.1c0.7,0.5,2.1,1.1,2.1,1.4c0.3,0.1-0.6-0.5,0.2-0.1c0,0.4,0.9,0.5,1.4,1.1
								c-0.3,0-0.8-0.5-0.3,0.1c0.5,0.1,1.2,1,1.7,1.3c0.2-0.1,1.2,0.8,2.1,1.4c-0.1,0,1.6,1.3,2.5,1.9l0,0c0.3-0.1,1.2,0.6,2,0.6
								c0,0.1-0.2,0.2-0.7,0.1c0,0,0.8,0.2,0.8,0.2c0.2-0.1,0.5-0.1,1-0.3c0,0-0.2,0.2-0.2,0.2c0.6-0.2,1-0.6,1.3-1.1
								c0.3-0.5,0.6-1,0.9-1.5c-0.1-0.1-0.8,0.7-0.3-0.5c0.1,0,0.2,0,0.1,0.3c0-0.1,0.1-0.4,0.2-0.6l-0.1,0.5c0.3-0.5,0-0.3,0.2-0.7
								c0.1,0.1,0.2-0.3,0.3-0.2c0,0.1-0.2,0.3-0.3,0.5c0.2-0.5,0.6-1,0.7-1.1c-0.1,0-0.1-0.1,0-0.4c0.4-0.9,0.3-0.2,0.6-0.7
								c0-0.2,0.4-0.8,0.2-0.9c0.1-0.3,0.2-0.3,0.3-0.4c0.1-0.5,0.9-2.2,0.5-1.7l-0.1,0.1c0,0,0,0,0-0.1l0,0l0,0
								c0.5-1.6,1.4-3.1,1.9-4.7l0.1,0c0.3-0.9,0.7-2,0.8-2.7c0.1-0.3,0.3-0.6,0.3-0.5c0.2-0.7,0.2-0.8,0.6-1.8
								c-0.1,0.7,0.2-0.2-0.2,0.8c0.4-0.9,0.5-1.1,0.7-2.1c0,0.4,0.4-0.6,0.5-1.1l-0.3,0.6c0.1-0.5,0.3-0.9,0.4-1.4l0.1,0.3
								c0.8-1.8,0.6-3.5,1.5-4.8c0-0.5-0.4,1-0.4,0.5c0.3-0.8,0.9-1.6,1-1.9c0.6-1.1,0.2-1.2,0.9-2.2c-0.1,0.1-0.4,0.2,0.1-0.7
								c0.5-0.7,0.9-0.7,0.6-0.3c-0.1,0.2-0.2,0.3-0.2,0.2c-0.1,0.2-0.3,0.6-0.1,0.3l0-0.1c0.3-0.3,1-1.3,0.9-1
								c0.4-0.5,0.1-0.3-0.2,0.1c0.4-0.4,0.7-0.7,1-1.1c0.3-0.3,0.6-0.6,1.1-1c-0.2,0.1-0.3,0.2-0.2,0c1.4-1,0.5-0.6,1.4-1.3
								c0.6-0.3-0.1,0.3,0.9-0.4c0.6-0.3,0.2,0.1,0,0.3c0.8-0.7,1.7-1,2.3-1.3l-0.5,0.3c0.3-0.2,0.5-0.3,0.8-0.5l-0.4,0
								c0.3-0.1,0.5-0.3,0.6-0.2c0.3-0.2-0.3-0.1,0.2-0.5c0.4-0.2,1.2-0.7,1.4-0.6c-1.3,0.6,0.2,0.1-0.8,0.7
								c0.2-0.1,0.4-0.3,0.7-0.4c0.1,0,0,0.1-0.1,0.1c1.3-0.5,0.5-0.5,1.7-1.1c-0.1,0.2,0.4,0,0.6-0.1c-0.5,0.3-0.3,0,0.1-0.3
								c0.8-0.3,0.8-0.5,1.3-0.7l-0.5,0.2c0.1-0.2,0.5-0.4,1.1-0.7c0.1,0-0.5,0.3-0.3,0.2c0.5-0.5,1.5-0.6,2.3-1.2
								c0.4-0.2,0.1,0.1,0.5,0c0.9-0.7,1.1-0.6,2-1.3c-0.4,0.1-0.4,0.2,0.2-0.5c0,0-0.3,0.3-0.7,0.6c-0.4,0.3-0.8,0.6-0.8,0.6
								l0.9-0.9c-0.5,0.3-0.9,0.8-1.2,0.9c0.4-0.4,0.4-0.4,0.1-0.3c0.8-0.3,1.2-1,2-1.5l0.2,0.3c1.2-0.8,1.7-1.8,2.9-3.1l-0.4,0.4
								c0.1-0.3,0.7-0.9,1-1.4c0.1,0.1,0.3-0.2,0.5-0.3c-0.1,0,0.7-1.1,0.6-1.3l0.5-0.6c0.8-1.2,0.5-1.6,1.2-2.8
								c-0.1,0.4,0.3-0.1-0.1,0.8c0.2-0.4,0.4-0.8,0.3-0.8c0.2-0.2,0.4-1.2,0.7-1.5c0-0.2,0-0.3,0.2-0.8c0,0,0.1,0,0.1,0
								c-0.1,0,0.3-0.8,0-0.4c0.9-1.1,1.5-3.6,2.2-4.6c0.3-0.9,0.8-2,1.1-2.9c0,0.1,0.1,0,0,0.2c0.6-1.1,0-0.8,0.7-2.1
								c0.5-0.6-0.2,0.7,0,0.3c0.4,0,0.7-1.6,1.3-2.3l-0.1,0.2c0.4-0.6,0.7-1.6,1.3-2.6c0,0,0,0.1,0,0c0.2-0.8,0.9-2.2,1.5-3.1
								c-0.1,0.4-0.2,0.5,0,0.4c0.3-0.4-0.3,0,0.2-0.9c0.2-0.2,0.7-0.8,0.9-0.8l-0.5,0.8c0.4-0.3,0.7-1,1-1.4l0,0.1
								c0.8-1.2,0.6-1.4,1.6-2.6l-0.2,0.1c0.3-0.8,0.5-0.5,0.9-1.3l0.3-0.1c0.3-0.5,1.1-1.7,1.6-2.6c-0.1,0.6-0.8,1.7-1.2,2.3
								c0.4-0.4,1.2-1.6,1.2-1.9c-0.1,0.2-0.2,0.5-0.4,0.7c0.3-0.7,0.8-1.5,1-2.7c0.2,0.2,0.5-0.7,0-1.7c-0.4-1-1.4-1.6-1.6-2
								c-1.7-1-3.2-2.4-5.1-3.7c0.5,0.8-0.6-0.4-0.6,0c-0.5-0.3-0.6-0.4-0.6-0.5l-1.2-1.1c-0.3-0.3,0.5,0.2,0.5,0.1
								c-1-0.7-0.3-0.4-0.9-0.9c0.1,0.2-0.4-0.1-1-0.5l0.7,0.7c-1.5-0.8-1-1.1-2.5-1.9l0.5,0.2c-0.7-0.4-2.6-1.8-3.4-2.1
								c-0.1-0.1-0.2-0.3,0.1-0.1c-0.8-0.6-1.8-1.2-2.7-1.8c-0.3-0.2-0.7-0.5-1-0.7l-0.3-0.2c-0.1,0-0.1,0.2-0.2,0.2
								c-0.1,0.2-0.3,0.3-0.4,0.5c-0.2,0.2-0.4,0.5-0.6,0.7c-0.2,0.2-0.3,0.3-0.4,0.5l0-0.2c-0.2,0.3-0.3,0.6-0.6,1c0,0,0-0.2-0.1,0
								c-0.1,0.2-0.5,0.9-0.8,1.4l0.1-0.4c-1.2,1.7-1.4,2.8-2,4.4c-0.2-0.1-1,1.3-1.3,2l0,0c-0.9,2.2-1.3,3.8-1.9,5.9
								c-0.7,1.2-1.6,4.3-2.4,6.3c0.1-0.3,0.2,0.1,0.1,0.5c-0.2,0.5-0.3,1.4-0.5,1.2l0.1-0.2c-0.3,0.3-0.6,1.3-0.8,2.1l0.2,0.2
								c-1.1,1.9-1.5,5.4-2.3,6.3c-0.1,0.5-0.3,1.1-0.4,1.6l-0.1-0.1c-0.5,1.3-0.7,2-1.2,3.7l0-0.4c-0.3,0.9,0,1.3-0.2,2.2L91,73
								c-0.2,0.4-0.3,0.9-0.5,1.3c-0.2,0.5-0.4,0.9-0.4,0.8c0,0.1-1.1-0.1-1.9-0.1c0,0,0.1-0.1,0.4-0.1c-0.8-0.1-3.2-0.4-2.9,0
								c0-0.2-1.8,0-2.8,0.2l0.1-0.2c-0.8,0.3-0.8,0.3-1.9,0.5c-0.3,0-0.2-0.1,0.1-0.1c-0.9,0.1-0.7,0.2-1.7,0.4l0.4-0.2
								C79,75.7,79,75.7,78.6,76c-0.5,0.2-1.7,0.4-1.8,0.3c-0.1,0.1-0.5,0.4-1,0.5c-0.1,0,0.1-0.1,0.2-0.2c-1.5,0.4-2,1-3,1.3
								c0,0-0.1,0-0.2,0c1.1-0.5,2-0.9,1.9-0.8c-0.1-0.1-1,0.2-0.3-0.3c-0.7,0.4-1.8,1.2-2.7,1.6c0,0-0.1,0-0.1,0l0.1-0.1
								c-0.2,0.1-0.4,0.2-0.5,0.3c-0.3,0.1-0.4,0.2-0.7,0.4c-0.2-0.1-1,0.6-1.4,0.8c0.1,0.1-0.4,0.5,0.2,0.2c-0.1,0,0.1-0.1,0.3-0.3
								c0.1,0,0.1-0.1,0.2-0.1l0,0c0.3-0.2,0.6-0.4,1-0.7c-0.3,0.3-0.6,0.6-1.1,0.8c-0.2,0.2-0.3,0.5-0.4,0.6
								c-0.7,0.2-1.8,0.9-2,0.9c-1.1,1-2.6,2.4-2.9,3.3c-0.3,0.3-0.4,0.3-0.5,0.4c0.1-0.2,0.3-0.4,0.4-0.5c-0.5,0.7-1.6,1.9-1.6,2.2
								c-0.7,0.8,0.2-0.6-0.7,0.6l0.1-0.2c-2,2.1-2.3,4.1-4.2,6.6c0.1-0.2,0.2-0.3,0.3-0.3c-2,3-3.3,6.6-4.8,9.8
								c-0.4,0.9-0.3,1.1-0.5,1.7l-0.2,0.1l-0.2,1.1c-0.4,1.4-1.3,2.3-1.5,4.2l0.2-0.2c-0.2,0.6-0.5,2.1-0.6,1.9
								c0,0.1,0.1,0.2-0.1,0.5l-0.1,0l-0.3,1.6c-0.4,1.2-0.3-0.3-0.8,1.5c-0.1,0.7-0.2,2-0.1,1.8c0.1-0.3,0.2-0.7,0.3-0.7l-0.1,0.6
								c0.2,0.2,0.4,0.7,0.9-0.8l0.1-1.1l0.2-0.3l-0.2,0.9c0.2-0.5,0.2-0.8,0.2-1.2c0.1-0.1,0.2-0.2,0.2-0.4l0-1.1
								c0.1-0.1,0.1,0.5,0.3-0.2c0-0.5-0.4,0.4-0.2-0.4c0.3-0.5,0.3-0.3,0.4-0.9c0.1-0.1,0.1,0.1,0.1,0.3c0.1-0.5,0.4-1.4,0.3-1.7
								c0.3-0.5,0.5-1.8,0.7-1.6c0-0.2,0.1-1,0.3-1.4c0,1,0.6-1.8,0.9-1.4c0-0.7,0.7-2.3,1.1-3.5c0,0.1,0,0.2-0.1,0.3
								c0.3-0.6,0.4-0.8,0.6-1.1c-0.2-0.2,0.2-1.1,0.3-1.7c0.5-0.7,0,0.6,0.3,0.4c-0.2,0,0.4-1.4,0.2-1.2c0.4-0.5,0.3-0.5,0.6-0.7
								c-0.2-0.2,0.2-0.5,0.3-1.1c0.5-0.8,0.3-0.1,0.7-1C57.7,96.1,57.4,97,57.4,97z M72.3,79.2L72.3,79.2c-0.2,0.1-0.3,0.2-0.4,0.2
								C71.9,79.4,72.1,79.3,72.3,79.2z M74,78.3c-0.2,0.1-0.5,0.2-0.8,0.4c-0.1,0,0-0.1,0.1-0.2C73.3,78.6,73.8,78.4,74,78.3z
								 M69.8,79.4c0.3-0.2,0.4-0.2,0.4-0.2c-0.1,0.1-0.3,0.2-0.5,0.3c0,0,0,0,0,0C69.7,79.5,69.7,79.5,69.8,79.4z"/>
							<path fill="#202020" d="M69.4,79.9c0,0-0.1,0-0.1,0.1C69.4,80,69.4,79.9,69.4,79.9c0.1,0,0.1-0.1,0.1-0.1
								C69.5,79.8,69.5,79.9,69.4,79.9z"/>
							<path fill="#202020" d="M77.4,122.5L77.4,122.5C77.4,122.5,77.4,122.5,77.4,122.5C77.4,122.5,77.4,122.5,77.4,122.5z"/>
							<polygon fill="#202020" points="94.8,65.9 94.8,65.9 94.8,66 							"/>
							<path fill="#202020" d="M71.1,130c0,0,0,0-0.1-0.1C71,129.9,71.1,130,71.1,130z"/>
							<path fill="#202020" d="M67.2,127.4l-0.5-0.5C66.9,127.2,67.1,127.3,67.2,127.4z"/>
							<path fill="#202020" d="M64.3,125.1C64.3,125.1,64.3,125.1,64.3,125.1L64.3,125.1L64.3,125.1z"/>
							<path fill="#202020" d="M97.6,91c0,0,0.1,0,0.1-0.1C98,90.8,97.8,90.9,97.6,91z"/>
							<path fill="#202020" d="M84.3,102c0.1-0.2,0.1-0.4,0.2-0.5C84.4,101.8,84.2,102,84.3,102z"/>
							<polygon fill="#202020" points="110.1,77.3 110.1,77.3 110.1,77.2 							"/>
							<path fill="#202020" d="M84.9,100.8c-0.2,0.3-0.3,0.5-0.4,0.7C84.7,101.3,84.8,101,84.9,100.8z"/>
							<path fill="#202020" d="M50,118.3l-0.1-0.1c0,0,0,0,0,0L50,118.3z"/>
							<path fill="#202020" d="M49.8,118.3l-0.2-0.1C49.7,118.2,49.8,118.3,49.8,118.3z"/>
							<path fill="#202020" d="M49.3,118l0.3,0.2C49.6,118.1,49.4,118,49.3,118z"/>
							<path fill="#202020" d="M54.3,120.3L54.3,120.3C54.3,120.3,54.3,120.3,54.3,120.3z"/>
							<path fill="#202020" d="M55.7,120.8c-0.3-0.1-0.8-0.4-1.3-0.5l-0.1,0C54.6,120.3,55.4,120.8,55.7,120.8z"/>
							<path fill="#202020" d="M61.1,123.8c0,0-0.3-0.2-0.5-0.3c-0.3-0.2-0.5-0.3-0.5-0.3c0.2,0.2,0.4,0.4-0.1,0.1
								C61.2,124.2,59.7,123,61.1,123.8z"/>
							<path fill="#202020" d="M64.2,126C63.6,125.7,64.1,126.1,64.2,126C64.5,126.3,64.6,126.4,64.2,126z"/>
							<path fill="#202020" d="M80.7,114.4l0.1,0.1C80.9,114,80.7,114.5,80.7,114.4z"/>
							<polygon fill="#202020" points="81.6,109.1 81.3,109.6 81.4,109.8 							"/>
							<polygon fill="#202020" points="83.5,106.5 83.5,106.7 83.7,105.9 							"/>
							<path fill="#202020" d="M113.5,72.9l-0.2,0.1C113.2,73.3,113.4,73.5,113.5,72.9z"/>
							<path fill="#202020" d="M122.9,55.3c0.2-0.1,0.6-0.5,0.7-0.9C123.4,54.8,123,55.1,122.9,55.3z"/>
							<polygon fill="#202020" points="95,60.3 95.1,59.9 94.9,60.7 							"/>
						</g>
					</g>
				</g>
			</g>
		</g>
		<g>
			<g>
				<g>
					<g>
						<g>
							<path fill="#202020" d="M107.7,44.2c0-0.1-0.1-0.1-0.2,0l0.1,0.2L107.7,44.2z"/>
							<path fill="#202020" d="M107,44.8c0,0.2,0,0.4,0.2,0.4c-0.1-0.2,0-0.2-0.1-0.5c0.1-0.1,0.2-0.2,0.2-0.1
								c0-0.1,0.1-0.1,0.1-0.3c-0.2,0.1-0.3,0.2-0.4,0.5C107,44.9,107,44.8,107,44.8z"/>
							<path fill="#202020" d="M101.6,56.4L101.6,56.4C101.7,56.3,101.7,56.4,101.6,56.4z"/>
							<path fill="#202020" d="M98.9,63.8C98.9,63.8,98.9,63.7,98.9,63.8C98.9,63.8,98.9,63.8,98.9,63.8z"/>
							<path fill="#202020" d="M98.3,65C98.3,65,98.3,65,98.3,65C98.3,65,98.2,65,98.3,65z"/>
							<path fill="#202020" d="M101.6,56.4l-0.1,0.2C101.6,56.6,101.6,56.5,101.6,56.4z"/>
							<path fill="#202020" d="M106.5,46.5c0,0,0-0.1,0-0.1L106.5,46.5L106.5,46.5z"/>
							<path fill="#202020" d="M102.7,53.1L102.7,53.1c0-0.1,0-0.1,0-0.1L102.7,53.1z"/>
							<path fill="#202020" d="M103.6,50.5c0,0.1,0.1,0.1,0.2,0.2c0-0.1-0.1-0.1-0.1-0.2C103.7,50.5,103.7,50.5,103.6,50.5z"/>
							<path fill="#202020" d="M105.6,46.8L105.6,46.8C105.6,46.7,105.6,46.7,105.6,46.8z"/>
							<path fill="#202020" d="M102,54.9C102,54.9,101.9,54.9,102,54.9C101.9,54.9,102,54.9,102,54.9z"/>
							<path fill="#202020" d="M60.1,112.2C60.1,112.2,60.1,112.2,60.1,112.2C60.1,112.2,60.1,112.3,60.1,112.2z"/>
							<path fill="#202020" d="M58.5,115L58.5,115C58.5,114.9,58.5,114.9,58.5,115L58.5,115z"/>
							<path fill="#202020" d="M97.2,67.3C97.2,67.3,97.2,67.3,97.2,67.3C97.2,67.2,97.2,67.3,97.2,67.3z"/>
							<path fill="#202020" d="M83.6,82.9c0.3,0-0.3,0.4,0.1,0.3C83.7,83.2,83.9,82.8,83.6,82.9z"/>
							<path fill="#202020" d="M106.4,46.6L106.4,46.6C106.4,46.6,106.4,46.6,106.4,46.6z"/>
							<path fill="#202020" d="M83.8,83.2L83.8,83.2L83.8,83.2C83.8,83.2,83.8,83.2,83.8,83.2z"/>
							<path fill="#202020" d="M95.4,72.7C95.5,72.7,95.5,72.7,95.4,72.7C95.5,72.7,95.5,72.7,95.4,72.7z"/>
							<path fill="#202020" d="M97.1,68.8L97.1,68.8C97,68.8,97,68.8,97.1,68.8z"/>
							<path fill="#202020" d="M94.9,74.9c0,0-0.1,0.1-0.1,0.1l0,0C94.9,75,94.9,74.9,94.9,74.9z"/>
							<path fill="#202020" d="M94.1,77C94.1,77,94.2,77,94.1,77L94.1,77L94.1,77z"/>
							<path fill="#202020" d="M62.3,105.7c-0.1,0-0.1,0-0.2,0C62.2,105.7,62.1,106.1,62.3,105.7z"/>
							<path fill="#202020" d="M106.4,46.5C106.4,46.5,106.4,46.5,106.4,46.5L106.4,46.5C106.4,46.5,106.4,46.5,106.4,46.5z"/>
							<path fill="#202020" d="M96.1,75.4l-0.1,0.3C96,75.6,96,75.5,96.1,75.4z"/>
							<path fill="#202020" d="M72.1,93.4L72.1,93.4C72.1,93.5,72.1,93.5,72.1,93.4z"/>
							<path fill="#202020" d="M95.6,76.8c-0.1,0-0.1,0.1-0.2,0.2c0,0,0,0,0,0.1L95.6,76.8z"/>
							<path fill="#202020" d="M62.1,105.7L62.1,105.7L62.1,105.7z"/>
							<path fill="#202020" d="M61.6,108.1c0.1-0.3-0.1-0.2-0.2-0.3c0.1-0.4,0.2-0.1,0.4-0.2c0-0.3-0.1-0.5,0-0.7c0,0,0.1,0,0.1,0
								c-0.1-0.3,0.3-0.7,0.2-1.1c0,0,0,0,0.1,0c-0.1,0-0.2,0-0.3-0.1c0.1-0.1,0-0.3,0.1-0.3c0,0.1,0,0.1,0,0.2l0-0.2
								c0.2-0.1,0,0.2,0.1,0.3c0.1-0.3,0-0.7,0.2-0.9c0.2,0-0.2,0.5,0.1,0.3l-0.2,0.3c0.4-0.1-0.1,0.2,0.3,0.1
								c0.2-0.4,0.1-0.5,0.4-1c-0.1-0.1-0.2,0-0.2-0.2c0.1-0.7,0.7-0.3,0.7-0.9c-0.1-0.2-0.3-0.3,0-0.6l0.1,0.2
								c0.2-0.4-0.2-0.4,0.2-0.8c0,0.1-0.1,0.4-0.1,0.3c0.3-0.2,0-0.3,0.1-0.5l0.2,0c0.2-0.5,0.3-1,0.6-1.5c0,0.1,0,0.2,0.2,0.1
								c0.3-0.7,0.8-1.2,1.3-1.7l0-0.3c0,0,0.1,0,0.1,0c0.2-0.2-0.1-0.1-0.1-0.2c0.1-0.1,0.2-0.1,0.2,0c0.1-0.2,0.2-0.5,0.4-0.8
								c0.2-0.3,0.4-0.5,0.7-0.6l0,0.1c0.3-0.2,0-0.6,0.4-0.7l0,0.1c0.3-0.3,0.6-0.6,0.9-0.8c0.3-0.3,0.6-0.5,1-0.6
								c-0.1-0.3,0.7-0.4,0.6-0.7c0.5-0.1,0.4,0,1-0.3c0.2-0.1,0.1-0.3,0.3-0.5l0.1,0.1l0.2-0.3l0.3,0.1l0.2-0.2c-0.1,0-0.2,0-0.2,0
								c0.2-0.2,0.7-0.3,0.8-0.3l0.6-0.6c0,0.1-0.1,0.2-0.1,0.3c0.3-0.4,0.2,0.1,0.4-0.2c-0.1,0,0-0.1,0-0.1c0.2,0,0.6-0.3,0.8-0.5
								l0,0.1c0.5-0.3,1-0.9,1.4-1.3c-0.2,0.1-0.3-0.1-0.2-0.2l0.2,0.1c0-0.2-0.2,0.1-0.1-0.2c0.2-0.2,0.3,0,0.2,0.2l0.2-0.3
								c0.1,0,0,0.1,0.1,0.2c0-0.2,0.5-0.3,0.5-0.5l0.1,0c0.4-0.5,0.6-0.8,0.9-1.1c-0.1-0.1,0-0.2,0.1-0.4c0.3-0.2,0.7-0.4,1-0.8
								c0.2-0.3,0-0.2,0-0.3c0.1,0.1,0.4-0.2,0.3,0c0.4-0.4,0.5-0.5,1-0.9c-0.1,0-0.2,0-0.2,0c0.1-0.1,0.3-0.1,0.3,0l0,0
								c0.5-0.6,1.7-0.6,2.1-1.2l0,0l0.5-0.5c0.3-0.1-0.1,0.2,0.1,0.2c0.5-0.6,1-0.5,1.4-0.9c0.6,0.2,1.4-0.8,2.1-0.8l-0.1-0.1
								c0.1-0.2,0.2,0,0.3-0.1c-0.1-0.1-0.2,0-0.1-0.1c1.1-0.7,2.5-1.1,3.8-1.7c0.5-0.2,0-0.6,0.7-0.7L90.7,81
								c0.8-0.7,1.8-0.9,2.7-1.6c0,0.1,0,0.1-0.1,0.2c0.3,0,0.8-0.5,0.7-0.6c0.2-0.1,0.1,0.1,0.2,0c0.3-0.1,0.3-0.6,0.5-0.6
								c0,0,0,0.1,0,0.1c0.1-0.2,0.5-0.6,0.2-0.6c0.3-0.3,0.3-0.8,0.5-1c-0.1-0.3,0.3-0.6,0.1-0.7c0.2,0.1,0.4-0.5,0.4-0.8
								c0,0.1,0.1-0.2,0.2,0c0.1-0.3,0.1-0.5,0-0.5c0.5-0.4,0.1-1,0.6-1.1c0.1-0.8,0.3-1.5,0.5-2.2c0.2,0.1-0.2,0.8,0,0.8
								c0.1-0.7,0-1.1,0.3-1.7c0.1-0.2,0.1,0.1,0.1,0.2c0.1-0.7,0.5-1.2,0.5-1.8c0,0,0,0.1,0,0.1c0-0.1,0.1-0.2,0-0.3l0,0.1
								c-0.2,0.1-0.2-0.6-0.3-0.6c0.3,0.3,0.3-0.5,0.6-0.1c0-0.1,0-0.2-0.1-0.2c0.1-0.1,0.1-0.1,0.2,0c0.1-0.4-0.1-0.3,0-0.7
								c0.1,0,0,0.1,0.1,0.2c0-0.2-0.1-0.4,0.1-0.7c0,0,0.1,0,0,0.1c0.2-0.5,0-1,0.3-1.5c0.2,0.3,0.1-0.2,0.4-0.1l0-0.3L99.4,65
								c0.1-0.3,0-0.6,0.2-0.8l0,0.2l0.1-0.5l-0.2,0.3c0-0.3-0.3-0.1-0.1-0.4c0,0.1,0.1-0.3,0.3-0.4l0,0c0-0.2,0-0.3,0.1-0.5
								c0.1,0,0.2,0.1,0.3,0.1c-0.1-0.2,0.2-0.7,0.1-0.9c0,0.1,0.1,0.1,0.2,0.1l-0.1-0.2c0.1-0.1,0.1-0.1,0.2-0.1
								c0.2-0.4-0.3,0,0-0.4c0,0,0,0,0,0.1c0.2-0.4,0.2-0.9,0.4-1.3c0.2-0.1-0.1,0.4,0.1,0.3c0.2-0.6,0.2-1.3,0.4-1.9l-0.1,0.1
								c-0.3-0.2,0.3-0.4,0.3-0.7c0,0.1,0.1,0.2,0.1,0.1c0.2-0.4,0.2-0.8,0.3-1.5l0,0.1c0.1-0.2,0.3-0.6,0.4-0.8
								c0-0.1,0-0.2-0.1-0.2c0.7-0.6,0.3-1.6,0.9-2.1c0,0.1,0,0.2,0,0.2l0.1-0.6c-0.1,0-0.1,0-0.2,0.1c0-0.1,0-0.3,0-0.4
								c0,0.3,0.2,0.1,0.3,0c0,0-0.1,0-0.1-0.1c0.3-0.2-0.2-0.1,0.1-0.5l0.1,0c0-0.2,0-0.3,0.1-0.5c0.2,0,0,0.2,0.1,0.2
								c0.1-0.2-0.1-0.6,0.1-0.7c0,0.1-0.1,0.3-0.1,0.4c0.3-0.2,0.2-0.2,0.3-0.4l0,0l0.2-0.4l-0.1,0.1c-0.3-0.4,0.2-0.6,0.1-1.1
								c0.1,0.5,0.1,0.1,0.3,0.2c0.1-0.1,0.2-0.2,0.2-0.1c-0.1-0.2,0.2-0.3,0.2-0.6c0.1,0,0.1-0.2,0.2-0.1c0.1-0.3-0.1,0-0.2,0
								c0-0.4,0.6-0.8,0.6-1.4c0.1-0.5,0-0.7,0.1-1.1c0.2-0.1,0.1,0.2,0.1,0.2c0.2-0.2,0.3-0.4,0.3-0.6c0,0.1,0.1,0,0.2,0
								c0.1-0.2-0.1-0.2,0.1-0.4c0,0.1,0.1,0.2,0.1,0.3c0.1-0.2,0.1-0.5,0.2-0.7c0.1,0,0.1,0.2,0.1,0.3c0.1-0.2,0.3-0.6,0.2-0.8
								l-0.1,0.1c0-0.1,0.1,0,0.1,0.1c0,0.3-0.2,0.3-0.3,0.2l0.1-0.2c-0.4,0-0.3,0.6-0.5,0.9l-0.1-0.2l0,0.4c-0.1,0-0.2,0-0.2-0.1
								c-0.2,0.2,0,0.2-0.2,0.3c0,0,0,0,0,0l0,0.2c0-0.1-0.2,0-0.1-0.2c-0.3,0.3-0.1,0.7-0.4,0.8l0,0c-0.2,0.6,0.1,0.1,0.1,0.6
								l-0.5,0.1l0.1,0.1c0,0.1-0.1,0.2-0.1,0.1c0,0.3,0.1,0,0.1,0.2c-0.3,0.2-0.3,0.8-0.5,0.7c0.1,0.1,0.2-0.2,0.2,0.1
								c-0.3,0-0.1,0.4-0.3,0.5c-0.1-0.1,0.1-0.3-0.2-0.1c0.2,0.2-0.3,0.5-0.3,0.7c0.2,0.1-0.1,0.5-0.2,0.9c-0.1,0-0.4,0.6-0.6,0.9
								l0,0c0.2,0.1,0,0.5,0,0.7c-0.1-0.1-0.1-0.1-0.1-0.3l-0.1,0.2c0,0.1,0,0.2,0,0.3l-0.1-0.1c-0.1,0.3-0.1,0.7-0.3,1
								c0.1,0.1,0.5-0.2,0.4,0.3c-0.1,0-0.2,0-0.2-0.2c0,0,0,0.2,0,0.2l-0.1-0.2c-0.1,0.2,0.1,0.1,0,0.3c-0.1,0-0.1,0.1-0.2,0
								c0,0,0.1-0.1,0.1-0.2c-0.1,0.2-0.2,0.3-0.3,0.4c0.1,0,0.1,0.1,0.1,0.2c-0.1,0.3-0.2,0.1-0.3,0.2c0,0.1-0.1,0.3,0.1,0.3
								c0,0.1-0.1,0.1-0.2,0.1c0,0.2-0.2,0.8,0,0.6l0,0l0,0l0,0l0,0c0,0.6-0.5,1.1-0.6,1.6l-0.1,0c0,0.3-0.2,0.7-0.2,1
								c0,0.1-0.2,0.2-0.2,0.1c0,0.3,0,0.3-0.2,0.6c0-0.3-0.1,0.1,0-0.3c-0.2,0.3-0.3,0.3-0.2,0.7c-0.1-0.2-0.3,0.2-0.3,0.3l0.2-0.2
								c0,0.2-0.1,0.3-0.2,0.5l-0.2-0.1c-0.4,0.6,0,1.3-0.6,1.6c0.1,0.2,0.2-0.3,0.3-0.1c-0.1,0.3-0.5,0.5-0.5,0.6
								c-0.2,0.4,0.1,0.5-0.1,0.9c0.1,0,0.3,0,0.2,0.3c-0.1,0.3-0.4,0.3-0.4,0.1c0-0.1,0.1-0.1,0.1-0.1c0-0.1,0-0.2-0.1-0.1l0.1,0.1
								c-0.1,0.1-0.3,0.5-0.3,0.4c0,0.2,0.1,0.1,0.2,0c-0.2,0.3-0.2,0.6-0.4,0.9c0.1,0,0.2-0.1,0.1,0c-0.3,0.5,0,0.3-0.1,0.7
								c-0.2,0.2-0.2-0.2-0.3,0.3c-0.1,0.2-0.2,0-0.2-0.1c0,0.4-0.3,0.6-0.4,0.8l0-0.2c0,0.1,0,0.2-0.1,0.3l0.2-0.1
								c-0.1,0.1-0.1,0.2-0.1,0.2c0,0.1,0.2,0,0.3,0.3c-0.1,0.1-0.1,0.5-0.3,0.5c0.2-0.4-0.2,0-0.1-0.4c0,0.1,0,0.2-0.1,0.3
								c0,0,0,0,0-0.1c-0.3,0.4,0.1,0.3,0,0.7c-0.1-0.1-0.2,0-0.2,0.1c0.1-0.2,0.2,0,0.2,0.2c-0.2,0.3-0.1,0.3-0.1,0.5l0.1-0.2
								c0.1,0.1,0,0.2,0,0.4c-0.1,0,0-0.2,0-0.1c0.1,0.3-0.4,0.4-0.3,0.8c-0.1,0.1-0.2-0.1-0.3,0.1c0,0.4-0.3,0.3-0.3,0.7
								c0.2-0.1,0.1-0.1,0.2,0.2l0.1-0.6l0.1,0.5c0.1-0.2,0.1-0.4,0.1-0.5c0,0.2,0,0.2,0.2,0.1c-0.3,0.2-0.1,0.5-0.3,0.8l-0.3-0.1
								c-0.3,0.4-0.1,0.8-0.4,1.4l0.1-0.2c0.1,0.1-0.1,0.4-0.1,0.6c-0.1-0.1-0.2,0-0.3,0.1c0.1,0-0.2,0.4,0,0.5l-0.2,0.2
								c-0.2,0.4,0.1,0.6-0.1,1c-0.1-0.2-0.2,0-0.2-0.3c-0.1,0.1-0.1,0.3,0,0.3c-0.1,0.1,0,0.5-0.1,0.6c0,0.1,0.1,0.1,0.1,0.3
								c0,0-0.1,0-0.1,0c0.1,0,0,0.3,0.2,0.2c-0.5,0.3-0.4,1.3-0.9,1.5c-0.1,0.3-0.2,0.6-0.4,0.9c0,0,0,0,0-0.1
								c-0.3,0.2,0.1,0.4-0.3,0.6c-0.3,0,0.1-0.2,0-0.2c-0.3-0.3-0.4,0.4-0.8,0.3l0.1-0.1c-0.3,0-0.4,0.4-0.8,0.6c0,0,0,0,0-0.1
								c-0.2,0.3-0.6,0.6-0.9,0.8c0-0.2,0.1-0.1,0-0.2c-0.1,0.1,0.2,0.2-0.1,0.4c-0.1,0-0.4,0-0.5-0.1l0.3-0.2
								c-0.2-0.1-0.4,0.2-0.5,0.2l0-0.1c-0.4,0.3-0.3,0.5-0.8,0.7l0.1,0c-0.2,0.3-0.3,0-0.5,0.3l-0.2-0.2c-0.1,0.1-0.5,0.5-0.8,0.7
								c0.1-0.2,0.4-0.5,0.6-0.7c-0.2,0.1-0.6,0.3-0.6,0.5c0.1-0.1,0.1-0.1,0.2-0.2c-0.1,0.3-0.4,0.5-0.7,0.7
								c-0.1-0.4-0.9,0.4-1.4,0.2c-0.5,0.5-1.2,0.6-1.9,0.9c0.4,0.2-0.2,0.1,0,0.4c-0.2,0.1-0.2,0.1-0.2,0.1l-0.6,0.1
								c-0.2,0,0.1-0.1,0.1-0.2c-0.4,0.2-0.2-0.1-0.5,0c0.1,0.1,0,0.2-0.3,0.3l0.4,0c-0.4,0.4-0.6,0-1,0.4l0.1-0.2
								c-0.2,0.2-1,0.5-1.1,0.9c-0.1,0-0.2-0.1-0.1-0.1c-0.6,0.3-1.2,1.1-1.7,1.3l0-0.1c-0.1,0.1-0.1,0.3-0.3,0.3c0,0,0-0.1-0.1-0.1
								c0,0.1-0.2,0.3-0.4,0.4l0.1-0.2c-0.6,0.4-0.7,0.9-1.1,1.3c-0.2-0.2-0.6,0.2-0.8,0.3l0,0c-0.6,0.6-0.7,1.2-1.2,1.8
								c-0.5,0.2-1.1,1-1.8,1.3c0.1,0,0.1,0.2,0,0.3c-0.2,0.1-0.3,0.4-0.4,0.2l0.1,0c-0.2-0.1-0.5,0.1-0.7,0.3l0.1,0.3
								c-0.8,0-1.5,1.2-2,1c-0.1,0.2-0.3,0.3-0.4,0.4L70.2,93c-0.4,0.2-0.7,0.4-1.1,0.8l0-0.2c-0.3,0.2-0.1,0.7-0.3,0.9l-0.2-0.1
								c-0.5,0.4-1.1,0.6-1.4,1.2c0,0-0.1-0.1,0-0.2c-0.2,0.2-0.9,0.7-0.6,0.8c-0.2-0.1-0.4,0.4-0.6,0.7l-0.1-0.1
								c0,0.3,0,0.4-0.2,0.7c-0.1,0.1-0.1,0,0-0.1c-0.3,0.2,0,0.3-0.3,0.5l0-0.2c-0.2,0.2-0.1,0.2-0.2,0.5c-0.1,0.2-0.4,0.5-0.5,0.4
								c0,0.1,0,0.3-0.1,0.4c-0.1,0,0-0.1,0-0.1c-0.4,0.4-0.3,0.7-0.6,0.9c0,0-0.1,0-0.1,0c0.2-0.4,0.4-0.6,0.4-0.6
								c-0.1-0.1-0.3,0.2-0.4-0.2c-0.1,0.3-0.1,0.8-0.3,1c0,0,0,0-0.1,0l0,0c-0.1,0.1-0.1,0.1-0.1,0.2c-0.1,0.1-0.1,0.1-0.2,0.2
								c-0.1,0-0.2,0.3-0.3,0.4c0.1,0.1,0,0.2,0.2,0.1c0,0,0,0,0-0.1c0,0,0-0.1,0-0.1l0,0c0-0.1,0.1-0.2,0.2-0.4
								c0,0.2,0,0.3-0.2,0.4c0,0.1,0.1,0.3,0.1,0.3c-0.3,0.1-0.6,0.4-0.8,0.4c-0.2,0.5-0.5,1.1-0.3,1.5c0,0.1-0.2,0.1-0.2,0.1
								c0-0.1,0.1-0.2,0-0.2c-0.1,0.3-0.3,0.8-0.2,0.9c-0.2,0.3-0.1-0.3-0.3,0.2l0-0.1c-0.7,0.8-0.1,1.7-0.9,2.5
								c0.1-0.1,0.1-0.1,0.1-0.1c-0.6,1.1-0.7,2.4-1.3,3.5c-0.2,0.3,0,0.4,0,0.6l-0.2,0l0.1,0.4c0,0.5-0.7,0.7-0.6,1.4l0.1,0
								c-0.1,0.2-0.1,0.7-0.3,0.6c0,0,0.1,0.1,0,0.2l-0.1,0l0,0.6c-0.2,0.4-0.3-0.2-0.5,0.4c0,0.2,0.1,0.7,0.2,0.7
								c0-0.1,0.1-0.2,0.2-0.2l0,0.2c0.2,0.1,0.5,0.3,0.8-0.1l-0.1-0.4l0.2-0.1l-0.1,0.3c0.2-0.1,0.1-0.3,0.1-0.4
								c0.1,0,0.1,0,0.2-0.1l-0.2-0.4c0.1,0,0.2,0.2,0.3,0c-0.1-0.2-0.3,0.1-0.3-0.2c0.2-0.1,0.2-0.1,0.2-0.3c0.1,0,0.1,0,0.1,0.1
								c0-0.2,0.1-0.5,0-0.6c0.2-0.1,0.1-0.6,0.4-0.5c0-0.1-0.1-0.4-0.1-0.5c0.2,0.4,0.2-0.6,0.5-0.4c-0.2-0.3,0.1-0.8,0.1-1.3
								c0,0,0,0.1,0,0.1c0.1-0.2,0.2-0.2,0.3-0.4c-0.2-0.1-0.2-0.5-0.2-0.7c0.3-0.2,0.2,0.2,0.4,0.2c-0.2,0,0-0.5-0.2-0.5
								c0.2-0.2,0.1-0.2,0.3-0.2c-0.3-0.1,0-0.2-0.1-0.4c0.2-0.2,0.3,0,0.3-0.3C61.6,107.8,61.6,108.1,61.6,108.1z M64.5,100.6
								L64.5,100.6c0,0.1-0.1,0.1-0.1,0.1C64.4,100.7,64.4,100.7,64.5,100.6z M64.8,100.1c0,0.1-0.1,0.2-0.2,0.2
								c-0.1,0-0.1-0.1-0.1-0.1C64.6,100.2,64.7,100.1,64.8,100.1z M63.1,100.7c0-0.1,0.1-0.1,0.1-0.1
								C63.2,100.6,63.2,100.7,63.1,100.7L63.1,100.7C63.1,100.8,63.1,100.7,63.1,100.7z"/>
							<path fill="#202020" d="M63.2,101C63.2,101,63.2,101,63.2,101C63.2,101,63.2,101,63.2,101L63.2,101L63.2,101z"/>
							<path fill="#202020" d="M101.7,56.3L101.7,56.3C101.7,56.3,101.7,56.3,101.7,56.3C101.7,56.3,101.7,56.3,101.7,56.3z"/>
							<polygon fill="#202020" points="71.5,93.9 71.5,93.9 71.5,93.9 							"/>
							<path fill="#202020" d="M103.5,53C103.5,53,103.5,53,103.5,53C103.5,52.9,103.5,53,103.5,53z"/>
							<path fill="#202020" d="M104.1,51.5l0.1-0.2C104.2,51.4,104.1,51.4,104.1,51.5z"/>
							<path fill="#202020" d="M104.6,50.3C104.6,50.3,104.6,50.3,104.6,50.3L104.6,50.3L104.6,50.3z"/>
							<path fill="#202020" d="M98.1,69.1C98.1,69.1,98.1,69.1,98.1,69.1C98.1,69.2,98.1,69.2,98.1,69.1z"/>
							<path fill="#202020" d="M99.7,63.4c0,0.1,0,0.1,0,0.2C99.8,63.5,99.8,63.4,99.7,63.4z"/>
							<polygon fill="#202020" points="96.1,75.4 96.1,75.4 96.1,75.4 							"/>
							<path fill="#202020" d="M99.6,63.8c0.1-0.1,0.1-0.2,0.1-0.3C99.7,63.7,99.6,63.7,99.6,63.8z"/>
							<path fill="#202020" d="M107,45.6L107,45.6C107.1,45.5,107.1,45.5,107,45.6L107,45.6z"/>
							<path fill="#202020" d="M107.1,45.5L107.1,45.5C107.1,45.5,107,45.5,107.1,45.5z"/>
							<path fill="#202020" d="M107.1,45.3l0,0.1C107.1,45.4,107.1,45.4,107.1,45.3z"/>
							<path fill="#202020" d="M106.2,47L106.2,47C106.2,47,106.2,47,106.2,47z"/>
							<path fill="#202020" d="M106,47.4c0.1-0.1,0.2-0.2,0.3-0.4l0,0C106.3,47.1,105.9,47.3,106,47.4z"/>
							<path fill="#202020" d="M104.4,49l0.2-0.4c-0.1,0-0.2,0.1-0.1-0.1C104.1,49,104.7,48.5,104.4,49z"/>
							<path fill="#202020" d="M103.8,50.2c0.1-0.2-0.1,0-0.1-0.1C103.7,50.3,103.7,50.3,103.8,50.2z"/>
							<path fill="#202020" d="M100.6,59.1l-0.1-0.1C100.4,59.2,100.5,59,100.6,59.1z"/>
							<polygon fill="#202020" points="100.7,61 100.9,60.9 100.8,60.8 							"/>
							<polygon fill="#202020" points="99.4,61.7 99.4,61.6 99.3,61.9 							"/>
							<path fill="#202020" d="M94.1,76.6l0.2,0C94.3,76.5,94.2,76.4,94.1,76.6z"/>
							<path fill="#202020" d="M89.2,80.4c-0.1,0-0.3,0-0.4,0.1C88.9,80.4,89.1,80.4,89.2,80.4z"/>
							<polygon fill="#202020" points="72.3,91.7 72.3,91.6 72.2,91.8 							"/>
						</g>
					</g>
				</g>
			</g>
		</g>
		<g>
			<g>
				<g>
					<g>
						<g>
							<path fill="#202020" d="M111.4,48.6c0-0.1-0.1-0.1-0.2,0l0.1,0.2L111.4,48.6z"/>
							<path fill="#202020" d="M110.6,49.1c0,0.2,0,0.4,0.2,0.4c-0.1-0.2,0-0.2-0.1-0.5c0.1-0.1,0.2-0.2,0.2-0.1
								c0-0.1,0.1-0.1,0.1-0.3c-0.2,0.1-0.3,0.2-0.4,0.5C110.7,49.2,110.6,49.1,110.6,49.1z"/>
							<path fill="#202020" d="M105.3,60.7L105.3,60.7C105.3,60.7,105.3,60.7,105.3,60.7z"/>
							<path fill="#202020" d="M102.6,68.1C102.6,68.1,102.6,68.1,102.6,68.1C102.5,68.1,102.5,68.2,102.6,68.1z"/>
							<path fill="#202020" d="M101.9,69.4C101.9,69.3,101.9,69.3,101.9,69.4C101.9,69.3,101.9,69.3,101.9,69.4z"/>
							<path fill="#202020" d="M105.3,60.7l-0.1,0.2C105.2,60.9,105.3,60.8,105.3,60.7z"/>
							<path fill="#202020" d="M110.1,50.8c0,0,0-0.1,0-0.1L110.1,50.8L110.1,50.8z"/>
							<path fill="#202020" d="M106.3,57.4L106.3,57.4c0-0.1,0-0.1,0-0.1L106.3,57.4z"/>
							<path fill="#202020" d="M107.3,54.8c0,0.1,0.1,0.1,0.2,0.2c0-0.1-0.1-0.1-0.1-0.2C107.3,54.8,107.3,54.8,107.3,54.8z"/>
							<path fill="#202020" d="M109.3,51.1L109.3,51.1C109.3,51,109.3,51,109.3,51.1z"/>
							<path fill="#202020" d="M105.6,59.2C105.6,59.2,105.6,59.2,105.6,59.2C105.6,59.2,105.6,59.2,105.6,59.2z"/>
							<path fill="#202020" d="M63.8,116.5C63.8,116.5,63.8,116.5,63.8,116.5C63.8,116.6,63.8,116.6,63.8,116.5z"/>
							<path fill="#202020" d="M62.2,119.3L62.2,119.3C62.1,119.3,62.1,119.2,62.2,119.3L62.2,119.3z"/>
							<path fill="#202020" d="M100.9,71.6C100.9,71.6,100.9,71.6,100.9,71.6C100.9,71.5,100.9,71.6,100.9,71.6z"/>
							<path fill="#202020" d="M87.3,87.2c0.3,0-0.3,0.4,0.1,0.3C87.4,87.5,87.6,87.2,87.3,87.2z"/>
							<path fill="#202020" d="M110.1,50.9L110.1,50.9C110.1,50.9,110.1,50.9,110.1,50.9z"/>
							<path fill="#202020" d="M87.4,87.5L87.4,87.5L87.4,87.5C87.4,87.5,87.4,87.5,87.4,87.5z"/>
							<path fill="#202020" d="M99.1,77C99.1,77,99.1,77,99.1,77C99.2,77,99.1,77,99.1,77z"/>
							<path fill="#202020" d="M100.7,73.1L100.7,73.1C100.7,73.2,100.7,73.1,100.7,73.1z"/>
							<path fill="#202020" d="M98.6,79.2c0,0-0.1,0.1-0.1,0.1l0,0C98.5,79.3,98.5,79.2,98.6,79.2z"/>
							<path fill="#202020" d="M97.8,81.3C97.8,81.3,97.8,81.3,97.8,81.3L97.8,81.3L97.8,81.3z"/>
							<path fill="#202020" d="M65.9,110c-0.1,0-0.1,0-0.2,0C65.9,110,65.8,110.4,65.9,110z"/>
							<path fill="#202020" d="M110.1,50.8C110.1,50.8,110.1,50.9,110.1,50.8L110.1,50.8C110.1,50.8,110.1,50.8,110.1,50.8z"/>
							<path fill="#202020" d="M99.7,79.7L99.6,80C99.6,79.9,99.7,79.8,99.7,79.7z"/>
							<path fill="#202020" d="M75.8,97.7L75.8,97.7C75.8,97.8,75.8,97.8,75.8,97.7z"/>
							<path fill="#202020" d="M99.3,81.1c-0.1,0-0.1,0.1-0.2,0.2c0,0,0,0,0,0.1L99.3,81.1z"/>
							<path fill="#202020" d="M65.7,110L65.7,110L65.7,110z"/>
							<path fill="#202020" d="M65.3,112.4c0.1-0.3-0.1-0.2-0.2-0.3c0.1-0.4,0.2-0.1,0.4-0.2c0-0.3-0.1-0.5,0-0.7c0,0,0.1,0,0.1,0
								c-0.1-0.3,0.3-0.7,0.2-1.1c0,0,0,0,0.1,0c-0.1,0-0.2,0-0.3-0.1c0.1-0.1,0-0.3,0.1-0.3c0,0.1,0,0.1,0,0.2l0-0.2
								c0.2-0.1,0,0.2,0.1,0.3c0.1-0.3,0-0.7,0.2-0.9c0.2,0-0.2,0.5,0.1,0.3l-0.2,0.3c0.4-0.1-0.1,0.2,0.3,0.1
								c0.2-0.4,0.1-0.5,0.4-1c-0.1-0.1-0.2,0-0.2-0.2c0.1-0.7,0.7-0.3,0.7-0.9c-0.1-0.2-0.3-0.3,0-0.6l0.1,0.2
								c0.2-0.4-0.2-0.4,0.2-0.8c0,0.1-0.1,0.4-0.1,0.3c0.3-0.2,0-0.3,0.1-0.5l0.2,0c0.2-0.5,0.3-1,0.6-1.5c0,0.1,0,0.2,0.2,0.1
								c0.3-0.7,0.8-1.2,1.3-1.7l0-0.3c0,0,0.1,0,0.1,0c0.2-0.2-0.1-0.1-0.1-0.2c0.1-0.1,0.2-0.1,0.2,0c0.1-0.2,0.2-0.5,0.4-0.8
								c0.2-0.3,0.4-0.5,0.7-0.6l0,0.1c0.3-0.2,0-0.6,0.4-0.7l0,0.1c0.3-0.3,0.6-0.6,0.9-0.8c0.3-0.3,0.6-0.5,1-0.6
								c-0.1-0.3,0.7-0.4,0.6-0.7c0.5-0.1,0.4,0,1-0.3c0.2-0.1,0.1-0.3,0.3-0.5l0.1,0.1l0.2-0.3l0.3,0.1l0.2-0.2c-0.1,0-0.2,0-0.2,0
								c0.2-0.2,0.7-0.3,0.8-0.3l0.6-0.6c0,0.1-0.1,0.2-0.1,0.3c0.3-0.4,0.2,0.1,0.4-0.2c-0.1,0,0-0.1,0-0.1c0.2,0,0.6-0.3,0.8-0.5
								l0,0.1c0.5-0.3,1-0.9,1.4-1.3c-0.2,0.1-0.3-0.1-0.2-0.2l0.2,0.1c0-0.2-0.2,0.1-0.1-0.2c0.2-0.2,0.3,0,0.2,0.2l0.2-0.3
								c0.1,0,0,0.1,0.1,0.2c0-0.2,0.5-0.3,0.5-0.5l0.1,0c0.4-0.5,0.6-0.8,0.9-1.1c-0.1-0.1,0-0.2,0.1-0.4c0.3-0.2,0.7-0.4,1-0.8
								c0.2-0.3,0-0.2,0-0.3c0.1,0.1,0.4-0.2,0.3,0c0.4-0.4,0.5-0.5,1-0.9c-0.1,0-0.2,0-0.2,0c0.1-0.1,0.3-0.1,0.3,0l0,0
								c0.5-0.6,1.7-0.6,2.1-1.2l0,0l0.5-0.5c0.3-0.1-0.1,0.2,0.1,0.2c0.5-0.6,1-0.5,1.4-0.9c0.6,0.2,1.4-0.8,2.1-0.8l-0.1-0.1
								c0.1-0.2,0.2,0,0.3-0.1c-0.1-0.1-0.2,0-0.1-0.1c1.1-0.7,2.5-1.1,3.8-1.7c0.5-0.2,0-0.6,0.7-0.7l-0.1,0.3
								c0.8-0.7,1.8-0.9,2.7-1.6c0,0.1,0,0.1-0.1,0.2c0.3,0,0.8-0.5,0.7-0.6c0.2-0.1,0.1,0.1,0.2,0c0.3-0.1,0.3-0.6,0.5-0.6
								c0,0,0,0.1,0,0.1c0.1-0.2,0.5-0.6,0.2-0.6c0.3-0.3,0.3-0.8,0.5-1c-0.1-0.3,0.3-0.6,0.1-0.7c0.2,0.1,0.4-0.5,0.4-0.8
								c0,0.1,0.1-0.2,0.2,0c0.1-0.3,0.1-0.5,0-0.5c0.5-0.4,0.1-1,0.6-1.1c0.1-0.8,0.3-1.5,0.5-2.2c0.2,0.1-0.2,0.8,0,0.8
								c0.1-0.7,0-1.1,0.3-1.7c0.1-0.2,0.1,0.1,0.1,0.2c0.1-0.7,0.5-1.2,0.5-1.8c0,0,0,0.1,0,0.1c0-0.1,0.1-0.2,0-0.3l0,0.1
								c-0.2,0.1-0.2-0.6-0.3-0.6c0.3,0.3,0.3-0.5,0.6-0.1c0-0.1,0-0.2-0.1-0.2c0.1-0.1,0.1-0.1,0.2,0c0.1-0.4-0.1-0.3,0-0.7
								c0.1,0,0,0.1,0.1,0.2c0-0.2-0.1-0.4,0.1-0.7c0,0,0.1,0,0,0.1c0.2-0.5,0-1,0.3-1.5c0.2,0.3,0.1-0.2,0.4-0.1l0-0.3l-0.1,0.1
								c0.1-0.3,0-0.6,0.2-0.8l0,0.2l0.1-0.5l-0.2,0.3c0-0.3-0.3-0.1-0.1-0.4c0,0.1,0.1-0.3,0.3-0.4l0,0c0-0.2,0-0.3,0.1-0.5
								c0.1,0,0.2,0.1,0.3,0.1c-0.1-0.2,0.2-0.7,0.1-0.9c0,0.1,0.1,0.1,0.2,0.1l-0.1-0.2c0.1-0.1,0.1-0.1,0.2-0.1
								c0.2-0.4-0.3,0,0-0.4c0,0,0,0,0,0.1c0.2-0.4,0.2-0.9,0.4-1.3c0.2-0.1-0.1,0.4,0.1,0.3c0.2-0.6,0.2-1.3,0.4-1.9l-0.1,0.1
								c-0.3-0.2,0.3-0.4,0.3-0.7c0,0.1,0.1,0.2,0.1,0.1c0.2-0.4,0.2-0.8,0.3-1.5l0,0.1c0.1-0.2,0.3-0.6,0.4-0.8
								c0-0.1,0-0.2-0.1-0.2c0.7-0.6,0.3-1.6,0.9-2.1c0,0.1,0,0.2,0,0.2l0.1-0.6c-0.1,0-0.1,0-0.2,0.1c0-0.1,0-0.3,0-0.4
								c0,0.3,0.2,0.1,0.3,0c0,0-0.1,0-0.1-0.1c0.3-0.2-0.2-0.1,0.1-0.5l0.1,0c0-0.2,0-0.3,0.1-0.5c0.2,0,0,0.2,0.1,0.2
								c0.1-0.2-0.1-0.6,0.1-0.7c0,0.1-0.1,0.3-0.1,0.4c0.3-0.2,0.2-0.2,0.3-0.4l0,0l0.2-0.4l-0.1,0.1c-0.3-0.4,0.2-0.6,0.1-1.1
								c0.1,0.5,0.1,0.1,0.3,0.2c0.1-0.1,0.2-0.2,0.2-0.1c-0.1-0.2,0.2-0.3,0.2-0.6c0.1,0,0.1-0.2,0.2-0.1c0.1-0.3-0.1,0-0.2,0
								c0-0.4,0.6-0.8,0.6-1.4c0.1-0.5,0-0.7,0.1-1.1c0.2-0.1,0.1,0.2,0.1,0.2c0.2-0.2,0.3-0.4,0.3-0.6c0,0.1,0.1,0,0.2,0
								c0.1-0.2-0.1-0.2,0.1-0.4c0,0.1,0.1,0.2,0.1,0.3c0.1-0.2,0.1-0.5,0.2-0.7c0.1,0,0.1,0.2,0.1,0.3c0.1-0.2,0.3-0.6,0.2-0.8
								l-0.1,0.1c0-0.1,0.1,0,0.1,0.1c0,0.3-0.2,0.3-0.3,0.2l0.1-0.2c-0.4,0-0.3,0.6-0.5,0.9l-0.1-0.2l0,0.4c-0.1,0-0.2,0-0.2-0.1
								c-0.2,0.2,0,0.2-0.2,0.3c0,0,0,0,0,0l0,0.2c0-0.1-0.2,0-0.1-0.2c-0.3,0.3-0.1,0.7-0.4,0.8l0,0c-0.2,0.6,0.1,0.1,0.1,0.6
								l-0.5,0.1l0.1,0.1c0,0.1-0.1,0.2-0.1,0.1c0,0.3,0.1,0,0.1,0.2c-0.3,0.2-0.3,0.8-0.5,0.7c0.1,0.1,0.2-0.2,0.2,0.1
								c-0.3,0-0.1,0.4-0.3,0.5c-0.1-0.1,0.1-0.3-0.2-0.1c0.2,0.2-0.3,0.5-0.3,0.7c0.2,0.1-0.1,0.5-0.2,0.9c-0.1,0-0.4,0.6-0.6,0.9
								l0,0c0.2,0.1,0,0.5,0,0.7c-0.1-0.1-0.1-0.1-0.1-0.3l-0.1,0.2c0,0.1,0,0.2,0,0.3l-0.1-0.1c-0.1,0.3-0.1,0.7-0.3,1
								c0.1,0.1,0.5-0.2,0.4,0.3c-0.1,0-0.2,0-0.2-0.2c0,0,0,0.2,0,0.2l-0.1-0.2c-0.1,0.2,0.1,0.1,0,0.3c-0.1,0-0.1,0.1-0.2,0
								c0,0,0.1-0.1,0.1-0.2c-0.1,0.2-0.2,0.3-0.3,0.4c0.1,0,0.1,0.1,0.1,0.2c-0.1,0.3-0.2,0.1-0.3,0.2c0,0.1-0.1,0.3,0.1,0.3
								c0,0.1-0.1,0.1-0.2,0.1c0,0.2-0.2,0.8,0,0.6l0,0l0,0l0,0l0,0c0,0.6-0.5,1.1-0.6,1.6l-0.1,0c0,0.3-0.2,0.7-0.2,1
								c0,0.1-0.2,0.2-0.2,0.1c0,0.3,0,0.3-0.2,0.6c0-0.3-0.1,0.1,0-0.3c-0.2,0.3-0.3,0.3-0.2,0.7c-0.1-0.2-0.3,0.2-0.3,0.3l0.2-0.2
								c0,0.2-0.1,0.3-0.2,0.5l-0.2-0.1c-0.4,0.6,0,1.3-0.6,1.6c0.1,0.2,0.2-0.3,0.3-0.1c-0.1,0.3-0.5,0.5-0.5,0.6
								c-0.2,0.4,0.1,0.5-0.1,0.9c0.1,0,0.3,0,0.2,0.3c-0.1,0.3-0.4,0.3-0.4,0.1c0-0.1,0.1-0.1,0.1-0.1c0-0.1,0-0.2-0.1-0.1l0.1,0.1
								c-0.1,0.1-0.3,0.5-0.3,0.4c0,0.2,0.1,0.1,0.2,0c-0.2,0.3-0.2,0.6-0.4,0.9c0.1,0,0.2-0.1,0.1,0c-0.3,0.5,0,0.3-0.1,0.7
								c-0.2,0.2-0.2-0.2-0.3,0.3c-0.1,0.2-0.2,0-0.2-0.1c0,0.4-0.3,0.6-0.4,0.8l0-0.2c0,0.1,0,0.2-0.1,0.3l0.2-0.1
								c-0.1,0.1-0.1,0.2-0.1,0.2c0,0.1,0.2,0,0.3,0.3c-0.1,0.1-0.1,0.5-0.3,0.5c0.2-0.4-0.2,0-0.1-0.4c0,0.1,0,0.2-0.1,0.3
								c0,0,0,0,0-0.1c-0.3,0.4,0.1,0.3,0,0.7c-0.1-0.1-0.2,0-0.2,0.1c0.1-0.2,0.2,0,0.2,0.2c-0.2,0.3-0.1,0.3-0.1,0.5l0.1-0.2
								c0.1,0.1,0,0.2,0,0.4c-0.1,0,0-0.2,0-0.1c0.1,0.3-0.4,0.4-0.3,0.8c-0.1,0.1-0.2-0.1-0.3,0.1c0,0.4-0.3,0.3-0.3,0.7
								c0.2-0.1,0.1-0.1,0.2,0.2l0.1-0.6l0.1,0.5c0.1-0.2,0.1-0.4,0.1-0.5c0,0.2,0,0.2,0.2,0.1c-0.3,0.2-0.1,0.5-0.3,0.8l-0.3-0.1
								c-0.3,0.4-0.1,0.8-0.4,1.4l0.1-0.2c0.1,0.1-0.1,0.4-0.1,0.6c-0.1-0.1-0.2,0-0.3,0.1c0.1,0-0.2,0.4,0,0.5L99,77.7
								c-0.2,0.4,0.1,0.6-0.1,1c-0.1-0.2-0.2,0-0.2-0.3c-0.1,0.1-0.1,0.3,0,0.3c-0.1,0.1,0,0.5-0.1,0.6c0,0.1,0.1,0.1,0.1,0.3
								c0,0-0.1,0-0.1,0c0.1,0,0,0.3,0.2,0.2c-0.5,0.3-0.4,1.3-0.9,1.5c-0.1,0.3-0.2,0.6-0.4,0.9c0,0,0,0,0-0.1
								c-0.3,0.2,0.1,0.4-0.3,0.6c-0.3,0,0.1-0.2,0-0.2c-0.3-0.3-0.4,0.4-0.8,0.3l0.1-0.1c-0.3,0-0.4,0.4-0.8,0.6c0,0,0,0,0-0.1
								c-0.2,0.3-0.6,0.6-0.9,0.8c0-0.2,0.1-0.1,0-0.2c-0.1,0.1,0.2,0.2-0.1,0.4c-0.1,0-0.4,0-0.5-0.1l0.3-0.2
								c-0.2-0.1-0.4,0.2-0.5,0.2l0-0.1c-0.4,0.3-0.3,0.5-0.8,0.7l0.1,0c-0.2,0.3-0.3,0-0.5,0.3l-0.2-0.2c-0.1,0.1-0.5,0.5-0.8,0.7
								c0.1-0.2,0.4-0.5,0.6-0.7c-0.2,0.1-0.6,0.3-0.6,0.5c0.1-0.1,0.1-0.1,0.2-0.2c-0.1,0.3-0.4,0.5-0.7,0.7
								c-0.1-0.4-0.9,0.4-1.4,0.2c-0.5,0.5-1.2,0.6-1.9,0.9c0.4,0.2-0.2,0.1,0,0.4c-0.2,0.1-0.2,0.1-0.2,0.1l-0.6,0.1
								c-0.2,0,0.1-0.1,0.1-0.2c-0.4,0.2-0.2-0.1-0.5,0c0.1,0.1,0,0.2-0.3,0.3l0.4,0c-0.4,0.4-0.6,0-1,0.4l0.1-0.2
								c-0.2,0.2-1,0.5-1.1,0.9c-0.1,0-0.2-0.1-0.1-0.1c-0.6,0.3-1.2,1.1-1.7,1.3l0-0.1c-0.1,0.1-0.1,0.3-0.3,0.3c0,0,0-0.1-0.1-0.1
								c0,0.1-0.2,0.3-0.4,0.4l0.1-0.2c-0.6,0.4-0.7,0.9-1.1,1.3c-0.2-0.2-0.6,0.2-0.8,0.3l0,0c-0.6,0.6-0.7,1.2-1.2,1.8
								c-0.5,0.2-1.1,1-1.8,1.3c0.1,0,0.1,0.2,0,0.3c-0.2,0.1-0.3,0.4-0.4,0.2l0.1,0c-0.2-0.1-0.5,0.1-0.7,0.3l0.1,0.3
								c-0.8,0-1.5,1.2-2,1c-0.1,0.2-0.3,0.3-0.4,0.4l-0.1-0.1c-0.4,0.2-0.7,0.4-1.1,0.8l0-0.2c-0.3,0.2-0.1,0.7-0.3,0.9l-0.2-0.1
								c-0.5,0.4-1.1,0.6-1.4,1.2c0,0-0.1-0.1,0-0.2c-0.2,0.2-0.9,0.7-0.6,0.8c-0.2-0.1-0.4,0.4-0.6,0.7l-0.1-0.1
								c0,0.3,0,0.4-0.2,0.7c-0.1,0.1-0.1,0,0-0.1c-0.3,0.2,0,0.3-0.3,0.5l0-0.2c-0.2,0.2-0.1,0.2-0.2,0.5c-0.1,0.2-0.4,0.5-0.5,0.4
								c0,0.1,0,0.3-0.1,0.4c-0.1,0,0-0.1,0-0.1c-0.4,0.4-0.3,0.7-0.6,0.9c0,0-0.1,0-0.1,0c0.2-0.4,0.4-0.6,0.4-0.6
								c-0.1-0.1-0.3,0.2-0.4-0.2c-0.1,0.3-0.1,0.8-0.3,1c0,0,0,0-0.1,0l0,0c-0.1,0.1-0.1,0.1-0.1,0.2c-0.1,0.1-0.1,0.1-0.2,0.2
								c-0.1,0-0.2,0.3-0.3,0.4c0.1,0.1,0,0.2,0.2,0.1c0,0,0,0,0-0.1c0,0,0-0.1,0-0.1l0,0c0-0.1,0.1-0.2,0.2-0.4
								c0,0.2,0,0.3-0.2,0.4c0,0.1,0.1,0.3,0.1,0.3c-0.3,0.1-0.6,0.4-0.8,0.4c-0.2,0.5-0.5,1.1-0.3,1.5c0,0.1-0.2,0.1-0.2,0.1
								c0-0.1,0.1-0.2,0-0.2c-0.1,0.3-0.3,0.8-0.2,0.9c-0.2,0.3-0.1-0.3-0.3,0.2l0-0.1c-0.7,0.8-0.1,1.7-0.9,2.5
								c0.1-0.1,0.1-0.1,0.1-0.1c-0.6,1.1-0.7,2.4-1.3,3.5c-0.2,0.3,0,0.4,0,0.6l-0.2,0l0.1,0.4c0,0.5-0.7,0.7-0.6,1.4l0.1,0
								c-0.1,0.2-0.1,0.7-0.3,0.6c0,0,0.1,0.1,0,0.2l-0.1,0l0,0.6c-0.2,0.4-0.3-0.2-0.5,0.4c0,0.2,0.1,0.7,0.2,0.7
								c0-0.1,0.1-0.2,0.2-0.2l0,0.2c0.2,0.1,0.5,0.3,0.8-0.1l-0.1-0.4l0.2-0.1L63,119c0.2-0.1,0.1-0.3,0.1-0.4c0.1,0,0.1,0,0.2-0.1
								l-0.2-0.4c0.1,0,0.2,0.2,0.3,0c-0.1-0.2-0.3,0.1-0.3-0.2c0.2-0.1,0.2-0.1,0.2-0.3c0.1,0,0.1,0,0.1,0.1c0-0.2,0.1-0.5,0-0.6
								c0.2-0.1,0.1-0.6,0.4-0.5c0-0.1-0.1-0.4-0.1-0.5c0.2,0.4,0.2-0.6,0.5-0.4c-0.2-0.3,0.1-0.8,0.1-1.3c0,0,0,0.1,0,0.1
								c0.1-0.2,0.2-0.2,0.3-0.4c-0.2-0.1-0.2-0.5-0.2-0.7c0.3-0.2,0.2,0.2,0.4,0.2c-0.2,0,0-0.5-0.2-0.5c0.2-0.2,0.1-0.2,0.3-0.2
								c-0.3-0.1,0-0.2-0.1-0.4c0.2-0.2,0.3,0,0.3-0.3C65.3,112.1,65.3,112.4,65.3,112.4z M68.1,104.9L68.1,104.9
								c0,0.1-0.1,0.1-0.1,0.1C68.1,105.1,68.1,105,68.1,104.9z M68.5,104.4c0,0.1-0.1,0.2-0.2,0.2c-0.1,0-0.1-0.1-0.1-0.1
								C68.3,104.5,68.4,104.4,68.5,104.4z M66.8,105c0-0.1,0.1-0.1,0.1-0.1C66.9,104.9,66.9,105,66.8,105L66.8,105
								C66.8,105.1,66.8,105,66.8,105z"/>
							<path fill="#202020" d="M66.9,105.3C66.9,105.3,66.9,105.3,66.9,105.3C66.9,105.3,66.9,105.3,66.9,105.3L66.9,105.3
								L66.9,105.3z"/>
							<path fill="#202020" d="M105.4,60.6L105.4,60.6C105.4,60.6,105.4,60.6,105.4,60.6C105.4,60.6,105.4,60.6,105.4,60.6z"/>
							<polygon fill="#202020" points="75.2,98.2 75.2,98.2 75.1,98.2 							"/>
							<path fill="#202020" d="M107.1,57.3C107.2,57.3,107.2,57.3,107.1,57.3C107.2,57.2,107.2,57.3,107.1,57.3z"/>
							<path fill="#202020" d="M107.8,55.8l0.1-0.2C107.8,55.7,107.8,55.7,107.8,55.8z"/>
							<path fill="#202020" d="M108.3,54.7C108.3,54.6,108.2,54.6,108.3,54.7L108.3,54.7L108.3,54.7z"/>
							<path fill="#202020" d="M101.8,73.4C101.8,73.4,101.8,73.4,101.8,73.4C101.8,73.5,101.8,73.5,101.8,73.4z"/>
							<path fill="#202020" d="M103.4,67.7c0,0.1,0,0.1,0,0.2C103.4,67.8,103.5,67.7,103.4,67.7z"/>
							<polygon fill="#202020" points="99.8,79.7 99.8,79.7 99.7,79.7 							"/>
							<path fill="#202020" d="M103.3,68.1c0.1-0.1,0.1-0.2,0.1-0.3C103.4,68,103.3,68.1,103.3,68.1z"/>
							<path fill="#202020" d="M110.7,49.9L110.7,49.9C110.7,49.8,110.7,49.8,110.7,49.9L110.7,49.9z"/>
							<path fill="#202020" d="M110.7,49.8L110.7,49.8C110.7,49.8,110.7,49.8,110.7,49.8z"/>
							<path fill="#202020" d="M110.8,49.6l0,0.1C110.8,49.7,110.8,49.7,110.8,49.6z"/>
							<path fill="#202020" d="M109.8,51.3L109.8,51.3C109.9,51.3,109.9,51.3,109.8,51.3z"/>
							<path fill="#202020" d="M109.6,51.7c0.1-0.1,0.2-0.2,0.3-0.4l0,0C109.9,51.4,109.6,51.6,109.6,51.7z"/>
							<path fill="#202020" d="M108.1,53.3l0.2-0.4c-0.1,0-0.2,0.1-0.1-0.1C107.8,53.3,108.3,52.8,108.1,53.3z"/>
							<path fill="#202020" d="M107.5,54.5c0.1-0.2-0.1,0-0.1-0.1C107.4,54.6,107.4,54.6,107.5,54.5z"/>
							<path fill="#202020" d="M104.3,63.4l-0.1-0.1C104.1,63.5,104.2,63.3,104.3,63.4z"/>
							<polygon fill="#202020" points="104.4,65.3 104.5,65.2 104.4,65.1 							"/>
							<polygon fill="#202020" points="103,66 103,65.9 103,66.2 							"/>
							<path fill="#202020" d="M97.8,80.9l0.2,0C98,80.8,97.8,80.7,97.8,80.9z"/>
							<path fill="#202020" d="M92.8,84.7c-0.1,0-0.3,0-0.4,0.1C92.6,84.7,92.8,84.7,92.8,84.7z"/>
							<polygon fill="#202020" points="75.9,96 76,95.9 75.8,96.1 							"/>
						</g>
					</g>
				</g>
			</g>
		</g>
	</g>
</g>
</svg>
