<?xml version="1.0" encoding="utf-8"?>
<!-- Generator: Adobe Illustrator 18.0.0, SVG Export Plug-In . SVG Version: 6.00 Build 0)  -->
<!DOCTYPE svg PUBLIC "-//W3C//DTD SVG 1.1//EN" "http://www.w3.org/Graphics/SVG/1.1/DTD/svg11.dtd">
<svg version="1.1" id="Layer_1" xmlns="http://www.w3.org/2000/svg" xmlns:xlink="http://www.w3.org/1999/xlink" x="0px" y="0px"
	 viewBox="0 0 144 144" enable-background="new 0 0 144 144" xml:space="preserve">
<g>
	<g>
		<g>
			<g>
				<g>
					<g>
						<g>
							<path fill="#202020" d="M29.3,63.2c-0.1,0-0.1,0.1,0,0.2l0.2,0L29.3,63.2z"/>
							<path fill="#202020" d="M29.8,64.4c0.2,0.1,0.5,0.2,0.5,0c-0.3-0.1-0.3-0.2-0.6-0.2c-0.1-0.1-0.2-0.3-0.1-0.3
								c-0.1,0-0.1-0.3-0.3-0.3c0,0.3,0.2,0.5,0.5,0.7C29.9,64.4,29.8,64.4,29.8,64.4z"/>
							<path fill="#202020" d="M44.4,72.8l-0.1,0C44.3,72.8,44.3,72.8,44.4,72.8z"/>
							<path fill="#202020" d="M55,73.9c-0.1,0-0.1,0-0.1,0C55,74,55,74,55,73.9z"/>
							<path fill="#202020" d="M57.1,73.9c0,0-0.1,0-0.1,0C57,73.9,57.1,73.9,57.1,73.9z"/>
							<path fill="#202020" d="M44.4,72.8l0.3,0C44.7,72.7,44.5,72.8,44.4,72.8z"/>
							<path fill="#202020" d="M31.7,66.2c0,0-0.1-0.1-0.1-0.1L31.7,66.2L31.7,66.2z"/>
							<path fill="#202020" d="M39.3,73.8L39.3,73.8c-0.1,0-0.2,0-0.2,0.1L39.3,73.8z"/>
							<path fill="#202020" d="M35.5,72.3c0.1,0.1,0.2,0,0.3-0.1c-0.1,0-0.2,0-0.2,0C35.5,72.2,35.5,72.2,35.5,72.3z"/>
							<path fill="#202020" d="M31.7,67.3L31.7,67.3C31.6,67.2,31.6,67.3,31.7,67.3z"/>
							<path fill="#202020" d="M42.2,73.6C42.2,73.6,42.2,73.6,42.2,73.6C42.2,73.6,42.2,73.6,42.2,73.6z"/>
							<path fill="#202020" d="M28.7,59.4C28.7,59.4,28.6,59.4,28.7,59.4C28.7,59.4,28.7,59.4,28.7,59.4z"/>
							<path fill="#202020" d="M29.7,63.8L29.7,63.8c-0.1,0-0.1,0-0.1,0L29.7,63.8z"/>
							<path fill="#202020" d="M60.6,72.1C60.6,72.1,60.6,72.1,60.6,72.1C60.5,72.2,60.5,72.2,60.6,72.1z"/>
							<path fill="#202020" d="M65.7,42.5c0.2,0.4-0.6-0.3-0.3,0.2C65.4,42.6,66,42.9,65.7,42.5z"/>
							<path fill="#202020" d="M31.7,66.3l0.1,0.1C31.8,66.3,31.7,66.3,31.7,66.3z"/>
							<path fill="#202020" d="M65.4,42.7L65.4,42.7L65.4,42.7C65.4,42.7,65.4,42.7,65.4,42.7z"/>
							<path fill="#202020" d="M65.9,65.7c0,0-0.1,0-0.1,0C65.9,65.7,65.9,65.7,65.9,65.7z"/>
							<path fill="#202020" d="M61.8,70.3l0.1-0.1C61.9,70.2,61.8,70.2,61.8,70.3z"/>
							<path fill="#202020" d="M67.8,63.1c0.1-0.1,0.1-0.1,0.2-0.2c0,0,0,0,0,0C67.9,63,67.9,63,67.8,63.1z"/>
							<path fill="#202020" d="M69.1,59.7L69.1,59.7c0,0.1,0,0.2,0,0.2L69.1,59.7z"/>
							<path fill="#202020" d="M30.1,50.1c-0.1,0.1-0.1,0.1-0.2,0.1C30.1,50.2,30,50.8,30.1,50.1z"/>
							<path fill="#202020" d="M31.6,66.2c0,0,0.1,0,0.1,0L31.6,66.2C31.6,66.2,31.6,66.2,31.6,66.2z"/>
							<path fill="#202020" d="M66.9,62.2l0.3-0.4C67.2,61.9,67.1,62,66.9,62.2z"/>
							<path fill="#202020" d="M45.3,35.3l-0.1,0C45.2,35.3,45.2,35.3,45.3,35.3z"/>
							<path fill="#202020" d="M67.9,60.7c0.1,0,0.1-0.1,0.1-0.2c0,0,0,0,0,0L67.9,60.7z"/>
							<path fill="#202020" d="M30,50.3L30,50.3L30,50.3z"/>
							<path fill="#202020" d="M28.8,53.7c0.2-0.4-0.1-0.3-0.2-0.4c0.2-0.5,0.3-0.1,0.5-0.2c0.1-0.3,0.2-0.7,0.3-1c0,0,0.1,0,0.1,0
								c0.1-0.4,0.6-1.3,0.4-1.8c0,0,0,0,0.1-0.1c-0.1,0.1-0.2,0.1-0.3,0c0-0.2-0.1-0.4,0.1-0.5c0,0.1,0,0.2,0.1,0.2l0-0.3
								c0.2-0.2,0,0.3,0.2,0.4c0-0.5-0.1-1.1-0.1-1.4c0.2-0.1,0,0.9,0.2,0.4L30,49.6c0.3-0.4-0.1,0.4,0.3,0c0.1-0.8-0.1-0.9,0-1.6
								c-0.1-0.2-0.2,0.1-0.3-0.1c-0.2-1,0.5-0.8,0.3-1.4c-0.1-0.2-0.3-0.3-0.1-0.7l0.2,0.2c0.2-0.5-0.2-0.5,0.3-0.9
								c0,0.1-0.2,0.4-0.1,0.4c0.3-0.2,0-0.3,0.2-0.5L31,45c0.3-0.4,1-0.9,1.7-1.2c0,0.1-0.1,0.2,0.1,0.2c0.5-0.2,1-0.5,1.6-0.8
								c0.6-0.3,1-0.8,1.4-1.2l0.1-0.4c0.1-0.1,0.2-0.1,0.1,0c0.3-0.3-0.1-0.1,0-0.3c0.1-0.2,0.2-0.2,0.2,0c0.3-0.7,0.8-1.8,1.5-2.1
								l-0.1,0.1c0.4-0.3,0.2-0.7,0.6-0.9l0,0.1c0.9-0.8,1.9-1.6,2.8-1.8c0-0.3,1.1-0.4,1-0.7c0.7-0.1,0.5,0,1.5-0.1
								c0.2,0,0.3-0.3,0.6-0.4l0,0.2l0.4-0.3l0.3,0.2l0.3-0.1c-0.1,0-0.3,0-0.2-0.1c0.4-0.1,1.1,0,1.1,0.1c0,0,0.3-0.1,0.5-0.1
								c0.3,0,0.5-0.1,0.5-0.1c0,0.1-0.2,0.1-0.3,0.1c0.6-0.2,0.1,0.2,0.6,0c-0.1,0,0-0.1,0.1-0.1c0.3,0.1,0.8,0.2,1.3,0.2l-0.1,0.1
								c0.8,0.2,1.6,0.3,2.5,0.6c-0.3-0.2-0.1-0.3,0.1-0.3l0,0.2c0.2,0-0.2-0.2,0.2-0.2c0.3,0.2,0.1,0.3-0.1,0.3l0.4,0.1
								c0,0.1-0.1,0-0.2,0.1c0.2,0,0.5,0.5,0.8,0.4l0,0.1c0.8,0.4,1.1,0.6,1.7,1c0.1-0.1,0.3,0.1,0.6,0.1c0.4,0.4,0.7,0.9,1.2,1.4
								c0.4,0.3,0.2,0,0.4,0.1c-0.1,0.1,0.4,0.6,0.1,0.4c0.7,0.6,0.8,0.8,1.9,1.2C58.2,41.1,58,41,58.1,41c0.2,0.1,0.4,0.2,0.4,0.3
								l-0.1,0c1.3,0.2,2.8,0.7,3.6,0.7l0,0c0,0,0.9,0.1,0.9,0.1c0.4,0.2-0.3,0,0,0.2c1,0.1,1.3,0.7,1.9,1.1
								c0.1,0.4,0.4,0.7,0.8,1.1c0.3,0.4,0.6,0.9,0.6,1.3l0.1-0.1c0.2,0.2,0,0.2,0.1,0.4c0.1,0,0-0.2,0.1-0.1
								c0.3,0.8,0.4,1.7,0.2,2.7c-0.2,0.9-0.5,1.9-0.7,2.8c-0.2,0.7,0.4,0.5,0,1.4l-0.1-0.3c0,0.8-0.1,1.6-0.1,2.4
								c0,0.8,0.1,1.6,0.5,2.4c-0.1-0.1-0.1-0.1-0.2-0.2c0,0.4,0.5,1.2,0.6,1.1c0.1,0.2-0.1,0.1,0,0.3c0.1,0.4,0.7,0.6,0.7,0.8
								c0,0-0.1,0-0.1-0.1c0.2,0.1,0.6,0.6,0.6,0.4c0.1,0.2,0.2,0.3,0.2,0.4c0.1,0.1,0.1,0.3,0,0.4c0.2,0.2-0.3,0.6-0.1,0.8
								c-0.2-0.1-0.6,0.6-0.8,0.9c0-0.1-0.3,0.2-0.3,0c-0.2,0.3-0.4,0.6-0.3,0.6c-0.7,0.4-0.7,1.3-1.3,1.3c-0.6,1-1.2,1.9-1.9,2.7
								c-0.2-0.2,0.7-0.9,0.5-1c-0.6,0.8-0.7,1.4-1.4,2.1c-0.2,0.2,0-0.2,0-0.3c-0.5,0.8-1.2,1.5-1.7,2.2c0,0,0-0.1,0.1-0.2
								c-0.1,0.1-0.3,0.3-0.2,0.3l0.1-0.1c0.3-0.1-0.2,0.7-0.1,0.8c-0.1-0.4-0.6,0.6-0.6-0.1c-0.1,0.1-0.1,0.2,0,0.3
								c-0.1,0.1-0.2,0.1-0.1-0.1c-0.4,0.5-0.1,0.4-0.5,0.8c0,0,0-0.1,0-0.2c-0.1,0.3-0.3,0.5-0.7,0.7c0,0-0.1-0.1,0-0.1
								c-0.6,0.4-1,0.9-1.9,1c0.2-0.3-0.3,0-0.4-0.2L56,72.9l0.2,0.1c-0.4,0.1-0.7,0.3-1.1,0.2l0.3-0.1c0,0-0.7,0.1-0.7,0.1
								c0,0,0.1,0,0.2,0c0.1,0,0.2,0,0.2,0c-0.4,0.1,0,0.3-0.5,0.2c0.1,0-0.4,0-0.6-0.2l0,0c-0.2,0.1-0.4,0.1-0.7,0
								c-0.1-0.1,0.1-0.2,0.1-0.3c-0.2,0.1-0.9-0.2-1.2-0.1c0.1,0,0.1-0.1,0.1-0.1l-0.2,0.1c-0.2-0.1-0.2-0.2-0.1-0.2
								c-0.5-0.3,0,0.3-0.5-0.1c0.1,0,0,0,0.1,0c-0.6-0.3-1.1-0.6-1.6-1.1c0-0.3,0.5,0.3,0.4,0c-0.4-0.3-1-0.5-1.5-0.6
								c-0.6,0-1.1,0.1-1.5,0.2l0.2,0c0,0.3-0.7,0-1.1,0.4c0.1-0.1,0.1-0.2,0.1-0.2c-0.6,0.2-1.1,0.6-2,1l0.1-0.1
								c-0.4,0.1-0.9,0.3-1.3,0.3c-0.1,0.1-0.3,0.2-0.1,0.2C42,72.5,41,73.4,40,73c0.1,0,0.3-0.1,0.2-0.1c0,0-0.2,0-0.4,0
								c-0.2,0-0.4,0-0.4,0c0.1,0.1,0.1,0.1,0.3,0.2c-0.1,0.1-0.4,0.1-0.6,0.1c0.4,0,0-0.2-0.1-0.3c0,0,0,0.1,0,0.1
								c-0.4-0.3-0.1,0.3-0.7,0l0.1-0.1c-0.2,0-0.5,0-0.7-0.1c0-0.2,0.3,0,0.3-0.1c-0.3-0.1-0.8,0-1-0.3c0.2,0,0.4,0.1,0.5,0.2
								c-0.2-0.3-0.3-0.3-0.5-0.4l0,0c0,0-0.1-0.1-0.2-0.2c-0.1-0.1-0.2-0.2-0.2-0.2l0.1,0.1c-0.6,0.1-0.8-0.5-1.4-0.7
								c0.6,0.2,0.2,0,0.3-0.1c-0.1-0.1-0.2-0.3-0.1-0.3c-0.3-0.1-0.2-0.4-0.7-0.6c0-0.1-0.2-0.2,0-0.3c-0.3-0.3,0,0.1-0.1,0.2
								c-0.5-0.3-0.7-1.2-1.4-1.7c-0.5-0.5-0.8-0.5-1.2-1c-0.1-0.2,0.3,0,0.3,0c-0.2-0.3-0.3-0.6-0.6-0.8c0.1,0,0.1-0.1,0.1-0.2
								c-0.2-0.2-0.3,0-0.4-0.4c0.1,0,0.2,0,0.3,0.1c-0.2-0.2-0.5-0.4-0.8-0.7c0-0.1,0.2,0.1,0.4,0.1c-0.3-0.3-0.7-0.7-0.9-0.7
								l0.1,0.2c-0.1-0.1,0.1-0.1,0.1-0.1c0.3,0.2,0.2,0.4,0.2,0.5l-0.2-0.2c-0.1,0.4,0.6,0.7,0.9,1.1l-0.3,0l0.5,0.3
								c0,0.1,0,0.3-0.2,0.1c0.1,0.4,0.3,0.2,0.3,0.5c0,0,0,0,0,0l0.3,0.2c-0.1,0-0.1,0.1-0.2,0c0.3,0.6,0.7,0.7,0.7,1l0,0
								c0.6,0.6,0.2,0,0.7,0.3l-0.1,0.6l0.2,0c0,0.1,0.1,0.2,0.1,0.2c0.3,0.2,0-0.1,0.2,0c0.1,0.4,0.8,0.9,0.6,1.1
								c0.2,0-0.2-0.4,0.2-0.1c-0.1,0.3,0.4,0.4,0.6,0.7c-0.2,0-0.4-0.3-0.2,0.1c0.3,0,0.5,0.6,0.8,0.8c0.1-0.1,0.6,0.4,1.2,0.6
								c-0.1,0.1,0.9,0.6,1.4,0.8l0,0c0.2-0.2,0.7,0,1.1,0c0,0.1-0.1,0.2-0.3,0.2c0,0,0.4,0.1,0.4,0c0.1-0.1,0.2-0.1,0.5-0.1
								l-0.1,0.2c0.5,0,1-0.2,1.6-0.1c0-0.1-0.5-0.4,0.1-0.5c0,0.1,0.1,0.2-0.1,0.3c0.1,0,0.2-0.1,0.3-0.1l-0.2,0.2
								c0.3,0,0.1-0.1,0.4-0.1c0,0.1,0.2,0.1,0.2,0.1c-0.1,0-0.2,0-0.3,0c0.3,0,0.6,0,0.7,0.1c0-0.1,0-0.2,0.2-0.2
								c0.5-0.1,0.2,0.1,0.5,0.1c0.1-0.1,0.4-0.1,0.4-0.3c0.1,0,0.2,0,0.2,0.1c0.2-0.1,1.1-0.4,0.8-0.5l-0.1,0l0,0l0,0l0,0
								c0.7-0.4,1.6-0.5,2.3-0.9l0,0.1c0.4-0.2,1-0.4,1.3-0.6c0.1,0,0.3,0.1,0.3,0.1c0.3-0.1,0.4-0.2,0.8,0c-0.3,0,0.1,0.1-0.3,0
								c0.4,0.1,0.4,0.2,0.9,0.3c-0.2,0,0.2,0.3,0.4,0.4L49.6,72c0.2,0.1,0.4,0.3,0.5,0.4L50,72.5c0.3,0.4,0.8,0.6,1.2,0.7
								c0.4,0.1,0.8,0.2,1.1,0.5c0.3,0-0.5-0.3-0.2-0.3c0.4,0.2,0.8,0.6,1,0.6c0.6,0.2,0.7-0.2,1.3,0c-0.1-0.1-0.1-0.3,0.3-0.3
								c0.5,0,0.6,0.3,0.3,0.3c-0.1,0-0.2,0-0.2,0c-0.2,0-0.4,0-0.2,0.1l0.1-0.1c0.2,0.1,0.9,0,0.7,0.2c0.4-0.1,0.1-0.1-0.1-0.1
								c0.6,0.1,1-0.1,1.6-0.2c-0.1,0-0.2-0.1-0.1-0.1c0.9-0.2,0.4-0.2,0.9-0.5c0.4,0,0,0.3,0.5,0c0.4-0.1,0.2,0.1,0,0.2
								c0.5-0.4,1-0.5,1.3-0.6l-0.2,0.2c0.1-0.1,0.3-0.2,0.4-0.3l-0.2,0c0.2-0.1,0.3-0.2,0.3-0.1c0.1-0.2-0.2-0.1,0-0.4
								c0.2-0.1,0.5-0.5,0.7-0.4c-0.6,0.5,0.2,0.1-0.3,0.5c0.1-0.1,0.2-0.2,0.3-0.3c0,0,0,0,0,0.1c0.6-0.4,0.1-0.4,0.6-0.9
								c0,0.1,0.3,0,0.3-0.1c-0.2,0.2-0.2,0-0.1-0.3c0.4-0.3,0.3-0.4,0.4-0.6l-0.2,0.2c0-0.1,0.1-0.3,0.3-0.6c0.1,0-0.1,0.3,0,0.2
								c0.1-0.4,0.6-0.5,0.9-0.9c0.2-0.1,0.2,0.1,0.3,0c0.2-0.5,0.5-0.4,0.8-0.9c-0.2,0-0.2,0.1-0.1-0.3l-0.5,0.8l0.2-0.6
								c-0.2,0.2-0.3,0.5-0.4,0.6c0.1-0.3,0.1-0.2-0.1-0.2c0.4-0.2,0.4-0.7,0.8-0.9l0.3,0.2c0.5-0.4,0.6-1,1.2-1.6L65,66.4
								c0-0.2,0.3-0.4,0.5-0.7c0.1,0.1,0.2,0,0.3-0.1c-0.1,0,0.4-0.5,0.3-0.7l0.4-0.2c0.5-0.5,0.3-0.8,0.7-1.3c0,0.2,0.2,0.1,0,0.5
								c0.1-0.2,0.3-0.3,0.2-0.4c0.1-0.1,0.3-0.6,0.5-0.7c0-0.1,0-0.2,0.1-0.4c0,0,0,0,0,0c0,0,0.2-0.4-0.1-0.3
								c0.4-0.2,0.6-0.6,0.8-1.1c0.2-0.5,0.2-1,0.2-1.5c-0.2-0.6-0.8-1-1.1-1.3c0,0,0,0,0.1,0c-0.3-0.5-0.5,0-0.8-0.7
								c0-0.4,0.3,0.2,0.2,0c0.3-0.3-0.4-0.6-0.3-1.1l0,0.1c0-0.3-0.3-0.7-0.4-1.3c0,0,0,0,0.1,0c-0.2-0.4-0.3-1.1-0.3-1.7
								c0.1,0.2,0.1,0.3,0.2,0.2c0-0.2-0.2,0.1-0.2-0.4c0.1-0.2,0.2-0.5,0.4-0.5l-0.1,0.5c0.2-0.2,0.1-0.6,0.2-0.8l0.1,0
								c0.1-0.7-0.1-0.8,0.1-1.5l-0.1,0.1c-0.1-0.5,0.2-0.3,0.1-0.8l0.2-0.1c0-0.3,0-1,0-1.5c0.1,0.3,0.1,0.9,0.2,1.3
								c0.1-0.3,0.1-1,0-1.1c0,0.1,0,0.3,0,0.4c-0.1-0.4-0.2-0.8-0.1-1.4c0.2,0.1,0.3-0.3,0.2-0.8c0-0.5-0.1-1,0-1.2
								c-0.4-1-0.7-2-1.6-3c0,0.6-0.3-0.3-0.5,0c-0.2-0.2-0.3-0.3-0.3-0.3c0,0-0.1-0.2-0.3-0.4C65,42.2,64.9,42,64.9,42
								c-0.1-0.2,0.3,0.1,0.3,0c-0.5-0.4-0.1-0.3-0.4-0.6c0,0.2-0.3,0-0.6-0.2l0.4,0.4c-0.4-0.2-0.6-0.3-0.7-0.5
								c-0.1-0.2-0.3-0.3-0.8-0.4l0.3,0c-0.4-0.1-1.7-0.5-2.2-0.2c-0.1,0-0.2-0.2,0-0.2c-1.1-0.1-2.2,0.1-2.7-0.4l0.1,0
								c-0.1,0-0.3,0-0.5-0.2c0,0,0.1,0,0-0.1c-0.1,0-0.4-0.1-0.6-0.3l0.2,0.1c-0.6-0.7-1.2-0.8-1.8-1.4c0.2-0.2-0.3-0.8-0.6-1.1
								l0,0c-0.9-0.8-1.8-1.1-2.8-1.5c-0.5-0.6-2.1-1-3.2-1.4c0.2,0.1-0.1,0.2-0.3,0.2c-0.3-0.1-0.7,0.1-0.7-0.2l0.1,0
								c-0.2-0.3-0.7-0.3-1.1-0.3l-0.1,0.3c-0.5-0.3-1.3-0.2-1.9-0.1c-0.7,0.1-1.2,0.3-1.6,0.2c-0.2,0.1-0.6,0.2-0.8,0.4l0-0.2
								c-0.7,0.2-1.1,0.3-1.9,0.7l0.1-0.2c-0.5,0.2-0.4,0.7-0.8,0.9l-0.2-0.1c-0.8,0.4-1.7,0.8-2.2,1.5c0,0,0-0.1,0.1-0.2
								c-0.3,0.3-1.3,1-1,1.1c-0.2-0.1-0.7,0.7-0.9,1.1l-0.1-0.2c-0.1,0.5-0.1,0.5-0.3,1c-0.1,0.1-0.2,0,0-0.1
								c-0.3,0.3-0.1,0.4-0.4,0.8l0-0.2c-0.3,0.4-0.2,0.4-0.2,0.6c-0.1,0.3-0.5,0.6-0.7,0.5c0,0.1,0,0.3-0.3,0.5c-0.1,0,0-0.1,0-0.1
								c-0.6,0.3-0.7,0.7-1.2,0.8c0,0-0.1-0.1-0.1-0.1c0.5-0.2,0.9-0.4,0.9-0.4c-0.1-0.1-0.4,0.1-0.3-0.3c-0.2,0.3-0.7,0.7-1.1,0.8
								c0,0-0.1,0-0.1,0l0,0c-0.1,0-0.2,0.1-0.3,0.1c-0.1,0-0.2,0.1-0.4,0.1c-0.1-0.1-0.6,0.2-0.8,0.3c0.1,0.1-0.2,0.3,0.1,0.2
								c0,0,0,0,0.2-0.1c0,0,0.1,0,0.1-0.1l0,0c0.1-0.1,0.3-0.2,0.6-0.3c-0.1,0.2-0.3,0.3-0.6,0.4c-0.1,0.2-0.1,0.3-0.2,0.4
								c-0.4,0-1,0.4-1.2,0.4c-0.5,0.8-0.7,1.9-0.5,2.4c0,0.2-0.1,0.2-0.2,0.3c0-0.1,0-0.3,0-0.3c0,0.4,0,1.3,0.2,1.4
								c-0.1,0.5-0.2-0.3-0.2,0.4l-0.1-0.1c-0.2,0.7-0.1,1.2,0,1.8c0,0.6,0,1.2-0.6,1.7c0.1-0.1,0.1-0.1,0.2-0.1
								c-0.5,0.6-1.1,1.5-1.3,2.4C27,55.1,27,56,26.9,56.9c0,0.5,0.1,0.6,0.3,0.8l-0.1,0.1l0.3,0.5c0.3,0.7-0.1,1.4,0.5,2.2l0.1-0.2
								c0.1,0.3,0.5,1,0.3,1c0,0,0.2,0.1,0.2,0.2l-0.1,0l0.5,0.7c0.2,0.6-0.4,0.1,0,0.9c0.2,0.3,0.7,0.8,0.7,0.6
								c-0.1-0.1-0.1-0.3,0-0.4l0.2,0.3c0.3-0.1,0.6,0,0.4-0.8l-0.4-0.4l0-0.2l0.2,0.4c0-0.3-0.2-0.4-0.3-0.5c0-0.1,0.1-0.2,0-0.3
								l-0.5-0.4c0.1-0.1,0.3,0.1,0.2-0.2c-0.2-0.2-0.1,0.3-0.4,0c0-0.3,0.1-0.3-0.1-0.5c0-0.1,0.1,0,0.2,0.1
								c-0.2-0.2-0.3-0.6-0.5-0.7c0.1-0.3-0.3-0.8-0.1-0.9c-0.1-0.1-0.3-0.4-0.4-0.6c0.4,0.3-0.2-0.9,0.2-0.8
								c-0.3-0.3-0.3-1.1-0.5-1.6c0,0,0.1,0.1,0.1,0.1c0-0.3,0.1-0.4,0.2-0.6c-0.2,0-0.2-0.5-0.3-0.8c0.3-0.3,0.2,0.3,0.5,0.2
								c-0.2,0-0.1-0.6-0.2-0.6c0.2-0.2,0.1-0.2,0.3-0.3c-0.3-0.1,0-0.3,0-0.5c0.3-0.3,0.3,0,0.4-0.4C28.9,53.3,28.8,53.7,28.8,53.7
								z M32.7,43.7L32.7,43.7c-0.1,0-0.2,0.1-0.2,0.1C32.6,43.8,32.6,43.8,32.7,43.7z M33.7,43.3c-0.1,0.1-0.3,0.1-0.4,0.2
								c-0.1,0,0-0.1,0.1-0.1C33.3,43.4,33.5,43.3,33.7,43.3z M31.3,43.1c0.1-0.1,0.2-0.1,0.2-0.1C31.4,43.1,31.4,43.1,31.3,43.1
								l0,0.1C31.2,43.2,31.2,43.2,31.3,43.1z"/>
							<path fill="#202020" d="M31.1,43.5C31.1,43.5,31.1,43.5,31.1,43.5C31.1,43.5,31.1,43.5,31.1,43.5L31.1,43.5L31.1,43.5z"/>
							<path fill="#202020" d="M44.2,72.8L44.2,72.8C44.2,72.8,44.2,72.8,44.2,72.8C44.2,72.8,44.2,72.8,44.2,72.8z"/>
							<polygon fill="#202020" points="44.2,35.6 44.2,35.5 44.2,35.6 							"/>
							<path fill="#202020" d="M38.8,73C38.8,72.9,38.8,72.9,38.8,73C38.8,72.9,38.8,72.9,38.8,73z"/>
							<path fill="#202020" d="M36.8,72.2L36.5,72C36.6,72.1,36.7,72.1,36.8,72.2z"/>
							<path fill="#202020" d="M35.5,71.1C35.4,71.1,35.4,71.1,35.5,71.1L35.5,71.1L35.5,71.1z"/>
							<path fill="#202020" d="M60.9,69.7C60.9,69.7,60.9,69.6,60.9,69.7C61,69.5,61,69.6,60.9,69.7z"/>
							<path fill="#202020" d="M54,73.3c0.1,0,0.2,0,0.3,0C54.1,73.2,54,73.2,54,73.3z"/>
							<polygon fill="#202020" points="66.9,62.2 66.9,62.2 66.9,62.2 							"/>
							<path fill="#202020" d="M54.7,73.2c-0.1,0-0.3,0-0.4,0C54.4,73.2,54.5,73.3,54.7,73.2z"/>
							<path fill="#202020" d="M30.7,64.9L30.7,64.9C30.6,64.8,30.6,64.8,30.7,64.9L30.7,64.9z"/>
							<path fill="#202020" d="M30.6,64.8L30.6,64.8C30.6,64.8,30.6,64.8,30.6,64.8z"/>
							<path fill="#202020" d="M30.4,64.6l0.2,0.1C30.5,64.7,30.5,64.6,30.4,64.6z"/>
							<path fill="#202020" d="M32.1,66.9L32.1,66.9C32.1,66.8,32.1,66.8,32.1,66.9z"/>
							<path fill="#202020" d="M32.5,67.4c-0.1-0.1-0.2-0.4-0.3-0.6l-0.1,0C32.3,66.9,32.4,67.4,32.5,67.4z"/>
							<path fill="#202020" d="M33.8,70.3l-0.3-0.5c0,0.1,0,0.3-0.1,0.1C33.7,70.6,33.3,69.6,33.8,70.3z"/>
							<path fill="#202020" d="M35.1,71.8C34.8,71.6,35,71.9,35.1,71.8C35.2,72,35.2,72,35.1,71.8z"/>
							<path fill="#202020" d="M48.2,71.6l0,0.1C48.4,71.7,48.2,71.7,48.2,71.6z"/>
							<polygon fill="#202020" points="50.8,71.9 50.6,71.6 50.5,71.7 							"/>
							<path fill="#202020" d="M51.6,73.5l-0.1,0c0,0,0.4,0.1,0.4,0.1C51.9,73.7,51.6,73.5,51.6,73.5z"/>
							<path fill="#202020" d="M69.3,60.4l-0.2,0.1C69.2,60.7,69.4,60.8,69.3,60.4z"/>
							<path fill="#202020" d="M67.3,51.3c0.1-0.1,0.2-0.4,0.2-0.5C67.4,50.9,67.3,51.1,67.3,51.3z"/>
							<polygon fill="#202020" points="46.7,33.9 46.9,33.8 46.5,33.9 							"/>
						</g>
					</g>
				</g>
			</g>
		</g>
		<g>
			<g>
				<g>
					<g>
						<g>
							<path fill="#202020" d="M43.2,50.9c0,0,0.2,0,0.2,0l-0.2-0.1L43.2,50.9z"/>
							<path fill="#202020" d="M43.7,50.5c-0.1-0.1-0.2-0.3-0.4-0.2c0.2,0.1,0.1,0.1,0.3,0.3c0,0.1-0.1,0.1-0.2,0.1
								c0,0-0.1,0.1,0,0.2c0.2-0.1,0.2-0.2,0.1-0.3C43.6,50.4,43.7,50.4,43.7,50.5z"/>
							<path fill="#202020" d="M48.3,47.1L48.3,47.1C48.3,47.1,48.3,47.1,48.3,47.1z"/>
							<path fill="#202020" d="M52,50.1C51.9,50.1,51.9,50.1,52,50.1C52,50.1,52,50.1,52,50.1z"/>
							<path fill="#202020" d="M52.7,50.5C52.7,50.5,52.6,50.5,52.7,50.5C52.6,50.5,52.7,50.6,52.7,50.5z"/>
							<path fill="#202020" d="M48.3,47.1l0,0.1C48.4,47.2,48.3,47.2,48.3,47.1z"/>
							<path fill="#202020" d="M43.6,49.3C43.6,49.3,43.6,49.4,43.6,49.3L43.6,49.3L43.6,49.3z"/>
							<path fill="#202020" d="M47.1,46.6L47.1,46.6C47.1,46.7,47.1,46.7,47.1,46.6L47.1,46.6z"/>
							<path fill="#202020" d="M46,47.5c0,0-0.1-0.1-0.1-0.2C45.9,47.4,45.9,47.4,46,47.5C45.9,47.5,45.9,47.5,46,47.5z"/>
							<path fill="#202020" d="M44.4,49.3L44.4,49.3C44.4,49.3,44.4,49.3,44.4,49.3z"/>
							<path fill="#202020" d="M47.7,46.7C47.7,46.7,47.7,46.7,47.7,46.7C47.7,46.7,47.7,46.7,47.7,46.7z"/>
							<path fill="#202020" d="M34.5,54.1C34.5,54.1,34.5,54.1,34.5,54.1C34.5,54,34.5,54,34.5,54.1z"/>
							<polygon fill="#202020" points="35.3,52.3 35.3,52.3 35.4,52.3 							"/>
							<path fill="#202020" d="M53.9,51.1L53.9,51.1C53.9,51.2,53.9,51.2,53.9,51.1z"/>
							<path fill="#202020" d="M50,60.1c0.2,0.1-0.1,0.3,0.1,0.3C50.1,60.3,50.2,60.1,50,60.1z"/>
							<path fill="#202020" d="M43.6,49.3C43.7,49.2,43.7,49.2,43.6,49.3C43.7,49.2,43.7,49.3,43.6,49.3z"/>
							<path fill="#202020" d="M50.1,60.4L50.1,60.4L50.1,60.4C50.1,60.4,50.1,60.4,50.1,60.4z"/>
							<path fill="#202020" d="M53.8,52.2C53.8,52.2,53.8,52.1,53.8,52.2C53.8,52.1,53.8,52.1,53.8,52.2z"/>
							<path fill="#202020" d="M54.5,51L54.5,51C54.5,51,54.5,51,54.5,51z"/>
							<path fill="#202020" d="M53.8,53.6C53.7,53.6,53.7,53.6,53.8,53.6L53.8,53.6C53.7,53.6,53.7,53.6,53.8,53.6z"/>
							<polygon fill="#202020" points="53.6,54.9 53.7,54.9 53.7,54.8 							"/>
							<path fill="#202020" d="M34.6,58.1c0,0,0.1-0.1,0.1-0.1C34.6,58.1,34.5,57.9,34.6,58.1z"/>
							<path fill="#202020" d="M43.7,49.3C43.7,49.3,43.6,49.3,43.7,49.3L43.7,49.3C43.7,49.3,43.7,49.3,43.7,49.3z"/>
							<path fill="#202020" d="M55,53.7l0,0.2C55,53.9,55,53.8,55,53.7z"/>
							<path fill="#202020" d="M41.8,58.7L41.8,58.7C41.8,58.7,41.8,58.7,41.8,58.7z"/>
							<path fill="#202020" d="M54.9,54.6c-0.1,0-0.1,0.1-0.1,0.1c0,0,0,0,0,0L54.9,54.6z"/>
							<path fill="#202020" d="M34.7,58.1L34.7,58.1L34.7,58.1z"/>
							<path fill="#202020" d="M34.3,56.6c0,0.2,0.2,0.1,0.3,0.1c0.1,0.2-0.2,0.1-0.3,0.2c0.1,0.2,0.3,0.3,0.2,0.4c0,0,0,0-0.1,0
								c0.2,0.2,0,0.5,0.2,0.7c0,0,0,0-0.1,0c0.1,0,0.2,0,0.3,0c0,0.1,0.1,0.2,0,0.2c0-0.1-0.1-0.1-0.1-0.1l0.1,0.1
								c-0.2,0.1-0.1-0.1-0.2-0.1c0.1,0.2,0.3,0.4,0.3,0.6c-0.2,0.1-0.2-0.4-0.3-0.1c0,0,0-0.3,0-0.3c-0.3,0.2,0-0.2-0.3,0
								c0,0.4,0.1,0.5,0.3,0.9c0.2,0,0.1-0.1,0.3-0.1c0.3,0.2,0.3,0.3,0.3,0.5c0,0.1,0,0.3,0.3,0.3c0.2-0.1,0.3-0.3,0.4,0l-0.2,0.2
								c0.3,0.1,0.3-0.2,0.5,0c-0.1,0.1-0.2,0-0.2,0c0.1,0.2,0.2-0.1,0.3,0l-0.1,0.2c0.3,0.1,0.7,0.1,1,0.2c0,0-0.1,0.1-0.1,0.2
								c0.2,0,0.4,0.1,0.6,0.2c0.2,0.1,0.6,0.3,1,0.5c0,0,0.2-0.1,0.2-0.1c0.1,0,0.1,0.1,0.1,0.1c0.2-0.1,0-0.1,0-0.3
								c0.1-0.1,0.2-0.1,0.1,0.1c0.1-0.3,0.3-0.6,0.4-0.9c0.1-0.2,0.2-0.3,0.4-0.4l0,0.1c0.2-0.1-0.1-0.4,0.1-0.5l0,0.1
								c0.4-0.4,0.5-0.9,0.9-0.9c-0.1-0.1,0-0.2,0.1-0.2c0.1,0,0.1,0,0-0.2c0.2,0.1,0.2,0.2,0.2,0.3c0,0,0.1-0.1,0.1-0.2
								c0,0,0,0,0.1,0l-0.1,0.2c0,0,0.2-0.1,0.2-0.1c0,0-0.1,0.2-0.1,0.2c0,0,0.1,0,0.1,0c0,0,0-0.1,0.1-0.1c0.1,0,0.2,0.4,0.1,0.5
								c0,0,0.4,0.3,0.4,0.3c-0.1,0-0.1,0-0.2,0c0.3,0.1-0.1,0.2,0.2,0.2c0-0.1,0.1-0.1,0.1-0.1c0,0.2,0.2,0.4,0.4,0.5L42.7,60
								c0.3,0.3,0.6,0.5,1,0.7c-0.1-0.1,0.1-0.3,0.2-0.2l-0.1,0.2c0.1-0.1-0.1-0.1,0.1-0.2c0.1,0.1,0,0.2-0.1,0.2l0.2,0
								c0,0.1-0.1,0.1-0.1,0.1c0.1-0.1,0.2,0.3,0.4,0.2l0,0.1c0.4,0.2,0.6,0.2,0.9,0.3c0.1-0.1,0.2-0.1,0.3-0.2
								c0.2,0.1,0.4,0.3,0.7,0.4c0.2,0,0.1-0.1,0.2-0.2c0,0.1,0.3,0.2,0.1,0.3c0.4,0,0.5,0.1,0.9,0c0-0.1-0.1-0.1-0.1-0.1
								c0.1,0,0.2,0.1,0.2,0.1l0,0c0.5-0.2,1.2,0.4,1.6,0l0,0c0,0,0.4-0.2,0.4-0.2c0.2,0-0.1,0.1,0.1,0.2c0.4-0.4,0.7-0.2,1-0.5
								c0.5,0.3,0.9-0.5,1.4-0.5l-0.1-0.1c0-0.1,0.1,0,0.2-0.1c-0.1-0.1-0.1,0-0.1-0.1c0.6-0.6,1.4-1.1,2-1.8
								c0.2-0.3-0.4-0.4,0.1-0.7l0.1,0.2c0.1-0.7,0.6-1.2,0.5-1.9c0,0,0.1,0.1,0.1,0.1c0.2-0.1,0.1-0.5,0-0.5c0-0.1,0.1,0,0.2-0.1
								c0.1-0.1-0.1-0.4,0-0.4c0,0,0,0,0,0.1c-0.1-0.1,0.1-0.4-0.1-0.3c0.1-0.2,0-0.4,0.1-0.6c-0.2-0.1,0.1-0.4-0.1-0.4
								c0.3,0,0.2-0.4,0.1-0.5c0.1,0.1,0.1-0.1,0.2,0c0-0.1,0-0.3-0.2-0.3c0.3-0.2-0.2-0.6,0.3-0.6c0-0.2,0-0.4,0-0.6
								c0-0.1,0-0.2,0.1-0.3c0.1-0.1,0.1-0.3,0.2-0.4c0.1,0,0,0.2-0.1,0.3c-0.1,0.2-0.1,0.2,0,0.3c0-0.1,0.1-0.2,0.1-0.3
								c0.1-0.1,0.1-0.2,0.2-0.4c0.2-0.2,0.3-0.4,0.7-0.7c0.3-0.2,0.2,0,0.2,0.1c0.1-0.1,0.2-0.2,0.3-0.3c-0.1,0-0.1-0.1-0.2-0.1
								c-0.1,0-0.2-0.1-0.3-0.1c-0.2-0.1-0.5-0.1-0.8-0.1c0,0,0.1,0,0.2,0c-0.1,0-0.2-0.1-0.3,0l0.1,0c-0.1,0.2-0.8,0.2-0.8,0.3
								c0.4-0.2-0.4-0.2,0.2-0.5c-0.1,0-0.2,0-0.2,0.1c-0.1,0-0.1-0.1,0.1-0.1c-0.4,0-0.3,0.1-0.6,0c0-0.1,0.1-0.1,0.1-0.1
								c-0.2,0.1-0.3,0.1-0.5,0c0,0,0-0.1,0.1-0.1c-0.3-0.1-0.6,0.1-0.9-0.1c0.2-0.2-0.1-0.1,0-0.3l-0.2,0l0,0.1
								c-0.2-0.1-0.3,0-0.4-0.1l0.1,0l-0.3-0.1l0.1,0.1c-0.2,0-0.1,0.3-0.3,0.1c0.1,0-0.2-0.1-0.2-0.2l0,0c-0.1,0-0.2,0.1-0.3,0
								c0-0.1,0.1-0.2,0.1-0.3c-0.1,0.1-0.4-0.1-0.5,0c0.1,0,0.1-0.1,0.1-0.1L51.1,49c0-0.1,0-0.1,0-0.2c-0.2-0.1-0.1,0.3-0.2,0
								c0,0,0,0,0.1,0c-0.2-0.2-0.5-0.2-0.7-0.4c0.1-0.2,0.2,0.1,0.2-0.1c-0.3-0.2-0.7-0.2-0.9-0.5l0,0.1c-0.2,0.2-0.1-0.3-0.3-0.3
								c0,0,0.2-0.1,0.1-0.1c-0.1-0.2-0.4-0.3-0.6-0.5l0.1,0c0-0.1-0.2-0.3-0.2-0.5c-0.1,0-0.1-0.1-0.2,0c0-0.3-0.3-0.6-0.6-0.6
								c-0.3-0.1-0.5,0-0.9,0c0.1,0,0.1-0.1,0.1-0.1c0,0-0.1,0.1-0.2,0.1c-0.1,0.1-0.2,0.1-0.2,0.1c0.1,0.1,0.1,0,0.2,0.1
								c0,0.1-0.1,0.2-0.1,0.2c0.1-0.2-0.1-0.2-0.2-0.2c0,0,0,0.1,0.1,0.1c-0.3-0.1,0.1,0.2-0.2,0.3l0-0.1c-0.1,0.1-0.1,0.2-0.2,0.3
								c-0.1-0.1,0-0.1,0-0.2c-0.1,0.1-0.1,0.4-0.3,0.4c0-0.1,0.1-0.1,0.1-0.2c-0.2,0-0.2,0-0.3,0l0,0l-0.3,0.1l0.1,0
								c0.1,0.4-0.2,0.3-0.2,0.7c0-0.3-0.1-0.1-0.2-0.3c-0.1,0-0.2,0.1-0.2,0c0,0.2-0.2,0.1-0.2,0.4c0,0-0.1,0.1-0.2,0
								c-0.1,0.2,0.1,0,0.1,0.1c0,0.3-0.5,0.3-0.5,0.8c-0.1,0.3,0.1,0.5,0,0.7c-0.1,0-0.1-0.2-0.1-0.2c-0.1,0.1-0.2,0.2-0.2,0.4
								c0,0-0.1,0-0.2,0c0,0.1,0.2,0.1,0,0.3c0,0-0.1-0.1-0.2-0.2c0,0.1,0,0.3,0,0.5c-0.1,0-0.1-0.1-0.2-0.2c0,0.2-0.1,0.4,0.1,0.5
								l0.1-0.1c0,0.1-0.1,0-0.1-0.1c-0.1-0.2,0.1-0.2,0.2-0.2l0,0.1c0.3,0,0.1-0.4,0.2-0.6l0.2,0.2L44,49.3c0.1,0,0.2,0,0.2,0.1
								c0.2-0.1,0-0.1,0.1-0.2c0,0,0,0,0,0l0-0.2c0,0,0.2,0.1,0.1,0.1c0.2-0.1,0-0.4,0.2-0.4l0,0c0.1-0.3-0.1-0.1-0.2-0.4l0.5,0.1
								l-0.1-0.1c0,0,0.1-0.1,0.1,0c0-0.2-0.1,0-0.1-0.2c0.2,0,0.2-0.4,0.5-0.3c-0.1-0.1-0.2,0.1-0.1-0.1c0.3,0.2,0.1-0.2,0.3-0.2
								c0.1,0.1-0.1,0.2,0.1,0.2c-0.1-0.2,0.2-0.2,0.3-0.3c-0.1-0.2,0.1-0.3,0.3-0.4c0,0.1,0.4-0.2,0.6-0.2l0,0
								c-0.1-0.2,0.1-0.3,0.2-0.4c0.1,0.1,0.1,0.2,0,0.3l0.1-0.1c0-0.1,0-0.1,0.1-0.2l0,0.2c0.1-0.1,0.2-0.3,0.3-0.1
								c0.1-0.1-0.1-0.5,0.2-0.5c0,0.1,0,0.2-0.1,0.2c0,0,0.1-0.1,0.1,0c0,0-0.1,0.1-0.1,0.1c0.1,0.1,0.1-0.1,0.1-0.1
								c0,0.1,0,0.1,0,0.2c0,0,0-0.1-0.1,0c0.1,0,0.1,0.2,0.1,0.2c0-0.1,0.1-0.1,0.1-0.1c0.1,0.1-0.1,0.1-0.1,0.2
								c0.1,0,0.1,0.1,0.2,0c0,0,0,0.1-0.1,0.1c0.1,0,0.3,0.3,0.4,0.2l0,0l0,0l0,0l0,0c0.3,0.2,0.3,0.6,0.6,0.8l0,0
								c0.2,0.1,0.3,0.3,0.5,0.3c0,0,0,0.2,0,0.2c0.1,0.1,0.2,0,0.3,0.2c-0.2,0,0,0.1-0.2,0c0.1,0.2,0.1,0.3,0.4,0.3
								c-0.1,0.1,0,0.2,0.1,0.3L49.9,49c0.1,0,0.2,0.1,0.2,0.2L50,49.3c0.2,0.4,0.8,0,0.9,0.5c0.2-0.1-0.2-0.2,0-0.3
								c0.1,0.1,0.2,0.4,0.3,0.5c0.2,0.2,0.3-0.2,0.5,0c0-0.1,0-0.3,0.2-0.2c0.2,0.1,0.1,0.3,0,0.4c0,0-0.1,0,0-0.1
								c-0.1,0-0.1,0-0.1,0.1l0-0.1c0.1,0.1,0.3,0.2,0.2,0.3c0.2,0,0.1-0.1,0-0.2c0.2,0.2,0.3,0.1,0.6,0.3c0,0,0-0.1,0-0.1
								c0.3,0.2,0.2-0.1,0.4,0c0.1,0.1-0.1,0.2,0.1,0.2c0.1,0.1,0,0.2-0.1,0.2c0.3-0.1,0.4,0.2,0.5,0.3l-0.1,0c0.1,0,0.1,0,0.2,0
								l0-0.2c0.1,0,0.1,0.1,0.1,0.1c0.1-0.1,0-0.2,0.2-0.3c0.1,0.1,0.2,0,0.1,0.2c-0.1-0.1-0.1,0.2-0.2,0.2c0,0,0,0,0.1,0
								c0,0,0,0,0,0c0,0.2,0.1-0.2,0.3-0.1c-0.1,0.1-0.1,0.2-0.1,0.1c0,0,0.1-0.1,0.3-0.2c0,0.1,0.1,0,0.2,0l0,0
								c0.1-0.1,0.2,0,0.3,0c-0.1,0.1-0.1,0-0.2,0c0.3-0.1,0,0.1,0.1,0.1c-0.2,0.1-0.3,0.1-0.4,0.1c0,0,0,0,0,0c0,0-0.3,0.1-0.2,0.1
								c0.2,0,0.2,0,0.3,0c0,0,0-0.1,0-0.1c0,0,0.2,0,0.2,0c0.1,0,0-0.1,0-0.1c0.1,0,0.1,0,0.3-0.1c-0.4,0.1,0,0.1-0.3,0.3l-0.4,0
								c-0.2,0,0.1,0.1-0.2,0.5l0.1-0.1c0.1,0.1-0.1,0.2-0.1,0.4c-0.1,0-0.2,0-0.3,0c0.1,0-0.1,0.3,0.1,0.4l-0.2,0.1
								c-0.1,0.3,0.3,0.4,0.2,0.7c-0.1-0.1-0.2,0-0.3-0.2c0,0.1,0,0.2,0,0.2c-0.1,0,0.1,0.3,0,0.3c0,0,0.2,0.1,0.1,0.2
								c0,0-0.1,0-0.1,0c0.1,0,0.1,0.2,0.2,0.1c-0.4,0.2,0,0.8-0.4,1c0,0.2,0,0.4,0,0.6c0,0-0.1,0,0,0c-0.1,0.2,0.3,0.2,0.1,0.4
								c-0.2,0.1-0.1-0.2-0.2-0.1c-0.4,0,0,0.3-0.3,0.4l0,0c-0.2,0.1,0.1,0.3,0,0.5c0,0,0,0-0.1,0c0.1,0.2,0.1,0.5,0,0.7
								c-0.1-0.1,0-0.1-0.2-0.1c0,0.1,0.2,0.1,0.2,0.3c-0.1,0-0.2,0.1-0.4,0.1l0.1-0.2c-0.2,0-0.1,0.2-0.2,0.3l-0.1-0.1
								c-0.1,0.2,0.1,0.4-0.1,0.6l0.1,0c0.1,0.3-0.2,0-0.1,0.3l-0.2-0.1c0,0.1-0.1,0.4-0.2,0.6c-0.1-0.2,0-0.4,0-0.6
								c-0.1,0.1-0.2,0.3-0.2,0.4c0,0,0-0.1,0.1-0.1c0.1,0.2,0,0.4-0.2,0.6c-0.3-0.3-0.5,0.3-0.8,0.1c-0.2,0.3-0.6,0.4-1,0.6
								c0.3,0.2-0.1,0.1,0.1,0.4c-0.1,0.1-0.1,0.1-0.1,0.1l-0.4-0.1c-0.1-0.1,0.1-0.1,0-0.2c-0.2,0.1-0.1-0.1-0.3-0.1
								c0.1,0.1,0,0.2-0.1,0.2l0.2,0.1c-0.2,0.3-0.3-0.2-0.6,0.1l0.1-0.1c-0.1,0.1-0.5,0.1-0.6,0.4c0,0-0.1-0.1,0-0.2
								c-0.3,0-0.8,0.3-1.1,0.1l0-0.1c-0.1,0-0.1,0.2-0.2,0.1c0,0,0-0.1,0-0.1c0,0-0.2,0.1-0.3,0.1l0.1-0.1
								c-0.3-0.2-0.6,0.1-0.9,0.1c0.1-0.2-0.2-0.4-0.3-0.5l0,0c-0.4-0.2-0.7-0.1-1.1-0.2c-0.1-0.4-0.6-0.5-0.8-0.9
								c0,0.1-0.1,0.1-0.2,0.1c0-0.1-0.3-0.1-0.1-0.2l0,0c0.1-0.2-0.1-0.3-0.1-0.4l-0.2,0.2c0-0.3-0.1-0.4-0.3-0.6
								c0-0.1-0.1-0.1-0.1-0.1c-0.1-0.1-0.1-0.1-0.2-0.2c-0.1-0.1-0.2-0.2-0.2-0.4l0,0c-0.2,0-0.4-0.1-0.5,0l0-0.2
								c-0.5-0.1-0.8,0-1.3,0.3l0-0.2c-0.3,0.2,0,0.6-0.2,0.7l-0.2-0.1c-0.3,0.3-0.7,0.5-0.7,0.9c0,0-0.1-0.1-0.1-0.1
								c-0.1,0.1-0.5,0.4-0.2,0.6C39.1,59,39,59.4,39,59.6l-0.1-0.1c0.1,0.3,0.1,0.2,0.1,0.4c0,0-0.1-0.1,0-0.1
								c-0.1,0,0,0.2-0.1,0.2l0-0.1c-0.1,0.1,0,0.1,0,0.2c-0.1,0-0.2-0.1-0.2-0.3c0,0.1-0.1,0.2-0.2,0.1c0-0.1,0-0.1,0.1-0.1
								c-0.2-0.2-0.5,0-0.6-0.2c0-0.1,0-0.1,0-0.1c0.2,0.1,0.4,0.2,0.4,0.2c0-0.1-0.1-0.2,0.1-0.4c-0.2,0.1-0.5,0.2-0.6,0.1
								c0,0,0,0,0-0.1l0,0c0,0-0.1,0-0.1,0c0,0-0.1-0.1-0.1-0.1c0-0.1-0.2-0.1-0.3-0.2c-0.1,0.2-0.2,0.1-0.1,0.2c0,0,0,0,0.1,0
								c0,0,0,0,0,0c0,0,0,0,0,0c0.1,0,0.1,0,0.2,0.1c-0.1,0-0.2,0.1-0.3,0c-0.1,0.1-0.2,0.2-0.2,0.2c0-0.3-0.2-0.5-0.2-0.6
								c-0.3,0-0.6-0.2-0.9,0c-0.1,0,0-0.1,0-0.2c0,0,0.1,0,0.1,0c-0.2,0-0.2-0.2-0.4-0.1c0-0.2,0.2,0,0.1-0.2l0.1,0
								c0.2-0.3-0.6-0.7-0.2-1.3c0,0,0,0.1-0.1,0.1c0.2-0.7-0.2-1.5,0.1-2.1c0.1-0.2-0.1-0.2-0.2-0.3l0.2,0l-0.2-0.2
								c-0.1-0.3,0.4-0.5,0.2-0.9l-0.1,0c0-0.1-0.1-0.4,0.1-0.4c0,0-0.1,0-0.1-0.1l0.1,0l-0.2-0.3c0.1-0.3,0.4,0,0.4-0.3
								c0-0.1-0.3-0.4-0.3-0.3c0,0.1-0.1,0.1-0.1,0.1l0-0.1c-0.3,0-0.5-0.1-0.7,0.2l0.2,0.2l-0.1,0.1l0-0.2c-0.1,0.1,0,0.2,0.1,0.2
								c-0.1,0-0.1,0-0.1,0.1l0.3,0.2c-0.1,0-0.2-0.1-0.3,0c0.1,0.1,0.2-0.1,0.3,0.1c-0.1,0.1-0.2,0.1-0.1,0.2c-0.1,0-0.1,0-0.1-0.1
								c0.1,0.1,0,0.3,0.2,0.3c-0.2,0.1,0,0.4-0.2,0.4c0.1,0,0.2,0.2,0.2,0.3c-0.3-0.2,0,0.4-0.3,0.3c0.3,0.1,0.1,0.5,0.3,0.7
								c0,0-0.1,0-0.1-0.1c0,0.1-0.1,0.2-0.2,0.3c0.2,0,0.3,0.2,0.4,0.3c-0.2,0.2-0.3-0.1-0.5,0c0.2,0,0.2,0.3,0.3,0.2
								c-0.1,0.1-0.1,0.1-0.3,0.2c0.3,0,0,0.1,0.2,0.2c-0.1,0.2-0.3,0-0.2,0.2C34.4,56.8,34.3,56.6,34.3,56.6z M37.4,60.4L37.4,60.4
								C37.3,60.4,37.3,60.4,37.4,60.4C37.3,60.4,37.3,60.4,37.4,60.4z M37.8,60.6c0,0-0.1,0-0.2-0.1c0-0.1,0-0.1,0.1-0.1
								C37.7,60.5,37.7,60.5,37.8,60.6z M37.4,59.2C37.5,59.2,37.5,59.3,37.4,59.2C37.4,59.3,37.4,59.3,37.4,59.2L37.4,59.2
								C37.4,59.3,37.4,59.3,37.4,59.2z"/>
							<path fill="#202020" d="M37.2,59.4C37.2,59.4,37.2,59.4,37.2,59.4C37.2,59.4,37.2,59.4,37.2,59.4L37.2,59.4L37.2,59.4z"/>
							<path fill="#202020" d="M48.3,47.1L48.3,47.1C48.3,47.1,48.3,47,48.3,47.1L48.3,47.1z"/>
							<polygon fill="#202020" points="41.6,58.6 41.6,58.6 41.6,58.6 							"/>
							<path fill="#202020" d="M46.6,46.1C46.6,46.1,46.5,46.1,46.6,46.1C46.5,46.1,46.5,46.1,46.6,46.1z"/>
							<path fill="#202020" d="M45.7,46.7l-0.1,0C45.7,46.7,45.7,46.7,45.7,46.7z"/>
							<path fill="#202020" d="M45.1,47.1C45.1,47.2,45.2,47.2,45.1,47.1L45.1,47.1L45.1,47.1z"/>
							<path fill="#202020" d="M55.8,50.2C55.8,50.2,55.8,50.2,55.8,50.2C56,50.2,55.9,50.2,55.8,50.2z"/>
							<path fill="#202020" d="M51.8,49.3c0,0,0.1,0,0.1,0C51.9,49.3,51.9,49.3,51.8,49.3z"/>
							<polygon fill="#202020" points="55,53.7 55,53.7 55,53.7 							"/>
							<path fill="#202020" d="M52.1,49.4c0-0.1-0.1-0.1-0.1-0.1C52,49.3,52.1,49.4,52.1,49.4z"/>
							<path fill="#202020" d="M43.4,49.9L43.4,49.9C43.3,50,43.4,50,43.4,49.9L43.4,49.9z"/>
							<path fill="#202020" d="M43.4,50L43.4,50C43.4,50,43.4,50,43.4,50z"/>
							<path fill="#202020" d="M43.4,50.1L43.4,50.1C43.4,50.1,43.3,50.1,43.4,50.1z"/>
							<path fill="#202020" d="M43.8,49L43.8,49C43.8,49,43.8,49,43.8,49z"/>
							<path fill="#202020" d="M43.9,48.7c0,0.1-0.2,0.1-0.2,0.2l0,0C43.7,48.9,44,48.8,43.9,48.7z"/>
							<path fill="#202020" d="M45.2,48.1L45,48.3c0.1,0,0.2,0,0.1,0.1C45.5,48.3,45,48.3,45.2,48.1z"/>
							<path fill="#202020" d="M45.8,47.6C45.7,47.7,45.8,47.7,45.8,47.6C45.9,47.6,45.9,47.6,45.8,47.6z"/>
							<path fill="#202020" d="M49.4,48.5l-0.1,0.1C49.3,48.7,49.3,48.6,49.4,48.5z"/>
							<polygon fill="#202020" points="50.6,48.5 50.6,48.4 50.5,48.5 							"/>
							<polygon fill="#202020" points="50.6,49.7 50.6,49.7 50.8,49.8 							"/>
							<path fill="#202020" d="M53.5,54.7l0.2,0C53.7,54.6,53.5,54.5,53.5,54.7z"/>
							<path fill="#202020" d="M52.6,58.2c-0.1,0-0.2,0-0.2,0.1C52.5,58.3,52.6,58.2,52.6,58.2z"/>
							<polygon fill="#202020" points="43.2,58.4 43.3,58.4 43.2,58.3 							"/>
						</g>
					</g>
				</g>
			</g>
		</g>
	</g>
	<g>
		<g>
			<g>
				<g>
					<g>
						<g>
							<path fill="#202020" d="M47.3,105.2c-0.1,0-0.1,0.1,0,0.2l0.2,0L47.3,105.2z"/>
							<path fill="#202020" d="M47.8,106.4c0.2,0.1,0.5,0.2,0.5,0c-0.3-0.1-0.3-0.2-0.6-0.2c-0.1-0.1-0.2-0.3-0.1-0.3
								c-0.1,0-0.1-0.3-0.3-0.3c0,0.3,0.2,0.5,0.5,0.7C47.9,106.4,47.8,106.4,47.8,106.4z"/>
							<path fill="#202020" d="M62.4,114.8l-0.1,0C62.3,114.8,62.3,114.8,62.4,114.8z"/>
							<path fill="#202020" d="M73,115.9c-0.1,0-0.1,0-0.1,0C73,116,73,116,73,115.9z"/>
							<path fill="#202020" d="M75.1,115.9c0,0-0.1,0-0.1,0C75,115.9,75.1,115.9,75.1,115.9z"/>
							<path fill="#202020" d="M62.4,114.8l0.3,0C62.7,114.7,62.5,114.8,62.4,114.8z"/>
							<path fill="#202020" d="M49.7,108.2c0,0-0.1-0.1-0.1-0.1L49.7,108.2L49.7,108.2z"/>
							<path fill="#202020" d="M57.3,115.8L57.3,115.8c-0.1,0-0.2,0-0.2,0.1L57.3,115.8z"/>
							<path fill="#202020" d="M53.5,114.3c0.1,0.1,0.2,0,0.3-0.1c-0.1,0-0.2,0-0.2,0C53.5,114.2,53.5,114.2,53.5,114.3z"/>
							<path fill="#202020" d="M49.7,109.3L49.7,109.3C49.6,109.2,49.6,109.3,49.7,109.3z"/>
							<path fill="#202020" d="M60.2,115.6C60.2,115.6,60.2,115.6,60.2,115.6C60.2,115.6,60.2,115.6,60.2,115.6z"/>
							<path fill="#202020" d="M46.7,101.4C46.7,101.4,46.6,101.4,46.7,101.4C46.7,101.4,46.7,101.4,46.7,101.4z"/>
							<path fill="#202020" d="M47.7,105.8L47.7,105.8c-0.1,0-0.1,0-0.1,0L47.7,105.8z"/>
							<path fill="#202020" d="M78.6,114.1C78.6,114.1,78.6,114.1,78.6,114.1C78.5,114.2,78.5,114.2,78.6,114.1z"/>
							<path fill="#202020" d="M83.7,84.5c0.2,0.4-0.6-0.3-0.3,0.2C83.4,84.6,84,84.9,83.7,84.5z"/>
							<path fill="#202020" d="M49.7,108.3l0.1,0.1C49.8,108.3,49.7,108.3,49.7,108.3z"/>
							<path fill="#202020" d="M83.4,84.7L83.4,84.7L83.4,84.7C83.4,84.7,83.4,84.7,83.4,84.7z"/>
							<path fill="#202020" d="M83.9,107.7c0,0-0.1,0-0.1,0C83.9,107.7,83.9,107.7,83.9,107.7z"/>
							<path fill="#202020" d="M79.8,112.3l0.1-0.1C79.9,112.2,79.8,112.2,79.8,112.3z"/>
							<path fill="#202020" d="M85.8,105.1c0.1-0.1,0.1-0.1,0.2-0.2c0,0,0,0,0,0C85.9,105,85.9,105,85.8,105.1z"/>
							<path fill="#202020" d="M87.1,101.7L87.1,101.7c0,0.1,0,0.2,0,0.2L87.1,101.7z"/>
							<path fill="#202020" d="M48.1,92.1c-0.1,0.1-0.1,0.1-0.2,0.1C48.1,92.2,48,92.8,48.1,92.1z"/>
							<path fill="#202020" d="M49.6,108.2c0,0,0.1,0,0.1,0L49.6,108.2C49.6,108.2,49.6,108.2,49.6,108.2z"/>
							<path fill="#202020" d="M84.9,104.2l0.3-0.4C85.2,103.9,85.1,104,84.9,104.2z"/>
							<path fill="#202020" d="M63.3,77.3l-0.1,0C63.2,77.3,63.2,77.3,63.3,77.3z"/>
							<path fill="#202020" d="M85.9,102.7c0.1,0,0.1-0.1,0.1-0.2c0,0,0,0,0,0L85.9,102.7z"/>
							<path fill="#202020" d="M48,92.3L48,92.3L48,92.3z"/>
							<path fill="#202020" d="M46.8,95.7c0.2-0.4-0.1-0.3-0.2-0.4c0.2-0.5,0.3-0.1,0.5-0.2c0.1-0.3,0.2-0.7,0.3-1c0,0,0.1,0,0.1,0
								c0.1-0.4,0.6-1.3,0.4-1.8c0,0,0,0,0.1-0.1c-0.1,0.1-0.2,0.1-0.3,0c0-0.2-0.1-0.4,0.1-0.5c0,0.1,0,0.2,0.1,0.2l0-0.3
								c0.2-0.2,0,0.3,0.2,0.4c0-0.5-0.1-1.1-0.1-1.4c0.2-0.1,0,0.9,0.2,0.4L48,91.6c0.3-0.4-0.1,0.4,0.3,0c0.1-0.8-0.1-0.9,0-1.6
								c-0.1-0.2-0.2,0.1-0.3-0.1c-0.2-1,0.5-0.8,0.3-1.4c-0.1-0.2-0.3-0.3-0.1-0.7l0.2,0.2c0.2-0.5-0.2-0.5,0.3-0.9
								c0,0.1-0.2,0.4-0.1,0.4c0.3-0.2,0-0.3,0.2-0.5L49,87c0.3-0.4,1-0.9,1.7-1.2c0,0.1-0.1,0.2,0.1,0.2c0.5-0.2,1-0.5,1.6-0.8
								c0.6-0.3,1-0.8,1.4-1.2l0.1-0.4c0.1-0.1,0.2-0.1,0.1,0c0.3-0.3-0.1-0.1,0-0.3c0.1-0.2,0.2-0.2,0.2,0c0.3-0.7,0.8-1.8,1.5-2.1
								l-0.1,0.1c0.4-0.3,0.2-0.7,0.6-0.9l0,0.1c0.9-0.8,1.9-1.6,2.8-1.8c0-0.3,1.1-0.4,1-0.7c0.7-0.1,0.5,0,1.5-0.1
								c0.2,0,0.3-0.3,0.6-0.4l0,0.2l0.4-0.3l0.3,0.2l0.3-0.1c-0.1,0-0.3,0-0.2-0.1c0.4-0.1,1.1,0,1.1,0.1c0,0,0.3-0.1,0.5-0.1
								c0.3,0,0.5-0.1,0.5-0.1c0,0.1-0.2,0.1-0.3,0.1c0.6-0.2,0.1,0.2,0.6,0c-0.1,0,0-0.1,0.1-0.1c0.3,0.1,0.8,0.2,1.3,0.2l-0.1,0.1
								c0.8,0.2,1.6,0.3,2.5,0.6c-0.3-0.2-0.1-0.3,0.1-0.3l0,0.2c0.2,0-0.2-0.2,0.2-0.2c0.3,0.2,0.1,0.3-0.1,0.3l0.4,0.1
								c0,0.1-0.1,0-0.2,0.1c0.2,0,0.5,0.5,0.8,0.4l0,0.1c0.8,0.4,1.1,0.6,1.7,1c0.1-0.1,0.3,0.1,0.6,0.1c0.4,0.4,0.7,0.9,1.2,1.4
								c0.4,0.3,0.2,0,0.4,0.1c-0.1,0.1,0.4,0.6,0.1,0.4c0.7,0.6,0.8,0.8,1.9,1.2C76.2,83.1,76,83,76.1,83c0.2,0.1,0.4,0.2,0.4,0.3
								l-0.1,0c1.3,0.2,2.8,0.7,3.6,0.7l0,0c0,0,0.9,0.1,0.9,0.1c0.4,0.2-0.3,0,0,0.2c1,0.1,1.3,0.7,1.9,1.1
								c0.1,0.4,0.4,0.7,0.8,1.1c0.3,0.4,0.6,0.9,0.6,1.3l0.1-0.1c0.2,0.2,0,0.2,0.1,0.4c0.1,0,0-0.2,0.1-0.1
								c0.3,0.8,0.4,1.7,0.2,2.7c-0.2,0.9-0.5,1.9-0.7,2.8c-0.2,0.7,0.4,0.5,0,1.4l-0.1-0.3c0,0.8-0.1,1.6-0.1,2.4
								c0,0.8,0.1,1.6,0.5,2.4c-0.1-0.1-0.1-0.1-0.2-0.2c0,0.4,0.5,1.2,0.6,1.1c0.1,0.2-0.1,0.1,0,0.3c0.1,0.4,0.7,0.6,0.7,0.8
								c0,0-0.1,0-0.1-0.1c0.2,0.1,0.6,0.6,0.6,0.4c0.1,0.2,0.2,0.3,0.2,0.4c0.1,0.1,0.1,0.3,0,0.4c0.2,0.2-0.3,0.6-0.1,0.8
								c-0.2-0.1-0.6,0.6-0.8,0.9c0-0.1-0.3,0.2-0.3,0c-0.2,0.3-0.4,0.6-0.3,0.6c-0.7,0.4-0.7,1.3-1.3,1.3c-0.6,1-1.2,1.9-1.9,2.7
								c-0.2-0.2,0.7-0.9,0.5-1c-0.6,0.8-0.7,1.4-1.4,2.1c-0.2,0.2,0-0.2,0-0.3c-0.5,0.8-1.2,1.5-1.7,2.2c0,0,0-0.1,0.1-0.2
								c-0.1,0.1-0.3,0.3-0.2,0.3l0.1-0.1c0.3-0.1-0.2,0.7-0.1,0.8c-0.1-0.4-0.6,0.6-0.6-0.1c-0.1,0.1-0.1,0.2,0,0.3
								c-0.1,0.1-0.2,0.1-0.1-0.1c-0.4,0.5-0.1,0.4-0.5,0.8c0,0,0-0.1,0-0.2c-0.1,0.3-0.3,0.5-0.7,0.7c0,0-0.1-0.1,0-0.1
								c-0.6,0.4-1,0.9-1.9,1c0.2-0.3-0.3,0-0.4-0.2l-0.4,0.1l0.2,0.1c-0.4,0.1-0.7,0.3-1.1,0.2l0.3-0.1c0,0-0.7,0.1-0.7,0.1
								c0,0,0.1,0,0.2,0c0.1,0,0.2,0,0.2,0c-0.4,0.1,0,0.3-0.5,0.2c0.1,0-0.4,0-0.6-0.2l0,0c-0.2,0.1-0.4,0.1-0.7,0
								c-0.1-0.1,0.1-0.2,0.1-0.3c-0.2,0.1-0.9-0.2-1.2-0.1c0.1,0,0.1-0.1,0.1-0.1l-0.2,0.1c-0.2-0.1-0.2-0.2-0.1-0.2
								c-0.5-0.3,0,0.3-0.5-0.1c0.1,0,0,0,0.1,0c-0.6-0.3-1.1-0.6-1.6-1.1c0-0.3,0.5,0.3,0.4,0c-0.4-0.3-1-0.5-1.5-0.6
								c-0.6,0-1.1,0.1-1.5,0.2l0.2,0c0,0.3-0.7,0-1.1,0.4c0.1-0.1,0.1-0.2,0.1-0.2c-0.6,0.2-1.1,0.6-2,1l0.1-0.1
								c-0.4,0.1-0.9,0.3-1.3,0.3c-0.1,0.1-0.3,0.2-0.1,0.2c-1.2-0.1-2.2,0.7-3.3,0.4c0.1,0,0.3-0.1,0.2-0.1c0,0-0.2,0-0.4,0
								c-0.2,0-0.4,0-0.4,0c0.1,0.1,0.1,0.1,0.3,0.2c-0.1,0.1-0.4,0.1-0.6,0.1c0.4,0,0-0.2-0.1-0.3c0,0,0,0.1,0,0.1
								c-0.4-0.3-0.1,0.3-0.7,0l0.1-0.1c-0.2,0-0.5,0-0.7-0.1c0-0.2,0.3,0,0.3-0.1c-0.3-0.1-0.8,0-1-0.3c0.2,0,0.4,0.1,0.5,0.2
								c-0.2-0.3-0.3-0.3-0.5-0.4l0,0c0,0-0.1-0.1-0.2-0.2c-0.1-0.1-0.2-0.2-0.2-0.2l0.1,0.1c-0.6,0.1-0.8-0.5-1.4-0.7
								c0.6,0.2,0.2,0,0.3-0.1c-0.1-0.1-0.2-0.3-0.1-0.3c-0.3-0.1-0.2-0.4-0.7-0.6c0-0.1-0.2-0.2,0-0.3c-0.3-0.3,0,0.1-0.1,0.2
								c-0.5-0.3-0.7-1.2-1.4-1.7c-0.5-0.5-0.8-0.5-1.2-1c-0.1-0.2,0.3,0,0.3,0c-0.2-0.3-0.3-0.6-0.6-0.8c0.1,0,0.1-0.1,0.1-0.2
								c-0.2-0.2-0.3,0-0.4-0.4c0.1,0,0.2,0,0.3,0.1c-0.2-0.2-0.5-0.4-0.8-0.7c0-0.1,0.2,0.1,0.4,0.1c-0.3-0.3-0.7-0.7-0.9-0.7
								l0.1,0.2c-0.1-0.1,0.1-0.1,0.1-0.1c0.3,0.2,0.2,0.4,0.2,0.5l-0.2-0.2c-0.1,0.4,0.6,0.7,0.9,1.1l-0.3,0l0.5,0.3
								c0,0.1,0,0.3-0.2,0.1c0.1,0.4,0.3,0.2,0.3,0.5c0,0,0,0,0,0l0.3,0.2c-0.1,0-0.1,0.1-0.2,0c0.3,0.6,0.7,0.7,0.7,1l0,0
								c0.6,0.6,0.2,0,0.7,0.3l-0.1,0.6l0.2,0c0,0.1,0.1,0.2,0.1,0.2c0.3,0.2,0-0.1,0.2,0c0.1,0.4,0.8,0.9,0.6,1.1
								c0.2,0-0.2-0.4,0.2-0.1c-0.1,0.3,0.4,0.4,0.6,0.7c-0.2,0-0.4-0.3-0.2,0.1c0.3,0,0.5,0.6,0.8,0.8c0.1-0.1,0.6,0.4,1.2,0.6
								c-0.1,0.1,0.9,0.6,1.4,0.8l0,0c0.2-0.2,0.7,0,1.1,0c0,0.1-0.1,0.2-0.3,0.2c0,0,0.4,0.1,0.4,0c0.1-0.1,0.2-0.1,0.5-0.1
								l-0.1,0.2c0.5,0,1-0.2,1.6-0.1c0-0.1-0.5-0.4,0.1-0.5c0,0.1,0.1,0.2-0.1,0.3c0.1,0,0.2-0.1,0.3-0.1l-0.2,0.2
								c0.3,0,0.1-0.1,0.4-0.1c0,0.1,0.2,0.1,0.2,0.1c-0.1,0-0.2,0-0.3,0c0.3,0,0.6,0,0.7,0.1c0-0.1,0-0.2,0.2-0.2
								c0.5-0.1,0.2,0.1,0.5,0.1c0.1-0.1,0.4-0.1,0.4-0.3c0.1,0,0.2,0,0.2,0.1c0.2-0.1,1.1-0.4,0.8-0.5l-0.1,0l0,0l0,0l0,0
								c0.7-0.4,1.6-0.5,2.3-0.9l0,0.1c0.4-0.2,1-0.4,1.3-0.6c0.1,0,0.3,0.1,0.3,0.1c0.3-0.1,0.4-0.2,0.8,0c-0.3,0,0.1,0.1-0.3,0
								c0.4,0.1,0.4,0.2,0.9,0.3c-0.2,0,0.2,0.3,0.4,0.4l-0.2-0.3c0.2,0.1,0.4,0.3,0.5,0.4l-0.2,0.1c0.3,0.4,0.8,0.6,1.2,0.7
								c0.4,0.1,0.8,0.2,1.1,0.5c0.3,0-0.5-0.3-0.2-0.3c0.4,0.2,0.8,0.6,1,0.6c0.6,0.2,0.7-0.2,1.3,0c-0.1-0.1-0.1-0.3,0.3-0.3
								c0.5,0,0.6,0.3,0.3,0.3c-0.1,0-0.2,0-0.2,0c-0.2,0-0.4,0-0.2,0.1l0.1-0.1c0.2,0.1,0.9,0,0.7,0.2c0.4-0.1,0.1-0.1-0.1-0.1
								c0.6,0.1,1-0.1,1.6-0.2c-0.1,0-0.2-0.1-0.1-0.1c0.9-0.2,0.4-0.2,0.9-0.5c0.4,0,0,0.3,0.5,0c0.4-0.1,0.2,0.1,0,0.2
								c0.5-0.4,1-0.5,1.3-0.6l-0.2,0.2c0.1-0.1,0.3-0.2,0.4-0.3l-0.2,0c0.2-0.1,0.3-0.2,0.3-0.1c0.1-0.2-0.2-0.1,0-0.4
								c0.2-0.1,0.5-0.5,0.7-0.4c-0.6,0.5,0.2,0.1-0.3,0.5c0.1-0.1,0.2-0.2,0.3-0.3c0,0,0,0,0,0.1c0.6-0.4,0.1-0.4,0.6-0.9
								c0,0.1,0.3,0,0.3-0.1c-0.2,0.2-0.2,0-0.1-0.3c0.4-0.3,0.3-0.4,0.4-0.6l-0.2,0.2c0-0.1,0.1-0.3,0.3-0.6c0.1,0-0.1,0.3,0,0.2
								c0.1-0.4,0.6-0.5,0.9-0.9c0.2-0.1,0.2,0.1,0.3,0c0.2-0.5,0.5-0.4,0.8-0.9c-0.2,0-0.2,0.1-0.1-0.3l-0.5,0.8l0.2-0.6
								c-0.2,0.2-0.3,0.5-0.4,0.6c0.1-0.3,0.1-0.2-0.1-0.2c0.4-0.2,0.4-0.7,0.8-0.9l0.3,0.2c0.5-0.4,0.6-1,1.2-1.6l-0.2,0.2
								c0-0.2,0.3-0.4,0.5-0.7c0.1,0.1,0.2,0,0.3-0.1c-0.1,0,0.4-0.5,0.3-0.7l0.4-0.2c0.5-0.5,0.3-0.8,0.7-1.3c0,0.2,0.2,0.1,0,0.5
								c0.1-0.2,0.3-0.3,0.2-0.4c0.1-0.1,0.3-0.6,0.5-0.7c0-0.1,0-0.2,0.1-0.4c0,0,0,0,0,0c0,0,0.2-0.4-0.1-0.3
								c0.4-0.2,0.6-0.6,0.8-1.1c0.2-0.5,0.2-1,0.2-1.5c-0.2-0.6-0.8-1-1.1-1.3c0,0,0,0,0.1,0c-0.3-0.5-0.5,0-0.8-0.7
								c0-0.4,0.3,0.2,0.2,0c0.3-0.3-0.4-0.6-0.3-1.1l0,0.1c0-0.3-0.3-0.7-0.4-1.3c0,0,0,0,0.1,0c-0.2-0.4-0.3-1.1-0.3-1.7
								c0.1,0.2,0.1,0.3,0.2,0.2c0-0.2-0.2,0.1-0.2-0.4c0.1-0.2,0.2-0.5,0.4-0.5l-0.1,0.5c0.2-0.2,0.1-0.6,0.2-0.8l0.1,0
								c0.1-0.7-0.1-0.8,0.1-1.5l-0.1,0.1c-0.1-0.5,0.2-0.3,0.1-0.8l0.2-0.1c0-0.3,0-1,0-1.5c0.1,0.3,0.1,0.9,0.2,1.3
								c0.1-0.3,0.1-1,0-1.1c0,0.1,0,0.3,0,0.4c-0.1-0.4-0.2-0.8-0.1-1.4c0.2,0.1,0.3-0.3,0.2-0.8c0-0.5-0.1-1,0-1.2
								c-0.4-1-0.7-2-1.6-3c0,0.6-0.3-0.3-0.5,0c-0.2-0.2-0.3-0.3-0.3-0.3c0,0-0.1-0.2-0.3-0.4C83,84.2,82.9,84,82.9,84
								c-0.1-0.2,0.3,0.1,0.3,0c-0.5-0.4-0.1-0.3-0.4-0.6c0,0.2-0.3,0-0.6-0.2l0.4,0.4c-0.4-0.2-0.6-0.3-0.7-0.5
								c-0.1-0.2-0.3-0.3-0.8-0.4l0.3,0c-0.4-0.1-1.7-0.5-2.2-0.2c-0.1,0-0.2-0.2,0-0.2c-1.1-0.1-2.2,0.1-2.7-0.4l0.1,0
								c-0.1,0-0.3,0-0.5-0.2c0,0,0.1,0,0-0.1c-0.1,0-0.4-0.1-0.6-0.3l0.2,0.1c-0.6-0.7-1.2-0.8-1.8-1.4c0.2-0.2-0.3-0.8-0.6-1.1
								l0,0c-0.9-0.8-1.8-1.1-2.8-1.5c-0.5-0.6-2.1-1-3.2-1.4c0.2,0.1-0.1,0.2-0.3,0.2c-0.3-0.1-0.7,0.1-0.7-0.2l0.1,0
								c-0.2-0.3-0.7-0.3-1.1-0.3l-0.1,0.3c-0.5-0.3-1.3-0.2-1.9-0.1c-0.7,0.1-1.2,0.3-1.6,0.2c-0.2,0.1-0.6,0.2-0.8,0.4l0-0.2
								c-0.7,0.2-1.1,0.3-1.9,0.7l0.1-0.2c-0.5,0.2-0.4,0.7-0.8,0.9l-0.2-0.1c-0.8,0.4-1.7,0.8-2.2,1.5c0,0,0-0.1,0.1-0.2
								c-0.3,0.3-1.3,1-1,1.1c-0.2-0.1-0.7,0.7-0.9,1.1l-0.1-0.2c-0.1,0.5-0.1,0.5-0.3,1c-0.1,0.1-0.2,0,0-0.1
								c-0.3,0.3-0.1,0.4-0.4,0.8l0-0.2c-0.3,0.4-0.2,0.4-0.2,0.6c-0.1,0.3-0.5,0.6-0.7,0.5c0,0.1,0,0.3-0.3,0.5c-0.1,0,0-0.1,0-0.1
								c-0.6,0.3-0.7,0.7-1.2,0.8c0,0-0.1-0.1-0.1-0.1c0.5-0.2,0.9-0.4,0.9-0.4c-0.1-0.1-0.4,0.1-0.3-0.3c-0.2,0.3-0.7,0.7-1.1,0.8
								c0,0-0.1,0-0.1,0l0,0c-0.1,0-0.2,0.1-0.3,0.1c-0.1,0-0.2,0.1-0.4,0.1c-0.1-0.1-0.6,0.2-0.8,0.3c0.1,0.1-0.2,0.3,0.1,0.2
								c0,0,0,0,0.2-0.1c0,0,0.1,0,0.1-0.1l0,0c0.1-0.1,0.3-0.2,0.6-0.3c-0.1,0.2-0.3,0.3-0.6,0.4c-0.1,0.2-0.1,0.3-0.2,0.4
								c-0.4,0-1,0.4-1.2,0.4c-0.5,0.8-0.7,1.9-0.5,2.4c0,0.2-0.1,0.2-0.2,0.3c0-0.1,0-0.3,0-0.3c0,0.4,0,1.3,0.2,1.4
								c-0.1,0.5-0.2-0.3-0.2,0.4l-0.1-0.1c-0.2,0.7-0.1,1.2,0,1.8c0,0.6,0,1.2-0.6,1.7c0.1-0.1,0.1-0.1,0.2-0.1
								c-0.5,0.6-1.1,1.5-1.3,2.4C45,97.1,45,98,44.9,98.9c0,0.5,0.1,0.6,0.3,0.8l-0.1,0.1l0.3,0.5c0.3,0.7-0.1,1.4,0.5,2.2l0.1-0.2
								c0.1,0.3,0.5,1,0.3,1c0,0,0.2,0.1,0.2,0.2l-0.1,0l0.5,0.7c0.2,0.6-0.4,0.1,0,0.9c0.2,0.3,0.7,0.8,0.7,0.6
								c-0.1-0.1-0.1-0.3,0-0.4l0.2,0.3c0.3-0.1,0.6,0,0.4-0.8l-0.4-0.4l0-0.2l0.2,0.4c0-0.3-0.2-0.4-0.3-0.5c0-0.1,0.1-0.2,0-0.3
								l-0.5-0.4c0.1-0.1,0.3,0.1,0.2-0.2c-0.2-0.2-0.1,0.3-0.4,0c0-0.3,0.1-0.3-0.1-0.5c0-0.1,0.1,0,0.2,0.1
								c-0.2-0.2-0.3-0.6-0.5-0.7c0.1-0.3-0.3-0.8-0.1-0.9c-0.1-0.1-0.3-0.4-0.4-0.6c0.4,0.3-0.2-0.9,0.2-0.8
								c-0.3-0.3-0.3-1.1-0.5-1.6c0,0,0.1,0.1,0.1,0.1c0-0.3,0.1-0.4,0.2-0.6c-0.2,0-0.2-0.5-0.3-0.8c0.3-0.3,0.2,0.3,0.5,0.2
								c-0.2,0-0.1-0.6-0.2-0.6c0.2-0.2,0.1-0.2,0.3-0.3c-0.3-0.1,0-0.3,0-0.5c0.3-0.3,0.3,0,0.4-0.4C46.9,95.3,46.8,95.7,46.8,95.7
								z M50.7,85.7L50.7,85.7c-0.1,0-0.2,0.1-0.2,0.1C50.6,85.8,50.6,85.8,50.7,85.7z M51.7,85.3c-0.1,0.1-0.3,0.1-0.4,0.2
								c-0.1,0,0-0.1,0.1-0.1C51.3,85.4,51.5,85.3,51.7,85.3z M49.3,85.1c0.1-0.1,0.2-0.1,0.2-0.1C49.4,85.1,49.4,85.1,49.3,85.1
								l0,0.1C49.2,85.2,49.2,85.2,49.3,85.1z"/>
							<path fill="#202020" d="M49.1,85.5C49.1,85.5,49.1,85.5,49.1,85.5C49.1,85.5,49.1,85.5,49.1,85.5L49.1,85.5L49.1,85.5z"/>
							<path fill="#202020" d="M62.2,114.8L62.2,114.8C62.2,114.8,62.2,114.8,62.2,114.8C62.2,114.8,62.2,114.8,62.2,114.8z"/>
							<polygon fill="#202020" points="62.2,77.6 62.2,77.5 62.2,77.6 							"/>
							<path fill="#202020" d="M56.8,115C56.8,114.9,56.8,114.9,56.8,115C56.8,114.9,56.8,114.9,56.8,115z"/>
							<path fill="#202020" d="M54.8,114.2l-0.2-0.2C54.6,114.1,54.7,114.1,54.8,114.2z"/>
							<path fill="#202020" d="M53.5,113.1C53.4,113.1,53.4,113.1,53.5,113.1L53.5,113.1L53.5,113.1z"/>
							<path fill="#202020" d="M78.9,111.7C78.9,111.7,78.9,111.6,78.9,111.7C79,111.5,79,111.6,78.9,111.7z"/>
							<path fill="#202020" d="M72,115.3c0.1,0,0.2,0,0.3,0C72.1,115.2,72,115.2,72,115.3z"/>
							<polygon fill="#202020" points="84.9,104.2 84.9,104.2 84.9,104.2 							"/>
							<path fill="#202020" d="M72.7,115.2c-0.1,0-0.3,0-0.4,0C72.4,115.2,72.5,115.3,72.7,115.2z"/>
							<path fill="#202020" d="M48.7,106.9L48.7,106.9C48.6,106.8,48.6,106.8,48.7,106.9L48.7,106.9z"/>
							<path fill="#202020" d="M48.6,106.8L48.6,106.8C48.6,106.8,48.6,106.8,48.6,106.8z"/>
							<path fill="#202020" d="M48.4,106.6l0.2,0.1C48.5,106.7,48.5,106.6,48.4,106.6z"/>
							<path fill="#202020" d="M50.1,108.9L50.1,108.9C50.1,108.8,50.1,108.8,50.1,108.9z"/>
							<path fill="#202020" d="M50.5,109.4c-0.1-0.1-0.2-0.4-0.3-0.6l-0.1,0C50.3,108.9,50.4,109.4,50.5,109.4z"/>
							<path fill="#202020" d="M51.8,112.3l-0.3-0.5c0,0.1,0,0.3-0.1,0.1C51.7,112.6,51.3,111.6,51.8,112.3z"/>
							<path fill="#202020" d="M53.1,113.8C52.8,113.6,53,113.9,53.1,113.8C53.2,114,53.2,114,53.1,113.8z"/>
							<path fill="#202020" d="M66.2,113.6l0,0.1C66.4,113.7,66.2,113.7,66.2,113.6z"/>
							<polygon fill="#202020" points="68.8,113.9 68.6,113.6 68.5,113.7 							"/>
							<path fill="#202020" d="M69.6,115.5l-0.1,0c0,0,0.4,0.1,0.4,0.1C69.9,115.7,69.6,115.5,69.6,115.5z"/>
							<path fill="#202020" d="M87.3,102.4l-0.2,0.1C87.2,102.7,87.4,102.8,87.3,102.4z"/>
							<path fill="#202020" d="M85.3,93.3c0.1-0.1,0.2-0.4,0.2-0.5C85.4,92.9,85.3,93.1,85.3,93.3z"/>
							<polygon fill="#202020" points="64.7,75.9 64.9,75.8 64.5,75.9 							"/>
						</g>
					</g>
				</g>
			</g>
		</g>
		<g>
			<g>
				<g>
					<g>
						<g>
							<path fill="#202020" d="M61.2,92.9c0,0,0.2,0,0.2,0l-0.2-0.1L61.2,92.9z"/>
							<path fill="#202020" d="M61.7,92.5c-0.1-0.1-0.2-0.3-0.4-0.2c0.2,0.1,0.1,0.1,0.3,0.3c0,0.1-0.1,0.1-0.2,0.1
								c0,0-0.1,0.1,0,0.2c0.2-0.1,0.2-0.2,0.1-0.3C61.6,92.4,61.7,92.4,61.7,92.5z"/>
							<path fill="#202020" d="M66.3,89.1L66.3,89.1C66.3,89.1,66.3,89.1,66.3,89.1z"/>
							<path fill="#202020" d="M70,92.1C69.9,92.1,69.9,92.1,70,92.1C70,92.1,70,92.1,70,92.1z"/>
							<path fill="#202020" d="M70.7,92.5C70.7,92.5,70.6,92.5,70.7,92.5C70.6,92.5,70.7,92.6,70.7,92.5z"/>
							<path fill="#202020" d="M66.3,89.1l0,0.1C66.4,89.2,66.3,89.2,66.3,89.1z"/>
							<path fill="#202020" d="M61.6,91.3C61.6,91.3,61.6,91.4,61.6,91.3L61.6,91.3L61.6,91.3z"/>
							<path fill="#202020" d="M65.1,88.6L65.1,88.6C65.1,88.7,65.1,88.7,65.1,88.6L65.1,88.6z"/>
							<path fill="#202020" d="M64,89.5c0,0-0.1-0.1-0.1-0.2C63.9,89.4,63.9,89.4,64,89.5C63.9,89.5,63.9,89.5,64,89.5z"/>
							<path fill="#202020" d="M62.4,91.3L62.4,91.3C62.4,91.3,62.4,91.3,62.4,91.3z"/>
							<path fill="#202020" d="M65.7,88.7C65.7,88.7,65.7,88.7,65.7,88.7C65.7,88.7,65.7,88.7,65.7,88.7z"/>
							<path fill="#202020" d="M52.5,96.1C52.5,96.1,52.5,96.1,52.5,96.1C52.5,96,52.5,96,52.5,96.1z"/>
							<polygon fill="#202020" points="53.3,94.3 53.3,94.3 53.4,94.3 							"/>
							<path fill="#202020" d="M71.9,93.1L71.9,93.1C71.9,93.2,71.9,93.2,71.9,93.1z"/>
							<path fill="#202020" d="M68,102.1c0.2,0.1-0.1,0.3,0.1,0.3C68.1,102.3,68.2,102.1,68,102.1z"/>
							<path fill="#202020" d="M61.6,91.3C61.7,91.2,61.7,91.2,61.6,91.3C61.7,91.2,61.7,91.3,61.6,91.3z"/>
							<path fill="#202020" d="M68.1,102.4L68.1,102.4L68.1,102.4C68.1,102.4,68.1,102.4,68.1,102.4z"/>
							<path fill="#202020" d="M71.8,94.2C71.8,94.2,71.8,94.1,71.8,94.2C71.8,94.1,71.8,94.1,71.8,94.2z"/>
							<path fill="#202020" d="M72.5,93L72.5,93C72.5,93,72.5,93,72.5,93z"/>
							<path fill="#202020" d="M71.8,95.6C71.7,95.6,71.7,95.6,71.8,95.6L71.8,95.6C71.7,95.6,71.7,95.6,71.8,95.6z"/>
							<polygon fill="#202020" points="71.6,96.9 71.7,96.9 71.7,96.8 							"/>
							<path fill="#202020" d="M52.6,100.1c0,0,0.1-0.1,0.1-0.1C52.6,100.1,52.5,99.9,52.6,100.1z"/>
							<path fill="#202020" d="M61.7,91.3C61.7,91.3,61.6,91.3,61.7,91.3L61.7,91.3C61.7,91.3,61.7,91.3,61.7,91.3z"/>
							<path fill="#202020" d="M73,95.7l0,0.2C73,95.9,73,95.8,73,95.7z"/>
							<path fill="#202020" d="M59.8,100.7L59.8,100.7C59.8,100.7,59.8,100.7,59.8,100.7z"/>
							<path fill="#202020" d="M72.9,96.6c-0.1,0-0.1,0.1-0.1,0.1c0,0,0,0,0,0L72.9,96.6z"/>
							<path fill="#202020" d="M52.7,100.1L52.7,100.1L52.7,100.1z"/>
							<path fill="#202020" d="M52.3,98.6c0,0.2,0.2,0.1,0.3,0.1c0.1,0.2-0.2,0.1-0.3,0.2c0.1,0.2,0.3,0.3,0.2,0.4c0,0,0,0-0.1,0
								c0.2,0.2,0,0.5,0.2,0.7c0,0,0,0-0.1,0c0.1,0,0.2,0,0.3,0c0,0.1,0.1,0.2,0,0.2c0-0.1-0.1-0.1-0.1-0.1l0.1,0.1
								c-0.2,0.1-0.1-0.1-0.2-0.1c0.1,0.2,0.3,0.4,0.3,0.6c-0.2,0.1-0.2-0.4-0.3-0.1c0,0,0-0.3,0-0.3c-0.3,0.2,0-0.2-0.3,0
								c0,0.4,0.1,0.5,0.3,0.9c0.2,0,0.1-0.1,0.3-0.1c0.3,0.2,0.3,0.3,0.3,0.5c0,0.1,0,0.3,0.3,0.3c0.2-0.1,0.3-0.3,0.4,0l-0.2,0.2
								c0.3,0.1,0.3-0.2,0.5,0c-0.1,0.1-0.2,0-0.2,0c0.1,0.2,0.2-0.1,0.3,0l-0.1,0.2c0.3,0.1,0.7,0.1,1,0.2c0,0-0.1,0.1-0.1,0.2
								c0.2,0,0.4,0.1,0.6,0.2c0.2,0.1,0.6,0.3,1,0.5c0,0,0.2-0.1,0.2-0.1c0.1,0,0.1,0.1,0.1,0.1c0.2-0.1,0-0.1,0-0.3
								c0.1-0.1,0.2-0.1,0.1,0.1c0.1-0.3,0.3-0.6,0.4-0.9c0.1-0.2,0.2-0.3,0.4-0.4l0,0.1c0.2-0.1-0.1-0.4,0.1-0.5l0,0.1
								c0.4-0.4,0.5-0.9,0.9-0.9c-0.1-0.1,0-0.2,0.1-0.2c0.1,0,0.1,0,0-0.2c0.2,0.1,0.2,0.2,0.2,0.3c0,0,0.1-0.1,0.1-0.2
								c0,0,0,0,0.1,0l-0.1,0.2c0,0,0.2-0.1,0.2-0.1c0,0-0.1,0.2-0.1,0.2c0,0,0.1,0,0.1,0c0,0,0-0.1,0.1-0.1c0.1,0,0.2,0.4,0.1,0.5
								c0,0,0.4,0.3,0.4,0.3c-0.1,0-0.1,0-0.2,0c0.3,0.1-0.1,0.2,0.2,0.2c0-0.1,0.1-0.1,0.1-0.1c0,0.2,0.2,0.4,0.4,0.5l-0.1,0.1
								c0.3,0.3,0.6,0.5,1,0.7c-0.1-0.1,0.1-0.3,0.2-0.2l-0.1,0.2c0.1-0.1-0.1-0.1,0.1-0.2c0.1,0.1,0,0.2-0.1,0.2l0.2,0
								c0,0.1-0.1,0.1-0.1,0.1c0.1-0.1,0.2,0.3,0.4,0.2l0,0.1c0.4,0.2,0.6,0.2,0.9,0.3c0.1-0.1,0.2-0.1,0.3-0.2
								c0.2,0.1,0.4,0.3,0.7,0.4c0.2,0,0.1-0.1,0.2-0.2c0,0.1,0.3,0.2,0.1,0.3c0.4,0,0.5,0.1,0.9,0c0-0.1-0.1-0.1-0.1-0.1
								c0.1,0,0.2,0.1,0.2,0.1l0,0c0.5-0.2,1.2,0.4,1.6,0l0,0c0,0,0.4-0.2,0.4-0.2c0.2,0-0.1,0.1,0.1,0.2c0.4-0.4,0.7-0.2,1-0.5
								c0.5,0.3,0.9-0.5,1.4-0.5l-0.1-0.1c0-0.1,0.1,0,0.2-0.1c-0.1-0.1-0.1,0-0.1-0.1c0.6-0.6,1.4-1.1,2-1.8
								c0.2-0.3-0.4-0.4,0.1-0.7l0.1,0.2c0.1-0.7,0.6-1.2,0.5-1.9c0,0,0.1,0.1,0.1,0.1c0.2-0.1,0.1-0.5,0-0.5c0-0.1,0.1,0,0.2-0.1
								c0.1-0.1-0.1-0.4,0-0.4c0,0,0,0,0,0.1c-0.1-0.1,0.1-0.4-0.1-0.3c0.1-0.2,0-0.4,0.1-0.6c-0.2-0.1,0.1-0.4-0.1-0.4
								c0.3,0,0.2-0.4,0.1-0.5c0.1,0.1,0.1-0.1,0.2,0c0-0.1,0-0.3-0.2-0.3c0.3-0.2-0.2-0.6,0.3-0.6c0-0.2,0-0.4,0-0.6
								c0-0.1,0-0.2,0.1-0.3c0.1-0.1,0.1-0.3,0.2-0.4c0.1,0,0,0.2-0.1,0.3c-0.1,0.2-0.1,0.2,0,0.3c0-0.1,0.1-0.2,0.1-0.3
								c0.1-0.1,0.1-0.2,0.2-0.4c0.2-0.2,0.3-0.4,0.7-0.7c0.3-0.2,0.2,0,0.2,0.1c0.1-0.1,0.2-0.2,0.3-0.3c-0.1,0-0.1-0.1-0.2-0.1
								c-0.1,0-0.2-0.1-0.3-0.1c-0.2-0.1-0.5-0.1-0.8-0.1c0,0,0.1,0,0.2,0c-0.1,0-0.2-0.1-0.3,0l0.1,0c-0.1,0.2-0.8,0.2-0.8,0.3
								c0.4-0.2-0.4-0.2,0.2-0.5c-0.1,0-0.2,0-0.2,0.1c-0.1,0-0.1-0.1,0.1-0.1c-0.4,0-0.3,0.1-0.6,0c0-0.1,0.1-0.1,0.1-0.1
								c-0.2,0.1-0.3,0.1-0.5,0c0,0,0-0.1,0.1-0.1c-0.3-0.1-0.6,0.1-0.9-0.1c0.2-0.2-0.1-0.1,0-0.3l-0.2,0l0,0.1
								c-0.2-0.1-0.3,0-0.4-0.1l0.1,0l-0.3-0.1l0.1,0.1c-0.2,0-0.1,0.3-0.3,0.1c0.1,0-0.2-0.1-0.2-0.2l0,0c-0.1,0-0.2,0.1-0.3,0
								c0-0.1,0.1-0.2,0.1-0.3c-0.1,0.1-0.4-0.1-0.5,0c0.1,0,0.1-0.1,0.1-0.1L69.1,91c0-0.1,0-0.1,0-0.2c-0.2-0.1-0.1,0.3-0.2,0
								c0,0,0,0,0.1,0c-0.2-0.2-0.5-0.2-0.7-0.4c0.1-0.2,0.2,0.1,0.2-0.1c-0.3-0.2-0.7-0.2-0.9-0.5l0,0.1c-0.2,0.2-0.1-0.3-0.3-0.3
								c0,0,0.2-0.1,0.1-0.1c-0.1-0.2-0.4-0.3-0.6-0.5l0.1,0c0-0.1-0.2-0.3-0.2-0.5c-0.1,0-0.1-0.1-0.2,0c0-0.3-0.3-0.6-0.6-0.6
								c-0.3-0.1-0.5,0-0.9,0c0.1,0,0.1-0.1,0.1-0.1c0,0-0.1,0.1-0.2,0.1c-0.1,0.1-0.2,0.1-0.2,0.1c0.1,0.1,0.1,0,0.2,0.1
								c0,0.1-0.1,0.2-0.1,0.2c0.1-0.2-0.1-0.2-0.2-0.2c0,0,0,0.1,0.1,0.1c-0.3-0.1,0.1,0.2-0.2,0.3l0-0.1c-0.1,0.1-0.1,0.2-0.2,0.3
								c-0.1-0.1,0-0.1,0-0.2c-0.1,0.1-0.1,0.4-0.3,0.4c0-0.1,0.1-0.1,0.1-0.2c-0.2,0-0.2,0-0.3,0l0,0l-0.3,0.1l0.1,0
								c0.1,0.4-0.2,0.3-0.2,0.7c0-0.3-0.1-0.1-0.2-0.3c-0.1,0-0.2,0.1-0.2,0c0,0.2-0.2,0.1-0.2,0.4c0,0-0.1,0.1-0.2,0
								c-0.1,0.2,0.1,0,0.1,0.1c0,0.3-0.5,0.3-0.5,0.8c-0.1,0.3,0.1,0.5,0,0.7c-0.1,0-0.1-0.2-0.1-0.2c-0.1,0.1-0.2,0.2-0.2,0.4
								c0,0-0.1,0-0.2,0c0,0.1,0.2,0.1,0,0.3c0,0-0.1-0.1-0.2-0.2c0,0.1,0,0.3,0,0.5c-0.1,0-0.1-0.1-0.2-0.2c0,0.2-0.1,0.4,0.1,0.5
								l0.1-0.1c0,0.1-0.1,0-0.1-0.1c-0.1-0.2,0.1-0.2,0.2-0.2l0,0.1c0.3,0,0.1-0.4,0.2-0.6l0.2,0.2L62,91.3c0.1,0,0.2,0,0.2,0.1
								c0.2-0.1,0-0.1,0.1-0.2c0,0,0,0,0,0l0-0.2c0,0,0.2,0.1,0.1,0.1c0.2-0.1,0-0.4,0.2-0.4l0,0c0.1-0.3-0.1-0.1-0.2-0.4l0.5,0.1
								l-0.1-0.1c0,0,0.1-0.1,0.1,0c0-0.2-0.1,0-0.1-0.2c0.2,0,0.2-0.4,0.5-0.3c-0.1-0.1-0.2,0.1-0.1-0.1c0.3,0.2,0.1-0.2,0.3-0.2
								c0.1,0.1-0.1,0.2,0.1,0.2c-0.1-0.2,0.2-0.2,0.3-0.3c-0.1-0.2,0.1-0.3,0.3-0.4c0,0.1,0.4-0.2,0.6-0.2l0,0
								c-0.1-0.2,0.1-0.3,0.2-0.4c0.1,0.1,0.1,0.2,0,0.3l0.1-0.1c0-0.1,0-0.1,0.1-0.2l0,0.2c0.1-0.1,0.2-0.3,0.3-0.1
								c0.1-0.1-0.1-0.5,0.2-0.5c0,0.1,0,0.2-0.1,0.2c0,0,0.1-0.1,0.1,0c0,0-0.1,0.1-0.1,0.1c0.1,0.1,0.1-0.1,0.1-0.1
								c0,0.1,0,0.1,0,0.2c0,0,0-0.1-0.1,0c0.1,0,0.1,0.2,0.1,0.2c0-0.1,0.1-0.1,0.1-0.1c0.1,0.1-0.1,0.1-0.1,0.2
								c0.1,0,0.1,0.1,0.2,0c0,0,0,0.1-0.1,0.1c0.1,0,0.3,0.3,0.4,0.2l0,0l0,0l0,0l0,0c0.3,0.2,0.3,0.6,0.6,0.8l0,0
								c0.2,0.1,0.3,0.3,0.5,0.3c0,0,0,0.2,0,0.2c0.1,0.1,0.2,0,0.3,0.2c-0.2,0,0,0.1-0.2,0c0.1,0.2,0.1,0.3,0.4,0.3
								c-0.1,0.1,0,0.2,0.1,0.3L67.9,91c0.1,0,0.2,0.1,0.2,0.2L68,91.3c0.2,0.4,0.8,0,0.9,0.5c0.2-0.1-0.2-0.2,0-0.3
								c0.1,0.1,0.2,0.4,0.3,0.5c0.2,0.2,0.3-0.2,0.5,0c0-0.1,0-0.3,0.2-0.2c0.2,0.1,0.1,0.3,0,0.4c0,0-0.1,0,0-0.1
								c-0.1,0-0.1,0-0.1,0.1l0-0.1c0.1,0.1,0.3,0.2,0.2,0.3c0.2,0,0.1-0.1,0-0.2c0.2,0.2,0.3,0.1,0.6,0.3c0,0,0-0.1,0-0.1
								c0.3,0.2,0.2-0.1,0.4,0c0.1,0.1-0.1,0.2,0.1,0.2c0.1,0.1,0,0.2-0.1,0.2c0.3-0.1,0.4,0.2,0.5,0.3l-0.1,0c0.1,0,0.1,0,0.2,0
								l0-0.2c0.1,0,0.1,0.1,0.1,0.1c0.1-0.1,0-0.2,0.2-0.3c0.1,0.1,0.2,0,0.1,0.2c-0.1-0.1-0.1,0.2-0.2,0.2c0,0,0,0,0.1,0
								c0,0,0,0,0,0c0,0.2,0.1-0.2,0.3-0.1c-0.1,0.1-0.1,0.2-0.1,0.1c0,0,0.1-0.1,0.3-0.2c0,0.1,0.1,0,0.2,0l0,0
								c0.1-0.1,0.2,0,0.3,0c-0.1,0.1-0.1,0-0.2,0c0.3-0.1,0,0.1,0.1,0.1c-0.2,0.1-0.3,0.1-0.4,0.1c0,0,0,0,0,0c0,0-0.3,0.1-0.2,0.1
								c0.2,0,0.2,0,0.3,0c0,0,0-0.1,0-0.1c0,0,0.2,0,0.2,0c0.1,0,0-0.1,0-0.1c0.1,0,0.1,0,0.3-0.1c-0.4,0.1,0,0.1-0.3,0.3l-0.4,0
								c-0.2,0,0.1,0.1-0.2,0.5l0.1-0.1c0.1,0.1-0.1,0.2-0.1,0.4c-0.1,0-0.2,0-0.3,0c0.1,0-0.1,0.3,0.1,0.4l-0.2,0.1
								c-0.1,0.3,0.3,0.4,0.2,0.7c-0.1-0.1-0.2,0-0.3-0.2c0,0.1,0,0.2,0,0.2c-0.1,0,0.1,0.3,0,0.3c0,0,0.2,0.1,0.1,0.2
								c0,0-0.1,0-0.1,0c0.1,0,0.1,0.2,0.2,0.1c-0.4,0.2,0,0.8-0.4,1c0,0.2,0,0.4,0,0.6c0,0-0.1,0,0,0c-0.1,0.2,0.3,0.2,0.1,0.4
								c-0.2,0.1-0.1-0.2-0.2-0.1c-0.4,0,0,0.3-0.3,0.4l0,0c-0.2,0.1,0.1,0.3,0,0.5c0,0,0,0-0.1,0c0.1,0.2,0.1,0.5,0,0.7
								c-0.1-0.1,0-0.1-0.2-0.1c0,0.1,0.2,0.1,0.2,0.3c-0.1,0-0.2,0.1-0.4,0.1l0.1-0.2c-0.2,0-0.1,0.2-0.2,0.3l-0.1-0.1
								c-0.1,0.2,0.1,0.4-0.1,0.6l0.1,0c0.1,0.3-0.2,0-0.1,0.3l-0.2-0.1c0,0.1-0.1,0.4-0.2,0.6c-0.1-0.2,0-0.4,0-0.6
								c-0.1,0.1-0.2,0.3-0.2,0.4c0,0,0-0.1,0.1-0.1c0.1,0.2,0,0.4-0.2,0.6c-0.3-0.3-0.5,0.3-0.8,0.1c-0.2,0.3-0.6,0.4-1,0.6
								c0.3,0.2-0.1,0.1,0.1,0.4c-0.1,0.1-0.1,0.1-0.1,0.1l-0.4-0.1c-0.1-0.1,0.1-0.1,0-0.2c-0.2,0.1-0.1-0.1-0.3-0.1
								c0.1,0.1,0,0.2-0.1,0.2l0.2,0.1c-0.2,0.3-0.3-0.2-0.6,0.1l0.1-0.1c-0.1,0.1-0.5,0.1-0.6,0.4c0,0-0.1-0.1,0-0.2
								c-0.3,0-0.8,0.3-1.1,0.1l0-0.1c-0.1,0-0.1,0.2-0.2,0.1c0,0,0-0.1,0-0.1c0,0-0.2,0.1-0.3,0.1l0.1-0.1
								c-0.3-0.2-0.6,0.1-0.9,0.1c0.1-0.2-0.2-0.4-0.3-0.5l0,0c-0.4-0.2-0.7-0.1-1.1-0.2c-0.1-0.4-0.6-0.5-0.8-0.9
								c0,0.1-0.1,0.1-0.2,0.1c0-0.1-0.3-0.1-0.1-0.2l0,0c0.1-0.2-0.1-0.3-0.1-0.4l-0.2,0.2c0-0.3-0.1-0.4-0.3-0.6
								c0-0.1-0.1-0.1-0.1-0.1c-0.1-0.1-0.1-0.1-0.2-0.2c-0.1-0.1-0.2-0.2-0.2-0.4l0,0c-0.2,0-0.4-0.1-0.5,0l0-0.2
								c-0.5-0.1-0.8,0-1.3,0.3l0-0.2c-0.3,0.2,0,0.6-0.2,0.7l-0.2-0.1c-0.3,0.3-0.7,0.5-0.7,0.9c0,0-0.1-0.1-0.1-0.1
								c-0.1,0.1-0.5,0.4-0.2,0.6c-0.2-0.1-0.2,0.3-0.3,0.5l-0.1-0.1c0.1,0.3,0.1,0.2,0.1,0.4c0,0-0.1-0.1,0-0.1
								c-0.1,0,0,0.2-0.1,0.2l0-0.1c-0.1,0.1,0,0.1,0,0.2c-0.1,0-0.2-0.1-0.2-0.3c0,0.1-0.1,0.2-0.2,0.1c0-0.1,0-0.1,0.1-0.1
								c-0.2-0.2-0.5,0-0.6-0.2c0-0.1,0-0.1,0-0.1c0.2,0.1,0.4,0.2,0.4,0.2c0-0.1-0.1-0.2,0.1-0.4c-0.2,0.1-0.5,0.2-0.6,0.1
								c0,0,0,0,0-0.1l0,0c0,0-0.1,0-0.1,0c0,0-0.1-0.1-0.1-0.1c0-0.1-0.2-0.1-0.3-0.2c-0.1,0.2-0.2,0.1-0.1,0.2c0,0,0,0,0.1,0
								c0,0,0,0,0,0c0,0,0,0,0,0c0.1,0,0.1,0,0.2,0.1c-0.1,0-0.2,0.1-0.3,0c-0.1,0.1-0.2,0.2-0.2,0.2c0-0.3-0.2-0.5-0.2-0.6
								c-0.3,0-0.6-0.2-0.9,0c-0.1,0,0-0.1,0-0.2c0,0,0.1,0,0.1,0c-0.2,0-0.2-0.2-0.4-0.1c0-0.2,0.2,0,0.1-0.2l0.1,0
								c0.2-0.3-0.6-0.7-0.2-1.3c0,0,0,0.1-0.1,0.1c0.2-0.7-0.2-1.5,0.1-2.1c0.1-0.2-0.1-0.2-0.2-0.3l0.2,0l-0.2-0.2
								c-0.1-0.3,0.4-0.5,0.2-0.9l-0.1,0c0-0.1-0.1-0.4,0.1-0.4c0,0-0.1,0-0.1-0.1l0.1,0l-0.2-0.3c0.1-0.3,0.4,0,0.4-0.3
								c0-0.1-0.3-0.4-0.3-0.3c0,0.1-0.1,0.1-0.1,0.1l0-0.1c-0.3,0-0.5-0.1-0.7,0.2l0.2,0.2l-0.1,0.1l0-0.2c-0.1,0.1,0,0.2,0.1,0.2
								c-0.1,0-0.1,0-0.1,0.1l0.3,0.2c-0.1,0-0.2-0.1-0.3,0c0.1,0.1,0.2-0.1,0.3,0.1c-0.1,0.1-0.2,0.1-0.1,0.2c-0.1,0-0.1,0-0.1-0.1
								c0.1,0.1,0,0.3,0.2,0.3c-0.2,0.1,0,0.4-0.2,0.4c0.1,0,0.2,0.2,0.2,0.3c-0.3-0.2,0,0.4-0.3,0.3c0.3,0.1,0.1,0.5,0.3,0.7
								c0,0-0.1,0-0.1-0.1c0,0.1-0.1,0.2-0.2,0.3c0.2,0,0.3,0.2,0.4,0.3c-0.2,0.2-0.3-0.1-0.5,0c0.2,0,0.2,0.3,0.3,0.2
								c-0.1,0.1-0.1,0.1-0.3,0.2c0.3,0,0,0.1,0.2,0.2c-0.1,0.2-0.3,0-0.2,0.2C52.4,98.8,52.3,98.6,52.3,98.6z M55.4,102.4
								L55.4,102.4C55.3,102.4,55.3,102.4,55.4,102.4C55.3,102.4,55.3,102.4,55.4,102.4z M55.8,102.6c0,0-0.1,0-0.2-0.1
								c0-0.1,0-0.1,0.1-0.1C55.7,102.5,55.7,102.5,55.8,102.6z M55.4,101.2C55.5,101.2,55.5,101.3,55.4,101.2
								C55.4,101.3,55.4,101.3,55.4,101.2L55.4,101.2C55.4,101.3,55.4,101.3,55.4,101.2z"/>
							<path fill="#202020" d="M55.2,101.4C55.2,101.4,55.2,101.4,55.2,101.4C55.2,101.4,55.2,101.4,55.2,101.4L55.2,101.4
								L55.2,101.4z"/>
							<path fill="#202020" d="M66.3,89.1L66.3,89.1C66.3,89.1,66.3,89,66.3,89.1L66.3,89.1z"/>
							<polygon fill="#202020" points="59.6,100.6 59.6,100.6 59.6,100.6 							"/>
							<path fill="#202020" d="M64.6,88.1C64.6,88.1,64.5,88.1,64.6,88.1C64.5,88.1,64.5,88.1,64.6,88.1z"/>
							<path fill="#202020" d="M63.7,88.7l-0.1,0C63.7,88.7,63.7,88.7,63.7,88.7z"/>
							<path fill="#202020" d="M63.1,89.1C63.1,89.2,63.2,89.2,63.1,89.1L63.1,89.1L63.1,89.1z"/>
							<path fill="#202020" d="M73.8,92.2C73.8,92.2,73.8,92.2,73.8,92.2C74,92.2,73.9,92.2,73.8,92.2z"/>
							<path fill="#202020" d="M69.8,91.3c0,0,0.1,0,0.1,0C69.9,91.3,69.9,91.3,69.8,91.3z"/>
							<polygon fill="#202020" points="73,95.7 73,95.7 73,95.7 							"/>
							<path fill="#202020" d="M70.1,91.4c0-0.1-0.1-0.1-0.1-0.1C70,91.3,70.1,91.4,70.1,91.4z"/>
							<path fill="#202020" d="M61.4,91.9L61.4,91.9C61.3,92,61.4,92,61.4,91.9L61.4,91.9z"/>
							<path fill="#202020" d="M61.4,92L61.4,92C61.4,92,61.4,92,61.4,92z"/>
							<path fill="#202020" d="M61.4,92.1L61.4,92.1C61.4,92.1,61.3,92.1,61.4,92.1z"/>
							<path fill="#202020" d="M61.8,91L61.8,91C61.8,91,61.8,91,61.8,91z"/>
							<path fill="#202020" d="M61.9,90.7c0,0.1-0.2,0.1-0.2,0.2l0,0C61.7,90.9,62,90.8,61.9,90.7z"/>
							<path fill="#202020" d="M63.2,90.1L63,90.3c0.1,0,0.2,0,0.1,0.1C63.5,90.3,63,90.3,63.2,90.1z"/>
							<path fill="#202020" d="M63.8,89.6C63.7,89.7,63.8,89.7,63.8,89.6C63.9,89.6,63.9,89.6,63.8,89.6z"/>
							<path fill="#202020" d="M67.4,90.5l-0.1,0.1C67.3,90.7,67.3,90.6,67.4,90.5z"/>
							<polygon fill="#202020" points="68.6,90.5 68.6,90.4 68.5,90.5 							"/>
							<polygon fill="#202020" points="68.6,91.7 68.6,91.7 68.8,91.8 							"/>
							<path fill="#202020" d="M71.5,96.7l0.2,0C71.7,96.6,71.5,96.5,71.5,96.7z"/>
							<path fill="#202020" d="M70.6,100.2c-0.1,0-0.2,0-0.2,0.1C70.5,100.3,70.6,100.2,70.6,100.2z"/>
							<polygon fill="#202020" points="61.2,100.4 61.3,100.4 61.2,100.3 							"/>
						</g>
					</g>
				</g>
			</g>
		</g>
	</g>
	<g>
		<g>
			<g>
				<g>
					<g>
						<g>
							<path fill="#202020" d="M77.3,58.2c-0.1,0-0.1,0.1,0,0.2l0.2,0L77.3,58.2z"/>
							<path fill="#202020" d="M77.8,59.4c0.2,0.1,0.5,0.2,0.5,0c-0.3-0.1-0.3-0.2-0.6-0.2c-0.1-0.1-0.2-0.3-0.1-0.3
								c-0.1,0-0.1-0.3-0.3-0.3c0,0.3,0.2,0.5,0.5,0.7C77.9,59.4,77.8,59.4,77.8,59.4z"/>
							<path fill="#202020" d="M92.4,67.8l-0.1,0C92.3,67.8,92.3,67.8,92.4,67.8z"/>
							<path fill="#202020" d="M103,68.9c-0.1,0-0.1,0-0.1,0C103,69,103,69,103,68.9z"/>
							<path fill="#202020" d="M105.1,68.9c0,0-0.1,0-0.1,0C105,68.9,105.1,68.9,105.1,68.9z"/>
							<path fill="#202020" d="M92.4,67.8l0.3,0C92.7,67.7,92.5,67.8,92.4,67.8z"/>
							<path fill="#202020" d="M79.7,61.2c0,0-0.1-0.1-0.1-0.1L79.7,61.2L79.7,61.2z"/>
							<path fill="#202020" d="M87.3,68.8L87.3,68.8c-0.1,0-0.2,0-0.2,0.1L87.3,68.8z"/>
							<path fill="#202020" d="M83.5,67.3c0.1,0.1,0.2,0,0.3-0.1c-0.1,0-0.2,0-0.2,0C83.5,67.2,83.5,67.2,83.5,67.3z"/>
							<path fill="#202020" d="M79.7,62.3L79.7,62.3C79.6,62.2,79.6,62.3,79.7,62.3z"/>
							<path fill="#202020" d="M90.2,68.6C90.2,68.6,90.2,68.6,90.2,68.6C90.2,68.6,90.2,68.6,90.2,68.6z"/>
							<path fill="#202020" d="M76.7,54.4C76.7,54.4,76.6,54.4,76.7,54.4C76.7,54.4,76.7,54.4,76.7,54.4z"/>
							<path fill="#202020" d="M77.7,58.8L77.7,58.8c-0.1,0-0.1,0-0.1,0L77.7,58.8z"/>
							<path fill="#202020" d="M108.6,67.1C108.6,67.1,108.6,67.1,108.6,67.1C108.5,67.2,108.5,67.2,108.6,67.1z"/>
							<path fill="#202020" d="M113.7,37.5c0.2,0.4-0.6-0.3-0.3,0.2C113.4,37.6,114,37.9,113.7,37.5z"/>
							<path fill="#202020" d="M79.7,61.3l0.1,0.1C79.8,61.3,79.7,61.3,79.7,61.3z"/>
							<path fill="#202020" d="M113.4,37.7L113.4,37.7L113.4,37.7C113.4,37.7,113.4,37.7,113.4,37.7z"/>
							<path fill="#202020" d="M113.9,60.7c0,0-0.1,0-0.1,0C113.9,60.7,113.9,60.7,113.9,60.7z"/>
							<path fill="#202020" d="M109.8,65.3l0.1-0.1C109.9,65.2,109.8,65.2,109.8,65.3z"/>
							<path fill="#202020" d="M115.8,58.1c0.1-0.1,0.1-0.1,0.2-0.2c0,0,0,0,0,0C115.9,58,115.9,58,115.8,58.1z"/>
							<path fill="#202020" d="M117.1,54.7L117.1,54.7c0,0.1,0,0.2,0,0.2L117.1,54.7z"/>
							<path fill="#202020" d="M78.1,45.1c-0.1,0.1-0.1,0.1-0.2,0.1C78.1,45.2,78,45.8,78.1,45.1z"/>
							<path fill="#202020" d="M79.6,61.2c0,0,0.1,0,0.1,0L79.6,61.2C79.6,61.2,79.6,61.2,79.6,61.2z"/>
							<path fill="#202020" d="M114.9,57.2l0.3-0.4C115.2,56.9,115.1,57,114.9,57.2z"/>
							<path fill="#202020" d="M93.3,30.3l-0.1,0C93.2,30.3,93.2,30.3,93.3,30.3z"/>
							<path fill="#202020" d="M115.9,55.7c0.1,0,0.1-0.1,0.1-0.2c0,0,0,0,0,0L115.9,55.7z"/>
							<path fill="#202020" d="M78,45.3L78,45.3L78,45.3z"/>
							<path fill="#202020" d="M76.8,48.7c0.2-0.4-0.1-0.3-0.2-0.4c0.2-0.5,0.3-0.1,0.5-0.2c0.1-0.3,0.2-0.7,0.3-1c0,0,0.1,0,0.1,0
								c0.1-0.4,0.6-1.3,0.4-1.8c0,0,0,0,0.1-0.1c-0.1,0.1-0.2,0.1-0.3,0c0-0.2-0.1-0.4,0.1-0.5c0,0.1,0,0.2,0.1,0.2l0-0.3
								c0.2-0.2,0,0.3,0.2,0.4c0-0.5-0.1-1.1-0.1-1.4c0.2-0.1,0,0.9,0.2,0.4L78,44.6c0.3-0.4-0.1,0.4,0.3,0c0.1-0.8-0.1-0.9,0-1.6
								c-0.1-0.2-0.2,0.1-0.3-0.1c-0.2-1,0.5-0.8,0.3-1.4c-0.1-0.2-0.3-0.3-0.1-0.7l0.2,0.2c0.2-0.5-0.2-0.5,0.3-0.9
								c0,0.1-0.2,0.4-0.1,0.4c0.3-0.2,0-0.3,0.2-0.5L79,40c0.3-0.4,1-0.9,1.7-1.2c0,0.1-0.1,0.2,0.1,0.2c0.5-0.2,1-0.5,1.6-0.8
								c0.6-0.3,1-0.8,1.4-1.2l0.1-0.4c0.1-0.1,0.2-0.1,0.1,0c0.3-0.3-0.1-0.1,0-0.3c0.1-0.2,0.2-0.2,0.2,0c0.3-0.7,0.8-1.8,1.5-2.1
								l-0.1,0.1c0.4-0.3,0.2-0.7,0.6-0.9l0,0.1c0.9-0.8,1.9-1.6,2.8-1.8c0-0.3,1.1-0.4,1-0.7c0.7-0.1,0.5,0,1.5-0.1
								c0.2,0,0.3-0.3,0.6-0.4l0,0.2l0.4-0.3l0.3,0.2l0.3-0.1c-0.1,0-0.3,0-0.2-0.1c0.4-0.1,1.1,0,1.1,0.1c0,0,0.3-0.1,0.5-0.1
								c0.3,0,0.5-0.1,0.5-0.1c0,0.1-0.2,0.1-0.3,0.1c0.6-0.2,0.1,0.2,0.6,0c-0.1,0,0-0.1,0.1-0.1c0.3,0.1,0.8,0.2,1.3,0.2l-0.1,0.1
								c0.8,0.2,1.6,0.3,2.5,0.6c-0.3-0.2-0.1-0.3,0.1-0.3l0,0.2c0.2,0-0.2-0.2,0.2-0.2c0.3,0.2,0.1,0.3-0.1,0.3l0.4,0.1
								c0,0.1-0.1,0-0.2,0.1c0.2,0,0.5,0.5,0.8,0.4l0,0.1c0.8,0.4,1.1,0.6,1.7,1c0.1-0.1,0.3,0.1,0.6,0.1c0.4,0.4,0.7,0.9,1.2,1.4
								c0.4,0.3,0.2,0,0.4,0.1c-0.1,0.1,0.4,0.6,0.1,0.4c0.7,0.6,0.8,0.8,1.9,1.2c-0.1-0.1-0.2-0.2-0.1-0.2c0.2,0.1,0.4,0.2,0.4,0.3
								l-0.1,0c1.3,0.2,2.8,0.7,3.6,0.7l0,0c0,0,0.9,0.1,0.9,0.1c0.4,0.2-0.3,0,0,0.2c1,0.1,1.3,0.7,1.9,1.1
								c0.1,0.4,0.4,0.7,0.8,1.1c0.3,0.4,0.6,0.9,0.6,1.3l0.1-0.1c0.2,0.2,0,0.2,0.1,0.4c0.1,0,0-0.2,0.1-0.1
								c0.3,0.8,0.4,1.7,0.2,2.7c-0.2,0.9-0.5,1.9-0.7,2.8c-0.2,0.7,0.4,0.5,0,1.4l-0.1-0.3c0,0.8-0.1,1.6-0.1,2.4
								c0,0.8,0.1,1.6,0.5,2.4c-0.1-0.1-0.1-0.1-0.2-0.2c0,0.4,0.5,1.2,0.6,1.1c0.1,0.2-0.1,0.1,0,0.3c0.1,0.4,0.7,0.6,0.7,0.8
								c0,0-0.1,0-0.1-0.1c0.2,0.1,0.6,0.6,0.6,0.4c0.1,0.2,0.2,0.3,0.2,0.4c0.1,0.1,0.1,0.3,0,0.4c0.2,0.2-0.3,0.6-0.1,0.8
								c-0.2-0.1-0.6,0.6-0.8,0.9c0-0.1-0.3,0.2-0.3,0c-0.2,0.3-0.4,0.6-0.3,0.6c-0.7,0.4-0.7,1.3-1.3,1.3c-0.6,1-1.2,1.9-1.9,2.7
								c-0.2-0.2,0.7-0.9,0.5-1c-0.6,0.8-0.7,1.4-1.4,2.1c-0.2,0.2,0-0.2,0-0.3c-0.5,0.8-1.2,1.5-1.7,2.2c0,0,0-0.1,0.1-0.2
								c-0.1,0.1-0.3,0.3-0.2,0.3l0.1-0.1c0.3-0.1-0.2,0.7-0.1,0.8c-0.1-0.4-0.6,0.6-0.6-0.1c-0.1,0.1-0.1,0.2,0,0.3
								c-0.1,0.1-0.2,0.1-0.1-0.1c-0.4,0.5-0.1,0.4-0.5,0.8c0,0,0-0.1,0-0.2c-0.1,0.3-0.3,0.5-0.7,0.7c0,0-0.1-0.1,0-0.1
								c-0.6,0.4-1,0.9-1.9,1c0.2-0.3-0.3,0-0.4-0.2l-0.4,0.1l0.2,0.1c-0.4,0.1-0.7,0.3-1.1,0.2l0.3-0.1c0,0-0.7,0.1-0.7,0.1
								c0,0,0.1,0,0.2,0c0.1,0,0.2,0,0.2,0c-0.4,0.1,0,0.3-0.5,0.2c0.1,0-0.4,0-0.6-0.2l0,0c-0.2,0.1-0.4,0.1-0.7,0
								c-0.1-0.1,0.1-0.2,0.1-0.3c-0.2,0.1-0.9-0.2-1.2-0.1c0.1,0,0.1-0.1,0.1-0.1l-0.2,0.1c-0.2-0.1-0.2-0.2-0.1-0.2
								c-0.5-0.3,0,0.3-0.5-0.1c0.1,0,0,0,0.1,0c-0.6-0.3-1.1-0.6-1.6-1.1c0-0.3,0.5,0.3,0.4,0c-0.4-0.3-1-0.5-1.5-0.6
								c-0.6,0-1.1,0.1-1.5,0.2l0.2,0c0,0.3-0.7,0-1.1,0.4c0.1-0.1,0.1-0.2,0.1-0.2c-0.6,0.2-1.1,0.6-2,1l0.1-0.1
								c-0.4,0.1-0.9,0.3-1.3,0.3c-0.1,0.1-0.3,0.2-0.1,0.2C90,67.5,89,68.4,88,68c0.1,0,0.3-0.1,0.2-0.1c0,0-0.2,0-0.4,0
								c-0.2,0-0.4,0-0.4,0c0.1,0.1,0.1,0.1,0.3,0.2c-0.1,0.1-0.4,0.1-0.6,0.1c0.4,0,0-0.2-0.1-0.3c0,0,0,0.1,0,0.1
								c-0.4-0.3-0.1,0.3-0.7,0l0.1-0.1c-0.2,0-0.5,0-0.7-0.1c0-0.2,0.3,0,0.3-0.1c-0.3-0.1-0.8,0-1-0.3c0.2,0,0.4,0.1,0.5,0.2
								c-0.2-0.3-0.3-0.3-0.5-0.4l0,0c0,0-0.1-0.1-0.2-0.2c-0.1-0.1-0.2-0.2-0.2-0.2l0.1,0.1c-0.6,0.1-0.8-0.5-1.4-0.7
								c0.6,0.2,0.2,0,0.3-0.1c-0.1-0.1-0.2-0.3-0.1-0.3c-0.3-0.1-0.2-0.4-0.7-0.6c0-0.1-0.2-0.2,0-0.3c-0.3-0.3,0,0.1-0.1,0.2
								c-0.5-0.3-0.7-1.2-1.4-1.7c-0.5-0.5-0.8-0.5-1.2-1c-0.1-0.2,0.3,0,0.3,0c-0.2-0.3-0.3-0.6-0.6-0.8c0.1,0,0.1-0.1,0.1-0.2
								c-0.2-0.2-0.3,0-0.4-0.4c0.1,0,0.2,0,0.3,0.1c-0.2-0.2-0.5-0.4-0.8-0.7c0-0.1,0.2,0.1,0.4,0.1c-0.3-0.3-0.7-0.7-0.9-0.7
								l0.1,0.2c-0.1-0.1,0.1-0.1,0.1-0.1c0.3,0.2,0.2,0.4,0.2,0.5l-0.2-0.2c-0.1,0.4,0.6,0.7,0.9,1.1l-0.3,0l0.5,0.3
								c0,0.1,0,0.3-0.2,0.1c0.1,0.4,0.3,0.2,0.3,0.5c0,0,0,0,0,0l0.3,0.2c-0.1,0-0.1,0.1-0.2,0c0.3,0.6,0.7,0.7,0.7,1l0,0
								c0.6,0.6,0.2,0,0.7,0.3l-0.1,0.6l0.2,0c0,0.1,0.1,0.2,0.1,0.2c0.3,0.2,0-0.1,0.2,0c0.1,0.4,0.8,0.9,0.6,1.1
								c0.2,0-0.2-0.4,0.2-0.1c-0.1,0.3,0.4,0.4,0.6,0.7c-0.2,0-0.4-0.3-0.2,0.1c0.3,0,0.5,0.6,0.8,0.8c0.1-0.1,0.6,0.4,1.2,0.6
								c-0.1,0.1,0.9,0.6,1.4,0.8l0,0c0.2-0.2,0.7,0,1.1,0c0,0.1-0.1,0.2-0.3,0.2c0,0,0.4,0.1,0.4,0c0.1-0.1,0.2-0.1,0.5-0.1
								l-0.1,0.2c0.5,0,1-0.2,1.6-0.1c0-0.1-0.5-0.4,0.1-0.5c0,0.1,0.1,0.2-0.1,0.3c0.1,0,0.2-0.1,0.3-0.1l-0.2,0.2
								c0.3,0,0.1-0.1,0.4-0.1c0,0.1,0.2,0.1,0.2,0.1c-0.1,0-0.2,0-0.3,0c0.3,0,0.6,0,0.7,0.1c0-0.1,0-0.2,0.2-0.2
								c0.5-0.1,0.2,0.1,0.5,0.1c0.1-0.1,0.4-0.1,0.4-0.3c0.1,0,0.2,0,0.2,0.1c0.2-0.1,1.1-0.4,0.8-0.5l-0.1,0l0,0l0,0l0,0
								c0.7-0.4,1.6-0.5,2.3-0.9l0,0.1c0.4-0.2,1-0.4,1.3-0.6c0.1,0,0.3,0.1,0.3,0.1c0.3-0.1,0.4-0.2,0.8,0c-0.3,0,0.1,0.1-0.3,0
								c0.4,0.1,0.4,0.2,0.9,0.3c-0.2,0,0.2,0.3,0.4,0.4L97.6,67c0.2,0.1,0.4,0.3,0.5,0.4L98,67.5c0.3,0.4,0.8,0.6,1.2,0.7
								c0.4,0.1,0.8,0.2,1.1,0.5c0.3,0-0.5-0.3-0.2-0.3c0.4,0.2,0.8,0.6,1,0.6c0.6,0.2,0.7-0.2,1.3,0c-0.1-0.1-0.1-0.3,0.3-0.3
								c0.5,0,0.6,0.3,0.3,0.3c-0.1,0-0.2,0-0.2,0c-0.2,0-0.4,0-0.2,0.1l0.1-0.1c0.2,0.1,0.9,0,0.7,0.2c0.4-0.1,0.1-0.1-0.1-0.1
								c0.6,0.1,1-0.1,1.6-0.2c-0.1,0-0.2-0.1-0.1-0.1c0.9-0.2,0.4-0.2,0.9-0.5c0.4,0,0,0.3,0.5,0c0.4-0.1,0.2,0.1,0,0.2
								c0.5-0.4,1-0.5,1.3-0.6l-0.2,0.2c0.1-0.1,0.3-0.2,0.4-0.3l-0.2,0c0.2-0.1,0.3-0.2,0.3-0.1c0.1-0.2-0.2-0.1,0-0.4
								c0.2-0.1,0.5-0.5,0.7-0.4c-0.6,0.5,0.2,0.1-0.3,0.5c0.1-0.1,0.2-0.2,0.3-0.3c0,0,0,0,0,0.1c0.6-0.4,0.1-0.4,0.6-0.9
								c0,0.1,0.3,0,0.3-0.1c-0.2,0.2-0.2,0-0.1-0.3c0.4-0.3,0.3-0.4,0.4-0.6l-0.2,0.2c0-0.1,0.1-0.3,0.3-0.6c0.1,0-0.1,0.3,0,0.2
								c0.1-0.4,0.6-0.5,0.9-0.9c0.2-0.1,0.2,0.1,0.3,0c0.2-0.5,0.5-0.4,0.8-0.9c-0.2,0-0.2,0.1-0.1-0.3l-0.5,0.8l0.2-0.6
								c-0.2,0.2-0.3,0.5-0.4,0.6c0.1-0.3,0.1-0.2-0.1-0.2c0.4-0.2,0.4-0.7,0.8-0.9l0.3,0.2c0.5-0.4,0.6-1,1.2-1.6l-0.2,0.2
								c0-0.2,0.3-0.4,0.5-0.7c0.1,0.1,0.2,0,0.3-0.1c-0.1,0,0.4-0.5,0.3-0.7l0.4-0.2c0.5-0.5,0.3-0.8,0.7-1.3c0,0.2,0.2,0.1,0,0.5
								c0.1-0.2,0.3-0.3,0.2-0.4c0.1-0.1,0.3-0.6,0.5-0.7c0-0.1,0-0.2,0.1-0.4c0,0,0,0,0,0c0,0,0.2-0.4-0.1-0.3
								c0.4-0.2,0.6-0.6,0.8-1.1c0.2-0.5,0.2-1,0.2-1.5c-0.2-0.6-0.8-1-1.1-1.3c0,0,0,0,0.1,0c-0.3-0.5-0.5,0-0.8-0.7
								c0-0.4,0.3,0.2,0.2,0c0.3-0.3-0.4-0.6-0.3-1.1l0,0.1c0-0.3-0.3-0.7-0.4-1.3c0,0,0,0,0.1,0c-0.2-0.4-0.3-1.1-0.3-1.7
								c0.1,0.2,0.1,0.3,0.2,0.2c0-0.2-0.2,0.1-0.2-0.4c0.1-0.2,0.2-0.5,0.4-0.5l-0.1,0.5c0.2-0.2,0.1-0.6,0.2-0.8l0.1,0
								c0.1-0.7-0.1-0.8,0.1-1.5l-0.1,0.1c-0.1-0.5,0.2-0.3,0.1-0.8l0.2-0.1c0-0.3,0-1,0-1.5c0.1,0.3,0.1,0.9,0.2,1.3
								c0.1-0.3,0.1-1,0-1.1c0,0.1,0,0.3,0,0.4c-0.1-0.4-0.2-0.8-0.1-1.4c0.2,0.1,0.3-0.3,0.2-0.8c0-0.5-0.1-1,0-1.2
								c-0.4-1-0.7-2-1.6-3c0,0.6-0.3-0.3-0.5,0c-0.2-0.2-0.3-0.3-0.3-0.3c0,0-0.1-0.2-0.3-0.4c-0.1-0.2-0.3-0.4-0.3-0.4
								c-0.1-0.2,0.3,0.1,0.3,0c-0.5-0.4-0.1-0.3-0.4-0.6c0,0.2-0.3,0-0.6-0.2l0.4,0.4c-0.4-0.2-0.6-0.3-0.7-0.5
								c-0.1-0.2-0.3-0.3-0.8-0.4l0.3,0c-0.4-0.1-1.7-0.5-2.2-0.2c-0.1,0-0.2-0.2,0-0.2c-1.1-0.1-2.2,0.1-2.7-0.4l0.1,0
								c-0.1,0-0.3,0-0.5-0.2c0,0,0.1,0,0-0.1c-0.1,0-0.4-0.1-0.6-0.3l0.2,0.1c-0.6-0.7-1.2-0.8-1.8-1.4c0.2-0.2-0.3-0.8-0.6-1.1
								l0,0c-0.9-0.8-1.8-1.1-2.8-1.5c-0.5-0.6-2.1-1-3.2-1.4c0.2,0.1-0.1,0.2-0.3,0.2c-0.3-0.1-0.7,0.1-0.7-0.2l0.1,0
								c-0.2-0.3-0.7-0.3-1.1-0.3l-0.1,0.3c-0.5-0.3-1.3-0.2-1.9-0.1c-0.7,0.1-1.2,0.3-1.6,0.2c-0.2,0.1-0.6,0.2-0.8,0.4l0-0.2
								c-0.7,0.2-1.1,0.3-1.9,0.7l0.1-0.2c-0.5,0.2-0.4,0.7-0.8,0.9l-0.2-0.1c-0.8,0.4-1.7,0.8-2.2,1.5c0,0,0-0.1,0.1-0.2
								c-0.3,0.3-1.3,1-1,1.1c-0.2-0.1-0.7,0.7-0.9,1.1l-0.1-0.2c-0.1,0.5-0.1,0.5-0.3,1c-0.1,0.1-0.2,0,0-0.1
								c-0.3,0.3-0.1,0.4-0.4,0.8l0-0.2c-0.3,0.4-0.2,0.4-0.2,0.6c-0.1,0.3-0.5,0.6-0.7,0.5c0,0.1,0,0.3-0.3,0.5c-0.1,0,0-0.1,0-0.1
								c-0.6,0.3-0.7,0.7-1.2,0.8c0,0-0.1-0.1-0.1-0.1c0.5-0.2,0.9-0.4,0.9-0.4c-0.1-0.1-0.4,0.1-0.3-0.3c-0.2,0.3-0.7,0.7-1.1,0.8
								c0,0-0.1,0-0.1,0l0,0c-0.1,0-0.2,0.1-0.3,0.1c-0.1,0-0.2,0.1-0.4,0.1c-0.1-0.1-0.6,0.2-0.8,0.3c0.1,0.1-0.2,0.3,0.1,0.2
								c0,0,0,0,0.2-0.1c0,0,0.1,0,0.1-0.1l0,0c0.1-0.1,0.3-0.2,0.6-0.3c-0.1,0.2-0.3,0.3-0.6,0.4c-0.1,0.2-0.1,0.3-0.2,0.4
								c-0.4,0-1,0.4-1.2,0.4c-0.5,0.8-0.7,1.9-0.5,2.4c0,0.2-0.1,0.2-0.2,0.3c0-0.1,0-0.3,0-0.3c0,0.4,0,1.3,0.2,1.4
								c-0.1,0.5-0.2-0.3-0.2,0.4l-0.1-0.1c-0.2,0.7-0.1,1.2,0,1.8c0,0.6,0,1.2-0.6,1.7c0.1-0.1,0.1-0.1,0.2-0.1
								c-0.5,0.6-1.1,1.5-1.3,2.4C75,50.1,75,51,74.9,51.9c0,0.5,0.1,0.6,0.3,0.8l-0.1,0.1l0.3,0.5c0.3,0.7-0.1,1.4,0.5,2.2l0.1-0.2
								c0.1,0.3,0.5,1,0.3,1c0,0,0.2,0.1,0.2,0.2l-0.1,0l0.5,0.7c0.2,0.6-0.4,0.1,0,0.9c0.2,0.3,0.7,0.8,0.7,0.6
								c-0.1-0.1-0.1-0.3,0-0.4l0.2,0.3c0.3-0.1,0.6,0,0.4-0.8l-0.4-0.4l0-0.2l0.2,0.4c0-0.3-0.2-0.4-0.3-0.5c0-0.1,0.1-0.2,0-0.3
								l-0.5-0.4c0.1-0.1,0.3,0.1,0.2-0.2c-0.2-0.2-0.1,0.3-0.4,0c0-0.3,0.1-0.3-0.1-0.5c0-0.1,0.1,0,0.2,0.1
								c-0.2-0.2-0.3-0.6-0.5-0.7c0.1-0.3-0.3-0.8-0.1-0.9c-0.1-0.1-0.3-0.4-0.4-0.6c0.4,0.3-0.2-0.9,0.2-0.8
								c-0.3-0.3-0.3-1.1-0.5-1.6c0,0,0.1,0.1,0.1,0.1c0-0.3,0.1-0.4,0.2-0.6c-0.2,0-0.2-0.5-0.3-0.8c0.3-0.3,0.2,0.3,0.5,0.2
								c-0.2,0-0.1-0.6-0.2-0.6c0.2-0.2,0.1-0.2,0.3-0.3c-0.3-0.1,0-0.3,0-0.5c0.3-0.3,0.3,0,0.4-0.4C76.9,48.3,76.8,48.7,76.8,48.7
								z M80.7,38.7L80.7,38.7c-0.1,0-0.2,0.1-0.2,0.1C80.6,38.8,80.6,38.8,80.7,38.7z M81.7,38.3c-0.1,0.1-0.3,0.1-0.4,0.2
								c-0.1,0,0-0.1,0.1-0.1C81.3,38.4,81.5,38.3,81.7,38.3z M79.3,38.1c0.1-0.1,0.2-0.1,0.2-0.1C79.4,38.1,79.4,38.1,79.3,38.1
								l0,0.1C79.2,38.2,79.2,38.2,79.3,38.1z"/>
							<path fill="#202020" d="M79.1,38.5C79.1,38.5,79.1,38.5,79.1,38.5C79.1,38.5,79.1,38.5,79.1,38.5L79.1,38.5L79.1,38.5z"/>
							<path fill="#202020" d="M92.2,67.8L92.2,67.8C92.2,67.8,92.2,67.8,92.2,67.8C92.2,67.8,92.2,67.8,92.2,67.8z"/>
							<polygon fill="#202020" points="92.2,30.6 92.2,30.5 92.2,30.6 							"/>
							<path fill="#202020" d="M86.8,68C86.8,67.9,86.8,67.9,86.8,68C86.8,67.9,86.8,67.9,86.8,68z"/>
							<path fill="#202020" d="M84.8,67.2L84.5,67C84.6,67.1,84.7,67.1,84.8,67.2z"/>
							<path fill="#202020" d="M83.5,66.1C83.4,66.1,83.4,66.1,83.5,66.1L83.5,66.1L83.5,66.1z"/>
							<path fill="#202020" d="M108.9,64.7C108.9,64.7,108.9,64.6,108.9,64.7C109,64.5,109,64.6,108.9,64.7z"/>
							<path fill="#202020" d="M102,68.3c0.1,0,0.2,0,0.3,0C102.1,68.2,102,68.2,102,68.3z"/>
							<polygon fill="#202020" points="114.9,57.2 114.9,57.2 114.9,57.2 							"/>
							<path fill="#202020" d="M102.7,68.2c-0.1,0-0.3,0-0.4,0C102.4,68.2,102.5,68.3,102.7,68.2z"/>
							<path fill="#202020" d="M78.7,59.9L78.7,59.9C78.6,59.8,78.6,59.8,78.7,59.9L78.7,59.9z"/>
							<path fill="#202020" d="M78.6,59.8L78.6,59.8C78.6,59.8,78.6,59.8,78.6,59.8z"/>
							<path fill="#202020" d="M78.4,59.6l0.2,0.1C78.5,59.7,78.5,59.6,78.4,59.6z"/>
							<path fill="#202020" d="M80.1,61.9L80.1,61.9C80.1,61.8,80.1,61.8,80.1,61.9z"/>
							<path fill="#202020" d="M80.5,62.4c-0.1-0.1-0.2-0.4-0.3-0.6l-0.1,0C80.3,61.9,80.4,62.4,80.5,62.4z"/>
							<path fill="#202020" d="M81.8,65.3l-0.3-0.5c0,0.1,0,0.3-0.1,0.1C81.7,65.6,81.3,64.6,81.8,65.3z"/>
							<path fill="#202020" d="M83.1,66.8C82.8,66.6,83,66.9,83.1,66.8C83.2,67,83.2,67,83.1,66.8z"/>
							<path fill="#202020" d="M96.2,66.6l0,0.1C96.4,66.7,96.2,66.7,96.2,66.6z"/>
							<polygon fill="#202020" points="98.8,66.9 98.6,66.6 98.5,66.7 							"/>
							<path fill="#202020" d="M99.6,68.5l-0.1,0c0,0,0.4,0.1,0.4,0.1C99.9,68.7,99.6,68.5,99.6,68.5z"/>
							<path fill="#202020" d="M117.3,55.4l-0.2,0.1C117.2,55.7,117.4,55.8,117.3,55.4z"/>
							<path fill="#202020" d="M115.3,46.3c0.1-0.1,0.2-0.4,0.2-0.5C115.4,45.9,115.3,46.1,115.3,46.3z"/>
							<polygon fill="#202020" points="94.7,28.9 94.9,28.8 94.5,28.9 							"/>
						</g>
					</g>
				</g>
			</g>
		</g>
		<g>
			<g>
				<g>
					<g>
						<g>
							<path fill="#202020" d="M91.2,45.9c0,0,0.2,0,0.2,0l-0.2-0.1L91.2,45.9z"/>
							<path fill="#202020" d="M91.7,45.5c-0.1-0.1-0.2-0.3-0.4-0.2c0.2,0.1,0.1,0.1,0.3,0.3c0,0.1-0.1,0.1-0.2,0.1
								c0,0-0.1,0.1,0,0.2c0.2-0.1,0.2-0.2,0.1-0.3C91.6,45.4,91.7,45.4,91.7,45.5z"/>
							<path fill="#202020" d="M96.3,42.1L96.3,42.1C96.3,42.1,96.3,42.1,96.3,42.1z"/>
							<path fill="#202020" d="M100,45.1C99.9,45.1,99.9,45.1,100,45.1C100,45.1,100,45.1,100,45.1z"/>
							<path fill="#202020" d="M100.7,45.5C100.7,45.5,100.6,45.5,100.7,45.5C100.6,45.5,100.7,45.6,100.7,45.5z"/>
							<path fill="#202020" d="M96.3,42.1l0,0.1C96.4,42.2,96.3,42.2,96.3,42.1z"/>
							<path fill="#202020" d="M91.6,44.3C91.6,44.3,91.6,44.4,91.6,44.3L91.6,44.3L91.6,44.3z"/>
							<path fill="#202020" d="M95.1,41.6L95.1,41.6C95.1,41.7,95.1,41.7,95.1,41.6L95.1,41.6z"/>
							<path fill="#202020" d="M94,42.5c0,0-0.1-0.1-0.1-0.2C93.9,42.4,93.9,42.4,94,42.5C93.9,42.5,93.9,42.5,94,42.5z"/>
							<path fill="#202020" d="M92.4,44.3L92.4,44.3C92.4,44.3,92.4,44.3,92.4,44.3z"/>
							<path fill="#202020" d="M95.7,41.7C95.7,41.7,95.7,41.7,95.7,41.7C95.7,41.7,95.7,41.7,95.7,41.7z"/>
							<path fill="#202020" d="M82.5,49.1C82.5,49.1,82.5,49.1,82.5,49.1C82.5,49,82.5,49,82.5,49.1z"/>
							<polygon fill="#202020" points="83.3,47.3 83.3,47.3 83.4,47.3 							"/>
							<path fill="#202020" d="M101.9,46.1L101.9,46.1C101.9,46.2,101.9,46.2,101.9,46.1z"/>
							<path fill="#202020" d="M98,55.1c0.2,0.1-0.1,0.3,0.1,0.3C98.1,55.3,98.2,55.1,98,55.1z"/>
							<path fill="#202020" d="M91.6,44.3C91.7,44.2,91.7,44.2,91.6,44.3C91.7,44.2,91.7,44.3,91.6,44.3z"/>
							<path fill="#202020" d="M98.1,55.4L98.1,55.4L98.1,55.4C98.1,55.4,98.1,55.4,98.1,55.4z"/>
							<path fill="#202020" d="M101.8,47.2C101.8,47.2,101.8,47.1,101.8,47.2C101.8,47.1,101.8,47.1,101.8,47.2z"/>
							<path fill="#202020" d="M102.5,46L102.5,46C102.5,46,102.5,46,102.5,46z"/>
							<path fill="#202020" d="M101.8,48.6C101.7,48.6,101.7,48.6,101.8,48.6L101.8,48.6C101.7,48.6,101.7,48.6,101.8,48.6z"/>
							<polygon fill="#202020" points="101.6,49.9 101.7,49.9 101.7,49.8 							"/>
							<path fill="#202020" d="M82.6,53.1c0,0,0.1-0.1,0.1-0.1C82.6,53.1,82.5,52.9,82.6,53.1z"/>
							<path fill="#202020" d="M91.7,44.3C91.7,44.3,91.6,44.3,91.7,44.3L91.7,44.3C91.7,44.3,91.7,44.3,91.7,44.3z"/>
							<path fill="#202020" d="M103,48.7l0,0.2C103,48.9,103,48.8,103,48.7z"/>
							<path fill="#202020" d="M89.8,53.7L89.8,53.7C89.8,53.7,89.8,53.7,89.8,53.7z"/>
							<path fill="#202020" d="M102.9,49.6c-0.1,0-0.1,0.1-0.1,0.1c0,0,0,0,0,0L102.9,49.6z"/>
							<path fill="#202020" d="M82.7,53.1L82.7,53.1L82.7,53.1z"/>
							<path fill="#202020" d="M82.3,51.6c0,0.2,0.2,0.1,0.3,0.1c0.1,0.2-0.2,0.1-0.3,0.2c0.1,0.2,0.3,0.3,0.2,0.4c0,0,0,0-0.1,0
								c0.2,0.2,0,0.5,0.2,0.7c0,0,0,0-0.1,0c0.1,0,0.2,0,0.3,0c0,0.1,0.1,0.2,0,0.2c0-0.1-0.1-0.1-0.1-0.1l0.1,0.1
								c-0.2,0.1-0.1-0.1-0.2-0.1c0.1,0.2,0.3,0.4,0.3,0.6c-0.2,0.1-0.2-0.4-0.3-0.1c0,0,0-0.3,0-0.3c-0.3,0.2,0-0.2-0.3,0
								c0,0.4,0.1,0.5,0.3,0.9c0.2,0,0.1-0.1,0.3-0.1c0.3,0.2,0.3,0.3,0.3,0.5c0,0.1,0,0.3,0.3,0.3c0.2-0.1,0.3-0.3,0.4,0l-0.2,0.2
								c0.3,0.1,0.3-0.2,0.5,0c-0.1,0.1-0.2,0-0.2,0c0.1,0.2,0.2-0.1,0.3,0l-0.1,0.2c0.3,0.1,0.7,0.1,1,0.2c0,0-0.1,0.1-0.1,0.2
								c0.2,0,0.4,0.1,0.6,0.2c0.2,0.1,0.6,0.3,1,0.5c0,0,0.2-0.1,0.2-0.1c0.1,0,0.1,0.1,0.1,0.1c0.2-0.1,0-0.1,0-0.3
								c0.1-0.1,0.2-0.1,0.1,0.1c0.1-0.3,0.3-0.6,0.4-0.9c0.1-0.2,0.2-0.3,0.4-0.4l0,0.1c0.2-0.1-0.1-0.4,0.1-0.5l0,0.1
								c0.4-0.4,0.5-0.9,0.9-0.9c-0.1-0.1,0-0.2,0.1-0.2c0.1,0,0.1,0,0-0.2c0.2,0.1,0.2,0.2,0.2,0.3c0,0,0.1-0.1,0.1-0.2
								c0,0,0,0,0.1,0l-0.1,0.2c0,0,0.2-0.1,0.2-0.1c0,0-0.1,0.2-0.1,0.2c0,0,0.1,0,0.1,0c0,0,0-0.1,0.1-0.1c0.1,0,0.2,0.4,0.1,0.5
								c0,0,0.4,0.3,0.4,0.3c-0.1,0-0.1,0-0.2,0c0.3,0.1-0.1,0.2,0.2,0.2c0-0.1,0.1-0.1,0.1-0.1c0,0.2,0.2,0.4,0.4,0.5L90.7,55
								c0.3,0.3,0.6,0.5,1,0.7c-0.1-0.1,0.1-0.3,0.2-0.2l-0.1,0.2c0.1-0.1-0.1-0.1,0.1-0.2c0.1,0.1,0,0.2-0.1,0.2l0.2,0
								c0,0.1-0.1,0.1-0.1,0.1c0.1-0.1,0.2,0.3,0.4,0.2l0,0.1c0.4,0.2,0.6,0.2,0.9,0.3c0.1-0.1,0.2-0.1,0.3-0.2
								c0.2,0.1,0.4,0.3,0.7,0.4c0.2,0,0.1-0.1,0.2-0.2c0,0.1,0.3,0.2,0.1,0.3c0.4,0,0.5,0.1,0.9,0c0-0.1-0.1-0.1-0.1-0.1
								c0.1,0,0.2,0.1,0.2,0.1l0,0c0.5-0.2,1.2,0.4,1.6,0l0,0c0,0,0.4-0.2,0.4-0.2c0.2,0-0.1,0.1,0.1,0.2c0.4-0.4,0.7-0.2,1-0.5
								c0.5,0.3,0.9-0.5,1.4-0.5l-0.1-0.1c0-0.1,0.1,0,0.2-0.1c-0.1-0.1-0.1,0-0.1-0.1c0.6-0.6,1.4-1.1,2-1.8
								c0.2-0.3-0.4-0.4,0.1-0.7l0.1,0.2c0.1-0.7,0.6-1.2,0.5-1.9c0,0,0.1,0.1,0.1,0.1c0.2-0.1,0.1-0.5,0-0.5c0-0.1,0.1,0,0.2-0.1
								c0.1-0.1-0.1-0.4,0-0.4c0,0,0,0,0,0.1c-0.1-0.1,0.1-0.4-0.1-0.3c0.1-0.2,0-0.4,0.1-0.6c-0.2-0.1,0.1-0.4-0.1-0.4
								c0.3,0,0.2-0.4,0.1-0.5c0.1,0.1,0.1-0.1,0.2,0c0-0.1,0-0.3-0.2-0.3c0.3-0.2-0.2-0.6,0.3-0.6c0-0.2,0-0.4,0-0.6
								c0-0.1,0-0.2,0.1-0.3c0.1-0.1,0.1-0.3,0.2-0.4c0.1,0,0,0.2-0.1,0.3c-0.1,0.2-0.1,0.2,0,0.3c0-0.1,0.1-0.2,0.1-0.3
								c0.1-0.1,0.1-0.2,0.2-0.4c0.2-0.2,0.3-0.4,0.7-0.7c0.3-0.2,0.2,0,0.2,0.1c0.1-0.1,0.2-0.2,0.3-0.3c-0.1,0-0.1-0.1-0.2-0.1
								c-0.1,0-0.2-0.1-0.3-0.1c-0.2-0.1-0.5-0.1-0.8-0.1c0,0,0.1,0,0.2,0c-0.1,0-0.2-0.1-0.3,0l0.1,0c-0.1,0.2-0.8,0.2-0.8,0.3
								c0.4-0.2-0.4-0.2,0.2-0.5c-0.1,0-0.2,0-0.2,0.1c-0.1,0-0.1-0.1,0.1-0.1c-0.4,0-0.3,0.1-0.6,0c0-0.1,0.1-0.1,0.1-0.1
								c-0.2,0.1-0.3,0.1-0.5,0c0,0,0-0.1,0.1-0.1c-0.3-0.1-0.6,0.1-0.9-0.1c0.2-0.2-0.1-0.1,0-0.3l-0.2,0l0,0.1
								c-0.2-0.1-0.3,0-0.4-0.1l0.1,0l-0.3-0.1l0.1,0.1c-0.2,0-0.1,0.3-0.3,0.1c0.1,0-0.2-0.1-0.2-0.2l0,0c-0.1,0-0.2,0.1-0.3,0
								c0-0.1,0.1-0.2,0.1-0.3c-0.1,0.1-0.4-0.1-0.5,0c0.1,0,0.1-0.1,0.1-0.1L99.1,44c0-0.1,0-0.1,0-0.2c-0.2-0.1-0.1,0.3-0.2,0
								c0,0,0,0,0.1,0c-0.2-0.2-0.5-0.2-0.7-0.4c0.1-0.2,0.2,0.1,0.2-0.1c-0.3-0.2-0.7-0.2-0.9-0.5l0,0.1c-0.2,0.2-0.1-0.3-0.3-0.3
								c0,0,0.2-0.1,0.1-0.1c-0.1-0.2-0.4-0.3-0.6-0.5l0.1,0c0-0.1-0.2-0.3-0.2-0.5c-0.1,0-0.1-0.1-0.2,0c0-0.3-0.3-0.6-0.6-0.6
								c-0.3-0.1-0.5,0-0.9,0c0.1,0,0.1-0.1,0.1-0.1c0,0-0.1,0.1-0.2,0.1c-0.1,0.1-0.2,0.1-0.2,0.1c0.1,0.1,0.1,0,0.2,0.1
								c0,0.1-0.1,0.2-0.1,0.2c0.1-0.2-0.1-0.2-0.2-0.2c0,0,0,0.1,0.1,0.1c-0.3-0.1,0.1,0.2-0.2,0.3l0-0.1c-0.1,0.1-0.1,0.2-0.2,0.3
								c-0.1-0.1,0-0.1,0-0.2c-0.1,0.1-0.1,0.4-0.3,0.4c0-0.1,0.1-0.1,0.1-0.2c-0.2,0-0.2,0-0.3,0l0,0l-0.3,0.1l0.1,0
								c0.1,0.4-0.2,0.3-0.2,0.7c0-0.3-0.1-0.1-0.2-0.3c-0.1,0-0.2,0.1-0.2,0c0,0.2-0.2,0.1-0.2,0.4c0,0-0.1,0.1-0.2,0
								c-0.1,0.2,0.1,0,0.1,0.1c0,0.3-0.5,0.3-0.5,0.8c-0.1,0.3,0.1,0.5,0,0.7c-0.1,0-0.1-0.2-0.1-0.2c-0.1,0.1-0.2,0.2-0.2,0.4
								c0,0-0.1,0-0.2,0c0,0.1,0.2,0.1,0,0.3c0,0-0.1-0.1-0.2-0.2c0,0.1,0,0.3,0,0.5c-0.1,0-0.1-0.1-0.2-0.2c0,0.2-0.1,0.4,0.1,0.5
								l0.1-0.1c0,0.1-0.1,0-0.1-0.1c-0.1-0.2,0.1-0.2,0.2-0.2l0,0.1c0.3,0,0.1-0.4,0.2-0.6l0.2,0.2L92,44.3c0.1,0,0.2,0,0.2,0.1
								c0.2-0.1,0-0.1,0.1-0.2c0,0,0,0,0,0l0-0.2c0,0,0.2,0.1,0.1,0.1c0.2-0.1,0-0.4,0.2-0.4l0,0c0.1-0.3-0.1-0.1-0.2-0.4l0.5,0.1
								l-0.1-0.1c0,0,0.1-0.1,0.1,0c0-0.2-0.1,0-0.1-0.2c0.2,0,0.2-0.4,0.5-0.3c-0.1-0.1-0.2,0.1-0.1-0.1c0.3,0.2,0.1-0.2,0.3-0.2
								c0.1,0.1-0.1,0.2,0.1,0.2c-0.1-0.2,0.2-0.2,0.3-0.3c-0.1-0.2,0.1-0.3,0.3-0.4c0,0.1,0.4-0.2,0.6-0.2l0,0
								c-0.1-0.2,0.1-0.3,0.2-0.4c0.1,0.1,0.1,0.2,0,0.3l0.1-0.1c0-0.1,0-0.1,0.1-0.2l0,0.2c0.1-0.1,0.2-0.3,0.3-0.1
								c0.1-0.1-0.1-0.5,0.2-0.5c0,0.1,0,0.2-0.1,0.2c0,0,0.1-0.1,0.1,0c0,0-0.1,0.1-0.1,0.1c0.1,0.1,0.1-0.1,0.1-0.1
								c0,0.1,0,0.1,0,0.2c0,0,0-0.1-0.1,0c0.1,0,0.1,0.2,0.1,0.2c0-0.1,0.1-0.1,0.1-0.1c0.1,0.1-0.1,0.1-0.1,0.2
								c0.1,0,0.1,0.1,0.2,0c0,0,0,0.1-0.1,0.1c0.1,0,0.3,0.3,0.4,0.2l0,0l0,0l0,0l0,0c0.3,0.2,0.3,0.6,0.6,0.8l0,0
								c0.2,0.1,0.3,0.3,0.5,0.3c0,0,0,0.2,0,0.2c0.1,0.1,0.2,0,0.3,0.2c-0.2,0,0,0.1-0.2,0c0.1,0.2,0.1,0.3,0.4,0.3
								c-0.1,0.1,0,0.2,0.1,0.3L97.9,44c0.1,0,0.2,0.1,0.2,0.2L98,44.3c0.2,0.4,0.8,0,0.9,0.5c0.2-0.1-0.2-0.2,0-0.3
								c0.1,0.1,0.2,0.4,0.3,0.5c0.2,0.2,0.3-0.2,0.5,0c0-0.1,0-0.3,0.2-0.2c0.2,0.1,0.1,0.3,0,0.4c0,0-0.1,0,0-0.1
								c-0.1,0-0.1,0-0.1,0.1l0-0.1c0.1,0.1,0.3,0.2,0.2,0.3c0.2,0,0.1-0.1,0-0.2c0.2,0.2,0.3,0.1,0.6,0.3c0,0,0-0.1,0-0.1
								c0.3,0.2,0.2-0.1,0.4,0c0.1,0.1-0.1,0.2,0.1,0.2c0.1,0.1,0,0.2-0.1,0.2c0.3-0.1,0.4,0.2,0.5,0.3l-0.1,0c0.1,0,0.1,0,0.2,0
								l0-0.2c0.1,0,0.1,0.1,0.1,0.1c0.1-0.1,0-0.2,0.2-0.3c0.1,0.1,0.2,0,0.1,0.2c-0.1-0.1-0.1,0.2-0.2,0.2c0,0,0,0,0.1,0
								c0,0,0,0,0,0c0,0.2,0.1-0.2,0.3-0.1c-0.1,0.1-0.1,0.2-0.1,0.1c0,0,0.1-0.1,0.3-0.2c0,0.1,0.1,0,0.2,0l0,0
								c0.1-0.1,0.2,0,0.3,0c-0.1,0.1-0.1,0-0.2,0c0.3-0.1,0,0.1,0.1,0.1c-0.2,0.1-0.3,0.1-0.4,0.1c0,0,0,0,0,0c0,0-0.3,0.1-0.2,0.1
								c0.2,0,0.2,0,0.3,0c0,0,0-0.1,0-0.1c0,0,0.2,0,0.2,0c0.1,0,0-0.1,0-0.1c0.1,0,0.1,0,0.3-0.1c-0.4,0.1,0,0.1-0.3,0.3l-0.4,0
								c-0.2,0,0.1,0.1-0.2,0.5l0.1-0.1c0.1,0.1-0.1,0.2-0.1,0.4c-0.1,0-0.2,0-0.3,0c0.1,0-0.1,0.3,0.1,0.4l-0.2,0.1
								c-0.1,0.3,0.3,0.4,0.2,0.7c-0.1-0.1-0.2,0-0.3-0.2c0,0.1,0,0.2,0,0.2c-0.1,0,0.1,0.3,0,0.3c0,0,0.2,0.1,0.1,0.2
								c0,0-0.1,0-0.1,0c0.1,0,0.1,0.2,0.2,0.1c-0.4,0.2,0,0.8-0.4,1c0,0.2,0,0.4,0,0.6c0,0-0.1,0,0,0c-0.1,0.2,0.3,0.2,0.1,0.4
								c-0.2,0.1-0.1-0.2-0.2-0.1c-0.4,0,0,0.3-0.3,0.4l0,0c-0.2,0.1,0.1,0.3,0,0.5c0,0,0,0-0.1,0c0.1,0.2,0.1,0.5,0,0.7
								c-0.1-0.1,0-0.1-0.2-0.1c0,0.1,0.2,0.1,0.2,0.3c-0.1,0-0.2,0.1-0.4,0.1l0.1-0.2c-0.2,0-0.1,0.2-0.2,0.3l-0.1-0.1
								c-0.1,0.2,0.1,0.4-0.1,0.6l0.1,0c0.1,0.3-0.2,0-0.1,0.3l-0.2-0.1c0,0.1-0.1,0.4-0.2,0.6c-0.1-0.2,0-0.4,0-0.6
								c-0.1,0.1-0.2,0.3-0.2,0.4c0,0,0-0.1,0.1-0.1c0.1,0.2,0,0.4-0.2,0.6c-0.3-0.3-0.5,0.3-0.8,0.1c-0.2,0.3-0.6,0.4-1,0.6
								c0.3,0.2-0.1,0.1,0.1,0.4c-0.1,0.1-0.1,0.1-0.1,0.1l-0.4-0.1c-0.1-0.1,0.1-0.1,0-0.2c-0.2,0.1-0.1-0.1-0.3-0.1
								c0.1,0.1,0,0.2-0.1,0.2l0.2,0.1c-0.2,0.3-0.3-0.2-0.6,0.1l0.1-0.1c-0.1,0.1-0.5,0.1-0.6,0.4c0,0-0.1-0.1,0-0.2
								c-0.3,0-0.8,0.3-1.1,0.1l0-0.1c-0.1,0-0.1,0.2-0.2,0.1c0,0,0-0.1,0-0.1c0,0-0.2,0.1-0.3,0.1l0.1-0.1
								c-0.3-0.2-0.6,0.1-0.9,0.1c0.1-0.2-0.2-0.4-0.3-0.5l0,0c-0.4-0.2-0.7-0.1-1.1-0.2c-0.1-0.4-0.6-0.5-0.8-0.9
								c0,0.1-0.1,0.1-0.2,0.1c0-0.1-0.3-0.1-0.1-0.2l0,0c0.1-0.2-0.1-0.3-0.1-0.4l-0.2,0.2c0-0.3-0.1-0.4-0.3-0.6
								c0-0.1-0.1-0.1-0.1-0.1c-0.1-0.1-0.1-0.1-0.2-0.2c-0.1-0.1-0.2-0.2-0.2-0.4l0,0c-0.2,0-0.4-0.1-0.5,0l0-0.2
								c-0.5-0.1-0.8,0-1.3,0.3l0-0.2c-0.3,0.2,0,0.6-0.2,0.7l-0.2-0.1c-0.3,0.3-0.7,0.5-0.7,0.9c0,0-0.1-0.1-0.1-0.1
								c-0.1,0.1-0.5,0.4-0.2,0.6C87.1,54,87,54.4,87,54.6l-0.1-0.1c0.1,0.3,0.1,0.2,0.1,0.4c0,0-0.1-0.1,0-0.1
								c-0.1,0,0,0.2-0.1,0.2l0-0.1c-0.1,0.1,0,0.1,0,0.2c-0.1,0-0.2-0.1-0.2-0.3c0,0.1-0.1,0.2-0.2,0.1c0-0.1,0-0.1,0.1-0.1
								c-0.2-0.2-0.5,0-0.6-0.2c0-0.1,0-0.1,0-0.1c0.2,0.1,0.4,0.2,0.4,0.2c0-0.1-0.1-0.2,0.1-0.4c-0.2,0.1-0.5,0.2-0.6,0.1
								c0,0,0,0,0-0.1l0,0c0,0-0.1,0-0.1,0c0,0-0.1-0.1-0.1-0.1c0-0.1-0.2-0.1-0.3-0.2c-0.1,0.2-0.2,0.1-0.1,0.2c0,0,0,0,0.1,0
								c0,0,0,0,0,0c0,0,0,0,0,0c0.1,0,0.1,0,0.2,0.1c-0.1,0-0.2,0.1-0.3,0c-0.1,0.1-0.2,0.2-0.2,0.2c0-0.3-0.2-0.5-0.2-0.6
								c-0.3,0-0.6-0.2-0.9,0c-0.1,0,0-0.1,0-0.2c0,0,0.1,0,0.1,0c-0.2,0-0.2-0.2-0.4-0.1c0-0.2,0.2,0,0.1-0.2l0.1,0
								c0.2-0.3-0.6-0.7-0.2-1.3c0,0,0,0.1-0.1,0.1c0.2-0.7-0.2-1.5,0.1-2.1c0.1-0.2-0.1-0.2-0.2-0.3l0.2,0l-0.2-0.2
								c-0.1-0.3,0.4-0.5,0.2-0.9l-0.1,0c0-0.1-0.1-0.4,0.1-0.4c0,0-0.1,0-0.1-0.1l0.1,0l-0.2-0.3c0.1-0.3,0.4,0,0.4-0.3
								c0-0.1-0.3-0.4-0.3-0.3c0,0.1-0.1,0.1-0.1,0.1l0-0.1c-0.3,0-0.5-0.1-0.7,0.2l0.2,0.2l-0.1,0.1l0-0.2c-0.1,0.1,0,0.2,0.1,0.2
								c-0.1,0-0.1,0-0.1,0.1l0.3,0.2c-0.1,0-0.2-0.1-0.3,0c0.1,0.1,0.2-0.1,0.3,0.1c-0.1,0.1-0.2,0.1-0.1,0.2c-0.1,0-0.1,0-0.1-0.1
								c0.1,0.1,0,0.3,0.2,0.3c-0.2,0.1,0,0.4-0.2,0.4c0.1,0,0.2,0.2,0.2,0.3c-0.3-0.2,0,0.4-0.3,0.3c0.3,0.1,0.1,0.5,0.3,0.7
								c0,0-0.1,0-0.1-0.1c0,0.1-0.1,0.2-0.2,0.3c0.2,0,0.3,0.2,0.4,0.3c-0.2,0.2-0.3-0.1-0.5,0c0.2,0,0.2,0.3,0.3,0.2
								c-0.1,0.1-0.1,0.1-0.3,0.2c0.3,0,0,0.1,0.2,0.2c-0.1,0.2-0.3,0-0.2,0.2C82.4,51.8,82.3,51.6,82.3,51.6z M85.4,55.4L85.4,55.4
								C85.3,55.4,85.3,55.4,85.4,55.4C85.3,55.4,85.3,55.4,85.4,55.4z M85.8,55.6c0,0-0.1,0-0.2-0.1c0-0.1,0-0.1,0.1-0.1
								C85.7,55.5,85.7,55.5,85.8,55.6z M85.4,54.2C85.5,54.2,85.5,54.3,85.4,54.2C85.4,54.3,85.4,54.3,85.4,54.2L85.4,54.2
								C85.4,54.3,85.4,54.3,85.4,54.2z"/>
							<path fill="#202020" d="M85.2,54.4C85.2,54.4,85.2,54.4,85.2,54.4C85.2,54.4,85.2,54.4,85.2,54.4L85.2,54.4L85.2,54.4z"/>
							<path fill="#202020" d="M96.3,42.1L96.3,42.1C96.3,42.1,96.3,42,96.3,42.1L96.3,42.1z"/>
							<polygon fill="#202020" points="89.6,53.6 89.6,53.6 89.6,53.6 							"/>
							<path fill="#202020" d="M94.6,41.1C94.6,41.1,94.5,41.1,94.6,41.1C94.5,41.1,94.5,41.1,94.6,41.1z"/>
							<path fill="#202020" d="M93.7,41.7l-0.1,0C93.7,41.7,93.7,41.7,93.7,41.7z"/>
							<path fill="#202020" d="M93.1,42.1C93.1,42.2,93.2,42.2,93.1,42.1L93.1,42.1L93.1,42.1z"/>
							<path fill="#202020" d="M103.8,45.2C103.8,45.2,103.8,45.2,103.8,45.2C104,45.2,103.9,45.2,103.8,45.2z"/>
							<path fill="#202020" d="M99.8,44.3c0,0,0.1,0,0.1,0C99.9,44.3,99.9,44.3,99.8,44.3z"/>
							<polygon fill="#202020" points="103,48.7 103,48.7 103,48.7 							"/>
							<path fill="#202020" d="M100.1,44.4c0-0.1-0.1-0.1-0.1-0.1C100,44.3,100.1,44.4,100.1,44.4z"/>
							<path fill="#202020" d="M91.4,44.9L91.4,44.9C91.3,45,91.4,45,91.4,44.9L91.4,44.9z"/>
							<path fill="#202020" d="M91.4,45L91.4,45C91.4,45,91.4,45,91.4,45z"/>
							<path fill="#202020" d="M91.4,45.1L91.4,45.1C91.4,45.1,91.3,45.1,91.4,45.1z"/>
							<path fill="#202020" d="M91.8,44L91.8,44C91.8,44,91.8,44,91.8,44z"/>
							<path fill="#202020" d="M91.9,43.7c0,0.1-0.2,0.1-0.2,0.2l0,0C91.7,43.9,92,43.8,91.9,43.7z"/>
							<path fill="#202020" d="M93.2,43.1L93,43.3c0.1,0,0.2,0,0.1,0.1C93.5,43.3,93,43.3,93.2,43.1z"/>
							<path fill="#202020" d="M93.8,42.6C93.7,42.7,93.8,42.7,93.8,42.6C93.9,42.6,93.9,42.6,93.8,42.6z"/>
							<path fill="#202020" d="M97.4,43.5l-0.1,0.1C97.3,43.7,97.3,43.6,97.4,43.5z"/>
							<polygon fill="#202020" points="98.6,43.5 98.6,43.4 98.5,43.5 							"/>
							<polygon fill="#202020" points="98.6,44.7 98.6,44.7 98.8,44.8 							"/>
							<path fill="#202020" d="M101.5,49.7l0.2,0C101.7,49.6,101.5,49.5,101.5,49.7z"/>
							<path fill="#202020" d="M100.6,53.2c-0.1,0-0.2,0-0.2,0.1C100.5,53.3,100.6,53.2,100.6,53.2z"/>
							<polygon fill="#202020" points="91.2,53.4 91.3,53.4 91.2,53.3 							"/>
						</g>
					</g>
				</g>
			</g>
		</g>
	</g>
</g>
</svg>
