<?xml version="1.0" encoding="utf-8"?>
<!-- Generator: Adobe Illustrator 18.0.0, SVG Export Plug-In . SVG Version: 6.00 Build 0)  -->
<!DOCTYPE svg PUBLIC "-//W3C//DTD SVG 1.1//EN" "http://www.w3.org/Graphics/SVG/1.1/DTD/svg11.dtd">
<svg version="1.1" id="Layer_1" xmlns="http://www.w3.org/2000/svg" xmlns:xlink="http://www.w3.org/1999/xlink" x="0px" y="0px"
	 viewBox="0 0 144 144" enable-background="new 0 0 144 144" xml:space="preserve">
<g>
	<g>
		<g>
			<g>
				<g>
					<g>
						<path fill="#202020" d="M99.8,40.9c0,0,0.1,0.1,0.1,0l-0.1-0.1L99.8,40.9z"/>
						<path fill="#202020" d="M100.3,40.7c0-0.1-0.2-0.3-0.3-0.3c0.1,0.1,0.1,0.1,0.2,0.3c0,0.1-0.1,0.1-0.2,0c0,0-0.1,0.1,0,0.2
							c0.2,0,0.2-0.1,0.2-0.2C100.2,40.6,100.2,40.6,100.3,40.7z"/>
						<path fill="#202020" d="M103.7,45L103.7,45C103.6,45,103.6,45,103.7,45z"/>
						<path fill="#202020" d="M106.3,47.9C106.3,47.9,106.3,47.9,106.3,47.9C106.3,47.9,106.3,47.9,106.3,47.9z"/>
						<path fill="#202020" d="M106.7,48.4C106.7,48.4,106.7,48.4,106.7,48.4C106.7,48.4,106.7,48.4,106.7,48.4z"/>
						<path fill="#202020" d="M103.7,45l0,0.1C103.7,45.1,103.7,45.1,103.7,45z"/>
						<path fill="#202020" d="M101.1,40.2C101.1,40.2,101.1,40.2,101.1,40.2C101.1,40.2,101.1,40.2,101.1,40.2L101.1,40.2z"/>
						<path fill="#202020" d="M102.7,43.6L102.7,43.6C102.7,43.6,102.7,43.6,102.7,43.6L102.7,43.6z"/>
						<path fill="#202020" d="M102.1,42.5c0,0,0.2,0,0.2-0.1C102.3,42.4,102.2,42.4,102.1,42.5C102.2,42.4,102.1,42.5,102.1,42.5z"
							/>
						<path fill="#202020" d="M101,40.9L101,40.9C101,40.9,101,40.9,101,40.9z"/>
						<path fill="#202020" d="M103.1,44.4C103.1,44.5,103.1,44.5,103.1,44.4C103.1,44.5,103.1,44.5,103.1,44.4z"/>
						<path fill="#202020" d="M90.6,33.7C90.6,33.6,90.6,33.6,90.6,33.7C90.6,33.6,90.6,33.6,90.6,33.7z"/>
						<polygon fill="#202020" points="90.2,32.3 90.2,32.3 90.2,32.2 						"/>
						<path fill="#202020" d="M107.1,49.2L107.1,49.2C107.1,49.2,107.1,49.2,107.1,49.2z"/>
						<path fill="#202020" d="M101.1,46.7c0,0.2-0.3,0.1-0.2,0.3C101,47,101.2,46.9,101.1,46.7z"/>
						<path fill="#202020" d="M101.2,40.2C101.2,40.2,101.2,40.2,101.2,40.2C101.2,40.2,101.2,40.2,101.2,40.2z"/>
						<path fill="#202020" d="M100.9,47L100.9,47L100.9,47C101,47,101,47,100.9,47z"/>
						<path fill="#202020" d="M106.5,50.8C106.5,50.8,106.6,50.8,106.5,50.8C106.6,50.8,106.5,50.8,106.5,50.8z"/>
						<path fill="#202020" d="M107.5,49.6L107.5,49.6C107.5,49.6,107.5,49.6,107.5,49.6z"/>
						<path fill="#202020" d="M106.1,51.4C106,51.4,106,51.3,106.1,51.4L106.1,51.4C106,51.4,106,51.4,106.1,51.4z"/>
						<path fill="#202020" d="M105.6,51.1L105.6,51.1L105.6,51.1C105.6,51.1,105.6,51.1,105.6,51.1z"/>
						<path fill="#202020" d="M92.1,36.8c0-0.1,0-0.1,0.1-0.1C92.1,36.8,92,36.6,92.1,36.8z"/>
						<path fill="#202020" d="M101.1,40.2C101.1,40.2,101.1,40.2,101.1,40.2L101.1,40.2C101.1,40.2,101.1,40.2,101.1,40.2z"/>
						<path fill="#202020" d="M106.1,52.7c0,0-0.3,0-0.3,0C105.8,52.7,106,52.8,106.1,52.7z"/>
						<path fill="#202020" d="M96.7,41.6L96.7,41.6C96.7,41.6,96.7,41.6,96.7,41.6z"/>
						<path fill="#202020" d="M105,52.3c0-0.1,0-0.2,0-0.2c0,0,0,0-0.1,0L105,52.3z"/>
						<path fill="#202020" d="M92.2,36.7L92.2,36.7L92.2,36.7z"/>
						<path fill="#202020" d="M91.2,35.7c0.1,0.2,0.2,0,0.4,0c0.1,0.2-0.1,0.2-0.2,0.3c0.1,0.1,0.3,0.1,0.4,0.2c0,0,0,0-0.1,0
							c0.2,0,0.3,0.4,0.6,0.4c0,0,0,0,0,0.1c0.1-0.1,0.1-0.2,0.2-0.2c0.1,0.1,0.2,0,0.1,0.1c0,0-0.1,0-0.1,0l0.1,0
							c-0.1,0.2-0.1,0-0.2,0.1c0.2,0.1,0.4,0.1,0.5,0.2c-0.1,0.2-0.3-0.1-0.3,0.1c0,0-0.1-0.2-0.1-0.2c-0.1,0.3-0.1-0.1-0.2,0.2
							c0.2,0.3,0.3,0.2,0.6,0.4c0.1-0.1,0.1-0.1,0.2-0.2c0.4,0,0.1,0.6,0.5,0.5c0.1-0.1,0.2-0.3,0.4-0.1l-0.1,0.2
							c0.2,0.1,0.2-0.3,0.4,0c-0.1,0.1-0.2,0-0.2,0.1c0.1,0.2,0.2-0.1,0.3-0.1l0,0.2c0.3,0,0.6,0,0.8,0c0,0.1-0.1,0.1,0,0.2
							c0.3,0,0.7,0.2,0.9,0.4l0.2-0.1c0,0,0,0.1,0,0.1c0,0.1,0.1-0.1,0.1-0.1c0.1,0,0,0.1,0,0.1c0.2-0.1,0.5,0,0.4,0.3l-0.1,0
							c0,0.1,0.4,0,0.3,0.2l0,0c0,0.4,0.2,0.8,0,1.2c0.2,0-0.1,0.4,0.3,0.4c-0.1,0.3-0.2,0.2-0.3,0.5c0,0.1,0.2,0.1,0.3,0.2l-0.2,0
							l0.2,0.1l-0.2,0.1l0.1,0.1c0,0,0.1-0.1,0.1-0.1c0.1,0.1-0.1,0.4-0.2,0.4l0.2,0.4c-0.1,0-0.1-0.1-0.2-0.1
							c0.2,0.2-0.2,0.1,0,0.2c0,0,0.1,0,0.1,0c-0.1,0.1-0.1,0.3,0,0.5l-0.1,0c0,0.3,0.1,0.6,0.2,0.9c0-0.1,0.3-0.1,0.3,0L97,43.7
							c0.1,0,0.1-0.1,0.2,0c0,0.1-0.2,0.1-0.3,0.1l0.1,0.1c-0.1,0-0.1,0-0.2,0c0.1,0-0.2,0.3,0.1,0.3l-0.1,0c0,0.3,0.1,0.4,0.2,0.7
							c0.2,0,0.1,0.1,0.3,0.2c0,0.2-0.1,0.5,0.1,0.8c0.2,0.2,0.2,0,0.3,0c-0.1,0.1,0,0.3-0.1,0.3c0.2,0.3,0.3,0.4,0.7,0.6
							c0-0.1,0-0.1,0-0.2c0.1,0,0.1,0.1,0.1,0.2l0,0c0.5,0.1,0.7,0.8,1.1,0.7l0,0l0.3,0c0.1,0.1-0.1,0.1-0.1,0.2
							c0.4-0.1,0.4,0.3,0.8,0.2c0,0.5,0.7,0.3,0.7,0.7l0-0.1c0.1,0,0,0.1,0.1,0.1c0-0.1,0-0.1,0.1-0.1c0.6,0.2,0.9,0.9,1.3,1.3
							c0.1,0.2,0.5-0.3,0.5,0.1L103,50c0.5,0.2,0.6,0.7,1.1,0.9c-0.1,0-0.1,0-0.1,0c0,0.2,0.2,0.3,0.3,0.2c0,0.1-0.1,0.1-0.1,0.1
							c0,0.1,0.3,0.1,0.2,0.2c0,0-0.1,0-0.1,0c0.1,0,0.2,0.2,0.2,0.1c0,0.1,0.1,0.1,0.1,0.2c0.1,0.1,0.2,0.2,0.2,0.3
							c0.2,0,0.3,0.4,0.5,0.2c-0.1,0.1,0,0.2,0.2,0.3c0.1,0.1,0.3,0,0.4-0.1c-0.1,0.1,0.2,0.1,0.1,0.2c0.2,0,0.4-0.2,0.3-0.3
							c0.2,0.1,0.4-0.1,0.5-0.3c0.1-0.1,0.1-0.2,0.3-0.1c0.2-0.4,0.5-0.7,0.7-1.1c0.2,0.2-0.3,0.4-0.1,0.5c0.2-0.4,0.2-0.7,0.4-1
							c0.1-0.1,0.1,0.1,0.1,0.2c0.1-0.4,0.3-0.8,0.2-1.2c0,0,0.1,0,0.1,0.1c0-0.1,0-0.2-0.1-0.2l0,0.1c-0.2,0.1-0.4-0.3-0.5-0.2
							c0.4,0,0-0.3,0.5-0.3c0,0-0.1-0.1-0.2,0c0-0.1,0-0.1,0.1-0.1c-0.2-0.2-0.2-0.1-0.3-0.3c0,0,0.1,0,0.2,0
							c-0.2-0.1-0.3-0.1-0.4-0.3c0,0,0.1-0.1,0.1,0c-0.2-0.3-0.6-0.2-0.7-0.5c0.2-0.1,0-0.1,0.1-0.3l-0.2-0.1l0,0.1
							c-0.1-0.1-0.3,0-0.4-0.2l0.1,0l-0.2-0.1l0.1,0.2c-0.2,0-0.1,0.2-0.3,0.1c0,0-0.1-0.1-0.1-0.2l0,0c-0.1,0-0.2,0-0.3-0.1
							c0-0.1,0.2-0.2,0.2-0.2c-0.2,0.1-0.3-0.1-0.5,0c0,0,0.1-0.1,0.1-0.1l-0.1,0.1c0-0.1,0-0.1,0-0.2c-0.1-0.1-0.1,0.3-0.2,0
							c0,0,0,0,0.1,0c-0.1-0.2-0.4-0.2-0.5-0.4c0.1-0.2,0.2,0.1,0.2-0.1c-0.2-0.1-0.6-0.2-0.7-0.5l0,0.1c-0.3,0.2,0-0.3-0.2-0.3
							c0,0,0.2-0.1,0.1,0c-0.1-0.2-0.3-0.3-0.5-0.5l0.1,0c0-0.1-0.1-0.3-0.1-0.4c-0.1,0-0.1-0.1-0.2,0c0.2-0.6-0.6-0.6-0.4-1
							c0,0,0.1,0.1,0.1,0l-0.2-0.2c-0.1,0.1-0.1,0.1-0.1,0.2c-0.1,0-0.2,0-0.2-0.1c0.1,0.1,0.2-0.1,0.2-0.2c0,0-0.1,0-0.1,0.1
							c0.1-0.2-0.2,0.1-0.2-0.2l0.1,0c-0.1-0.1-0.2-0.1-0.2-0.2c0.1-0.1,0.1,0,0.2,0c-0.1-0.1-0.4-0.1-0.3-0.2
							c0.1,0,0.1,0.1,0.2,0.1c0.1-0.2,0.1-0.2,0-0.3l0,0l0-0.2l0,0.1c-0.4,0.1-0.2-0.2-0.6-0.3c0.3,0,0.1-0.1,0.3-0.1
							c0-0.1,0-0.2,0.1-0.2c-0.2,0,0-0.2-0.3-0.2c0,0-0.1-0.1,0.1-0.2c-0.1-0.1-0.1,0.1-0.1,0.1c-0.3,0-0.1-0.5-0.6-0.6
							c-0.3-0.1-0.4,0-0.7,0c0-0.1,0.2-0.1,0.2-0.1c-0.1-0.1-0.2-0.2-0.3-0.2c0,0,0-0.1,0-0.2c-0.1,0-0.2,0.1-0.2,0
							c0,0,0.1-0.1,0.2-0.2c-0.1,0-0.3,0-0.4,0c0-0.1,0.1-0.1,0.2-0.1c-0.1,0-0.2,0-0.3,0l-0.5,0l0,0.2c0,0.1,0,0.2,0.1,0.2l0.1,0
							c0,0-0.1,0-0.1-0.1c0,0,0-0.1,0-0.1l0.1-0.3l0.4,0.1c0.1,0,0.1,0.1,0,0.2l-0.1,0c-0.1,0.3,0.3,0.1,0.5,0.2l-0.2,0.2
							c0,0,0.2-0.1,0.2-0.1c0,0.1-0.1,0.2-0.1,0.2c0,0.2,0.1,0,0.1,0.1c0,0,0,0,0,0l0.1,0c0,0-0.1,0.1-0.1,0.1
							c0.1,0.2,0.4,0.1,0.3,0.2l0,0c0.3,0.1,0.1-0.1,0.4-0.1l-0.2,0.4l0.1-0.1c0,0,0,0.1,0,0.1c0.2,0,0-0.1,0.2-0.1
							c0,0.2,0.3,0.3,0.1,0.4c0.1,0,0-0.2,0.2-0.1c-0.2,0.2,0.1,0.1,0.1,0.3c-0.2,0.1-0.1-0.1-0.2,0.1c0.3-0.1,0.1,0.2,0.2,0.3
							c0.2-0.1,0.2,0.2,0.3,0.3c-0.1,0,0.1,0.4,0.1,0.5l0,0c0.2-0.1,0.2,0.1,0.3,0.2c-0.1,0.1-0.2,0.1-0.3,0l0.1,0.1
							c0.1,0,0.1,0,0.2,0.1l-0.2,0c0.1,0.1,0.3,0.2,0.3,0.4c0.1-0.1,0.3-0.3,0.5-0.2c-0.1,0-0.2,0.1-0.2,0.1c0,0,0.1,0,0.1,0.1
							l-0.2,0c0,0.1,0.1,0,0.1,0.1c-0.1,0.1,0,0.1-0.1,0.1c0,0,0-0.1,0-0.1c0,0.1,0,0.2-0.1,0.3c0.1,0,0.1-0.1,0.2,0
							c0.1,0.1-0.1,0.1-0.1,0.2c0.1,0,0.1,0.1,0.2,0c0,0,0,0.1-0.1,0.1c0.1,0,0.2,0.3,0.3,0.2l0,0l0,0l0,0l0,0
							c0.3,0.2,0.2,0.5,0.4,0.7l0,0c0.2,0.1,0.2,0.3,0.4,0.3c0,0,0,0.2-0.1,0.2c0.1,0.1,0.2,0,0.2,0.2c-0.2,0,0,0.1-0.1-0.1
							c0.1,0.2,0,0.2,0.3,0.3c-0.1,0.1,0,0.2,0.1,0.3l0-0.2c0.1,0,0.1,0.1,0.2,0.2l-0.2,0.1c0.1,0.4,0.7,0.1,0.7,0.5
							c0.1-0.1-0.1-0.2,0.1-0.3c0.1,0.1,0.1,0.4,0.1,0.5c0.1,0.2,0.3-0.1,0.4,0.1c0-0.1,0.1-0.2,0.3-0.2c0.1,0.1,0,0.3-0.1,0.3
							c0,0,0,0,0-0.1c-0.1,0-0.1,0-0.1,0.1l0.1,0c0,0.1,0.2,0.2,0.1,0.3c0.1,0,0.1-0.1,0.1-0.1c0.1,0.2,0.2,0.2,0.3,0.3
							c0,0,0-0.1,0.1-0.1c0.1,0.2,0.2,0,0.3,0.1c0,0.1-0.2,0.2,0,0.2c0,0.1-0.1,0.1-0.2,0.2c0.2,0,0.1,0.3,0.1,0.3l-0.1,0
							c0,0,0.1,0,0.1,0.1l0.1-0.1c0,0,0,0.1,0,0.1c0.1,0,0.2-0.2,0.3-0.1c0,0.1,0.2,0.1,0,0.2c0-0.2-0.2,0.1-0.2,0c0,0,0,0,0,0.1
							c0,0,0,0-0.1,0c-0.1,0.2,0.2,0,0.2,0.1c-0.1,0-0.2,0.1-0.2,0.1c0,0,0.2-0.1,0.3,0c-0.1,0.1,0.1,0.1,0.1,0.2l0-0.1
							c0.1,0,0.1,0.1,0.1,0.2c-0.1,0-0.1-0.1-0.1-0.1c0.2,0.1-0.2,0.2-0.1,0.3c-0.1,0-0.2-0.1-0.2,0c0.1,0.2-0.2,0-0.1,0.2
							c0.1,0,0.1,0,0.2,0.2c0,0,0-0.3,0-0.2c0,0,0.1,0.2,0.1,0.2c0-0.1,0-0.2,0-0.2c0.1,0.1,0,0.1,0.2,0.1c-0.2,0,0,0.3-0.2,0.3
							l-0.3-0.2c-0.2,0-0.1,0.4-0.3,0.5l0.1,0c0.1,0.1-0.1,0.1-0.1,0.2c-0.1-0.1-0.1-0.1-0.2-0.1c0.1,0.1-0.2,0.1,0,0.3l-0.2,0
							c-0.1,0.1-0.1,0.1-0.1,0.2c0,0.1,0,0.2-0.1,0.2c0-0.1-0.1-0.2-0.1-0.3c0,0-0.1,0,0,0.1c0-0.1-0.1,0.2-0.1,0.1
							c0,0.1,0,0.2-0.1,0.2c0,0,0-0.1,0-0.1c0,0.1-0.1,0.1-0.1,0.2c-0.1-0.2-0.1-0.3-0.2-0.3c-0.1-0.1-0.2-0.2-0.1-0.3
							c-0.1-0.1-0.3-0.3-0.4-0.4c0,0,0,0,0.1,0c0-0.2-0.3,0.1-0.4-0.2c0.1-0.2,0.2,0,0.2-0.1c0.3-0.3-0.2-0.2-0.1-0.5l0,0
							c0-0.2-0.3-0.1-0.4-0.3c0,0,0,0,0,0c-0.2,0-0.5-0.1-0.6-0.2c0.1-0.1,0.1,0,0.2-0.1c-0.1,0-0.2,0.2-0.3,0.1
							c0-0.1,0-0.2,0.1-0.4l0.1,0.1c0.1-0.2-0.2-0.1-0.2-0.2l0.1-0.1c-0.2-0.2-0.4,0-0.5-0.2l0,0.1c-0.3,0.1,0-0.2-0.2-0.1l0.1-0.2
							c-0.1,0-0.4,0-0.6-0.1c0.2-0.1,0.4,0,0.6,0c-0.1-0.1-0.3-0.2-0.4-0.1c0,0,0.1,0,0.1,0c-0.2,0.1-0.4,0-0.5-0.1
							c0.3-0.3-0.3-0.4-0.3-0.7c-0.4-0.1-0.5-0.4-0.9-0.6c0,0.4-0.1-0.1-0.3,0.3c-0.1,0-0.1,0-0.1-0.1l-0.1-0.3c0-0.1,0.1,0,0.1-0.1
							c-0.2-0.1,0-0.2-0.1-0.3c0,0.1-0.1,0.1-0.2,0l0.1,0.2c-0.3,0-0.1-0.4-0.4-0.3l0.1-0.1c-0.2,0-0.5-0.2-0.7,0c0,0,0-0.1,0.1-0.1
							c-0.3-0.2-0.7,0-0.8-0.3l0.1-0.1c0,0-0.2,0.1-0.1,0c0,0,0.1-0.1,0.1-0.1c0,0-0.2,0-0.2,0l0.1,0c0-0.2-0.4-0.1-0.5-0.4
							c0.2-0.1,0.3-0.3,0.3-0.4l0,0c0-0.3-0.3-0.6-0.4-0.9c0.2-0.3,0-0.8,0.1-1.1c0,0.1-0.2,0-0.2,0c0-0.1-0.2-0.2,0-0.2l0,0
							c0.2-0.1,0.1-0.3,0.1-0.4l-0.3,0c0.4-0.4-0.3-0.9,0.1-1.1c-0.1-0.1-0.1-0.2-0.2-0.2l0.2,0c0-0.2,0-0.4-0.1-0.6l0.1,0
							c0-0.2-0.5-0.1-0.5-0.3l0.2-0.1c0-0.3,0.1-0.6-0.1-0.9c0,0,0.1,0,0.1,0c0-0.1,0-0.7-0.3-0.5c0.2-0.1-0.1-0.4-0.3-0.5l0.2-0.1
							c-0.3,0-0.3,0-0.5-0.1c0-0.1,0-0.1,0.1-0.1c-0.1-0.2-0.2,0-0.3-0.2l0.1,0c-0.2-0.1-0.2,0-0.3,0c-0.1,0-0.3-0.2-0.2-0.3
							c-0.1,0.1-0.2,0.2-0.2,0.1c0-0.1,0-0.1,0.1-0.1c-0.2-0.2-0.4,0.1-0.5-0.1c0-0.1,0-0.1,0-0.1c0.2,0.1,0.4,0.1,0.3,0.1
							c0-0.1-0.1-0.2,0.1-0.4c-0.2,0.1-0.4,0.2-0.6,0.1c0,0,0,0,0-0.1l0,0c0,0-0.1,0-0.1,0c0,0-0.1-0.1-0.1-0.1
							c0-0.1-0.2-0.1-0.2-0.1c0,0.2-0.1,0.1-0.1,0.3c0,0,0,0,0.1,0c0,0,0,0,0,0c0,0,0,0,0,0c0.1,0,0.1,0,0.2,0
							c-0.1,0.1-0.2,0.1-0.2,0c-0.1,0.1-0.1,0.2-0.2,0.2c-0.1-0.2-0.2-0.4-0.2-0.6c-0.2,0-0.5-0.1-0.7,0.1c-0.1,0,0-0.1,0-0.2
							c0,0,0.1,0,0.1,0c-0.1,0-0.3-0.1-0.5,0c-0.1-0.2,0.2-0.1,0-0.2l0.1,0c-0.1-0.2-0.2-0.2-0.4-0.3c-0.2,0-0.4-0.1-0.3-0.5
							c0,0,0,0.1,0,0.1c-0.1-0.5-0.6-1-0.5-1.7c0-0.2-0.1-0.2-0.3-0.2l0.2-0.1l-0.3-0.1c-0.2-0.2,0.2-0.6-0.2-0.8l-0.1,0.1
							c0-0.1-0.3-0.3-0.2-0.3c0,0-0.1,0-0.1,0l0.1-0.1c0,0-0.3-0.1-0.3-0.1c-0.2-0.2,0.3-0.3-0.1-0.5c-0.2,0-0.5,0.1-0.4,0.2
							c0,0,0.1,0.1,0.1,0.2l-0.1,0c-0.1,0.2-0.2,0.5-0.1,0.7c0,0,0.2-0.1,0.2-0.1l0,0.1c0,0-0.1,0-0.1,0c0,0.1,0.1,0.1,0.1,0
							c0,0.1,0,0.1,0,0.1c0,0,0.2-0.1,0.2-0.1c-0.1,0.1-0.2,0.1-0.2,0.2c0.1-0.1,0.1-0.2,0.2-0.2c0,0.1-0.1,0.2,0,0.2
							c0,0.1-0.1,0.1-0.1,0.1c0.1,0,0.1,0.1,0.3,0.1c-0.1,0.1,0.2,0.2-0.1,0.3c0.1,0,0.2,0,0.3,0.1c-0.3,0,0.1,0.3-0.2,0.3
							c0.3,0,0.2,0.3,0.4,0.4c0,0-0.1,0-0.1,0c0,0.1-0.1,0.2-0.1,0.2c0.2-0.1,0.3,0.1,0.5,0.1c-0.2,0.2-0.3,0-0.5,0.1
							c0.2-0.1,0.3,0.2,0.4,0.1c-0.1,0.1,0,0.1-0.2,0.2c0.3-0.1,0.1,0.1,0.3,0.1c-0.1,0.2-0.2,0.1-0.1,0.3
							C91.3,35.8,91.2,35.7,91.2,35.7z M95,37.8L95,37.8C95,37.8,94.9,37.8,95,37.8C94.9,37.8,95,37.8,95,37.8z M95.3,37.9
							c0,0-0.1,0-0.1,0c0-0.1,0-0.1,0.1-0.1C95.2,37.8,95.3,37.8,95.3,37.9z M94.9,36.6C95,36.6,95,36.7,94.9,36.6
							C94.9,36.7,94.9,36.7,94.9,36.6L94.9,36.6C94.9,36.7,94.9,36.7,94.9,36.6z"/>
						<path fill="#202020" d="M94.8,36.8C94.8,36.8,94.7,36.8,94.8,36.8C94.7,36.9,94.8,36.9,94.8,36.8L94.8,36.8L94.8,36.8z"/>
						<path fill="#202020" d="M103.7,45L103.7,45C103.7,45,103.7,45,103.7,45L103.7,45z"/>
						<polygon fill="#202020" points="96.6,41.2 96.6,41.2 96.6,41.2 						"/>
						<path fill="#202020" d="M103.3,43.1C103.3,43.1,103.3,43.1,103.3,43.1C103.3,43.1,103.3,43.1,103.3,43.1z"/>
						<path fill="#202020" d="M103,42.4l0-0.1C103,42.3,103,42.4,103,42.4z"/>
						<path fill="#202020" d="M102.7,41.8C102.7,41.8,102.7,41.8,102.7,41.8L102.7,41.8L102.7,41.8z"/>
						<path fill="#202020" d="M108.6,49.5C108.6,49.5,108.6,49.6,108.6,49.5C108.6,49.6,108.6,49.6,108.6,49.5z"/>
						<path fill="#202020" d="M106.4,47.2c0,0,0.1,0,0.1,0C106.5,47.1,106.5,47.1,106.4,47.2z"/>
						<polygon fill="#202020" points="106.1,52.7 106.1,52.7 106.1,52.7 						"/>
						<path fill="#202020" d="M106.6,47.2c0-0.1-0.1-0.1-0.1-0.1C106.6,47.2,106.6,47.2,106.6,47.2z"/>
						<path fill="#202020" d="M100,40.2L100,40.2C100,40.2,100,40.2,100,40.2L100,40.2z"/>
						<path fill="#202020" d="M100,40.2L100,40.2C100,40.2,100,40.2,100,40.2z"/>
						<path fill="#202020" d="M100,40.3L100,40.3C100,40.3,100,40.3,100,40.3z"/>
						<path fill="#202020" d="M101.4,40.4L101.4,40.4C101.4,40.3,101.4,40.3,101.4,40.4z"/>
						<path fill="#202020" d="M101.6,40.5c0-0.1-0.1-0.2-0.2-0.2l0,0C101.5,40.3,101.5,40.6,101.6,40.5z"/>
						<path fill="#202020" d="M101.8,41.8l-0.1-0.2c0,0.1-0.1,0.2-0.1,0.1C101.6,42,101.7,41.5,101.8,41.8z"/>
						<path fill="#202020" d="M102.1,42.3c-0.1-0.1-0.1,0.1-0.1,0.1C102,42.4,102.1,42.4,102.1,42.3z"/>
						<path fill="#202020" d="M104.4,46.3l-0.1,0.1C104.3,46.4,104.3,46.3,104.4,46.3z"/>
						<polygon fill="#202020" points="105.5,46.3 105.5,46.2 105.4,46.3 						"/>
						<polygon fill="#202020" points="105.3,47.5 105.3,47.5 105.4,47.5 						"/>
						<path fill="#202020" d="M105.8,51.1l-0.1,0.1C105.7,51.2,105.8,51.1,105.8,51.1z"/>
						<path fill="#202020" d="M103.5,48.7c0-0.1,0-0.2-0.1-0.2C103.4,48.6,103.4,48.7,103.5,48.7z"/>
						<polygon fill="#202020" points="98.2,41.9 98.2,41.9 98.2,41.8 						"/>
					</g>
				</g>
			</g>
		</g>
	</g>
	<g>
		<g>
			<g>
				<g>
					<g>
						<g>
							<path fill="#202020" d="M47.9,111.7c-0.1-0.1-0.2,0.1,0.1,0.3l0.3,0L47.9,111.7z"/>
							<path fill="#202020" d="M49.5,113.5c0.4,0.1,0.9,0.2,0.8,0c-0.4-0.1-0.5-0.1-1-0.2c-0.3-0.2-0.5-0.4-0.4-0.4
								c-0.1,0-0.4-0.4-0.6-0.4C48.5,112.8,49.1,113.1,49.5,113.5C49.7,113.5,49.6,113.5,49.5,113.5z"/>
							<path fill="#202020" d="M78.6,98.3l-0.2,0.1C78.5,98.4,78.5,98.4,78.6,98.3z"/>
							<path fill="#202020" d="M94.4,82.6c-0.1,0.1-0.2,0.2-0.1,0.2C94.4,82.7,94.5,82.6,94.4,82.6z"/>
							<path fill="#202020" d="M97.3,80.1c-0.1,0.1-0.1,0.1-0.2,0.1C97.2,80.2,97.2,80.2,97.3,80.1z"/>
							<path fill="#202020" d="M78.6,98.3l0.5-0.4C79.1,97.9,78.8,98.1,78.6,98.3z"/>
							<path fill="#202020" d="M54.2,114.8c-0.1,0-0.2,0-0.3,0L54.2,114.8C54.2,114.8,54.2,114.8,54.2,114.8z"/>
							<path fill="#202020" d="M71.8,105.4l-0.1,0.1c0,0.1,0,0.1-0.1,0.2L71.8,105.4z"/>
							<path fill="#202020" d="M66.5,110.7c0.1-0.1,0.1-0.3,0-0.4c0,0.1-0.1,0.2-0.2,0.3C66.4,110.7,66.4,110.7,66.5,110.7z"/>
							<path fill="#202020" d="M55.8,115.6l-0.2,0C55.6,115.6,55.7,115.6,55.8,115.6z"/>
							<path fill="#202020" d="M75.6,101.6C75.6,101.6,75.7,101.6,75.6,101.6C75.7,101.6,75.7,101.6,75.6,101.6z"/>
							<path fill="#202020" d="M42,105.2C42,105.3,42,105.3,42,105.2C42,105.3,42,105.3,42,105.2z"/>
							<path fill="#202020" d="M47.6,112L47.6,112c-0.1-0.1-0.2-0.1-0.2,0L47.6,112z"/>
							<path fill="#202020" d="M102.3,75.3C102.3,75.3,102.3,75.3,102.3,75.3C102.2,75.5,102.2,75.4,102.3,75.3z"/>
							<path fill="#202020" d="M88.8,27.9c0.7,0.2-1.2,0.1-0.1,0.3C88.6,28.2,89.7,28.1,88.8,27.9z"/>
							<path fill="#202020" d="M54.4,114.8l0.3,0C54.5,114.9,54.4,114.9,54.4,114.8z"/>
							<path fill="#202020" d="M88.7,28.3L88.7,28.3l0.1,0C88.7,28.3,88.7,28.3,88.7,28.3z"/>
							<path fill="#202020" d="M113.6,63.8c0,0-0.1,0.1-0.2,0.1C113.4,63.9,113.4,63.9,113.6,63.8z"/>
							<path fill="#202020" d="M105,72.2l0.2-0.2C105.1,72.1,105,72.2,105,72.2z"/>
							<path fill="#202020" d="M115.8,57.8c0-0.2,0.1-0.2,0.1-0.4c0,0,0,0,0,0.1C115.9,57.5,115.8,57.6,115.8,57.8z"/>
							<path fill="#202020" d="M114.9,51.2c0,0,0,0.1,0,0.1c0,0.1,0.1,0.1,0.1,0.2C115,51.5,114.9,51.2,114.9,51.2z"/>
							<path fill="#202020" d="M29.6,90.8c0,0.1,0,0.2-0.1,0.3C29.6,91,29.9,91.8,29.6,90.8z"/>
							<path fill="#202020" d="M54.2,114.9c0,0,0.1,0,0.2,0C54.3,114.8,54.2,114.8,54.2,114.9C54.1,114.9,54.1,114.9,54.2,114.9z"/>
							<path fill="#202020" d="M114.6,57.4c0,0,0.1-1,0.1-1C114.6,56.7,114.6,57,114.6,57.4z"/>
							<path fill="#202020" d="M56.4,56l-0.2,0.2C56.3,56.1,56.4,56.1,56.4,56z"/>
							<path fill="#202020" d="M114.3,53.6c0-0.2,0-0.4,0-0.6c0,0,0-0.1-0.1-0.1L114.3,53.6z"/>
							<path fill="#202020" d="M29.5,91.1L29.5,91.1L29.5,91.1z"/>
							<path fill="#202020" d="M33.2,96.3c-0.7-0.7-0.5-0.2-0.7-0.2c-0.8-0.8-0.2-0.5-0.4-0.8c-0.3-0.2-0.5-0.4-0.7-0.6
								c-0.2-0.2-0.4-0.4-0.5-0.6c0-0.1,0-0.1,0.1-0.1c-0.6-0.5-1-1.9-1.4-2.7c0-0.1,0-0.1,0-0.1c-0.1,0.2-0.2,0.2-0.2,0.2
								c-0.1-0.4-0.3-0.7-0.2-0.9c0.1,0.3,0.1,0.3,0.2,0.4l-0.2-0.4c0.1-0.4,0.2,0.6,0.4,0.5c-0.1-0.4-0.3-0.8-0.4-1.3
								c-0.1-0.4-0.2-0.9-0.2-1.2c0.1-0.1,0.1,0.3,0.2,0.6c0.1,0.3,0.1,0.5,0.1,0l0.1,1c0.2-0.8,0.1,0.6,0.3-0.1
								c-0.1-0.6-0.1-1-0.2-1.4c-0.1-0.4-0.1-0.7,0-1.4c-0.1-0.3-0.2,0.1-0.3-0.2c0-1,0.2-1.3,0.4-1.6c0.2-0.3,0.3-0.5,0.4-1.2
								c0-0.4-0.2-0.6,0.3-1.5l0.1,0.4c0.3-0.6,0.3-0.8,0.3-1c0.1-0.2,0.1-0.4,0.5-0.9c-0.1,0.2-0.5,0.9-0.4,0.7
								c0.6-0.6,0.2-0.6,0.6-1.1l0.2,0c0.8-1,1.9-2.3,3-3.4c0,0.1-0.2,0.3,0.1,0.1c1.4-1.5,3.1-3,4.5-4.3l0.4-0.6
								c0.1-0.1,0.3-0.2,0.2,0c0.6-0.5,0-0.1,0.2-0.4c0.3-0.3,0.5-0.3,0.3-0.1c0.8-1,2.5-2.9,3.6-3.8l-0.2,0.2
								c0.8-0.7,0.6-1.1,1.5-1.7L45.2,67c1.7-1.6,3.5-3.6,4.9-4.7c0.1-0.4,1.7-1.6,1.6-1.9c1.1-0.8,0.8-0.5,2.3-1.8
								c0.4-0.3,0.4-0.7,0.8-1.2l0.1,0.1l0.5-0.7l0.5-0.2l0.4-0.5c-0.2,0.2-0.4,0.3-0.4,0.2c0.6-0.7,1.7-1.5,1.8-1.5l1.4-1.7
								c0,0.1-0.2,0.4-0.4,0.6c0.7-1,0.3,0,0.9-0.9c-0.1,0.1,0-0.1,0-0.2c0.5-0.3,1.3-1.2,1.9-1.8l0,0.2c1.2-1.1,2.4-2.5,3.7-3.7
								c-0.5,0.4-0.5,0.2-0.2-0.2l0.3,0c0.2-0.3-0.4,0.3,0-0.3c0.5-0.5,0.5-0.2,0.2,0.1l0.5-0.6c0.1,0,0,0.2,0,0.2
								c0.2-0.3,1.1-0.9,1.3-1.4l0.1,0c1.3-1.3,1.8-1.9,2.9-3c-0.1-0.1,0.3-0.5,0.6-0.9c0.8-0.7,1.8-1.5,2.7-2.4
								c0.6-0.7,0.1-0.3,0.3-0.6c0.2,0.1,1.1-0.9,0.7-0.3c1.1-1.1,1.4-1.4,2.7-2.9c-0.2,0.1-0.4,0.3-0.3,0.1
								c0.2-0.3,0.6-0.5,0.6-0.5l-0.1,0.1c0.7-0.9,1.7-1.7,2.6-2.5c0.9-0.7,1.9-1.3,2.5-1.8l-0.1,0.1c0,0,1.5-0.9,1.5-0.9
								c0.8-0.2-0.4,0.3,0.2,0.2c1.7-0.8,2.9-0.7,4.4-0.8c0.6,0.2,1.6,0.4,2.7,0.7c1.1,0.3,2.1,0.8,2.7,1.3l0-0.1
								c0.4,0.1,0.4,0.3,0.6,0.5c0-0.1-0.3-0.3-0.1-0.2c1.4,1,2.7,2.5,4.1,3.9c1.3,1.4,2.7,2.9,4,4.3c1,1,0.9,0.2,2,1.6l-0.5-0.2
								c2.2,1.8,4.1,4.1,6.2,5.9c-0.1-0.1-0.2,0-0.4-0.2c0.3,0.5,1.5,1.5,1.6,1.5c0.3,0.3,0,0.1,0.1,0.4c0.1,0.2,0.4,0.4,0.6,0.7
								c0.2,0.2,0.4,0.4,0.4,0.6c0,0.1-0.1-0.1-0.2-0.2c0.3,0.2,0.9,1.4,0.8,1c0.2,0.4,0.4,0.9,0.6,1.3c0.2,0.4,0.3,0.8,0.4,1.2
								c0.1,0.2,0.2,0.6,0.3,1c0,0.4,0.1,0.7,0.2,0.8c-0.2,0-0.1,1.7-0.1,2.4c-0.1-0.2-0.2,0.5-0.2,0.3c-0.1,0.7-0.2,1.3,0,1.2
								c-0.6,1.2-0.6,2.6-1.4,3.1c-0.4,1-1.1,1.8-1.7,2.5c-0.7,0.8-1.4,1.5-2.1,2.3c-0.1-0.2,1.6-1.6,1.3-1.7
								c-1.3,1.4-1.9,2.4-3.3,3.7c-0.4,0.3,0.1-0.3,0.2-0.4c-1.3,1.4-2.6,2.6-3.7,3.9c0,0,0.1-0.2,0.2-0.3c-0.2,0.2-0.6,0.5-0.5,0.6
								l0.2-0.3c0.5-0.3-0.7,1.2-0.7,1.3c0.2-0.6-1.2,1.1-0.9,0.2c-0.1,0.2-0.3,0.4-0.2,0.4c-0.2,0.2-0.4,0.3-0.2,0
								c-0.8,0.9-0.4,0.7-1.2,1.4c0,0,0.1-0.2,0.1-0.3c-0.3,0.5-0.6,0.9-1.3,1.5c0-0.1-0.1,0,0.1-0.2c-1.1,1.1-1.7,2.1-3,3.3
								c0.2-0.5-0.5,0.4-0.7,0.3l-0.6,0.7l0.3-0.2c-0.6,0.6-1,1.2-1.5,1.6l0.4-0.5l-1,1.1l0.7-0.6c-0.5,0.7,0.3,0.1-0.6,0.9
								c0.1-0.2-0.6,0.6-1,0.8l0,0c-0.2,0.3-0.5,0.7-0.9,1.1c-0.2,0.1-0.1-0.3-0.2-0.2c-0.2,0.4-1.3,1.4-1.5,1.9
								c0.1-0.2,0-0.2,0-0.2l-0.1,0.3c-0.3,0.2-0.4,0.3-0.4,0.1c-0.8,0.8,0.4-0.1-0.6,0.8c0.1-0.1,0-0.1,0.2-0.2
								c-1,0.9-1.8,1.9-2.7,2.7c-0.4,0.1,0.7-0.8,0.3-0.6c-1.2,1.3-2.4,2.8-3.7,4l0.2-0.2c0,0.4-1,0.8-1.5,1.5
								c0.1-0.2,0.1-0.3,0.1-0.3c-0.9,0.8-1.7,1.8-2.9,3.1l0.1-0.2c-0.5,0.4-1.3,1.3-1.9,1.8c-0.1,0.2-0.4,0.5-0.2,0.4
								c-2,1.3-3,3.3-4.7,4.5c0.2-0.2,0.4-0.5,0.2-0.3l-1.2,1.3c0.2,0,0.2-0.1,0.6-0.3c-0.1,0.2-0.4,0.6-0.7,0.9
								c0.5-0.6-0.2-0.1-0.5,0c0.1,0,0,0.1,0.1,0.1c-0.8,0.5,0.1,0.3-0.9,1.1l0-0.1c-0.3,0.4-0.5,0.7-0.9,1.1
								c-0.3,0,0.3-0.4,0.2-0.5c-0.5,0.5-0.8,1.2-1.3,1.5c0.2-0.2,0.5-0.6,0.7-0.8c-0.6,0.4-0.6,0.5-1,0.8l0,0l-0.9,0.8l0.3-0.2
								c-0.3,0.9-1.2,1.3-1.9,2.4c0.6-1,0-0.2,0-0.4c-0.3,0.2-0.6,0.5-0.6,0.3c-0.3,0.5-0.7,0.6-1.2,1.2c-0.1,0-0.5,0.3-0.5,0.2
								c-0.6,0.4,0.2,0,0.2,0.1c-0.8,0.8-2.3,1.1-3.8,1.7c-1.3,0.4-1.6,0.6-2.9,0.8c-0.4-0.1,0.4-0.2,0.4-0.2c-0.4,0-0.7-0.1-1-0.1
								c-0.3,0-0.6,0-0.9,0c0.1,0,0-0.1-0.2-0.2c-0.5-0.1-0.4,0.2-1-0.1c0.1,0,0.3-0.1,0.6-0.1c-0.6-0.1-1.2-0.1-1.8-0.3
								c-0.1-0.1,0.4,0,0.6,0c-0.3-0.1-0.8-0.2-1.2-0.3c-0.4-0.1-0.7-0.2-0.8-0.2l0.4,0.2c-0.2-0.1-0.1-0.2,0.1-0.1
								c0.6,0.2,0.8,0.4,0.8,0.5c0,0-0.4-0.1-0.4-0.1c0.2,0.2,0.6,0.4,1.1,0.5c0.5,0.1,1.1,0.2,1.6,0.2l-0.4,0.2l1-0.1
								c0.2,0.1,0.3,0.2-0.1,0.2c0.7,0.2,0.6,0,1.2,0.1c0.1,0,0,0,0,0c0,0,0.2,0,0.3,0c0.2,0,0.3-0.1,0.3-0.1
								c-0.1,0.1,0.1,0.2-0.3,0.1c1.2,0.1,1.9-0.3,2.4-0.2l-0.1,0c1.6-0.5,0.1-0.2,1.3-0.7l0.9,0.1l0.1-0.2c0.2-0.1,0.5-0.2,0.4-0.1
								c0.5-0.4-0.1,0,0.2-0.3c0.4-0.1,0.9-0.4,1.3-0.7c0.4-0.3,0.7-0.5,0.9-0.5c0.2-0.3-0.7,0.4,0-0.2c0.4,0.1,0.7-0.7,1.4-1.1
								c0,0.3-0.6,0.7,0,0.3c0.1-0.5,1.1-1,1.5-1.5c-0.1-0.2,0.9-1,1.6-1.8c0,0.1,1.5-1.3,2.2-2l0,0c0-0.3,0.7-1,1.2-1.5
								c0.1,0.1,0,0.2-0.2,0.6l0.5-0.5c0.1-0.2,0.2-0.3,0.5-0.7l0,0.2c0.6-0.7,1.2-1.4,2.1-2.2c-0.1-0.2-1,0.4-0.1-0.6
								c0.1,0,0.2,0.1,0,0.3c0.1-0.1,0.2-0.3,0.4-0.4l-0.3,0.4c0.4-0.3,0.1-0.3,0.4-0.6c0.1,0.1,0.3-0.2,0.3-0.1
								c-0.1,0.1-0.3,0.2-0.4,0.4c0.4-0.3,0.8-0.7,1-0.8c-0.1,0-0.1-0.1,0.1-0.4c0.6-0.7,0.3-0.1,0.7-0.5c0.1-0.2,0.6-0.6,0.5-0.7
								c0.2-0.2,0.3-0.2,0.4-0.2c0.3-0.4,1.6-1.6,1.1-1.3l-0.1,0.1c0,0,0,0,0-0.1l0,0l0,0c1-1.2,2.4-2.2,3.4-3.4l0,0
								c0.6-0.7,1.4-1.5,1.8-2c0.2-0.2,0.5-0.4,0.5-0.3c0.5-0.5,0.5-0.6,1.3-1.3c-0.4,0.6,0.2-0.1-0.5,0.6c0.7-0.6,0.9-0.7,1.5-1.5
								c-0.1,0.3,0.6-0.4,0.9-0.7l-0.5,0.4c0.3-0.4,0.6-0.7,1-1l0,0.3c1.5-1.2,2.1-2.7,3.4-3.4c0.3-0.4-0.8,0.7-0.6,0.2
								c0.6-0.6,1.5-1,1.7-1.2c0.9-0.8,0.6-1,1.5-1.8c-0.2,0.1-0.4,0,0.2-0.7c0.6-0.6,1-0.6,0.6-0.1c-0.1,0.2-0.2,0.2-0.2,0.2
								c-0.2,0.2-0.4,0.5-0.1,0.3l0-0.1c0.4-0.3,1.2-1.1,1.1-0.8c0.4-0.5,0.1-0.3-0.2,0c0.9-0.7,1.2-1.2,2.1-2
								c-0.2,0.1-0.3,0.2-0.2,0c1.2-1.1,0.4-0.6,1.2-1.4c0.5-0.4,0,0.3,0.8-0.5c0.5-0.4,0.2,0,0.1,0.3c0.6-0.8,1.4-1.3,1.9-1.7
								l-0.3,0.4c0.2-0.3,0.4-0.4,0.6-0.6l-0.3,0.1c0.2-0.2,0.4-0.4,0.5-0.4c0.2-0.3-0.3,0,0-0.5c0.4-0.3,0.9-1,1.1-1
								c-1,0.9,0.2,0-0.6,0.9c0.1-0.2,0.3-0.4,0.6-0.6c0,0,0,0.1-0.1,0.1c1-0.8,0.3-0.6,1.2-1.5c0,0.2,0.4-0.1,0.5-0.3
								c-0.4,0.4-0.3,0.1,0-0.3c0.7-0.6,0.6-0.7,0.9-1l-0.4,0.3c0.1-0.2,0.4-0.5,0.8-0.9c0.1,0-0.3,0.4-0.2,0.3
								c0.3-0.6,1.2-0.9,1.8-1.7c0.4-0.3,0.2,0.1,0.5-0.1c0.6-0.8,0.9-0.7,1.6-1.5c-0.3,0.1-0.3,0.2,0.1-0.5l-1.2,1.3l0.7-1
								c-0.4,0.4-0.7,0.9-1,1.1c0.3-0.5,0.3-0.4,0-0.3c0.7-0.4,1-1.1,1.7-1.6l0.2,0.3c1-0.8,1.5-1.7,2.7-2.9l-0.4,0.3
								c0.1-0.2,0.7-0.8,1-1.2c0,0.1,0.3-0.1,0.5-0.3c-0.1,0,0.8-1,0.6-1.3l0.5-0.6c0.7-1.3,0.4-1.6,0.8-2.8c0,0.4,0.3-0.1,0.1,0.7
								c0.1-0.4,0.2-0.8,0.2-0.9c0.2-0.2,0.1-1.3,0.2-1.6c0-0.2-0.2-0.3-0.1-0.8c0-0.1,0.1,0,0.1,0c-0.1,0,0-0.8-0.2-0.3
								c0.2-0.7,0.1-1.6-0.1-2.6c-0.2-0.9-0.5-1.8-0.6-2.4c-0.4-0.9-1-1.9-1.6-2.6c0.1,0,0,0,0.1,0.1c-0.6-1.1-0.7-0.4-1.5-1.5
								c-0.4-0.6,0.6,0.4,0.3,0.1c0.1-0.4-1.2-1.1-1.7-1.9l0.2,0.1c-0.4-0.6-1.3-1.1-2.1-1.9c0,0,0.1,0,0,0
								c-0.7-0.4-1.8-1.4-2.6-2.1c0.3,0.1,0.4,0.3,0.4,0c-0.4-0.3-0.1,0.3-0.8-0.4c-0.2-0.3-0.6-0.8-0.6-1l0.7,0.6
								c-0.2-0.5-0.8-0.8-1.2-1.2l0.1,0c-1-1-1.2-0.8-2.3-1.9l0.1,0.2c-0.7-0.4-0.4-0.6-1.1-1l0-0.3c-0.4-0.3-1.5-1.2-2.2-1.9
								c0.5,0.3,1.4,1,2,1.5c-0.4-0.4-1.3-1.3-1.6-1.4c0.2,0.1,0.4,0.3,0.5,0.5c-0.6-0.3-1.3-0.9-2-1.7c0.4-0.2-1.9-2.1-2.3-2.9
								c-1.7-1.1-3.4-2.2-5.7-2.6c0.8,0.5-0.7-0.1-0.6,0.3c-0.5-0.1-0.7,0-0.8-0.1c0,0-0.4-0.1-0.8-0.1c-0.4,0-0.8-0.1-0.8-0.1
								c-0.4-0.1,0.5-0.1,0.5-0.2c-1.2,0-0.5-0.1-1.3-0.1c0.2,0.1-0.4,0.2-1.1,0.3c0,0,0.2,0,0.5,0c0.2,0,0.5,0,0.5,0
								c-1.6,0.5-1.5,0-3.1,0.7c0,0,0.5-0.3,0.5-0.3c-0.4,0.2-1.2,0.5-1.8,0.9c-0.7,0.4-1.3,0.9-1.6,1.3c-0.1,0.1-0.4,0.1-0.1-0.1
								c-0.4,0.3-0.8,0.7-1.2,1.1c-0.4,0.4-0.7,0.8-1.1,1.2c-0.7,0.8-1.4,1.5-2,2l0-0.2c-0.2,0.3-0.3,0.6-0.7,0.8c0,0,0-0.2-0.1,0
								c-0.1,0.2-0.6,0.8-1,1.1l0.2-0.4c-1.4,1.3-1.9,2.2-3,3.4c-0.2-0.2-1.3,0.8-1.9,1.3l0,0c-1.6,1.6-2.5,2.8-3.9,4.4
								c-1.1,0.7-3.1,3-4.7,4.3c0.3-0.2,0.1,0.2-0.1,0.5c-0.4,0.3-0.8,1.1-0.9,0.8l0.1-0.1c-0.4,0.1-1.1,0.8-1.6,1.4l0.1,0.3
								c-1.7,1.1-3.6,3.9-4.7,4.4c-0.3,0.4-0.7,0.8-1,1.2l-0.1-0.1c-1,0.9-1.5,1.4-2.6,2.6l0.2-0.3c-0.7,0.7-0.5,1.2-1.1,1.8l-0.4,0
								c-1.2,1.2-2.5,2.2-3.5,3.5c0,0,0-0.1,0.2-0.3c-0.6,0.5-2.2,2-1.8,2c-0.2-0.1-1.2,1.2-1.8,1.9l0-0.2c-0.4,0.7-0.4,0.7-1.1,1.5
								c-0.2,0.2-0.2,0.1,0-0.1c-0.6,0.5-0.3,0.6-1.1,1.2l0.2-0.3c-0.6,0.6-0.5,0.6-0.8,1c-0.3,0.4-1.2,1.1-1.4,1.1
								c0,0.1-0.3,0.6-0.7,0.9c-0.1,0,0-0.1,0.1-0.2c-1.1,0.9-1.4,1.6-2.2,2.2c-0.1,0-0.1,0-0.2,0c0.8-0.8,1.5-1.4,1.4-1.4
								c-0.1-0.1-0.8,0.5-0.4-0.1c-0.4,0.6-1.2,1.7-1.8,2.2c0,0-0.1,0-0.1,0l0.1-0.1c-0.2,0.1-0.3,0.3-0.4,0.4
								c-0.2,0.2-0.4,0.3-0.6,0.5c-0.2,0-0.8,0.7-1.1,1c0.1,0.1-0.3,0.5,0.2,0.2c-0.1,0,0-0.1,0.3-0.3c0-0.1,0.1-0.1,0.1-0.1l0,0
								c0.2-0.2,0.5-0.5,0.8-0.8c-0.2,0.3-0.4,0.6-0.8,0.9c-0.1,0.2-0.2,0.5-0.3,0.6c-0.3,0.2-0.7,0.4-1,0.7
								c-0.3,0.3-0.6,0.5-0.7,0.6c-0.8,1.2-1.6,3.1-1.5,4c-0.1,0.4-0.2,0.4-0.3,0.6c0-0.2,0.1-0.5,0.1-0.6c-0.2,0.8-0.4,2.4-0.2,2.6
								c-0.1,1-0.2-0.6-0.2,0.8l-0.1-0.2c-0.2,1.4,0.2,2.6,0.6,3.6c0.5,1.1,1,2.1,1.7,3.5c-0.1-0.2-0.2-0.3-0.1-0.3
								c0.2,0.4,0.5,0.7,0.7,1.1c0.3,0.3,0.6,0.7,0.9,1c0.6,0.6,1.3,1.2,1.9,1.8c1.3,1.2,2.5,2.4,3.6,3.7c0.6,0.7,0.8,0.7,1.3,1
								l0,0.3l0.8,0.6c1.1,0.9,1.4,2,2.9,3.1l-0.1-0.2c0.4,0.5,1.5,1.4,1.3,1.4c0.1,0,0.2,0.1,0.4,0.3l-0.1,0.1l1.2,1
								c0.8,0.9-0.4,0.1,0.9,1.4c0.5,0.4,1.5,1.2,1.4,0.9c-0.2-0.2-0.4-0.5-0.4-0.6l0.5,0.4c0.3-0.1,0.8,0-0.1-1.2l-0.9-0.6
								l-0.1-0.3l0.6,0.6c-0.3-0.4-0.6-0.6-0.9-0.8c0-0.1-0.1-0.2-0.2-0.4l-0.9-0.5c0-0.2,0.5,0.2,0-0.3c-0.4-0.3,0.2,0.5-0.5,0
								c-0.3-0.4-0.1-0.4-0.6-0.7c0-0.1,0.1-0.1,0.3,0.1c-0.4-0.3-1-0.9-1.3-1c-0.3-0.5-1.3-1.2-1.1-1.4c-0.2-0.1-0.8-0.5-1.1-0.8
								c0.8,0.4-1.3-1.3-0.9-1.3c-0.6-0.3-1.7-1.6-2.7-2.3c0.1,0,0.2,0.1,0.2,0.2c-0.4-0.5-0.5-0.7-0.8-1c-0.2,0.1-1-0.6-1.4-0.9
								c-0.4-0.7,0.5,0.2,0.5-0.2c-0.1,0.2-1.1-0.8-1-0.5c-0.3-0.5-0.3-0.4-0.4-0.8c-0.3,0.1-0.4-0.4-0.9-0.6c-0.5-0.7,0-0.3-0.7-1
								C32.5,95.7,33.2,96.3,33.2,96.3z M34.7,77.4L34.7,77.4c-0.1,0.1-0.3,0.3-0.3,0.3C34.4,77.7,34.5,77.6,34.7,77.4z M36,76.1
								c-0.2,0.2-0.4,0.4-0.6,0.6c-0.1,0-0.1-0.1,0.1-0.2C35.4,76.5,35.8,76.2,36,76.1z M32.4,78.1c0.2-0.2,0.3-0.3,0.3-0.3
								c-0.1,0.1-0.2,0.2-0.4,0.4c0,0,0,0,0,0C32.3,78.2,32.3,78.2,32.4,78.1z"/>
							<path fill="#202020" d="M32.1,78.7C32.1,78.7,32.1,78.7,32.1,78.7C32.1,78.7,32.1,78.7,32.1,78.7c0.1,0,0.1-0.1,0.1-0.1
								C32.2,78.6,32.2,78.6,32.1,78.7z"/>
							<path fill="#202020" d="M78.4,98.5L78.4,98.5C78.4,98.5,78.4,98.5,78.4,98.5C78.4,98.5,78.4,98.5,78.4,98.5z"/>
							<polygon fill="#202020" points="55,57.6 54.9,57.5 54.8,57.7 							"/>
							<path fill="#202020" d="M70.5,105.6c0,0-0.1,0-0.1,0.1C70.4,105.6,70.5,105.6,70.5,105.6z"/>
							<path fill="#202020" d="M67.3,108.8l-0.5,0.4C67,109,67.2,108.9,67.3,108.8z"/>
							<path fill="#202020" d="M64.7,111.2C64.7,111.2,64.7,111.3,64.7,111.2L64.7,111.2L64.7,111.2z"/>
							<path fill="#202020" d="M104,71.6c0,0,0.1-0.1,0.1-0.1C104.3,71.3,104.2,71.4,104,71.6z"/>
							<path fill="#202020" d="M92.6,83.6c0.1-0.1,0.2-0.3,0.3-0.4C92.7,83.4,92.5,83.6,92.6,83.6z"/>
							<polygon fill="#202020" points="114.5,57.5 114.5,57.5 114.6,57.4 							"/>
							<path fill="#202020" d="M93.4,82.6c-0.2,0.2-0.4,0.4-0.5,0.5C93.1,83,93.3,82.8,93.4,82.6z"/>
							<path fill="#202020" d="M51.3,113.9l-0.1-0.1c0,0,0,0,0,0L51.3,113.9z"/>
							<path fill="#202020" d="M51.2,113.9l-0.2-0.1C51.1,113.8,51.1,113.9,51.2,113.9z"/>
							<path fill="#202020" d="M50.6,113.7c0,0,0.4,0.1,0.4,0.1C50.9,113.7,50.7,113.7,50.6,113.7z"/>
							<path fill="#202020" d="M55.6,115L55.6,115C55.7,115,55.6,115,55.6,115z"/>
							<path fill="#202020" d="M57,115c-0.3,0-0.8-0.1-1.3-0.1l0,0C55.9,114.9,56.7,115.1,57,115z"/>
							<path fill="#202020" d="M62.7,113.8c0,0-1.1,0.6-1.1,0.6c0.2,0,0.5-0.1,0,0.2C63.1,114,61.3,114.6,62.7,113.8z"/>
							<path fill="#202020" d="M65.6,111.5c-0.4,0.5,0.1,0.1,0.1,0.1C65.9,111.2,66,111.2,65.6,111.5z"/>
							<path fill="#202020" d="M84.3,92.7l0.1,0.1C84.7,92.5,84.4,92.8,84.3,92.7z"/>
							<polygon fill="#202020" points="87.4,88.6 87,88.9 86.9,89.1 							"/>
							<polygon fill="#202020" points="90.2,87.2 90.1,87.4 90.6,86.8 							"/>
							<path fill="#202020" d="M115.5,52.3l-0.1,0.2C115.5,52.8,115.7,52.8,115.5,52.3z"/>
							<path fill="#202020" d="M102.7,37.8c-0.1-0.2-0.4-0.6-0.7-0.8C102.3,37.3,102.5,37.6,102.7,37.8z"/>
							<polygon fill="#202020" points="57.5,52.9 57.8,52.6 57.3,53.2 							"/>
						</g>
					</g>
				</g>
			</g>
		</g>
		<g>
			<g>
				<g>
					<g>
						<g>
							<path fill="#202020" d="M115,55.9c0-0.1-0.1-0.1-0.2,0L115,56L115,55.9z"/>
							<path fill="#202020" d="M114.5,56.1c0,0.1,0.1,0.3,0.3,0.4c-0.1-0.2,0-0.2-0.1-0.4c0-0.1,0.1-0.1,0.2,0c0-0.1,0.1-0.1,0-0.2
								c-0.2,0-0.3,0.1-0.2,0.3C114.5,56.2,114.5,56.2,114.5,56.1z"/>
							<path fill="#202020" d="M108.6,58.1L108.6,58.1C108.6,58.1,108.6,58.1,108.6,58.1z"/>
							<path fill="#202020" d="M106.2,55.8C106.3,55.8,106.3,55.8,106.2,55.8C106.2,55.8,106.2,55.8,106.2,55.8z"/>
							<path fill="#202020" d="M105.3,55.5C105.4,55.5,105.4,55.5,105.3,55.5C105.4,55.5,105.4,55.4,105.3,55.5z"/>
							<path fill="#202020" d="M108.6,58.1L108.6,58.1C108.5,58.1,108.6,58.1,108.6,58.1z"/>
							<path fill="#202020" d="M114,57.5c0,0,0-0.1,0-0.1C114,57.4,114,57.4,114,57.5L114,57.5z"/>
							<path fill="#202020" d="M110.3,57.1L110.3,57.1c0,0,0-0.1,0-0.1L110.3,57.1z"/>
							<path fill="#202020" d="M111.5,56.1c0,0,0,0.2,0.1,0.2C111.5,56.3,111.5,56.3,111.5,56.1C111.5,56.2,111.5,56.2,111.5,56.1z"
								/>
							<polygon fill="#202020" points="113.6,57 113.6,56.9 113.6,56.9 113.6,56.9 							"/>
							<path fill="#202020" d="M109.3,57.6C109.3,57.5,109.3,57.5,109.3,57.6C109.3,57.5,109.3,57.5,109.3,57.6z"/>
							<path fill="#202020" d="M84.9,29.8L84.9,29.8C84.9,29.9,84.9,29.8,84.9,29.8z"/>
							<polygon fill="#202020" points="86.9,29.4 86.9,29.5 86.9,29.6 							"/>
							<path fill="#202020" d="M103.7,55.5L103.7,55.5C103.8,55.4,103.7,55.4,103.7,55.5z"/>
							<path fill="#202020" d="M95.9,48.3c0,0.2-0.3-0.1-0.3,0.2C95.6,48.5,95.9,48.5,95.9,48.3z"/>
							<path fill="#202020" d="M114,57.5L114,57.5C114,57.6,114,57.6,114,57.5z"/>
							<path fill="#202020" d="M95.6,48.5L95.6,48.5L95.6,48.5C95.6,48.5,95.6,48.5,95.6,48.5z"/>
							<path fill="#202020" d="M100.9,56.2C100.9,56.2,100.9,56.2,100.9,56.2C100.9,56.2,100.9,56.2,100.9,56.2z"/>
							<path fill="#202020" d="M103,56L103,56C102.9,56,103,56,103,56z"/>
							<path fill="#202020" d="M100.3,55.7C100.3,55.7,100.4,55.7,100.3,55.7L100.3,55.7C100.3,55.7,100.3,55.7,100.3,55.7z"/>
							<polygon fill="#202020" points="99.7,54.6 99.7,54.6 99.7,54.6 							"/>
							<path fill="#202020" d="M83.6,34.2c0,0,0.1-0.1,0.1-0.1C83.6,34.1,83.6,33.9,83.6,34.2z"/>
							<path fill="#202020" d="M114,57.4c0,0.1,0,0.1,0,0.1L114,57.4C114,57.4,114,57.4,114,57.4z"/>
							<path fill="#202020" d="M99.2,56.3l-0.1-0.2C99.1,56.2,99.2,56.3,99.2,56.3z"/>
							<path fill="#202020" d="M89.1,42.3L89.1,42.3C89.1,42.3,89.1,42.3,89.1,42.3z"/>
							<path fill="#202020" d="M98.8,55.6c0-0.1,0-0.1,0-0.2c0,0,0,0,0,0L98.8,55.6z"/>
							<path fill="#202020" d="M83.7,34.1L83.7,34.1L83.7,34.1z"/>
							<path fill="#202020" d="M83.4,32.5c0,0.2,0.2,0.1,0.3,0.2c0,0.3-0.2,0.1-0.3,0.2c0,0.2,0.2,0.3,0.2,0.4c0,0,0,0-0.1,0
								c0.2,0.2,0,0.5,0.2,0.7c0,0,0,0-0.1,0c0.1,0,0.2-0.1,0.3-0.1c0,0.1,0.2,0.2,0,0.2c0-0.1-0.1-0.1-0.1-0.1l0.1,0.1
								c-0.2,0.1-0.1-0.1-0.2-0.1c0.1,0.2,0.3,0.4,0.3,0.6c-0.2,0.1-0.1-0.3-0.3-0.1l0-0.2c-0.3,0.2,0-0.2-0.3,0.1
								c0,0.3,0.2,0.3,0.2,0.7c0.1,0,0.2-0.1,0.3,0c0.3,0.4-0.4,0.5,0,0.7c0.2,0,0.4,0,0.4,0.2l-0.2,0c0.1,0.3,0.4,0,0.4,0.4
								c-0.1,0-0.2-0.2-0.2-0.1c-0.1,0.3,0.2,0.1,0.2,0.2l-0.2,0.1c0.2,0.3,0.5,0.5,0.7,0.8c-0.1,0-0.1,0-0.1,0.1
								c0.3,0.3,0.5,0.8,0.7,1.2l0.2,0c0,0,0,0.1-0.1,0.1c0.1,0.2,0.1-0.1,0.2,0c0.1,0.1,0,0.2-0.1,0.1c0.3,0.1,0.8,0.4,0.8,0.7
								l-0.1,0c0.1,0.2,0.4,0,0.5,0.2l0,0c0.3,0.4,0.8,0.7,0.9,1.1c0.2-0.1,0.3,0.4,0.5,0.2c0.1,0.3,0,0.3,0.2,0.7
								c0.1,0.1,0.3,0,0.4,0L88.8,42l0.3,0l-0.1,0.2l0.1,0.1c0,0,0-0.1,0-0.2c0.2,0.1,0.2,0.4,0.2,0.5l0.4,0.2c-0.1,0-0.1,0-0.2,0
								c0.3,0.1-0.1,0.2,0.2,0.2c0,0,0.1-0.1,0.1-0.1c0,0.2,0.2,0.3,0.3,0.4L90,43.4c0.2,0.3,0.5,0.5,0.8,0.8c0-0.1,0.1-0.3,0.2-0.2
								l-0.1,0.2c0.1,0,0-0.1,0.2-0.1c0.1,0.1-0.1,0.2-0.2,0.2l0.2,0.1c0,0-0.1,0-0.1,0.1c0.1,0,0,0.3,0.3,0.3l0,0
								c0.2,0.3,0.4,0.4,0.6,0.6c0.1-0.1,0.2,0,0.3,0c0.1,0.2,0.2,0.5,0.3,0.7c0.2,0.1,0.1,0,0.3,0c-0.1,0.1,0.1,0.3-0.1,0.3
								c0.2,0.2,0.3,0.3,0.6,0.5c0-0.1,0-0.1,0.1-0.1c0.1,0,0.1,0.2,0,0.2l0,0c0.5,0.2,0.3,1.1,0.8,1.2l0,0l0.4,0.2
								c0.1,0.2-0.2,0-0.1,0.1c0.4,0.2,0.4,0.5,0.7,0.7c-0.2,0.5,0.6,0.7,0.5,1.2l0.1-0.1c0.1,0,0,0.1,0,0.2c0.1-0.1,0-0.1,0.1-0.1
								c0.5,0.6,0.8,1.4,1.1,2.1c0.1,0.3,0.5-0.2,0.5,0.3l-0.2,0c0.5,0.4,0.6,1,1.1,1.4c-0.1,0-0.1,0-0.1,0
								c-0.1,0.2,0.2,0.4,0.3,0.3c0,0.1-0.1,0.1-0.1,0.1c0,0.1,0.3,0.2,0.2,0.3c0,0-0.1,0-0.1,0c0.1,0,0.2,0.3,0.3,0.2
								c0,0.2,0.3,0.3,0.3,0.5c0.2,0,0.1,0.4,0.3,0.3c-0.2,0.1,0,0.4,0.2,0.5c-0.1,0,0,0.1-0.1,0.1c0.1,0.1,0.2,0.2,0.3,0.1
								c0,0.1,0,0.2,0,0.2c0,0,0.1,0.2,0.2,0.2c0.1,0.2,0.3,0.3,0.2,0.6c0.4,0.1,0.8,0,1.1,0c0.2-0.1,0.5-0.1,0.7-0.2
								c0,0.3-0.5,0.1-0.5,0.4c0.5-0.1,0.6-0.4,1.1-0.5c0.1,0,0,0.1-0.1,0.2c0.4-0.2,0.8-0.2,1.1-0.4c0,0,0,0.1-0.1,0.1
								c0.1,0,0.2,0,0.1-0.1l-0.1,0c-0.2-0.1,0.2-0.4,0.1-0.5c0,0.4,0.3,0,0.3,0.5c0,0,0.1-0.1,0-0.2c0.1,0,0.1,0,0.1,0.1
								c0.2-0.1,0.1-0.2,0.3-0.3c0,0.1,0,0.1,0,0.2c0.1-0.1,0.2-0.3,0.3-0.2c0,0,0,0.1,0,0.1c0.3-0.1,0.5-0.4,0.8-0.3
								c-0.1,0.2,0.1,0.1,0.1,0.3l0.2,0l-0.1-0.1c0.1,0,0.3-0.1,0.4,0l-0.1,0.1c0,0,0.3,0,0.3,0l-0.1-0.1c0.2-0.1,0.1-0.3,0.2-0.1
								c0,0,0.2,0.1,0.2,0.2l0,0c0.1,0,0.2,0,0.3,0.1c0,0.1-0.2,0.2-0.2,0.2c0.2-0.1,0.3,0.2,0.5,0.1c-0.1,0-0.1,0.1-0.1,0.1L107,57
								c0,0.1,0,0.1-0.1,0.2c0.1,0.2,0.2-0.2,0.2,0c0,0,0,0-0.1,0c0.1,0.2,0.3,0.3,0.3,0.7c-0.1,0.1-0.1,0-0.1-0.1c0,0,0-0.1-0.1,0
								c0.1,0.2-0.1,0.8-0.2,1.2c0.3,0,0.3,0,0.3,0.1l0-0.1c0.1-0.1,0.1-0.1,0.1-0.1c0,0,0,0.1,0,0.1c0,0.1,0.1,0.1,0.3,0
								c-0.1,0-0.2,0.2-0.2,0.2c0.3,0,0.7-0.3,1.2-0.5l-0.1,0.1c0.2,0,0.5-0.1,0.6-0.2c0-0.1,0.1-0.1,0-0.2c0.6,0.2,0.7-0.6,1.3-0.5
								c0,0-0.1,0.1,0,0.1l0.3-0.3c-0.1-0.1-0.1,0-0.2-0.1c0-0.1,0.1-0.2,0.1-0.2c-0.1,0.2,0.1,0.2,0.2,0.2c0,0,0-0.1-0.1-0.1
								c0.3,0.1-0.1-0.2,0.2-0.3l0,0.1c0.1-0.1,0.1-0.2,0.2-0.3c0.1,0.1,0,0.1,0,0.2c0.1-0.1,0.1-0.4,0.3-0.4c0,0.1-0.1,0.1-0.1,0.2
								c0.2,0.1,0.2,0,0.3,0l0,0l0.3-0.1l-0.1,0c-0.1-0.5,0.2-0.2,0.2-0.7c-0.1,0.4,0,0.2,0.1,0.4c0,0,0.1,0.1,0.1,0.1
								c0-0.1,0-0.1,0.1-0.1c0,0,0,0,0.1,0c0,0.1,0.1,0,0,0.2c0.1,0,0-0.1,0-0.2c0.1-0.1,0.1,0.1,0.2,0.2c0,0.1,0,0.1,0.1,0.2
								c0.1,0.1,0.2,0.1,0.3,0.1c0.4,0.1,0.4,0,0.6,0c0.1,0.2,0,0.2,0,0.2c0.1,0.1,0.1,0.2,0.2,0.2c0.1-0.1,0.1-0.2,0.2-0.3
								c0,0.1,0,0.1,0.1,0.1c0.1-0.1,0-0.3,0.1-0.4c0,0.1,0,0.2,0,0.4c0.1-0.2,0.1-0.5,0.2-0.6c0.1,0,0,0.2,0,0.3
								c0.1-0.2,0.3-0.5,0.2-0.6l-0.1,0c0,0,0.1,0.1,0.1,0.1c0,0.2-0.2,0.2-0.2,0.1l0-0.1c-0.2-0.1-0.2,0-0.2,0.2
								c0,0.1-0.1,0.4-0.2,0.4c0,0,0-0.1,0-0.2c0-0.1,0-0.2,0-0.2c0,0,0,0.4,0,0.4c0,0-0.1-0.2-0.1-0.3c-0.1,0-0.1,0.2-0.1,0.1
								c0,0,0,0,0-0.1c0,0,0,0,0-0.1l-0.1,0c0-0.1,0-0.2,0-0.2c-0.1-0.3-0.3,0-0.3-0.2l0,0c-0.2-0.1-0.1,0.2-0.4,0.2
								c0,0,0.1-0.5,0.1-0.5l-0.1,0.1c0,0-0.1-0.1,0-0.1c-0.2,0,0,0.1-0.1,0.1c-0.1-0.3-0.4-0.2-0.4-0.6c-0.1,0.1,0.1,0.2,0,0.2
								c0-0.2-0.1-0.2-0.1-0.2c-0.1,0.1-0.1,0.3-0.2,0.2c0-0.2,0.2-0.3,0-0.3c0,0.4-0.3,0.2-0.4,0.4c0.1,0.2-0.2,0.3-0.3,0.5
								c0-0.1-0.4,0.2-0.6,0.2l0,0c0.1,0.2-0.1,0.3-0.2,0.4c-0.1-0.1-0.1-0.2,0-0.3l-0.1,0.1c0,0.1,0,0.1-0.1,0.2l-0.1-0.2
								c-0.1,0.1-0.2,0.4-0.5,0.4c0.1,0.1,0.4,0.3,0.2,0.5c0-0.1-0.1-0.2-0.1-0.2c0,0,0,0.1-0.1,0.1l0-0.2c-0.1,0,0,0.1-0.1,0.2
								c0-0.1-0.1,0-0.1-0.1c0,0,0.1,0,0.1,0c-0.1,0-0.2,0-0.3,0c0,0.1,0.1,0.1,0,0.2c-0.2,0.1-0.1-0.1-0.2-0.1
								c0,0.1-0.1,0.1-0.1,0.2c0,0-0.1,0-0.1-0.1c0,0.1-0.1,0.1-0.2,0.1c0,0-0.1,0.1,0,0.2l0,0l0,0l0,0l0,0
								c-0.1,0.1-0.2,0.2-0.4,0.2c-0.1,0-0.2,0-0.3,0l0-0.1c-0.1,0.1-0.2,0.1-0.3,0.1c-0.1,0.1,0,0-0.1,0c0,0,0.1-0.2,0.2-0.3
								c0,0,0,0,0-0.1c0,0,0-0.1,0.1-0.1c0.1,0,0.1-0.1,0.1,0l0,0l0,0c0.1-0.2,0.1-0.2,0-0.2c0.1-0.1,0.2-0.1,0.1-0.2
								c0,0-0.1,0.2-0.1,0.2c0-0.1-0.1-0.2-0.1-0.3l0.2,0c0-0.3-0.2-0.5-0.4-0.6c-0.2-0.1-0.3-0.2-0.3-0.5c-0.2,0,0.1,0.3-0.1,0.3
								c-0.1-0.2-0.1-0.5-0.2-0.6c-0.2-0.3-0.4,0.1-0.6-0.1c0,0.1,0,0.3-0.2,0.2c-0.2-0.1-0.2-0.3,0-0.4c0,0,0.1,0,0.1,0.1
								c0.1,0,0.2,0,0.1-0.1l0,0.1c-0.1-0.1-0.4-0.2-0.3-0.3c-0.2,0-0.1,0.1,0,0.2c-0.2-0.2-0.4-0.1-0.7-0.2c0,0,0.1,0.1,0,0.1
								c-0.4-0.1-0.2,0.1-0.4,0.2c-0.1-0.1,0-0.3-0.2-0.1c-0.2-0.1-0.1-0.2,0-0.2c-0.2,0.2-0.5,0-0.6,0l0.1-0.1
								c-0.1,0-0.1,0.1-0.2,0.1l0.1,0.1c-0.1,0-0.1,0-0.1-0.1c-0.1,0.1,0.1,0.2,0,0.4c-0.1,0-0.3,0.1-0.3,0c0.3,0-0.1-0.2,0.2-0.3
								c0,0-0.1,0-0.2,0c0,0,0,0,0-0.1c-0.3-0.1-0.1,0.2-0.4,0.3c0-0.1-0.1-0.2-0.2-0.1c0.1,0,0.1,0.1,0,0.3c-0.2,0-0.2,0.1-0.3,0.1
								l0.1,0c0,0.1-0.1,0.1-0.2,0.2c0-0.1,0.1-0.1,0-0.1c-0.1,0.2-0.3-0.1-0.5,0.1c-0.1,0-0.1-0.2-0.1-0.2
								c-0.2,0.2-0.2-0.1-0.4,0.1c0.1,0.1,0.1,0.1,0,0.2l0.3-0.2l-0.2,0.2c0.1,0,0.2-0.1,0.3-0.1c-0.1,0.1-0.1,0.1,0,0.2
								c-0.2-0.2-0.3,0.2-0.5,0.1l-0.1-0.3c-0.3-0.1-0.4,0.2-0.7,0.2l0.1,0.1c0,0.1-0.2,0-0.2,0.1c0-0.1,0-0.2,0-0.2
								c0,0.1-0.1,0-0.2,0.2c0,0,0.1-0.2,0.1-0.2c0-0.1-0.3,0.1-0.4-0.2c0.1,0,0.2-0.1,0.3,0c0-0.1-0.1-0.2-0.1-0.1
								c0-0.1-0.3-0.1-0.2-0.3c-0.1,0-0.2,0-0.2-0.1c0,0,0,0,0,0c0,0-0.1-0.1-0.2,0c0.2-0.4-0.4-0.7-0.3-1c-0.1-0.2-0.3-0.3-0.4-0.5
								c0,0,0,0,0.1,0c0-0.3-0.4,0-0.4-0.3c0.1-0.2,0.2,0.1,0.2,0c0.3-0.2-0.2-0.3-0.1-0.5l0,0c0-0.2-0.3-0.2-0.4-0.4c0,0,0,0,0,0
								c-0.2,0-0.5-0.3-0.6-0.4c0.2,0,0.1,0,0.2-0.1c-0.1-0.1-0.2,0.2-0.3,0c0-0.1,0-0.3,0.1-0.4l0.1,0.2C98.3,52,98,52,98,51.9
								l0.1,0c-0.2-0.2-0.4-0.1-0.5-0.4l0,0.1c-0.3,0,0-0.2-0.2-0.2l0.2-0.2c-0.1-0.1-0.4-0.2-0.6-0.4c0.2,0,0.4,0.2,0.6,0.2
								c-0.1-0.1-0.2-0.3-0.4-0.3c0,0,0.1,0,0.1,0.1c-0.2,0-0.4-0.1-0.5-0.3c0.4-0.2-0.2-0.5-0.1-0.9c-0.4-0.2-0.4-0.7-0.7-1
								c-0.2,0.3-0.1-0.1-0.4,0.1c-0.1-0.1-0.1-0.1-0.1-0.1l0-0.4c0-0.1,0.1,0,0.2,0c-0.1-0.2,0.1-0.2,0-0.4c-0.1,0.1-0.2,0-0.2-0.1
								l0,0.2c-0.3-0.2,0.1-0.4-0.3-0.6l0.2,0c-0.2-0.1-0.4-0.5-0.7-0.5c0,0,0.1-0.1,0.1-0.1c-0.2-0.3-0.8-0.5-0.9-0.9l0.1,0
								c-0.1,0-0.2,0-0.2-0.1c0,0,0.1,0,0.1-0.1c0,0-0.2-0.1-0.3-0.2l0.1,0c-0.2-0.4-0.6-0.3-0.8-0.5c0.2-0.2,0.1-0.5,0-0.6l0,0
								c-0.3-0.4-0.7-0.5-1-0.7c0-0.4-0.5-0.8-0.7-1.2c0,0.1-0.2,0.1-0.2,0.1c0-0.1-0.3-0.1-0.1-0.2l0,0c0.1-0.2-0.1-0.3-0.2-0.4
								l-0.2,0.2c0-0.6-0.9-0.7-0.7-1.1c-0.1,0-0.2-0.1-0.3-0.1l0.1-0.1c-0.2-0.2-0.2-0.3-0.5-0.6l0.1,0c-0.1-0.1-0.5,0.2-0.6,0
								l0.1-0.2c-0.2-0.2-0.3-0.6-0.7-0.7c0,0,0.1-0.1,0.1,0c-0.1-0.1-0.3-0.6-0.5-0.3c0.2-0.2-0.2-0.3-0.4-0.3l0.1-0.1
								c-0.3,0-0.3,0.1-0.5-0.1c0-0.1,0.1-0.1,0.1,0c0-0.2-0.2,0-0.3-0.2l0.1,0c-0.1-0.1-0.1-0.1-0.3-0.1c-0.1,0-0.2-0.3-0.1-0.4
								c-0.1,0-0.2,0-0.3-0.1c0,0,0.1,0,0.1,0c-0.1-0.3-0.4-0.2-0.4-0.5c0,0,0.1-0.1,0.1-0.1c0.1,0.2,0.2,0.3,0.2,0.3
								c0.1-0.1,0-0.2,0.3-0.2c-0.2-0.1-0.5-0.1-0.5-0.3c0,0,0,0,0,0l0,0c0,0,0-0.1-0.1-0.1c0-0.1,0-0.1,0-0.1
								c0.1-0.1,0-0.2-0.1-0.3c-0.1,0.1-0.2,0-0.2,0.1c0,0,0,0,0.1,0.1c0,0,0,0,0,0c0,0,0,0,0,0c0,0,0.1,0.1,0.1,0.2
								c-0.1,0-0.2-0.1-0.2-0.2c-0.1,0-0.2,0-0.3,0c0.1-0.2,0.1-0.5,0.3-0.6c-0.2-0.2-0.3-0.5-0.6-0.6c-0.1-0.1,0.1-0.1,0.1-0.2
								c0,0,0.1,0.1,0.1,0.1c-0.1-0.1-0.1-0.4-0.4-0.4c0-0.2,0.2,0.1,0.1-0.2l0.1,0c0.1-0.3,0-0.4-0.2-0.7c-0.1-0.2-0.3-0.5,0-0.7
								c0,0,0,0.1-0.1,0.1c0.2-0.6,0-1.4,0.6-1.9c0.1-0.1,0-0.2,0-0.4l0.2,0.1l-0.1-0.3c0-0.3,0.6-0.1,0.6-0.5l-0.1-0.1
								c0.1-0.1,0.3-0.3,0.3-0.2c0,0,0-0.1,0-0.1l0.1,0.1c0,0,0.2-0.3,0.2-0.3c0.2,0,0.1,0.3,0.4,0.2c0.1-0.1,0.2-0.4,0.2-0.4
								c0,0-0.1,0-0.2-0.1l0.1-0.1c-0.1-0.3,0-0.6-0.4-0.6l-0.2,0.2L86.2,29c0,0,0.2-0.1,0.2-0.1c-0.2-0.1-0.2,0.1-0.2,0.2
								C86.1,29,86,29,86,29l-0.1,0.3c-0.1-0.1,0-0.2-0.2-0.2c0,0.2,0.2,0.1,0.1,0.3c-0.2,0-0.2-0.1-0.2,0c-0.1,0-0.1-0.1,0-0.2
								c-0.1,0.1-0.2,0.2-0.2,0.4c-0.2,0-0.3,0.3-0.4,0.1c0,0.1,0,0.3-0.1,0.4c-0.1-0.4-0.3,0.3-0.5,0.1c0.1,0.3-0.2,0.6-0.2,0.9
								c0,0,0-0.1,0-0.1c-0.1,0.1-0.2,0.1-0.3,0.2c0.2,0.1,0.2,0.3,0.3,0.5c-0.3,0.1-0.2-0.2-0.4-0.2c0.2,0.1,0.1,0.4,0.2,0.3
								c-0.2,0.1-0.1,0.1-0.3,0.1c0.3,0.1,0,0.1,0.2,0.3c-0.2,0.2-0.3,0-0.2,0.2C83.5,32.7,83.4,32.5,83.4,32.5z M85,37.4L85,37.4
								C85,37.3,85,37.3,85,37.4C85,37.3,85,37.3,85,37.4z M85.3,37.7c0,0-0.1-0.1-0.1-0.2c0,0,0.1-0.1,0.1,0
								C85.2,37.5,85.3,37.6,85.3,37.7z M85.8,36.4C85.8,36.5,85.8,36.5,85.8,36.4C85.8,36.5,85.7,36.5,85.8,36.4L85.8,36.4
								C85.7,36.4,85.8,36.4,85.8,36.4z"/>
							<path fill="#202020" d="M85.5,36.4C85.5,36.4,85.5,36.4,85.5,36.4C85.5,36.4,85.5,36.5,85.5,36.4L85.5,36.4L85.5,36.4z"/>
							<path fill="#202020" d="M108.7,58.1L108.7,58.1C108.7,58.1,108.7,58.1,108.7,58.1L108.7,58.1z"/>
							<polygon fill="#202020" points="88.8,42 88.8,42 88.7,42 							"/>
							<path fill="#202020" d="M110.8,57.6C110.8,57.6,110.9,57.6,110.8,57.6C110.9,57.6,110.9,57.6,110.8,57.6z"/>
							<path fill="#202020" d="M111.6,57l0.1,0C111.7,57,111.7,57,111.6,57z"/>
							<path fill="#202020" d="M112.1,56.8C112.1,56.7,112.1,56.7,112.1,56.8L112.1,56.8L112.1,56.8z"/>
							<path fill="#202020" d="M103.3,57L103.3,57C103.3,57.1,103.3,57.1,103.3,57z"/>
							<path fill="#202020" d="M106.4,56.5c0,0-0.1,0-0.1,0C106.3,56.6,106.3,56.6,106.4,56.5z"/>
							<polygon fill="#202020" points="99.2,56.3 99.2,56.3 99.2,56.3 							"/>
							<path fill="#202020" d="M106.1,56.5c0,0,0.1,0.1,0.1,0.1C106.2,56.5,106.2,56.5,106.1,56.5z"/>
							<path fill="#202020" d="M114.6,56.7L114.6,56.7C114.6,56.7,114.6,56.7,114.6,56.7C114.6,56.7,114.6,56.7,114.6,56.7z"/>
							<path fill="#202020" d="M114.6,56.7L114.6,56.7C114.6,56.6,114.6,56.7,114.6,56.7z"/>
							<path fill="#202020" d="M114.6,56.5L114.6,56.5C114.6,56.6,114.7,56.6,114.6,56.5z"/>
							<path fill="#202020" d="M113.7,57.8L113.7,57.8C113.7,57.9,113.7,57.9,113.7,57.8z"/>
							<path fill="#202020" d="M113.4,57.6c0.1,0.1,0.2,0.3,0.3,0.4l0-0.1C113.7,58,113.5,57.5,113.4,57.6z"/>
							<path fill="#202020" d="M112.5,56l0.2,0.2c0-0.1,0-0.2,0.1-0.1C112.6,55.6,112.9,56.3,112.5,56z"/>
							<path fill="#202020" d="M111.8,56c0.1-0.2,0-0.1,0-0.1C111.7,56,111.6,56,111.8,56z"/>
							<path fill="#202020" d="M107.9,58l0.1-0.2C108.1,57.8,108,57.9,107.9,58z"/>
							<polygon fill="#202020" points="107.1,57.5 107.1,57.6 107.2,57.6 							"/>
							<polygon fill="#202020" points="107.7,56.4 107.7,56.5 107.5,56.3 							"/>
							<path fill="#202020" d="M99.9,54.7l-0.1,0.1C99.8,54.9,100,54.8,99.9,54.7z"/>
							<path fill="#202020" d="M97.7,51.4c0.1-0.1,0-0.2-0.1-0.2C97.6,51.3,97.6,51.4,97.7,51.4z"/>
							<polygon fill="#202020" points="90.5,41.8 90.6,41.8 90.5,41.7 							"/>
						</g>
					</g>
				</g>
			</g>
		</g>
		<g>
			<g>
				<g>
					<g>
						<g>
							<path fill="#202020" d="M102,56.3C102,56.3,102.1,56.3,102,56.3L102,56.3L102,56.3z"/>
							<path fill="#202020" d="M102,55.9c-0.1,0-0.2-0.1-0.2,0C101.9,56,101.9,56,102,55.9c0,0.1,0,0.2-0.1,0.2c0,0,0,0.1,0.1,0.1
								C102.1,56.1,102.1,56,102,55.9C102,55.9,102,55.9,102,55.9z"/>
							<path fill="#202020" d="M99.4,51.6L99.4,51.6C99.3,51.6,99.4,51.6,99.4,51.6z"/>
							<path fill="#202020" d="M98.5,48.3C98.5,48.3,98.5,48.3,98.5,48.3C98.5,48.3,98.5,48.3,98.5,48.3z"/>
							<path fill="#202020" d="M98.3,47.7C98.3,47.8,98.3,47.8,98.3,47.7C98.3,47.8,98.3,47.7,98.3,47.7z"/>
							<path fill="#202020" d="M99.4,51.6L99.4,51.6C99.3,51.5,99.4,51.5,99.4,51.6z"/>
							<path fill="#202020" d="M101.5,55.5C101.5,55.5,101.5,55.5,101.5,55.5L101.5,55.5L101.5,55.5z"/>
							<polygon fill="#202020" points="99.7,52.9 99.7,52.9 99.7,52.9 							"/>
							<path fill="#202020" d="M100.3,53.7c0,0-0.1,0-0.1,0C100.2,53.8,100.3,53.8,100.3,53.7C100.3,53.8,100.3,53.8,100.3,53.7z"/>
							<path fill="#202020" d="M101.5,55.1L101.5,55.1L101.5,55.1z"/>
							<path fill="#202020" d="M99.5,52.2C99.5,52.2,99.5,52.2,99.5,52.2C99.5,52.2,99.5,52.2,99.5,52.2z"/>
							<path fill="#202020" d="M84.3,33.3C84.3,33.3,84.3,33.3,84.3,33.3C84.3,33.3,84.3,33.3,84.3,33.3z"/>
							<polygon fill="#202020" points="83.1,34 83.2,34 83.1,34 							"/>
							<path fill="#202020" d="M97.9,46.7L97.9,46.7C97.9,46.8,97.9,46.8,97.9,46.7z"/>
							<path fill="#202020" d="M93.8,40.8c0,0.1-0.2-0.1-0.1,0.1C93.6,40.8,93.8,40.9,93.8,40.8z"/>
							<path fill="#202020" d="M101.5,55.4L101.5,55.4C101.4,55.4,101.4,55.4,101.5,55.4z"/>
							<polygon fill="#202020" points="93.6,40.9 93.6,40.9 93.6,40.9 							"/>
							<path fill="#202020" d="M96,45C96,45,96,45,96,45C96,45,96,45,96,45z"/>
							<path fill="#202020" d="M97.4,46.3L97.4,46.3C97.4,46.3,97.4,46.3,97.4,46.3z"/>
							<path fill="#202020" d="M95,44.7C95,44.7,95,44.7,95,44.7C95,44.7,95,44.7,95,44.7C95,44.7,95,44.7,95,44.7z"/>
							<polygon fill="#202020" points="94,44.7 94,44.8 94,44.7 							"/>
							<path fill="#202020" d="M86.2,33.1C86.2,33,86.2,33,86.2,33.1C86.2,33,86.1,33,86.2,33.1z"/>
							<path fill="#202020" d="M101.5,55.4C101.5,55.4,101.5,55.5,101.5,55.4L101.5,55.4C101.5,55.5,101.5,55.5,101.5,55.4z"/>
							<path fill="#202020" d="M94.9,45.4l-0.1,0C94.8,45.4,94.8,45.4,94.9,45.4z"/>
							<path fill="#202020" d="M88.9,37L88.9,37C88.8,37,88.8,37,88.9,37z"/>
							<path fill="#202020" d="M94.3,45.3C94.3,45.3,94.3,45.3,94.3,45.3C94.3,45.3,94.3,45.3,94.3,45.3L94.3,45.3z"/>
							<path fill="#202020" d="M86.2,33L86.2,33L86.2,33z"/>
							<path fill="#202020" d="M85.4,32.6c0.1,0.1,0.1-0.1,0.1-0.1c0.1,0,0,0.1,0,0.2c0.1,0,0.2,0,0.3,0c0,0,0,0,0,0
								c0.1,0,0.2,0.2,0.4,0.2c0,0,0,0,0,0c0,0,0.1-0.1,0.1-0.1c0,0,0.1,0.1,0.1,0.1c0,0,0,0-0.1,0l0.1,0c-0.1,0.1-0.1-0.1-0.1,0
								c0.1,0.1,0.2,0.2,0.3,0.3c-0.1,0.1-0.1-0.2-0.2,0l0-0.1c-0.1,0.2,0-0.1-0.1,0.1c0.1,0.2,0.1,0.1,0.2,0.3c0.1,0,0.1,0,0.1,0
								c0.2,0.2-0.2,0.3,0,0.4c0.1,0,0.2,0,0.1,0.2l-0.1,0c0,0.2,0.2,0.1,0.1,0.3c0,0,0-0.1,0-0.1c-0.1,0.1,0.1,0.1,0.1,0.2l-0.1,0
								c0,0.2,0,0.4-0.1,0.6c0,0,0-0.1-0.1,0c-0.1,0.3-0.3,0.6-0.5,0.9l0,0.1c0,0-0.1,0-0.1,0c-0.1,0.1,0,0,0.1,0.1
								c0,0.1-0.1,0.1-0.1,0c0,0.1,0,0.3,0.1,0.5c0,0.2,0.1,0.4,0.2,0.5l-0.1,0c0.1,0.2,0.3,0.1,0.4,0.2l0,0c0.5,0.3,0.9,0,1.2,0.1
								c0-0.1,0.4-0.1,0.3-0.2c0.2,0,0.2,0.1,0.5,0c0.1,0,0.1-0.1,0.1-0.2l0,0.1l0.1-0.1l0.1,0.1l0.1,0c0,0-0.1,0-0.1-0.1
								c0.1-0.1,0.3,0,0.3,0.1c0,0,0.2,0,0.2,0c0,0-0.1,0-0.1,0c0.1-0.1,0,0.1,0.1,0.1c0,0,0,0,0-0.1c0,0.1,0.2,0.1,0.3,0.2l-0.1,0
								c0.2,0.1,0.4,0.3,0.5,0.5c0-0.1,0-0.1,0.1-0.1l0,0.1c0.1,0,0-0.1,0.1-0.1c0.1,0.1,0,0.1-0.1,0.1l0.1,0.1c0,0,0,0-0.1,0
								c0.1,0,0.1,0.2,0.2,0.2l0,0c0.2,0.2,0.3,0.3,0.4,0.4c0.1-0.1,0.1,0,0.2,0c0.1,0.1,0.2,0.3,0.3,0.5c0.1,0.1,0.1,0,0.2,0
								c0,0.1,0.1,0.2,0,0.2c0.2,0.2,0.2,0.2,0.5,0.4c0,0,0-0.1,0-0.1c0,0,0.1,0.1,0,0.1l0,0c0.3,0.2,0.4,0.7,0.7,0.8l0,0l0.2,0.2
								c0.1,0.1-0.1,0-0.1,0.1c0.3,0.1,0.3,0.4,0.5,0.5c-0.1,0.3,0.3,0.5,0.2,0.7l0,0c0.1,0,0,0.1,0,0.1c0,0,0-0.1,0.1,0
								c0.1,0.5-0.2,1-0.5,1.5c-0.1,0.2,0.2,0.2,0,0.4l-0.1-0.1c0,0.2-0.1,0.5-0.1,0.7c-0.1,0.4,0,0.8,0.1,1c0,0,0,0-0.1-0.1
								c0,0.2,0.1,0.5,0.1,0.4c0,0,0,0,0,0c0.1,0,0,0.1,0,0.1c0.1,0,0.4-0.3,0.5-0.3c0,0-0.1,0.1-0.1,0.1c0.1-0.1,0.4-0.2,0.4-0.2
								c0.2,0,0.3-0.1,0.4-0.1c0.1-0.1,0.2,0,0.3-0.1c0,0.1,0.2,0.1,0.3,0.1c0,0,0.1,0.1,0,0.1c0.1,0,0.2,0,0.2-0.1
								c0.1,0.2,0.4,0,0.4,0.2c0.3,0.1,0.6,0.2,0.8,0.3c-0.1,0.1-0.3-0.2-0.3-0.1c0.2,0.1,0.4,0.1,0.6,0.3c0,0.1-0.1,0-0.1,0
								c0.2,0.1,0.3,0.4,0.5,0.5c0,0,0,0-0.1,0c0,0,0,0.1,0.1,0.1l0,0c0-0.1,0.3,0,0.3,0c-0.2,0,0.1,0.2-0.1,0.2c0,0,0.1,0,0.1,0
								c0,0,0,0.1-0.1,0.1c0.1,0.1,0.1,0,0.2,0.2c0,0-0.1,0-0.1,0c0.1,0,0.2,0.1,0.2,0.2c0,0,0,0-0.1,0c0.1,0.2,0.3,0.3,0.4,0.5
								c-0.1,0,0,0.1-0.1,0.2l0.1,0.1l0-0.1c0,0.1,0.2,0.2,0.2,0.3L98,48.4l0.1,0.2l0-0.1c0.1,0.1,0.1-0.1,0.2,0.1c0,0,0,0.1,0,0.2
								l0,0c0.1,0,0.1,0.1,0.1,0.2c0,0-0.1,0-0.1,0.1c0.1,0,0.1,0.3,0.3,0.3c0,0-0.1,0-0.1,0l0.1,0c0,0.1,0,0.1-0.1,0.1
								c0.1,0.2,0.1-0.1,0.1,0.1c0,0,0,0,0,0c0,0.2,0.2,0.3,0.2,0.5c-0.1,0.1-0.1-0.1-0.1-0.1c0.1,0.2,0.3,0.5,0.3,0.7l0,0
								c0.2,0,0,0.2,0.1,0.3c0,0-0.1,0-0.1,0c0,0.2,0.1,0.3,0.1,0.6l0,0c0,0.1,0,0.3,0,0.4c0,0,0,0.1,0.1,0.1
								c-0.2,0.4,0.2,0.7,0.1,1c0,0-0.1-0.1-0.1,0c0,0,0.1,0.3,0.1,0.2c0,0,0-0.1,0-0.1c0.1,0,0.1,0.1,0.1,0.1
								c-0.1-0.1-0.1,0.1-0.1,0.1c0,0,0,0,0.1,0c0,0.2,0.1,0,0.2,0.2l0,0c0.1,0.1,0.1,0.1,0.2,0.1c0,0.1-0.1,0-0.1,0
								c0.1,0.1,0.2,0.1,0.3,0.2c0,0-0.1-0.1-0.1-0.1c0,0.1,0,0.1,0.1,0.2l0,0l0.1,0.2l0-0.1c0.2,0,0.2,0.2,0.4,0.2
								c-0.2,0-0.1,0-0.1,0.1c0,0,0.1,0.1,0,0.1c0.1,0,0.1,0.1,0.2,0.1c0,0,0.1,0.1,0,0.1c0.1,0.1,0-0.1,0-0.1
								c0.2,0,0.2,0.4,0.5,0.4c0.2,0.1,0.3,0.1,0.5,0.2c0,0.1-0.1,0-0.1,0c0,0.1,0.1,0.2,0.2,0.2c0,0,0,0,0,0.1
								c0.1,0.1,0.1,0,0.1,0.1c0,0-0.1,0-0.1,0c0.1,0.1,0.2,0.1,0.2,0.2c0,0-0.1,0-0.1,0c0.1,0.1,0.2,0.2,0.3,0.2l0-0.1
								c0,0,0,0.1-0.1,0c-0.1,0,0-0.1,0-0.1l0.1,0c0.1-0.2-0.2-0.2-0.3-0.3l0.1,0l-0.2,0c0,0,0-0.1,0.1-0.1c0-0.1-0.1,0-0.1-0.1
								c0,0,0,0,0,0l-0.1,0c0,0,0-0.1,0.1,0c-0.1-0.2-0.3-0.1-0.3-0.3l0,0c-0.2-0.1-0.1,0-0.3,0l0.1-0.2l-0.1,0c0,0-0.1-0.1,0-0.1
								c-0.1,0,0,0-0.1,0c0-0.1-0.3-0.2-0.2-0.3c-0.1,0,0.1,0.1-0.1,0.1c0.1-0.1-0.1-0.1-0.2-0.2c0.1,0,0.1,0.1,0.1-0.1
								c-0.1,0.1-0.1-0.2-0.2-0.2c-0.1,0.1-0.2-0.1-0.3-0.2c0,0-0.1-0.3-0.2-0.4l0,0c-0.1,0-0.2-0.1-0.2-0.2c0.1,0,0.1,0,0.1,0
								l0-0.1c0,0-0.1,0-0.1-0.1l0.1,0c-0.1-0.1-0.2-0.2-0.2-0.4c-0.1,0-0.2,0.2-0.3,0c0,0,0.1,0,0.1,0c0,0,0,0,0-0.1l0.1,0.1
								c0-0.1-0.1,0-0.1-0.1c0.1,0,0-0.1,0.1,0c0,0,0,0.1,0,0.1c0-0.1,0-0.2,0.1-0.2c0,0-0.1,0-0.1,0c0-0.1,0.1-0.1,0.1-0.1
								c0,0,0-0.1-0.1-0.1c0,0,0,0,0.1-0.1c0-0.1,0-0.3-0.1-0.2l0,0c0,0,0,0,0,0l0,0l0,0c-0.1-0.2,0-0.5,0-0.7l0,0
								c-0.1-0.1-0.1-0.3-0.2-0.4c0,0,0-0.1,0.1-0.1c0-0.1-0.1-0.1-0.1-0.3c0.1,0.1,0,0,0.1,0.1c0-0.1,0-0.2-0.1-0.3
								c0.1,0,0.1-0.1,0-0.2l0,0.1c0-0.1-0.1-0.1-0.1-0.2l0.1,0c0-0.3-0.4-0.4-0.3-0.7c-0.1,0,0,0.2-0.1,0.1c0-0.1,0-0.3,0-0.3
								c0-0.2-0.2-0.1-0.2-0.3c0,0-0.1,0.1-0.2,0c0-0.1,0.1-0.2,0.1-0.1c0,0,0,0,0,0c0,0,0.1,0.1,0.1,0l0,0c0-0.1-0.1-0.2,0-0.2
								c-0.1-0.1-0.1,0-0.1,0.1c0-0.2-0.1-0.2-0.2-0.4c0,0,0,0.1,0,0c-0.1-0.2-0.1-0.1-0.2-0.2c0-0.1,0.1,0,0-0.2
								c0-0.1,0.1-0.1,0.1,0c-0.1-0.1-0.1-0.3-0.1-0.4l0.1,0.1c0,0-0.1-0.1-0.1-0.1l0,0.1c0,0,0-0.1,0-0.1c-0.1,0-0.1,0.1-0.2,0
								c0-0.1-0.1-0.2-0.1-0.2c0.1,0.2,0.1-0.1,0.2,0.1c0,0,0-0.1-0.1-0.1c0,0,0,0,0,0c0-0.2-0.1,0-0.3-0.2c0.1,0,0.1-0.1,0-0.1
								c0,0.1,0,0.1-0.1,0c0-0.1-0.1-0.1-0.1-0.2l0,0.1c-0.1,0-0.1,0-0.2-0.1c0,0,0.1,0,0.1,0c-0.1,0-0.1-0.2-0.2-0.3
								c0-0.1,0.1-0.1,0-0.1c-0.2-0.1-0.1-0.2-0.2-0.3c0,0.1,0,0.1-0.1,0l0.2,0.2l-0.2-0.1c0.1,0.1,0.2,0.1,0.2,0.1
								c-0.1,0-0.1,0-0.1,0c0-0.2-0.2-0.1-0.3-0.3l0.1-0.1c-0.1-0.2-0.3-0.2-0.5-0.3l0.1,0.1c-0.1,0-0.1-0.1-0.2-0.1
								c0,0,0-0.1,0-0.1c0,0-0.2-0.1-0.2,0l-0.1-0.1c-0.2-0.1-0.3,0.1-0.5,0c0.1,0,0-0.1,0.1-0.1c-0.1,0-0.1,0-0.1,0
								c0,0-0.2,0-0.3,0c0,0-0.1,0.1-0.1,0.1c0,0,0,0,0,0c0,0-0.1,0-0.1,0.1c-0.2-0.2-0.6,0-0.8-0.1c-0.2,0.1-0.3,0.1-0.3,0.1
								c0,0,0,0,0,0c-0.1,0-0.1,0.2-0.2,0.2l0,0c0,0,0-0.1,0.1-0.1c0,0,0,0,0,0c0,0,0-0.1,0-0.1c0,0-0.1,0,0-0.1l0,0
								c0.1-0.1-0.1-0.1-0.1-0.2c0,0,0,0,0,0c-0.1,0-0.1-0.3-0.1-0.4c0.1,0.1,0,0.1,0.1,0.1c0-0.1-0.1,0-0.1-0.2
								c0.1,0,0.1-0.1,0.2-0.1l0,0.1c0.1,0,0.1-0.2,0.1-0.2l0,0c0.1-0.2,0-0.2,0-0.5l0,0c-0.1-0.2,0.1-0.1,0.1-0.2l0.1,0
								c0-0.1,0-0.3,0-0.5c0.1,0.1,0,0.3,0.1,0.4c0-0.1,0.1-0.3,0-0.3c0,0,0,0.1,0,0.1c-0.1-0.1-0.1-0.3,0-0.4
								c0.2,0.1,0.1-0.4,0.3-0.6c-0.1-0.3-0.1-0.7-0.4-1c-0.1,0.2-0.1-0.1-0.2,0c-0.1-0.1-0.1-0.1-0.1-0.1l-0.1-0.3
								c0-0.1,0.1,0,0.1,0c-0.1-0.1,0-0.1,0-0.2c0,0.1-0.1,0-0.2-0.1l0,0.2c-0.2-0.1,0-0.3-0.3-0.4l0.1,0c-0.1-0.1-0.3-0.3-0.5-0.3
								c0,0,0-0.1,0.1-0.1c-0.2-0.2-0.6-0.4-0.6-0.6l0,0c0,0-0.1,0-0.1-0.1c0,0,0,0,0,0c0,0-0.2-0.1-0.2-0.1l0.1,0
								c-0.2-0.3-0.4-0.2-0.6-0.4c0.1-0.1,0-0.3-0.1-0.4l0,0c-0.2-0.3-0.5-0.4-0.7-0.6c0-0.2-0.4-0.5-0.6-0.8c0,0.1-0.1,0.1-0.1,0
								c-0.1-0.1-0.2-0.1-0.2-0.1l0,0c0-0.1-0.2-0.2-0.3-0.3l-0.1,0.1c-0.1-0.2-0.4-0.2-0.6-0.1c-0.2,0-0.4,0.1-0.5,0
								c-0.1,0.1-0.2,0.1-0.2,0.1l0-0.1c-0.2,0-0.3,0.1-0.5,0.2l0-0.1c-0.1,0-0.1,0.3-0.2,0.3l-0.1-0.1c-0.2,0.1-0.4,0-0.6,0.1
								c0,0,0,0,0,0c-0.1,0-0.1-0.2-0.2,0c0.1-0.1-0.1-0.1-0.2-0.2l0.1,0c-0.1,0-0.1,0-0.2-0.2c0,0,0.1,0,0,0c0-0.1-0.1-0.1,0-0.2
								l0,0.1c0-0.1,0-0.1,0-0.2c0-0.1,0.1-0.2,0.2-0.2c0,0-0.1-0.1,0-0.2c0,0,0,0,0,0c0.1-0.2,0.1-0.3,0.2-0.4c0,0,0,0,0.1,0
								c-0.1,0.2-0.1,0.3-0.1,0.3c0.1,0,0.1-0.1,0.2,0.1c0-0.1,0-0.3,0.1-0.5c0,0,0,0,0,0l0,0c0,0,0-0.1,0-0.1c0,0,0-0.1,0.1-0.1
								c0.1,0,0.1-0.2,0.1-0.2c-0.1,0,0-0.1-0.1,0c0,0,0,0,0,0.1c0,0,0,0,0,0l0,0c0,0,0,0.1-0.1,0.2c0-0.1,0-0.1,0-0.2
								c0-0.1-0.1-0.1-0.1-0.1c0.1-0.1,0.2-0.3,0.3-0.3c0-0.2,0-0.6-0.2-0.7c0-0.1,0-0.1,0-0.1c0,0,0,0.1,0.1,0.1
								c-0.1-0.1-0.1-0.4-0.2-0.4c0-0.2,0.1,0,0-0.2l0,0c-0.1-0.5-0.6-0.5-0.8-0.9c0,0,0,0,0,0.1c-0.2-0.2-0.5-0.4-0.8-0.4
								c-0.3,0.2-0.5,0.3-0.8,0.4c-0.1,0.1-0.1,0.1-0.2,0.2l-0.1-0.1l-0.1,0.2c-0.1,0.2-0.4,0.1-0.5,0.4l0.1,0
								c-0.1,0.1-0.2,0.2-0.2,0.2c0,0,0,0.1,0,0.1l0,0l-0.1,0.2c-0.1,0.1-0.1-0.1-0.3,0.1c-0.1,0.1-0.1,0.3,0,0.3c0,0,0.1-0.1,0.1,0
								l0,0.1c0.1,0.1,0.2,0.2,0.4,0.1l0-0.2l0.1,0L83.6,34c0.1,0,0.1-0.1,0.1-0.1c0,0,0.1,0,0.1,0l0-0.2c0.1,0,0,0.1,0.1,0.1
								c0-0.1-0.1,0-0.1-0.1c0.1,0,0.1,0,0.1-0.1c0,0,0,0,0,0.1c0-0.1,0.1-0.2,0.1-0.2c0.1,0,0.2-0.2,0.3-0.1c0,0,0-0.2,0.1-0.2
								c0,0.2,0.2-0.2,0.3,0c0-0.2,0.2-0.2,0.3-0.4c0,0,0,0,0,0c0.1,0,0.1,0,0.2,0c0-0.1,0.1-0.2,0.1-0.3c0.2,0,0,0.1,0.1,0.2
								c0,0,0-0.1,0-0.1c0,0,0-0.1,0-0.1C85.4,32.5,85.4,32.4,85.4,32.6c0-0.2,0-0.1,0-0.2C85.5,32.5,85.4,32.6,85.4,32.6
								C85.5,32.6,85.4,32.6,85.4,32.6z M86.5,35L86.5,35C86.5,35,86.5,35,86.5,35C86.5,35,86.5,35,86.5,35z M86.3,35.3
								c0,0,0-0.1,0.1-0.1C86.4,35.2,86.4,35.2,86.3,35.3C86.4,35.2,86.4,35.2,86.3,35.3z M87.1,34.9C87.1,35,87.1,35,87.1,34.9
								C87.1,35,87.1,34.9,87.1,34.9L87.1,34.9C87.1,34.9,87.1,34.9,87.1,34.9z"/>
							<path fill="#202020" d="M87,34.8C87,34.8,87,34.8,87,34.8L87,34.8L87,34.8L87,34.8z"/>
							<polygon fill="#202020" points="99.3,51.6 99.3,51.6 99.3,51.6 							"/>
							<polygon fill="#202020" points="88.6,37.1 88.6,37.1 88.6,37.1 							"/>
							<path fill="#202020" d="M99.4,53.2C99.4,53.2,99.4,53.2,99.4,53.2C99.4,53.3,99.4,53.2,99.4,53.2z"/>
							<path fill="#202020" d="M99.8,53.8L99.8,53.8C99.9,53.9,99.8,53.8,99.8,53.8z"/>
							<path fill="#202020" d="M100.2,54.2C100.2,54.2,100.2,54.2,100.2,54.2L100.2,54.2L100.2,54.2z"/>
							<path fill="#202020" d="M97,46.7L97,46.7C96.9,46.6,96.9,46.6,97,46.7z"/>
							<path fill="#202020" d="M98.3,48.7C98.3,48.7,98.2,48.7,98.3,48.7C98.2,48.7,98.2,48.7,98.3,48.7z"/>
							<polygon fill="#202020" points="94.9,45.4 94.9,45.4 94.9,45.4 							"/>
							<path fill="#202020" d="M98.2,48.5c0,0,0,0.1,0,0.1C98.2,48.6,98.2,48.6,98.2,48.5z"/>
							<polygon fill="#202020" points="101.7,55.8 101.7,55.8 101.7,55.8 							"/>
							<path fill="#202020" d="M101.7,55.8L101.7,55.8C101.7,55.8,101.7,55.8,101.7,55.8z"/>
							<path fill="#202020" d="M101.8,55.9L101.8,55.9C101.8,55.9,101.8,55.9,101.8,55.9z"/>
							<path fill="#202020" d="M101.3,55.3L101.3,55.3C101.3,55.3,101.3,55.3,101.3,55.3z"/>
							<path fill="#202020" d="M101.2,55.2c0,0,0,0.1,0.1,0.2l0,0C101.3,55.3,101.3,55.1,101.2,55.2z"/>
							<path fill="#202020" d="M100.8,54.3l0.1,0.1c0,0,0-0.1,0.1-0.1C100.9,54.2,100.9,54.5,100.8,54.3z"/>
							<path fill="#202020" d="M100.4,53.9C100.5,53.9,100.4,53.9,100.4,53.9C100.4,53.8,100.4,53.8,100.4,53.9z"/>
							<path fill="#202020" d="M99.2,50.3L99.2,50.3C99.3,50.3,99.3,50.3,99.2,50.3z"/>
							<polygon fill="#202020" points="98.6,49.7 98.6,49.8 98.7,49.8 							"/>
							<polygon fill="#202020" points="99,49.1 99,49.1 98.9,49 							"/>
							<path fill="#202020" d="M94.1,44.6L94.1,44.6C94.2,44.7,94.2,44.6,94.1,44.6z"/>
							<path fill="#202020" d="M93.8,43.5c0.1,0,0.1-0.1,0.1-0.1C93.9,43.4,93.8,43.4,93.8,43.5z"/>
							<polygon fill="#202020" points="89.3,36.3 89.4,36.3 89.3,36.3 							"/>
						</g>
					</g>
				</g>
			</g>
		</g>
		<g>
			<g>
				<g>
					<g>
						<g>
							<path fill="#202020" d="M40.4,96.6c-0.1,0-0.1,0,0.1,0.2l0.2,0L40.4,96.6z"/>
							<path fill="#202020" d="M41.1,97.5c0.2,0.1,0.4,0.2,0.4,0.1c-0.2-0.1-0.2-0.1-0.5-0.2c-0.1-0.1-0.2-0.2-0.2-0.2
								c-0.1,0-0.2-0.2-0.3-0.2C40.7,97.1,40.9,97.3,41.1,97.5C41.2,97.6,41.1,97.5,41.1,97.5z"/>
							<path fill="#202020" d="M51.3,103.8L51.3,103.8C51.4,103.9,51.3,103.9,51.3,103.8z"/>
							<path fill="#202020" d="M43.4,96.5c0.1,0.1,0.1,0.1,0.1,0.1C43.4,96.5,43.4,96.4,43.4,96.5z"/>
							<path fill="#202020" d="M42.1,95.1C42.2,95.2,42.2,95.2,42.1,95.1C42.2,95.2,42.1,95.1,42.1,95.1z"/>
							<path fill="#202020" d="M51.3,103.8l-0.2-0.2C51.1,103.6,51.2,103.7,51.3,103.8z"/>
							<path fill="#202020" d="M43,99.1c0,0-0.1-0.1-0.1-0.1L43,99.1L43,99.1z"/>
							<path fill="#202020" d="M50.1,106.5L50.1,106.5c-0.1-0.1-0.1-0.1-0.2-0.1L50.1,106.5z"/>
							<path fill="#202020" d="M47.4,104c0.1,0.1,0.1,0,0.2,0C47.5,104,47.5,104,47.4,104C47.4,103.9,47.4,104,47.4,104z"/>
							<path fill="#202020" d="M43.3,99.9L43.3,99.9C43.3,99.8,43.3,99.8,43.3,99.9z"/>
							<path fill="#202020" d="M52.6,105.7C52.6,105.7,52.6,105.7,52.6,105.7C52.6,105.7,52.6,105.7,52.6,105.7z"/>
							<path fill="#202020" d="M32.1,85.4C32.1,85.3,32.1,85.3,32.1,85.4C32.1,85.3,32.1,85.3,32.1,85.4z"/>
							<path fill="#202020" d="M28.2,83.7L28.2,83.7C28.3,83.7,28.3,83.7,28.2,83.7L28.2,83.7z"/>
							<path fill="#202020" d="M39.7,92.8L39.7,92.8C39.8,92.8,39.8,92.8,39.7,92.8z"/>
							<path fill="#202020" d="M48.1,108.8c-0.1-0.3,0.4,0.4,0.2-0.1C48.3,108.8,47.9,108.4,48.1,108.8z"/>
							<path fill="#202020" d="M43,99.1l0.1,0.1C43.1,99.2,43.1,99.1,43,99.1z"/>
							<path fill="#202020" d="M48.3,108.7L48.3,108.7L48.3,108.7C48.3,108.7,48.3,108.7,48.3,108.7z"/>
							<path fill="#202020" d="M32.9,91.3C32.9,91.2,32.9,91.2,32.9,91.3C32.9,91.2,32.9,91.2,32.9,91.3z"/>
							<path fill="#202020" d="M38.1,91.5L38,91.4C38.1,91.5,38.1,91.5,38.1,91.5z"/>
							<path fill="#202020" d="M34.6,93.9c0.1,0.1,0.1,0.1,0.2,0.1l0,0C34.7,94,34.6,94,34.6,93.9z"/>
							<polygon fill="#202020" points="36.9,96 36.9,95.9 36.8,95.9 							"/>
							<path fill="#202020" d="M39.3,91.3c0-0.1-0.1-0.1-0.1-0.2C39.3,91.2,38.9,90.9,39.3,91.3z"/>
							<path fill="#202020" d="M43,99.1C43,99.1,43,99.1,43,99.1L43,99.1C43,99.1,42.9,99.1,43,99.1z"/>
							<path fill="#202020" d="M35.1,93.5l0.4,0.3C35.3,93.8,35.2,93.6,35.1,93.5z"/>
							<path fill="#202020" d="M54.8,104.5l0-0.1C54.8,104.4,54.8,104.5,54.8,104.5z"/>
							<path fill="#202020" d="M36.6,94.8c0,0.1,0.1,0.2,0.2,0.2c0,0,0,0,0.1,0L36.6,94.8z"/>
							<path fill="#202020" d="M39.3,91.1L39.3,91.1L39.3,91.1z"/>
							<path fill="#202020" d="M36.8,88.9c0.3,0.3,0.2,0.1,0.3,0.1c0.4,0.4,0.1,0.2,0.2,0.4c0.3,0.2,0.5,0.4,0.7,0.6c0,0,0,0.1,0,0
								c0.3,0.2,0.8,0.8,1.2,1c0,0,0,0,0,0.1c0-0.1,0-0.1,0-0.2c0.2,0.1,0.3,0.2,0.4,0.3c-0.1-0.1-0.1-0.1-0.2-0.1l0.2,0.1
								c0.1,0.2-0.3-0.2-0.3-0.1c0.4,0.3,0.8,0.5,1.1,0.7c0,0.1-0.7-0.4-0.4-0.1l-0.4-0.3c0.2,0.4-0.3-0.2-0.1,0.2
								c0.6,0.4,0.7,0.4,1.3,0.8c0.2,0,0-0.1,0.2-0.1c0.9,0.4,0.6,0.6,1.3,0.7c0.2,0,0.3-0.1,0.8,0.1l-0.2,0c0.6,0.2,0.4,0,1,0.3
								c-0.1,0-0.5-0.1-0.4-0.1c0.4,0.2,0.3,0,0.7,0.1l0,0.1c0.7,0.2,1.4,0.3,2.2,0.5c0,0-0.2,0,0,0.1c1,0.2,2,0.6,2.8,1l0.4,0.1
								c0.1,0,0.1,0.1,0,0.1c0.3,0.2,0,0,0.2,0c0.2,0.1,0.2,0.2,0.1,0.1c0.6,0.2,1.7,0.8,2.1,1.3l-0.1-0.1c0.4,0.4,0.5,0.3,0.8,0.7
								l-0.1-0.1c0.7,0.8,1.3,2,1.3,2.8c0.2,0.1,0.2,1.1,0.3,1.1c0,0.7,0,0.5,0.1,1.4c0,0.2,0.2,0.4,0.2,0.7l-0.1,0l0.2,0.4
								l-0.1,0.2l0.1,0.3c0-0.1,0-0.3,0-0.2c0.2,0.4,0.3,1.1,0.3,1.1c0,0,0.6,1,0.6,1c0,0-0.2-0.2-0.3-0.3c0.4,0.5,0,0.1,0.4,0.6
								c0-0.1,0.1,0,0.1,0c0.1,0.3,0.6,0.7,0.9,1l-0.1,0c0.6,0.5,1.3,1,1.6,1.8c-0.1-0.3,0-0.3,0.1,0l-0.1,0.1c0.1,0.1,0-0.2,0.1,0
								c0.1,0.3,0,0.2-0.1,0.1c0,0,0.1,0.3,0.1,0.3c0,0-0.1-0.1-0.1-0.1c0.1,0.1,0,0.6,0,0.8l0,0c-0.2,0.7-0.3,1.1-0.8,1.6
								c0.1,0.1-0.1,0.2-0.2,0.4c-0.4,0.3-0.9,0.5-1.5,0.6c-0.4,0.1-0.1,0.1-0.3,0.2c0-0.1-0.6,0-0.3-0.1c-0.7,0-0.9,0-1.8-0.2
								c0.1,0.1,0.2,0.1,0.1,0.1c-0.2,0-0.4-0.2-0.3-0.2l0,0c-0.5-0.1-1-0.5-1.5-0.9c-0.4-0.4-0.8-0.8-1.1-1l0,0
								c0,0-0.2-0.1-0.3-0.3c-0.2-0.2-0.3-0.3-0.3-0.3c-0.3-0.3,0.2,0.2,0-0.1c-0.7-0.7-0.9-1.2-1.4-1.8c-0.2-0.6-1.3-1.8-1.7-2.5
								l0,0.1c-0.2-0.1-0.1-0.2-0.2-0.4c0,0,0.1,0.2,0,0.1c-1.2-1.4-2.3-3-3.5-4.4c-0.4-0.5-0.5-0.1-0.9-0.8l0.2,0.1
								c-1-0.9-1.9-2.1-3-2.9c0.1,0,0.1,0,0.2,0.1C39.6,97.5,39,97,39,97.1c-0.1-0.1,0-0.1-0.1-0.2c-0.2-0.2-0.6-0.4-0.7-0.6
								c0,0,0.1,0,0.1,0.1c-0.2-0.1-0.6-0.6-0.6-0.4c-0.3-0.4-0.7-0.6-1-0.9c-0.3-0.1-0.6-0.6-0.8-0.6c0.1-0.1-0.6-0.7-0.9-0.8
								c0.1,0-0.2-0.2-0.1-0.2c-0.3-0.2-0.5-0.4-0.5-0.3c-0.4-0.5-1-0.9-0.9-1.2c-0.2-0.4-0.1-0.8,0.2-1.1c0.3-0.3,0.7-0.5,1.2-0.5
								c0,0.1-0.2,0.1-0.5,0.1c-0.2,0.1-0.4,0.2-0.4,0.2c0.7-0.4,1.2-0.4,2,0c0.2,0.1-0.1,0-0.2,0c0.8,0.3,1.4,1,2,1.5
								c0,0-0.1,0-0.2-0.1c0.1,0.1,0.3,0.3,0.3,0.2L38,92.1c-0.1-0.2,0.6,0.3,0.6,0.3c-0.3-0.1,0.6,0.6,0.1,0.4
								C38.9,92.9,39,93,39,93c0.1,0.1,0.1,0.2,0,0.1c0.4,0.4,0.3,0.2,0.7,0.5c0,0-0.1,0-0.2-0.1c0.2,0.1,0.5,0.3,0.8,0.6
								c0,0,0,0-0.1,0c0.6,0.5,1.1,0.8,1.6,1.4c-0.3-0.1,0.2,0.2,0.1,0.3l0.4,0.3l-0.1-0.2c0.3,0.3,0.6,0.4,0.8,0.7l-0.2-0.2
								l0.6,0.5l-0.3-0.3c0.3,0.2,0.1-0.1,0.4,0.2c-0.1-0.1,0.3,0.3,0.4,0.5l0,0c0.2,0.1,0.3,0.2,0.5,0.4c0,0.1-0.1,0-0.1,0.1
								c0.2,0.1,0.7,0.6,0.9,0.7c-0.1,0-0.1,0-0.1,0l0.2,0.1c0.1,0.1,0.1,0.2,0.1,0.2c0.4,0.4,0-0.2,0.4,0.3c0,0,0,0-0.1-0.1
								c0.5,0.5,1,0.8,1.4,1.3c0.1,0.2-0.4-0.3-0.3-0.1c0.7,0.6,1.4,1.1,2,1.7l-0.1-0.1c0.2,0,0.4,0.5,0.8,0.7c-0.1-0.1-0.2,0-0.1,0
								c0.4,0.4,0.9,0.8,1.6,1.3l-0.1,0c0.2,0.3,0.7,0.6,0.9,0.9c0.1,0,0.2,0.2,0.2,0.1c0.3,0.5,0.5,0.9,0.2,1.3
								c-0.2,0.4-0.8,0.6-1.2,0.3c0.1,0,0.2,0,0.2,0c0,0-0.2,0-0.4-0.1c-0.2-0.1-0.4-0.2-0.4-0.2c0,0.1,0.1,0.1,0.2,0.2
								c-0.1,0-0.3-0.1-0.5-0.2c0.3,0.2,0.1-0.1,0-0.2c0,0,0,0-0.1,0c-0.3-0.4-0.1,0.1-0.5-0.4l0,0c-0.2-0.1-0.4-0.3-0.5-0.4
								c0-0.1,0.2,0.1,0.3,0.1c-0.3-0.2-0.6-0.4-0.8-0.6c0.1,0.1,0.3,0.2,0.4,0.3c-0.2-0.3-0.2-0.3-0.4-0.5l0,0l-0.4-0.4l0.1,0.1
								c-0.5-0.2-0.7-0.6-1.2-0.9c0.5,0.3,0.1,0,0.2,0c-0.1-0.1-0.2-0.3-0.2-0.3c-0.2-0.1-0.3-0.4-0.6-0.6c0,0-0.2-0.2-0.1-0.2
								c-0.3-0.2,0,0.1,0,0.1c-0.5-0.3-0.9-1-1.5-1.4c-0.5-0.4-0.7-0.5-1.2-0.9c-0.1-0.2,0.2,0,0.2,0c-0.2-0.3-0.4-0.4-0.7-0.6
								c0.1,0,0,0,0-0.1c-0.2-0.2-0.2,0-0.4-0.3c0.1,0,0.2,0,0.3,0.1c-0.2-0.2-0.5-0.4-0.7-0.6c0-0.1,0.2,0.1,0.3,0.1
								c-0.3-0.2-0.7-0.6-0.8-0.6l0.1,0.2c-0.1-0.1,0-0.1,0.1,0c0.3,0.2,0.3,0.3,0.3,0.4l-0.2-0.1c0.1,0.3,0.7,0.6,1,0.9l-0.2,0
								l0.4,0.3c0,0.1,0.1,0.2-0.1,0c0.2,0.3,0.2,0.2,0.4,0.4c0,0,0,0,0,0l0.3,0.2c-0.1,0,0,0.1-0.1-0.1c0.4,0.4,0.7,0.6,0.8,0.8
								l0,0c0.6,0.5,0.1,0,0.6,0.3l0.1,0.4l0.1,0c0.1,0.1,0.2,0.2,0.1,0.2c0.3,0.2,0-0.1,0.2,0c0.2,0.3,0.8,0.7,0.8,0.9
								c0.1,0.1-0.2-0.3,0.1,0c0,0.2,0.4,0.3,0.6,0.6c-0.1,0-0.4-0.3-0.1,0c0.2,0.1,0.5,0.5,0.7,0.7c0.1-0.1,0.5,0.4,0.9,0.8
								c0,0,0.7,0.7,1,1.1l0,0c0.1,0,0.5,0.4,0.8,0.5c0,0-0.1,0-0.3-0.1l0.3,0.2c0.1,0,0.2,0.1,0.4,0.1l-0.1,0
								c0.4,0.2,1,0.2,1.6-0.1c0-0.1-0.5,0,0-0.3c0,0,0.1,0.1,0,0.2c0,0,0.1-0.1,0.2-0.2c0,0-0.1,0.2-0.2,0.2
								c0.2-0.2,0.1-0.1,0.2-0.3c0,0,0.1-0.1,0.1-0.1c0,0.1-0.1,0.2-0.2,0.2c0.2-0.2,0.3-0.5,0.4-0.6c0,0-0.1,0-0.1-0.2
								c-0.1-0.5,0-0.2,0-0.5c-0.1-0.1-0.2-0.4-0.3-0.3c-0.1-0.1-0.1-0.2-0.1-0.2c-0.2-0.2-0.8-0.8-0.7-0.5l0,0l0,0l0,0l0,0
								c-0.6-0.5-1.1-1.1-1.7-1.6l0,0c-0.4-0.3-0.7-0.7-1-0.8c-0.1-0.1-0.2-0.3-0.1-0.2c-0.3-0.2-0.3-0.2-0.6-0.6
								c0.3,0.2-0.1-0.1,0.3,0.2c-0.3-0.3-0.4-0.4-0.8-0.7c0.2,0.1-0.2-0.3-0.4-0.4l0.2,0.3c-0.2-0.2-0.3-0.3-0.5-0.4l0.1,0
								c-0.6-0.7-1.3-1-1.7-1.6c-0.2-0.1,0.3,0.4,0.1,0.3c-0.3-0.3-0.5-0.7-0.6-0.8c-0.4-0.4-0.5-0.3-0.9-0.7c0,0.1,0,0.2-0.3-0.1
								c-0.3-0.3-0.3-0.5-0.1-0.3c0.1,0.1,0.1,0.1,0.1,0.1c0.1,0.1,0.2,0.2,0.2,0.1l-0.1,0c-0.1-0.2-0.6-0.6-0.4-0.5
								c-0.3-0.2-0.1-0.1,0,0.1c-0.4-0.4-0.6-0.6-1-1c0.1,0.1,0.1,0.2,0,0.1c-0.6-0.6-0.3-0.2-0.7-0.6c-0.2-0.3,0.2,0-0.3-0.4
								c-0.2-0.3,0-0.1,0.1,0c-0.4-0.3-0.7-0.7-0.9-0.9l0.2,0.2c-0.1-0.1-0.2-0.2-0.3-0.3l0.1,0.2c-0.1-0.1-0.2-0.2-0.2-0.2
								c-0.1-0.1,0,0.2-0.3,0c-0.1-0.2-0.5-0.4-0.5-0.5c0.5,0.5,0-0.1,0.4,0.3c-0.1-0.1-0.2-0.2-0.3-0.3c0,0,0,0,0.1,0
								c-0.4-0.5-0.3-0.1-0.8-0.6c0.1,0,0-0.2-0.1-0.2c0.2,0.2,0,0.1-0.2,0c-0.3-0.3-0.4-0.3-0.5-0.4l0.2,0.2
								c-0.1,0-0.2-0.2-0.5-0.4c0,0,0.2,0.2,0.1,0.1c-0.3-0.2-0.5-0.6-0.9-0.8c-0.2-0.2,0-0.1-0.1-0.2c-0.5-0.2-0.5-0.4-1-0.5
								c0.1,0.1,0.2,0.1-0.2,0.1c0,0,0.9,0.3,0.9,0.3c0,0-0.6-0.2-0.6-0.2c0.3,0.1,0.6,0.2,0.7,0.3c-0.3-0.1-0.2-0.1-0.1,0
								c-0.3-0.3-0.7-0.3-1.1-0.4l0-0.2c-0.7-0.2-1.3,0.1-2,0.6c0,0,0.3-0.2,0.3-0.2c-0.1,0.1-0.4,0.4-0.6,0.7
								c0-0.1-0.2,0.1-0.2,0.2c0,0,0,0.2,0,0.4c0,0.2,0,0.4,0.1,0.4c0,0,0,0.4,0.1,0.4c0.3,0.7,0.6,0.6,1,1.1
								c-0.2-0.1,0,0.1-0.3-0.1c0.2,0.2,0.3,0.3,0.3,0.3c0.1,0.1,0.5,0.3,0.6,0.5c0.1,0,0.1,0,0.3,0.2c0,0,0,0,0,0
								c0,0,0.3,0.2,0.2,0c0.4,0.5,1.4,1.2,1.7,1.7c0.4,0.3,0.8,0.7,1.1,0.9c0,0,0,0-0.1,0c0.4,0.4,0.4,0.1,0.8,0.6
								c0.2,0.3-0.3-0.2-0.2,0c-0.1,0.2,0.6,0.5,0.8,0.9l-0.1-0.1c0.2,0.3,0.6,0.5,1,0.9c0,0,0,0,0,0c0.3,0.2,0.8,0.7,1.2,1.1
								c-0.2-0.1-0.2-0.1-0.2,0c0.2,0.2,0-0.1,0.4,0.2c0.1,0.1,0.3,0.4,0.3,0.5l-0.3-0.3c0.1,0.2,0.4,0.4,0.5,0.6l-0.1,0
								c0.5,0.5,0.6,0.4,1,1l0-0.1c0.4,0.2,0.2,0.3,0.5,0.5l0,0.2c0.2,0.2,0.7,0.6,1,1c-0.2-0.2-0.6-0.6-0.9-0.8
								c0.2,0.2,0.6,0.7,0.7,0.7c-0.1-0.1-0.2-0.2-0.2-0.3c0.3,0.2,0.6,0.5,0.9,0.9c-0.2,0.1,0.8,1.1,0.9,1.5
								c0.6,0.7,1.1,1.5,1.7,2.4c-0.1-0.4,0.2,0.3,0.3,0.1c0.2,0.2,0.2,0.3,0.2,0.3l0.4,0.7c0.1,0.2-0.2-0.2-0.2-0.1
								c0.3,0.5,0.1,0.2,0.3,0.6c0-0.1,0.2,0.1,0.4,0.4l-0.2-0.4c0.5,0.6,0.3,0.6,0.9,1.2l-0.2-0.2c0.3,0.3,1,1.1,1.4,1.3
								c0,0.1,0.1,0.2-0.1,0.1c0.7,0.7,1.9,1.1,2.6,1.4l-0.1,0c0.2,0,0.3,0,0.6,0.1c0,0-0.1,0,0,0c0.1,0,0.5,0,0.8,0.1l-0.2,0
								c1,0.1,1.5-0.1,2.3-0.5c0.1,0.1,0.8-0.2,1.1-0.5l0,0c0.9-0.8,1.2-1.7,1.1-2.8c0.1-0.3,0-1-0.4-1.5c-0.3-0.5-0.8-1-1.2-1.3
								c0.1,0.1-0.1,0.1-0.2-0.1c-0.2-0.2-0.5-0.4-0.4-0.4l0.1,0.1c0-0.2-0.4-0.5-0.6-0.8l-0.2,0c-0.2-0.4-0.5-1-0.7-1.5
								c-0.2-0.5-0.3-1-0.3-1.3c-0.1-0.2-0.1-0.5-0.2-0.7l0.1,0c-0.1-0.6-0.1-1-0.3-1.8l0.1,0.2c-0.1-0.5-0.3-0.5-0.5-0.9l0.1-0.2
								c-0.2-0.8-0.5-1.6-1.1-2.3c0,0,0.1,0,0.1,0.1c-0.2-0.3-1-1.2-1-1c0.1-0.1-0.6-0.6-1-0.8l0.1,0c-0.4-0.1-0.4-0.1-0.9-0.3
								c-0.1-0.1-0.1-0.1,0.1,0c-0.3-0.2-0.3-0.1-0.7-0.3l0.2,0c-0.4-0.2-0.4-0.1-0.6-0.2c-0.3-0.1-0.7-0.3-0.8-0.4
								c-0.1,0-0.3,0-0.5-0.1c0,0,0.1,0,0.1,0c-0.6-0.3-1-0.2-1.5-0.4c0,0,0,0-0.1-0.1c0.5,0.2,1,0.3,0.9,0.3c0-0.1-0.4-0.2,0-0.2
								c-0.4-0.1-1-0.1-1.4-0.3c0,0,0,0,0,0l0,0c-0.1,0-0.2-0.1-0.3-0.1c-0.1,0-0.2-0.1-0.3-0.1c0-0.1-0.5-0.2-0.7-0.2
								c0,0.1-0.3,0,0,0.1c0,0,0,0,0.2,0c0,0,0.1,0,0.1,0l0,0c0.1,0,0.3,0.1,0.5,0.1c-0.2,0-0.4,0-0.6-0.1c-0.1,0-0.3,0-0.3,0
								c-0.3-0.2-0.8-0.4-0.9-0.5c-0.7-0.1-1.5-0.5-1.9-0.5c-0.2-0.1-0.2-0.1-0.2-0.2c0.1,0,0.2,0.1,0.3,0.1c-0.4-0.1-1-0.5-1.1-0.4
								c-0.4-0.3,0.3,0-0.3-0.3l0.1,0c-1-0.8-1.9-1-2.7-2.3c0.1,0.1,0.1,0.1,0.1,0.2c-1-1.3-2.4-2.5-3.7-3.5
								c-0.4-0.3-0.5-0.3-0.7-0.4l0-0.1l-0.5-0.2c-0.6-0.3-1-0.8-1.8-1l0.1,0.1c-0.3-0.1-0.9-0.3-0.9-0.4c0,0-0.1,0-0.2,0l0,0
								c0,0-0.2,0-0.4-0.1C30,84,29.8,84,29.8,84c-0.6-0.2,0.1-0.2-0.7-0.4c-0.3-0.1-0.9-0.1-0.8,0c0.1,0,0.3,0.1,0.3,0.1l-0.3,0
								c-0.1,0.1-0.3,0.2,0.4,0.4l0.5,0l0.1,0.1l-0.4-0.1c0.2,0.1,0.4,0.1,0.5,0.1c0,0,0.1,0.1,0.2,0.1l0.5,0c0,0.1-0.2,0,0.1,0.2
								c0.2,0-0.2-0.2,0.2-0.1c0.2,0.1,0.1,0.2,0.4,0.2c0,0,0,0-0.1,0c0.2,0,0.6,0.2,0.8,0.2c0.2,0.2,0.8,0.3,0.7,0.4
								c0.1,0,0.4,0.1,0.6,0.2c-0.4-0.1,0.7,0.4,0.6,0.5c0.3,0,1,0.5,1.5,0.8c0,0-0.1,0-0.1-0.1c0.2,0.2,0.3,0.3,0.4,0.4
								c0.1-0.1,0.5,0.2,0.7,0.3c0.2,0.3-0.3,0-0.2,0.1c0-0.1,0.5,0.4,0.5,0.2c0.2,0.2,0.2,0.2,0.2,0.4c0.1-0.1,0.2,0.2,0.4,0.3
								c0.2,0.3,0,0.2,0.3,0.5C37.2,89.2,36.8,88.9,36.8,88.9z M46.5,94.2L46.5,94.2c-0.1,0-0.2,0-0.2-0.1
								C46.3,94.1,46.4,94.2,46.5,94.2z M47.4,94.4c-0.1,0-0.2-0.1-0.4-0.1c0,0,0-0.1,0.1,0C47,94.3,47.2,94.4,47.4,94.4z
								 M45.6,93.4c0.1,0,0.2,0.1,0.2,0.1C45.8,93.4,45.7,93.4,45.6,93.4L45.6,93.4C45.6,93.4,45.6,93.4,45.6,93.4z"/>
							<path fill="#202020" d="M45.3,93.4C45.3,93.4,45.3,93.4,45.3,93.4C45.3,93.4,45.3,93.4,45.3,93.4L45.3,93.4L45.3,93.4z"/>
							<path fill="#202020" d="M51.4,103.9L51.4,103.9C51.4,103.9,51.4,103.9,51.4,103.9C51.4,103.9,51.4,103.9,51.4,103.9z"/>
							<polygon fill="#202020" points="54.5,103.5 54.5,103.5 54.5,103.4 							"/>
							<path fill="#202020" d="M50,105.9C50,105.9,49.9,105.9,50,105.9C49.9,105.8,49.9,105.9,50,105.9z"/>
							<path fill="#202020" d="M48.4,104.4l-0.2-0.2C48.3,104.2,48.3,104.3,48.4,104.4z"/>
							<path fill="#202020" d="M47.2,103.2C47.2,103.1,47.1,103.2,47.2,103.2L47.2,103.2L47.2,103.2z"/>
							<path fill="#202020" d="M37.9,92L37.9,92C37.7,91.9,37.8,91.9,37.9,92z"/>
							<path fill="#202020" d="M43.9,97.3c-0.1-0.1-0.1-0.1-0.2-0.1C43.8,97.3,43.9,97.4,43.9,97.3z"/>
							<polygon fill="#202020" points="35,93.5 35,93.5 35.1,93.5 							"/>
							<path fill="#202020" d="M43.4,96.9c0.1,0.1,0.2,0.2,0.3,0.3C43.6,97.1,43.5,97,43.4,96.9z"/>
							<path fill="#202020" d="M41.9,98L41.9,98C41.8,97.9,41.8,97.9,41.9,98L41.9,98z"/>
							<path fill="#202020" d="M41.8,97.9L41.8,97.9C41.8,97.9,41.8,97.9,41.8,97.9z"/>
							<path fill="#202020" d="M41.6,97.8l0.2,0.1C41.7,97.8,41.6,97.8,41.6,97.8z"/>
							<path fill="#202020" d="M43.5,99.6L43.5,99.6C43.5,99.6,43.5,99.6,43.5,99.6z"/>
							<path fill="#202020" d="M44,100.1c-0.1-0.1-0.3-0.3-0.4-0.5l0,0C43.6,99.6,43.8,100,44,100.1z"/>
							<path fill="#202020" d="M45.8,102.3l-0.4-0.4c0.1,0.1,0.1,0.2-0.1,0C45.8,102.5,45.3,101.8,45.8,102.3z"/>
							<path fill="#202020" d="M47,103.6C46.8,103.4,47,103.6,47,103.6C47.1,103.7,47.2,103.8,47,103.6z"/>
							<path fill="#202020" d="M48.5,101.2L48.5,101.2C48.4,101,48.5,101.1,48.5,101.2z"/>
							<polygon fill="#202020" points="46.4,99.8 46.6,100 46.7,100 							"/>
							<polygon fill="#202020" points="45.7,98.4 45.8,98.5 45.5,98.2 							"/>
							<path fill="#202020" d="M36.5,95.7l0-0.1C36.4,95.5,36.3,95.5,36.5,95.7z"/>
							<path fill="#202020" d="M43.1,102.2c0,0.1,0.2,0.3,0.3,0.4C43.3,102.4,43.2,102.2,43.1,102.2z"/>
							<polygon fill="#202020" points="56,105.6 56.1,105.7 55.9,105.4 							"/>
						</g>
					</g>
				</g>
			</g>
		</g>
	</g>
</g>
</svg>
