<?xml version="1.0" encoding="utf-8"?>
<!-- Generator: Adobe Illustrator 18.0.0, SVG Export Plug-In . SVG Version: 6.00 Build 0)  -->
<!DOCTYPE svg PUBLIC "-//W3C//DTD SVG 1.1//EN" "http://www.w3.org/Graphics/SVG/1.1/DTD/svg11.dtd">
<svg version="1.1" id="Layer_1" xmlns="http://www.w3.org/2000/svg" xmlns:xlink="http://www.w3.org/1999/xlink" x="0px" y="0px"
	 viewBox="0 0 72 72" enable-background="new 0 0 72 72" xml:space="preserve">
<pattern  y="72" width="17.8" height="17.7" patternUnits="userSpaceOnUse" id="New_Pattern_Swatch_7" viewBox="0 -17.7 17.8 17.7" overflow="visible">
	<g>
		<polygon fill="none" points="0,0 17.8,0 17.8,-17.7 0,-17.7 		"/>
		<g>
			<g>
				<g>
					<g>
						<g>
							<g>
								<path fill="#202020" d="M5.8-8.4C5.8-8.4,5.8-8.4,5.8-8.4L5.8-8.4L5.8-8.4z"/>
								<path fill="#202020" d="M5.7-8.4C5.7-8.4,5.7-8.4,5.7-8.4C5.7-8.4,5.7-8.4,5.7-8.4C5.7-8.4,5.7-8.4,5.7-8.4
									C5.7-8.4,5.7-8.4,5.7-8.4C5.7-8.5,5.7-8.4,5.7-8.4C5.7-8.4,5.7-8.4,5.7-8.4z"/>
								<path fill="#202020" d="M5.2-8.5L5.2-8.5L5.2-8.5z"/>
								<path fill="#202020" d="M4.9-8.6L4.9-8.6L4.9-8.6z"/>
								<path fill="#202020" d="M4.8-8.7L4.8-8.7L4.8-8.7z"/>
								<path fill="#202020" d="M5.2-8.5L5.2-8.5C5.2-8.5,5.2-8.5,5.2-8.5z"/>
								<polygon fill="#202020" points="5.7,-8.4 5.7,-8.4 5.7,-8.4 								"/>
								<polygon fill="#202020" points="5.3,-8.4 5.3,-8.4 5.3,-8.4 								"/>
								<path fill="#202020" d="M5.4-8.4C5.4-8.4,5.4-8.4,5.4-8.4C5.4-8.4,5.4-8.4,5.4-8.4C5.4-8.4,5.4-8.4,5.4-8.4z"/>
								<path fill="#202020" d="M5.6-8.5L5.6-8.5L5.6-8.5z"/>
								<path fill="#202020" d="M5.3-8.4L5.3-8.4L5.3-8.4z"/>
								<path fill="#202020" d="M4.8-9.1L4.8-9.1L4.8-9.1z"/>
								<polygon fill="#202020" points="5,-9 5,-9 5,-9 								"/>
								<path fill="#202020" d="M4.7-8.7L4.7-8.7L4.7-8.7z"/>
								<path fill="#202020" d="M4-8.8C4-8.8,4-8.8,4-8.8C4-8.8,4-8.8,4-8.8z"/>
								<path fill="#202020" d="M5.7-8.4L5.7-8.4L5.7-8.4z"/>
								<polygon fill="#202020" points="4,-8.8 4,-8.8 4,-8.8 								"/>
								<path fill="#202020" d="M4.5-8.6L4.5-8.6L4.5-8.6z"/>
								<path fill="#202020" d="M4.7-8.6L4.7-8.6L4.7-8.6z"/>
								<polygon fill="#202020" points="4.4,-8.5 4.4,-8.5 4.4,-8.5 								"/>
								<polygon fill="#202020" points="4.3,-8.5 4.3,-8.5 4.3,-8.5 								"/>
								<path fill="#202020" d="M4.5-9L4.5-9C4.5-9,4.6-9,4.5-9z"/>
								<path fill="#202020" d="M5.7-8.4C5.7-8.4,5.7-8.4,5.7-8.4L5.7-8.4L5.7-8.4z"/>
								<path fill="#202020" d="M4.5-8.4L4.5-8.4L4.5-8.4z"/>
								<path fill="#202020" d="M3.9-8.9L3.9-8.9L3.9-8.9z"/>
								<path fill="#202020" d="M4.4-8.3C4.4-8.3,4.4-8.3,4.4-8.3L4.4-8.3L4.4-8.3z"/>
								<path fill="#202020" d="M4.5-9L4.5-9L4.5-9z"/>
								<path fill="#202020" d="M4.6-9.1C4.6-9.1,4.6-9.1,4.6-9.1C4.7-9.1,4.7-9,4.6-9.1C4.7-9,4.7-9.1,4.6-9.1
									C4.7-9.1,4.7-9.1,4.6-9.1C4.7-9.1,4.7-9.1,4.6-9.1C4.7-9,4.7-9.1,4.6-9.1c0.1,0,0.1,0,0.1,0l0,0c0,0,0,0,0.1,0c0,0,0,0,0,0
									c0,0,0,0,0,0c0,0,0,0,0,0c0,0,0,0,0,0c0,0,0,0,0,0c0,0,0,0,0,0c0,0,0,0,0,0c0,0,0,0,0,0l0,0c0,0,0,0,0,0c0,0,0,0,0,0l0,0
									l0,0l0,0C5-9,5-9,5-9l0,0c0,0,0,0,0,0c0,0,0,0,0,0c0,0,0,0,0,0l0,0l0,0c0,0,0,0,0,0c0,0,0,0,0,0l0,0c0,0,0,0-0.1,0l0,0l0,0
									c0,0,0,0,0,0c-0.1,0-0.1,0-0.2,0l0,0c-0.1,0-0.1,0.1-0.1,0l0,0c0,0,0,0,0,0c0,0,0,0,0,0c0,0,0,0,0,0c0,0,0,0,0,0
									c0,0,0,0,0,0.1c0,0,0,0,0-0.1c0,0,0,0,0,0c0,0,0,0,0,0l0,0l0,0l0,0l0,0c0,0,0,0,0,0c0,0,0,0,0,0c0,0,0,0,0,0l0,0l0,0l0,0
									c0,0,0,0,0,0c0,0,0,0,0,0c0,0,0,0,0,0c0,0,0,0,0,0c0,0,0,0,0,0c0,0,0,0,0,0c0,0,0,0,0,0c0,0,0,0,0,0c0,0,0,0,0,0l0,0
									c0,0,0,0,0,0c0,0,0,0,0,0c0,0,0,0,0,0l0,0c0,0,0,0,0,0c0,0,0,0,0,0l0,0c0,0,0,0-0.1,0l0,0c0,0,0,0.1,0,0.1l0,0
									c0,0,0,0-0.1,0l0,0c0,0,0,0,0,0c0,0-0.1,0-0.1,0l0,0c0,0,0,0,0,0l0,0c0,0,0,0,0,0c0,0,0,0,0,0c0,0-0.1-0.1-0.1-0.1
									c0,0,0,0,0-0.1c0,0,0,0,0,0c0,0,0,0,0,0c0,0,0,0,0,0l0,0l0,0l0,0l0.1-0.1l0,0l0,0l0,0c0,0,0,0,0,0.1c0,0,0.1,0,0.1,0l0,0
									c0,0,0,0,0,0l0,0c0,0,0,0,0,0l0,0C3.9-9,3.9-9,4-9c0,0,0,0,0,0c0,0,0.1,0,0.1,0l0,0c0,0,0,0,0,0l0,0c0,0,0,0,0,0
									c0,0,0,0,0,0c0,0,0,0,0,0l0,0c0,0,0,0,0,0c0,0,0,0,0,0c0,0,0,0.1,0,0.1c0,0,0,0,0,0.1c0,0,0,0,0,0c0,0,0,0,0,0c0,0,0,0,0,0
									c0,0,0,0-0.1,0c0,0,0,0,0.1,0l0,0c0,0,0,0,0,0l0,0c0,0,0,0,0,0l0,0c0,0,0,0,0,0l0,0c0,0,0,0,0,0c0,0,0,0,0,0c0,0,0,0,0,0
									c0,0,0,0,0.1,0l0,0c0,0,0,0,0,0l0,0c0,0,0,0,0,0c0,0,0,0,0,0c0,0,0,0,0,0l0,0c0,0,0,0,0,0c0,0,0,0,0.1,0c0,0,0,0,0,0l0,0
									c0,0,0,0,0,0c0,0,0,0,0,0c0,0,0,0,0,0c0,0,0,0,0,0c0,0,0,0,0,0l0,0c0,0,0,0,0,0c0,0,0,0,0,0c0,0,0,0,0,0l0,0c0,0,0,0,0,0
									l0,0c0,0,0,0,0,0c0,0,0,0,0,0c0,0,0,0,0,0l0,0l0,0c0,0,0,0,0,0c0,0,0,0,0,0c0,0,0,0,0,0c0,0,0,0,0,0c0,0,0,0,0,0
									c0,0,0,0,0,0l0,0c0,0,0,0,0,0c0,0,0,0,0,0c0,0,0,0,0,0c0,0,0,0,0,0l0,0c0,0,0,0,0,0c0,0,0,0,0,0c0,0,0,0,0,0c0,0,0,0,0,0
									c0,0,0,0,0,0l0,0c0,0,0,0,0,0l0,0c0,0,0,0,0,0c0,0,0,0,0,0c0,0,0,0,0,0c0,0,0,0,0,0c0,0,0,0,0,0c0,0,0,0,0,0c0,0,0,0,0,0
									c0,0,0,0,0,0l0,0c0,0,0,0,0,0l0,0c0,0,0,0,0,0c0,0,0,0,0,0c0,0,0,0,0,0c0,0,0,0,0,0c0,0,0,0,0,0c0,0.1,0.1,0,0.1,0l0,0
									c0,0,0,0,0,0l0,0c0,0,0,0,0,0c0,0,0,0,0,0c0,0,0,0,0,0c0,0,0,0,0,0c0,0,0,0,0,0c0,0,0,0,0,0l0,0c0,0,0,0.1,0,0.1l0,0l0,0
									l0,0l0,0c0,0,0,0,0,0c0,0,0,0,0,0c0,0,0,0,0,0c0,0,0,0,0,0c0,0,0,0,0,0c0,0,0,0,0,0c0,0,0,0,0,0c0,0,0,0,0,0c0,0,0,0,0,0
									l0,0c0,0,0,0,0,0c0,0,0,0,0,0c0,0,0,0,0-0.1c0,0,0,0,0,0l0,0c0,0,0,0,0,0l0,0c0,0,0,0,0,0c0,0,0,0,0,0l0,0c0,0,0,0,0,0
									c0,0,0,0,0,0c0,0,0,0,0,0c0,0,0,0,0,0c0,0,0,0,0,0c0,0,0,0,0,0c0,0,0,0,0,0c0,0,0,0,0,0c0,0,0,0,0,0l0,0l0,0.1
									c0,0,0,0,0-0.1l0,0c0,0,0,0,0,0c0,0,0,0,0,0l0,0l0,0c0,0,0,0,0,0c0,0,0,0,0,0l0,0l0,0c0,0,0-0.1,0,0l0,0c0,0,0,0,0,0l0,0
									l0,0c0,0,0,0,0,0c0,0,0,0,0,0c0,0,0,0,0,0c0,0,0,0,0,0c0,0,0,0,0,0c0,0,0,0,0,0c0,0,0,0,0,0c0,0,0,0,0,0c0,0,0,0,0,0.1
									c0,0-0.1,0-0.1,0c0,0,0,0,0,0c0,0,0,0,0,0c0,0,0,0,0,0c0,0,0,0,0,0c0,0,0,0,0,0c0,0,0,0,0,0.1l0,0l0,0l0,0c0,0,0,0,0,0
									c0,0,0,0,0,0c0,0,0,0,0,0c0,0,0,0,0,0c0,0,0,0,0,0l0,0c0,0,0,0,0,0l0,0c0,0,0,0,0,0c0,0,0,0,0,0c0,0,0,0,0,0l0,0l0,0
									c0,0-0.1,0-0.1-0.1c0,0,0,0,0,0c0,0,0,0,0,0l0,0c0,0-0.1,0-0.1,0l0,0c0,0,0,0,0,0l0,0c0,0-0.1,0-0.1,0c0,0,0,0,0,0
									c0,0,0,0,0,0l0,0c0,0,0,0,0,0c0,0,0,0,0,0l0,0c0,0,0,0,0,0c0,0,0,0,0,0c0,0,0,0,0,0c0,0,0,0,0,0l0,0c0,0,0,0,0,0
									c0,0,0,0,0,0l0,0l0,0l0,0c0,0,0,0,0,0l0,0l0,0c0,0,0,0,0,0c0,0,0,0-0.1,0l0,0c0,0,0,0,0,0c0,0,0,0,0,0c0,0,0,0,0,0
									c0,0,0,0,0,0c0,0,0,0,0,0c0-0.1,0,0,0-0.1c0,0,0,0,0,0.1l0,0c0,0,0,0,0,0l0,0c0,0,0,0-0.1,0c0,0,0,0,0,0c0,0,0,0,0,0.1
									c0,0,0,0,0,0c0,0,0,0-0.1,0.1c0,0,0,0-0.1,0c0,0,0,0,0,0c0,0,0,0,0,0c0,0,0,0,0,0c0,0,0,0,0,0c0,0,0,0-0.1,0c0,0,0,0,0,0
									l0,0c0,0,0,0,0,0c0,0,0,0,0,0c0,0,0,0,0,0c0,0,0,0,0,0c-0.1,0-0.1-0.1-0.1-0.1l0,0c0,0,0,0-0.1,0C4-8.5,4-8.6,4-8.7
									c0,0,0,0,0,0c0,0,0,0,0,0l0,0c0,0-0.1-0.1,0-0.1c0,0,0,0,0,0c0,0,0,0,0,0l0,0l0,0c0,0,0-0.1-0.1-0.1l0,0c0,0,0,0,0,0
									c0,0,0,0,0,0c0,0,0,0,0,0c0,0,0,0,0,0c0,0,0,0,0,0c0,0,0,0,0,0c0,0,0,0,0,0l0.1,0c0,0,0,0,0,0l0,0l0,0c0,0,0,0,0,0
									c0,0,0,0,0,0l0,0c0,0,0,0,0,0c0,0,0,0,0,0l0,0c0,0,0,0,0,0c0,0,0,0,0,0l0,0c0,0,0,0,0,0c0,0,0,0,0,0c0,0,0,0,0,0
									c0,0,0,0,0,0l0,0c0,0,0,0,0,0c0,0,0,0,0,0l0,0l0,0l0,0l0,0c0,0,0,0,0,0c0,0,0,0,0,0c0,0,0,0,0,0c0,0,0.1,0,0.1,0l0,0
									c0,0,0,0,0,0l0,0c0,0,0.1,0,0.1,0c0,0,0,0,0,0c0,0,0,0,0,0l0,0l0,0c0,0,0.1,0,0.1,0c0,0,0,0,0,0c0,0,0.1,0,0.1,0l0,0
									c0,0,0,0,0,0c0,0,0,0,0,0c0,0,0,0,0,0l0,0c0,0,0,0,0,0c0,0,0,0,0.1,0c0,0,0,0,0,0c0,0,0,0,0,0c0,0,0,0,0,0l0,0c0,0,0,0,0,0
									C4.5-9,4.5-9,4.6-9.1C4.5-9,4.5-9,4.5-9L4.6-9.1C4.5-9,4.5-9,4.6-9.1C4.5-9,4.5-9,4.6-9.1C4.5-9,4.5-9,4.6-9.1L4.6-9.1
									C4.6-9,4.6-9,4.6-9.1C4.6-9,4.6-9,4.6-9.1C4.6-9,4.6-9.1,4.6-9.1C4.6-9.1,4.6-9,4.6-9.1C4.6-9.1,4.6-9.1,4.6-9.1
									C4.6-9.1,4.6-9.1,4.6-9.1z M4.3-8.9L4.3-8.9L4.3-8.9L4.3-8.9z M4.3-8.9C4.3-8.9,4.3-8.9,4.3-8.9C4.3-8.9,4.3-8.9,4.3-8.9
									C4.3-8.9,4.3-8.9,4.3-8.9z M4.4-8.8L4.4-8.8L4.4-8.8C4.4-8.8,4.4-8.8,4.4-8.8L4.4-8.8z"/>
								<polygon fill="#202020" points="4.4,-8.8 4.4,-8.8 4.4,-8.8 4.4,-8.8 								"/>
								<polygon fill="#202020" points="5.2,-8.5 5.2,-8.5 5.2,-8.5 								"/>
								<polygon fill="#202020" points="3.9,-8.9 3.9,-8.9 3.9,-8.9 								"/>
								<path fill="#202020" d="M5.3-8.3L5.3-8.3L5.3-8.3z"/>
								<path fill="#202020" d="M5.4-8.3L5.4-8.3C5.4-8.3,5.4-8.3,5.4-8.3z"/>
								<polygon fill="#202020" points="5.5,-8.3 5.5,-8.4 5.5,-8.4 								"/>
								<path fill="#202020" d="M4.7-8.5L4.7-8.5C4.7-8.5,4.7-8.5,4.7-8.5z"/>
								<path fill="#202020" d="M4.9-8.6L4.9-8.6C4.9-8.6,4.9-8.6,4.9-8.6z"/>
								<polygon fill="#202020" points="4.5,-8.4 4.5,-8.4 4.5,-8.4 								"/>
								<path fill="#202020" d="M4.9-8.6C4.9-8.6,4.9-8.6,4.9-8.6L4.9-8.6z"/>
								<polygon fill="#202020" points="5.7,-8.4 5.7,-8.4 5.7,-8.4 								"/>
								<path fill="#202020" d="M5.7-8.4L5.7-8.4L5.7-8.4z"/>
								<path fill="#202020" d="M5.7-8.4L5.7-8.4C5.7-8.4,5.7-8.4,5.7-8.4z"/>
								<path fill="#202020" d="M5.6-8.4L5.6-8.4L5.6-8.4z"/>
								<path fill="#202020" d="M5.6-8.4C5.6-8.4,5.6-8.4,5.6-8.4L5.6-8.4C5.6-8.4,5.6-8.4,5.6-8.4z"/>
								<path fill="#202020" d="M5.5-8.4L5.5-8.4C5.5-8.4,5.5-8.5,5.5-8.4C5.5-8.5,5.5-8.4,5.5-8.4z"/>
								<path fill="#202020" d="M5.5-8.4C5.5-8.4,5.4-8.5,5.5-8.4C5.4-8.4,5.4-8.4,5.5-8.4z"/>
								<path fill="#202020" d="M5.1-8.6L5.1-8.6C5.1-8.6,5.1-8.6,5.1-8.6z"/>
								<polygon fill="#202020" points="5,-8.5 5,-8.5 5,-8.5 								"/>
								<polygon fill="#202020" points="5,-8.7 5,-8.7 5,-8.7 								"/>
								<path fill="#202020" d="M4.4-8.5L4.4-8.5C4.4-8.5,4.4-8.5,4.4-8.5z"/>
								<path fill="#202020" d="M4.2-8.6C4.2-8.6,4.2-8.6,4.2-8.6C4.2-8.6,4.2-8.6,4.2-8.6z"/>
								<polygon fill="#202020" points="3.8,-8.7 3.8,-8.7 3.8,-8.7 								"/>
							</g>
						</g>
					</g>
				</g>
			</g>
			<g>
				<g>
					<g>
						<g>
							<g>
								<g>
									<path fill="#202020" d="M12.4-9C12.4-9,12.4-9,12.4-9L12.4-9L12.4-9z"/>
									<path fill="#202020" d="M12.4-9.2C12.4-9.2,12.4-9.2,12.4-9.2C12.4-9.2,12.4-9.2,12.4-9.2C12.4-9.1,12.4-9.1,12.4-9.2
										c0,0.1,0,0.1,0,0.1C12.4-9.1,12.4-9.1,12.4-9.2C12.4-9.2,12.4-9.2,12.4-9.2z"/>
									<path fill="#202020" d="M11.5-11.7L11.5-11.7C11.5-11.7,11.5-11.7,11.5-11.7z"/>
									<path fill="#202020" d="M10-12.4C10-12.4,10.1-12.4,10-12.4C10-12.4,10-12.4,10-12.4z"/>
									<path fill="#202020" d="M9.7-12.5C9.8-12.5,9.8-12.5,9.7-12.5C9.8-12.5,9.7-12.5,9.7-12.5z"/>
									<path fill="#202020" d="M11.5-11.7L11.5-11.7C11.5-11.7,11.5-11.7,11.5-11.7z"/>
									<polygon fill="#202020" points="12.3,-9.5 12.3,-9.5 12.3,-9.5 									"/>
									<polygon fill="#202020" points="12,-11 12,-11 12,-11 									"/>
									<path fill="#202020" d="M12.3-10.6C12.3-10.6,12.3-10.6,12.3-10.6C12.3-10.6,12.3-10.6,12.3-10.6
										C12.3-10.5,12.3-10.6,12.3-10.6z"/>
									<path fill="#202020" d="M12.4-9.7L12.4-9.7C12.4-9.6,12.4-9.7,12.4-9.7z"/>
									<path fill="#202020" d="M11.8-11.4L11.8-11.4L11.8-11.4z"/>
									<path fill="#202020" d="M11.9-9.5L11.9-9.5L11.9-9.5z"/>
									<polygon fill="#202020" points="12.6,-9.5 12.6,-9.5 12.6,-9.5 									"/>
									<path fill="#202020" d="M9.2-12.6L9.2-12.6C9.2-12.6,9.2-12.6,9.2-12.6z"/>
									<path fill="#202020" d="M5-10.3C5.1-10.3,5-10.2,5-10.3C5.1-10.2,5.1-10.3,5-10.3z"/>
									<path fill="#202020" d="M12.3-9.5L12.3-9.5C12.3-9.6,12.3-9.6,12.3-9.5z"/>
									<polygon fill="#202020" points="5.1,-10.2 5.1,-10.2 5.1,-10.3 									"/>
									<path fill="#202020" d="M8-12.4C8-12.4,8-12.3,8-12.4C8-12.3,8-12.4,8-12.4z"/>
									<path fill="#202020" d="M8.9-12.5L8.9-12.5C8.9-12.5,8.9-12.5,8.9-12.5z"/>
									<path fill="#202020" d="M7.5-12.2C7.5-12.2,7.5-12.2,7.5-12.2L7.5-12.2C7.5-12.2,7.5-12.2,7.5-12.2z"/>
									<polygon fill="#202020" points="7.1,-12 7.1,-12 7.1,-12 									"/>
									<path fill="#202020" d="M10.5-9.2C10.5-9.2,10.5-9.1,10.5-9.2C10.5-9.2,10.6-9.2,10.5-9.2z"/>
									<path fill="#202020" d="M12.4-9.5C12.3-9.5,12.3-9.5,12.4-9.5C12.3-9.5,12.3-9.5,12.4-9.5L12.4-9.5z"/>
									<path fill="#202020" d="M7.6-12L7.6-12C7.5-12,7.6-12,7.6-12z"/>
									<path fill="#202020" d="M7-9L7-9L7-9z"/>
									<path fill="#202020" d="M7.3-11.9C7.3-11.9,7.3-11.9,7.3-11.9L7.3-11.9L7.3-11.9z"/>
									<path fill="#202020" d="M10.5-9.1L10.5-9.1L10.5-9.1z"/>
									<path fill="#202020" d="M11-9.2C11.1-9.2,11-9.2,11-9.2c0.1,0,0.2,0,0.2,0c0,0,0,0,0.1,0c0,0,0.1,0,0.1-0.1
										c0,0-0.1,0.1,0,0.1c0,0,0.1-0.1,0.1-0.1c0,0,0,0,0.1,0c0,0,0,0,0,0c0.1,0,0.2-0.1,0.2-0.1c0,0,0.2-0.1,0.1,0
										c0,0,0.1-0.1,0.1-0.1c0,0,0.1,0,0.1,0c0,0,0.1,0,0.1-0.1c0,0,0,0,0,0c0,0,0,0,0.1,0c0.1,0,0,0,0,0c0.1,0,0,0,0,0l0.1,0
										c0,0,0,0,0,0c0,0,0.1,0,0.1,0l-0.1,0l0,0l0.1,0c0.1,0,0.1,0.1,0.1,0.1l0,0c0,0,0,0,0.1,0c0,0-0.1,0-0.1,0c-0.1,0,0,0-0.1,0
										l-0.1,0l0,0c0,0,0,0,0,0c0,0-0.1,0-0.1,0l0,0c-0.1,0.1-0.2,0-0.3,0.1l-0.1,0.1l0,0c0,0,0,0-0.1,0.1C11.3-9.1,11.1-9,10.8-9
										c0,0,0,0,0,0c-0.2,0-0.4,0.1-0.6,0l0,0c-0.1,0,0,0-0.1,0c0,0-0.1,0-0.2,0c0,0,0,0,0,0c0,0,0,0,0,0C10-9,9.8-9,9.7-9
										c0,0-0.1,0-0.2,0c0,0,0,0,0,0c0,0-0.1,0-0.1,0c0,0,0.1,0,0.1,0l0,0c0,0,0,0,0,0c0,0,0,0,0,0c0,0,0,0,0,0c0,0-0.1,0-0.1,0
										c0,0,0,0-0.1,0c0,0,0,0,0,0l0,0l0,0c-0.1,0-0.2,0-0.2,0.1c0.1,0,0,0,0,0c0,0,0.1,0,0.1,0c0,0,0,0,0,0c-0.1,0-0.1,0-0.2,0
										c0,0,0,0,0,0c0,0-0.1,0-0.1,0c0,0-0.1,0-0.1,0c0,0,0,0-0.1,0l0,0c-0.1,0-0.1,0-0.1,0c0,0,0,0,0,0c-0.1,0-0.1,0-0.1,0l0,0
										c-0.1,0-0.2,0-0.2,0c0,0-0.1,0-0.2,0c0,0,0,0,0,0c-0.1,0-0.3,0-0.4,0l0,0c-0.1,0-0.1,0.1-0.2,0.1l0,0c-0.1,0-0.2,0-0.3,0
										l0,0c-0.1,0-0.1,0-0.1,0c-0.1-0.1-0.3,0-0.5,0l0,0c-0.1,0-0.1,0-0.2,0l0,0c0,0-0.1,0-0.1,0c0,0-0.1,0,0,0
										c-0.2,0-0.4,0-0.5,0c-0.2,0-0.3,0.1-0.4,0.1l0,0c-0.1,0-0.2,0-0.2-0.1c-0.1,0-0.3,0-0.4-0.2l0,0C4.9-9,4.9-9,4.9-9
										c0,0,0,0,0,0c0,0,0-0.1,0-0.1l0,0c0-0.1,0-0.3,0-0.5c0,0,0,0,0,0c0-0.1,0-0.2,0-0.3l0,0C4.9-10,5-9.9,5-10.1l0,0.1
										c0,0,0-0.1,0-0.1c0-0.1,0,0,0.1-0.1c0,0,0,0.1,0,0l0.1-0.1c0,0,0,0,0-0.1c0,0,0-0.1,0-0.1c0.1-0.2,0.2-0.3,0.2-0.4
										c0.1,0,0.2-0.2,0.2-0.2c0.1-0.1,0.1-0.1,0.1-0.2c0,0,0,0,0,0c0,0,0.1-0.1,0.1-0.1c0,0-0.1,0.1-0.1,0.2c0,0,0.1-0.1,0.1-0.2
										l0,0c0-0.1,0.1,0,0.1-0.1l0,0C6-11.3,6-11.4,6.1-11.4l0,0c0,0,0.1-0.1,0.1-0.1l-0.1,0c0,0,0.1,0,0.1,0c0.1,0,0,0,0-0.1
										c0,0,0,0,0,0c0.1-0.1,0.2-0.1,0.2-0.2l0,0c0.1,0,0.1-0.1,0.2-0.1l0,0c0.1,0,0.1-0.1,0.2-0.1c0,0-0.1,0,0,0
										c0.1,0,0-0.1,0.1-0.1c0,0,0,0,0,0C6.9-11.9,7-12,7.1-12c0.1,0,0.2-0.1,0.4-0.1c0,0,0,0,0,0c0,0,0,0,0,0c0,0,0,0,0,0
										c0,0,0.1,0,0.1,0c0,0,0,0,0.1,0c-0.1,0,0,0,0,0.1c0.1,0,0.1-0.1,0.2-0.1l0.1,0c0,0,0.1,0,0.1-0.1c0,0,0,0,0,0
										c0,0,0.1,0,0.1,0l0,0c0.1,0,0.2-0.1,0.3-0.1l0,0c0.1,0,0.1,0,0.2,0c0,0,0,0,0,0c0,0-0.1,0-0.1,0l0.1,0l-0.1,0
										c0.1,0,0.1,0,0,0c0.1,0,0.1,0,0.2,0c0,0,0,0,0,0c0.1,0,0.1,0,0.2,0c0,0,0,0,0,0c0,0,0.1,0,0.1,0l0,0c0,0,0,0,0.1,0
										c0,0,0.1,0,0,0c0,0,0.1,0,0,0c0.1,0,0,0,0.1,0c0,0,0,0,0,0c0,0,0,0,0.1,0c-0.1,0,0,0-0.1,0c0,0,0.1,0,0.1,0c0.1,0,0,0,0,0
										c0,0,0,0,0,0l0,0c0,0,0,0,0.1,0l0,0c0,0,0.1,0,0.2,0c0,0-0.1,0,0,0c0.1,0,0,0,0.1,0c0.1,0,0,0,0.1,0c0,0,0,0,0,0
										c0.1,0,0.1,0,0.2,0c0,0-0.1,0,0,0c0,0,0.1,0,0.1,0l0,0c0,0,0,0,0,0c0,0,0,0,0,0c0,0,0,0,0,0c0.1,0,0.1,0,0.1,0
										c0.1,0,0.1,0,0.2,0c0,0,0.1,0.1,0.1,0.1c0,0-0.1,0,0,0c0.1,0.1,0.2,0,0.4,0.1l0,0c0,0,0.1,0,0.1,0l0,0c0,0,0.1,0.1,0.1,0.1
										c0.1,0,0.1,0,0.1,0.1c-0.1,0,0,0-0.1,0c0.1,0,0.1,0,0.1,0.1c0,0,0,0,0,0c0.1,0,0.1,0.1,0.2,0.1l0,0
										c0.1,0.1,0.2,0.2,0.3,0.2l0,0l0,0l0,0l0,0c0,0,0.1,0.1,0.1,0.1c0,0,0,0,0,0c0,0,0,0,0.1,0c0,0,0,0,0,0.1c0,0,0,0,0,0
										c0,0,0,0.1,0,0.1c0,0,0,0,0,0c0,0,0,0,0,0c0,0,0,0,0,0l0,0c0,0,0,0,0,0c0,0,0,0,0,0c0.1,0.1,0,0,0.1,0
										c0,0.1,0.1,0.1,0.1,0.2l0,0c0,0,0,0,0,0l0,0c0,0,0,0,0,0c0,0,0.1,0.1,0.1,0.1l0,0c0,0.1,0.1,0.2,0.1,0.2
										c0.1,0.1,0.1,0.1,0.1,0.1c0,0,0,0.1,0.1,0.1c0,0.1,0,0,0,0c0,0.1,0.1,0.1,0,0.1c0,0.1,0,0,0,0c0,0,0,0.1,0,0.2c0,0,0,0,0,0
										c0,0,0,0,0,0l0,0l0,0.1c0,0.1,0,0,0,0.1l0,0c0,0,0,0.1,0,0.2c0,0,0,0,0,0l0,0c0,0,0,0,0,0c0,0,0,0,0,0.1c0,0,0,0,0,0l0,0.1
										l0,0c0,0.1,0,0.2,0,0.2l0,0c0,0,0,0,0,0.1c0,0,0,0,0,0l0,0c0,0,0-0.1,0-0.2c0,0,0,0.1,0,0c0,0,0-0.1,0-0.1c0,0,0,0,0,0
										c0-0.1,0,0,0-0.1c0,0,0,0,0,0c0-0.1,0-0.1,0-0.1c0,0,0,0.1,0,0c0-0.1,0-0.1,0-0.2c0-0.1,0-0.2,0-0.3c0,0,0,0.1,0,0
										c0,0,0,0,0,0c0,0,0-0.1,0-0.1c0,0,0,0,0,0c0,0,0-0.1,0,0c-0.1-0.1-0.1-0.1-0.2-0.2l0,0l0-0.1l0,0c0,0,0,0,0-0.1
										c0,0,0,0,0.1,0.1c0,0-0.1-0.1-0.1-0.1c0,0,0,0,0,0c0,0-0.1-0.1-0.1-0.1l0,0c0-0.1-0.1,0-0.1-0.1c0,0,0,0,0,0c0,0,0-0.1,0,0
										c0,0,0-0.1-0.1-0.1c0,0,0,0,0,0.1l-0.1-0.1c0,0,0,0,0,0c0-0.2-0.2-0.3-0.2-0.4c0,0,0,0,0,0c0,0-0.1-0.1-0.1-0.1l0,0
										c-0.1-0.1-0.2-0.1-0.3-0.2c0,0,0,0,0,0c-0.1,0-0.1-0.1-0.1-0.1l0,0C11-12,10.9-12,10.7-12.1c0,0,0.1,0,0.1,0
										c-0.1,0-0.2-0.1-0.3-0.1c0,0,0,0,0,0c-0.1-0.1,0,0-0.1,0c0,0,0,0,0,0l0,0c0,0,0,0,0,0c0,0-0.1,0-0.2,0c0,0,0,0,0,0
										c0,0-0.1,0-0.1,0l0,0c0,0-0.1,0-0.1,0c-0.1,0,0,0-0.1,0l0.1,0l-0.1,0l0,0c0,0-0.1,0-0.2,0l0,0l-0.1,0c0,0-0.1,0,0,0
										c-0.1,0-0.2,0-0.3,0c0,0,0,0,0,0c-0.1,0-0.1,0-0.2,0c0,0,0,0,0,0c-0.1,0,0,0-0.1,0c0,0,0,0,0,0c0,0,0,0,0,0
										c0.1-0.1-0.1,0-0.1-0.1c0,0-0.1,0-0.1,0.1l0,0c0,0,0,0-0.1,0c0,0,0,0,0,0c-0.1,0-0.3,0-0.4,0.1c0,0,0.1,0,0,0
										c-0.1,0-0.2,0.1-0.4,0.1c0,0,0.1,0,0.1-0.1c-0.1,0-0.3,0.1-0.4,0.2c-0.1,0-0.1,0.1-0.3,0.1c0,0,0,0-0.1,0.1c0,0,0,0,0,0
										c0,0-0.2,0.1-0.2,0.1c0,0-0.1,0-0.1,0.1c-0.1,0-0.1,0.1-0.2,0.1c0,0-0.1,0-0.1,0.1c0,0,0,0,0,0c0,0-0.1,0.1-0.1,0.1
										c0,0,0,0,0,0c0,0-0.1,0.1-0.1,0.1c0,0,0,0,0,0c-0.2,0.1-0.4,0.2-0.5,0.4l0,0c-0.1,0.1,0,0.1-0.1,0.1
										c-0.2,0.2-0.5,0.3-0.6,0.6c0,0,0,0,0,0c0,0,0,0,0,0l0,0c-0.1,0.1-0.2,0.3-0.2,0.4c0,0.1-0.1,0.2-0.1,0.3c0,0,0-0.1,0,0
										l0,0.1l0,0c0,0.1-0.1,0.3,0,0.5l0,0c0,0,0,0,0,0.1c0,0,0,0,0,0C5.1-9.1,5.1-9,5.1-9c0,0,0,0,0,0c0,0,0,0,0,0
										c0.1,0,0.2,0,0.3,0c0,0,0.1,0,0.1,0c0.1,0,0.2,0,0.3,0l0,0C5.9-9,6-9,6-9c0,0,0,0,0,0L6-9c0,0,0,0,0,0c0.1,0,0,0,0,0l0,0
										c0,0,0.1,0,0,0c0.1,0,0.3,0,0.4,0l0,0c0.1,0,0.2,0,0.2,0c0,0,0,0,0,0c0.1,0,0,0,0.1,0c0,0,0,0-0.1,0l0.2,0c0,0,0.1,0,0.2,0
										c0,0,0,0,0,0l0,0l0,0l0.1,0l0,0c0,0,0.1,0,0.1,0c0.1,0,0.1,0,0.2,0c0,0,0.2,0,0.2,0c0.1,0,0.3,0,0.5,0l0,0
										c0.1,0,0.1,0,0.2,0l0,0c0.1,0,0.3,0,0.4,0c0,0,0,0,0,0c0,0,0,0,0,0c0,0,0,0,0,0l0.1,0c0.1,0,0.3,0,0.5-0.1c0,0,0,0,0,0
										c0.1,0,0.3-0.1,0.3-0.1l0,0c0.1,0,0,0,0.1,0c0,0,0,0-0.1,0c0.1,0,0.1,0,0.2,0l0,0c0.1,0,0.1,0,0.1,0c0.1,0,0.1,0.1,0.2,0
										c0,0,0,0,0,0c0.1,0,0.1,0,0.2,0c0.1,0-0.1,0,0,0l-0.1,0c0.1,0-0.1,0-0.1,0c0.1,0,0.1,0,0.2,0c0,0-0.1,0,0,0l0,0
										c0,0,0,0,0,0c0,0,0,0,0.1,0c0,0,0,0,0,0c0,0,0,0,0,0c0.1,0,0.2,0,0.2,0c0,0,0,0,0,0C10.8-9.2,10.9-9.2,11-9.2
										C10.9-9.2,10.9-9.1,11-9.2C11-9.2,11-9.2,11-9.2C11-9.2,11-9.2,11-9.2z M9.3-9.1C9.3-9.1,9.3-9.1,9.3-9.1L9.3-9.1
										C9.3-9.1,9.3-9.1,9.3-9.1z M9.2-9C9.2-9,9.2-9.1,9.2-9C9.2-9.1,9.2-9.1,9.2-9C9.2-9,9.2-9,9.2-9z M9.5-9L9.5-9
										C9.5-9,9.5-9,9.5-9C9.5-9,9.5-9,9.5-9C9.5-9,9.5-9,9.5-9z"/>
									<path fill="#202020" d="M9.5-9L9.5-9C9.5-9,9.5-9,9.5-9L9.5-9L9.5-9z"/>
									<polygon fill="#202020" points="11.6,-11.6 11.6,-11.6 11.6,-11.6 									"/>
									<polygon fill="#202020" points="7.2,-9 7.2,-9 7.2,-9 									"/>
									<path fill="#202020" d="M11.9-10.9C11.9-10.9,11.9-10.9,11.9-10.9C11.9-10.9,11.9-10.9,11.9-10.9z"/>
									<path fill="#202020" d="M12.1-10.6L12.1-10.6C12.1-10.6,12.1-10.6,12.1-10.6z"/>
									<polygon fill="#202020" points="12.2,-10.4 12.3,-10.4 12.3,-10.4 									"/>
									<path fill="#202020" d="M8.9-12.4L8.9-12.4C8.9-12.4,8.9-12.4,8.9-12.4z"/>
									<path fill="#202020" d="M10.2-12.3C10.2-12.3,10.1-12.3,10.2-12.3C10.1-12.3,10.2-12.3,10.2-12.3z"/>
									<polygon fill="#202020" points="7.6,-12 7.6,-12 7.6,-12 									"/>
									<path fill="#202020" d="M10.1-12.3C10.1-12.3,10.1-12.3,10.1-12.3C10.1-12.3,10.1-12.3,10.1-12.3z"/>
									<polygon fill="#202020" points="12.3,-9.3 12.3,-9.3 12.3,-9.3 									"/>
									<path fill="#202020" d="M12.3-9.3L12.3-9.3C12.3-9.3,12.3-9.3,12.3-9.3z"/>
									<path fill="#202020" d="M12.4-9.2L12.4-9.2C12.3-9.3,12.3-9.2,12.4-9.2z"/>
									<path fill="#202020" d="M12.3-9.6L12.3-9.6L12.3-9.6z"/>
									<path fill="#202020" d="M12.3-9.7C12.3-9.7,12.3-9.7,12.3-9.7l0,0.1C12.3-9.7,12.4-9.7,12.3-9.7z"/>
									<path fill="#202020" d="M12.4-10.2L12.4-10.2C12.4-10.1,12.4-10.2,12.4-10.2C12.4-10.2,12.4-10.1,12.4-10.2z"/>
									<path fill="#202020" d="M12.3-10.5C12.3-10.4,12.3-10.5,12.3-10.5C12.3-10.5,12.3-10.5,12.3-10.5z"/>
									<path fill="#202020" d="M11.1-12L11.1-12C11-12.1,11.1-12.1,11.1-12z"/>
									<polygon fill="#202020" points="10.7,-12.1 10.7,-12.1 10.7,-12.1 									"/>
									<polygon fill="#202020" points="10.5,-12.3 10.5,-12.3 10.5,-12.4 									"/>
									<path fill="#202020" d="M7.2-12L7.2-12C7.2-12,7.2-12.1,7.2-12z"/>
									<path fill="#202020" d="M5.9-11.3C5.9-11.3,5.8-11.3,5.9-11.3C5.8-11.3,5.9-11.3,5.9-11.3z"/>
									<polygon fill="#202020" points="6.8,-8.8 6.7,-8.8 6.8,-8.8 									"/>
								</g>
							</g>
						</g>
					</g>
				</g>
				<g>
					<g>
						<g>
							<g>
								<g>
									<g>
										<g>
											<path fill="#202020" d="M11.2-6.8C11.2-6.8,11.2-6.8,11.2-6.8L11.2-6.8L11.2-6.8z"/>
											<path fill="#202020" d="M11.4-6.8C11.4-6.9,11.5-6.9,11.4-6.8C11.4-6.9,11.4-6.9,11.4-6.8C11.4-6.8,11.3-6.8,11.4-6.8
												c-0.1,0-0.1,0-0.1,0C11.3-6.8,11.4-6.8,11.4-6.8C11.4-6.8,11.4-6.8,11.4-6.8z"/>
											<path fill="#202020" d="M12-6L12-6C12.1-6,12-6,12-6z"/>
											<path fill="#202020" d="M10.9-5.1C10.9-5.1,10.9-5.1,10.9-5.1C10.9-5.1,10.9-5.1,10.9-5.1z"/>
											<path fill="#202020" d="M10.6-5.1L10.6-5.1C10.6-5.1,10.6-5.1,10.6-5.1z"/>
											<path fill="#202020" d="M12-6L12-6C12-6,12-6,12-6z"/>
											<polygon fill="#202020" points="11.7,-7 11.7,-7 11.7,-7 											"/>
											<path fill="#202020" d="M12.3-6.6L12.3-6.6C12.3-6.6,12.3-6.6,12.3-6.6L12.3-6.6z"/>
											<path fill="#202020" d="M12.5-7.1C12.5-7.1,12.5-7.1,12.5-7.1C12.5-7.1,12.5-7.1,12.5-7.1L12.5-7.1z"/>
											<path fill="#202020" d="M11.9-7L11.9-7C11.8-7,11.8-7,11.9-7z"/>
											<path fill="#202020" d="M12.2-6.3L12.2-6.3L12.2-6.3z"/>
											<path fill="#202020" d="M10.6-6.8L10.6-6.8L10.6-6.8z"/>
											<polygon fill="#202020" points="11.2,-6.8 11.2,-6.8 11.2,-6.8 											"/>
											<path fill="#202020" d="M10.2-5.1L10.2-5.1C10.2-5.1,10.2-5.1,10.2-5.1z"/>
											<path fill="#202020" d="M5.8-5.7C5.9-5.7,5.7-5.7,5.8-5.7C5.8-5.7,5.9-5.7,5.8-5.7z"/>
											<path fill="#202020" d="M11.7-7L11.7-7C11.7-7,11.7-7,11.7-7z"/>
											<polygon fill="#202020" points="5.8,-5.7 5.8,-5.7 5.8,-5.7 											"/>
											<path fill="#202020" d="M9.1-5C9.1-5,9.1-5,9.1-5C9.1-5,9.1-5,9.1-5z"/>
											<path fill="#202020" d="M9.9-5L9.9-5C9.9-5,9.9-5,9.9-5z"/>
											<path fill="#202020" d="M8.6-5C8.6-5,8.6-5,8.6-5L8.6-5C8.6-5,8.6-5,8.6-5z"/>
											<polygon fill="#202020" points="8.2,-5.1 8.2,-5.1 8.2,-5.1 											"/>
											<path fill="#202020" d="M9.3-6.6C9.3-6.6,9.3-6.6,9.3-6.6C9.3-6.6,9.4-6.6,9.3-6.6z"/>
											<path fill="#202020" d="M11.7-7C11.7-7,11.7-7,11.7-7C11.7-7,11.7-7,11.7-7L11.7-7z"/>
											<path fill="#202020" d="M8.6-4.9L8.6-4.9C8.5-4.9,8.6-4.9,8.6-4.9z"/>
											<path fill="#202020" d="M6.2-6.6L6.2-6.6C6.2-6.6,6.2-6.6,6.2-6.6z"/>
											<path fill="#202020" d="M8.3-4.9C8.3-4.9,8.3-4.9,8.3-4.9L8.3-4.9L8.3-4.9z"/>
											<path fill="#202020" d="M9.3-6.6L9.3-6.6L9.3-6.6z"/>
											<path fill="#202020" d="M9.7-6.6C9.8-6.7,9.8-6.6,9.7-6.6c0.1,0,0.2,0,0.2,0c0,0,0,0,0.1,0c0,0,0.1,0,0.1-0.1
												c0,0-0.1,0,0,0.1c0,0,0.1,0,0.1-0.1c0,0,0,0,0.1,0c0,0,0,0,0,0c0.1,0,0.2,0,0.2-0.1c0,0,0.2,0,0.1,0c0,0,0.1,0,0.1,0
												c0,0,0.1,0,0.1,0c0,0,0.1,0,0.1,0c0,0,0,0,0,0c0,0,0,0,0.1,0c0.1,0,0,0,0,0c0,0,0,0,0,0l0.1,0c0,0,0,0,0,0c0,0,0,0,0.1,0
												l-0.1,0l0,0l0.1,0c0.1,0,0.1,0,0.1,0.1l0,0c0,0,0,0,0.1,0c0,0-0.1,0-0.1,0.1c-0.1,0,0,0-0.1,0l-0.1,0l0,0c0,0,0,0,0,0
												c0,0-0.1,0-0.1,0l0,0c-0.1,0.1-0.2,0-0.3,0l-0.1,0l0,0c0,0,0,0-0.1,0c-0.2,0-0.5,0.1-0.7,0.1c0,0,0,0,0,0
												c-0.2,0-0.3,0.1-0.5,0.1l0,0c-0.1,0,0,0-0.1,0c0,0-0.1,0-0.2,0c0,0,0,0,0,0c0,0,0,0,0,0c-0.1,0-0.2,0.1-0.3,0.1
												c0,0-0.1,0-0.1,0c0,0,0,0,0,0c0,0-0.1,0-0.1,0c0,0,0.1,0,0.1,0l0,0c0,0,0,0,0,0c0,0,0,0,0,0c0,0,0,0,0,0c0,0-0.1,0-0.1,0
												c0,0,0,0-0.1,0c0,0,0,0,0,0l0,0l0,0c-0.1,0-0.1,0-0.2,0.1c0,0,0,0,0,0c0,0,0.1,0,0.1,0c0,0,0,0,0,0c-0.1,0-0.1,0-0.2,0
												c0,0,0,0,0,0c0,0-0.1,0-0.1,0c0,0-0.1,0-0.1,0c0,0,0,0-0.1,0l0,0c-0.1,0-0.1,0-0.1,0c0,0,0,0,0,0c-0.1,0-0.1,0-0.1,0l0,0
												c-0.1,0-0.2,0-0.2,0c0,0-0.1,0-0.2,0c0,0,0,0,0,0c-0.1,0-0.2,0-0.3,0l0,0c-0.1,0-0.1,0.1-0.2,0l0,0c0,0,0,0,0,0l-0.1,0
												l0-0.1c0,0,0-0.1,0-0.1c0,0,0.1,0.1,0.1,0.1c0,0-0.1,0-0.2,0l0,0c-0.1,0-0.1,0-0.1,0C6.3-6.5,6-6.4,5.9-6.5l0,0
												c-0.1,0-0.1,0-0.1,0l0,0c0,0-0.1,0-0.1,0c0,0,0,0,0,0c-0.1,0-0.4,0-0.5-0.1c-0.1,0-0.1,0-0.1,0c0,0,0,0,0,0l0,0
												c0,0,0,0,0,0c0,0,0,0.1,0,0.1c0,0,0,0.1,0,0.2l0,0c0,0,0,0.1,0,0.1c0,0,0,0,0,0c0,0,0,0,0,0.1l0,0C5.1-6.1,5.2-6,5.3-6
												c0,0,0,0,0,0c0.1,0,0.2,0.1,0.2,0.1l0,0c0.1,0,0.1,0.1,0.2,0.1l-0.1,0c0,0,0.1,0,0.1,0c0,0,0,0,0.1,0.1c0,0-0.1,0,0,0
												l0.1,0.1c0,0,0,0,0.1,0c0,0,0.1,0,0,0c0.1,0,0.3,0.1,0.4,0.1c0,0.1,0.3,0.1,0.2,0.1c0.1,0,0.1,0,0.2,0c0,0,0,0,0,0
												c0,0,0.1,0,0.1,0c-0.1,0-0.1,0-0.2,0c0.1,0,0.2,0,0.2,0l0,0c0.1,0,0,0,0.1,0l0,0c0.1,0,0.1,0,0.2,0l0,0c0,0,0.1,0,0.1,0
												l-0.1,0c0,0,0,0,0.1,0.1c0.1,0,0,0,0.1,0c0,0,0,0,0,0c0.1,0,0.2,0,0.2,0l0,0c0.1,0,0.2,0,0.2,0l0,0c0.1,0,0.2,0,0.2,0.1
												c0,0-0.1,0,0,0c0.1,0,0.1,0,0.1,0c0,0,0,0,0,0c0.1,0,0.1,0,0.2,0C8.3-5,8.4-5,8.5-5c0,0,0,0,0,0l0,0c0,0,0,0,0.1,0
												c0,0,0.1,0,0.1,0c0,0,0,0,0.1,0c-0.1,0,0,0,0,0c0.1,0,0.1,0,0.2,0L9-5c0,0,0.1,0,0.1,0c0,0,0,0,0,0c0,0,0.1,0,0.1,0l0,0
												c0.1,0,0.2,0,0.3,0l0,0c0.1,0,0.1,0,0.2,0c0,0,0,0,0,0c0,0-0.1,0-0.1,0l0.1,0L9.5-5c0.1,0,0,0,0,0c0.1,0,0.1,0,0.2,0
												c0,0,0,0,0,0c0.1,0,0.1,0,0.2,0c0,0,0,0,0,0c0,0,0.1,0,0.1,0l0,0c0,0,0,0,0.1,0c0,0,0.1,0,0,0c0,0,0,0,0,0
												c0.1,0,0,0,0.1,0c0,0,0,0,0,0c0,0,0,0,0.1,0c-0.1,0,0,0-0.1,0c0,0,0.1,0,0.1,0c0,0,0,0,0,0c0,0,0,0,0,0l0,0
												c0,0,0,0,0.1,0l0,0c0,0,0.1,0,0.2,0c0,0-0.1,0,0,0c0.1,0,0,0,0.1,0c0.1,0,0,0,0.1,0c0,0,0,0,0,0c0.1,0,0.1,0,0.2,0
												c0,0-0.1,0,0,0c0,0,0.1,0,0.1,0l0,0c0,0,0,0,0,0c0,0,0,0,0,0c0,0,0,0,0,0c0.1,0,0,0,0,0c0.1,0,0.1-0.1,0.1-0.1
												c0,0,0.1,0,0.1,0c0,0-0.1,0,0,0c0.1,0,0.2-0.1,0.3-0.1l0,0c0,0,0.1,0,0.1,0l0,0c0,0,0.1-0.1,0.1,0c0-0.1,0.1-0.1,0.1-0.1
												c0,0,0,0,0,0c0.1,0,0.1-0.1,0.1-0.1c0,0,0,0,0,0c0,0,0.1-0.1,0.1-0.2l0,0c0-0.1,0.1-0.2,0.2-0.3l0,0l0,0l0,0l0,0
												c0,0,0-0.1,0-0.1c0,0,0,0,0,0c0,0,0,0,0-0.1c0,0,0,0,0,0c0,0,0,0,0,0c0,0,0,0,0.1-0.1c0,0,0,0,0,0c0,0,0,0,0,0
												c0,0,0,0,0-0.1l0,0c0,0,0,0,0,0c0,0,0,0,0,0c0-0.1,0,0,0,0c0-0.1,0.1-0.1,0.1-0.2l0,0c0,0,0,0,0-0.1l0,0c0,0,0,0,0,0
												c0,0,0-0.1,0-0.1l0,0c0-0.1,0.1-0.2,0.1-0.2c0-0.1,0-0.1,0-0.1c0,0,0,0,0-0.1c0,0,0,0-0.1,0c0,0,0,0,0,0
												c0,0-0.1,0.1-0.1,0c-0.1,0,0,0,0,0c0,0-0.1,0-0.2,0c0,0,0,0,0,0c0,0,0,0,0,0l0,0l-0.1,0c-0.1,0,0,0-0.1,0.1l0,0
												C12-7,12-7,11.9-7c0,0,0,0,0,0l0,0c0,0,0,0,0,0c0,0,0,0-0.1,0c0,0,0,0,0,0l-0.1,0l0,0c-0.1,0-0.1,0.1-0.2,0.1l0,0
												c0,0,0,0-0.1,0c0,0,0,0,0,0l0,0c0,0,0.1-0.1,0.1-0.1c0,0,0,0,0,0c0,0,0.1-0.1,0.1-0.1c0,0,0,0,0,0c0,0,0,0,0.1,0
												c0,0,0,0,0,0c0,0,0.1,0,0.1,0c0,0,0,0,0,0C12-7,12-7.1,12.1-7.1c0.1-0.1,0.2,0,0.3-0.1c0,0-0.1,0,0,0c0,0,0,0,0,0
												c0.1,0,0.1,0,0.2-0.1c0,0,0,0,0,0c0,0,0.1,0-0.1,0.1c0.1-0.1,0.1,0,0,0c0,0,0,0.1,0,0.1l0,0l0,0.1l0,0c0,0,0,0,0,0.1
												c0,0,0,0,0-0.1c0,0,0,0.1,0,0.1c0,0,0-0.1,0,0c0,0,0,0.1,0,0.1l0,0c0,0.1,0,0,0,0.1c0,0,0,0,0,0c0,0-0.1,0.1,0,0
												c0,0,0,0.1,0,0.1c0,0,0,0,0,0l0,0.1c0,0,0,0,0,0c-0.1,0.1-0.1,0.3-0.2,0.4c0,0,0,0,0,0c0,0-0.1,0.1-0.1,0.2l0,0
												C12-5.8,12-5.7,11.9-5.7c0,0,0,0,0,0c0,0.1-0.1,0.1-0.1,0.1l0,0c-0.1,0.1-0.2,0.2-0.3,0.3c0,0,0.1,0,0-0.1
												c-0.1,0-0.1,0.1-0.2,0.1c0,0,0,0,0,0c-0.1,0,0,0-0.1,0c0,0,0,0,0,0l0,0c0,0,0,0,0,0c0,0-0.1,0.1-0.2,0.1c0,0,0,0,0,0
												c0,0-0.1,0-0.1,0l0,0c0,0-0.1,0-0.1,0c-0.1,0,0,0-0.1,0l0.1,0l-0.1,0l0,0c0,0-0.1,0-0.2,0l0,0l-0.1,0c0,0-0.1,0-0.1,0
												c-0.1,0-0.2,0.1-0.3,0.1c0,0,0,0,0,0c-0.1,0-0.1,0-0.1,0c0,0,0,0,0,0c-0.1,0,0,0-0.1,0c0,0,0,0,0,0c0,0,0,0,0,0
												c0.1-0.1-0.1,0-0.1-0.1c0,0-0.1,0-0.1,0.1l0,0c0,0,0,0-0.1,0c0,0,0,0,0,0c-0.1,0-0.2,0-0.4,0c0,0,0.1,0,0,0
												c-0.1,0-0.2,0-0.3,0c0,0,0.1,0,0.2,0c-0.1,0-0.3,0-0.4,0c-0.1-0.1-0.2,0-0.2,0c0,0,0,0-0.1,0c0,0,0,0,0,0
												c0,0-0.2,0-0.2,0c0,0-0.1,0-0.1,0c-0.1,0-0.1,0-0.2,0c0,0-0.1,0-0.1,0c0,0,0,0,0,0c0,0-0.1,0-0.1,0c0,0,0,0,0,0
												c0,0-0.1,0-0.2,0c0,0,0,0,0,0C7.5-5,7.3-5.1,7.1-5.1l0,0c-0.1-0.1-0.1,0-0.2,0C6.7-5.2,6.5-5.3,6.2-5.4c0,0,0,0,0,0
												c0,0,0,0-0.1,0l0,0C6.1-5.5,5.8-5.5,5.8-5.6c-0.1,0-0.2-0.1-0.3-0.1c0,0,0.1,0,0,0l-0.1,0l0,0C5.2-5.8,5.1-6,5-6.1l0,0
												c0,0,0,0,0-0.1c0,0,0,0,0,0C4.9-6.3,4.9-6.3,4.9-6.4c0,0,0,0,0-0.1c0,0,0,0,0-0.1c0-0.2,0-0.3,0.1-0.3c0-0.1,0-0.1,0-0.2
												c0,0,0,0,0,0C5-7.2,5-7.3,5.1-7.4c0.1,0.8,0.1,0.6,0.1,0.7l0,0c0,0,0.1,0.1,0.1,0c0,0,0,0,0,0l0,0c0,0,0,0,0,0
												c0,0,0,0,0,0l0,0c0,0,0,0,0,0c0.1,0,0.2,0,0.3,0l0,0c0.1,0,0.1,0,0.2,0c0,0,0,0,0,0c0.1,0,0,0,0.1,0c0,0,0,0,0,0
												c0,0,0,0,0.1,0c0,0,0.1,0,0.1,0c0,0,0.1,0.1,0.1,0.1c0,0,0,0,0,0l0,0l0,0l0.1,0l0,0c0,0,0.1,0,0.1,0c0.1,0,0.1,0,0.2,0.1
												l0.1,0l0,0l0,0c0,0,0,0,0,0.1L6.6-6.4c0,0,0.1,0,0.1,0c0.1,0,0.3,0,0.5,0l0,0c0.1,0,0.1,0,0.2,0l0,0c0.1,0,0.3,0,0.4,0
												c0,0,0,0,0,0c0,0,0,0,0,0c0,0,0,0,0,0l0,0c0.1,0,0.3,0,0.4,0c0,0,0,0,0,0c0.1,0,0.2,0,0.3-0.1l0,0c0,0,0,0,0.1,0
												c0,0,0,0-0.1,0c0.1,0,0.1,0,0.1,0l0,0c0.1,0,0.1,0,0.1,0c0.1,0,0.1,0,0.2,0c0,0,0,0,0,0c0.1,0,0.1,0,0.2,0c0.1,0,0,0,0,0
												l-0.1,0c0.1,0-0.1,0,0,0c0,0,0.1,0,0.2,0c0,0-0.1,0,0,0l0,0c0,0,0,0,0,0c0,0,0,0,0.1,0c0,0,0,0,0,0c0,0,0,0,0,0
												c0.1,0,0.2,0,0.2,0c0,0,0,0,0,0C9.6-6.6,9.6-6.6,9.7-6.6C9.7-6.6,9.7-6.6,9.7-6.6C9.7-6.6,9.7-6.7,9.7-6.6
												C9.8-6.7,9.7-6.6,9.7-6.6z M8.2-6.5C8.2-6.5,8.2-6.4,8.2-6.5L8.2-6.5C8.2-6.4,8.2-6.5,8.2-6.5z M8.1-6.4
												C8.1-6.4,8.1-6.4,8.1-6.4C8.1-6.4,8.1-6.4,8.1-6.4C8.1-6.4,8.1-6.4,8.1-6.4z M8.4-6.3L8.4-6.3C8.3-6.3,8.3-6.3,8.4-6.3
												C8.3-6.3,8.3-6.3,8.4-6.3L8.4-6.3z"/>
											<path fill="#202020" d="M8.4-6.4L8.4-6.4C8.4-6.4,8.4-6.4,8.4-6.4L8.4-6.4L8.4-6.4z"/>
											<polygon fill="#202020" points="12.1,-6 12.1,-6 12.1,-6 											"/>
											<polygon fill="#202020" points="6.3,-6.6 6.3,-6.6 6.3,-6.6 											"/>
											<path fill="#202020" d="M12.4-6.7C12.4-6.7,12.4-6.7,12.4-6.7C12.4-6.7,12.4-6.7,12.4-6.7z"/>
											<path fill="#202020" d="M12.5-7L12.5-7C12.6-7,12.5-7,12.5-7z"/>
											<polygon fill="#202020" points="12.6,-7.3 12.6,-7.2 12.6,-7.2 											"/>
											<path fill="#202020" d="M9.9-4.9L9.9-4.9C9.9-4.9,9.9-4.9,9.9-4.9z"/>
											<path fill="#202020" d="M11-5.1C11-5.1,11-5.1,11-5.1C11-5.1,11-5.1,11-5.1z"/>
											<polygon fill="#202020" points="8.6,-4.9 8.6,-4.9 8.6,-4.9 											"/>
											<path fill="#202020" d="M11-5.1C11-5.1,11-5.1,11-5.1C11-5.1,11-5.1,11-5.1z"/>
											<polygon fill="#202020" points="11.5,-6.9 11.5,-6.9 11.5,-6.9 											"/>
											<path fill="#202020" d="M11.5-6.9L11.5-6.9C11.5-6.9,11.5-6.9,11.5-6.9z"/>
											<path fill="#202020" d="M11.5-6.9L11.5-6.9C11.5-6.9,11.5-6.9,11.5-6.9z"/>
											<path fill="#202020" d="M11.8-7L11.8-7L11.8-7z"/>
											<path fill="#202020" d="M11.9-7.1C11.9-7.1,11.9-7.1,11.9-7.1L11.9-7.1C11.8-7.1,11.9-7,11.9-7.1z"/>
											<path fill="#202020" d="M12.3-7.1L12.3-7.1C12.3-7.1,12.3-7.1,12.3-7.1C12.4-7.1,12.2-7.1,12.3-7.1z"/>
											<path fill="#202020" d="M12.5-7.1C12.5-7.1,12.5-7.1,12.5-7.1C12.5-7.1,12.5-7.1,12.5-7.1z"/>
											<path fill="#202020" d="M11.7-5.6L11.7-5.6C11.7-5.5,11.7-5.6,11.7-5.6z"/>
											<polygon fill="#202020" points="11.5,-5.3 11.6,-5.3 11.6,-5.3 											"/>
											<polygon fill="#202020" points="11.3,-5.3 11.3,-5.3 11.2,-5.3 											"/>
											<path fill="#202020" d="M8.3-5.1L8.3-5.1C8.3-5.1,8.3-5.1,8.3-5.1z"/>
											<path fill="#202020" d="M7-5.3C6.9-5.3,6.9-5.4,7-5.3C6.9-5.4,6.9-5.3,7-5.3z"/>
											<path fill="#202020" d="M6-6.5C6-6.5,5.9-6.5,6-6.5C6-6.5,6-6.5,6-6.5C6-6.5,6-6.5,6-6.5z"/>
										</g>
									</g>
								</g>
							</g>
						</g>
					</g>
					<g>
						<g>
							<g>
								<g>
									<g>
										<path fill="#202020" d="M11.8-7.1C11.8-7.1,11.8-7.1,11.8-7.1L11.8-7.1L11.8-7.1z"/>
										<path fill="#202020" d="M11.9-7.1C11.9-7.1,12-7.1,11.9-7.1C11.9-7.1,11.9-7.1,11.9-7.1C11.9-7.1,11.9-7.1,11.9-7.1
											C11.9-7.1,11.8-7.1,11.9-7.1C11.9-7.1,11.9-7.1,11.9-7.1C11.9-7.1,11.9-7.1,11.9-7.1z"/>
										<path fill="#202020" d="M11.6-6.9L11.6-6.9C11.6-6.9,11.6-6.9,11.6-6.9z"/>
										<path fill="#202020" d="M10.5-6.7C10.5-6.7,10.5-6.7,10.5-6.7C10.5-6.7,10.5-6.7,10.5-6.7z"/>
										<path fill="#202020" d="M10.3-6.7L10.3-6.7L10.3-6.7z"/>
										<path fill="#202020" d="M11.6-6.9L11.6-6.9C11.5-6.9,11.6-6.9,11.6-6.9z"/>
										<path fill="#202020" d="M12.1-7.2L12.1-7.2C12.1-7.2,12.1-7.2,12.1-7.2L12.1-7.2z"/>
										<polygon fill="#202020" points="12,-7.1 12,-7.1 12,-7.1 										"/>
										<path fill="#202020" d="M12.4-7.2C12.4-7.2,12.4-7.2,12.4-7.2C12.4-7.2,12.4-7.2,12.4-7.2C12.4-7.2,12.4-7.2,12.4-7.2z"/>
										<path fill="#202020" d="M12.2-7.1L12.2-7.1L12.2-7.1z"/>
										<path fill="#202020" d="M11.8-7L11.8-7L11.8-7z"/>
										<path fill="#202020" d="M11.4-7L11.4-7L11.4-7z"/>
										<polygon fill="#202020" points="11.8,-7 11.8,-7 11.8,-7 										"/>
										<path fill="#202020" d="M10-6.7L10-6.7C10-6.7,10-6.7,10-6.7z"/>
										<path fill="#202020" d="M6.9-6.4C7-6.4,6.9-6.4,6.9-6.4C6.9-6.4,7-6.4,6.9-6.4z"/>
										<path fill="#202020" d="M12.2-7.2L12.2-7.2C12.2-7.2,12.2-7.2,12.2-7.2z"/>
										<polygon fill="#202020" points="6.9,-6.4 6.9,-6.4 6.9,-6.4 										"/>
										<path fill="#202020" d="M9.2-6.6L9.2-6.6C9.3-6.6,9.2-6.6,9.2-6.6z"/>
										<path fill="#202020" d="M9.8-6.6L9.8-6.6C9.8-6.6,9.8-6.6,9.8-6.6z"/>
										<path fill="#202020" d="M8.9-6.5C8.9-6.5,8.9-6.5,8.9-6.5L8.9-6.5C8.9-6.5,8.9-6.5,8.9-6.5z"/>
										<polygon fill="#202020" points="8.6,-6.5 8.6,-6.5 8.7,-6.5 										"/>
										<path fill="#202020" d="M10.5-6.8C10.5-6.8,10.5-6.8,10.5-6.8C10.5-6.8,10.5-6.8,10.5-6.8z"/>
										<path fill="#202020" d="M12.1-7.2C12.1-7.2,12.2-7.2,12.1-7.2L12.1-7.2L12.1-7.2z"/>
										<path fill="#202020" d="M9-6.4L9-6.4C8.9-6.4,8.9-6.4,9-6.4z"/>
										<path fill="#202020" d="M8.3-6.5L8.3-6.5L8.3-6.5z"/>
										<path fill="#202020" d="M8.8-6.3C8.7-6.4,8.7-6.4,8.8-6.3L8.8-6.3L8.8-6.3z"/>
										<path fill="#202020" d="M10.5-6.8L10.5-6.8L10.5-6.8z"/>
										<path fill="#202020" d="M10.8-6.9C10.8-6.9,10.8-6.9,10.8-6.9c0.1,0,0.1,0,0.1,0c0,0,0,0,0,0c0,0,0,0,0-0.1c0,0,0,0,0,0.1
											c0,0,0.1,0,0.1-0.1c0,0,0,0,0.1,0c0,0,0,0,0,0c0,0,0.1,0,0.2-0.1c0,0,0.1,0,0.1,0c0,0,0.1,0,0.1,0c0,0,0.1,0,0.1,0
											c0,0,0.1,0,0.1,0c0,0,0,0,0,0c0,0,0,0,0,0c0,0,0,0,0,0c0,0,0,0,0,0l0,0c0,0,0,0,0,0c0,0,0,0,0.1,0l0,0l0,0l0,0
											c0.1,0,0.1,0,0.1,0.1l0,0c0,0,0,0,0,0c0,0,0,0-0.1,0.1c-0.1,0,0,0-0.1,0l-0.1,0l0,0c0,0,0,0,0,0c0,0-0.1,0-0.1,0l0,0
											c-0.1,0.1-0.1,0-0.2,0l0,0l0,0c0,0,0,0-0.1,0c-0.2,0-0.3,0.1-0.5,0.1c0,0,0,0,0,0c-0.2,0-0.2,0.1-0.3,0.1l0,0
											c-0.1,0,0,0,0,0c0,0-0.1,0-0.1,0.1c0,0,0,0,0,0c0,0,0,0,0,0c0,0-0.1,0.1-0.2,0.1c0,0-0.1,0-0.1,0c0,0,0,0,0,0
											c0,0,0,0-0.1,0c0,0,0,0,0.1,0l0,0c0,0,0,0,0,0c0,0,0,0,0,0c0,0,0,0,0,0c0,0-0.1,0-0.1,0c0,0,0,0,0,0c0,0,0,0,0,0l0,0l0,0
											c0,0-0.1,0-0.1,0.1c0,0,0,0,0,0c0,0,0,0,0.1,0c0,0,0,0,0,0c-0.1,0-0.1,0-0.1,0c0,0,0,0,0,0c0,0,0,0,0,0c0,0-0.1,0-0.1,0
											c0,0,0,0-0.1,0l0,0c0,0,0,0-0.1,0c0,0,0,0,0,0c0,0,0,0-0.1,0.1l0,0c0,0-0.1,0.1-0.1,0c0,0-0.1,0-0.1,0c0,0,0,0,0,0
											c-0.1,0-0.2,0-0.2,0l0,0c0,0,0,0.1-0.1,0.1l0,0c-0.1,0-0.1,0-0.2,0l0,0c0,0,0,0-0.1,0c-0.1,0-0.2,0-0.3,0l0,0
											c0,0-0.1,0-0.1,0l0,0c0,0,0,0-0.1,0c0,0,0,0,0,0c-0.1,0-0.3,0-0.3,0c-0.1,0-0.2,0-0.3,0l0,0c0,0-0.1,0-0.1-0.1
											c-0.1,0-0.1,0-0.2,0l0,0c0,0-0.1,0-0.1,0c0,0,0,0,0,0c0,0,0,0-0.1,0l0,0c0,0-0.1,0-0.1,0c0,0-0.1,0-0.1,0c0,0,0,0,0,0l0,0
											l0,0l0,0l0,0l0,0l0,0l0.1-0.1l0,0l0,0L6.6-6.4l0,0l0,0l0,0l0,0l0,0l0,0l0,0l0,0l0.1-0.1l0,0l0,0l0,0l0,0l0,0l0,0
											c0,0,0,0,0,0L6.6-6.5c0.1,0,0.1,0,0.1,0l0,0c0.1,0,0.1,0,0.1,0l0,0c0,0,0.1,0,0.1,0c0,0,0,0,0.1,0c0,0,0,0,0,0l0.1,0
											c0,0,0,0,0,0c0,0,0.1,0,0,0c0.1,0,0.2,0,0.3,0c0,0,0.2,0,0.2,0.1c0.1,0,0.1,0,0.1,0c0,0,0,0,0,0c0,0,0.1,0,0.1,0
											c0,0-0.1,0-0.1,0c0,0,0.1,0,0.1,0l0,0c0,0,0,0,0.1,0l0,0c0.1,0,0.1,0,0.1,0l0,0c0,0,0.1,0,0.1,0l0,0c0,0,0,0,0.1,0
											c0,0,0,0,0,0c0,0,0,0,0,0c0.1,0,0.1,0,0.2-0.1l0,0c0.1,0,0.1,0,0.1,0l0,0c0,0,0.1,0,0.1,0c0,0,0,0,0,0c0.1,0,0,0,0.1,0
											c0,0,0,0,0,0c0,0,0.1,0,0.1,0c0.1,0,0.2,0,0.2,0c0,0,0,0,0,0l0,0c0,0,0,0,0,0c0,0,0.1,0,0.1,0c0,0,0,0,0,0c0,0,0,0,0,0
											c0.1,0,0.1-0.1,0.1,0l0,0c0,0,0.1,0,0.1,0c0,0,0,0,0,0c0,0,0.1,0,0.1,0l0,0c0.1,0,0.1,0,0.2,0l0,0c0,0,0.1,0,0.1,0
											c0,0,0,0,0,0c0,0,0,0-0.1,0l0.1,0l-0.1,0c0,0,0,0,0,0c0.1,0,0.1,0,0.1,0c0,0,0,0,0,0c0,0,0.1,0,0.1,0c0,0,0,0,0,0
											c0,0,0,0,0.1,0l0,0c0,0,0,0,0.1,0c0,0,0,0,0,0c0,0,0,0,0,0c0.1,0,0,0,0.1,0l0,0c0,0,0,0,0,0c-0.1,0,0,0,0,0c0,0,0,0,0.1,0
											c0,0,0,0,0,0c0,0,0,0,0,0l0,0c0,0,0,0,0,0l0,0c0,0,0.1,0,0.1,0c0,0,0,0,0,0c0.1,0,0,0,0,0c0.1,0,0,0,0.1,0c0,0,0,0,0,0
											c0.1,0,0.1,0,0.1,0c0,0,0,0,0,0c0,0,0,0,0.1,0l0,0c0,0,0,0,0,0c0,0,0,0,0,0c0,0,0,0,0,0c0,0,0,0,0,0c0.1,0,0,0,0.1,0
											c0,0,0.1,0,0.1,0c0,0-0.1,0,0,0c0.1,0,0.1-0.1,0.2,0l0,0c0,0,0,0,0.1,0l0,0c0,0,0.1,0,0.1,0c0,0,0.1,0,0.1,0c0,0,0,0,0,0
											c0.1,0,0.1,0,0.1,0c0,0,0,0,0,0c0,0,0.1,0,0.1-0.1l0,0c0.1,0,0.2,0,0.2-0.1l0,0l0,0l0,0l0,0c0,0,0,0,0.1-0.1c0,0,0,0,0,0
											c0,0,0,0,0,0c0,0,0,0,0,0c0,0,0,0,0,0c0,0,0,0,0.1,0c0,0,0,0,0,0c0,0,0,0,0,0c0,0,0,0,0,0l0,0c0,0,0,0,0,0c0,0,0,0,0,0
											c0.1,0,0,0,0-0.1c0.1,0,0.1,0,0.1-0.1l0,0c0,0,0,0,0,0l0,0c0,0,0,0,0,0c0,0,0.1,0,0.1-0.1l0,0c0,0,0.1,0,0.1,0
											c0,0,0.1,0,0.1,0c0,0,0.1,0,0.1,0c0,0,0,0,0,0c0,0,0.1,0,0.1,0l0,0l0,0c0,0,0,0,0,0l0,0l0,0l0,0l0,0c0,0,0,0,0,0l0,0
											c0,0,0,0-0.1,0c0,0,0,0,0,0c0,0,0,0,0,0l0,0l-0.1,0c-0.1,0,0,0-0.1,0.1l0,0c0,0-0.1,0-0.1,0c0,0,0,0,0,0l0,0l0,0
											c0,0,0,0-0.1,0c0,0,0,0,0,0l0,0l0,0c0,0-0.1,0.1-0.1,0l0,0c0,0,0,0,0,0c0,0,0,0,0,0l0,0c0,0,0.1,0,0.1-0.1c0,0,0,0,0,0
											c0,0,0.1,0,0.1,0c0,0,0,0,0,0c0,0,0,0,0,0c0,0,0,0,0,0c0,0,0.1,0,0.1,0c0,0,0,0,0,0c0.1,0,0.1-0.1,0.1-0.1
											c0.1,0,0.1,0,0.2,0l0.1,0l0,0.1c0,0,0,0,0,0c0,0,0,0,0,0l-0.1-0.1l0,0l0,0l0,0l0.1,0.1c0,0,0,0,0,0c0,0,0,0,0,0
											c0,0,0,0,0,0l0,0l0,0c0,0-0.1,0-0.1,0c0,0,0,0,0,0c0,0,0,0,0,0c0,0-0.1,0-0.1,0.1l0,0l-0.1,0l0,0c0,0,0,0-0.1,0
											c0,0,0,0,0,0c0,0-0.1,0-0.1,0c0,0,0,0,0,0c0,0,0,0-0.1,0l0,0c-0.1,0,0,0-0.1,0c0,0,0,0,0,0c0,0-0.1,0,0,0c0,0,0,0,0,0
											c0,0,0,0,0,0L12-7c0,0,0,0,0,0c-0.1,0-0.2,0.1-0.3,0.1c0,0,0,0,0,0c0,0-0.1,0-0.1,0l0,0c-0.1,0-0.1,0.1-0.2,0.1
											c0,0,0,0,0,0c0,0-0.1,0-0.1,0l0,0c-0.1,0-0.2,0.1-0.3,0.1c0,0,0,0,0,0c-0.1,0-0.1,0-0.2,0c0,0,0,0,0,0c-0.1,0,0,0,0,0
											c0,0,0,0,0,0l0,0c0,0,0,0,0,0c0,0-0.1,0-0.1,0c0,0,0,0,0,0c0,0,0,0-0.1,0l0,0c0,0-0.1,0-0.1,0c-0.1,0,0,0,0,0l0,0l-0.1,0
											l0,0c0,0-0.1,0-0.1,0l0,0l0,0c0,0-0.1,0,0,0c-0.1,0-0.1,0-0.2,0.1c0,0,0,0,0,0c0,0-0.1,0-0.1,0c0,0,0,0,0,0
											c-0.1,0,0,0-0.1,0c0,0,0,0,0,0c0,0,0,0,0,0c0-0.1-0.1,0,0-0.1c0,0-0.1,0-0.1,0.1l0,0c0,0,0,0,0,0c0,0,0,0,0,0
											c-0.1,0-0.2,0-0.3,0c0,0,0,0,0,0c-0.1,0-0.1,0-0.2,0.1c0,0,0.1,0,0.1,0c-0.1,0-0.2,0-0.3,0.1c0,0-0.1,0-0.2,0
											c0,0,0,0-0.1,0c0,0,0,0,0,0c0,0-0.1,0-0.1,0c0,0-0.1,0-0.1,0c0,0-0.1,0-0.1,0c0,0,0,0-0.1,0c0,0,0,0,0,0c0,0-0.1,0-0.1,0
											c0,0,0,0,0,0c0,0-0.1,0-0.1,0c0,0,0,0,0,0c-0.1,0-0.3,0-0.4,0.1l0,0c-0.1,0-0.1,0-0.1,0c-0.2,0-0.4,0-0.6,0c0,0,0,0,0,0
											c0,0,0,0,0,0l0,0c-0.1,0-0.2,0-0.3,0c-0.1,0-0.1,0-0.2,0c0,0,0,0,0,0l-0.1,0l0,0l0,0l-0.1,0l0-0.1c0,0,0,0,0-0.1l0-0.1
											l0.1,0c0.1,0,0.2,0.1,0.2,0l0,0c0,0,0,0,0,0c0,0,0,0,0,0c0.1,0,0.1,0,0.2,0c0,0,0,0,0,0c0,0,0,0,0,0c0.1,0,0.1,0,0.2,0
											c0,0,0,0,0.1,0c0.1,0,0.1,0,0.2,0l0,0c0,0,0.1,0,0.1,0c0,0,0,0,0,0l0,0c0,0,0,0,0,0c0,0,0,0,0,0l0,0c0,0,0,0,0,0
											c0.1,0,0.2,0,0.3,0l0,0c0,0,0.1,0,0.1,0c0,0,0,0,0,0c0.1,0,0,0,0.1,0c0,0,0,0,0,0l0.1,0c0,0,0.1,0,0.1,0c0,0,0,0,0,0l0,0
											l0,0l0,0l0,0c0,0,0,0,0.1,0c0.1,0,0.1,0,0.1,0c0,0,0.1,0,0.1,0c0.1,0,0.2,0,0.3,0l0,0c0.1,0,0.1,0,0.1,0l0,0
											c0.1,0,0.2,0,0.2-0.1c0,0,0,0,0,0c0,0,0,0,0,0c0,0,0,0,0,0l0,0c0.1,0,0.2,0,0.3,0c0,0,0,0,0,0c0,0,0.2-0.1,0.2-0.1l0,0
											c0,0,0,0,0.1,0c0,0,0,0,0,0c0.1,0,0,0,0.1,0l0,0c0.1,0,0.1,0,0.1,0c0.1,0,0.1,0,0.1,0c0,0,0,0,0,0c0.1,0,0.1,0,0.1,0
											c0,0,0,0,0,0l-0.1,0c0,0,0,0,0,0c0,0,0.1,0,0.1,0c0,0,0,0,0,0l0,0c0,0,0,0,0,0c0,0,0,0,0,0c0,0,0,0,0,0l0,0
											c0,0,0.1,0,0.1-0.1c0,0,0,0,0,0C10.7-6.9,10.7-6.9,10.8-6.9C10.7-6.9,10.7-6.9,10.8-6.9C10.8-6.9,10.7-6.9,10.8-6.9
											C10.8-6.9,10.7-6.9,10.8-6.9z M9.7-6.7C9.7-6.6,9.7-6.6,9.7-6.7L9.7-6.7C9.7-6.6,9.7-6.7,9.7-6.7z M9.7-6.6
											C9.7-6.6,9.7-6.6,9.7-6.6C9.7-6.6,9.6-6.6,9.7-6.6C9.6-6.6,9.7-6.6,9.7-6.6z M9.8-6.5L9.8-6.5C9.8-6.5,9.8-6.5,9.8-6.5
											C9.8-6.5,9.8-6.5,9.8-6.5L9.8-6.5z"/>
										<polygon fill="#202020" points="9.9,-6.6 9.9,-6.6 9.9,-6.6 9.9,-6.6 										"/>
										<polygon fill="#202020" points="11.6,-6.9 11.6,-6.9 11.6,-6.9 										"/>
										<polygon fill="#202020" points="8.4,-6.5 8.4,-6.5 8.4,-6.5 										"/>
										<path fill="#202020" d="M12.1-7L12.1-7L12.1-7z"/>
										<path fill="#202020" d="M12.3-7.1L12.3-7.1C12.3-7.1,12.3-7.1,12.3-7.1z"/>
										<polygon fill="#202020" points="12.5,-7.1 12.5,-7.1 12.5,-7.1 										"/>
										<path fill="#202020" d="M9.8-6.5L9.8-6.5C9.8-6.5,9.8-6.5,9.8-6.5z"/>
										<path fill="#202020" d="M10.6-6.7C10.6-6.6,10.6-6.6,10.6-6.7C10.6-6.6,10.6-6.6,10.6-6.7z"/>
										<polygon fill="#202020" points="9,-6.4 9,-6.4 9,-6.4 										"/>
										<path fill="#202020" d="M10.6-6.6C10.6-6.6,10.6-6.6,10.6-6.6C10.6-6.6,10.6-6.6,10.6-6.6z"/>
										<polygon fill="#202020" points="12,-7.2 12,-7.2 12,-7.2 										"/>
										<path fill="#202020" d="M12-7.2L12-7.2L12-7.2z"/>
										<path fill="#202020" d="M12-7.1L12-7.1C12-7.1,12-7.1,12-7.1z"/>
										<path fill="#202020" d="M12.2-7.2L12.2-7.2L12.2-7.2z"/>
										<path fill="#202020" d="M12.3-7.2C12.3-7.2,12.2-7.2,12.3-7.2L12.3-7.2C12.2-7.2,12.3-7.2,12.3-7.2z"/>
										<path fill="#202020" d="M12.6-7.2L12.6-7.2C12.5-7.2,12.6-7.2,12.6-7.2C12.6-7.2,12.5-7.2,12.6-7.2z"/>
										<path fill="#202020" d="M12.4-7.2C12.5-7.2,12.4-7.2,12.4-7.2C12.4-7.2,12.4-7.2,12.4-7.2z"/>
										<path fill="#202020" d="M11.2-6.8L11.2-6.8C11.2-6.8,11.2-6.8,11.2-6.8z"/>
										<polygon fill="#202020" points="11,-6.7 11,-6.7 11,-6.7 										"/>
										<polygon fill="#202020" points="10.8,-6.8 10.8,-6.8 10.8,-6.8 										"/>
										<path fill="#202020" d="M8.7-6.5L8.7-6.5C8.7-6.5,8.7-6.5,8.7-6.5z"/>
										<path fill="#202020" d="M7.8-6.4C7.8-6.4,7.7-6.4,7.8-6.4C7.7-6.4,7.8-6.4,7.8-6.4z"/>
										<polygon fill="#202020" points="8.1,-6.3 8.1,-6.3 8.1,-6.3 										"/>
									</g>
								</g>
							</g>
						</g>
					</g>
					<g>
						<g>
							<g>
								<g>
									<g>
										<path fill="#202020" d="M12.8-7.6C12.8-7.6,12.8-7.6,12.8-7.6L12.8-7.6L12.8-7.6z"/>
										<path fill="#202020" d="M12.8-7.4C12.8-7.4,12.8-7.3,12.8-7.4C12.8-7.4,12.8-7.4,12.8-7.4C12.8-7.5,12.8-7.5,12.8-7.4
											c0-0.1,0-0.1,0-0.1C12.8-7.5,12.8-7.5,12.8-7.4C12.8-7.4,12.8-7.4,12.8-7.4z"/>
										<path fill="#202020" d="M10.4-6.8L10.4-6.8C10.4-6.8,10.4-6.8,10.4-6.8z"/>
										<path fill="#202020" d="M8.9-6.5C8.9-6.5,8.9-6.5,8.9-6.5C8.9-6.5,8.9-6.5,8.9-6.5z"/>
										<path fill="#202020" d="M8.6-6.5L8.6-6.5C8.6-6.5,8.6-6.5,8.6-6.5z"/>
										<path fill="#202020" d="M10.4-6.8L10.4-6.8C10.4-6.8,10.4-6.8,10.4-6.8z"/>
										<path fill="#202020" d="M12.5-7.2L12.5-7.2l0,0.2L12.5-7.2C12.6-7.1,12.6-7.1,12.5-7.2L12.5-7.2l0,0.1L12.5-7.2L12.5-7.2
											L12.5-7.2z"/>
										<polygon fill="#202020" points="11.1,-6.9 11.1,-6.9 11.1,-7 										"/>
										<path fill="#202020" d="M11.6-7.1C11.6-7.1,11.6-7,11.6-7.1C11.6-7,11.6-7,11.6-7.1C11.7-7.1,11.7-7.1,11.6-7.1z"/>
										<path fill="#202020" d="M12.5-7.2L12.5-7.2C12.5-7.2,12.5-7.2,12.5-7.2z"/>
										<path fill="#202020" d="M10.7-6.9L10.7-6.9L10.7-6.9z"/>
										<path fill="#202020" d="M12.1-7.8L12.1-7.8L12.1-7.8z"/>
										<polygon fill="#202020" points="12.7,-7.6 12.7,-7.6 12.7,-7.6 										"/>
										<path fill="#202020" d="M8.1-6.5L8.1-6.5C8.1-6.5,8.1-6.5,8.1-6.5z"/>
										<path fill="#202020" d="M5.3-6.6C5.3-6.6,5.2-6.6,5.3-6.6C5.3-6.6,5.4-6.6,5.3-6.6z"/>
										<path fill="#202020" d="M12.5-7.2L12.5-7.2C12.5-7.2,12.5-7.2,12.5-7.2z"/>
										<polygon fill="#202020" points="5.3,-6.6 5.3,-6.6 5.3,-6.6 										"/>
										<path fill="#202020" d="M7-6.5C7-6.5,7-6.5,7-6.5C7-6.5,7-6.5,7-6.5z"/>
										<path fill="#202020" d="M7.8-6.4L7.8-6.4C7.8-6.4,7.8-6.4,7.8-6.4z"/>
										<path fill="#202020" d="M6.7-6.5C6.7-6.5,6.7-6.6,6.7-6.5C6.7-6.6,6.7-6.6,6.7-6.5C6.7-6.6,6.7-6.5,6.7-6.5z"/>
										<path fill="#202020" d="M6.2-6.6L6.2-6.6C6.2-6.6,6.2-6.6,6.2-6.6L6.2-6.6z"/>
										<path fill="#202020" d="M10.8-7.7C10.8-7.7,10.8-7.7,10.8-7.7C10.8-7.7,10.8-7.7,10.8-7.7z"/>
										<path fill="#202020" d="M12.5-7.2C12.5-7.2,12.5-7.2,12.5-7.2C12.5-7.2,12.5-7.2,12.5-7.2L12.5-7.2z"/>
										<polygon fill="#202020" points="6.5,-6.5 6.5,-6.5 6.5,-6.5 6.5,-6.5 										"/>
										<path fill="#202020" d="M7.5-7.3L7.5-7.3C7.5-7.3,7.5-7.3,7.5-7.3z"/>
										<path fill="#202020" d="M6.3-6.5C6.3-6.5,6.3-6.5,6.3-6.5L6.3-6.5L6.3-6.5z"/>
										<path fill="#202020" d="M10.8-7.7L10.8-7.7L10.8-7.7z"/>
										<path fill="#202020" d="M11.2-7.8C11.2-7.9,11.2-7.8,11.2-7.8c0.1-0.1,0.2,0,0.2-0.1c0,0,0,0,0.1,0c0,0,0.1,0,0.1,0
											c0,0-0.1,0,0,0.1c0,0,0.1,0,0.1,0c0,0,0,0,0.1,0c0,0,0,0,0,0c0.1,0,0.2,0,0.3,0c0,0,0.2,0,0.1,0.1c0,0,0.1,0,0.1,0
											c0,0,0.1,0,0.1,0c0,0,0.1,0,0.1,0c0,0,0,0,0,0c0,0,0,0,0.1,0c0.1,0,0,0,0,0c0,0,0,0,0,0l0.1,0c0,0,0,0,0,0
											c0,0,0.1,0,0.1,0l-0.1,0l0,0l0.1,0c0.1,0.1,0,0.1,0,0.1l0,0c0,0,0,0,0,0c0,0-0.1,0-0.1,0c-0.1,0,0,0-0.1-0.1l-0.1,0l0,0
											c0,0,0,0,0,0c0,0-0.1,0-0.1,0l0,0c-0.1,0-0.2-0.1-0.3-0.1l-0.1,0l0,0c0,0-0.1,0-0.1,0c-0.1,0-0.2,0-0.4-0.1
											c-0.1,0-0.2,0.1-0.3,0.1c0,0,0,0,0,0c-0.2,0-0.3,0.1-0.5,0l0,0c-0.1,0,0,0-0.1,0c0,0-0.1,0-0.2,0c0,0,0,0,0,0c0,0,0,0,0,0
											c-0.1,0-0.2,0.1-0.3,0.1c0,0-0.1,0-0.1,0c0,0,0,0,0,0c0,0-0.1,0-0.1,0c0,0,0.1,0,0.1,0l0,0c0,0,0,0,0,0c0,0,0,0,0,0
											c0,0,0,0,0,0c0,0-0.1,0-0.1,0c0,0,0,0-0.1,0c0,0,0,0,0,0l0,0l0,0c-0.1,0-0.1,0-0.2,0.1c0,0,0,0,0,0c0,0,0.1,0,0.1,0
											c0,0,0,0,0,0c-0.1,0-0.1,0-0.2,0c0,0,0,0,0,0c0,0-0.1,0-0.1,0c0,0-0.1,0-0.1,0c0,0,0,0-0.1,0l0,0c-0.1,0-0.1,0-0.1,0
											c0,0,0,0,0,0c-0.1,0-0.1,0-0.1,0.1l0,0c-0.1,0-0.2,0.1-0.2,0c0,0-0.1,0-0.2,0.1c0,0,0,0,0,0c-0.1,0-0.2,0-0.4,0.1l0,0
											C8.1-7.2,8.1-7.2,8-7.1l0,0c-0.1,0-0.2,0-0.3,0l0,0c0,0-0.1,0-0.1,0c-0.1,0-0.3,0-0.5,0l0,0c-0.1,0-0.1,0-0.2,0l0,0
											c0,0-0.1,0-0.1,0c0,0-0.1,0,0,0c-0.1,0-0.4,0-0.5-0.1c-0.1,0-0.3,0-0.4,0l0,0c-0.1,0-0.2,0-0.2,0c-0.1,0-0.2,0.1-0.3,0.1
											l0,0c0,0-0.1,0-0.1,0c0,0,0,0,0,0c0,0,0,0-0.1,0l0,0C5.3-7.2,5.2-7.1,5.1-7c0,0,0,0,0,0c0,0,0,0.1,0,0.1c0,0,0,0,0,0.1
											l0,0c0,0.1,0,0.1,0.1,0.1l0,0c0,0,0,0,0,0c0,0,0,0,0,0.1c0,0,0,0,0,0l0.1,0.1c0,0,0,0,0.1,0c0,0,0.1,0,0,0
											c0.1,0,0.3,0,0.4,0c0,0,0.1,0,0.2,0l0,0.1c-0.1,0-0.1,0-0.1-0.1c-0.1,0-0.1,0-0.2,0c0,0,0,0,0.1,0c0,0-0.1,0-0.2,0
											c0.1,0,0.1,0,0.2,0c-0.1,0-0.2,0-0.2,0l0,0c-0.1,0,0,0-0.1,0l0,0c-0.1,0-0.1,0-0.2,0l0,0c0,0,0,0-0.1,0l0-0.1c0,0,0,0,0,0
											l0,0l0,0.1l0,0c0,0,0,0,0,0l0-0.1c0,0,0,0,0.1,0c0.1,0,0,0,0.1,0c0,0,0,0,0,0c0.1,0,0.2,0,0.2,0l0,0c0.1,0,0.2,0,0.2,0
											l0,0c0.1,0,0.2,0,0.2,0.1c0,0-0.1,0,0,0c0.1,0,0.1,0,0.1,0c0,0,0,0,0,0c0.1,0,0.1,0,0.2,0c0.1,0,0.2,0,0.4,0c0,0,0,0,0,0
											l0,0c0,0,0,0,0,0c0,0,0,0,0,0c0,0.1,0,0.1,0,0.1c0,0,0,0,0,0c0,0,0,0-0.1,0c0.1,0,0.1,0,0.2,0l0.1,0c0,0,0.1,0,0.1,0
											c0,0,0,0,0,0c0,0,0.1,0,0.1,0l0,0c0.1,0,0.2,0,0.3,0l0,0c0.1,0,0.1,0,0.2,0c0,0,0,0,0,0c0,0-0.1,0-0.1,0l0.1,0l-0.1,0
											c0.1,0,0.1,0,0,0c0.1,0,0.1,0,0.2,0c0,0,0,0,0,0c0.1,0,0.1,0,0.2,0c0,0,0,0,0,0c0,0,0.1,0,0.1,0l0,0c0,0,0,0,0.1,0
											c0,0,0.1,0,0,0c0,0,0.1,0,0,0c0.1,0,0,0,0.1,0c0,0,0,0,0,0c0,0,0,0,0.1,0c-0.1,0,0,0-0.1,0c0,0,0.1,0,0.1,0c0,0,0,0,0,0
											c0,0,0,0,0,0l0,0c0,0,0,0,0.1,0l0,0c0,0,0.1,0,0.2,0c0,0-0.1,0,0,0c0.1,0,0,0,0.1,0c0.1,0,0,0,0.1,0c0,0,0,0,0,0
											c0.1,0,0.1,0,0.2,0c0,0-0.1,0,0,0c0,0,0.1,0,0.1,0l0,0c0,0,0,0,0,0c0,0,0,0,0,0c0,0,0,0,0,0c0.1,0,0.1,0,0,0
											c0.1,0,0.1,0,0.2,0c0,0,0.1,0,0.1,0c0,0-0.1,0,0,0c0.1,0,0.2-0.1,0.3-0.1l0,0c0,0,0.1,0,0.1,0l0,0c0,0,0.1,0,0.1,0
											c0.1,0,0.1,0,0.1,0c-0.1,0,0,0,0,0c0.1,0,0.1,0,0.1,0c0,0,0,0,0,0c0,0,0.1,0,0.2-0.1l0,0c0.1,0,0.2,0,0.3-0.1l0,0l0,0l0,0
											l0,0c0,0,0.1,0,0.1-0.1c0,0,0,0,0,0c0,0,0,0,0.1,0c0,0,0,0,0.1,0c0,0,0,0,0,0c0,0,0.1,0,0.1,0c0,0,0,0,0,0c0,0,0,0,0,0
											c0,0,0,0,0,0l0,0c0,0,0,0,0,0c0,0,0,0,0,0c0.1,0,0,0,0-0.1c0.1,0,0.1,0,0.2-0.1l0,0c0,0,0,0,0.1,0l0,0c0,0,0,0,0,0
											c0.1,0,0.1,0,0.1-0.1l0,0c0.1,0,0.2,0,0.2,0c0.1,0,0.2,0,0.2-0.1c0,0,0.1,0,0.1,0c0.1,0,0,0,0,0c0.1,0,0.1-0.1,0.1,0
											c0.1,0,0,0,0,0c0,0,0.1,0,0.2,0c0,0,0,0,0,0c0,0,0,0,0,0l0,0l0.1,0c0.1,0,0,0,0.1-0.1l0,0c0,0,0.1,0,0.2,0c0,0,0,0,0,0
											l0,0c0,0,0,0,0,0c0,0,0,0,0.1,0c-0.1,0,0,0,0,0l0,0l0,0l0,0l0,0l0,0l0,0l0,0l0,0l0,0l0,0l0,0.1l0,0c0.1,0,0.1-0.1,0.2-0.1
											l0,0c0,0,0,0,0.1,0c0,0,0,0,0,0l0,0c0,0,0,0.1-0.1,0.1c0,0,0,0,0,0c0,0-0.1,0.1-0.1,0.1c0,0,0,0,0,0c0,0,0,0,0,0l0,0
											l0-0.1c0,0,0,0,0,0c0,0,0,0,0,0l0,0l0,0c0,0-0.1,0-0.1,0c0,0,0.1,0,0,0c-0.1,0-0.1,0.1-0.2,0.1c-0.1,0.1-0.2,0-0.3,0.1
											c0,0,0.1,0,0,0c0,0,0,0,0,0c0,0-0.1,0-0.1,0c0,0,0,0,0,0c0,0-0.1,0,0,0c-0.1,0.1-0.2,0-0.2,0.1l0,0l-0.1,0l0,0
											c0,0,0,0-0.1,0c0,0,0,0,0.1,0c0,0-0.1,0-0.1,0.1c0,0,0.1,0,0,0c0,0-0.1,0-0.1,0l0,0c-0.1,0,0,0.1-0.1,0c0,0,0,0,0,0
											c0,0-0.1,0,0,0c0,0-0.1,0-0.1,0c0,0,0,0,0,0l-0.1,0c0,0,0,0,0,0c-0.2,0-0.3,0.1-0.5,0.1c0,0,0,0,0,0c-0.1,0-0.1,0-0.2,0
											l0,0c-0.1,0-0.2,0.1-0.3,0.1c0,0,0,0,0,0c-0.1,0-0.1,0-0.2,0l0,0c-0.1,0-0.3,0.1-0.4,0.1c0,0,0.1,0,0,0
											c-0.1,0-0.2,0-0.3,0c0,0,0,0,0,0c-0.1,0,0,0-0.1,0c0,0,0,0,0,0l0,0c0,0,0,0,0,0c0,0-0.1,0-0.2,0.1c0,0,0,0,0,0
											c0,0-0.1,0-0.1,0l0,0c0,0-0.1,0-0.1,0c-0.1,0,0,0-0.1,0l0.1,0l-0.1,0l0,0c-0.1,0-0.1,0-0.2,0l0,0l-0.1,0c0,0-0.1,0-0.1,0
											c-0.1,0-0.2,0-0.3,0.1c0,0,0,0,0,0c-0.1,0-0.1,0-0.1,0c0,0,0,0,0,0c-0.1,0,0,0-0.1,0c0,0,0,0,0,0c0,0,0,0,0,0
											c0.1-0.1-0.1,0-0.1-0.1c0,0-0.1,0-0.1,0.1l0,0c0,0,0,0-0.1,0c0,0,0,0,0,0c-0.1,0-0.3,0-0.4,0c0,0,0.1,0,0,0
											c-0.1,0-0.2,0-0.4,0c0,0,0.2,0,0.2,0c-0.1,0-0.3,0-0.5,0c0-0.1-0.2,0-0.3-0.1l0,0c0,0,0-0.1,0-0.2c0,0,0,0,0,0l0,0
											c0,0-0.1,0-0.1,0c0,0-0.1,0-0.1,0c-0.1,0-0.1,0-0.2,0c0,0-0.1,0-0.1,0c0,0,0,0,0,0c0,0-0.1,0-0.2,0c0,0,0,0,0,0
											c0,0-0.1,0-0.2,0c0,0,0,0,0,0c-0.2,0-0.4-0.1-0.6-0.1l0.1-0.2l0,0l0,0c0.1,0.1,0.1,0,0.2,0C5.6-6.8,5.8-6.7,6-6.6l0.4,0.1
											L6-6.5c-0.1,0-0.1,0-0.2,0c0,0,0,0,0,0c0,0,0,0-0.1,0l0,0c-0.1,0-0.4,0-0.5,0C5.1-6.5,5-6.6,4.9-6.7c0-0.1,0,0.1,0,0
											c0,0,0,0,0-0.1c0-0.1,0-0.1,0-0.1l0,0c0-0.2,0.2-0.3,0.4-0.4l0,0c0,0,0,0,0.1,0c0,0,0,0,0,0c0.1,0,0.2,0,0.3-0.1
											c0,0,0,0,0.1,0c0,0,0,0,0,0c0.1,0,0.2,0,0.3,0c0,0,0.1,0,0.1,0c0.1,0,0.2,0,0.3,0l0,0c0,0,0.1,0,0.1,0c0,0,0,0,0,0l0.1,0
											c0,0,0,0,0,0c0.1,0,0,0,0,0l0,0c0,0,0.1,0,0,0l0.4,0l0,0c0.1,0,0.2,0,0.2,0c0,0,0,0,0,0c0.1,0,0,0,0.1,0c0,0,0,0-0.1,0
											l0.2,0c0,0,0.1,0,0.2,0c0,0,0,0,0,0l0,0l0,0l0.1,0l0,0c0,0,0.1,0,0.1,0c0.1,0,0.1,0,0.2,0c0,0,0.2,0,0.2,0
											c0.1,0,0.3,0,0.5-0.1l0,0c0.1,0,0.1,0,0.2-0.1l0,0c0.1,0,0.3-0.1,0.4-0.1c0,0,0,0,0,0c0,0,0,0,0,0c0,0,0,0,0,0l0,0
											c0.1,0,0.3,0,0.4-0.1c0,0,0,0,0,0c0.1,0,0.2-0.1,0.3-0.1l0,0c0.1,0,0,0,0.1,0c0,0,0,0-0.1,0c0.1,0,0.1,0,0.2,0l0,0
											c0.1,0,0.1,0,0.1,0c0.1,0,0.1,0,0.2,0c0,0,0,0,0,0c0.1,0,0.1,0,0.2,0c0.1,0-0.1,0,0,0l-0.1,0c0.1,0-0.1,0,0,0
											c0,0,0.1,0,0.2,0c0,0-0.1,0,0,0l0,0c0,0,0,0,0,0c0,0,0,0,0.1,0c0,0,0,0,0,0c0,0,0,0,0,0c0.1,0,0.2,0,0.2,0c0,0,0,0,0,0
											C11-7.7,11.1-7.8,11.2-7.8C11.1-7.8,11.1-7.8,11.2-7.8C11.2-7.8,11.1-7.8,11.2-7.8C11.2-7.8,11.2-7.8,11.2-7.8z M9.7-7.6
											C9.7-7.6,9.6-7.6,9.7-7.6L9.7-7.6C9.6-7.6,9.7-7.6,9.7-7.6z M9.5-7.6C9.6-7.6,9.6-7.6,9.5-7.6C9.5-7.6,9.5-7.6,9.5-7.6
											C9.5-7.6,9.5-7.6,9.5-7.6z M9.8-7.5L9.8-7.5C9.8-7.5,9.8-7.5,9.8-7.5C9.8-7.5,9.8-7.5,9.8-7.5L9.8-7.5z"/>
										<path fill="#202020" d="M9.8-7.5L9.8-7.5C9.8-7.5,9.8-7.5,9.8-7.5L9.8-7.5L9.8-7.5z"/>
										<polygon fill="#202020" points="10.5,-6.8 10.5,-6.8 10.5,-6.8 										"/>
										<polygon fill="#202020" points="7.6,-7.3 7.6,-7.3 7.6,-7.3 										"/>
										<path fill="#202020" d="M11.2-6.9C11.2-6.9,11.2-6.9,11.2-6.9C11.2-6.9,11.2-6.9,11.2-6.9z"/>
										<path fill="#202020" d="M11.5-6.9L11.5-6.9C11.6-6.9,11.5-6.9,11.5-6.9z"/>
										<polygon fill="#202020" points="11.8,-7 11.8,-7 11.8,-7 										"/>
										<path fill="#202020" d="M7.8-6.3L7.8-6.3C7.8-6.3,7.8-6.3,7.8-6.3z"/>
										<path fill="#202020" d="M9-6.5C9-6.4,9-6.4,9-6.5C9-6.4,9-6.4,9-6.5z"/>
										<path fill="#202020" d="M6.5-6.5L6.5-6.5C6.5-6.6,6.5-6.5,6.5-6.5C6.5-6.5,6.5-6.6,6.5-6.5z"/>
										<path fill="#202020" d="M8.9-6.4C8.9-6.4,9-6.4,8.9-6.4C9-6.4,8.9-6.4,8.9-6.4z"/>
										<polygon fill="#202020" points="12.8,-7.3 12.8,-7.3 12.8,-7.3 										"/>
										<path fill="#202020" d="M12.8-7.3L12.8-7.3C12.8-7.3,12.8-7.3,12.8-7.3z"/>
										<path fill="#202020" d="M12.8-7.3L12.8-7.3C12.8-7.3,12.8-7.3,12.8-7.3z"/>
										<path fill="#202020" d="M12.5-7.2L12.5-7.2L12.5-7.2z"/>
										<path fill="#202020" d="M12.4-7.1C12.4-7.1,12.5-7.1,12.4-7.1L12.4-7.1C12.5-7.1,12.4-7.2,12.4-7.1z"/>
										<path fill="#202020" d="M12-7.1L12-7.1C12.1-7.1,12-7.1,12-7.1C12-7.2,12.1-7.1,12-7.1z"/>
										<path fill="#202020" d="M11.7-7.1C11.8-7.1,11.7-7.1,11.7-7.1C11.7-7.1,11.7-7.1,11.7-7.1z"/>
										<path fill="#202020" d="M9.9-6.7L9.9-6.7C9.8-6.7,9.9-6.7,9.9-6.7z"/>
										<polygon fill="#202020" points="9.5,-6.5 9.6,-6.5 9.6,-6.5 										"/>
										<polygon fill="#202020" points="9.3,-6.6 9.3,-6.6 9.3,-6.6 										"/>
										<path fill="#202020" d="M6.3-6.6L6.3-6.6C6.3-6.6,6.3-6.7,6.3-6.6z"/>
										<path fill="#202020" d="M5.4-6.7C5.4-6.6,5.5-6.6,5.4-6.7C5.5-6.6,5.4-6.7,5.4-6.7z"/>
										<polygon fill="#202020" points="7.3,-7.1 7.2,-7.1 7.3,-7.1 										"/>
									</g>
								</g>
							</g>
						</g>
					</g>
				</g>
				<g>
					<g>
						<g>
							<g>
								<g>
									<path fill="#202020" d="M4.8-8.3C4.8-8.4,4.8-8.3,4.8-8.3L4.8-8.3L4.8-8.3z"/>
									<path fill="#202020" d="M4.9-8.2C4.9-8.2,4.9-8.2,4.9-8.2C4.9-8.3,4.9-8.3,4.9-8.2C4.8-8.3,4.8-8.3,4.9-8.2
										C4.8-8.3,4.8-8.3,4.9-8.2C4.8-8.3,4.8-8.3,4.9-8.2C4.9-8.2,4.9-8.2,4.9-8.2z"/>
									<path fill="#202020" d="M6.6-8.2L6.6-8.2C6.6-8.2,6.6-8.2,6.6-8.2z"/>
									<path fill="#202020" d="M7.7-8.1C7.7-8.1,7.7-8.1,7.7-8.1C7.7-8.1,7.7-8.1,7.7-8.1z"/>
									<path fill="#202020" d="M7.9-8.1C7.9-8.1,7.8-8.1,7.9-8.1L7.9-8.1z"/>
									<path fill="#202020" d="M6.6-8.2L6.6-8.2C6.6-8.2,6.6-8.2,6.6-8.2z"/>
									<path fill="#202020" d="M5.1-8.2L5.1-8.2C5.1-8.2,5.1-8.2,5.1-8.2L5.1-8.2z"/>
									<polygon fill="#202020" points="6.1,-8.2 6.1,-8.2 6.1,-8.2 									"/>
									<path fill="#202020" d="M5.7-8.2C5.8-8.2,5.8-8.2,5.7-8.2C5.8-8.2,5.7-8.2,5.7-8.2C5.7-8.2,5.7-8.2,5.7-8.2z"/>
									<path fill="#202020" d="M5.2-8.1L5.2-8.1L5.2-8.1z"/>
									<path fill="#202020" d="M6.4-8.2L6.4-8.2L6.4-8.2z"/>
									<path fill="#202020" d="M12.8-9.4L12.8-9.4L12.8-9.4z"/>
									<polygon fill="#202020" points="12.4,-9.5 12.4,-9.5 12.4,-9.5 									"/>
									<path fill="#202020" d="M8.2-8.1L8.2-8.1C8.2-8.1,8.2-8.1,8.2-8.1z"/>
									<path fill="#202020" d="M11.3-8.7C11.2-8.7,11.3-8.8,11.3-8.7C11.3-8.8,11.2-8.7,11.3-8.7z"/>
									<path fill="#202020" d="M5.1-8.2L5.1-8.2C5.1-8.2,5.1-8.2,5.1-8.2z"/>
									<polygon fill="#202020" points="11.3,-8.8 11.3,-8.8 11.2,-8.8 									"/>
									<path fill="#202020" d="M9-8.2L9-8.2C9-8.2,9-8.2,9-8.2z"/>
									<path fill="#202020" d="M8.4-8.1L8.4-8.1C8.4-8.1,8.4-8.1,8.4-8.1z"/>
									<path fill="#202020" d="M9.3-8.3C9.3-8.3,9.3-8.3,9.3-8.3L9.3-8.3C9.3-8.3,9.3-8.3,9.3-8.3z"/>
									<polygon fill="#202020" points="9.6,-8.4 9.6,-8.4 9.6,-8.4 									"/>
									<path fill="#202020" d="M13.7-9.1C13.7-9.1,13.7-9.1,13.7-9.1C13.7-9.1,13.6-9.1,13.7-9.1z"/>
									<polygon fill="#202020" points="5.1,-8.2 5.1,-8.2 5.1,-8.2 									"/>
									<path fill="#202020" d="M9.3-8.5L9.3-8.5C9.3-8.5,9.3-8.5,9.3-8.5z"/>
									<path fill="#202020" d="M13.3-8.8L13.3-8.8L13.3-8.8z"/>
									<path fill="#202020" d="M9.4-8.5C9.5-8.5,9.5-8.5,9.4-8.5L9.4-8.5L9.4-8.5z"/>
									<path fill="#202020" d="M13.7-9.1L13.7-9.1L13.7-9.1z"/>
									<path fill="#202020" d="M13.4-9.3C13.4-9.3,13.4-9.3,13.4-9.3C13.3-9.3,13.3-9.3,13.4-9.3c-0.1-0.1-0.1-0.1-0.1-0.1
										c0,0-0.1,0-0.1,0c0,0,0.1,0,0-0.1c0,0-0.1,0-0.1,0c0,0,0,0-0.1,0c0,0,0,0,0,0c-0.1,0-0.1,0-0.2,0c0,0-0.1,0-0.1-0.1
										c0,0-0.1,0-0.1,0c0,0-0.1,0-0.1,0c0,0-0.1,0-0.1,0c0,0,0,0,0,0c0,0,0,0,0,0c0,0,0,0,0,0c0,0,0,0,0,0l0,0c0,0,0,0,0,0
										c0,0,0,0-0.1,0l0,0l0,0l0,0c-0.1,0-0.1-0.1-0.1-0.1l0,0c0,0,0,0,0,0c0,0,0,0,0.1-0.1c0.1,0,0,0,0.1,0l0.1,0l0,0
										c0,0,0,0,0,0c0,0,0.1,0,0.1,0l0,0c0.1,0,0.1,0,0.2,0l0.1,0l0,0c0,0,0,0,0.1,0c0.2,0.1,0.3,0.1,0.5,0.2c0,0,0,0,0,0
										c0.1,0.1,0.3,0.1,0.3,0.2l0,0c0,0,0,0,0,0c0,0,0,0,0-0.1c0,0,0,0,0,0c0,0,0,0,0,0c0-0.1,0-0.1,0-0.2c0,0,0-0.1,0.1-0.1
										c0,0,0,0,0,0c0,0,0,0,0-0.1c0,0,0,0,0,0.1l0,0c0,0,0,0,0,0c0,0,0,0,0,0c0,0,0,0,0,0c0,0,0-0.1,0-0.1c0,0,0,0,0,0
										c0,0,0,0,0,0l0,0l0,0c0,0,0-0.1,0-0.1c0,0,0,0,0,0c0,0,0,0,0,0.1c0,0,0,0,0,0c0,0,0-0.1,0-0.1c0,0,0,0,0,0c0,0,0,0,0,0
										c0,0,0.1,0,0.1,0c0,0,0,0,0,0c0,0,0,0-0.1,0.1c0,0,0,0,0,0.1l0,0c0,0,0,0,0,0.1c0,0,0,0,0,0c0,0.1,0,0.1,0,0.1l0,0
										c0,0,0,0.1,0,0.1c0,0,0,0.1,0,0.1c0,0,0,0,0,0c0,0.1-0.1,0.1-0.1,0.2l0,0c0,0,0,0.1,0,0.1l0,0c-0.1,0.1-0.1,0.1-0.1,0.1
										l0,0c0,0,0,0-0.1,0.1c-0.1,0-0.2,0.1-0.3,0.1l0,0c0,0-0.1,0-0.1,0l0,0c0,0,0,0-0.1,0c0,0,0,0,0,0c-0.1,0-0.3,0-0.3-0.1
										c-0.1,0-0.2,0-0.3,0l0,0c0,0-0.1,0-0.1-0.1c-0.1,0-0.1,0-0.2,0l0,0c0,0-0.1,0-0.1,0c0,0,0,0,0,0c0,0,0,0-0.1,0l0,0
										c-0.1,0-0.2,0-0.3,0c0,0,0,0,0,0c0,0-0.1,0-0.2,0l0,0c-0.1,0-0.1,0-0.1,0l0,0c0,0-0.1,0,0,0c0,0,0,0-0.1,0c0,0,0,0,0,0
										l-0.1,0c0,0,0,0,0,0c0,0-0.1,0,0,0c-0.1,0-0.2,0-0.3,0c0,0-0.2,0-0.2,0c-0.1,0-0.1,0-0.1,0.1c0,0,0,0,0,0c0,0-0.1,0-0.1,0
										c0,0,0.1,0,0.1-0.1c0,0-0.1,0-0.1,0.1l0,0c0,0,0,0-0.1,0l0,0c-0.1,0-0.1,0-0.1,0.1l0,0c0,0-0.1,0-0.1,0l0,0c0,0,0,0-0.1,0
										c0,0,0,0,0,0c0,0,0,0,0,0c0,0-0.1,0.1-0.1,0.1l0,0c-0.1,0-0.1,0.1-0.1,0.1l0,0c-0.1,0-0.1,0.1-0.1,0c0,0,0,0,0,0
										c-0.1,0,0,0.1-0.1,0.1c0,0,0,0,0,0c0,0-0.1,0-0.1,0.1c-0.1,0-0.2,0.1-0.2,0c0,0,0,0,0,0l0,0c0,0,0,0,0,0c0,0-0.1,0-0.1,0
										c0,0,0,0,0,0c0,0,0,0,0,0c-0.1,0-0.1,0.1-0.1,0.1l0,0c0,0-0.1,0-0.1,0c0,0,0,0,0,0c0,0-0.1,0-0.1,0l0,0
										c-0.1,0-0.1,0.1-0.2,0l0,0c0,0-0.1,0-0.1,0c0,0,0,0,0,0c0,0,0,0,0.1,0l-0.1,0l0.1,0c0,0,0,0,0,0c-0.1,0-0.1,0-0.1,0
										c0,0,0,0,0,0c0,0-0.1,0-0.1,0c0,0,0,0,0,0c0,0-0.1,0-0.1,0l0,0c0,0,0,0-0.1,0c0,0,0,0,0,0c0,0,0,0,0,0c-0.1,0,0,0-0.1,0
										l0,0c0,0,0,0,0,0c0.1,0,0,0,0,0c0,0-0.1,0-0.1,0c0,0,0,0,0,0c0,0,0,0,0,0l0,0c0,0,0,0,0,0l0,0c0,0-0.1,0-0.1,0c0,0,0,0,0,0
										c-0.1,0,0,0,0,0c-0.1,0,0,0-0.1,0c0,0,0,0,0,0c-0.1,0-0.1,0-0.1,0c0,0,0,0,0,0c0,0,0,0-0.1,0l0,0c0,0,0,0,0,0c0,0,0,0,0,0
										c0,0,0,0,0,0c0,0,0,0,0,0c-0.1,0-0.1,0-0.1,0c0,0-0.1,0-0.1,0c0,0,0.1,0,0,0c-0.1-0.1-0.1,0-0.2,0l0,0c0,0,0,0-0.1,0l0,0
										c0,0-0.1,0-0.1,0c0,0-0.1,0-0.1,0c0,0,0,0,0,0c0,0-0.1,0-0.1,0c0,0,0,0,0,0c0,0-0.1,0-0.1,0l0,0c-0.1,0-0.2,0-0.2,0l0,0
										l0,0l0,0l0,0c0,0-0.1,0-0.1,0c0,0,0,0,0,0c0,0,0,0,0,0c0,0,0,0,0,0c0,0,0,0,0,0c0,0,0,0-0.1,0c0,0,0,0,0,0c0,0,0,0,0,0
										c0,0,0,0,0,0l0,0c0,0,0,0,0,0c0,0,0,0,0,0c-0.1,0,0,0,0,0.1c-0.1,0-0.1,0-0.1,0l0,0c0,0,0,0,0,0l0,0c0,0,0,0,0,0
										c0,0-0.1,0-0.1,0l0,0c0,0-0.1,0-0.1,0c0,0-0.1,0-0.1,0c0,0-0.1,0-0.1,0c0,0,0,0,0,0c0,0-0.1,0-0.1,0c0,0,0,0,0,0
										c0,0-0.1,0-0.1,0c0,0,0,0,0,0c0,0,0,0,0,0l0,0l0,0c-0.1,0,0,0-0.1,0.1l0,0c0,0-0.1,0-0.1,0c0,0,0,0,0,0l0,0l0,0
										c0,0,0,0-0.1,0c0,0,0,0,0,0l0,0l0,0c0,0-0.1,0-0.1,0l0,0c0,0,0,0,0,0c0,0,0,0,0,0l0,0c0,0,0.1,0,0.1,0c0,0,0,0,0,0
										c0,0,0.1,0,0.1,0c0,0,0,0,0,0c0,0,0,0,0.1,0c0,0,0,0,0,0c0,0,0.1,0,0.1,0c0,0,0,0,0,0c0.1,0,0.1,0,0.1-0.1
										c0.1,0,0.2,0,0.2,0c0,0,0,0,0,0c0,0,0,0,0,0c0,0,0.1,0,0.1,0c0,0,0,0,0,0c0,0,0,0,0,0c0.1,0,0.1,0,0.1-0.1l0,0l0.1,0l0,0
										c0,0,0,0,0.1,0c0,0,0,0,0,0c0,0,0.1,0,0.1,0c0,0,0,0,0,0c0,0,0,0,0.1,0l0,0c0.1,0,0,0,0.1,0c0,0,0,0,0,0c0,0,0.1,0,0,0
										c0,0,0,0,0.1,0c0,0,0,0,0,0l0.1,0c0,0,0,0,0,0c0.1,0,0.2,0,0.3,0c0,0,0,0,0,0c0,0,0.1,0,0.1,0l0,0c0.1,0,0.2,0,0.2,0
										c0,0,0,0,0,0c0,0,0.1,0,0.1,0l0,0c0.1,0,0.2,0,0.3,0c0,0-0.1,0,0,0c0.1,0,0.1,0,0.2,0c0,0,0,0,0,0c0.1,0,0,0,0,0
										c0,0,0,0,0,0l0,0c0,0,0,0,0,0c0,0,0.1,0,0.1,0c0,0,0,0,0,0c0,0,0,0,0.1,0l0,0c0,0,0.1,0,0.1,0c0.1,0,0,0,0,0l0,0l0.1,0l0,0
										c0,0,0.1,0,0.1,0l0,0l0,0c0,0,0.1,0,0,0c0.1,0,0.1,0,0.2,0c0,0,0,0,0,0c0,0,0.1,0,0.1,0c0,0,0,0,0,0c0.1,0,0,0,0.1,0
										c0,0,0,0,0,0c0,0,0,0,0,0c0,0.1,0.1,0,0,0.1c0,0,0.1,0,0.1-0.1l0,0c0,0,0,0,0,0c0,0,0,0,0,0c0.1,0,0.2,0,0.3,0c0,0,0,0,0,0
										c0.1,0,0.1,0,0.2-0.1c0,0-0.1,0-0.1,0.1c0.1,0,0.2-0.1,0.3-0.1c0,0,0.1,0,0.2,0c0,0,0,0,0.1,0c0,0,0,0,0,0
										c0,0,0.1-0.1,0.1,0c0,0,0.1,0,0.1,0c0,0,0.1,0,0.1,0c0,0,0,0,0.1,0c0,0,0,0,0,0c0,0,0.1,0,0.1,0c0,0,0,0,0,0
										c0,0,0.1-0.1,0.1,0c0,0,0,0,0,0c0.1-0.1,0.3-0.1,0.4-0.1l0,0c0.1,0,0-0.1,0.1-0.1c0.2,0,0.4,0,0.6-0.1c0,0,0,0,0,0
										c0,0,0,0,0,0l0,0c0.1,0,0.2,0,0.3,0c0.1,0,0.1,0,0.2,0c0,0,0,0,0,0l0.1,0l0,0c0.1,0,0.2,0.1,0.3,0l0,0c0,0,0,0,0,0
										c0,0,0,0,0,0c0.1,0,0.1,0,0.2,0c0,0,0,0,0,0c0,0,0,0,0,0c0.1,0,0.1,0,0.2,0.1c0,0,0.1,0,0.1,0c0.1,0,0.1,0,0.2,0l0,0
										c0,0,0.1,0,0.1,0c0,0,0,0,0,0l0,0c0,0,0,0,0,0c0,0,0,0,0,0l0,0c0,0,0,0,0,0c0.1,0,0.2,0,0.2,0l0,0c0,0,0.1,0,0.1,0
										c0,0,0,0,0,0c0,0,0,0,0.1,0c0,0,0,0,0,0l0.1-0.1c0,0,0.1,0,0.1,0c0,0,0,0,0,0l0,0l0,0l0,0l0,0c0,0,0-0.1,0-0.1
										c0.1,0,0.1,0,0.1-0.1c0,0,0.1-0.1,0.1-0.1c0.1,0,0.1-0.2,0.2-0.3l0,0c0,0,0-0.1,0-0.1l0,0c0-0.1,0.1-0.2,0.1-0.2
										c0,0,0,0,0,0c0,0,0,0,0,0c0,0,0,0,0,0l0,0c0,0,0-0.1,0-0.1l0.2-0.4l0,0.4c0,0.1,0,0.1,0,0.2c0,0,0,0,0,0c0,0.1,0,0.2,0,0.2
										l0,0c0,0,0,0,0,0.1c0,0,0,0,0,0c0,0.1,0,0,0,0.1l0,0c0,0.1,0,0.1,0,0.1c0,0.1,0,0.1,0,0.1c0,0,0,0-0.1,0c0,0,0,0,0,0
										C13.8-9,13.8-9,13.7-9.1c0-0.1,0,0,0,0l0.1,0.1c0-0.1,0,0,0,0c0,0-0.1-0.1-0.1-0.1c0,0,0,0,0,0l0,0c0,0,0,0,0,0
										c0,0,0,0,0,0c0,0,0,0,0,0l0,0c0,0-0.1-0.1-0.1-0.1c0,0,0,0,0,0C13.5-9.2,13.5-9.2,13.4-9.3C13.5-9.2,13.5-9.3,13.4-9.3
										C13.4-9.3,13.4-9.2,13.4-9.3C13.4-9.2,13.4-9.2,13.4-9.3z M14.1-9.5C14.1-9.5,14.1-9.5,14.1-9.5L14.1-9.5
										C14.1-9.5,14.1-9.5,14.1-9.5z M14.1-9.6C14.1-9.6,14.1-9.6,14.1-9.6C14.1-9.6,14.1-9.6,14.1-9.6
										C14.1-9.6,14.1-9.6,14.1-9.6z M13.9-9.4L13.9-9.4C13.9-9.4,13.9-9.4,13.9-9.4C13.9-9.5,13.9-9.4,13.9-9.4L13.9-9.4z"/>
									<polygon fill="#202020" points="14,-9.4 14,-9.4 14,-9.4 14,-9.4 									"/>
									<polygon fill="#202020" points="6.6,-8.2 6.6,-8.2 6.6,-8.2 									"/>
									<polygon fill="#202020" points="13.4,-8.8 13.4,-8.8 13.4,-8.8 									"/>
									<path fill="#202020" d="M6.1-8.3L6.1-8.3L6.1-8.3z"/>
									<path fill="#202020" d="M5.8-8.3L5.8-8.3C5.8-8.3,5.8-8.3,5.8-8.3z"/>
									<polygon fill="#202020" points="5.7,-8.3 5.7,-8.3 5.7,-8.3 									"/>
									<path fill="#202020" d="M8.4-8.3L8.4-8.3C8.4-8.3,8.4-8.3,8.4-8.3z"/>
									<path fill="#202020" d="M7.6-8.2C7.6-8.2,7.6-8.2,7.6-8.2C7.6-8.2,7.6-8.2,7.6-8.2z"/>
									<polygon fill="#202020" points="9.2,-8.5 9.2,-8.5 9.3,-8.5 									"/>
									<path fill="#202020" d="M7.6-8.2C7.6-8.2,7.6-8.2,7.6-8.2C7.6-8.2,7.6-8.2,7.6-8.2z"/>
									<polygon fill="#202020" points="5,-8.2 5,-8.2 5,-8.2 									"/>
									<path fill="#202020" d="M5-8.2L5-8.2L5-8.2z"/>
									<path fill="#202020" d="M4.9-8.2L4.9-8.2C4.9-8.2,4.9-8.3,4.9-8.2z"/>
									<path fill="#202020" d="M5.2-8.2L5.2-8.2L5.2-8.2z"/>
									<path fill="#202020" d="M5.2-8.2C5.2-8.2,5.2-8.2,5.2-8.2L5.2-8.2C5.2-8.2,5.2-8.2,5.2-8.2z"/>
									<path fill="#202020" d="M5.5-8.2L5.5-8.2C5.5-8.2,5.5-8.1,5.5-8.2C5.5-8.1,5.4-8.2,5.5-8.2z"/>
									<path fill="#202020" d="M5.7-8.2C5.7-8.2,5.7-8.2,5.7-8.2C5.7-8.2,5.7-8.2,5.7-8.2z"/>
									<path fill="#202020" d="M7-8.2L7-8.2C7-8.2,7-8.2,7-8.2z"/>
									<polygon fill="#202020" points="7.2,-8.3 7.2,-8.3 7.2,-8.3 									"/>
									<polygon fill="#202020" points="7.4,-8.1 7.4,-8.1 7.4,-8.1 									"/>
									<path fill="#202020" d="M9.5-8.4L9.5-8.4C9.5-8.4,9.5-8.4,9.5-8.4z"/>
									<path fill="#202020" d="M10.4-8.7C10.4-8.7,10.5-8.7,10.4-8.7C10.5-8.7,10.4-8.7,10.4-8.7z"/>
									<polygon fill="#202020" points="13.2,-8.5 13.2,-8.5 13.2,-8.5 									"/>
								</g>
							</g>
						</g>
					</g>
				</g>
				<g>
					<g>
						<g>
							<g>
								<g>
									<path fill="#202020" d="M5.1-8.3C5.1-8.3,5.1-8.3,5.1-8.3L5.1-8.3L5.1-8.3z"/>
									<path fill="#202020" d="M5.3-8.2C5.3-8.2,5.3-8.3,5.3-8.2C5.3-8.3,5.3-8.3,5.3-8.2C5.2-8.2,5.2-8.3,5.3-8.2
										c-0.1,0-0.1,0-0.1,0C5.2-8.2,5.2-8.2,5.3-8.2C5.3-8.2,5.3-8.2,5.3-8.2z"/>
									<path fill="#202020" d="M7.4-8L7.4-8C7.4-8,7.4-8,7.4-8z"/>
									<path fill="#202020" d="M8.8-8.3C8.8-8.3,8.8-8.3,8.8-8.3C8.8-8.3,8.8-8.3,8.8-8.3z"/>
									<path fill="#202020" d="M9-8.4C9-8.4,9-8.4,9-8.4C9-8.4,9-8.4,9-8.4z"/>
									<path fill="#202020" d="M7.4-8L7.4-8C7.5-8,7.5-8,7.4-8z"/>
									<polygon fill="#202020" points="5.6,-8.3 5.5,-8.3 5.6,-8.3 									"/>
									<polygon fill="#202020" points="6.8,-8 6.8,-8 6.8,-8 									"/>
									<path fill="#202020" d="M6.4-8.1C6.4-8.1,6.4-8.1,6.4-8.1C6.4-8.1,6.4-8.1,6.4-8.1C6.4-8.1,6.4-8.1,6.4-8.1z"/>
									<path fill="#202020" d="M5.7-8.2L5.7-8.2C5.6-8.2,5.7-8.2,5.7-8.2z"/>
									<path fill="#202020" d="M7.2-8L7.2-8L7.2-8z"/>
									<path fill="#202020" d="M4.8-8L4.8-8L4.8-8z"/>
									<polygon fill="#202020" points="5.3,-8.2 5.3,-8.2 5.3,-8.2 									"/>
									<path fill="#202020" d="M9.4-8.4L9.4-8.4C9.4-8.4,9.4-8.4,9.4-8.4z"/>
									<path fill="#202020" d="M11-7.8C11.1-7.8,11-7.7,11-7.8C11-7.7,11.1-7.8,11-7.8z"/>
									<path fill="#202020" d="M5.6-8.3L5.6-8.3C5.6-8.3,5.6-8.3,5.6-8.3z"/>
									<polygon fill="#202020" points="11,-7.7 11,-7.7 11.1,-7.7 									"/>
									<path fill="#202020" d="M10.4-8.5L10.4-8.5C10.4-8.5,10.4-8.5,10.4-8.5z"/>
									<path fill="#202020" d="M9.7-8.5L9.7-8.5C9.7-8.5,9.7-8.5,9.7-8.5z"/>
									<path fill="#202020" d="M10.8-8.5C10.8-8.5,10.8-8.5,10.8-8.5L10.8-8.5C10.8-8.5,10.8-8.5,10.8-8.5z"/>
									<polygon fill="#202020" points="11.2,-8.5 11.2,-8.5 11.1,-8.5 									"/>
									<path fill="#202020" d="M5.6-7.2C5.6-7.2,5.6-7.2,5.6-7.2C5.6-7.2,5.5-7.2,5.6-7.2z"/>
									<path fill="#202020" d="M5.6-8.3C5.6-8.3,5.6-8.3,5.6-8.3C5.6-8.3,5.6-8.3,5.6-8.3L5.6-8.3z"/>
									<path fill="#202020" d="M10.8-8.7L10.8-8.7C10.8-8.7,10.8-8.7,10.8-8.7z"/>
									<path fill="#202020" d="M8.5-7.4L8.5-7.4C8.4-7.4,8.5-7.4,8.5-7.4z"/>
									<path fill="#202020" d="M11-8.7C11.1-8.7,11.1-8.7,11-8.7L11-8.7L11-8.7z"/>
									<path fill="#202020" d="M5.6-7.2L5.6-7.2L5.6-7.2z"/>
									<path fill="#202020" d="M5.2-7.3C5.1-7.3,5.2-7.3,5.2-7.3C5.1-7.3,5.1-7.4,5.1-7.3c0,0,0,0,0-0.1c0,0-0.1,0-0.1,0
										c0,0,0.1,0,0.1,0c0,0-0.1-0.1-0.1,0c0,0,0,0,0-0.1c0,0,0,0,0,0C4.8-7.6,4.8-7.8,4.7-7.8c0,0,0-0.2,0-0.1c0,0,0-0.1,0-0.1
										c0,0,0-0.1,0.1-0.1c0,0,0-0.1,0.1-0.1c0,0,0,0,0,0c0,0,0,0,0.1,0c0,0,0,0,0,0c0,0,0,0,0,0l0.1-0.1c0,0,0,0,0,0
										c0,0,0,0,0.1,0l-0.1,0l0,0l0.1,0c0.1,0.1,0.1,0.1,0,0.1l0,0c0,0,0,0,0,0c0,0-0.1,0-0.1,0c-0.1,0,0,0-0.1,0L5-8.1l0,0
										c0,0,0,0,0,0c0,0-0.1,0-0.1,0.1l0,0c0,0.1-0.1,0.1-0.1,0.2l0,0.1l0,0c0,0,0,0,0.1,0.1C5-7.5,5.2-7.4,5.4-7.3c0,0,0,0,0,0
										c0.2,0.1,0.3,0,0.4,0.1l0,0c0.1,0,0,0,0,0c0,0,0.1,0,0.2,0c0,0,0,0,0,0c0,0,0,0,0,0c0.1,0,0.2,0,0.3,0c0,0,0.1,0,0.1,0.1
										c0,0,0,0,0,0c0,0,0.1,0,0.1,0c0,0,0,0-0.1,0l0,0c0,0,0,0,0,0c0,0,0,0,0,0c0,0,0,0,0,0c0,0,0.1,0,0.1,0c0,0,0,0,0,0
										c0,0,0,0,0,0l0,0l0,0c0.1,0,0.1,0,0.2,0c0,0,0,0,0,0c0,0-0.1,0-0.1,0c0,0,0,0,0,0c0.1,0,0.1,0,0.2,0c0,0,0,0,0,0
										c0,0,0.1,0,0.1,0c0,0,0.1,0,0.1,0c0,0,0,0,0.1,0l0,0c0.1,0,0,0,0.1,0c0,0,0,0,0,0c0.1,0,0.1,0,0.1-0.1l0,0
										c0.1,0,0.2-0.1,0.2,0c0,0,0.1,0,0.2,0c0,0,0,0,0,0c0.1,0,0.2,0,0.3,0l0,0c0.1,0,0.1-0.1,0.1-0.1l0,0c0.1,0,0.1,0,0.2,0l0,0
										c0,0,0,0,0.1,0c0.1,0,0.3-0.1,0.4,0l0,0c0,0,0.1,0,0.1,0l0,0c0,0,0,0,0.1,0c0,0,0,0,0,0c0.1,0,0.3,0,0.4,0
										c0.1,0,0.2,0,0.4,0l0,0c0,0,0.1,0,0.1,0.1c0.1,0,0.2,0,0.3,0l0,0c0,0,0.1,0,0.1,0c0,0,0,0,0,0c0,0,0,0,0.1,0l0,0
										c0.1,0,0.2,0,0.3,0c0,0,0,0,0,0c0-0.1,0.2-0.1,0.2-0.1l0,0c0.1-0.1,0.1,0,0.2-0.1l-0.1,0c0,0,0.1,0,0.1,0c0,0,0,0,0.1,0
										c0,0,0,0,0,0l0.1,0c0,0,0,0,0,0c0,0,0.1,0,0-0.1c0.1-0.1,0.2-0.1,0.3-0.1c0.1,0,0.2-0.1,0.2,0c0.1,0,0.1-0.1,0.1-0.1
										c0,0,0,0,0,0c0,0,0.1-0.1,0.1-0.1c0,0-0.1,0.1-0.1,0.1c0.1,0,0.1-0.1,0.1-0.1l0,0c0,0,0,0,0.1-0.1l0,0c0-0.1,0-0.1,0-0.1
										l0,0c0,0,0,0,0-0.1l0,0c0,0,0,0,0-0.1c0,0,0,0-0.1,0c0,0,0,0,0,0c-0.1,0-0.1,0-0.2,0l0,0c-0.1,0-0.1,0-0.2,0l0,0
										c0,0-0.1,0-0.1,0c0,0,0.1,0,0,0c-0.1,0-0.1,0-0.1,0c0,0,0,0,0,0c-0.1,0-0.1,0-0.2,0c-0.1,0-0.2,0-0.3,0c0,0,0,0,0,0l0,0
										c0,0,0,0,0,0c0,0-0.1,0-0.1,0c0,0,0,0-0.1,0c0.1,0,0,0,0,0c-0.1,0-0.1,0-0.2,0l0,0c0,0-0.1,0-0.1,0c0,0,0,0,0,0
										c0,0-0.1,0-0.1,0l0,0c-0.1,0-0.2,0-0.2,0l0,0c-0.1,0-0.1,0-0.1,0c0,0,0,0,0,0c0,0,0.1,0,0.1,0l-0.1,0l0.1,0c0,0,0,0,0,0
										c-0.1,0-0.1,0-0.1,0c0,0,0,0,0,0c-0.1,0-0.1,0-0.1,0c0,0,0,0,0,0c0,0-0.1,0-0.1,0l0,0c0,0,0,0-0.1,0c0,0,0,0,0,0
										c0,0,0,0,0,0c-0.1,0,0,0.1-0.1,0c0,0,0,0,0,0c0,0,0,0,0,0c0.1,0,0,0,0.1,0c0,0-0.1,0-0.1,0c0,0,0,0,0,0c0,0,0,0,0,0l0,0
										c0,0,0,0-0.1,0l0,0c0,0-0.1,0-0.2,0c0,0,0,0,0,0c-0.1,0,0,0-0.1,0c-0.1,0,0,0-0.1,0c0,0,0,0,0,0c-0.1,0-0.1,0-0.2,0.1
										c0,0,0.1,0,0,0c0,0-0.1,0-0.1,0l0,0c0,0,0,0,0,0c0,0,0,0,0,0c0,0,0,0,0,0c-0.1,0,0,0,0,0.1c-0.1,0-0.1,0.1-0.1,0.1
										c0,0-0.1,0-0.1,0c0,0,0.1,0,0,0c-0.1,0-0.2,0.1-0.3,0.1l0,0c0,0,0,0-0.1,0l0,0c0,0-0.1,0-0.1,0c-0.1,0-0.1,0-0.1,0
										c0.1,0,0,0,0,0c-0.1,0-0.1,0-0.1,0c0,0,0,0,0,0c0,0-0.1,0-0.2,0l0,0C7.6-8,7.5-8,7.4-8l0,0l0,0l0,0l0,0c0,0-0.1,0-0.1,0
										c0,0,0,0,0,0c0,0,0,0-0.1,0c0,0,0,0-0.1,0c0,0,0,0,0,0c0,0,0,0-0.1,0c0,0,0,0,0,0c0,0,0,0,0,0c0,0,0,0,0,0l0,0c0,0,0,0,0,0
										c0,0,0,0,0,0c-0.1,0,0,0,0,0.1C7-8,6.9-8,6.9-8l0,0c0,0,0,0-0.1,0l0,0c0,0,0,0,0,0c0,0-0.1,0-0.1,0l0,0c-0.1,0-0.2,0-0.2,0
										c-0.1,0-0.1,0-0.1,0c0,0-0.1,0-0.1,0c0,0,0,0,0,0c0,0-0.1,0-0.1,0c-0.1,0,0,0,0,0c0,0-0.1,0-0.1,0c0,0,0,0,0,0c0,0,0,0,0,0
										l0,0l0-0.1c-0.1,0,0,0-0.1,0l0,0c0,0-0.1,0-0.1,0c0,0,0,0,0,0l0,0l0,0c0,0,0,0-0.1,0c0,0,0,0,0,0l-0.1,0l0,0
										c-0.1,0-0.1,0-0.2,0l0,0c0,0,0,0-0.1,0c0,0,0,0,0,0l0,0c0,0,0.1,0,0.1,0c0,0-0.1,0,0,0c0,0,0.1,0,0.1,0c0,0,0,0,0,0
										c0,0,0,0,0.1,0c0,0,0,0,0,0c0,0,0.1,0,0.1,0c0,0-0.1,0,0,0c0.1,0,0.1,0,0.2,0c0.1,0,0.2,0,0.3,0c0,0-0.1,0,0,0c0,0,0,0,0,0
										c0.1,0,0.1,0,0.1,0c0,0,0,0,0,0c0,0,0.1,0,0,0c0.1,0,0.1,0,0.2,0l0,0l0.1,0l0,0c0,0,0,0,0.1,0c0,0,0,0-0.1,0
										c0,0,0.1,0,0.1,0c0,0,0,0,0,0c0,0,0.1,0,0.1,0l0,0c0.1,0,0,0,0.1,0c0,0,0,0,0,0c0,0,0.1,0,0,0c0,0,0.1,0,0.1,0c0,0,0,0,0,0
										l0.1,0c0,0,0,0,0,0c0.1,0.1,0.3,0,0.4,0c0,0,0,0,0,0c0,0,0.1,0,0.2,0l0,0c0.1,0,0.2,0,0.3,0c0,0,0,0,0,0c0.1,0,0.1,0,0.1,0
										l0,0c0.1,0,0.2-0.1,0.3-0.1c0,0-0.1,0,0,0c0.1,0,0.1,0,0.2-0.1c0,0,0,0,0,0c0.1,0,0,0,0.1,0c0,0,0,0,0,0l0,0c0,0,0,0,0,0
										c0,0,0.1-0.1,0.1-0.1c0,0,0,0,0,0c0,0,0.1,0,0.1,0l0,0c0,0,0.1,0,0.1,0c0.1,0,0,0,0,0l-0.1,0l0.1,0l0,0c0,0,0.1,0,0.1-0.1
										l0,0l0.1,0c0,0,0.1,0,0,0c0.1,0,0.2,0,0.3-0.1c0,0,0,0,0,0c0.1,0,0.1,0,0.1,0c0,0,0,0,0,0c0.1,0,0,0,0.1,0c0,0,0,0,0,0
										c0,0,0,0,0,0c-0.1,0.1,0.1,0,0.1,0.1c0,0,0.1,0,0.1-0.1l0,0c0,0,0,0,0,0c0,0,0,0,0,0c0.1,0,0.2,0,0.3,0c0,0-0.1,0,0,0
										c0.1,0,0.2,0,0.3-0.1c0,0-0.1,0-0.1,0c0.1,0,0.2,0,0.4-0.1c0.1,0,0.1,0,0.2,0c0,0,0,0,0.1,0c0,0,0,0,0,0c0,0,0.2,0,0.2,0
										c0,0,0.1,0,0.1,0c0.1,0,0.1,0,0.2,0c0,0,0.1,0,0.1,0c0,0,0,0,0,0c0,0,0.1,0,0.1,0c0,0,0,0,0,0c0,0,0.1,0,0.1,0c0,0,0,0,0,0
										c0.2,0,0.4,0,0.5,0.2l0,0c0,0.1,0.1,0.1,0.1,0.2c-0.1,0.2-0.2,0.2-0.3,0.3c-0.1,0-0.2,0.1-0.3,0.1c0,0,0,0,0,0
										c0,0,0,0-0.1,0l0,0c-0.1,0-0.3,0.1-0.4,0.1c-0.1,0.1-0.2,0.1-0.3,0.1c0,0,0,0,0,0l-0.1,0.1l0,0c-0.1,0.1-0.3,0.1-0.4,0l0,0
										c0,0,0,0,0,0c0,0,0,0,0,0c-0.1,0-0.2,0-0.3,0c0,0,0,0,0,0c0,0,0,0,0,0c0,0-0.2,0-0.2,0c0,0-0.1,0-0.1,0c-0.1,0-0.1,0-0.2,0
										l0,0c0,0-0.1,0-0.1,0c0,0,0,0,0,0l0,0c0,0,0,0,0,0c0,0,0,0,0,0l0,0c0,0,0,0,0,0l-0.3,0l0,0c-0.1,0-0.1,0-0.2,0c0,0,0,0,0,0
										c-0.1,0,0,0-0.1,0c0,0,0,0,0,0l-0.1,0c0,0-0.1,0-0.1,0c0,0,0,0,0,0l0,0l0,0l0,0l0,0c0,0,0,0-0.1,0c-0.1,0-0.1,0-0.2,0
										c0,0-0.1,0-0.1,0.1c-0.1,0-0.3,0-0.4,0l0,0c-0.1,0-0.1,0-0.1,0l0,0c-0.1,0-0.2,0-0.3,0.1c0,0,0,0,0,0c0,0,0,0,0,0
										c0,0,0,0,0,0l0,0c-0.1,0-0.3,0-0.4,0c0,0,0,0,0,0c-0.1,0-0.2,0-0.3,0l0,0c0,0,0,0-0.1,0c0,0,0,0,0.1,0c-0.1,0-0.1,0-0.1,0
										l0,0c-0.1,0-0.1,0-0.1,0C6-7.1,6-7.2,5.9-7.2c0,0,0,0,0,0c-0.1,0-0.1,0-0.2,0c0,0,0,0,0,0l0.1,0c-0.1,0,0.1,0,0,0
										c0,0-0.1,0-0.2,0c0,0,0.1,0,0,0l0,0c0,0,0,0,0,0c0,0,0,0-0.1,0c0,0,0,0,0,0l0,0c-0.1,0-0.2,0-0.2,0c0,0,0,0,0,0
										C5.4-7.2,5.3-7.2,5.2-7.3C5.2-7.3,5.3-7.3,5.2-7.3C5.2-7.3,5.2-7.2,5.2-7.3C5.2-7.3,5.2-7.3,5.2-7.3z M6.6-7.2
										C6.6-7.2,6.6-7.2,6.6-7.2L6.6-7.2C6.6-7.2,6.6-7.2,6.6-7.2z M6.7-7.2C6.7-7.2,6.7-7.2,6.7-7.2L6.7-7.2
										C6.7-7.2,6.7-7.2,6.7-7.2z M6.4-7.3L6.4-7.3C6.5-7.3,6.5-7.3,6.4-7.3C6.5-7.3,6.5-7.3,6.4-7.3L6.4-7.3z"/>
									<polygon fill="#202020" points="6.4,-7.3 6.4,-7.3 6.4,-7.3 6.4,-7.3 									"/>
									<polygon fill="#202020" points="7.4,-8 7.4,-8 7.4,-8 									"/>
									<polygon fill="#202020" points="8.3,-7.4 8.3,-7.4 8.3,-7.4 									"/>
									<path fill="#202020" d="M6.8-8.1C6.8-8.1,6.8-8.1,6.8-8.1L6.8-8.1z"/>
									<path fill="#202020" d="M6.5-8.2L6.5-8.2C6.5-8.2,6.5-8.2,6.5-8.2z"/>
									<polygon fill="#202020" points="6.3,-8.2 6.3,-8.2 6.3,-8.2 									"/>
									<path fill="#202020" d="M9.6-8.6L9.6-8.6C9.7-8.6,9.7-8.6,9.6-8.6z"/>
									<path fill="#202020" d="M8.7-8.3C8.7-8.3,8.7-8.3,8.7-8.3C8.7-8.3,8.6-8.3,8.7-8.3z"/>
									<polygon fill="#202020" points="10.8,-8.7 10.8,-8.7 10.8,-8.7 									"/>
									<path fill="#202020" d="M8.7-8.4C8.7-8.4,8.7-8.4,8.7-8.4C8.7-8.4,8.7-8.4,8.7-8.4z"/>
									<polygon fill="#202020" points="5.4,-8.3 5.4,-8.3 5.4,-8.3 									"/>
									<path fill="#202020" d="M5.4-8.3L5.4-8.3C5.3-8.3,5.4-8.3,5.4-8.3z"/>
									<path fill="#202020" d="M5.3-8.3L5.3-8.3C5.3-8.3,5.3-8.3,5.3-8.3z"/>
									<path fill="#202020" d="M5.7-8.3L5.7-8.3L5.7-8.3z"/>
									<path fill="#202020" d="M5.7-8.3C5.7-8.3,5.7-8.3,5.7-8.3L5.7-8.3C5.7-8.3,5.7-8.2,5.7-8.3z"/>
									<path fill="#202020" d="M6.1-8.1L6.1-8.1C6-8.1,6-8.1,6.1-8.1C6.1-8.1,6-8.1,6.1-8.1z"/>
									<path fill="#202020" d="M6.3-8.1C6.3-8.1,6.3-8.1,6.3-8.1C6.3-8.1,6.3-8.1,6.3-8.1z"/>
									<path fill="#202020" d="M7.9-8L7.9-8C8-8,7.9-8,7.9-8z"/>
									<polygon fill="#202020" points="8.2,-8.2 8.2,-8.2 8.2,-8.2 									"/>
									<polygon fill="#202020" points="8.4,-8.1 8.4,-8.1 8.5,-8.1 									"/>
									<path fill="#202020" d="M11.1-8.5L11.1-8.5C11.1-8.5,11.1-8.5,11.1-8.5z"/>
									<path fill="#202020" d="M12-8.2C12-8.2,11.9-8.2,12-8.2C11.9-8.2,12-8.2,12-8.2z"/>
									<polygon fill="#202020" points="8.6,-7.6 8.6,-7.6 8.6,-7.6 									"/>
								</g>
							</g>
						</g>
					</g>
				</g>
			</g>
		</g>
		<polygon fill="none" points="17.8,0 0,0 0,-17.7 17.8,-17.7 		"/>
	</g>
</pattern>
<pattern  id="SVGID_1_" xlink:href="#New_Pattern_Swatch_7" patternTransform="matrix(0.49 0 0 0.49 -4158.5635 -4199.8833)">
</pattern>
<rect opacity="0.4" fill="url(#SVGID_1_)" width="72" height="72"/>
</svg>
