<?xml version="1.0" encoding="utf-8"?>
<!-- Generator: Adobe Illustrator 18.0.0, SVG Export Plug-In . SVG Version: 6.00 Build 0)  -->
<!DOCTYPE svg PUBLIC "-//W3C//DTD SVG 1.1//EN" "http://www.w3.org/Graphics/SVG/1.1/DTD/svg11.dtd">
<svg version="1.1" id="Layer_1" xmlns="http://www.w3.org/2000/svg" xmlns:xlink="http://www.w3.org/1999/xlink" x="0px" y="0px"
	 viewBox="0 0 144 144" enable-background="new 0 0 144 144" xml:space="preserve">
<g>
	<g>
		<g>
			<g>
				<g>
					<g>
						<path fill="#202020" d="M49,52.5c0-0.1-0.1,0-0.1,0.1l0.1,0.1C49.1,52.7,49,52.5,49,52.5z"/>
						<path fill="#202020" d="M49.5,53.4c0.2,0,0.5,0,0.4-0.2c-0.2,0.1-0.2,0-0.5,0c-0.2-0.1-0.2-0.2-0.2-0.2
							c-0.1,0-0.1-0.2-0.2-0.2C49,53.1,49.2,53.3,49.5,53.4C49.6,53.4,49.5,53.4,49.5,53.4z"/>
						<path fill="#202020" d="M57.5,58.6L57.5,58.6C57.5,58.5,57.5,58.5,57.5,58.6z"/>
						<path fill="#202020" d="M65.1,57.4c0-0.1-0.1-0.1-0.1-0.1C65.1,57.4,65.1,57.5,65.1,57.4z"/>
						<path fill="#202020" d="M66.1,59.2C66.1,59.1,66.1,59.1,66.1,59.2C66.1,59.1,66.1,59.2,66.1,59.2z"/>
						<path fill="#202020" d="M57.5,58.6c0,0,0.2,0.2,0.2,0.2C57.8,58.7,57.6,58.6,57.5,58.6z"/>
						<path fill="#202020" d="M50.6,54.4c0,0,0-0.1,0-0.1C50.6,54.3,50.6,54.4,50.6,54.4L50.6,54.4z"/>
						<path fill="#202020" d="M55.9,54L55.9,54c0-0.1,0-0.2,0-0.2L55.9,54z"/>
						<path fill="#202020" d="M55.8,56.2c0.1,0,0.1-0.1,0.1-0.2C55.9,56,55.8,56.1,55.8,56.2C55.8,56.1,55.8,56.1,55.8,56.2z"/>
						<path fill="#202020" d="M50.3,55.3l0-0.1C50.3,55.2,50.3,55.2,50.3,55.3z"/>
						<path fill="#202020" d="M56,56.8C56,56.8,56,56.9,56,56.8C56,56.9,56,56.8,56,56.8z"/>
						<path fill="#202020" d="M45.3,52.9C45.3,52.9,45.3,52.9,45.3,52.9C45.3,52.9,45.3,52.9,45.3,52.9z"/>
						<path fill="#202020" d="M49.2,53L49.2,53C49.2,53,49.2,53,49.2,53L49.2,53z"/>
						<path fill="#202020" d="M69.3,61C69.3,61,69.3,61,69.3,61C69.2,61,69.3,61,69.3,61z"/>
						<path fill="#202020" d="M79.6,41.6c0.2,0.3-0.6-0.3-0.2,0.1C79.4,41.6,80,42,79.6,41.6z"/>
						<path fill="#202020" d="M50.6,54.5c0,0,0,0.1,0,0.1C50.6,54.6,50.6,54.5,50.6,54.5z"/>
						<path fill="#202020" d="M79.4,41.7L79.4,41.7L79.4,41.7C79.5,41.7,79.5,41.7,79.4,41.7z"/>
						<path fill="#202020" d="M76.7,57.5C76.6,57.5,76.6,57.5,76.7,57.5C76.6,57.6,76.6,57.5,76.7,57.5z"/>
						<path fill="#202020" d="M71.5,60.8l0.2,0C71.6,60.8,71.6,60.8,71.5,60.8z"/>
						<path fill="#202020" d="M77.7,54.5c0-0.1,0.1-0.1,0-0.2l0,0C77.8,54.3,77.8,54.4,77.7,54.5z"/>
						<path fill="#202020" d="M79.5,54.5L79.5,54.5c-0.1,0-0.1,0-0.2,0L79.5,54.5z"/>
						<path fill="#202020" d="M46.1,45.8c0,0.1,0,0.1-0.1,0.2C46.1,45.9,46.3,46.6,46.1,45.8z"/>
						<path fill="#202020" d="M50.5,54.4C50.6,54.4,50.6,54.5,50.5,54.4L50.5,54.4C50.6,54.4,50.5,54.4,50.5,54.4z"/>
						<path fill="#202020" d="M77,54.2c0,0,0.1-0.2,0.1-0.5c0-0.2,0.1-0.5,0.1-0.5C77.1,53.5,77.1,53.9,77,54.2z"/>
						<path fill="#202020" d="M61.6,36.3l-0.1,0C61.5,36.3,61.6,36.3,61.6,36.3z"/>
						<path fill="#202020" d="M78.7,53.5c0.1,0.1,0.1,0.1,0.2,0.2c0,0,0,0,0.1,0C79,53.6,78.7,53.5,78.7,53.5z"/>
						<path fill="#202020" d="M46,46L46,46L46,46z"/>
						<path fill="#202020" d="M44,48.3c0.2-0.3,0-0.2,0-0.4c0.3-0.4,0.2-0.1,0.4-0.2c0.2-0.2,0.3-0.5,0.6-0.5c0,0,0.1,0,0,0
							c0.1-0.1,0.2-0.1,0.4-0.2C45.7,47,46,47,46.3,47c-0.1-0.3-0.2-0.7-0.3-0.9c0,0,0-0.1,0-0.1c0,0.1-0.1,0.1-0.2,0.1
							c-0.1-0.3-0.1-0.4-0.1-0.5c0,0.1,0.1,0.1,0.1,0.2l-0.1-0.2c0.1-0.2,0.1,0.3,0.2,0.3c-0.1-0.4-0.2-0.9-0.1-1.2
							c0.1-0.1,0,0.8,0.1,0.3c0,0,0,0.1,0,0.2c0,0.1,0,0.2,0,0.2c0.2-0.4,0,0.3,0.2-0.1c0-0.6-0.1-0.7,0.1-1.3c0-0.2-0.1,0-0.1-0.1
							c0.1-0.5,0.2-0.6,0.4-0.7c0.1-0.1,0.2-0.2,0.4-0.5c0-0.2-0.1-0.4,0.3-0.6l0,0.2c0.4-0.4,0.1-0.4,0.7-0.7
							c-0.1,0.1-0.4,0.3-0.3,0.3c0.4-0.2,0.2-0.2,0.5-0.4l0.1,0.1c0.6-0.3,1.3-0.6,2-0.6c0,0-0.2,0.1,0,0.1c0.4,0,0.9,0.1,1.3,0.2
							c0.5,0.1,1.6,1,2.3,1.5c-0.1-0.2-0.1-0.4-0.2-0.6c0,0-0.1-0.3-0.3-0.6c-0.1-0.2-0.2-0.5-0.2-0.5c0-0.2,0-0.3,0-0.1
							c-0.2-0.8-0.1-0.1-0.2-0.5c0-0.4,0-0.3,0.1-0.2c-0.1-0.3,0-0.7,0.1-1.1c0.1-0.4,0.4-0.8,0.6-1l-0.1,0.1
							c0.3-0.4,0.2-0.6,0.6-0.8l-0.1,0.1c0.9-0.7,2.1-1.2,3-1.1c0.1-0.2,1.1-0.1,1.2-0.3c0.7,0,0.5,0.1,1.4,0.1
							c0.3,0,0.4-0.1,0.7-0.2l0,0.1l0.4-0.1l0.2,0.1l0.3,0c-0.1,0-0.2-0.1-0.2-0.1c0.5,0,1,0.3,0.9,0.4c0,0,0.2,0.1,0.4,0.2
							C62.9,36.8,63,37,63,37c0,0-0.2-0.1-0.3-0.1c0.4,0.2,0,0.1,0.3,0.4c0-0.1,0.1,0,0.1,0c0,0.1,0.1,0.2,0.2,0.5
							c0.1,0.4,0.5,0.8,0.9,0.7l-0.2,0.1c0.2,0,0.4,0,0.5-0.1l0.4-0.2c0.2-0.1,0.4-0.2,0.6-0.2c0.4-0.2,0.8-0.3,1.2-0.4
							c-0.3,0-0.3-0.1,0-0.2l0.1,0.1c0.1-0.1-0.3,0,0-0.1c0.3-0.1,0.2,0.1,0.1,0.2l0.4-0.1c0,0-0.1,0.1-0.1,0.1
							c0.2-0.1,0.7,0,0.9-0.1l0,0c0.8,0,1.2,0,1.9,0.2c0-0.1,0.3,0,0.5,0c0.5,0.2,0.9,0.6,1.3,1c0.3,0.3,0.1,0,0.3,0.1
							c0,0.1,0.3,0.5,0.1,0.3c0.4,0.6,0.6,0.7,0.8,1.6c0-0.1,0-0.2,0.1-0.2c0,0.2,0,0.4,0,0.4c0,0,0,0,0,0c0,0,0,0,0,0
							c0.1,0.4,0,0.8,0,1.3c0.3-0.1,0.7-0.3,1.1-0.4c0.2-0.1,0.3-0.1,0.4-0.1c0.1,0,0.2,0,0.3-0.1c0.4-0.1,0.8-0.1,1.1-0.2l0,0
							c0,0,0.9-0.1,0.9-0.1c0.4,0.1-0.2,0,0,0.1c0.9,0,1.4,0.4,2,0.8c0.1,0.3,0.5,0.6,0.7,1.1c0.3,0.4,0.3,1,0.2,1.3l0.1,0
							c0,0.2-0.1,0.2-0.1,0.4c0.1,0,0.1-0.2,0.1-0.1c0,0.2-0.1,0.4-0.2,0.6l-0.1,0.1l-0.1,0.2c0,0.1-0.1,0.2-0.2,0.3
							c-0.1,0.1-0.2,0.2-0.3,0.3c0.1,0.4,0,0.5,0,0.5c0.1,0,0.1,0,0.4,0.4c0.1,0,0.2-0.1,0.2-0.1l0.2,0c0.1,0,0.2,0,0.3,0
							c0.2,0,0.2,0.1,0.3,0.1c0.2,0.1,0.3,0.2,0.4,0.3c0.3,0.2,0.5,0.5,0.6,0.7c0.2,0.5,0.5,0.2,0.5,1L82.1,49
							c0.2,0.6,0.2,1.3,0.2,2c0,0.7-0.1,1.4-0.3,1.9c0-0.1,0-0.1,0-0.2c-0.1,0.1-0.2,0.3-0.3,0.4c-0.1,0.2-0.2,0.3-0.2,0.3
							c-0.1,0.1-0.1,0-0.2,0c-0.2,0.1-0.5,0.4-0.7,0.3c0,0,0.1,0,0.1-0.1c-0.1,0.1-0.7,0.1-0.6,0.2c-0.5,0-0.9,0-1.2-0.2
							c-0.1,0-0.3-0.1-0.5-0.2c-0.3-0.2-0.6-0.5-0.6-0.4c0-0.1-0.2-0.3-0.5-0.6c-0.1,0.5-0.2,1.3-0.2,1.6c0-0.1,0,0-0.1,0.1
							c0,0.1-0.1,0.1-0.1,0.1c-0.1,0.4-0.1,0.7,0,0.6c-0.4,0.6-0.3,1.3-0.7,1.6c-0.4,1-1,1.8-1.7,2.4c-0.1-0.1,0.8-0.7,0.6-0.8
							c-0.6,0.7-0.9,1.1-1.7,1.5c-0.2,0.1,0.1-0.1,0.1-0.2c-0.8,0.5-1.6,0.7-2.4,0.9c0,0,0.1,0,0.2-0.1c-0.2,0-0.4,0-0.3,0.1l0.2,0
							c0.3,0.1-0.6,0.3-0.7,0.3c0.3-0.2-0.8-0.1-0.4-0.3c-0.1,0-0.2,0-0.2,0.1c-0.2,0-0.2-0.1,0-0.1c-0.6,0-0.4,0.1-0.9-0.1
							c0,0,0.1,0,0.2,0c-0.3,0-0.5,0-0.9-0.2c0,0,0-0.1,0.1,0c-0.7-0.3-1.2-0.5-1.8-1.1c0.3,0.1-0.2-0.2-0.1-0.4
							c0,0-0.1-0.1-0.2-0.2c-0.1-0.1-0.1-0.2-0.1-0.2l0.1,0.2c-0.2-0.3-0.5-0.6-0.6-0.9l0.2,0.2c0,0-0.1-0.2-0.2-0.3
							c-0.1-0.2-0.2-0.3-0.2-0.3l0.1,0.4c-0.2-0.3-0.1,0.1-0.3-0.4c0,0.1-0.1-0.4-0.1-0.6l0,0c-0.1-0.1-0.1-0.3-0.1-0.5
							c-0.1,0-0.1,0-0.2,0c0,0.1,0,0.1,0.1,0.2c0,0.1-0.2,0-0.2,0c0.1,0.1,0.1,0.3,0.1,0.5c0,0.2,0,0.4,0,0.6c0-0.1-0.1-0.1-0.1-0.1
							l0,0.2c-0.1,0.2-0.1,0.2-0.2,0.1c-0.3,0.4,0.3,0-0.2,0.4c0,0,0,0,0-0.1c-0.4,0.5-0.9,0.9-1.5,1.1c-0.2-0.1,0.5-0.2,0.2-0.3
							c-0.7,0.4-1.7,0.7-2.5,0.6l0.2,0c-0.1,0.2-0.6-0.1-1.1-0.1c0.1,0,0.2-0.1,0.1-0.1c-0.6-0.1-1.2-0.2-2-0.6l0.1,0
							c-0.3-0.2-0.7-0.5-0.9-0.8c-0.1,0-0.2-0.2-0.2-0.1c-0.3-0.5-0.5-0.9-0.7-1.4c-0.2-0.5-0.2-1-0.1-1.5c0,0.1,0,0.3,0,0.2
							c0,0,0.1-0.8,0.1-0.8c-0.1,0-0.1,0.1-0.2,0.2c0-0.1,0-0.4,0.1-0.6c-0.1,0.4,0.1,0,0.2-0.1c0,0,0,0-0.1,0
							c0.1-0.1,0.1-0.1,0.1-0.2c-0.1,0-0.2,0-0.2,0c0.1,0.1,0.2-0.1,0.3,0.3l-0.1,0c0.1,0.2,0.2,0.4,0.1,0.7c-0.1,0.1,0-0.2-0.1-0.3
							c0,0.3,0.1,0.7-0.2,0.9c0.1-0.1,0.2-0.3,0.2-0.5c-0.2,0.3-0.2,0.3-0.4,0.5l0,0c0,0-0.4,0.4-0.4,0.3l0.1-0.1
							c-0.2,0.5-0.7,0.5-1.2,0.9c0.5-0.4,0.1-0.1,0.1-0.2c-0.1,0-0.4,0.1-0.3,0c-0.2,0.2-0.4,0.1-0.8,0.3c0,0-0.3,0-0.2,0
							c-0.3,0.1,0.1,0.1,0.1,0.1c-0.5,0.2-1.3,0-2-0.2c-0.6-0.3-0.8-0.3-1.1-0.9c0-0.2,0.2,0.1,0.2,0.1c-0.1-0.3-0.2-0.6-0.3-0.9
							c0,0.1,0.1,0,0.1-0.1c0-0.1,0-0.2-0.1-0.2c0,0-0.1-0.1,0.1-0.4c0,0,0,0.2,0,0.3c0-0.4,0.5-1.1,0.7-1.3c0.3-0.3,0.2,0,0,0.2
							c0.1-0.2,0.3-0.4,0.5-0.6c0,0-0.1,0.1-0.1,0l0.1-0.1l0-0.1l0.1-0.2c-0.3,0.2-0.6,0.4-0.8,0.6c-0.1,0.1-0.3,0.2-0.4,0.3
							c-0.2,0.1-0.3,0.2-0.4,0.3c0,0,0.5-0.2,0.5-0.2c-0.2,0.1-0.2,0.1-0.1,0c0.1-0.1,0.3-0.2,0.7-0.5c0.2-0.1,0.3-0.3,0.5-0.4
							c-0.2,0.4-0.3,0.4-0.3,0.5c-0.1,0.1-0.3,0.2-0.3,0.3c0.1-0.1-0.2,0.1-0.1,0.1c-0.1,0.1-0.2,0.1-0.2,0.2c0,0-0.1,0.1-0.1,0.1
							c-0.1,0.1-0.1,0.2-0.2,0.3c-0.1,0.2-0.2,0.6-0.2,0.8c0,0-0.1-0.2-0.1-0.2c0,0,0.1,0.5,0.1,0.5c0,0.1-0.1,0.2-0.1,0
							c0,0.4,0.1,0.3,0.1,0.6c0,0,0,0,0,0c0,0,0.2,0.3,0.2,0.3c-0.1,0-0.1,0.1-0.1-0.1c0.2,0.6,0.7,0.7,0.8,1l0,0
							c0.4,0.2,0.4,0.2,0.4,0.1c0,0,0-0.1,0.3,0c0,0,0.3,0.4,0.3,0.4l0.1-0.1c0.1,0,0.3,0,0.2,0.1c0.3-0.1-0.1,0,0.1-0.1
							c0.4,0.1,1.1-0.1,1.2,0c0.1-0.1-0.4,0,0-0.1c0.2,0.2,0.5-0.2,0.9-0.2c-0.1,0.1-0.4,0.2,0,0.2c0.2-0.2,0.7-0.3,1-0.5
							c-0.1-0.1,0.6-0.4,0.9-0.9c0,0,0.2-0.2,0.3-0.5c0.1-0.3,0.1-0.8,0-1.1l0,0c-0.1,0-0.2-0.2-0.4-0.3l-0.1-0.1l-0.1,0.2
							c-0.1,0.2-0.2,0.4-0.2,0.5c-0.1,0-0.1-0.1,0-0.3c0,0,0,0.1-0.1,0.2c0,0.1-0.1,0.2-0.1,0.2c0,0.1,0,0.2,0,0.4l-0.1-0.1
							c-0.1,0.5-0.1,1,0,1.6c0.1,0,0.2-0.5,0.3,0.1c0,0-0.1,0.1-0.2-0.1c0,0.1,0.1,0.2,0.1,0.3l-0.1-0.2c0,0.3,0.1,0.1,0.1,0.3
							c-0.1,0,0,0.2-0.1,0.2c0-0.1,0-0.2-0.1-0.3c0,0.3,0.1,0.6,0.1,0.7c0,0,0.1,0,0.2,0.1c0.2,0.4,0,0.2,0.1,0.5
							c0.1,0.1,0.2,0.4,0.3,0.3c0.1,0.1,0.1,0.2,0.1,0.2c0.2,0.2,0.9,0.8,0.7,0.5l0,0l0,0l0,0l0,0c0.7,0.4,1.5,0.9,2.3,1l0,0
							c0.5,0.1,1.1,0.1,1.4,0c0.1,0,0.3,0,0.3,0.1c0.4-0.1,0.4-0.1,0.9-0.1c-0.4,0.1,0.1,0-0.4,0.1c0.5-0.1,0.6,0,1.1-0.3
							c-0.1,0.1,0.4,0,0.6-0.1l-0.3,0.1c0.2-0.1,0.4-0.2,0.7-0.3L63.8,59c0.5-0.2,0.8-0.6,1.1-1c0.2-0.4,0.3-0.8,0.5-1.2
							c0-0.3-0.2,0.6-0.2,0.3c0.2-0.4,0.2-1,0.2-1.2c0-0.1-0.1-0.2-0.1-0.3l-1.4-3.4l0.6,3.6c0.1,0.4,0.2,0.4,0.3,1
							c0-0.1,0.1-0.2,0.3,0.2c0.2,0.4,0.1,0.6-0.1,0.3c0-0.1-0.1-0.2,0-0.2c-0.1-0.1-0.2-0.3-0.1-0.1l0.1,0c0,0.2,0.3,0.8,0.2,0.7
							c0.2,0.3,0.1,0.1,0-0.1c0.2,0.6,0.5,0.8,0.9,1.3C66,59,66,58.9,66,59c0.6,0.7,0.3,0.2,0.8,0.6c0.2,0.3-0.2,0.1,0.3,0.4
							c0.3,0.2,0,0.1-0.1,0.1c0.5,0.2,0.9,0.6,1.2,0.7l-0.3-0.1c0.2,0.1,0.3,0.1,0.5,0.2l-0.1-0.1c0.2,0.1,0.3,0.1,0.3,0.2
							c0.2,0-0.1-0.2,0.3-0.1c0.2,0.1,0.7,0.1,0.7,0.2c-0.7-0.2,0.1,0.1-0.5,0c0.1,0,0.3,0,0.4,0.1c0,0,0,0-0.1,0
							c0.7,0.2,0.3-0.1,1.1,0c-0.1,0.1,0.2,0.1,0.3,0.1c-0.3,0-0.1-0.1,0.1-0.2c0.5,0,0.5-0.1,0.7-0.1l-0.3,0
							c0.1-0.1,0.3-0.1,0.6-0.2c0,0-0.3,0.1-0.2,0.1c0.3-0.2,0.8-0.1,1.2-0.3c0.2,0,0.1,0.1,0.3,0.1c0.5-0.3,0.6-0.2,1.1-0.5
							c-0.2,0-0.2,0.1,0.1-0.2c0,0-0.2,0.1-0.4,0.3c-0.2,0.1-0.4,0.2-0.4,0.2s0.1-0.1,0.2-0.2c0.1-0.1,0.2-0.2,0.2-0.2
							c-0.2,0.1-0.5,0.3-0.7,0.4c0.2-0.2,0.2-0.2,0.1-0.2c0.4-0.1,0.6-0.4,1-0.6l0.1,0.2c0.6-0.3,0.9-0.8,1.5-1.5l-0.2,0.2
							c0-0.1,0.3-0.4,0.5-0.7c0,0.1,0.2-0.1,0.3-0.1c0,0,0.3-0.5,0.3-0.7l0.3-0.3c0.3-0.6,0.1-0.8,0.4-1.4c0,0.2,0.2-0.1,0.1,0.4
							c0.1-0.2,0.1-0.4,0.1-0.4c0.1-0.1,0.1-0.6,0.2-0.8c0,0-0.1-0.1-0.1-0.3c0,0,0,0,0,0c0,0,0-0.3-0.1-0.2c0.1,0,0.1-0.2,0.1-0.1
							c0.1,0.1,0.2,0.2,0.3,0.3c0,0,0.1,0.1,0.2,0.1c0.1,0,0.2,0.1,0.3,0.1c0.4,0.2,0.7,0.2,0.9,0.4c0.5,0.1,1.1,0,1.6-0.2
							c0,0,0,0-0.1,0.1c0.3-0.1,0.4-0.2,0.5-0.3c0.1-0.1,0.2-0.2,0.5-0.4c0.4-0.2-0.3,0.3-0.1,0.2c0.1,0.1,0.3-0.1,0.5-0.3
							c0.2-0.2,0.3-0.5,0.5-0.7l0,0.1c0.2-0.3,0.2-0.9,0.2-1.5c0,0,0,0,0,0c-0.1-0.4-0.1-1.2-0.2-1.7c0.1,0.2,0.1,0.3,0.1,0.1
							c0-0.3-0.1,0.1-0.2-0.4c0-0.2,0-0.5,0.1-0.6c0,0,0,0.1,0,0.2c0,0.1,0,0.2,0,0.2c0.1-0.3-0.1-0.6-0.2-0.9l0.1,0
							c-0.1-0.4-0.2-0.5-0.4-0.7c-0.1-0.2-0.3-0.3-0.5-0.6l0,0.1c-0.4-0.2-0.2-0.3-0.6-0.5l0-0.2c-0.2-0.1-0.7-0.2-1-0.2
							c-0.1,0-0.3,0-0.4,0c0.1,0,0.3-0.1,0.4-0.1c0.1,0,0.2,0,0.3,0c0.2,0,0.3,0.1,0.4,0.1c-0.1,0-0.2-0.1-0.4-0.1
							c-0.2,0-0.2,0-0.3,0c-0.1,0-0.1,0-0.2,0c0.1,0,0.1,0,0.2,0c0,0,0,0,0,0l-0.1,0c-0.2,0.1-0.6,0.1-0.9,0.3c0,0,0.1-0.1,0.1-0.1
							c0.3-0.1,0.5-0.2,0.6-0.4c0.1-0.1,0.4-0.7,0.5-0.8c0.1-0.5,0.1-1.1,0-1.6c-0.1-0.6-0.3-1.1-0.8-1.6c0.1,0.5-0.2-0.3-0.4-0.1
							c-0.2-0.2-0.3-0.2-0.3-0.3c0,0-0.6-0.6-0.6-0.6c-0.1-0.2,0.3,0.1,0.3,0c-0.5-0.3-0.2-0.2-0.5-0.5c0,0.1-0.2,0-0.6-0.1
							c0,0,0.4,0.3,0.4,0.3c-0.8-0.2-0.7-0.4-1.6-0.4l0.3,0c-0.5-0.1-1.7,0-2.1,0.3c-0.1,0-0.2,0,0-0.1c-0.3,0.1-0.6,0.2-0.8,0.3
							c-0.1,0-0.1,0.1-0.2,0.2c0-0.3-0.1-0.6-0.1-0.8l0.1,0.1c-0.1-0.2-0.2-0.3-0.2-0.6c0,0,0.1,0.1,0,0c-0.1-0.1-0.3-0.4-0.4-0.7
							l0.2,0.2c-0.5-1-1.1-1.2-1.8-1.6c0.1-0.1-0.6-0.6-1-0.8l0,0c-1.2-0.4-2.1-0.3-3.1-0.1c-0.7-0.1-2.2,0.4-3.2,0.7
							c0.1,0,0.1,0,0.1,0.1c0,0,0,0.1-0.1,0.1c0,0-0.1,0-0.2,0c-0.1,0-0.1-0.1,0-0.1l0,0c0,0,0-0.1,0-0.1l0,0c0,0,0-0.1,0-0.2
							c-0.1-0.2-0.2-0.5-0.4-0.7l-0.2,0.1c-0.3-0.5-1-0.9-1.7-1.1c-0.7-0.1-1.2-0.1-1.5-0.2c-0.3,0-0.6,0.1-0.8,0.1l0-0.1
							c-0.7,0-1,0-1.9,0.1l0.2-0.1c-0.5,0.1-0.6,0.4-1,0.5l-0.2-0.1c-0.8,0.2-1.8,0.4-2.4,1c0,0,0-0.1,0.1-0.2c-0.4,0.2-1.3,1-1.1,1
							c-0.1-0.1-0.6,0.7-0.7,1.2l-0.1-0.1c0,0.4,0,0.4-0.1,1c0,0.1-0.1,0.1,0-0.1c-0.1,0.4,0,0.4,0,0.9c0,0,0,0,0-0.1
							c0-0.1,0-0.1,0-0.1c0,0.3,0,0.2,0.1,0.5c0,0.1,0.1,0.3,0.1,0.3c0,0.1-0.1,0-0.1-0.1c0-0.1-0.1-0.1-0.1-0.1c0,0.1,0,0.1-0.2,0
							c0,0,0-0.1,0-0.1c-0.1-0.1-0.2-0.1-0.2-0.1c-0.1,0-0.3-0.1-0.4-0.1c-0.2,0-0.5-0.1-0.7-0.2c0,0,0-0.1-0.1-0.1
							c0.6,0.1,1.1,0.3,1,0.2c0-0.1-0.4-0.2,0-0.3c-0.4-0.1-1.1,0-1.6-0.1c0,0,0,0-0.1,0l0.1,0c-0.1,0-0.2,0-0.3,0
							c-0.2,0-0.3,0-0.4,0c-0.1-0.1-0.6,0.1-0.8,0.1c0,0.1-0.3,0.2,0,0.2c0,0,0,0,0.2-0.1c0,0,0.1,0,0.1,0l0,0
							c0.2,0,0.4-0.1,0.6-0.1c-0.2,0.1-0.4,0.1-0.6,0.2c-0.1,0.1-0.2,0.2-0.3,0.2c-0.4-0.1-1,0.2-1.1,0.2c-0.6,0.4-1.3,1.2-1.4,1.8
							c-0.1,0.2-0.2,0.2-0.2,0.2c0-0.1,0.1-0.2,0.1-0.3c-0.2,0.4-0.5,1.2-0.4,1.3c-0.2,0.5-0.1-0.3-0.2,0.4l0-0.1
							c-0.3,0.9,0,1.8,0.2,2.3c-0.1,0-0.3,0-0.4,0.1c-0.2,0-0.5,0.1-0.7,0.2c0.1,0,0.2-0.1,0.2-0.1c-0.9,0.4-1.5,1.2-1.7,2.1
							c-0.3,0.9-0.2,1.9,0.1,2.7c0.2,0.5,0.3,0.5,0.5,0.7l0,0.2c0,0,0.4,0.3,0.4,0.3c0.6,0.4,0.9,1.1,1.9,1.2l-0.1-0.1
							c0.3,0.1,1.1,0.1,1,0.2c0,0,0.1-0.1,0.2,0l0,0.1c0,0,0.8-0.2,0.8-0.2c0.6-0.1,0,0.3,0.9,0c0.3-0.2,0.8-0.7,0.7-0.6
							c-0.1,0.1-0.3,0.2-0.4,0.1l0.2-0.2c0-0.2,0-0.4-0.6-0.2c0,0-0.4,0.3-0.4,0.3l-0.2,0c0,0,0.1,0,0.2-0.1c0.1,0,0.2-0.1,0.2-0.1
							c-0.2,0-0.3,0.1-0.5,0.2c0,0-0.1,0-0.2,0c0,0-0.4,0.2-0.4,0.2c-0.1-0.1,0.2-0.2-0.1-0.2c-0.2,0.1,0.2,0.1-0.1,0.2
							c-0.2-0.1-0.2-0.1-0.4-0.1c0,0,0-0.1,0.1-0.1c-0.2,0-0.6,0-0.8,0c-0.2-0.1-0.8-0.3-0.7-0.4c-0.1,0-0.4-0.1-0.6-0.2
							c0.2,0,0-0.1-0.1-0.2c-0.2-0.2-0.4-0.4-0.2-0.4c-0.3-0.1-0.7-0.8-0.9-1.3c0,0,0.1,0.1,0.1,0.1c-0.1-0.3,0-0.4,0-0.5
							c-0.2,0-0.2-0.5-0.3-0.7c0.2-0.3,0.1,0.2,0.3,0.1c-0.1,0,0-0.6-0.1-0.5c0.2-0.2,0.1-0.2,0.3-0.3c-0.1-0.1,0.1-0.2,0.1-0.5
							c0.3-0.3,0.2,0,0.4-0.4C44.2,47.9,44,48.3,44,48.3z M50.2,40.9L50.2,40.9c-0.1,0-0.2,0-0.2,0C50,40.9,50.1,40.9,50.2,40.9z
							 M51.1,41c-0.1,0-0.2-0.1-0.4-0.1c0,0,0-0.1,0.1-0.1C50.8,40.9,51,41,51.1,41z M49.1,40.3c0.2,0,0.2,0,0.2,0
							C49.2,40.3,49.1,40.3,49.1,40.3L49.1,40.3C49,40.3,49,40.3,49.1,40.3z"/>
						<path fill="#202020" d="M48.8,40.5C48.8,40.5,48.8,40.5,48.8,40.5C48.8,40.5,48.8,40.5,48.8,40.5L48.8,40.5L48.8,40.5z"/>
						<path fill="#202020" d="M57.4,58.5L57.4,58.5C57.4,58.5,57.4,58.4,57.4,58.5C57.4,58.4,57.4,58.5,57.4,58.5z"/>
						<polygon fill="#202020" points="60.6,36.2 60.6,36.2 60.5,36.2 						"/>
						<path fill="#202020" d="M56.5,53.7C56.5,53.7,56.5,53.7,56.5,53.7C56.6,53.6,56.5,53.6,56.5,53.7z"/>
						<path fill="#202020" d="M56.3,55.2L56,55.3C56.1,55.3,56.2,55.2,56.3,55.2z"/>
						<path fill="#202020" d="M54.9,56C54.9,56.1,54.9,56.1,54.9,56L54.9,56L54.9,56z"/>
						<path fill="#202020" d="M71.3,60.2L71.3,60.2C71.5,60.1,71.4,60.1,71.3,60.2z"/>
						<path fill="#202020" d="M65.1,56.4c0,0.1,0.1,0.2,0.1,0.2C65.2,56.5,65.2,56.4,65.1,56.4z"/>
						<polygon fill="#202020" points="77,54.2 77,54.2 77,54.2 						"/>
						<path fill="#202020" d="M65.4,57c0-0.1-0.1-0.3-0.1-0.4C65.3,56.7,65.3,56.9,65.4,57z"/>
						<path fill="#202020" d="M52.4,51.7l-0.8,0.5c0,0-0.1,0.1-0.2,0.1L52.4,51.7z"/>
						<path fill="#202020" d="M51.5,52.4l-0.5,0.4C51.1,52.6,51.3,52.5,51.5,52.4z"/>
						<path fill="#202020" d="M50.2,53.2c0,0,0.1-0.1,0.3-0.2l0.1-0.1c0.1,0,0.1-0.1,0.2-0.1c0.1-0.1,0.2-0.1,0.2-0.1
							c-0.1,0.1-0.2,0.1-0.3,0.2l-0.2,0.1C50.4,53.1,50.3,53.2,50.2,53.2z"/>
						<path fill="#202020" d="M50.7,55.1L50.7,55.1C50.7,55.1,50.7,55.1,50.7,55.1z"/>
						<path fill="#202020" d="M51,55.6c-0.1-0.1-0.1-0.4-0.2-0.5l0,0C50.8,55.1,50.8,55.5,51,55.6z"/>
						<path fill="#202020" d="M53.4,56.9c0,0-0.2,0-0.3,0c-0.2,0-0.3,0-0.3,0c0.1,0,0.3,0.1,0,0.1C53.6,57.1,52.6,56.9,53.4,56.9z"
							/>
						<path fill="#202020" d="M55.3,56.4C55,56.5,55.3,56.4,55.3,56.4C55.5,56.3,55.5,56.3,55.3,56.4z"/>
						<path fill="#202020" d="M61.5,59.6L61.5,59.6C61.7,59.6,61.5,59.6,61.5,59.6z"/>
						<polygon fill="#202020" points="63.7,58.4 63.5,58.4 63.5,58.6 						"/>
						<path fill="#202020" d="M65.2,57.6l0,0.1c0,0,0.2-0.5,0.2-0.5C65.3,57.3,65.2,57.6,65.2,57.6z"/>
						<path fill="#202020" d="M78.9,54.5l0-0.1C78.7,54.3,78.6,54.4,78.9,54.5z"/>
						<path fill="#202020" d="M82.1,47.3c0-0.1-0.2-0.4-0.4-0.4C81.8,47,82,47.2,82.1,47.3z"/>
						<path fill="#202020" d="M63.3,36.1l0.2,0.1c0,0-0.4-0.2-0.4-0.2L63.3,36.1z"/>
					</g>
				</g>
			</g>
		</g>
	</g>
	<g>
		<g>
			<g>
				<g>
					<g>
						<g>
							<path fill="#202020" d="M41.3,57.7c-0.1-0.1-0.2,0-0.2,0.3c0,0,0.3,0.2,0.3,0.1c0,0-0.1-0.1-0.1-0.2
								C41.3,57.8,41.3,57.7,41.3,57.7z"/>
							<path fill="#202020" d="M42.4,59.8c0.5,0.1,1.1-0.1,0.8-0.4c-0.4,0.2-0.5,0-1.1,0.1c-0.4-0.2-0.5-0.5-0.4-0.5
								c-0.1,0-0.3-0.4-0.5-0.5c0,0.5,0.5,1.1,1.2,1.2C42.6,59.7,42.4,59.8,42.4,59.8z"/>
							<path fill="#202020" d="M60.2,71.2L60,71C60,71.1,60.1,71.1,60.2,71.2z"/>
							<path fill="#202020" d="M77,68.7c-0.1-0.2-0.1-0.2-0.2-0.2C76.9,68.6,77,68.8,77,68.7z"/>
							<path fill="#202020" d="M79.2,72.6c-0.1-0.1-0.1-0.1-0.2-0.2C79.1,72.5,79.2,72.5,79.2,72.6z"/>
							<path fill="#202020" d="M60.2,71.2c0,0,0.5,0.5,0.5,0.5C60.8,71.6,60.4,71.4,60.2,71.2z"/>
							<path fill="#202020" d="M44.8,62c0-0.1,0-0.2-0.1-0.3C44.7,61.8,44.7,61.9,44.8,62C44.7,62,44.8,62,44.8,62z"/>
							<path fill="#202020" d="M56.5,61l0.1-0.2c0-0.1,0-0.1,0-0.2L56.5,61z"/>
							<path fill="#202020" d="M56.4,65.9c0.2-0.1,0.1-0.3,0.1-0.4c0,0.1-0.1,0.3-0.3,0.4C56.2,65.8,56.3,65.8,56.4,65.9z"/>
							<path fill="#202020" d="M44.2,63.9c0,0-0.1-0.2-0.1-0.2C44.1,63.7,44.2,63.8,44.2,63.9z"/>
							<path fill="#202020" d="M56.7,67.3c0,0,0,0.1,0,0.1C56.7,67.4,56.7,67.4,56.7,67.3z"/>
							<path fill="#202020" d="M33,58.6C33,58.6,33,58.6,33,58.6C33,58.6,33,58.6,33,58.6z"/>
							<path fill="#202020" d="M41.8,58.8l-0.1,0.1c0,0,0,0.1,0,0.1L41.8,58.8z"/>
							<path fill="#202020" d="M86.4,76.7C86.4,76.7,86.4,76.7,86.4,76.7C86.1,76.6,86.2,76.7,86.4,76.7z"/>
							<path fill="#202020" d="M109.2,33.5c0.5,0.7-1.3-0.7-0.4,0.3C108.8,33.6,110,34.3,109.2,33.5z"/>
							<path fill="#202020" d="M44.7,62.2c0,0.1,0,0.2,0,0.3C44.8,62.3,44.7,62.2,44.7,62.2z"/>
							<path fill="#202020" d="M108.8,33.8L108.8,33.8l0.1,0.1C108.9,33.9,108.9,33.8,108.8,33.8z"/>
							<path fill="#202020" d="M102.6,68.9c-0.1,0-0.1,0.1-0.2,0.1C102.5,69,102.5,68.9,102.6,68.9z"/>
							<path fill="#202020" d="M91.2,76.2l0.3,0C91.4,76.2,91.3,76.2,91.2,76.2z"/>
							<path fill="#202020" d="M105,62.1c0-0.1,0-0.1,0.1-0.2c0-0.1,0-0.2,0-0.2c0,0,0,0,0,0C105.1,61.8,105.1,61.9,105,62.1z"/>
							<path fill="#202020" d="M109,62.2c0,0-0.1,0-0.1-0.1c-0.1,0-0.2,0-0.2,0c0,0,0.1,0,0.2,0.1C108.9,62.2,109,62.2,109,62.2z"/>
							<path fill="#202020" d="M34.7,42.9c-0.1,0.1-0.1,0.3-0.1,0.4c0.1-0.1,0.2,0.3,0.3,0.4c0,0.1,0,0.1,0,0c0-0.1,0-0.2-0.1-0.3
								C34.8,43.2,34.7,43,34.7,42.9z"/>
							<path fill="#202020" d="M44.6,62c0.1,0,0.1,0.1,0.1,0.2C44.7,62.1,44.7,62,44.6,62C44.7,62,44.7,61.9,44.6,62z"/>
							<path fill="#202020" d="M103.4,61.5c0,0.1,0.1-0.5,0.2-1c0.1-0.5,0.2-1.1,0.2-1.1c0,0.3-0.1,0.6-0.2,1c0,0.2-0.1,0.4-0.1,0.6
								l-0.1,0.3L103.4,61.5z"/>
							<path fill="#202020" d="M69.2,21.7l-0.2,0C69,21.7,69.1,21.7,69.2,21.7z"/>
							<path fill="#202020" d="M107.3,59.9c0.1,0.1,0.3,0.3,0.5,0.4c0,0,0.1,0,0.1,0C107.8,60.3,107.3,59.9,107.3,59.9z"/>
							<path fill="#202020" d="M34.6,43.3L34.6,43.3L34.6,43.3z"/>
							<path fill="#202020" d="M30.2,48.3c0.5-0.7,0-0.5,0-0.8c0.3-0.5,0.5-0.5,0.6-0.5c0.1,0,0.1,0.2,0.3,0.1
								c0.4-0.5,0.8-1,1.2-1.2c0.1,0,0.2,0,0.1,0.1c0.1-0.1,0.2-0.1,0.3-0.2c0.1,0,0.1-0.1,0.2-0.1c0.1,0,0.2-0.1,0.3-0.1
								c0.6-0.1,1.4-0.1,2.1-0.2c-0.1-0.4-0.3-0.8-0.4-1.1c-0.1-0.4-0.2-0.6-0.4-0.9c0-0.1,0-0.2,0-0.2c-0.1,0.2-0.2,0.2-0.4,0.2
								c0-0.1-0.1-0.3-0.1-0.4c0-0.1-0.1-0.2-0.1-0.3c0-0.2-0.1-0.3,0-0.4c0,0.3,0.1,0.3,0.2,0.4l-0.1-0.5c0.2-0.5,0.2,0.7,0.4,0.6
								c-0.3-0.9-0.5-2-0.3-2.7c0.1-0.1,0.1,0.4,0.1,0.7c0,0.3,0,0.5,0.2,0.1c0,0,0,0.3-0.1,0.5c0,0.3,0,0.6,0,0.6
								c0.4-0.9,0,0.7,0.4-0.1c0-0.7,0-1.1,0-1.5c0-0.4,0-0.8,0.2-1.5c-0.1-0.3-0.2,0-0.3-0.3c0.2-1,0.5-1.3,0.8-1.6
								c0.3-0.2,0.5-0.4,0.8-1.1c0.1-0.4-0.1-0.8,0.8-1.4c0,0,0,0.5,0,0.5c0.5-0.5,0.6-0.7,0.7-0.9c0.1-0.2,0.2-0.4,0.9-0.7
								c-0.2,0.2-0.8,0.7-0.6,0.6c0.9-0.3,0.4-0.5,1.1-0.9l0.3,0.2c1.2-0.7,2.8-1.3,4.5-1.3c-0.1,0.1-0.4,0.1,0,0.2
								c0.9,0,1.9,0.1,2.9,0.5l0.3,0.1c0.2,0.1,0.4,0.2,0.7,0.3c0.4,0.3,0.9,0.5,1.4,0.9c0.9,0.7,1.9,1.4,2.8,2
								c-0.1-0.4-0.3-0.8-0.4-1.3c0,0-0.3-0.6-0.6-1.2c-0.3-0.6-0.5-1.1-0.5-1.1c-0.1-0.4-0.1-0.7,0.1-0.2c-0.1-0.4-0.2-0.7-0.2-0.8
								c0-0.1,0-0.1-0.1-0.1c0,0.1-0.1,0.2-0.2-0.2c-0.1-0.4,0-0.6,0-0.7c0,0,0.1,0,0.1,0.1c-0.1-0.6-0.1-1.6,0.2-2.5
								c0.3-0.9,0.9-1.8,1.4-2.3l-0.1,0.3c0.8-0.8,0.5-1.3,1.4-1.9l-0.1,0.2c1.9-1.5,4.7-2.6,6.7-2.5c0.3-0.4,2.5-0.2,2.7-0.7
								c1.5,0.1,1.1,0.2,3.2,0.3c0.6,0,0.8-0.3,1.5-0.4l0,0.2c0,0,0.2-0.1,0.5-0.1c0.2-0.1,0.5-0.1,0.5-0.1l0.4,0.3l0.6,0
								c-0.2-0.1-0.5-0.2-0.4-0.2c0.5,0,1.1,0.2,1.5,0.4c0.4,0.2,0.7,0.4,0.6,0.5c0,0,0.5,0.2,1,0.4c0.5,0.2,0.8,0.6,0.8,0.6
								c-0.1,0-0.4-0.2-0.6-0.3c0.9,0.5,0,0.3,0.8,0.8c0-0.1,0.2,0,0.2,0c0,0.1,0.1,0.3,0.2,0.4c0,0.1,0.1,0.2,0.1,0.3
								c0,0.1,0.1,0.2,0.1,0.4c0.1,0.5,0.3,0.9,0.7,1.2c0.4,0.3,0.8,0.4,1.2,0.4c0,0-0.3,0.2-0.3,0.2c0.4,0,0.8,0,1.2-0.2
								c0.3-0.1,0.5-0.2,0.8-0.3c0.4-0.2,0.8-0.4,1.3-0.5c0.9-0.3,1.8-0.7,2.7-0.9c-0.7,0.1-0.6-0.2-0.1-0.4l0.3,0.2
								c0.3-0.2-0.6,0,0.1-0.3c0.7-0.1,0.5,0.2,0.1,0.4l0.9-0.2c0.1,0.1-0.1,0.1-0.2,0.2c0.3-0.2,1.5,0.1,2-0.2l0.1,0.1
								c1.9,0,2.7,0,4.2,0.4c0.1-0.2,0.6,0,1.1,0c1,0.5,2,1.3,3,2.2c0.7,0.6,0.3,0.1,0.7,0.3c-0.1,0.2,0.8,1.2,0.2,0.8
								c0.5,0.6,0.8,1.1,1,1.5c0.3,0.5,0.5,1,0.8,2c0.1-0.2,0-0.5,0.1-0.4c0.1,0.2,0.1,0.4,0.1,0.6c0,0.1,0,0.1,0,0.2
								c0,0.1,0,0.1-0.1,0.1c0,0,0-0.1,0-0.1c0,0,0,0,0,0c0.1,0.9,0.1,1.8,0,2.8c0.7-0.3,1.5-0.6,2.4-0.9c0.5-0.2,0.7-0.2,0.9-0.2
								c0.2-0.1,0.5-0.1,0.7-0.1c1-0.2,1.8-0.3,2.5-0.5l-0.1,0c0,0,0.5-0.1,1-0.1c0.5-0.1,1-0.1,1-0.1c0.9,0.1-0.5,0.1,0.1,0.3
								c1,0,1.8,0.2,2.5,0.5c0.7,0.3,1.3,0.7,2,1.1c0.3,0.6,1.1,1.4,1.6,2.4c0.6,1,0.8,2.2,0.5,2.9l0.2-0.1c0.1,0.4-0.1,0.5-0.2,0.8
								c0.1,0,0.2-0.4,0.2-0.2c0,0.4-0.2,0.9-0.3,1.3l-0.1,0.3c0,0.1-0.1,0.1-0.1,0.1c0,0.1-0.1,0.2-0.2,0.3l-0.2,0.3l-0.3,0.3
								c-0.2,0.2-0.4,0.4-0.6,0.6c0.3,0.9,0.1,1.1,0,1.2c0.2-0.1,0.3-0.1,0.9,0.8c0.2-0.1,0.4-0.2,0.5-0.2l0.4,0c0.2,0,0.5,0,0.7,0
								c0,0,0.1,0,0.2,0l0.1,0l0.1,0c0.1,0,0.2,0.1,0.3,0.1c0.3,0.1,0.7,0.3,1,0.6c0.6,0.4,1.1,1,1.4,1.7c0.3,0.6,0.5,0.7,0.7,0.9
								c0.2,0.2,0.4,0.4,0.5,1.4l-0.4-0.4c0.5,1.3,0.5,2.9,0.4,4.5c-0.1,1.6-0.2,3.1-0.7,4.3c0-0.2,0-0.2,0.1-0.4
								c-0.1,0.1-0.2,0.3-0.3,0.4c-0.1,0.2-0.2,0.4-0.3,0.5c-0.2,0.3-0.5,0.6-0.4,0.7c-0.3,0.2-0.2-0.1-0.4,0
								c-0.2,0.1-0.5,0.3-0.8,0.5c-0.3,0.1-0.5,0.3-0.7,0.2c-0.1,0,0.1-0.1,0.2-0.1c-0.3,0.2-1.7,0.2-1.3,0.4c-1-0.1-2-0.1-2.7-0.5
								c-0.1,0-0.3,0-0.5-0.1c-0.1,0-0.2-0.1-0.3-0.1c-0.1-0.1-0.2-0.1-0.4-0.2c-0.3-0.2-0.6-0.5-0.9-0.7c-0.2-0.2-0.4-0.3-0.5-0.2
								c0-0.2-0.5-0.7-1.2-1.4c-0.1,0.5-0.2,1.3-0.2,1.9c-0.1,0.7-0.1,1.3-0.1,1.7c0-0.2-0.1,0.1-0.2,0.3c-0.1,0.1-0.1,0.3-0.2,0.1
								c-0.2,0.8-0.3,1.5-0.1,1.4c-0.8,1.3-0.7,2.9-1.6,3.4c-0.9,2.2-2.2,4-3.9,5.4c-0.1-0.2,0.4-0.5,0.8-0.9
								c0.4-0.4,0.8-0.8,0.6-0.9c-1.3,1.5-2,2.5-3.8,3.4c-0.5,0.2,0.2-0.3,0.3-0.4c-1.7,1.1-3.6,1.5-5.3,1.9c0,0,0.2-0.1,0.4-0.1
								c-0.3,0.1-0.8,0-0.8,0.2l0.3-0.1c0.3,0.1,0,0.2-0.5,0.4c-0.4,0.1-1,0.2-1,0.3c0.3-0.2-0.1-0.3-0.6-0.3
								c-0.4-0.1-0.7-0.2-0.3-0.4c-0.2,0-0.5,0.1-0.5,0.2c-0.3-0.1-0.4-0.1-0.1-0.2c-1.2-0.1-0.8,0.2-2-0.1c0-0.1,0.3,0,0.4-0.1
								c-0.6,0-1.2,0-2.1-0.5c0.1,0,0-0.1,0.3,0c-0.8-0.3-1.4-0.6-2.1-0.9c-0.7-0.3-1.3-0.8-1.9-1.5c0.6,0.2-0.4-0.5-0.2-0.8
								c0,0-0.2-0.2-0.3-0.3c-0.2-0.2-0.3-0.4-0.3-0.4l0.1,0.4c-0.5-0.7-1.1-1.2-1.3-2l0.4,0.5c0,0-0.2-0.4-0.4-0.7
								c-0.2-0.4-0.3-0.7-0.3-0.7s0.1,0.2,0.1,0.4c0.1,0.2,0.1,0.4,0.1,0.4c-0.5-0.8-0.3,0.2-0.7-0.9c0.1,0.2-0.3-0.9-0.2-1.3l0,0
								c-0.2-0.3-0.2-0.6-0.3-1.1c-0.1,0-0.2,0.1-0.4,0.1c0,0.1,0.1,0.3,0.1,0.4c0,0.2-0.3,0-0.4,0.1c0.2,0.1,0.3,0.6,0.3,1.1
								c0,0.5-0.1,1-0.1,1.3c0-0.2-0.1-0.2-0.2-0.2c0,0,0.1,0.4,0.1,0.4c-0.2,0.3-0.3,0.4-0.4,0.3c-0.3,0.5-0.2,0.5-0.1,0.4
								c0.1,0,0.2,0-0.3,0.5c0.1-0.1,0-0.1,0.1-0.3c-0.9,1.1-2,2-3.3,2.3c-0.5-0.1,1-0.5,0.5-0.6c-1.7,0.8-3.7,1.5-5.6,1.4l0.4,0
								c-0.3,0.4-1.4-0.2-2.3-0.2c0.2,0,0.3-0.2,0.3-0.2C64.3,72,63,71.9,61.2,71l0.3,0c-0.6-0.4-1.6-1.1-2.1-1.7
								c-0.3-0.1-0.5-0.5-0.5-0.1c-0.6-1.1-1.1-2.1-1.5-3.2c-0.4-1.1-0.5-2.3-0.1-3.3c0,0.3,0,0.6,0,0.4c0,0,0-0.5,0.1-0.9
								c0.1-0.5,0.2-0.9,0.2-0.9c-0.2,0.1-0.2,0.2-0.4,0.5c0-0.3,0-0.8,0.2-1.3c-0.2,0.9,0.3,0.1,0.5-0.2c-0.1,0-0.1-0.1-0.1-0.1
								c0.2-0.2,0.2-0.3,0.3-0.3c-0.2,0-0.4,0.1-0.5,0.1c0.1,0.1,0.2,0,0.3,0c0.1,0,0.3,0.1,0.4,0.7l-0.1,0c0.2,0.4,0.4,0.9,0.3,1.5
								c-0.2,0.2,0-0.5-0.2-0.6c0,0.7,0.2,1.6-0.4,2.1c0.1-0.3,0.3-0.7,0.4-1c-0.5,0.6-0.5,0.6-0.8,1.1l0,0c0,0-0.2,0.2-0.4,0.4
								c-0.2,0.2-0.5,0.4-0.5,0.4l0.3-0.1c-0.2,0.5-0.6,0.8-1,1.1c-0.5,0.3-1,0.5-1.6,0.9c1.1-0.8,0.1-0.3,0.1-0.5
								c-0.3,0.1-0.8,0.2-0.7,0.1c-0.5,0.4-1,0.2-1.7,0.6c-0.1-0.1-0.6,0.1-0.5-0.1c-0.7,0.2,0.2,0.1,0.2,0.2
								c-0.6,0.2-1.3,0.2-2.1,0.1c-0.8-0.1-1.5-0.4-2.3-0.6c-0.7-0.3-1-0.5-1.4-0.7c-0.4-0.3-0.7-0.5-1.1-1.2
								c-0.1-0.5,0.4,0.2,0.4,0.2c-0.3-0.7-0.4-1.2-0.6-1.9c0.1,0.1,0.1,0,0.2-0.2c0-0.3-0.1-0.4-0.1-0.5c0-0.1-0.1-0.3,0.2-0.8
								c0,0.1,0,0.2,0,0.3c0,0.1,0,0.4,0.1,0.4l0-0.1c0-0.1,0-0.1,0-0.2c0-0.1,0.1-0.3,0.2-0.4l0.2-0.4l0.3-0.5
								c0.2-0.3,0.3-0.6,0.5-0.8c0.2-0.3,0.3-0.4,0.4-0.6c0.4-0.3,0.5-0.4,0.4-0.2c0,0.1-0.3,0.5-0.4,0.7c0.2-0.2,0.4-0.5,0.6-0.8
								c0.1-0.2,0.3-0.4,0.5-0.6c0.1-0.1-0.2,0.1-0.1,0c0.1-0.1,0.1-0.2,0.1-0.3l0-0.1c0.1-0.1,0.2-0.3,0.3-0.4
								c-0.6,0.5-1.3,0.9-1.8,1.3c-0.3,0.2-0.7,0.5-0.9,0.7c-0.2,0.2-0.4,0.3-0.6,0.4c-0.1,0.1-0.2,0.1-0.3,0.2c0,0,0.2,0,0.5-0.2
								c0.3-0.1,0.5-0.2,0.6-0.3c-0.1,0.1-0.2,0.1-0.2,0.1c0,0-0.1,0-0.1,0c0,0,0.1-0.1,0.2-0.2c0.2-0.2,0.6-0.5,1.5-1.2
								c0.4-0.3,0.8-0.6,1.1-0.8l-0.2,0.2c-0.1,0.1-0.1,0.2-0.1,0.2c0,0,0,0.1-0.1,0.1c-0.1,0.1-0.1,0.2-0.2,0.3
								c-0.1,0.1-0.1,0.1-0.1,0.1c0,0-0.1,0.1-0.1,0.1c-0.4,0.3-0.6,0.5-0.7,0.6c0,0,0,0,0-0.1c0,0,0,0,0,0L46,58.8
								c-0.1,0-0.1,0.1-0.2,0.1c-0.1,0,0,0-0.1,0c-0.3,0.3-0.4,0.3-0.4,0.4c-0.1,0.1-0.1,0.1-0.2,0.2c-0.2,0.2-0.3,0.4-0.4,0.7
								c-0.1,0.3-0.2,0.6-0.3,1c-0.1,0.4,0,0.6-0.1,0.9c0,0-0.3-0.4-0.3-0.4c-0.1,0,0.3,1.1,0.3,1.1c0,0.2-0.2,0.4-0.3-0.1
								c0,0.8,0.2,0.6,0.3,1.3c0,0.1,0,0.1-0.1,0c0,0,0.1,0.2,0.2,0.3c0.1,0.2,0.2,0.3,0.2,0.3c-0.1-0.1-0.1,0.2-0.3-0.2
								c0.2,0.7,0.6,1.1,1,1.4c0.4,0.3,0.6,0.5,0.8,0.7L46,66.4c0.9,0.5,0.9,0.4,1,0.3c0-0.1,0-0.2,0.7-0.1c0,0,0.7,0.8,0.8,0.8
								l0.2-0.2c0.2,0,0.6,0.1,0.5,0.2c0.7-0.1-0.1-0.1,0.3-0.2c0.9,0.3,2.5-0.3,2.8,0c0.3-0.3-0.9,0.1,0-0.3
								c0.4,0.3,1.1-0.4,1.9-0.5c-0.2,0.3-1,0.5-0.1,0.4c0.3-0.5,1.6-0.6,2.2-1c-0.1-0.3,1.4-0.9,2-2.1c0,0.1,0.4-0.4,0.6-1.2
								c0.2-0.7,0.2-1.7-0.1-2.4l0.1,0c-0.2-0.1-0.4-0.4-0.8-0.7l-0.3-0.3l-0.2,0.4c-0.2,0.4-0.4,0.8-0.5,1.2
								c-0.2-0.1-0.2-0.3,0-0.7c0,0-0.1,0.2-0.2,0.4c-0.1,0.2-0.1,0.4-0.1,0.4c0,0.2,0,0.5-0.1,1l-0.2-0.3c-0.3,1.1-0.1,2.2-0.1,3.6
								c0.2,0,0.4-1.1,0.7,0.2c-0.1,0.1-0.3,0.2-0.4-0.2c0,0.1,0.2,0.4,0.2,0.7c0,0-0.1-0.1-0.2-0.3c-0.1-0.1-0.1-0.3-0.1-0.3
								c0,0.6,0.2,0.3,0.3,0.8c-0.2,0,0,0.4-0.1,0.3c-0.1-0.1-0.1-0.4-0.2-0.6c0.1,0.6,0.2,1.2,0.2,1.5c0.1-0.1,0.2-0.1,0.4,0.3
								c0.5,1,0,0.4,0.3,1c0.1,0.1,0.2,0.3,0.4,0.5c0.1,0.2,0.3,0.3,0.4,0.2c0.2,0.2,0.1,0.4,0.2,0.5c0.2,0.2,0.7,0.7,1.1,1
								c0.4,0.3,0.7,0.5,0.5,0.2l-0.1-0.1c0,0,0,0,0.1,0l0,0l0,0c0.8,0.4,1.6,0.9,2.4,1.3c0.8,0.4,1.7,0.7,2.6,0.8l0,0.1
								c1.1,0.1,2.4,0.2,3.1,0c0.3,0,0.7,0.1,0.6,0.2c0.8-0.1,0.9-0.2,2.1-0.3c-0.8,0.3,0.3,0.1-0.8,0.3c1.1-0.1,1.3,0,2.4-0.6
								c-0.3,0.3,0.9,0,1.3-0.3c0,0-0.2,0-0.4,0.1c-0.2,0-0.4,0.1-0.4,0.1c0.5-0.2,1-0.4,1.5-0.7l-0.1,0.4c1.1-0.4,1.9-1.3,2.4-2.1
								c0.5-0.9,0.7-1.7,1.1-2.6c-0.1-0.3-0.1,0-0.2,0.3c-0.1,0.3-0.2,0.6-0.3,0.3c0.2-0.5,0.3-1,0.4-1.5c0.1-0.5,0.1-0.9,0-1.1
								c0-0.2-0.1-0.4-0.2-0.6l-3.1-7.6l1.4,8c0.2,0.9,0.5,1,0.8,2.2c0-0.2,0.2-0.4,0.6,0.5c0.3,0.9,0.2,1.3-0.2,0.7
								c-0.1-0.2-0.1-0.3-0.1-0.3c-0.2-0.3-0.3-0.7-0.3-0.3l0.1,0.1c0.1,0.5,0.8,1.8,0.5,1.6c0.5,0.6,0.3,0.2,0.1-0.3
								c0.5,1.2,1.1,1.8,1.9,2.8c-0.1-0.2-0.2-0.4,0-0.3c0.6,0.8,0.8,0.9,1,0.9c0.2,0,0.2,0,0.8,0.4c0.5,0.6-0.4,0.1,0.7,0.8
								c0.6,0.5,0,0.3-0.3,0.2c1.1,0.5,2,1.3,2.6,1.6l-0.7-0.2c0.4,0.1,0.7,0.2,1,0.4l-0.3-0.3c0.3,0.2,0.7,0.3,0.6,0.3
								c0.4,0-0.2-0.4,0.6-0.3c0.5,0.2,1.5,0.2,1.6,0.5c-1.6-0.4,0.1,0.3-1.2,0.1c0.3,0,0.6,0.1,1,0.2c0.1,0-0.1,0-0.2,0
								c0.8,0.2,1,0.2,1.1,0.1c0.2-0.1,0.4-0.2,1.2-0.2c-0.2,0.1,0.4,0.3,0.6,0.2c-0.7,0-0.3-0.2,0.3-0.4c1,0,1.1-0.2,1.6-0.2
								l-0.6,0c0.2-0.2,0.7-0.2,1.3-0.4c0.1,0.1-0.6,0.2-0.3,0.2c0.7-0.4,1.8-0.1,2.7-0.7c0.5-0.1,0.1,0.2,0.6,0.1
								c1-0.7,1.3-0.4,2.4-1.2c-0.4,0-0.4,0.1,0.2-0.5c0,0-0.4,0.3-0.9,0.6c-0.4,0.3-0.9,0.6-0.9,0.6s0.3-0.2,0.5-0.4
								c0.3-0.2,0.5-0.4,0.5-0.4c-0.5,0.3-1.1,0.7-1.5,0.9c0.5-0.4,0.5-0.3,0.1-0.4c0.9-0.1,1.4-0.9,2.3-1.3l0.2,0.4
								c1.4-0.7,2-1.9,3.3-3.3c0,0-0.1,0.1-0.2,0.2c-0.1,0.1-0.2,0.2-0.2,0.2c0-0.3,0.7-0.9,1-1.5c0.1,0.1,0.4-0.1,0.6-0.3
								c-0.1,0,0.8-1.2,0.6-1.5l0.6-0.7c0.7-1.4,0.3-1.8,0.8-3.2c0,0.5,0.3-0.1,0.1,0.9c0.2-0.5,0.3-0.9,0.2-0.9
								c0.2-0.2,0.2-1.4,0.4-1.8c0-0.1-0.2-0.2-0.1-0.6c0,0,0.1,0.1,0.1,0.1c-0.1,0,0-0.7-0.2-0.6c0-0.1,0.1-0.1,0.1-0.2l0.1-0.1
								l0-0.1c0,0,0,0,0.1,0.1c0.2,0.2,0.4,0.4,0.6,0.6c0.1,0.1,0.2,0.1,0.4,0.2c0.2,0.1,0.4,0.2,0.6,0.3c0.8,0.4,1.6,0.5,2.1,0.8
								c1.1,0.1,2.5,0,3.5-0.3c0,0.1,0,0.1-0.2,0.1c0.7-0.1,0.9-0.4,1-0.6c0.2-0.2,0.4-0.4,1-0.8c0.8-0.3-0.6,0.7-0.1,0.4
								c0.2,0.1,0.7-0.2,1-0.7c0.2-0.2,0.4-0.6,0.5-0.8c0.2-0.3,0.3-0.6,0.5-0.8l-0.1,0.3c0.5-0.8,0.4-2.1,0.5-3.3c0,0,0,0.1,0.1,0
								c-0.2-0.9-0.2-2.6-0.3-3.8c0.2,0.4,0.1,0.6,0.3,0.3c-0.1-0.6-0.3,0.2-0.5-0.9c0.1-0.4,0-1.2,0.2-1.3c0,0,0.1,0.3,0.1,0.5
								c0.1,0.3,0.1,0.5,0.1,0.5c0.2-0.6-0.2-1.4-0.4-1.9l0.1,0c-0.3-0.8-0.5-1.2-0.8-1.5c-0.3-0.4-0.6-0.7-1.2-1.4l0.1,0.2
								c-0.4-0.3-0.6-0.4-0.7-0.6c-0.1-0.2-0.2-0.4-0.7-0.5l-0.1-0.4c-0.2-0.1-0.6-0.2-1-0.3c-0.2-0.1-0.5-0.1-0.7-0.1
								c-0.2,0-0.3,0-0.5,0c-0.3,0-0.6,0-0.8,0.1c0.3-0.1,0.6-0.2,0.9-0.2c0.1,0,0.2,0,0.3,0c0.1,0,0.1,0,0.3,0
								c0.3,0,0.7,0.1,0.9,0.2c-0.2-0.1-0.5-0.2-0.9-0.3c-0.2-0.1-0.2-0.1-0.3-0.1c-0.1,0-0.2,0-0.2,0c-0.2,0-0.3,0-0.4,0.1
								c0.1,0,0.3-0.1,0.4-0.1c0,0,0.1,0,0.1,0c0,0-0.1,0-0.1,0c-0.5,0.1-1.3,0.2-1.9,0.6c0,0,0.2-0.1,0.3-0.2
								c0.6-0.3,1.1-0.6,1.4-0.9c0.2-0.1,0.8-1.5,1.1-1.9c0.2-1.2,0.3-2.4,0.1-3.6c-0.2-1.2-0.8-2.5-1.7-3.5c0.3,1-0.5-0.6-0.8-0.1
								c-0.5-0.4-0.6-0.6-0.7-0.6c0,0-0.3-0.3-0.7-0.7c-0.3-0.3-0.7-0.6-0.7-0.6c-0.3-0.3,0.6,0.2,0.6,0.1c-1.2-0.7-0.4-0.5-1.2-1
								c0.1,0.2-0.5,0-1.3-0.3c0,0,0.3,0.1,0.5,0.3c0.2,0.1,0.5,0.3,0.5,0.3c-0.9-0.2-1.3-0.4-1.7-0.6c-0.4-0.2-0.8-0.4-1.8-0.3
								c0,0,0.2,0,0.3-0.1c0.2,0,0.3,0,0.3,0c-0.5,0-1.4-0.1-2.4,0c-0.9,0.1-1.8,0.4-2.2,0.6c-0.2,0-0.4-0.1,0-0.2
								c-0.6,0.1-1.2,0.3-1.9,0.6c-0.1,0.1-0.3,0.2-0.5,0.3c0-0.2,0-0.3-0.1-0.5c-0.1-0.5-0.1-0.9-0.2-1.3l0.2,0.1
								c-0.1-0.4-0.4-0.7-0.5-1.3c0.1,0,0.2,0.1,0.1-0.1c-0.1-0.2-0.7-1-0.9-1.5l0.4,0.4c-0.5-1.1-1.2-1.7-1.8-2.2
								c-0.7-0.5-1.4-0.9-2.2-1.4c0.2-0.3-1.3-1.3-2.2-1.7l0,0c-1.3-0.5-2.4-0.6-3.6-0.6c-1.1,0-2.2,0.1-3.4,0.3
								c-0.8-0.1-2,0.1-3.4,0.4c-1.3,0.3-2.7,0.9-3.8,1.2c0.2,0,0.2,0,0.1,0.1c-0.1,0.1-0.1,0.2-0.2,0.2c-0.1,0-0.3,0.1-0.4,0
								c-0.1-0.1-0.1-0.2,0-0.3l0,0.1c0-0.1,0.1-0.1,0.1-0.2l0-0.1c0-0.1-0.1-0.2-0.1-0.4c-0.2-0.5-0.5-1.1-0.8-1.5l-0.4,0.1
								C73,21.2,71.4,20.3,70,20c-1.5-0.3-2.7-0.2-3.4-0.5c-0.6,0.1-1.3,0.1-1.8,0.3l0-0.2c-1.5,0-2.3,0-4.2,0.3l0.4-0.2
								c-1.1,0.1-1.3,0.8-2.2,1l-0.4-0.3c-1.8,0.4-3.9,0.8-5.4,2.2c0-0.1,0-0.2,0.3-0.4c-0.4,0.2-1.2,0.7-1.8,1.3
								c-0.6,0.5-0.9,1-0.6,1c-0.1-0.1-0.5,0.3-0.8,0.9c-0.3,0.6-0.6,1.3-0.8,1.8l-0.1-0.2c-0.1,1-0.1,1-0.3,2.2
								c-0.1,0.3-0.2,0.2-0.1-0.2c-0.1,0.5-0.1,0.7-0.1,0.9c0,0.1,0,0.2,0,0.4c0,0.1,0,0.2,0,0.3c0,0.1,0,0.1,0,0.2c0,0,0,0.1,0,0.1
								c0,0,0-0.1-0.1-0.1c0-0.1-0.1-0.2-0.1-0.2c0,0.3,0,0.3,0,0.4c0,0.1,0,0.1,0.1,0.2c0.1,0.1,0.1,0.2,0.2,0.4
								c0.1,0.2,0.2,0.6,0.2,0.7c0.1,0.1-0.2-0.1-0.2-0.2c-0.1-0.1-0.2-0.2-0.3-0.3c0.1,0.2-0.1,0.2-0.5,0c-0.1-0.1,0-0.1,0.1-0.1
								c-0.2-0.1-0.3-0.2-0.5-0.3c-0.3-0.1-0.6-0.2-0.9-0.2c-0.6-0.1-1-0.2-1.6-0.3c0-0.1-0.1-0.1-0.2-0.2c1.3,0.2,2.4,0.6,2.3,0.6
								c0.1-0.2-1-0.5-0.1-0.6c-0.9-0.2-2.5-0.1-3.5-0.2c-0.1,0-0.1,0-0.1-0.1l0.1,0c-0.2,0-0.5,0-0.7,0.1c-0.3,0-0.6,0-0.9,0
								c-0.2-0.2-1.3,0.1-1.8,0.3c0.1,0.2-0.6,0.4,0.1,0.4c-0.1,0,0.1-0.1,0.4-0.2c0.1,0,0.2-0.1,0.2-0.1l0,0
								c0.3-0.1,0.8-0.2,1.3-0.3c-0.4,0.2-0.8,0.3-1.4,0.4c-0.2,0.2-0.5,0.4-0.6,0.6c-0.4,0-0.9,0.1-1.4,0.2c-0.5,0.1-0.9,0.3-1,0.2
								c-0.7,0.5-1.5,1.2-2,1.9c-0.6,0.7-0.9,1.5-1,2c-0.2,0.4-0.4,0.4-0.5,0.5c0.1-0.3,0.2-0.5,0.3-0.7c-0.2,0.4-0.5,1.1-0.7,1.6
								c-0.2,0.6-0.3,1.1-0.1,1.2c-0.4,1.1-0.1-0.7-0.4,0.9l0-0.2c-0.7,2,0,4.1,0.5,5c-0.3,0-0.6,0.1-1,0.1c-0.5,0.1-1,0.2-1.6,0.5
								c0.2-0.1,0.4-0.1,0.4-0.1c-1.9,0.8-3.3,2.7-3.9,4.6c-0.6,2-0.5,4.1,0.1,6c0.4,1.1,0.7,1.1,1.2,1.5l0,0.3c0,0,0.2,0.2,0.5,0.4
								C29.8,57.9,30,58,30,58c0.6,0.5,1.1,1,1.7,1.6c0.6,0.5,1.4,1,2.4,1.1l-0.2-0.2c0.4,0.1,0.9,0.2,1.4,0.3
								c0.5,0.1,0.9,0.1,0.8,0.2c0.1,0,0.2-0.2,0.5-0.1l0,0.1c0,0,0.5-0.1,0.9-0.2c0.5-0.1,0.9-0.3,0.9-0.3c0.7-0.1,0.7,0,0.7,0.1
								c0.1,0.1,0.2,0.2,1.2-0.2c0.8-0.3,1.8-1.5,1.5-1.4c-0.3,0.2-0.7,0.4-0.8,0.3c0,0,0.1-0.1,0.3-0.2c0.1-0.1,0.3-0.2,0.3-0.2
								c-0.1-0.4,0-0.9-1.4-0.3c0,0-0.2,0.2-0.4,0.3c-0.2,0.2-0.4,0.3-0.4,0.3l-0.4-0.1c0,0,0.2-0.1,0.4-0.2
								c0.2-0.1,0.4-0.2,0.4-0.2c-0.5,0.1-0.8,0.3-1.1,0.5c-0.1-0.1-0.3-0.1-0.5-0.1c0,0-0.2,0.1-0.5,0.3c-0.2,0.1-0.5,0.3-0.5,0.3
								c-0.1-0.1,0.4-0.3-0.3-0.3c-0.5,0.2,0.5,0.3-0.3,0.5c-0.5-0.2-0.4-0.3-1-0.2c-0.1-0.1,0.1-0.1,0.3-0.2
								c-0.5,0.1-1.4-0.1-1.7,0c-0.5-0.3-1.7-0.6-1.5-0.9c-0.2,0-0.9-0.2-1.3-0.5c0.5,0.1,0.1-0.2-0.3-0.5c-0.4-0.4-0.8-0.8-0.5-0.9
								c-0.3-0.1-0.8-0.5-1.1-1.1c-0.4-0.5-0.6-1.2-0.9-1.7c0,0.1,0.1,0.2,0.1,0.3c-0.1-0.6-0.1-0.8-0.1-1.2c-0.3,0-0.5-1-0.6-1.6
								c0.4-0.8,0.3,0.5,0.6,0.3c-0.1,0-0.2-0.3-0.2-0.6c0-0.3,0-0.6-0.1-0.5c0.3-0.5,0.2-0.5,0.6-0.7c-0.3-0.2,0.1-0.5,0.2-1.1
								c0.6-0.7,0.4,0,0.8-0.9C30.6,47.6,30.2,48.3,30.2,48.3z M43.9,32L43.9,32c-0.2,0-0.4,0-0.5,0C43.5,32,43.6,32,43.9,32z
								 M45.9,32.2c-0.2-0.1-0.5-0.1-0.9-0.2c-0.1-0.1,0-0.2,0.2-0.1C45.1,32,45.6,32.1,45.9,32.2z M41.3,30.7
								c0.4-0.1,0.5-0.1,0.5,0c-0.2,0-0.4,0.1-0.6,0.1c0,0,0,0,0,0C41.2,30.7,41.3,30.7,41.3,30.7z"/>
							<path fill="#202020" d="M40.8,31.1c0,0-0.1,0-0.1,0.1C40.7,31.1,40.8,31.1,40.8,31.1c0.1,0,0.2,0,0.2-0.1
								C40.9,31.1,40.8,31.1,40.8,31.1z"/>
							<path fill="#202020" d="M59.9,71L59.9,71C59.9,71,59.9,71,59.9,71C59.9,71,59.9,71,59.9,71z"/>
							<polygon fill="#202020" points="67,21.6 67,21.5 66.8,21.6 							"/>
							<path fill="#202020" d="M57.9,60.3c0,0,0.1,0,0.1-0.1C58,60.2,58,60.3,57.9,60.3z"/>
							<path fill="#202020" d="M57.3,63.6c0,0-0.1,0.1-0.2,0.2c-0.1,0.1-0.3,0.2-0.3,0.2C57.1,63.9,57.2,63.8,57.3,63.6z"/>
							<path fill="#202020" d="M54.3,65.6c0,0.1,0,0.1,0,0.1l0,0L54.3,65.6z"/>
							<path fill="#202020" d="M90.7,74.8c0,0,0.1,0,0.1,0C91.2,74.7,91,74.7,90.7,74.8z"/>
							<path fill="#202020" d="M77.1,66.3c0.1,0.2,0.2,0.3,0.2,0.5C77.2,66.6,77.2,66.3,77.1,66.3z"/>
							<polygon fill="#202020" points="103.4,61.6 103.4,61.6 103.4,61.5 							"/>
							<path fill="#202020" d="M77.6,67.7c-0.1-0.3-0.1-0.6-0.2-0.8C77.4,67.1,77.4,67.4,77.6,67.7z"/>
							<path fill="#202020" d="M48.8,56L47,57.2c0,0-0.2,0.2-0.3,0.3L48.8,56z"/>
							<path fill="#202020" d="M46.7,57.5l-1.2,0.8C46,58,46.4,57.7,46.7,57.5z"/>
							<path fill="#202020" d="M43.9,59.4c0,0,0.3-0.2,0.6-0.4c0.1-0.1,0.2-0.1,0.2-0.2c0.1-0.1,0.3-0.2,0.4-0.3
								c0.2-0.2,0.4-0.3,0.4-0.3c-0.2,0.1-0.4,0.3-0.6,0.4l-0.2,0.1L44.5,59C44.2,59.1,44,59.3,43.9,59.4z"/>
							<path fill="#202020" d="M44.9,63.4L44.9,63.4C45,63.4,45,63.4,44.9,63.4z"/>
							<path fill="#202020" d="M45.6,64.7c-0.2-0.3-0.3-0.8-0.5-1.2l-0.1,0C45.2,63.6,45.3,64.5,45.6,64.7z"/>
							<path fill="#202020" d="M51.1,67.5c0,0-0.3,0-0.7,0c-0.3,0-0.7,0-0.7,0c0.2,0.1,0.6,0.2-0.1,0.2c0.9,0.1,0.8,0.1,0.7,0
								C50.2,67.6,50.2,67.6,51.1,67.5z"/>
							<path fill="#202020" d="M55.1,66.4c-0.7,0.3,0.1,0.1,0,0.2C55.6,66.3,55.7,66.2,55.1,66.4z"/>
							<path fill="#202020" d="M68.9,73.4l-0.1,0.2C69.4,73.5,68.9,73.5,68.9,73.4z"/>
							<path fill="#202020" d="M74,70.8l-0.5,0.1l-0.1,0.3c0,0,0.2-0.1,0.3-0.2C73.8,70.9,74,70.8,74,70.8z"/>
							<path fill="#202020" d="M77.3,69.2l-0.1,0.3c0,0,0.4-1,0.3-1c0,0,0,0.2-0.1,0.4C77.3,69,77.3,69.2,77.3,69.2z"/>
							<path fill="#202020" d="M107.5,62.1l-0.1-0.3C107.1,61.8,106.9,62,107.5,62.1z"/>
							<path fill="#202020" d="M114.7,46.1c-0.1-0.3-0.5-0.8-0.9-1C114.2,45.5,114.5,45.9,114.7,46.1z"/>
							<path fill="#202020" d="M73,21.3c0,0,0.1,0.1,0.2,0.1c0.1,0.1,0.2,0.1,0.2,0.1S73.2,21.4,73,21.3c-0.1-0.2-0.3-0.3-0.3-0.3
								L73,21.3z"/>
						</g>
					</g>
				</g>
			</g>
		</g>
		<g>
			<g>
				<g>
					<g>
						<g>
							<path fill="#202020" d="M74.6,70.4c-0.1,0-0.2,0.2,0,0.3l0.3-0.2L74.6,70.4z"/>
							<path fill="#202020" d="M75.3,71.8c0.3,0,0.7-0.1,0.8-0.4c-0.4,0.1-0.4,0-0.8,0.1c-0.2-0.1-0.2-0.3-0.1-0.4
								c-0.1,0-0.2-0.2-0.4-0.1c0.1,0.4,0.3,0.6,0.7,0.6C75.5,71.7,75.3,71.7,75.3,71.8z"/>
							<path fill="#202020" d="M87.2,87.1l0-0.1C87.2,87.1,87.2,87.1,87.2,87.1z"/>
							<path fill="#202020" d="M91.1,98.5c0-0.1-0.1-0.1-0.1-0.1C91,98.5,91,98.6,91.1,98.5z"/>
							<path fill="#202020" d="M91.1,100.6c0,0,0-0.1,0-0.1C91.1,100.5,91.1,100.6,91.1,100.6z"/>
							<path fill="#202020" d="M87.2,87.1l0.1,0.3C87.3,87.4,87.2,87.3,87.2,87.1z"/>
							<path fill="#202020" d="M77.9,72.9c-0.1,0-0.1,0-0.2-0.1C77.8,72.9,77.8,72.9,77.9,72.9L77.9,72.9z"/>
							<path fill="#202020" d="M84.3,82.7L84.3,82.7c-0.1-0.1-0.2-0.1-0.2-0.1L84.3,82.7z"/>
							<path fill="#202020" d="M81.9,79.4c0,0.1,0.3-0.1,0.4-0.1c-0.1,0-0.2,0-0.3,0C82,79.3,81.9,79.4,81.9,79.4z"/>
							<path fill="#202020" d="M77.8,74.4l-0.1,0C77.8,74.3,77.8,74.4,77.8,74.4z"/>
							<path fill="#202020" d="M85.7,85.2C85.7,85.2,85.7,85.3,85.7,85.2C85.7,85.3,85.7,85.2,85.7,85.2z"/>
							<path fill="#202020" d="M67.4,77.8C67.4,77.8,67.4,77.8,67.4,77.8C67.4,77.8,67.4,77.8,67.4,77.8z"/>
							<path fill="#202020" d="M66.3,73.1L66.3,73.1c0.1,0,0.1,0,0.2,0L66.3,73.1z"/>
							<path fill="#202020" d="M91.3,104.3C91.3,104.3,91.3,104.3,91.3,104.3C91.3,104.2,91.3,104.3,91.3,104.3z"/>
							<path fill="#202020" d="M78.8,113.2c0.3,0.4-0.7,0.1-0.2,0.6C78.6,113.6,79.3,113.5,78.8,113.2z"/>
							<path fill="#202020" d="M78,73c0,0,0.1,0.1,0.1,0.1C78.1,73,78,73,78,73z"/>
							<path fill="#202020" d="M78.6,113.8L78.6,113.8L78.6,113.8C78.6,113.8,78.6,113.8,78.6,113.8z"/>
							<path fill="#202020" d="M91.9,112.9c0.1,0,0.1-0.1,0.1-0.1C92,112.8,92,112.9,91.9,112.9z"/>
							<path fill="#202020" d="M92.1,106.5l0,0.2C92.1,106.6,92.1,106.5,92.1,106.5z"/>
							<path fill="#202020" d="M92.2,116.3c0,0.1-0.1,0.1,0,0.2c0,0,0,0,0,0C92.2,116.4,92.1,116.4,92.2,116.3z"/>
							<path fill="#202020" d="M91.9,119.5C91.9,119.5,91.9,119.4,91.9,119.5L91.9,119.5L91.9,119.5z"/>
							<path fill="#202020" d="M70.9,87.6c0.1-0.1,0.1-0.2,0.2-0.2C70.9,87.5,70.7,87,70.9,87.6z"/>
							<path fill="#202020" d="M77.8,73c0.1,0,0.1,0,0.2,0L77.8,73C77.9,72.9,77.8,73,77.8,73z"/>
							<path fill="#202020" d="M94.5,116.6l-0.1,0.6C94.4,117,94.4,116.8,94.5,116.6z"/>
							<path fill="#202020" d="M66.8,110.1L66.8,110.1C66.8,110.1,66.8,110.1,66.8,110.1z"/>
							<path fill="#202020" d="M94.3,118.8c-0.1,0.1-0.2,0.2-0.2,0.3c0,0,0,0.1,0.1,0.1L94.3,118.8z"/>
							<path fill="#202020" d="M71.1,87.4L71.1,87.4L71.1,87.4z"/>
							<path fill="#202020" d="M69.6,84.1c0.1,0.5,0.4,0.1,0.7,0.2c0.3,0.6-0.2,0.4-0.3,0.6c0.2,0.3,0.6,0.5,0.7,0.8
								c-0.1,0-0.1,0.1-0.2,0.1c0.4,0.3,0.3,1.2,0.8,1.6c0,0-0.1,0.1-0.1,0.1c0.2-0.1,0.4-0.2,0.5-0.2c0,0.2,0.3,0.4,0.1,0.5
								c0-0.1-0.1-0.1-0.2-0.2l0.1,0.2c-0.3,0.3-0.2-0.3-0.4-0.3c0.2,0.4,0.6,1,0.5,1.3c-0.3,0.1-0.3-0.8-0.5-0.3l0-0.6
								c-0.5,0.5,0-0.3-0.5,0.1c0,0.7,0.3,0.8,0.3,1.5c0.2,0.1,0.3-0.1,0.5,0c0.5,1-0.8,0.9-0.2,1.6c0.3,0.2,0.7,0.2,0.5,0.8
								L71.4,92c0,0.7,0.6,0.4,0.4,1.1c-0.2-0.1-0.2-0.6-0.2-0.4c-0.3,0.5,0.2,0.3,0.3,0.7l-0.3,0.1c0.1,0.8,0.3,1.6,0.4,2.5
								c-0.1-0.1-0.2-0.2-0.3,0c0.1,0.5,0,1.1-0.1,1.7c-0.1,0.6-0.3,1.1-0.4,1.6l0.3,0.4c0,0.1-0.2,0.2-0.2,0
								c-0.2,0.4,0.2,0,0.3,0.3c0,0.2-0.2,0.3-0.3,0.1c0.1,0.7,0.2,2.1-0.3,2.8l-0.1-0.2c-0.2,0.5,0.5,0.8,0.1,1.2l0-0.1
								c-0.4,1.2-0.6,2.7-1.3,3.3c0.3,0.4-0.6,0.9-0.2,1.3c-0.6,0.4-0.6,0.2-1.3,0.6c-0.2,0.1,0,0.5-0.2,0.7l-0.2-0.2
								c0,0-0.1,0.5-0.1,0.5l-0.4-0.2l-0.2,0.2c0.1,0,0.3,0,0.3,0.1c-0.3,0.4-1.1,0.4-1.2,0.2l-0.9,0.8c0-0.1,0.1-0.3,0.2-0.4
								c-0.4,0.6-0.3-0.2-0.6,0.3c0.1,0,0,0.2,0.1,0.3c-0.3,0-1,0.3-1.4,0.6l0-0.2c-0.9,0.4-1.8,1.2-2.6,2.2
								c0.4-0.3,0.6,0.1,0.4,0.3c0,0-0.1,0-0.2-0.1c0,0-0.1,0-0.1,0c0,0,0,0,0,0c0,0,0,0,0,0l0,0l0,0c0.9,1.2,1.3,1.8,1.3,1.8l0,0
								c0-0.1,0-0.1,0-0.1l-3-1l1.8-0.6c0.1,0,0.1-0.1,0.1,0.1l-0.5,5.2l1.5-3.9c0,0,0-0.1,0.1-0.1c0.4-0.1,0.4,0.3,0.2,0.5l0.4-0.2
								c0.1,0.1,0,0.2,0,0.3c0.1-0.2,0.8,0.1,0.9-0.3l0.1,0.1c0.9-0.3,1.3-0.4,2-0.6c0-0.3,0.3-0.3,0.5-0.6c0.6,0,1.2,0.1,1.9,0
								c0.5-0.2,0.1-0.3,0.3-0.4c0.1,0.3,0.7,0.2,0.4,0.4c0.8-0.1,1-0.1,2.1-0.3c-0.1-0.1-0.2-0.2-0.2-0.2c0.2,0,0.4,0.1,0.4,0.2
								l-0.1,0c0.3-0.1,0.6-0.1,0.9,0c0.3,0.1,0.7,0.2,1,0.3c0.6,0.2,1.2,0.4,1.7,0.2l-0.1,0l1-0.1c0.4,0.1-0.3,0.2,0,0.4
								c1.1-0.2,1.6,0.4,2.5,0.3c0.2,0.5,0.8,0.6,1.4,0.8c0.6,0.1,1.2,0.3,1.6,0.7l0-0.2c0.3-0.1,0.2,0.2,0.4,0.3
								c0-0.1-0.2-0.2,0-0.3c1.9,0.6,3.6,2,5.1,3.2c0.6,0.5,0.9-0.5,1.4,0.4l-0.4,0.1c0.4,0.1,0.7,0.3,1,0.5
								c0.1,0.1,0.3,0.2,0.4,0.4l0.6,0.6c1.1,1,2.1,2.1,2.9,2.6c-0.1,0,0,0.2-0.2,0c0.2,0.4,0.6,0.8,0.9,1l0.1,0.1
								c0-0.1,0-0.1,0-0.2c0-0.1,0-0.3,0-0.4c0-0.2,0-0.4-0.1-0.5c0.1-0.4,0.1,0.2,0.3,0.2c0.1-0.2,0.1-0.7,0.1-1.1
								c0-0.4,0-0.8,0.1-0.8c0,0,0,0.3,0,0.4c0-0.5,0.3-1.7,0-1.6c0.2-0.8,0.1-1.9,0.4-2.4c-0.3-0.3,0.2-1-0.2-1.1
								c0.5,0.1,0.5-1,0.3-1.4c0.1,0.1,0.2-0.3,0.4-0.2c0-0.4,0-0.8-0.3-0.8c0.6-0.7-0.4-1.6,0.4-2c-0.2-1.3-0.4-2.4-0.5-3.5
								c0.5,0,0.1,1.2,0.5,1.2c-0.2-1.1-0.6-1.7-0.5-2.7c0.1-0.3,0.2,0.1,0.3,0.2c-0.2-1.1-0.1-2.1-0.4-3c0,0,0.1,0.1,0.1,0.2
								c0-0.2,0-0.4-0.2-0.4l0.1,0.2c-0.3,0.3-0.7-0.7-0.9-0.7c0.6,0.3,0.1-0.9,0.9-0.5c0-0.1-0.2-0.3-0.3-0.2
								c0-0.2,0.1-0.3,0.3-0.1c-0.2-0.6-0.4-0.4-0.5-1c0.1,0,0.2,0.1,0.3,0.2c-0.2-0.3-0.5-0.6-0.5-1.1c0.1,0,0.1,0,0.2,0.1
								c-0.2-0.9-0.7-1.4-0.7-2.4c0.5,0.2,0.1-0.3,0.4-0.5l-0.2-0.5l-0.1,0.2c-0.1-0.4-0.4-0.8-0.4-1.2l0.2,0.3l-0.3-0.8l0,0.5
								c-0.3-0.4-0.5,0.2-0.5-0.4c0.1,0.1-0.1-0.4,0.1-0.7l0,0c-0.2-0.2-0.4-0.4-0.3-0.7c0.1-0.1,0.4,0,0.5-0.1
								c-0.4-0.1-0.4-1-0.8-1.2c0.1,0.1,0.3,0,0.3,0l-0.3-0.1c0-0.2,0-0.3,0.2-0.3c-0.1-0.6-0.4,0.3-0.4-0.4c0,0,0.1,0,0.1,0.1
								c-0.1-0.8-0.6-1.3-0.7-2c0.3-0.3,0.3,0.5,0.5,0.2c-0.4-0.9-1.1-1.8-1.4-2.7l0,0.2c-0.6,0.1,0-0.8-0.5-1.1
								c0.1,0.1,0.3,0,0.3,0c-0.2-0.6-0.7-1.2-1.3-2l0.2,0c-0.1-0.4-0.4-0.9-0.5-1.3c-0.2,0-0.3-0.3-0.4,0c0-0.8-0.4-1.2-0.8-1.7
								c-0.4-0.5-0.8-0.9-0.9-1.5c0.1,0.1,0.3,0.2,0.2,0.1c0,0-0.2-0.2-0.3-0.4c-0.2-0.2-0.3-0.4-0.3-0.4c-0.2,0.2,0,0.2-0.1,0.5
								c-0.2,0-0.4-0.2-0.6-0.4c0.4,0.3,0.3-0.2,0.3-0.4c0,0.1-0.1,0.1-0.2,0.1c0.1-0.7-0.4,0.2-0.6-0.5l0.1,0
								c-0.2-0.2-0.5-0.3-0.6-0.5c0.2-0.3,0.3,0.1,0.5,0c-0.2-0.3-0.9-0.3-0.9-0.8c0.2,0.1,0.3,0.3,0.5,0.4c0-0.5-0.1-0.5-0.2-0.8
								l0,0l-0.3-0.6l0,0.2c-0.9,0.1-0.7-0.7-1.5-0.9c0.8,0.2,0.3-0.1,0.5-0.2c0-0.2-0.1-0.4,0-0.4c-0.4-0.1-0.2-0.5-0.8-0.6
								c0.1-0.1-0.2-0.3,0-0.4c-0.3-0.3-0.1,0.2-0.2,0.2c-0.7-0.2-0.7-1.4-1.7-1.7c-0.7-0.4-1-0.3-1.7-0.6c-0.1-0.3,0.4-0.1,0.4-0.1
								c-0.2-0.4-0.4-0.6-0.8-0.7c0.1,0,0.1-0.1,0.1-0.3c-0.2-0.2-0.4,0.1-0.6-0.2c0.1,0,0.3-0.1,0.5-0.1c-0.3-0.2-0.7-0.2-1.1-0.4
								c0-0.2,0.3-0.1,0.5-0.1c-0.4-0.2-0.9-0.6-1.2-0.4l0.1,0.2c-0.1-0.1,0.1-0.2,0.2-0.2c0.4,0.1,0.3,0.4,0.3,0.5l-0.2-0.1
								c-0.2,0.6,0.9,0.6,1.2,1l-0.4,0.2l0.6,0.1c0,0.2-0.1,0.4-0.3,0.3c0.1,0.4,0.3,0.1,0.4,0.5c0,0.1,0,0.1-0.1,0l0.4,0.1
								c-0.1,0-0.2,0.3-0.3,0.1c0.3,0.6,1,0.5,0.9,0.9l-0.1,0c0.7,0.5,0.3-0.2,1,0.1l-0.2,0.9l0.3-0.2c0.1,0.1,0.2,0.2,0,0.3
								c0.4,0.1,0.1-0.1,0.3-0.1c0.1,0.5,0.9,0.8,0.6,1.2c0.3,0-0.1-0.4,0.3-0.2c-0.3,0.5,0.4,0.4,0.5,0.8c-0.3,0.1-0.4-0.3-0.4,0.2
								c0.5-0.1,0.4,0.7,0.7,0.9c0.3-0.2,0.6,0.5,1,0.9c-0.1,0,0.5,1,0.7,1.5l-0.1,0c0.4-0.1,0.6,0.4,0.9,0.7
								c-0.2,0.1-0.3,0.1-0.5,0l0.2,0.3c0.1,0,0.3,0.1,0.4,0.2l-0.3,0.1c0.3,0.4,0.8,0.7,1,1.3c0.2-0.1,0.4-0.8,0.9-0.3
								c-0.1,0.1-0.3,0.2-0.4,0.1c0,0,0.2,0.1,0.2,0.2l-0.3-0.1c0.1,0.3,0.3,0,0.4,0.2c-0.2,0.1,0,0.2-0.2,0.3c0,0,0-0.2-0.1-0.3
								c0.1,0.2,0.2,0.6,0.1,0.8c0.1-0.1,0.2-0.1,0.4,0c0.3,0.4-0.1,0.3-0.1,0.6c0.2,0,0.2,0.4,0.5,0.2c0.1,0.1,0,0.2-0.1,0.3
								c0.2,0.2,0.6,1.1,0.7,0.6l0-0.1l0,0l0,0l0,0c0.7,0.6,0.6,1.7,1.1,2.4l-0.1,0c0.3,0.4,0.5,1,0.8,1.3c0.1,0.1,0,0.4-0.2,0.4
								c0.2,0.3,0.3,0.3,0.4,0.9c-0.3-0.3-0.1,0.2-0.3-0.3c0.1,0.5,0,0.7,0.4,1.1c-0.3-0.1-0.2,0.5,0,0.7l0.1-0.4
								c0.1,0.2,0.2,0.5,0.2,0.7l-0.4,0c-0.1,1.1,1.2,1.5,0.8,2.5c0.3,0.2,0-0.6,0.3-0.4c0.1,0.5-0.3,1.1-0.2,1.2
								c0,0.7,0.6,0.4,0.7,1.1c0.1-0.1,0.4-0.3,0.6,0.2c0.1,0.5-0.4,0.7-0.5,0.4c0-0.1,0-0.2,0-0.2c-0.1-0.1-0.2-0.3-0.3-0.1l0.1,0
								c-0.1,0.3,0.1,0.9-0.1,0.8c0.2,0.3,0.2,0.1,0.2-0.2c0,0.6,0.2,0.9,0.2,1.5c0-0.1,0.2-0.2,0.2-0.1c0,0.9,0.3,0.3,0.5,0.9
								c-0.1,0.4-0.5,0-0.2,0.5c-0.1,0.4-0.3,0.1-0.4,0c0.3,0.5,0,1.1,0,1.4l-0.1-0.3c0.1,0.2,0.1,0.3,0.1,0.5l0.2-0.2
								c0,0.2,0,0.3-0.1,0.3c0.2,0.2,0.4-0.2,0.6,0.1c-0.1,0.2,0.2,0.7-0.1,0.8c0-0.7-0.3,0.1-0.4-0.5c0.1,0.1,0.1,0.3,0,0.4
								c0,0-0.1,0-0.1-0.1c-0.2,0.7,0.4,0.3,0.5,1c-0.2-0.1-0.3,0.2-0.3,0.3c0-0.3,0.3-0.2,0.5,0.1c-0.1,0.5,0.2,0.5,0.2,0.7l0-0.3
								c0.2,0.1,0.2,0.3,0.3,0.6c-0.1,0-0.1-0.3-0.2-0.2c0.3,0.3-0.3,0.8,0,1.3c-0.1,0.2-0.3,0-0.4,0.2c0.3,0.5-0.2,0.6,0,1.2
								c0.2-0.2,0.2-0.2,0.4,0.2l-0.2-1l0.4,0.6c0-0.3-0.2-0.6-0.1-0.8c0.2,0.3,0.1,0.3,0.3,0.1c-0.4,0.4,0.2,0.8,0,1.3l-0.6,0
								c-0.2,0.7,0.3,1.2,0.2,2.1l0.1-0.3c0.2,0.1,0,0.6,0.1,0.9c-0.2,0-0.3,0.2-0.4,0.3c0.2,0,0,0.7,0.4,0.8l-0.3,0.4
								c-0.1,0.7,0.5,0.9,0.4,1.6c-0.2-0.2-0.4,0.1-0.5-0.4c0,0.2-0.1,0.4,0.1,0.5c-0.1,0.1,0.2,0.7,0,0.9c0.1,0.1,0.3,0.2,0.3,0.4
								c0,0-0.1,0-0.1,0c0.1,0,0.1,0.4,0.3,0.2c-0.3,0.3-0.4,0.8-0.4,1.3c0,0.2,0,0.5-0.1,0.7c0,0.2-0.1,0.3-0.3,0.3
								c0,0.3,0,0.8,0,1.1c0-0.1-0.1-0.1-0.1-0.2c-0.2,0.1,0.4,1.1,0.2,1.4c-0.3-0.4-0.1-0.6-0.2-0.7c-0.1-0.3-0.2-0.4-0.2-0.4
								c0,0,0,0,0,0.1l0,0.1c0,0,0,0,0,0c0,0-0.1,0.1-0.3-0.4l0,0c-0.1-0.3-0.1-0.2-0.2-0.2c-0.1,0-0.2,0.1-0.3-0.1c0,0,0-0.1,0-0.1
								c-0.1,0.1-0.3,0.1-0.5,0c-0.3-0.2-0.6-0.4-0.9-0.5c0.3-0.1,0.3,0.1,0.4-0.2c-0.2-0.1-0.2,0.4-0.7,0.1c0-0.2-0.3-0.6-0.2-0.8
								l0.4,0.3c0-0.4-0.5-0.4-0.7-0.6l0.1-0.1c-0.7-0.4-0.9-0.1-1.6-0.6l0,0.1c-0.6,0.1-0.2-0.4-0.7-0.4l0.1-0.4
								c-0.3-0.1-1.1-0.2-1.6-0.4c0.4-0.1,1.1,0.1,1.5,0.1c-0.3-0.2-0.9-0.5-1.2-0.4c0.1,0,0.3,0,0.4,0.1c-0.5,0.1-1,0-1.5-0.3
								c0.4-0.7-1.3-0.8-1.5-1.6c-1.1-0.1-2-0.9-3.2-1.2c0.3,0.7-0.4-0.1-0.5,0.5c-0.3,0-0.4-0.1-0.4-0.1c0,0-0.2-0.2-0.4-0.3
								c-0.2-0.1-0.4-0.3-0.4-0.3c-0.2-0.2,0.3-0.1,0.3-0.2c-0.6-0.2-0.2-0.3-0.6-0.6c0,0.2-0.3,0.3-0.6,0.1l0.4,0.4
								c-0.9,0.1-0.7-0.7-1.6-0.5l0.3-0.2c-0.5,0.1-1.7-0.3-2.2,0.2c-0.1-0.1-0.2-0.3,0-0.3c-0.6-0.1-1.2,0-1.8,0.1
								c-0.6,0.1-1.1,0.2-1.6,0l0.1-0.2c-0.2,0-0.4,0.3-0.6,0.1c0-0.1,0.1-0.2,0-0.2c-0.1,0-0.5,0.3-0.8,0.2l0.2-0.2
								c-1.1-0.1-1.6,0.5-2.5,0.8c-0.1-0.4-0.9-0.5-1.4-0.5l0-0.1c-1.3,0.2-2.1,0.8-3.1,1.4c-0.3-0.1-0.6-0.1-1,0
								c0.4,0.6,0.9,1.2,1.3,1.9c0.4-0.4,1.1-1,1.8-1.2c-0.2,0-0.2-0.3,0-0.4c0.2,0,0.5-0.6,0.6-0.2l-0.1,0c0.4,0.3,0.8-0.1,1.1-0.2
								l-0.2-0.5c0.7,0.1,1.3-0.3,1.9-0.7c0.6-0.4,1.1-0.9,1.6-0.8c0.2-0.3,0.4-0.6,0.6-0.9l0.2,0.2c0.7-0.6,1-1,1.4-2l0.1,0.3
								c0.3-0.6-0.4-1-0.3-1.5l0.5,0c0.3-0.9,0.9-1.7,0.8-2.7c0.1,0,0.2,0.1,0.1,0.2c0.2-0.4,0.7-1.6,0.1-1.6
								c0.4,0.1,0.3-0.9,0.2-1.5l0.3,0.1c-0.3-0.5-0.4-0.5-0.4-1.1c0.1-0.1,0.2-0.1,0.1,0.1c0.2-0.4-0.2-0.4,0-0.9l0.1,0.2
								c0.1-0.5,0-0.4-0.2-0.7c-0.1-0.3,0.2-0.9,0.4-0.9c-0.1-0.1-0.3-0.4-0.2-0.6c0.1,0,0.2,0.1,0.2,0.1c0.3-0.8-0.3-1.2,0.1-1.7
								c0.1,0,0.1,0,0.2-0.1c0,0.6-0.1,1.1-0.1,1.1c0.3,0,0.3-0.5,0.7-0.1c-0.2-0.4-0.6-1.2-0.4-1.7c0,0,0.1,0,0.1-0.1l0,0.1
								c0-0.1,0-0.2,0-0.3c0-0.2,0.1-0.3,0.1-0.4c0.2-0.1,0.1-0.6,0.1-0.9c-0.3,0-0.2-0.3-0.5,0c0,0,0,0,0,0.2c0,0,0,0.1,0,0.1l0,0
								c0,0.2,0,0.4,0,0.6c-0.1-0.2-0.3-0.4-0.1-0.7c-0.2-0.1-0.4-0.3-0.5-0.3c0.4-0.4,0.6-1,0.8-1.1c-0.2-0.8-0.2-1.8-0.8-2.3
								c-0.1-0.2,0.1-0.3,0.2-0.4c0.1,0.1,0.1,0.3,0.2,0.3c-0.2-0.4-0.2-1.3-0.6-1.4c0.1-0.6,0.4,0.3,0.2-0.5l0.1,0.1
								c0.2-0.8-0.2-1.4-0.5-1.9c-0.3-0.6-0.7-1.2-0.5-2.1c0,0.1,0,0.2-0.1,0.2c-0.1-1.9-1.4-3.6-1.6-5.6c-0.1-0.5-0.3-0.5-0.6-0.7
								l0.2-0.2c0,0-0.1-0.1-0.3-0.2c-0.1-0.1-0.3-0.2-0.3-0.2c-0.6-0.6,0.1-1.6-0.8-2.2l-0.1,0.2c-0.1-0.3-0.7-0.9-0.4-1
								c-0.1,0-0.2,0-0.2-0.2l0.1-0.1c0,0-0.2-0.2-0.3-0.3c-0.2-0.1-0.4-0.3-0.4-0.3c-0.3-0.6,0.6-0.2,0.1-1.1c-0.3-0.3-1-0.6-1-0.5
								c0.1,0.1,0.1,0.4,0,0.5l-0.2-0.2c-0.4,0.2-1,0.3-0.8,1.1l0.5,0.3l-0.1,0.3l-0.3-0.4c0,0.3,0.2,0.4,0.4,0.5
								C66,75,66,75.1,66,75.2l0.7,0.2c-0.1,0.2-0.4,0-0.3,0.3c0.3,0.1,0.2-0.4,0.6-0.1c-0.1,0.3-0.3,0.4,0.1,0.5
								c-0.1,0.1-0.2,0.1-0.3,0c0.3,0.2,0.4,0.6,0.7,0.6c-0.1,0.4,0.5,0.8,0.1,1c0.1,0,0.5,0.3,0.7,0.5c-0.7-0.2,0.4,0.9-0.2,1
								c0.6,0.1,0.7,1,1.2,1.5c0,0-0.1-0.1-0.1-0.1c0.1,0.3,0,0.5,0,0.7c0.4-0.1,0.7,0.4,1,0.6c-0.2,0.5-0.5-0.1-0.8,0.2
								c0.3-0.1,0.5,0.6,0.8,0.4c-0.1,0.4,0,0.3-0.3,0.6c0.5-0.1,0.2,0.3,0.5,0.4c-0.1,0.5-0.4,0.3-0.1,0.7
								C69.9,84.5,69.6,84.1,69.6,84.1z M72,95.9L72,95.9c0-0.1,0-0.2,0-0.3C72,95.7,72,95.8,72,95.9z M71.9,97c0-0.1,0-0.3,0-0.4
								c0.1,0,0.2,0,0.2,0.1C72.1,96.6,72,96.8,71.9,97z M74,94.8c0,0.2,0,0.2-0.1,0.3c0-0.1,0-0.2,0-0.3l0,0
								C73.9,94.7,74,94.8,74,94.8z"/>
							<path fill="#202020" d="M73.6,94.5C73.6,94.5,73.6,94.5,73.6,94.5C73.6,94.5,73.5,94.5,73.6,94.5L73.6,94.5
								C73.6,94.5,73.6,94.5,73.6,94.5z"/>
							<path fill="#202020" d="M87.2,87L87.2,87C87.2,87,87.2,87,87.2,87C87.2,87,87.2,87,87.2,87z"/>
							<polygon fill="#202020" points="67.6,109.4 67.6,109.5 67.7,109.4 							"/>
							<path fill="#202020" d="M85.1,81.5c0,0,0-0.1,0-0.1C85.1,81.4,85.1,81.4,85.1,81.5z"/>
							<path fill="#202020" d="M83.7,79.4l-0.1-0.3C83.6,79.2,83.6,79.3,83.7,79.4z"/>
							<path fill="#202020" d="M82.6,77.8c-0.1,0-0.1,0-0.1,0.1l0,0L82.6,77.8z"/>
							<path fill="#202020" d="M94.1,106.2C94.1,106.2,94.1,106.2,94.1,106.2C94.1,106.4,94.1,106.3,94.1,106.2z"/>
							<path fill="#202020" d="M91.9,97.2c0.1,0.1,0.1,0.2,0.2,0.3C92.1,97.3,92,97.2,91.9,97.2z"/>
							<polygon fill="#202020" points="94.5,116.5 94.5,116.5 94.5,116.6 							"/>
							<path fill="#202020" d="M92.2,97.9c0-0.2,0-0.3-0.1-0.4C92.1,97.6,92.1,97.8,92.2,97.9z"/>
							<path fill="#202020" d="M76.6,71.7L76.6,71.7c-0.1-0.1-0.1,0-0.1,0L76.6,71.7z"/>
							<path fill="#202020" d="M76.5,71.7l-0.1,0C76.4,71.7,76.5,71.7,76.5,71.7z"/>
							<path fill="#202020" d="M76.2,71.6l0.2,0.1C76.3,71.6,76.3,71.5,76.2,71.6z"/>
							<path fill="#202020" d="M78.5,73.5L78.5,73.5C78.6,73.5,78.5,73.5,78.5,73.5z"/>
							<path fill="#202020" d="M79.1,74c-0.1-0.2-0.2-0.5-0.4-0.6l-0.1,0C78.8,73.4,78.8,74,79.1,74z"/>
							<path fill="#202020" d="M80.4,77.3L80,76.7c0,0.2,0,0.4-0.2,0.2C80.1,77.7,79.9,76.6,80.4,77.3z"/>
							<path fill="#202020" d="M81.6,78.9c-0.3-0.2-0.1,0.1-0.2,0.1C81.6,79.1,81.7,79.1,81.6,78.9z"/>
							<path fill="#202020" d="M88.8,91.2l-0.3,0.1C88.7,91.5,88.6,91.2,88.8,91.2z"/>
							<polygon fill="#202020" points="91,93.3 91.1,93 90.8,93 							"/>
							<polygon fill="#202020" points="89.7,95.4 89.7,95.3 89.9,95.7 							"/>
							<path fill="#202020" d="M91.7,119.1l0.3,0C92,118.9,91.6,118.8,91.7,119.1z"/>
							<path fill="#202020" d="M87.4,117.5c0-0.2-0.2-0.5-0.5-0.4C87.2,117.3,87.3,117.5,87.4,117.5z"/>
							<polygon fill="#202020" points="66.6,113 66.4,113.2 66.7,113 							"/>
						</g>
					</g>
				</g>
			</g>
		</g>
		<g>
			<g>
				<g>
					<g>
						<g>
							<path fill="#202020" d="M61.9,113.9c-0.1,0-0.3,0-0.2,0.1l0.3,0L61.9,113.9z"/>
							<path fill="#202020" d="M61.3,114.4c0.2,0,0.5,0.1,0.8,0c-0.3,0-0.2,0-0.6,0c-0.1,0,0.1-0.1,0.2-0.1c-0.1,0,0.1-0.1-0.2-0.1
								c-0.2,0.1-0.2,0.2,0,0.3C61.5,114.4,61.4,114.4,61.3,114.4z"/>
							<path fill="#202020" d="M62.4,120.1L62.4,120.1C62.4,120.1,62.4,120.1,62.4,120.1z"/>
							<path fill="#202020" d="M64.4,123.3C64.3,123.3,64.3,123.3,64.4,123.3C64.3,123.3,64.3,123.3,64.4,123.3z"/>
							<path fill="#202020" d="M64.6,124C64.6,124,64.6,124,64.6,124C64.6,124,64.6,124,64.6,124z"/>
							<path fill="#202020" d="M62.4,120.1l-0.1,0.1C62.5,120.2,62.4,120.1,62.4,120.1z"/>
							<path fill="#202020" d="M62.3,115C62.3,115,62.2,115,62.3,115C62.2,115,62.2,115,62.3,115L62.3,115z"/>
							<path fill="#202020" d="M61.6,118.7L61.6,118.7c0,0-0.1,0-0.1,0L61.6,118.7z"/>
							<path fill="#202020" d="M61.1,117.5c0,0,0.3,0,0.4-0.1c-0.1,0-0.2,0-0.2,0C61.3,117.4,61.2,117.5,61.1,117.5z"/>
							<path fill="#202020" d="M61.2,115.5L61.2,115.5C61.2,115.5,61.2,115.5,61.2,115.5z"/>
							<path fill="#202020" d="M61.8,119.5C61.8,119.6,61.7,119.6,61.8,119.5C61.7,119.6,61.8,119.6,61.8,119.5z"/>
							<path fill="#202020" d="M90.9,125.2C90.9,125.2,90.9,125.2,90.9,125.2C90.9,125.2,90.9,125.2,90.9,125.2z"/>
							<polygon fill="#202020" points="92.8,125 92.8,125 92.9,125.1 							"/>
							<path fill="#202020" d="M65.3,125L65.3,125C65.3,125,65.3,125.1,65.3,125z"/>
							<path fill="#202020" d="M75.1,129.2c0-0.3,0.3-0.3,0.2-0.6C75.2,128.7,75,129,75.1,129.2z"/>
							<path fill="#202020" d="M62.2,115C62.3,115,62.3,115.1,62.2,115C62.3,115.1,62.3,115,62.2,115z"/>
							<path fill="#202020" d="M75.3,128.6L75.3,128.6L75.3,128.6C75.3,128.6,75.3,128.6,75.3,128.6z"/>
							<path fill="#202020" d="M67.7,126.3c0,0,0-0.1,0-0.1C67.8,126.2,67.8,126.2,67.7,126.3z"/>
							<path fill="#202020" d="M66.3,124.9L66.3,124.9C66.3,125,66.3,125,66.3,124.9z"/>
							<path fill="#202020" d="M68.8,126.4C68.9,126.4,68.8,126.5,68.8,126.4C68.9,126.4,68.9,126.4,68.8,126.4
								C68.9,126.4,68.8,126.5,68.8,126.4z"/>
							<path fill="#202020" d="M69.8,126.9C69.8,126.8,69.8,126.8,69.8,126.9L69.8,126.9L69.8,126.9z"/>
							<path fill="#202020" d="M88.9,126.8c0.1,0.1,0.1,0.1,0.2,0.2C88.9,126.9,89,126.8,88.9,126.8z"/>
							<path fill="#202020" d="M62.1,115c0.1,0,0.1,0,0.1,0c0,0,0,0,0,0C62.2,115,62.1,115,62.1,115z"/>
							<path fill="#202020" d="M69.9,124.4l0.1,0.1C70,124.5,70,124.4,69.9,124.4z"/>
							<path fill="#202020" d="M82.3,128L82.3,128C82.3,128,82.3,128,82.3,128z"/>
							<path fill="#202020" d="M70.5,124.7c0,0.1,0,0.2,0,0.2c0,0,0,0,0-0.1L70.5,124.7z"/>
							<path fill="#202020" d="M89,127.1L89,127.1L89,127.1z"/>
							<path fill="#202020" d="M89.5,126c-0.1,0.1,0.2,0.3,0.2,0.5c-0.1,0.2-0.2-0.2-0.4-0.3c0,0.1,0.1,0.5,0,0.5
								c0-0.1-0.1-0.1-0.1-0.1c0.1,0.3-0.3,0.2-0.2,0.6c0,0,0-0.1-0.1-0.1c0.1,0.2,0.2,0.3,0.3,0.5c-0.1,0,0,0.3-0.1,0.1
								c0,0,0-0.1,0-0.2l0,0.1c-0.2-0.3,0-0.2-0.1-0.4c-0.1,0.2-0.1,0.5-0.2,0.4c-0.2-0.3,0.2-0.2-0.1-0.4l0.2,0.1
								c-0.3-0.4,0.1,0-0.2-0.5c-0.2,0-0.1,0.2-0.3,0.2c0,0.2,0.1,0.3,0.2,0.5c-0.1,0.4-0.5-0.7-0.6-0.2c0,0.2,0.2,0.7-0.1,0.5
								l-0.1-0.4c-0.2,0,0.1,0.6-0.2,0.4c0-0.2,0.1-0.2,0.1-0.2c-0.2-0.3,0,0.2-0.1,0.3l-0.1-0.3c-0.2,0.1-0.3,0.4-0.6,0.5
								c0-0.1,0-0.2-0.1-0.3c-0.3,0.2-0.6,0.1-0.9-0.1l-0.1,0.3c0,0-0.1-0.1-0.1-0.2c-0.1-0.1,0,0.2,0,0.3c-0.1,0-0.1-0.2-0.1-0.3
								c-0.2,0.3-0.5,0.6-0.7,0.3l0-0.1c-0.2-0.1-0.1,0.6-0.3,0.4l0-0.1c-0.4-0.1-0.8,0.2-1-0.3c0,0.4-0.4-0.2-0.4,0.4
								c-0.2-0.3-0.1-0.4-0.4-0.6c-0.1,0-0.1,0.4-0.2,0.4l0-0.3l-0.1,0.3l-0.1-0.4l-0.1,0.1c0,0,0.1,0.1,0.1,0.2
								c-0.1,0.1-0.3-0.2-0.3-0.4l-0.3,0.2c0-0.1,0.1-0.2,0.1-0.2c-0.2,0.3,0-0.3-0.2-0.1c0,0.1,0,0.2,0,0.3
								c-0.1-0.2-0.2-0.2-0.4-0.1l0-0.2c-0.2-0.1-0.5,0.1-0.8,0c0.1,0.1,0,0.5-0.1,0.5l0-0.3c-0.1,0.2,0.1,0.1-0.1,0.4
								c-0.1-0.1,0-0.4,0-0.5l-0.1,0.1c0-0.1,0-0.1,0.1-0.3c-0.1,0.2-0.2-0.4-0.3,0l0-0.1c-0.3,0-0.4,0.1-0.6,0
								c0,0.3-0.1,0.2-0.2,0.4c-0.2-0.1-0.3-0.4-0.5-0.4c-0.2,0.1-0.1,0.2-0.2,0.4c0-0.3-0.2-0.3,0-0.4c-0.2,0-0.3,0-0.7,0.1
								c0,0.1,0,0.2,0,0.2c-0.1,0-0.1-0.1-0.1-0.3l0,0c-0.4,0.3-0.6-0.9-1-0.4l0,0l-0.3,0.2c-0.1-0.1,0.1-0.2,0.1-0.4
								c-0.4,0.4-0.5-0.2-0.8,0c0-0.8-0.7-0.1-0.8-0.7l0,0.2c-0.1,0.2,0-0.1-0.1-0.2c0,0.1,0,0.2,0,0.3c-0.6,0-1-0.6-1.5-1
								c-0.2-0.1-0.4,0.8-0.5,0.3l0.2-0.3c-0.6,0.2-0.8-0.3-1.3-0.2c0.1-0.1,0.1-0.2,0.1-0.1c0-0.3-0.3-0.1-0.4,0
								c-0.1,0,0.1-0.2,0.1-0.3c0-0.2-0.3,0.2-0.3,0c0,0,0.1-0.1,0.1-0.1c-0.1,0.1-0.2-0.1-0.3,0.1c-0.1-0.2-0.3,0-0.4-0.2
								c-0.2,0.3-0.2-0.3-0.4,0.1c0.2-0.4-0.1-0.5-0.3-0.3c0.1-0.1,0-0.2,0.1-0.3c-0.1,0-0.2,0-0.3,0.2c0.1-0.6-0.6,0.2-0.4-0.5
								c-0.4,0.1-0.8,0-1.1,0c0.2-0.4,0.3,0.1,0.5-0.3c-0.3,0-0.7,0.3-0.9,0c0-0.1,0.1-0.2,0.2-0.2c-0.4,0-0.5-0.3-0.8-0.2
								c0,0,0.1-0.1,0.1-0.1c-0.1,0-0.1-0.1-0.2,0.1l0.1,0c-0.1,0.3-0.5,0.4-0.6,0.6c0.4-0.5-0.1-0.3,0.4-0.8c0,0-0.1,0.1-0.2,0.2
								c0-0.1,0-0.1,0.1-0.2c-0.2,0-0.3,0.2-0.4,0.1c0.1-0.1,0.1-0.1,0.2-0.2c-0.2,0.1-0.4,0.2-0.4,0.1c0,0,0.1-0.1,0.1-0.1
								c-0.2-0.1-0.6,0.2-0.7-0.1c0.3-0.3,0-0.2,0.3-0.5l-0.2,0l-0.1,0.2c-0.1-0.1-0.4,0-0.3-0.1l0.2-0.1l-0.2-0.1l0,0.2
								c-0.2,0.1-0.3,0.4-0.4,0.2c0.1,0-0.1-0.1,0-0.3l0,0c-0.1,0-0.3,0.1-0.3-0.1c0.1-0.1,0.3-0.3,0.4-0.3c-0.3,0.2-0.2-0.2-0.6,0
								c0.1,0,0.2-0.2,0.3-0.2l-0.2,0.1c0-0.1,0.1-0.1,0.2-0.2c-0.1-0.2-0.3,0.3-0.3,0.1c0,0,0.1,0,0.1,0c0-0.2-0.4-0.2-0.4-0.4
								c0.3-0.3,0.2,0.1,0.4-0.2c-0.2-0.2-0.7-0.2-0.7-0.5l0,0.1c-0.5,0.2,0.1-0.3-0.1-0.3c0.1,0,0.3-0.1,0.2-0.1
								c0-0.2-0.3-0.3-0.6-0.4l0.1,0c0.1-0.1-0.1-0.3,0-0.4c-0.1,0-0.1,0-0.3,0.1c0.6-0.6-0.7-0.5-0.1-1c0,0,0.1,0,0.1,0l-0.2-0.2
								c-0.2,0.1-0.1,0.1-0.3,0.2c-0.1,0-0.3,0-0.3-0.1c0.2,0.1,0.4-0.1,0.5-0.2c-0.1,0-0.1,0-0.2,0.1c0.4-0.3-0.5,0.1-0.3-0.2
								l0.1,0c-0.1-0.1-0.3-0.1-0.2-0.2c0.3-0.1,0.1,0,0.4,0c0-0.1-0.6-0.1-0.3-0.2c0.1,0,0.1,0.1,0.2,0.1c0.3-0.2,0.2-0.2,0.2-0.3
								l0,0l0.1-0.2l-0.1,0.1c-0.7,0.1-0.2-0.2-0.7-0.3c0.5,0.1,0.3,0,0.6-0.1c0.1-0.1,0.1-0.2,0.2-0.2c-0.3,0,0.2-0.2-0.2-0.2
								c0.1,0,0-0.1,0.2-0.1c-0.1-0.1-0.2,0.1-0.3,0.1c-0.4-0.1,0.3-0.5-0.2-0.6c-0.2-0.2-0.6-0.1-0.8-0.3c0.1-0.1,0.4,0,0.4,0
								c0.1-0.1,0.1-0.2-0.1-0.3c0.1,0,0.2,0,0.3-0.1c0-0.1-0.4,0-0.2-0.1c0.1,0,0.3,0,0.4,0c-0.1-0.1-0.3-0.1-0.4-0.2
								c0.2-0.1,0.3,0,0.4,0c-0.1-0.1-0.2-0.3-0.5-0.2l-0.1,0.1c0,0,0.2-0.1,0.3,0c0.2,0.1-0.1,0.2-0.2,0.2l-0.1-0.1
								c-0.6,0.2,0.2,0.3,0.1,0.4l-0.4,0l0.4,0.1c-0.1,0.1-0.3,0.1-0.4,0.1c-0.2,0.1,0.2,0.1,0,0.2c0,0-0.1,0-0.1,0l0.1,0.1
								c-0.1,0-0.3,0.1-0.2,0c-0.2,0.2,0.4,0.2,0.1,0.4l0,0c0.2,0.2,0.3,0,0.7,0.1l-0.7,0.3l0.3,0c0,0,0,0.1-0.1,0.1
								c0.2,0.1,0.1,0,0.3,0c-0.2,0.2,0.2,0.3-0.3,0.5c0.2,0,0.1-0.2,0.3-0.1c-0.5,0.2,0.1,0.1-0.1,0.3c-0.3,0-0.2-0.1-0.4,0.1
								c0.5,0,0,0.3,0.1,0.3c0.4-0.1,0.2,0.2,0.4,0.3c-0.1,0-0.1,0.4-0.2,0.6l-0.1,0c0.4-0.1,0.4,0.1,0.5,0.2
								c-0.2,0.1-0.3,0.1-0.4,0l0,0.1c0.1,0,0.2,0,0.3,0.1l-0.3,0.1c0.1,0.1,0.4,0.2,0.3,0.4c0.2-0.1,0.6-0.4,0.9-0.3
								c-0.1,0.1-0.4,0.1-0.4,0.1c0,0,0.1,0,0.1,0.1l-0.3,0c-0.1,0.1,0.2,0,0.2,0c-0.2,0.1-0.1,0.1-0.3,0.1c0,0,0.1-0.1,0-0.1
								c0,0.1-0.1,0.2-0.2,0.3c0.1,0,0.3-0.1,0.3-0.1c0.1,0.1-0.2,0.1-0.3,0.3c0.1,0,0,0.1,0.3,0c0,0-0.1,0.1-0.2,0.2
								c0.2,0,0.2,0.3,0.4,0.1l0,0c0,0,0,0,0,0l0,0l0,0c0.4,0.1,0.1,0.6,0.3,0.7l-0.1,0c0.2,0.1,0.2,0.3,0.5,0.3
								c0,0-0.1,0.2-0.2,0.2c0.1,0.1,0.2,0,0.2,0.2c-0.2,0-0.1,0.1-0.2,0c0,0.2-0.1,0.3,0.2,0.3c-0.2,0.1-0.2,0.3-0.1,0.3l0.1-0.2
								c0.1,0,0.1,0.1,0.1,0.2l-0.3,0.2c-0.1,0.5,0.9,0,0.5,0.7c0.2-0.1,0-0.2,0.3-0.4c0.1,0.1-0.2,0.6-0.2,0.6
								c0,0.3,0.5-0.2,0.6,0.1c0.1-0.1,0.3-0.3,0.5-0.3c0.1,0.1-0.2,0.5-0.4,0.5c0,0,0-0.1,0-0.1c-0.1,0-0.1,0-0.2,0.1l0.1-0.1
								c0,0.1,0.1,0.3,0,0.4c0.2,0,0.2-0.1,0.2-0.2c0,0.3,0.2,0.2,0.3,0.4c0-0.1,0.1-0.2,0.1-0.2c0.1,0.3,0.2-0.1,0.4,0
								c0,0.2-0.3,0.3-0.1,0.3c0,0.2-0.2,0.3-0.3,0.3c0.3-0.1,0.2,0.3,0.2,0.4l-0.1,0c0.1,0,0.1,0,0.2,0l0.1-0.2
								c0,0.1,0.1,0.1,0,0.2c0.1-0.1,0.2-0.4,0.4-0.5c0,0.1,0.3,0,0.1,0.3c-0.1-0.2-0.2,0.3-0.4,0.2c0.1,0,0.1,0,0.1,0.1
								c0,0,0,0.1-0.1,0.1c0,0.4,0.3-0.2,0.5-0.1c-0.1,0.1-0.1,0.3-0.1,0.3c-0.1-0.1,0.1-0.3,0.3-0.3c0,0.2,0.2,0,0.2,0.1l0-0.1
								c0.1-0.1,0.2-0.1,0.3-0.1c-0.1,0.1-0.1,0-0.1,0.1c0.3-0.2,0,0.4,0.3,0.3c0,0.1-0.2,0.3-0.2,0.4c0.3-0.1,0,0.3,0.3,0.2
								c0.1-0.2,0-0.2,0.3-0.3l-0.3,0l0.3-0.2c-0.1,0-0.2,0-0.3,0c0.2-0.1,0.1-0.1,0.2-0.3c-0.1,0.4,0.3-0.1,0.3,0.2l-0.3,0.5
								c0.1,0.3,0.5-0.1,0.6,0.2l0-0.1c0.1-0.2,0.2,0.1,0.3,0c-0.1,0.2-0.1,0.3-0.1,0.4c0.1-0.1,0.2,0.1,0.4-0.2l0,0.3
								c0.1,0.2,0.5-0.4,0.6-0.2c-0.2,0.2-0.1,0.3-0.3,0.4c0.1,0,0.1,0.1,0.2,0c0,0.1,0.3-0.2,0.3,0c0.1-0.1,0.2-0.3,0.2-0.2
								c0,0,0,0.1,0,0.1c0-0.1,0.2-0.1,0.2-0.3c-0.1,0.7,0.6,0.2,0.5,0.8c0.2,0,0.4,0,0.5,0.1c0,0.1,0,0.1-0.1,0.1
								c0.1,0.3,0.3-0.5,0.5-0.2c0,0.3-0.2,0.1-0.2,0.3c-0.2,0.6,0.3,0,0.3,0.4l0,0c0,0.3,0.4-0.1,0.5,0c0,0,0,0.1,0,0.1
								c0.2-0.3,0.5-0.3,0.7-0.3c-0.1,0.2-0.1,0.1-0.2,0.4c0.1,0,0.1-0.4,0.3-0.4c0,0.2,0.1,0.3,0,0.6l-0.1,0
								c-0.1,0.4,0.2,0.1,0.2,0.1L72,128c0.2,0,0.4-0.3,0.6-0.2l0-0.1c0.3-0.3,0,0.2,0.3,0l-0.1,0.4c0.1-0.1,0.4-0.3,0.6-0.3
								c-0.2,0.3-0.4,0.3-0.6,0.5c0.1,0,0.3,0.1,0.4-0.1c0,0-0.1,0.1-0.1,0c0.2-0.3,0.4-0.4,0.6-0.3c-0.3,0.7,0.4,0.3,0.3,0.9
								c0.4-0.2,0.6,0.3,0.9,0.4c0-0.6,0.1,0,0.3-0.6c0.1,0,0.1,0,0.1,0l0.1,0.4c0,0.2-0.1,0.1-0.1,0.2c0.2,0.1,0,0.3,0.1,0.5
								c0-0.2,0.1-0.3,0.2-0.2l-0.1-0.3c0.3-0.3,0.1,0.6,0.4,0.3l-0.1,0.2c0.2-0.1,0.5,0.1,0.7-0.3c0,0.1,0,0.3-0.1,0.3
								c0.3,0.1,0.8-0.4,1,0l-0.1,0.1c0.1,0,0.2-0.3,0.2-0.1c0,0.1-0.1,0.1,0,0.2c0,0,0.2-0.2,0.3-0.1l-0.1,0.2
								c0.3,0.3,0.6-0.3,0.8-0.4c-0.1,0.4,0.1,0.6,0.3,0.7l0,0.1c0.4,0.1,0.7-0.3,1-0.4c0.1,0.5,0.7,0.3,1,0.6c0-0.1,0-0.3,0.1-0.4
								c0.1,0.1,0.2-0.3,0.2,0.1l0,0c0,0.4,0.2,0.3,0.3,0.3l0.1-0.5c0.3,0.8,0.9-0.2,1.1,0.5c0.1-0.1,0.2-0.1,0.3-0.3l0,0.3
								c0.2,0.1,0.3,0.1,0.6,0l-0.1,0.2c0.2,0,0.2-0.8,0.3-0.9l0.1,0.4c0.3,0,0.6,0.3,0.8-0.1c0,0.1,0,0.2,0,0.2
								c0.1,0,0.5,0.2,0.4-0.3c0,0.4,0.3,0,0.4-0.2l0,0.3c0.1-0.4,0.1-0.5,0.2-0.6c0,0,0.1,0.2,0,0.2c0.2,0.1,0.1-0.3,0.3-0.2l0,0.2
								c0.1,0,0.1-0.1,0.2-0.3c0.1-0.1,0.3,0,0.3,0.3c0-0.2,0-0.4,0.1-0.3c0,0.1,0,0.2,0,0.2c0.3,0.1,0.3-0.4,0.5-0.2
								c0,0.1,0,0.1,0.1,0.2c-0.2,0-0.3,0-0.3,0c0.1,0.3,0.2,0.3,0.2,0.7c0.1-0.2,0.2-0.7,0.4-0.6c0,0,0,0,0,0.1l0,0
								c0,0,0.1,0,0.1-0.1c0.1,0,0.1,0.1,0.1,0c0.1,0.2,0.2,0.1,0.3,0.1c-0.1-0.3,0-0.3-0.1-0.5c0,0,0,0-0.1,0.1c0,0,0,0,0,0l0,0
								c0,0-0.1,0-0.2,0.1c0-0.2,0.1-0.3,0.2-0.2c0-0.2,0-0.4,0-0.5c0.2,0.4,0.5,0.5,0.6,0.7c0.2-0.2,0.5-0.3,0.5-0.8
								c0-0.1,0.1,0.1,0.2,0.2c0,0.1-0.1,0.1-0.1,0.2c0.1-0.2,0.4-0.2,0.2-0.6c0.2,0.1,0,0.4,0.2,0.2l0,0.1c0.7,0.4,0.2-1.2,1.1-0.7
								c-0.1,0-0.1,0-0.1-0.1c0.3,0,0.5-0.2,0.8-0.4c0.2-0.2,0.4-0.4,0.8-0.4c0.2,0,0-0.2,0-0.4L92,127l-0.1-0.4
								c0-0.3,0.8,0.2,0.7-0.4l-0.2-0.1c0.1-0.1,0.1-0.3,0.3-0.2c0,0-0.1-0.2,0-0.1l0.1,0.1l-0.1-0.4c0.2-0.1,0.5,0.4,0.7,0.1
								c0-0.1-0.2-0.5-0.3-0.5c0,0-0.2,0-0.3,0l0-0.1c-0.4-0.3-0.8-0.5-1.2-0.6l0.2,0.3l-0.2-0.1l0.1-0.1c-0.2-0.1-0.1,0.1,0,0.2
								c-0.1-0.1-0.2-0.1-0.2-0.1l0.3,0.4c-0.2-0.1-0.3-0.3-0.4-0.3c0.1,0.2,0.4,0.2,0.4,0.4c-0.2-0.1-0.3-0.2-0.2,0
								c-0.1-0.1-0.2-0.1-0.2-0.2c0.1,0.1-0.1,0.2,0.1,0.4c-0.3-0.1-0.1,0.2-0.4-0.1c0.1,0.1,0.2,0.3,0.2,0.4
								c-0.3-0.5-0.2,0.1-0.6-0.3c0.3,0.4-0.1,0.4,0,0.7c0,0-0.1-0.1,0-0.1c-0.1,0-0.2-0.1-0.3-0.1c0.2,0.3,0.2,0.5,0.3,0.7
								c-0.3-0.2-0.2-0.4-0.5-0.7c0.2,0.3,0.1,0.4,0.2,0.6c-0.2-0.1-0.1,0-0.4-0.3c0.3,0.4,0,0.1,0.1,0.4c-0.2-0.1-0.3-0.4-0.3-0.2
								C89.5,126.2,89.5,126,89.5,126z M86.9,128L86.9,128C86.9,128,86.9,128,86.9,128C86.9,128,86.9,128,86.9,128z M86.6,128.1
								c0,0,0.1,0,0.1,0c0,0.1,0,0.2,0,0.2C86.7,128.2,86.7,128.2,86.6,128.1z M87.7,129.9C87.7,129.9,87.6,129.9,87.7,129.9
								c-0.1-0.1,0-0.1,0-0.1l0,0C87.7,129.8,87.7,129.8,87.7,129.9z"/>
							<path fill="#202020" d="M87.7,129.5C87.7,129.5,87.7,129.5,87.7,129.5C87.7,129.4,87.7,129.4,87.7,129.5L87.7,129.5
								L87.7,129.5z"/>
							<path fill="#202020" d="M62.4,120L62.4,120C62.4,120,62.4,120,62.4,120C62.4,120,62.4,120,62.4,120z"/>
							<polygon fill="#202020" points="82.6,127.9 82.6,128 82.6,127.9 							"/>
							<path fill="#202020" d="M62.7,118.1C62.8,118.1,62.8,118.1,62.7,118.1C62.8,118.1,62.8,118.1,62.7,118.1z"/>
							<path fill="#202020" d="M62.6,117.4l0.1-0.1C62.6,117.3,62.6,117.4,62.6,117.4z"/>
							<path fill="#202020" d="M62.6,116.8c-0.1,0-0.1,0-0.1,0l0,0L62.6,116.8z"/>
							<path fill="#202020" d="M67.3,123.3C67.3,123.3,67.3,123.3,67.3,123.3C67.3,123.3,67.3,123.3,67.3,123.3z"/>
							<path fill="#202020" d="M64.9,122.3c0.1,0,0.1,0,0.2,0C65.1,122.2,65,122.2,64.9,122.3z"/>
							<polygon fill="#202020" points="69.9,124.4 69.9,124.4 69.9,124.4 							"/>
							<path fill="#202020" d="M65.1,122.3C65.2,122.3,65.1,122.2,65.1,122.3C65.1,122.3,65.1,122.3,65.1,122.3z"/>
							<path fill="#202020" d="M62.2,114.5L62.2,114.5C62.2,114.5,62.2,114.5,62.2,114.5L62.2,114.5z"/>
							<path fill="#202020" d="M62.2,114.5L62.2,114.5C62.1,114.5,62.1,114.5,62.2,114.5z"/>
							<path fill="#202020" d="M62,114.4L62,114.4C62.1,114.4,62.1,114.4,62,114.4z"/>
							<path fill="#202020" d="M62.2,115.2l0.1,0C62.3,115.2,62.3,115.2,62.2,115.2z"/>
							<path fill="#202020" d="M62.3,115.5c0-0.1,0.2-0.2,0.1-0.2l-0.1,0C62.5,115.2,62.1,115.4,62.3,115.5z"/>
							<path fill="#202020" d="M61.2,116.7l0-0.2c-0.1,0.1-0.2,0.1-0.3,0.1C60.7,116.8,61.2,116.4,61.2,116.7z"/>
							<path fill="#202020" d="M61.2,117.3c-0.1-0.1-0.2,0-0.2,0.1C61.1,117.4,61.2,117.4,61.2,117.3z"/>
							<path fill="#202020" d="M62.9,121.4l-0.2,0.1C62.7,121.5,62.7,121.4,62.9,121.4z"/>
							<polygon fill="#202020" points="64.4,121.3 64.5,121.1 64.3,121.2 							"/>
							<polygon fill="#202020" points="63.2,122.8 63.2,122.8 63.4,122.9 							"/>
							<path fill="#202020" d="M69.5,127l0.1-0.3C69.6,126.7,69.4,127.1,69.5,127z"/>
							<path fill="#202020" d="M72.5,127.9c0,0.2,0,0.3,0.1,0.2C72.6,128,72.6,127.9,72.5,127.9z"/>
							<polygon fill="#202020" points="81.7,130.4 81.6,130.5 81.7,130.4 							"/>
						</g>
					</g>
				</g>
			</g>
		</g>
	</g>
</g>
</svg>
