<?xml version="1.0" encoding="utf-8"?>
<!-- Generator: Adobe Illustrator 18.0.0, SVG Export Plug-In . SVG Version: 6.00 Build 0)  -->
<!DOCTYPE svg PUBLIC "-//W3C//DTD SVG 1.1//EN" "http://www.w3.org/Graphics/SVG/1.1/DTD/svg11.dtd">
<svg version="1.1" id="Layer_1" xmlns="http://www.w3.org/2000/svg" xmlns:xlink="http://www.w3.org/1999/xlink" x="0px" y="0px"
	 viewBox="0 0 144 144" enable-background="new 0 0 144 144" xml:space="preserve">
<g>
	<g>
		<g>
			<g>
				<g>
					<g>
						<g>
							<path fill="#202020" d="M80.5,106.2c0.1,0.1,0.1,0,0-0.2l-0.2-0.1L80.5,106.2z"/>
							<path fill="#202020" d="M80.2,104.4c-0.1-0.3-0.4-0.6-0.4-0.4c0.2,0.3,0.2,0.3,0.4,0.6c0.1,0.2,0.1,0.4,0,0.4
								c0.1,0.1,0.1,0.4,0.2,0.5C80.4,105.3,80.3,104.8,80.2,104.4C80.1,104.3,80.2,104.4,80.2,104.4z"/>
							<path fill="#202020" d="M73.1,80.2l0,0.2C73.2,80.3,73.2,80.2,73.1,80.2z"/>
							<path fill="#202020" d="M68.7,65.1c0,0.1,0.1,0.2,0.1,0.2C68.8,65.2,68.7,65.1,68.7,65.1z"/>
							<path fill="#202020" d="M67.1,63.2c0.1,0,0.1,0,0.2,0C67.2,63.2,67.1,63.2,67.1,63.2z"/>
							<path fill="#202020" d="M73.1,80.2l-0.1-0.4C73,79.7,73.1,80,73.1,80.2z"/>
							<path fill="#202020" d="M78.9,101.2c0,0.1,0.1,0.1,0.1,0.2L78.9,101.2L78.9,101.2z"/>
							<path fill="#202020" d="M75.2,86.7l0,0.1c0,0,0.1,0.1,0.1,0.1L75.2,86.7z"/>
							<path fill="#202020" d="M76.7,91.8c0-0.1-0.1-0.1-0.2-0.2C76.6,91.7,76.6,91.8,76.7,91.8C76.7,91.9,76.7,91.9,76.7,91.8z"/>
							<path fill="#202020" d="M79,99.9l0.1,0.1C79,100,79,100,79,99.9z"/>
							<path fill="#202020" d="M74.1,83.1C74.2,83.1,74.2,83.1,74.1,83.1C74.2,83,74.2,83.1,74.1,83.1z"/>
							<path fill="#202020" d="M74.7,107.4C74.7,107.4,74.7,107.4,74.7,107.4C74.7,107.4,74.7,107.4,74.7,107.4z"/>
							<path fill="#202020" d="M80.7,106.1L80.7,106.1C80.6,106.2,80.6,106.2,80.7,106.1L80.7,106.1z"/>
							<path fill="#202020" d="M62.3,64.5C62.4,64.5,62.4,64.5,62.3,64.5C62.5,64.5,62.4,64.5,62.3,64.5z"/>
							<path fill="#202020" d="M26.5,82.1c-0.1-0.5,0.4,0.8,0.2,0C26.8,82.1,26.4,81.4,26.5,82.1z"/>
							<path fill="#202020" d="M78.9,101.1l-0.1-0.2C78.8,100.9,78.8,101,78.9,101.1z"/>
							<path fill="#202020" d="M26.8,82.1L26.8,82.1L26.8,82.1C26.8,82,26.8,82,26.8,82.1z"/>
							<path fill="#202020" d="M51.6,67.8c0,0,0.1,0,0.1,0C51.7,67.8,51.6,67.8,51.6,67.8z"/>
							<path fill="#202020" d="M59.7,65.5l-0.2,0C59.5,65.6,59.6,65.6,59.7,65.5z"/>
							<path fill="#202020" d="M47.4,69.2c-0.1,0-0.2,0-0.3,0.1l0,0C47.2,69.2,47.3,69.2,47.4,69.2z"/>
							<path fill="#202020" d="M43.1,70.5L43.1,70.5c0.1,0,0.2,0,0.2,0L43.1,70.5z"/>
							<path fill="#202020" d="M61.5,111.4c0.1,0,0.2,0,0.2,0C61.6,111.4,62.2,111.1,61.5,111.4z"/>
							<path fill="#202020" d="M78.9,101.2c0,0-0.1-0.1-0.1-0.1L78.9,101.2C78.9,101.2,78.9,101.2,78.9,101.2z"/>
							<path fill="#202020" d="M47.5,70.1l-0.7,0.2C47,70.2,47.2,70.1,47.5,70.1z"/>
							<path fill="#202020" d="M36.1,111.1l0.1,0.2C36.2,111.2,36.2,111.2,36.1,111.1z"/>
							<path fill="#202020" d="M44.7,70.9c-0.1,0-0.3,0-0.4,0c0,0-0.1,0-0.1,0.1L44.7,70.9z"/>
							<path fill="#202020" d="M61.7,111.4L61.7,111.4L61.7,111.4z"/>
							<path fill="#202020" d="M66.2,109.8c-0.7,0.2-0.3,0.2-0.4,0.3c-0.8,0.3-0.4,0-0.7,0c-0.5,0.2-0.8,0.4-1.2,0.5
								c0,0-0.1,0,0-0.1c-0.5,0.3-1.5,0.5-2.1,0.8c0,0-0.1,0-0.1,0c0.1,0,0.2,0.1,0.1,0.2c-0.3,0.1-0.5,0.2-0.7,0.2
								c0.2-0.1,0.2-0.1,0.3-0.1l-0.3,0.1c-0.3,0,0.4-0.2,0.4-0.3c-0.6,0.2-1.3,0.5-1.7,0.6c-0.1-0.1,1.1-0.4,0.4-0.3l0.7-0.2
								c-0.6,0,0.4-0.1-0.1-0.2c-1,0.2-1,0.4-2,0.6c-0.2,0.1,0.1,0.1-0.1,0.2c-1.3,0.5-1.1,0-2.1,0.5c-0.2,0.2-0.3,0.3-1,0.5
								l0.2-0.2c-0.9,0.3-0.5,0.4-1.4,0.5c0.2-0.1,0.7-0.3,0.6-0.2c-0.7,0.1-0.4,0.2-0.9,0.4l-0.1-0.1c-1,0.3-2,0.7-3.1,1.1
								c0-0.1,0.2-0.1,0-0.1c-1.3,0.5-2.9,0.8-4.2,1.2l-0.5,0.3c-0.1,0-0.2,0-0.1,0c-0.5,0.1,0,0.1-0.2,0.2c-0.3,0.1-0.4,0.1-0.2,0
								c-0.9,0.4-2.5,1-3.5,1.1l0.2-0.1c-0.8,0.2-0.8,0.5-1.5,0.6l0.1-0.1c-0.5,0.1-1,0.3-1.5,0.4c-0.4,0.1-0.8,0.2-1.2,0.3
								c0-0.1-0.2-0.8-0.3-1.3c-0.2-0.2-0.4-1.6-0.7-1.6c-0.2-0.9,0-0.7-0.4-2c-0.1-0.3-0.3-0.5-0.4-0.9l0.1,0l-0.3-0.5l0-0.3
								l-0.1-0.4c0,0.2,0,0.4,0,0.3c-0.2-0.6-0.4-1.5-0.3-1.6l-0.5-1.4c0.1,0,0.1,0.3,0.2,0.4c-0.4-0.8,0.1-0.2-0.2-0.9
								c0,0.1-0.1,0-0.1,0c0-0.4-0.3-1.2-0.5-1.8l0.1,0.1c-0.3-1.1-0.7-2.3-1.1-3.5c0.1,0.5-0.1,0.4-0.2,0l0.1-0.2
								c-0.1-0.2,0.1,0.4-0.2-0.1c-0.1-0.5,0-0.3,0.2-0.1l-0.2-0.5c0,0,0.1,0.1,0.1,0.1c-0.1-0.2-0.2-1-0.4-1.3l0,0
								c-0.4-1.2-0.6-1.8-0.9-2.8c-0.1,0-0.2-0.4-0.4-0.7c-0.2-0.7-0.3-1.6-0.6-2.5c-0.2-0.6-0.1-0.2-0.3-0.4c0.1-0.1-0.2-1,0-0.5
								c-0.3-1.1-0.4-1.4-0.9-2.7c0,0.2,0,0.3,0,0.3C30,91.3,30,91,30.1,91l0,0.1c-0.6-1.5-0.8-3.6-1.3-4.7l0,0.1l-0.5-1.2
								c-0.2-0.6,0.2,0.3,0.1-0.1c-0.6-1.3-0.6-2.1-1-3.2c0-0.9-0.9-3-1.1-4.2l0,0.1c-0.2-0.3-0.1-0.4-0.1-0.6c0,0,0,0.3-0.1,0.2
								c-0.1-0.3-0.2-0.6-0.3-0.9c0.4-0.1,0.8-0.2,1.2-0.3c0.5-0.1,1.1-0.3,1.6-0.4c1.1-0.3,2.2-0.6,3.3-0.9c1-0.3,0.4-0.5,1.7-0.7
								l-0.3,0.2c1.9-0.7,3.9-1.2,5.8-1.8c-0.1,0.1-0.1,0.1-0.3,0.2c0.4,0,1.5-0.4,1.4-0.5c0.3-0.1,0.1,0,0.3,0
								c0.4-0.1,1-0.4,1.2-0.4c0,0-0.1,0.1-0.2,0.1c0.2-0.1,1.2-0.3,0.9-0.4c0.7-0.2,1.3-0.4,1.9-0.6c0.3-0.2,1.2-0.3,1.3-0.5
								c0,0.2,1.3-0.2,1.7-0.4c-0.1,0.1,0.4-0.1,0.2,0.1c0.5-0.2,1-0.3,0.8-0.4c1-0.1,1.8-0.7,2.4-0.6c1.5-0.5,2.9-1,4.2-1.5
								c0,0.2-1.5,0.5-1.4,0.6c1.3-0.5,2-0.8,3.3-1.2c0.3-0.1-0.2,0.1-0.3,0.2c1.3-0.5,2.5-0.7,3.6-1.2c0,0-0.1,0.1-0.2,0.1
								c0.2-0.1,0.5-0.1,0.5-0.2l-0.2,0.1c-0.4,0,0.8-0.5,0.8-0.6c-0.3,0.3,1.1-0.3,0.6,0.2c0.1-0.1,0.3-0.1,0.3-0.2
								c0.2-0.1,0.3,0,0.1,0.1c0.8-0.3,0.5-0.3,1.2-0.5c0,0-0.1,0.1-0.2,0.2c0.3-0.2,0.7-0.4,1.3-0.5c0,0,0,0-0.1,0.1
								c1.1-0.3,1.8-0.7,2.9-1c-0.1,0.1,0,0.1,0.1,0.1c0.1,0,0.2,0,0.2,0l0.1-0.1l0.1,0.1c0,0,0-0.2,0-0.2c0,0.1,0.1,0.2,0.2,0.5
								c0.1,0.2,0.2,0.5,0.2,0.7L68,64.7l0.3,1l-0.1-0.6c0.2,0.5,0.2-0.1,0.3,0.6c-0.1-0.1,0.2,0.5,0.2,0.9l0,0
								c0.1,0.3,0.3,0.5,0.3,0.9c0,0.1-0.2,0-0.2,0c0.2,0.2,0.4,1.3,0.6,1.6c-0.1-0.1-0.1-0.1-0.1,0l0.2,0.2c0,0.3,0,0.3,0,0.3
								c0.2,0.8,0.1-0.3,0.3,0.6c0-0.1,0,0-0.1-0.2c0.2,0.9,0.6,1.7,0.8,2.6c-0.1,0.3-0.3-0.7-0.3-0.4c0.4,1.2,0.9,2.4,1.2,3.6
								l0-0.2c0.2,0.1,0.2,0.9,0.4,1.5c-0.1-0.1-0.2-0.2-0.1-0.1c0.2,0.8,0.5,1.6,1,2.8l-0.1-0.1c0.1,0.5,0.3,1.2,0.5,1.8
								c0.1,0.1,0.2,0.4,0.2,0.2c0.2,1.7,1,2.9,1.2,4.4c-0.1-0.2-0.2-0.4-0.1-0.3l0.4,1.2c0.1-0.1,0-0.2,0-0.4
								c0.1,0.1,0.2,0.5,0.3,0.8c-0.2-0.5-0.1,0-0.1,0.3c0,0,0.1,0,0.1,0c0,0.7,0.2,0.1,0.4,0.9l-0.1,0c0.1,0.3,0.3,0.6,0.4,0.9
								c-0.1,0.2-0.1-0.3-0.2-0.3c0.1,0.5,0.5,0.9,0.5,1.4c-0.1-0.2-0.2-0.5-0.3-0.7c0,0.5,0.1,0.6,0.2,0.9l0,0l0.2,0.8l0-0.2
								c0.4,0.5,0.4,1.2,0.8,2c-0.4-0.7-0.1-0.1-0.3-0.1c0,0.2,0.1,0.5,0,0.5c0.2,0.4,0.1,0.7,0.4,1.2c0,0,0.1,0.4,0,0.4
								c0.2,0.5,0-0.1,0.1-0.1c0.4,0.7,0.4,1.8,0.9,2.9c0.4,0.9,0.5,1.1,0.9,1.9c0,0.3-0.2-0.2-0.2-0.2c0.1,0.5,0.2,0.9,0.4,1.3
								c-0.1-0.1-0.1,0-0.1,0.2c0.1,0.4,0.2,0.2,0.3,0.7c-0.1-0.1-0.2-0.2-0.3-0.3c0.2,0.4,0.3,0.8,0.5,1.3c0,0.1-0.2-0.2-0.3-0.4
								c0.2,0.5,0.4,1.3,0.6,1.4l-0.1-0.3c0.1,0.2-0.1,0.1-0.1,0c-0.2-0.4-0.1-0.6-0.1-0.7l0.1,0.3c0.1-0.4-0.4-1.3-0.6-1.9l0.2,0.2
								l-0.3-0.6c0-0.2,0.1-0.3,0.2,0c-0.1-0.5-0.2-0.4-0.2-0.8c0,0,0,0,0,0l-0.2-0.4c0.1,0.1,0.1-0.1,0.1,0.2
								c-0.1-0.8-0.5-1.3-0.5-1.6l0,0.1c-0.4-1.1-0.1-0.1-0.5-0.9l0.1-0.6l-0.1-0.1c0-0.1-0.1-0.3,0-0.3c-0.2-0.4,0,0.1-0.2-0.1
								c-0.1-0.6-0.5-1.5-0.4-1.7c-0.1-0.2,0.1,0.5-0.1,0c0.1-0.2-0.2-0.7-0.3-1.2c0.1,0.1,0.2,0.6,0.2,0.1c-0.3-0.3-0.3-1-0.4-1.4
								c-0.1,0-0.3-0.9-0.6-1.6c0.1,0-0.3-1.4-0.5-2l0,0c-0.2-0.1-0.4-0.8-0.5-1.3c0.1,0,0.1,0.1,0.3,0.3l-0.1-0.5
								c-0.1-0.1-0.1-0.2-0.2-0.5l0.1,0.1c-0.2-0.6-0.5-1.2-0.7-2c-0.1,0-0.1,0.7-0.4-0.1c0,0,0.1-0.1,0.2,0.1
								c0-0.1-0.1-0.2-0.1-0.4l0.2,0.3c-0.1-0.4-0.1-0.2-0.2-0.5c0.1,0,0-0.2,0.1-0.2c0,0.1,0,0.3,0.1,0.4c-0.1-0.3-0.2-0.7-0.1-0.9
								c0,0-0.1,0-0.2-0.2c-0.2-0.6,0-0.2,0-0.6c-0.1-0.1-0.2-0.5-0.3-0.5c-0.1-0.2,0-0.2,0-0.3c-0.1-0.3-0.5-1.5-0.5-1.1l0,0.1
								c0,0,0,0,0-0.1l0,0l0,0c-0.4-1-0.6-2.2-1-3.2l0,0c-0.2-0.6-0.4-1.4-0.7-1.8c-0.1-0.2-0.1-0.5,0-0.4c-0.2-0.5-0.2-0.5-0.4-1.2
								c0.2,0.5,0-0.2,0.2,0.5c-0.2-0.6-0.1-0.8-0.4-1.4c0.2,0.2,0-0.5-0.1-0.8l0.1,0.5c-0.1-0.3-0.2-0.6-0.3-0.9l0.2,0.1
								c-0.2-1.3-0.9-2.2-1-3.3c-0.2-0.3,0.1,0.7,0,0.4c-0.2-0.6-0.2-1.2-0.2-1.4c-0.2-0.8-0.4-0.7-0.6-1.5c0,0.1-0.1,0.3-0.3-0.4
								c-0.2-0.6,0-0.8,0.1-0.4c0,0.1,0.1,0.2,0,0.2c0.1,0.2,0.2,0.4,0.1,0.2l-0.1-0.1c0-0.3-0.3-1.1-0.2-0.9
								c-0.2-0.4-0.1-0.2-0.1,0.2c-0.1-0.3-0.1-0.5-0.2-0.7c-0.1-0.3-0.2-0.6-0.3-1c-0.3,0.1-0.6,0.2-1,0.3c0.2,0,0.4,0,0.2,0
								c-1.2,0.3-0.5,0.2-1.3,0.5c-0.5,0.1,0.1-0.2-0.6,0.1c-0.5,0.1-0.1-0.1,0-0.2c-0.7,0.3-1.3,0.3-1.7,0.4l0.4-0.1
								c-0.2,0.1-0.4,0.1-0.6,0.2l0.2,0c-0.2,0-0.4,0.1-0.4,0.1c-0.2,0.1,0.2,0.1-0.2,0.3c-0.3,0-0.9,0.3-1,0.2
								c0.9-0.2-0.1-0.1,0.6-0.3c-0.1,0.1-0.3,0.1-0.5,0.2c0,0,0,0,0.1-0.1c-0.9,0.2-0.4,0.3-1.3,0.5c0.1-0.1-0.2-0.1-0.4,0
								c0.4-0.1,0.2,0.1-0.1,0.2c-0.6,0.1-0.6,0.2-0.9,0.3l0.4-0.1c-0.1,0.1-0.4,0.2-0.8,0.3c0,0,0.4-0.1,0.2-0.1
								c-0.4,0.2-1,0.2-1.7,0.4c-0.3,0-0.1-0.1-0.3-0.1c-0.7,0.3-0.8,0.1-1.5,0.4c0.2,0,0.3,0-0.2,0.2l1.2-0.4l-0.7,0.4
								c0.4-0.1,0.8-0.3,1-0.3c-0.3,0.2-0.3,0.1-0.1,0.2c-0.5,0-1,0.4-1.6,0.5l0-0.2c-0.9,0.2-1.5,0.6-2.7,0.9l0.4-0.1
								c-0.1,0.1-0.7,0.2-1,0.4c0-0.1-0.2,0-0.4,0c0,0-0.8,0.2-0.9,0.4l-0.5,0.1c-0.9,0.2-1,0.5-1.9,0.8c0.2-0.2-0.2-0.1,0.4-0.3
								c-0.3,0.1-0.6,0.2-0.5,0.2c-0.2,0-0.8,0.3-1.1,0.4c-0.1,0.1-0.1,0.2-0.5,0.2c0,0,0,0,0,0c0,0-0.5,0.2-0.2,0.2
								c-1,0-2.5,0.8-3.4,0.8c-0.6,0.2-1.4,0.5-2,0.6c0,0,0,0,0.1-0.1c-0.8,0.2-0.4,0.4-1.4,0.6c-0.5,0,0.5-0.2,0.2-0.2
								c-0.2-0.2-1.1,0.4-1.7,0.4l0.1-0.1c-0.5,0.1-1.1,0.4-1.9,0.6c0,0,0,0,0,0c-0.5,0.3-1.5,0.6-2.2,0.9c0.2-0.2,0.3-0.1,0.2-0.2
								c-0.3,0.1,0.1,0.1-0.5,0.3c-0.2,0-0.7,0.1-0.8,0l0.6-0.2c-0.4,0-0.8,0.2-1.1,0.3l0-0.1c-0.9,0.3-0.9,0.5-1.9,0.7l0.1,0
								c-0.5,0.3-0.5,0.1-1,0.3l-0.2-0.1c-0.4,0.1-1.3,0.5-1.9,0.8c0.3-0.2,1.1-0.5,1.6-0.7c-0.4,0.1-1.2,0.4-1.4,0.5
								c0.1-0.1,0.3-0.1,0.5-0.2c-0.4,0.2-1,0.5-1.7,0.7c0-0.1-0.2-0.1-0.5,0c-0.2,0-0.3,0.1-0.5,0.1c-0.3,0.1-0.6,0.2-0.8,0.2
								c0.1,0.3,0.2,0.6,0.2,0.8c0,0.2,0.1,0.3,0,0.4c0.5,1.3,0.7,2.6,1.2,4.1c0.1-0.6,0.1,0.4,0.3,0.3c0.1,0.3,0.2,0.5,0.1,0.5
								l0.2,1.1c0,0.3-0.1-0.3-0.2-0.3c0.2,0.8,0,0.3,0.1,0.9c0-0.1,0.2,0.2,0.3,0.7l-0.1-0.6c0.4,1,0.1,1,0.5,2l-0.2-0.3
								c0.2,0.5,0.6,2,1,2.5c0,0.1,0,0.3-0.1,0c0.4,1.3,1.1,2.9,1.3,3.9l-0.1-0.1c0.1,0.2,0.2,0.4,0.3,0.7c0,0-0.1-0.1-0.1,0
								c0.1,0.1,0.3,0.6,0.4,1l-0.1-0.3c0.3,1.3,0.7,1.9,1.1,3c-0.2,0,0.1,1.1,0.2,1.6l0,0c0.4,1.5,0.9,2.5,1.4,3.9
								c0.1,0.9,0.8,2.9,1.1,4.4c0-0.2,0.1,0,0.2,0.2c0.1,0.3,0.4,0.9,0.2,0.9l0-0.1c-0.1,0.3,0.2,0.9,0.3,1.5l0.2,0
								c0.1,1.5,1.2,3.6,1.1,4.4c0.1,0.3,0.3,0.7,0.4,1l-0.1,0c0.2,0.9,0.4,1.4,0.7,2.5l-0.1-0.2c0.2,0.6,0.5,0.7,0.7,1.3l-0.1,0.2
								c0.1,0.5,0.3,1,0.4,1.5c0.5-0.1,1.1-0.3,1.6-0.4c0.4-0.1,0.8-0.2,1.1-0.4c0,0,0,0.1-0.2,0.1c0.5-0.2,2.1-0.5,1.8-0.7
								c0.1,0.1,1.2-0.3,1.7-0.6l-0.1,0.1c0.5-0.3,0.5-0.3,1.2-0.6c0.2,0,0.2,0-0.1,0.1c0.6-0.1,0.4-0.2,1.1-0.4l-0.2,0.1
								c0.6-0.2,0.5-0.2,0.8-0.4c0.3-0.1,1.1-0.3,1.2-0.2c0.1-0.1,0.4-0.2,0.7-0.3c0.1,0-0.1,0.1-0.1,0.1c1-0.2,1.4-0.5,2.1-0.6
								c0,0,0.1,0,0.1,0c-0.8,0.2-1.4,0.4-1.3,0.4c0,0.1,0.7-0.1,0.2,0.2c0.5-0.2,1.3-0.6,1.9-0.8c0,0,0.1,0,0.1,0l-0.1,0
								c0.1,0,0.3-0.1,0.4-0.1c0.2,0,0.3-0.1,0.5-0.1c0.1,0.1,0.7-0.2,1-0.3c-0.1-0.1,0.4-0.2-0.1-0.2c0.1,0-0.1,0-0.3,0.1
								c0,0-0.1,0-0.1,0l0,0c-0.2,0.1-0.5,0.1-0.8,0.2c0.2-0.1,0.5-0.2,0.8-0.3c0.1-0.1,0.3-0.2,0.4-0.3c0.5,0,1.3-0.1,1.4-0.1
								c0.9-0.3,2.2-0.7,2.7-1.1c0.3-0.1,0.3,0,0.4,0c-0.1,0.1-0.3,0.1-0.4,0.2c0.5-0.2,1.6-0.5,1.7-0.7c0.7-0.1-0.3,0.2,0.6-0.1
								l-0.1,0.1c1.9-0.3,2.9-1.2,5-1.6c-0.1,0-0.2,0-0.3,0c2.3-0.6,4.7-1.5,7-2c0.7-0.2,0.7-0.3,1.1-0.4l0.2,0.1l0.6-0.3
								c0.9-0.4,1.7-0.2,2.9-0.8l-0.2,0c0.4-0.1,1.4-0.5,1.3-0.3c0,0,0.1-0.1,0.3-0.1l0,0.1l1-0.4c0.8-0.2-0.1,0.3,1.1-0.1
								c0.4-0.2,1.2-0.6,1-0.5c-0.2,0.1-0.5,0.1-0.5,0l0.4-0.2c0-0.2,0.3-0.5-0.8-0.3l-0.7,0.3l-0.3,0l0.6-0.2
								c-0.4,0-0.5,0.2-0.8,0.3c-0.1,0-0.2,0-0.3,0l-0.6,0.4c-0.1,0,0.3-0.2-0.2-0.1c-0.3,0.2,0.4,0.1-0.2,0.3
								c-0.4,0-0.3-0.1-0.7,0.1c-0.1,0,0-0.1,0.2-0.1c-0.3,0.2-0.9,0.3-1.1,0.4c-0.4,0-1.2,0.4-1.2,0.2c-0.1,0.1-0.6,0.3-0.9,0.4
								c0.5-0.4-1.2,0.3-1.1,0.1c-0.4,0.3-1.5,0.5-2.3,0.9c0,0,0.1-0.1,0.2-0.1c-0.4,0.1-0.6,0.1-0.9,0.2c0,0.2-0.7,0.4-1,0.6
								c-0.6,0,0.3-0.3,0.1-0.3c0.1,0.1-0.9,0.4-0.7,0.4c-0.4,0-0.4,0.1-0.6,0c0,0.2-0.4,0.1-0.7,0.4c-0.6,0.1-0.2-0.1-0.8,0.1
								C65.6,110,66.2,109.8,66.2,109.8z M50.9,114.7L50.9,114.7c0.1,0,0.2-0.1,0.3-0.1C51.1,114.6,51,114.7,50.9,114.7z
								 M49.6,115.1c0.2,0,0.4-0.1,0.6-0.2c0.1,0,0,0.1-0.1,0.1C50.1,115,49.8,115.1,49.6,115.1z M52.5,115
								c-0.2,0.1-0.3,0.1-0.3,0.1C52.3,115,52.4,115,52.5,115L52.5,115C52.6,114.9,52.6,115,52.5,115z"/>
							<path fill="#202020" d="M52.9,114.7C52.9,114.7,52.9,114.7,52.9,114.7C52.9,114.7,52.9,114.7,52.9,114.7l-0.1,0
								C52.8,114.8,52.8,114.8,52.9,114.7z"/>
							<path fill="#202020" d="M73.2,80.3L73.2,80.3C73.2,80.3,73.2,80.4,73.2,80.3C73.2,80.4,73.2,80.4,73.2,80.3z"/>
							<polygon fill="#202020" points="36.6,112.5 36.6,112.5 36.6,112.7 							"/>
							<path fill="#202020" d="M74.9,87.6c0,0,0,0,0,0.1C75,87.7,74.9,87.6,74.9,87.6z"/>
							<path fill="#202020" d="M75.8,90.7l0.1,0.4C75.9,90.9,75.9,90.8,75.8,90.7z"/>
							<path fill="#202020" d="M76.5,93C76.5,93.1,76.5,93.1,76.5,93L76.5,93L76.5,93z"/>
							<path fill="#202020" d="M60,66.2C60,66.2,60,66.2,60,66.2C59.7,66.3,59.9,66.3,60,66.2z"/>
							<path fill="#202020" d="M68.7,66.6l-0.2-0.3C68.6,66.4,68.7,66.6,68.7,66.6z"/>
							<polygon fill="#202020" points="47.6,70 47.6,70 47.5,70.1 							"/>
							<path fill="#202020" d="M68.4,65.7c0,0.2,0.1,0.4,0.2,0.5C68.5,66.1,68.5,65.9,68.4,65.7z"/>
							<path fill="#202020" d="M79.5,103.3l0,0.1c0,0,0,0,0,0L79.5,103.3z"/>
							<path fill="#202020" d="M79.6,103.4l0.1,0.1C79.6,103.5,79.6,103.4,79.6,103.4z"/>
							<path fill="#202020" d="M79.7,103.8l-0.1-0.3C79.6,103.6,79.7,103.8,79.7,103.8z"/>
							<path fill="#202020" d="M78.6,100.2L78.6,100.2C78.6,100.1,78.6,100.2,78.6,100.2z"/>
							<path fill="#202020" d="M78.3,99.2c0.1,0.2,0.1,0.6,0.2,0.9l0,0C78.5,100,78.5,99.4,78.3,99.2z"/>
							<path fill="#202020" d="M77.6,95.1l0.2,0.8c0-0.2,0-0.4,0.1,0C77.7,94.9,77.9,96.1,77.6,95.1z"/>
							<path fill="#202020" d="M76.9,92.6C77.1,93,77,92.6,76.9,92.6C76.9,92.3,76.9,92.3,76.9,92.6z"/>
							<path fill="#202020" d="M71.6,74.7l0.1,0C71.6,74.4,71.7,74.8,71.6,74.7z"/>
							<polygon fill="#202020" points="70.1,71.5 70.1,71.8 70.3,71.9 							"/>
							<polygon fill="#202020" points="70.2,69.3 70.2,69.4 70,68.9 							"/>
							<path fill="#202020" d="M43.8,70.2l0.1,0.1C44.2,70.2,44.2,70,43.8,70.2z"/>
							<path fill="#202020" d="M30.9,74.2c-0.2,0-0.5,0.1-0.7,0.2C30.4,74.3,30.8,74.2,30.9,74.2z"/>
							<polygon fill="#202020" points="34.7,109.4 34.5,109.1 34.7,109.6 							"/>
						</g>
					</g>
				</g>
			</g>
		</g>
		<g>
			<g>
				<g>
					<g>
						<g>
							<path fill="#202020" d="M50.9,91.1C50.9,91.1,50.8,91.1,50.9,91.1L50.9,91.1L50.9,91.1z"/>
							<path fill="#202020" d="M50.7,91.2c0.1,0,0.2,0,0.3,0C50.9,91.2,50.9,91.2,50.7,91.2c0.1,0,0.1,0,0.2,0c0,0,0,0-0.1,0
								C50.7,91.2,50.7,91.2,50.7,91.2C50.8,91.2,50.7,91.2,50.7,91.2z"/>
							<path fill="#202020" d="M51.3,92.6L51.3,92.6C51.3,92.6,51.3,92.6,51.3,92.6z"/>
							<path fill="#202020" d="M52.2,93C52.2,93,52.2,93,52.2,93C52.2,93,52.2,93,52.2,93z"/>
							<path fill="#202020" d="M52.4,93.2C52.4,93.2,52.4,93.2,52.4,93.2C52.4,93.2,52.4,93.2,52.4,93.2z"/>
							<path fill="#202020" d="M51.3,92.6L51.3,92.6C51.3,92.6,51.3,92.6,51.3,92.6z"/>
							<path fill="#202020" d="M51,91.4C51,91.4,51,91.4,51,91.4C51,91.4,51,91.4,51,91.4L51,91.4z"/>
							<path fill="#202020" d="M50.9,92.4L50.9,92.4C50.8,92.4,50.8,92.4,50.9,92.4L50.9,92.4z"/>
							<path fill="#202020" d="M50.6,92.1c0,0,0.1,0,0.1-0.1C50.7,92.1,50.7,92.1,50.6,92.1C50.7,92.1,50.7,92.1,50.6,92.1z"/>
							<path fill="#202020" d="M50.6,91.5L50.6,91.5L50.6,91.5z"/>
							<path fill="#202020" d="M51,92.6C51,92.6,51,92.6,51,92.6L51,92.6z"/>
							<path fill="#202020" d="M51.2,90.9L51.2,90.9C51.2,90.9,51.2,90.9,51.2,90.9z"/>
							<polygon fill="#202020" points="50.6,91.1 50.6,91.1 50.6,91.1 							"/>
							<path fill="#202020" d="M52.8,93.3L52.8,93.3C52.8,93.3,52.8,93.3,52.8,93.3z"/>
							<path fill="#202020" d="M54.4,90.7c-0.1,0.1-0.1,0-0.2,0C54.2,90.7,54.3,90.7,54.4,90.7z"/>
							<path fill="#202020" d="M51,91.4L51,91.4C51,91.4,51,91.4,51,91.4z"/>
							<polygon fill="#202020" points="54.2,90.7 54.2,90.7 54.1,90.7 							"/>
							<path fill="#202020" d="M53.5,92.9C53.5,92.9,53.5,92.8,53.5,92.9C53.5,92.8,53.5,92.9,53.5,92.9z"/>
							<path fill="#202020" d="M52.9,93L52.9,93C52.9,93,52.9,93,52.9,93z"/>
							<path fill="#202020" d="M53.7,92.6C53.7,92.6,53.7,92.6,53.7,92.6C53.7,92.5,53.7,92.5,53.7,92.6
								C53.7,92.6,53.7,92.6,53.7,92.6z"/>
							<polygon fill="#202020" points="53.9,92.3 53.9,92.3 53.9,92.3 							"/>
							<path fill="#202020" d="M51.4,90.3L51.4,90.3C51.4,90.3,51.4,90.4,51.4,90.3z"/>
							<path fill="#202020" d="M51,91.4C51,91.4,51,91.4,51,91.4L51,91.4C51,91.4,51,91.4,51,91.4z"/>
							<path fill="#202020" d="M53.1,91.9L53.1,91.9C53.1,91.9,53.1,91.9,53.1,91.9z"/>
							<path fill="#202020" d="M52.7,90L52.7,90C52.7,90,52.7,90,52.7,90z"/>
							<path fill="#202020" d="M53.2,91.8C53.2,91.9,53.2,91.9,53.2,91.8C53.2,91.9,53.2,91.9,53.2,91.8L53.2,91.8z"/>
							<path fill="#202020" d="M51.3,90.3L51.3,90.3L51.3,90.3z"/>
							<path fill="#202020" d="M51.4,90.6c0,0-0.1-0.1-0.2-0.1C51.2,90.4,51.3,90.5,51.4,90.6c0-0.1-0.1-0.2-0.1-0.2c0,0,0,0,0.1,0
								c-0.1-0.1,0-0.1-0.1-0.2l0,0c-0.1,0-0.1-0.1-0.2-0.1c0,0,0-0.1,0,0c0,0,0,0,0,0.1l0,0c0.1,0.1,0,0,0.1,0.1c0,0-0.1-0.2,0-0.1
								c0.1,0.1,0,0.1,0.1,0.1l-0.1,0c0.2,0.1,0,0,0.2,0.1c0.1,0,0-0.1,0-0.1c0-0.1-0.1-0.1-0.1-0.1c0-0.1,0.3,0.2,0.2,0.1
								c0-0.1-0.1-0.2-0.1-0.2l0.1,0.1c0,0-0.1-0.2,0-0.1c0,0.1,0,0.1,0,0.1c0.1,0.1,0-0.1,0-0.1l0.1,0.1c0,0,0-0.1,0.1-0.2
								c0,0,0,0.1,0.1,0.1c0-0.1,0.1,0,0.2,0l0-0.1c0,0,0,0,0,0.1c0,0,0-0.1,0-0.1c0,0,0,0.1,0,0.1c0-0.1,0.1-0.2,0.1-0.1l0,0
								c0,0,0-0.2,0.1-0.1l0,0c0.1,0,0.2-0.1,0.2,0.1c0-0.2,0.1,0.1,0.1-0.1c0,0.1,0,0.2,0.1,0.2c0,0,0-0.1,0.1-0.2l0,0.1l0.1-0.1
								l0,0.1l0,0c0,0,0-0.1,0-0.1c0,0,0,0.1,0,0.2l0.1-0.1c0,0,0,0.1-0.1,0.1c0.1-0.1,0,0.1,0,0c0,0,0-0.1,0-0.1
								c0,0.1,0,0.1,0.1,0.1l0,0.1c0,0,0.1,0,0.1,0c0,0,0.1-0.2,0.1-0.2L53,90.1c0.1-0.1,0,0,0.1-0.1c0,0-0.1,0.1-0.1,0.2l0,0
								c0,0,0,0-0.1,0.1c0.1-0.1,0,0.1,0,0l0,0c0,0,0.1,0,0.1,0c0.1-0.1,0.1,0,0.1-0.1c0,0.1,0,0.1,0,0.2c0.1,0,0.1-0.1,0.1-0.1
								c-0.1,0.1,0,0.1-0.1,0.1c0,0,0.1,0,0.2,0c0,0,0,0,0.1-0.1c0,0,0,0-0.1,0.1l0,0c0.2,0-0.2,0.3,0,0.2l0,0l0.1,0
								c0,0-0.1,0-0.1,0c0.2,0,0,0.1,0.1,0.1c-0.3,0.1,0,0.1-0.1,0.2l0.1,0c0.1,0,0,0-0.1,0c0.1,0,0.1,0,0.1,0
								c0.1,0.1-0.1,0.2-0.2,0.3c0,0,0.3,0.1,0.2,0.1l-0.1-0.1c0.1,0.1-0.1,0.1,0,0.3c0,0-0.1,0-0.1,0c-0.1,0,0,0,0,0.1
								c0,0-0.1,0-0.1,0c-0.1,0,0.1,0.1,0,0.1c0,0,0,0,0,0c0,0,0,0,0.1,0.1c-0.1,0,0,0.1-0.1,0.1c0.1,0.1-0.1,0,0,0.1
								c-0.1-0.1-0.1-0.1-0.1,0c0,0-0.1,0-0.1-0.1c0,0,0,0.1,0.1,0.1c-0.2-0.1,0,0.2-0.1,0c0,0.1,0,0.2-0.1,0.3
								c-0.1-0.2,0.1,0,0-0.2c0,0.1,0,0.2-0.1,0.2c0,0,0-0.1,0-0.1c0,0.1-0.1,0-0.1,0.1c0,0,0,0,0,0c0,0,0,0,0,0.1l0,0
								c0.1,0.1,0,0.2,0,0.3c0-0.2-0.1,0-0.1-0.3c0,0,0,0.1,0,0.1c0,0,0,0,0-0.1c0,0.1,0,0.1,0,0.1c0,0,0-0.1,0-0.1
								c0,0.1,0,0.2,0,0.1c0,0,0-0.1,0-0.1c0,0-0.1,0.2-0.1,0.1c0-0.2,0-0.1,0-0.2l0,0l0,0.1c0,0-0.1,0.1-0.1,0.1l0-0.1l-0.1,0
								l0,0.1c0,0.1,0,0.2,0,0.1c0,0,0,0,0-0.1l0,0c0,0,0,0.1-0.1,0c0,0,0-0.2,0-0.2c0,0.1-0.1,0-0.1,0.1c0,0,0-0.1,0-0.1l0,0.1
								c0,0,0,0,0-0.1c0,0,0,0.2-0.1,0.1c0,0,0,0,0,0c0-0.1-0.1,0-0.1,0c0-0.1,0,0,0.1-0.1c-0.1,0-0.2,0.1-0.2,0.1l0,0
								c-0.1,0.2,0-0.1-0.1,0c0,0,0.1-0.1,0.1-0.1c0-0.1-0.1,0-0.2,0l0,0c0-0.1,0-0.1,0-0.1c0,0,0,0-0.1,0.1c0.1-0.3-0.2,0-0.1-0.2
								c0,0,0,0,0,0l-0.1,0c-0.1,0.1,0,0-0.1,0.1c0,0-0.1,0-0.1,0c0.1,0,0.1-0.1,0.1-0.1l-0.1,0.1c0.1-0.1-0.1,0.1-0.1,0l0,0
								c0,0-0.1,0-0.1,0c0.1-0.1,0.1,0,0.1-0.1c0,0-0.2,0.1-0.1,0c0,0,0,0,0.1,0c0.1-0.1,0.1-0.1,0.1-0.1l0,0l0-0.1l0,0
								c-0.2,0.1-0.1,0-0.3,0c0.2,0,0.1,0,0.2-0.1c0,0,0-0.1,0.1-0.1c-0.1,0,0.1-0.1-0.1,0c0,0,0,0,0.1-0.1c0,0-0.1,0-0.1,0
								c-0.1,0,0.1-0.1-0.1-0.1c-0.1,0-0.2,0-0.3,0c0.1,0,0.1,0,0.1,0c0,0,0-0.1,0-0.1c0,0,0.1,0,0.1,0c0,0-0.1,0-0.1,0
								c0,0,0.1,0,0.2,0c0,0-0.1,0-0.1,0c0.1,0,0.1,0,0.1,0c0,0-0.1-0.1-0.2-0.1l0,0c0,0,0.1,0,0.1,0c0.1,0,0,0-0.1,0l0,0
								c-0.2,0,0,0.1,0,0.1l-0.2,0l0.1,0c0,0-0.1,0-0.2,0c-0.1,0,0.1,0,0,0.1c0,0,0,0,0,0l0.1,0c0,0-0.1,0-0.1,0
								c-0.1,0.1,0.1,0.1,0,0.1l0,0c0.1,0.1,0.1,0,0.3,0l-0.3,0.1l0.1,0c0,0,0,0,0,0c0.1,0,0,0,0.1,0c-0.1,0.1,0.1,0.1-0.1,0.1
								c0.1,0,0-0.1,0.1-0.1c-0.2,0.1,0,0,0,0.1c-0.1,0-0.1,0-0.1,0.1c0.2-0.1,0,0.1,0,0.1c0.1-0.1,0.1,0,0.1,0c0,0,0,0.1,0,0.2l0,0
								c0.1-0.1,0.1,0,0.2,0c-0.1,0.1-0.1,0.1-0.1,0.1l0,0c0,0,0.1,0,0.1,0l-0.1,0.1c0,0,0.1,0,0.1,0.1c0.1-0.1,0.2-0.2,0.2-0.2
								c0,0-0.1,0.1-0.1,0.1c0,0,0,0,0,0l-0.1,0c0,0,0.1,0,0.1,0c-0.1,0.1,0,0-0.1,0.1c0,0,0,0,0,0c0,0,0,0.1,0,0.1
								c0,0,0.1-0.1,0.1-0.1c0,0,0,0.1-0.1,0.1c0,0,0,0,0.1-0.1c0,0,0,0.1,0,0.1c0,0,0.1,0.1,0.1-0.1l0,0l0,0l0,0l0,0
								c0.1,0,0.1,0.1,0.2,0.1l0,0c0.1,0,0.1,0,0.2,0c0,0,0,0.1,0,0.1c0,0,0.1,0,0.1,0c-0.1,0,0,0.1-0.1,0c0,0,0,0.1,0.1,0
								c0,0.1,0,0.1,0,0.1l0-0.1c0,0,0,0,0.1,0l0,0.1c0.1,0.2,0.2-0.2,0.2,0.1c0-0.1,0-0.1,0-0.2c0,0,0,0.2,0.1,0.2
								c0.1,0.1,0.1-0.2,0.1-0.1c0,0,0-0.2,0-0.2c0,0,0,0.2,0,0.2c0,0,0,0,0,0c0,0,0,0,0,0.1l0,0c0,0,0.1,0,0.1,0.1c0,0,0-0.1,0-0.1
								c0.1,0.1,0.1,0,0.1,0c0,0,0-0.1,0-0.1c0.1,0.1,0-0.1,0.1-0.1c0,0.1,0,0.2,0.1,0.1c0,0,0,0.1,0,0.2c0-0.1,0.1,0,0.1,0.1l0,0
								c0,0,0,0,0,0l0-0.1c0,0,0,0,0,0c0-0.1,0-0.1,0-0.2c0,0,0.1-0.1,0.1,0.1c-0.1,0,0,0.1,0,0.1c0,0,0,0,0,0c0,0,0,0,0,0
								c0.1,0.1,0-0.1,0.1-0.2c0,0.1,0,0.1,0.1,0.1c0,0,0-0.1,0-0.2c0.1,0,0,0,0.1,0l0,0c0-0.1,0-0.1,0-0.1c0,0,0,0,0,0.1
								c0-0.1,0.1,0.1,0.1,0c0,0,0,0.1,0.1,0.1c0-0.1,0.1,0.1,0.1,0c-0.1-0.1,0-0.1,0-0.2L53.1,93l0-0.1c0,0,0,0.1,0,0.1
								c0-0.1,0-0.1,0-0.1c0.1,0.1,0-0.1,0.1,0l0.1,0.2c0.1,0.1,0-0.2,0.1-0.1l0,0c0-0.1,0,0,0-0.1c0,0.1,0.1,0.1,0.1,0.1
								c0,0,0.1,0,0-0.2l0.1,0.1c0.1,0-0.1-0.2,0-0.2c0,0.1,0.1,0.1,0.1,0.2c0,0,0,0,0-0.1c0,0,0-0.1,0-0.1c0,0-0.1-0.1,0-0.1
								c0,0,0,0,0,0c0,0,0-0.1-0.1-0.1c0.2,0.1,0.1-0.1,0.3,0c0-0.1,0-0.1,0-0.1c0,0,0,0,0,0c0.1,0-0.2-0.1-0.1-0.2
								c0.1,0,0,0.1,0.1,0.1c0.2,0.1,0-0.1,0.2-0.1l0,0c0.1,0,0-0.1,0-0.2c0,0,0,0,0,0C54,91.8,54,91.8,54,91.7c0.1,0,0,0,0.1,0.1
								c0,0-0.2,0-0.2-0.1c0.1,0,0.1,0,0.2,0l0,0c0.1,0,0-0.1,0-0.1l0.1,0c0-0.1-0.1-0.1-0.1-0.2l0,0c-0.1-0.1,0.1,0,0-0.1l0.2,0
								c0,0-0.1-0.1-0.2-0.2c0.1,0,0.2,0.1,0.2,0.1c0,0,0-0.1-0.1-0.1c0,0,0,0,0,0c-0.1,0-0.2-0.1-0.2-0.1c0.3,0,0.1-0.1,0.3-0.2
								c-0.1-0.1,0-0.2,0-0.3c-0.2,0.1,0,0-0.2,0c0,0,0,0,0,0l0.1-0.1c0.1,0,0.1,0,0.1,0c0-0.1,0.1,0,0.1-0.1c-0.1,0-0.1,0-0.1,0
								l-0.1,0.1c-0.1,0,0.2-0.1,0-0.2l0.1,0c-0.1,0-0.1-0.2-0.2-0.1c0,0,0.1-0.1,0.1,0c0-0.1-0.3-0.1-0.2-0.2l0.1,0
								c0,0-0.1,0-0.1,0c0,0,0.1,0,0,0c0,0-0.1,0-0.1,0l0.1,0c0-0.1-0.2,0-0.3-0.1c0.1-0.1,0.1-0.2,0.1-0.3l0,0
								c-0.1-0.1-0.2,0-0.4,0c0.1-0.2-0.1-0.2-0.2-0.3c0,0-0.1,0.1-0.1,0.1c0,0-0.1,0.1,0-0.1l0,0c0-0.1,0-0.1-0.1-0.2l-0.1,0.2
								c0-0.3-0.3,0-0.3-0.2c0,0-0.1,0-0.1,0.1l0-0.1c-0.1,0-0.1-0.1-0.2,0l0-0.1c-0.1,0-0.1,0.3-0.1,0.3l0-0.2
								c-0.1,0-0.2-0.1-0.3,0c0,0,0-0.1,0-0.1c0,0-0.2-0.1-0.1,0.1c0-0.1-0.1,0-0.1,0.1l0-0.1c0,0.1,0,0.2,0,0.2c0,0,0-0.1,0-0.1
								c-0.1,0,0,0.1-0.1,0.1l0-0.1c0,0,0,0,0,0.1c0,0-0.1,0-0.1-0.1c0,0.1,0,0.1,0,0.1c0,0,0-0.1,0-0.1c-0.1,0,0,0.2-0.1,0.1
								c0,0,0,0,0-0.1c0.1,0,0.1,0,0.1,0c0-0.1-0.1-0.1-0.1-0.2c0,0.1,0,0.3-0.1,0.2c0,0,0,0,0,0l0,0c0,0,0,0,0,0c0,0,0,0,0,0
								c0-0.1-0.1,0-0.1,0c0.1,0.1,0,0.1,0.1,0.2c0,0,0,0,0,0c0,0,0,0,0,0l0,0c0,0,0,0,0,0c0,0.1,0,0.1,0,0.1c0,0.1,0.1,0.1,0.1,0.2
								c-0.1-0.1-0.2-0.1-0.3-0.2c0,0.1-0.1,0.1,0,0.3c0,0-0.1,0-0.1,0c0,0,0,0,0-0.1c0,0.1-0.1,0.1,0,0.2c-0.1,0-0.1-0.1-0.1,0l0,0
								c-0.3,0,0.1,0.4-0.2,0.3c0,0,0,0,0.1,0c-0.2,0.1-0.1,0.3-0.3,0.4c-0.1,0,0,0.1,0.1,0.1l-0.1,0l0.1,0.1c0.1,0.1-0.3,0-0.1,0.2
								l0.1,0c0,0,0,0.1-0.1,0.1c0,0,0.1,0,0,0l-0.1,0l0.1,0.1c0,0.1-0.2,0-0.3,0.1c0,0,0.2,0.1,0.2,0.1c0,0,0,0,0.1,0l0,0
								c0.2,0,0.4,0,0.5,0l-0.1,0l0.1,0l0,0c0.1,0,0,0,0,0c0,0,0.1,0,0.1,0L51,91c0.1,0,0.1,0,0.2,0c-0.1,0-0.2,0-0.2,0
								c0.1,0,0.1,0,0.1,0c0,0,0.1,0,0.1,0c-0.1,0,0,0-0.1-0.1c0.1,0,0-0.1,0.1,0c0,0-0.1-0.1-0.1-0.1c0.2,0.1,0-0.1,0.2,0
								c-0.2-0.1-0.1-0.1-0.1-0.2c0,0,0,0,0,0c0,0,0.1,0,0.1,0c-0.1-0.1-0.2-0.1-0.2-0.2C51.2,90.6,51.2,90.6,51.4,90.6
								c-0.2,0-0.2,0-0.3-0.1c0.1,0,0,0,0.2,0.1c-0.2-0.1,0,0-0.1-0.1c0.1,0,0.2,0.1,0.1,0C51.4,90.5,51.4,90.6,51.4,90.6z
								 M51.7,89.9L51.7,89.9C51.7,89.9,51.7,89.9,51.7,89.9C51.7,89.9,51.7,89.9,51.7,89.9z M51.8,89.9
								C51.7,89.9,51.7,89.9,51.8,89.9C51.7,89.9,51.7,89.8,51.8,89.9C51.7,89.8,51.7,89.9,51.8,89.9z M51.3,89.3
								C51.3,89.3,51.3,89.3,51.3,89.3C51.3,89.3,51.3,89.3,51.3,89.3L51.3,89.3C51.3,89.3,51.3,89.3,51.3,89.3z"/>
							<polygon fill="#202020" points="51.3,89.4 51.3,89.4 51.3,89.5 51.3,89.4 							"/>
							<path fill="#202020" d="M51.3,92.6L51.3,92.6C51.3,92.6,51.3,92.6,51.3,92.6C51.3,92.6,51.3,92.6,51.3,92.6z"/>
							<polygon fill="#202020" points="52.6,90 52.6,90 52.6,90 							"/>
							<path fill="#202020" d="M51.2,92L51.2,92C51.2,92,51.2,92,51.2,92z"/>
							<path fill="#202020" d="M51.1,91.9L51.1,91.9C51.1,91.9,51.1,91.9,51.1,91.9z"/>
							<path fill="#202020" d="M51.1,91.8C51.1,91.8,51.1,91.8,51.1,91.8L51.1,91.8L51.1,91.8z"/>
							<path fill="#202020" d="M52.7,92.3L52.7,92.3C52.7,92.3,52.7,92.3,52.7,92.3z"/>
							<path fill="#202020" d="M52.2,92.6C52.2,92.6,52.2,92.6,52.2,92.6C52.2,92.5,52.2,92.5,52.2,92.6z"/>
							<polygon fill="#202020" points="53.1,91.9 53.1,91.9 53.1,91.9 							"/>
							<path fill="#202020" d="M52.2,92.6C52.2,92.5,52.2,92.5,52.2,92.6C52.2,92.6,52.2,92.6,52.2,92.6z"/>
							<path fill="#202020" d="M51,91.3L51,91.3C51,91.3,51,91.3,51,91.3L51,91.3z"/>
							<path fill="#202020" d="M51,91.3L51,91.3C51,91.3,51,91.3,51,91.3z"/>
							<path fill="#202020" d="M51,91.2L51,91.2C51,91.3,51,91.2,51,91.2z"/>
							<path fill="#202020" d="M51,91.4L51,91.4C51,91.4,51,91.4,51,91.4z"/>
							<path fill="#202020" d="M51,91.5C51,91.5,51.1,91.4,51,91.5L51,91.5C51.1,91.4,50.9,91.5,51,91.5z"/>
							<path fill="#202020" d="M50.6,91.8L50.6,91.8C50.6,91.8,50.6,91.8,50.6,91.8C50.4,91.9,50.6,91.8,50.6,91.8z"/>
							<path fill="#202020" d="M50.7,92C50.6,92,50.6,92.1,50.7,92C50.6,92.1,50.6,92.1,50.7,92z"/>
							<path fill="#202020" d="M51.6,92.9L51.6,92.9C51.5,92.9,51.5,92.9,51.6,92.9z"/>
							<polygon fill="#202020" points="51.9,92.5 51.9,92.4 51.9,92.5 							"/>
							<polygon fill="#202020" points="51.9,93.2 51.9,93.2 51.9,93.2 							"/>
							<path fill="#202020" d="M53.9,92.4L53.9,92.4C53.8,92.4,53.9,92.5,53.9,92.4z"/>
							<path fill="#202020" d="M54.2,91.5C54.3,91.5,54.3,91.5,54.2,91.5C54.3,91.5,54.2,91.5,54.2,91.5z"/>
							<polygon fill="#202020" points="53.1,89.1 53.1,89.1 53,89.1 							"/>
						</g>
					</g>
				</g>
			</g>
		</g>
	</g>
	<g>
		<g>
			<g>
				<g>
					<g>
						<g>
							<path fill="#202020" d="M118.9,69.2c0,0.1,0.1,0,0.1-0.2l-0.2-0.2L118.9,69.2z"/>
							<path fill="#202020" d="M118.9,67.4c-0.1-0.3-0.3-0.6-0.3-0.4c0.2,0.3,0.1,0.4,0.3,0.7c0.1,0.3,0,0.5,0,0.4
								c0,0.1,0,0.4,0.1,0.5C119,68.3,118.9,67.8,118.9,67.4C118.8,67.3,118.8,67.4,118.9,67.4z"/>
							<path fill="#202020" d="M115.6,42.4l0,0.2C115.6,42.5,115.6,42.4,115.6,42.4z"/>
							<path fill="#202020" d="M113.5,26.8c0,0.1,0,0.2,0.1,0.2C113.5,26.9,113.5,26.8,113.5,26.8z"/>
							<path fill="#202020" d="M112.1,24.7c0.1,0,0.1,0,0.2,0C112.2,24.7,112.2,24.7,112.1,24.7z"/>
							<path fill="#202020" d="M115.6,42.4l0-0.4C115.5,41.9,115.5,42.1,115.6,42.4z"/>
							<path fill="#202020" d="M118.1,64c0,0.1,0,0.2,0.1,0.2L118.1,64L118.1,64z"/>
							<path fill="#202020" d="M116.6,49.2l0,0.1c0,0,0,0.1,0.1,0.1L116.6,49.2z"/>
							<path fill="#202020" d="M117.4,54.4c0-0.1-0.1-0.1-0.2-0.2C117.2,54.3,117.3,54.4,117.4,54.4
								C117.3,54.5,117.3,54.5,117.4,54.4z"/>
							<path fill="#202020" d="M118.3,62.8l0,0.1C118.4,62.9,118.4,62.8,118.3,62.8z"/>
							<path fill="#202020" d="M116.1,45.4C116.1,45.4,116.1,45.4,116.1,45.4C116.1,45.4,116.1,45.4,116.1,45.4z"/>
							<path fill="#202020" d="M113,69.5C113,69.5,113,69.5,113,69.5C113,69.5,113,69.5,113,69.5z"/>
							<path fill="#202020" d="M119.1,69.2L119.1,69.2C119,69.2,119,69.2,119.1,69.2L119.1,69.2z"/>
							<path fill="#202020" d="M107.3,25.3C107.3,25.3,107.3,25.3,107.3,25.3C107.4,25.2,107.3,25.2,107.3,25.3z"/>
							<path fill="#202020" d="M69.2,37.2c0-0.5,0.2,0.8,0.2,0C69.4,37.3,69.2,36.6,69.2,37.2z"/>
							<path fill="#202020" d="M118.1,63.9l0-0.2C118.1,63.8,118.1,63.8,118.1,63.9z"/>
							<path fill="#202020" d="M69.4,37.2L69.4,37.2L69.4,37.2C69.4,37.2,69.4,37.2,69.4,37.2z"/>
							<path fill="#202020" d="M96.1,26.9c0,0,0.1,0,0.1,0C96.2,26.9,96.2,26.9,96.1,26.9z"/>
							<path fill="#202020" d="M104.4,25.9l-0.2,0C104.3,25.9,104.4,25.9,104.4,25.9z"/>
							<path fill="#202020" d="M91.8,27.6c-0.1,0-0.2,0-0.3,0l0,0C91.6,27.6,91.7,27.6,91.8,27.6z"/>
							<path fill="#202020" d="M87.3,28.3L87.3,28.3c0.1,0,0.2,0,0.2,0L87.3,28.3z"/>
							<path fill="#202020" d="M99.3,71.4c0.1,0,0.2,0,0.2,0.1C99.4,71.4,100.1,71.3,99.3,71.4z"/>
							<path fill="#202020" d="M118.1,64c0,0,0-0.1-0.1-0.1L118.1,64C118.1,64,118.1,64,118.1,64z"/>
							<path fill="#202020" d="M91.7,28.5L91,28.6C91.2,28.6,91.5,28.5,91.7,28.5z"/>
							<path fill="#202020" d="M74.3,67.4l0,0.2C74.3,67.5,74.3,67.4,74.3,67.4z"/>
							<path fill="#202020" d="M88.9,28.9c-0.1,0-0.3,0-0.4,0c0,0-0.1,0-0.1,0L88.9,28.9z"/>
							<path fill="#202020" d="M99.5,71.5L99.5,71.5L99.5,71.5z"/>
							<path fill="#202020" d="M104.2,70.6c-0.7,0.1-0.3,0.2-0.4,0.3c-0.8,0.2-0.4-0.1-0.7-0.1c-0.5,0.1-0.9,0.3-1.3,0.3
								c0,0-0.1,0,0-0.1c-0.5,0.2-1.6,0.2-2.2,0.5c0,0-0.1,0-0.1,0c0.1,0.1,0.1,0.1,0.1,0.2c-0.3,0-0.6,0.2-0.7,0.1
								c0.2,0,0.2-0.1,0.3-0.1l-0.3,0.1c-0.3-0.1,0.4-0.1,0.4-0.2c-0.6,0.1-1.3,0.3-1.8,0.4c-0.1-0.1,1.1-0.2,0.5-0.2l0.7-0.1
								c-0.6-0.1,0.5,0-0.1-0.2c-1,0.1-1.1,0.2-2.1,0.3c-0.2,0.1,0.1,0.1-0.1,0.2c-1.4,0.3-1.1-0.2-2.1,0.1
								c-0.3,0.1-0.3,0.3-1.1,0.3l0.2-0.2c-0.9,0.1-0.5,0.3-1.5,0.3c0.2-0.1,0.7-0.2,0.6-0.1c-0.7,0-0.4,0.1-0.9,0.2l-0.1-0.1
								c-1,0.2-2.1,0.4-3.2,0.6c0.1,0,0.2-0.1,0-0.1c-1.4,0.3-3,0.4-4.4,0.5l-0.5,0.2c-0.1,0-0.2,0-0.1-0.1c-0.5,0,0,0.1-0.3,0.2
								c-0.3,0-0.4,0-0.2-0.1c-0.9,0.2-2.6,0.6-3.6,0.6l0.2-0.1c-0.8,0.1-0.8,0.3-1.6,0.3l0.1,0c-0.5,0.1-1,0.1-1.6,0.2
								c-0.4,0.1-0.8,0.1-1.2,0.2c0-0.1-0.1-0.9-0.1-1.3c-0.2-0.2-0.2-1.6-0.4-1.7c0-1,0.1-0.7-0.1-2c0-0.4-0.2-0.5-0.3-0.9l0.1,0
								l-0.2-0.6l0.1-0.3l-0.1-0.4c0,0.2,0,0.4,0,0.3c-0.1-0.6-0.1-1.6-0.1-1.6l-0.3-1.5c0.1,0,0.1,0.3,0.2,0.5
								c-0.2-0.8,0.1-0.2-0.1-0.9c0,0.1-0.1,0-0.1-0.1c0-0.4-0.1-1.2-0.2-1.8l0.1,0.1c-0.1-1.1-0.4-2.4-0.5-3.6c0,0.5-0.1,0.4-0.2,0
								l0.1-0.2c-0.1-0.2,0,0.4-0.2-0.1c-0.1-0.5,0.1-0.3,0.2-0.1L73,58c0,0,0.1,0.1,0.1,0.1c-0.1-0.2,0-1-0.2-1.3l0,0
								c-0.2-1.3-0.3-1.8-0.4-2.9c-0.1,0-0.1-0.4-0.3-0.7c-0.1-0.8-0.1-1.6-0.2-2.5c-0.1-0.6-0.1-0.2-0.2-0.5c0.1-0.1,0-1,0.1-0.5
								c-0.2-1.1-0.2-1.4-0.5-2.8c0,0.2,0,0.3-0.1,0.2c-0.1-0.2,0-0.6,0-0.5l0,0.1c-0.4-1.5-0.2-3.6-0.6-4.8l0,0.1l-0.3-1.3
								c-0.1-0.6,0.1,0.3,0.1-0.1c-0.4-1.4-0.3-2.2-0.5-3.3c0.2-0.9-0.5-3.1-0.4-4.4l-0.1,0.1c-0.1-0.3,0-0.4,0-0.6
								c0,0,0,0.3-0.1,0.2c-0.1-0.3-0.1-0.6-0.2-0.9c0.4,0,0.8-0.1,1.2-0.2c0.6-0.1,1.1-0.1,1.7-0.2c1.1-0.1,2.3-0.2,3.4-0.4
								c1-0.1,0.5-0.4,1.8-0.4L77,30.6c2-0.4,4-0.6,6-1c-0.1,0-0.1,0.1-0.3,0.1c0.4,0,1.5-0.2,1.5-0.3c0.3,0,0.1,0.1,0.3,0.1
								c0.4,0,1-0.3,1.2-0.2c0,0-0.1,0-0.2,0.1c0.3-0.1,1.2-0.2,1-0.2c0.7-0.1,1.4-0.2,2-0.3c0.4-0.2,1.3-0.1,1.3-0.3
								c0,0.2,1.3,0,1.7-0.2c-0.1,0.1,0.4,0,0.2,0.1c0.5-0.1,1-0.2,0.9-0.3c1,0.1,1.9-0.4,2.5-0.2c1.5-0.3,3-0.6,4.4-0.8
								c0,0.2-1.5,0.2-1.5,0.4c1.3-0.3,2.1-0.5,3.4-0.7c0.3,0-0.2,0.1-0.3,0.1c1.3-0.3,2.6-0.3,3.7-0.6c0,0-0.1,0.1-0.2,0.1
								c0.2,0,0.5-0.1,0.5-0.1l-0.2,0.1c-0.4-0.1,0.9-0.4,0.9-0.4c-0.4,0.3,1.2-0.1,0.6,0.3c0.2,0,0.3-0.1,0.3-0.1
								c0.2,0,0.3,0,0.1,0.1c0.8-0.2,0.5-0.2,1.3-0.3c0,0-0.1,0.1-0.2,0.1c0.4-0.1,0.7-0.3,1.4-0.3c0,0,0,0-0.1,0.1
								c1.1-0.2,1.8-0.5,3.1-0.6c-0.2,0.1-0.1,0.1,0.1,0.1c0.1,0,0.2,0,0.2,0.1l0.1,0l0,0.1c0,0,0-0.2,0-0.2c0,0.1,0.1,0.3,0.1,0.6
								c0.1,0.3,0.1,0.5,0.1,0.7l-0.1-0.4l0.2,1.1l0-0.6c0.2,0.6,0.2-0.1,0.2,0.7c0-0.2,0.1,0.6,0,0.9l0,0c0.1,0.3,0.2,0.6,0.2,1
								c0,0.1-0.2-0.1-0.2,0c0.2,0.3,0.2,1.3,0.4,1.7c0-0.1-0.1-0.1-0.1-0.1l0.1,0.2c0,0.3,0,0.3-0.1,0.3c0.1,0.8,0.1-0.3,0.2,0.7
								c0-0.1,0,0-0.1-0.2c0.1,0.9,0.3,1.8,0.4,2.7c-0.1,0.3-0.1-0.8-0.2-0.4c0.2,1.2,0.5,2.6,0.7,3.8l0-0.2c0.2,0.1,0,0.9,0.2,1.5
								c0-0.1-0.1-0.2-0.1-0.1c0.1,0.8,0.3,1.7,0.5,2.9l-0.1-0.1c0,0.5,0.2,1.3,0.2,1.8c0.1,0.1,0.1,0.5,0.2,0.3
								c-0.1,1.7,0.6,3.1,0.5,4.5c0-0.2-0.1-0.4-0.1-0.3l0.2,1.2c0.1-0.1,0-0.2,0.1-0.4c0.1,0.1,0.2,0.5,0.2,0.8
								c-0.1-0.5-0.1,0-0.2,0.3c0,0,0.1,0,0.1,0c-0.1,0.7,0.2,0.1,0.2,1l-0.1,0c0.1,0.3,0.2,0.6,0.2,1c-0.1,0.2-0.1-0.3-0.2-0.4
								c0.1,0.5,0.3,1,0.3,1.4c0-0.2-0.1-0.5-0.2-0.7c-0.1,0.5,0,0.6,0,0.9l0,0l0.1,0.8l0-0.2c0.4,0.6,0.2,1.3,0.5,2.1
								c-0.3-0.8-0.1-0.1-0.2-0.2c0,0.2,0,0.5,0,0.5c0.1,0.4,0,0.7,0.2,1.2c0,0,0.1,0.4-0.1,0.3c0.1,0.5,0-0.1,0.1-0.1
								c0.2,0.8,0.1,1.9,0.4,3c0.2,1,0.4,1.1,0.5,2c0,0.3-0.2-0.2-0.2-0.2c0,0.5,0.1,0.9,0.2,1.3c0-0.1-0.1,0-0.1,0.2
								c0.1,0.4,0.2,0.2,0.2,0.7c-0.1-0.1-0.1-0.2-0.2-0.4c0.1,0.4,0.2,0.9,0.3,1.3c0,0.1-0.1-0.3-0.2-0.4c0.1,0.5,0.2,1.3,0.4,1.5
								l0-0.3c0,0.2-0.1,0.1-0.1,0c-0.1-0.4-0.1-0.6,0-0.7l0.1,0.3c0.2-0.4-0.2-1.3-0.3-2l0.2,0.3l-0.2-0.7c0-0.1,0.1-0.3,0.2,0.1
								c0-0.5-0.1-0.4-0.1-0.8c0,0,0,0,0,0l-0.1-0.5c0,0.1,0.1-0.1,0.1,0.2c0-0.8-0.3-1.3-0.2-1.6l0,0.1c-0.2-1.1-0.1-0.1-0.4-0.9
								l0.2-0.6l-0.1-0.1c0-0.1,0-0.4,0-0.3c-0.1-0.4,0,0.1-0.2-0.2c0-0.6-0.3-1.6-0.1-1.7c-0.1-0.2,0,0.6-0.1,0
								c0.2-0.2-0.1-0.7-0.1-1.2c0.1,0.1,0.1,0.6,0.2,0.1c-0.2-0.3-0.1-1-0.2-1.4c-0.1,0-0.2-0.9-0.3-1.7c0.1,0-0.1-1.4-0.2-2.1l0,0
								c-0.2-0.1-0.2-0.8-0.3-1.3c0.1,0,0.1,0.1,0.2,0.4l-0.1-0.5c-0.1-0.1-0.1-0.3-0.2-0.6l0.1,0.1c-0.1-0.6-0.3-1.3-0.3-2.1
								c-0.1,0-0.2,0.7-0.4-0.2c0,0,0.1-0.1,0.2,0.1c0-0.1-0.1-0.3-0.1-0.4l0.1,0.3c0-0.4-0.1-0.2-0.1-0.5c0.1,0,0-0.2,0.1-0.2
								c0,0.1,0,0.3,0.1,0.4c0-0.3,0-0.8,0-0.9c0,0-0.1,0-0.1-0.2c-0.1-0.6,0.1-0.2,0-0.6c-0.1-0.1-0.1-0.6-0.2-0.6
								c0-0.2,0-0.2,0-0.3c-0.1-0.3-0.2-1.6-0.3-1.2l0,0.1c0,0,0,0,0-0.1l0,0l0,0c-0.3-1.1-0.3-2.3-0.5-3.3l0,0
								c-0.1-0.6-0.2-1.4-0.4-1.9c0-0.2,0-0.5,0.1-0.4c-0.1-0.5-0.1-0.5-0.2-1.3c0.1,0.5,0-0.2,0.1,0.5c-0.1-0.6,0-0.8-0.2-1.5
								c0.1,0.2,0.1-0.5,0-0.8l0,0.5c-0.1-0.3-0.1-0.6-0.1-0.9l0.1,0.1c0-1.3-0.6-2.3-0.5-3.4c-0.1-0.3,0,0.7-0.1,0.4
								c-0.1-0.6,0-1.3,0-1.4c0-0.8-0.3-0.7-0.4-1.6c0,0.1-0.1,0.2-0.3-0.4c-0.1-0.6,0.1-0.8,0.2-0.4c0,0.1,0,0.2,0,0.2
								c0,0.2,0.1,0.4,0.1,0.2l-0.1-0.1c0-0.3-0.1-1.1,0-1c-0.1-0.5-0.1-0.2-0.1,0.2c0-0.3,0-0.5-0.1-0.7c0-0.3-0.1-0.7-0.1-1
								c-0.3,0-0.6,0.1-1,0.1c0.2,0,0.4,0,0.2,0.1c-1.3,0.1-0.5,0.2-1.3,0.3c-0.5,0,0.1-0.2-0.7,0c-0.5,0-0.1-0.1,0.1-0.2
								c-0.7,0.2-1.4,0.1-1.8,0.2l0.4-0.1c-0.2,0.1-0.4,0.1-0.6,0.1l0.2,0.1c-0.2,0-0.4,0-0.4,0c-0.2,0.1,0.2,0.1-0.3,0.3
								c-0.3,0-0.9,0.2-1,0.1c0.9-0.1-0.1-0.1,0.7-0.2c-0.2,0-0.3,0.1-0.6,0.1c0,0,0,0,0.1,0c-0.9,0-0.4,0.2-1.3,0.3
								c0.1-0.1-0.2-0.1-0.4-0.1c0.4-0.1,0.2,0.1-0.1,0.2c-0.6,0-0.6,0.1-1,0.2l0.4,0c-0.1,0.1-0.4,0.1-0.8,0.2c0,0,0.4-0.1,0.2-0.1
								c-0.4,0.2-1.1,0-1.7,0.2c-0.3,0,0-0.1-0.3-0.1c-0.7,0.2-0.8,0-1.5,0.2c0.2,0.1,0.3,0-0.3,0.2l1.2-0.2l-0.8,0.2
								c0.4-0.1,0.8-0.2,1-0.2c-0.4,0.1-0.3,0.1-0.1,0.1c-0.5-0.1-1,0.2-1.6,0.2l0-0.2c-0.9,0-1.6,0.3-2.8,0.4l0.4,0
								c-0.1,0.1-0.7,0.1-1.1,0.2c0-0.1-0.2-0.1-0.4-0.1c0,0.1-0.9,0.1-0.9,0.3l-0.5,0c-0.9,0.1-1,0.4-2,0.5
								c0.3-0.1-0.2-0.1,0.4-0.3c-0.3,0-0.6,0.1-0.6,0.1c-0.2,0-0.8,0.2-1.1,0.2c-0.1,0.1-0.2,0.1-0.5,0.2c0,0,0,0,0,0
								c0,0-0.5,0.1-0.2,0.2c-1-0.1-2.6,0.4-3.4,0.3c-0.7,0.1-1.5,0.2-2,0.3c0,0,0,0,0.1,0c-0.8,0-0.5,0.3-1.4,0.3
								c-0.5-0.1,0.5-0.1,0.2-0.1c-0.2-0.2-1.1,0.2-1.8,0.1l0.2,0c-0.5,0-1.2,0.3-2,0.4c0,0,0,0,0,0c-0.5,0.2-1.5,0.4-2.3,0.5
								c0.2-0.1,0.3-0.1,0.2-0.2c-0.3,0.1,0.1,0.1-0.6,0.3c-0.2,0-0.7,0-0.8-0.1l0.6-0.1c-0.3-0.1-0.8,0.1-1.2,0.1l0-0.1
								c-1,0.2-1,0.3-2,0.4l0.1,0c-0.6,0.2-0.5,0-1.1,0.2l-0.2-0.1c-0.4,0.1-1.3,0.3-2,0.5c0.4-0.2,1.2-0.3,1.7-0.5
								c-0.4,0.1-1.3,0.2-1.5,0.3c0.2,0,0.3-0.1,0.5-0.1c-0.4,0.2-1,0.3-1.8,0.4c0-0.1-0.2-0.1-0.5-0.1c-0.2,0-0.3,0-0.5,0.1
								c-0.3,0-0.6,0.1-0.9,0.1c0,0.3,0.1,0.6,0.1,0.8c0,0.2,0,0.3,0,0.4c0.3,1.3,0.3,2.6,0.6,4.2c0.2-0.6,0.1,0.5,0.3,0.3
								c0.1,0.4,0.1,0.5,0.1,0.5l0,1.1c0,0.3-0.1-0.3-0.1-0.3c0.1,0.8-0.1,0.3,0,0.9c0.1-0.1,0.2,0.3,0.2,0.7l0-0.7
								c0.3,1.1-0.1,1,0.2,2.1l-0.1-0.3c0.1,0.6,0.3,2.1,0.6,2.6c0,0.1-0.1,0.2-0.1,0c0.2,1.4,0.6,3,0.7,4.1l-0.1-0.1
								c0.1,0.3,0.2,0.4,0.2,0.8c0,0-0.1-0.1-0.1,0c0,0.1,0.2,0.7,0.2,1l-0.1-0.3c0.1,1.3,0.4,2,0.6,3.1c-0.2,0-0.1,1.1,0,1.6l0,0
								c0.2,1.6,0.5,2.6,0.8,4c-0.1,0.9,0.3,3,0.4,4.5c0-0.2,0.1,0,0.2,0.3c0,0.3,0.2,0.9,0.1,0.9l0-0.1c-0.1,0.3,0,1,0.1,1.5
								l0.2,0.1c-0.1,1.5,0.6,3.7,0.5,4.5c0.1,0.3,0.2,0.8,0.3,1.1l-0.1,0c0.1,0.9,0.2,1.4,0.3,2.6L74,72.7c0.1,0.7,0.4,0.8,0.5,1.4
								l-0.1,0.2c0.1,0.5,0.1,1,0.2,1.5c0.5-0.1,1.1-0.1,1.6-0.2c0.4-0.1,0.8-0.1,1.2-0.2c0,0,0,0.1-0.2,0.1
								c0.5-0.1,2.1-0.2,1.9-0.4c0,0.1,1.2-0.2,1.8-0.3l-0.1,0.1c0.5-0.2,0.5-0.2,1.2-0.4c0.2,0,0.2,0.1-0.1,0.1
								c0.6,0,0.4-0.2,1.1-0.2l-0.3,0.1c0.6-0.1,0.5-0.1,0.9-0.2c0.4-0.1,1.1-0.1,1.2,0c0.1-0.1,0.4-0.2,0.7-0.2
								c0.1,0-0.1,0.1-0.1,0.1c1-0.1,1.5-0.3,2.2-0.3c0,0,0.1,0,0.1,0C87,73.9,86.4,74,86.4,74c0,0.1,0.7,0,0.2,0.2
								c0.5-0.1,1.4-0.4,2-0.5c0,0,0.1,0,0.1,0l-0.1,0c0.1,0,0.3,0,0.4-0.1c0.2,0,0.3,0,0.5,0c0.1,0.1,0.7-0.1,1.1-0.1
								c0-0.1,0.4-0.1,0-0.2c0.1,0-0.1,0-0.3,0.1c0,0-0.1,0-0.1,0l0,0c-0.2,0-0.5,0.1-0.8,0.1c0.2-0.1,0.5-0.2,0.9-0.2
								c0.2-0.1,0.3-0.2,0.4-0.2c0.5,0.1,1.3,0.1,1.4,0.1c1-0.2,2.3-0.4,2.9-0.6c0.3-0.1,0.3,0,0.4,0c-0.2,0-0.3,0.1-0.4,0.1
								c0.5-0.1,1.6-0.2,1.7-0.4c0.7,0-0.4,0.2,0.6,0l-0.1,0.1c1.9,0,3-0.8,5.1-0.8c-0.1,0-0.2,0-0.3,0c2.4-0.2,4.9-0.8,7.3-0.9
								c0.7-0.1,0.7-0.2,1.1-0.3l0.2,0.1l0.7-0.2c1-0.2,1.7,0,3-0.3l-0.2-0.1c0.5,0,1.4-0.2,1.4-0.1c0,0,0.1-0.1,0.3-0.1l0,0.1
								l1.1-0.3c0.9-0.1-0.1,0.3,1.1,0.1c0.5-0.1,1.3-0.4,1.1-0.4c-0.2,0-0.5,0-0.5,0l0.4-0.1c0.1-0.2,0.4-0.4-0.7-0.4l-0.7,0.2
								l-0.2-0.1l0.6-0.1c-0.4,0-0.6,0.1-0.8,0.2c-0.1,0-0.2-0.1-0.3-0.1l-0.7,0.3c-0.1-0.1,0.3-0.2-0.2-0.2
								c-0.3,0.1,0.3,0.1-0.2,0.2c-0.4,0-0.3-0.1-0.7,0c-0.1,0,0-0.1,0.2-0.1c-0.4,0.1-1,0.2-1.1,0.3c-0.4,0-1.2,0.2-1.2,0
								c-0.1,0.1-0.6,0.2-1,0.3c0.6-0.3-1.2,0.2-1.1-0.1c-0.4,0.2-1.6,0.3-2.4,0.5c0,0,0.1-0.1,0.2-0.1c-0.5,0-0.6,0-0.9,0
								c0,0.2-0.7,0.3-1.1,0.4c-0.6-0.1,0.3-0.2,0.1-0.3c0,0.1-0.9,0.3-0.7,0.3c-0.4,0-0.4,0-0.6-0.1c0,0.2-0.4,0.1-0.7,0.2
								c-0.6,0-0.2-0.2-0.8,0C103.6,70.8,104.2,70.6,104.2,70.6z M88.3,73.1L88.3,73.1c0.1,0,0.3,0,0.3-0.1
								C88.6,73.1,88.5,73.1,88.3,73.1z M87,73.3c0.2,0,0.4,0,0.6-0.1c0.1,0,0,0.1-0.1,0.1C87.5,73.3,87.2,73.3,87,73.3z M89.9,73.7
								c-0.2,0-0.3,0-0.3,0C89.7,73.7,89.8,73.7,89.9,73.7L89.9,73.7C90,73.6,90,73.7,89.9,73.7z"/>
							<path fill="#202020" d="M90.3,73.5C90.3,73.5,90.3,73.5,90.3,73.5C90.3,73.5,90.3,73.5,90.3,73.5l-0.1,0
								C90.2,73.5,90.3,73.5,90.3,73.5z"/>
							<path fill="#202020" d="M115.6,42.5L115.6,42.5C115.6,42.5,115.6,42.6,115.6,42.5C115.6,42.6,115.6,42.6,115.6,42.5z"/>
							<polygon fill="#202020" points="74.6,68.8 74.5,68.9 74.6,69 							"/>
							<path fill="#202020" d="M116.2,50c0,0,0,0,0,0.1C116.2,50.1,116.2,50,116.2,50z"/>
							<path fill="#202020" d="M116.7,53.1l0,0.5C116.7,53.4,116.7,53.3,116.7,53.1z"/>
							<path fill="#202020" d="M116.9,55.6C117,55.6,117,55.6,116.9,55.6L116.9,55.6L116.9,55.6z"/>
							<path fill="#202020" d="M104.7,26.6C104.7,26.6,104.6,26.6,104.7,26.6C104.4,26.6,104.5,26.6,104.7,26.6z"/>
							<path fill="#202020" d="M113.3,28.3l-0.1-0.4C113.2,28.1,113.2,28.3,113.3,28.3z"/>
							<polygon fill="#202020" points="91.8,28.5 91.8,28.5 91.7,28.5 							"/>
							<path fill="#202020" d="M113.1,27.4c0,0.2,0,0.4,0.1,0.5C113.1,27.7,113.1,27.5,113.1,27.4z"/>
							<path fill="#202020" d="M118.4,66.2l0,0.1c0,0,0,0,0,0L118.4,66.2z"/>
							<path fill="#202020" d="M118.4,66.3l0,0.1C118.4,66.4,118.4,66.3,118.4,66.3z"/>
							<path fill="#202020" d="M118.5,66.7l-0.1-0.3C118.4,66.5,118.5,66.7,118.5,66.7z"/>
							<path fill="#202020" d="M118,63L118,63C117.9,62.9,117.9,62.9,118,63z"/>
							<path fill="#202020" d="M117.8,62c0,0.2,0,0.6,0.1,0.9l0,0C117.8,62.8,117.9,62.2,117.8,62z"/>
							<path fill="#202020" d="M117.7,57.8l0.1,0.8c0-0.1,0.1-0.3,0.1,0C117.9,57.6,117.9,58.9,117.7,57.8z"/>
							<path fill="#202020" d="M117.4,55.2C117.5,55.7,117.5,55.2,117.4,55.2C117.4,55,117.4,54.9,117.4,55.2z"/>
							<path fill="#202020" d="M114.9,36.8l0.1,0C114.9,36.5,114.9,36.8,114.9,36.8z"/>
							<polygon fill="#202020" points="113.9,33.3 113.8,33.6 114,33.8 							"/>
							<polygon fill="#202020" points="114.3,31.1 114.3,31.3 114.2,30.7 							"/>
							<path fill="#202020" d="M88.1,28.1l0.1,0.1C88.4,28.1,88.5,28,88.1,28.1z"/>
							<path fill="#202020" d="M74.7,30c-0.2,0-0.5,0-0.8,0.1C74.3,30.1,74.6,30.1,74.7,30z"/>
							<polygon fill="#202020" points="73.1,65.4 73,65.2 73.1,65.7 							"/>
						</g>
					</g>
				</g>
			</g>
		</g>
		<g>
			<g>
				<g>
					<g>
						<g>
							<path fill="#202020" d="M92,49.8C91.9,49.8,91.8,49.8,92,49.8L92,49.8L92,49.8z"/>
							<path fill="#202020" d="M91.7,49.9c0.1,0,0.2,0,0.3,0C91.9,49.9,91.9,49.9,91.7,49.9c0.1,0,0.1,0,0.2,0c0,0,0,0,0,0
								C91.7,49.9,91.7,49.9,91.7,49.9C91.8,49.9,91.7,49.9,91.7,49.9z"/>
							<path fill="#202020" d="M92.1,51.4L92.1,51.4C92.1,51.4,92.1,51.4,92.1,51.4z"/>
							<path fill="#202020" d="M92.9,51.9C92.9,51.9,92.9,51.9,92.9,51.9C92.9,51.9,92.9,51.9,92.9,51.9z"/>
							<path fill="#202020" d="M93.1,52.1C93.1,52.1,93.1,52.1,93.1,52.1C93.1,52.1,93.1,52.1,93.1,52.1z"/>
							<path fill="#202020" d="M92.1,51.4L92.1,51.4C92.1,51.4,92.1,51.4,92.1,51.4z"/>
							<path fill="#202020" d="M92,50.1C92,50.1,92,50.1,92,50.1C92,50.1,92,50.1,92,50.1L92,50.1z"/>
							<path fill="#202020" d="M91.7,51.1L91.7,51.1C91.7,51.1,91.7,51.1,91.7,51.1L91.7,51.1z"/>
							<path fill="#202020" d="M91.5,50.8c0,0,0.1,0,0.1,0C91.6,50.7,91.6,50.7,91.5,50.8C91.6,50.7,91.5,50.7,91.5,50.8z"/>
							<path fill="#202020" d="M91.6,50.2L91.6,50.2L91.6,50.2z"/>
							<path fill="#202020" d="M91.8,51.3C91.8,51.3,91.8,51.3,91.8,51.3L91.8,51.3z"/>
							<path fill="#202020" d="M92.3,49.6L92.3,49.6C92.3,49.6,92.3,49.6,92.3,49.6z"/>
							<polygon fill="#202020" points="91.7,49.8 91.7,49.8 91.6,49.8 							"/>
							<path fill="#202020" d="M93.4,52.2L93.4,52.2C93.4,52.2,93.4,52.2,93.4,52.2z"/>
							<path fill="#202020" d="M95.4,49.9c-0.1,0-0.1,0-0.2,0C95.2,49.9,95.4,50,95.4,49.9z"/>
							<path fill="#202020" d="M92,50.1L92,50.1C92,50.1,92,50.1,92,50.1z"/>
							<polygon fill="#202020" points="95.2,49.9 95.2,49.9 95.2,49.9 							"/>
							<path fill="#202020" d="M94.3,52C94.2,51.9,94.2,51.9,94.3,52C94.2,51.9,94.2,51.9,94.3,52z"/>
							<path fill="#202020" d="M93.6,52L93.6,52C93.6,52,93.6,52,93.6,52z"/>
							<path fill="#202020" d="M94.4,51.7C94.5,51.7,94.5,51.7,94.4,51.7C94.5,51.7,94.5,51.7,94.4,51.7
								C94.5,51.7,94.5,51.7,94.4,51.7z"/>
							<polygon fill="#202020" points="94.7,51.5 94.7,51.5 94.7,51.5 							"/>
							<path fill="#202020" d="M92.6,49.1L92.6,49.1C92.5,49.1,92.5,49.2,92.6,49.1z"/>
							<path fill="#202020" d="M92,50.1C92,50.1,92,50.1,92,50.1L92,50.1C92,50.1,92,50.1,92,50.1z"/>
							<path fill="#202020" d="M94,51L94,51C94,51,94,51,94,51z"/>
							<path fill="#202020" d="M93.8,48.9L93.8,48.9C93.8,49,93.8,49,93.8,48.9z"/>
							<path fill="#202020" d="M94.1,50.9C94.1,50.9,94.1,50.9,94.1,50.9C94.1,50.9,94.1,50.9,94.1,50.9L94.1,50.9z"/>
							<path fill="#202020" d="M92.5,49.1L92.5,49.1L92.5,49.1z"/>
							<path fill="#202020" d="M92.5,49.4c0,0-0.1-0.1-0.2-0.2C92.4,49.2,92.5,49.3,92.5,49.4c0-0.1-0.1-0.2-0.1-0.2c0,0,0,0,0,0
								c-0.1-0.1,0-0.1,0-0.2l0,0c0-0.1-0.1-0.1-0.1-0.1c0,0,0-0.1,0,0c0,0,0,0,0,0.1l0,0c0.1,0.1,0,0,0.1,0.1c0-0.1,0-0.2,0-0.1
								c0.1,0.1,0,0.1,0.1,0.1l-0.1,0c0.2,0.1,0,0,0.1,0.2c0.1,0,0-0.1,0-0.1c0-0.1-0.1-0.1-0.1-0.2c0-0.1,0.2,0.2,0.2,0.1
								c0-0.1-0.1-0.2,0-0.2l0.1,0.1c0,0-0.1-0.2,0-0.1c0,0.1,0,0.1,0,0.1c0.1,0.1,0-0.1,0-0.1l0.1,0.1c0,0,0-0.1,0.1-0.2
								c0,0,0,0.1,0,0.1c0-0.1,0.1,0,0.2,0l0-0.1c0,0,0,0,0,0.1c0,0,0-0.1,0-0.1c0,0,0,0.1,0,0.1c0-0.1,0.1-0.2,0.2-0.1l0,0
								c0,0,0-0.2,0.1-0.1l0,0c0.1,0.1,0.2,0,0.2,0.1c0-0.2,0.1,0.1,0.1-0.1c0,0.1,0,0.2,0,0.2c0,0,0.1-0.1,0.1-0.1l0,0.1l0.1-0.1
								l0,0.1l0,0c0,0,0-0.1,0-0.1c0.1,0,0,0.1,0,0.2L94,49c0,0,0,0-0.1,0.1c0.1-0.1-0.1,0.1,0,0c0,0,0-0.1,0.1-0.1
								c0,0.1,0,0.1,0,0.1L94,49.1c0,0,0.1,0,0.1,0.1c0,0,0.1-0.1,0.1-0.1l-0.1,0.1c0.1-0.1,0,0,0.1-0.1c0,0-0.1,0.1-0.1,0.1l0,0
								c0,0,0,0-0.1,0.1c0.1,0-0.1,0.1,0,0l0,0c0,0,0.1,0,0.1,0.1c0.1-0.1,0.1,0,0.2-0.1c0,0.1-0.1,0.1,0,0.2c0.1,0,0.1,0,0.1-0.1
								c-0.1,0.1-0.1,0.1-0.1,0.1c0,0,0,0,0.1,0.1c0,0,0,0,0.1,0c0,0,0,0-0.1,0.1l0,0c0.2,0-0.2,0.2,0,0.2l0,0l0.1,0
								c0,0-0.1,0-0.1,0c0.2,0,0,0.1,0.1,0.1c-0.3,0,0,0.1-0.2,0.2l0.1,0c0.1,0,0,0-0.1,0c0.1,0,0.1,0,0.1,0
								c0.1,0.1-0.1,0.2-0.2,0.3c0,0,0.3,0.2,0.1,0.1l-0.1-0.1c0.1,0.1-0.1,0.1,0,0.3c0,0,0,0,0-0.1c-0.1,0,0,0,0,0.1
								c0,0-0.1,0-0.1-0.1c-0.1,0,0.1,0.1,0,0.1c0,0,0,0,0,0c0,0,0,0,0,0.1c-0.1,0,0,0.1-0.1,0c0.1,0.1-0.1,0,0,0.1
								c-0.1-0.1-0.1-0.1-0.1,0c0,0,0,0-0.1-0.1c0,0,0,0.1,0,0.1c-0.1-0.2,0,0.2-0.1,0c0,0.1-0.1,0.2-0.1,0.3c-0.1-0.2,0.1,0,0-0.2
								c0,0.1,0,0.2-0.1,0.2c0,0,0-0.1,0-0.1c0,0.1-0.1,0-0.1,0.1c0,0,0,0,0,0c0,0,0,0,0,0.1l0,0c0,0.1,0,0.2,0,0.3
								c0-0.2-0.1-0.1-0.1-0.3c0,0,0,0.1,0,0.1c0,0,0,0,0-0.1c0,0,0,0.1-0.1,0.1c0,0,0-0.1,0-0.1c0,0.1,0,0.1-0.1,0.1
								c0,0,0-0.1,0-0.1c0,0-0.1,0.2-0.2,0.1c0-0.2,0-0.1,0-0.2l0,0l0,0.1c0,0-0.1,0.1-0.1,0l0-0.1l-0.1,0l0,0.1
								c0,0.1,0,0.2-0.1,0.1c0,0,0,0,0-0.1l0,0c0,0-0.1,0.1-0.1,0c0,0,0.1-0.2,0.1-0.2c0,0.1-0.1,0-0.1,0.1c0,0,0-0.1,0-0.1l0,0.1
								c0,0,0,0,0-0.1c0,0-0.1,0.2-0.1,0.1c0,0,0,0,0,0c0-0.1-0.1,0-0.1,0c0.1-0.1,0,0,0.1-0.1c-0.1,0-0.2,0.1-0.2,0l0,0
								c-0.1,0.2,0-0.1-0.1,0c0,0,0.1-0.1,0.1-0.1c0-0.1-0.1,0-0.2,0l0,0c0-0.1,0-0.1,0-0.1c0,0,0,0-0.1,0.1c0.2-0.3-0.2,0-0.1-0.2
								c0,0,0,0,0,0l-0.1,0c-0.1,0.1,0,0-0.1,0.1c0,0-0.1,0-0.1,0c0.1,0,0.1-0.1,0.2-0.1l-0.1,0c0.1-0.1-0.2,0.1-0.1,0l0,0
								c0,0-0.1,0-0.1,0c0.1-0.1,0.1,0,0.1,0c0,0-0.2,0-0.1,0c0,0,0,0,0.1,0c0.1-0.1,0.1-0.1,0.1-0.1l0,0l0-0.1l0,0
								c-0.3,0.1-0.1,0-0.3,0c0.2,0,0.1,0,0.2-0.1c0,0,0.1,0,0.1-0.1c-0.1,0,0.1-0.1-0.1,0c0,0,0,0,0.1,0c0,0-0.1,0-0.1,0
								c-0.1,0,0.1-0.1-0.1-0.1c-0.1,0-0.2,0-0.3-0.1c0.1,0,0.1,0,0.1,0c0.1,0,0,0,0-0.1c0,0,0.1,0,0.1,0c0,0-0.1,0-0.1,0
								c0,0,0.1,0,0.2,0c0,0-0.1,0-0.1-0.1c0.1,0,0.1,0,0.1,0c0,0-0.1-0.1-0.2-0.1l0,0c0,0,0.1,0,0.1,0c0.1,0,0,0-0.1,0l0,0
								c-0.2,0,0,0.1,0,0.1l-0.2,0l0.1,0c0,0-0.1,0-0.2,0c-0.1,0,0.1,0,0,0.1c0,0,0,0,0,0l0.1,0c0,0-0.1,0-0.1,0
								c-0.1,0.1,0.1,0.1,0,0.1l0,0c0.1,0.1,0.1,0,0.3,0l-0.3,0.1l0.1,0c0,0,0,0-0.1,0c0.1,0,0,0,0.1,0c-0.1,0.1,0.1,0.1-0.1,0.1
								c0.1,0,0.1-0.1,0.1,0c-0.2,0.1,0,0,0,0.1c-0.1,0-0.1,0-0.1,0c0.2,0,0,0.1,0,0.1c0.1,0,0.1,0,0.1,0.1c0,0,0,0.1-0.1,0.2l0,0
								c0.1-0.1,0.1,0,0.2,0c-0.1,0-0.1,0.1-0.1,0.1l0,0c0,0,0.1,0,0.1,0l-0.1,0.1c0,0,0.1,0,0.1,0.1c0.1-0.1,0.2-0.2,0.3-0.2
								c0,0-0.1,0.1-0.1,0.1c0,0,0,0,0,0l-0.1,0c0,0,0.1,0,0.1,0c-0.1,0,0,0-0.1,0.1c0,0,0,0,0,0c0,0,0,0.1-0.1,0.1
								c0,0,0.1-0.1,0.1-0.1c0,0-0.1,0.1-0.1,0.1c0,0,0,0,0.1,0c0,0,0,0,0,0.1c0.1,0,0.1,0.1,0.2,0l0,0l0,0l0,0l0,0
								c0.1,0,0.1,0.1,0.2,0.2l0,0c0.1,0,0.1,0,0.2,0c0,0,0,0.1,0,0.1c0,0,0.1,0,0.1,0c-0.1,0,0,0.1-0.1,0c0,0,0,0.1,0.1,0
								c-0.1,0.1,0,0.1,0,0.1l0-0.1c0,0,0,0,0.1,0l-0.1,0.1c0,0.2,0.3-0.2,0.2,0.1c0.1-0.1,0-0.1,0-0.2c0,0,0,0.2,0,0.2
								c0,0.1,0.1-0.2,0.1-0.1c0,0,0-0.2,0.1-0.2c0,0,0,0.2,0,0.2c0,0,0,0,0,0c0,0,0,0,0,0.1l0,0c0,0,0.1,0.1,0,0.1c0,0,0-0.1,0-0.1
								c0,0.1,0.1,0,0.1,0.1c0,0,0-0.1,0-0.1c0.1,0.1,0-0.1,0.1-0.1c0,0.1,0,0.2,0,0.1c0,0.1,0,0.1,0,0.2c0.1-0.1,0.1,0.1,0.1,0.1
								l0,0c0,0,0,0,0,0l0-0.1c0,0,0,0,0,0.1c0-0.1,0-0.2,0-0.2c0,0,0.1,0,0.1,0.1c-0.1,0,0,0.1,0,0.1c0,0,0,0,0,0c0,0,0,0,0,0
								c0.1,0.1,0-0.1,0.1-0.1c0,0.1,0,0.1,0,0.1c0,0,0-0.1,0-0.2c0,0,0,0,0.1,0l0,0c0-0.1,0-0.1,0-0.1c0,0.1,0,0,0,0.1
								c0-0.1,0.1,0.1,0.1,0c0,0,0,0.1,0.1,0.2c0-0.1,0.1,0.1,0.1,0c0-0.1,0-0.1,0-0.2L93.8,52l0-0.1c0,0,0,0.1-0.1,0.1
								c0-0.1,0-0.1,0-0.1c0.1,0.1,0-0.1,0.1,0L94,52c0.1,0.1,0.1-0.1,0.2-0.1l0,0c0-0.1,0,0,0.1-0.1c0,0.1,0.1,0.1,0.1,0.1
								c0,0,0.1,0,0-0.2l0.1,0.1c0.1,0,0-0.2,0-0.2c0,0.1,0.1,0.1,0.1,0.2c0,0,0,0,0-0.1c0,0,0-0.1,0-0.1c0,0-0.1-0.1,0-0.1
								c0,0,0,0,0,0c0,0,0-0.1-0.1-0.1c0.2,0.1,0.1-0.1,0.3,0c0-0.1,0-0.1,0.1-0.1c0,0,0,0,0,0c0.1,0-0.1-0.2,0-0.2
								c0.1,0.1,0,0.1,0.1,0.1c0.2,0.2,0-0.1,0.2,0l0,0c0.1,0,0-0.1,0-0.2c0,0,0,0,0,0c-0.1-0.1-0.1-0.2-0.1-0.2
								c0.1,0.1,0,0,0.1,0.1c0,0-0.1-0.1-0.1-0.1c0.1,0,0.1,0,0.2,0l0,0c0.1,0,0-0.1,0.1-0.1l0.1,0c0-0.1-0.1-0.1-0.1-0.2l0,0
								c-0.1-0.1,0.1,0,0-0.1l0.1,0c0,0-0.1-0.1-0.1-0.2c0.1,0.1,0.1,0.1,0.2,0.2c0,0,0-0.1-0.1-0.1c0,0,0,0,0,0
								c-0.1-0.1-0.2-0.1-0.1-0.2c0.3,0.1,0.1-0.1,0.3-0.1c-0.1-0.1,0.1-0.2,0-0.3c-0.2,0,0,0-0.2,0c0,0,0,0,0,0l0.1-0.1
								c0.1,0,0.1,0,0.1,0c0-0.1,0.1,0,0.2-0.1c-0.1,0-0.1,0-0.1,0l-0.1,0.1c-0.1-0.1,0.2-0.1,0-0.2l0.1,0c-0.1,0,0-0.2-0.2-0.2
								c0,0,0.1,0,0.1,0c0-0.1-0.3-0.1-0.2-0.3l0.1,0c0,0-0.1,0-0.1,0c0,0,0.1,0,0.1,0c0,0-0.1,0-0.1,0l0.1,0c0-0.1-0.2-0.1-0.3-0.1
								c0.1-0.1,0.1-0.2,0.1-0.2l0,0c-0.1-0.1-0.2-0.1-0.4-0.1c0.1-0.2-0.1-0.2-0.1-0.4c0,0-0.1,0.1-0.1,0.1c0,0-0.1,0.1,0-0.1l0,0
								c0.1-0.1,0-0.1,0-0.2l-0.1,0.2c0-0.3-0.3,0-0.2-0.3c0,0-0.1,0-0.1,0.1l0-0.1c-0.1,0-0.1-0.1-0.2-0.1l0-0.1
								c-0.1,0-0.1,0.3-0.2,0.3l0-0.2c-0.1,0-0.2-0.2-0.3,0c0,0,0-0.1,0-0.1c0,0-0.2-0.1-0.1,0.1c0-0.1-0.1,0-0.1,0.1l0-0.1
								c0,0.1,0,0.2-0.1,0.2c0,0,0-0.1,0-0.1c0-0.1,0,0.1-0.1,0.1l0-0.1c0,0,0,0,0,0.1c0,0-0.1,0-0.1-0.1c0,0.1,0,0.1,0,0.1
								c0,0,0-0.1,0-0.1c-0.1-0.1-0.1,0.1-0.1,0.1c0,0,0,0,0-0.1c0.1,0,0.1,0,0.1,0c0-0.1-0.1-0.1-0.1-0.2c0,0.1,0,0.3-0.1,0.2
								c0,0,0,0,0,0l0,0c0,0,0,0,0,0c0,0,0,0,0,0c0-0.1-0.1,0-0.1,0c0,0.1,0,0.1,0.1,0.2c0,0,0,0,0,0c0,0,0,0,0,0l0,0c0,0,0,0,0,0
								c0,0.1,0,0.1,0,0.1c0,0.1,0,0.1,0,0.2c-0.1-0.1-0.2-0.2-0.2-0.3c0,0.1-0.1,0.1-0.1,0.3c0,0,0,0-0.1-0.1c0,0,0,0,0-0.1
								c0,0.1-0.1,0.1,0,0.2c-0.1,0-0.1-0.1-0.1-0.1l0,0c-0.3-0.1,0.1,0.4-0.2,0.3c0,0,0,0,0,0c-0.2,0-0.1,0.3-0.4,0.3
								c-0.1,0,0,0.1,0.1,0.1l-0.1,0l0.1,0.1c0.1,0.1-0.3,0-0.2,0.1l0.1,0c0,0,0,0.1-0.1,0.1c0,0,0.1,0,0,0l-0.1,0l0.1,0.1
								c-0.1,0-0.2-0.1-0.3,0c0,0,0.2,0.1,0.2,0.1c0,0,0,0,0.1,0l0,0c0.2,0,0.4,0.1,0.5,0l-0.1-0.1l0.1,0l0,0c0.1,0,0,0,0,0
								c0,0,0.1,0,0.1,0L92,49.7c0.1,0,0.1,0,0.2,0c-0.1,0-0.2,0-0.2-0.1c0.1,0,0.1,0,0.1,0c0,0,0.1,0,0.1,0c0,0,0,0-0.1-0.1
								c0.1,0,0-0.1,0.2,0c0,0-0.1-0.1-0.1-0.1c0.2,0.1,0,0,0.2,0.1c-0.2-0.1,0-0.1-0.1-0.2c0,0,0,0,0,0c0,0,0.1,0,0.1,0
								c-0.1-0.1-0.1-0.1-0.2-0.2C92.3,49.3,92.3,49.4,92.5,49.4c-0.2,0-0.2,0-0.3-0.1c0.1,0,0,0,0.2,0.1c-0.1-0.1,0,0-0.1-0.1
								C92.4,49.3,92.5,49.4,92.5,49.4C92.5,49.3,92.5,49.4,92.5,49.4z M92.9,48.8L92.9,48.8C92.9,48.8,92.9,48.8,92.9,48.8
								C92.9,48.8,92.9,48.8,92.9,48.8z M93,48.7C93,48.7,92.9,48.7,93,48.7C92.9,48.7,92.9,48.7,93,48.7
								C92.9,48.7,92.9,48.7,93,48.7z M92.6,48.1C92.6,48.1,92.6,48.1,92.6,48.1C92.6,48.1,92.6,48.1,92.6,48.1L92.6,48.1
								C92.6,48.1,92.6,48.1,92.6,48.1z"/>
							<polygon fill="#202020" points="92.6,48.2 92.6,48.2 92.6,48.3 92.6,48.2 							"/>
							<path fill="#202020" d="M92.1,51.3L92.1,51.3C92.1,51.3,92.1,51.3,92.1,51.3C92.1,51.3,92.1,51.3,92.1,51.3z"/>
							<polygon fill="#202020" points="93.8,49 93.8,48.9 93.8,49 							"/>
							<path fill="#202020" d="M92.1,50.8L92.1,50.8C92.1,50.8,92.1,50.8,92.1,50.8z"/>
							<path fill="#202020" d="M92,50.6L92,50.6C92.1,50.6,92,50.6,92,50.6z"/>
							<path fill="#202020" d="M92,50.5C92,50.5,92,50.5,92,50.5L92,50.5L92,50.5z"/>
							<path fill="#202020" d="M93.5,51.3L93.5,51.3C93.5,51.3,93.5,51.3,93.5,51.3z"/>
							<path fill="#202020" d="M92.9,51.5C93,51.5,93,51.5,92.9,51.5C93,51.4,93,51.4,92.9,51.5z"/>
							<polygon fill="#202020" points="94,51 94,51 94,51 							"/>
							<path fill="#202020" d="M93,51.5C93,51.4,93,51.4,93,51.5C93,51.5,93,51.5,93,51.5z"/>
							<path fill="#202020" d="M92,50L92,50C92,50,92,50,92,50L92,50z"/>
							<path fill="#202020" d="M92,50L92,50C92,50,92,50,92,50z"/>
							<path fill="#202020" d="M92,50L92,50C92,50,92,50,92,50z"/>
							<path fill="#202020" d="M92,50.1L92,50.1C92,50.1,92,50.1,92,50.1z"/>
							<path fill="#202020" d="M92,50.2C92,50.2,92.1,50.2,92,50.2L92,50.2C92.1,50.1,91.9,50.2,92,50.2z"/>
							<path fill="#202020" d="M91.6,50.5L91.6,50.5C91.5,50.5,91.5,50.5,91.6,50.5C91.4,50.6,91.6,50.4,91.6,50.5z"/>
							<path fill="#202020" d="M91.5,50.7C91.5,50.7,91.5,50.7,91.5,50.7C91.5,50.7,91.5,50.7,91.5,50.7z"/>
							<path fill="#202020" d="M92.3,51.6L92.3,51.6C92.3,51.7,92.3,51.7,92.3,51.6z"/>
							<polygon fill="#202020" points="92.7,51.3 92.8,51.2 92.7,51.3 							"/>
							<polygon fill="#202020" points="92.6,52 92.6,52 92.6,52 							"/>
							<path fill="#202020" d="M94.7,51.6L94.7,51.6C94.6,51.5,94.7,51.6,94.7,51.6z"/>
							<path fill="#202020" d="M95.2,50.7C95.2,50.7,95.3,50.7,95.2,50.7C95.2,50.7,95.1,50.7,95.2,50.7z"/>
							<polygon fill="#202020" points="94.4,48.2 94.4,48.2 94.4,48.2 							"/>
						</g>
					</g>
				</g>
			</g>
		</g>
	</g>
</g>
</svg>
