<?xml version="1.0" encoding="utf-8"?>
<!-- Generator: Adobe Illustrator 18.0.0, SVG Export Plug-In . SVG Version: 6.00 Build 0)  -->
<!DOCTYPE svg PUBLIC "-//W3C//DTD SVG 1.1//EN" "http://www.w3.org/Graphics/SVG/1.1/DTD/svg11.dtd">
<svg version="1.1" id="Layer_1" xmlns="http://www.w3.org/2000/svg" xmlns:xlink="http://www.w3.org/1999/xlink" x="0px" y="0px"
	 viewBox="0 0 144 144" enable-background="new 0 0 144 144" xml:space="preserve">
<g>
	<g>
		<g>
			<g>
				<g>
					<g>
						<g>
							<path fill="#202020" d="M79.8,48.7c-0.1-0.1-0.3,0-0.2,0.2l0.3,0.1L79.8,48.7z"/>
							<path fill="#202020" d="M79.3,50.2c0.2,0.2,0.5,0.5,0.8,0.3c-0.3-0.2-0.2-0.3-0.6-0.5c0-0.2,0.1-0.4,0.2-0.3
								c-0.1-0.1,0.1-0.3-0.2-0.4c-0.2,0.3-0.2,0.7,0,1C79.4,50.2,79.3,50.2,79.3,50.2z"/>
							<path fill="#202020" d="M89,68.6l-0.1-0.1C88.9,68.5,88.9,68.5,89,68.6z"/>
							<path fill="#202020" d="M101.5,73.2c-0.1,0-0.1,0-0.2,0.1C101.4,73.3,101.5,73.2,101.5,73.2z"/>
							<path fill="#202020" d="M103.8,73.6c-0.1,0-0.1,0-0.1,0C103.7,73.6,103.8,73.6,103.8,73.6z"/>
							<path fill="#202020" d="M89,68.6l0.2,0.3C89.3,68.8,89.1,68.7,89,68.6z"/>
							<path fill="#202020" d="M80.4,52.9c0-0.1-0.1-0.1-0.1-0.2L80.4,52.9L80.4,52.9z"/>
							<path fill="#202020" d="M84.4,64.8L84.4,64.8c-0.1-0.1-0.2-0.1-0.2-0.1L84.4,64.8z"/>
							<path fill="#202020" d="M81.7,61c0,0.1,0.3,0,0.4,0c-0.1,0-0.2,0-0.3-0.1C81.8,60.9,81.7,61,81.7,61z"/>
							<path fill="#202020" d="M79.5,54.1L79.4,54C79.4,54,79.5,54.1,79.5,54.1z"/>
							<path fill="#202020" d="M86.7,67.1c0,0,0,0.1,0,0.1C86.6,67.2,86.7,67.2,86.7,67.1z"/>
							<path fill="#202020" d="M81,43.8C81,43.8,81,43.8,81,43.8C81,43.8,81,43.9,81,43.8z"/>
							<path fill="#202020" d="M79.1,48.7L79.1,48.7c-0.1-0.1-0.1-0.1-0.2-0.1L79.1,48.7z"/>
							<path fill="#202020" d="M108.2,73.5C108.1,73.5,108.1,73.5,108.2,73.5C108,73.6,108.1,73.5,108.2,73.5z"/>
							<path fill="#202020" d="M127.7,43.4c-0.1,0.5-0.5-0.6-0.6,0.1C127.1,43.4,127.6,44,127.7,43.4z"/>
							<path fill="#202020" d="M80.4,53c0,0.1,0,0.1,0,0.2C80.4,53.1,80.4,53.1,80.4,53z"/>
							<path fill="#202020" d="M127.1,43.5L127.1,43.5L127.1,43.5C127.1,43.5,127.1,43.5,127.1,43.5z"/>
							<path fill="#202020" d="M117.3,69.5c0,0-0.1,0-0.2,0C117.1,69.5,117.2,69.5,117.3,69.5z"/>
							<path fill="#202020" d="M110.5,72.3l0.2,0C110.6,72.3,110.5,72.3,110.5,72.3z"/>
							<path fill="#202020" d="M120,66.8c0.1-0.1,0.1,0,0.2-0.2c0,0,0,0-0.1,0C120.2,66.7,120.1,66.7,120,66.8z"/>
							<path fill="#202020" d="M122.7,63.8C122.6,63.8,122.6,63.9,122.7,63.8c-0.1,0.1-0.1,0.1-0.2,0.1L122.7,63.8z"/>
							<path fill="#202020" d="M85.7,34c-0.1,0-0.2,0-0.3,0C85.6,34,85.3,34.5,85.7,34z"/>
							<path fill="#202020" d="M80.2,53c0.1,0,0.1,0,0.1,0.1l0-0.1C80.3,52.9,80.3,52.9,80.2,53z"/>
							<path fill="#202020" d="M118.6,65.1l0.5-0.4C118.9,64.8,118.8,64.9,118.6,65.1z"/>
							<path fill="#202020" d="M109.4,27h-0.1C109.3,27,109.4,27,109.4,27z"/>
							<path fill="#202020" d="M120.2,63.4c0.1,0,0.3-0.1,0.4-0.1c0,0,0-0.1,0-0.1L120.2,63.4z"/>
							<path fill="#202020" d="M85.4,34L85.4,34L85.4,34z"/>
							<path fill="#202020" d="M83.8,37.4c0.3-0.5-0.2-0.4-0.3-0.6c0.3-0.6,0.4-0.1,0.7-0.2c0.1-0.4,0-0.9,0.2-1.1
								c0.1,0,0.1,0,0.1,0.1c0-0.5,0.8-1,0.8-1.7c0.1,0,0.1,0,0.1,0c-0.2-0.1-0.4-0.2-0.4-0.3c0.2-0.2,0.1-0.5,0.4-0.4
								c-0.1,0.1,0,0.2,0,0.3l0.1-0.3c0.4,0-0.2,0.3,0,0.5c0.3-0.4,0.5-1.1,0.8-1.3c0.3,0.2-0.5,0.8,0,0.6l-0.5,0.4
								c0.7,0-0.3,0.2,0.4,0.3c0.6-0.5,0.4-0.8,1.1-1.3c0-0.3-0.2-0.2-0.2-0.4c0.6-1,1.2,0,1.5-0.9c0-0.3-0.2-0.7,0.4-0.9l0.1,0.4
								c0.6-0.4,0-0.7,0.8-1c0,0.2-0.4,0.5-0.3,0.4c0.6-0.1,0.2-0.4,0.5-0.6l0.3,0.2c0.7-0.4,1.3-1.2,2.1-1.6c0,0.1-0.1,0.3,0.1,0.3
								c0.5-0.3,1-0.6,1.6-0.8c0.6-0.2,1.2-0.3,1.7-0.4l0.3-0.4c0.1,0,0.2,0.1,0.1,0.2c0.4,0,0-0.2,0.1-0.3c0.2-0.1,0.4,0.1,0.2,0.2
								c0.6-0.4,2-1.1,2.8-0.8l-0.1,0.1c0.6,0,0.6-0.7,1.2-0.5l-0.1,0.1c1.4,0,2.9-0.3,3.9,0.2c0.2-0.4,1.3,0.3,1.5-0.3
								c0.7,0.4,0.5,0.5,1.5,0.8c0.3,0.1,0.5-0.3,0.9-0.2l-0.1,0.3l0.5-0.2l0.2,0.4l0.3,0c-0.1-0.1-0.2-0.2-0.2-0.3
								c0.3,0,0.6,0.1,0.8,0.3c0.2,0.2,0.4,0.4,0.3,0.4l1.2,0.2c-0.1,0.1-0.3,0.1-0.5,0.1c0.7-0.1,0,0.3,0.7,0.3
								c0-0.1,0.1-0.2,0.1-0.2c0.2,0.3,0.8,0.6,1.3,0.7l-0.2,0.1c0.8,0.4,1.7,0.8,2.6,1.4c-0.3-0.3,0-0.5,0.3-0.4l-0.1,0.3
								c0.3-0.1-0.2-0.3,0.3-0.3c0.3,0.3,0,0.5-0.2,0.4l0.4,0.2c0,0.1-0.2,0.1-0.2,0.2c0.3,0,0.4,0.7,0.9,0.6l0,0.1
								c0.8,0.6,1.2,0.9,1.8,1.4c0.2-0.2,0.4,0.1,0.7,0.1c0.4,0.5,0.7,1.2,1.2,1.7c0.4,0.3,0.3,0,0.6,0c-0.2,0.2,0.3,0.8-0.1,0.6
								c0.3,0.3,0.5,0.6,0.7,0.8c0.2,0.2,0.5,0.5,0.8,0.9c0-0.2,0-0.3,0.1-0.3c0.1,0.2,0.2,0.5,0,0.5l-0.1,0
								c0.5,0.4,0.7,1.2,0.9,1.9c0.1,0.7,0.3,1.3,0.7,1.7l0,0l0.6,0.9c0.1,0.5-0.3-0.2-0.3,0.2c0.2,0.2,0.3,0.4,0.4,0.7
								c0.1,0.2,0.1,0.4,0.2,0.6c0.1,0.4,0.1,0.8,0.4,1.2c-0.2,0.4-0.2,1,0,1.7c0.1,0.3,0.2,0.7,0.2,1c0,0.3,0,0.6-0.1,0.9l0.2-0.1
								c0.2,0.2-0.1,0.3-0.1,0.5c0.1,0,0.1-0.3,0.2-0.1c0.2,1.1,0,2.2-0.1,3.2c-0.1,0.5-0.3,1.1-0.4,1.6l-0.2,0.8l-0.3,0.8
								c-0.2,0.7,0.8,0.7,0.1,1.5l-0.2-0.4c0,0.8-0.4,1.6-0.6,2.3c-0.4,0.7-0.7,1.4-0.9,2.2c0-0.1-0.1-0.2,0-0.3
								c-0.4,0.2-0.6,1-0.5,1.1c-0.1,0.2-0.2,0-0.3,0c-0.3,0.2-0.2,0.9-0.5,0.9c-0.1,0,0-0.1,0-0.2c0,0.2-0.6,0.8-0.3,0.8
								c-0.5,0.4-0.6,1-1,1.2c0,0.4-0.8,0.6-0.5,1c-0.3-0.3-0.9,0.5-1.1,0.9c0-0.2-0.3,0.1-0.4-0.1c-0.3,0.3-0.5,0.6-0.3,0.7
								c-0.9,0.1-1,1.3-1.7,1.1c-0.2,0.2-0.4,0.5-0.6,0.7c-0.2,0.2-0.5,0.4-0.7,0.6c-0.5,0.4-0.9,0.8-1.4,1.1
								c-0.2-0.4,1.1-0.7,0.8-1c-0.4,0.4-0.7,0.7-1.1,1c-0.3,0.3-0.7,0.5-1.2,0.7c-0.3,0.1,0.1-0.2,0.1-0.4c-0.4,0.3-1,0.5-1.4,0.7
								c-0.5,0.2-0.9,0.4-1.4,0.6c0,0,0.1-0.1,0.2-0.2c-0.2,0.1-0.4,0-0.4,0.2l0.2-0.1c0.4,0.2-0.6,0.8-0.6,0.9
								c0.2-0.6-1,0.1-0.6-0.7c-0.1,0.1-0.2,0.2-0.2,0.3c-0.2,0-0.3-0.1-0.1-0.3c-0.6,0.3-0.4,0.4-1,0.5c0-0.1,0.1-0.2,0.1-0.3
								c-0.3,0.2-0.6,0.5-1.1,0.5c0-0.1,0-0.1,0.1-0.2c-0.9,0.2-1.5,0.7-2.5,0.5c0.3-0.4-0.3-0.1-0.4-0.5c0,0-0.1,0-0.3,0.1
								c-0.1,0-0.3,0-0.3,0l0.2,0.2c-0.5,0-0.9,0.2-1.3,0.1l0.4-0.1l-0.9,0l0.5,0.2c-0.5,0.2,0,0.4-0.6,0.3c0.1,0-0.5-0.3-0.7-0.3h0
								c-0.2,0-0.5,0.2-0.8,0.1c-0.1-0.1,0.1-0.4,0.1-0.5c-0.3,0.3-1.1-0.1-1.5,0.2c0.1-0.1,0.2-0.2,0.1-0.3l-0.2,0.2
								c-0.2-0.1-0.2-0.2-0.1-0.3c-0.6-0.2,0.1,0.5-0.6,0.1c0.1,0,0,0,0.2-0.1c-0.7-0.3-1.5-0.2-2.2-0.6c-0.1-0.4,0.6,0.1,0.5-0.3
								c-0.5-0.1-1-0.2-1.6-0.3c-0.5-0.1-1-0.3-1.5-0.5l0.2,0.1c-0.4,0.4-0.6-0.5-1.1-0.6c0.1,0,0.3-0.2,0.2-0.1
								c-0.5-0.4-1.3-0.6-2.2-1l0.2,0c-0.3-0.3-0.8-0.7-1.1-1c-0.2,0-0.4-0.1-0.4,0.1c-0.3-0.7-0.8-1.1-1.4-1.4
								c-0.6-0.3-1.1-0.7-1.2-1.3c0.1,0.1,0.3,0.2,0.2,0.1l-0.8-0.7c-0.1,0.2,0,0.2,0,0.5c-0.2,0-0.5-0.2-0.6-0.3
								c0.4,0.2,0.3-0.2,0.3-0.5c0,0.1-0.1,0.1-0.2,0.1c0-0.7-0.4,0.2-0.6-0.5l0.1,0c-0.2-0.2-0.5-0.3-0.6-0.6
								c0.1-0.3,0.3,0.2,0.5,0.1c-0.3-0.3-0.9-0.4-0.9-0.8c0.2,0.1,0.3,0.3,0.5,0.4c0-0.5-0.1-0.5-0.2-0.8l0,0l-0.2-0.7l0,0.2
								c-0.8-0.1-0.7-0.8-1.4-1.2c0.7,0.4,0.3,0,0.6-0.1c0-0.2,0-0.5,0.1-0.5c-0.4-0.2-0.1-0.6-0.6-0.8c0.1-0.1-0.1-0.3,0.1-0.3
								c-0.3-0.3-0.1,0.2-0.2,0.2c-0.6-0.5-0.2-1.6-0.9-2.3c-0.4-0.7-0.7-0.8-1.1-1.5c0.1-0.3,0.4,0.1,0.4,0.1
								c0-0.4-0.1-0.7-0.3-1.1c0.1,0.1,0.2,0,0.2-0.2c-0.1-0.3-0.4-0.1-0.3-0.6c0.1,0.1,0.3,0.1,0.4,0.2c-0.1-0.3-0.4-0.7-0.5-1
								c0.2-0.1,0.3,0.2,0.4,0.3c-0.1-0.4-0.3-1.1-0.6-1.2l-0.1,0.3c0-0.2,0.2-0.1,0.3,0c0.3,0.3,0,0.5-0.1,0.6l-0.1-0.3
								c-0.5,0.4,0.3,1.1,0.3,1.6l-0.4-0.2l0.4,0.5c-0.1,0.1-0.3,0.3-0.4,0c-0.1,0.4,0.2,0.3,0.1,0.7c0,0,0,0-0.1,0l0.2,0.4
								c-0.1-0.1-0.3,0.1-0.3-0.1c-0.1,0.8,0.6,1,0.4,1.4l0-0.1c0.4,0.9,0.3,0,0.9,0.6L80.1,57l0.3,0c0,0.1,0.1,0.3-0.1,0.3
								c0.3,0.3,0.1-0.1,0.4,0c0,0.3,0.1,0.6,0.2,0.8c0.1,0.3,0.2,0.5,0,0.6c0.3,0.1,0-0.5,0.3-0.1c-0.4,0.4,0.3,0.5,0.3,1
								c-0.3,0-0.4-0.5-0.4,0.1c0.5,0,0.3,0.8,0.6,1.1c0.3-0.2,0.6,0.6,1,1.1c-0.2,0.1,0.5,1.1,0.8,1.6l-0.1,0
								c0.4-0.1,0.6,0.4,1,0.7c-0.2,0.1-0.3,0.1-0.5,0c0,0,0.3,0.3,0.3,0.3c0.2,0,0.3,0.1,0.5,0.2L84.5,65c0.4,0.4,1,0.6,1.4,1.3
								c0.2-0.2,0.1-0.9,0.7-0.5c-0.1,0.1-0.2,0.3-0.4,0.2c0.1,0,0.2,0.1,0.3,0.2l-0.4,0c0.2,0.3,0.3,0,0.4,0.2
								c-0.1,0.1,0,0.2-0.1,0.3c-0.1,0-0.1-0.2-0.2-0.2c0.2,0.2,0.4,0.6,0.4,0.7c0.1-0.1,0.2-0.2,0.4-0.1c0.4,0.4,0,0.3,0.2,0.6
								c0.2,0,0.4,0.3,0.6,0.1c0.1,0.1,0.1,0.2,0.1,0.3c0.3,0.1,1.1,0.8,1,0.3l0-0.1c0,0,0,0,0,0l0,0l0,0c0.9,0.4,1.6,1.2,2.4,1.6
								l0,0.1c0.5,0.2,1.2,0.5,1.6,0.5c0.1,0.1,0.3,0.3,0.2,0.4c0.4,0.1,0.5,0.1,1,0.4c-0.5,0,0.1,0.2-0.5,0
								c0.5,0.3,0.6,0.5,1.2,0.4c-0.3,0.2,0.3,0.4,0.6,0.5L95,71.9c0.3,0.1,0.5,0.2,0.8,0.3l-0.2,0.3c0.5,0.4,1.1,0.3,1.6,0.3
								c0.5,0,1,0,1.3,0.4c0.3-0.2-0.6-0.3-0.3-0.5c0.5,0.1,1,0.7,1.1,0.7c0.7,0.3,0.7-0.4,1.5-0.2c-0.1-0.1-0.1-0.4,0.4-0.5
								c0.5,0.1,0.6,0.5,0.3,0.6c-0.1,0-0.2,0-0.2-0.1c-0.2,0-0.4,0.1-0.2,0.2l0.1-0.1c0.3,0.1,1,0.2,0.8,0.3
								c0.4-0.1,0.2-0.2-0.1-0.3c0.7,0.2,1.1,0.1,1.8,0.2c-0.1-0.1-0.2-0.2-0.1-0.2c1,0.1,0.4-0.2,1.1-0.3c0.4,0.2-0.1,0.4,0.6,0.2
								c0.4,0.1,0.1,0.3,0,0.4c0.6-0.2,1.2,0,1.6,0l-0.3,0.1c0.2-0.1,0.4-0.1,0.5-0.1l-0.2-0.2c0.2,0,0.4,0,0.4,0.1
								c0.2-0.2-0.2-0.4,0.1-0.6c0.3,0.1,0.8-0.2,0.9,0c-0.8,0,0.2,0.3-0.5,0.5c0.1-0.1,0.3-0.1,0.5-0.1c0,0,0,0.1-0.1,0.1
								c0.8,0.1,0.3-0.4,1.1-0.6c-0.1,0.2,0.3,0.3,0.4,0.2c-0.3,0.1-0.2-0.2,0-0.5c0.6,0,0.5-0.2,0.8-0.3l-0.3,0
								c0.1-0.2,0.3-0.2,0.6-0.4c0.1,0.1-0.3,0.2-0.1,0.2c0.3-0.4,1,0,1.4-0.4c0.3,0,0.1,0.3,0.4,0.3c0.5-0.4,0.7-0.1,1.3-0.5
								c-0.3-0.1-0.3-0.1,0-0.5l-0.9,0.6l0.5-0.6c-0.3,0.1-0.6,0.5-0.8,0.5c0.2-0.3,0.2-0.2,0-0.4c0.5,0.1,0.7-0.6,1.3-0.6l0.2,0.5
								c0.4-0.1,0.7-0.3,1-0.5c0.3-0.3,0.6-0.6,1.1-0.8l-0.3,0.1c0-0.3,0.5-0.4,0.8-0.6c0.1,0.2,0.3,0.1,0.5,0.2
								c-0.1-0.1,0.6-0.4,0.5-0.8l0.5-0.1c0.7-0.4,0.4-1,1-1.5c0,0.3,0.3,0.2,0,0.7c0.2-0.2,0.4-0.3,0.3-0.4c0.2,0,0.4-0.7,0.7-0.7
								c0-0.1-0.1-0.3,0.1-0.5c0.1,0,0.1,0.1,0.1,0.1c-0.1-0.1,0.2-0.4-0.1-0.4c1-0.2,1.5-1.7,2.3-1.9c0.3-0.5,0.7-1.1,1-1.5
								c0,0.1,0.1,0.1,0,0.1c0.5-0.5-0.2-0.7,0.4-1.3c0.5-0.2-0.1,0.5,0.2,0.3c0.6,0.2,0.5-0.9,1-1.2l0,0.1c0.4-0.3,0.2-1.1,0.6-1.7
								c0,0,0,0.1,0.1,0c-0.1-0.6,0.1-1.4,0.3-2.1c0.2,0.3,0,0.3,0.3,0.3c0.1-0.3-0.4-0.1-0.3-0.6c0.2-0.1,0.5-0.5,0.7-0.5
								c0,0-0.2,0.5-0.2,0.5c0.4-0.2,0.2-0.7,0.3-1l0.1,0.1c0.2-0.9-0.2-1,0-1.8l-0.1,0.1c-0.3-0.6,0.3-0.4,0.1-0.9l0.4-0.1
								c0-0.4-0.2-1.2-0.2-1.8c0.3,0.4,0.3,1.1,0.4,1.5c0.1-0.3,0.1-1.1,0-1.3c0,0.1,0.1,0.3,0,0.4c-0.2-0.4-0.4-1-0.3-1.6
								c0.8,0.2,0.3-1.7,0.8-2.2c-0.2-0.6-0.2-1.2-0.2-1.8c0-0.6,0-1.3-0.2-1.9c-0.5,0.6-0.1-0.4-0.7-0.2c-0.1-0.3-0.1-0.4-0.1-0.5
								l0.1-1c0.1-0.3,0.2,0.3,0.3,0.2c-0.1-0.7,0.2-0.4,0.2-0.9c-0.2,0.2-0.4-0.2-0.4-0.6l-0.1,0.6c-0.5-0.9,0.2-1-0.4-1.8l0.3,0.2
								c-0.3-0.4-0.6-1.8-1.3-2c0-0.1,0.1-0.3,0.3-0.1c-0.2-0.6-0.6-1.1-1-1.6c-0.4-0.5-0.8-1-0.9-1.5l0.2,0
								c-0.2-0.2-0.4-0.2-0.5-0.5c0.1,0,0.2,0,0.1-0.1c-0.1-0.1-0.6-0.3-0.7-0.6l0.3,0.1c-0.3-0.5-0.6-0.8-1-1.1
								c-0.4-0.2-0.8-0.4-1.2-0.7c0.3-0.3-0.2-1.1-0.5-1.5l0.1,0c-0.5-0.5-1-0.8-1.5-1.1c-0.5-0.3-1.1-0.5-1.6-0.8
								c-0.2-0.4-0.7-0.9-1.3-1.3c-0.6-0.4-1.3-0.8-1.8-1.2c0.1,0.2-0.2,0.3-0.4,0.2c-0.2-0.2-0.9-0.1-0.7-0.4l0.1,0.1
								c0-0.4-0.6-0.7-1.1-0.8l-0.3,0.5c-0.5-0.6-1.3-0.8-2-0.9c-0.8-0.1-1.4-0.2-1.7-0.6c-0.3,0-0.7,0-1,0.1l0.1-0.3
								c-0.8-0.2-1.2-0.3-2.3-0.4l0.2-0.2c-0.6,0-0.8,0.8-1.3,0.8l-0.1-0.4c-1-0.1-2.1-0.3-3.1,0.1c0-0.1,0-0.2,0.2-0.2
								c-0.5,0-1.9-0.1-1.6,0.5c-0.1-0.4-1.1,0.1-1.6,0.4l0-0.3c-0.4,0.5-0.4,0.6-1,0.8c-0.2,0-0.2-0.2,0-0.2
								c-0.5,0-0.3,0.4-0.9,0.4l0.2-0.2c-0.5,0.1-0.5,0.2-0.7,0.5c-0.3,0.2-0.9,0.3-1.1,0.1c0,0.2-0.2,0.5-0.5,0.5
								c-0.1-0.1,0-0.2,0.1-0.2c-0.9,0.1-1.1,0.8-1.7,0.8c-0.1-0.1-0.1-0.1-0.2-0.1c0.6-0.3,1.1-0.5,1.1-0.5c-0.1-0.2-0.6,0-0.4-0.5
								c-0.3,0.4-0.9,1.1-1.4,1.2c0,0-0.1,0-0.1,0l0-0.1c-0.1,0-0.2,0.1-0.3,0.2c-0.2,0.1-0.3,0.1-0.4,0.2c-0.2-0.1-0.6,0.2-0.9,0.4
								c0.2,0.2-0.2,0.4,0.2,0.4c0,0,0-0.1,0.2-0.2c0,0,0.1-0.1,0.1-0.1l0,0c0.2-0.1,0.4-0.2,0.6-0.4c-0.1,0.2-0.3,0.5-0.6,0.5
								c0,0.2-0.1,0.5-0.1,0.6c-0.5-0.1-1.3,0.1-1.5,0c-0.6,0.7-1.6,1.3-1.6,2.1c-0.1,0.2-0.3,0.1-0.4,0.1c0.1-0.1,0.2-0.2,0.2-0.3
								c-0.3,0.4-1,1-0.9,1.3c-0.6,0.3,0-0.5-0.5,0.1l0-0.2c-0.8,0.4-1.1,1.1-1.4,1.7c-0.3,0.7-0.5,1.4-1.4,1.9
								c0.1-0.1,0.2-0.1,0.2-0.1c-1.4,1.6-2,3.8-3.1,5.5c-0.3,0.5-0.1,0.7-0.1,1l-0.3,0c0,0,0,0.2,0.1,0.3c0,0.2,0.1,0.3,0.1,0.3
								c0,0.4-0.3,0.8-0.5,1.1c-0.3,0.4-0.5,0.8-0.3,1.3l0.2-0.1c-0.1,0.4-0.1,1.2-0.3,1.1c0,0,0.2,0.2,0.1,0.3l-0.2,0
								c0,0,0,0.2,0.1,0.5c0.1,0.2,0.1,0.5,0.1,0.5c-0.2,0.7-0.6-0.2-0.7,0.9c0,0.4,0.4,1.2,0.5,1c0-0.2,0.1-0.4,0.3-0.4l0.1,0.4
								c0.5,0.1,0.9,0.3,1.3-0.5l-0.3-0.6l0.2-0.2l0,0.5c0.2-0.3,0-0.5-0.1-0.7c0.1,0,0.2-0.1,0.3-0.2l-0.4-0.6
								c0.2-0.1,0.3,0.3,0.5-0.1c-0.2-0.3-0.4,0.2-0.5-0.2c0.3-0.3,0.4-0.2,0.3-0.5c0.1,0,0.2,0.1,0.2,0.2c-0.1-0.3,0.1-0.8-0.2-1
								c0.3-0.2,0.1-1,0.5-0.9c-0.1-0.1-0.2-0.6-0.2-0.8c0.4,0.6,0.3-1,0.8-0.7c-0.4-0.5,0.2-1.3,0.2-2c0,0,0.1,0.1,0,0.2
								c0.2-0.3,0.3-0.4,0.5-0.6c-0.3-0.2-0.2-0.7-0.3-1.1c0.5-0.2,0.3,0.4,0.7,0.5c-0.3-0.1,0.1-0.8-0.3-0.8
								c0.4-0.2,0.2-0.2,0.6-0.2c-0.4-0.3,0.1-0.3-0.1-0.7c0.5-0.3,0.5,0.1,0.6-0.4C83.9,36.9,83.8,37.4,83.8,37.4z M92.5,28.1
								L92.5,28.1c-0.1,0.1-0.2,0.1-0.2,0.1C92.3,28.2,92.3,28.1,92.5,28.1z M93.5,27.6c-0.1,0-0.3,0.1-0.4,0.2
								c-0.1-0.1-0.1-0.2,0-0.2C93,27.7,93.3,27.6,93.5,27.6z M90.4,27c0.1-0.1,0.2-0.1,0.3-0.1c-0.1,0.1-0.2,0.1-0.3,0.2
								c0,0,0,0,0,0C90.4,27.1,90.4,27.1,90.4,27z"/>
							<path fill="#202020" d="M90.3,27.5C90.3,27.5,90.3,27.5,90.3,27.5C90.3,27.6,90.3,27.6,90.3,27.5L90.3,27.5L90.3,27.5z"/>
							<path fill="#202020" d="M88.9,68.4L88.9,68.4C88.9,68.4,88.9,68.4,88.9,68.4C88.9,68.4,88.9,68.4,88.9,68.4z"/>
							<polygon fill="#202020" points="108.2,26.6 108.2,26.5 108.1,26.6 							"/>
							<path fill="#202020" d="M85,63.5c0,0,0-0.1,0-0.1C85,63.4,85,63.4,85,63.5z"/>
							<path fill="#202020" d="M83.5,61.3l-0.1-0.4C83.4,61.1,83.4,61.2,83.5,61.3z"/>
							<path fill="#202020" d="M82.6,59.5c-0.1,0-0.1,0-0.1,0l0,0L82.6,59.5z"/>
							<path fill="#202020" d="M109.8,70.6C109.8,70.6,109.8,70.6,109.8,70.6C110,70.5,109.9,70.5,109.8,70.6z"/>
							<path fill="#202020" d="M100.4,72.1c0.1,0,0.2-0.1,0.3-0.1C100.5,71.9,100.4,71.9,100.4,72.1z"/>
							<polygon fill="#202020" points="118.6,65.1 118.6,65.1 118.6,65.1 							"/>
							<path fill="#202020" d="M101.2,72c-0.2-0.1-0.3-0.1-0.4,0C100.9,72,101,72,101.2,72z"/>
							<path fill="#202020" d="M80.2,51.1L80.2,51.1c0-0.1,0-0.1,0-0.1L80.2,51.1z"/>
							<path fill="#202020" d="M80.1,51l0-0.1C80.1,51,80.1,51,80.1,51z"/>
							<path fill="#202020" d="M80,50.7l0.1,0.2C80.1,50.9,80.1,50.8,80,50.7z"/>
							<path fill="#202020" d="M80.5,53.8l0.1,0C80.6,53.8,80.5,53.8,80.5,53.8z"/>
							<path fill="#202020" d="M80.7,54.6c0-0.2,0.1-0.5,0-0.8l-0.1,0C80.8,53.9,80.5,54.4,80.7,54.6z"/>
							<path fill="#202020" d="M80.6,58.3c0,0-0.2-0.7-0.2-0.7c-0.1,0.2-0.1,0.4-0.3,0.1C80.2,58.6,80.3,57.4,80.6,58.3z"/>
							<path fill="#202020" d="M81.5,60.3c-0.2-0.3-0.1,0.1-0.2,0.1C81.5,60.6,81.5,60.6,81.5,60.3z"/>
							<path fill="#202020" d="M93.1,71.1l-0.1,0.2C93.2,71.5,93,71.3,93.1,71.1z"/>
							<path fill="#202020" d="M96.4,71c0,0-0.2-0.2-0.2-0.2l-0.2,0.2C95.9,70.9,96.4,71,96.4,71z"/>
							<polygon fill="#202020" points="97.6,73.2 97.5,73.2 98,73.2 							"/>
							<path fill="#202020" d="M122.4,64.6l-0.3-0.1C122,64.6,122.3,64.9,122.4,64.6z"/>
							<path fill="#202020" d="M127.2,53.9c0.2-0.1,0.3-0.4,0.2-0.6C127.4,53.5,127.3,53.7,127.2,53.9z"/>
							<polygon fill="#202020" points="111.8,25.1 112.1,25.1 111.6,25 							"/>
						</g>
					</g>
				</g>
			</g>
		</g>
		<g>
			<g>
				<g>
					<g>
						<g>
							<path fill="#202020" d="M95.5,48.7c-0.1,0-0.3,0-0.2,0.1l0.3,0L95.5,48.7z"/>
							<path fill="#202020" d="M95,49.2c0.2,0.1,0.4,0.2,0.7,0.1c-0.3-0.1-0.2-0.1-0.6-0.2c0-0.1,0.1-0.1,0.2-0.1
								c-0.1,0,0.1-0.1-0.1-0.1c-0.2,0.1-0.3,0.2,0,0.3C95.1,49.2,95,49.2,95,49.2z"/>
							<path fill="#202020" d="M98.1,55.8L98.1,55.8C98.1,55.7,98.1,55.8,98.1,55.8z"/>
							<path fill="#202020" d="M102.5,57.5C102.5,57.5,102.5,57.6,102.5,57.5C102.5,57.6,102.5,57.6,102.5,57.5z"/>
							<path fill="#202020" d="M103.4,57.9C103.3,57.9,103.3,57.9,103.4,57.9C103.3,57.9,103.4,57.9,103.4,57.9z"/>
							<path fill="#202020" d="M98.1,55.8l0,0.2C98.2,55.8,98.1,55.8,98.1,55.8z"/>
							<path fill="#202020" d="M95.9,50C95.8,50,95.8,50,95.9,50C95.8,50,95.8,50,95.9,50L95.9,50z"/>
							<path fill="#202020" d="M96.3,54.5L96.3,54.5c-0.1,0-0.1,0-0.2,0L96.3,54.5z"/>
							<path fill="#202020" d="M95.3,53.2c0,0,0.3-0.1,0.4-0.1c-0.1,0-0.2,0-0.2,0C95.4,53.1,95.4,53.1,95.3,53.2z"/>
							<path fill="#202020" d="M94.8,50.6L94.8,50.6C94.8,50.6,94.8,50.6,94.8,50.6z"/>
							<path fill="#202020" d="M97.1,55.4C97.1,55.5,97.1,55.5,97.1,55.4C97.1,55.5,97.1,55.4,97.1,55.4z"/>
							<path fill="#202020" d="M96.4,47.2C96.3,47.2,96.3,47.2,96.4,47.2C96.3,47.2,96.3,47.2,96.4,47.2z"/>
							<polygon fill="#202020" points="94.8,48.7 94.8,48.7 94.6,48.7 							"/>
							<path fill="#202020" d="M105,58.1L105,58.1C105,58.1,105,58.1,105,58.1z"/>
							<path fill="#202020" d="M112.3,46.7c-0.2,0.2-0.4-0.2-0.6,0.1C111.8,46.8,112.2,46.9,112.3,46.7z"/>
							<path fill="#202020" d="M95.8,50.1C95.8,50.1,95.8,50.1,95.8,50.1C95.8,50.1,95.8,50.1,95.8,50.1z"/>
							<path fill="#202020" d="M111.7,46.8L111.7,46.8L111.7,46.8C111.7,46.8,111.7,46.8,111.7,46.8z"/>
							<path fill="#202020" d="M108.4,56.5C108.4,56.4,108.4,56.4,108.4,56.5C108.3,56.4,108.4,56.5,108.4,56.5z"/>
							<path fill="#202020" d="M105.8,57.3L105.8,57.3C105.8,57.3,105.8,57.3,105.8,57.3z"/>
							<path fill="#202020" d="M109.3,55.3C109.3,55.3,109.4,55.3,109.3,55.3C109.4,55.2,109.3,55.2,109.3,55.3
								C109.3,55.3,109.3,55.3,109.3,55.3z"/>
							<path fill="#202020" d="M110.2,54.2C110.2,54.2,110.2,54.2,110.2,54.2L110.2,54.2L110.2,54.2z"/>
							<path fill="#202020" d="M97.7,44.1c-0.1,0-0.2-0.1-0.2-0.1C97.7,44.1,97.6,44.3,97.7,44.1z"/>
							<path fill="#202020" d="M95.7,50.1c0.1,0,0.1,0,0.1,0c0,0,0,0,0,0C95.8,50.1,95.7,50.1,95.7,50.1z"/>
							<path fill="#202020" d="M107.8,53.6l0.2-0.1C107.9,53.6,107.9,53.6,107.8,53.6z"/>
							<path fill="#202020" d="M105.1,41.9L105.1,41.9C105,41.9,105.1,41.9,105.1,41.9z"/>
							<path fill="#202020" d="M108.3,53.1c0.1,0,0.2,0.1,0.2,0.1c0,0,0,0,0-0.1L108.3,53.1z"/>
							<path fill="#202020" d="M97.5,44L97.5,44L97.5,44z"/>
							<path fill="#202020" d="M97.4,45.3c0.1-0.1-0.3-0.3-0.4-0.4c0-0.2,0.3,0.1,0.5,0.1c0-0.2-0.2-0.4-0.2-0.5
								c0.1,0,0.1,0,0.1,0.1c-0.2-0.3,0.2-0.3,0-0.7c0,0,0.1,0,0.1,0c-0.2-0.1-0.3-0.2-0.4-0.3c0.1-0.1-0.1-0.3,0.1-0.1
								c0,0,0,0.1,0.1,0.2l0-0.1c0.3,0.2,0,0.2,0.2,0.3c0-0.2-0.1-0.5,0.1-0.6c0.3,0.2-0.1,0.3,0.2,0.4l-0.2,0.1
								c0.5,0.2-0.1,0.1,0.4,0.3c0.2-0.1,0-0.3,0.3-0.4c-0.1-0.2-0.2-0.2-0.3-0.4c0-0.5,0.8,0.4,0.7-0.1c-0.1-0.2-0.3-0.6,0-0.5
								l0.2,0.3c0.2-0.1-0.2-0.5,0.1-0.5c0,0.2-0.1,0.2,0,0.2c0.3,0.1,0-0.2,0.1-0.3l0.2,0.3c0.2-0.2,0.3-0.5,0.5-0.7
								c0,0.1,0,0.2,0.1,0.3c0.1-0.2,0.3-0.2,0.5-0.3c0.2,0,0.4,0,0.6,0.1l0-0.3c0,0,0.1,0.1,0.1,0.2c0.2,0.1,0-0.2,0-0.3
								c0.1,0,0.1,0.1,0.1,0.2c0.1-0.3,0.5-0.7,0.8-0.4l0,0.1c0.2,0.1,0.1-0.6,0.4-0.4l0,0.1c0.4,0.1,0.9-0.2,1.2,0.3
								c0.1-0.4,0.4,0.2,0.5-0.4c0.2,0.3,0.1,0.4,0.4,0.7c0.1,0,0.2-0.3,0.3-0.4l-0.1,0.3l0.2-0.3l0,0.4l0.1-0.1c0,0,0-0.2,0-0.2
								c0.2-0.1,0.3,0.3,0.3,0.5l0.4-0.1c-0.1,0.1-0.1,0.1-0.2,0.2c0.3-0.2-0.1,0.3,0.2,0.1c0-0.1,0.1-0.2,0.1-0.2
								c0,0.2,0.2,0.3,0.4,0.3l-0.1,0.2c0.2,0.2,0.6,0.2,0.8,0.4c0-0.1,0.2-0.4,0.3-0.4l-0.1,0.3c0.2-0.1,0-0.2,0.2-0.3
								c0.1,0.1-0.1,0.4-0.3,0.4l0.2,0c0,0.1-0.1,0.1-0.2,0.2c0.2-0.1,0,0.4,0.3,0.2l-0.1,0.1c0.2,0.2,0.4,0.2,0.6,0.4
								c0.2-0.2,0.2-0.1,0.4-0.2c0.1,0.2,0.1,0.5,0.2,0.7c0.2,0,0.2-0.1,0.4-0.2c-0.2,0.2,0,0.3-0.2,0.4c0.2,0.2,0.3,0.2,0.6,0.4
								c0.1-0.1,0.1-0.1,0.2-0.1c0.1,0,0,0.3-0.1,0.3h0c0.6,0-0.2,1.1,0.4,1.1l0,0l0.4,0.2c0,0.2-0.2,0-0.3,0.1
								c0.5,0.2,0.1,0.5,0.4,0.7c-0.7,0.4,0.2,0.8-0.3,1.1l0.2,0c0.2,0.1-0.1,0.1-0.1,0.2c0.1,0,0.2-0.1,0.3,0
								c0.3,0.7-0.3,1.4-0.6,1.9c-0.1,0.2,0.8,0.4,0.4,0.6l-0.3-0.2c0.1,0.3,0,0.5-0.1,0.8c-0.1,0.2-0.2,0.4-0.2,0.7
								c-0.1-0.1-0.1-0.1-0.1-0.2c-0.3,0-0.2,0.3,0,0.4c-0.1,0.1-0.2-0.1-0.3-0.1c-0.2,0,0.1,0.4-0.1,0.3c0,0,0-0.1-0.1-0.1
								c0.1,0.1-0.2,0.2,0.1,0.3c-0.2,0.1-0.1,0.4-0.3,0.4c0.2,0.3-0.3,0.1,0,0.4c-0.3-0.3-0.5,0-0.4,0.2c-0.1-0.1-0.2,0-0.3-0.2
								c-0.1,0.1-0.1,0.2,0,0.4c-0.5-0.2-0.1,0.7-0.6,0.2c-0.2,0.4-0.4,0.8-0.7,1c-0.2-0.4,0.3-0.2,0.1-0.6
								c-0.2,0.3-0.2,0.7-0.6,0.8c-0.1,0,0-0.2,0-0.3c-0.2,0.3-0.6,0.2-0.8,0.5c0,0,0-0.1,0-0.1c-0.1,0-0.2,0-0.1,0.2l0-0.1
								c0.2,0.3-0.1,0.7,0,0.8c0-0.6-0.3-0.1-0.4-0.8c0,0-0.1,0.2,0,0.3c-0.1,0-0.1-0.1-0.1-0.3c-0.2,0.2-0.1,0.3-0.3,0.4
								c0-0.1,0-0.1,0-0.3c-0.1,0.2-0.1,0.4-0.3,0.4c0-0.1,0-0.1,0-0.1c-0.3,0.1-0.5,0.6-0.8,0.4c0.1-0.4-0.1-0.1-0.1-0.5L103,56
								l0.1,0.2c-0.1,0-0.3,0.2-0.4,0.1l0.1-0.1l-0.3,0.1l0.2,0.1c-0.2,0.2,0,0.5-0.2,0.4c0,0-0.2,0-0.2-0.2l0,0
								c-0.1,0.1-0.2,0.2-0.3,0.1c0-0.1,0.1-0.4,0.1-0.5c-0.1,0.3-0.4,0-0.5,0.3c0-0.1,0.1-0.3,0.1-0.3l-0.1,0.2
								c-0.1-0.1-0.1-0.1,0-0.3c-0.2-0.1,0,0.5-0.2,0.2c0,0,0-0.1,0.1-0.1c-0.2-0.2-0.5,0-0.7-0.2c0.1-0.4,0.2,0,0.2-0.3
								c-0.3,0-0.8,0.2-1.1-0.1l0,0.1c-0.3,0.5-0.1-0.3-0.4-0.2c0.1,0,0.2-0.2,0.1-0.2c-0.1-0.2-0.4-0.1-0.8-0.2l0.1-0.1
								c0-0.2-0.2-0.3-0.3-0.4c-0.1,0.1-0.2,0-0.3,0.2c0.1-0.4-0.1-0.5-0.4-0.5c-0.2,0-0.5-0.1-0.4-0.5c0,0,0.2,0,0.1,0l-0.3-0.2
								c-0.2,0.2-0.1,0.1-0.2,0.3c-0.1,0.1-0.3,0.1-0.3,0c0.2,0,0.3-0.2,0.3-0.4c0,0.1-0.1,0.1-0.2,0.1c0.2-0.4-0.4,0.3-0.3-0.1
								l0.1-0.1c-0.1,0-0.3,0-0.3-0.1c0.2-0.2,0.2,0,0.3-0.1c-0.1-0.1-0.6,0.1-0.4-0.2c0.1,0,0.3,0.1,0.4,0.1
								c0.2-0.3,0.3-0.3,0.3-0.4v0l-0.2-0.3l-0.1,0.1c-0.7,0.2-0.3-0.2-0.8-0.2c0.5,0,0.2-0.1,0.5-0.2c0-0.1,0.1-0.2,0.2-0.2
								c-0.3,0,0.1-0.2-0.3-0.2c0.1,0,0-0.1,0.2-0.2c-0.1-0.1-0.1,0.1-0.3,0.1c-0.4-0.1,0.2-0.6-0.3-0.7c-0.3-0.2-0.6-0.2-0.8-0.4
								c0.1-0.1,0.4,0,0.4,0c0.1-0.2,0-0.3-0.1-0.4c0.1,0,0.2,0,0.3-0.1c0-0.1-0.4,0-0.2-0.2c0.1,0,0.3,0,0.4,0
								c-0.1-0.1-0.3-0.2-0.4-0.3c0.2-0.1,0.3,0,0.4,0.1c-0.1-0.1-0.2-0.3-0.5-0.4l-0.1,0.1c0-0.1,0.2,0,0.3,0
								c0.2,0.1-0.1,0.2-0.2,0.2l-0.1-0.1c-0.5,0.2,0.1,0.4,0.1,0.5l-0.4,0l0.4,0.1c-0.1,0.1-0.3,0.1-0.4,0.1
								c-0.2,0.2,0.2,0.1,0,0.3c0,0-0.1,0-0.1,0l0.2,0.1c-0.1,0-0.3,0.1-0.2,0c-0.2,0.3,0.4,0.3,0.1,0.5l0,0
								c0.2,0.3,0.3-0.1,0.7,0.1l-0.6,0.4l0.3-0.1c0,0,0,0.1-0.1,0.1c0.2,0.1,0.1-0.1,0.3-0.1c-0.2,0.3,0.3,0.4-0.1,0.6
								c0.2,0,0.1-0.2,0.3-0.1c-0.4,0.3,0.2,0.1,0,0.4c-0.3,0.1-0.2-0.1-0.3,0.1c0.4-0.1,0,0.3,0.2,0.4c0.3-0.2,0.3,0.2,0.5,0.3
								c-0.1,0.1,0.1,0.5,0.1,0.7l-0.1,0c0.3-0.2,0.4,0,0.5,0.1c-0.2,0.1-0.3,0.2-0.4,0.2l0.1,0.1c0.1,0,0.2-0.1,0.3,0l-0.2,0.2
								c0.2,0.1,0.5,0.1,0.6,0.4c0.2-0.2,0.4-0.6,0.7-0.6c-0.1,0.1-0.2,0.3-0.3,0.3c0,0,0.1,0,0.1,0l-0.2,0.1c0,0.2,0.2-0.1,0.2,0
								c-0.1,0.1,0,0.1-0.2,0.3c0,0,0-0.1-0.1-0.1c0.1,0.1,0.1,0.3,0,0.4c0.1-0.1,0.2-0.2,0.2-0.2c0.2,0.1-0.1,0.2-0.1,0.4
								c0.1-0.1,0.1,0.1,0.3-0.1c0,0,0,0.1-0.1,0.2c0.2,0,0.4,0.4,0.5,0.1l0,0.1c0,0,0,0,0,0l0-0.2l0-0.1c0.4,0,0.5,0.5,0.8,0.5
								l0,0.1c0.2,0,0.4,0.1,0.6,0c0.1,0,0,0.2,0,0.3c0.2,0,0.2-0.1,0.4,0.1c-0.2,0.1,0,0.2-0.2,0.1c0.2,0.1,0.1,0.3,0.4,0.1
								c-0.2,0.2,0,0.4,0.2,0.3l-0.1-0.2c0.1,0,0.2,0.1,0.3,0.1l-0.1,0.3c0.3,0.5,0.9-0.5,1.1,0.3c0.2-0.2-0.2-0.2,0-0.4
								c0.2,0.1,0.3,0.6,0.4,0.6c0.2,0.2,0.3-0.4,0.6-0.3c0-0.1,0-0.4,0.2-0.5c0.2,0.1,0.2,0.5,0.1,0.6c0,0-0.1,0-0.1-0.1
								c-0.1,0-0.2,0.1-0.1,0.2l0-0.1c0.1,0.1,0.4,0.1,0.3,0.3c0.2-0.1,0.1-0.2,0-0.3c0.2,0.2,0.4,0,0.7,0.1c0-0.1-0.1-0.2,0-0.2
								c0.4,0.1,0.2-0.2,0.4-0.3c0.2,0.2,0,0.4,0.2,0.3c0.2,0.1,0.1,0.3,0,0.4c0.2-0.2,0.5,0.1,0.6,0.1l-0.1,0.1
								c0.1-0.1,0.1-0.1,0.2-0.1l-0.1-0.2c0.1,0,0.1,0,0.2,0.1c0.1-0.2-0.1-0.4,0-0.6c0.1,0.1,0.3-0.2,0.4,0.1
								c-0.3,0,0.1,0.3-0.2,0.4c0,0,0.1-0.1,0.2,0c0,0,0,0.1,0,0.1c0.4,0.2,0.1-0.4,0.4-0.4c0,0.2,0.2,0.3,0.2,0.3
								c-0.1,0-0.1-0.3-0.1-0.4c0.2,0.1,0.2-0.2,0.3-0.2l-0.1,0c0-0.2,0.1-0.2,0.2-0.3c0.1,0.1-0.1,0.1,0,0.2c0-0.3,0.4,0.2,0.5-0.1
								c0.1,0.1,0.1,0.3,0.2,0.4c0.1-0.3,0.3,0.1,0.5-0.2c-0.2-0.2-0.2-0.1-0.1-0.4l-0.3,0.3l0.1-0.4c-0.1,0-0.2,0.3-0.3,0.2
								c0-0.2,0-0.2-0.1-0.3c0.3,0.3,0.2-0.3,0.5-0.2l0.3,0.5c0.4,0.1,0.3-0.5,0.7-0.6l-0.2,0c-0.1-0.2,0.2-0.1,0.2-0.3
								c0.1,0.2,0.2,0.2,0.3,0.3c-0.1-0.1,0.2-0.2,0-0.5l0.3,0.1c0.3-0.1-0.1-0.6,0.2-0.8c0.1,0.2,0.3,0.2,0.2,0.5
								c0.1-0.1,0.2-0.1,0.1-0.2c0.1,0.1,0-0.4,0.2-0.3c0-0.1-0.2-0.2-0.1-0.3c0,0,0.1,0.1,0.1,0.1c-0.1-0.1,0-0.2-0.2-0.3
								c0.6,0.2,0.5-0.6,1.1-0.5c0.1-0.2,0.2-0.4,0.3-0.6c0,0,0.1,0.1,0,0.1c0.3-0.1-0.4-0.4-0.1-0.6c0.3,0,0.1,0.2,0.2,0.2
								c0.6,0.3,0.1-0.3,0.5-0.3l0,0.1c0.3,0,0-0.5,0.1-0.7c0,0,0,0,0.1,0c-0.2-0.3-0.2-0.6-0.2-0.9c0.2,0.2,0.1,0.1,0.3,0.2
								c0-0.1-0.4-0.1-0.4-0.3c0.2,0,0.3-0.1,0.6-0.1c0,0-0.1,0.2-0.1,0.2c0.4,0,0.1-0.3,0.2-0.3l0.1,0.1c0-0.3-0.3-0.4-0.2-0.7
								l-0.1,0c-0.3-0.2,0.2-0.1,0-0.3l0.4,0c-0.1-0.1-0.3-0.5-0.4-0.7c0.3,0.1,0.4,0.4,0.5,0.6c0-0.1,0-0.4-0.1-0.5
								c0,0.1,0.1,0.1,0,0.2c-0.3-0.2-0.4-0.4-0.4-0.6c0.8,0.1,0.2-0.6,0.8-0.8c-0.3-0.4,0.1-0.9-0.1-1.4c-0.6,0.3,0-0.1-0.6,0
								c-0.1-0.1-0.1-0.1,0-0.2l0.3-0.4c0.1-0.1,0.2,0.1,0.3,0c0-0.3,0.2-0.2,0.3-0.4c-0.2,0.1-0.3,0-0.3-0.2l-0.2,0.3
								c-0.4-0.3,0.4-0.5,0-0.7l0.2,0c-0.2-0.1-0.2-0.7-0.8-0.7c0-0.1,0.2-0.2,0.3-0.1c-0.1-0.5-0.9-0.6-0.9-1.1l0.1-0.1
								c-0.1,0-0.3,0-0.2-0.1c0.1,0,0.1-0.1,0.1-0.1c-0.1,0-0.3,0-0.3-0.2l0.2,0c-0.1-0.5-0.7-0.3-1-0.5c0.3-0.3,0.2-0.7,0.1-0.8
								l0,0c-0.4-0.4-0.9-0.3-1.4-0.5c0-0.6-0.7-0.7-1-1.2c0,0.1-0.2,0.3-0.3,0.3c-0.1-0.1-0.4,0.1-0.2-0.2l0,0
								c0.1-0.4-0.2-0.4-0.3-0.5l-0.2,0.5c-0.1-0.4-0.4-0.5-0.7-0.5c-0.3,0-0.6,0-0.6-0.3c-0.1,0.1-0.3,0.1-0.4,0.2l0.1-0.3
								c-0.3-0.1-0.5-0.2-0.9-0.2L104,39c-0.2,0-0.3,0.8-0.5,0.8l0-0.4c-0.4,0-0.8-0.4-1.1,0c0-0.1,0-0.2,0.1-0.2
								c-0.2,0-0.7-0.2-0.6,0.4c-0.1-0.4-0.4,0-0.6,0.2l0-0.3c-0.1,0.4-0.1,0.5-0.3,0.6c-0.1,0-0.1-0.2,0-0.2
								c-0.2-0.1-0.1,0.3-0.3,0.2l0-0.2c-0.2,0-0.2,0.1-0.2,0.3c-0.1,0.1-0.4,0.1-0.5-0.2c0,0.2,0,0.4-0.1,0.3c0-0.1,0-0.2,0-0.2
								c-0.4-0.1-0.3,0.5-0.6,0.3c0-0.1-0.1-0.1-0.1-0.1c0.2-0.1,0.4-0.2,0.4-0.2c-0.1-0.2-0.3-0.2-0.3-0.6
								c-0.1,0.3-0.2,0.8-0.4,0.7c0,0,0,0-0.1-0.1l0,0c-0.1,0-0.1,0-0.1,0.1c-0.1,0-0.1,0-0.2,0c-0.1-0.2-0.3,0-0.4,0.1
								c0.2,0.2,0,0.3,0.2,0.4c0,0,0,0,0.1-0.1c0,0,0,0,0,0l0,0c0.1,0,0.1-0.1,0.2-0.1c0,0.2,0,0.3-0.2,0.2c0,0.2,0.1,0.4,0.1,0.5
								c-0.3-0.3-0.7-0.3-0.8-0.5c-0.2,0.3-0.6,0.5-0.4,1.1c0,0.1-0.2,0-0.3-0.1c0-0.1,0.1-0.1,0-0.2c0,0.2-0.4,0.4-0.1,0.7
								c-0.3,0-0.1-0.3-0.3-0.1l-0.1-0.1c-0.4,0-0.4,0.4-0.4,0.7c0,0.3,0,0.6-0.5,0.7c0.1,0,0.1,0,0.2,0c-0.7,0.5-0.5,1.4-1.2,1.9
								c-0.2,0.2,0,0.3,0.2,0.4l-0.3,0l0.3,0.3c0.2,0.3-0.9,0.3-0.5,0.8l0.2,0c-0.1,0.1,0.1,0.4-0.2,0.4c0,0,0.2,0.1,0.1,0.1l-0.2,0
								c0,0,0.2,0.4,0.2,0.4c-0.1,0.3-0.6-0.1-0.7,0.3c0.1,0.2,0.4,0.4,0.5,0.4c0-0.1,0.1-0.1,0.3-0.1l0.1,0.1
								c0.5,0,0.9,0.1,1.3-0.2l-0.3-0.2l0.2,0l0,0.2c0.2-0.1,0-0.1-0.1-0.2c0.1,0,0.2,0,0.3-0.1l-0.4-0.2c0.2,0,0.3,0.1,0.5,0
								c-0.2-0.1-0.4,0-0.5-0.1c0.2-0.1,0.4,0,0.2-0.1c0.1,0,0.2,0,0.2,0.1c-0.1-0.1,0-0.2-0.3-0.3c0.3,0,0-0.3,0.4-0.2
								c-0.1,0-0.3-0.2-0.3-0.3c0.5,0.3,0.1-0.3,0.6-0.1c-0.4-0.2-0.1-0.4-0.2-0.7c0,0,0.1,0.1,0.1,0.1c0.1-0.1,0.2-0.1,0.3-0.1
								c-0.4-0.2-0.4-0.4-0.5-0.6c0.4,0,0.4,0.3,0.7,0.4c-0.3-0.1-0.2-0.3-0.4-0.4c0.3,0,0.1,0,0.5,0.1c-0.4-0.2,0-0.1-0.2-0.3
								c0.3,0,0.4,0.2,0.4,0C97.3,45.1,97.4,45.3,97.4,45.3z M99.7,42L99.7,42C99.6,42.1,99.6,42.1,99.7,42
								C99.6,42.1,99.6,42.1,99.7,42z M100,41.9c0,0-0.1,0-0.1,0.1c-0.1-0.1-0.1-0.2,0-0.2C99.8,41.8,99.9,41.8,100,41.9z
								 M98.3,40.6c0-0.1,0.1,0,0.1,0c0,0-0.1,0-0.1,0.1l0,0C98.4,40.6,98.4,40.6,98.3,40.6z"/>
							<path fill="#202020" d="M98.4,40.9C98.4,40.9,98.4,41,98.4,40.9C98.4,41,98.5,41,98.4,40.9L98.4,40.9L98.4,40.9z"/>
							<path fill="#202020" d="M98.1,55.7L98.1,55.7C98.1,55.7,98.1,55.7,98.1,55.7C98.1,55.7,98.1,55.7,98.1,55.7z"/>
							<polygon fill="#202020" points="104.7,41.9 104.7,41.8 104.7,41.9 							"/>
							<path fill="#202020" d="M97.1,53.5C97.2,53.5,97.2,53.5,97.1,53.5C97.2,53.5,97.2,53.5,97.1,53.5z"/>
							<path fill="#202020" d="M96.7,52.8l0-0.2C96.7,52.7,96.7,52.8,96.7,52.8z"/>
							<path fill="#202020" d="M96.5,52.2c0,0-0.1,0-0.1,0l0,0L96.5,52.2z"/>
							<path fill="#202020" d="M105.2,55.5C105.2,55.5,105.2,55.5,105.2,55.5C105.3,55.5,105.2,55.5,105.2,55.5z"/>
							<path fill="#202020" d="M102.2,56.4c0,0,0.1-0.1,0.1-0.1C102.3,56.3,102.2,56.3,102.2,56.4z"/>
							<polygon fill="#202020" points="107.8,53.7 107.8,53.7 107.8,53.6 							"/>
							<path fill="#202020" d="M102.5,56.3c-0.1-0.1-0.1,0-0.1,0C102.4,56.4,102.4,56.4,102.5,56.3z"/>
							<path fill="#202020" d="M95.8,49.5L95.8,49.5C95.8,49.4,95.8,49.4,95.8,49.5L95.8,49.5z"/>
							<path fill="#202020" d="M95.8,49.4L95.8,49.4C95.7,49.4,95.7,49.4,95.8,49.4z"/>
							<path fill="#202020" d="M95.6,49.3L95.6,49.3C95.7,49.4,95.7,49.4,95.6,49.3z"/>
							<path fill="#202020" d="M95.8,50.3l0.1,0C95.9,50.3,95.9,50.3,95.8,50.3z"/>
							<path fill="#202020" d="M95.9,50.6c0-0.1,0.2-0.2,0.1-0.3l-0.1,0C96.1,50.3,95.7,50.6,95.9,50.6z"/>
							<path fill="#202020" d="M95.1,52.1l0-0.3c-0.1,0.1-0.2,0.2-0.3,0.1C94.6,52.4,95,51.8,95.1,52.1z"/>
							<path fill="#202020" d="M95.3,52.9c-0.1-0.1-0.1,0.1-0.2,0.1C95.2,53,95.3,53,95.3,52.9z"/>
							<path fill="#202020" d="M99.5,56.8L99.4,57C99.5,57,99.4,56.9,99.5,56.8z"/>
							<polygon fill="#202020" points="100.9,55.9 100.9,55.7 100.8,56 							"/>
							<polygon fill="#202020" points="101.1,57.8 101,57.9 101.2,57.8 							"/>
							<path fill="#202020" d="M110.3,54.6l-0.3-0.2C110,54.5,110.3,54.7,110.3,54.6z"/>
							<path fill="#202020" d="M111.9,50.6c0.2,0,0.3-0.1,0.1-0.2C112,50.4,111.9,50.5,111.9,50.6z"/>
							<polygon fill="#202020" points="106.4,39.8 106.5,39.7 106.3,39.8 							"/>
						</g>
					</g>
				</g>
			</g>
		</g>
	</g>
	<g>
		<g>
			<g>
				<g>
					<g>
						<g>
							<path fill="#202020" d="M17.4,45.6c-0.1-0.1-0.3,0-0.2,0.2l0.3,0.1L17.4,45.6z"/>
							<path fill="#202020" d="M16.9,47c0.2,0.2,0.5,0.5,0.8,0.3c-0.3-0.2-0.2-0.3-0.6-0.5c0-0.2,0.1-0.4,0.2-0.3
								c-0.1-0.1,0.1-0.3-0.2-0.4c-0.2,0.3-0.2,0.7,0,1C17,47.1,16.9,47,16.9,47z"/>
							<path fill="#202020" d="M26.6,65.5l-0.1-0.1C26.5,65.4,26.5,65.4,26.6,65.5z"/>
							<path fill="#202020" d="M39.1,70.1c-0.1,0-0.1,0-0.2,0.1C39,70.1,39.1,70.1,39.1,70.1z"/>
							<path fill="#202020" d="M41.4,70.5c-0.1,0-0.1,0-0.1,0C41.3,70.5,41.4,70.5,41.4,70.5z"/>
							<path fill="#202020" d="M26.6,65.5l0.2,0.3C26.9,65.7,26.7,65.6,26.6,65.5z"/>
							<path fill="#202020" d="M18,49.8c0-0.1-0.1-0.1-0.1-0.2L18,49.8L18,49.8z"/>
							<path fill="#202020" d="M22,61.6L22,61.6c-0.1-0.1-0.2-0.1-0.2-0.1L22,61.6z"/>
							<path fill="#202020" d="M19.3,57.9c0,0.1,0.3,0,0.4,0c-0.1,0-0.2,0-0.3-0.1C19.4,57.8,19.3,57.8,19.3,57.9z"/>
							<path fill="#202020" d="M17.1,51L17,50.9C17.1,50.9,17.1,51,17.1,51z"/>
							<path fill="#202020" d="M24.3,64c0,0,0,0.1,0,0.1C24.3,64.1,24.3,64.1,24.3,64z"/>
							<path fill="#202020" d="M18.6,40.7C18.6,40.7,18.6,40.7,18.6,40.7C18.6,40.7,18.6,40.7,18.6,40.7z"/>
							<path fill="#202020" d="M16.7,45.6L16.7,45.6c-0.1-0.1-0.1-0.1-0.2-0.1L16.7,45.6z"/>
							<path fill="#202020" d="M45.8,70.4C45.8,70.4,45.7,70.4,45.8,70.4C45.6,70.4,45.7,70.4,45.8,70.4z"/>
							<path fill="#202020" d="M65.3,40.3c-0.1,0.5-0.5-0.6-0.6,0.1C64.8,40.2,65.2,40.8,65.3,40.3z"/>
							<path fill="#202020" d="M18,49.9c0,0.1,0,0.1,0,0.2C18,50,18,50,18,49.9z"/>
							<path fill="#202020" d="M64.7,40.3L64.7,40.3L64.7,40.3C64.7,40.4,64.7,40.4,64.7,40.3z"/>
							<path fill="#202020" d="M54.9,66.4c0,0-0.1,0-0.2,0C54.7,66.3,54.8,66.4,54.9,66.4z"/>
							<path fill="#202020" d="M48.1,69.2l0.2,0C48.2,69.2,48.1,69.2,48.1,69.2z"/>
							<path fill="#202020" d="M57.6,63.6c0.1-0.1,0.1,0,0.2-0.2c0,0,0,0-0.1,0C57.8,63.5,57.7,63.6,57.6,63.6z"/>
							<path fill="#202020" d="M60.3,60.7C60.2,60.7,60.2,60.7,60.3,60.7c-0.1,0.1-0.1,0.1-0.2,0.1L60.3,60.7z"/>
							<path fill="#202020" d="M23.3,30.9c-0.1,0-0.2,0-0.3,0C23.2,30.9,22.9,31.3,23.3,30.9z"/>
							<path fill="#202020" d="M17.9,49.8c0.1,0,0.1,0,0.1,0.1l0-0.1C17.9,49.8,17.9,49.8,17.9,49.8z"/>
							<path fill="#202020" d="M56.2,61.9l0.5-0.4C56.5,61.7,56.4,61.8,56.2,61.9z"/>
							<path fill="#202020" d="M47,24h-0.1C46.9,24,47,24,47,24z"/>
							<path fill="#202020" d="M57.8,60.3c0.1,0,0.3-0.1,0.4-0.1c0,0,0-0.1,0-0.1L57.8,60.3z"/>
							<path fill="#202020" d="M23,31L23,31L23,31z"/>
							<path fill="#202020" d="M21.4,34.3c0.3-0.5-0.2-0.4-0.3-0.6c0.3-0.6,0.4-0.1,0.7-0.2c0.1-0.4,0-0.9,0.2-1.1
								c0.1,0,0.1,0,0.1,0.1c0-0.5,0.8-1,0.8-1.7c0.1,0,0.1,0,0.1,0c-0.2-0.1-0.4-0.2-0.4-0.3c0.2-0.2,0.1-0.5,0.4-0.4
								c-0.1,0.1,0,0.2,0,0.3l0.1-0.3c0.4,0-0.2,0.3,0,0.5c0.3-0.4,0.5-1.1,0.8-1.3c0.3,0.2-0.5,0.8,0,0.6l-0.5,0.4
								c0.7,0-0.3,0.2,0.4,0.3c0.6-0.5,0.4-0.8,1.1-1.3c0-0.3-0.2-0.2-0.2-0.4c0.6-1,1.2,0,1.5-0.9c0-0.3-0.2-0.7,0.4-0.9l0.1,0.4
								c0.6-0.4,0-0.7,0.8-1c0,0.2-0.4,0.5-0.3,0.4c0.6-0.1,0.2-0.4,0.5-0.6l0.3,0.2c0.7-0.4,1.3-1.2,2.1-1.6c0,0.1-0.1,0.3,0.1,0.3
								c0.5-0.3,1-0.6,1.6-0.8c0.6-0.2,1.2-0.3,1.7-0.4l0.3-0.4c0.1,0,0.2,0.1,0.1,0.2c0.4,0,0-0.2,0.1-0.3c0.2-0.1,0.4,0.1,0.2,0.2
								c0.6-0.4,2-1.1,2.8-0.8L37.1,23c0.6,0,0.6-0.7,1.2-0.5l-0.1,0.1c1.4,0,2.9-0.3,3.9,0.2c0.2-0.4,1.3,0.3,1.5-0.3
								c0.7,0.4,0.5,0.5,1.5,0.8c0.3,0.1,0.5-0.3,0.9-0.2l-0.1,0.3l0.5-0.2l0.2,0.4l0.3,0c-0.1-0.1-0.2-0.2-0.2-0.3
								c0.3,0,0.6,0.1,0.8,0.3c0.2,0.2,0.4,0.4,0.3,0.4l1.2,0.2c-0.1,0.1-0.3,0.1-0.5,0.1c0.7-0.1,0,0.3,0.7,0.3
								c0-0.1,0.1-0.2,0.1-0.2c0.2,0.3,0.8,0.6,1.3,0.7l-0.2,0.1c0.8,0.4,1.7,0.8,2.6,1.4c-0.3-0.3,0-0.5,0.3-0.4l-0.1,0.3
								c0.3-0.1-0.2-0.3,0.3-0.3c0.3,0.3,0,0.5-0.2,0.4l0.4,0.2c0,0.1-0.2,0.1-0.2,0.2c0.3,0,0.4,0.7,0.9,0.6l0,0.1
								c0.8,0.6,1.2,0.9,1.8,1.4c0.2-0.2,0.4,0.1,0.7,0.1c0.4,0.5,0.7,1.2,1.2,1.7c0.4,0.3,0.3,0,0.6,0c-0.2,0.2,0.3,0.8-0.1,0.6
								c0.3,0.3,0.5,0.6,0.7,0.8c0.2,0.2,0.5,0.5,0.8,0.9c0-0.2,0-0.3,0.1-0.3c0.1,0.2,0.2,0.5,0,0.5l-0.1,0
								c0.5,0.4,0.7,1.2,0.9,1.9c0.1,0.7,0.3,1.3,0.7,1.7l0,0l0.6,0.9c0.1,0.5-0.3-0.2-0.3,0.2c0.2,0.2,0.3,0.4,0.4,0.7
								c0.1,0.2,0.1,0.4,0.2,0.6c0.1,0.4,0.1,0.8,0.4,1.2c-0.2,0.4-0.2,1,0,1.7c0.1,0.3,0.2,0.7,0.2,1c0,0.3,0,0.6-0.1,0.9l0.2-0.1
								c0.2,0.2-0.1,0.3-0.1,0.5c0.1,0,0.1-0.3,0.2-0.1c0.2,1.1,0,2.2-0.1,3.2c-0.1,0.5-0.3,1.1-0.4,1.6l-0.2,0.8l-0.3,0.8
								c-0.2,0.7,0.8,0.7,0.1,1.5L62.3,52c0,0.8-0.4,1.6-0.6,2.3c-0.4,0.7-0.7,1.4-0.9,2.2c0-0.1-0.1-0.2,0-0.3
								c-0.4,0.2-0.6,1-0.5,1.1c-0.1,0.2-0.2,0-0.3,0c-0.3,0.2-0.2,0.9-0.5,0.9c-0.1,0,0-0.1,0-0.2c0,0.2-0.6,0.8-0.3,0.8
								c-0.5,0.4-0.6,1-1,1.2c0,0.4-0.8,0.6-0.5,1c-0.3-0.3-0.9,0.5-1.1,0.9c0-0.2-0.3,0.1-0.4-0.1c-0.3,0.3-0.5,0.6-0.3,0.7
								c-0.9,0.1-1,1.3-1.7,1.1c-0.2,0.2-0.4,0.5-0.6,0.7c-0.2,0.2-0.5,0.4-0.7,0.6c-0.5,0.4-0.9,0.8-1.4,1.1
								c-0.2-0.4,1.1-0.7,0.8-1c-0.4,0.4-0.7,0.7-1.1,1c-0.3,0.3-0.7,0.5-1.2,0.7c-0.3,0.1,0.1-0.2,0.1-0.4c-0.4,0.3-1,0.5-1.4,0.7
								c-0.5,0.2-0.9,0.4-1.4,0.6c0,0,0.1-0.1,0.2-0.2c-0.2,0.1-0.4,0-0.4,0.2l0.2-0.1c0.4,0.2-0.6,0.8-0.6,0.9
								c0.2-0.6-1,0.1-0.6-0.7c-0.1,0.1-0.2,0.2-0.2,0.3c-0.2,0-0.3-0.1-0.1-0.3c-0.6,0.3-0.4,0.4-1,0.5c0-0.1,0.1-0.2,0.1-0.3
								c-0.3,0.2-0.6,0.5-1.1,0.5c0-0.1,0-0.1,0.1-0.2c-0.9,0.2-1.5,0.7-2.5,0.5c0.3-0.4-0.3-0.1-0.4-0.5c0,0-0.1,0-0.3,0.1
								c-0.1,0-0.3,0-0.3,0l0.2,0.2c-0.5,0-0.9,0.2-1.3,0.1l0.4-0.1l-0.9,0l0.5,0.2c-0.5,0.2,0,0.5-0.6,0.4c0.1,0-0.5-0.3-0.7-0.3h0
								c-0.2,0-0.5,0.1-0.8,0c-0.1-0.1,0.1-0.4,0.1-0.5c-0.3,0.3-1.1-0.1-1.5,0.2c0.1-0.1,0.2-0.2,0.1-0.3l-0.2,0.2
								c-0.2-0.1-0.2-0.2-0.1-0.3c-0.6-0.2,0.1,0.5-0.6,0.1c0.1,0,0,0,0.2-0.1c-0.7-0.3-1.5-0.2-2.2-0.6c-0.1-0.4,0.6,0.1,0.5-0.3
								c-0.5-0.1-1-0.2-1.6-0.3c-0.5-0.1-1-0.3-1.5-0.5l0.2,0.1c-0.4,0.4-0.6-0.5-1.1-0.6c0.1,0,0.3-0.2,0.2-0.1
								c-0.5-0.4-1.3-0.6-2.2-1l0.2,0c-0.3-0.3-0.8-0.7-1.1-1c-0.2,0-0.4-0.1-0.4,0.1c-0.3-0.7-0.8-1.1-1.4-1.4
								c-0.6-0.3-1.1-0.7-1.2-1.3c0.1,0.1,0.3,0.2,0.2,0.1L23,60.7c-0.1,0.2,0,0.2,0,0.5c-0.2,0-0.5-0.2-0.6-0.3
								c0.4,0.2,0.3-0.2,0.3-0.5c0,0.1-0.1,0.1-0.2,0.1c0-0.7-0.4,0.2-0.6-0.5l0.1,0c-0.2-0.2-0.5-0.3-0.6-0.6
								c0.1-0.3,0.3,0.2,0.5,0.1c-0.3-0.3-0.9-0.4-0.9-0.8c0.2,0.1,0.3,0.3,0.5,0.4c0-0.5-0.1-0.5-0.2-0.8l0,0l-0.2-0.7l0,0.2
								c-0.8-0.1-0.7-0.8-1.4-1.2c0.7,0.4,0.3,0,0.6-0.1c0-0.2,0-0.5,0.1-0.5c-0.4-0.2-0.1-0.6-0.6-0.8c0.1-0.1-0.1-0.3,0.1-0.3
								c-0.3-0.3-0.1,0.2-0.2,0.2c-0.6-0.5-0.2-1.6-0.9-2.3c-0.4-0.7-0.7-0.8-1.1-1.5c0.1-0.3,0.4,0.1,0.4,0.1
								c0-0.4-0.1-0.7-0.3-1.1c0.1,0.1,0.2,0,0.2-0.2c-0.1-0.3-0.4-0.1-0.3-0.6c0.1,0.1,0.3,0.1,0.4,0.2c-0.1-0.3-0.4-0.7-0.5-1
								c0.2-0.1,0.3,0.2,0.4,0.3c-0.1-0.4-0.3-1.1-0.6-1.2L17.1,48c0-0.2,0.2-0.1,0.3,0c0.3,0.3,0,0.5-0.1,0.6l-0.1-0.3
								c-0.5,0.4,0.3,1.1,0.3,1.6l-0.4-0.2l0.4,0.5c-0.1,0.1-0.3,0.3-0.4,0c-0.1,0.4,0.2,0.3,0.1,0.7c0,0,0,0-0.1,0l0.2,0.4
								c-0.1-0.1-0.3,0.1-0.3-0.1c-0.1,0.8,0.6,1,0.4,1.4l0-0.1c0.4,0.9,0.3,0,0.9,0.6l-0.5,0.7l0.3,0c0,0.1,0.1,0.3-0.1,0.3
								c0.3,0.3,0.1-0.1,0.4,0c0,0.3,0.1,0.6,0.2,0.8c0.1,0.3,0.2,0.5,0,0.6c0.3,0.1,0-0.5,0.3-0.1c-0.4,0.4,0.3,0.5,0.3,1
								c-0.3,0-0.4-0.5-0.4,0.1c0.5,0,0.3,0.8,0.6,1.1c0.3-0.2,0.6,0.6,1,1.1c-0.2,0.1,0.5,1.1,0.8,1.6l-0.1,0
								c0.4-0.1,0.6,0.4,1,0.7c-0.2,0.1-0.3,0.1-0.5,0c0,0,0.3,0.3,0.3,0.3c0.2,0,0.3,0.1,0.5,0.2l-0.3,0.1c0.4,0.4,1,0.6,1.4,1.3
								c0.2-0.2,0.1-0.9,0.7-0.5c-0.1,0.1-0.2,0.3-0.4,0.2c0.1,0,0.2,0.1,0.3,0.2l-0.4,0c0.2,0.3,0.3,0,0.4,0.2
								c-0.1,0.1,0,0.2-0.1,0.3c-0.1,0-0.1-0.2-0.2-0.2c0.2,0.2,0.4,0.6,0.4,0.7c0.1-0.1,0.2-0.2,0.4-0.1c0.4,0.4,0,0.3,0.2,0.6
								c0.2,0,0.4,0.3,0.6,0.1c0.1,0.1,0.1,0.2,0.1,0.3c0.3,0.1,1.1,0.8,1,0.3l0-0.1c0,0,0,0,0,0l0,0l0,0c0.9,0.4,1.6,1.2,2.4,1.6
								l0,0.1c0.5,0.2,1.2,0.5,1.6,0.5c0.1,0.1,0.3,0.3,0.2,0.4c0.4,0.1,0.5,0.1,1,0.4c-0.5,0,0.1,0.2-0.5,0
								c0.5,0.3,0.6,0.5,1.2,0.4c-0.3,0.2,0.3,0.4,0.6,0.5l-0.3-0.3c0.3,0.1,0.5,0.2,0.8,0.3l-0.2,0.3c0.5,0.4,1.1,0.3,1.6,0.3
								c0.5,0,1,0,1.3,0.4c0.3-0.2-0.6-0.3-0.3-0.5c0.5,0.1,1,0.7,1.1,0.7c0.7,0.3,0.7-0.4,1.5-0.2c-0.1-0.1-0.1-0.4,0.4-0.5
								c0.5,0.1,0.6,0.5,0.3,0.6c-0.1,0-0.2,0-0.2-0.1c-0.2,0-0.4,0.1-0.2,0.2l0.1-0.1c0.3,0.1,1,0.2,0.8,0.3
								c0.4-0.1,0.2-0.2-0.1-0.3c0.7,0.2,1.1,0.1,1.8,0.2c-0.1-0.1-0.2-0.2-0.1-0.2c1,0.1,0.4-0.2,1.1-0.3c0.4,0.2-0.1,0.4,0.6,0.2
								c0.4,0.1,0.1,0.3,0,0.4c0.6-0.2,1.2,0,1.6,0l-0.3,0.1c0.2-0.1,0.4-0.1,0.5-0.1l-0.2-0.2c0.2,0,0.4,0,0.4,0.1
								c0.2-0.2-0.2-0.4,0.1-0.6c0.3,0.1,0.8-0.2,0.9,0c-0.8,0,0.2,0.3-0.5,0.5c0.1-0.1,0.3-0.1,0.5-0.1c0,0,0,0.1-0.1,0.1
								c0.8,0.1,0.3-0.4,1.1-0.6C46.8,70,47.1,70,47.2,70c-0.3,0.1-0.2-0.2,0-0.5c0.6,0,0.5-0.2,0.8-0.3l-0.3,0
								c0.1-0.2,0.3-0.2,0.6-0.4c0.1,0.1-0.3,0.2-0.1,0.2c0.3-0.4,1,0,1.4-0.4c0.3,0,0.1,0.3,0.4,0.3c0.5-0.4,0.7-0.1,1.3-0.5
								c-0.3-0.1-0.3-0.1,0-0.5l-0.9,0.6l0.5-0.6c-0.3,0.1-0.6,0.5-0.8,0.5c0.2-0.3,0.2-0.2,0-0.4c0.5,0.1,0.7-0.6,1.3-0.6l0.2,0.5
								c0.4-0.1,0.7-0.3,1-0.5c0.3-0.3,0.6-0.6,1.1-0.8l-0.3,0.1c0-0.3,0.5-0.4,0.8-0.6c0.1,0.2,0.3,0.1,0.5,0.2
								c-0.1-0.1,0.6-0.4,0.5-0.8l0.5-0.1c0.7-0.4,0.4-1,1-1.5c0,0.3,0.3,0.2,0,0.7c0.2-0.2,0.4-0.3,0.3-0.4c0.2,0,0.4-0.7,0.7-0.7
								c0-0.1-0.1-0.3,0.1-0.5c0.1,0,0.1,0.1,0.1,0.1c-0.1-0.1,0.2-0.4-0.1-0.4c1-0.2,1.5-1.7,2.3-1.9c0.3-0.5,0.7-1.1,1-1.5
								c0,0.1,0.1,0.1,0,0.1c0.5-0.5-0.2-0.7,0.4-1.3c0.5-0.2-0.1,0.5,0.2,0.3c0.6,0.2,0.5-0.9,1-1.2l0,0.1c0.4-0.3,0.2-1.1,0.6-1.7
								c0,0,0,0.1,0.1,0c-0.1-0.6,0.1-1.4,0.3-2.1c0.2,0.3,0,0.3,0.3,0.3c0.1-0.3-0.4-0.1-0.3-0.6c0.2-0.1,0.5-0.5,0.7-0.5
								c0,0-0.2,0.5-0.2,0.5c0.4-0.2,0.2-0.7,0.3-1l0.1,0.1c0.2-0.9-0.2-1,0-1.8l-0.1,0.1c-0.3-0.6,0.3-0.4,0.1-0.9l0.4-0.1
								c0-0.4-0.2-1.2-0.2-1.8c0.3,0.4,0.3,1.1,0.4,1.5c0.1-0.3,0.1-1.1,0-1.3c0,0.1,0.1,0.3,0,0.4c-0.2-0.4-0.4-1-0.3-1.6
								c0.8,0.2,0.3-1.7,0.8-2.2c-0.2-0.6-0.2-1.2-0.2-1.8c0-0.6,0-1.3-0.2-1.9c-0.5,0.6-0.1-0.4-0.7-0.2c-0.1-0.3-0.1-0.4-0.1-0.5
								l0.1-1c0.1-0.3,0.2,0.3,0.3,0.2c-0.1-0.7,0.2-0.4,0.2-0.9c-0.2,0.2-0.4-0.2-0.4-0.6l-0.1,0.6c-0.5-0.9,0.2-1-0.4-1.8l0.3,0.2
								c-0.3-0.4-0.6-1.8-1.3-2c0-0.1,0.1-0.3,0.3-0.1c-0.2-0.6-0.6-1.1-1-1.6c-0.4-0.5-0.8-1-0.9-1.5l0.2,0
								c-0.2-0.2-0.4-0.2-0.5-0.5c0.1,0,0.2,0,0.1-0.1c-0.1-0.1-0.6-0.3-0.7-0.6l0.3,0.1c-0.3-0.5-0.6-0.8-1-1.1
								c-0.4-0.2-0.8-0.4-1.2-0.7c0.3-0.3-0.2-1.1-0.5-1.5l0.1,0c-0.5-0.5-1-0.8-1.5-1.1c-0.5-0.3-1.1-0.5-1.6-0.8
								c-0.2-0.4-0.7-0.9-1.3-1.3c-0.6-0.4-1.3-0.8-1.8-1.2c0.1,0.2-0.2,0.3-0.4,0.2c-0.2-0.2-0.9-0.1-0.7-0.4l0.1,0.1
								c0-0.4-0.6-0.7-1.1-0.8l-0.3,0.5c-0.5-0.6-1.3-0.8-2-0.9c-0.8-0.1-1.4-0.2-1.7-0.6c-0.3,0-0.7,0-1,0.1l0.1-0.3
								c-0.8-0.2-1.2-0.3-2.3-0.4l0.2-0.2c-0.6,0-0.8,0.8-1.3,0.8l-0.1-0.4c-1-0.1-2.1-0.3-3.1,0.1c0-0.1,0-0.2,0.2-0.2
								c-0.5,0-1.9-0.1-1.6,0.5c-0.1-0.4-1.1,0.1-1.6,0.4l0-0.3c-0.4,0.5-0.4,0.6-1,0.8c-0.2,0-0.2-0.2,0-0.2
								c-0.5,0-0.3,0.4-0.9,0.4l0.2-0.2c-0.5,0.1-0.5,0.2-0.7,0.5c-0.3,0.2-0.9,0.3-1.1,0.1c0,0.2-0.2,0.5-0.5,0.5
								c-0.1-0.1,0-0.2,0.1-0.2c-0.9,0.1-1.1,0.8-1.7,0.8c-0.1-0.1-0.1-0.1-0.2-0.1c0.6-0.3,1.1-0.5,1.1-0.5c-0.1-0.2-0.6,0-0.4-0.5
								c-0.3,0.4-0.9,1.1-1.4,1.2c0,0-0.1,0-0.1,0l0-0.1c-0.1,0-0.2,0.1-0.3,0.2c-0.2,0.1-0.3,0.1-0.4,0.2c-0.2-0.1-0.6,0.2-0.9,0.4
								c0.2,0.2-0.2,0.4,0.2,0.4c0,0,0-0.1,0.2-0.2c0,0,0.1-0.1,0.1-0.1l0,0c0.2-0.1,0.4-0.2,0.6-0.4c-0.1,0.2-0.3,0.5-0.6,0.5
								c0,0.2-0.1,0.5-0.1,0.6c-0.5-0.1-1.3,0.1-1.5,0c-0.6,0.7-1.6,1.3-1.6,2.1c-0.1,0.2-0.3,0.1-0.4,0.1c0.1-0.1,0.2-0.2,0.2-0.3
								c-0.3,0.4-1,1-0.9,1.3c-0.6,0.3,0-0.5-0.5,0.1l0-0.2c-0.8,0.4-1.1,1.1-1.4,1.7c-0.3,0.7-0.5,1.4-1.4,1.9
								c0.1-0.1,0.2-0.1,0.2-0.1c-1.4,1.6-2,3.8-3.1,5.5c-0.3,0.5-0.1,0.7-0.1,1l-0.3,0c0,0,0,0.2,0.1,0.3c0,0.2,0.1,0.3,0.1,0.3
								c0,0.4-0.3,0.8-0.5,1.1c-0.3,0.4-0.5,0.8-0.3,1.3l0.2-0.1c-0.1,0.4-0.1,1.2-0.3,1.1c0,0,0.2,0.2,0.1,0.3l-0.2,0
								c0,0,0,0.2,0.1,0.5c0.1,0.2,0.1,0.5,0.1,0.5c-0.2,0.7-0.6-0.2-0.7,0.9c0,0.4,0.4,1.2,0.5,1c0-0.2,0.1-0.4,0.3-0.4l0.1,0.4
								c0.5,0.1,0.9,0.3,1.3-0.5l-0.3-0.6l0.2-0.2l0,0.5c0.2-0.3,0-0.5-0.1-0.7c0.1,0,0.2-0.1,0.3-0.2l-0.4-0.6
								c0.2-0.1,0.3,0.3,0.5-0.1c-0.2-0.3-0.4,0.2-0.5-0.2c0.3-0.3,0.4-0.2,0.3-0.5c0.1,0,0.2,0.1,0.2,0.2c-0.1-0.3,0.1-0.8-0.2-1
								c0.3-0.2,0.1-1,0.5-0.9c-0.1-0.1-0.2-0.6-0.2-0.8c0.4,0.6,0.3-1,0.8-0.7c-0.4-0.5,0.2-1.3,0.2-2c0,0,0.1,0.1,0,0.2
								c0.2-0.3,0.3-0.4,0.5-0.6c-0.3-0.2-0.2-0.7-0.3-1.1c0.5-0.2,0.3,0.4,0.7,0.5c-0.3-0.1,0.1-0.8-0.3-0.8
								c0.4-0.2,0.2-0.2,0.6-0.2c-0.4-0.3,0.1-0.3-0.1-0.7c0.5-0.3,0.5,0.1,0.6-0.4C21.5,33.8,21.4,34.3,21.4,34.3z M30.1,25
								L30.1,25c-0.1,0.1-0.2,0.1-0.2,0.1C29.9,25.1,29.9,25,30.1,25z M31.1,24.5c-0.1,0-0.3,0.1-0.4,0.2c-0.1-0.1-0.1-0.2,0-0.2
								C30.6,24.5,30.9,24.5,31.1,24.5z M28,23.9c0.1-0.1,0.2-0.1,0.3-0.1c-0.1,0.1-0.2,0.1-0.3,0.2c0,0,0,0,0,0
								C28,24,28,23.9,28,23.9z"/>
							<path fill="#202020" d="M27.9,24.4C27.9,24.4,27.9,24.4,27.9,24.4C27.9,24.4,27.9,24.4,27.9,24.4L27.9,24.4L27.9,24.4z"/>
							<path fill="#202020" d="M26.5,65.3L26.5,65.3C26.5,65.3,26.5,65.3,26.5,65.3C26.5,65.3,26.5,65.3,26.5,65.3z"/>
							<polygon fill="#202020" points="45.8,23.5 45.8,23.4 45.7,23.4 							"/>
							<path fill="#202020" d="M22.6,60.4c0,0,0-0.1,0-0.1C22.6,60.3,22.6,60.3,22.6,60.4z"/>
							<path fill="#202020" d="M21.1,58.2L21,57.8C21,58,21,58.1,21.1,58.2z"/>
							<path fill="#202020" d="M20.2,56.4c-0.1,0-0.1,0-0.1,0l0,0L20.2,56.4z"/>
							<path fill="#202020" d="M47.4,67.5C47.4,67.5,47.4,67.4,47.4,67.5C47.6,67.3,47.5,67.4,47.4,67.5z"/>
							<path fill="#202020" d="M38,68.9c0.1,0,0.2-0.1,0.3-0.1C38.2,68.8,38,68.8,38,68.9z"/>
							<polygon fill="#202020" points="56.2,62 56.2,62 56.2,61.9 							"/>
							<path fill="#202020" d="M38.8,68.9c-0.2-0.1-0.3-0.1-0.4,0C38.5,68.9,38.6,68.9,38.8,68.9z"/>
							<path fill="#202020" d="M17.8,48L17.8,48c0-0.1,0-0.1,0-0.1L17.8,48z"/>
							<path fill="#202020" d="M17.7,47.9l0-0.1C17.7,47.9,17.7,47.9,17.7,47.9z"/>
							<path fill="#202020" d="M17.6,47.6l0.1,0.2C17.7,47.7,17.7,47.6,17.6,47.6z"/>
							<path fill="#202020" d="M18.1,50.7l0.1,0C18.2,50.7,18.1,50.7,18.1,50.7z"/>
							<path fill="#202020" d="M18.3,51.5c0-0.2,0.1-0.5,0-0.8l-0.1,0C18.4,50.8,18.1,51.3,18.3,51.5z"/>
							<path fill="#202020" d="M18.2,55.2c0,0-0.2-0.7-0.2-0.7c-0.1,0.2-0.1,0.4-0.3,0.1C17.8,55.5,17.9,54.3,18.2,55.2z"/>
							<path fill="#202020" d="M19.1,57.2c-0.2-0.3-0.1,0.1-0.2,0.1C19.1,57.5,19.1,57.5,19.1,57.2z"/>
							<path fill="#202020" d="M30.7,68l-0.1,0.2C30.8,68.3,30.6,68.1,30.7,68z"/>
							<path fill="#202020" d="M34,67.9c0,0-0.2-0.2-0.2-0.2l-0.2,0.2C33.6,67.8,34,67.9,34,67.9z"/>
							<polygon fill="#202020" points="35.2,70 35.1,70.1 35.6,70.1 							"/>
							<path fill="#202020" d="M60,61.4l-0.3-0.1C59.6,61.5,59.9,61.8,60,61.4z"/>
							<path fill="#202020" d="M64.9,50.7c0.2-0.1,0.3-0.4,0.2-0.6C65,50.4,64.9,50.6,64.9,50.7z"/>
							<polygon fill="#202020" points="49.4,22 49.7,21.9 49.2,21.9 							"/>
						</g>
					</g>
				</g>
			</g>
		</g>
		<g>
			<g>
				<g>
					<g>
						<g>
							<path fill="#202020" d="M33.1,45.6c-0.1,0-0.3,0-0.2,0.1l0.3,0L33.1,45.6z"/>
							<path fill="#202020" d="M32.6,46.1c0.2,0.1,0.4,0.2,0.7,0.1c-0.3-0.1-0.2-0.1-0.6-0.2c0-0.1,0.1-0.1,0.2-0.1
								c-0.1,0,0.1-0.1-0.1-0.1c-0.2,0.1-0.3,0.2,0,0.3C32.7,46.1,32.6,46.1,32.6,46.1z"/>
							<path fill="#202020" d="M35.7,52.7L35.7,52.7C35.7,52.6,35.7,52.6,35.7,52.7z"/>
							<path fill="#202020" d="M40.1,54.4C40.1,54.4,40.1,54.5,40.1,54.4C40.1,54.5,40.1,54.4,40.1,54.4z"/>
							<path fill="#202020" d="M41,54.8C41,54.8,40.9,54.8,41,54.8C40.9,54.8,41,54.8,41,54.8z"/>
							<path fill="#202020" d="M35.7,52.7l0,0.2C35.8,52.7,35.7,52.7,35.7,52.7z"/>
							<path fill="#202020" d="M33.5,46.9C33.4,46.9,33.4,46.9,33.5,46.9C33.4,46.9,33.4,46.9,33.5,46.9L33.5,46.9z"/>
							<path fill="#202020" d="M33.9,51.4L33.9,51.4c-0.1,0-0.1,0-0.2,0L33.9,51.4z"/>
							<path fill="#202020" d="M32.9,50.1c0,0,0.3-0.1,0.4-0.1c-0.1,0-0.2,0-0.2,0C33,50,33,50,32.9,50.1z"/>
							<path fill="#202020" d="M32.4,47.5L32.4,47.5C32.4,47.5,32.4,47.5,32.4,47.5z"/>
							<path fill="#202020" d="M34.7,52.3C34.7,52.3,34.7,52.4,34.7,52.3C34.7,52.4,34.7,52.3,34.7,52.3z"/>
							<path fill="#202020" d="M34,44.1C33.9,44.1,33.9,44.1,34,44.1C33.9,44.1,34,44.1,34,44.1z"/>
							<polygon fill="#202020" points="32.4,45.6 32.4,45.5 32.2,45.5 							"/>
							<path fill="#202020" d="M42.6,55L42.6,55C42.6,55,42.6,55,42.6,55z"/>
							<path fill="#202020" d="M49.9,43.6c-0.2,0.2-0.4-0.2-0.6,0.1C49.4,43.6,49.8,43.8,49.9,43.6z"/>
							<path fill="#202020" d="M33.4,47C33.4,47,33.4,47,33.4,47C33.4,47,33.4,47,33.4,47z"/>
							<path fill="#202020" d="M49.3,43.7L49.3,43.7L49.3,43.7C49.3,43.7,49.3,43.7,49.3,43.7z"/>
							<path fill="#202020" d="M46,53.4C46,53.3,46,53.3,46,53.4C45.9,53.3,46,53.3,46,53.4z"/>
							<path fill="#202020" d="M43.4,54.2L43.4,54.2C43.4,54.2,43.4,54.2,43.4,54.2z"/>
							<path fill="#202020" d="M46.9,52.2C46.9,52.2,47,52.2,46.9,52.2C47,52.1,46.9,52.1,46.9,52.2C47,52.1,46.9,52.2,46.9,52.2z"
								/>
							<path fill="#202020" d="M47.9,51.1C47.8,51.1,47.8,51.1,47.9,51.1L47.9,51.1L47.9,51.1z"/>
							<path fill="#202020" d="M35.3,41c-0.1,0-0.2-0.1-0.2-0.1C35.3,41,35.2,41.2,35.3,41z"/>
							<path fill="#202020" d="M33.3,47c0.1,0,0.1,0,0.1,0c0,0,0,0,0,0C33.4,46.9,33.3,46.9,33.3,47z"/>
							<path fill="#202020" d="M45.4,50.5l0.2-0.1C45.5,50.5,45.5,50.5,45.4,50.5z"/>
							<path fill="#202020" d="M42.7,38.8L42.7,38.8C42.6,38.8,42.7,38.8,42.7,38.8z"/>
							<path fill="#202020" d="M45.9,50c0.1,0,0.2,0.1,0.2,0.1c0,0,0,0,0-0.1L45.9,50z"/>
							<path fill="#202020" d="M35.1,40.9L35.1,40.9L35.1,40.9z"/>
							<path fill="#202020" d="M35,42.2c0.1-0.1-0.3-0.3-0.4-0.4c0-0.2,0.3,0.1,0.5,0.1c0-0.2-0.2-0.4-0.2-0.5c0.1,0,0.1,0,0.1,0.1
								c-0.2-0.3,0.2-0.3,0-0.7c0,0,0.1,0,0.1,0c-0.2-0.1-0.3-0.2-0.4-0.3c0.1-0.1-0.1-0.3,0.1-0.1c0,0,0,0.1,0.1,0.2l0-0.1
								c0.3,0.2,0,0.2,0.2,0.3c0-0.2-0.1-0.5,0.1-0.6c0.3,0.2-0.1,0.3,0.2,0.4l-0.2,0.1c0.5,0.2-0.1,0.1,0.4,0.3
								c0.2-0.1,0-0.3,0.3-0.4c-0.1-0.2-0.2-0.2-0.3-0.4c0-0.5,0.8,0.4,0.7-0.1c-0.1-0.2-0.3-0.6,0-0.5l0.2,0.3
								c0.2-0.1-0.2-0.5,0.1-0.5c0,0.2-0.1,0.2,0,0.2c0.3,0.1,0-0.2,0.1-0.3l0.2,0.3c0.2-0.2,0.3-0.5,0.5-0.7c0,0.1,0,0.2,0.1,0.3
								c0.1-0.2,0.3-0.2,0.5-0.3c0.2,0,0.4,0,0.6,0.1l0-0.3c0,0,0.1,0.1,0.1,0.2c0.2,0.1,0-0.2,0-0.3c0.1,0,0.1,0.1,0.1,0.2
								c0.1-0.3,0.5-0.7,0.8-0.4l0,0.1c0.2,0.1,0.1-0.6,0.4-0.4l0,0.1c0.4,0.1,0.9-0.2,1.2,0.3c0.1-0.4,0.4,0.2,0.5-0.4
								c0.2,0.3,0.1,0.4,0.4,0.7c0.1,0,0.2-0.3,0.3-0.4l-0.1,0.3l0.2-0.3l0,0.4l0.1-0.1c0,0,0-0.2,0-0.2c0.2-0.1,0.3,0.3,0.3,0.5
								l0.4-0.1c-0.1,0.1-0.1,0.1-0.2,0.2c0.3-0.2-0.1,0.3,0.2,0.1c0-0.1,0.1-0.2,0.1-0.2c0,0.2,0.2,0.3,0.4,0.3l-0.1,0.2
								c0.2,0.2,0.6,0.2,0.8,0.4c0-0.1,0.2-0.4,0.3-0.4l-0.1,0.3c0.2-0.1,0-0.2,0.2-0.3c0.1,0.1-0.1,0.4-0.3,0.4l0.2,0
								c0,0.1-0.1,0.1-0.2,0.2c0.2-0.1,0,0.4,0.3,0.2l-0.1,0.1c0.2,0.2,0.4,0.2,0.6,0.4c0.2-0.2,0.2-0.1,0.4-0.2
								c0.1,0.2,0.1,0.5,0.2,0.7c0.2,0,0.2-0.1,0.4-0.2c-0.2,0.2,0,0.3-0.2,0.4c0.2,0.2,0.3,0.2,0.6,0.4c0.1-0.1,0.1,0,0.2-0.1
								c0.1,0,0,0.4-0.1,0.4h0c0.6,0-0.2,1,0.4,1.1l0-0.1l0.4,0.2c0,0.2-0.2,0-0.3,0.1c0.5,0.2,0.1,0.5,0.4,0.7
								c-0.7,0.4,0.2,0.8-0.3,1.1l0.2,0c0.2,0.1-0.1,0.1-0.1,0.2c0.1,0,0.2-0.1,0.3,0c0.3,0.7-0.3,1.4-0.6,1.9
								c-0.1,0.2,0.8,0.4,0.4,0.6l-0.3-0.2c0.1,0.3,0,0.5-0.1,0.8C47,48.5,46.9,48.7,47,49c-0.1-0.1-0.1-0.1-0.1-0.2
								c-0.3,0-0.2,0.3,0,0.4c-0.1,0.1-0.2-0.1-0.3-0.1c-0.2,0,0.1,0.4-0.1,0.3c0,0,0-0.1-0.1-0.1c0.1,0.1-0.2,0.2,0.1,0.3
								c-0.2,0.1-0.1,0.4-0.3,0.4c0.2,0.3-0.3,0.1,0,0.4c-0.3-0.3-0.5,0-0.4,0.2c-0.1-0.1-0.2,0-0.3-0.2c-0.1,0.1-0.1,0.2,0,0.4
								c-0.5-0.2-0.1,0.7-0.6,0.2c-0.2,0.4-0.4,0.8-0.7,1c-0.2-0.4,0.3-0.2,0.1-0.6c-0.2,0.3-0.2,0.7-0.6,0.8c-0.1,0,0-0.2,0-0.3
								c-0.2,0.3-0.6,0.2-0.8,0.5c0,0,0-0.1,0-0.1c-0.1,0-0.2,0-0.1,0.2l0-0.1c0.2,0.3-0.1,0.7,0,0.8c0-0.6-0.3-0.1-0.4-0.8
								c0,0-0.1,0.2,0,0.3c-0.1,0-0.1-0.1-0.1-0.3c-0.2,0.2-0.1,0.3-0.3,0.4c0-0.1,0-0.1,0-0.3c-0.1,0.2-0.1,0.4-0.3,0.4
								c0-0.1,0-0.1,0-0.1c-0.3,0.1-0.5,0.6-0.8,0.4c0.1-0.4-0.1-0.1-0.1-0.5l-0.2,0.1l0.1,0.2c-0.1,0-0.3,0.2-0.4,0.1l0.1-0.1
								l-0.3,0.1l0.2,0.1c-0.2,0.2,0,0.5-0.2,0.4c0,0-0.2,0-0.2-0.2l0,0c-0.1,0.1-0.2,0.2-0.3,0.1c0-0.1,0.1-0.4,0.1-0.5
								c-0.1,0.3-0.4,0-0.5,0.3c0-0.1,0.1-0.3,0.1-0.3L39,53.2c-0.1-0.1-0.1-0.1,0-0.3c-0.2-0.1,0,0.5-0.2,0.2c0,0,0-0.1,0.1-0.1
								c-0.2-0.2-0.5,0-0.7-0.2c0.1-0.4,0.2,0,0.2-0.3c-0.3,0-0.8,0.2-1.1-0.1l0,0.1c-0.3,0.5-0.1-0.3-0.4-0.2
								c0.1,0,0.2-0.2,0.1-0.2C37,52,36.7,52.1,36.3,52l0.1-0.1c0-0.2-0.2-0.3-0.3-0.4c-0.1,0.1-0.2,0-0.3,0.2
								c0.1-0.4-0.1-0.5-0.4-0.5c-0.2,0-0.5-0.1-0.4-0.5c0,0,0.2,0,0.1,0l-0.3-0.2c-0.2,0.2-0.1,0.1-0.2,0.3c-0.1,0.1-0.3,0.1-0.3,0
								c0.2,0,0.3-0.2,0.3-0.4c0,0.1-0.1,0.1-0.2,0.1c0.2-0.4-0.4,0.3-0.3-0.1l0.1-0.1c-0.1,0-0.3,0-0.3-0.1c0.2-0.2,0.2,0,0.3-0.1
								c-0.1-0.1-0.6,0.1-0.4-0.2c0.1,0,0,0.1,0.1,0.1c0.2-0.3-0.1-0.3-0.1-0.4v0l0.2-0.3l0,0.1c-0.7,0.2-0.3-0.2-0.8-0.2
								c0.5,0,0.3-0.1,0.5-0.2c0-0.1,0.1-0.2,0.2-0.2c-0.3,0,0.1-0.2-0.3-0.2c0.1,0,0-0.1,0.2-0.2c-0.1-0.1-0.1,0.1-0.3,0.1
								c-0.4-0.1,0.2-0.6-0.3-0.7c-0.3-0.2-0.6-0.2-0.8-0.4c0.1-0.1,0.4,0,0.4,0c0.1-0.2,0-0.3-0.1-0.4c0.1,0,0.2,0,0.3-0.1
								c0-0.1-0.4,0-0.2-0.2c0.1,0,0.3,0,0.4,0c-0.1-0.1-0.3-0.2-0.4-0.3c0.2-0.1,0.3,0,0.4,0.1c-0.1-0.1-0.2-0.3-0.5-0.4l-0.1,0.1
								c0-0.1,0.2,0,0.3,0c0.2,0.1-0.1,0.2-0.2,0.2l-0.1-0.1C32.3,46.7,33,46.9,33,47l-0.4,0l0.4,0.1c-0.1,0.1-0.3,0.1-0.4,0.1
								c-0.2,0.2,0.2,0.1,0,0.3c0,0-0.1,0-0.1,0l0.2,0.1c-0.1,0-0.3,0.1-0.2,0c-0.2,0.3,0.4,0.3,0.1,0.5l0,0
								c0.2,0.3,0.3-0.1,0.7,0.1l-0.6,0.4l0.3-0.1c0,0,0,0.1-0.1,0.1c0.2,0.1,0.1-0.1,0.3-0.1c-0.2,0.3,0.3,0.4-0.1,0.6
								c0.2,0,0.1-0.2,0.3-0.1c-0.4,0.3,0.2,0.1,0,0.4c-0.3,0.1-0.2-0.1-0.3,0.1c0.4-0.1,0,0.3,0.2,0.4c0.3-0.2,0.3,0.2,0.5,0.3
								c-0.1,0.1,0.1,0.5,0.1,0.7l-0.1,0c0.3-0.2,0.4,0,0.5,0.1c-0.2,0.1-0.3,0.2-0.4,0.2l0.1,0.1c0.1,0,0.2-0.1,0.3,0L34,51.5
								c0.2,0.1,0.5,0.1,0.6,0.4c0.2-0.2,0.4-0.6,0.7-0.6c-0.1,0.1-0.2,0.3-0.3,0.3c0,0,0.1,0,0.1,0l-0.2,0.1c0,0.2,0.2-0.1,0.2,0
								c-0.1,0.1,0,0.1-0.2,0.3c0,0,0-0.1-0.1-0.1c0.1,0.1,0.1,0.3,0,0.4c0.1-0.1,0.2-0.2,0.2-0.2c0.2,0.1-0.1,0.2-0.1,0.4
								c0.1-0.1,0.1,0.1,0.3-0.1c0,0,0,0.1-0.1,0.2c0.2,0,0.4,0.5,0.5,0.2l0,0.2c0,0,0,0,0,0l0-0.2l0-0.1c0.4,0,0.5,0.5,0.8,0.5
								l0,0.1c0.2,0,0.4,0.1,0.6,0c0.1,0,0,0.2,0,0.3c0.2,0,0.2-0.1,0.4,0.1c-0.2,0.1,0,0.2-0.2,0.1c0.2,0.1,0.1,0.3,0.4,0.1
								c-0.2,0.2,0,0.4,0.2,0.3L37.8,54c0.1,0,0.2,0.1,0.3,0.1l-0.1,0.3c0.3,0.5,0.9-0.5,1.1,0.3c0.2-0.2-0.2-0.2,0-0.4
								c0.2,0.1,0.3,0.6,0.4,0.6c0.2,0.2,0.3-0.4,0.6-0.3c0-0.1,0-0.4,0.2-0.5c0.2,0.1,0.2,0.5,0.1,0.6c0,0-0.1,0-0.1-0.1
								c-0.1,0-0.2,0.1-0.1,0.2l0-0.1c0.1,0.1,0.4,0.1,0.3,0.3c0.2-0.1,0.1-0.2,0-0.3c0.2,0.2,0.4,0,0.7,0.1c0-0.1-0.1-0.2,0-0.2
								c0.4,0.1,0.2-0.2,0.4-0.3c0.2,0.2,0,0.4,0.2,0.3c0.2,0.1,0.1,0.3,0,0.4c0.2-0.2,0.5,0.1,0.6,0.1L42,55.2
								c0.1-0.1,0.1-0.1,0.2-0.1l-0.1-0.2c0.1,0,0.1,0,0.2,0.1c0.1-0.2-0.1-0.4,0-0.6c0.1,0.1,0.3-0.2,0.4,0.1
								c-0.3,0,0.1,0.3-0.2,0.4c0,0,0.1-0.1,0.2,0c0,0,0,0.1,0,0.1c0.4,0.2,0.1-0.4,0.4-0.4c0,0.2,0.2,0.3,0.2,0.3
								c-0.1,0-0.1-0.3-0.1-0.4c0.2,0.1,0.2-0.2,0.3-0.2l-0.1,0c0-0.2,0.1-0.2,0.2-0.3c0.1,0.1-0.1,0.1,0,0.2c0-0.3,0.4,0.2,0.5-0.1
								c0.1,0.1,0.1,0.3,0.2,0.4c0.1-0.3,0.3,0.1,0.5-0.2c-0.2-0.2-0.2-0.1-0.1-0.4l-0.3,0.3l0.1-0.4c-0.1,0-0.2,0.3-0.3,0.2
								c0-0.2,0-0.2-0.1-0.3c0.3,0.3,0.2-0.3,0.5-0.2l0.3,0.5c0.4,0.1,0.3-0.5,0.7-0.6l-0.2,0c-0.1-0.2,0.2-0.1,0.2-0.3
								c0.1,0.2,0.2,0.2,0.3,0.3c-0.1-0.1,0.2-0.2,0-0.5l0.3,0.1c0.3-0.1-0.1-0.6,0.2-0.8c0.1,0.2,0.3,0.2,0.2,0.5
								c0.1-0.1,0.2-0.1,0.1-0.2c0.1,0.1,0-0.4,0.2-0.3c0-0.1-0.2-0.2-0.1-0.3c0,0,0.1,0.1,0.1,0.1c-0.1-0.1,0-0.2-0.2-0.3
								c0.6,0.2,0.5-0.6,1.1-0.5c0.1-0.2,0.2-0.4,0.3-0.6c0,0,0.1,0.1,0,0.1c0.3-0.1-0.4-0.4-0.1-0.6c0.3,0,0.1,0.2,0.2,0.2
								c0.6,0.3,0.1-0.3,0.5-0.3l0,0.1c0.3,0,0-0.5,0.1-0.7c0,0,0,0,0.1,0c-0.2-0.3-0.2-0.6-0.2-0.9c0.2,0.2,0.1,0.1,0.3,0.2
								c0-0.1-0.4-0.1-0.4-0.3c0.2,0,0.3-0.1,0.6-0.1c0,0-0.1,0.2-0.1,0.2c0.4,0,0.1-0.3,0.2-0.3l0.1,0.1c0-0.3-0.3-0.4-0.2-0.7
								l-0.1,0c-0.3-0.2,0.2-0.1,0-0.3l0.4,0c-0.1-0.1-0.3-0.5-0.4-0.7c0.3,0.1,0.4,0.4,0.5,0.6c0-0.1,0-0.4-0.1-0.5
								c0,0.1,0.1,0.1,0,0.2c-0.3-0.2-0.4-0.4-0.4-0.6c0.8,0.1,0.2-0.6,0.8-0.8c-0.3-0.4,0.1-0.9-0.1-1.4c-0.6,0.3,0-0.1-0.6,0
								c-0.1-0.1-0.1-0.1,0-0.2l0.3-0.4c0.1-0.1,0.2,0.1,0.3,0c0-0.3,0.2-0.2,0.3-0.4c-0.2,0.1-0.3,0-0.3-0.2L49.7,43
								c-0.4-0.3,0.4-0.5,0-0.7l0.2,0c-0.2-0.1-0.2-0.7-0.8-0.7c0-0.1,0.2-0.2,0.3-0.1c-0.1-0.5-0.9-0.6-0.9-1.1l0.1-0.1
								c-0.1,0-0.3,0-0.2-0.1c0.1,0,0.1-0.1,0.1-0.1c-0.1,0-0.3,0-0.3-0.2l0.2,0c-0.1-0.5-0.7-0.3-1-0.5c0.3-0.3,0.2-0.7,0.1-0.8
								l0,0c-0.4-0.4-0.9-0.3-1.4-0.5c0-0.6-0.7-0.7-1-1.2c0,0.1-0.2,0.3-0.3,0.3c-0.1-0.1-0.4,0.1-0.2-0.2l0,0
								c0.1-0.4-0.2-0.4-0.3-0.5l-0.2,0.5c-0.1-0.4-0.4-0.5-0.7-0.5c-0.3,0-0.6,0-0.6-0.3c-0.1,0.1-0.3,0.1-0.4,0.2l0.1-0.3
								c-0.3-0.1-0.5-0.2-0.9-0.2l0.1-0.2c-0.2,0-0.3,0.8-0.5,0.8l0-0.4c-0.4,0-0.8-0.4-1.1,0c0-0.1,0-0.2,0.1-0.2
								c-0.2,0-0.7-0.2-0.6,0.4c-0.1-0.4-0.4,0-0.6,0.2l0-0.3c-0.1,0.4-0.1,0.5-0.3,0.6c-0.1,0-0.1-0.2,0-0.2
								c-0.2-0.1-0.1,0.3-0.3,0.2l0-0.2c-0.2,0-0.2,0.1-0.2,0.3c-0.1,0.1-0.4,0.1-0.5-0.2c0,0.2,0,0.4-0.1,0.3c0-0.1,0-0.2,0-0.2
								c-0.4-0.1-0.3,0.5-0.6,0.3c0-0.1-0.1-0.1-0.1-0.1c0.2-0.1,0.4-0.2,0.4-0.2c-0.1-0.2-0.3-0.2-0.3-0.6
								c-0.1,0.3-0.2,0.8-0.4,0.7c0,0,0,0-0.1-0.1l0,0c-0.1,0-0.1,0-0.1,0.1c-0.1,0-0.1,0-0.2,0c-0.1-0.2-0.3,0-0.4,0.1
								c0.2,0.2,0,0.3,0.2,0.4c0,0,0,0,0.1-0.1c0,0,0,0,0,0l0,0c0.1,0,0.1-0.1,0.2-0.1c0,0.2,0,0.3-0.2,0.2c0,0.2,0.1,0.4,0.1,0.5
								c-0.3-0.3-0.7-0.3-0.8-0.5c-0.2,0.3-0.6,0.5-0.4,1.1c0,0.1-0.2,0-0.3-0.1c0-0.1,0.1-0.1,0-0.2c0,0.2-0.4,0.4-0.1,0.7
								c-0.3,0-0.1-0.3-0.3-0.1l-0.1-0.1c-0.4,0-0.4,0.4-0.4,0.7c0,0.3,0,0.6-0.5,0.7c0.1,0,0.1,0,0.2,0C32.8,41,33,42,32.3,42.5
								c-0.2,0.2,0,0.3,0.2,0.4l-0.3,0l0.3,0.3c0.2,0.3-0.9,0.3-0.5,0.8l0.2,0c-0.1,0.1,0.1,0.4-0.2,0.4c0,0,0.2,0.1,0.1,0.1l-0.2,0
								c0,0,0.2,0.4,0.2,0.4c-0.1,0.3-0.6-0.1-0.7,0.3c0.1,0.2,0.4,0.4,0.5,0.4c0-0.1,0.1-0.1,0.3-0.1l0.1,0.1
								c0.5,0,0.9,0.1,1.3-0.2l-0.3-0.2l0.2,0l0,0.2c0.2-0.1,0-0.1-0.1-0.2c0.1,0,0.2,0,0.3-0.1l-0.4-0.2c0.2,0,0.3,0.1,0.5,0
								c-0.2-0.1-0.4,0-0.5-0.1c0.2-0.1,0.4,0,0.2-0.1c0.1,0,0.2,0,0.2,0.1c-0.1-0.1,0-0.2-0.3-0.3c0.3,0,0-0.3,0.4-0.2
								c-0.1,0-0.3-0.2-0.3-0.3c0.5,0.3,0.1-0.3,0.6-0.1c-0.4-0.2-0.1-0.4-0.2-0.7c0,0,0.1,0.1,0.1,0.1c0.1-0.1,0.2-0.1,0.3-0.1
								c-0.4-0.2-0.4-0.4-0.5-0.6c0.4,0,0.4,0.3,0.7,0.4c-0.3-0.1-0.2-0.3-0.4-0.4c0.3,0,0.1,0,0.5,0.1c-0.4-0.2,0-0.1-0.2-0.3
								c0.3,0,0.4,0.2,0.4,0C34.9,42,35,42.2,35,42.2z M37.3,38.9L37.3,38.9C37.3,38.9,37.2,39,37.3,38.9
								C37.2,39,37.2,38.9,37.3,38.9z M37.6,38.8c0,0-0.1,0-0.1,0.1c-0.1-0.1-0.1-0.2,0-0.2C37.4,38.7,37.5,38.7,37.6,38.8z
								 M36,37.4c0-0.1,0.1,0,0.1,0c0,0-0.1,0-0.1,0.1l0,0C36,37.5,36,37.5,36,37.4z"/>
							<path fill="#202020" d="M36,37.8C36,37.8,36,37.8,36,37.8C36,37.9,36.1,37.9,36,37.8L36,37.8L36,37.8z"/>
							<path fill="#202020" d="M35.7,52.6L35.7,52.6C35.7,52.6,35.7,52.6,35.7,52.6C35.7,52.6,35.7,52.6,35.7,52.6z"/>
							<polygon fill="#202020" points="42.3,38.8 42.3,38.7 42.3,38.8 							"/>
							<path fill="#202020" d="M34.8,50.4C34.8,50.4,34.8,50.4,34.8,50.4C34.8,50.4,34.8,50.4,34.8,50.4z"/>
							<path fill="#202020" d="M34.3,49.7l0-0.2C34.3,49.6,34.3,49.7,34.3,49.7z"/>
							<path fill="#202020" d="M34.1,49.1c0,0-0.1,0-0.1,0l0,0L34.1,49.1z"/>
							<path fill="#202020" d="M42.8,52.4C42.8,52.4,42.8,52.4,42.8,52.4C42.9,52.3,42.8,52.4,42.8,52.4z"/>
							<path fill="#202020" d="M39.8,53.3c0,0,0.1-0.1,0.1-0.1C39.9,53.2,39.8,53.2,39.8,53.3z"/>
							<polygon fill="#202020" points="45.4,50.5 45.4,50.5 45.4,50.5 							"/>
							<path fill="#202020" d="M40.1,53.2c-0.1-0.1-0.1,0-0.1,0C40,53.2,40,53.3,40.1,53.2z"/>
							<path fill="#202020" d="M33.4,46.4L33.4,46.4C33.4,46.3,33.4,46.3,33.4,46.4L33.4,46.4z"/>
							<path fill="#202020" d="M33.4,46.3L33.4,46.3C33.3,46.3,33.3,46.3,33.4,46.3z"/>
							<path fill="#202020" d="M33.3,46.2L33.3,46.2C33.3,46.3,33.3,46.2,33.3,46.2z"/>
							<path fill="#202020" d="M33.4,47.2l0.1,0C33.5,47.2,33.5,47.2,33.4,47.2z"/>
							<path fill="#202020" d="M33.5,47.5c0-0.1,0.2-0.2,0.1-0.3l-0.1,0C33.7,47.2,33.3,47.4,33.5,47.5z"/>
							<path fill="#202020" d="M32.7,49l0-0.3c-0.1,0.1-0.2,0.2-0.3,0.1C32.2,49.2,32.6,48.7,32.7,49z"/>
							<path fill="#202020" d="M32.9,49.8c-0.1-0.1-0.1,0.1-0.2,0.1C32.8,49.9,32.9,49.9,32.9,49.8z"/>
							<path fill="#202020" d="M37.1,53.7L37,53.9C37.1,53.9,37,53.8,37.1,53.7z"/>
							<polygon fill="#202020" points="38.5,52.8 38.5,52.6 38.4,52.8 							"/>
							<polygon fill="#202020" points="38.7,54.7 38.6,54.7 38.8,54.7 							"/>
							<path fill="#202020" d="M47.9,51.5l-0.3-0.2C47.6,51.4,47.9,51.6,47.9,51.5z"/>
							<path fill="#202020" d="M49.5,47.4c0.2,0,0.3-0.1,0.1-0.2C49.6,47.3,49.5,47.4,49.5,47.4z"/>
							<polygon fill="#202020" points="44,36.7 44.1,36.6 43.9,36.6 							"/>
						</g>
					</g>
				</g>
			</g>
		</g>
	</g>
	<g>
		<g>
			<g>
				<g>
					<g>
						<g>
							<path fill="#202020" d="M54.9,98.6c-0.1-0.1-0.3,0-0.2,0.2l0.3,0.1L54.9,98.6z"/>
							<path fill="#202020" d="M54.3,100.1c0.2,0.2,0.5,0.5,0.8,0.3c-0.3-0.2-0.2-0.3-0.6-0.5c0-0.2,0.1-0.4,0.2-0.3
								c-0.1-0.1,0.1-0.3-0.2-0.4c-0.2,0.3-0.2,0.7,0,1C54.5,100.2,54.4,100.1,54.3,100.1z"/>
							<path fill="#202020" d="M64,118.5l-0.1-0.1C63.9,118.4,64,118.5,64,118.5z"/>
							<path fill="#202020" d="M76.5,123.1c-0.1,0-0.1,0-0.2,0.1C76.5,123.2,76.5,123.2,76.5,123.1z"/>
							<path fill="#202020" d="M78.9,123.5c-0.1,0-0.1,0-0.1,0C78.8,123.5,78.8,123.6,78.9,123.5z"/>
							<path fill="#202020" d="M64,118.5l0.2,0.3C64.3,118.7,64.1,118.6,64,118.5z"/>
							<path fill="#202020" d="M55.4,102.8c0-0.1-0.1-0.1-0.1-0.2L55.4,102.8L55.4,102.8z"/>
							<path fill="#202020" d="M59.4,114.7L59.4,114.7c-0.1-0.1-0.2-0.1-0.2-0.1L59.4,114.7z"/>
							<path fill="#202020" d="M56.7,110.9c0,0.1,0.3,0,0.4,0c-0.1,0-0.2,0-0.3-0.1C56.8,110.8,56.8,110.9,56.7,110.9z"/>
							<path fill="#202020" d="M54.5,104l-0.1-0.1C54.5,103.9,54.5,104,54.5,104z"/>
							<path fill="#202020" d="M61.7,117.1c0,0,0,0.1,0,0.1C61.7,117.1,61.7,117.1,61.7,117.1z"/>
							<path fill="#202020" d="M56,93.7C56,93.7,56,93.7,56,93.7C56,93.8,56,93.8,56,93.7z"/>
							<path fill="#202020" d="M54.1,98.6L54.1,98.6c-0.1-0.1-0.1-0.1-0.2-0.1L54.1,98.6z"/>
							<path fill="#202020" d="M83.2,123.4C83.2,123.4,83.2,123.4,83.2,123.4C83.1,123.5,83.1,123.5,83.2,123.4z"/>
							<path fill="#202020" d="M102.7,93.3c-0.1,0.5-0.5-0.6-0.6,0.1C102.2,93.3,102.7,93.9,102.7,93.3z"/>
							<path fill="#202020" d="M55.4,103c0,0.1,0,0.1,0,0.2C55.5,103,55.4,103,55.4,103z"/>
							<path fill="#202020" d="M102.1,93.4L102.1,93.4L102.1,93.4C102.1,93.4,102.1,93.4,102.1,93.4z"/>
							<path fill="#202020" d="M92.3,119.4c0,0-0.1,0-0.2,0C92.2,119.4,92.2,119.4,92.3,119.4z"/>
							<path fill="#202020" d="M85.5,122.2l0.2,0C85.6,122.2,85.6,122.2,85.5,122.2z"/>
							<path fill="#202020" d="M95,116.7c0.1-0.1,0.1,0,0.2-0.2c0,0,0,0-0.1,0C95.2,116.6,95.2,116.6,95,116.7z"/>
							<path fill="#202020" d="M97.7,113.8C97.7,113.8,97.7,113.8,97.7,113.8c-0.1,0.1-0.1,0.1-0.2,0.1L97.7,113.8z"/>
							<path fill="#202020" d="M60.8,83.9c-0.1,0-0.2,0-0.3,0C60.7,83.9,60.4,84.4,60.8,83.9z"/>
							<path fill="#202020" d="M55.3,102.9c0.1,0,0.1,0,0.1,0.1l0-0.1C55.3,102.8,55.3,102.8,55.3,102.9z"/>
							<path fill="#202020" d="M93.7,115l0.5-0.4C94,114.7,93.8,114.8,93.7,115z"/>
							<path fill="#202020" d="M84.5,77h-0.1C84.4,77,84.4,77,84.5,77z"/>
							<path fill="#202020" d="M95.2,113.3c0.1,0,0.3-0.1,0.4-0.1c0,0,0-0.1,0-0.1L95.2,113.3z"/>
							<path fill="#202020" d="M60.5,84L60.5,84L60.5,84z"/>
							<path fill="#202020" d="M58.8,87.3c0.3-0.5-0.2-0.4-0.3-0.6c0.3-0.6,0.4-0.1,0.7-0.2c0.1-0.4,0-0.9,0.2-1.1
								c0.1,0,0.1,0,0.1,0.1c0-0.5,0.8-1,0.8-1.7c0.1,0,0.1,0,0.1,0c-0.2-0.1-0.4-0.2-0.4-0.3c0.2-0.2,0.1-0.5,0.4-0.4
								c-0.1,0.1,0,0.2,0,0.3l0.1-0.3c0.4,0-0.2,0.3,0,0.5c0.3-0.4,0.5-1.1,0.8-1.3c0.3,0.2-0.5,0.8,0,0.6l-0.5,0.4
								c0.7,0-0.3,0.2,0.4,0.3c0.6-0.5,0.4-0.8,1.1-1.3c0-0.3-0.2-0.2-0.2-0.4c0.6-1,1.2,0,1.5-0.9c0-0.3-0.2-0.7,0.4-0.9l0.1,0.4
								c0.6-0.4,0-0.7,0.8-1c0,0.2-0.4,0.5-0.3,0.4c0.6-0.1,0.2-0.4,0.5-0.6l0.3,0.2c0.7-0.4,1.3-1.2,2.1-1.6c0,0.1-0.1,0.3,0.1,0.3
								c0.5-0.3,1-0.6,1.6-0.8c0.6-0.2,1.2-0.3,1.7-0.4l0.3-0.4c0.1,0,0.2,0.1,0.1,0.2c0.4,0,0-0.2,0.1-0.3c0.2-0.1,0.4,0.1,0.2,0.2
								c0.6-0.4,2-1.1,2.8-0.8l-0.1,0.1c0.6,0,0.6-0.7,1.2-0.5l-0.1,0.1c1.4,0,2.9-0.3,3.9,0.2c0.2-0.4,1.3,0.3,1.5-0.3
								c0.7,0.4,0.5,0.5,1.5,0.8c0.3,0.1,0.5-0.3,0.9-0.2l-0.1,0.3l0.5-0.2l0.2,0.4l0.3,0c-0.1-0.1-0.2-0.2-0.2-0.3
								c0.3,0,0.6,0.1,0.8,0.3c0.2,0.2,0.4,0.4,0.3,0.4l1.2,0.2c-0.1,0.1-0.3,0.1-0.5,0.1c0.7-0.1,0,0.3,0.7,0.3
								c0-0.1,0.1-0.2,0.1-0.2c0.2,0.3,0.8,0.6,1.3,0.7L88,78.3c0.8,0.4,1.7,0.8,2.6,1.4c-0.3-0.3,0-0.5,0.3-0.4l-0.1,0.3
								c0.3-0.1-0.2-0.3,0.3-0.3c0.3,0.3,0,0.5-0.2,0.4l0.4,0.2c0,0.1-0.2,0.1-0.2,0.2c0.3,0,0.4,0.7,0.9,0.6l0,0.1
								c0.8,0.6,1.2,0.9,1.8,1.4c0.2-0.2,0.4,0.1,0.7,0.1c0.4,0.5,0.7,1.2,1.2,1.7c0.4,0.3,0.3,0,0.6,0c-0.2,0.2,0.3,0.8-0.1,0.6
								c0.3,0.3,0.5,0.6,0.7,0.8c0.2,0.2,0.5,0.5,0.8,0.9c0-0.2,0-0.3,0.1-0.3c0.1,0.2,0.2,0.5,0,0.5l-0.1,0
								c0.5,0.4,0.7,1.2,0.9,1.9c0.1,0.7,0.3,1.3,0.7,1.7l0,0l0.6,0.9c0.1,0.5-0.3-0.2-0.3,0.2c0.2,0.2,0.3,0.4,0.4,0.7
								c0.1,0.2,0.1,0.4,0.2,0.6c0.1,0.4,0.1,0.8,0.4,1.2c-0.2,0.4-0.2,1,0,1.7c0.1,0.3,0.2,0.7,0.2,1c0,0.3,0,0.6-0.1,0.9l0.2-0.1
								c0.2,0.2-0.1,0.3-0.1,0.5c0.1,0,0.1-0.3,0.2-0.1c0.2,1.1,0,2.2-0.1,3.2c-0.1,0.5-0.3,1.1-0.4,1.6l-0.2,0.8l-0.3,0.8
								c-0.2,0.7,0.8,0.7,0.1,1.5l-0.2-0.4c0,0.8-0.4,1.6-0.6,2.3c-0.4,0.7-0.7,1.4-0.9,2.2c0-0.1-0.1-0.2,0-0.3
								c-0.4,0.2-0.6,1-0.5,1.1c-0.1,0.2-0.2,0-0.3,0c-0.3,0.2-0.2,0.9-0.5,0.9c-0.1,0,0-0.1,0-0.2c0,0.2-0.6,0.8-0.3,0.8
								c-0.5,0.4-0.6,1-1,1.2c0,0.4-0.8,0.6-0.5,1c-0.3-0.3-0.9,0.5-1.1,0.9c0-0.2-0.3,0.1-0.4-0.1c-0.3,0.3-0.5,0.6-0.3,0.7
								c-0.9,0.1-1,1.3-1.7,1.1c-0.2,0.2-0.4,0.5-0.6,0.7c-0.2,0.2-0.5,0.4-0.7,0.6c-0.5,0.4-0.9,0.8-1.4,1.1
								c-0.2-0.4,1.1-0.7,0.8-1c-0.4,0.4-0.7,0.7-1.1,1c-0.3,0.3-0.7,0.5-1.2,0.7c-0.3,0.1,0.1-0.2,0.1-0.4c-0.4,0.3-1,0.5-1.4,0.7
								c-0.5,0.2-0.9,0.4-1.4,0.6c0,0,0.1-0.1,0.2-0.2c-0.2,0.1-0.4,0-0.4,0.2l0.2-0.1c0.4,0.2-0.6,0.8-0.6,0.9
								c0.2-0.6-1,0.1-0.6-0.7c-0.1,0.1-0.2,0.2-0.2,0.3c-0.2,0-0.3-0.1-0.1-0.3c-0.6,0.3-0.4,0.4-1,0.5c0-0.1,0.1-0.2,0.1-0.3
								c-0.3,0.2-0.6,0.5-1.1,0.5c0-0.1,0-0.1,0.1-0.2c-0.9,0.2-1.5,0.7-2.5,0.5c0.3-0.4-0.3-0.1-0.4-0.5c0,0-0.1,0-0.3,0.1
								c-0.1,0-0.3,0-0.3,0l0.2,0.2c-0.5,0-0.9,0.2-1.3,0.1l0.4-0.1l-0.9,0l0.5,0.2c-0.5,0.2,0,0.5-0.6,0.3c0.1,0-0.5-0.3-0.7-0.3h0
								c-0.2,0-0.5,0.2-0.8,0c-0.1-0.1,0.1-0.4,0.1-0.5c-0.3,0.3-1.1-0.1-1.5,0.2c0.1-0.1,0.2-0.2,0.1-0.3l-0.2,0.2
								c-0.2-0.1-0.2-0.2-0.1-0.3c-0.6-0.2,0.1,0.5-0.6,0.1c0.1,0,0,0,0.2-0.1c-0.7-0.3-1.5-0.2-2.2-0.6c-0.1-0.4,0.6,0.1,0.5-0.3
								c-0.5-0.1-1-0.2-1.6-0.3c-0.5-0.1-1-0.3-1.5-0.5l0.2,0.1c-0.4,0.4-0.6-0.5-1.1-0.6c0.1,0,0.3-0.2,0.2-0.1
								c-0.5-0.4-1.3-0.6-2.2-1l0.2,0c-0.3-0.3-0.8-0.7-1.1-1c-0.2,0-0.4-0.1-0.4,0.1c-0.3-0.7-0.8-1.1-1.4-1.4
								c-0.6-0.3-1.1-0.7-1.2-1.3c0.1,0.1,0.3,0.2,0.2,0.1l-0.8-0.7c-0.1,0.2,0,0.2,0,0.5c-0.2,0-0.5-0.2-0.6-0.3
								c0.4,0.2,0.3-0.2,0.3-0.5c0,0.1-0.1,0.1-0.2,0.1c0-0.7-0.4,0.2-0.6-0.5l0.1,0c-0.2-0.2-0.5-0.3-0.6-0.6
								c0.1-0.3,0.3,0.2,0.5,0.1c-0.3-0.3-0.9-0.4-0.9-0.8c0.2,0.1,0.3,0.3,0.5,0.4c0-0.5-0.1-0.5-0.2-0.8l0,0l-0.2-0.7l0,0.2
								c-0.8-0.1-0.7-0.8-1.4-1.2c0.7,0.4,0.3,0,0.6-0.1c0-0.2,0-0.5,0.1-0.5c-0.4-0.2-0.1-0.6-0.6-0.8c0.1-0.1-0.1-0.3,0.1-0.3
								c-0.3-0.3-0.1,0.2-0.2,0.2c-0.6-0.5-0.2-1.6-0.9-2.3c-0.4-0.7-0.7-0.8-1.1-1.5c0.1-0.3,0.4,0.1,0.4,0.1
								c0-0.4-0.1-0.7-0.3-1.1c0.1,0.1,0.2,0,0.2-0.2c-0.1-0.3-0.4-0.1-0.3-0.6c0.1,0.1,0.3,0.1,0.4,0.2c-0.1-0.3-0.4-0.7-0.5-1
								c0.2-0.1,0.3,0.2,0.4,0.3c-0.1-0.4-0.3-1.1-0.6-1.2l-0.1,0.3c0-0.2,0.2-0.1,0.3,0c0.3,0.3,0,0.5-0.1,0.6l-0.1-0.3
								c-0.5,0.4,0.3,1.1,0.3,1.6l-0.4-0.2l0.4,0.5c-0.1,0.1-0.3,0.3-0.4,0c-0.1,0.4,0.2,0.3,0.1,0.7c0,0,0,0-0.1,0l0.2,0.4
								c-0.1-0.1-0.3,0.1-0.3-0.1c-0.1,0.8,0.6,1,0.4,1.4l0-0.1c0.4,0.9,0.3,0,0.9,0.6l-0.5,0.7l0.3,0c0,0.1,0.1,0.3-0.1,0.3
								c0.3,0.3,0.1-0.1,0.4,0c0,0.3,0.1,0.6,0.2,0.8c0.1,0.3,0.2,0.5,0,0.6c0.3,0.1,0-0.5,0.3-0.1c-0.4,0.4,0.3,0.5,0.3,1
								c-0.3,0-0.4-0.5-0.4,0.1c0.5,0,0.3,0.8,0.6,1.1c0.3-0.2,0.6,0.6,1,1.1c-0.2,0.1,0.5,1.1,0.8,1.6l-0.1,0
								c0.4-0.1,0.6,0.4,1,0.7c-0.2,0.1-0.3,0.1-0.5,0c0,0,0.3,0.3,0.3,0.3c0.2,0,0.3,0.1,0.5,0.2l-0.3,0.1c0.4,0.4,1,0.6,1.4,1.3
								c0.2-0.2,0.1-0.9,0.7-0.5c-0.1,0.1-0.2,0.3-0.4,0.2c0.1,0,0.2,0.1,0.3,0.2l-0.4,0c0.2,0.3,0.3,0,0.4,0.2
								c-0.1,0.1,0,0.2-0.1,0.3c-0.1,0-0.1-0.2-0.2-0.2c0.2,0.2,0.4,0.6,0.4,0.7c0.1-0.1,0.2-0.2,0.4-0.1c0.4,0.4,0,0.3,0.2,0.6
								c0.2,0,0.4,0.3,0.6,0.1c0.1,0.1,0.1,0.2,0.1,0.3c0.3,0.1,1.1,0.8,1,0.3l0-0.1c0,0,0,0,0,0l0,0l0,0c0.9,0.4,1.6,1.2,2.4,1.6
								l0,0.1c0.5,0.2,1.2,0.5,1.6,0.5c0.1,0.1,0.3,0.3,0.2,0.4c0.4,0.1,0.5,0.1,1,0.4c-0.5,0,0.1,0.2-0.5,0
								c0.5,0.3,0.6,0.5,1.2,0.4c-0.3,0.2,0.3,0.4,0.6,0.5l-0.3-0.3c0.3,0.1,0.5,0.2,0.8,0.3l-0.2,0.3c0.5,0.4,1.1,0.3,1.6,0.3
								c0.5,0,1,0,1.3,0.4c0.3-0.2-0.6-0.3-0.3-0.5c0.5,0.1,1,0.7,1.1,0.7c0.7,0.3,0.7-0.4,1.5-0.2c-0.1-0.1-0.1-0.4,0.4-0.5
								c0.5,0.1,0.6,0.5,0.3,0.6c-0.1,0-0.2,0-0.2-0.1c-0.2,0-0.4,0.1-0.2,0.2l0.1-0.1c0.3,0.1,1,0.2,0.8,0.3
								c0.4-0.1,0.2-0.2-0.1-0.3c0.7,0.2,1.1,0.1,1.8,0.2c-0.1-0.1-0.2-0.2-0.1-0.2c1,0.1,0.4-0.2,1.1-0.3c0.4,0.2-0.1,0.4,0.6,0.2
								c0.4,0.1,0.1,0.3,0,0.4c0.6-0.2,1.2,0,1.6,0l-0.3,0.1c0.2-0.1,0.4-0.1,0.5-0.1l-0.2-0.2c0.2,0,0.4,0,0.4,0.1
								c0.2-0.2-0.2-0.4,0.1-0.6c0.3,0.1,0.8-0.2,0.9,0c-0.8,0,0.2,0.3-0.5,0.5c0.1-0.1,0.3-0.1,0.5-0.1c0,0,0,0.1-0.1,0.1
								c0.8,0.1,0.3-0.4,1.1-0.6c-0.1,0.2,0.3,0.3,0.4,0.2c-0.3,0.1-0.2-0.2,0-0.5c0.6,0,0.5-0.2,0.8-0.3l-0.3,0
								c0.1-0.2,0.3-0.2,0.6-0.4c0.1,0.1-0.3,0.2-0.1,0.2c0.3-0.4,1,0,1.4-0.4c0.3,0,0.1,0.3,0.4,0.3c0.5-0.4,0.7-0.1,1.3-0.5
								c-0.3-0.1-0.3-0.1,0-0.5l-0.9,0.6l0.5-0.6c-0.3,0.1-0.6,0.5-0.8,0.5c0.2-0.3,0.2-0.2,0-0.4c0.5,0.1,0.7-0.6,1.3-0.6l0.2,0.5
								c0.4-0.1,0.7-0.3,1-0.5c0.3-0.3,0.6-0.6,1.1-0.8l-0.3,0.1c0-0.3,0.5-0.4,0.8-0.6c0.1,0.2,0.3,0.1,0.5,0.2
								c-0.1-0.1,0.6-0.4,0.5-0.8l0.5-0.1c0.7-0.4,0.4-1,1-1.5c0,0.3,0.3,0.2,0,0.7c0.2-0.2,0.4-0.3,0.3-0.4c0.2,0,0.4-0.7,0.7-0.7
								c0-0.1-0.1-0.3,0.1-0.5c0.1,0,0.1,0.1,0.1,0.1c-0.1-0.1,0.2-0.4-0.1-0.4c1-0.2,1.5-1.7,2.3-1.9c0.3-0.5,0.7-1.1,1-1.5
								c0,0.1,0.1,0.1,0,0.1c0.5-0.5-0.2-0.7,0.4-1.3c0.5-0.2-0.1,0.5,0.2,0.3c0.6,0.2,0.5-0.9,1-1.2l0,0.1c0.4-0.3,0.2-1.1,0.6-1.7
								c0,0,0,0.1,0.1,0c-0.1-0.6,0.1-1.4,0.3-2.1c0.2,0.3,0,0.3,0.3,0.3c0.1-0.3-0.4-0.1-0.3-0.6c0.2-0.1,0.5-0.5,0.7-0.5
								c0,0-0.2,0.5-0.2,0.5c0.4-0.2,0.2-0.7,0.3-1l0.1,0.1c0.2-0.9-0.2-1,0-1.8l-0.1,0.1c-0.3-0.6,0.3-0.4,0.1-0.9l0.4-0.1
								c0-0.4-0.2-1.2-0.2-1.8c0.3,0.4,0.3,1.1,0.4,1.5c0.1-0.3,0.1-1.1,0-1.3c0,0.1,0.1,0.3,0,0.4c-0.2-0.4-0.4-1-0.3-1.6
								c0.8,0.2,0.3-1.7,0.8-2.2c-0.2-0.6-0.2-1.2-0.2-1.8c0-0.6,0-1.3-0.2-1.9c-0.5,0.6-0.1-0.4-0.7-0.2c-0.1-0.3-0.1-0.4-0.1-0.5
								l0.1-1c0.1-0.3,0.2,0.3,0.3,0.2c-0.1-0.7,0.2-0.4,0.2-0.9c-0.2,0.2-0.4-0.2-0.4-0.6l-0.1,0.6c-0.5-0.9,0.2-1-0.4-1.8l0.3,0.2
								c-0.3-0.4-0.6-1.8-1.3-2c0-0.1,0.1-0.3,0.3-0.1c-0.2-0.6-0.6-1.1-1-1.6c-0.4-0.5-0.8-1-0.9-1.5l0.2,0
								c-0.2-0.2-0.4-0.2-0.5-0.5c0.1,0,0.2,0,0.1-0.1c-0.1-0.1-0.6-0.3-0.7-0.6l0.3,0.1c-0.3-0.5-0.6-0.8-1-1.1
								c-0.4-0.2-0.8-0.4-1.2-0.7c0.3-0.3-0.2-1.1-0.5-1.5l0.1,0c-0.5-0.5-1-0.8-1.5-1.1c-0.5-0.3-1.1-0.5-1.6-0.8
								c-0.2-0.4-0.7-0.9-1.3-1.3c-0.6-0.4-1.3-0.8-1.8-1.2c0.1,0.2-0.2,0.3-0.4,0.2c-0.2-0.2-0.9-0.1-0.7-0.4l0.1,0.1
								c0-0.4-0.6-0.7-1.1-0.8l-0.3,0.5c-0.5-0.6-1.3-0.8-2-0.9c-0.8-0.1-1.4-0.2-1.7-0.6c-0.3,0-0.7,0-1,0.1l0.1-0.3
								c-0.8-0.2-1.2-0.3-2.3-0.4l0.2-0.2c-0.6,0-0.8,0.8-1.3,0.8l-0.1-0.4c-1-0.1-2.1-0.3-3.1,0.1c0-0.1,0-0.2,0.2-0.2
								c-0.5,0-1.9-0.1-1.6,0.5c-0.1-0.4-1.1,0.1-1.6,0.4l0-0.3c-0.4,0.5-0.4,0.6-1,0.8c-0.2,0-0.2-0.2,0-0.2
								c-0.5,0-0.3,0.4-0.9,0.4l0.2-0.2c-0.5,0.1-0.5,0.2-0.7,0.5c-0.3,0.2-0.9,0.3-1.1,0.1c0,0.2-0.2,0.5-0.5,0.5
								c-0.1-0.1,0-0.2,0.1-0.2c-0.9,0.1-1.1,0.8-1.7,0.8c-0.1-0.1-0.1-0.1-0.2-0.1c0.6-0.3,1.1-0.5,1.1-0.5c-0.1-0.2-0.6,0-0.4-0.5
								c-0.3,0.4-0.9,1.1-1.4,1.2c0,0-0.1,0-0.1,0l0-0.1c-0.1,0-0.2,0.1-0.3,0.2c-0.2,0.1-0.3,0.1-0.4,0.2c-0.2-0.1-0.6,0.2-0.9,0.4
								c0.2,0.2-0.2,0.4,0.2,0.4c0,0,0-0.1,0.2-0.2c0,0,0.1-0.1,0.1-0.1l0,0c0.2-0.1,0.4-0.2,0.6-0.4c-0.1,0.2-0.3,0.5-0.6,0.5
								c0,0.2-0.1,0.5-0.1,0.6c-0.5-0.1-1.3,0.1-1.5,0c-0.6,0.7-1.6,1.3-1.6,2.1c-0.1,0.2-0.3,0.1-0.4,0.1c0.1-0.1,0.2-0.2,0.2-0.3
								c-0.3,0.4-1,1-0.9,1.3c-0.6,0.3,0-0.5-0.5,0.1l0-0.2c-0.8,0.4-1.1,1.1-1.4,1.7c-0.3,0.7-0.5,1.4-1.4,1.9
								c0.1-0.1,0.2-0.1,0.2-0.1c-1.4,1.6-2,3.8-3.1,5.5c-0.3,0.5-0.1,0.7-0.1,1l-0.3,0c0,0,0,0.2,0.1,0.3c0,0.2,0.1,0.3,0.1,0.3
								c0,0.4-0.3,0.8-0.5,1.1c-0.3,0.4-0.5,0.8-0.3,1.3l0.2-0.1c-0.1,0.4-0.1,1.2-0.3,1.1c0,0,0.2,0.2,0.1,0.3l-0.2,0
								c0,0,0,0.2,0.1,0.5c0.1,0.2,0.1,0.5,0.1,0.5c-0.2,0.7-0.6-0.2-0.7,0.9c0,0.4,0.4,1.2,0.5,1c0-0.2,0.1-0.4,0.3-0.4l0.1,0.4
								c0.5,0.1,0.9,0.3,1.3-0.5l-0.3-0.6l0.2-0.2l0,0.5c0.2-0.3,0-0.5-0.1-0.7c0.1,0,0.2-0.1,0.3-0.2l-0.4-0.6
								c0.2-0.1,0.3,0.3,0.5-0.1c-0.2-0.3-0.4,0.2-0.5-0.2c0.3-0.3,0.4-0.2,0.3-0.5c0.1,0,0.2,0.1,0.2,0.2c-0.1-0.3,0.1-0.8-0.2-1
								c0.3-0.2,0.1-1,0.5-0.9c-0.1-0.1-0.2-0.6-0.2-0.8c0.4,0.6,0.3-1,0.8-0.7c-0.4-0.5,0.2-1.3,0.2-2c0,0,0.1,0.1,0,0.2
								c0.2-0.3,0.3-0.4,0.5-0.6c-0.3-0.2-0.2-0.7-0.3-1.1c0.5-0.2,0.3,0.4,0.7,0.5c-0.3-0.1,0.1-0.8-0.3-0.8
								c0.4-0.2,0.2-0.2,0.6-0.2c-0.4-0.3,0.1-0.3-0.1-0.7c0.5-0.3,0.5,0.1,0.6-0.4C58.9,86.8,58.8,87.3,58.8,87.3z M67.5,78
								L67.5,78c-0.1,0.1-0.2,0.1-0.2,0.1C67.3,78.1,67.4,78.1,67.5,78z M68.5,77.5c-0.1,0-0.3,0.1-0.4,0.2c-0.1-0.1-0.1-0.2,0-0.2
								C68.1,77.6,68.3,77.5,68.5,77.5z M65.4,76.9c0.1-0.1,0.2-0.1,0.3-0.1c-0.1,0.1-0.2,0.1-0.3,0.2c0,0,0,0,0,0
								C65.4,77,65.4,77,65.4,76.9z"/>
							<path fill="#202020" d="M65.3,77.4C65.3,77.4,65.3,77.4,65.3,77.4C65.3,77.5,65.4,77.5,65.3,77.4L65.3,77.4L65.3,77.4z"/>
							<path fill="#202020" d="M63.9,118.4L63.9,118.4C63.9,118.4,63.9,118.3,63.9,118.4C63.9,118.3,63.9,118.3,63.9,118.4z"/>
							<polygon fill="#202020" points="83.3,76.5 83.3,76.4 83.2,76.5 							"/>
							<path fill="#202020" d="M60,113.4c0,0,0-0.1,0-0.1C60,113.3,60,113.3,60,113.4z"/>
							<path fill="#202020" d="M58.5,111.2l-0.1-0.4C58.4,111,58.5,111.1,58.5,111.2z"/>
							<path fill="#202020" d="M57.6,109.4c-0.1,0-0.1,0-0.1,0l0,0L57.6,109.4z"/>
							<path fill="#202020" d="M84.8,120.5C84.9,120.5,84.9,120.5,84.8,120.5C85.1,120.4,84.9,120.4,84.8,120.5z"/>
							<path fill="#202020" d="M75.4,122c0.1,0,0.2-0.1,0.3-0.1C75.6,121.8,75.5,121.8,75.4,122z"/>
							<polygon fill="#202020" points="93.6,115 93.6,115 93.7,115 							"/>
							<path fill="#202020" d="M76.2,121.9c-0.2-0.1-0.3-0.1-0.4,0C75.9,121.9,76.1,122,76.2,121.9z"/>
							<path fill="#202020" d="M55.2,101.1L55.2,101.1c0-0.1,0-0.1,0-0.1L55.2,101.1z"/>
							<path fill="#202020" d="M55.1,101l0-0.1C55.1,100.9,55.1,100.9,55.1,101z"/>
							<path fill="#202020" d="M55,100.6l0.1,0.2C55.1,100.8,55.1,100.7,55,100.6z"/>
							<path fill="#202020" d="M55.5,103.7l0.1,0C55.6,103.7,55.6,103.7,55.5,103.7z"/>
							<path fill="#202020" d="M55.7,104.5c0-0.2,0.1-0.5,0-0.8l-0.1,0C55.8,103.8,55.5,104.4,55.7,104.5z"/>
							<path fill="#202020" d="M55.7,108.2c0,0-0.2-0.7-0.2-0.7c-0.1,0.2-0.1,0.4-0.3,0.1C55.2,108.5,55.4,107.3,55.7,108.2z"/>
							<path fill="#202020" d="M56.5,110.3c-0.2-0.3-0.1,0.1-0.2,0.1C56.5,110.5,56.6,110.6,56.5,110.3z"/>
							<path fill="#202020" d="M68.1,121.1l-0.1,0.2C68.3,121.4,68,121.2,68.1,121.1z"/>
							<path fill="#202020" d="M71.4,120.9c0,0-0.2-0.2-0.2-0.2l-0.2,0.2C71,120.8,71.4,120.9,71.4,120.9z"/>
							<polygon fill="#202020" points="72.7,123.1 72.5,123.1 73.1,123.1 							"/>
							<path fill="#202020" d="M97.5,114.5l-0.3-0.1C97.1,114.5,97.3,114.8,97.5,114.5z"/>
							<path fill="#202020" d="M102.3,103.8c0.2-0.1,0.3-0.4,0.2-0.6C102.5,103.4,102.3,103.6,102.3,103.8z"/>
							<polygon fill="#202020" points="86.9,75 87.1,75 86.7,74.9 							"/>
						</g>
					</g>
				</g>
			</g>
		</g>
		<g>
			<g>
				<g>
					<g>
						<g>
							<path fill="#202020" d="M70.6,98.6c-0.1,0-0.3,0-0.2,0.1l0.3,0L70.6,98.6z"/>
							<path fill="#202020" d="M70,99.1c0.2,0.1,0.4,0.2,0.7,0.1c-0.3-0.1-0.2-0.1-0.6-0.2c0-0.1,0.1-0.1,0.2-0.1
								c-0.1,0,0.1-0.1-0.1-0.1c-0.2,0.1-0.3,0.2,0,0.3C70.1,99.1,70.1,99.1,70,99.1z"/>
							<path fill="#202020" d="M73.1,105.7L73.1,105.7C73.1,105.6,73.1,105.7,73.1,105.7z"/>
							<path fill="#202020" d="M77.6,107.5C77.5,107.5,77.5,107.5,77.6,107.5C77.5,107.5,77.6,107.5,77.6,107.5z"/>
							<path fill="#202020" d="M78.4,107.8C78.4,107.8,78.4,107.8,78.4,107.8C78.4,107.8,78.4,107.9,78.4,107.8z"/>
							<path fill="#202020" d="M73.1,105.7l0,0.2C73.2,105.8,73.2,105.7,73.1,105.7z"/>
							<path fill="#202020" d="M70.9,100C70.9,99.9,70.8,99.9,70.9,100C70.8,99.9,70.8,99.9,70.9,100L70.9,100z"/>
							<path fill="#202020" d="M71.4,104.4L71.4,104.4c-0.1,0-0.1,0-0.2,0L71.4,104.4z"/>
							<path fill="#202020" d="M70.3,103.1c0,0,0.3-0.1,0.4-0.1c-0.1,0-0.2,0-0.2,0C70.5,103,70.4,103,70.3,103.1z"/>
							<path fill="#202020" d="M69.9,100.5L69.9,100.5C69.8,100.5,69.8,100.5,69.9,100.5z"/>
							<path fill="#202020" d="M72.2,105.3C72.1,105.4,72.1,105.4,72.2,105.3C72.1,105.4,72.1,105.4,72.2,105.3z"/>
							<path fill="#202020" d="M71.4,97.1C71.4,97.1,71.4,97.1,71.4,97.1C71.4,97.1,71.4,97.1,71.4,97.1z"/>
							<polygon fill="#202020" points="69.8,98.6 69.8,98.6 69.7,98.6 							"/>
							<path fill="#202020" d="M80.1,108L80.1,108C80,108,80,108,80.1,108z"/>
							<path fill="#202020" d="M87.3,96.6c-0.2,0.2-0.4-0.2-0.6,0.1C86.8,96.7,87.2,96.9,87.3,96.6z"/>
							<path fill="#202020" d="M70.9,100C70.9,100,70.9,100,70.9,100C70.9,100,70.9,100,70.9,100z"/>
							<path fill="#202020" d="M86.7,96.7L86.7,96.7L86.7,96.7C86.7,96.7,86.7,96.7,86.7,96.7z"/>
							<path fill="#202020" d="M83.5,106.4C83.4,106.4,83.4,106.3,83.5,106.4C83.4,106.3,83.4,106.4,83.5,106.4z"/>
							<path fill="#202020" d="M80.8,107.2L80.8,107.2C80.9,107.2,80.9,107.2,80.8,107.2z"/>
							<path fill="#202020" d="M84.3,105.2C84.4,105.2,84.4,105.2,84.3,105.2C84.4,105.1,84.4,105.1,84.3,105.2
								C84.4,105.2,84.4,105.2,84.3,105.2z"/>
							<path fill="#202020" d="M85.3,104.1C85.3,104.1,85.3,104.1,85.3,104.1L85.3,104.1L85.3,104.1z"/>
							<path fill="#202020" d="M72.8,94c-0.1,0-0.2-0.1-0.2-0.1C72.7,94,72.6,94.2,72.8,94z"/>
							<path fill="#202020" d="M70.7,100c0.1,0,0.1,0,0.1,0c0,0,0,0,0,0C70.8,100,70.8,100,70.7,100z"/>
							<path fill="#202020" d="M82.8,103.6l0.2-0.1C83,103.5,82.9,103.5,82.8,103.6z"/>
							<path fill="#202020" d="M80.1,91.8L80.1,91.8C80.1,91.8,80.1,91.8,80.1,91.8z"/>
							<path fill="#202020" d="M83.3,103.1c0.1,0,0.2,0.1,0.2,0.1c0,0,0,0,0-0.1L83.3,103.1z"/>
							<path fill="#202020" d="M72.5,93.9L72.5,93.9L72.5,93.9z"/>
							<path fill="#202020" d="M72.4,95.3c0.1-0.1-0.3-0.3-0.4-0.4c0-0.2,0.3,0.1,0.5,0.1c0-0.2-0.2-0.4-0.2-0.5
								c0.1,0,0.1,0,0.1,0.1c-0.2-0.3,0.2-0.3,0-0.7c0,0,0.1,0,0.1,0c-0.2-0.1-0.3-0.2-0.4-0.3c0.1-0.1-0.1-0.3,0.1-0.1
								c0,0,0,0.1,0.1,0.2l0-0.1c0.3,0.2,0,0.2,0.2,0.3c0-0.2-0.1-0.5,0.1-0.6c0.3,0.2-0.1,0.3,0.2,0.4l-0.2,0.1
								c0.5,0.2-0.1,0.1,0.4,0.3c0.2-0.1,0-0.3,0.3-0.4c-0.1-0.2-0.2-0.2-0.3-0.4c0-0.5,0.8,0.4,0.7-0.1c-0.1-0.2-0.3-0.6,0-0.5
								l0.2,0.3c0.2-0.1-0.2-0.5,0.1-0.5c0,0.2-0.1,0.2,0,0.2c0.3,0.1,0-0.2,0.1-0.3l0.2,0.3c0.2-0.2,0.3-0.5,0.5-0.7
								c0,0.1,0,0.2,0.1,0.3c0.1-0.2,0.3-0.2,0.5-0.3c0.2,0,0.4,0,0.6,0.1l0-0.3c0,0,0.1,0.1,0.1,0.2c0.2,0.1,0-0.2,0-0.3
								c0.1,0,0.1,0.1,0.1,0.2c0.1-0.3,0.5-0.7,0.8-0.4l0,0.1c0.2,0.1,0.1-0.6,0.4-0.4l0,0.1c0.4,0.1,0.9-0.2,1.2,0.3
								c0.1-0.4,0.4,0.2,0.5-0.4c0.2,0.3,0.1,0.4,0.4,0.7c0.1,0,0.2-0.3,0.3-0.4l-0.1,0.3l0.2-0.3l0,0.4l0.1-0.1c0,0,0-0.2,0-0.2
								c0.2-0.1,0.3,0.3,0.3,0.5l0.4-0.1c-0.1,0.1-0.1,0.1-0.2,0.2c0.3-0.2-0.1,0.3,0.2,0.1c0-0.1,0.1-0.2,0.1-0.2
								c0,0.2,0.2,0.3,0.4,0.3l-0.1,0.2c0.2,0.2,0.6,0.2,0.8,0.4c0-0.1,0.2-0.4,0.3-0.4l-0.1,0.3c0.2-0.1,0-0.2,0.2-0.3
								c0.1,0.1-0.1,0.4-0.3,0.4l0.2,0c0,0.1-0.1,0.1-0.2,0.2c0.2-0.1,0,0.4,0.3,0.2l-0.1,0.1c0.2,0.2,0.4,0.2,0.6,0.4
								c0.2-0.2,0.2-0.1,0.4-0.2c0.1,0.2,0.1,0.5,0.2,0.7c0.2,0,0.2-0.1,0.4-0.2c-0.2,0.2,0,0.3-0.2,0.4c0.2,0.2,0.3,0.2,0.6,0.4
								c0.1-0.1,0.1,0,0.2-0.1c0.1,0,0,0.4-0.1,0.4h0c0.6,0-0.2,1,0.4,1.1l0-0.1l0.4,0.2c0,0.2-0.2,0-0.3,0.1
								c0.5,0.2,0.1,0.5,0.4,0.7c-0.7,0.4,0.2,0.8-0.3,1.1l0.2,0c0.2,0.1-0.1,0.1-0.1,0.2c0.1,0,0.2-0.1,0.3,0
								c0.3,0.7-0.3,1.4-0.6,1.9c-0.1,0.2,0.8,0.4,0.4,0.6l-0.3-0.2c0.1,0.3,0,0.5-0.1,0.8c-0.1,0.2-0.2,0.4-0.2,0.7
								c-0.1-0.1-0.1-0.1-0.1-0.2c-0.3,0-0.2,0.3,0,0.4c-0.1,0.1-0.2-0.1-0.3-0.1c-0.2,0,0.1,0.4-0.1,0.3c0,0,0-0.1-0.1-0.1
								c0.1,0.1-0.2,0.2,0.1,0.3c-0.2,0.1-0.1,0.4-0.3,0.4c0.2,0.3-0.3,0.1,0,0.4c-0.3-0.3-0.5,0-0.4,0.2c-0.1-0.1-0.2,0-0.3-0.2
								c-0.1,0.1-0.1,0.2,0,0.4c-0.5-0.2-0.1,0.7-0.6,0.2c-0.2,0.4-0.4,0.8-0.7,1c-0.2-0.4,0.3-0.2,0.1-0.6
								c-0.2,0.3-0.2,0.7-0.6,0.8c-0.1,0,0-0.2,0-0.3c-0.2,0.3-0.6,0.2-0.8,0.5c0,0,0-0.1,0-0.1c-0.1,0-0.2,0-0.1,0.2l0-0.1
								c0.2,0.3-0.1,0.7,0,0.8c0-0.6-0.3-0.1-0.4-0.8c0,0-0.1,0.2,0,0.3c-0.1,0-0.1-0.1-0.1-0.3c-0.2,0.2-0.1,0.3-0.3,0.4
								c0-0.1,0-0.1,0-0.3c-0.1,0.2-0.1,0.4-0.3,0.4c0-0.1,0-0.1,0-0.1c-0.3,0.1-0.5,0.6-0.8,0.4c0.1-0.4-0.1-0.1-0.1-0.5l-0.2,0.1
								l0.1,0.2c-0.1,0-0.3,0.2-0.4,0.1l0.1-0.1l-0.3,0.1l0.2,0.1c-0.2,0.2,0,0.5-0.2,0.4c0,0-0.2,0-0.2-0.2l0,0
								c-0.1,0.1-0.2,0.2-0.3,0.1c0-0.1,0.1-0.4,0.1-0.5c-0.1,0.3-0.4,0-0.5,0.3c0-0.1,0.1-0.3,0.1-0.3l-0.1,0.2
								c-0.1-0.1-0.1-0.1,0-0.3c-0.2-0.1,0,0.5-0.2,0.2c0,0,0-0.1,0.1-0.1c-0.2-0.2-0.5,0-0.7-0.2c0.1-0.4,0.2,0,0.2-0.3
								c-0.3,0-0.8,0.2-1.1-0.1l0,0.1c-0.3,0.5-0.1-0.3-0.4-0.2c0.1,0,0.2-0.2,0.1-0.2c-0.1-0.2-0.4-0.1-0.8-0.2l0.1-0.1
								c0-0.2-0.2-0.3-0.3-0.4c-0.1,0.1-0.2,0-0.3,0.2c0.1-0.4-0.1-0.5-0.4-0.5c-0.2,0-0.5-0.1-0.4-0.5c0,0,0.2,0,0.1,0l-0.3-0.2
								c-0.2,0.2-0.1,0.1-0.2,0.3c-0.1,0.1-0.3,0.1-0.3,0c0.2,0,0.3-0.2,0.3-0.4c0,0.1-0.1,0.1-0.2,0.1c0.2-0.4-0.4,0.3-0.3-0.1
								l0.1-0.1c-0.1,0-0.3,0-0.3-0.1c0.2-0.2,0.2,0,0.3-0.1c-0.1-0.1-0.6,0.1-0.4-0.2c0.1,0,0.3,0.1,0.4,0.1
								c0.2-0.3,0.2-0.3,0.2-0.4v0l-0.1-0.3l-0.1,0.1c-0.7,0.2-0.3-0.2-0.8-0.2c0.5,0,0.2-0.1,0.5-0.2c0-0.1,0.1-0.2,0.2-0.2
								c-0.3,0,0.1-0.2-0.3-0.2c0.1,0,0-0.1,0.2-0.2c-0.1-0.1-0.1,0.1-0.3,0.1c-0.4-0.1,0.2-0.6-0.3-0.7c-0.3-0.2-0.6-0.2-0.8-0.4
								c0.1-0.1,0.4,0,0.4,0c0.1-0.2,0-0.3-0.1-0.4c0.1,0,0.2,0,0.3-0.1c0-0.1-0.4,0-0.2-0.2c0.1,0,0.3,0,0.4,0
								c-0.1-0.1-0.3-0.2-0.4-0.3c0.2-0.1,0.3,0,0.4,0.1c-0.1-0.1-0.2-0.3-0.5-0.4l-0.1,0.1c0-0.1,0.2,0,0.3,0
								c0.2,0.1-0.1,0.2-0.2,0.2l-0.1-0.1c-0.5,0.2,0.1,0.4,0.1,0.5l-0.4,0l0.4,0.1c-0.1,0.1-0.3,0.1-0.4,0.1
								c-0.2,0.2,0.2,0.1,0,0.3c0,0-0.1,0-0.1,0l0.2,0.1c-0.1,0-0.3,0.1-0.2,0c-0.2,0.3,0.4,0.3,0.1,0.5l0,0
								c0.2,0.3,0.3-0.1,0.7,0.1l-0.6,0.4l0.3-0.1c0,0,0,0.1-0.1,0.1c0.2,0.1,0.1-0.1,0.3-0.1c-0.2,0.3,0.3,0.4-0.1,0.6
								c0.2,0,0.1-0.2,0.3-0.1c-0.4,0.3,0.2,0.1,0,0.4c-0.3,0.1-0.2-0.1-0.3,0.1c0.4-0.1,0,0.3,0.2,0.4c0.3-0.2,0.3,0.2,0.5,0.3
								c-0.1,0.1,0.1,0.5,0.1,0.7l-0.1,0c0.3-0.2,0.4,0,0.5,0.1c-0.2,0.1-0.3,0.2-0.4,0.2l0.1,0.1c0.1,0,0.2-0.1,0.3,0l-0.2,0.2
								c0.2,0.1,0.5,0.1,0.6,0.4c0.2-0.2,0.4-0.6,0.7-0.6c-0.1,0.1-0.2,0.3-0.3,0.3c0,0,0.1,0,0.1,0l-0.2,0.1c0,0.2,0.2-0.1,0.2,0
								c-0.1,0.1,0,0.1-0.2,0.3c0,0,0-0.1-0.1-0.1c0.1,0.1,0.1,0.3,0,0.4c0.1-0.1,0.2-0.2,0.2-0.2c0.2,0.1-0.1,0.2-0.1,0.4
								c0.1-0.1,0.1,0.1,0.3-0.1c0,0,0,0.1-0.1,0.2c0.2,0,0.4,0.5,0.5,0.2l0,0.2c0,0,0,0,0,0l0-0.2l0-0.1c0.4,0,0.5,0.5,0.8,0.5
								l0,0.1c0.2,0,0.4,0.1,0.6,0c0.1,0,0,0.2,0,0.3c0.2,0,0.2-0.1,0.4,0.1c-0.2,0.1,0,0.2-0.2,0.1c0.2,0.1,0.1,0.3,0.4,0.1
								c-0.2,0.2,0,0.4,0.2,0.3l-0.1-0.2c0.1,0,0.2,0.1,0.3,0.1l-0.1,0.3c0.3,0.5,0.9-0.5,1.1,0.3c0.2-0.2-0.2-0.2,0-0.4
								c0.2,0.1,0.3,0.6,0.4,0.6c0.2,0.2,0.3-0.4,0.6-0.3c0-0.1,0-0.4,0.2-0.5c0.2,0.1,0.2,0.5,0.1,0.6c0,0-0.1,0-0.1-0.1
								c-0.1,0-0.2,0.1-0.1,0.2l0-0.1c0.1,0.1,0.4,0.1,0.3,0.3c0.2-0.1,0.1-0.2,0-0.3c0.2,0.2,0.4,0,0.7,0.1c0-0.1-0.1-0.2,0-0.2
								c0.4,0.1,0.2-0.2,0.4-0.3c0.2,0.2,0,0.4,0.2,0.3c0.2,0.1,0.1,0.3,0,0.4c0.2-0.2,0.5,0.1,0.6,0.1l-0.1,0.1
								c0.1-0.1,0.1-0.1,0.2-0.1l-0.1-0.2c0.1,0,0.1,0,0.2,0.1c0.1-0.2-0.1-0.4,0-0.6c0.1,0.1,0.3-0.2,0.4,0.1
								c-0.3,0,0.1,0.3-0.2,0.4c0,0,0.1-0.1,0.2,0c0,0,0,0.1,0,0.1c0.4,0.2,0.1-0.4,0.4-0.4c0,0.2,0.2,0.3,0.2,0.3
								c-0.1,0-0.1-0.3-0.1-0.4c0.2,0.1,0.2-0.2,0.3-0.2l-0.1,0c0-0.2,0.1-0.2,0.2-0.3c0.1,0.1-0.1,0.1,0,0.2c0-0.3,0.4,0.2,0.5-0.1
								c0.1,0.1,0.1,0.3,0.2,0.4c0.1-0.3,0.3,0.1,0.5-0.2c-0.2-0.2-0.2-0.1-0.1-0.4l-0.3,0.3l0.1-0.4c-0.1,0-0.2,0.3-0.3,0.2
								c0-0.2,0-0.2-0.1-0.3c0.3,0.3,0.2-0.3,0.5-0.2l0.3,0.5c0.4,0.1,0.3-0.5,0.7-0.6l-0.2,0c-0.1-0.2,0.2-0.1,0.2-0.3
								c0.1,0.2,0.2,0.2,0.3,0.3c-0.1-0.1,0.2-0.2,0-0.5l0.3,0.1c0.3-0.1-0.1-0.6,0.2-0.8c0.1,0.2,0.3,0.2,0.2,0.5
								c0.1-0.1,0.2-0.1,0.1-0.2c0.1,0.1,0-0.4,0.2-0.3c0-0.1-0.2-0.2-0.1-0.3c0,0,0.1,0.1,0.1,0.1c-0.1-0.1,0-0.2-0.2-0.3
								c0.6,0.2,0.5-0.6,1.1-0.5c0.1-0.2,0.2-0.4,0.3-0.6c0,0,0.1,0.1,0,0.1c0.3-0.1-0.4-0.4-0.1-0.6c0.3,0,0.1,0.2,0.2,0.2
								c0.6,0.3,0.1-0.3,0.5-0.3l0,0.1c0.3,0,0-0.5,0.1-0.7c0,0,0,0,0.1,0c-0.2-0.3-0.2-0.6-0.2-0.9c0.2,0.2,0.1,0.1,0.3,0.2
								c0-0.1-0.4-0.1-0.4-0.3c0.2,0,0.3-0.1,0.6-0.1c0,0-0.1,0.2-0.1,0.2c0.4,0,0.1-0.3,0.2-0.3l0.1,0.1c0-0.3-0.3-0.4-0.2-0.7
								l-0.1,0c-0.3-0.2,0.2-0.1,0-0.3l0.4,0c-0.1-0.1-0.3-0.5-0.4-0.7c0.3,0.1,0.4,0.4,0.5,0.6c0-0.1,0-0.4-0.1-0.5
								c0,0.1,0.1,0.1,0,0.2c-0.3-0.2-0.4-0.4-0.4-0.6c0.8,0.1,0.2-0.6,0.8-0.8c-0.3-0.4,0.1-0.9-0.1-1.4c-0.6,0.3,0-0.1-0.6,0
								c-0.1-0.1-0.1-0.1,0-0.2l0.3-0.4c0.1-0.1,0.2,0.1,0.3,0c0-0.3,0.2-0.2,0.3-0.4c-0.2,0.1-0.3,0-0.3-0.2l-0.2,0.3
								c-0.4-0.3,0.4-0.5,0-0.7l0.2,0c-0.2-0.1-0.2-0.7-0.8-0.7c0-0.1,0.2-0.2,0.3-0.1c-0.1-0.5-0.9-0.6-0.9-1.1l0.1-0.1
								c-0.1,0-0.3,0-0.2-0.1c0.1,0,0.1-0.1,0.1-0.1c-0.1,0-0.3,0-0.3-0.2l0.2,0c-0.1-0.5-0.7-0.3-1-0.5c0.3-0.3,0.2-0.7,0.1-0.8
								l0,0c-0.4-0.4-0.9-0.3-1.4-0.5c0-0.6-0.7-0.7-1-1.2c0,0.1-0.2,0.3-0.3,0.3c-0.1-0.1-0.4,0.1-0.2-0.2l0,0
								c0.1-0.4-0.2-0.4-0.3-0.5l-0.2,0.5c-0.1-0.4-0.4-0.5-0.7-0.5c-0.3,0-0.6,0-0.6-0.3c-0.1,0.1-0.3,0.1-0.4,0.2l0.1-0.3
								c-0.3-0.1-0.5-0.2-0.9-0.2l0.1-0.2c-0.2,0-0.3,0.8-0.5,0.8l0-0.4c-0.4,0-0.8-0.4-1.1,0c0-0.1,0-0.2,0.1-0.2
								c-0.2,0-0.7-0.2-0.6,0.4c-0.1-0.4-0.4,0-0.6,0.2l0-0.3c-0.1,0.4-0.1,0.5-0.3,0.6c-0.1,0-0.1-0.2,0-0.2
								c-0.2-0.1-0.1,0.3-0.3,0.2l0-0.2c-0.2,0-0.2,0.1-0.2,0.3c-0.1,0.1-0.4,0.1-0.5-0.2c0,0.2,0,0.4-0.1,0.3c0-0.1,0-0.2,0-0.2
								c-0.4-0.1-0.3,0.5-0.6,0.3c0-0.1-0.1-0.1-0.1-0.1c0.2-0.1,0.4-0.2,0.4-0.2c-0.1-0.2-0.3-0.2-0.3-0.6
								c-0.1,0.3-0.2,0.8-0.4,0.7c0,0,0,0-0.1-0.1l0,0c-0.1,0-0.1,0-0.1,0.1c-0.1,0-0.1,0-0.2,0c-0.1-0.2-0.3,0-0.4,0.1
								c0.2,0.2,0,0.3,0.2,0.4c0,0,0,0,0.1-0.1c0,0,0,0,0,0l0,0c0.1,0,0.1-0.1,0.2-0.1c0,0.2,0,0.3-0.2,0.2c0,0.2,0.1,0.4,0.1,0.5
								c-0.3-0.3-0.7-0.3-0.8-0.5c-0.2,0.3-0.6,0.5-0.4,1.1c0,0.1-0.2,0-0.3-0.1c0-0.1,0.1-0.1,0-0.2c0,0.2-0.4,0.4-0.1,0.7
								c-0.3,0-0.1-0.3-0.3-0.1l-0.1-0.1c-0.4,0-0.4,0.4-0.4,0.7c0,0.3,0,0.6-0.5,0.7c0.1,0,0.1,0,0.2,0c-0.7,0.5-0.5,1.4-1.2,1.9
								c-0.2,0.2,0,0.3,0.2,0.4l-0.3,0l0.3,0.3c0.2,0.3-0.9,0.3-0.5,0.8l0.2,0c-0.1,0.1,0.1,0.4-0.2,0.4c0,0,0.2,0.1,0.1,0.1l-0.2,0
								c0,0,0.2,0.4,0.2,0.4c-0.1,0.3-0.6-0.1-0.7,0.3c0.1,0.2,0.4,0.4,0.5,0.4c0-0.1,0.1-0.1,0.3-0.1l0.1,0.1
								c0.5,0,0.9,0.1,1.3-0.2l-0.3-0.2l0.2,0l0,0.2c0.2-0.1,0-0.1-0.1-0.2c0.1,0,0.2,0,0.3-0.1l-0.4-0.2c0.2,0,0.3,0.1,0.5,0
								c-0.2-0.1-0.4,0-0.5-0.1c0.2-0.1,0.4,0,0.2-0.1c0.1,0,0.2,0,0.2,0.1c-0.1-0.1,0-0.2-0.3-0.3c0.3,0,0-0.3,0.4-0.2
								c-0.1,0-0.3-0.2-0.3-0.3c0.5,0.3,0.1-0.3,0.6-0.1c-0.4-0.2-0.1-0.4-0.2-0.7c0,0,0.1,0.1,0.1,0.1c0.1-0.1,0.2-0.1,0.3-0.1
								c-0.4-0.2-0.4-0.4-0.5-0.6c0.4,0,0.4,0.3,0.7,0.4c-0.3-0.1-0.2-0.3-0.4-0.4c0.3,0,0.1,0,0.5,0.1c-0.4-0.2,0-0.1-0.2-0.3
								c0.3,0,0.4,0.2,0.4,0C72.3,95,72.4,95.3,72.4,95.3z M74.7,92L74.7,92C74.7,92,74.7,92,74.7,92C74.7,92,74.7,92,74.7,92z
								 M75,91.8c0,0-0.1,0-0.1,0.1c-0.1-0.1-0.1-0.2,0-0.2C74.9,91.7,75,91.7,75,91.8z M73.4,90.5c0-0.1,0.1,0,0.1,0
								c0,0-0.1,0-0.1,0.1l0,0C73.4,90.6,73.4,90.5,73.4,90.5z"/>
							<path fill="#202020" d="M73.5,90.9C73.5,90.9,73.5,90.9,73.5,90.9C73.5,90.9,73.5,90.9,73.5,90.9L73.5,90.9L73.5,90.9z"/>
							<path fill="#202020" d="M73.1,105.6L73.1,105.6C73.1,105.6,73.1,105.6,73.1,105.6C73.1,105.6,73.1,105.6,73.1,105.6z"/>
							<polygon fill="#202020" points="79.7,91.8 79.7,91.8 79.7,91.8 							"/>
							<path fill="#202020" d="M72.2,103.5C72.2,103.4,72.2,103.4,72.2,103.5C72.2,103.4,72.2,103.4,72.2,103.5z"/>
							<path fill="#202020" d="M71.7,102.7l0-0.2C71.7,102.6,71.7,102.7,71.7,102.7z"/>
							<path fill="#202020" d="M71.5,102.1c0,0-0.1,0-0.1,0l0,0L71.5,102.1z"/>
							<path fill="#202020" d="M80.2,105.5C80.3,105.5,80.3,105.4,80.2,105.5C80.3,105.4,80.3,105.4,80.2,105.5z"/>
							<path fill="#202020" d="M77.3,106.4c0,0,0.1-0.1,0.1-0.1C77.3,106.2,77.3,106.2,77.3,106.4z"/>
							<polygon fill="#202020" points="82.8,103.6 82.8,103.6 82.8,103.6 							"/>
							<path fill="#202020" d="M77.5,106.3c-0.1-0.1-0.1,0-0.1,0C77.4,106.3,77.5,106.3,77.5,106.3z"/>
							<path fill="#202020" d="M70.8,99.4L70.8,99.4C70.8,99.4,70.8,99.4,70.8,99.4L70.8,99.4z"/>
							<path fill="#202020" d="M70.8,99.4L70.8,99.4C70.8,99.3,70.8,99.4,70.8,99.4z"/>
							<path fill="#202020" d="M70.7,99.3L70.7,99.3C70.8,99.3,70.8,99.3,70.7,99.3z"/>
							<path fill="#202020" d="M70.8,100.3l0.1,0C70.9,100.2,70.9,100.2,70.8,100.3z"/>
							<path fill="#202020" d="M70.9,100.5c0-0.1,0.2-0.2,0.1-0.3l-0.1,0C71.1,100.2,70.8,100.5,70.9,100.5z"/>
							<path fill="#202020" d="M70.1,102l0-0.3c-0.1,0.1-0.2,0.2-0.3,0.1C69.7,102.3,70.1,101.7,70.1,102z"/>
							<path fill="#202020" d="M70.3,102.8c-0.1-0.1-0.1,0.1-0.2,0.1C70.3,102.9,70.3,102.9,70.3,102.8z"/>
							<path fill="#202020" d="M74.5,106.7l-0.1,0.2C74.5,106.9,74.5,106.8,74.5,106.7z"/>
							<polygon fill="#202020" points="76,105.8 75.9,105.7 75.8,105.9 							"/>
							<polygon fill="#202020" points="76.1,107.7 76.1,107.8 76.3,107.7 							"/>
							<path fill="#202020" d="M85.3,104.5l-0.3-0.2C85.1,104.4,85.3,104.7,85.3,104.5z"/>
							<path fill="#202020" d="M86.9,100.5c0.2,0,0.3-0.1,0.1-0.2C87,100.4,86.9,100.4,86.9,100.5z"/>
							<polygon fill="#202020" points="81.4,89.7 81.6,89.7 81.4,89.7 							"/>
						</g>
					</g>
				</g>
			</g>
		</g>
	</g>
</g>
</svg>
