<?xml version="1.0" encoding="utf-8"?>
<!-- Generator: Adobe Illustrator 18.0.0, SVG Export Plug-In . SVG Version: 6.00 Build 0)  -->
<!DOCTYPE svg PUBLIC "-//W3C//DTD SVG 1.1//EN" "http://www.w3.org/Graphics/SVG/1.1/DTD/svg11.dtd">
<svg version="1.1" id="Layer_1" xmlns="http://www.w3.org/2000/svg" xmlns:xlink="http://www.w3.org/1999/xlink" x="0px" y="0px"
	 viewBox="0 0 144 144" enable-background="new 0 0 144 144" xml:space="preserve">
<g>
	<g>
		<g>
			<g>
				<g>
					<g>
						<g>
							<path fill="#202020" d="M111.1,36.7c0-0.1-0.2-0.1-0.2,0.2l0.2,0.2L111.1,36.7z"/>
							<path fill="#202020" d="M110.4,38.5c0.1,0.3,0.2,0.8,0.4,0.6c-0.2-0.4-0.1-0.4-0.3-0.8c0-0.3,0.2-0.5,0.2-0.4
								c0-0.1,0.1-0.4,0-0.6c-0.2,0.3-0.3,0.8-0.3,1.3C110.5,38.6,110.4,38.5,110.4,38.5z"/>
							<path fill="#202020" d="M105.1,65.6l0.1-0.2C105.1,65.5,105.1,65.5,105.1,65.6z"/>
							<path fill="#202020" d="M101.9,82.4c0-0.1,0-0.2,0-0.2C101.9,82.3,101.9,82.4,101.9,82.4z"/>
							<path fill="#202020" d="M101.1,85.2c0-0.1,0-0.1,0-0.2C101.1,85.1,101.1,85.2,101.1,85.2z"/>
							<path fill="#202020" d="M105.1,65.6l-0.2,0.4C105,66.1,105,65.8,105.1,65.6z"/>
							<path fill="#202020" d="M110.3,42.3c0-0.1,0-0.2,0-0.3L110.3,42.3L110.3,42.3z"/>
							<path fill="#202020" d="M106.2,58.1l0-0.1c0,0,0-0.1-0.1-0.1L106.2,58.1z"/>
							<path fill="#202020" d="M107.2,52.4c0,0.1,0.2,0.2,0.2,0.3c-0.1-0.1-0.1-0.2-0.1-0.3C107.4,52.4,107.3,52.4,107.2,52.4z"/>
							<path fill="#202020" d="M109.2,43.4l0-0.2C109.2,43.3,109.2,43.4,109.2,43.4z"/>
							<path fill="#202020" d="M105.5,62.2C105.4,62.2,105.4,62.2,105.5,62.2C105.4,62.2,105.4,62.2,105.5,62.2z"/>
							<path fill="#202020" d="M34,43.3C34.1,43.3,34.1,43.3,34,43.3C34,43.3,34,43.3,34,43.3z"/>
							<path fill="#202020" d="M33.5,36.6L33.5,36.6c0.1,0.1,0.1,0.1,0.1,0.1L33.5,36.6z"/>
							<path fill="#202020" d="M99.9,90.4C99.9,90.4,99.9,90.4,99.9,90.4C99.9,90.3,99.9,90.4,99.9,90.4z"/>
							<path fill="#202020" d="M66.9,113.6c0.5,0.3-0.9,0.1-0.1,0.4C66.7,114,67.5,113.9,66.9,113.6z"/>
							<path fill="#202020" d="M110.2,42.5l0,0.2C110.2,42.6,110.2,42.5,110.2,42.5z"/>
							<path fill="#202020" d="M66.7,114L66.7,114L66.7,114C66.8,114.1,66.8,114.1,66.7,114z"/>
							<path fill="#202020" d="M97.8,102.6c0,0,0.1-0.1,0.1-0.1C97.9,102.5,97.9,102.5,97.8,102.6z"/>
							<path fill="#202020" d="M99.8,93.6l-0.1,0.2C99.7,93.7,99.7,93.7,99.8,93.6z"/>
							<path fill="#202020" d="M96.6,106.4c-0.1,0.1-0.2,0.1-0.3,0.2c0,0,0,0,0.1,0C96.5,106.5,96.5,106.4,96.6,106.4z"/>
							<path fill="#202020" d="M92.5,109C92.5,109,92.6,109,92.5,109c0.1,0,0.2-0.1,0.2-0.1L92.5,109z"/>
							<path fill="#202020" d="M37.5,58c0-0.1,0.1-0.2,0.1-0.3C37.5,57.8,37.3,57.2,37.5,58z"/>
							<path fill="#202020" d="M110.1,42.3c0,0,0.1,0.1,0.1,0.2C110.2,42.4,110.2,42.3,110.1,42.3C110.2,42.3,110.2,42.3,110.1,42.3
								z"/>
							<path fill="#202020" d="M97.4,107.8l-0.7,0.4C96.9,108.1,97.1,108,97.4,107.8z"/>
							<path fill="#202020" d="M45.5,92.7l-0.1-0.2C45.5,92.6,45.5,92.6,45.5,92.7z"/>
							<path fill="#202020" d="M94.7,109.5c-0.2,0-0.3,0.1-0.5,0.1c0,0,0,0.1-0.1,0.1L94.7,109.5z"/>
							<path fill="#202020" d="M37.6,57.7L37.6,57.7L37.6,57.7z"/>
							<path fill="#202020" d="M36,52.8c0.2,0.7,0.3,0.3,0.5,0.4c0.3,0.9-0.1,0.4-0.2,0.8c0.2,0.5,0.5,0.9,0.6,1.3c0,0,0,0.1-0.1,0
								c0.3,0.5,0.4,1.7,0.8,2.3c0,0.1,0,0.1,0,0.1c0.1-0.1,0.2-0.2,0.3-0.2c0.1,0.3,0.3,0.6,0.2,0.7c0-0.2-0.1-0.2-0.2-0.3l0.2,0.3
								c-0.2,0.4-0.2-0.5-0.4-0.4c0.2,0.7,0.6,1.4,0.7,1.9C38.2,60,38,58.7,38,59.4l-0.1-0.8c-0.2,0.7-0.1-0.5-0.4,0.2
								c0.2,1.1,0.4,1.1,0.6,2.2c0.2,0.2,0.2-0.1,0.4,0.1c0.6,1.4-0.3,1.3,0.2,2.3c0.2,0.2,0.5,0.3,0.6,1.1l-0.3-0.2
								c0.2,1,0.5,0.5,0.6,1.6c-0.1-0.2-0.3-0.8-0.3-0.6c-0.1,0.7,0.3,0.5,0.4,1l-0.2,0.2c0.3,1.1,0.7,2.2,1,3.4
								c-0.1-0.1-0.2-0.2-0.2,0.1c0.5,1.5,0.7,3.2,0.9,4.7l0.3,0.5c0,0.1,0,0.3-0.1,0.1c0.1,0.6,0.1,0,0.3,0.3
								c0.1,0.3,0,0.5-0.1,0.3c0.4,1,1,2.8,1.1,3.9l-0.1-0.2c0.1,0.8,0.6,0.8,0.6,1.6L43,80.8c0.3,1.8,1,3.7,1,5.2
								c0.4,0.2,0.3,1.8,0.7,1.8c0,1.1-0.1,0.8,0.1,2.2c0.1,0.4,0.4,0.5,0.5,1l-0.2,0.1l0.4,0.6l-0.2,0.4l0.2,0.4
								c0-0.2,0-0.4,0.1-0.4c0.3,0.7,0.2,1.7,0.1,1.8l0.6,1.6c-0.1,0-0.2-0.3-0.3-0.5c0.4,0.8-0.2,0.2,0.2,1c0-0.1,0.1,0,0.2,0
								c0,0.4,0.2,1.3,0.4,2l-0.2-0.1c0.2,1.2,0.7,2.5,1,3.9c0-0.5,0.2-0.5,0.4-0.1l-0.2,0.2c0.2,0.2,0-0.4,0.3,0.1
								c0.1,0.5-0.2,0.4-0.3,0.1l0.2,0.6c-0.1,0.1-0.1-0.1-0.2-0.1c0.2,0.2,0,1.1,0.3,1.4l-0.1,0.1c0.2,0.7,0.3,1.2,0.4,1.6l0.1,0.4
								l0.1,0.3c0,0.1,0,0.1,0,0.2l0.1,0.1c0.1,0.1,0.3,0.3,0.5,0.4c0.1,0.1,0.2,0.2,0.3,0.3c0.1-0.1,0.5,0.2,0.8,0.3
								c0.6,0.6,1.3,1.3,2.2,1.8c0.7,0.3,0.3,0,0.6,0.1c-0.1,0.2,0.8,0.7,0.3,0.5c1.1,0.6,1.4,0.8,2.8,1.4c-0.1-0.1-0.3-0.3-0.2-0.3
								c0.3,0.1,0.5,0.4,0.5,0.4l-0.1,0c1.7,0.6,3.5,2.2,5,2.3l-0.1,0l1.4,0.2c0.6,0.2-0.4,0,0,0.3c0.8,0.1,1.4,0.2,1.9,0.4
								c0.6,0.1,1.1,0.3,1.7,0.3c0.9,0.7,3.5,0.5,4.8,0.9l-0.1-0.1c0.4-0.1,0.4,0.1,0.7,0.1c0-0.1-0.4-0.1-0.2-0.2
								c2.9,0,6.1,0,9.1-0.5c1.1-0.2,0.5-0.8,1.9-0.8l-0.3,0.3c1.1-0.4,2.1-0.8,3.2-1.1c1.1-0.4,2.1-0.8,3.1-1.3
								c-0.1,0.1-0.1,0.2-0.3,0.3c0.5,0,1.6-0.7,1.5-0.8c0.3-0.1,0.1,0.1,0.3,0.1c0.5-0.1,0.9-0.7,1.2-0.7c0,0-0.1,0.1-0.2,0.2
								c0.2-0.2,1.2-0.6,0.9-0.7c0.8-0.3,1.3-0.8,1.9-1.1c0.2-0.4,1.3-0.6,1.2-1c0.1,0.3,1.3-0.6,1.7-1c-0.1,0.2,0.4-0.2,0.3,0.1
								c0.5-0.3,0.9-0.7,0.7-0.8c0.2-0.1,0.4-0.2,0.6-0.3c0.1-0.2,0.1-0.4,0.2-0.7c0-0.3,0-0.3,0.1-0.5c0-0.1,0-0.2,0-0.4
								c0-0.5,0-0.9,0.3-1.2c0.1-1.7,0.3-3.3,0.5-4.8c0.3,0.1-0.3,1.7,0.1,1.7c0.1-1.5,0-2.3,0.3-3.8c0.1-0.4,0.1,0.2,0.1,0.4
								c0.1-1.5,0.5-2.8,0.6-4.1c0,0,0,0.2,0,0.3c0-0.3,0.2-0.6,0-0.6l0,0.3c-0.3,0.4-0.3-1.1-0.4-1.1c0.3,0.5,0.3-1.2,0.7-0.5
								c0-0.2,0-0.4-0.1-0.4c0.1-0.2,0.1-0.3,0.2,0c0.1-0.9-0.1-0.6,0-1.4c0.1,0,0.1,0.2,0.1,0.3c-0.1-0.4-0.1-0.9,0.1-1.6
								c0,0,0.1,0,0.1,0.2c0.2-1.2,0-2.1,0.4-3.4c0.2,0.4,0.2-0.4,0.5-0.4l0-0.7l-0.2,0.3c0.1-0.6,0-1.2,0.2-1.7l0,0.5l0.2-1.2
								l-0.2,0.6c0-0.6-0.3,0-0.1-0.8c0,0.2,0.1-0.6,0.3-0.9l0,0c0-0.3-0.1-0.6,0.1-1.1c0.1-0.1,0.3,0.1,0.3,0.1
								c-0.2-0.3,0.2-1.5,0-1.9c0,0.1,0.2,0.2,0.2,0.1l-0.1-0.3c0.1-0.3,0.1-0.3,0.2-0.2c0.2-0.9-0.4,0.2-0.1-0.8c0,0.1,0,0,0,0.2
								c0.3-1,0.2-2,0.5-2.9c0.3-0.2-0.1,0.8,0.2,0.6c0.2-1.4,0.2-2.9,0.5-4.2l-0.1,0.2c-0.3-0.2,0.4-0.9,0.3-1.6
								c0,0.2,0.2,0.2,0.1,0.2c0.2-0.9,0.2-1.9,0.4-3.2l0.1,0.2c0.2-0.5,0.3-1.4,0.4-1.9c-0.1-0.2,0-0.5-0.2-0.3
								c0.9-1.7,0.3-3.4,1.1-4.9c0,0.2,0,0.5,0,0.3l0.2-1.3c-0.2,0.1-0.1,0.2-0.3,0.4c-0.1-0.2-0.1-0.6,0-0.9c0,0.6,0.3,0,0.4-0.2
								c-0.1,0-0.1-0.1-0.1-0.1c0.4-0.6-0.3-0.2,0.1-1.1l0.1,0.1c0-0.4,0-0.7,0.1-1.1c0.2-0.1,0,0.4,0.2,0.4
								c0.1-0.5-0.2-1.1,0.1-1.6c0,0.2,0,0.6,0,0.8c0.3-0.5,0.3-0.6,0.4-0.9l0,0l0.3-0.9l-0.1,0.2c-0.4-0.8,0.2-1.4,0-2.4
								c0.1,0.9,0.1,0.2,0.3,0.3c0.1-0.2,0.2-0.6,0.3-0.5c-0.1-0.5,0.3-0.7,0.1-1.3c0.1,0,0.1-0.5,0.2-0.3c0-0.6-0.1,0.1-0.2,0
								c-0.1-0.9,0.6-2,0.6-3.3c0.1-1.1-0.1-1.3-0.1-2.3c0.2-0.3,0.2,0.3,0.2,0.3c0.2-0.5,0.3-0.9,0.3-1.5c0,0.1,0.1,0,0.2-0.1
								c0.1-0.4-0.2-0.3,0-0.8c0.1,0.1,0.2,0.2,0.2,0.5c0-0.5,0-1,0-1.5c0.1-0.1,0.1,0.3,0.2,0.5c0-0.6,0.2-1.5,0-1.7l-0.1,0.3
								c0-0.2,0.2-0.1,0.2,0.1c0.1,0.5-0.2,0.7-0.3,0.7l0-0.4c-0.5,0.3-0.2,1.4-0.3,2.1l-0.2-0.3l0.1,0.8c-0.1,0.1-0.3,0.2-0.3-0.1
								c-0.2,0.5,0,0.5-0.2,0.9c0,0,0,0,0,0l0,0.5c0-0.1-0.2,0-0.1-0.3c-0.3,0.9,0,1.5-0.3,1.8l0-0.1c-0.1,1.3,0.2,0.2,0.3,1.1
								l-0.6,0.5l0.2,0.2c0,0.1-0.1,0.4-0.2,0.3c0.1,0.5,0.1-0.1,0.2,0.2c-0.3,0.6-0.2,1.7-0.6,1.8c0.1,0.3,0.2-0.6,0.2,0.1
								c-0.4,0.1-0.1,0.8-0.3,1.3c-0.2-0.2,0-0.7-0.2-0.2c0.3,0.4-0.3,1.1-0.3,1.6c0.2,0.1-0.1,1.1-0.1,1.9
								c-0.1-0.1-0.4,1.5-0.6,2.2l0,0c0.2,0.2,0,0.9,0,1.5c-0.1,0-0.2-0.2-0.2-0.5l-0.1,0.5c0.1,0.1,0.1,0.3,0,0.7l-0.2-0.2
								c-0.1,0.7,0,1.4-0.3,2.3c0.2,0.1,0.6-0.6,0.6,0.3c-0.1,0-0.3,0-0.3-0.2c0,0.1,0,0.3,0,0.5L106,61c-0.1,0.4,0.1,0.2,0,0.6
								c-0.1,0-0.1,0.2-0.2,0.2c0-0.1,0.1-0.3,0.1-0.4c-0.1,0.4-0.3,0.8-0.4,0.9c0.1,0,0.2,0,0.2,0.3c-0.1,0.7-0.2,0.2-0.4,0.6
								c0.1,0.2-0.1,0.6,0.1,0.7c0,0.2-0.1,0.2-0.2,0.3c0,0.4-0.3,1.7,0,1.3l0-0.1c0,0,0,0,0,0.1l0,0l0,0c0,1.2-0.6,2.4-0.7,3.6
								l-0.1,0c0,0.7-0.2,1.6-0.2,2.1c0,0.2-0.2,0.5-0.3,0.4c0,0.5,0,0.6-0.2,1.4c0-0.6-0.1,0.2,0-0.6c-0.2,0.7-0.3,0.8-0.3,1.6
								c-0.1-0.3-0.3,0.5-0.3,0.8l0.2-0.5c0,0.4-0.1,0.7-0.2,1L103,75c-0.5,1.4,0,2.7-0.7,3.7c0.1,0.4,0.3-0.8,0.4-0.4
								c-0.2,0.6-0.6,1.3-0.6,1.5c-0.3,0.9,0.2,0.9-0.1,1.8c0.1-0.1,0.3-0.2,0.3,0.5c-0.1,0.7-0.5,0.7-0.5,0.3
								c0-0.2,0.1-0.2,0.1-0.2c0-0.2,0-0.5-0.1-0.3l0.1,0.1c-0.1,0.3-0.3,1.2-0.4,1c0,0.5,0.1,0.2,0.2-0.1c-0.3,0.8-0.2,1.3-0.5,2.2
								c0.1-0.1,0.2-0.2,0.2-0.1c-0.3,1.3,0.1,0.6-0.1,1.5c-0.2,0.5-0.3-0.2-0.3,0.7c-0.2,0.5-0.2,0.1-0.3-0.2
								c0,0.8-0.4,1.5-0.5,1.9l0-0.4c0,0.3,0,0.5-0.1,0.7l0.2-0.2c-0.1,0.2-0.1,0.4-0.2,0.4c0.1,0.3,0.3-0.1,0.4,0.4
								c-0.1,0.3-0.1,1-0.3,1.1c0.3-1-0.2,0.1-0.1-0.8c0,0.2,0,0.4-0.1,0.6c0,0,0,0,0-0.1c-0.4,0.9,0.2,0.5,0,1.5
								c-0.1-0.2-0.3,0.2-0.3,0.4c0.1-0.4,0.2-0.2,0.3,0.2c-0.2,0.6-0.1,0.7-0.1,1.1l0.1-0.4c0.1,0.2,0,0.5,0,0.9
								c-0.1,0,0-0.4-0.1-0.3c0.1,0.5-0.4,1.1-0.4,1.8c-0.1,0.3-0.2,0-0.3,0.3c0,0.8-0.3,0.8-0.3,1.7c0.2-0.2,0.2-0.3,0.2,0.4
								l0.1-1.4l0.1,0.9c0.1-0.4,0.1-0.9,0.1-1.1c0.1,0.4,0,0.4,0.2,0.2c-0.4,0.5-0.1,1.1-0.3,1.8l-0.4-0.1c-0.4,0.9-0.1,1.8-0.4,3
								l0.1-0.4c0.1,0.2-0.1,0.8-0.1,1.2c-0.1-0.1-0.2,0.2-0.3,0.3c0.1,0-0.2,0.9,0.1,1.1l-0.3,0.5c-0.1,0.5-0.1,0.8,0,1.1
								c0,0.1,0,0.3,0.1,0.4c0,0.1,0.1,0.3-0.1,0.4c0-0.1,0-0.1-0.1-0.2c-0.1,0,0-0.1-0.1-0.2c0,0.2-0.2,0.2-0.1,0.2
								c-0.1,0-0.6,0.7-0.9,0.7c-0.1,0.1,0,0.3-0.4,0.5c0,0,0-0.1,0-0.1c0,0.1-0.4,0.4-0.1,0.4c-1.1,0.2-2.4,1.5-3.4,1.7
								c-0.6,0.4-1.4,0.8-1.9,1.1c0-0.1,0-0.1,0.1-0.1c-0.9,0.3-0.3,0.6-1.3,0.9c-0.6,0,0.4-0.3,0.1-0.3c-0.3-0.4-1.1,0.6-1.8,0.6
								l0.1-0.1c-0.5,0.1-1.1,0.6-1.9,0.9c0,0,0-0.1,0-0.1c-0.5,0.5-1.5,0.8-2.3,1.2c0.2-0.3,0.3-0.2,0.1-0.3
								c-0.3,0.1,0.2,0.2-0.5,0.5c-0.3,0-0.8,0-0.9-0.2l0.7-0.2c-0.4-0.2-0.9,0.2-1.2,0.3l0-0.1c-1,0.3-1,0.6-2.1,0.8l0.1,0.1
								c-0.6,0.4-0.5-0.1-1.1,0.3l-0.2-0.3c-0.4,0.1-1.4,0.5-2.1,0.6c0.4-0.2,1.3-0.5,1.8-0.7c-0.4,0.1-1.4,0.2-1.6,0.4
								c0.2,0,0.4-0.1,0.5-0.1c-0.5,0.3-1.1,0.4-2,0.5c0.1-0.5-2.1-0.1-2.7-0.5c-1.4,0.1-2.8-0.2-4.5-0.5c0.5,0.5-0.5-0.1-0.5,0.4
								c-0.4,0-0.5-0.1-0.6-0.1l-1.1-0.5c-0.2-0.2,0.4,0,0.4-0.1c-0.8-0.2-0.3-0.3-0.8-0.5c0.1,0.2-0.3,0.1-0.8,0l0.6,0.4
								c-1.2-0.1-0.9-0.6-2.1-0.7l0.4,0c-0.3-0.1-0.8-0.2-1.4-0.4c-0.5-0.2-1.1-0.3-1.4-0.2c-0.1-0.1-0.2-0.3,0.1-0.2
								c-1.3-0.6-3.2-1-4.1-1.7l0.1,0c-0.3-0.1-0.5-0.1-0.8-0.3c0,0,0.1,0,0-0.1c-0.1,0-0.7-0.2-1-0.4l0.3,0.1
								c-1.2-0.8-2-0.9-3.1-1.6c0.2-0.2-0.7-1-1.1-1.4l0,0c-0.2-0.1-0.3-0.3-0.5-0.4l-0.2-0.2c-0.1-0.1,0,0-0.1,0c0,0,0,0-0.1-0.1
								l-0.2-0.5c-0.2-0.7-0.5-1.3-0.7-2.1c0.1-1-0.6-3.3-0.8-4.9c0,0.2-0.2,0-0.3-0.3c0-0.4-0.4-1-0.1-1l0,0.1
								c0.2-0.3,0-1.1-0.2-1.6l-0.4,0c0.2-1.6-1.1-3.9-0.8-4.9c-0.2-0.3-0.3-0.8-0.5-1.1l0.2,0c-0.2-1-0.3-1.5-0.6-2.8l0.2,0.2
								c-0.2-0.7-0.8-0.8-0.9-1.4l0.2-0.3c-0.3-1.2-0.3-2.5-0.9-3.7c0,0,0.1,0,0.2,0.2c-0.1-0.6-0.3-2.3-0.7-2
								c0.3-0.1-0.3-1.3-0.5-1.9l0.2,0.1c-0.4-0.5-0.4-0.5-0.7-1.3c0-0.2,0.1-0.2,0.1,0.1c0-0.6-0.3-0.4-0.4-1.2l0.2,0.3
								c-0.1-0.6-0.2-0.6-0.4-0.9c-0.2-0.4-0.2-1.2-0.1-1.4c-0.1-0.1-0.3-0.4-0.4-0.8c0.1-0.1,0.1,0.1,0.2,0.1
								c-0.1-1.1-0.6-1.5-0.6-2.3c0.1,0,0.1-0.1,0.1-0.2c0.2,0.8,0.3,1.5,0.3,1.5c0.2,0,0.1-0.7,0.4-0.2c-0.3-0.5-0.8-1.4-0.8-2.1
								c0,0,0-0.1,0-0.1l0,0.1c0-0.2-0.1-0.3-0.1-0.4c0-0.2,0-0.4-0.1-0.6c0.1-0.1-0.1-0.8-0.2-1.1c-0.2,0.1-0.3-0.4-0.3,0.1
								c0-0.1,0,0.1,0.1,0.3c0,0.1,0,0.1,0.1,0.1l0,0c0.1,0.2,0.1,0.5,0.2,0.8c-0.2-0.2-0.3-0.5-0.3-0.9c-0.2-0.1-0.3-0.3-0.4-0.4
								c0.2-0.5,0.1-1.5,0.2-1.6c-0.3-1-0.6-2.4-1.2-3c-0.1-0.3,0-0.4,0.1-0.5c0.1,0.2,0.1,0.4,0.2,0.4c-0.2-0.6-0.4-1.7-0.7-1.8
								c-0.1-0.8,0.3,0.4,0.1-0.7l0.1,0.1c-0.1-2.1-1.4-3.1-1.4-5.5c0,0.2,0,0.2,0,0.3c-0.4-2.6-1.4-5.2-1.6-7.8
								c-0.1-0.7-0.3-0.8-0.5-1.2l0.2-0.2L35.7,45c-0.4-1,0.1-2-0.6-3.2L35,42c-0.1-0.5-0.4-1.5-0.3-1.5c0,0-0.2-0.1-0.2-0.3l0.1,0
								L34.2,39c-0.1-0.9,0.5,0,0.2-1.3c-0.2-0.5-0.6-1.3-0.7-1.1c0,0.2,0.1,0.5-0.1,0.6l-0.2-0.4c-0.3,0-0.8-0.3-0.7,0.9l0.4,0.7
								l-0.1,0.3l-0.2-0.7c-0.1,0.4,0.1,0.6,0.3,0.9c-0.1,0.1-0.1,0.2-0.1,0.4l0.5,0.7c-0.1,0.1-0.3-0.3-0.3,0.2
								c0.2,0.3,0.2-0.4,0.4,0.2c-0.1,0.4-0.2,0.3,0,0.7c-0.1,0.1-0.1,0-0.2-0.2c0.2,0.4,0.3,1,0.5,1.2c-0.1,0.4,0.3,1.3,0,1.3
								c0.1,0.1,0.4,0.6,0.5,1c-0.5-0.6,0.3,1.3-0.1,1.3c0.4,0.4,0.5,1.7,0.9,2.5c0,0-0.1-0.1-0.1-0.2c0.1,0.5,0,0.7,0,1
								c0.3,0,0.5,0.7,0.8,1.1c-0.1,0.7-0.4-0.3-0.6,0c0.2-0.1,0.5,1,0.6,0.7c-0.1,0.5,0,0.4-0.2,0.7c0.4,0,0.2,0.4,0.4,0.7
								c0,0.7-0.3,0.2,0,0.9C36.3,53.4,36,52.8,36,52.8z M40.5,69.7L40.5,69.7c0-0.1-0.1-0.3-0.1-0.3C40.5,69.5,40.5,69.6,40.5,69.7
								z M40.9,71.2c0-0.2-0.1-0.4-0.1-0.6c0.1-0.1,0.1,0,0.2,0.1C40.8,70.6,40.9,71,40.9,71.2z M41.5,67.8c0.1,0.2,0.1,0.3,0,0.3
								C41.5,68.1,41.5,68,41.5,67.8l-0.1-0.1C41.4,67.8,41.5,67.8,41.5,67.8z"/>
							<path fill="#202020" d="M41.2,67.5C41.1,67.5,41.1,67.4,41.2,67.5C41.1,67.4,41.1,67.5,41.2,67.5l0,0.1
								C41.2,67.6,41.2,67.5,41.2,67.5z"/>
							<path fill="#202020" d="M105.2,65.4L105.2,65.4C105.2,65.4,105.2,65.4,105.2,65.4C105.2,65.4,105.2,65.4,105.2,65.4z"/>
							<polygon fill="#202020" points="45.1,91.1 45.1,91.1 45,91 							"/>
							<path fill="#202020" d="M107.3,57.5C107.3,57.5,107.3,57.5,107.3,57.5C107.3,57.4,107.3,57.5,107.3,57.5z"/>
							<path fill="#202020" d="M107.9,54.1l0.2-0.5C108,53.8,108,53.9,107.9,54.1z"/>
							<path fill="#202020" d="M108.5,51.4C108.5,51.4,108.5,51.4,108.5,51.4L108.5,51.4L108.5,51.4z"/>
							<path fill="#202020" d="M101.1,93.7c0,0,0,0.1,0,0.1C101.1,94,101.1,93.8,101.1,93.7z"/>
							<path fill="#202020" d="M102.9,81c0,0.1,0,0.3,0,0.4C103,81.2,103,81,102.9,81z"/>
							<polygon fill="#202020" points="97.4,107.8 97.4,107.8 97.4,107.8 							"/>
							<path fill="#202020" d="M102.8,82c0.1-0.2,0.1-0.4,0.1-0.6C102.9,81.6,102.8,81.8,102.8,82z"/>
							<path fill="#202020" d="M110.7,39.9l0-0.1c0,0,0,0,0,0L110.7,39.9z"/>
							<path fill="#202020" d="M110.7,39.8l0-0.1C110.7,39.7,110.7,39.8,110.7,39.8z"/>
							<path fill="#202020" d="M110.7,39.3l0,0.3C110.7,39.6,110.8,39.4,110.7,39.3z"/>
							<path fill="#202020" d="M110,43.4L110,43.4C110,43.5,110,43.5,110,43.4z"/>
							<path fill="#202020" d="M109.8,44.5c0.1-0.3,0.3-0.6,0.3-1l-0.1,0C110.1,43.7,109.7,44.3,109.8,44.5z"/>
							<path fill="#202020" d="M108.1,48.8l0.2-0.9c-0.1,0.1-0.2,0.3-0.2-0.1C107.7,48.9,108.4,47.6,108.1,48.8z"/>
							<path fill="#202020" d="M107.5,51.6c0.1-0.5-0.1,0-0.1,0C107.4,51.8,107.4,51.9,107.5,51.6z"/>
							<path fill="#202020" d="M103.9,71.6l-0.2-0.1C103.7,71.9,103.8,71.5,103.9,71.6z"/>
							<polygon fill="#202020" points="104.1,75.6 104.3,75.3 104.1,75.1 							"/>
							<polygon fill="#202020" points="102.4,77.6 102.4,77.5 102.4,78.1 							"/>
							<path fill="#202020" d="M93.2,108.4l0.2,0.1C93.6,108.4,93.5,108.1,93.2,108.4z"/>
							<path fill="#202020" d="M79.7,113.8c-0.2-0.1-0.6-0.1-0.8,0.1C79.2,113.9,79.6,113.9,79.7,113.8z"/>
							<polygon fill="#202020" points="47.7,94.5 47.8,94.8 47.6,94.3 							"/>
						</g>
					</g>
				</g>
			</g>
		</g>
		<g>
			<g>
				<g>
					<g>
						<g>
							<path fill="#202020" d="M111.2,36.4c-0.1-0.1-0.2-0.1-0.2,0.2c0,0,0.2,0.2,0.2,0.3c0,0,0-0.1,0-0.2
								C111.2,36.6,111.2,36.4,111.2,36.4z"/>
							<path fill="#202020" d="M110,37.8c-0.1,0.3-0.3,0.6,0,0.7c0.1-0.4,0.2-0.4,0.2-0.8c0.1-0.2,0.3-0.3,0.4-0.2
								c0-0.1,0.3-0.4,0.2-0.5c-0.3,0.3-0.5,0.6-0.7,1C110,38,110.1,37.9,110,37.8z"/>
							<path fill="#202020" d="M88,43l0.1,0C88.1,43,88,43,88,43z"/>
							<path fill="#202020" d="M73.8,43.5c0.1,0,0.2,0,0.2-0.1C73.8,43.5,73.7,43.5,73.8,43.5z"/>
							<path fill="#202020" d="M71.3,43.3c0.1,0,0.1,0,0.1,0C71.4,43.2,71.4,43.2,71.3,43.3z"/>
							<path fill="#202020" d="M88,43l-0.4,0C87.6,43,87.8,43,88,43z"/>
							<path fill="#202020" d="M107.6,40c0.1,0,0.1-0.1,0.2-0.1L107.6,40L107.6,40z"/>
							<path fill="#202020" d="M94.1,42.1l0.1,0c0,0,0.1-0.1,0.1-0.1L94.1,42.1z"/>
							<path fill="#202020" d="M98.9,41.3c-0.1,0-0.1,0.2-0.1,0.3c0-0.1,0.1-0.1,0.2-0.2C98.9,41.4,98.9,41.3,98.9,41.3z"/>
							<path fill="#202020" d="M106.3,39.7l0.1-0.1C106.4,39.7,106.3,39.7,106.3,39.7z"/>
							<path fill="#202020" d="M90.7,42.5C90.7,42.4,90.7,42.4,90.7,42.5C90.7,42.4,90.7,42.4,90.7,42.5z"/>
							<path fill="#202020" d="M106.9,32.2C106.9,32.2,106.9,32.2,106.9,32.2C106.9,32.2,107,32.2,106.9,32.2z"/>
							<path fill="#202020" d="M110.6,36.4L110.6,36.4c-0.1-0.1-0.1-0.1-0.1-0.1L110.6,36.4z"/>
							<path fill="#202020" d="M66.9,42.9C66.9,42.9,66.9,42.9,66.9,42.9C67.1,42.9,67,42.9,66.9,42.9z"/>
							<path fill="#202020" d="M37.8,33.8c-0.5,0,0.6-0.5-0.1-0.4C37.7,33.5,37.2,33.9,37.8,33.8z"/>
							<path fill="#202020" d="M107.5,40.1l-0.2,0.1C107.4,40.1,107.4,40.1,107.5,40.1z"/>
							<path fill="#202020" d="M37.7,33.4L37.7,33.4L37.7,33.4C37.6,33.4,37.6,33.4,37.7,33.4z"/>
							<path fill="#202020" d="M56.7,42.5C56.8,42.5,56.8,42.6,56.7,42.5C56.8,42.6,56.8,42.5,56.7,42.5z"/>
							<path fill="#202020" d="M64.3,43.2l-0.2,0C64.2,43.2,64.3,43.2,64.3,43.2z"/>
							<path fill="#202020" d="M52.8,42.4c-0.1,0-0.1-0.1-0.3,0c0,0,0,0,0,0C52.6,42.3,52.7,42.3,52.8,42.4z"/>
							<path fill="#202020" d="M48.7,41.9C48.7,41.9,48.8,41.9,48.7,41.9c0.1,0.1,0.2,0.1,0.2,0.1L48.7,41.9z"/>
							<path fill="#202020" d="M94.5,29.4c0.1,0.1,0.1,0.1,0.2,0.2C94.6,29.5,95.2,29.5,94.5,29.4z"/>
							<path fill="#202020" d="M107.5,39.9c0,0.1,0,0.1-0.1,0.1L107.5,39.9C107.6,40,107.6,39.9,107.5,39.9z"/>
							<path fill="#202020" d="M52.4,43.9l-0.7-0.1C52,43.9,52.2,43.9,52.4,43.9z"/>
							<path fill="#202020" d="M64.8,28.2l0.2,0C64.9,28.2,64.9,28.2,64.8,28.2z"/>
							<path fill="#202020" d="M49.8,43.6c-0.1-0.1-0.2-0.1-0.3-0.2c0,0-0.1,0-0.1,0L49.8,43.6z"/>
							<path fill="#202020" d="M94.7,29.7L94.7,29.7L94.7,29.7z"/>
							<path fill="#202020" d="M99,29.9c-0.6-0.1-0.3,0.2-0.5,0.3c-0.8-0.1-0.3-0.3-0.5-0.4c-0.5,0-0.9,0.2-1.2,0.1
								c0,0-0.1-0.1,0-0.1c-0.5,0.1-1.5-0.2-2.1,0c0,0-0.1-0.1-0.1-0.1c0.1,0.1,0.1,0.3,0,0.4c-0.3,0-0.5,0.1-0.6-0.1
								c0.2,0,0.2,0,0.3-0.1l-0.3,0c-0.2-0.3,0.4,0,0.4-0.2c-0.6,0-1.3,0.1-1.7,0c-0.1-0.3,1,0,0.5-0.2l0.7,0.2
								c-0.5-0.4,0.4,0.1,0-0.4c-0.9-0.2-1,0-1.9-0.2c-0.2,0.1,0,0.2-0.2,0.3c-1.3,0.1-0.9-0.7-1.9-0.5c-0.3,0.1-0.4,0.4-1,0.2
								l0.3-0.2c-0.9-0.1-0.5,0.3-1.4,0.1c0.2-0.1,0.7,0,0.6-0.1c-0.6-0.3-0.4,0.1-0.9,0.1l-0.1-0.2c-0.9,0-2,0.1-3,0
								c0.1-0.1,0.2-0.1,0-0.2c-1.3,0-2.7-0.2-4-0.4l-0.5,0.2c-0.1,0-0.2-0.1-0.1-0.1c-0.5-0.1,0,0.1-0.3,0.2
								c-0.3,0-0.4-0.1-0.2-0.2c-0.9,0.1-2.4,0.3-3.3,0.1l0.2-0.1c-0.7-0.1-0.8,0.4-1.4,0.2l0.1,0c-1.5-0.1-3.2,0.1-4.4-0.2
								c-0.2,0.3-1.5-0.1-1.6,0.3c-0.9-0.2-0.6-0.3-1.9-0.4c-0.3,0-0.5,0.3-0.9,0.3l0-0.2l-0.5,0.2l-0.3-0.3L65,28.2
								c0.2,0,0.3,0.1,0.3,0.2c-0.6,0.1-1.4-0.1-1.5-0.2l-1.4,0.2c0-0.1,0.3-0.1,0.4-0.2c-0.7,0.3-0.1-0.2-0.8,0
								c0.1,0,0,0.1-0.1,0.2c-0.3-0.1-1.1-0.1-1.7,0l0.1-0.2c-1,0-2.2,0.2-3.4,0.3c0.4,0,0.3,0.3,0,0.4l-0.2-0.2
								c-0.2,0.2,0.4,0.1-0.1,0.3c-0.4,0-0.3-0.2-0.1-0.3l-0.5,0.1c0-0.1,0.1-0.1,0.1-0.2c-0.2,0.2-0.9-0.2-1.2,0.1l0-0.1
								c-1.2,0.1-1.7,0.2-2.6,0.4c0,0.2-0.4,0.2-0.6,0.4c-0.7,0-1.5,0-2.3,0.1c-0.6,0.2-0.1,0.2-0.4,0.3c-0.1-0.2-0.9,0-0.5-0.2
								c-1,0.2-1.3,0.2-2.5,0.6c0.2,0,0.3,0.1,0.2,0.1c-0.2,0.1-0.5,0-0.5-0.1l0.1,0c-1.4,0.5-3.4,0.1-4.4,0.8l0.1,0
								c0,0-0.3,0.1-0.6,0.2c-0.3,0.1-0.6,0.3-0.6,0.3c-0.5,0.1,0.3-0.2-0.1-0.2c-1.2,0.6-2,0.5-2.9,1.1c-0.5-0.1-1.2,0.2-1.9,0.6
								c-0.7,0.4-1.4,0.9-2,1.3l0.1,0c-0.1,0.4-0.4,0.2-0.5,0.5c0.1,0,0.3-0.3,0.2,0l-0.3,0.5c-0.1,0.2-0.2,0.4-0.2,0.6
								c-0.1,0.4-0.1,1,0.1,1.4c0.3,0.8,0.9,1.4,1.4,1.8c1.1,0.9,2.3,1.5,3.5,2c0.9,0.3,0.7-0.4,1.7,0.2L39,41.4
								c1.9,0.3,3.7,1,5.5,1.1c-0.1,0-0.1,0.1-0.3,0.1c0.3,0.2,1.4,0.3,1.4,0.1c0.3,0.1,0,0.1,0.2,0.2c0.4,0.2,1-0.1,1.1,0.1
								c0,0-0.1,0-0.2,0c0.3,0,1.1,0.2,0.9,0c0.7,0.2,1.3,0.1,1.8,0.3c0.4-0.2,1.1,0.3,1.3,0c-0.1,0.3,1.1,0.4,1.6,0.3
								c-0.2,0.1,0.4,0.1,0.2,0.3c0.5,0,0.9,0,0.9-0.1c0.8,0.5,1.8-0.1,2.3,0.4c1.4,0,2.8-0.1,4.1,0c-0.1,0.3-1.4-0.1-1.4,0.3
								c1.2,0,2-0.3,3.2-0.1c0.3,0.1-0.2,0.1-0.3,0.2c1.2-0.1,2.4,0.2,3.5,0c0,0-0.1,0.1-0.2,0.1c0.2,0,0.5,0.1,0.5-0.1l-0.2,0
								c-0.3-0.2,0.9-0.4,0.9-0.5c-0.4,0.4,1.1,0.1,0.5,0.6c0.1,0,0.3-0.1,0.3-0.2c0.2,0,0.3,0.1,0.1,0.2c0.8-0.1,0.5-0.2,1.2-0.2
								c0,0.1-0.1,0.1-0.2,0.2c0.4-0.1,0.7-0.3,1.3-0.2c0,0,0,0.1-0.1,0.1c1,0,1.7-0.3,2.8-0.2c-0.3,0.3,0.4,0.1,0.4,0.4l0.6-0.1
								l-0.2-0.1c0.5,0,1-0.2,1.4-0.1l-0.4,0.1l1-0.1l-0.6-0.1c0.5-0.1-0.1-0.3,0.6-0.3c-0.1,0,0.5,0,0.8,0.1l0,0
								c0.3-0.1,0.5-0.2,0.9-0.1c0.1,0.1-0.1,0.3,0,0.3c0.2-0.2,1.2-0.1,1.5-0.3c-0.1,0.1-0.1,0.2-0.1,0.2l0.2-0.2
								c0.2,0.1,0.3,0.1,0.2,0.2c0.7,0-0.2-0.3,0.6-0.2c-0.1,0,0,0-0.2,0.1c0.9,0,1.7-0.2,2.5-0.1c0.2,0.3-0.7,0.1-0.4,0.3
								c1.1-0.1,2.4-0.4,3.5-0.4l-0.2,0c0.1-0.4,0.8,0.1,1.4-0.1c-0.1,0-0.2,0.2-0.1,0.2c0.8,0,1.5-0.2,2.7-0.4l-0.1,0.1
								c0.5,0,1.2-0.1,1.7-0.1c0.1-0.1,0.4-0.1,0.2-0.2c1.5,0.4,2.8-0.6,4.2-0.3c-0.2,0-0.4,0.1-0.2,0.1l1.1-0.2
								c-0.1-0.2-0.2-0.1-0.4-0.2c0.1-0.1,0.4-0.2,0.7-0.3c-0.5,0.2,0,0.3,0.3,0.3c0,0,0-0.1,0-0.2c0.6,0.2,0.1-0.3,0.9-0.3l0,0.1
								c0.3-0.1,0.5-0.2,0.9-0.3c0.2,0.2-0.3,0.1-0.3,0.3c0.5-0.1,0.8-0.5,1.3-0.4c-0.2,0.1-0.5,0.1-0.6,0.2
								c0.5,0.1,0.5,0.1,0.9,0.1l0,0l0.8,0l-0.2,0c0.5-0.6,1.1-0.3,1.8-0.8c-0.7,0.4-0.1,0.2-0.1,0.4c0.2,0,0.5,0,0.4,0.1
								c0.3-0.2,0.6,0,1.1-0.4c0,0.1,0.4-0.1,0.3,0.1c0.5-0.2-0.1-0.1-0.1-0.2c0.7-0.4,1.7-0.1,2.7-0.7c0.8-0.4,0.9-0.7,1.7-1.1
								c0.3,0-0.1,0.3-0.1,0.3c0.5-0.1,0.8-0.2,1.2-0.4c-0.1,0.1,0,0.1,0.2,0.1c0.3-0.2,0.1-0.3,0.6-0.4c0,0.1-0.1,0.3-0.2,0.4
								c0.4-0.2,0.7-0.5,1-0.8c0.2,0-0.1,0.3-0.2,0.4c0.4-0.3,1.1-0.8,1.1-1l-0.3,0.1c0.1-0.1,0.2,0.1,0.1,0.2
								c-0.3,0.4-0.6,0.3-0.6,0.2l0.2-0.2c-0.5-0.2-1,0.7-1.6,0.9l0.1-0.4l-0.5,0.5c-0.2,0-0.3-0.1,0-0.3c-0.4,0-0.3,0.2-0.7,0.2
								c0,0,0,0,0-0.1l-0.4,0.2c0.1-0.1-0.1-0.2,0.1-0.2c-0.8,0.1-1.1,0.6-1.4,0.5l0.1,0c-1,0.4,0,0.2-0.7,0.7l-0.7-0.4l0,0.2
								c-0.1,0-0.3,0.1-0.3,0c-0.4,0.2,0.1,0.1-0.1,0.3c-0.6-0.1-1.4,0.4-1.6,0.1c-0.1,0.2,0.5,0,0,0.2c-0.2-0.3-0.6,0.2-1.1,0.1
								c0.1-0.2,0.6-0.2,0.1-0.3c-0.2,0.4-0.9,0.1-1.3,0.3c0,0.3-0.8,0.3-1.5,0.5c0-0.1-1.3,0.1-1.9,0.1l0,0
								c-0.1,0.3-0.7,0.3-1.2,0.4c0-0.2,0.1-0.2,0.3-0.3l-0.4,0.1c-0.1,0.1-0.2,0.2-0.5,0.2l0.1-0.2c-0.6,0.1-1.1,0.4-1.9,0.3
								c0,0.2,0.7,0.4-0.1,0.6c0-0.1-0.1-0.3,0.1-0.3c-0.1,0-0.2,0.1-0.4,0.1l0.3-0.2c-0.4,0-0.2,0.2-0.4,0.2c0-0.1-0.2-0.1-0.2-0.2
								c0.1,0,0.2,0,0.3,0c-0.3,0-0.7,0-0.8-0.1c0,0.1,0,0.2-0.2,0.2c-0.6,0.1-0.2-0.1-0.6-0.2c-0.1,0.1-0.5,0-0.5,0.3
								c-0.2,0-0.2-0.1-0.3-0.1c-0.3,0.1-1.4,0.2-1,0.3l0.1,0c0,0,0,0,0,0l0,0l0,0c-1,0.3-2.1,0.1-3.1,0.2l0-0.1
								c-0.6,0.1-1.3,0.1-1.7,0.3c-0.2,0-0.4-0.1-0.3-0.2c-0.4,0.1-0.5,0.2-1.2,0.1c0.4-0.1-0.2-0.1,0.5-0.1c-0.6,0-0.7-0.1-1.3,0.1
								c0.2-0.2-0.5-0.2-0.7-0.1l0.4,0.1c-0.3,0-0.6,0-0.9,0l0.1-0.2c-1.2-0.2-2.1,0.6-3.1,0.1c-0.3,0.2,0.7,0.1,0.4,0.3
								c-0.6,0-1.1-0.3-1.3-0.3c-0.8-0.1-0.7,0.4-1.5,0.3c0.1,0.1,0.2,0.3-0.4,0.4c-0.6,0-0.7-0.3-0.3-0.4c0.1,0,0.2,0,0.2,0
								c0.2,0,0.4-0.1,0.2-0.2L74,43.4c-0.3-0.1-1-0.1-0.9-0.2c-0.4,0.1-0.2,0.1,0.1,0.2c-0.7-0.1-1.1,0-1.8-0.1
								c0.1,0,0.2,0.1,0.1,0.1c-1.1-0.1-0.5,0.2-1.2,0.2c-0.4-0.1,0.2-0.3-0.6-0.2c-0.4-0.1-0.1-0.2,0.1-0.3
								c-0.7,0.2-1.2-0.1-1.6-0.2l0.4-0.1c-0.2,0-0.4,0-0.6,0l0.2,0.2c-0.2,0-0.4,0-0.4-0.1c-0.2,0.1,0.2,0.3-0.3,0.4
								c-0.3-0.1-0.8,0.1-0.9-0.2c0.9,0.1-0.1-0.2,0.6-0.2c-0.1,0-0.3,0-0.5,0c0,0,0,0,0.1-0.1c-0.8-0.2-0.4,0.2-1.2,0.2
								c0.1-0.1-0.2-0.2-0.3-0.2c0.3,0,0.2,0.2-0.2,0.3c-0.5-0.1-0.6,0.1-0.9,0l0.3,0.1c-0.1,0.1-0.4,0.1-0.8,0.1
								c0-0.1,0.3-0.1,0.2-0.1c-0.4,0.2-0.9-0.3-1.5-0.1c-0.3-0.1,0-0.2-0.3-0.3c-0.7,0.1-0.7-0.2-1.4-0.1c0.2,0.2,0.2,0.1-0.3,0.3
								l1.1-0.1L61,43.2c0.3,0,0.7-0.1,0.9,0c-0.4,0.1-0.3,0.1-0.2,0.2c-0.5-0.3-0.9,0.1-1.5-0.1l0-0.4c-0.8-0.2-1.5,0.1-2.5-0.1
								l0.3,0.1c-0.2,0.2-0.7,0-1,0c0-0.1-0.2-0.2-0.3-0.3c0,0.1-0.8-0.1-0.9,0.2l-0.5-0.2c-0.8-0.2-1,0.3-1.8,0.2
								c0.3-0.1-0.1-0.3,0.5-0.3c-0.3,0-0.5-0.1-0.5,0c-0.2-0.1-0.8,0.1-1-0.1c-0.1,0-0.2,0.2-0.5,0.1c0,0,0-0.1,0-0.1
								c0,0.1-0.5,0-0.2,0.2c-0.8-0.5-2.4-0.3-3-0.8c-0.6,0-1.3-0.1-1.9-0.2c0,0,0-0.1,0.1,0c-0.7-0.3-0.5,0.3-1.3,0
								c-0.4-0.3,0.5,0,0.2-0.2c0-0.5-1-0.1-1.5-0.5l0.1,0c-0.4-0.2-1.1,0-1.8-0.2c0,0,0,0,0-0.1c-0.5,0.1-1.5,0-2.1-0.2
								c0.3-0.1,0.3,0,0.2-0.2c-0.3-0.1,0,0.3-0.6,0.2c-0.2-0.1-0.6-0.4-0.6-0.6l0.6,0.2c-0.2-0.3-0.7-0.2-1-0.3l0.1-0.1
								c-0.8-0.2-1,0-1.8-0.3l0.1,0.1c-0.6,0.1-0.3-0.3-0.9-0.3l0-0.3c-0.3-0.1-1.2-0.3-1.7-0.6c0.4,0,1,0.3,1.5,0.4
								c-0.3-0.1-1-0.5-1.2-0.5c0.1,0.1,0.3,0.1,0.4,0.2c-0.4,0-1-0.2-1.4-0.7c0.2-0.1,0-0.5-0.1-0.8c-0.1-0.3,0-0.7,0.3-0.8
								c0.1-0.4,0.5-0.8,1-1c0.5-0.3,1.1-0.5,1.7-0.8c-0.6-0.2,0.4-0.2,0.1-0.5c0.3-0.2,0.4-0.2,0.4-0.2c0,0,0.3,0,0.5-0.1
								c0.3,0,0.5,0,0.5,0c0.3,0-0.3,0.2-0.2,0.3c0.7-0.2,0.3,0.1,0.8,0c-0.1-0.1,0.2-0.3,0.6-0.3l-0.6,0c0.9-0.5,0.9,0.1,1.8-0.4
								l-0.3,0.2c0.5-0.2,1.8-0.5,2.3-0.9c0.1,0,0.2,0.1,0,0.2c1.2-0.2,2.6-0.9,3.6-0.9l-0.1,0.1c0.2-0.1,0.4-0.3,0.7-0.2
								c0,0-0.1,0.1,0,0.1c0.1-0.1,0.6-0.3,0.9-0.3L48,31.4c1.2,0,1.8-0.6,2.8-0.8c0,0.3,1,0.3,1.5,0.3l0,0c1.4-0.1,2.4-0.5,3.7-0.8
								c0.8,0.3,2.8-0.1,4.1,0c-0.2,0,0-0.2,0.2-0.3c0.3,0,0.8-0.3,0.8,0l-0.1,0c0.2,0.3,0.9,0.2,1.4,0.1l0.1-0.4
								c1.3,0.5,3.4-0.3,4.1,0.1c0.3-0.1,0.7-0.1,1-0.2l0,0.2c0.9,0,1.3,0.1,2.4,0L69.6,30c0.6,0,0.8-0.6,1.3-0.6l0.2,0.3
								c1.1,0,2.1,0.3,3.2,0c0,0,0,0.1-0.2,0.1c0.5,0,1.9,0.2,1.7-0.2c0,0.3,1.1,0.1,1.7-0.1l-0.1,0.2c0.5-0.2,0.5-0.3,1.2-0.4
								c0.2,0,0.1,0.2-0.1,0.1c0.5,0.1,0.4-0.2,1.1,0l-0.2,0.1c0.5,0,0.5,0,0.8-0.2c0.3-0.1,1,0.1,1.1,0.3c0.1-0.1,0.4-0.2,0.7-0.2
								c0,0.1-0.1,0.1-0.1,0.1c0.9,0.2,1.4-0.2,2,0.1c0,0.1,0,0.1,0.1,0.1c-0.7-0.1-1.3-0.1-1.2-0.1c0,0.2,0.6,0.2,0.1,0.5
								c0.5-0.1,1.3-0.4,1.9-0.2c0,0,0.1,0,0.1,0.1l-0.1,0c0.1,0,0.2,0,0.4,0c0.2,0,0.3,0.1,0.5,0.1c0.1,0.2,0.7,0.1,0.9,0.2
								c0-0.2,0.4-0.1,0-0.3c0,0-0.1,0-0.2,0c0,0-0.1,0-0.1,0l0,0c-0.2,0-0.4,0-0.7,0c0.2-0.1,0.5-0.2,0.8,0
								c0.2-0.1,0.3-0.2,0.4-0.3c0.4,0.3,1.1,0.5,1.2,0.7c0.9,0,2.1,0.1,2.7-0.2c0.3,0,0.3,0.1,0.4,0.2c-0.1,0-0.3,0-0.4,0
								c0.5,0,1.5,0.1,1.6-0.1c0.6,0.2-0.4,0.2,0.5,0.3l-0.1,0.1c1.6,0.6,2.9-0.3,4.7,0.5c-0.1-0.1-0.2-0.1-0.2-0.1
								c2.1,0.6,4.5,0.6,6.4,1.5c0.6,0.2,0.7,0.1,1.1,0.1l0.1,0.2l0.7-0.1c0.9,0.1,1.3,1,2.4,1.1l-0.1-0.2c0.4,0.2,1.2,0.5,1,0.6
								c0,0,0.2-0.1,0.3,0.1l0,0.1c0,0,0.9,0.4,0.9,0.4c0.3,0.3,0.2,0.3,0.1,0.4c-0.1,0.1-0.1,0.2,0.2,0.5c0.1,0.1,0.3,0.3,0.4,0.4
								c0.1,0.1,0.2,0.3,0.2,0.2c0-0.1,0-0.4,0.1-0.4c0,0,0.1,0.3,0.1,0.3c0.2,0,0.3,0.1,0.5,0.1c0.1,0,0.1-0.1,0.2-0.2
								c0.1-0.2,0.1-0.4,0-0.7c0-0.1-0.6-0.7-0.6-0.6l-0.1-0.3c0,0,0.1,0.1,0.2,0.3c0.1,0.2,0.2,0.3,0.2,0.3
								c-0.1-0.5-0.4-0.5-0.6-0.7c0-0.1,0-0.2-0.1-0.3c0,0-0.2-0.1-0.4-0.1c-0.2,0-0.4-0.1-0.4-0.1c0-0.2,0.4,0,0.1-0.4
								c-0.4-0.1,0.1,0.4-0.4,0.2c-0.2-0.3-0.1-0.4-0.5-0.4c0-0.1,0.1-0.1,0.2-0.1c-0.4-0.1-0.9-0.4-1.1-0.3
								c-0.2-0.3-1.1-0.4-0.9-0.7c-0.1,0-0.7,0-1-0.1c0.7-0.2-1.1-0.4-0.8-0.7c-0.5,0.2-1.5-0.3-2.3-0.3c0,0,0.1,0,0.2,0
								c-0.4-0.1-0.5-0.3-0.7-0.4c-0.1,0.3-0.8,0.2-1.1,0.3c-0.4-0.4,0.4-0.3,0.3-0.5c0,0.2-0.9,0-0.8,0.2c-0.3-0.2-0.3-0.1-0.5-0.4
								c-0.1,0.3-0.4,0-0.7,0.1c-0.5-0.3-0.1-0.3-0.7-0.4C98.5,29.9,99,29.9,99,29.9z M84.4,28.8L84.4,28.8c0.1,0,0.2,0,0.3,0
								C84.6,28.8,84.5,28.8,84.4,28.8z M83.2,28.7c0.1,0,0.3,0,0.5,0c0,0.1,0,0.1-0.1,0.1C83.6,28.8,83.3,28.7,83.2,28.7z
								 M85.7,30.2c-0.2,0-0.3,0-0.3-0.1C85.5,30.2,85.6,30.2,85.7,30.2L85.7,30.2C85.7,30.2,85.7,30.2,85.7,30.2z"/>
							<path fill="#202020" d="M86,30C86,30,86.1,30,86,30C86.1,30,86,30,86,30l-0.1,0C85.9,30,86,30,86,30z"/>
							<path fill="#202020" d="M88.1,43L88.1,43C88.1,43,88.1,43,88.1,43C88.1,43,88.1,43,88.1,43z"/>
							<polygon fill="#202020" points="66.2,28.1 66.2,28.1 66.3,28.1 							"/>
							<path fill="#202020" d="M94.9,42.9C94.9,42.9,95,42.9,94.9,42.9C95,42.9,95,42.9,94.9,42.9z"/>
							<path fill="#202020" d="M97.8,42.5l0.4,0C98.1,42.5,97.9,42.5,97.8,42.5z"/>
							<path fill="#202020" d="M100.1,42.2C100.1,42.1,100.1,42.1,100.1,42.2L100.1,42.2L100.1,42.2z"/>
							<path fill="#202020" d="M64.4,44.6C64.4,44.6,64.3,44.6,64.4,44.6C64.1,44.6,64.3,44.6,64.4,44.6z"/>
							<path fill="#202020" d="M75.1,44.2c-0.1,0-0.2,0.1-0.3,0.1C74.9,44.4,75,44.4,75.1,44.2z"/>
							<polygon fill="#202020" points="52.5,43.9 52.5,43.9 52.4,43.9 							"/>
							<path fill="#202020" d="M74.2,44.3c0.2,0,0.3,0,0.5,0C74.6,44.3,74.4,44.3,74.2,44.3z"/>
							<path fill="#202020" d="M109.5,39.1l0.1-0.1C109.5,39,109.5,39,109.5,39.1L109.5,39.1z"/>
							<path fill="#202020" d="M109.5,39L109.5,39C109.6,38.9,109.6,39,109.5,39z"/>
							<path fill="#202020" d="M109.8,38.7c0,0-0.2,0.2-0.2,0.2C109.7,38.8,109.8,38.8,109.8,38.7z"/>
							<path fill="#202020" d="M106.6,40.4L106.6,40.4C106.6,40.4,106.6,40.4,106.6,40.4z"/>
							<path fill="#202020" d="M105.8,40.7c0.2-0.1,0.6,0,0.8-0.2l0-0.1C106.5,40.6,105.9,40.5,105.8,40.7z"/>
							<path fill="#202020" d="M101.9,40.9l0.7-0.1c-0.1,0-0.3-0.1,0-0.2C101.7,40.5,102.9,40.7,101.9,40.9z"/>
							<path fill="#202020" d="M99.6,41.2c0.4-0.1,0-0.1,0-0.2C99.4,41.2,99.3,41.2,99.6,41.2z"/>
							<path fill="#202020" d="M82.9,43.2l0-0.2C82.6,43.1,82.9,43.1,82.9,43.2z"/>
							<polygon fill="#202020" points="79.7,44.3 80,44.4 80.1,44.2 							"/>
							<polygon fill="#202020" points="77.7,43.1 77.9,43 77.3,43.1 							"/>
							<path fill="#202020" d="M49.5,41.8l0.1,0.2C49.7,42,49.8,41.8,49.5,41.8z"/>
							<path fill="#202020" d="M37.6,39.3c-0.1-0.1-0.4-0.3-0.6-0.3C37.3,39.1,37.5,39.3,37.6,39.3z"/>
							<polygon fill="#202020" points="63,30 62.8,30.1 63.2,30 							"/>
						</g>
					</g>
				</g>
			</g>
		</g>
	</g>
	<g>
		<g>
			<g>
				<g>
					<g>
						<path fill="#202020" d="M74.5,36.4c0-0.1,0-0.2-0.2-0.1l-0.1,0.2L74.5,36.4z"/>
						<path fill="#202020" d="M73.3,36.3c-0.2,0.1-0.4,0.3-0.2,0.5c0.2-0.2,0.2-0.1,0.4-0.4c0.2-0.1,0.3,0,0.3,0.1
							c0-0.1,0.3,0,0.3-0.2c-0.3-0.1-0.5,0-0.8,0.1C73.2,36.4,73.3,36.3,73.3,36.3z"/>
						<path fill="#202020" d="M58.8,33.9l-0.1,0C58.7,33.9,58.7,33.9,58.8,33.9z"/>
						<path fill="#202020" d="M68.3,32.7c-0.1,0-0.1,0-0.1,0.1C68.3,32.8,68.4,32.7,68.3,32.7z"/>
						<path fill="#202020" d="M70.1,32.7c0,0-0.1,0-0.1,0C70.1,32.8,70.1,32.8,70.1,32.7z"/>
						<path fill="#202020" d="M58.8,33.9l0.4,0C59,33.9,58.9,33.9,58.8,33.9z"/>
						<path fill="#202020" d="M71,37.1c0.1,0,0.1,0,0.1-0.1L71,37.1L71,37.1z"/>
						<path fill="#202020" d="M61.4,35.1L61.4,35.1c0.1,0,0.1,0,0.2,0L61.4,35.1z"/>
						<path fill="#202020" d="M64.7,35.9c-0.1,0-0.1,0.1-0.2,0.2c0.1-0.1,0.1-0.1,0.2-0.1C64.7,36,64.7,35.9,64.7,35.9z"/>
						<path fill="#202020" d="M70.2,36.5L70.2,36.5C70.2,36.5,70.2,36.5,70.2,36.5z"/>
						<path fill="#202020" d="M59.8,34.4C59.8,34.4,59.9,34.4,59.8,34.4C59.8,34.4,59.8,34.4,59.8,34.4z"/>
						<path fill="#202020" d="M45.3,38C45.3,38,45.3,38,45.3,38C45.3,38,45.3,38,45.3,38z"/>
						<path fill="#202020" d="M41.6,36L41.6,36c0.1,0,0.1,0,0.1-0.1L41.6,36z"/>
						<path fill="#202020" d="M73.4,32.6C73.4,32.6,73.4,32.6,73.4,32.6C73.3,32.7,73.3,32.6,73.4,32.6z"/>
						<path fill="#202020" d="M95.6,37.1c0.3,0-0.4,0.4,0.1,0.3C95.7,37.4,96,37,95.6,37.1z"/>
						<path fill="#202020" d="M70.9,37.1l-0.1,0C70.8,37.1,70.9,37.1,70.9,37.1z"/>
						<path fill="#202020" d="M95.8,37.4L95.8,37.4L95.8,37.4C95.8,37.4,95.8,37.4,95.8,37.4z"/>
						<path fill="#202020" d="M80.8,32C80.8,31.9,80.7,31.9,80.8,32C80.7,31.9,80.7,31.9,80.8,32z"/>
						<path fill="#202020" d="M75.2,32.1l0.1,0C75.3,32.1,75.3,32.1,75.2,32.1z"/>
						<path fill="#202020" d="M83.7,31.6c0.1,0,0.1,0,0.2,0c0,0,0,0,0,0C83.8,31.6,83.7,31.6,83.7,31.6z"/>
						<path fill="#202020" d="M86.7,31.4C86.6,31.4,86.6,31.4,86.7,31.4c-0.1,0-0.1,0-0.2,0L86.7,31.4z"/>
						<path fill="#202020" d="M54.5,39.1c-0.1,0-0.1-0.1-0.1-0.1C54.4,39.1,54,39.1,54.5,39.1z"/>
						<path fill="#202020" d="M71,37C71,37,71,37.1,71,37L71,37C71,37,71,37,71,37z"/>
						<path fill="#202020" d="M83.7,30.3l0.5,0C84.1,30.3,83.9,30.3,83.7,30.3z"/>
						<path fill="#202020" d="M75.9,40.9l-0.1,0C75.8,41,75.9,41,75.9,40.9z"/>
						<path fill="#202020" d="M85.6,30.2c0.1,0.1,0.2,0.1,0.3,0.1c0,0,0,0,0.1,0L85.6,30.2z"/>
						<path fill="#202020" d="M54.4,39L54.4,39L54.4,39z"/>
						<path fill="#202020" d="M51.2,39.2c0.5,0,0.2-0.2,0.3-0.3c0.6,0,0.2,0.2,0.4,0.3c0.4,0,0.6-0.2,0.9-0.2c0,0,0.1,0.1,0,0.1
							c0.4-0.2,1.1,0,1.5-0.2c0,0,0,0,0.1,0.1c-0.1-0.1-0.1-0.2-0.1-0.3c0.2,0,0.4-0.1,0.5,0c-0.1,0-0.1,0.1-0.2,0.1l0.2-0.1
							c0.2,0.2-0.3,0.1-0.3,0.2c0.4-0.1,0.9-0.2,1.2-0.2c0.1,0.2-0.7,0.1-0.3,0.2l-0.5-0.1c0.4,0.3-0.3,0,0,0.3
							c0.7,0.1,0.7-0.1,1.4-0.1c0.1-0.1-0.1-0.2,0.1-0.3c0.9-0.2,0.7,0.5,1.4,0.2c0.2-0.1,0.2-0.4,0.7-0.2l-0.2,0.2
							c0.6,0,0.4-0.3,1-0.1C59.3,39,58.9,39,59,39.1c0.4,0.2,0.3-0.1,0.6-0.1l0.1,0.2c0.7,0,1.4-0.1,2.1,0c0,0.1-0.2,0.1,0,0.2
							c0.9,0,1.9,0.4,2.7,0.7l0.4-0.1c0.1,0,0.1,0.1,0,0.1c0.3,0.2,0.1-0.1,0.2-0.1c0.2,0.1,0.2,0.2,0.1,0.2
							c0.6,0.1,1.8,0.3,2.4,0.6l-0.1,0c0.5,0.2,0.7-0.2,1.1,0l-0.1,0c1.1,0.2,2.4,0,3.3,0.3c0.2-0.2,1.1,0.1,1.2-0.3
							c0.6,0.1,0.5,0.2,1.4,0.3c0.2,0,0.3-0.2,0.6-0.3l0,0.2l0.4-0.2l0.2,0.2l0.3-0.1c-0.1,0-0.2-0.1-0.2-0.1
							c0.4-0.1,1.1,0.1,1.1,0.2l1-0.2c0,0.1-0.2,0.1-0.3,0.2c0.5-0.2,0.1,0.2,0.6,0c-0.1,0,0-0.1,0-0.1c0.3,0.1,0.8,0.1,1.2,0
							l-0.1,0.1c0.8,0,1.6-0.2,2.4-0.3c-0.3,0-0.3-0.2,0-0.3l0.1,0.2c0.2-0.1-0.3,0,0.1-0.2c0.3,0,0.2,0.2,0.1,0.3l0.4-0.1
							c0,0.1-0.1,0.1-0.1,0.2c0.1-0.1,0.7,0.1,0.9-0.1l0,0.1c0.8-0.1,1.2-0.2,1.9-0.3c0-0.2,0.3-0.2,0.5-0.3c0.5,0,1.1,0.1,1.7,0
							c0.4-0.1,0.1-0.2,0.3-0.3c0,0.1,0.7,0.1,0.4,0.2c0.7-0.1,0.9-0.1,1.8-0.4c-0.1,0-0.2-0.1-0.2-0.1c0.2,0,0.4,0,0.4,0.1l0,0
							c1-0.4,2.5,0.1,3.2-0.3l0,0l0.8-0.3c0.4-0.1-0.2,0.2,0.1,0.2c0.9-0.4,1.5-0.3,2.3-0.8c0.4,0.1,1-0.2,1.4-0.7
							c0.5-0.5,0.8-1.2,1-1.7l-0.1,0c0-0.3,0.1-0.3,0.1-0.5c-0.1,0-0.1,0.3-0.2,0.1c0-2.3-1.8-4-3.6-4.8c-0.7-0.3-0.5,0.4-1.3-0.1
							l0.3-0.1c-1.4-0.1-2.9-0.4-4.2-0.2c0.1,0,0.1-0.1,0.2-0.1c-0.3-0.1-1,0-1,0.1c-0.2,0-0.1-0.1-0.2-0.2
							c-0.3-0.1-0.7,0.2-0.8,0.1c0,0,0.1,0,0.1-0.1c-0.2,0.1-0.8,0-0.7,0.2c-0.5-0.1-0.9,0.1-1.3,0c-0.2,0.2-0.8-0.1-0.9,0.2
							c0-0.3-0.9-0.2-1.2,0c0.1-0.1-0.3-0.1-0.2-0.2c-0.4,0-0.7,0.1-0.6,0.2c-0.7-0.3-1.3,0.3-1.7-0.1c-1,0.2-2,0.4-2.9,0.5
							c0-0.3,1-0.1,1-0.4c-0.9,0.2-1.4,0.4-2.3,0.4c-0.2,0,0.1-0.1,0.2-0.2c-0.9,0.2-1.7,0.1-2.5,0.3c0,0,0.1-0.1,0.2-0.1
							c-0.2,0-0.4,0-0.3,0.1l0.1,0c0.3,0.1-0.6,0.4-0.6,0.5c0.2-0.4-0.8,0-0.4-0.5c-0.1,0-0.2,0.1-0.2,0.2c-0.2,0-0.2-0.1-0.1-0.2
							c-0.6,0.1-0.3,0.2-0.8,0.3c0-0.1,0.1-0.1,0.1-0.2c-0.2,0.1-0.5,0.3-0.9,0.3c0,0,0-0.1,0.1-0.1c-0.7,0.1-1.2,0.4-2,0.4
							c0.2-0.3-0.3-0.1-0.3-0.3l-0.4,0.1l0.2,0.1c-0.4,0-0.7,0.2-1,0.2l0.3-0.1L68,32l0.4,0c-0.4,0.2,0.1,0.3-0.4,0.3
							c0.1,0-0.4,0-0.6-0.1l0,0c-0.2,0.1-0.4,0.2-0.6,0.2c-0.1-0.1,0-0.2,0-0.3c-0.2,0.2-0.9,0.2-1.1,0.4c0.1-0.1,0.1-0.2,0-0.2
							l-0.1,0.2c-0.2,0-0.2,0-0.2-0.1c-0.5,0,0.2,0.2-0.4,0.2c0,0,0,0,0.1-0.1c-0.6,0-1.2,0.2-1.8,0.3c-0.2-0.2,0.5-0.1,0.3-0.3
							c-0.8,0.2-1.7,0.5-2.5,0.6l0.2,0c-0.1,0.3-0.6-0.1-1.1,0.2c0.1,0,0.1-0.2,0.1-0.1c-0.4,0-0.8,0.1-1.2,0.2
							c-0.3,0.1-0.7,0.2-1.1,0.3l0-0.1c-0.3,0-0.6,0.1-0.9,0.1c-0.2,0-0.3,0-0.4,0.1c0,0.1,0.2,0.1,0.3,0.2c0.3,0.1,0.5,0.2,0.7,0.2
							c0,0.3,0.9,0.6,1.5,0.9c0.7,0.2,1.3,0.4,1.7,0.7c-0.1,0-0.3,0-0.2,0l0.8,0.2c0-0.1-0.1-0.1-0.2-0.3c0.1,0,0.4,0,0.6,0
							c-0.4,0-0.1,0.2,0.1,0.3c0,0,0.1-0.1,0.1-0.1c0.3,0.4,0.1-0.2,0.7,0.1l0,0.1c0.2,0,0.4,0,0.7,0.1c0.1,0.2-0.2,0-0.3,0.1
							c0.3,0.1,0.7-0.1,1,0.1c-0.1,0-0.3,0-0.5,0c0.3,0.3,0.3,0.2,0.6,0.3l0,0l0.5,0.2L64,36.6c0.5-0.3,0.9,0.1,1.5-0.1
							c-0.6,0.2-0.1,0.1-0.2,0.3c0.1,0.1,0.3,0.2,0.3,0.2c0.3-0.1,0.4,0.2,0.8,0c0,0.1,0.3,0,0.2,0.2c0.4,0-0.1-0.1,0-0.2
							c0.5-0.1,1.3,0.3,2,0.1c0.7-0.1,0.8-0.3,1.4-0.4c0.2,0.1-0.2,0.2-0.2,0.2c0.3,0.1,0.6,0,0.9-0.1c-0.1,0.1,0,0.1,0.1,0.1
							c0.3,0,0.2-0.2,0.5-0.2c0,0.1-0.1,0.2-0.2,0.3c0.3-0.1,0.6-0.2,0.9-0.3c0.1,0.1-0.2,0.2-0.3,0.2c0.3-0.1,0.9-0.2,1-0.4l-0.2,0
							c0.1,0,0.1,0.1,0,0.2c-0.3,0.2-0.4,0-0.5,0l0.2-0.1c-0.3-0.3-0.9,0.2-1.3,0.2l0.2-0.3l-0.4,0.2c-0.1-0.1-0.2-0.2,0-0.2
							c-0.3-0.1-0.3,0.1-0.5,0c0,0,0,0,0,0l-0.3,0.1c0.1-0.1-0.1-0.2,0.1-0.1c-0.6-0.1-0.9,0.2-1.1,0l0,0c-0.8,0.1-0.1,0.2-0.6,0.4
							l-0.4-0.4l-0.1,0.2c-0.1,0-0.2,0-0.2-0.1c-0.3,0.1,0,0.1-0.1,0.2c-0.4-0.2-1.1,0-1.1-0.3c-0.1,0.1,0.4,0.1-0.1,0.2
							c-0.1-0.3-0.5,0-0.8-0.2c0.1-0.1,0.4,0,0.1-0.2C65.4,36.4,65,36,64.7,36c-0.1,0.2-0.6,0-1.1-0.1c0-0.1-0.9-0.3-1.3-0.5l0,0
							c-0.1,0.2-0.6,0-0.9-0.1c0.1-0.1,0.1-0.1,0.3-0.1l-0.3-0.1c-0.1,0-0.2,0-0.4,0l0.1-0.1c-0.2-0.1-0.4-0.1-0.6-0.1
							c-0.1,0-0.3-0.1-0.4-0.2c-0.1,0-0.1,0.1-0.2,0.2c-0.1,0.1-0.2,0.1-0.5,0c0.1-0.1,0.2-0.1,0.4-0.1c0,0-0.2,0-0.3-0.1
							c0,0,0.4,0,0.4,0c-0.1-0.1-0.2,0-0.4-0.1c0.2-0.1,0-0.1,0.2-0.1c0,0,0,0.1,0.2,0.1c-0.1-0.1-0.2-0.2,0-0.2c-0.1,0-0.3,0-0.4,0
							c-0.3-0.1,0.2-0.1,0.2-0.1c-0.2,0-0.2-0.1-0.6-0.1c-0.1,0,0.1,0,0.3,0c-0.1,0-0.2,0-0.2-0.1l-0.1,0l0,0c0.1,0,0.1-0.1-0.3-0.1
							l-0.1,0l0,0l0,0l0,0c0-0.1,0.4-0.1,0.8-0.1c0.4,0,0.7,0,0.9-0.1l0,0.1c0.2-0.1,0.8-0.2,1.1-0.3c0.1,0,0.3,0.1,0.3,0.1
							c0.3-0.1,0.3-0.2,0.8-0.1c-0.3,0.1,0.1,0.1-0.3,0.1c0.4,0,0.5,0.1,1-0.1c-0.1,0.2,0.3,0.1,0.5,0.1l-0.3-0.1
							c0.2-0.1,0.4-0.1,0.6-0.1l-0.1,0.2c0.9,0.1,1.5-0.6,2.2-0.3c0.2-0.2-0.5,0-0.3-0.2c0.4,0,0.9,0.2,1,0.2c0.6,0,0.5-0.3,1.1-0.3
							c-0.1-0.1-0.2-0.2,0.3-0.3c0.4,0,0.5,0.2,0.3,0.3c-0.1,0-0.1,0-0.1,0c-0.1,0-0.3,0.1-0.1,0.1l0-0.1c0.2,0,0.8,0,0.6,0.1
							c0.3-0.1,0.1-0.1-0.1-0.1c0.5,0,0.8-0.1,1.3-0.1c-0.1,0-0.2-0.1-0.1-0.1c0.8,0,0.3-0.2,0.9-0.3c0.3,0.1-0.1,0.3,0.4,0.1
							c0.3,0,0.1,0.2,0,0.2c0.5-0.2,0.9,0,1.2,0l-0.2,0.1c0.1,0,0.3-0.1,0.4-0.1l-0.2-0.1c0.2,0,0.3,0,0.3,0.1
							c0.1-0.1-0.1-0.2,0.2-0.4c0.2,0,0.6-0.1,0.7,0c-0.6,0,0.1,0.2-0.4,0.3c0.1,0,0.2,0,0.4,0c0,0,0,0-0.1,0.1
							c0.6,0.1,0.3-0.2,0.9-0.3c-0.1,0.1,0.2,0.2,0.3,0.1c-0.3,0-0.1-0.2,0.1-0.3c0.4,0,0.4-0.1,0.6-0.1l-0.2,0
							c0.1-0.1,0.3-0.1,0.5-0.2c0,0.1-0.2,0.1-0.1,0.1c0.3-0.2,0.7,0.1,1.1,0c0.2,0.1,0,0.2,0.2,0.2c0.5-0.2,0.5,0.1,1,0
							c-0.2-0.1-0.2-0.1,0.2-0.3l-0.8,0.2l0.5-0.2c-0.3,0-0.5,0.1-0.7,0.1c0.2-0.1,0.2-0.1,0.1-0.2c0.4,0.2,0.7-0.2,1.1-0.1l0,0.3
							c0.6,0.1,1.1-0.3,1.8-0.2l-0.3,0c0.1-0.1,0.5-0.1,0.7-0.1c0,0.1,0.1,0.1,0.3,0.2c0-0.1,0.6,0,0.6-0.3l0.4,0.1
							c0.6,0,0.7-0.4,1.3-0.4c-0.2,0.1,0.1,0.2-0.3,0.3c0.2,0,0.4,0,0.4-0.1c0.1,0.1,0.6-0.2,0.7-0.1c0.1-0.1,0.1-0.2,0.3-0.2
							c0,0,0,0.1,0,0.1c0-0.1,0.4-0.1,0.1-0.2c0.6,0.3,1.7-0.1,2.3,0.2c0.4-0.1,1-0.1,1.4-0.1c0,0,0,0.1-0.1,0
							c0.6,0.1,0.3-0.3,1-0.2c0.3,0.2-0.3,0.1-0.1,0.2c0.1,0.4,0.8-0.1,1.2,0.1l-0.1,0c0.3,0.1,0.8-0.1,1.3-0.1c0,0,0,0,0,0.1
							c0.4-0.2,1-0.2,1.5-0.2c-0.2,0.1-0.2,0-0.2,0.2c0.2,0,0-0.3,0.4-0.2c0.1,0.1,0.4,0.2,0.4,0.4l-0.4-0.1
							c0.2,0.2,0.5,0.1,0.7,0.2l0,0.1c0.6,0.1,0.7-0.1,1.3,0.2l0-0.1c0.4,0,0.2,0.3,0.6,0.3l0,0.3c0.2,0.1,0.8,0.3,1.2,0.6
							c-0.3-0.1-0.7-0.3-1-0.4c0.2,0.1,0.6,0.5,0.8,0.5c-0.1-0.1-0.2-0.1-0.2-0.2c0.3,0,0.7,0.3,0.9,0.7c-0.2,0.1-0.1,0.3,0.1,0.7
							c0.1,0.3,0.2,0.7,0,0.8c0.1,0.3,0,0.7-0.2,1c-0.2,0.3-0.5,0.5-0.9,0.8c0.5,0.1-0.2,0.1,0,0.4c-0.2,0.1-0.3,0.2-0.3,0.1
							c0,0-0.2,0-0.4,0c-0.2,0-0.4,0-0.4,0c-0.2,0,0.2-0.1,0.1-0.2c-0.5,0.1-0.2-0.1-0.6-0.1c0.1,0.1-0.1,0.2-0.4,0.2l0.4,0.1
							c-0.6,0.4-0.6-0.1-1.3,0.2l0.2-0.1c-0.3,0.1-1.4,0.2-1.7,0.5c-0.1,0-0.2-0.1,0-0.2c-0.9,0.1-2,0.6-2.7,0.5l0.1-0.1
							c-0.2,0-0.3,0.2-0.5,0.1c0,0,0.1-0.1,0-0.1c-0.1,0-0.4,0.2-0.7,0.2l0.2-0.1c-0.9,0-1.3,0.4-2.1,0.5c0-0.3-0.7-0.3-1.1-0.3l0,0
							c-1,0.1-1.7,0.4-2.7,0.6c-0.6-0.2-2,0.1-3,0c0.1,0,0,0.2-0.2,0.2c-0.2,0-0.6,0.2-0.6,0l0.1,0c-0.2-0.2-0.6-0.1-1-0.1l0,0.3
							c-1-0.4-2.5,0.3-3-0.1c-0.2,0.1-0.5,0.1-0.7,0.2l0-0.2c-0.6,0-0.9,0-1.7,0.1l0.2-0.1c-0.4,0-0.5,0.5-0.9,0.5l-0.1-0.2
							c-0.8,0-1.5-0.2-2.2,0c0,0,0-0.1,0.2-0.1c-0.4,0-1.3-0.3-1.2,0c0-0.2-0.7-0.2-1.1-0.2l0.1-0.1c-0.4,0.1-0.4,0.1-0.9,0
							c-0.1-0.1-0.1-0.2,0.1-0.1c-0.3-0.2-0.3,0-0.7-0.2l0.2,0c-0.4-0.2-0.4-0.1-0.6,0c-0.3,0-0.7-0.3-0.7-0.4
							c-0.1,0.1-0.3,0.1-0.5,0c0-0.1,0.1-0.1,0.1-0.1c-0.6-0.3-1,0-1.5-0.3c0-0.1,0-0.1-0.1-0.1c0.5,0.1,1,0.2,0.9,0.2
							c0-0.1-0.4-0.3,0-0.4c-0.4,0-1,0.2-1.4,0.1c0,0,0,0,0-0.1l0,0c-0.1,0-0.2,0-0.3,0c-0.1,0-0.2-0.1-0.3-0.1
							c0-0.1-0.5-0.1-0.7-0.1c0,0.2-0.3,0.1,0,0.3c0,0,0,0,0.2,0c0,0,0.1,0,0.1,0l0,0c0.1,0,0.3,0,0.5,0c-0.2,0.1-0.4,0.1-0.6,0
							c-0.1,0.1-0.2,0.2-0.3,0.2c-0.3-0.2-0.8-0.4-0.9-0.5c-0.7,0.1-1.6,0-2,0.3c-0.2,0-0.2-0.1-0.3-0.1c0.1,0,0.2,0,0.3-0.1
							c-0.4,0.1-1.1,0-1.2,0.3c-0.5-0.1,0.3-0.2-0.4-0.2L56,38c-1.3-0.3-2,0.6-3.4,0.1c0.1,0,0.1,0,0.2,0.1
							c-1.6-0.3-3.3-0.1-4.8-0.7c-0.4-0.1-0.5,0-0.8,0l-0.1-0.2l-0.5,0.1c-0.7,0-1-0.7-1.9-0.6l0.1,0.1c-0.3-0.1-0.9-0.2-0.8-0.3
							c0,0-0.1,0.1-0.2,0l0-0.1l-0.7-0.1c-0.5-0.3,0.2-0.3-0.6-0.6c-0.3-0.1-0.9-0.1-0.8,0c0.1,0,0.3,0.2,0.3,0.3L41.7,36
							c-0.1,0.2-0.5,0.4,0.1,0.8l0.5,0l0.1,0.2L42,36.9c0.2,0.2,0.4,0.1,0.5,0.1c0,0.1,0.1,0.1,0.1,0.2l0.5-0.1c0,0.1-0.3,0.1,0,0.3
							c0.3,0-0.1-0.3,0.2-0.2c0.2,0.2,0.1,0.3,0.4,0.2c0,0.1-0.1,0.1-0.2,0.1c0.3,0,0.6,0.2,0.8,0.1c0.2,0.2,0.8,0.2,0.7,0.4
							c0.1,0,0.5-0.1,0.7,0c-0.5,0.2,0.8,0.2,0.6,0.5c0.4-0.2,1.1,0.1,1.7,0.1c0,0-0.1,0-0.1,0c0.3,0.1,0.4,0.2,0.6,0.3
							c0.1-0.2,0.6-0.2,0.8-0.3c0.3,0.3-0.3,0.2-0.2,0.5c0-0.2,0.7-0.1,0.6-0.3c0.3,0.2,0.2,0.1,0.4,0.3c0.1-0.3,0.3,0,0.5-0.2
							c0.4,0.2,0.1,0.3,0.5,0.2C51.6,39.2,51.2,39.2,51.2,39.2z M61.8,39.1L61.8,39.1c-0.1,0-0.2,0-0.2,0C61.7,39,61.7,39,61.8,39.1
							z M62.7,39.2c-0.1,0-0.2-0.1-0.4-0.1c0-0.1,0-0.1,0.1-0.1C62.4,39.1,62.6,39.1,62.7,39.2z M60.9,37.8c0.1,0,0.2,0,0.2,0.1
							C61.1,37.9,61,37.9,60.9,37.8L60.9,37.8C60.9,37.9,60.9,37.9,60.9,37.8z"/>
						<path fill="#202020" d="M60.7,38C60.6,38,60.6,38,60.7,38C60.6,38,60.7,38.1,60.7,38L60.7,38L60.7,38z"/>
						<path fill="#202020" d="M58.6,33.9L58.6,33.9C58.6,33.9,58.6,33.9,58.6,33.9C58.6,33.9,58.6,33.9,58.6,33.9z"/>
						<polygon fill="#202020" points="74.9,41.1 74.9,41 74.8,41.1 						"/>
						<path fill="#202020" d="M61.6,35.9C61.6,35.9,61.6,35.9,61.6,35.9C61.6,36,61.6,35.9,61.6,35.9z"/>
						<path fill="#202020" d="M63.7,36.5l0.3,0.1C63.8,36.6,63.7,36.5,63.7,36.5z"/>
						<path fill="#202020" d="M65.3,36.9C65.3,36.8,65.3,36.8,65.3,36.9L65.3,36.9L65.3,36.9z"/>
						<path fill="#202020" d="M75,31.1C75,31.1,75.1,31.1,75,31.1C75.2,31,75.1,31,75,31.1z"/>
						<path fill="#202020" d="M67.3,32.2c0.1,0,0.2-0.1,0.2-0.1C67.4,32.1,67.3,32.1,67.3,32.2z"/>
						<polygon fill="#202020" points="83.7,30.3 83.7,30.3 83.7,30.3 						"/>
						<path fill="#202020" d="M67.9,32.1c-0.1,0-0.3,0-0.4,0C67.7,32.1,67.8,32.1,67.9,32.1z"/>
						<path fill="#202020" d="M72.5,36.9L72.5,36.9C72.6,36.9,72.6,36.9,72.5,36.9L72.5,36.9z"/>
						<path fill="#202020" d="M72.6,36.9L72.6,36.9C72.6,36.8,72.6,36.9,72.6,36.9z"/>
						<path fill="#202020" d="M72.8,36.8l-0.2,0.1C72.7,36.8,72.8,36.8,72.8,36.8z"/>
						<path fill="#202020" d="M70.3,37.1L70.3,37.1C70.3,37.1,70.3,37.1,70.3,37.1z"/>
						<path fill="#202020" d="M69.6,37.1c0.2,0,0.4,0.1,0.6,0.1l0,0C70.2,37.2,69.8,37,69.6,37.1z"/>
						<path fill="#202020" d="M66.9,36.3l0.5,0.1c-0.1-0.1-0.2-0.2,0-0.2C66.8,36,67.6,36.4,66.9,36.3z"/>
						<path fill="#202020" d="M65.2,36.1c0.3,0,0-0.1,0-0.1C65.1,36,65,36,65.2,36.1z"/>
						<path fill="#202020" d="M61.7,33.6l0,0.1C62,33.7,61.7,33.6,61.7,33.6z"/>
						<polygon fill="#202020" points="64,32.5 63.7,32.4 63.7,32.6 						"/>
						<polygon fill="#202020" points="65.5,33.3 65.4,33.4 65.8,33.3 						"/>
						<path fill="#202020" d="M86.1,31.6l-0.1-0.2C85.9,31.5,85.9,31.7,86.1,31.6z"/>
						<path fill="#202020" d="M94.8,32.1c0,0.1,0.2,0.3,0.4,0.3C95,32.2,94.9,32.1,94.8,32.1z"/>
						<polygon fill="#202020" points="77.2,39.5 77.4,39.4 77,39.5 						"/>
					</g>
				</g>
			</g>
		</g>
	</g>
</g>
</svg>
