<?xml version="1.0" encoding="utf-8"?>
<!-- Generator: Adobe Illustrator 18.0.0, SVG Export Plug-In . SVG Version: 6.00 Build 0)  -->
<!DOCTYPE svg PUBLIC "-//W3C//DTD SVG 1.1//EN" "http://www.w3.org/Graphics/SVG/1.1/DTD/svg11.dtd">
<svg version="1.1" id="Layer_1" xmlns="http://www.w3.org/2000/svg" xmlns:xlink="http://www.w3.org/1999/xlink" x="0px" y="0px"
	 viewBox="0 0 144 144" enable-background="new 0 0 144 144" xml:space="preserve">
<pattern  width="14" height="18" patternUnits="userSpaceOnUse" id="SVGID_1_" viewBox="16 -18 14 18" overflow="visible">
	<g>
		<polygon fill="none" points="16,0 30,0 30,-18 16,-18 		"/>
		<g>
			<polygon fill="none" points="16,0 29.9,0 29.9,-18 16,-18 			"/>
			<g>
				<polygon fill="none" points="45.9,0 27.9,0 27.9,-18 45.9,-18 				"/>
			</g>
			<g>
				<g>
					<g>
						<path fill="#202020" d="M19.7-7L19.7-7C19.7-7,19.8-7,19.7-7C19.8-7,19.7-7,19.7-7z"/>
						<path fill="#202020" d="M19.7-7.2v0.1C19.7-7.1,19.7-7.1,19.7-7.2C19.7-7.1,19.7-7.1,19.7-7.2C19.7-7.1,19.7-7.2,19.7-7.2
							L19.7-7.2C19.6-7.2,19.7-7.2,19.7-7.2z"/>
						<path fill="#202020" d="M22.7-6.7L22.7-6.7L22.7-6.7z"/>
						<path fill="#202020" d="M24.6-7.4L24.6-7.4C24.7-7.4,24.7-7.4,24.6-7.4z"/>
						<path fill="#202020" d="M25-7.4L25-7.4L25-7.4z"/>
						<path fill="#202020" d="M22.8-6.8L22.8-6.8C22.7-6.7,22.8-6.7,22.8-6.8z"/>
						<path fill="#202020" d="M19.9-7.1C19.9-7.2,19.9-7.2,19.9-7.1L19.9-7.1L19.9-7.1z"/>
						<path fill="#202020" d="M21.9-7.1L21.9-7.1L21.9-7.1L21.9-7.1z"/>
						<path fill="#202020" d="M21.3-7.4C21.3-7.3,21.3-7.3,21.3-7.4C21.3-7.3,21.3-7.4,21.3-7.4S21.2-7.3,21.3-7.4z"/>
						<path fill="#202020" d="M20.1-7.2L20.1-7.2L20.1-7.2z"/>
						<path fill="#202020" d="M22.4-6.9L22.4-6.9L22.4-6.9z"/>
						<path fill="#202020" d="M19-7.1L19-7.1L19-7.1z"/>
						<path fill="#202020" d="M19.7-7.2L19.7-7.2L19.7-7.2L19.7-7.2z"/>
						<path fill="#202020" d="M25.7-7.4L25.7-7.4L25.7-7.4z"/>
						<path fill="#202020" d="M25.5-2.9C25.5-2.8,25.6-2.9,25.5-2.9C25.6-2.9,25.5-2.9,25.5-2.9z"/>
						<path fill="#202020" d="M20-7.1L20-7.1L20-7.1z"/>
						<path fill="#202020" d="M25.5-2.9L25.5-2.9L25.5-2.9L25.5-2.9z"/>
						<path fill="#202020" d="M27.1-6.8L27.1-6.8L27.1-6.8z"/>
						<path fill="#202020" d="M26.1-7.3L26.1-7.3L26.1-7.3z"/>
						<path fill="#202020" d="M27.1-6.2L27.1-6.2L27.1-6.2L27.1-6.2z"/>
						<path fill="#202020" d="M26.8-5.7L26.8-5.7L26.8-5.7L26.8-5.7z"/>
						<path fill="#202020" d="M19.2-5.6L19.2-5.6C19.2-5.7,19.2-5.6,19.2-5.6z"/>
						<path fill="#202020" d="M19.9-7.2L19.9-7.2C19.9-7.1,19.9-7.2,19.9-7.2L19.9-7.2z"/>
						<path fill="#202020" d="M26.9-6.2L26.9-6.2L26.9-6.2z"/>
						<path fill="#202020" d="M21.6-2.5L21.6-2.5C21.7-2.5,21.7-2.5,21.6-2.5z"/>
						<path fill="#202020" d="M26.7-5.9L26.7-5.9L26.7-5.9L26.7-5.9z"/>
						<path fill="#202020" d="M19.2-5.6L19.2-5.6L19.2-5.6z"/>
						<path fill="#202020" d="M19-6.1C19-6.2,19-6.1,19-6.1c-0.1-0.1-0.1-0.2-0.1-0.2c-0.1,0,0,0-0.1-0.1v-0.1c0,0,0,0.1-0.1,0
							c0,0,0-0.1,0.1-0.1c0,0,0,0,0-0.1l0,0c0-0.1,0-0.2,0.1-0.2c0,0,0,0,0-0.1c0,0,0-0.1,0,0L19-7.1l0.1-0.1h0.1l0,0
							c0.1,0,0,0,0.1,0s0,0,0,0c0.1,0,0,0,0,0s0,0,0.1,0l0,0l0,0h0.1h-0.1l0,0l0,0l0,0c0.1,0,0.1,0,0.1-0.1h-0.1h0.1l-0.1-0.1
							c-0.2,0-0.1,0-0.2,0H19l0,0h-0.1c0,0-0.1,0-0.2,0.1l0,0c-0.1,0-0.2,0.1-0.2,0.1c0,0.1-0.1,0.1-0.1,0.2l0,0l0,0l0.1,0.1
							c0,0-0.1,0-0.1,0.1c0,0.3,0.1,0.6,0.3,0.9l0,0c0.1,0.1,0.1,0.2,0.1,0.3s0,0.2,0.1,0.3l0,0c0,0.1,0,0,0,0.1c0,0,0,0.1,0,0.2
							c0,0,0,0,0-0.1l0,0c0,0.1,0,0.2,0.1,0.4c0,0,0.1,0.1,0.2,0.1c0,0,0,0,0,0.1l0.1,0.1c0,0,0-0.1-0.1-0.1l0,0l0,0l0,0l0,0
							l0.1,0.1c0,0,0,0,0.1,0l0,0l0,0l0,0c0.1,0.1,0.1,0.2,0.1,0.2c0-0.1,0.1,0,0.1,0l-0.1-0.1l0,0c0.1,0,0.1,0.1,0.2,0.2l0,0V-4
							l0.1,0.1c0,0,0,0,0.1,0.1l0,0c0.1,0,0,0.1,0.1,0.1l0,0c0.1,0.1,0.1,0.1,0.1,0.2l0,0c0,0.1,0.1,0.2,0.2,0.2
							c-0.1,0,0.1,0.1,0.2,0.2l0,0c0.1,0.1,0.2,0.2,0.3,0.3h0.1c0.1,0,0,0.1,0.1,0.2l0,0c0.1,0.1,0.2,0.1,0.3,0.2l0,0l0.1,0.1
							c0.1,0,0.2,0,0.2,0.1c0.1,0,0.2,0.1,0.3,0.1l0,0c0.1,0,0.2,0,0.2,0l0,0h0.1c0,0,0.1,0,0,0c0.2,0,0.5,0,0.6,0
							c0.2,0,0.3,0.1,0.6,0l0,0c0.1,0,0.2,0,0.2-0.1c0.2,0,0.3,0,0.4,0l0,0h0.1l0,0h0.1l0,0c0.1,0,0.4-0.1,0.6-0.1l0,0
							c0.1,0,0.3-0.1,0.4-0.1h-0.1c0.2-0.1,0.1-0.1,0.2-0.2l0,0l0,0c0.1,0,0.1-0.1,0.1,0c0.1-0.1,0,0,0.1-0.1h-0.1c0,0,0,0,0.1-0.1
							v-0.1c0,0,0,0,0.1,0c0,0,0.1-0.1,0.1,0C25.9-3,25.9-3.2,26-3.4c0-0.1,0.1-0.3,0.1-0.3c0-0.1,0.1-0.2,0.1-0.2s0,0,0,0.1
							c0,0,0.1-0.1,0.1-0.2c0,0.1-0.1,0.2-0.1,0.2c0-0.1,0.1-0.2,0.1-0.2l0,0c0.1-0.1,0-0.1,0.1-0.1l0,0c0-0.1,0.1-0.1,0.1-0.2l0,0
							c0,0,0.1-0.1,0-0.1v0.1v-0.1c0-0.1,0.1,0,0.1-0.1c0,0,0,0-0.1,0c0-0.1,0.1-0.2,0.1-0.3l0,0c0-0.1,0.1-0.2,0.1-0.2l0,0
							c0-0.1,0.1-0.2,0.1-0.2s0,0.1,0,0s0.1-0.1,0.1-0.2l0,0c0-0.1,0.1-0.2,0.1-0.2c0-0.1,0.2-0.3,0.2-0.4h0.1l0,0c0,0,0,0,0.1,0
							l0.1-0.1c0,0,0,0,0-0.1c0,0.1,0,0-0.1,0c0-0.1,0-0.1,0.1-0.1v-0.1l-0.1-0.1l-0.1-0.1h-0.1l-0.1-0.1h0.1
							c-0.1-0.1-0.2-0.2-0.3-0.2l0,0c-0.1,0-0.1-0.1-0.2-0.1l0,0c0,0,0.1,0,0.1,0.1L26.7-7l0.2,0.1c-0.1,0-0.1,0,0,0
							c-0.1-0.1-0.1,0-0.2-0.1c0,0,0,0-0.1,0s-0.2,0-0.2-0.1c0,0,0.1,0,0,0s-0.1,0-0.1,0H26c0,0,0,0-0.1,0s-0.1-0.1,0,0h-0.1
							c-0.1,0,0-0.1-0.2-0.1l0,0h-0.1c0.1,0-0.1,0,0.1,0h-0.1c-0.1,0,0,0,0-0.1c0,0,0,0-0.1,0l0,0h-0.1h0.1c-0.1,0-0.2,0-0.3,0
							c0,0,0.1,0,0,0s0,0-0.1,0s0,0-0.2,0l0,0c-0.1,0-0.2,0-0.3,0c0.1,0,0.1,0,0,0h-0.1l0,0l0,0l0,0c0.1,0,0,0-0.1,0.1
							c-0.1,0-0.1,0-0.1,0c-0.1,0-0.1,0-0.2,0c0,0-0.1,0.1-0.2,0.1h0.1c-0.1,0.1-0.3,0-0.5,0.1l0,0h-0.1l0,0l0,0c0,0-0.1,0-0.1,0.1
							c-0.1,0-0.1,0-0.2,0.1c0.1,0,0,0,0.1,0c-0.1,0-0.1,0-0.2,0.1l0,0c-0.1,0-0.2,0.1-0.2,0.1l0,0c-0.1,0-0.1,0.1-0.2,0.1
							s-0.1,0.1-0.2,0l0,0l0,0l0,0l0,0c0.1,0-0.1,0-0.1,0l0,0c0,0,0,0-0.1,0s0,0-0.1,0l0,0h-0.1H22l0,0c0,0,0,0-0.1,0l0,0h-0.1l0,0
							c-0.1-0.1,0-0.1,0-0.1C22.1-6.9,22-7,22-7l0,0c-0.1,0-0.1,0-0.1,0h-0.1l0,0c-0.1,0-0.2-0.1-0.2-0.1l0,0
							c-0.1,0-0.3-0.1-0.3-0.1c-0.1,0-0.2-0.1-0.2-0.1c-0.1,0-0.2,0-0.2,0c-0.1,0,0,0,0,0c-0.1,0-0.2,0-0.2,0c-0.1,0,0,0,0,0
							s-0.2,0-0.2,0.1l0,0l0,0l0,0l0,0l0,0c-0.1,0,0,0-0.1,0l0,0c-0.1,0-0.1,0-0.2,0c0.1,0,0,0,0,0h-0.1l0,0c-0.1,0,0,0-0.1,0l0,0
							h-0.1l0,0h-0.1c-0.1,0-0.1,0-0.1,0l0,0c0,0,0,0-0.1,0l0,0c0,0-0.1,0,0,0l0,0l0,0c0,0,0,0,0.1,0s0.1,0,0.1,0l0,0h0.1H20
							c0,0,0,0-0.1,0c0.1,0,0.1,0,0.1,0l0,0c0.1,0,0.1,0,0.2,0c0,0-0.1,0,0,0s0.2,0,0.3,0c0.2,0,0.3-0.1,0.4-0.1c0,0-0.1,0,0,0l0,0
							c0.1,0,0.1,0,0.2,0c0,0,0,0,0.1,0c0,0,0.1,0,0,0c0.1,0,0.2,0,0.3,0.1l0,0c0,0,0,0,0.1,0h0.1l0,0c0.1,0,0.1,0,0.1,0h-0.1
							c0.1,0,0.1,0.1,0.2,0.1c0,0-0.1,0,0,0S22-7.1,22-7l0,0c0.1,0,0,0.1,0.1,0.1l0,0h0.1c0,0,0.1,0,0.1,0.1c-0.1,0-0.1,0-0.1,0
							l0.1,0.1l0,0c0.1,0,0.2,0.1,0.3,0.1c0.1,0.1,0.2,0.1,0.3,0.1l0,0c0.1,0,0.2,0,0.3,0l0,0c0.1,0,0.2,0,0.2-0.1
							c0.1,0,0.1,0,0.2-0.1l0,0c0.1,0,0.1-0.1,0.2-0.1l0,0c0.1,0,0.2-0.1,0.2-0.1c0.1,0,0.2,0,0.2-0.1h-0.1c0.1,0,0.2-0.1,0.3-0.1
							l0,0c0.1,0,0,0,0.1,0l0,0l0,0l0,0c0.1,0,0.2,0,0.2,0l0,0c0.1,0,0.1,0,0.1,0l0,0c0.1,0,0.1,0,0.1,0c0.1,0,0,0,0.1,0l0,0l0,0
							c0,0,0,0,0.1,0h0.1h-0.1c0.1,0,0.1,0,0.2,0l0,0c0,0,0,0,0.1,0h0.1h0.1c0.2,0,0.3,0,0.4,0l0,0c0.1,0,0.1,0,0.2,0l0,0
							c0.1,0,0.1,0,0.2,0.1l0,0l0,0c-0.1-0.1,0.1,0,0.1-0.1c0,0,0.2,0.1,0.1,0.1l0,0c0,0,0,0,0.1,0l0,0c0.1,0,0.1,0,0.2,0.1
							c0.1,0,0.2,0,0.2,0.1c0,0-0.1,0,0,0c0.2,0,0.2,0.1,0.4,0.2c0,0-0.2-0.1-0.1-0.1c0.2,0.1,0.3,0.2,0.3,0.3c0,0,0,0,0,0.1v0.1
							c0,0,0,0-0.1,0.1l0,0c-0.1,0-0.1,0.2-0.1,0.2l-0.1,0.1c0,0.1-0.1,0.1-0.1,0.2l-0.1,0.1l0,0l-0.1,0.1l0,0c0,0-0.1,0.1-0.1,0.2
							l0,0c-0.1,0.2-0.2,0.5-0.3,0.7l0,0c0,0.2-0.1,0.1-0.1,0.2c-0.1,0.3-0.2,0.7-0.3,0.9l0,0c0,0,0,0,0,0.1l0,0c0,0,0,0.1-0.1,0.1
							l-0.1,0.1C26-3,26-3,25.9-2.9c-0.1,0.1-0.2,0.2-0.3,0.2c0,0,0.1,0,0,0h-0.1c-0.1,0-0.1,0-0.1,0l0,0c-0.2,0-0.4,0.2-0.6,0.2
							l0,0c0,0,0,0-0.1,0c0,0,0,0,0-0.1c-0.2,0-0.2,0-0.4,0c0.1,0-0.1,0-0.1,0s0,0-0.1,0s-0.2,0-0.3,0c-0.1,0-0.1,0-0.1,0
							c-0.2,0-0.2,0-0.4,0l0,0c-0.1,0-0.2,0-0.2,0l0,0H23c0.1,0,0.1,0,0,0s0,0,0,0l0,0c-0.1,0-0.1,0,0,0c-0.2,0-0.3,0-0.5,0l0,0
							c-0.1,0-0.2,0-0.2,0l0,0c-0.1,0,0,0-0.1,0h0.1c0,0,0,0-0.1,0h-0.1c0,0-0.1,0-0.2,0c0,0,0,0,0.1,0h-0.1h-0.1l-0.1-0.1l0,0
							c-0.1,0-0.1-0.1-0.1-0.1c-0.2-0.1-0.1-0.1-0.2-0.1c0,0-0.2-0.1-0.2-0.2c-0.2-0.1-0.3-0.2-0.5-0.4l0,0c-0.1,0,0-0.1-0.1-0.2
							l0,0c-0.1-0.1-0.2-0.2-0.3-0.3l0,0c0,0,0.1,0,0,0l0,0v-0.1c-0.1-0.1-0.3-0.3-0.4-0.4l0,0c-0.1-0.1-0.1-0.2-0.2-0.3l0,0
							c0,0,0,0,0-0.1c0,0,0,0,0,0.1c-0.1-0.1,0-0.1,0-0.2l0,0c-0.1-0.1,0-0.1,0-0.1c0-0.1-0.1-0.1-0.1-0.2l0,0c0-0.1,0-0.1-0.1-0.3
							c-0.1-0.1,0,0.1-0.1,0v0.1c0-0.1,0,0.1,0,0.1c0-0.1,0-0.2,0-0.2v0.1l0,0l0,0c0,0,0,0,0-0.1c0,0,0,0,0.1,0l0,0
							c0-0.1-0.1-0.2-0.1-0.3l0,0C19.1-5.9,19.1-6,19-6.1C19-6.1,19-6,19-6.1C19-6.1,19.1-6.1,19-6.1C19-6.2,19-6.1,19-6.1z
							 M19.6-4.3L19.6-4.3L19.6-4.3L19.6-4.3z M19.7-4.2L19.7-4.2L19.7-4.2L19.7-4.2z M19.4-4.4L19.4-4.4
							C19.4-4.4,19.4-4.3,19.4-4.4C19.4-4.3,19.4-4.3,19.4-4.4L19.4-4.4z"/>
						<path fill="#202020" d="M19.4-4.4L19.4-4.4L19.4-4.4L19.4-4.4L19.4-4.4z"/>
						<path fill="#202020" d="M22.7-6.7L22.7-6.7L22.7-6.7L22.7-6.7z"/>
						<path fill="#202020" d="M21.5-2.6L21.5-2.6L21.5-2.6z"/>
						<path fill="#202020" d="M21.8-7L21.8-7L21.8-7z"/>
						<path fill="#202020" d="M21.3-7.2L21.3-7.2C21.4-7.2,21.4-7.2,21.3-7.2z"/>
						<path fill="#202020" d="M21.1-7.2L21.1-7.2L21.1-7.2L21.1-7.2z"/>
						<path fill="#202020" d="M26-7.1L26-7.1L26-7.1z"/>
						<path fill="#202020" d="M24.5-7.3L24.5-7.3L24.5-7.3z"/>
						<polygon fill="#202020" points="26.9,-6.2 26.9,-6.3 26.9,-6.3 						"/>
						<path fill="#202020" d="M24.5-7.3C24.6-7.3,24.6-7.3,24.5-7.3C24.6-7.3,24.6-7.3,24.5-7.3z"/>
						<path fill="#202020" d="M19.7-7.2L19.7-7.2L19.7-7.2L19.7-7.2z"/>
						<path fill="#202020" d="M19.7-7.2L19.7-7.2L19.7-7.2z"/>
						<path fill="#202020" d="M19.7-7.2L19.7-7.2L19.7-7.2z"/>
						<path fill="#202020" d="M20.1-7.1L20.1-7.1L20.1-7.1z"/>
						<path fill="#202020" d="M20.1-7.1L20.1-7.1c0.1,0,0.1,0,0.1,0H20.1z"/>
						<path fill="#202020" d="M20.7-7.3L20.7-7.3h0.1C20.6-7.3,20.8-7.4,20.7-7.3z"/>
						<path fill="#202020" d="M21.1-7.4L21.1-7.4C21.2-7.4,21.2-7.4,21.1-7.4z"/>
						<path fill="#202020" d="M23.3-7.1L23.3-7.1C23.4-7.1,23.4-7.1,23.3-7.1z"/>
						<path fill="#202020" d="M23.8-7.1L23.8-7.1L23.8-7.1z"/>
						<path fill="#202020" d="M24.1-7.3H24H24.1z"/>
						<path fill="#202020" d="M26.9-5.8L26.9-5.8L26.9-5.8z"/>
						<path fill="#202020" d="M26.3-4.1C26.3-4.2,26.3-4.2,26.3-4.1C26.3-4.2,26.3-4.2,26.3-4.1z"/>
						<polygon fill="#202020" points="21.8,-2.2 21.9,-2.2 21.9,-2.2 						"/>
					</g>
					<g>
						<path fill="#202020" d="M21.8-4.9L21.8-4.9C21.9-4.9,21.9-4.9,21.8-4.9L21.8-4.9z"/>
						<path fill="#202020" d="M21.8-4.8L21.8-4.8C21.8-4.9,21.8-4.8,21.8-4.8L21.8-4.8C21.7-4.8,21.7-4.8,21.8-4.8
							C21.7-4.8,21.8-4.8,21.8-4.8L21.8-4.8z"/>
						<path fill="#202020" d="M22.8-4.2L22.8-4.2L22.8-4.2z"/>
						<path fill="#202020" d="M23.2-4.8L23.2-4.8L23.2-4.8z"/>
						<path fill="#202020" d="M23.4-4.9L23.4-4.9L23.4-4.9z"/>
						<path fill="#202020" d="M22.8-4.2L22.8-4.2L22.8-4.2z"/>
						<path fill="#202020" d="M21.6-4.7L21.6-4.7L21.6-4.7L21.6-4.7z"/>
						<path fill="#202020" d="M22.4-4.2L22.4-4.2L22.4-4.2L22.4-4.2z"/>
						<path fill="#202020" d="M22.1-4.3L22.1-4.3L22.1-4.3L22.1-4.3z"/>
						<path fill="#202020" d="M21.8-4.6L21.8-4.6L21.8-4.6z"/>
						<path fill="#202020" d="M22.6-4.2L22.6-4.2L22.6-4.2z"/>
						<path fill="#202020" d="M20.2-5.7L20.2-5.7L20.2-5.7z"/>
						<path fill="#202020" d="M20.3-5.4L20.3-5.4L20.3-5.4z"/>
						<path fill="#202020" d="M23.8-4.9L23.8-4.9C23.8-4.9,23.7-4.9,23.8-4.9z"/>
						<path fill="#202020" d="M24.4-6.1L24.4-6.1C24.4-6,24.4-6.1,24.4-6.1z"/>
						<path fill="#202020" d="M21.6-4.6L21.6-4.6C21.6-4.7,21.6-4.7,21.6-4.6z"/>
						<path fill="#202020" d="M24.4-6.1L24.4-6.1L24.4-6.1L24.4-6.1z"/>
						<path fill="#202020" d="M24.4-4.7L24.4-4.7L24.4-4.7z"/>
						<path fill="#202020" d="M23.9-4.7L23.9-4.7L23.9-4.7z"/>
						<path fill="#202020" d="M24.6-4.7L24.6-4.7C24.6-4.8,24.6-4.8,24.6-4.7C24.6-4.8,24.6-4.8,24.6-4.7z"/>
						<path fill="#202020" d="M24.7-4.9L24.7-4.9L24.7-4.9z"/>
						<path fill="#202020" d="M20.9-6.2L20.9-6.2C20.8-6.3,20.9-6.2,20.9-6.2z"/>
						<path fill="#202020" d="M21.6-4.7L21.6-4.7L21.6-4.7L21.6-4.7z"/>
						<path fill="#202020" d="M24.7-4.6L24.7-4.6L24.7-4.6z"/>
						<path fill="#202020" d="M22.6-6L22.6-6L22.6-6z"/>
						<path fill="#202020" d="M24.9-4.8C24.8-4.8,24.8-4.8,24.9-4.8C24.8-4.8,24.8-4.8,24.9-4.8C24.8-4.8,24.8-4.8,24.9-4.8z"/>
						<path fill="#202020" d="M20.9-6.2L20.9-6.2L20.9-6.2z"/>
						<path fill="#202020" d="M20.5-6.3C20.5-6.3,20.5-6.2,20.5-6.3c-0.1,0-0.1,0.1-0.1,0l0,0h-0.1h0.1h-0.1c0,0,0,0,0,0.1l0,0
							c-0.1,0-0.1,0.1-0.1,0.1c0.1,0,0,0.1,0,0.1s0,0.1-0.1,0.1c0.1,0,0,0,0,0.1v0.1l0,0l0,0c0,0,0,0-0.1,0c0,0,0,0,0.1,0l0,0l0,0
							l0,0l0,0l0,0l0,0c0,0.1,0.1,0,0.1,0l0,0l0,0c0,0,0,0,0-0.1s-0.1,0-0.1,0v-0.1l0,0l0,0c0,0,0,0,0-0.1l0,0c0.1-0.1,0-0.1,0-0.2
							h0.1l0,0h0.1c0-0.1,0.1-0.1,0.1-0.1c0.1,0,0.1,0,0.2-0.1l0,0c0.1,0,0.1,0,0.1,0s0.1,0,0.1,0.1l0,0l0,0v0.1l0,0l0,0
							c0,0.1,0,0.1,0.1,0.2H21l0,0c0,0,0,0,0.1,0c0,0,0,0-0.1,0l0,0l0,0l0,0l0,0h0.1l0,0l0,0l0,0l0,0c0,0,0.1,0,0.1,0.1l0,0
							c0,0,0,0-0.1,0l0,0c0.1,0,0.1,0,0.1,0l0,0h0.1h0.1c0,0,0,0,0.1,0l0,0c0,0,0,0,0.1,0l0,0c0.1,0,0.1,0,0.1,0l0,0h0.1h0.1l0,0
							c0.1,0,0.1,0,0.2-0.1l0,0c0,0,0.1,0.1,0.1,0l0,0c0.1,0,0.1,0,0.2,0l0,0h0.1c0-0.1,0.2,0,0.2-0.1l0,0h0.1l0,0c0,0,0,0,0.1,0
							l0,0c0.1,0,0.2,0,0.3-0.1c0.1,0,0.2,0,0.3,0l0,0c0,0,0.1,0,0.1-0.1c0.1,0,0.1,0,0.2,0l0,0h0.1l0,0c0,0,0,0,0.1,0l0,0
							c0.1,0,0.2,0,0.2,0l0,0h0.1l0,0c0.1,0,0.1,0,0.1,0l0,0c0,0,0.1,0,0,0c0,0,0,0,0.1,0l0,0h0.1l0,0c0,0,0,0,0,0.1
							c0.1,0,0.1,0.1,0.2,0.1S24.9-6,24.9-6v0.1l0,0v0.1v-0.1v0.1l0,0c0,0,0.1,0,0,0.1l0,0v0.1l0,0c0,0,0,0,0,0.1l0,0c0,0,0,0,0.1,0
							h-0.1c0,0,0,0,0.1,0c0,0,0,0.1-0.1,0.1l0,0c0,0-0.1,0.1,0,0.1l0,0c0,0-0.1,0.1,0,0.1l0,0c0,0-0.1,0-0.1,0.1l0,0
							c0,0,0,0.1-0.1,0.1c0,0.1-0.1,0.1-0.1,0.2l0,0l0,0l0,0h-0.1l0,0c0,0,0,0,0.1,0c-0.1,0-0.1,0-0.1,0l0,0h-0.1l0,0h-0.1l0,0
							c-0.1,0-0.1,0-0.2,0l0,0c-0.1,0-0.1,0-0.1,0l0,0c0,0,0,0,0.1,0l0,0h0.1l0,0h-0.1l0,0H24l0,0l0,0l0,0c0,0,0,0-0.1,0l0,0l0,0
							c-0.1,0,0-0.1-0.1-0.1l0,0l0,0c0.1,0,0,0,0,0h-0.1c0,0,0,0,0-0.1l0,0l0,0l0,0l0,0h-0.1l0,0c-0.1,0,0,0-0.1,0s0,0-0.1,0l0,0
							c-0.1,0-0.1,0-0.2,0c0,0,0.1,0,0,0c0,0-0.1,0-0.1,0.1l0,0l0,0l0,0c0,0,0,0,0,0.1H23c0,0-0.1,0-0.1,0.1v0.1l0,0
							c0.1,0.1,0,0.1,0,0.2l0,0c0,0,0,0,0.1,0.1l0,0l0,0c0,0,0,0,0,0.1l0,0l0,0l0,0h-0.1l0,0c-0.1,0-0.1,0.1-0.2,0.1l0,0l0,0l0,0
							l0,0h-0.1l0,0l0,0l0,0l0,0c0,0,0,0-0.1,0l0,0l0,0l0,0l0,0l0,0l0,0c-0.1,0,0-0.1,0-0.1c-0.1,0-0.1,0-0.1,0l0,0l0,0l0,0l0,0
							c0,0-0.1,0-0.1-0.1l0,0h-0.1c0,0-0.1,0-0.1-0.1H22l0,0c0,0,0-0.1-0.1,0l0,0c-0.1,0-0.1,0-0.1,0l0,0l0,0l0,0h-0.1
							c0-0.1,0.1,0,0-0.1l0,0c0,0,0,0-0.1-0.1l0,0l0,0l0,0l0,0l0,0l0,0l0,0c0,0,0,0,0-0.1l0,0l0,0l0,0c0,0,0.1,0,0,0l0,0
							c0,0,0,0-0.1,0c0,0,0,0-0.1,0l0,0l0,0l0,0l0,0l0,0l0,0l0,0l0,0l0,0l0,0l0,0c0,0,0,0.1,0.1,0.1l0,0v0.1c0,0.1,0.1,0.1,0.1,0.1
							l0,0l0,0c0,0,0.1,0,0.1,0.1l0,0l0,0c0,0.1,0.1,0,0.1,0.1l0,0h0.1l0,0c0,0,0,0,0.1,0l0,0c0,0,0,0,0.1,0.1l0,0c0,0,0,0,0.1,0
							l0,0c0.1,0,0,0,0.1,0l0,0c0,0,0.1,0,0,0l0,0l0,0h0.1l0,0c0.1,0,0.1,0,0.1,0c0.1,0,0.1,0,0.2,0l0,0h0.1l0,0c0.1,0,0.1,0,0.2,0
							l0,0c0.1,0,0.1-0.1,0.1-0.1l0,0c0.1,0,0.1-0.1,0.2-0.2c0,0,0,0-0.1,0c0,0,0-0.1,0-0.2l0,0l0,0l0,0l0,0l0,0c0,0,0-0.1,0.1-0.1
							c0,0,0,0-0.1,0l0,0l0,0l0,0c0,0,0,0,0.1,0l0,0l0,0l0,0c0,0,0,0,0.1,0l0,0l0,0c0,0,0.1,0,0,0c0.1,0,0.1,0.1,0.2,0.1l0,0h0.1
							l0,0c0.1,0,0,0,0.1,0l0,0l0,0c0-0.1,0.1,0,0.1-0.1c0,0,0.1,0.1,0,0.1l0,0l0,0l0,0c0.1,0,0.1,0.1,0.2,0.1l0,0
							c0.1,0,0.1,0.1,0.2,0.1h-0.1c0.1,0,0.2,0,0.3,0c0-0.1,0.1,0,0.2-0.1c0,0,0,0,0.1,0l0,0l0.1-0.1C25-4.6,25-4.7,25-4.7l0.1-0.1
							c0,0,0,0,0.1,0l0,0c0,0,0,0,0-0.1l0,0c0,0,0.1-0.1,0-0.1l0,0c0.1-0.1,0-0.2,0-0.4l0,0c-0.1-0.1,0.1,0,0-0.1
							C25.1-5.7,25-5.8,24.9-6l0,0l0,0l0,0l-0.1-0.1c0,0-0.1-0.1-0.1,0c-0.1,0-0.1,0-0.2-0.1l0,0c0,0,0,0-0.1,0h-0.1l0,0
							c0,0-0.1,0-0.2,0S24-6.1,23.9-6.1l0,0l0,0l0,0c-0.1,0-0.1,0-0.2,0l0,0l0,0c-0.1,0-0.1,0-0.1,0h-0.1c-0.1,0-0.1,0-0.2,0l0,0
							h-0.1l0,0l0,0l0,0l0,0l0,0l0,0c-0.1,0-0.2,0-0.2,0l0,0c-0.1,0-0.1,0-0.1,0l0,0c-0.1,0,0,0-0.1,0l0,0h-0.1L22.6-6l0,0l0,0l0,0
							h-0.1l0,0h-0.1c-0.1,0-0.1,0-0.1,0.1h-0.1c-0.1,0.1-0.2,0.1-0.3,0.1l0,0c-0.1,0-0.1,0-0.1,0l0,0c-0.1,0-0.2,0-0.2,0l0,0l0,0
							l0,0l0,0c-0.1,0-0.2,0-0.2,0l0,0c-0.1,0-0.1-0.1-0.1-0.1l0,0l0,0l0,0c-0.1,0,0,0,0-0.1l0,0c-0.1,0,0,0,0-0.1s-0.1,0-0.1-0.1
							l0,0c-0.1,0-0.1-0.1-0.1-0.1c-0.1,0,0,0,0,0h0.1c-0.1,0,0,0,0,0l-0.1-0.1c0,0,0.1,0,0,0l0,0l0,0c0,0,0,0-0.1,0l0,0l0,0
							c0,0-0.1,0-0.2,0l0,0C20.7-6.2,20.6-6.3,20.5-6.3C20.6-6.2,20.6-6.2,20.5-6.3C20.5-6.2,20.6-6.3,20.5-6.3
							C20.5-6.2,20.6-6.2,20.5-6.3z M21.4-5.8L21.4-5.8L21.4-5.8L21.4-5.8z M21.4-5.8L21.4-5.8C21.5-5.8,21.5-5.8,21.4-5.8
							C21.5-5.8,21.4-5.8,21.4-5.8z M21.2-5.7L21.2-5.7C21.3-5.7,21.3-5.7,21.2-5.7C21.3-5.7,21.3-5.7,21.2-5.7L21.2-5.7z"/>
						<path fill="#202020" d="M21.2-5.7L21.2-5.7C21.2-5.8,21.2-5.8,21.2-5.7C21.2-5.8,21.2-5.8,21.2-5.7L21.2-5.7z"/>
						<path fill="#202020" d="M22.8-4.2L22.8-4.2L22.8-4.2L22.8-4.2z"/>
						<path fill="#202020" d="M22.5-6L22.5-6L22.5-6z"/>
						<path fill="#202020" d="M22.3-4.1L22.3-4.1L22.3-4.1z"/>
						<path fill="#202020" d="M22.1-4.2L22.1-4.2L22.1-4.2z"/>
						<path fill="#202020" d="M22-4.3L22-4.3L22-4.3L22-4.3z"/>
						<path fill="#202020" d="M23.8-4.6L23.8-4.6L23.8-4.6z"/>
						<path fill="#202020" d="M23.3-4.7L23.3-4.7L23.3-4.7z"/>
						<path fill="#202020" d="M24.7-4.6L24.7-4.6L24.7-4.6z"/>
						<path fill="#202020" d="M23.3-4.7L23.3-4.7L23.3-4.7z"/>
						<path fill="#202020" d="M21.6-4.8L21.6-4.8L21.6-4.8L21.6-4.8z"/>
						<path fill="#202020" d="M21.6-4.8L21.6-4.8C21.6-4.8,21.7-4.8,21.6-4.8z"/>
						<path fill="#202020" d="M21.6-4.8L21.6-4.8C21.7-4.8,21.7-4.8,21.6-4.8z"/>
						<path fill="#202020" d="M21.7-4.6L21.7-4.6L21.7-4.6z"/>
						<path fill="#202020" d="M21.7-4.6L21.7-4.6C21.7-4.5,21.7-4.5,21.7-4.6L21.7-4.6z"/>
						<path fill="#202020" d="M21.9-4.5C22-4.5,21.9-4.5,21.9-4.5L21.9-4.5C21.9-4.5,22-4.5,21.9-4.5z"/>
						<path fill="#202020" d="M22.1-4.4L22.1-4.4C22.1-4.3,22.1-4.3,22.1-4.4z"/>
						<path fill="#202020" d="M23-4.3L23-4.3L23-4.3z"/>
						<path fill="#202020" d="M23.2-4.4L23.2-4.4L23.2-4.4z"/>
						<path fill="#202020" d="M23.1-4.6L23.1-4.6L23.1-4.6z"/>
						<path fill="#202020" d="M24.7-4.9L24.7-4.9C24.6-4.9,24.7-4.9,24.7-4.9z"/>
						<path fill="#202020" d="M24.8-5.6C24.7-5.6,24.8-5.6,24.8-5.6L24.8-5.6z"/>
						<path fill="#202020" d="M22.8-5.8L22.8-5.8L22.8-5.8z"/>
					</g>
					<g>
						<path fill="#202020" d="M26.4-7.3L26.4-7.3L26.4-7.3L26.4-7.3z"/>
						<path fill="#202020" d="M26.3-7.3L26.3-7.3L26.3-7.3L26.3-7.3C26.3-7.4,26.3-7.4,26.3-7.3C26.3-7.4,26.3-7.4,26.3-7.3
							L26.3-7.3z"/>
						<path fill="#202020" d="M25.4-9.6L25.4-9.6L25.4-9.6z"/>
						<path fill="#202020" d="M24.8-10.9L24.8-10.9C24.8-11,24.8-11,24.8-10.9z"/>
						<path fill="#202020" d="M24.7-11.2L24.7-11.2L24.7-11.2z"/>
						<path fill="#202020" d="M25.3-9.6L25.3-9.6C25.4-9.6,25.3-9.6,25.3-9.6z"/>
						<path fill="#202020" d="M26.2-7.7L26.2-7.7L26.2-7.7L26.2-7.7z"/>
						<path fill="#202020" d="M25.6-8.9L25.6-8.9L25.6-8.9L25.6-8.9z"/>
						<path fill="#202020" d="M25.7-8.5C25.7-8.5,25.8-8.5,25.7-8.5L25.7-8.5L25.7-8.5z"/>
						<path fill="#202020" d="M26-7.7L26-7.7L26-7.7z"/>
						<path fill="#202020" d="M25.4-9.3L25.4-9.3L25.4-9.3z"/>
						<path fill="#202020" d="M19.4-7.9L19.4-7.9L19.4-7.9z"/>
						<path fill="#202020" d="M19.3-7.3L19.3-7.3L19.3-7.3L19.3-7.3z"/>
						<path fill="#202020" d="M24.5-11.6L24.5-11.6L24.5-11.6z"/>
						<path fill="#202020" d="M23.2-14.2C23.1-14.1,23.2-14.2,23.2-14.2C23.3-14.2,23.2-14.2,23.2-14.2z"/>
						<path fill="#202020" d="M26.2-7.7L26.2-7.7L26.2-7.7z"/>
						<path fill="#202020" d="M23.2-14.2L23.2-14.2L23.2-14.2L23.2-14.2z"/>
						<path fill="#202020" d="M24.2-12.6L24.2-12.6L24.2-12.6z"/>
						<path fill="#202020" d="M24.5-11.9L24.5-11.9L24.5-11.9z"/>
						<path fill="#202020" d="M24.1-13.1L24.1-13.1L24.1-13.1L24.1-13.1z"/>
						<polygon fill="#202020" points="23.9,-13.4 23.9,-13.4 23.9,-13.5 						"/>
						<path fill="#202020" d="M20.1-9C20.1-9.1,20.1-9.1,20.1-9C20-9,20.1-9.1,20.1-9z"/>
						<path fill="#202020" d="M26.2-7.7L26.2-7.7L26.2-7.7L26.2-7.7z"/>
						<path fill="#202020" d="M24.2-13.2L24.2-13.2C24.3-13.2,24.3-13.2,24.2-13.2z"/>
						<path fill="#202020" d="M21.6-11.8L21.6-11.8L21.6-11.8z"/>
						<path fill="#202020" d="M24.2-13.4L24.2-13.4L24.2-13.4L24.2-13.4z"/>
						<path fill="#202020" d="M20.1-9L20.1-9L20.1-9z"/>
						<path fill="#202020" d="M19.8-8.7C19.8-8.6,19.8-8.6,19.8-8.7c-0.1,0.1,0,0.1-0.1,0.1c0,0,0,0,0,0.1c0,0-0.1,0.1-0.1,0h0.1
							c-0.1,0-0.1,0.1-0.1,0.1s0,0,0,0.1l0,0c-0.1,0.1-0.1,0.2-0.1,0.2c0.1,0-0.1,0.1,0,0.1l-0.1,0.1v0.1c0,0,0,0.1-0.1,0.1l0,0
							c0,0,0,0,0,0.1c0,0,0,0-0.1,0l0,0h-0.1l0,0c0,0,0,0,0,0.1l0,0l0,0L19-7.4c0,0.1,0,0.1,0.1,0.1l0,0l0,0c0,0,0.1,0,0.1-0.1
							c0.1-0.1,0,0,0-0.1l0.1-0.1l0,0l0,0c0,0,0-0.1,0.1-0.1l0,0c0.1-0.1,0-0.2,0.1-0.3h0.1l0,0c0,0,0.1,0,0.1-0.1
							c0.1-0.2,0.2-0.4,0.3-0.6l0,0c0-0.2,0.2-0.2,0.3-0.4l0,0c0.1-0.1,0,0,0-0.1l0.1-0.1l0,0l0,0c0.1,0,0.2-0.1,0.2-0.2
							c0,0,0-0.1,0-0.2h0.1c0,0,0,0,0.1-0.1c0,0,0,0-0.1,0.1l0,0l0,0l0,0l0,0l0.1-0.1l0,0l0,0l0,0l0,0c0-0.1,0.1-0.1,0.2-0.1
							c-0.1,0,0,0-0.1,0c0,0,0,0-0.1,0.1l0,0C20.9-10,21-10,21-10.1l0,0h0.1c0,0,0-0.1,0.1-0.1c0,0,0,0,0.1-0.1l0,0
							c0-0.1,0.1,0,0.1-0.1l0,0c0-0.1,0.1-0.1,0.1-0.1l0,0c0,0,0.1-0.1,0.1-0.2c0.1,0,0.1-0.1,0.1-0.2l0,0c0.1-0.1,0.1-0.2,0.1-0.3
							l0,0c0-0.1,0.1,0,0.1-0.1l0,0c0-0.1,0.1-0.1,0.1-0.2l0,0c0,0,0-0.1,0.1-0.1c0-0.1,0.2-0.2,0.2-0.4l0,0c-0.4,0-0.3,0-0.3-0.1
							l0,0c0,0,0,0,0-0.1h0.1c0-0.1,0.1-0.3,0.1-0.4c0.1-0.1,0.1-0.2,0.2-0.4l0,0c0,0,0-0.1,0-0.2s0.1-0.1,0.2-0.3l0,0
							c0,0,0-0.1,0.1-0.1l0,0c0,0,0,0,0.1-0.1l0,0c0-0.1,0.2-0.2,0.2-0.3l0,0c0.1,0,0.2-0.1,0.2-0.2l0,0C23-14,22.9-14,23-14.1v0.1
							h0.1c0,0,0,0,0-0.1l0,0l0.1-0.1l0,0c0,0,0.1-0.1,0.1,0c0.1-0.1,0.1-0.1,0.2-0.2c0,0,0.1,0,0.1-0.1l0,0v-0.1c0,0,0-0.1,0-0.2
							l0,0l0,0l0,0c0,0,0,0,0,0.1l0,0c0,0.1,0,0.1,0,0.1c0-0.1,0-0.2,0-0.2l0,0l0,0l0,0c0,0,0,0,0,0.1v0.1v-0.1c0,0.1,0,0,0,0.1l0,0
							v0.1l0,0l0,0l0,0l0,0l0,0v0.1v-0.1c0,0,0.1,0,0.1,0.1c0,0.1,0,0,0,0.1l0,0c0,0.1,0,0.2,0,0.2l0,0c0,0.1,0,0.2,0.1,0.2l0,0
							c0.1,0,0,0.2,0.1,0.2c0,0,0-0.1,0,0c0.1,0.1,0,0.1,0,0.1l0,0c0,0,0,0.1,0.1,0.2c0,0,0,0.2,0,0.2l0,0l0,0l0,0v0.1
							c0,0,0,0,0,0.1c0-0.1,0,0,0-0.1c0,0.1,0,0.1,0,0.2l0,0v0.1c0,0,0,0,0.1,0v0.1l0,0c0.1,0.1,0,0.2,0.1,0.2h0.1
							c0,0,0,0.1,0.1,0.1l0,0v-0.1v0.1v-0.1l0,0c0,0.1,0.1,0.1,0.1,0.1s0,0,0.1,0C24.4-12,24.5-12,24.5-12l0,0v0.1l0,0
							c0,0,0,0,0,0.1c0,0,0,0.1,0,0l0,0c0,0.1,0,0,0,0.1l0,0l0,0c0-0.1,0.1,0,0-0.1c0,0,0,0.1,0.1,0.1h-0.1l0,0l0,0c0,0,0,0,0,0.1
							l0,0c0,0,0.1,0.1,0.1,0.2c0,0,0-0.1,0,0s0,0,0.1,0c0,0.1,0,0,0,0.1l0,0c0,0.1,0,0.1,0.1,0.2l0,0c0,0,0,0,0.1,0.1l0,0l0,0l0,0
							H25c0,0.1,0,0,0,0c0,0.1,0,0.1,0,0.2l0.1,0.1c0,0,0-0.1-0.1,0c0.1,0.1,0,0.2,0.1,0.3l0,0c0,0,0,0,0,0.1l0,0c0,0,0,0.1,0.1,0.1
							c0,0.1,0,0.1,0.1,0.1c0-0.1,0,0,0,0v0.1l0,0c0,0.1,0,0.1,0,0.2l0,0c0,0.1,0.1,0.2,0.1,0.3l0,0l0,0l0,0l0,0c-0.1,0,0,0.1,0,0.1
							l0,0c0,0,0,0,0,0.1c0,0,0,0,0.1,0l0,0c0,0,0,0,0.1,0.1l0,0l0,0l0,0l0,0l0,0l0,0c0,0.1-0.1,0-0.1,0c0,0.1,0,0.1,0.1,0.2l0,0
							c0,0,0,0,0,0.1l0,0l0,0c0,0.1,0.1,0.1,0,0.1l0,0l0.1,0.2c0,0.1,0.1,0.1,0,0.2l0.1,0.1c0.1,0,0,0,0,0s0,0.1,0.1,0.1
							c0,0.1,0,0,0,0c0.1,0,0,0.1,0.1,0.1l0,0l0,0l0,0h0.1c0,0.1-0.1,0,0,0.1l0,0c0,0,0,0.1,0.1,0.2l0,0l0,0l0,0c0,0,0,0,0,0.1l0,0
							v0.1l0,0c0,0.1,0,0.2,0.1,0.2l0,0l0,0l0,0l0,0v-0.1l0,0v-0.1l0,0c0,0,0,0,0-0.1l0,0c0,0,0-0.1-0.1-0.1l0,0c0-0.1,0-0.1,0-0.2
							c0-0.1-0.1-0.2-0.1-0.3c0,0,0.1,0,0,0l0,0c0-0.1-0.1-0.1,0-0.1l0,0c0,0,0-0.1-0.1,0c0-0.1-0.1-0.1,0-0.2l0,0v-0.1l0,0
							c0,0,0,0-0.1-0.1c0,0,0,0,0,0.1c-0.1,0,0-0.1,0-0.1l0,0v-0.1l0,0c-0.1-0.1,0,0,0-0.1l0,0h-0.1v-0.1c0,0,0,0,0.1,0v-0.1l0,0
							c-0.1-0.1-0.1-0.3-0.2-0.4l0,0c0,0,0-0.1-0.1-0.2l0,0c0-0.1,0-0.2-0.1-0.3l0,0c0-0.1-0.1-0.1-0.1-0.1l0,0
							c-0.1-0.1-0.1-0.2-0.1-0.4c0,0,0,0.1,0,0s-0.1-0.2-0.1-0.2l0,0c-0.1-0.1,0,0,0-0.1l0,0l0,0l0,0c0,0,0-0.1,0-0.2c0,0,0,0-0.1,0
							v-0.1l0,0C25-10.9,25-11,25-11c0-0.1,0,0,0-0.1l0,0v-0.1l0,0v-0.1l0,0v-0.1c0,0,0-0.1-0.1,0c-0.1-0.1,0-0.2-0.1-0.3l0,0
							c0-0.1,0-0.1,0-0.1l0,0c0-0.1,0,0,0-0.1l0,0l0,0c-0.1,0.1-0.1-0.1-0.1,0V-12l0,0l0,0l0,0c0-0.1-0.1-0.2-0.1-0.3c0,0,0,0.1,0,0
							c-0.1-0.1,0-0.2-0.1-0.3c-0.1,0,0,0.1,0,0.2c0-0.1-0.1-0.3-0.1-0.4c-0.1,0,0-0.1-0.1-0.2c0,0,0,0,0-0.1l0,0c0,0,0-0.2-0.1-0.2
							v-0.1c0,0,0-0.1-0.1-0.2v-0.1l0,0v-0.1l0,0v-0.1l0,0c0-0.2-0.1-0.4-0.2-0.5l0,0c0-0.1,0-0.1,0-0.1s0-0.1,0-0.2v-0.1v-0.1
							c0-0.1,0-0.2,0-0.3v-0.3v-0.1l0,0l0,0c0,0.1-0.1,0.2-0.1,0.3c0,0.1-0.1,0.2-0.1,0.3l-0.1,0v0.1l0,0l0,0c0,0.1-0.1,0.1-0.1,0.2
							l0,0c0,0,0,0.1-0.1,0.1l0,0c0,0.1,0,0.1-0.1,0.1c0,0-0.1,0-0.1,0.1c-0.1,0-0.1,0.1-0.1,0.2c-0.1-0.1-0.1,0-0.3,0.1
							c0,0,0.1,0,0,0L22.7-14l0,0c-0.1,0.1-0.2,0.3-0.3,0.4l0,0c0,0,0,0,0,0.1l0,0c-0.1,0.1-0.1,0.2-0.2,0.2c0,0,0,0,0,0.1
							c0,0,0,0-0.1,0c0,0.1,0,0.2-0.1,0.2c0,0,0,0.1-0.1,0.1c0,0.1-0.1,0.2-0.1,0.3l0,0v0.1l0,0l0,0c0,0,0.1,0,0,0l0,0l0,0h-0.1
							c0,0.1-0.1,0.2-0.1,0.3l0,0c0,0-0.1,0.1-0.1,0.2l0,0c-0.1,0,0,0,0,0.1c0,0,0,0,0.1,0l-0.1,0.1c0,0,0,0.1-0.1,0.2l0,0l0,0l0,0
							h-0.1l0,0c0,0-0.1,0-0.1,0.1c-0.1,0.1,0,0.1,0,0.2c-0.1,0,0,0.1-0.1,0.2c0,0.1-0.1,0.3-0.1,0.4l0,0c0,0.1-0.1,0.1-0.1,0.1l0,0
							c0,0.1-0.1,0.2-0.2,0.3l0,0l0,0l0,0h-0.1c-0.1,0.1-0.1,0.2-0.2,0.3l0,0c-0.1,0.1-0.2,0.2-0.2,0.2l0,0c0,0-0.1,0-0.1,0.1
							c0,0,0,0,0.1,0c-0.1,0.1-0.1,0-0.1,0.1h0.1c0,0.1-0.1,0-0.1,0.1c-0.1,0.1,0,0.1-0.1,0.2c0,0,0,0-0.1,0
							c-0.1,0.1-0.1,0.1-0.1,0.2c0,0.1,0,0,0,0v-0.1c0,0.1,0,0,0.1,0l-0.1,0.1c0,0,0-0.1,0.1,0l0,0l0,0c0,0,0,0,0,0.1l0,0l0,0
							c0.1,0,0.1,0.1,0,0.2l0,0C19.9-8.8,19.9-8.8,19.8-8.7C19.9-8.7,19.9-8.7,19.8-8.7L19.8-8.7L19.8-8.7z M20.7-9.9L20.7-9.9
							L20.7-9.9L20.7-9.9z M20.8-10L20.8-10L20.8-10L20.8-10z M20.8-9.7L20.8-9.7L20.8-9.7L20.8-9.7L20.8-9.7z"/>
						<path fill="#202020" d="M20.7-9.7L20.7-9.7L20.7-9.7L20.7-9.7L20.7-9.7z"/>
						<path fill="#202020" d="M25.4-9.6C25.4-9.5,25.4-9.6,25.4-9.6L25.4-9.6C25.4-9.5,25.4-9.6,25.4-9.6z"/>
						<path fill="#202020" d="M21.5-11.6L21.5-11.6L21.5-11.6z"/>
						<path fill="#202020" d="M25.7-8.9L25.7-8.9L25.7-8.9z"/>
						<path fill="#202020" d="M25.8-8.6L25.8-8.6L25.8-8.6z"/>
						<path fill="#202020" d="M25.9-8.4L25.9-8.4L25.9-8.4L25.9-8.4z"/>
						<path fill="#202020" d="M24.7-11.9L24.7-11.9C24.7-12,24.7-12,24.7-11.9z"/>
						<path fill="#202020" d="M25-10.9L25-10.9L25-10.9z"/>
						<path fill="#202020" d="M24.3-13.1L24.3-13.1L24.3-13.1z"/>
						<path fill="#202020" d="M25-10.9L25-10.9C24.9-10.9,25-10.9,25-10.9z"/>
						<path fill="#202020" d="M26.3-7.5C26.3-7.4,26.3-7.4,26.3-7.5L26.3-7.5L26.3-7.5z"/>
						<path fill="#202020" d="M26.3-7.4L26.3-7.4L26.3-7.4z"/>
						<path fill="#202020" d="M26.3-7.4L26.3-7.4L26.3-7.4z"/>
						<path fill="#202020" d="M26.2-7.8L26.2-7.8L26.2-7.8z"/>
						<path fill="#202020" d="M26.2-7.8L26.2-7.8C26.2-7.8,26.1-7.8,26.2-7.8C26.1-7.8,26.2-7.8,26.2-7.8z"/>
						<path fill="#202020" d="M25.9-8.1L25.9-8.1L25.9-8.1C25.9-8.1,25.8-8.2,25.9-8.1z"/>
						<path fill="#202020" d="M25.8-8.4L25.8-8.4C25.7-8.4,25.7-8.4,25.8-8.4z"/>
						<path fill="#202020" d="M25.1-10.1L25.1-10.1L25.1-10.1z"/>
						<path fill="#202020" d="M25.2-10.4L25.2-10.4L25.2-10.4z"/>
						<path fill="#202020" d="M24.9-10.6v0.1V-10.6z"/>
						<path fill="#202020" d="M24-13.4L24-13.4C23.9-13.3,24-13.4,24-13.4z"/>
						<path fill="#202020" d="M23.6-14.6C23.6-14.5,23.6-14.5,23.6-14.6L23.6-14.6z"/>
						<path fill="#202020" d="M21.9-11.8L21.9-11.8L21.9-11.8z"/>
					</g>
				</g>
				<polygon fill="none" points="31.9,0 14,0 14,-18 31.9,-18 				"/>
			</g>
			<g>
				<polygon fill="none" points="18,0 0,0 0,-18 18,-18 				"/>
			</g>
		</g>
	</g>
</pattern>
<pattern  id="SVGID_2_" xlink:href="#SVGID_1_" patternTransform="matrix(1.0109 0 0 -0.9896 52.8716 -15925.5195)">
</pattern>
<rect opacity="0.5" fill="url(#SVGID_2_)" width="144" height="144"/>
</svg>
