<?xml version="1.0" encoding="utf-8"?>
<!-- Generator: Adobe Illustrator 18.0.0, SVG Export Plug-In . SVG Version: 6.00 Build 0)  -->
<!DOCTYPE svg PUBLIC "-//W3C//DTD SVG 1.1//EN" "http://www.w3.org/Graphics/SVG/1.1/DTD/svg11.dtd">
<svg version="1.1" id="Layer_1" xmlns="http://www.w3.org/2000/svg" xmlns:xlink="http://www.w3.org/1999/xlink" x="0px" y="0px"
	 viewBox="0 0 144 144" enable-background="new 0 0 144 144" xml:space="preserve">
<g>
	<g>
		<g>
			<g>
				<g>
					<g>
						<path fill="#202020" d="M55.4,71c-0.1,0,0,0.1,0.2,0.1l0.1-0.1L55.4,71z"/>
						<path fill="#202020" d="M56.6,71.1c0.2-0.1,0.5-0.2,0.3-0.3c-0.2,0.2-0.3,0.1-0.5,0.3c-0.2,0-0.3,0-0.3-0.1
							c-0.1,0-0.3,0-0.4,0.1C56,71.2,56.3,71.2,56.6,71.1C56.7,71.1,56.6,71.1,56.6,71.1z"/>
						<path fill="#202020" d="M67.5,58.1l0,0.1C67.5,58.2,67.5,58.2,67.5,58.1z"/>
						<path fill="#202020" d="M67.6,46.6c0,0.1,0,0.1,0,0.1C67.6,46.6,67.6,46.6,67.6,46.6z"/>
						<path fill="#202020" d="M67.7,44.6c0,0,0,0.1,0,0.1C67.7,44.7,67.8,44.6,67.7,44.6z"/>
						<path fill="#202020" d="M67.5,58.1l0-0.3C67.5,57.8,67.5,58,67.5,58.1z"/>
						<path fill="#202020" d="M59,70.3c-0.1,0-0.1,0.1-0.1,0.1L59,70.3L59,70.3z"/>
						<path fill="#202020" d="M66.9,63.2L66.9,63.2c0,0.1,0,0.2,0,0.2L66.9,63.2z"/>
						<path fill="#202020" d="M65.1,66.7c0.1-0.1,0-0.2,0-0.2C65,66.6,65,66.7,65.1,66.7C65,66.7,65,66.8,65.1,66.7z"/>
						<path fill="#202020" d="M60,70.4L60,70.4C59.9,70.4,60,70.4,60,70.4z"/>
						<path fill="#202020" d="M67.6,60.5C67.6,60.5,67.6,60.4,67.6,60.5C67.6,60.4,67.6,60.4,67.6,60.5z"/>
						<path fill="#202020" d="M50.8,70.7C50.8,70.7,50.8,70.7,50.8,70.7C50.8,70.7,50.9,70.7,50.8,70.7z"/>
						<path fill="#202020" d="M55.4,71.3L55.4,71.3C55.3,71.3,55.3,71.3,55.4,71.3L55.4,71.3z"/>
						<path fill="#202020" d="M67.5,40.9C67.5,40.9,67.5,40.9,67.5,40.9C67.5,41,67.5,41,67.5,40.9z"/>
						<path fill="#202020" d="M38.1,32.3c0.4,0-0.5,0.3,0,0.2C38.1,32.5,38.6,32.2,38.1,32.3z"/>
						<path fill="#202020" d="M59.1,70.3l0.1-0.1C59.2,70.2,59.2,70.2,59.1,70.3z"/>
						<path fill="#202020" d="M38.1,32.6L38.1,32.6L38.1,32.6C38.2,32.6,38.1,32.6,38.1,32.6z"/>
						<path fill="#202020" d="M62.7,33.9C62.7,33.9,62.7,34,62.7,33.9C62.8,34,62.8,34,62.7,33.9z"/>
						<path fill="#202020" d="M66.6,38.9l-0.1-0.1C66.5,38.8,66.6,38.9,66.6,38.9z"/>
						<path fill="#202020" d="M59.7,32.4c-0.1,0-0.1-0.1-0.2-0.1c0,0,0,0,0,0C59.6,32.4,59.7,32.4,59.7,32.4z"/>
						<path fill="#202020" d="M56.4,31.7L56.4,31.7c0.1,0,0.1,0,0.2,0L56.4,31.7z"/>
						<path fill="#202020" d="M40.7,70.6c0.1,0,0.1,0.1,0.1,0.1C40.8,70.6,41.3,70.7,40.7,70.6z"/>
						<path fill="#202020" d="M59.1,70.3C59.1,70.3,59.1,70.3,59.1,70.3L59.1,70.3C59,70.3,59,70.3,59.1,70.3z"/>
						<path fill="#202020" d="M59.3,33.2L58.8,33C59,33.1,59.1,33.1,59.3,33.2z"/>
						<path fill="#202020" d="M31,52.1l0,0.1C31.1,52.2,31.1,52.1,31,52.1z"/>
						<path fill="#202020" d="M57.4,32.7c-0.1-0.1-0.2-0.1-0.3-0.1c0,0,0,0-0.1,0L57.4,32.7z"/>
						<path fill="#202020" d="M40.9,70.7L40.9,70.7L40.9,70.7z"/>
						<path fill="#202020" d="M44.3,70.6c-0.5,0-0.2,0.1-0.3,0.2c-0.6,0-0.3-0.1-0.5-0.2c-0.4,0-0.7,0.2-0.9,0.2c0,0-0.1,0,0-0.1
							c-0.4,0.1-1.1,0-1.6,0c0,0,0,0-0.1,0c0.1,0.1,0.1,0.2,0,0.2c-0.2,0-0.4,0-0.5-0.1c0.1,0,0.2,0,0.2,0l-0.2,0
							c-0.2-0.2,0.3,0,0.3-0.1c-0.5,0-1,0-1.3-0.2c0-0.1,0.8,0.2,0.4-0.1l0.5,0.2c-0.4-0.3,0.3,0.1,0-0.2c-0.7-0.2-0.8-0.1-1.4-0.4
							c-0.2,0,0,0.1-0.2,0.1c-1-0.2-0.6-0.6-1.3-0.7c-0.2,0-0.4,0.1-0.8-0.2l0.2,0c-0.6-0.4-0.5,0-1-0.5c0.1,0,0.5,0.3,0.4,0.2
							c-0.3-0.3-0.3-0.1-0.6-0.3l0-0.1c-0.3-0.2-0.6-0.4-0.9-0.7c-0.3-0.2-0.6-0.5-0.9-0.8c0.1,0,0.2,0.1,0.1-0.1
							c-0.4-0.3-0.7-0.8-1-1.2c-0.3-0.5-0.5-0.9-0.7-1.4L32.1,64c0-0.1,0-0.2,0-0.1c-0.1-0.4-0.1,0-0.2-0.1c-0.1-0.2,0-0.3,0-0.2
							c-0.3-0.6-0.8-1.7-0.8-2.5l0.1,0.1c0-0.5-0.4-0.6-0.3-1.1l0,0.1c0-1.2-0.1-2.6,0.1-3.5c-0.2-0.2,0.1-1.2-0.2-1.3
							c0.1-0.7,0.2-0.5,0.2-1.5c0-0.3-0.1-0.4-0.2-0.7l0.1,0l-0.1-0.4l0.1-0.2l0-0.3c0,0.1-0.1,0.3-0.1,0.2
							c-0.1-0.5,0.1-1.2,0.1-1.2L31,50.1c0,0,0.1,0.2,0.1,0.4c-0.1-0.6,0.1-0.1,0-0.7c0,0.1-0.1,0-0.1-0.1c0.1-0.3,0.1-0.9,0-1.4
							l0.1,0.1c0-0.8,0-1.8,0-2.7c0,0.3-0.2,0.3-0.2,0l0.1-0.1c-0.1-0.2,0,0.3-0.1-0.1c0-0.4,0.1-0.2,0.2,0l0-0.4
							c0,0,0.1,0.1,0.1,0.1c-0.1-0.2,0.1-0.7,0-1l0,0c0-0.9,0-1.3,0.1-2c-0.1,0,0-0.3-0.1-0.5c0.2-0.5,0.4-1.1,0.6-1.7
							c0.1-0.5,0-0.2,0-0.4c0.1,0,0.4-0.6,0.3-0.3c0.2-0.4,0.3-0.6,0.4-0.8c0.1-0.2,0.3-0.5,0.5-1c-0.1,0.1-0.2,0.2-0.2,0.1
							c0.1-0.2,0.3-0.3,0.3-0.3l0,0c0.5-1.1,1.9-1.8,2.4-2.5l0,0l0.7-0.6c0.4-0.2-0.2,0.2,0.1,0.1c0.8-0.7,1.4-0.8,2.1-1.2
							c0.7,0,2.1-0.7,3-0.6l-0.1-0.1c0.2-0.1,0.3,0,0.4,0c0-0.1-0.2-0.1-0.1-0.1c0.9-0.1,1.9-0.1,2.9,0c1,0,2,0.1,3,0.1
							c0.7,0,0.4-0.4,1.3-0.2l-0.3,0.1c1.5-0.2,3,0,4.5-0.1c-0.1,0-0.1,0.1-0.2,0.1c0.3,0.1,1.1,0,1.1-0.1c0.2,0,0.1,0.1,0.2,0.1
							c0.3,0.1,0.8-0.1,0.9,0c0,0-0.1,0-0.1,0c0.2-0.1,0.9,0,0.7-0.1c0.5,0.1,1,0,1.4,0.1c0.1,0,0.4,0,0.6,0c0.2,0.1,0.4,0.1,0.4,0
							C58,32.8,58.9,33,59.3,33c-0.1,0,0.2,0.2,0.1,0.2c0.4,0.1,0.7,0.2,0.7,0.1c0.3,0.3,0.6,0.4,0.9,0.5c0.3,0.1,0.5,0.3,0.6,0.5
							c1,0.5,1.8,1.2,2.5,1.9c-0.1,0.1-0.8-0.8-0.9-0.6c0.7,0.6,1.2,0.9,1.7,1.7c0.1,0.2-0.1-0.1-0.2-0.1c0.6,0.7,1,1.6,1.4,2.3
							c0,0-0.1-0.1-0.1-0.1c0.1,0.1,0.1,0.4,0.2,0.3l-0.1-0.1c0-0.3,0.5,0.5,0.5,0.6c-0.3-0.2,0.2,0.8-0.2,0.5
							c0,0.1,0.1,0.2,0.2,0.2c0,0.2,0,0.2-0.1,0.1c0.2,0.6,0.2,0.3,0.3,0.9c0,0-0.1-0.1-0.1-0.1c0.1,0.3,0.2,0.5,0.3,1
							c0,0,0,0-0.1-0.1c0.1,0.8,0.3,1.3,0.2,2.2c-0.2-0.3-0.1,0.3-0.2,0.4l0,0.5l0.1-0.2c0,0.4,0.1,0.8,0.1,1.2L67,46.1l0,0.8
							l0.1-0.4c0.1,0.4,0.2,0,0.1,0.5c0-0.1,0,0.4-0.1,0.6l0,0c0,0.2,0.1,0.4,0.1,0.7c0,0.1-0.2-0.1-0.2,0c0.1,0.2,0,1,0.2,1.2
							c0-0.1-0.1-0.1-0.1-0.1l0.1,0.2c0,0.2,0,0.2-0.1,0.2c0,0.6,0.2-0.2,0.1,0.5c0-0.1,0,0,0-0.1c0,0.7,0.1,1.4,0,2
							c-0.1,0.2,0-0.6-0.2-0.3c0,0.9,0.2,1.9,0.1,2.8l0-0.2c0.2,0.1-0.1,0.7,0,1.1c0-0.1-0.1-0.1-0.1-0.1c0,0.6,0.1,1.3,0.1,2.2
							l-0.1-0.1c0,0.4,0,1-0.1,1.3c0.1,0.1,0,0.3,0.1,0.2c-0.3,1.2,0,2.3-0.6,3.3c0-0.1,0-0.3,0-0.2c0,0,0,0.2-0.1,0.4
							c-0.1,0.2-0.1,0.4-0.1,0.4c0.1,0,0.1-0.1,0.2-0.2c0,0.1,0,0.4-0.1,0.6c0.1-0.4-0.1,0-0.2,0.1c0,0,0,0.1,0.1,0
							c-0.3,0.4,0.1,0.1-0.2,0.7l0-0.1c-0.1,0.2-0.1,0.5-0.3,0.7c-0.1,0,0.1-0.3,0-0.3c-0.1,0.3-0.2,0.7-0.4,1
							c0.1-0.1,0.2-0.3,0.2-0.5c-0.3,0.2-0.3,0.3-0.4,0.5l0,0c0,0-0.1,0.1-0.2,0.2c-0.1,0.1-0.2,0.2-0.2,0.2l0.1-0.1
							c-0.1,0.5-0.5,0.8-0.8,1.3c0.3-0.6,0-0.1-0.1-0.3c-0.1,0.1-0.3,0.2-0.3,0.2c-0.1,0.3-0.4,0.3-0.6,0.7c0,0-0.2,0.2-0.2,0.1
							c-0.3,0.3,0.1,0,0.1,0c-0.2,0.3-0.5,0.4-0.8,0.6c-0.3,0.2-0.7,0.4-1,0.7c-0.6,0.5-0.7,0.6-1.2,0.9c-0.2,0,0.1-0.2,0.1-0.2
							c-0.3,0.1-0.6,0.2-0.9,0.4c0.1-0.1,0-0.1-0.1-0.1c-0.3,0.1-0.1,0.2-0.5,0.2c0-0.1,0.1-0.1,0.2-0.2c-0.3,0.1-0.6,0.3-0.9,0.4
							c-0.1,0,0.2-0.1,0.3-0.2c-0.3,0.1-0.9,0.3-1,0.4l0.2,0c-0.1,0-0.1-0.1,0-0.1c0.3-0.1,0.5-0.1,0.5,0l-0.2,0.1
							c0.3,0.1,0.9-0.3,1.4-0.4L59,70.7l0.4-0.3c0.1,0,0.2,0.1,0,0.2c0.4,0,0.3-0.2,0.6-0.2c0,0,0,0,0,0c0,0,0.3-0.2,0.3-0.2
							c0,0.1,0.1,0.1-0.1,0.2c0.6-0.2,0.9-0.5,1.1-0.6l0,0c0.7-0.5,0-0.1,0.5-0.6c0,0,0.5,0,0.5,0l0-0.1c0.1,0,0.2-0.1,0.2-0.1
							c0.2-0.3-0.1,0,0-0.2c0.4-0.2,0.9-0.8,1.1-0.7c0.1-0.2-0.3,0.2-0.1-0.1c0.2,0.1,0.4-0.4,0.7-0.6c0,0.2-0.3,0.4,0,0.2
							c0-0.3,0.6-0.5,0.7-0.8c-0.1-0.1,0.4-0.6,0.6-1.1c0,0.1,0.6-0.8,0.9-1.3l0,0c-0.1-0.1,0.2-0.6,0.3-1c0.1,0,0.1,0.1,0,0.3
							l0.1-0.3c0-0.1,0-0.2,0.1-0.4L67,63c0.1-0.5,0.2-1,0.3-1.6c-0.1,0-0.3,0.4-0.3-0.2c0.1,0,0.2,0,0.1,0.1c0-0.1,0-0.2,0-0.3
							l0,0.3c0.1-0.3-0.1-0.2,0-0.4c0.1,0,0.1-0.2,0.1-0.1c0,0.1-0.1,0.2,0,0.3c0.1-0.3,0.1-0.6,0.2-0.7c0,0-0.1,0-0.1-0.2
							c0-0.5,0.1-0.2,0.2-0.4c0-0.1,0-0.4-0.1-0.4c0-0.1,0.1-0.2,0.1-0.2c-0.1-0.2,0-1.2-0.1-0.9l0,0.1c0,0,0,0,0,0v0v0
							c-0.1-0.8,0.1-1.7,0-2.5l0,0c0-0.5,0-1.1-0.1-1.4c0-0.1,0.1-0.3,0.1-0.3c0-0.4-0.1-0.4,0-0.9c0.1,0.4,0.1-0.1,0,0.4
							c0-0.5,0.1-0.6,0-1.1c0.1,0.2,0.1-0.4,0.1-0.6l-0.1,0.3c0-0.3,0-0.5,0-0.7l0.1,0.1c0.2-1-0.3-1.8,0-2.5
							c-0.1-0.3-0.1,0.5-0.2,0.3c0-0.4,0.2-0.9,0.2-1.1c0.1-0.6-0.2-0.6-0.1-1.2c0,0.1-0.2,0.2-0.2-0.3c0-0.4,0.2-0.6,0.2-0.3
							c0,0.1,0,0.2,0,0.2c0,0.1,0,0.3,0.1,0.2l0-0.1c0-0.2,0-0.8,0.1-0.7c0-0.3-0.1-0.1-0.1,0.1c0.1-0.6,0-0.9,0-1.5
							c0,0.1-0.1,0.2-0.1,0.1c0.1-0.9-0.1-0.4-0.1-1c0.1-0.3,0.2,0.1,0.1-0.5c0-0.4,0.1-0.1,0.2,0.1c-0.1-0.3-0.1-0.5,0-0.8
							c0-0.2,0-0.4,0-0.6l0.1,0.3c0-0.2-0.1-0.3-0.1-0.5l-0.1,0.2c0-0.2,0-0.3,0-0.3c-0.1-0.2-0.1,0.2-0.3-0.2
							c0-0.2-0.2-0.7-0.1-0.8c0.1,0.7,0.1-0.1,0.3,0.5c0-0.1-0.1-0.3-0.1-0.4c0,0,0,0,0,0.1c-0.1-0.7-0.2-0.3-0.4-1
							c0.1,0.1,0.1-0.2,0-0.3c0.1,0.3-0.1,0.2-0.2-0.1c-0.1-0.5-0.2-0.5-0.3-0.7l0.1,0.3c-0.1-0.1-0.2-0.3-0.3-0.5
							c0,0,0.2,0.2,0.1,0.1c-0.3-0.3-0.2-0.8-0.6-1.2c-0.1-0.2,0.1-0.1,0-0.3c-0.4-0.4-0.3-0.6-0.7-1c0,0.2,0.1,0.2-0.3-0.1l0.6,0.7
							l-0.5-0.4c0.2,0.2,0.4,0.4,0.5,0.6c-0.2-0.2-0.2-0.2-0.2,0c-0.1-0.4-0.5-0.6-0.7-1l0.2-0.1c-0.4-0.6-0.9-0.8-1.5-1.5l0.2,0.2
							c-0.2,0-0.4-0.4-0.7-0.5c0.1,0-0.1-0.2-0.1-0.3c0,0.1-0.5-0.4-0.7-0.3l-0.3-0.3c-0.6-0.4-0.8-0.2-1.4-0.5c0.2,0,0-0.2,0.4,0
							c-0.2-0.1-0.4-0.2-0.4-0.2c-0.1-0.1-0.6-0.1-0.8-0.3c-0.1,0-0.2,0.1-0.4,0c0,0,0,0,0,0c0,0-0.4-0.1-0.2,0.1
							c-0.3-0.2-0.8-0.3-1.3-0.4c-0.5-0.1-0.9-0.1-1.2-0.3c-0.5,0-1.1,0-1.6,0c0,0,0,0,0.1,0c-0.6-0.1-0.4,0.2-1.1,0.1
							c-0.4-0.1,0.4-0.1,0.1-0.1c-0.1-0.3-0.8,0-1.3-0.1l0.1,0c-0.4-0.1-0.9,0.1-1.5,0.1c0,0,0,0,0,0c-0.4,0.1-1.2,0.2-1.7,0.2
							c0.2-0.1,0.3-0.1,0.1-0.2c-0.3,0,0.1,0.2-0.4,0.2c-0.2-0.1-0.5-0.1-0.6-0.2l0.5,0c-0.2-0.1-0.6,0-0.9,0l0-0.1
							c-0.7,0-0.7,0.2-1.5,0.2l0.1,0c-0.4,0.2-0.4-0.1-0.8,0l-0.1-0.2c-0.3,0-1,0.1-1.5,0.2c0.3-0.1,0.9-0.2,1.3-0.2
							c-0.3,0-1,0-1.1,0.1c0.1,0,0.3-0.1,0.4,0c-0.3,0.1-0.8,0.2-1.4,0.2c0.1-0.3-1.5-0.1-1.9-0.3c-1,0.2-2,0.2-3.2,0.6
							c0.5,0.1-0.3,0.1-0.2,0.3c-0.3,0.1-0.4,0.1-0.4,0.1c0,0-0.2,0-0.4,0.1c-0.2,0.1-0.4,0.1-0.4,0.1c-0.2,0,0.2-0.2,0.2-0.2
							c-0.6,0.3-0.3,0-0.7,0.1c0.1,0-0.1,0.2-0.5,0.4c0,0,0.5-0.2,0.5-0.1c-0.7,0.5-0.8,0.2-1.4,0.8c0,0,0.2-0.2,0.2-0.2
							c-0.2,0.1-0.5,0.4-0.8,0.7c-0.3,0.3-0.6,0.6-0.7,0.8c-0.1,0-0.2,0.1-0.1-0.1c-0.4,0.3-0.7,0.8-1.1,1.3
							c-0.3,0.5-0.6,0.9-0.9,1.2l0-0.1c-0.1,0.2-0.1,0.3-0.3,0.5c0,0,0-0.1-0.1,0c0,0.1-0.2,0.5-0.3,0.7l0-0.2
							c-0.5,0.9-0.5,1.5-0.7,2.3c-0.2,0-0.4,0.7-0.5,1.1l0,0c-0.1,0.6-0.2,1.1-0.1,1.6c0,0.5,0.1,1,0.1,1.5
							c-0.2,0.7-0.1,2.3-0.2,3.3c0-0.2,0.1,0,0.2,0.2c0,0.3,0.1,0.7,0,0.7l0-0.1c-0.2,0.2-0.1,0.7-0.1,1.1l0.2,0.1
							c-0.3,1.1,0.1,2.8-0.2,3.3c0.1,0.3,0.1,0.6,0.1,0.8l-0.1,0c0,0.7,0,1.1,0,1.9L30,55.9c0,0.5,0.3,0.6,0.3,1.1l-0.2,0.1
							c0,0.9-0.2,1.7,0,2.6c0,0-0.1,0-0.1-0.2c0,0.2,0,0.6,0,1c0.1,0.3,0.1,0.6,0.2,0.5c-0.1,0,0.1,0.9,0.3,1.3l-0.1,0
							c0.2,0.4,0.2,0.4,0.5,0.9c0,0.1,0,0.1-0.1,0c0.1,0.4,0.2,0.3,0.3,0.8l-0.1-0.2c0.1,0.4,0.2,0.4,0.4,0.6
							c0.2,0.2,0.3,0.8,0.3,0.9c0.1,0,0.3,0.2,0.4,0.4c0,0.1-0.1,0-0.1-0.1c0.3,0.7,0.7,0.8,1,1.3c0,0,0,0.1,0,0.1
							c-0.4-0.5-0.6-0.9-0.6-0.8c-0.1,0.1,0.2,0.5-0.1,0.2c0.3,0.3,0.8,0.7,1.1,1.1c0,0,0,0,0,0.1l0,0c0.1,0.1,0.1,0.2,0.2,0.2
							c0.1,0.1,0.1,0.2,0.3,0.3c0,0.1,0.4,0.4,0.6,0.6c0.1-0.1,0.3,0.1,0.1-0.1c0,0,0,0-0.2-0.1c0,0-0.1,0-0.1-0.1l0,0
							c-0.1-0.1-0.3-0.2-0.5-0.4c0.2,0.1,0.4,0.2,0.5,0.4c0.1,0,0.3,0.1,0.4,0.1c0.1,0.3,0.6,0.8,0.6,0.9c0.6,0.4,1.5,0.9,2,0.9
							c0.2,0.1,0.2,0.2,0.2,0.2c-0.1,0-0.2-0.1-0.3-0.1c0.4,0.2,1.2,0.5,1.3,0.4c0.5,0.2-0.3,0,0.4,0.2l-0.1,0
							c1.4,0.6,2.3,0.2,3.9,0.5c-0.1,0-0.2,0-0.2-0.1c1.8,0.1,3.6-0.1,5.4,0.1c0.5,0,0.6-0.1,0.9-0.1l0.1,0.1l0.5-0.1
							c0.7-0.1,1.3,0.3,2.2,0.1l-0.1-0.1c0.3,0,1.1,0,1,0c0,0,0.1-0.1,0.2,0l0,0.1l0.8-0.1c0.6,0-0.1,0.2,0.8,0.3
							c0.3,0,1-0.2,0.9-0.2c-0.1,0-0.4,0-0.4-0.1l0.3,0c0.1-0.2,0.3-0.4-0.5-0.5l-0.5,0.1l-0.2-0.1l0.5,0c-0.3-0.1-0.4,0-0.6,0
							c0,0-0.1-0.1-0.2-0.1l-0.5,0.2c-0.1-0.1,0.2-0.1-0.1-0.2c-0.2,0.1,0.2,0.2-0.2,0.2c-0.3-0.1-0.2-0.1-0.5-0.1
							c0,0,0-0.1,0.1-0.1c-0.3,0.1-0.7,0-0.9,0.1c-0.3-0.1-0.9,0-0.9-0.1c-0.1,0-0.5,0.1-0.7,0.1c0.5-0.2-0.9,0-0.8-0.2
							c-0.3,0.2-1.2,0.1-1.8,0.2c0,0,0.1,0,0.2,0c-0.3,0-0.4-0.1-0.6-0.1c0,0.2-0.6,0.2-0.8,0.3c-0.4-0.1,0.2-0.2,0.1-0.3
							c0,0.1-0.7,0.1-0.6,0.2c-0.3-0.1-0.3,0-0.4-0.2c-0.1,0.2-0.3,0-0.6,0.1c-0.5-0.1-0.1-0.2-0.6-0.1
							C43.9,70.7,44.3,70.6,44.3,70.6z M33.9,67L33.9,67c0.1,0.1,0.1,0.1,0.2,0.2C34,67.1,33.9,67.1,33.9,67z M33.2,66.2
							c0.1,0.1,0.2,0.2,0.2,0.3c0,0.1-0.1,0-0.1,0C33.4,66.6,33.3,66.4,33.2,66.2z M34.1,68.3c-0.1-0.1-0.2-0.2-0.2-0.2
							C34,68.2,34.1,68.2,34.1,68.3L34.1,68.3C34.2,68.3,34.1,68.3,34.1,68.3z"/>
						<path fill="#202020" d="M34.4,68.4C34.4,68.4,34.4,68.4,34.4,68.4C34.4,68.4,34.4,68.4,34.4,68.4L34.4,68.4L34.4,68.4z"/>
						<path fill="#202020" d="M67.5,58.3L67.5,58.3C67.5,58.3,67.5,58.3,67.5,58.3C67.5,58.3,67.5,58.3,67.5,58.3z"/>
						<polygon fill="#202020" points="31.1,53.2 31.1,53.2 31.1,53.3 						"/>
						<path fill="#202020" d="M66.3,63.6C66.3,63.6,66.3,63.6,66.3,63.6C66.3,63.6,66.3,63.6,66.3,63.6z"/>
						<path fill="#202020" d="M65.2,65.6c0,0-0.2,0.3-0.2,0.3C65.1,65.8,65.2,65.7,65.2,65.6z"/>
						<path fill="#202020" d="M64.1,67C64.1,67,64.1,67,64.1,67L64.1,67L64.1,67z"/>
						<path fill="#202020" d="M66,39.3L66,39.3C65.8,39.1,65.9,39.2,66,39.3z"/>
						<path fill="#202020" d="M67.2,47.6c0-0.1,0-0.2-0.1-0.3C67.1,47.5,67.1,47.6,67.2,47.6z"/>
						<polygon fill="#202020" points="59.4,33.2 59.4,33.2 59.3,33.2 						"/>
						<path fill="#202020" d="M67.1,46.9c0,0.2,0,0.3,0,0.4C67.1,47.2,67.2,47.1,67.1,46.9z"/>
						<path fill="#202020" d="M57.5,70.7L57.5,70.7C57.4,70.7,57.4,70.7,57.5,70.7L57.5,70.7z"/>
						<path fill="#202020" d="M57.4,70.7L57.4,70.7C57.4,70.7,57.4,70.7,57.4,70.7z"/>
						<path fill="#202020" d="M57.1,70.8l0.2-0.1C57.3,70.7,57.2,70.7,57.1,70.8z"/>
						<path fill="#202020" d="M59.8,70.1L59.8,70.1C59.8,70,59.8,70,59.8,70.1z"/>
						<path fill="#202020" d="M60.4,69.8c-0.2,0.1-0.4,0.1-0.6,0.2l0,0C59.9,69.9,60.3,69.9,60.4,69.8z"/>
						<path fill="#202020" d="M63.2,68.5c0,0-0.5,0.4-0.5,0.4c0.1,0,0.3-0.1,0,0.1C63.5,68.6,62.6,69,63.2,68.5z"/>
						<path fill="#202020" d="M64.6,67.2C64.4,67.4,64.7,67.2,64.6,67.2C64.8,67.1,64.8,67,64.6,67.2z"/>
						<path fill="#202020" d="M67.6,54L67.6,54C67.7,53.8,67.7,54,67.6,54z"/>
						<polygon fill="#202020" points="67.1,51.4 67,51.6 67.1,51.7 						"/>
						<polygon fill="#202020" points="67.8,49.8 67.8,49.9 67.8,49.5 						"/>
						<path fill="#202020" d="M57,31.6l0.1,0.1C57.3,31.8,57.3,31.6,57,31.6z"/>
						<path fill="#202020" d="M47,31.6c-0.1-0.1-0.4-0.1-0.6,0C46.7,31.6,46.9,31.6,47,31.6z"/>
						<polygon fill="#202020" points="30.1,50.6 30.1,50.4 30.1,50.7 						"/>
					</g>
				</g>
			</g>
		</g>
	</g>
	<g>
		<g>
			<g>
				<g>
					<g>
						<path fill="#202020" d="M69.9,113c-0.1,0-0.1,0.1,0.1,0.1l0.2-0.1L69.9,113z"/>
						<path fill="#202020" d="M71.1,113.7c0.2,0,0.5-0.1,0.4-0.2c-0.2,0.1-0.3,0-0.5,0.1c-0.2,0-0.3-0.1-0.3-0.2
							c-0.1,0-0.3-0.1-0.4-0.1C70.5,113.5,70.8,113.6,71.1,113.7C71.2,113.6,71.1,113.6,71.1,113.7z"/>
						<path fill="#202020" d="M85.9,105.5l-0.1,0.1C85.9,105.5,85.9,105.5,85.9,105.5z"/>
						<path fill="#202020" d="M90.1,94.7c0,0.1,0,0.1,0,0.1C90.1,94.7,90.2,94.7,90.1,94.7z"/>
						<path fill="#202020" d="M91,92.9c0,0,0,0.1,0,0.1C91,93,91,92.9,91,92.9z"/>
						<path fill="#202020" d="M85.9,105.5l0.1-0.3C86,105.1,86,105.3,85.9,105.5z"/>
						<path fill="#202020" d="M73.6,113.7c-0.1,0-0.1,0-0.2,0L73.6,113.7L73.6,113.7z"/>
						<path fill="#202020" d="M83.5,110L83.5,110c-0.1,0.1-0.1,0.1-0.1,0.2L83.5,110z"/>
						<path fill="#202020" d="M80.5,112.6c0.1,0,0-0.2,0.1-0.2C80.5,112.5,80.5,112.5,80.5,112.6C80.4,112.6,80.5,112.6,80.5,112.6z
							"/>
						<path fill="#202020" d="M74.5,114.2l-0.1,0C74.4,114.2,74.4,114.2,74.5,114.2z"/>
						<path fill="#202020" d="M85.1,107.6C85.2,107.6,85.2,107.6,85.1,107.6C85.2,107.6,85.2,107.6,85.1,107.6z"/>
						<path fill="#202020" d="M65.8,111.2C65.8,111.2,65.8,111.2,65.8,111.2C65.8,111.2,65.8,111.2,65.8,111.2z"/>
						<path fill="#202020" d="M69.8,113.3L69.8,113.3C69.8,113.3,69.7,113.3,69.8,113.3L69.8,113.3z"/>
						<path fill="#202020" d="M92.1,89.4C92.1,89.4,92.1,89.4,92.1,89.4C92.1,89.5,92.1,89.4,92.1,89.4z"/>
						<path fill="#202020" d="M67.7,70.8c0.4,0.1-0.6,0.1,0,0.2C67.6,71,68.2,70.9,67.7,70.8z"/>
						<path fill="#202020" d="M73.7,113.7l0.2,0C73.8,113.7,73.8,113.7,73.7,113.7z"/>
						<path fill="#202020" d="M67.7,71L67.7,71L67.7,71C67.7,71,67.7,71,67.7,71z"/>
						<path fill="#202020" d="M90.1,81.1C90.1,81.1,90.1,81.2,90.1,81.1C90.2,81.2,90.2,81.2,90.1,81.1z"/>
						<path fill="#202020" d="M91.9,87.2l0-0.2C91.9,87.1,91.9,87.1,91.9,87.2z"/>
						<path fill="#202020" d="M87.9,78.7c-0.1-0.1-0.1-0.1-0.2-0.2c0,0,0,0,0,0C87.8,78.6,87.8,78.6,87.9,78.7z"/>
						<path fill="#202020" d="M85.1,76.7L85.1,76.7c0.1,0.1,0.1,0.1,0.1,0.1L85.1,76.7z"/>
						<path fill="#202020" d="M56.4,107.4c0,0.1,0.1,0.1,0.1,0.2C56.5,107.5,56.9,107.7,56.4,107.4z"/>
						<path fill="#202020" d="M73.6,113.8C73.6,113.8,73.7,113.8,73.6,113.8L73.6,113.8C73.6,113.8,73.6,113.8,73.6,113.8z"/>
						<path fill="#202020" d="M87.2,79.2l-0.4-0.3C86.9,79,87.1,79.1,87.2,79.2z"/>
						<path fill="#202020" d="M54,86.7l0,0.1C54,86.8,54,86.7,54,86.7z"/>
						<path fill="#202020" d="M85.6,78c-0.1-0.1-0.1-0.1-0.2-0.2c0,0,0,0-0.1,0L85.6,78z"/>
						<path fill="#202020" d="M56.5,107.6L56.5,107.6L56.5,107.6z"/>
						<path fill="#202020" d="M59.8,108.7c-0.5-0.2-0.3,0-0.4,0.1c-0.6-0.2-0.2-0.2-0.4-0.3c-0.4-0.1-0.7-0.1-0.9-0.2
							c0,0-0.1-0.1,0-0.1c-0.4-0.1-1.1-0.4-1.5-0.6c0,0,0,0,0-0.1c0,0.1,0,0.2,0,0.2c-0.2-0.1-0.4-0.1-0.4-0.3
							c0.1,0.1,0.1,0,0.2,0.1l-0.2-0.1c-0.1-0.2,0.3,0.1,0.4,0c-0.4-0.2-0.9-0.4-1.2-0.6c0-0.1,0.7,0.4,0.4,0.1l0.4,0.3
							c-0.2-0.4,0.3,0.2,0.1-0.2c-0.5-0.4-0.7-0.4-1.2-0.9c-0.2,0,0,0.1-0.2,0.1c-0.9-0.6-0.3-0.8-1-1.2c-0.2-0.1-0.4,0-0.6-0.5
							l0.2,0c-0.4-0.5-0.4-0.2-0.7-0.8c0.1,0.1,0.3,0.4,0.3,0.3c-0.2-0.4-0.2-0.2-0.4-0.5l0.1-0.1c-0.2-0.3-0.4-0.6-0.6-0.9
							c-0.2-0.3-0.4-0.7-0.5-1.1c0.1,0,0.1,0.1,0.1,0c-0.2-0.4-0.3-1-0.5-1.5c-0.1-0.5-0.2-1-0.1-1.5l-0.1-0.4c0-0.1,0-0.2,0.1-0.1
							c0-0.4-0.1,0-0.1-0.2c0-0.2,0.1-0.3,0.1-0.2c-0.1-0.7-0.1-1.9,0.2-2.6l0,0.1c0.2-0.5-0.1-0.7,0.1-1.1l0,0.1
							c0.4-1.1,0.8-2.4,1.3-3.2c-0.1-0.2,0.5-1.1,0.3-1.3c0.4-0.6,0.3-0.4,0.8-1.3c0.1-0.2,0-0.4,0.1-0.7l0.1,0l0-0.5l0.2-0.2
							l0.1-0.3C54,86.9,53.9,87,53.8,87c0.1-0.5,0.5-1.1,0.6-1l0.3-1.1c0,0,0,0.2,0,0.4c0.1-0.6,0.2-0.1,0.3-0.6
							c-0.1,0.1-0.1-0.1-0.1-0.1c0.2-0.2,0.4-0.8,0.5-1.3l0,0.1c0.3-0.8,0.6-1.7,0.9-2.5c-0.2,0.3-0.3,0.2-0.2-0.1l0.2-0.1
							c0-0.2-0.1,0.3-0.1-0.1c0.1-0.3,0.2-0.2,0.2,0l0.1-0.4c0,0,0,0.1,0.1,0.1c0-0.2,0.4-0.6,0.3-0.9l0,0c0.4-0.8,0.5-1.2,0.8-1.9
							c-0.1-0.1,0.1-0.3,0.1-0.5c0.4-0.4,0.7-0.9,1.2-1.4c0.3-0.4,0-0.2,0.1-0.4c0.1,0,0.6-0.4,0.4-0.1c0.3-0.3,0.5-0.5,0.7-0.6
							c0.2-0.2,0.4-0.4,0.8-0.7c-0.1,0-0.2,0.1-0.2,0c0.1-0.1,0.4-0.2,0.4-0.1l0,0c0.9-0.8,2.4-1,3.2-1.4l0,0l0.9-0.4
							c0.4-0.1-0.2,0.1,0.1,0.1c0.9-0.4,1.5-0.2,2.4-0.4c0.6,0.3,2.2,0.1,3,0.5l0-0.1c0.2,0,0.2,0.1,0.4,0.2c0-0.1-0.2-0.1-0.1-0.1
							c0.9,0.2,1.8,0.6,2.8,1c0.9,0.4,1.9,0.8,2.8,1.2c0.7,0.3,0.5-0.2,1.3,0.3l-0.3,0c1.4,0.4,2.8,1.1,4.2,1.5c-0.1,0-0.1,0-0.2,0
							c0.3,0.2,1,0.4,1.1,0.3c0.2,0.1,0,0.1,0.1,0.2c0.3,0.2,0.8,0.2,0.9,0.3c0,0-0.1,0-0.1,0c0.2,0,0.8,0.4,0.7,0.2
							c0.5,0.2,0.9,0.4,1.3,0.6c0.1,0,0.3,0.1,0.5,0.2c0.2,0.1,0.3,0.2,0.4,0.2c-0.1,0.1,0.7,0.6,0.9,0.8c-0.1,0,0.2,0.2,0,0.2
							c0.3,0.2,0.5,0.5,0.6,0.4c0.2,0.3,0.4,0.5,0.7,0.8c0.2,0.2,0.4,0.4,0.4,0.7c0.7,0.8,1.3,1.7,1.7,2.7c-0.2,0-0.4-1-0.6-0.9
							c0.5,0.8,0.8,1.3,1,2.2c0,0.2-0.1-0.1-0.2-0.2c0.3,0.9,0.3,1.8,0.5,2.6c0,0,0-0.1-0.1-0.2c0,0.2,0,0.4,0.1,0.4l0-0.2
							c0.1-0.3,0.2,0.7,0.3,0.7c-0.2-0.3-0.1,0.8-0.4,0.4c0,0.1,0,0.3,0.1,0.2c0,0.2-0.1,0.2-0.1,0c0,0.6,0.1,0.4,0,0.9
							c0,0,0-0.1-0.1-0.2c0,0.3,0,0.6-0.1,1c0,0-0.1,0,0-0.1c-0.2,0.8-0.2,1.4-0.6,2.2c-0.1-0.3-0.2,0.3-0.3,0.3L90,93.4l0.1-0.2
							c-0.2,0.4-0.2,0.8-0.4,1.1l0.1-0.3l-0.3,0.7l0.2-0.4c-0.1,0.4,0.2,0-0.1,0.5c0-0.1-0.2,0.4-0.3,0.6l0,0c0,0.2-0.1,0.4-0.2,0.7
							c-0.1,0.1-0.1-0.1-0.2-0.1c0,0.2-0.3,0.9-0.3,1.2c0-0.1-0.1-0.1-0.1-0.1l0,0.2c-0.1,0.2-0.1,0.2-0.2,0.1
							c-0.2,0.5,0.2-0.1-0.1,0.5c0-0.1,0,0,0-0.1c-0.3,0.6-0.4,1.3-0.7,1.9c-0.2,0.1,0.2-0.5,0-0.4c-0.3,0.9-0.5,1.9-0.9,2.7
							l0.1-0.2c0.1,0.2-0.3,0.6-0.4,1c0-0.1-0.1-0.2,0-0.1c-0.3,0.6-0.4,1.2-0.7,2.1l0-0.1c-0.2,0.3-0.4,0.9-0.5,1.2
							c0,0.1-0.1,0.3,0,0.2c-0.7,1-0.8,2.1-1.7,2.8c0.1-0.1,0.1-0.3,0.1-0.2c0,0-0.1,0.2-0.2,0.4c-0.1,0.2-0.3,0.4-0.3,0.4
							c0.1,0,0.1-0.1,0.3-0.2c0,0.1-0.2,0.3-0.3,0.5c0.2-0.3-0.1-0.1-0.3,0c0,0,0,0.1,0.1,0.1c-0.4,0.2,0.1,0.2-0.5,0.6l0-0.1
							c-0.2,0.2-0.3,0.4-0.5,0.5c-0.1,0,0.2-0.2,0.1-0.3c-0.3,0.3-0.4,0.6-0.8,0.7c0.1-0.1,0.3-0.3,0.4-0.4
							c-0.4,0.1-0.4,0.2-0.6,0.3l0,0c0,0-0.1,0.1-0.3,0.2c-0.1,0.1-0.3,0.1-0.3,0.1l0.2-0.1c-0.2,0.5-0.7,0.5-1.2,1
							c0.5-0.4,0-0.1,0-0.3c-0.2,0-0.4,0.1-0.3,0.1c-0.2,0.2-0.5,0.1-0.8,0.4c0,0-0.3,0.1-0.3,0c-0.3,0.2,0.1,0,0.1,0.1
							c-0.2,0.2-0.6,0.2-0.9,0.3c-0.4,0.1-0.8,0.1-1.2,0.3c-0.7,0.2-0.8,0.3-1.5,0.4c-0.2,0,0.2-0.2,0.2-0.2c-0.4,0-0.6,0-1,0
							c0.1,0,0-0.1-0.1-0.1c-0.3,0-0.2,0.2-0.5,0.1c0.1,0,0.1-0.1,0.3-0.1c-0.3,0-0.6,0-1,0c-0.1-0.1,0.2-0.1,0.3-0.1
							c-0.4,0-1-0.1-1.1,0l0.2,0.1c-0.1,0-0.1-0.1,0.1-0.1c0.3,0,0.5,0.1,0.5,0.2l-0.2,0c0.2,0.2,1,0.1,1.4,0.1l-0.2,0.2l0.5-0.1
							c0.1,0,0.2,0.1-0.1,0.2c0.4,0.1,0.3-0.1,0.6,0c0,0,0,0,0,0c0,0,0.3-0.1,0.3-0.1c-0.1,0,0.1,0.1-0.1,0.1c0.6,0,1-0.2,1.2-0.1
							l0,0c0.8-0.2,0.1-0.1,0.7-0.4c0,0,0.5,0.2,0.5,0.2l0.1-0.1c0.1,0,0.3-0.1,0.2,0c0.3-0.2-0.1,0,0.1-0.2c0.4,0,1.1-0.4,1.2-0.3
							c0.1-0.1-0.4,0.1,0-0.1c0.2,0.1,0.5-0.2,0.9-0.3c-0.1,0.1-0.4,0.3,0,0.2c0.1-0.3,0.7-0.3,1-0.5c-0.1-0.1,0.6-0.4,1-0.8
							c0,0.1,0.9-0.6,1.3-0.9l0,0c0-0.2,0.4-0.5,0.6-0.8c0.1,0.1,0,0.1-0.1,0.3l0.2-0.3c0-0.1,0.1-0.2,0.2-0.4l0,0.1
							c0.3-0.4,0.5-0.9,0.9-1.4c-0.1-0.1-0.5,0.3-0.2-0.3c0.1,0,0.1,0,0.1,0.2c0-0.1,0.1-0.2,0.1-0.3l-0.1,0.3
							c0.2-0.2,0-0.2,0.1-0.4c0.1,0,0.1-0.1,0.2-0.1c0,0.1-0.1,0.2-0.1,0.2c0.1-0.2,0.3-0.5,0.4-0.5c0,0-0.1,0,0-0.2
							c0.2-0.4,0.2-0.1,0.3-0.4c0-0.1,0.2-0.4,0.1-0.4c0.1-0.1,0.1-0.1,0.2-0.2c0-0.2,0.4-1.1,0.2-0.9l0,0.1c0,0,0,0,0,0l0,0l0,0
							c0.2-0.8,0.7-1.5,0.9-2.3l0,0c0.1-0.5,0.4-1,0.4-1.4c0.1-0.1,0.2-0.3,0.2-0.2c0.1-0.4,0.1-0.4,0.3-0.9
							c-0.1,0.4,0.1-0.1-0.1,0.4c0.2-0.4,0.3-0.5,0.4-1c0,0.2,0.2-0.3,0.3-0.5l-0.2,0.3c0.1-0.2,0.2-0.4,0.3-0.7l0.1,0.2
							c0.5-0.9,0.4-1.7,0.9-2.3c0-0.3-0.3,0.5-0.3,0.2c0.2-0.4,0.5-0.8,0.6-0.9c0.3-0.5,0-0.6,0.3-1.2c-0.1,0.1-0.2,0.1-0.1-0.4
							c0.2-0.4,0.4-0.4,0.3-0.2c0,0.1-0.1,0.1-0.1,0.1c0,0.1-0.1,0.3,0,0.2l0-0.1c0.1-0.2,0.3-0.8,0.4-0.6c0.1-0.3,0-0.2-0.1,0.1
							c0.3-0.5,0.3-0.8,0.6-1.4c-0.1,0.1-0.1,0.1-0.1,0.1c0.4-0.8,0.1-0.4,0.2-0.9c0.2-0.3,0.1,0.2,0.3-0.4c0.2-0.3,0.1,0,0.1,0.1
							c0-0.3,0.1-0.5,0.2-0.7c0.1-0.2,0.2-0.4,0.2-0.6l0,0.3c0-0.2,0-0.3,0.1-0.5l-0.1,0.1c0.1-0.2,0.1-0.3,0.1-0.3
							c0-0.2-0.2,0.1-0.2-0.3c0.1-0.2,0-0.7,0.2-0.8c-0.1,0.7,0.1-0.1,0.1,0.6c0-0.1,0-0.3,0.1-0.4c0,0,0,0,0,0.1
							c0.2-0.7-0.1-0.3,0-1c0.1,0.1,0.1-0.2,0.1-0.3c0,0.3-0.1,0.1-0.2-0.1c0.1-0.5,0-0.5,0-0.7l0,0.3c-0.1-0.1-0.1-0.3-0.1-0.6
							c0.1,0,0.1,0.3,0.1,0.2c-0.1-0.3,0.1-0.8-0.1-1.3c0-0.2,0.1,0,0.1-0.3c-0.2-0.5,0-0.6-0.3-1.2c0,0.2,0,0.2-0.2-0.2l0.3,0.9
							l-0.3-0.6c0.1,0.3,0.2,0.6,0.2,0.7c-0.1-0.3-0.1-0.2-0.1-0.1c0-0.4-0.3-0.7-0.3-1.2l0.2-0.1c-0.2-0.7-0.5-1.1-0.9-1.9l0.1,0.3
							c-0.1-0.1-0.2-0.5-0.4-0.7c0.1,0,0-0.2,0-0.3c0,0-0.3-0.6-0.5-0.5l-0.2-0.4c-0.4-0.6-0.7-0.5-1.1-1c0.2,0.1,0-0.2,0.4,0.1
							c-0.2-0.2-0.3-0.3-0.3-0.3c0-0.1-0.5-0.4-0.6-0.6c-0.1,0-0.2,0-0.4-0.2c0,0,0,0,0,0c0,0-0.3-0.2-0.2,0c-0.2-0.3-0.6-0.6-1-0.9
							c-0.4-0.2-0.8-0.5-1.1-0.7c-0.5-0.2-1-0.4-1.5-0.6c0,0,0,0,0.1,0c-0.5-0.3-0.4,0.1-1.1-0.3c-0.3-0.2,0.4,0.1,0.2-0.1
							c0-0.3-0.8-0.3-1.2-0.6l0.1,0c-0.3-0.2-0.9-0.2-1.4-0.5c0,0,0,0,0,0c-0.4,0-1.1-0.3-1.7-0.4c0.2,0,0.3,0,0.2-0.1
							c-0.2-0.1,0,0.2-0.5,0C78.3,74.3,78,74.1,78,74l0.4,0.2c-0.2-0.2-0.6-0.2-0.8-0.3l0.1,0c-0.7-0.2-0.8-0.1-1.5-0.4l0.1,0.1
							c-0.5,0-0.3-0.2-0.7-0.3L75.4,73c-0.3-0.1-1-0.2-1.5-0.4c0.3,0,0.9,0.2,1.3,0.2c-0.3-0.1-0.9-0.3-1.1-0.3c0.1,0,0.3,0,0.4,0.1
							c-0.4,0-0.8-0.1-1.3-0.3c0.2-0.2-1.3-0.6-1.7-0.9c-1-0.2-2-0.5-3.2-0.6c0.4,0.2-0.3,0-0.3,0.2c-0.3,0-0.4,0-0.4,0
							c0,0-0.2-0.1-0.4-0.1c-0.2,0-0.4,0-0.4,0c-0.2-0.1,0.3-0.1,0.2-0.1c-0.6,0-0.3-0.1-0.7-0.1c0.1,0.1-0.2,0.1-0.5,0.2
							c0,0,0.5,0,0.5,0c-0.8,0.3-0.8-0.1-1.6,0.2c0,0,0.2-0.1,0.2-0.1c-0.2,0.1-0.6,0.2-1,0.3c-0.4,0.1-0.7,0.3-0.9,0.5
							c-0.1,0-0.2,0,0-0.1c-0.5,0.2-1,0.5-1.5,0.8c-0.4,0.3-0.9,0.6-1.2,0.8l0-0.1c-0.1,0.1-0.2,0.3-0.4,0.4c0,0,0-0.1,0,0
							c-0.1,0.1-0.3,0.4-0.5,0.6l0.1-0.2c-0.8,0.6-1,1.2-1.5,1.9c-0.1-0.1-0.7,0.5-0.9,0.9l0,0c-0.3,0.5-0.5,1-0.7,1.5
							c-0.2,0.5-0.3,0.9-0.4,1.4c-0.4,0.6-0.9,2.1-1.4,3c0.1-0.1,0.1,0.1,0.1,0.3c-0.1,0.2-0.1,0.7-0.3,0.6l0-0.1
							c-0.2,0.1-0.4,0.6-0.5,1l0.2,0.1c-0.7,0.9-0.9,2.6-1.3,3.1c0,0.3-0.2,0.5-0.2,0.8l-0.1-0.1c-0.3,0.6-0.4,1-0.7,1.8l0-0.2
							c-0.2,0.5,0.1,0.7-0.1,1.1l-0.2,0.1c-0.3,0.8-0.8,1.5-0.9,2.4c0,0-0.1-0.1,0-0.2c-0.1,0.2-0.2,0.6-0.3,0.9
							c-0.1,0.3-0.1,0.6,0,0.5c-0.1,0-0.2,0.9-0.2,1.4L49.9,96c0.1,0.4,0.1,0.4,0.1,1c0,0.1-0.1,0.1-0.1-0.1c-0.1,0.4,0.1,0.3,0,0.9
							L50,97.6c0,0.5,0,0.4,0.1,0.7c0.1,0.3,0,0.9,0,0.9c0.1,0.1,0.2,0.3,0.2,0.5c0,0-0.1,0-0.1-0.1c0,0.8,0.4,1.1,0.4,1.6
							c0,0,0,0.1,0,0.1c-0.2-0.6-0.3-1.1-0.3-1c-0.1,0,0,0.5-0.2,0.2c0.2,0.4,0.5,1,0.7,1.4c0,0,0,0,0,0.1l0,0
							c0,0.1,0.1,0.2,0.1,0.3c0,0.1,0.1,0.2,0.1,0.4c0,0.1,0.2,0.5,0.3,0.7c0.1-0.1,0.2,0.2,0.2-0.1c0,0,0,0-0.1-0.2
							c0,0,0-0.1-0.1-0.1l0,0c-0.1-0.1-0.2-0.3-0.3-0.5c0.1,0.1,0.3,0.3,0.3,0.6c0.1,0.1,0.2,0.2,0.3,0.2c0,0.4,0.3,0.9,0.3,1.1
							c0.5,0.6,1.1,1.4,1.6,1.6c0.2,0.1,0.1,0.2,0.2,0.3c-0.1-0.1-0.2-0.2-0.3-0.2c0.3,0.3,0.9,0.8,1.1,0.8c0.4,0.4-0.3-0.1,0.3,0.4
							l-0.1,0c1,1.1,2.1,1,3.4,1.8c-0.1-0.1-0.1-0.1-0.2-0.1c1.6,0.8,3.4,1.2,5,2c0.4,0.2,0.5,0.2,0.8,0.2l0.1,0.1l0.5,0.1
							c0.7,0.2,1.1,0.7,2,0.9l-0.1-0.1c0.3,0.1,1,0.3,0.9,0.4c0,0,0.1,0,0.2,0l0,0.1l0.8,0.2c0.6,0.3-0.2,0.2,0.7,0.5
							c0.3,0.1,1,0.2,0.9,0.1c-0.1-0.1-0.3-0.2-0.3-0.2l0.3,0.1c0.1-0.1,0.4-0.2-0.3-0.6l-0.5-0.1l-0.1-0.1l0.4,0.2
							c-0.2-0.2-0.4-0.2-0.6-0.2c0-0.1-0.1-0.1-0.2-0.2l-0.6,0c0-0.1,0.3,0,0-0.2c-0.3,0,0.2,0.2-0.2,0.1c-0.2-0.2-0.1-0.2-0.4-0.2
							c0-0.1,0-0.1,0.2,0c-0.3,0-0.7-0.2-0.8-0.2c-0.2-0.2-0.9-0.3-0.8-0.5c-0.1,0-0.5,0-0.7-0.1c0.5,0-0.9-0.3-0.7-0.5
							c-0.4,0.1-1.2-0.4-1.7-0.5c0,0,0.1,0,0.2,0c-0.3-0.1-0.4-0.2-0.6-0.3c-0.1,0.1-0.6,0-0.9,0c-0.3-0.3,0.3-0.1,0.2-0.3
							c0,0.1-0.7-0.1-0.6,0c-0.3-0.2-0.2-0.1-0.3-0.3c-0.1,0.2-0.3-0.1-0.6-0.1c-0.4-0.3,0-0.2-0.5-0.3
							C59.3,108.6,59.8,108.7,59.8,108.7z M51.3,101.6L51.3,101.6c0,0.1,0.1,0.2,0.1,0.2C51.4,101.8,51.4,101.7,51.3,101.6z
							 M51,100.7c0,0.1,0.1,0.3,0.1,0.4c0,0-0.1,0-0.1-0.1C51.1,101.1,51,100.8,51,100.7z M51.1,102.9c-0.1-0.1-0.1-0.2-0.1-0.2
							C51,102.8,51.1,102.8,51.1,102.9L51.1,102.9C51.1,103,51.1,102.9,51.1,102.9z"/>
						<path fill="#202020" d="M51.3,103.1C51.3,103.1,51.3,103.2,51.3,103.1C51.3,103.1,51.3,103.1,51.3,103.1L51.3,103.1
							L51.3,103.1z"/>
						<path fill="#202020" d="M85.8,105.6L85.8,105.6C85.8,105.6,85.8,105.6,85.8,105.6C85.8,105.6,85.8,105.6,85.8,105.6z"/>
						<polygon fill="#202020" points="53.7,87.7 53.7,87.7 53.7,87.8 						"/>
						<path fill="#202020" d="M82.8,110.1C82.8,110.1,82.8,110.1,82.8,110.1C82.8,110.1,82.8,110.1,82.8,110.1z"/>
						<path fill="#202020" d="M81.1,111.6c0,0-0.3,0.2-0.3,0.2C80.9,111.7,81,111.6,81.1,111.6z"/>
						<path fill="#202020" d="M79.5,112.5C79.5,112.5,79.5,112.5,79.5,112.5L79.5,112.5L79.5,112.5z"/>
						<path fill="#202020" d="M91.2,87.3L91.2,87.3C91.2,87.1,91.2,87.2,91.2,87.3z"/>
						<path fill="#202020" d="M89.4,95.5c0-0.1,0-0.2,0.1-0.3C89.4,95.4,89.3,95.5,89.4,95.5z"/>
						<polygon fill="#202020" points="87.3,79.3 87.3,79.3 87.2,79.2 						"/>
						<path fill="#202020" d="M89.6,94.9c-0.1,0.1-0.1,0.3-0.1,0.4C89.5,95.1,89.5,95,89.6,94.9z"/>
						<path fill="#202020" d="M72.1,113.5L72.1,113.5C72,113.5,72,113.5,72.1,113.5L72.1,113.5z"/>
						<path fill="#202020" d="M72,113.5L72,113.5C71.9,113.5,71.9,113.5,72,113.5z"/>
						<path fill="#202020" d="M71.7,113.5l0.2,0C71.8,113.5,71.7,113.5,71.7,113.5z"/>
						<path fill="#202020" d="M74.4,113.8L74.4,113.8C74.4,113.8,74.4,113.8,74.4,113.8z"/>
						<path fill="#202020" d="M75.1,113.7c-0.2,0-0.4,0-0.7,0l0,0C74.5,113.7,74.9,113.8,75.1,113.7z"/>
						<path fill="#202020" d="M78.2,113.6c0,0-0.6,0.2-0.6,0.2c0.1,0,0.3,0,0,0.1C78.4,113.7,77.4,113.8,78.2,113.6z"/>
						<path fill="#202020" d="M80,112.9C79.7,113,80,112.9,80,112.9C80.2,112.8,80.2,112.8,80,112.9z"/>
						<path fill="#202020" d="M87.5,101.6L87.5,101.6C87.6,101.4,87.5,101.7,87.5,101.6z"/>
						<polygon fill="#202020" points="87.9,99 87.8,99.2 87.8,99.3 						"/>
						<polygon fill="#202020" points="89.2,97.8 89.1,97.9 89.2,97.5 						"/>
						<path fill="#202020" d="M85.6,77l0,0.1C85.8,77.2,85.9,77.1,85.6,77z"/>
						<path fill="#202020" d="M76.3,73.3c-0.1-0.1-0.3-0.2-0.5-0.2C76,73.2,76.2,73.3,76.3,73.3z"/>
						<polygon fill="#202020" points="53.7,84.9 53.8,84.7 53.7,85.1 						"/>
					</g>
				</g>
			</g>
		</g>
	</g>
	<g>
		<g>
			<g>
				<g>
					<g>
						<path fill="#202020" d="M106,67.3c-0.1,0.1,0,0.1,0.2,0l0.1-0.2L106,67.3z"/>
						<path fill="#202020" d="M107.2,67c0.2-0.2,0.3-0.4,0.1-0.4c-0.1,0.2-0.2,0.2-0.3,0.4c-0.2,0.1-0.3,0.1-0.3,0
							c0,0.1-0.3,0.1-0.3,0.2C106.6,67.2,106.9,67.1,107.2,67C107.3,66.9,107.2,67,107.2,67z"/>
						<path fill="#202020" d="M112.6,50.9l0,0.1C112.6,51,112.6,50.9,112.6,50.9z"/>
						<path fill="#202020" d="M108.5,40.1c0,0.1,0.1,0.1,0.1,0.1C108.5,40.2,108.5,40.1,108.5,40.1z"/>
						<path fill="#202020" d="M107.9,38.2c0,0,0,0.1,0,0.1C107.9,38.3,107.9,38.3,107.9,38.2z"/>
						<path fill="#202020" d="M112.6,50.9l-0.1-0.3C112.5,50.6,112.6,50.8,112.6,50.9z"/>
						<path fill="#202020" d="M109.1,65.3c0,0-0.1,0.1-0.1,0.1L109.1,65.3L109.1,65.3z"/>
						<path fill="#202020" d="M113.9,55.9L113.9,55.9c0,0.1,0,0.1,0.1,0.2L113.9,55.9z"/>
						<path fill="#202020" d="M113.5,59.8c0-0.1-0.1-0.1-0.1-0.2C113.4,59.7,113.4,59.8,113.5,59.8
							C113.4,59.8,113.4,59.8,113.5,59.8z"/>
						<path fill="#202020" d="M110.1,65.1L110.1,65.1C110,65.1,110.1,65.1,110.1,65.1z"/>
						<path fill="#202020" d="M113.5,53C113.5,53,113.5,53,113.5,53C113.5,53,113.5,53,113.5,53z"/>
						<path fill="#202020" d="M101.7,68.7C101.7,68.7,101.7,68.7,101.7,68.7C101.7,68.7,101.7,68.7,101.7,68.7z"/>
						<path fill="#202020" d="M106.1,67.6L106.1,67.6C106,67.6,106,67.6,106.1,67.6L106.1,67.6z"/>
						<path fill="#202020" d="M106.3,34.9C106.3,34.9,106.3,34.9,106.3,34.9C106.4,35,106.3,34.9,106.3,34.9z"/>
						<path fill="#202020" d="M75.8,37.6c0.4-0.2-0.4,0.5,0.1,0.2C75.8,37.9,76.2,37.4,75.8,37.6z"/>
						<path fill="#202020" d="M109.2,65.3l0.1-0.1C109.3,65.2,109.2,65.2,109.2,65.3z"/>
						<path fill="#202020" d="M75.9,37.8L75.9,37.8L75.9,37.8C75.9,37.8,75.9,37.8,75.9,37.8z"/>
						<path fill="#202020" d="M99.3,30.1C99.3,30.1,99.3,30.1,99.3,30.1C99.3,30.2,99.3,30.1,99.3,30.1z"/>
						<path fill="#202020" d="M104.7,33.3l-0.1-0.1C104.6,33.3,104.7,33.3,104.7,33.3z"/>
						<path fill="#202020" d="M96,29.8c-0.1,0-0.1,0-0.2,0c0,0,0,0,0,0C95.8,29.8,95.9,29.8,96,29.8z"/>
						<path fill="#202020" d="M92.6,30.3L92.6,30.3c0.1,0,0.1,0,0.2,0L92.6,30.3z"/>
						<path fill="#202020" d="M92.2,72.3c0.1,0,0.1,0,0.2,0.1C92.3,72.3,92.8,72.2,92.2,72.3z"/>
						<path fill="#202020" d="M109.2,65.4c0,0,0-0.1,0-0.1L109.2,65.4C109.2,65.4,109.2,65.4,109.2,65.4z"/>
						<path fill="#202020" d="M95.9,30.7l-0.5,0C95.5,30.7,95.7,30.7,95.9,30.7z"/>
						<path fill="#202020" d="M76.4,58.6l0.1,0.1C76.5,58.7,76.5,58.6,76.4,58.6z"/>
						<path fill="#202020" d="M93.9,30.9c-0.1,0-0.2,0-0.3,0c0,0,0,0-0.1,0L93.9,30.9z"/>
						<path fill="#202020" d="M92.4,72.4L92.4,72.4L92.4,72.4z"/>
						<path fill="#202020" d="M95.6,71c-0.5,0.2-0.2,0.2-0.2,0.3c-0.5,0.3-0.3,0-0.5,0c-0.3,0.2-0.6,0.4-0.8,0.5c0,0-0.1,0,0-0.1
							c-0.3,0.2-1.1,0.4-1.5,0.6c0,0-0.1,0-0.1,0c0.1,0.1,0.1,0.1,0.1,0.2c-0.2,0.1-0.4,0.2-0.5,0.1c0.1,0,0.1-0.1,0.2-0.1L92,72.6
							c-0.2-0.1,0.3-0.1,0.3-0.2c-0.4,0.2-0.9,0.3-1.3,0.3c-0.1-0.1,0.8-0.1,0.3-0.2l0.5,0c-0.4-0.1,0.3,0-0.1-0.2
							c-0.7,0-0.8,0.2-1.5,0.2c-0.2,0.1,0.1,0.1-0.1,0.2c-1,0.2-0.8-0.3-1.5-0.2c-0.2,0.1-0.3,0.2-0.8,0.1l0.2-0.1
							c-0.7-0.1-0.4,0.2-1.1-0.1c0.1,0,0.5,0.1,0.4,0c-0.4-0.2-0.3,0-0.7-0.1l0-0.1c-0.4-0.1-0.7-0.2-1.1-0.3
							c-0.4-0.1-0.8-0.2-1.1-0.4c0.1,0,0.2,0,0-0.1c-0.5-0.2-0.9-0.5-1.4-0.8c-0.4-0.3-0.8-0.7-1.1-1l-0.3-0.2
							c-0.1-0.1-0.1-0.1,0-0.1c-0.2-0.3-0.1,0-0.2-0.1c-0.2-0.2-0.1-0.3,0-0.2c-0.5-0.4-1.4-1.3-1.6-2l0.1,0.1
							c-0.2-0.5-0.5-0.4-0.7-0.9l0.1,0.1c-0.5-1.1-1-2.4-1.2-3.3c-0.2-0.1-0.4-1.2-0.6-1.2c-0.2-0.7,0-0.5-0.3-1.5
							c-0.1-0.3-0.3-0.3-0.4-0.6l0.1-0.1l-0.3-0.4l0-0.3l-0.1-0.3c0,0.1,0,0.3,0,0.3c-0.2-0.4-0.3-1.1-0.3-1.2l-0.5-1
							c0.1,0,0.1,0.2,0.2,0.3c-0.3-0.5,0.1-0.1-0.2-0.6c0,0.1-0.1,0-0.1,0c0-0.3-0.3-0.9-0.5-1.3l0.1,0.1c-0.3-0.8-0.7-1.6-1-2.5
							c0.1,0.3-0.1,0.3-0.2,0.1l0.1-0.1c-0.1-0.1,0.1,0.3-0.2,0c-0.1-0.3,0-0.3,0.2-0.1l-0.2-0.4c0,0,0.1,0,0.1,0.1
							c-0.1-0.1-0.2-0.7-0.4-0.9l0,0c-0.3-0.9-0.5-1.2-0.7-1.9c-0.1,0-0.1-0.3-0.3-0.5c0-0.6,0-1.2,0-1.8c-0.1-0.5-0.1-0.1-0.2-0.3
							c0.1,0,0.1-0.7,0.2-0.3c0-0.4,0-0.6,0-0.9c0-0.3,0.1-0.6,0.1-1.1c-0.1,0.1-0.1,0.2-0.1,0.1c0-0.2,0.1-0.4,0.2-0.4l0,0
							C73,43,74,41.8,74.3,41l0,0l0.4-0.8c0.3-0.3-0.1,0.2,0.1,0c0.5-0.9,1-1.2,1.5-1.9c0.6-0.2,1.7-1.4,2.6-1.7l-0.1,0
							c0.2-0.2,0.3-0.1,0.4-0.1c0,0-0.2,0-0.1,0c0.8-0.4,1.8-0.8,2.7-1.1c1-0.3,1.9-0.7,2.9-1c0.7-0.2,0.3-0.5,1.2-0.7l-0.2,0.2
							c1.3-0.7,2.8-1.1,4.1-1.7c-0.1,0.1-0.1,0.1-0.2,0.1c0.3,0,1-0.4,1-0.5c0.2-0.1,0.1,0,0.2,0c0.3-0.1,0.7-0.4,0.9-0.4
							c0,0-0.1,0.1-0.1,0.1c0.2-0.1,0.9-0.3,0.6-0.3c0.5-0.1,0.9-0.4,1.4-0.4c0.1-0.1,0.3-0.1,0.5-0.2c0.2,0,0.4,0,0.4-0.1
							c0,0.2,0.9,0,1.2,0c-0.1,0.1,0.3,0,0.2,0.1c0.4,0,0.7,0,0.7-0.1c0.3,0.1,0.7,0.1,1,0.1c0.3,0,0.6,0,0.8,0.2
							c1.1,0.1,2.1,0.4,3,0.8c-0.1,0.1-1-0.5-1.1-0.3c0.9,0.3,1.5,0.4,2.3,1c0.2,0.1-0.2,0-0.2,0c0.9,0.4,1.5,1.1,2.1,1.6
							c0,0-0.1,0-0.2-0.1c0.1,0.1,0.2,0.3,0.3,0.2l-0.1-0.1c-0.1-0.3,0.6,0.3,0.7,0.3c-0.4-0.1,0.5,0.7,0,0.5
							c0.1,0.1,0.2,0.2,0.2,0.1c0.1,0.1,0.1,0.2-0.1,0.1c0.4,0.5,0.3,0.2,0.6,0.7c0,0-0.1-0.1-0.2-0.1c0.2,0.2,0.4,0.4,0.6,0.8
							c0,0,0,0-0.1-0.1c0.4,0.7,0.8,1.1,1,2c-0.3-0.2,0.1,0.3-0.1,0.4l0.2,0.4l0-0.2c0.2,0.4,0.4,0.7,0.5,1.1l-0.2-0.3l0.3,0.7
							l-0.1-0.4c0.2,0.4,0.2-0.1,0.3,0.4c-0.1-0.1,0.2,0.4,0.2,0.6l0,0c0.1,0.2,0.2,0.4,0.3,0.7c0,0.1-0.2,0-0.2,0.1
							c0.2,0.1,0.4,0.9,0.6,1.1c-0.1-0.1-0.1,0-0.1,0l0.2,0.1c0,0.2,0,0.2,0,0.2c0.2,0.6,0.1-0.2,0.3,0.4c0,0,0,0-0.1-0.1
							c0.2,0.7,0.6,1.2,0.7,1.9c-0.1,0.2-0.2-0.5-0.3-0.3c0.4,0.9,0.9,1.7,1.2,2.6l0-0.2c0.2,0,0.1,0.7,0.4,1
							c-0.1-0.1-0.2-0.1-0.1-0.1c0.2,0.6,0.5,1.2,0.9,2l-0.1-0.1c0.1,0.4,0.3,0.9,0.4,1.3c0.1,0.1,0.2,0.3,0.2,0.1
							c0.1,1.2,0.8,2.1,0.7,3.2c0-0.1-0.1-0.3-0.1-0.2c0,0,0,0.2,0.1,0.4c0,0.2,0,0.4,0,0.4c0.1-0.1,0.1-0.1,0.1-0.3
							c0.1,0.1,0.1,0.4,0.1,0.6c-0.1-0.4-0.1,0-0.2,0.2c0,0,0.1,0,0.1,0c-0.2,0.5,0.2,0.1,0,0.7l0,0c0,0.2,0.1,0.5,0,0.7
							c-0.1,0.1,0-0.3-0.1-0.3c0,0.4,0.1,0.7-0.1,1.1c0-0.2,0-0.4,0-0.5c-0.2,0.3-0.2,0.4-0.2,0.6l0,0c0,0,0,0.1-0.1,0.3
							c-0.1,0.1-0.1,0.3-0.1,0.3l0.1-0.1c0.1,0.5-0.2,0.9-0.3,1.5c0.1-0.6-0.1-0.1-0.1-0.2c-0.1,0.1-0.2,0.3-0.2,0.3
							c0,0.3-0.2,0.4-0.3,0.8c0,0-0.1,0.3-0.2,0.2c-0.1,0.3,0.1,0,0.1,0c-0.1,0.3-0.3,0.6-0.5,0.9c-0.2,0.3-0.5,0.6-0.7,1
							c-0.4,0.6-0.4,0.8-0.8,1.3c-0.2,0.1,0-0.2,0-0.2c-0.3,0.2-0.5,0.4-0.7,0.7c0-0.1,0,0-0.1,0c-0.2,0.2,0,0.2-0.4,0.4
							c0-0.1,0.1-0.2,0.1-0.3c-0.2,0.2-0.5,0.5-0.7,0.7c-0.1,0,0.1-0.2,0.2-0.3c-0.3,0.3-0.8,0.6-0.8,0.7l0.2-0.1
							c-0.1,0.1-0.1,0,0-0.1c0.2-0.2,0.4-0.2,0.4-0.2l-0.2,0.2c0.3,0,0.8-0.6,1.1-0.9l0,0.3l0.3-0.4c0.1,0,0.2,0,0.1,0.2
							c0.3-0.2,0.2-0.2,0.5-0.4c0,0,0,0,0,0c0,0,0.2-0.3,0.2-0.3c0,0.1,0.1,0,0,0.2c0.5-0.4,0.6-0.8,0.8-0.9l0,0
							c0.5-0.7,0-0.1,0.2-0.7c0,0,0.5-0.2,0.5-0.2l-0.1-0.1c0.1-0.1,0.1-0.2,0.2-0.2c0.1-0.3-0.1,0,0-0.2c0.3-0.3,0.5-1,0.7-1
							c0-0.2-0.2,0.3-0.1-0.1c0.2,0,0.2-0.5,0.4-0.8c0.1,0.1-0.1,0.5,0.1,0.1c-0.1-0.3,0.3-0.7,0.4-1c-0.1-0.1,0.2-0.7,0.2-1.3
							c0,0,0.3-1,0.3-1.5l0,0c-0.1-0.1-0.1-0.6-0.1-1c0.1,0,0.1,0.1,0.2,0.3l0-0.4c0-0.1-0.1-0.2-0.1-0.4l0.1,0.1
							c0-0.5-0.2-1-0.3-1.6c-0.1,0-0.2,0.5-0.4-0.1c0,0,0.1-0.1,0.2,0.1c0-0.1-0.1-0.2-0.1-0.3l0.1,0.2c0-0.3-0.1-0.1-0.1-0.4
							c0.1,0,0-0.2,0.1-0.2c0,0.1,0,0.2,0.1,0.3c0-0.3-0.1-0.6,0-0.7c0,0-0.1,0-0.2-0.1c-0.2-0.5,0-0.2,0-0.5
							c-0.1-0.1-0.1-0.4-0.2-0.4c0-0.1,0-0.2,0-0.2c-0.1-0.2-0.4-1.1-0.4-0.8l0,0.1l0,0l0,0l0,0c-0.4-0.7-0.6-1.6-0.9-2.3l0,0
							c-0.2-0.4-0.4-1-0.6-1.3c-0.1-0.1-0.1-0.3,0-0.3c-0.2-0.3-0.2-0.4-0.4-0.9c0.2,0.3,0-0.1,0.2,0.3c-0.1-0.5-0.1-0.6-0.4-1
							c0.2,0.1,0-0.4-0.1-0.6l0.1,0.3c-0.1-0.2-0.2-0.4-0.3-0.7l0.2,0.1c-0.2-1-0.9-1.5-0.9-2.3c-0.2-0.2,0.1,0.5,0,0.3
							c-0.1-0.4-0.1-0.9-0.2-1.1c-0.2-0.6-0.4-0.5-0.6-1.1c0,0.1-0.1,0.2-0.3-0.2c-0.1-0.4,0-0.6,0.1-0.3c0,0.1,0,0.2,0,0.2
							c0.1,0.1,0.2,0.3,0.1,0.1l-0.1,0c0-0.2-0.3-0.8-0.1-0.7c-0.2-0.3-0.1-0.1-0.1,0.1c-0.1-0.6-0.3-0.8-0.5-1.4c0,0.1,0,0.2,0,0.1
							c-0.3-0.8-0.2-0.3-0.5-0.9c-0.1-0.3,0.2,0-0.1-0.5c-0.1-0.4,0.1-0.1,0.2,0c-0.2-0.2-0.3-0.5-0.3-0.7c-0.1-0.2-0.2-0.4-0.2-0.6
							l0.2,0.2c-0.1-0.1-0.2-0.3-0.3-0.4l0,0.2c-0.1-0.2-0.1-0.3-0.1-0.3c-0.1-0.1-0.1,0.2-0.3-0.1c-0.1-0.2-0.4-0.5-0.4-0.7
							c0.4,0.6,0.1-0.1,0.4,0.4c-0.1-0.1-0.2-0.2-0.3-0.4c0,0,0,0,0.1,0c-0.3-0.6-0.3-0.2-0.7-0.7c0.1,0,0-0.2-0.1-0.3
							c0.2,0.2,0,0.2-0.2,0c-0.3-0.4-0.4-0.3-0.5-0.5l0.2,0.2c-0.1,0-0.3-0.2-0.5-0.4c0-0.1,0.2,0.2,0.2,0.1c-0.3-0.1-0.5-0.6-1-0.9
							c-0.2-0.2,0.1-0.1-0.1-0.3c-0.5-0.3-0.4-0.4-1-0.7c0.1,0.2,0.1,0.2-0.3,0l0.9,0.4l-0.6-0.2c0.2,0.2,0.6,0.3,0.7,0.4
							c-0.3-0.1-0.2-0.1-0.2,0c-0.3-0.3-0.7-0.3-1-0.7l0.1-0.2c-0.6-0.4-1.1-0.5-2-0.8l0.3,0.1c-0.1,0-0.5-0.2-0.8-0.2
							c0-0.1-0.1-0.1-0.2-0.2c0,0.1-0.6-0.2-0.7,0L98.2,30c-0.7-0.2-0.8,0.1-1.5,0c0.2-0.1-0.1-0.1,0.4-0.2c-0.2,0-0.4,0-0.4,0
							c-0.1-0.1-0.6,0.1-0.9,0c-0.1,0-0.1,0.1-0.4,0.1c0,0,0,0,0,0c0,0-0.4,0.1-0.2,0.1c-0.4-0.1-0.9,0-1.3,0.1
							c-0.5,0.1-0.9,0.2-1.2,0.2c-0.5,0.2-1,0.4-1.4,0.6c0,0,0,0,0.1-0.1c-0.6,0.2-0.3,0.3-1,0.5c-0.4,0,0.3-0.2,0.1-0.2
							c-0.2-0.2-0.8,0.3-1.3,0.4l0.1-0.1c-0.4,0.1-0.8,0.4-1.3,0.6c0,0,0,0,0,0c-0.3,0.3-1,0.6-1.5,0.8c0.1-0.2,0.2-0.1,0.1-0.2
							c-0.2,0.1,0.1,0.1-0.3,0.3c-0.2,0-0.5,0.1-0.6,0l0.4-0.2c-0.3,0-0.6,0.2-0.8,0.3l0-0.1c-0.7,0.3-0.6,0.4-1.4,0.7l0.1,0
							c-0.3,0.3-0.4,0.1-0.7,0.3L83,34.1c-0.3,0.1-0.9,0.5-1.3,0.7c0.2-0.2,0.8-0.5,1.1-0.7c-0.3,0.1-0.9,0.4-1,0.5
							c0.1-0.1,0.2-0.1,0.3-0.2c-0.3,0.2-0.7,0.5-1.2,0.7c0-0.3-1.4,0.5-1.9,0.4c-0.9,0.5-1.8,0.9-2.7,1.7c0.5-0.1-0.3,0.2,0,0.4
							c-0.2,0.2-0.3,0.3-0.3,0.3c0,0-0.2,0.1-0.4,0.2c-0.2,0.1-0.3,0.3-0.3,0.3c-0.2,0.1,0.1-0.2,0.1-0.2c-0.4,0.4-0.2,0.1-0.6,0.4
							c0.1,0-0.1,0.2-0.3,0.5c0,0,0.4-0.3,0.4-0.3c-0.4,0.7-0.6,0.4-1,1.2c0,0,0.1-0.3,0.1-0.3c-0.1,0.2-0.3,0.5-0.5,0.9
							c-0.2,0.4-0.3,0.8-0.3,1c-0.1,0.1-0.2,0.1-0.1-0.1c-0.3,0.5-0.4,1.1-0.5,1.6c-0.1,0.6-0.2,1.1-0.4,1.5l0-0.1
							c0,0.2,0,0.4-0.1,0.6c0,0,0-0.1-0.1,0c0,0.1,0,0.5,0,0.8l0-0.2c-0.2,1,0.1,1.6,0.2,2.4c-0.2,0-0.2,0.8-0.1,1.2l0,0
							c0.1,0.6,0.3,1.1,0.5,1.5c0.2,0.5,0.4,0.9,0.6,1.4c0.1,0.7,0.8,2.1,1,3.2c0-0.2,0.1,0,0.2,0.1c0.1,0.2,0.4,0.6,0.2,0.6l0-0.1
							c-0.1,0.2,0.2,0.7,0.3,1.1l0.2,0c0.1,1.1,1.1,2.5,1.1,3.2c0.1,0.2,0.3,0.5,0.4,0.7l-0.1,0c0.2,0.7,0.3,1,0.7,1.8l-0.1-0.1
							c0.2,0.5,0.5,0.5,0.7,0.9l-0.1,0.2c0.3,0.8,0.5,1.6,1,2.4c0,0-0.1,0-0.1-0.1c0.1,0.2,0.2,0.6,0.4,0.9c0.2,0.3,0.3,0.5,0.4,0.4
							c-0.1,0.1,0.4,0.8,0.8,1.1l-0.1,0c0.4,0.2,0.4,0.3,0.8,0.6c0.1,0.1,0,0.1-0.1,0c0.3,0.4,0.3,0.2,0.6,0.6l-0.2-0.1
							c0.3,0.3,0.3,0.3,0.5,0.4c0.2,0.2,0.6,0.6,0.6,0.7c0.1,0,0.3,0.1,0.5,0.3c0,0.1-0.1,0-0.1,0c0.6,0.5,1,0.5,1.4,0.9
							c0,0,0,0.1,0,0.1c-0.5-0.3-0.9-0.6-0.9-0.6c-0.1,0.1,0.4,0.4-0.1,0.3c0.4,0.1,1,0.4,1.4,0.6c0,0,0,0,0,0.1l0,0
							c0.1,0.1,0.2,0.1,0.3,0.1c0.1,0.1,0.2,0.1,0.3,0.2c0,0.1,0.5,0.2,0.7,0.3c0-0.1,0.3,0,0.1-0.2c0,0,0,0-0.2-0.1
							c0,0-0.1,0-0.1,0l0,0c-0.2-0.1-0.3-0.1-0.6-0.2c0.2,0,0.4,0,0.6,0.2c0.1,0,0.3,0,0.4,0c0.3,0.3,0.9,0.5,0.9,0.6
							c0.7,0.1,1.7,0.3,2.2,0.1c0.2,0,0.2,0.1,0.3,0.1c-0.1,0-0.3,0-0.3,0c0.4,0,1.3,0,1.3-0.1c0.5,0-0.3,0.1,0.4,0.1l-0.1,0.1
							c1.5,0.1,2.2-0.7,3.8-1c-0.1,0-0.2,0-0.2,0c1.7-0.5,3.4-1.4,5.1-1.9c0.5-0.1,0.5-0.2,0.8-0.4l0.1,0.1l0.4-0.3
							c0.6-0.4,1.3-0.2,2.1-0.7l-0.1,0c0.3-0.1,1-0.4,0.9-0.3c0,0,0.1-0.1,0.2-0.1l0,0.1l0.7-0.4c0.6-0.2,0,0.3,0.9-0.1
							c0.3-0.1,0.8-0.5,0.7-0.5c-0.1,0-0.3,0.1-0.4,0l0.3-0.1c0-0.2,0.1-0.5-0.6-0.3l-0.5,0.3l-0.2,0l0.4-0.2
							c-0.3,0-0.4,0.1-0.5,0.3c-0.1,0-0.1,0-0.2,0l-0.4,0.4c-0.1,0,0.2-0.2-0.2-0.1c-0.2,0.2,0.3,0.1-0.1,0.3
							c-0.3,0-0.2-0.1-0.5,0.1c-0.1,0,0-0.1,0.1-0.1c-0.2,0.2-0.7,0.3-0.8,0.4c-0.3,0-0.8,0.4-0.9,0.2c-0.1,0.1-0.4,0.3-0.6,0.4
							c0.3-0.4-0.9,0.3-0.8,0.1c-0.2,0.3-1.1,0.5-1.6,0.8c0,0,0.1-0.1,0.1-0.1c-0.3,0.1-0.4,0.1-0.6,0.1c0,0.2-0.5,0.4-0.7,0.6
							c-0.4,0,0.2-0.3,0-0.3c0.1,0.1-0.6,0.4-0.4,0.4c-0.3,0-0.3,0.1-0.5,0c0,0.2-0.3,0.1-0.5,0.3c-0.5,0.1-0.2-0.1-0.6,0.1
							C95.2,71.2,95.6,71,95.6,71z M84.5,71.4L84.5,71.4c0.1,0,0.2,0.1,0.2,0.1C84.7,71.5,84.6,71.5,84.5,71.4z M83.7,71
							c0.1,0.1,0.2,0.1,0.4,0.2c0,0.1,0,0.1-0.1,0C84,71.2,83.8,71.1,83.7,71z M85.2,72.6c-0.2,0-0.2-0.1-0.2-0.1
							C85.1,72.5,85.2,72.5,85.2,72.6L85.2,72.6C85.3,72.6,85.2,72.6,85.2,72.6z"/>
						<path fill="#202020" d="M85.5,72.6C85.6,72.6,85.6,72.6,85.5,72.6C85.6,72.6,85.5,72.5,85.5,72.6L85.5,72.6L85.5,72.6z"/>
						<path fill="#202020" d="M112.6,51L112.6,51C112.6,51,112.6,51,112.6,51C112.6,51,112.6,51,112.6,51z"/>
						<polygon fill="#202020" points="76.9,59.6 76.9,59.6 76.9,59.7 						"/>
						<path fill="#202020" d="M113.4,56.4C113.4,56.4,113.4,56.4,113.4,56.4C113.4,56.5,113.4,56.4,113.4,56.4z"/>
						<path fill="#202020" d="M113.2,58.7c0,0-0.1,0.3-0.1,0.3C113.1,58.9,113.2,58.8,113.2,58.7z"/>
						<path fill="#202020" d="M112.6,60.4C112.6,60.4,112.7,60.4,112.6,60.4L112.6,60.4L112.6,60.4z"/>
						<path fill="#202020" d="M104.3,34L104.3,34C104.1,33.8,104.2,33.9,104.3,34z"/>
						<path fill="#202020" d="M108.4,41.2c-0.1-0.1-0.1-0.2-0.1-0.2C108.3,41.1,108.4,41.3,108.4,41.2z"/>
						<polygon fill="#202020" points="95.9,30.7 95.9,30.7 95.9,30.7 						"/>
						<path fill="#202020" d="M108.2,40.6c0,0.2,0.1,0.3,0.1,0.4C108.3,40.9,108.2,40.7,108.2,40.6z"/>
						<path fill="#202020" d="M107.9,66.2L107.9,66.2C107.8,66.3,107.8,66.3,107.9,66.2L107.9,66.2z"/>
						<path fill="#202020" d="M107.8,66.3L107.8,66.3C107.8,66.3,107.8,66.3,107.8,66.3z"/>
						<path fill="#202020" d="M107.6,66.5l0.2-0.1C107.7,66.4,107.6,66.4,107.6,66.5z"/>
						<path fill="#202020" d="M109.7,64.8L109.7,64.8C109.7,64.8,109.7,64.8,109.7,64.8z"/>
						<path fill="#202020" d="M110.2,64.3c-0.1,0.1-0.3,0.3-0.5,0.4l0,0C109.8,64.7,110.2,64.5,110.2,64.3z"/>
						<path fill="#202020" d="M112.4,62.1c0,0-0.3,0.5-0.3,0.5c0.1-0.1,0.2-0.2,0.1,0.1C112.6,62.1,112,62.8,112.4,62.1z"/>
						<path fill="#202020" d="M113.2,60.4C113.1,60.7,113.3,60.4,113.2,60.4C113.3,60.2,113.3,60.2,113.2,60.4z"/>
						<path fill="#202020" d="M111.2,47l0.1,0C111.2,46.8,111.2,47,111.2,47z"/>
						<polygon fill="#202020" points="109.7,44.8 109.8,45 109.9,45.1 						"/>
						<polygon fill="#202020" points="109.8,43 109.9,43.1 109.7,42.8 						"/>
						<path fill="#202020" d="M93.2,30.1l0.1,0.1C93.4,30.1,93.4,30,93.2,30.1z"/>
						<path fill="#202020" d="M83.8,33.7c-0.1,0-0.4,0-0.5,0.2C83.5,33.8,83.7,33.8,83.8,33.7z"/>
						<polygon fill="#202020" points="75,57.5 74.9,57.3 75.1,57.7 						"/>
					</g>
				</g>
			</g>
		</g>
	</g>
</g>
</svg>
