<?xml version="1.0" encoding="utf-8"?>
<!-- Generator: Adobe Illustrator 18.0.0, SVG Export Plug-In . SVG Version: 6.00 Build 0)  -->
<!DOCTYPE svg PUBLIC "-//W3C//DTD SVG 1.1//EN" "http://www.w3.org/Graphics/SVG/1.1/DTD/svg11.dtd">
<svg version="1.1" id="Layer_1" xmlns="http://www.w3.org/2000/svg" xmlns:xlink="http://www.w3.org/1999/xlink" x="0px" y="0px"
	 viewBox="0 0 144 144" enable-background="new 0 0 144 144" xml:space="preserve">
<g>
	<g>
		<path fill="none" stroke="#000000" stroke-width="0.576" stroke-miterlimit="10" d="M-72-11.5"/>
	</g>
</g>
<g>
	<g>
		<path fill="none" stroke="#000000" stroke-width="0.576" stroke-miterlimit="10" d="M-60.8-10.2"/>
	</g>
</g>
<g>
	<g>
		<g>
			<g>
				<g>
					<g>
						<g>
							<g>
								<path fill="#202020" d="M86.1,133.3c-0.1,0-0.1,0.3,0.4,0.1l0.3-0.3L86.1,133.3z"/>
								<path fill="#202020" d="M89.4,133.5c0.6-0.3,1.1-0.7,0.7-0.8c-0.4,0.4-0.6,0.3-1.1,0.7c-0.4,0.1-0.8,0-0.8,0
									c-0.1,0.1-0.7,0-1,0.1c0.7,0.1,1.4,0,2.2-0.3C89.6,133.3,89.4,133.5,89.4,133.5z"/>
								<path fill="#202020" d="M103.2,92.2v0.3C103.2,92.4,103.2,92.3,103.2,92.2z"/>
								<path fill="#202020" d="M103.3,62.5c0,0.3,0,0.3,0,0.3C103.3,62.7,103.3,62.5,103.3,62.5z"/>
								<path fill="#202020" d="M103.6,57.4c0,0.1,0,0.1,0,0.3C103.6,57.7,103.6,57.5,103.6,57.4z"/>
								<path fill="#202020" d="M103.2,92.2l0.1-0.8C103.2,91.3,103.2,91.7,103.2,92.2z"/>
								<path fill="#202020" d="M95,130.4c-0.1,0.1-0.3,0.1-0.3,0.3L95,130.4L95,130.4z"/>
								<path fill="#202020" d="M103.3,105.2v0.3c0,0.1,0,0.1,0.1,0.1L103.3,105.2z"/>
								<path fill="#202020" d="M103.5,115.3c0-0.3-0.3-0.3-0.3-0.4c0.1,0.1,0.1,0.3,0.1,0.6C103.3,115.4,103.3,115.4,103.5,115.3z"
									/>
								<path fill="#202020" d="M97.4,129.7l-0.1,0.3C97.2,129.9,97.2,129.9,97.4,129.7z"/>
								<path fill="#202020" d="M103.5,98L103.5,98L103.5,98z"/>
								<path fill="#202020" d="M74.4,132.8L74.4,132.8C74.6,132.8,74.6,132.8,74.4,132.8z"/>
								<path fill="#202020" d="M86.1,133.9H86v0.1L86.1,133.9z"/>
								<path fill="#202020" d="M103.9,48.2L103.9,48.2C103.9,48.5,103.9,48.4,103.9,48.2z"/>
								<path fill="#202020" d="M46.5,15.7c0.8-0.6-1.1,1.3,0.3,0.4C46.5,16.1,47.6,15,46.5,15.7z"/>
								<path fill="#202020" d="M95.3,130.3l0.3-0.3C95.4,130.1,95.3,130.3,95.3,130.3z"/>
								<path fill="#202020" d="M46.7,16.1L46.7,16.1L46.7,16.1L46.7,16.1z"/>
								<path fill="#202020" d="M103.6,26.7c0,0,0,0.1,0,0.3C103.5,26.9,103.5,26.9,103.6,26.7z"/>
								<path fill="#202020" d="M103.5,42.8v-0.4C103.5,42.5,103.5,42.7,103.5,42.8z"/>
								<path fill="#202020" d="M100,18.9c-0.1-0.1-0.1-0.3-0.3-0.6c0,0,0,0,0,0.1C99.7,18.6,99.9,18.7,100,18.9z"/>
								<path fill="#202020" d="M93,13.4C93.2,13.4,93.2,13.4,93,13.4c0.3,0.1,0.3,0.1,0.4,0.3L93,13.4z"/>
								<path fill="#202020" d="M49.4,130.6c0.1,0.1,0.1,0.3,0.3,0.4C49.5,130.7,50.6,131.2,49.4,130.6z"/>
								<path fill="#202020" d="M95.1,130.6c0-0.1,0-0.1,0.1-0.3C95.1,130.4,95.1,130.4,95.1,130.6C95,130.6,95,130.6,95.1,130.6z"
									/>
								<path fill="#202020" d="M98.3,19.7c0,0-0.1-0.3-0.4-0.6c-0.3-0.3-0.4-0.4-0.4-0.4C97.8,19,98.1,19.3,98.3,19.7z"/>
								<path fill="#202020" d="M41.9,72.4v0.3C41.9,72.6,41.9,72.4,41.9,72.4z"/>
								<path fill="#202020" d="M94.7,16.2c-0.1-0.1-0.3-0.4-0.6-0.6H94L94.7,16.2z"/>
								<path fill="#202020" d="M49.5,130.8L49.5,130.8L49.5,130.8z"/>
								<path fill="#202020" d="M57.7,132.5c-1.3,0-0.6,0.3-0.8,0.4c-1.5,0-0.7-0.3-1.1-0.4c-0.4,0-0.8,0-1.3,0
									c-0.4,0-0.7,0-1.1-0.1c0,0-0.1-0.1,0-0.1c-0.6,0-1.1-0.3-1.9-0.6c-0.7-0.3-1.4-0.6-1.9-0.8l-0.1-0.1c0.1,0.3,0,0.4,0,0.4
									c-0.4-0.3-1-0.4-1.1-0.7c0.3,0.1,0.4,0.1,0.6,0.1l-0.6-0.3c-0.1-0.3,0-0.1,0.3,0s0.6,0.3,0.6,0.1c-1-0.6-2.2-1.3-2.8-1.8
									c0-0.3,1.5,1.3,0.8,0.3l1,1c-0.6-1,0.7,0.6,0.1-0.4c-0.7-0.6-1.1-0.8-1.4-1.1c-0.4-0.3-0.7-0.7-1.3-1.3
									c-0.4-0.1-0.1,0.3-0.4,0c-0.8-1-1-1.4-1.1-1.9c-0.1-0.4-0.1-0.7-0.7-1.5c-0.4-0.3-0.8-0.4-1.1-1.7l0.4,0.3
									c-0.3-0.8-0.4-1-0.6-1.3c-0.1-0.3-0.3-0.4-0.4-1.4c0.1,0.3,0.4,1.3,0.4,1c0-1.1-0.3-0.7-0.6-1.7l0.3-0.3
									c-0.3-1.8-0.4-3.9-0.4-6c0.1,0.1,0.1,0.4,0.3,0c-0.1-2.6,0-5.7,0.1-8.3v-0.6c0-0.3,0.1-0.4,0.1-0.1c0.1-1-0.1,0-0.3-0.6
									c0-0.6,0.1-0.7,0.1-0.4c-0.1-1.8-0.4-5-0.1-7l0.1,0.4c0.1-1.4-0.4-1.7-0.3-3.1v0.3c0.1-3.2-0.1-6.7,0.3-9
									c-0.3-0.4,0.1-3.2-0.3-3.3c0.3-1.8,0.3-1.3,0.4-3.9c0-0.7-0.3-1-0.3-1.8H42l-0.3-1.1l0.3-0.6v-0.8c0,0.3-0.1,0.7-0.1,0.6
									c-0.1-1.3,0.1-3.1,0.3-3.1l-0.3-2.9c0.1,0,0.1,0.6,0.1,1c-0.3-1.5,0.3-0.3,0-1.7c0,0.1-0.1-0.1-0.1-0.1
									C42,65.7,42,64.1,42,63l0.1,0.3c0-2.2-0.1-4.6-0.1-7c-0.1,0.8-0.4,0.7-0.4,0l0.3-0.3c-0.1-0.4-0.1,0.7-0.3-0.1
									c0-1,0.3-0.6,0.4-0.1l-0.1-1.1c0.1,0,0.1,0.1,0.3,0.3c-0.1-0.4,0.3-1.9,0-2.5h0.1c0-2.4-0.1-3.5-0.1-5.6
									c-0.3,0-0.1-0.8-0.4-1.4c0.1-1.4,0.3-3.1,0.3-4.9c-0.1-1.3-0.1-0.4-0.3-1c0.1-0.1,0.1-1.8,0.3-1c0-2.1,0-2.6-0.1-5.3
									c-0.1,0.3-0.1,0.6-0.1,0.4c0-0.4,0.1-1.1,0.1-1v0.1c-0.1-1.4,0-3.3,0.1-4.7c0.3-1.5,0.7-2.9,0.8-4v0.1c0,0,0.1-0.6,0.3-1.1
									c0.1-0.6,0.4-1.1,0.4-1.1c0.6-1-0.1,0.7,0.3,0c1-2.4,2.2-3.2,3.6-4.7c0.4-0.1,0.8-0.4,1.4-0.7s1.1-0.7,1.8-1.1
									c1.3-0.7,2.8-1.3,3.9-1.3l-0.1-0.1c0.6-0.3,0.7,0,1.1,0c-0.1-0.1-0.6,0-0.3-0.1c2.2-0.4,4.9-0.1,7.5-0.1
									c2.6,0.1,5.1,0.1,7.8,0.3c1.8,0,1.1-0.7,3.5-0.4L73.3,14c3.8-0.3,7.8,0,11.4-0.3c-0.3,0-0.3,0.1-0.6,0.1
									c0.4,0.1,1.1,0.1,1.8,0c0.7,0,1.1-0.1,1.1-0.1c0.6,0,0.1,0.1,0.4,0.3c0.7,0.1,1.8,0,2.2,0.3h-0.3c0.6,0,2.1,0.6,1.8,0.3
									c1.3,0.6,2.4,0.8,3.2,1.5c0.7,0.1,1.8,1.4,2.1,1.3c-0.1,0.1,0.3,0.6,0.7,1c0.4,0.6,1.1,1.1,1.4,1.4c-0.3-0.1,0.3,0.7,0,0.4
									c0.6,0.7,1.1,1.4,1.1,1.3c0.6,1.7,1.8,3.1,1.5,4.2c0.6,1.3,0.7,2.6,0.8,4c0,1.4,0.1,2.8,0.1,4c-0.4-0.1,0-2.9-0.4-2.8
									c0.1,2.5,0.4,4,0.4,6.5c0,0.7-0.1-0.4-0.3-0.6c0.1,2.5,0,4.9,0.1,7.2c0,0-0.1-0.3-0.1-0.4c0,0.4,0,1,0.1,1v-0.4
									c0.3-0.7,0.6,1.8,0.6,1.8c-0.4-0.7-0.1,2.2-0.7,1c0,0.3,0.1,0.7,0.3,0.6c0,0.4-0.1,0.6-0.3,0.1c0.1,1.5,0.3,1,0.3,2.5
									c-0.1,0-0.1-0.3-0.1-0.4c0.1,0.7,0.3,1.5,0.3,2.6c0-0.1-0.1,0-0.1-0.3c0,2.1,0.4,3.6,0.3,5.8c-0.3-0.7-0.1,0.8-0.4,1
									l0.1,1.3l0.1-0.6c0,1.1,0.3,2.1,0.1,2.9l-0.1-0.8v2.1l0.1-1.1c0.1,1.1,0.4-0.1,0.3,1.4c0-0.3,0,1.1-0.1,1.7l0,0
									c0.1,0.6,0.1,1.1,0.1,1.9c-0.1,0.1-0.3-0.1-0.4,0c0.3,0.6,0,2.5,0.3,3.2c0-0.3-0.3-0.3-0.3-0.1l0.1,0.4
									c0,0.6-0.1,0.6-0.3,0.6c0,1.5,0.4-0.4,0.3,1.3c0-0.1,0-0.1-0.1-0.4c-0.1,1.8,0.1,3.5,0,5.1c-0.3,0.6-0.1-1.4-0.3-0.8
									c0,2.4,0.4,4.9,0.3,7.2v-0.4c0.4,0.3-0.3,1.7,0,2.9c0-0.3-0.3-0.4-0.1-0.3c0,1.5,0.1,3.2,0.3,5.6l-0.1-0.3
									c-0.1,1,0,2.5-0.1,3.5c0.1,0.3,0.1,0.8,0.3,0.6c-0.6,3.1,0.3,6-0.1,8.6c0-0.3-0.1-0.8-0.1-0.6l0.1,2.4
									c0.1-0.1,0.1-0.3,0.3-0.8c0.1,0.3,0.1,1,0.1,1.5c-0.1-1.1-0.3,0-0.4,0.4c0-0.1,0.1,0.1,0.1,0c-0.3,1.3,0.4,0.1,0.1,1.8
									l-0.1-0.1c0,0.6,0.1,1.3,0.1,1.8c-0.3,0.3-0.1-0.7-0.3-0.7c0,1,0.4,1.8,0.1,2.8c0-0.4,0-1-0.1-1.4c-0.3,1-0.1,1-0.3,1.7l0,0
									l-0.1,1.7v-0.4c0.6,1.3,0.1,2.4,0.4,4c-0.3-1.5-0.1-0.3-0.4-0.4c-0.1,0.4-0.1,1-0.3,0.8c0.1,0.7-0.3,1.1-0.1,2.2
									c-0.1,0-0.1,0.7-0.4,0.6c-0.1,1,0.1-0.1,0.3-0.1c0,1.5-1.3,3.2-2.2,5.1c-1,1.5-1,1.9-2.1,3.3c-0.6,0.3,0.1-0.6,0.1-0.6
									c-0.8,0.6-1.3,1-1.9,1.7c0.1-0.1-0.1-0.1-0.3,0c-0.6,0.4-0.3,0.6-1.1,0.8c0.1-0.1,0.1-0.4,0.4-0.7c-0.3,0.3-0.7,0.6-1,0.7
									c-0.3,0.3-0.7,0.4-1.1,0.7c-0.3,0,0.4-0.4,0.6-0.6c-0.8,0.6-2.2,1.1-2.5,1.4l0.6-0.1c-0.3,0.1-0.3-0.1,0-0.3
									c0.7-0.4,1.1-0.3,1.3-0.3l-0.6,0.3c0.8,0.3,2.2-1.1,3.2-1.8l-0.3,0.6c0,0,0.3-0.1,0.4-0.4c0.3-0.3,0.4-0.6,0.4-0.6
									c0.3-0.1,0.6,0,0,0.4c0.8-0.4,0.6-0.6,1.3-1c0.1,0,0,0,0,0l0.6-0.7c-0.1,0.1,0.3,0-0.1,0.4c1.3-1,1.5-2.1,2.1-2.4v0.1
									c1.1-1.9,0-0.3,0.6-1.8c0,0,0.3-0.1,0.6-0.3c0.3-0.1,0.6-0.4,0.6-0.4l-0.1-0.3c0.1-0.1,0.3-0.6,0.4-0.4
									c0.1-0.8-0.1,0.1-0.1-0.4c0.7-1,0.8-2.9,1.3-3.1c-0.1-0.4-0.3,1-0.3-0.1c0.4-0.3,0.1-1.4,0.4-2.4c0.1,0.3,0,1.3,0.3,0.3
									c-0.3-0.7,0.1-1.9,0-2.8c-0.3,0-0.1-1.8-0.3-3.2c0.1,0.1,0.1-2.6,0.3-3.9l0,0c-0.3-0.3-0.3-1.7-0.3-2.6
									c0.1,0,0.3,0.3,0.3,0.7v-1c-0.1-0.3-0.1-0.6-0.1-1.1l0.3,0.3c0-1.3-0.3-2.5-0.1-4c-0.1-0.1-0.6,1.3-0.7-0.4
									c0.1,0,0.3-0.1,0.3,0.3c0-0.1-0.1-0.6,0-0.8l0.1,0.7c0.1-0.7-0.1-0.4-0.1-1c0.1,0,0.1-0.4,0.3-0.3c0,0.1,0,0.6,0,0.7
									c0-0.7,0.1-1.4,0.3-1.7c-0.1,0-0.3,0-0.3-0.4c0-1.3,0.1-0.4,0.3-1.1c-0.1-0.3,0-1.1-0.3-1.1c0-0.4,0.1-0.4,0.1-0.6
									c-0.1-0.7,0-2.9-0.3-2.2v0.1c0,0,0,0,0-0.1l0,0l0,0c-0.3-2.1,0.1-4.3,0-6.4h0.1c-0.1-1.3,0-2.8-0.3-3.6
									c0-0.4,0.1-0.8,0.3-0.7c0-1-0.1-1.1,0-2.4c0.1,1,0.1-0.3,0.1,1c0-1.3,0.1-1.5,0-2.8c0.1,0.4,0.3-1,0.1-1.5l0.7,0.3
									c0-0.7,0-1.3,0-1.8l0.3,0.3c0.3-2.5-0.6-4.6,0-6.4c-0.1-0.7-0.1,1.4-0.4,0.8c0-1.1,0.4-2.4,0.4-2.8c0.1-1.5-0.4-1.5-0.3-3.1
									c-0.1,0.3-0.4,0.4-0.4-0.8c0-1.1,0.4-1.4,0.4-0.7c0,0.3,0,0.4,0,0.4c0,0.4,0.1,0.8,0.1,0.4l-0.1-0.1
									c0.1-0.6,0.1-2.2,0.3-1.8c-0.1-0.8-0.1-0.4-0.1,0.3c0.1-1.5,0-2.4,0.1-3.9c0,0.3-0.1,0.4-0.1,0.3c0.1-2.2-0.1-1-0.3-2.5
									c0.1-0.8,0.3,0.3,0.3-1.3c0.1-1,0.3-0.1,0.3,0.1c-0.1-1.4,0.1-2.6,0.1-3.3l0.1,0.7c0-0.4,0-0.8,0-1.1l-0.1,0.4
									c0-0.4,0-0.8,0.1-0.8c-0.1-0.4-0.3,0.3-0.4-0.6c0.1-0.6-0.1-1.8,0.1-1.9c-0.1,1.8,0.3-0.1,0.3,1.4c0-0.3,0-0.7,0-1.1
									c0,0,0,0,0,0.1c0.3-1.7-0.3-0.8-0.3-2.6c0.1,0.3,0.3-0.4,0.3-0.7c0,0.7-0.3,0.3-0.3-0.3c0.1-1.1-0.1-1.3,0-1.8v0.7
									c-0.1-0.3-0.1-0.8-0.1-1.7c0.1,0,0.1,0.7,0.1,0.4c-0.3-0.8,0.3-1.9,0.1-3.2c0.1-0.6,0.3,0,0.3-0.6c-0.1-1.4,0.1-1.5,0-2.9
									c-0.1,0.4-0.1,0.6-0.3-0.6l0.1,2.4l-0.7-1.5c0,0.7,0.1,1.5,0.1,1.9c-0.1-0.7-0.1-0.7-0.3-0.3c0.3-1-0.1-1.9,0-3.1h0.4
									c0.3-1.7-0.3-3.1-0.1-5.3l-0.1,0.7c-0.1-0.3,0-1.4-0.1-2.1c0.1,0,0.1-0.4,0.3-0.7c-0.1,0-0.3-1.7-0.7-1.8v-1.1
									c-0.6-1.8-1.1-1.8-1.9-3.5c0.4,0.4,0.1-0.4,0.8,0.6c-0.3-0.6-0.6-1-0.7-1c0-0.1-0.3-0.6-0.6-0.8c-0.3-0.3-0.6-0.7-0.7-1
									c-0.1-0.1-0.4-0.1-0.8-0.6c0-0.1,0,0,0,0s-0.8-0.7-0.6-0.1c-0.4-0.8-1.4-1.7-2.4-2.4s-2.1-1.3-2.8-1.8
									c-0.6-0.3-1.3-0.4-1.9-0.7c-0.7-0.1-1.4-0.3-1.9-0.4c0.1,0,0-0.1,0.3,0c-1.5-0.4-1.1,0.3-2.8,0c-1-0.3,1-0.1,0.4-0.3
									c-0.1-0.3-0.7-0.3-1.4-0.3s-1.4,0.1-2.1,0H84c-1-0.1-2.2,0.1-3.8,0.1c0,0,0.1,0,0-0.1c-1,0.3-2.9,0.4-4.5,0.4
									c0.4-0.1,0.7-0.1,0.4-0.3c-0.7,0,0.1,0.3-1.1,0.4c-0.4-0.1-1.4-0.3-1.5-0.4h1.3c-0.7-0.3-1.5,0-2.2,0l0.1-0.1
									c-1.9,0-1.9,0.4-3.9,0.3l0.3,0.1c-1.1,0.3-1-0.1-2.1,0l-0.4-0.4c-0.7,0.1-2.5,0.3-3.9,0.4c0.7-0.3,2.2-0.4,3.2-0.6
									c-0.7,0-2.5,0-2.8,0.1c0.3,0,0.7-0.1,1,0c-0.8,0.3-2.1,0.4-3.5,0.4c0.3-0.6-3.8-0.1-4.9-0.6c-2.6,0.6-5.3,1.1-7.9,2.8
									c0.6-0.1,0.4,0,0.1,0.3c-0.3,0.1-0.7,0.4-0.4,0.6C47,15.8,46.7,16,46.7,16s-0.4,0.3-0.8,0.6s-0.8,0.7-0.8,0.7
									c-0.4,0.3,0.4-0.6,0.3-0.6c-1.1,1.1-0.6,0.4-1.4,1.1c0.3,0-0.1,0.6-0.7,1.3l1-0.8c-0.6,1-1,1.3-1.3,1.7
									c-0.3,0.4-0.7,0.7-1.1,1.8L42,21c-0.3,0.6-0.7,1.5-1,2.5c-0.1,0.6-0.3,1-0.3,1.5c-0.1,0.4-0.1,0.8,0,1.1
									c-0.1,0.1-0.3,0.4-0.3-0.1c-0.3,1.4-0.3,2.9-0.1,4.3c0.1,1.4,0.1,2.6,0,3.8l-0.1-0.1c0,0.6,0.3,0.8,0.1,1.4
									c0,0-0.1-0.1-0.1,0c0,0.3,0.3,1.3,0.1,1.9l-0.1-0.6c-0.1,2.5,0.3,3.9,0.4,6.1c-0.4,0-0.4,1.9-0.6,3.1l0,0
									c0,2.9,0.3,5,0.4,7.8c-0.4,1.7-0.1,5.8-0.4,8.5c0-0.4,0.3,0,0.3,0.6c-0.1,0.7,0.3,1.8-0.1,1.7v-0.3
									c-0.3,0.4-0.3,1.8-0.3,2.8l0.4,0.1c-0.6,2.6,0.3,7.1-0.3,8.5c0.1,0.7,0.1,1.4,0.3,2.1h-0.3c0,1.8-0.1,2.6,0,5l-0.1-0.4
									c0,1.3,0.7,1.5,0.7,2.8l-0.3,0.4c0,2.2-0.3,4.5,0,6.5c0,0-0.1-0.1-0.1-0.4c0,1-0.3,4,0.3,3.6c-0.3,0,0,2.2,0.1,3.5l-0.3-0.1
									c0.3,1,0.4,1,0.4,2.4c0,0.3-0.1,0.3-0.1-0.1c-0.1,1.1,0.3,0.8,0.1,2.2l-0.4-0.6c0,1.1,0,1.1,0.3,1.7c0.1,0.7,0,2.1-0.3,2.4
									c0.1,0.1,0.3,0.8,0.3,1.4c-0.1,0.1-0.1-0.1-0.1-0.3c-0.1,1.9,0.3,2.8,0,4.2c-0.1,0-0.1,0.1-0.1,0.3c0-1.5,0-2.8,0-2.6
									c-0.1,0-0.3,1.3-0.6,0.3c0.1,1,0.6,2.6,0.4,3.9c0,0,0,0.1-0.1,0.1v-0.1c0,0.3,0,0.6,0,0.7c0,0.4,0,0.6,0,1
									c-0.1,0.1-0.1,1.4-0.1,1.9c0.3,0,0.3,0.8,0.4,0c0,0.1,0-0.1,0-0.6c0-0.1,0-0.1,0-0.3l0,0c0-0.4,0-1,0-1.5
									c0.1,0.4,0.3,1,0.1,1.7c0.1,0.3,0.3,0.7,0.4,0.8c-0.1,0.4-0.3,1.1-0.3,1.7c0,0.6,0,1.1-0.1,1.1c0.4,1.9,1.4,4.5,2.4,5.3
									c0.3,0.4,0.3,0.6,0.3,0.8c-0.1-0.3-0.4-0.6-0.6-0.7c0.6,1,1.8,2.6,2.2,2.6c0.8,1.1-0.7-0.4,0.6,1l-0.3-0.1
									c1.1,1.5,2.5,2.4,3.9,2.9c1.4,0.6,2.9,1.1,4.9,1.9c-0.3-0.1-0.4-0.1-0.4-0.3c2.2,0.7,4.7,0.7,7,0.6c2.4,0,4.7,0,7,0.1
									c1.3,0.1,1.4-0.1,2.2-0.3l0.3,0.3l1.4-0.3c1.9-0.1,3.2,0.6,5.7,0.1l-0.3-0.1c0.8,0,2.8-0.1,2.6,0.1c0.1,0,0.3-0.1,0.6-0.1
									v0.1l2.1-0.3c1.7,0.1-0.3,0.6,2.1,0.6c0.8,0,2.5-0.4,2.2-0.4c-0.4,0-1-0.1-1-0.1h0.8c0.1-0.4,0.8-0.7-1.3-1l-1.4,0.3
									l-0.4-0.1h1.1c-0.7-0.1-1.1,0-1.5,0.1c-0.1-0.1-0.3-0.1-0.6-0.1l-1.4,0.4c-0.1-0.1,0.6-0.3-0.3-0.4
									c-0.7,0.1,0.6,0.3-0.4,0.4c-0.7-0.1-0.4-0.3-1.3-0.1c-0.1-0.1,0-0.1,0.4-0.1c-0.7,0.1-1.8,0-2.2,0.3c-0.7-0.3-2.4,0-2.2-0.3
									c-0.3,0.1-1.3,0.3-1.8,0.3c1.1-0.4-2.4,0-2.1-0.4c-0.8,0.4-3.1,0.1-4.6,0.4c0.1,0,0.3-0.1,0.4-0.1c-0.8,0-1.1-0.1-1.7-0.3
									c-0.1,0.3-1.4,0.4-2.2,0.6c-1.1-0.3,0.7-0.4,0.3-0.7c0,0.3-1.8,0.3-1.5,0.4c-0.8-0.1-0.7-0.1-1.1-0.4
									c-0.1,0.4-0.7,0-1.4,0.3c-1.1-0.1-0.3-0.3-1.5-0.3C56.6,132.6,57.7,132.6,57.7,132.5z M41.6,113L41.6,113c0,0.3,0,0.4,0,0.7
									C41.6,113.6,41.6,113.3,41.6,113z M41.6,110.5c0,0.3,0,0.7,0,1.1c-0.1,0.1-0.1,0-0.1-0.3C41.5,111.5,41.5,110.9,41.6,110.5z
									 M39.9,115.9c0-0.4,0-0.6,0-0.6C40.1,115.5,40.1,115.7,39.9,115.9c0.1,0.1,0.1,0.1,0.1,0.1S40.1,115.9,39.9,115.9z"/>
								<path fill="#202020" d="M40.3,116.6v0.1C40.3,116.6,40.3,116.6,40.3,116.6c0-0.1,0-0.1,0-0.3
									C40.3,116.5,40.3,116.5,40.3,116.6z"/>
								<path fill="#202020" d="M103.1,92.6L103.1,92.6L103.1,92.6L103.1,92.6z"/>
								<polygon fill="#202020" points="42,75.2 41.9,75.2 42,75.5 								"/>
								<path fill="#202020" d="M102.4,106.6v0.1C102.4,106.8,102.4,106.8,102.4,106.6z"/>
								<path fill="#202020" d="M102.4,112.7l-0.1,0.8C102.2,113.2,102.2,112.9,102.4,112.7z"/>
								<path fill="#202020" d="M102.2,117.3C102.2,117.5,102.2,117.5,102.2,117.3L102.2,117.3L102.2,117.3z"/>
								<path fill="#202020" d="M102,43.1v-0.1C101.8,42.5,102,42.8,102,43.1z"/>
								<path fill="#202020" d="M102.5,65.2c0-0.3-0.1-0.4-0.1-0.7C102.4,64.9,102.4,65.2,102.5,65.2z"/>
								<polygon fill="#202020" points="98.5,19.8 98.5,19.8 98.3,19.7 								"/>
								<path fill="#202020" d="M102.4,63.4c0,0.4,0,0.7,0,1C102.4,64.2,102.4,63.8,102.4,63.4z"/>
								<path fill="#202020" d="M91.5,132.2h-0.1l0,0H91.5z"/>
								<path fill="#202020" d="M91.2,132.4l-0.3,0.1C91.1,132.4,91.2,132.4,91.2,132.4z"/>
								<path fill="#202020" d="M90.5,132.6l0.4-0.1C90.8,132.5,90.7,132.5,90.5,132.6z"/>
								<path fill="#202020" d="M96.7,129.3L96.7,129.3C96.7,129.2,96.7,129.3,96.7,129.3z"/>
								<path fill="#202020" d="M97.9,128c-0.3,0.3-0.8,0.7-1.3,1.1v0.1C96.8,128.9,97.8,128.5,97.9,128z"/>
								<path fill="#202020" d="M102.5,121.8c0,0-0.1,0.4-0.3,0.7c-0.1,0.4-0.3,0.7-0.3,0.7c0.1-0.3,0.4-0.6,0.1,0.1
									C103.1,121.5,101.8,123.7,102.5,121.8z"/>
								<path fill="#202020" d="M103.3,116.8c0,0.8,0.1,0,0.1,0C103.3,116.4,103.3,116.2,103.3,116.8z"/>
								<path fill="#202020" d="M103.3,81.5l0.1,0.1C103.5,80.9,103.5,81.6,103.3,81.5z"/>
								<polygon fill="#202020" points="102.2,74.8 102.1,75.5 102.4,75.8 								"/>
								<polygon fill="#202020" points="103.8,70.7 103.8,71 103.6,70.1 								"/>
								<path fill="#202020" d="M94.6,14v0.3C95.1,14.4,95.3,14.3,94.6,14z"/>
								<path fill="#202020" d="M69,11.9c-0.3-0.1-1-0.1-1.4-0.1C68.2,11.9,68.7,12.1,69,11.9z"/>
								<polygon fill="#202020" points="39.9,68.4 39.9,68 39.9,68.9 								"/>
							</g>
						</g>
					</g>
				</g>
			</g>
			<g>
				<g>
					<g>
						<g>
							<g>
								<path fill="#202020" d="M43.7,18.5c0,0.1,0.1,0.1,0.3,0l-0.1-0.3L43.7,18.5z"/>
								<path fill="#202020" d="M44.9,18c0-0.3,0.1-0.6-0.1-0.7c0,0.3-0.1,0.3,0,0.7c-0.1,0.1-0.3,0.1-0.3,0c0,0.1-0.3,0.1-0.1,0.3
									C44.5,18.5,44.7,18.3,44.9,18C44.9,17.9,44.9,18,44.9,18z"/>
								<path fill="#202020" d="M59.4,11.5L59.4,11.5C59.3,11.5,59.4,11.5,59.4,11.5z"/>
								<path fill="#202020" d="M69.8,11.8C69.7,11.8,69.7,11.8,69.8,11.8L69.8,11.8z"/>
								<path fill="#202020" d="M71.6,11.8C71.6,11.8,71.5,11.8,71.6,11.8C71.5,11.8,71.6,11.8,71.6,11.8z"/>
								<path fill="#202020" d="M59.4,11.5l0.3,0.1C59.7,11.5,59.5,11.5,59.4,11.5z"/>
								<path fill="#202020" d="M46.2,16v0.1V16L46.2,16z"/>
								<path fill="#202020" d="M54.9,11.9L54.9,11.9C54.8,11.9,54.8,12.1,54.9,11.9L54.9,11.9z"/>
								<path fill="#202020" d="M51.9,13v-0.3C51.7,12.8,51.7,12.9,51.9,13C51.7,12.9,51.7,13,51.9,13z"/>
								<path fill="#202020" d="M47.4,16.1L47.4,16.1C47.3,16.2,47.3,16.2,47.4,16.1z"/>
								<path fill="#202020" d="M57.3,11.8L57.3,11.8C57.4,11.8,57.3,11.8,57.3,11.8z"/>
								<path fill="#202020" d="M46.6,23.2L46.6,23.2L46.6,23.2z"/>
								<path fill="#202020" d="M44.4,19.4L44.4,19.4h0.1H44.4z"/>
								<path fill="#202020" d="M74.8,11.8L74.8,11.8C74.7,11.8,74.8,11.8,74.8,11.8z"/>
								<path fill="#202020" d="M95,20.3c0.4,0-0.3,0.6,0.3,0.4C95.3,20.5,95.4,20.1,95,20.3z"/>
								<path fill="#202020" d="M46.3,16L46.3,16L46.3,16z"/>
								<path fill="#202020" d="M95.3,20.7L95.3,20.7L95.3,20.7C95.4,20.7,95.4,20.7,95.3,20.7z"/>
								<path fill="#202020" d="M82.1,11.9C82.1,11.9,82.1,11.8,82.1,11.9C82.1,11.8,82.1,11.8,82.1,11.9z"/>
								<path fill="#202020" d="M76.6,11.2L76.6,11.2C76.8,11.2,76.8,11.2,76.6,11.2z"/>
								<path fill="#202020" d="M85,12.1c0,0,0.1,0.1,0.1,0l0,0C85,12.2,85,12.2,85,12.1z"/>
								<path fill="#202020" d="M87.8,12.9L87.8,12.9L87.8,12.9L87.8,12.9z"/>
								<path fill="#202020" d="M55.8,25.1c0-0.1-0.1-0.1-0.1-0.3C55.6,25,55.2,25,55.8,25.1z"/>
								<path fill="#202020" d="M46.3,16.1C46.2,16.1,46.2,16,46.3,16.1L46.3,16.1C46.2,16.1,46.2,16.1,46.3,16.1z"/>
								<path fill="#202020" d="M85.4,10.4l0.4,0.1C85.8,10.5,85.7,10.5,85.4,10.4z"/>
								<path fill="#202020" d="M77.2,28.6L77.2,28.6C77.1,28.6,77.2,28.6,77.2,28.6z"/>
								<path fill="#202020" d="M87.3,10.9c0,0.1,0.1,0.1,0.3,0.3c0,0,0,0,0.1,0L87.3,10.9z"/>
								<path fill="#202020" d="M55.6,24.9L55.6,24.9L55.6,24.9z"/>
								<path fill="#202020" d="M52.4,24.9c0.4,0.1,0.3-0.3,0.4-0.4c0.6,0,0.1,0.3,0.4,0.4c0.4,0,0.7-0.3,0.8-0.1v0.1
									c0.4-0.1,1.1,0.1,1.5,0c0,0,0,0,0,0.1c0-0.1,0-0.3,0-0.4c0.1,0,0.4-0.1,0.4,0.1c-0.1,0-0.1,0-0.3,0.1h0.3
									c0.1,0.3-0.3,0-0.3,0.3c0.4,0,1-0.1,1.3,0c0,0.3-0.7,0-0.4,0.3l-0.4-0.1c0.3,0.6-0.3-0.1,0,0.4c0.7,0.1,0.7,0,1.4,0.1
									c0.1-0.1,0-0.3,0.1-0.4c1-0.1,0.6,0.8,1.4,0.6c0.1-0.1,0.3-0.4,0.8-0.1h-0.4c0.6,0.1,0.4-0.4,1.1,0c-0.1,0.1-0.6,0-0.4,0
									c0.4,0.3,0.3-0.1,0.7,0v0.3c0.7,0.1,1.4,0,2.2,0.1c0,0.1-0.1,0.1,0,0.3c1,0,1.9,0.4,2.8,0.7l0.4-0.1c0.1,0,0.1,0.1,0,0.1
									c0.3,0.1,0-0.1,0.3-0.1c0.1,0,0.3,0.1,0.1,0.3c0.7-0.1,1.8-0.1,2.4,0.3H69c0.6,0.1,0.7-0.4,1.1-0.1H70
									c1.1,0.3,2.4,0.3,3.1,0.7c0.1-0.3,1.1,0.3,1.3-0.1c0.6,0.3,0.4,0.4,1.3,0.6c0.3,0,0.4-0.3,0.7-0.3v0.3l0.4-0.3l0.1,0.3h0.3
									c-0.1,0-0.3-0.1-0.3-0.1c0.4-0.1,1.1,0.3,1.1,0.4l1.1-0.1c0,0.1-0.1,0.1-0.3,0.1c0.6-0.3,0.1,0.3,0.6,0v-0.1
									c0.3,0.1,0.8,0.1,1.3,0l-0.1,0.1c0.8,0,1.7-0.1,2.5-0.3c-0.3,0-0.3-0.3,0-0.4l0.1,0.3c0.1-0.1-0.3,0,0-0.3
									c0.3,0,0.3,0.3,0.1,0.4l0.4-0.1c0,0.1,0,0.1,0,0.3c0.1-0.1,0.7,0.1,1-0.1v0.1c0.8-0.1,1.3-0.4,1.9-0.6
									c0-0.3,0.3-0.3,0.4-0.6c0.6-0.1,1.1-0.1,1.7-0.4c0.4-0.3,0-0.3,0.1-0.4c0.1,0.1,0.7-0.1,0.4,0.1c0.7-0.4,0.8-0.4,1.7-1.1
									c-0.1,0-0.3,0-0.3-0.1c0.1-0.1,0.4-0.1,0.4,0l0,0c0.7-0.8,2.4-0.8,2.8-1.7l0,0l0.6-0.7c0.3-0.3-0.1,0.3,0.3,0.1
									c0.6-0.8,1.3-1,1.7-1.5c0.4,0,0.8-0.3,1.3-0.7c0.1-0.1,0.4-0.4,0.6-0.6c0.1-0.1,0.4-0.3,0.8-0.6h-0.1
									c0.1-0.3,0.4-0.3,0.7-0.4c-0.1,0-0.4,0.3-0.3,0l0.8-0.8l0.4-0.4c0,0,0,0,0-0.1l-0.1-0.1L100,18c-0.6-0.4-1.3-1-1.7-1.4
									c-0.7-0.6-1.4-1.3-2.2-1.8c-0.6-0.4-0.7,0.4-1.3-0.3l0.3-0.1c-1.4-0.4-2.5-1.4-3.8-1.7c0.1,0,0.1-0.1,0.3,0
									c-0.1-0.3-1-0.4-1-0.3c-0.1-0.1,0-0.1-0.1-0.3c-0.3-0.3-0.7,0-0.8-0.3h0.1c-0.1,0-0.8-0.3-0.7,0c-0.4-0.3-1-0.3-1.3-0.4
									c-0.3,0.1-0.8-0.4-1,0c0.1-0.3-0.8-0.6-1.1-0.4c0.1-0.1-0.3-0.1-0.1-0.3c-0.4-0.1-0.7-0.1-0.7,0.1c-0.6-0.6-1.4,0.1-1.7-0.6
									c-1.1,0-2.1,0-3.1,0c0-0.4,1.1,0,1.1-0.3c-1,0-1.5,0.3-2.4,0.1c-0.3,0,0.1-0.1,0.3-0.3c-1,0.1-1.8-0.1-2.6,0.1l0.1-0.1
									c-0.1,0-0.4,0-0.4,0.1h0.1c0.3,0.3-0.6,0.6-0.7,0.7c0.3-0.4-0.8-0.1-0.4-0.7c-0.1,0-0.3,0.1-0.1,0.3c-0.1,0-0.3-0.1,0-0.3
									c-0.6,0.1-0.3,0.3-0.8,0.3c0-0.1,0.1-0.1,0.1-0.3c-0.3,0.1-0.6,0.4-1,0.3c0,0,0-0.1,0.1-0.1c-0.7,0.1-1.3,0.6-2.1,0.4
									c0.1-0.4-0.3-0.1-0.4-0.4l-0.4,0.1l0.1,0.1c-0.4,0-0.7,0.3-1,0.3l0.3-0.1l-0.7,0.1l0.4,0.1c-0.4,0.1,0.1,0.4-0.4,0.3
									c0.1,0-0.4,0-0.6-0.1l0,0c-0.1,0.1-0.4,0.3-0.7,0.1c-0.1-0.1,0-0.3,0-0.4c-0.1,0.3-0.8,0.1-1.1,0.4c0.1,0,0.1-0.3,0-0.3
									L67,11.2c-0.1,0-0.1-0.1-0.1-0.3c-0.6,0,0.1,0.4-0.4,0.3c0,0,0,0,0.1-0.1c-0.6,0-1.3,0.1-1.8,0c-0.1-0.3,0.6,0,0.3-0.3
									c-0.8,0-1.7,0.3-2.5,0.1h0.1c-0.1,0.4-0.6-0.3-1-0.1c0.1,0,0.1-0.3,0.1-0.1c-0.6-0.1-1.1,0-1.9,0.1l0.1-0.1
									c-0.6-0.1-1.1-0.1-1.4-0.1c-0.1,0.1-0.3,0.1-0.1,0.3c-1.1-0.7-2.1,0.4-3.1,0c0.1,0,0.3-0.1,0.1-0.1c0,0-0.1,0-0.4,0.1
									c-0.1,0-0.4,0.1-0.4,0.1c0.1,0.1,0.1,0.1,0.3,0.1c-0.1,0.1-0.3,0.3-0.6,0.3c0.3-0.1,0-0.3-0.3-0.4v0.1
									c-0.6-0.3,0,0.4-0.6,0.3v-0.1c-0.1,0.1-0.4,0.3-0.6,0.3c-0.1-0.1,0.1-0.1,0.1-0.3c-0.3,0.1-0.6,0.6-0.8,0.6
									c0.1-0.1,0.3-0.1,0.4-0.3c-0.4-0.1-0.4,0-0.7,0l0,0l-0.6,0.1h0.1c-0.1,0.7-0.7,0.6-1,1.1c0.3-0.6,0-0.3-0.1-0.4
									c-0.1,0-0.4,0.1-0.4,0c-0.1,0.3-0.4,0.1-0.6,0.6c0,0-0.3,0.1-0.3,0c-0.3,0.3,0.1,0,0.1,0.1c-0.3,0.6-1.3,0.6-1.5,1.4
									c-0.4,0.6-0.3,0.8-0.7,1.4c-0.3,0-0.1-0.3-0.1-0.3c-0.3,0.1-0.6,0.3-0.7,0.6c0-0.1-0.1-0.1-0.3-0.1
									c-0.1,0.1,0.1,0.3-0.3,0.4c0-0.1,0-0.3,0-0.4c-0.1,0.3-0.3,0.6-0.4,0.8c-0.1,0,0-0.3,0-0.4c-0.3,0.3-0.6,0.7-0.6,1l0.3-0.1
									c-0.1,0.1-0.1-0.1-0.1-0.1c0.1-0.3,0.4-0.3,0.4-0.1l-0.1,0.1c0.4,0.1,0.6-0.7,1-1l0.1,0.4l0.1-0.6c0.1,0,0.3,0.1,0.1,0.3
									c0.3-0.1,0.1-0.3,0.4-0.3l0,0l0.1-0.3c0,0.1,0.1,0.1,0,0.3c0.6-0.3,0.4-0.8,0.8-0.7l0,0c0.4-0.6-0.1-0.3,0.1-0.8l0.8,0.3
									v-0.1c0,0,0.1-0.1,0.3,0c0.1-0.3-0.1,0-0.1-0.3c0.4-0.1,0.7-0.7,1.1-0.6c0-0.3-0.4,0.1-0.1-0.3c0.3,0.3,0.3-0.3,0.7-0.4
									c0,0.3-0.3,0.3,0.1,0.3c0-0.4,0.6-0.3,0.8-0.4c-0.1-0.3,0.6-0.4,0.8-0.7c0,0.1,0.8-0.1,1.4-0.1l0,0c0-0.3,0.4-0.4,0.8-0.6
									c0,0.1,0,0.3-0.1,0.4h0.3c0-0.1,0.1-0.1,0.3-0.3v0.3c0.4,0,0.8-0.4,1.4-0.3c0-0.1-0.4-0.6,0.1-0.7c0,0.1,0,0.3-0.1,0.4
									c0,0,0.1-0.1,0.3,0l-0.3,0.1c0.3,0,0.1-0.1,0.3-0.1c0,0.1,0.1,0.1,0.1,0.3c0,0-0.1,0-0.3,0c0.3,0,0.6,0.1,0.6,0.3
									c0-0.1,0-0.3,0.1-0.3c0.4,0,0.1,0.1,0.4,0.3c0.1-0.1,0.4,0,0.4-0.3c0.1,0,0.1,0.1,0.1,0.1c0.3-0.1,1,0,0.8-0.3l0,0l0,0l0,0
									l0,0c0.7-0.1,1.5,0.3,2.2,0.1v0.1c0.4,0,1,0,1.3-0.1c0.1,0,0.3,0.1,0.3,0.3c0.3,0,0.4-0.1,0.8,0c-0.6,0,0,0-0.6,0
									c0.4,0.1,0.6,0.3,1,0c-0.1,0.1,0.3,0.3,0.6,0.3l-0.3-0.3c0.3,0,0.4,0,0.7,0l-0.1,0.3c1,0.3,1.7-0.6,2.4,0
									c0.3-0.1-0.6-0.1-0.3-0.3c0.4,0,0.8,0.4,1,0.4c0.6,0.1,0.6-0.4,1.1-0.4c-0.1-0.1-0.1-0.3,0.3-0.4c0.4,0,0.6,0.3,0.3,0.4
									c-0.1,0-0.1,0-0.1,0c-0.1,0-0.3,0.1-0.1,0.1v-0.1c0.3,0.1,0.8,0,0.7,0.1c0.3-0.1,0.1-0.1-0.1-0.1c0.6,0.1,0.8-0.1,1.4,0
									c-0.1,0-0.1-0.1-0.1-0.1c0.8,0,0.3-0.3,0.8-0.3c0.3,0.1,0,0.4,0.4,0.1c0.3,0,0.1,0.3,0,0.3c0.4-0.3,1,0,1.3,0l-0.3,0.1
									c0.1,0,0.3-0.1,0.4-0.1L74,11.8c0.1,0,0.3,0,0.3,0.1c0.1-0.1-0.1-0.3,0.1-0.6c0.1,0.1,0.6-0.1,0.7,0.1
									c-0.6,0,0.1,0.3-0.4,0.3c0.1,0,0.3,0,0.4,0c0,0,0,0,0,0.1c0.6,0.1,0.3-0.3,0.8-0.3c-0.1,0.1,0.1,0.3,0.3,0.3
									c-0.3,0-0.1-0.3,0.1-0.4c0.4,0.1,0.4-0.1,0.7-0.1h-0.3c0.1-0.1,0.3-0.1,0.6-0.1c0,0.1-0.3,0.1-0.1,0.1
									c0.3-0.3,0.7,0.3,1.1,0.1c0.1,0.1,0,0.3,0.1,0.3c0.4-0.1,0.6,0.1,1,0.1c-0.1-0.1-0.1-0.1,0.1-0.3c0,0-0.1,0-0.4,0
									c-0.1,0-0.4,0-0.4,0l0.6-0.3c-0.3,0-0.6,0.1-0.7,0c0.3-0.1,0.3-0.1,0.1-0.3c0.3,0.3,0.7-0.1,1.1,0.1v0.4
									c0.6,0.3,1.1-0.1,1.8,0l-0.6-0.1c0.1-0.1,0.4,0,0.7,0c0,0.1,0.1,0.3,0.1,0.3c0-0.1,0.6,0.1,0.7-0.1l0.3,0.3
									c0.6,0.1,0.8-0.3,1.4-0.1c-0.3,0.1,0,0.3-0.4,0.3c0.1,0,0.4,0.1,0.4,0c0.1,0.1,0.6-0.1,0.7,0.1c0.1,0,0.1-0.1,0.4-0.1v0.1
									c0-0.1,0.4,0,0.3-0.3c0.4,0.6,1.7,0.4,2.1,1c0.4,0.1,1,0.3,1.3,0.3c0,0,0,0.1-0.1,0c0.4,0.3,0.4-0.3,1,0.1
									c0.1,0.4-0.4,0-0.3,0.1c-0.1,0.6,0.7,0.3,1,0.7h-0.1c0.3,0.3,0.8,0.1,1.3,0.4l0,0c0.4-0.1,1.1,0.1,1.5,0.3
									c-0.3,0.1-0.3,0-0.3,0.3c0.3,0.1,0.1-0.3,0.6-0.1c0.1,0.1,0.3,0.4,0.3,0.7l-0.4-0.1c0,0.4,0.4,0.3,0.7,0.4l-0.1,0.1
									c0.6,0.3,0.7,0,1.4,0.4v-0.1c0.6,0,0.1,0.3,0.6,0.3l-0.1,0.3c0.3,0.1,0.8,0.3,1.3,0.4c-0.4,0-0.8-0.1-1.3-0.3
									c0.1,0.1,0.7,0.4,0.8,0.4c-0.1,0-0.3,0-0.3-0.1c0.1,0,0.4,0,0.6,0.1c0.1,0,0.3,0.1,0.6,0.3c-0.3,0.1-0.1,0.3-0.1,0.4
									c0,0,0.1,0,0,0.1c0,0-0.1,0-0.1,0.1c-0.1,0-0.3,0.1-0.4,0.1c0,0,0,0.1-0.1,0.1c-0.1,0.1-0.3,0.3-0.4,0.4
									c-0.4,0.3-0.8,0.6-1.1,0.8c0.6,0.1-0.3,0.3,0.1,0.6c-0.1,0.1-0.3,0.3-0.3,0.3l-0.7,0.3c-0.3,0,0.1-0.3,0-0.3
									c-0.4,0.3-0.3,0-0.7,0.1c0.1,0.1,0,0.3-0.3,0.4l0.4-0.1c-0.4,0.7-0.7,0.1-1.1,0.7l0.1-0.3c-0.3,0.3-1.1,0.8-1.1,1.4
									c-0.1,0-0.3,0-0.1-0.1c-0.7,0.4-1.4,1.4-2.1,1.5v-0.1c-0.1,0.1-0.1,0.3-0.4,0.3c0,0,0-0.1-0.1-0.1c0,0.1-0.3,0.4-0.6,0.4
									l0.1-0.1c-0.8,0.3-1,0.8-1.7,1.3c-0.1-0.3-0.8-0.1-1.1-0.1l0,0c-1,0.3-1.5,0.7-2.4,1.1c-0.7-0.3-1.9,0.1-2.9,0
									c0.1,0,0,0.3-0.1,0.3c-0.3,0-0.6,0.3-0.6,0h0.1c-0.1-0.3-0.6-0.3-1-0.3v0.4c-1-0.6-2.5,0.1-2.9-0.4c-0.3,0.1-0.6,0-0.7,0.1
									v-0.3c-0.6-0.1-1-0.1-1.7-0.3l0.1-0.1c-0.4-0.1-0.7,0.6-1,0.6l-0.1-0.4c-0.7-0.1-1.5-0.6-2.2-0.4c0,0,0-0.1,0.1-0.1
									c-0.4,0-1.4-0.4-1.3,0c0-0.3-0.8-0.1-1.3-0.1l0.1-0.1c0,0.1-0.1,0.1-0.6,0.1c-0.1,0,0-0.1,0.1-0.1c-0.4-0.1-0.3,0.1-0.8,0
									l0.1-0.1c-0.4-0.1-0.4,0-0.6,0.1c-0.3,0-0.7-0.1-0.7-0.4c-0.1,0.1-0.3,0.3-0.6,0.1c0-0.1,0.1-0.1,0.1-0.1
									c-0.7-0.3-1,0.1-1.4-0.3c0-0.1,0-0.1,0-0.1c0.6,0.1,1,0.1,0.8,0.1c0-0.1-0.4-0.3,0-0.6c-0.4,0.1-1,0.3-1.4,0.1
									c0,0,0,0,0-0.1l0,0c-0.1,0-0.1,0-0.3,0c-0.1,0-0.1-0.1-0.3-0.1c0-0.1-0.4-0.1-0.7-0.3c0,0.3-0.3,0.1,0,0.4c0,0,0,0,0.1,0
									h0.1l0,0c0.1,0,0.3,0,0.6,0.1c-0.1,0.1-0.4,0.1-0.6,0c-0.1,0.1-0.3,0.3-0.4,0.3c-0.3-0.4-0.7-0.7-0.8-0.8
									c-0.7,0-1.5-0.1-1.9,0.1c-0.1,0-0.1-0.1-0.3-0.3c0.1,0,0.3,0,0.3,0c-0.4,0-1.1-0.1-1.3,0.1c-0.4-0.3,0.3-0.3-0.3-0.3
									l0.1-0.1c-1.1-0.7-2.1,0.4-3.5-0.6c0.1,0,0.1,0.1,0.1,0.1c-1.5-0.6-3.3-0.4-4.7-1.1c-0.4-0.1-0.6,0-0.8,0.1v-0.3l-0.6,0.1
									c-0.7,0-0.8-0.8-1.7-0.8v0.1c-0.3-0.1-0.8-0.4-0.7-0.6c0,0-0.1,0.1-0.1,0l0.1-0.1l-0.6-0.3c-0.1-0.4,0.4-0.3,0.1-0.8
									c-0.1-0.1-0.6-0.6-0.6-0.4c0,0.1,0,0.3-0.1,0.3l-0.1-0.3c-0.4,0-0.8-0.3-0.8,0.7l0.4,0.6v0.3L44,20.3c0,0.4,0.1,0.4,0.4,0.6
									c0,0.1,0,0.1,0,0.3l0.7,0.3c0,0.1-0.4,0-0.1,0.4c0.3,0,0-0.4,0.4-0.1c0.1,0.3,0,0.4,0.3,0.4c0,0.1-0.1,0.1-0.3,0.1
									c0.3,0.1,0.7,0.4,0.8,0.3c0.1,0.3,0.8,0.3,0.7,0.7c0.1,0,0.6-0.1,0.8,0c-0.6,0.3,0.8,0.3,0.6,0.7c0.4-0.3,1.3,0.1,1.8,0
									c0,0-0.1,0.1-0.1,0c0.3,0.1,0.4,0.3,0.6,0.3c0.1-0.3,0.6-0.3,0.8-0.4c0.3,0.4-0.3,0.3-0.3,0.7c0-0.3,0.7-0.1,0.6-0.4
									c0.3,0.3,0.3,0.1,0.3,0.4c0.1-0.4,0.3,0,0.6-0.3c0.4,0.3,0,0.4,0.6,0.3C52.9,24.7,52.4,24.9,52.4,24.9z M63,26.1L63,26.1
									c-0.1,0-0.1,0-0.3,0C62.9,26.1,62.9,26.1,63,26.1z M64,26.2c-0.1,0-0.3,0-0.4-0.1c0-0.1,0-0.1,0.1-0.1
									C63.6,26.1,63.8,26.2,64,26.2z M62.3,24.4c0.1,0,0.1,0,0.1,0.1C62.5,24.4,62.5,24.4,62.3,24.4L62.3,24.4L62.3,24.4z"/>
								<path fill="#202020" d="M62,24.6L62,24.6C62,24.7,62,24.7,62,24.6L62,24.6L62,24.6z"/>
								<path fill="#202020" d="M59.3,11.5L59.3,11.5C59.3,11.5,59.3,11.4,59.3,11.5C59.3,11.4,59.3,11.4,59.3,11.5z"/>
								<polygon fill="#202020" points="76.1,28.7 76.1,28.6 76.1,28.6 								"/>
								<path fill="#202020" d="M54.2,10.9L54.2,10.9L54.2,10.9z"/>
								<path fill="#202020" d="M52.2,11.6h-0.3C52,11.6,52,11.6,52.2,11.6z"/>
								<path fill="#202020" d="M50.6,12.3C50.6,12.3,50.6,12.5,50.6,12.3L50.6,12.3L50.6,12.3z"/>
								<path fill="#202020" d="M76.5,9.7C76.5,9.7,76.6,9.7,76.5,9.7C76.8,9.7,76.6,9.7,76.5,9.7z"/>
								<path fill="#202020" d="M68.9,10.9c0.1,0,0.1-0.1,0.3-0.1C68.9,10.8,68.9,10.8,68.9,10.9z"/>
								<path fill="#202020" d="M85.4,10.4L85.4,10.4L85.4,10.4z"/>
								<path fill="#202020" d="M69.4,10.8c-0.1,0-0.3,0-0.4,0C69.1,10.8,69.3,10.8,69.4,10.8z"/>
								<path fill="#202020" d="M45.1,17.1L45.1,17.1L45.1,17.1L45.1,17.1z"/>
								<path fill="#202020" d="M45.1,17.1L45.1,17.1C45.1,17.2,45.1,17.1,45.1,17.1z"/>
								<path fill="#202020" d="M44.9,17.3l0.1-0.1C44.9,17.2,44.9,17.2,44.9,17.3z"/>
								<path fill="#202020" d="M46.7,15.5L46.7,15.5L46.7,15.5z"/>
								<path fill="#202020" d="M47.2,15.1c-0.1,0.1-0.4,0.1-0.6,0.3l0,0C46.7,15.4,47.2,15.4,47.2,15.1z"/>
								<path fill="#202020" d="M49.9,14l-0.4,0.3c0.1,0,0.3,0,0.1,0.1C50.2,14.3,49.4,14.4,49.9,14z"/>
								<path fill="#202020" d="M51.3,13.2c-0.3,0.1,0.1,0.1,0.1,0.1C51.5,13.2,51.6,13.2,51.3,13.2z"/>
								<path fill="#202020" d="M63.1,11.9v0.1C63.3,12.1,63,12.1,63.1,11.9z"/>
								<polygon fill="#202020" points="65.5,10.9 65.2,10.8 65.2,10.9 								"/>
								<polygon fill="#202020" points="66.9,12.3 66.8,12.3 67.2,12.3 								"/>
								<path fill="#202020" d="M87.2,12.9v-0.3C87.1,12.8,86.9,12.9,87.2,12.9z"/>
								<path fill="#202020" d="M95.3,16.4c0,0.1,0.1,0.4,0.4,0.3C95.4,16.6,95.4,16.4,95.3,16.4z"/>
								<polygon fill="#202020" points="78.6,26.8 78.7,26.7 78.4,26.8 								"/>
							</g>
						</g>
					</g>
				</g>
			</g>
		</g>
		<g>
			<g>
				<g>
					<g>
						<g>
							<g>
								<path fill="#202020" d="M76.1,23.5C76.1,23.6,76.1,23.6,76.1,23.5L76.1,23.5L76.1,23.5z"/>
								<path fill="#202020" d="M76.6,23.7c0.1-0.1,0.1-0.3,0-0.4C76.6,23.6,76.5,23.5,76.6,23.7c-0.1,0-0.3-0.1-0.3-0.1
									s-0.1,0-0.1,0.1C76.4,23.7,76.5,23.7,76.6,23.7L76.6,23.7z"/>
								<path fill="#202020" d="M77.9,17.2L77.9,17.2C77.9,17.3,77.9,17.3,77.9,17.2z"/>
								<path fill="#202020" d="M74.3,14.3L74.3,14.3L74.3,14.3z"/>
								<path fill="#202020" d="M73.6,14L73.6,14L73.6,14z"/>
								<path fill="#202020" d="M77.9,17.2L77.9,17.2C77.8,17.2,77.9,17.2,77.9,17.2z"/>
								<path fill="#202020" d="M77.2,23L77.2,23L77.2,23L77.2,23z"/>
								<path fill="#202020" d="M78.7,19.2L78.7,19.2C78.7,19.2,78.7,19.3,78.7,19.2L78.7,19.2z"/>
								<path fill="#202020" d="M79,20.8h-0.1C78.9,20.8,78.9,20.8,79,20.8C78.9,20.8,78.9,20.8,79,20.8z"/>
								<path fill="#202020" d="M77.9,23.2L77.9,23.2L77.9,23.2z"/>
								<path fill="#202020" d="M78.3,18L78.3,18L78.3,18z"/>
								<path fill="#202020" d="M75.8,22.5L75.8,22.5L75.8,22.5z"/>
								<polygon fill="#202020" points="77.8,23 77.8,23 77.8,23.2 								"/>
								<path fill="#202020" d="M72.2,13.4L72.2,13.4L72.2,13.4z"/>
								<path fill="#202020" d="M59.5,16c0.1-0.1,0,0.3,0.3,0.1C59.7,16.1,59.7,15.8,59.5,16z"/>
								<path fill="#202020" d="M77.3,23L77.3,23C77.3,22.9,77.3,23,77.3,23z"/>
								<path fill="#202020" d="M59.8,16.1L59.8,16.1L59.8,16.1z"/>
								<path fill="#202020" d="M68.9,13C68.9,13,68.9,13.2,68.9,13C68.9,13.2,68.9,13,68.9,13z"/>
								<path fill="#202020" d="M71.2,13.6L71.2,13.6L71.2,13.6z"/>
								<path fill="#202020" d="M67.5,13.2C67.5,13,67.5,13,67.5,13.2C67.5,13,67.5,13.2,67.5,13.2C67.5,13,67.5,13,67.5,13.2z"/>
								<path fill="#202020" d="M66.2,13L66.2,13L66.2,13z"/>
								<path fill="#202020" d="M71.8,22.8C71.8,22.9,71.9,22.9,71.8,22.8C71.9,22.8,72,22.8,71.8,22.8z"/>
								<path fill="#202020" d="M77.3,23C77.2,23,77.2,23,77.3,23L77.3,23C77.2,23,77.2,23,77.3,23z"/>
								<path fill="#202020" d="M67.3,14.1h-0.1H67.3z"/>
								<path fill="#202020" d="M62.3,23.2L62.3,23.2C62.5,23.2,62.3,23.2,62.3,23.2z"/>
								<path fill="#202020" d="M66.5,14.1C66.5,14,66.5,14,66.5,14.1C66.3,14,66.3,14,66.5,14.1L66.5,14.1z"/>
								<path fill="#202020" d="M71.9,22.9L71.9,22.9L71.9,22.9z"/>
								<path fill="#202020" d="M73.3,22.5c-0.1,0-0.1,0.1-0.1,0.3c-0.3,0-0.1-0.1-0.1-0.3c-0.1,0-0.3,0.3-0.4,0.3c0,0,0,0,0-0.1
									c-0.1,0.1-0.4,0-0.7,0.3l0,0c0,0.1,0,0.1,0,0.3c-0.1,0-0.1,0.1-0.1,0c0,0,0,0,0.1-0.1h-0.1c-0.1-0.1,0.1,0,0.1-0.1
									c-0.1,0-0.4,0.3-0.6,0.1c0-0.1,0.3-0.1,0.1-0.3h0.3c-0.1-0.3,0.1,0,0-0.3c-0.3,0-0.3,0.1-0.6,0.1c0,0.1,0,0.1,0,0.3
									c-0.4,0.1-0.4-0.4-0.7-0.1C70.2,23,70.2,23.2,70,23v-0.1c-0.3,0-0.1,0.3-0.4,0.1c0-0.1,0.3-0.1,0.1-0.1
									c-0.1-0.1-0.1,0.1-0.3,0.1v-0.1c-0.3,0-0.6,0.1-1,0.3V23c-0.4,0.1-0.8,0-1.3,0L67,23.2c0,0-0.1,0,0-0.1
									c-0.1,0,0,0.1-0.1,0.1s-0.1-0.1,0-0.1c-0.3,0.1-0.8,0.3-1.1,0.1l0,0c-0.3,0-0.3,0.3-0.4,0.1l0,0c-0.6,0-1,0.1-1.4,0
									c0,0.3-0.4-0.1-0.6,0.3c-0.3-0.1-0.1-0.1-0.6-0.3c-0.1,0-0.1,0.1-0.3,0.1v-0.1l-0.1,0.1v-0.1h-0.1c0,0,0.1,0.1,0,0.1
									c-0.1,0-0.4-0.1-0.4-0.3h-0.1c-0.1,0-0.1,0-0.1,0s0.1,0,0.1-0.1c-0.3,0.1,0-0.1-0.1-0.1V23c0-0.1-0.1-0.3-0.3-0.3h0.1
									c-0.1-0.1-0.4-0.3-0.6-0.6c0,0.1-0.1,0.1-0.3,0.1l0.1-0.1c-0.1,0,0,0.1-0.1,0c0-0.1,0.1-0.1,0.1-0.1l-0.1-0.1h0.1
									c-0.1,0,0-0.3-0.1-0.3l0,0c-0.1-0.3-0.1-0.4-0.3-0.7c-0.1,0-0.1-0.1-0.3-0.1c0-0.3,0.1-0.4,0-0.7C60,20,60,20.1,59.8,20
									c0.1,0,0.1-0.3,0.1-0.1c0-0.3,0-0.4-0.1-0.8c0,0-0.1,0.1-0.1,0c0-0.1,0-0.1,0.1-0.1l0,0c-0.1-0.4,0.4-1,0.3-1.4l0,0v-0.4
									c0-0.1,0,0.1,0.1,0c-0.1-0.4,0.1-0.6,0.1-0.8c0.4-0.1,0.3-0.8,0.7-0.8h-0.1c0-0.1,0.1,0,0.1-0.1h-0.1c0.3-0.6,1.1-0.8,1.7-1
									c0.3,0,0-0.4,0.4-0.4V14c0.4-0.3,1.1-0.1,1.7-0.3c0,0,0,0.1-0.1,0.1c0.1,0.1,0.4,0,0.4-0.1c0.1,0,0,0.1,0,0.1
									c0.1,0.1,0.3-0.1,0.4,0l0,0c0.1,0,0.4,0,0.3-0.1c0.1,0.1,0.4,0,0.6,0c0.1-0.1,0.4,0.1,0.4-0.1c0,0.3,0.4,0.3,0.6,0.1
									c0,0,0.1,0.1,0,0.1c0.1,0,0.3,0,0.3-0.1c0.3,0.3,0.6-0.1,0.7,0.1c0.4,0,0.8-0.1,1.3-0.1c0,0.3-0.4,0-0.4,0.1
									c0.4,0,0.7-0.1,1-0.1c0.1,0-0.1,0.1-0.1,0.1c0.4,0,0.7,0.1,1.1,0.1c0,0,0,0-0.1,0h0.1h-0.1c-0.1-0.1,0.3-0.3,0.4-0.3
									c-0.1,0.3,0.3,0.1,0.1,0.4c0,0,0.1,0,0.1-0.1c0,0,0.1,0.1,0,0.1c0.3,0,0.1-0.1,0.4-0.1c0,0,0,0-0.1,0.1
									c0.1-0.1,0.3-0.1,0.4,0l0,0c0.3,0,0.6-0.1,1,0c-0.1,0.1,0.1,0.1,0.1,0.3h0.1v-0.1c0.1,0,0.3,0,0.4,0h-0.1H74l0.1,0.6
									c0.1,0,0-0.3,0.3-0.1c0,0,0.1,0,0.3,0.1l0,0c0.1,0,0.1-0.1,0.3,0c0,0-0.1,0.1-0.1,0.3c0.1-0.1,0.4,0,0.6,0l-0.1,0.1l0.1-0.1
									v0.1c0.1,0.1,0-0.3,0.3,0l0,0c0.3,0.1,0.6,0.1,0.7,0.4c0,0.1-0.1-0.1-0.3,0.1c0.3,0.1,0.7,0.3,0.8,0.6l0,0
									c0.3-0.1,0,0.3,0.3,0.4h-0.1c0.1,0.3,0.3,0.4,0.6,0.7h-0.1c0,0.1,0.1,0.4,0.1,0.6c0.1,0,0.1,0.1,0.1,0
									c-0.1,0.6,0.6,0.8,0.4,1.3c0,0-0.1-0.1-0.1,0l0.1,0.3c0.1,0,0,0,0.1-0.1c0.1,0,0.1,0.1,0.1,0.1c-0.1-0.1-0.1,0-0.3,0.1h0.1
									c-0.1,0.3,0.3,0,0.1,0.3l0,0c0,0.1,0.1,0.1,0.1,0.3c-0.1,0-0.1-0.1-0.1-0.1c0,0.1,0.3,0.3,0.1,0.4c0,0,0-0.1-0.1-0.1
									c-0.3-0.1-0.1-0.1-0.1,0l0,0v0.3l0,0c0.3,0.1,0.1,0.4,0.3,0.6c-0.1-0.3-0.1,0-0.3-0.1l-0.1,0.1c0.1,0.1-0.1,0.1,0,0.3
									c0,0,0,0.1-0.1,0c0,0.1,0.1,0,0.1,0c0.1,0.3-0.3,0.4-0.3,0.7s0,0.4-0.1,0.7c-0.1,0-0.1-0.1-0.1-0.1c-0.1,0-0.1,0.1-0.3,0.3
									c0,0,0,0-0.1-0.1c0,0.1,0,0.1-0.1,0.1c0,0,0-0.1,0-0.3c0,0.1-0.1,0.3-0.1,0.3s0-0.1,0-0.3c-0.1,0.1-0.3,0.3-0.3,0.4h0.1V23
									c0-0.1,0.1,0,0.1,0l0,0c0.3,0.1,0.3-0.3,0.4-0.3v0.1v-0.3l0.1,0.1c0.1,0,0-0.1,0.1-0.1l0,0v-0.1c0,0,0.1,0.1,0,0.1
									c0.3-0.1,0.1-0.4,0.3-0.4l0,0c0.1-0.3-0.1-0.1-0.1-0.4h0.4L78,21.7c0,0,0-0.1,0.1,0c0-0.1,0,0-0.1-0.1
									c0.1-0.1,0.1-0.4,0.3-0.4c-0.1-0.1-0.1,0.1-0.1,0c0.3,0,0-0.3,0.1-0.4c0.1,0,0,0.3,0.1,0c-0.3-0.1,0.1-0.3,0-0.4
									c-0.1,0-0.1-0.3-0.1-0.6c0,0,0-0.4,0-0.7l0,0c-0.1,0-0.1-0.3-0.3-0.4c0.1,0,0.1,0,0.3,0v-0.1c0,0-0.1,0-0.1-0.1h0.1
									c0-0.1-0.3-0.3-0.3-0.6c-0.1,0-0.3,0.3-0.4,0.1c0,0,0.1-0.1,0.3,0c0,0-0.1,0,0-0.1H78c0-0.1-0.1,0-0.1-0.1
									c0.1,0,0-0.1,0.1-0.1v0.1c0-0.1,0-0.3,0-0.3h-0.1c-0.1-0.1,0.1-0.1,0.1-0.3c-0.1,0,0-0.1-0.1-0.1v-0.1
									c-0.1-0.1-0.1-0.4-0.3-0.3l0,0l0,0l0,0l0,0c-0.3-0.3-0.3-0.7-0.4-1l0,0c-0.1-0.1-0.3-0.4-0.4-0.4V15
									c-0.1-0.1-0.1-0.1-0.3-0.3c0.1,0,0-0.1,0.1,0.1c-0.1-0.1-0.1-0.3-0.4-0.3c0.1,0,0-0.3-0.1-0.3l0.1,0.1
									c-0.1,0-0.1-0.1-0.3-0.1l0.1-0.1c-0.3-0.4-0.8,0-1-0.4c-0.1,0.1,0.1,0.1,0,0.3c-0.1-0.1-0.3-0.4-0.4-0.4
									c-0.3-0.1-0.3,0.1-0.6,0c0,0,0,0.3-0.1,0.3c-0.1,0-0.1-0.3,0-0.3l0,0c0,0,0.1,0,0.1-0.1l0,0c-0.1-0.1-0.3-0.1-0.3-0.3
									c-0.1,0-0.1,0.1,0,0.1c-0.1-0.1-0.4-0.1-0.6-0.1v0.1c-0.3-0.1-0.1,0.1-0.4,0c-0.1-0.1,0.1-0.1-0.1-0.1c-0.1-0.1,0-0.1,0-0.1
									c-0.3,0-0.4-0.1-0.6-0.1h0.1c-0.1,0-0.1,0-0.1,0V13c0,0-0.1,0-0.1-0.1c-0.1,0,0,0.1-0.1,0.3c-0.1-0.1-0.3,0-0.3-0.1
									c0.3,0.1,0-0.1,0.3-0.1h-0.1l0,0c-0.3-0.1-0.1,0.1-0.4,0.1c0-0.1,0-0.1-0.1-0.1c0.1,0,0,0.1-0.1,0.1c-0.1-0.1-0.1,0-0.3,0
									h0.1c0,0.1-0.1,0-0.3,0h0.1c-0.1,0.1-0.3-0.3-0.6-0.1c-0.1-0.1,0-0.1,0-0.3c-0.3,0.1-0.3-0.1-0.4-0.1c0,0.1,0,0.1-0.1,0.1
									h0.4l-0.3,0.1c0.1,0,0.3,0,0.3,0c-0.1,0.1-0.1,0-0.1,0.1c-0.1-0.1-0.3,0-0.4-0.1v-0.3c-0.3-0.1-0.6,0.1-0.8,0h0.1
									c0,0.1-0.3,0-0.3,0c0-0.1,0-0.1-0.1-0.1c0,0.1-0.3,0-0.3,0.1L68,12.3c-0.3-0.1-0.4,0.3-0.6,0.1c0.1-0.1,0-0.1,0.1-0.3
									c-0.1,0-0.1,0-0.1,0s-0.3,0.1-0.3,0c0,0,0,0.1-0.1,0.1l0,0c0,0-0.1,0-0.1,0.1c-0.3-0.3-0.8,0-1-0.3c-0.1,0-0.4,0-0.6,0l0,0
									c-0.3-0.1-0.1,0.3-0.4,0.1c-0.1-0.1,0.1-0.1,0-0.1c0-0.3-0.3,0-0.6-0.1l0,0c-0.1-0.1-0.4,0.1-0.6,0.1l0,0
									c-0.1,0.1-0.4,0.3-0.7,0.3c0-0.1,0.1-0.1,0-0.1c-0.1,0,0,0.1-0.1,0.3c-0.1,0-0.3-0.1-0.3-0.3h0.1c-0.1-0.1-0.3,0-0.4,0v-0.1
									c-0.3,0.1-0.3,0.3-0.6,0.4l0,0c-0.1,0.3-0.1,0-0.3,0.1l-0.1-0.1c-0.1,0.1-0.3,0.4-0.4,0.6c0-0.1,0.1-0.4,0.3-0.6
									c-0.1,0-0.4,0.3-0.4,0.3s0-0.1,0.1-0.1c0,0.1-0.1,0.4-0.3,0.6c-0.3-0.3-0.6,0.3-0.8,0.3c-0.1,0.4-0.6,0.7-0.7,1.1
									c0.3,0,0,0.1,0.3,0.3c0,0.1,0,0.1,0,0.1l-0.3,0.3c-0.1,0,0-0.1-0.1-0.1c-0.1,0.3-0.1,0-0.3,0.1c0.1,0,0.1,0.1,0,0.3l0.1-0.1
									c0,0.4-0.3,0.3-0.3,0.7v-0.1c0,0.1-0.1,0.7,0.1,0.8h-0.1c-0.1,0.4,0.1,1,0,1.3h-0.1c0,0.1,0.1,0.1,0,0.3h-0.1
									c0,0,0.1,0.1,0.1,0.3l-0.1-0.1c-0.1,0.4,0.3,0.6,0.3,1c-0.3,0-0.3,0.4-0.3,0.6l0,0c0,0.6,0.4,0.8,0.6,1.3
									c-0.1,0.4,0.4,1,0.7,1.4c0-0.1,0.1-0.1,0.1-0.1c0.1,0.1,0.4,0,0.3,0.3l0,0c0,0.3,0.3,0.3,0.4,0.4l0.1-0.3
									c0.3,0.6,1.3,0.1,1.4,0.6c0.1,0,0.3,0,0.4-0.1v0.1c0.3,0,0.4,0,0.8,0l-0.1,0.1c0.1,0,0.3-0.4,0.4-0.4v0.1
									c0.3,0,0.7,0.1,1-0.1v0.1c0.1,0,0.7,0.1,0.6-0.1c0,0.1,0.4,0,0.6-0.1v0.1c0.1-0.1,0.1-0.3,0.4-0.3v0.1
									c0.1,0,0.1-0.1,0.3-0.1l-0.1,0.1c0.1,0,0.1,0,0.3-0.1c0.1,0,0.3,0,0.4,0.1c0-0.1,0.1-0.1,0.3-0.1v0.1c0.3,0.1,0.4-0.1,0.7,0
									c0,0,0,0,0,0.1c-0.3,0-0.4,0-0.4,0c0,0.1,0.1,0.1,0,0.3c0.1-0.1,0.4-0.3,0.6-0.3l0,0l0,0h0.1h0.1c0,0.1,0.3,0,0.3,0
									c0-0.1,0.1-0.1,0-0.3c0,0,0,0-0.1,0l0,0l0,0c0,0-0.1,0-0.3,0c0.1-0.1,0.1-0.1,0.3,0c0-0.1,0.1-0.1,0.1-0.3
									c0.1,0.1,0.4,0.3,0.4,0.4c0.3-0.1,0.7-0.1,0.8-0.4c0.1,0,0.1,0,0.1,0.1h-0.1c0.1-0.1,0.4,0,0.6-0.3c0.3,0-0.1,0.1,0.1,0.1
									l0,0c0.6,0.3,0.8-0.6,1.5-0.1c0,0,0,0-0.1,0c0.7,0.1,1.4-0.3,2.2,0c0.1,0,0.3-0.1,0.3-0.1v0.1l0.1-0.1
									c0.3-0.1,0.6,0.3,0.8,0.1v-0.1c0.1,0,0.4-0.1,0.4,0c0,0,0-0.1,0.1,0v0.1l0.3-0.1c0.3,0,0,0.3,0.4,0.3c0.1,0,0.4-0.3,0.3-0.3
									c0,0-0.1,0-0.1-0.1h0.1c0-0.3,0.1-0.4-0.3-0.6l-0.1,0.1l-0.1-0.1h0.1c-0.1-0.1-0.1,0-0.3,0c0,0,0-0.1-0.1-0.1l-0.1,0.3
									c0-0.1,0.1-0.1,0-0.3c-0.1,0.1,0.1,0.1,0,0.3c-0.1-0.1-0.1-0.1-0.1-0.1v-0.1c-0.1,0.1-0.3,0-0.3,0.1c-0.1-0.1-0.4,0-0.4-0.1
									c0,0-0.1,0.1-0.3,0.1c0.1-0.3-0.4,0-0.3-0.3c-0.1,0.3-0.4,0.1-0.7,0.3l0,0c-0.1,0-0.1-0.1-0.3-0.1c0,0.1-0.3,0.3-0.3,0.4
									c-0.1-0.1,0.1-0.3,0-0.4c0,0.1-0.3,0.1-0.3,0.3c-0.1-0.1-0.1,0-0.1-0.1c0,0.3-0.1,0-0.1,0.1c-0.1-0.1,0-0.3-0.3-0.1
									C73,22.6,73.3,22.5,73.3,22.5z M68.6,23.2L68.6,23.2L68.6,23.2L68.6,23.2z M68.2,23.2h0.1C68.3,23.3,68.3,23.3,68.2,23.2
									C68.3,23.3,68.2,23.3,68.2,23.2z M69.1,24.2C69,24.2,69,24.2,69.1,24.2C69,24.2,69,24.2,69.1,24.2L69.1,24.2L69.1,24.2z"/>
								<path fill="#202020" d="M69.1,24L69.1,24L69.1,24L69.1,24L69.1,24z"/>
								<path fill="#202020" d="M77.9,17.3L77.9,17.3L77.9,17.3L77.9,17.3z"/>
								<path fill="#202020" d="M62.7,23.2v0.1V23.2z"/>
								<path fill="#202020" d="M78.2,19.6L78.2,19.6L78.2,19.6z"/>
								<path fill="#202020" d="M78.3,20.4L78.3,20.4C78.2,20.5,78.3,20.4,78.3,20.4z"/>
								<path fill="#202020" d="M78.2,21.1L78.2,21.1L78.2,21.1L78.2,21.1z"/>
								<path fill="#202020" d="M71.1,14.6L71.1,14.6L71.1,14.6z"/>
								<path fill="#202020" d="M74.6,15C74.6,15,74.4,15,74.6,15C74.4,15,74.6,15,74.6,15z"/>
								<path fill="#202020" d="M67.3,14.1L67.3,14.1L67.3,14.1z"/>
								<path fill="#202020" d="M74.3,15h0.1H74.3z"/>
								<path fill="#202020" d="M76.8,23.3L76.8,23.3L76.8,23.3L76.8,23.3z"/>
								<path fill="#202020" d="M76.8,23.3L76.8,23.3L76.8,23.3z"/>
								<path fill="#202020" d="M76.6,23.3L76.6,23.3L76.6,23.3z"/>
								<path fill="#202020" d="M77.5,22.9L77.5,22.9C77.5,22.8,77.5,22.9,77.5,22.9z"/>
								<path fill="#202020" d="M77.6,22.6c0,0-0.1,0-0.1,0.1l0,0C77.3,22.8,77.6,22.8,77.6,22.6z"/>
								<path fill="#202020" d="M78.7,21.8l-0.1,0.3h0.1C79,21.9,78.6,22.2,78.7,21.8z"/>
								<path fill="#202020" d="M78.9,21.1C78.9,21.2,79,21.1,78.9,21.1C79,21,78.9,21,78.9,21.1z"/>
								<path fill="#202020" d="M77.1,15.7L77.1,15.7C77.1,15.5,77.1,15.7,77.1,15.7z"/>
								<polygon fill="#202020" points="75.8,15.5 75.8,15.7 75.9,15.5 								"/>
								<polygon fill="#202020" points="75.7,14.4 75.7,14.4 75.5,14.4 								"/>
								<path fill="#202020" d="M66.3,12.9V13C66.5,13,66.5,12.9,66.3,12.9z"/>
								<path fill="#202020" d="M62.3,13.3c-0.1,0-0.1,0-0.3,0C62.2,13.3,62.3,13.4,62.3,13.3z"/>
								<polygon fill="#202020" points="61.5,24.2 61.3,24.3 61.5,24.3 								"/>
							</g>
						</g>
					</g>
				</g>
			</g>
			<g>
				<g>
					<g>
						<g>
							<g>
								<path fill="#202020" d="M61.8,20.7C61.8,20.7,61.9,20.7,61.8,20.7L61.8,20.7L61.8,20.7z"/>
								<path fill="#202020" d="M61.9,20.4c-0.1,0-0.3,0-0.4,0.1C61.8,20.5,61.8,20.5,61.9,20.4l-0.1,0.1
									C61.8,20.5,61.8,20.5,61.9,20.4C61.9,20.5,61.9,20.4,61.9,20.4L61.9,20.4z"/>
								<path fill="#202020" d="M62,18.6L62,18.6L62,18.6z"/>
								<path fill="#202020" d="M62.5,17.8L62.5,17.8L62.5,17.8z"/>
								<path fill="#202020" d="M62.7,17.8L62.7,17.8L62.7,17.8z"/>
								<path fill="#202020" d="M62,18.6L62,18.6L62,18.6z"/>
								<path fill="#202020" d="M61.5,20.3L61.5,20.3L61.5,20.3L61.5,20.3z"/>
								<path fill="#202020" d="M62,19.2L62,19.2C62.2,19.2,62.2,19.2,62,19.2L62,19.2z"/>
								<path fill="#202020" d="M62.2,19.4H62C62,19.4,62,19.4,62.2,19.4C62,19.4,62,19.4,62.2,19.4z"/>
								<path fill="#202020" d="M62,20.1L62,20.1L62,20.1z"/>
								<path fill="#202020" d="M62.2,18.9L62.2,18.9L62.2,18.9z"/>
								<path fill="#202020" d="M61.9,21.2L61.9,21.2L61.9,21.2z"/>
								<polygon fill="#202020" points="62.3,20.3 62.3,20.3 62.5,20.3 								"/>
								<path fill="#202020" d="M63,17.8L63,17.8L63,17.8z"/>
								<path fill="#202020" d="M65,18.2c0.1-0.1,0.1,0,0.3-0.1C65.2,18.2,65.1,18.2,65,18.2z"/>
								<path fill="#202020" d="M61.5,20.3L61.5,20.3L61.5,20.3z"/>
								<path fill="#202020" d="M65.2,18L65.2,18L65.2,18z"/>
								<path fill="#202020" d="M63.6,17.5L63.6,17.5L63.6,17.5z"/>
								<path fill="#202020" d="M63,17.5L63,17.5L63,17.5z"/>
								<path fill="#202020" d="M63.8,17.2C63.8,17.3,63.8,17.3,63.8,17.2L63.8,17.2C63.8,17.3,63.8,17.3,63.8,17.2z"/>
								<polygon fill="#202020" points="64.1,17.3 64,17.2 64,17.2 								"/>
								<path fill="#202020" d="M63.1,21.7C63.1,21.5,63.1,21.5,63.1,21.7C63.1,21.5,63.1,21.7,63.1,21.7z"/>
								<path fill="#202020" d="M61.6,20.3C61.5,20.3,61.5,20.3,61.6,20.3L61.6,20.3C61.5,20.3,61.6,20.3,61.6,20.3z"/>
								<path fill="#202020" d="M63.8,16.2L63.8,16.2L63.8,16.2z"/>
								<path fill="#202020" d="M65.8,20.4L65.8,20.4C65.8,20.5,65.8,20.4,65.8,20.4z"/>
								<path fill="#202020" d="M64.1,16.2L64.1,16.2L64.1,16.2L64.1,16.2z"/>
								<path fill="#202020" d="M63.1,21.5L63.1,21.5L63.1,21.5z"/>
								<path fill="#202020" d="M62.6,21.7c0,0,0.1-0.1,0.1-0.3C62.9,21.4,62.7,21.5,62.6,21.7c0.1,0,0.3-0.3,0.3-0.1c0,0,0,0,0,0.1
									c0.1-0.1,0.1,0,0.3-0.1l0,0c0-0.1,0-0.1,0-0.3c0,0,0-0.1,0,0c0,0,0,0,0,0.1l0,0c0,0.1,0,0,0,0.1l0.1-0.1c0,0.1-0.1,0,0,0.1
									l0,0c0,0.3,0,0,0,0.3c0.1,0,0.1-0.1,0.1,0c0-0.1,0-0.1,0-0.3c0.1-0.1,0.1,0.4,0.1,0.1c0-0.1,0-0.3,0.1-0.3v0.1
									c0.1,0,0-0.3,0.1-0.1c0,0.1,0,0,0,0.1c0.1,0.1,0-0.1,0.1-0.1v0.1c0.1,0,0.1-0.1,0.3-0.3v0.1c0.1-0.1,0.3,0,0.4,0v-0.1
									c0,0,0,0,0,0.1v-0.1c0,0,0,0,0,0.1c0-0.1,0.1-0.3,0.3-0.3l0,0c0.1,0-0.1-0.3,0-0.1l0,0c0.1,0,0.3-0.3,0.4-0.1
									c-0.1-0.1,0.1,0,0-0.3c0.1,0,0.1,0.1,0.3,0l-0.1-0.1l0.1,0.1l-0.1-0.1l0.1,0.1l0,0h-0.1c0-0.1,0.1,0,0.3,0v-0.1
									c0,0,0,0,0.1,0.1c-0.1-0.1,0.1,0,0,0h-0.1c0.1,0,0.1,0,0.1-0.1h0.1c0.1-0.1,0-0.3,0.1-0.4c0,0-0.3,0-0.3-0.1h0.1
									c-0.1,0,0,0-0.1,0c0,0,0.1,0,0.3,0l0,0c0,0,0,0,0.1,0c-0.1,0,0.1,0,0-0.1l0,0c0-0.1,0-0.1,0-0.3c-0.1,0-0.1,0-0.3-0.1
									c0,0,0.1-0.1,0.1-0.3h-0.1c0.1,0,0.1-0.1,0.1,0c0-0.1,0-0.1-0.1-0.3h-0.1c0,0,0,0,0.1,0l0,0c-0.1-0.1,0.3-0.4,0-0.4l0,0
									l-0.1-0.1h0.1c-0.3,0,0-0.3-0.3-0.3c0.3-0.3-0.1-0.3,0-0.4l0,0c-0.1,0,0,0,0-0.1c0,0,0,0.1-0.1,0.1
									c-0.3-0.1-0.3-0.6-0.4-0.7c-0.1-0.1-0.3,0.3-0.3,0.1l0.1-0.1c-0.3,0-0.4-0.3-0.6-0.1v-0.1c0-0.1-0.1,0-0.1,0v-0.1
									c0-0.1-0.1,0.1-0.1,0l0,0c0,0-0.1,0-0.1,0.1c0-0.1-0.1,0-0.1,0c0,0.1-0.1-0.1-0.1,0.1c0-0.3-0.1-0.1-0.1-0.1v-0.1
									c0,0-0.1,0-0.1,0.1c-0.1-0.3-0.1,0.3-0.3-0.1c-0.1,0.1-0.3,0.3-0.4,0.3c0-0.3,0.1,0,0.1-0.3c-0.1,0.1-0.1,0.3-0.3,0.3v-0.1
									c-0.1,0.1-0.3,0-0.3,0.3l0,0c0,0,0,0,0,0.1l0,0c0.1,0.1,0,0.3,0.1,0.4c-0.1-0.3-0.1,0-0.3-0.4v0.1c0,0,0,0-0.1-0.1
									c0,0.1,0,0.1,0,0.1s0,0,0-0.1c0,0.1,0,0.1,0,0.1l0,0c-0.1,0.1,0,0.3-0.1,0.3c-0.1-0.1-0.1,0-0.1-0.1v0.1H62v0.1v-0.1v0.1
									h0.1c0,0.1,0.1,0.1,0.1,0.1s0,0-0.1,0l0,0v0.1L62,17.6c0.1,0.1,0,0.1,0.1,0.3L62,17.8l0.1,0.1c0,0,0,0-0.1,0l0.1,0.1l0,0
									c-0.1,0,0,0.1-0.1,0.3c-0.1,0,0-0.1-0.1-0.1c0,0.1,0.1,0.3,0,0.4l0,0c0.3,0.1-0.1,0,0,0.1h-0.1c0,0,0,0.1,0.1,0.3l0,0
									c0,0,0,0.1-0.1,0.1c0,0,0,0,0.1,0c-0.4,0.1,0.1,0.3-0.1,0.4l0,0v0.1c0.1,0,0,0,0.1,0H62c-0.1,0-0.1,0-0.3,0h0.1
									c-0.1,0,0.3,0,0.1,0.1l0,0c0,0,0.1,0,0.1,0.1c-0.1,0,0,0-0.1,0c0,0,0.3,0,0.1,0.1c0,0,0,0-0.1,0s-0.1,0-0.1,0.1l0,0v0.1l0,0
									c0.3,0,0.1,0.1,0.3,0.1c-0.3,0-0.1,0-0.3,0h-0.1c0.1,0-0.1,0,0.1,0.1c0,0,0,0-0.1,0h0.1c0.1,0-0.1,0.1,0.1,0.3
									c0.1,0,0.3,0,0.4,0.1h-0.1v0.1h-0.1h0.1h-0.1h0.1c-0.1,0-0.1,0-0.1,0s0.1,0.1,0.3,0l0,0h-0.1c-0.1,0,0,0,0.1-0.1l0,0
									c0.3-0.1-0.1-0.1,0-0.1h0.1h-0.1h0.1c0.1,0-0.1,0,0,0l0,0l0,0h0.1c0.1-0.1-0.1,0,0-0.1l0,0c-0.1,0-0.1,0-0.3,0l0.4-0.1h-0.1
									c0,0,0,0,0.1,0c-0.1,0,0,0-0.1,0c0.1,0-0.1-0.1,0.1-0.1c-0.1,0-0.1,0-0.1,0c0.3,0,0,0,0-0.1c0.1,0,0,0,0.1,0
									c-0.3,0,0-0.1,0-0.1c-0.1,0-0.1,0-0.1-0.1l0.1-0.1l0,0c-0.1,0-0.1,0-0.1-0.1c0.1,0,0.1,0,0.1,0l0,0h-0.1h0.1
									c0,0-0.1-0.1,0-0.1c-0.1,0-0.4,0-0.4,0s0.1,0,0.3,0l0,0h0.1h-0.1c0.1,0,0.1,0,0.1,0l0,0H63h-0.1H63c0,0,0,0-0.1,0
									c0,0,0,0,0.1,0c0,0,0-0.1-0.1-0.1l0,0l0,0l0,0l0,0c-0.1-0.1,0.1-0.1,0-0.3l0,0c0,0,0-0.1-0.1-0.1h0.1c0,0-0.1,0,0-0.1
									c0,0,0.1,0,0,0c0,0,0.1,0,0-0.1c0.1,0,0.1,0,0.1,0h-0.1l0,0L63,19c0.1,0-0.3-0.3,0.1-0.1c-0.1-0.1-0.1,0-0.1-0.1
									c0,0,0.3,0.1,0.3,0c0.1,0-0.1-0.1-0.1-0.1L63,18.5l0.3,0.1l0,0c0,0,0,0,0.1,0.1l0,0h0.1c0,0,0-0.1-0.1-0.1c0.1,0,0,0,0.1,0
									h-0.1c0.1,0,0-0.1,0-0.1c0.1,0,0.1,0.1,0.1,0.1l0.1,0.1c0-0.1,0.1,0,0.1,0l0,0l0,0l-0.1-0.1l0,0c0-0.1-0.1-0.1-0.1-0.3
									c0,0,0-0.1,0.1,0c-0.1,0,0.1,0.1,0,0.1l0,0l0,0c0.1,0.1-0.1-0.1,0-0.1c0,0.1,0.1,0.1,0.1,0.1l-0.1-0.1l0,0l0,0
									c0-0.1,0-0.1,0-0.1s0,0,0,0.1c0-0.1,0.1,0.1,0.1,0c0,0,0,0.1,0.1,0.1c0-0.1,0.1,0.1,0.1,0c0-0.1,0-0.1,0-0.1v0.1v-0.1v0.1
									c0-0.1,0-0.1,0-0.1c0.1,0.1,0-0.1,0.1,0l0.1,0.3c0.1,0.1,0-0.1,0.1-0.1l0,0c0-0.1,0,0,0-0.1c0,0.1,0,0.1,0,0.1
									c0-0.1,0,0,0-0.1v0.1c0,0,0-0.3,0.1-0.3c0,0.1,0,0.1,0,0.3l0,0c0,0,0-0.1,0,0v-0.1l0,0c0,0,0,0,0-0.1c0,0.3,0.1,0,0.1,0.3
									H65l0,0c0,0.1,0.1-0.3,0.1-0.1c0,0.1,0,0.1,0,0.1c-0.1,0.3,0.1,0,0,0.1l0,0c0,0.1,0.1-0.1,0.1,0l0,0
									c0.1-0.1,0.1-0.1,0.3-0.1c-0.1,0.1,0,0-0.1,0.1l0.1-0.1c0,0,0,0.1-0.1,0.3l0,0c-0.1,0.1,0,0,0,0l0,0c0,0,0.1-0.1,0.3-0.1
									l0,0c0.1-0.1,0,0.1,0.1,0l-0.1,0.1c0,0,0.1-0.1,0.3-0.1c-0.1,0.1-0.1,0.1-0.3,0.1c0,0,0,0,0.1,0l0,0
									c0.1-0.1,0.3-0.1,0.3-0.1c-0.3,0.3,0,0.1-0.1,0.4c0.1,0,0,0.1,0.1,0.3c0.3-0.1,0,0,0.3-0.1l0,0l-0.1,0.1c-0.1,0,0,0-0.1,0
									c0,0-0.1,0-0.1,0.1c0.1,0,0.1,0,0.1,0l0.1-0.1c0.1,0-0.3,0.1,0,0.1h-0.1c0,0,0,0.1,0.3,0.1h-0.1c0,0.1,0.3,0.1,0.1,0.3h-0.1
									c0,0,0.1,0,0,0h-0.1h0.1h-0.1C65.9,20,66.2,20,66.3,20c-0.3,0-0.3,0-0.3,0l0,0c0,0.1,0.1,0.1,0.3,0.3
									c-0.3,0-0.1,0.1-0.3,0.1c0,0,0.1,0,0.1,0.1c0,0,0.1,0.1,0,0l0,0c-0.1,0-0.1,0-0.1,0l0.3,0.1c-0.4-0.1,0,0.3-0.3,0.1V21
									l-0.1-0.1c0,0-0.1,0-0.1,0.1v-0.1c0,0,0.3,0.3,0.3,0.4l-0.1-0.1c0,0-0.1,0-0.1,0.1v-0.1c0,0-0.1,0,0,0.1c-0.1-0.1,0,0,0,0.1
									v-0.1c0,0.1,0,0.3,0,0.3s0-0.1,0,0v0.1v-0.1c0,0,0,0,0,0.1c0,0-0.1,0-0.1-0.1c0,0.1,0,0.1,0,0.1v-0.1c-0.1,0,0,0.1-0.1,0
									c0,0,0,0,0-0.1h0.1c0-0.1-0.1-0.1-0.1-0.3c0,0.1,0,0.3,0,0.3l0,0l0,0l0,0l0,0c0-0.1,0,0,0,0c0,0.1,0,0.1,0,0.3l0,0l0,0l0,0
									l0,0c0,0.1,0,0.1,0,0c0,0.1,0,0.1,0,0.3c0-0.1-0.1-0.3-0.1-0.4c0,0.1-0.1,0-0.1,0.3v-0.1l0,0c0,0-0.1,0-0.1,0.1
									c0-0.1,0-0.1,0-0.1l0,0c-0.1-0.3-0.3,0.4-0.3,0l0,0c-0.1-0.1-0.4,0-0.4-0.3c0,0,0,0-0.1,0.1v-0.1l-0.1,0.1
									c-0.1,0,0-0.1,0-0.3l0.1,0.4l0,0h-0.1c0,0,0-0.1,0.1-0.1c0,0-0.1,0,0,0h0.1l-0.1-0.1h0.3c0,0-0.1-0.1-0.3-0.1c0,0,0,0-0.1,0
									l0,0c-0.3,0-0.4-0.1-0.6,0l0.1,0.1h-0.1l0,0c-0.1,0,0,0,0,0h-0.1l0.1,0.1c-0.1,0-0.1,0-0.3,0c0.1,0,0.1,0,0.3,0
									c-0.1,0-0.1,0-0.1,0h-0.1c0,0,0,0.1,0.1,0.1c-0.1,0,0,0,0,0l-1.8-0.8l0.3,0.3c0,0,0,0,0,0.1l0.1-0.1c-0.1,0.1,0.1,0.1,0,0.3
									c0.1-0.1,0.1,0,0.3-0.1l0,0v0.1c0.1-0.1,0.1-0.1,0.3-0.3c0,0.1-0.1,0.1-0.1,0.4c0-0.1,0.1-0.1,0.1-0.3c0,0.1,0,0,0,0.3
									c0.1-0.3,0,0,0.1-0.1c0,0.1,0,0.3,0,0.1C62.7,21.7,62.6,21.7,62.6,21.7z M64.1,21.4L64.1,21.4L64.1,21.4L64.1,21.4z
									 M64.3,21.4L64.3,21.4C64.1,21.2,64.1,21.2,64.3,21.4C64.1,21.2,64.3,21.2,64.3,21.4z M63.8,20.4L63.8,20.4L63.8,20.4
									L63.8,20.4C63.8,20.5,63.8,20.4,63.8,20.4z"/>
								<polygon fill="#202020" points="63.8,20.5 63.8,20.7 63.8,20.7 								"/>
								<path fill="#202020" d="M62,18.6L62,18.6C62,18.6,61.9,18.6,62,18.6L62,18.6z"/>
								<path fill="#202020" d="M65.8,20.7v-0.1V20.7z"/>
								<path fill="#202020" d="M61.5,19.2L61.5,19.2L61.5,19.2z"/>
								<path fill="#202020" d="M61.5,19.4L61.5,19.4L61.5,19.4z"/>
								<path fill="#202020" d="M61.5,19.6L61.5,19.6L61.5,19.6L61.5,19.6z"/>
								<path fill="#202020" d="M62.6,16.6L62.6,16.6C62.6,16.5,62.6,16.5,62.6,16.6z"/>
								<path fill="#202020" d="M62,17.5L62,17.5C61.9,17.5,61.9,17.5,62,17.5z"/>
								<path fill="#202020" d="M63.8,16.2L63.8,16.2L63.8,16.2z"/>
								<path fill="#202020" d="M62,17.3L62,17.3L62,17.3z"/>
								<path fill="#202020" d="M61.5,20.4L61.5,20.4C61.5,20.4,61.6,20.4,61.5,20.4L61.5,20.4z"/>
								<path fill="#202020" d="M61.6,20.4L61.6,20.4L61.6,20.4z"/>
								<path fill="#202020" d="M61.6,20.5L61.6,20.5L61.6,20.5z"/>
								<path fill="#202020" d="M61.5,20.1L61.5,20.1C61.5,20.3,61.5,20.3,61.5,20.1z"/>
								<path fill="#202020" d="M61.5,20.1C61.5,20.1,61.3,20.1,61.5,20.1L61.5,20.1C61.3,20.3,61.6,20.1,61.5,20.1z"/>
								<path fill="#202020" d="M62,19.7L62,19.7C62,19.7,62.2,19.7,62,19.7C62.3,19.6,62,19.7,62,19.7z"/>
								<path fill="#202020" d="M62,19.4C62.2,19.6,62.2,19.4,62,19.4C62.2,19.4,62.2,19.4,62,19.4z"/>
								<path fill="#202020" d="M62.2,18.3L62.2,18.3C62.3,18.3,62.2,18.3,62.2,18.3z"/>
								<polygon fill="#202020" points="61.6,17.8 61.6,17.8 61.8,17.9 								"/>
								<polygon fill="#202020" points="62.6,18 62.6,18 62.5,18 								"/>
								<path fill="#202020" d="M64,17.3v-0.1C64,17.3,64,17.5,64,17.3z"/>
								<path fill="#202020" d="M64.8,17.6C64.7,17.6,64.7,17.6,64.8,17.6C64.8,17.6,64.8,17.5,64.8,17.6z"/>
								<path fill="#202020" d="M65,19.7L65,19.7L65,19.7z"/>
							</g>
						</g>
					</g>
				</g>
			</g>
			<g>
				<g>
					<g>
						<g>
							<g>
								<path fill="#202020" d="M69.1,19.4L69.1,19.4L69.1,19.4L69.1,19.4z"/>
								<path fill="#202020" d="M69.4,19.3c-0.1,0-0.3,0-0.4,0C69.1,19.3,69.1,19.3,69.4,19.3l-0.1,0.1
									C69.1,19.3,69.1,19.4,69.4,19.3L69.4,19.3C69.3,19.3,69.3,19.3,69.4,19.3z"/>
								<path fill="#202020" d="M69.8,17.2L69.8,17.2L69.8,17.2z"/>
								<path fill="#202020" d="M70.4,16.2L70.4,16.2L70.4,16.2z"/>
								<path fill="#202020" d="M70.7,16.2L70.7,16.2L70.7,16.2z"/>
								<path fill="#202020" d="M69.8,17.2L69.8,17.2L69.8,17.2z"/>
								<path fill="#202020" d="M69,19L69,19L69,19L69,19z"/>
								<path fill="#202020" d="M69.8,17.8L69.8,17.8L69.8,17.8L69.8,17.8z"/>
								<path fill="#202020" d="M69.7,18.2h-0.1C69.5,18.2,69.7,18.2,69.7,18.2L69.7,18.2z"/>
								<path fill="#202020" d="M69.4,18.9L69.4,18.9C69.5,18.9,69.5,18.9,69.4,18.9z"/>
								<path fill="#202020" d="M69.8,17.5C69.8,17.5,70,17.5,69.8,17.5L69.8,17.5z"/>
								<path fill="#202020" d="M68.4,18.7L68.4,18.7L68.4,18.7z"/>
								<path fill="#202020" d="M69.3,18L69.3,18L69.3,18z"/>
								<path fill="#202020" d="M70.9,16.2L70.9,16.2L70.9,16.2z"/>
								<path fill="#202020" d="M72.6,17.6c0.1,0,0.1,0,0.3,0C72.9,17.6,72.7,17.6,72.6,17.6z"/>
								<path fill="#202020" d="M69,19L69,19L69,19z"/>
								<path fill="#202020" d="M72.9,17.6L72.9,17.6L72.9,17.6z"/>
								<path fill="#202020" d="M71.4,16.1L71.4,16.1L71.4,16.1z"/>
								<path fill="#202020" d="M70.9,16L70.9,16L70.9,16z"/>
								<path fill="#202020" d="M71.6,16C71.6,16,71.6,16.1,71.6,16L71.6,16C71.6,16.1,71.6,16.1,71.6,16z"/>
								<polygon fill="#202020" points="71.9,16.2 71.9,16.1 71.9,16.1 								"/>
								<path fill="#202020" d="M69.4,19.8L69.4,19.8C69.4,19.8,69.4,19.7,69.4,19.8z"/>
								<path fill="#202020" d="M69,19L69,19L69,19L69,19z"/>
								<path fill="#202020" d="M72.2,15L72.2,15C72.2,15.1,72.2,15.1,72.2,15z"/>
								<path fill="#202020" d="M72.5,20.1L72.5,20.1C72.5,20.3,72.6,20.3,72.5,20.1z"/>
								<path fill="#202020" d="M72.5,15.3C72.5,15.3,72.3,15.3,72.5,15.3L72.5,15.3L72.5,15.3z"/>
								<path fill="#202020" d="M69.5,19.7L69.5,19.7L69.5,19.7z"/>
								<path fill="#202020" d="M69,19.7c0,0,0.1-0.1,0.3-0.1C69.3,19.4,69.1,19.6,69,19.7c0.1,0,0.3-0.1,0.3,0l0,0
									c0.1-0.1,0.1,0.1,0.3,0l0,0c0-0.1,0.1-0.1,0.1-0.1s0.1,0,0,0c0,0,0,0-0.1,0l0,0c-0.1,0.1,0,0-0.1,0.1c0.1,0,0.3-0.1,0.3,0
									c-0.1,0.1-0.1,0-0.1,0.1v-0.1c-0.1,0.3,0,0-0.1,0.1c0,0.1,0.1,0,0.1,0.1c0.1,0,0.1-0.1,0.1-0.1c0.1,0-0.1,0.4,0,0.3
									c0.1-0.1,0.3-0.3,0.1-0.1l-0.1,0.1c0,0,0.1-0.1,0.1,0h-0.1c0,0.1,0.1,0,0.1,0l0.1,0.1c0.1,0,0.3,0,0.4,0l-0.1,0.1
									c0.1,0,0.3,0.1,0.4,0.3l0.1-0.1c0,0,0,0,0,0.1v-0.1v0.1c0.1-0.1,0.3-0.3,0.4-0.1l0,0c0.1,0,0.1-0.3,0.1-0.1l0,0
									c0.1,0,0.3-0.1,0.6,0c0-0.1,0.1,0,0.1-0.3c0.1,0.1,0.1,0.1,0.3,0.1c0,0,0-0.1,0-0.3l0.1,0.1V20l0.1,0.1l0,0c0,0,0,0-0.1-0.1
									c0-0.1,0.1,0,0.3,0v-0.1V20c0-0.1,0.1,0.1,0.1,0c0,0,0-0.1-0.1-0.1c0.1,0,0.1,0,0.1-0.1v0.1c0.1-0.1,0.1-0.3,0.3-0.3
									L73,19.4l0.1,0.1c0-0.1-0.1,0-0.1-0.1l0.1,0.1v-0.1c0,0,0,0,0.1,0.1c0-0.1,0.1,0,0-0.1l0,0c0.1-0.1,0-0.1,0.1-0.3
									c-0.1,0-0.1-0.1-0.1-0.1c0.1,0,0.1-0.1,0.3-0.1c0-0.1-0.1,0-0.1-0.1c0.1,0,0.1,0,0.1,0c0-0.1,0-0.1,0-0.3h-0.1
									c0,0,0,0,0.1,0l0,0c-0.1-0.1,0.4-0.3,0.1-0.4l0,0l-0.1-0.1h0.1c-0.3-0.1,0-0.3-0.1-0.3c0.4-0.1-0.1-0.3,0.1-0.6h-0.1
									c-0.1,0,0,0,0-0.1c0,0,0,0-0.1,0c-0.1-0.3-0.1-0.6-0.1-0.8c0-0.1-0.4,0.1-0.3,0h0.1c-0.3,0-0.3-0.3-0.6-0.4c0,0,0,0,0.1,0
									c0-0.1-0.1-0.1-0.1,0v-0.1c0-0.1-0.1,0-0.1,0l0,0c0,0-0.1-0.1-0.1,0c0-0.1-0.1,0-0.1-0.1c-0.1,0.1-0.1-0.1-0.1,0
									c0.1-0.1,0-0.3-0.1-0.1v-0.1c0,0-0.1,0-0.1,0.1c0-0.3-0.3,0.1-0.3-0.3c-0.3,0-0.4,0.1-0.6,0.1c0-0.3,0.1,0,0.1-0.3
									c-0.1,0-0.3,0.3-0.4,0.1v-0.1c-0.1,0.1-0.3,0-0.4,0.1l0,0c0,0-0.1,0,0,0.1l0,0c0.1,0.1,0,0.3,0,0.4c0-0.3-0.1,0-0.3-0.4v0.1
									c0,0,0,0,0-0.1c-0.1,0.1,0,0.1,0,0.3c0,0,0,0,0-0.1c0,0.1,0,0.1,0,0.3l0,0c-0.1,0.1,0,0.3-0.1,0.3c-0.1-0.1-0.1,0-0.3-0.1
									v0.1h0.1V16v-0.1V16h0.1c0,0.1,0.1,0.1,0.1,0.1s0,0-0.1,0l0,0c0,0,0.1,0.1,0,0.1l-0.1-0.1c0.1,0.1,0,0.1,0.1,0.3l-0.1-0.1
									l0.1,0.1c0,0,0,0-0.1,0c0,0,0.3,0.1,0.1,0.1l0,0c-0.1,0,0,0.1-0.1,0.3c-0.1,0,0-0.1-0.1-0.1c0,0.1,0.1,0.3,0,0.4l0,0
									c0.3,0.1-0.1,0,0,0.1h-0.1c0,0,0,0.1,0,0.3l0,0c0,0,0,0.1-0.1,0.1c0,0,0,0,0.1,0c-0.4,0,0.1,0.3-0.1,0.4l0,0v0.1
									c0.1,0,0,0,0.1,0c0,0,0.1,0,0.1,0.1c0,0-0.1,0-0.3,0h0.1c-0.1,0,0.3,0,0.1,0.1l0,0l0.1,0.1c-0.1,0,0,0-0.1,0
									c0,0,0.3,0.1,0.1,0.1c0,0,0,0,0-0.1c-0.1,0-0.1,0-0.1,0l0,0h-0.1l0,0c0.3,0.1,0,0.1,0.3,0.3c-0.1-0.1-0.1,0-0.3,0h-0.1
									c0.1,0-0.1,0,0.1,0.1c0,0,0,0-0.1,0h0.1c0.1,0.1-0.1,0.1,0,0.3c0.1,0.1,0.3,0.1,0.3,0.1c-0.1,0-0.1,0-0.1,0v0.1h-0.1h0.1
									h-0.1c0,0,0.1,0,0.1,0.1c-0.1,0-0.1,0-0.1,0s0.1,0.1,0.3,0.1l0,0h-0.1c-0.1,0,0,0,0.1,0l0,0c0.3,0,0-0.1,0-0.1h0.1h-0.1h0.1
									c0.1,0-0.1,0,0,0l0,0l0,0H70c0.1,0-0.1-0.1,0-0.1l0,0c0-0.1-0.1,0-0.3-0.1h0.4H70c0,0,0,0,0.1,0c-0.1,0,0,0-0.1,0
									c0.1,0,0-0.1,0.1-0.1c-0.1,0-0.1,0-0.1,0c0.3,0,0,0,0.1-0.1c0.1,0,0,0,0.1,0c-0.3,0,0-0.1,0-0.1c-0.1,0,0-0.1-0.1-0.1
									l0.1-0.1l0,0c-0.1,0-0.1-0.1-0.1-0.1c0.1,0,0.1,0,0.1,0l0,0h-0.1h0.1c0,0-0.1-0.1,0-0.1c-0.1,0-0.4,0-0.4-0.1H70l0,0h0.1H70
									c0.1,0,0.1,0,0.1,0l0,0h0.1h-0.1h0.1c0,0,0,0-0.1-0.1h0.1c0,0,0-0.1-0.1-0.1l0,0l0,0l0,0l0,0c-0.1-0.1,0.1-0.1,0.1-0.3l0,0
									v-0.1h0.1v-0.1c0,0.1,0.1,0,0,0c0,0,0.1,0,0-0.1c0.1,0,0.1,0,0.1,0h-0.1l0,0l0.1,0.1c0.3,0-0.3-0.3,0.1-0.3
									c-0.1-0.1-0.1,0-0.1-0.1h0.3c0.1,0-0.1-0.1-0.1-0.1l-0.1-0.1l0.3,0.1l0,0c0,0,0,0,0.1,0.1l0,0h0.1c0,0,0,0-0.1,0
									c0.1,0,0,0,0.1,0h-0.1c0.1,0,0-0.1,0-0.1c0.1,0,0.1,0.1,0.1,0.1l0.1,0.1c0-0.1,0.1,0,0.1,0l0,0l0,0l-0.6-1.1l0,0
									c0,0-0.1-0.1-0.1-0.3c0,0,0-0.1,0.1,0c0,0,0.1,0.1,0,0.1l0,0l0,0c0.1,0.1,0-0.1,0-0.1c0,0.1,0,0.1,0,0.1v-0.1l0,0l0,0
									c0-0.1,0-0.1,0-0.1s0,0,0,0.1c0-0.1,0.1,0.1,0.1,0V16c0-0.1,0,0.1,0.1,0c0-0.1,0-0.1,0-0.1V16v-0.1c0,0,0,0.1,0,0s0,0,0-0.1
									c0,0.1,0.1-0.1,0.1,0V16c0,0.1,0.1-0.1,0.1,0l0,0c0-0.1,0,0,0.1,0c0,0.1,0,0.1,0,0.1c0-0.1,0,0,0.1-0.1v0.1
									c0,0,0.1-0.3,0.3-0.1c0,0.1,0,0.1-0.1,0.3l0,0c0,0,0.1-0.1,0.1,0l0.1-0.1l0,0c0,0,0,0,0.1-0.1c-0.1,0.3,0.1,0.1,0.1,0.3h0.1
									l0,0c0,0.1,0.1-0.1,0.1,0c-0.1,0.1-0.1,0-0.1,0.1c-0.1,0.3,0.1,0,0,0.1l0,0c0,0.1,0.1,0,0.1,0l0,0c0.1-0.1,0.3,0,0.3,0
									c-0.1,0,0,0-0.1,0.1c0,0,0.1-0.1,0.3-0.1l-0.1,0.1l0,0c-0.1,0.1,0,0,0,0.1l0,0h0.3l0,0c0.1,0-0.1,0.1,0.1,0l-0.1,0.1h0.3
									c-0.1,0-0.3,0-0.3,0s0,0.1,0.1,0c0,0-0.1,0,0,0c0.1,0,0.3,0,0.3,0c-0.3,0.1,0,0.1-0.3,0.3c0.1,0,0,0.1,0,0.3
									c0.3-0.1,0,0,0.3,0l0,0l-0.8,0.1c-0.1,0,0,0-0.1,0h-0.1c0.1,0,0.1,0,0.1,0h0.1c0.1,0-0.3,0-0.1,0.1h-0.1c0,0,0,0.1,0.3,0.1
									h-0.1c0,0,0.3,0.3,0,0.3l0,0c0,0,0.1,0,0,0c0,0,0,0-0.1,0c0,0,0.1,0.1,0,0.1h-0.1c-0.1,0,0.1,0.1,0.1,0.3
									c-0.1-0.1-0.3,0-0.3,0l0,0c0,0,0.1,0.3,0.1,0.4c-0.3-0.1-0.1,0.1-0.4,0.1l0.1,0.1c0,0,0,0.1-0.1,0l0,0c-0.1-0.1-0.1,0-0.1,0
									l0.1,0.1c-0.3-0.3-0.1,0.3-0.4,0v0.1v-0.1h-0.1v-0.1l0.1,0.4l-0.1-0.1c-0.1,0-0.1-0.1-0.1,0v-0.1c0,0-0.1-0.1,0,0.1
									c0-0.1,0,0-0.1,0v-0.1c0,0.1,0,0.3-0.1,0.3v-0.1c0-0.1,0,0.1-0.1,0v-0.1c0,0,0,0-0.1,0.1c0,0,0,0,0-0.1
									c0,0.1-0.1,0.1-0.1,0.1s0,0,0-0.1c0-0.1-0.1,0.1-0.1,0c0,0,0,0,0-0.1h0.1c0-0.1,0-0.1,0.1-0.3c0,0.1-0.1,0.3-0.3,0.1l0,0
									l0,0l0,0l0,0c0-0.1,0-0.1,0-0.1c-0.1,0.1-0.1,0.1-0.1,0.1l0,0l0,0l0,0l0,0c0,0-0.1,0.1-0.1,0L70,19.3
									c0.1-0.1,0.1-0.3,0.1-0.4c-0.1,0-0.1,0-0.4,0.1v-0.1l0,0c-0.1,0-0.1,0-0.3,0c0-0.1,0.1-0.1,0-0.1l0,0
									c0.1-0.3-0.4,0.1-0.4-0.1l0,0c0-0.3-0.4-0.1-0.3-0.4h-0.1h0.1h-0.1l0,0c0,0,0.4-0.1,0.1-0.1h-0.1c0,0,0-0.1,0.1-0.1
									c0,0-0.1,0,0,0h0.1l-0.1-0.1c0,0,0.3,0.1,0.3,0c0,0-0.1-0.1-0.3-0.1c0,0,0,0-0.1,0l0,0c-0.3,0-0.4-0.1-0.6-0.1l0.1,0.1H68
									l0,0c-0.1,0,0,0,0,0.1h-0.1l0.1,0.1c-0.1,0-0.1-0.1-0.3,0c0.1,0,0.1,0,0.3,0c-0.1,0-0.1,0-0.1,0.1h-0.1c0,0,0,0.1,0.1,0.1
									c-0.1,0,0,0.1-0.3,0.1c0,0,0.1,0,0.1,0.1c-0.1,0-0.1,0-0.1,0.1c0,0,0,0-0.1,0.1c0.3,0,0.3,0.1,0.4,0.1l0,0V19
									c0.1-0.1,0.3-0.1,0.4-0.1C68.2,19,68.2,19,68,19.2c0.1-0.1,0.3,0,0.3-0.1c0,0.1,0,0-0.1,0.1c0.1-0.1,0,0,0.1-0.1
									C69.1,19.6,69,19.6,69,19.7C69.1,19.6,69,19.7,69,19.7z M70.4,20.3L70.4,20.3L70.4,20.3L70.4,20.3z M70.5,20.3L70.5,20.3
									L70.5,20.3L70.5,20.3z M70.8,19.4L70.8,19.4L70.8,19.4L70.8,19.4C70.7,19.4,70.8,19.4,70.8,19.4z"/>
								<polygon fill="#202020" points="70.7,19.6 70.7,19.6 70.7,19.6 								"/>
								<path fill="#202020" d="M69.8,17.2L69.8,17.2C69.8,17.2,69.7,17.2,69.8,17.2L69.8,17.2z"/>
								<path fill="#202020" d="M72.5,20.4v-0.1V20.4z"/>
								<path fill="#202020" d="M69.1,17.8L69.1,17.8L69.1,17.8z"/>
								<path fill="#202020" d="M69.1,18L69.1,18C69,18,69.1,18,69.1,18z"/>
								<path fill="#202020" d="M69,18.2L69,18.2L69,18.2L69,18.2z"/>
								<path fill="#202020" d="M70.7,15L70.7,15L70.7,15z"/>
								<path fill="#202020" d="M70,16C69.8,16,69.8,16,70,16C69.8,16,69.8,16,70,16z"/>
								<path fill="#202020" d="M72.2,15L72.2,15L72.2,15z"/>
								<path fill="#202020" d="M69.8,16L69.8,16C69.8,16,70,16,69.8,16z"/>
								<path fill="#202020" d="M69,19.2L69,19.2L69,19.2L69,19.2z"/>
								<path fill="#202020" d="M69,19.2L69,19.2L69,19.2z"/>
								<path fill="#202020" d="M69,19.2L69,19.2L69,19.2z"/>
								<path fill="#202020" d="M69,18.9L69,18.9L69,18.9z"/>
								<path fill="#202020" d="M69,18.7C69,18.9,68.9,18.9,69,18.7L69,18.7C68.9,18.9,69,18.9,69,18.7z"/>
								<path fill="#202020" d="M69.5,18.5L69.5,18.5C69.5,18.5,69.7,18.5,69.5,18.5C69.8,18.5,69.5,18.6,69.5,18.5z"/>
								<path fill="#202020" d="M69.7,18.3L69.7,18.3C69.7,18.3,69.7,18.2,69.7,18.3z"/>
								<path fill="#202020" d="M70,16.9L70,16.9C70.1,16.9,70.1,16.9,70,16.9z"/>
								<path fill="#202020" d="M69.5,16.4L69.5,16.4L69.5,16.4z"/>
								<polygon fill="#202020" points="70.4,16.6 70.4,16.6 70.4,16.5 								"/>
								<path fill="#202020" d="M71.8,16.2L71.8,16.2C71.9,16.1,71.8,16.2,71.8,16.2z"/>
								<path fill="#202020" d="M72.6,16.8C72.5,16.8,72.5,16.9,72.6,16.8L72.6,16.8z"/>
								<path fill="#202020" d="M71.9,19.2L71.9,19.2L71.9,19.2z"/>
							</g>
						</g>
					</g>
				</g>
			</g>
		</g>
	</g>
	<g>
		<g>
			<g>
				<g>
					<g>
						<path fill="#3C3C3C" d="M101.2,63.8c0.1-0.1,0-0.1-0.2,0.1l-0.1,0.2L101.2,63.8z"/>
						<path fill="#3C3C3C" d="M99.6,65.1c-0.3,0.3-0.5,0.6-0.3,0.5c0.2-0.3,0.3-0.3,0.6-0.7c0.2-0.2,0.4-0.3,0.4-0.3
							c0.1-0.1,0.4-0.3,0.4-0.5C100.3,64.4,100,64.8,99.6,65.1C99.5,65.2,99.6,65.1,99.6,65.1z"/>
						<path fill="#3C3C3C" d="M90.9,61.7l0.1-0.2C90.9,61.6,90.9,61.6,90.9,61.7z"/>
						<path fill="#3C3C3C" d="M83.2,64.9c0.1,0.1,0.2,0.1,0.2,0.1C83.2,64.9,83.2,64.8,83.2,64.9z"/>
						<path fill="#3C3C3C" d="M80,64.6c0.1-0.1,0.1-0.1,0.2-0.2C80.1,64.5,80.1,64.5,80,64.6z"/>
						<path fill="#3C3C3C" d="M90.9,61.7l-0.2,0.5C90.7,62.2,90.8,61.9,90.9,61.7z"/>
						<path fill="#3C3C3C" d="M95.9,67c0.1,0,0.2,0,0.3,0C96.1,67,96,67,95.9,67C95.9,67,95.9,67,95.9,67z"/>
						<path fill="#3C3C3C" d="M89.5,67.5l0,0.1c0,0,0,0.1,0,0.1L89.5,67.5z"/>
						<path fill="#3C3C3C" d="M90.9,65.8c0,0.1,0,0.2,0,0.3C91,65.9,91,65.8,90.9,65.8C91,65.7,91,65.7,90.9,65.8z"/>
						<path fill="#3C3C3C" d="M94.5,66.5l0.2,0.1C94.6,66.5,94.6,66.5,94.5,66.5z"/>
						<path fill="#3C3C3C" d="M90.2,63.2C90.2,63.2,90.2,63.1,90.2,63.2C90.2,63.1,90.2,63.1,90.2,63.2z"/>
						<path fill="#3C3C3C" d="M48.3,59.9C48.3,59.9,48.3,59.9,48.3,59.9C48.3,59.8,48.3,59.8,48.3,59.9z"/>
						<path fill="#3C3C3C" d="M51.4,62.6l0-0.1c0,0,0,0,0,0L51.4,62.6z"/>
						<path fill="#3C3C3C" d="M79.6,70.5C79.6,70.5,79.6,70.5,79.6,70.5C79.6,70.3,79.6,70.4,79.6,70.5z"/>
						<path fill="#3C3C3C" d="M69.7,68.9c0,0.6-0.2-1-0.2-0.1C69.5,68.7,69.7,69.7,69.7,68.9z"/>
						<path fill="#3C3C3C" d="M95.7,67c-0.1,0-0.2,0-0.3,0C95.5,67,95.6,67,95.7,67z"/>
						<path fill="#3C3C3C" d="M69.5,68.8L69.5,68.8L69.5,68.8C69.5,68.9,69.5,68.9,69.5,68.8z"/>
						<path fill="#3C3C3C" d="M79.9,65.6c0,0.1,0,0.2,0,0.3C80,65.9,80,65.8,79.9,65.6z"/>
						<path fill="#3C3C3C" d="M80.5,73.9l0.1,0.2C80.5,74,80.5,74,80.5,73.9z"/>
						<path fill="#3C3C3C" d="M76.9,68.3c-0.1,0.1-0.1,0.1-0.3,0.2c0,0,0,0,0,0C76.7,68.4,76.8,68.3,76.9,68.3z"/>
						<path fill="#3C3C3C" d="M72.2,69.9C72.2,69.9,72.3,69.9,72.2,69.9c0.1,0.1,0.2,0.1,0.2,0.1L72.2,69.9z"/>
						<path fill="#3C3C3C" d="M47.9,76.4c0-0.1,0-0.2,0-0.3C47.9,76.2,47.7,75.4,47.9,76.4z"/>
						<path fill="#3C3C3C" d="M95.9,67c0,0-0.1,0-0.2,0C95.7,67,95.8,67,95.9,67C95.9,67,95.9,67,95.9,67z"/>
						<path fill="#3C3C3C" d="M77.1,68.9c0,0-0.2,0.1-0.4,0.3c-0.2,0.1-0.4,0.3-0.4,0.3C76.6,69.3,76.9,69.1,77.1,68.9z"/>
						<path fill="#3C3C3C" d="M60.9,77.1l0,0.2C61,77.2,61,77.1,60.9,77.1z"/>
						<path fill="#3C3C3C" d="M74,70.5c-0.2,0-0.4,0-0.5,0c0,0-0.1,0-0.1,0c0,0,0.2,0,0.3,0C73.8,70.6,74,70.5,74,70.5z"/>
						<path fill="#3C3C3C" d="M48,76.1L48,76.1L48,76.1z"/>
						<path fill="#3C3C3C" d="M47.1,70.4c0,0.8,0.1,0.4,0.2,0.6c0.1,1-0.1,0.5-0.1,0.8c0.1,0.6,0.2,1.1,0.3,1.5c0,0,0,0.1,0,0
							c0.2,0.6,0.3,1.9,0.5,2.6c0,0.1,0,0.1,0,0.1c0-0.1,0.1-0.2,0.1-0.1c0.1,0.4,0.2,0.7,0.2,0.8c0-0.2-0.1-0.2-0.1-0.3l0.1,0.4
							c0,0.4-0.1-0.5-0.2-0.5c0.2,0.7,0.5,1.6,0.6,2.1c-0.1,0.1-0.4-1.3-0.3-0.5L48.2,77c0,0.7-0.1-0.5-0.1,0.1
							c0.3,1.2,0.3,1.3,0.7,2.4c0.1,0.2,0-0.1,0.2,0.1c0.4,0.8,0.5,1.1,0.6,1.4c0.1,0.3,0.2,0.5,0.7,1c0.3,0.2,0.4,0.2,1.2,0.8
							L51,82.7c0.5,0.3,0.7,0.3,0.9,0.4c0.2,0,0.4,0.1,1,0.2c-0.2,0-1-0.1-0.8-0.1c0.8,0.3,0.6,0.1,1.2,0.1l0.1,0.1
							c0.7-0.1,1.4-0.4,1.8-1c0.5-0.5,0.8-1.2,1-1.8c0,0.1-0.1,0.3,0.1,0c0.7-1.6,1.2-3.5,1.4-5.1l0-0.6c0-0.1,0-0.3,0.1-0.1
							c0.1-0.6-0.1,0-0.1-0.3c0-0.4,0-0.5,0.1-0.3c0-0.7-0.1-1.7-0.3-2.7l-0.2-1.3l-0.3,1.3c-0.1,0.6-0.2,1.2-0.3,1.7l0-0.2
							c-0.1,0.9,0.1,1.1,0,1.9l0-0.2c0,2,0.7,4.2,1.3,5.7c0.1,0.1,0.3,0.6,0.6,1c0.2,0.3,0.7,1,0.7,1c0.1,0.1,0.1,0.2,0.2,0.2
							c0.1-0.1,0.1-0.1,0.1-0.2c0.1-0.1,0.2-0.2,0.2-0.3c0.2-0.2,0.3-0.3,0.3-0.4c0.1-0.2,0.4-0.5,0.6-1.3c0.1-0.4,0.1-0.7,0.1-1.2
							l0.1,0L61,78.2l0.1-0.4c0,0,0-0.1,0-0.3c0-0.1,0-0.3,0-0.3c0,0.2,0,0.4,0,0.4c-0.1-0.4-0.1-0.9-0.2-1.3
							c-0.1-0.4-0.2-0.7-0.1-0.7c0,0,0-0.1-0.1-0.3c-0.1-0.2-0.2-0.4-0.3-0.6c-0.3-0.4-0.5-0.8-0.5-0.8c0.1,0,0.2,0.3,0.4,0.5
							c-0.6-0.8,0-0.2-0.7-0.9c0.1,0.1-0.1,0-0.1,0c-0.2-0.4-0.9-1-1.6-1.3l-0.9-0.4l0.4,0.8c0,0.1,0.1,0.2,0.1,0.2l-0.1-0.1
							c0.1,0.4,0.5,0.8,1,0.9c0.4,0.2,0.9,0.1,1.3,0.1c0.4-0.1,0.8-0.2,1.2-0.5c0.4-0.2,0.7-0.6,0.9-0.9c-0.4,0.5-0.4,0.3-0.1-0.1
							l0.2-0.1c0.1-0.3-0.3,0.4,0-0.2c0.3-0.5,0.3-0.3,0.1,0c0,0,0.1-0.2,0.2-0.3c0.1-0.2,0.2-0.3,0.2-0.3c0,0,0,0.1,0,0.2
							c0.1-0.3,0.7-1,0.8-1.3l0,0c0.1-0.1,0.1-0.2,0.1,0c0.2,0.5,0.3,1,0.5,1.6c0.1,0,0.2,0.5,0.4,0.8c0.3,0.9,0.6,1.9,1,2.9
							c0.3,0.7,0.1,0.2,0.3,0.5c-0.1,0.1,0.5,1.1,0.1,0.6c0.3,0.6,0.6,1,1.1,1.3c0.2,0.1,0.5,0.3,0.9,0.2c0.4,0,0.8-0.3,1.1-0.7
							c-0.1,0.2-0.3,0.3-0.3,0.2c0.3-0.2,0.5-0.6,0.5-0.6l0,0.1c0.2-0.5,0.3-1,0.5-1.5c0.1-0.5,0.3-1,0.4-1.5c0.2-1,0.3-2,0.3-2.8
							l0,0.1c0,0,0-0.4,0-0.8c0-0.4,0-0.8,0-0.8c0-0.7,0.1,0.4,0.1-0.1c-0.1-1-0.2-1.8-0.2-2.5l-0.6,0.1c0.1,0.5,0.2,0.9,0.2,1.5
							c-0.1,1-0.1,3.8,0.3,5.3l0-0.1c0.2,0.4,0.1,0.5,0.2,0.7c0-0.1-0.1-0.4,0-0.2c0.3,0.8,0.8,1.5,1.5,2c0.7,0.5,1.7,0.7,2.6,0.5
							c1.8-0.5,3-2.1,3.4-3.8c0.1-0.7,0-0.8-0.1-1.1c-0.1-0.2-0.1-0.5-0.3-1.2l0.2,0.4c-0.8-2.5-2.9-4.3-5-5.3
							c0.1,0.1,0.2,0,0.4,0.1c0,0-0.1-0.1-0.2-0.1c-0.1-0.1-0.2-0.1-0.3-0.2l-0.1-0.1c0,0-0.1,0-0.1,0l-0.3,0.1
							c-0.2,0.1-0.2,0.1-0.4,0.2c-0.2,0.2-0.3,0.4-0.4,0.5c-0.1,0.1-0.1,0.2-0.1,0.3c-0.2,0.4-0.1,0.1-0.2,0.3
							c-0.2,0.6,0.1,1.4,0.1,1.7c0,0.1-0.1-0.1-0.1-0.2c0.1,0.2,0.2,0.6,0.4,0.9c0.2,0.3,0.4,0.4,0.3,0.3c0.8,0.8,1.7,0.8,2.5,0.8
							c0.5-0.1,1.6-0.3,1.7-0.5c0,0.1,0.4-0.1,0.8-0.3c0.4-0.2,0.8-0.6,1-0.8c-0.1,0.2,0.4-0.3,0.3-0.1c0.5-0.4,0.9-0.9,0.8-0.9
							c0.5-0.4,0.8-0.9,1.1-1.4l0.1-0.2l0-0.1c0,0,0-0.1,0.1-0.1c0-0.1,0.1-0.1,0.1,0c0,0,0,0,0,0c0,0,0,0.1,0.1,0.2
							c0.1,0.4,0.1,0.8,0.2,1.2c0.1,0.8,0.3,1.7,0.4,2.5c-0.1,0-0.3-1.8-0.4-1.8c0.3,1.6,0.5,2.5,0.8,4c0,0.4-0.1-0.2-0.1-0.4
							c0.2,1,0.3,2,0.5,2.9c0.2,0,0.4-0.1,0.6-0.1c-0.2-0.5-0.3-1-0.5-1.5c0,0,0.1,0.1,0.1,0.3c-0.1-0.3-0.1-0.6-0.2-0.6l0.1,0.3
							c0,0.5-0.4-1-0.5-1.1c0.2,0.4-0.2-1.4,0.1-0.7c0-0.2-0.1-0.4-0.1-0.4c0-0.3,0-0.4,0.1-0.1c-0.2-1-0.2-0.6-0.3-1.5
							c0,0,0.1,0.2,0.1,0.3c-0.1-0.4-0.2-0.9-0.2-1.7c0,0,0,0,0,0.2c0-0.6-0.1-1.2-0.1-1.8c0-0.6,0-1.2,0.4-1.7
							c-0.1,0.2,0,0.1,0.1,0c0.1-0.1,0.3-0.2,0.3-0.2c0,0,0.1-0.1,0.3-0.1c0.1,0,0.3,0,0.3,0c0,0-0.3,0-0.3,0
							c0.6-0.1,1.2,0.2,1.6,0.6c0,0-0.4-0.3-0.4-0.2c0,0,0.3,0.2,0.5,0.4c0.2,0.2,0.4,0.4,0.4,0.4c0,0-0.4-0.5-0.4-0.5
							c0.5,0.4,0.1-0.2,0.6,0.5c-0.1-0.1,0.4,0.6,0.4,0.9l0,0c0.1,0.3,0.3,0.6,0.3,1.1c0,0.1-0.1-0.1-0.1,0c0.1,0.3,0.3,1.6,0.6,2
							c-0.1-0.1-0.1-0.1-0.1-0.1l0.2,0.3c0.1,0.3,0.1,0.4,0,0.3c0.4,0.9-0.1-0.3,0.5,0.7c-0.1-0.1,0,0-0.2-0.2
							c0.1,0.3,0.3,0.5,0.6,0.7c0.2,0.2,0.5,0.4,0.8,0.4c0.3,0,0.6-0.1,0.8-0.3c0.2-0.2,0.3-0.5,0.4-0.7c0.1-0.1,0,0.1-0.1,0.3
							c-0.1,0.2-0.3,0.4-0.1,0.3c0.7-1.4,1.2-2.9,1.8-4.2l-0.1,0.2c-0.1-0.2,0.5-1,0.7-1.7c-0.1,0.2,0,0.3,0,0.2
							c0.4-0.9,0.7-1.9,1.1-3.4l0,0.2c0.2-0.4,0.4-1.2,0.6-1.7l0.4-1.1l-0.7,0.9c-0.1,0.1-0.2,0.2-0.2,0.3c-0.1,0.2-0.3,0.5-0.1,0.3
							c-1.3,1.6-1.5,3.5-1.7,5.2c0-0.2,0-0.5,0-0.3c0,0,0,0.4,0,0.8c0,0.4,0,0.8,0,0.8c0.1-0.1,0-0.2,0.1-0.5c0,0.2,0.1,0.6,0.1,1
							c-0.1-0.7-0.1,0-0.1,0.3c0-0.1,0,0.1,0.1,0c0.1,1,0.1,0,0.3,1.2l0,0c0,0.1,0,0.2,0.1,0.2c0.2-0.4,0.3-0.7,0.5-1
							c0.1-0.1-0.2,0.5-0.2,0.6c0.2-0.3,0.3-0.7,0.4-1c0.1-0.3,0.2-0.5,0.3-0.8c-0.1,0.2-0.2,0.6-0.3,0.8c0.3-0.5,0.3-0.6,0.5-1l0,0
							c0,0,0.1-0.2,0.2-0.5c0.1-0.2,0.2-0.5,0.2-0.5l-0.1,0.2c0-0.8,0.4-1.5,0.5-2.5c-0.1,1,0,0.2,0.1,0.3c0.1-0.2,0.2-0.6,0.2-0.5
							c0-0.5,0.2-0.8,0.2-1.5c0,0,0.1-0.5,0.1-0.4c0-0.6-0.1,0.1-0.1,0.1c0-0.2,0-0.4,0-0.6c-0.1,0-0.2,0-0.3,0c0.1,0.9,0.2,2,0.8,3
							c0.3,0.5,0.5,0.8,0.8,1.1c0.3,0.2,0.5,0.5,1,0.7c0.3,0.2-0.3-0.1-0.3-0.1c0.5,0.4,1,0.5,1.5,0.5c-0.1,0,0,0.1,0.2,0.1
							c0.5,0,0.3-0.1,0.9-0.2c-0.1,0.1-0.2,0.1-0.4,0.2c0.6-0.1,1.1-0.3,1.6-0.6c0.2,0-0.3,0.2-0.5,0.3c0.6-0.2,1.5-0.8,1.6-1
							L98.5,66c0.2-0.1,0.1,0,0,0.1c-0.4,0.3-0.7,0.4-0.7,0.3c0,0,0.1,0,0.2-0.1c0.1-0.1,0.2-0.1,0.2-0.1c-0.4,0.1-1.4,0.7-2.3,0.7
							c0,0,0.3-0.1,0.3-0.1c0,0-0.8,0.1-0.8,0.1c-0.2-0.1-0.3-0.1,0.1-0.1c-0.3-0.1-0.4-0.1-0.5-0.1c-0.1,0-0.2,0-0.4-0.2
							c0,0,0,0,0,0c0,0-0.5-0.2-0.5-0.2c0.1,0,0-0.1,0.2,0.1c-0.8-0.5-1.2-1-1.3-1.4l0,0.1c-0.6-1.2-0.2-0.1-0.6-1c0,0,0-0.2,0-0.4
							c0-0.2,0-0.4,0-0.4l-0.1-0.1c0-0.1-0.1-0.4,0-0.4c-0.2-0.5,0,0.1-0.1-0.2c0-0.3-0.1-0.7-0.2-1l-0.1-0.4l0,0.4
							c0,0.5-0.1,0.9-0.2,1c0,0.3,0.1-0.6,0.1,0.1c-0.2,0.2-0.1,0.8-0.3,1.4c0-0.2,0.1-0.8-0.1-0.2c0.1,0.4-0.3,1.2-0.4,1.7
							c0.1,0.1-0.3,1.1-0.6,1.9c0,0-0.1,0.3-0.3,0.7c-0.2,0.3-0.3,0.6-0.4,0.8c0,0,0-0.2,0-0.2l0,0c0,0.1-0.1,0-0.1-0.3
							c0-0.1-0.1-0.2-0.1-0.4c0-0.2-0.1-0.3-0.1-0.5c0.1,0,0.1,0.1,0.2,0.4c0,0,0-0.1,0-0.3c0-0.1,0-0.3,0-0.3
							c0-0.1-0.1-0.3-0.1-0.7l0.1,0.1c0-0.8,0-1.5,0.2-2.5c-0.1-0.1-0.4,0.7-0.2-0.3c0.1,0,0.1,0,0.1,0.2c0-0.1,0.1-0.3,0.1-0.5
							l0,0.4c0.1-0.4,0-0.2,0.1-0.6c0.1,0,0.1-0.2,0.1-0.2c0,0.1-0.1,0.3-0.1,0.4c0.1-0.4,0.3-0.8,0.4-1c0,0-0.1,0,0-0.3
							c0.3-0.7,0.2-0.2,0.4-0.6c0.1-0.2,0.3-0.6,0.3-0.6c0.1-0.2,0.2-0.2,0.2-0.3c0.1-0.1,0.2-0.3,0.3-0.5c-0.1-0.1-0.2-0.1-0.3-0.2
							c-0.2,0.5-0.3,1.1-0.2,0.8l0-0.1c0,0,0,0,0,0.1l0,0l0,0c-0.3,1.3-0.9,2.6-1.4,3.8l0,0c-0.2,0.7-0.6,1.6-0.8,2.1
							c-0.1,0.2-0.3,0.5-0.2,0.4c-0.2,0.6-0.2,0.6-0.6,1.4c0.2-0.6-0.1,0.2,0.2-0.6c-0.3,0.7-0.4,0.8-0.7,1.6c0-0.3-0.3,0.5-0.5,0.8
							c0,0,0.3-0.4,0.3-0.4c-0.2,0.4-0.4,0.7-0.6,0.7c0,0,0.1-0.1,0.1-0.1c-0.4,0.3-1-0.3-1.4-0.8c-0.4-0.5-0.6-1.1-0.6-1.7
							c-0.2-0.4,0.2,0.8,0,0.5c-0.2-0.7-0.2-1.5-0.2-1.7c-0.2-1-0.3-0.9-0.8-1.9c0,0.1,0.1,0.3-0.4-0.3c-0.5-0.6-0.6-0.7-0.2-0.4
							c0.1,0.1,0.2,0.2,0.2,0.2c0.2,0.2,0.4,0.4,0.2,0.2l-0.1-0.1c-0.1-0.2-0.4-0.4-0.6-0.6c-0.2-0.2-0.4-0.3-0.3-0.3
							c-0.6-0.3-0.2-0.1,0.1,0.2c-0.4-0.3-0.8-0.5-1.2-0.5c-0.4,0-0.9,0.1-1.3,0.5c0.1-0.1,0.3-0.2,0.2-0.1
							c-0.3,0.2-0.4,0.5-0.5,0.6c-0.1,0.1-0.1,0.2-0.1,0.3c0,0.1,0,0.2-0.1,0.6c-0.1,0.5-0.1-0.2-0.1,0.8c0,0.6-0.1,0.1-0.1-0.1
							c0,0.9,0,1.7,0,2.2l-0.1-0.5c0,0.3,0,0.5,0.1,0.7l0-0.3c0,0.3,0,0.5,0,0.5c0.1,0.3,0.1-0.2,0.2,0.3c0,0.4,0.2,1.1,0.1,1.2
							c-0.1-1.1-0.1,0.1-0.2-0.8c0,0.2,0.1,0.4,0.1,0.7c0,0,0,0,0-0.1c0.1,1.1,0.2,0.5,0.4,1.6c-0.1-0.1,0,0.3,0,0.5
							c-0.1-0.5,0-0.2,0.2,0.2c0.1,0.7,0.2,0.8,0.3,1.1l-0.1-0.4c0.1,0.1,0.2,0.5,0.3,1c0,0.1-0.2-0.4-0.1-0.3
							c0.1,0.2,0.2,0.5,0.2,0.7l0.4-0.1c0-0.4-0.1-0.8-0.2-1.3c0-0.4,0.1,0,0.1-0.4c-0.2-0.9-0.1-0.9-0.3-1.8c0,0.3,0,0.3-0.2-0.3
							l0.3,1.5l-0.2-0.9c0.1,0.5,0.2,0.9,0.2,1.2c-0.1-0.4-0.1-0.4-0.1-0.2c0-0.6-0.2-1.2-0.3-1.9l0.2,0c-0.1-1.1-0.4-1.9-0.6-3.3
							l0,0.5c-0.1-0.2-0.1-0.9-0.2-1.3c0,0,0,0,0-0.1c0-0.2,0-0.3,0-0.5c0,0-0.1-0.4-0.2-0.8c-0.1-0.4-0.1-0.9-0.2-0.7l0,0l-0.4,0.7
							c-0.1,0.2-0.2,0.4-0.3,0.6c-0.1,0.2-0.2,0.3-0.2,0.4c-0.1,0.2-0.2,0.3-0.2,0.5c-0.1,0.3-0.3,0.6-0.7,1
							c0.2-0.3-0.2,0.1,0.2-0.5c-0.2,0.3-0.4,0.5-0.4,0.5c-0.2,0.1-0.6,0.8-0.9,0.9c-0.1,0.1-0.1,0.2-0.4,0.4c0,0,0,0,0,0
							c0,0-0.5,0.4-0.2,0.2c-0.5,0.2-1.2,0.6-1.9,0.8c-0.7,0.2-1.5,0.2-1.9,0c-0.4-0.1-0.7-0.3-1-0.5c-0.3-0.3-0.4-0.7-0.5-1
							c0,0,0,0,0.1,0.1c-0.1-0.4-0.1-0.6-0.1-0.8c0-0.2-0.1-0.4,0.2-0.8c0.2-0.2,0.1-0.1,0,0.1c-0.1,0.1-0.1,0.3-0.1,0.2
							c0.1,0,0.2-0.3,0.5-0.5c0.2-0.1,0.3-0.2,0.4-0.1c0.1,0.1,0.4,0.2,0.5,0.3L72,66.7c0.5,0.3,1.2,0.7,1.9,1.3c0,0,0,0,0,0
							c0.6,0.3,1.4,1.2,1.9,2c-0.2-0.2-0.3-0.3-0.2-0.1c0.2,0.3,0.1-0.2,0.5,0.5c0.1,0.3,0.3,0.8,0.2,0.9c0,0-0.3-0.7-0.3-0.7
							c0.1,0.4,0.4,0.9,0.4,1.3l-0.1,0c0.1,0.5,0.1,0.8,0.1,1.1c0,0.3,0,0.6-0.3,1.2l0.1-0.1c-0.1,0.3-0.2,0.5-0.2,0.6
							c-0.1,0.1-0.2,0.2-0.3,0.5c0,0-0.2,0.1-0.2,0.1c-0.2,0.4-1,1.2-1.8,1.4c0.4-0.2,1.2-0.7,1.5-1.2c-0.2,0.2-0.4,0.4-0.7,0.6
							c-0.3,0.2-0.6,0.3-0.7,0.4c0.2-0.1,0.3-0.2,0.5-0.3c-0.4,0.3-1.1,0.7-2,0.5c0.1-0.1-0.5-0.2-1-0.6c-0.5-0.4-0.9-1-1-1.4
							c-0.8-1.3-0.7-2.9-0.7-4.8c-0.2,0.7,0-0.6-0.2-0.4c0-0.4,0-0.6,0-0.6c0,0,0-0.3,0-0.7c0-0.3-0.1-0.7-0.1-0.7
							c0-0.3,0.1,0.4,0.1,0.4c-0.1-0.5-0.1-0.6-0.1-0.7l-0.8,0.1c0,0.1,0,0.1,0,0.4c0-0.1,0.1,0.3,0.1,0.9l0-0.8
							c0.2,1.3,0,1.1,0.1,2.5l-0.1-0.4c0.1,0.7,0,2.5,0,3.2c0,0.1-0.1,0.3-0.1,0c-0.1,0.8-0.2,1.7-0.4,2.6c-0.1,0.8-0.4,1.6-0.9,1.8
							l0.1-0.1c-0.2,0.1-0.3,0.3-0.6,0.2c0,0,0.1,0,0,0c-0.1,0-0.2,0-0.4-0.1c-0.2-0.1-0.3-0.3-0.4-0.4c0,0,0.2,0.2,0.2,0.2
							c-0.5-0.5-0.7-1.1-1-1.6c-0.3-0.5-0.5-1-0.8-1.6c0.1,0-0.3-1.2-0.4-1.8l0,0c-0.1-0.4-0.3-0.8-0.4-1.2
							c-0.1-0.4-0.2-0.7-0.4-1.4c0-0.2-0.1-0.3-0.1-0.4l-0.1-0.2l0-0.1c0,0-0.1,0-0.1,0.1c-0.2,0.2-0.5,0.4-0.7,0.7
							c-0.2,0.3-0.3,0.4-0.4,0.6c-0.1,0.2-0.2,0.4-0.3,0.6c-0.3,0.4-0.7,1.3-1.4,1.9c-0.6,0.6-1.8,0.8-2.3,0.3
							c0.1,0.1-0.1,0.1-0.2-0.1c0-0.1-0.1-0.2-0.1-0.2l-0.4,0.3c0.3,0.2,0.6,0.3,0.5,0.4l-0.1-0.1c0.2,0.2,0.8,0.7,1.2,1.2l0.2,0
							c0.4,0.7,0.9,1.7,1.1,2.6c0.2,0.9,0.2,1.9,0,2.3c0,0.4-0.1,0.9-0.2,1.2l-0.1,0c-0.1,0.3-0.2,0.5-0.3,0.7
							c-0.1,0.1-0.1,0.2-0.2,0.3l0,0l0,0l0-0.1l0,0l-0.1-0.1c-0.1-0.1-0.2-0.3-0.3-0.4l0.2,0.2c-0.4-0.7-0.7-0.7-1-1.4l0-0.2
							c-0.5-1.2-0.8-2.6-1-3.9c0,0,0,0.1,0.1,0.3c0-0.3-0.1-0.9-0.1-1.4c0-0.5,0-0.9-0.1-0.8c0.1,0,0.1-1.3,0.3-2
							c-0.2,0-0.3,0-0.5,0c0,0,0,0.1,0,0.1L57,71.5c0.2,0.6,0.2,0.6,0.3,1.5c0,0.2,0,0.2,0-0.1c0,0.7,0.1,0.5,0.1,1.4l0-0.3
							c0,0.7,0,0.6,0.1,1c0,0.4-0.2,1.3-0.2,1.4c0,0.1,0,0.5-0.1,0.9c0,0,0-0.1,0-0.2c-0.3,1.1-0.3,1.7-0.7,2.5c0,0-0.1,0.1-0.1,0.1
							c0.3-0.9,0.5-1.6,0.5-1.5c-0.1,0-0.3,0.7-0.2,0.1c-0.1,0.6-0.3,1.6-0.7,2.3c0,0,0,0.1-0.1,0.1l0-0.1c-0.1,0.2-0.1,0.3-0.2,0.4
							c-0.1,0.2-0.2,0.3-0.3,0.5c-0.1,0-0.5,0.6-0.8,0.8c0.1,0.1-0.3,0.3,0.1,0.1c-0.1,0,0.1,0,0.2-0.2c0,0,0.1-0.1,0.1-0.1l0,0
							c0.2-0.2,0.4-0.4,0.5-0.7c-0.1,0.3-0.3,0.5-0.6,0.8c-0.1,0.2-0.2,0.3-0.3,0.4c-0.2,0.1-0.6,0.2-0.9,0.2c-0.3,0-0.6,0-0.6-0.1
							c-0.5,0-1.2-0.2-1.7-0.5c-0.5-0.3-0.9-0.7-1.2-1c-0.2-0.3-0.2-0.3-0.2-0.4c0.1,0.2,0.2,0.3,0.3,0.4c-0.4-0.5-0.9-1.7-1-1.8
							c-0.2-0.8,0.2,0.4-0.1-0.7l0.1,0.1c-0.4-2.2-1.2-3.5-1.2-6c0,0.2,0,0.3,0,0.3c-0.2-2.8-0.4-5.9,0.1-8.7
							c0.1-0.8,0.1-0.9,0.1-1.4l0.1-0.2l0.1-0.8c0.2-1.2,0.6-2,0.9-3.4c0,0-0.1,0.1-0.1,0.1c0-0.1,0.1-0.2,0.1-0.4
							c0-0.1,0-0.2,0.1-0.2c0.1,0,0.1,0.1,0.2,0.1c0.2,0.1,0.4,0.3,0.3,0.3c0,0,0.2,0.1,0.3,0.2l0,0c0,0,0.2,0.2,0.4,0.5
							c0.2,0.3,0.4,0.5,0.4,0.5c0.2,0.5,0.1,0.4,0.1,0.5c0,0,0,0.1,0.1,0.8c0.2,0.5,0.2,1.5,0.2,1.3c0-0.2,0.1-0.6,0.1-0.6
							c0,0,0,0.1,0,0.3c0,0.1,0,0.3,0,0.3c0.1,0.1,0.1,0.2,0.2,0.1c0.1,0,0.2-0.3,0.2-0.9c0,0-0.2-0.9-0.2-0.9l0-0.3
							c0,0,0.2,0.8,0.2,0.8c0-0.5-0.2-0.7-0.3-1c0-0.1,0-0.2-0.1-0.4c0,0-0.5-0.7-0.6-0.7c0-0.1,0.3,0.3,0-0.2
							c-0.3-0.3,0.2,0.4-0.3-0.1c-0.3-0.4-0.1-0.3-0.6-0.6c0,0,0-0.1,0,0c0.1,0,0.2,0.1,0.2,0.2c-0.1-0.1-0.2-0.2-0.4-0.3
							c-0.2-0.1-0.4-0.2-0.5-0.4l-0.1,0l0,0.1l0,0.1c0,0.1-0.1,0.2-0.1,0.3c0,0.2-0.1,0.3-0.1,0.4c-0.2,0.5-0.4,1.5-0.5,1.4
							c0,0.1-0.1,0.8-0.2,1.2c0-0.8-0.3,1.5-0.4,1.3c0,0.6-0.3,2-0.3,2.9c0-0.1,0-0.2,0-0.2c-0.1,0.5-0.1,0.7-0.2,1
							c0.1,0.1,0.1,0.9,0.1,1.4c-0.1,0.7-0.1-0.4-0.2-0.2c0.1,0,0,1.2,0.1,0.9c-0.1,0.5,0,0.4-0.1,0.7c0.1,0.1,0,0.5,0.1,0.9
							c0,0.7-0.1,0.2-0.1,1C47.2,71.2,47.1,70.4,47.1,70.4z M56.4,80.6L56.4,80.6c-0.1,0.2-0.1,0.3-0.2,0.4
							C56.2,80.9,56.3,80.8,56.4,80.6z M56.9,79.1c-0.1,0.2-0.2,0.4-0.2,0.7c0,0,0,0,0-0.2C56.7,79.6,56.8,79.3,56.9,79.1z M55,81.8
							c0.1-0.2,0.2-0.2,0.2-0.3C55.2,81.7,55.1,81.8,55,81.8L55,81.8C55,81.9,55,81.9,55,81.8z"/>
						<path fill="#3C3C3C" d="M54.8,82.2C54.8,82.2,54.8,82.2,54.8,82.2C54.8,82.2,54.8,82.2,54.8,82.2L54.8,82.2
							C54.9,82.1,54.8,82.2,54.8,82.2z"/>
						<path fill="#3C3C3C" d="M91,61.5L91,61.5C91,61.5,91,61.5,91,61.5C91,61.5,91,61.5,91,61.5z"/>
						<polygon fill="#3C3C3C" points="61.1,78.9 61.1,79 61.1,79.1 						"/>
						<path fill="#3C3C3C" d="M89.2,68.4c0,0,0,0.1,0,0.2C89.2,68.5,89.2,68.5,89.2,68.4z"/>
						<path fill="#3C3C3C" d="M90.8,67.4l0.2-0.5C90.9,67.2,90.9,67.3,90.8,67.4z"/>
						<path fill="#3C3C3C" d="M91.7,64.6C91.7,64.6,91.7,64.5,91.7,64.6L91.7,64.6L91.7,64.6z"/>
						<path fill="#3C3C3C" d="M80.9,73.6c0,0,0,0.1,0,0.1C81.1,73.9,81,73.7,80.9,73.6z"/>
						<path fill="#3C3C3C" d="M83.9,66.4c-0.1-0.1-0.1-0.3-0.2-0.4C83.7,66.3,83.8,66.4,83.9,66.4z"/>
						<polygon fill="#3C3C3C" points="77.2,68.8 77.2,68.8 77.1,68.9 						"/>
						<path fill="#3C3C3C" d="M83.3,65.5c0.1,0.2,0.2,0.4,0.3,0.5C83.6,65.9,83.4,65.7,83.3,65.5z"/>
						<path fill="#3C3C3C" d="M98.4,66.2l0.1-0.1c0,0,0,0,0,0L98.4,66.2z"/>
						<path fill="#3C3C3C" d="M98.6,66.1l0.1-0.1C98.6,66,98.6,66.1,98.6,66.1z"/>
						<path fill="#3C3C3C" d="M99,65.8L98.7,66C98.8,65.9,98.9,65.9,99,65.8z"/>
						<path fill="#3C3C3C" d="M94.5,66.8L94.5,66.8C94.5,66.8,94.5,66.8,94.5,66.8z"/>
						<path fill="#3C3C3C" d="M93.5,66.1c0.2,0.2,0.6,0.5,1,0.7l0,0C94.3,66.8,93.7,66.3,93.5,66.1z"/>
						<path fill="#3C3C3C" d="M91.7,61.8l0-0.2l0.1-1.1l0.2,1l0.1,0.8c0-0.2,0-0.4,0.1,0c-0.1-1.2,0,0.1-0.2-0.8l-0.2-1.1l-0.1,1.1
							C91.7,61.7,91.7,61.8,91.7,61.8z"/>
						<path fill="#3C3C3C" d="M91.2,64.8C91.3,64.3,91.2,64.8,91.2,64.8C91.1,65.1,91.1,65.2,91.2,64.8z"/>
						<path fill="#3C3C3C" d="M88.5,67.9L88.5,67.9C88.3,68.2,88.4,67.9,88.5,67.9z"/>
						<path fill="#3C3C3C" d="M86.5,71.7c0,0,0.1,0,0.3,0c0.1,0,0.2-0.1,0.2-0.1c0,0,0.1-0.2,0.1-0.2c0,0-0.1,0.1-0.3,0.2
							C86.7,71.7,86.5,71.7,86.5,71.7z"/>
						<path fill="#3C3C3C" d="M85.1,69.7l0.1,0.2c0,0-0.2-0.6-0.2-0.6L85.1,69.7z"/>
						<path fill="#3C3C3C" d="M73.1,69.9l0.1,0.1C73.5,70,73.5,69.9,73.1,69.9z"/>
						<path fill="#3C3C3C" d="M76.2,74c-0.1,0.1-0.3,0.5-0.4,0.8C76,74.5,76.2,74.1,76.2,74z"/>
						<path fill="#3C3C3C" d="M59.5,75l-0.2-0.2c0,0,0.3,0.5,0.3,0.5C59.6,75.2,59.5,75,59.5,75z"/>
					</g>
				</g>
			</g>
		</g>
	</g>
</g>
</svg>
