<?xml version="1.0" encoding="utf-8"?>
<!-- Generator: Adobe Illustrator 18.0.0, SVG Export Plug-In . SVG Version: 6.00 Build 0)  -->
<!DOCTYPE svg PUBLIC "-//W3C//DTD SVG 1.1//EN" "http://www.w3.org/Graphics/SVG/1.1/DTD/svg11.dtd">
<svg version="1.1" id="Layer_1" xmlns="http://www.w3.org/2000/svg" xmlns:xlink="http://www.w3.org/1999/xlink" x="0px" y="0px"
	 viewBox="0 0 72 72" enable-background="new 0 0 72 72" xml:space="preserve">
<pattern  y="72" width="18.2" height="17.7" patternUnits="userSpaceOnUse" id="New_Pattern_Swatch_8" viewBox="0 -17.7 18.2 17.7" overflow="visible">
	<g>
		<polygon fill="none" points="18.2,0 0,0 0,-17.7 18.2,-17.7 		"/>
		<g>
			<g>
				<g>
					<g>
						<g>
							<g>
								<g>
									<path fill="#202020" d="M14-13.1C14-13.1,14-13.1,14-13.1L14-13.1L14-13.1z"/>
									<path fill="#202020" d="M13.9-12.9C13.9-12.8,13.9-12.8,13.9-12.9C13.9-12.9,13.9-12.9,13.9-12.9
										C13.9-12.9,13.9-13,13.9-12.9c0-0.1,0.1-0.1,0-0.1C13.9-13,13.9-12.9,13.9-12.9C13.9-12.9,13.9-12.9,13.9-12.9z"/>
									<path fill="#202020" d="M13.3-9.7L13.3-9.7C13.3-9.7,13.3-9.7,13.3-9.7z"/>
									<path fill="#202020" d="M12.9-7.7C12.9-7.7,12.9-7.7,12.9-7.7C12.9-7.7,12.9-7.7,12.9-7.7z"/>
									<path fill="#202020" d="M12.8-7.3C12.8-7.3,12.8-7.3,12.8-7.3C12.8-7.3,12.8-7.3,12.8-7.3z"/>
									<path fill="#202020" d="M13.3-9.7L13.3-9.7C13.3-9.6,13.3-9.6,13.3-9.7z"/>
									<path fill="#202020" d="M13.9-12.4C13.9-12.4,13.9-12.4,13.9-12.4L13.9-12.4L13.9-12.4z"/>
									<path fill="#202020" d="M13.4-10.5L13.4-10.5C13.4-10.6,13.4-10.6,13.4-10.5L13.4-10.5z"/>
									<path fill="#202020" d="M13.5-11.2C13.5-11.2,13.6-11.2,13.5-11.2C13.6-11.2,13.6-11.2,13.5-11.2
										C13.6-11.2,13.5-11.2,13.5-11.2z"/>
									<path fill="#202020" d="M13.8-12.3L13.8-12.3L13.8-12.3z"/>
									<path fill="#202020" d="M13.3-10.1L13.3-10.1L13.3-10.1z"/>
									<path fill="#202020" d="M4.8-12.3L4.8-12.3C4.8-12.3,4.8-12.3,4.8-12.3z"/>
									<polygon fill="#202020" points="4.7,-13.1 4.7,-13.1 4.8,-13.1 									"/>
									<path fill="#202020" d="M12.7-6.7L12.7-6.7C12.7-6.7,12.7-6.7,12.7-6.7z"/>
									<path fill="#202020" d="M8.7-3.9C8.8-3.9,8.6-3.9,8.7-3.9C8.7-3.9,8.8-3.9,8.7-3.9z"/>
									<path fill="#202020" d="M13.9-12.4L13.9-12.4C13.9-12.4,13.9-12.4,13.9-12.4z"/>
									<polygon fill="#202020" points="8.7,-3.9 8.7,-3.9 8.7,-3.9 									"/>
									<path fill="#202020" d="M12.4-5.2C12.4-5.2,12.4-5.3,12.4-5.2C12.4-5.3,12.4-5.3,12.4-5.2z"/>
									<path fill="#202020" d="M12.7-6.3L12.7-6.3C12.6-6.3,12.7-6.3,12.7-6.3z"/>
									<path fill="#202020" d="M12.3-4.8C12.3-4.8,12.3-4.8,12.3-4.8L12.3-4.8C12.3-4.8,12.3-4.8,12.3-4.8z"/>
									<polygon fill="#202020" points="11.8,-4.5 11.8,-4.5 11.8,-4.5 									"/>
									<path fill="#202020" d="M5.2-10.6C5.2-10.6,5.2-10.6,5.2-10.6C5.2-10.6,5.2-10.7,5.2-10.6z"/>
									<path fill="#202020" d="M13.9-12.4C13.9-12.4,13.9-12.4,13.9-12.4L13.9-12.4L13.9-12.4z"/>
									<path fill="#202020" d="M12.3-4.6L12.3-4.6C12.3-4.6,12.3-4.6,12.3-4.6z"/>
									<path fill="#202020" d="M6.2-6.4L6.2-6.4C6.2-6.4,6.2-6.4,6.2-6.4z"/>
									<path fill="#202020" d="M12-4.4C12-4.4,12-4.4,12-4.4C12-4.4,12-4.4,12-4.4L12-4.4z"/>
									<path fill="#202020" d="M5.3-10.6L5.3-10.6L5.3-10.6z"/>
									<path fill="#202020" d="M5.1-11.2c0-0.1,0,0,0-0.1c0,0,0-0.1,0-0.1c0,0,0,0,0-0.1c0,0,0-0.1-0.1-0.1c0,0,0.1,0.1,0.1,0
										c0,0-0.1-0.1-0.1-0.1c0,0,0-0.1,0-0.1c0,0,0,0,0,0c0-0.1-0.1-0.3-0.1-0.3c0,0,0-0.2,0-0.1c0,0,0-0.1-0.1-0.1
										c0,0,0-0.1,0-0.2c0,0,0-0.1-0.1-0.1c0,0,0,0,0,0c0,0,0,0,0-0.1c0-0.1,0,0,0,0c0-0.1,0,0,0,0l-0.1-0.1c0,0,0,0,0,0
										c0,0,0-0.1,0-0.1l0,0.1l0,0l0-0.1c0-0.1,0-0.1,0.1-0.1l0,0.1c0,0,0,0,0-0.1c0,0,0.1,0.1,0.1,0.1c0,0.2,0,0,0,0.2l0.1,0.1
										l0,0c0,0,0,0,0,0c0,0,0,0.1,0,0.2l0,0C5-12.3,5-12.2,5-12.1L5-12l0,0c0,0,0,0.1,0.1,0.1c0,0.3,0.2,0.6,0.2,0.9c0,0,0,0,0,0
										c0,0.3,0.2,0.4,0.2,0.7l0,0c0,0.1,0,0,0,0.1c0,0,0.1,0.2,0.1,0.2c0,0,0,0,0-0.1c0,0,0,0,0,0.1C5.5-10,5.6-9.8,5.6-9.7
										c0,0,0,0.1,0,0.2c0,0,0,0,0,0c0,0,0,0.1,0,0.1c0,0,0-0.1,0-0.1l0,0c0,0,0,0,0,0c0,0,0,0,0,0c0-0.1,0,0,0,0c0,0,0,0.1,0,0.1
										c0,0,0,0,0,0.1c0,0,0,0,0,0l0,0c0,0,0,0,0,0C5.7-9.1,5.8-9,5.8-9c0-0.1,0,0,0,0c0,0,0-0.1,0-0.2c0,0,0,0,0,0
										c0,0.1,0.1,0.1,0.1,0.3c0,0,0,0,0,0c0,0,0,0.1,0,0.1c0,0,0,0.1,0,0.2c0,0,0,0,0,0.1l0,0c0,0.1,0,0.1,0,0.1c0,0,0,0,0,0
										c0,0.1,0,0.1,0.1,0.2l0,0C6-8.1,6-8,6-8c0,0,0.1,0.2,0.1,0.2c0,0,0,0,0,0c0.1,0.1,0.1,0.3,0.1,0.4l0,0
										c0,0.1,0.1,0.1,0.1,0.2l0,0C6.2-7,6.3-7,6.3-6.8l0,0c0,0.1,0,0.1,0.1,0.1c0,0.1,0.1,0.4,0.1,0.6l0,0c0,0.1,0,0.2,0,0.2l0,0
										c0,0,0,0.1,0,0.1c0,0,0,0.1,0,0c0,0.2,0.1,0.5,0.1,0.6C6.6-5.1,6.7-5,6.7-5c0,0,0,0.1,0,0.1c0,0,0.1,0,0.1,0.1l0,0
										c0,0,0.1,0.1,0.1,0.2c0.1,0.1,0.2,0.1,0.4,0.2l0,0c0,0,0.1,0.1,0.1,0.1c0,0,0,0,0,0c0,0,0.1,0,0.1,0l0,0
										C7.6-4.3,7.8-4.2,8-4.1c0,0,0,0,0,0C8-4.1,8.2-4.1,8.3-4l0,0C8.4-4,8.4-4,8.5-4L8.4-4c0.1,0,0.1,0,0.1,0c0.1,0,0,0,0.1,0.1
										c0,0-0.1,0,0,0l0.1,0.1c0,0,0,0,0.1,0c0,0,0.1,0,0.1,0c0.2,0,0.4,0.1,0.5,0.1c0.1,0,0.3,0,0.3,0.1c0.1,0,0.2,0,0.2-0.1
										c0,0,0,0-0.1,0c0,0,0.1,0,0.2,0c-0.1,0-0.2,0-0.2,0.1c0.1,0,0.2,0,0.3-0.1l0,0c0.1,0,0.1,0,0.1,0l0,0
										c0.1,0,0.1-0.1,0.3-0.1l0,0c0,0,0.1,0,0.1,0l-0.1,0c0,0,0.1,0,0.1,0c0.1,0,0,0,0.1-0.1c0,0,0,0,0,0c0.1,0,0.2-0.1,0.3-0.1
										c0,0,0,0,0,0c0.1,0,0.2-0.1,0.2-0.1l0,0c0.1,0,0.2-0.1,0.2-0.1c0,0-0.1,0,0,0c0.1,0,0.1-0.1,0.2-0.1c0,0,0,0,0,0
										c0.1,0,0.2-0.1,0.2-0.1c0.1,0,0.3-0.2,0.4-0.2c0,0,0,0,0,0c0,0,0,0,0,0c0,0,0,0,0-0.1c0,0,0.1-0.1,0.1-0.1c0,0,0,0,0,0
										c0,0,0,0,0,0c0-0.1,0-0.1,0-0.2l0-0.1c0,0,0-0.1,0-0.1c0,0,0,0,0,0c0-0.1,0-0.1,0-0.1l0,0c0-0.1,0-0.2,0.1-0.4l0,0
										c0-0.1,0-0.1,0-0.2c0,0,0,0,0,0c0,0,0,0.1,0,0.1l0-0.1l0,0.2c0-0.1,0-0.1,0,0c0-0.1,0-0.1,0-0.2c0,0,0,0,0,0
										c0-0.1,0.1-0.2,0-0.2c0,0,0,0,0,0c0-0.1,0-0.1,0-0.1l0,0c0,0,0-0.1,0-0.1c0,0,0-0.1,0,0c0,0,0-0.1,0,0c0-0.1,0-0.1,0-0.2
										c0,0,0,0,0,0c0,0,0-0.1,0-0.1c0,0.1,0,0,0,0.1c0,0,0-0.1,0-0.1c0-0.1,0,0,0,0c0,0,0,0,0-0.1l0,0c0,0,0,0,0-0.1l0,0.1
										c0-0.1,0.1-0.1,0.1-0.2c0,0,0,0.1,0,0c0-0.1,0,0,0-0.1c0-0.1,0,0,0-0.2c0,0,0,0,0,0c0-0.1,0-0.2,0.1-0.3c0,0,0,0.1,0,0
										c0,0,0-0.1,0-0.1l0,0c0,0,0,0,0,0c0,0,0,0,0,0c0,0.1,0,0,0.1,0c0-0.1,0-0.1,0-0.1c0-0.1,0-0.1,0-0.2c0,0,0.1-0.1,0.1-0.2
										c0,0,0,0.1,0,0C13-8.2,13-8.4,13-8.5l0,0c0,0,0-0.1,0-0.1l0,0.1c0,0,0-0.1,0-0.1c0-0.1,0-0.1,0-0.2c0,0.1,0,0,0,0.1
										c0-0.1,0-0.1,0-0.2c0,0,0,0,0,0c0-0.1,0-0.2,0-0.2l0,0c0-0.1,0.1-0.3,0.1-0.4l0,0l0,0l0,0l0,0c0,0,0-0.1,0-0.2c0,0,0,0,0,0
										c0,0,0-0.1,0-0.1c0,0,0,0,0-0.1c0,0,0,0,0,0c0,0,0-0.1,0-0.1c0,0,0,0,0,0c0,0,0,0,0,0c0,0,0,0,0-0.1l0,0c0,0,0,0,0-0.1
										c0,0,0,0,0,0c0-0.1,0,0-0.1,0c0-0.1,0-0.2,0-0.3l0,0c0,0,0-0.1,0-0.1l0-0.1c0,0,0,0.1,0,0.1c0-0.1,0-0.2,0-0.2l0,0
										c0-0.1,0.1-0.3,0.1-0.3c0-0.1,0-0.2,0-0.2c0-0.1,0.1-0.1,0-0.2c0-0.1,0,0,0,0c0-0.1,0-0.1,0-0.2c0-0.1,0,0,0,0
										c0,0,0-0.1,0.1-0.2c0,0,0,0,0,0c0,0,0,0,0,0l0,0l0.1-0.1c0-0.1,0,0,0-0.1l0,0c0,0,0-0.1,0-0.2c0,0,0,0,0,0l0-0.1
										c0,0,0,0,0,0c0,0,0,0,0-0.1c0,0,0,0,0,0l0-0.1l0,0c0-0.1,0-0.2,0-0.3l0,0c0,0,0,0,0-0.1c0,0,0,0,0,0l0,0c0,0,0,0.1,0,0.2
										c0,0,0-0.1,0-0.1c0,0,0,0.1,0,0.2c0,0,0,0,0-0.1c0,0.1,0,0.1,0,0.1c0,0,0,0,0,0c0,0.1,0,0.1,0,0.2c0,0,0-0.1,0,0
										c0,0.1,0,0.1,0,0.3c0,0.2-0.1,0.3-0.1,0.4c0,0,0-0.1,0,0c0,0,0,0,0,0c0,0.1,0,0.1,0,0.2c0,0,0,0,0,0.1c0,0,0,0.1,0,0
										c0,0.1,0,0.2,0,0.3l0,0l0,0.1l0,0c0,0,0,0.1,0,0.1c0,0,0-0.1,0-0.1c0,0.1,0,0.1,0,0.2c0,0,0-0.1,0-0.1c0,0,0,0.1,0,0.1l0,0
										c0,0.1,0,0.1,0,0.1c0,0,0,0,0,0c0,0,0,0.1,0,0c0,0,0,0.1,0,0.1c0,0,0,0,0,0l0,0.2c0,0,0,0,0,0c-0.1,0.2,0,0.4-0.1,0.6
										c0,0,0,0,0,0c0,0.1,0,0.2-0.1,0.2l0,0c0,0.2,0,0.3,0,0.4c0,0,0,0,0,0c0,0.1-0.1,0.2,0,0.2l0,0c0,0.2,0,0.3-0.1,0.5
										c0,0,0-0.1,0-0.1c0,0.1,0,0.2-0.1,0.3c0,0,0,0,0,0c0,0.1,0,0,0,0.1c0,0,0,0,0,0l0,0c0,0,0,0,0,0c0,0,0,0.2,0,0.2
										c0,0,0,0,0,0c0,0.1,0,0.1,0,0.1l0,0c0,0,0,0.1,0,0.1c0,0.1,0,0,0,0.1l0-0.1l0,0.1l0-0.1c0,0.1,0,0.1,0,0.2l0,0l0,0.1
										c0,0,0,0.1,0,0.1c0,0.2,0,0.3,0,0.4c0,0,0,0,0,0c0,0.1,0,0.1,0,0.2c0,0,0,0,0,0c0,0.1,0,0.1,0,0.2c0,0,0,0,0,0c0,0,0,0,0,0
										c0-0.1,0,0.1-0.1,0.1c0,0,0,0.2,0,0.1l0,0c0,0,0,0,0,0.1c0,0,0,0,0,0c0,0.2-0.1,0.3-0.1,0.5c0,0,0-0.1,0,0
										c0,0.2,0,0.3,0,0.4c0,0,0-0.2,0-0.2c0,0.2,0,0.3-0.1,0.6c0,0,0,0.1,0,0.1c0,0,0,0.1,0,0.1c0,0.1,0,0.1-0.1,0.1
										c0,0,0,0-0.1,0.1c0,0,0,0,0,0c0,0-0.2,0.1-0.2,0.1c0,0-0.1,0.1-0.1,0.1c-0.1,0-0.1,0.1-0.2,0.1c0,0-0.1,0.1-0.1,0.1
										c0,0,0,0,0,0c0,0-0.1,0.1-0.1,0.1c0,0,0,0,0,0c0,0-0.1,0.1-0.2,0.1c0,0,0,0,0,0c-0.2,0.1-0.5,0.2-0.7,0.3l0,0
										c-0.2,0-0.1,0.1-0.2,0.1C10-3.7,9.7-3.7,9.3-3.7c0,0,0,0,0,0c0,0,0,0-0.1,0l0,0c-0.2,0-0.5,0-0.6-0.1
										c-0.2,0-0.3-0.1-0.4-0.1c-0.1,0,0.1,0,0,0l-0.2,0l0,0c-0.2,0-0.4-0.2-0.6-0.3l0,0c0,0,0,0-0.1,0c0,0,0,0,0,0
										C7.3-4.3,7.3-4.3,7.1-4.4c0.1,0,0,0,0-0.1c0,0,0,0-0.1,0C6.9-4.5,6.8-4.6,6.8-4.6c0,0-0.1-0.1-0.1,0c0,0-0.1-0.1-0.1-0.1
										c0,0,0-0.1,0-0.1c0-0.1,0-0.1,0-0.2l0,0c0,0,0-0.1,0-0.2c0,0,0,0,0,0l0-0.1c0,0,0,0,0,0c0-0.1,0,0,0,0l0,0c0,0,0-0.1,0,0
										c0-0.2-0.1-0.3-0.1-0.5l0,0c0-0.1,0-0.2,0-0.2c0,0,0,0,0,0c0-0.1,0,0,0-0.1c0,0,0,0.1,0,0.1L6.2-6.3c0,0,0-0.1,0-0.2
										c0,0,0,0,0,0l0-0.1l0,0l0-0.1l0,0c0-0.1-0.1-0.1-0.1-0.1c0-0.2,0-0.1,0-0.3C6-7,6-7.2,6-7.2c0-0.2-0.1-0.4-0.1-0.6l0,0
										c0-0.1-0.1-0.1-0.1-0.2l0,0c0-0.1-0.1-0.3-0.1-0.5c0,0,0,0,0,0c0,0,0,0,0,0c0,0,0,0,0,0l0-0.1c0-0.2-0.1-0.4-0.1-0.6
										c0,0,0,0,0,0c0-0.1-0.1-0.3-0.1-0.4l0,0c0-0.1,0,0,0-0.1c0,0,0,0.1,0,0.1c0-0.1,0-0.1-0.1-0.2l0,0c0-0.1,0-0.1-0.1-0.1
										c-0.1-0.1,0-0.1,0-0.3c0,0,0,0,0,0c0-0.1,0-0.1-0.1-0.3c0-0.1,0,0.1,0,0l0,0.1c0-0.1,0,0.1,0,0.1c0-0.1,0-0.2-0.1-0.2
										c0,0,0,0.1,0,0l0,0c0,0,0,0,0,0c0,0,0,0,0-0.1c0,0,0,0,0,0c0,0,0,0,0,0c0-0.1-0.1-0.2-0.1-0.3c0,0,0,0,0,0
										c0,0,0-0.1-0.1-0.2C5.1-11.1,5.2-11,5.1-11.2C5.1-11.1,5.1-11.1,5.1-11.2C5.1-11.2,5.1-11.1,5.1-11.2z M5.6-9.2
										C5.6-9.2,5.6-9.2,5.6-9.2L5.6-9.2C5.6-9.2,5.6-9.2,5.6-9.2z M5.6-9C5.6-9.1,5.6-9.1,5.6-9C5.6-9,5.6-9,5.6-9
										C5.6-9,5.6-9.1,5.6-9z M5.7-9.4L5.7-9.4C5.7-9.4,5.7-9.4,5.7-9.4C5.7-9.3,5.7-9.4,5.7-9.4C5.7-9.4,5.7-9.4,5.7-9.4z"/>
									<path fill="#202020" d="M5.6-9.4L5.6-9.4C5.6-9.4,5.6-9.4,5.6-9.4L5.6-9.4C5.7-9.4,5.6-9.4,5.6-9.4z"/>
									<polygon fill="#202020" points="13.3,-9.7 13.3,-9.7 13.3,-9.7 									"/>
									<polygon fill="#202020" points="6.1,-6.6 6.1,-6.6 6.1,-6.6 									"/>
									<path fill="#202020" d="M13.5-10.6C13.5-10.6,13.5-10.6,13.5-10.6C13.5-10.6,13.5-10.6,13.5-10.6z"/>
									<path fill="#202020" d="M13.6-11L13.6-11C13.6-11.1,13.6-11,13.6-11z"/>
									<polygon fill="#202020" points="13.7,-11.3 13.7,-11.3 13.7,-11.3 									"/>
									<path fill="#202020" d="M12.8-6.3C12.8-6.3,12.8-6.3,12.8-6.3C12.8-6.3,12.8-6.3,12.8-6.3z"/>
									<path fill="#202020" d="M13-7.8C13-7.8,13-7.8,13-7.8C13-7.8,13-7.8,13-7.8z"/>
									<polygon fill="#202020" points="12.4,-4.6 12.4,-4.6 12.3,-4.6 									"/>
									<path fill="#202020" d="M13-7.7C13-7.7,13-7.7,13-7.7C13-7.7,13-7.7,13-7.7z"/>
									<polygon fill="#202020" points="13.9,-12.7 13.9,-12.7 13.9,-12.7 									"/>
									<path fill="#202020" d="M13.9-12.7L13.9-12.7C13.9-12.7,13.9-12.7,13.9-12.7z"/>
									<path fill="#202020" d="M13.9-12.8L13.9-12.8C13.9-12.8,13.9-12.8,13.9-12.8z"/>
									<path fill="#202020" d="M13.8-12.3L13.8-12.3L13.8-12.3z"/>
									<path fill="#202020" d="M13.8-12.2c0,0,0-0.1,0-0.1l0,0C13.9-12.3,13.8-12.2,13.8-12.2z"/>
									<path fill="#202020" d="M13.6-11.7l0-0.1c0,0,0,0,0,0C13.6-11.6,13.7-11.8,13.6-11.7z"/>
									<path fill="#202020" d="M13.6-11.3C13.6-11.4,13.6-11.3,13.6-11.3C13.6-11.3,13.6-11.3,13.6-11.3z"/>
									<path fill="#202020" d="M13.1-8.9L13.1-8.9C13.1-8.9,13.1-8.9,13.1-8.9z"/>
									<polygon fill="#202020" points="13.1,-8.5 13.2,-8.5 13.2,-8.5 									"/>
									<polygon fill="#202020" points="13,-8.2 13,-8.2 13,-8.2 									"/>
									<path fill="#202020" d="M11.9-4.5L11.9-4.5C11.9-4.6,11.9-4.6,11.9-4.5z"/>
									<path fill="#202020" d="M10.3-3.9C10.2-3.9,10.2-3.9,10.3-3.9C10.2-3.9,10.2-3.9,10.3-3.9z"/>
									<polygon fill="#202020" points="6.4,-6.2 6.4,-6.2 6.4,-6.2 									"/>
								</g>
							</g>
						</g>
					</g>
				</g>
				<g>
					<g>
						<g>
							<g>
								<g>
									<path fill="#202020" d="M14-13.1C14-13.1,14-13.1,14-13.1L14-13.1L14-13.1z"/>
									<path fill="#202020" d="M13.9-13C13.9-12.9,13.8-12.9,13.9-13C13.9-12.9,13.9-12.9,13.9-13C13.9-13,13.9-13,13.9-13
										c0.1,0,0.1-0.1,0.1-0.1C13.9-13,13.9-13,13.9-13C13.9-12.9,13.9-13,13.9-13z"/>
									<path fill="#202020" d="M11.2-12.3L11.2-12.3C11.2-12.3,11.2-12.3,11.2-12.3z"/>
									<path fill="#202020" d="M9.5-12.3C9.6-12.3,9.6-12.3,9.5-12.3C9.6-12.3,9.5-12.3,9.5-12.3z"/>
									<path fill="#202020" d="M9.3-12.3C9.3-12.3,9.3-12.3,9.3-12.3C9.3-12.3,9.3-12.3,9.3-12.3z"/>
									<path fill="#202020" d="M11.2-12.3L11.2-12.3C11.2-12.3,11.2-12.3,11.2-12.3z"/>
									<polygon fill="#202020" points="13.6,-12.7 13.6,-12.7 13.6,-12.7 									"/>
									<polygon fill="#202020" points="12,-12.4 12,-12.4 12,-12.5 									"/>
									<path fill="#202020" d="M12.5-12.5C12.5-12.5,12.5-12.5,12.5-12.5C12.5-12.5,12.5-12.5,12.5-12.5
										C12.5-12.5,12.5-12.5,12.5-12.5z"/>
									<path fill="#202020" d="M13.4-12.7L13.4-12.7C13.4-12.7,13.4-12.7,13.4-12.7z"/>
									<path fill="#202020" d="M11.6-12.4L11.6-12.4L11.6-12.4z"/>
									<path fill="#202020" d="M13.5-13.6L13.5-13.6L13.5-13.6z"/>
									<polygon fill="#202020" points="13.9,-13.1 13.9,-13.1 13.9,-13.1 									"/>
									<path fill="#202020" d="M8.7-12.3L8.7-12.3C8.7-12.3,8.7-12.3,8.7-12.3z"/>
									<path fill="#202020" d="M5.3-13.4C5.2-13.4,5.3-13.5,5.3-13.4C5.3-13.5,5.2-13.4,5.3-13.4z"/>
									<path fill="#202020" d="M13.6-12.7L13.6-12.7C13.5-12.7,13.5-12.7,13.6-12.7z"/>
									<polygon fill="#202020" points="5.2,-13.5 5.2,-13.5 5.2,-13.5 									"/>
									<path fill="#202020" d="M7.5-12.4C7.5-12.4,7.5-12.4,7.5-12.4C7.5-12.4,7.5-12.4,7.5-12.4z"/>
									<path fill="#202020" d="M8.4-12.3L8.4-12.3C8.4-12.3,8.4-12.3,8.4-12.3z"/>
									<path fill="#202020" d="M7-12.4C7-12.4,7-12.4,7-12.4L7-12.4C7-12.4,7-12.4,7-12.4z"/>
									<polygon fill="#202020" points="6.6,-12.5 6.6,-12.5 6.6,-12.5 									"/>
									<path fill="#202020" d="M12-13.9C12-13.9,12-13.9,12-13.9C12-13.9,12.1-13.9,12-13.9z"/>
									<path fill="#202020" d="M13.6-12.7C13.6-12.7,13.6-12.7,13.6-12.7C13.6-12.7,13.6-12.7,13.6-12.7L13.6-12.7z"/>
									<path fill="#202020" d="M7-12.3L7-12.3C7-12.3,7-12.3,7-12.3z"/>
									<path fill="#202020" d="M8.5-14.1L8.5-14.1L8.5-14.1z"/>
									<path fill="#202020" d="M6.7-12.3C6.7-12.3,6.7-12.3,6.7-12.3L6.7-12.3L6.7-12.3z"/>
									<path fill="#202020" d="M12-13.9L12-13.9L12-13.9z"/>
									<path fill="#202020" d="M12.5-13.9C12.6-13.9,12.5-13.9,12.5-13.9c0.1,0,0.2,0.1,0.2,0c0,0,0,0,0.1,0c0,0,0.1,0,0.1,0
										c0,0-0.1,0,0,0.1c0,0,0.1,0,0.1,0c0,0,0,0,0.1,0c0,0,0,0,0,0c0.1,0,0.2,0.1,0.3,0c0,0,0.2,0.1,0.1,0.1c0,0,0.1,0,0.1,0
										c0,0,0.1,0,0.1,0.1c0,0,0.1,0,0.1,0c0,0,0,0,0,0c0,0,0,0,0.1,0c0.1,0,0,0,0,0c0,0,0,0,0,0l0.1,0c0,0,0,0,0,0
										c0,0,0.1,0,0.1,0.1l-0.1-0.1l0,0c0,0,0.1,0.1,0.1,0.1c0,0.2,0,0.1-0.1,0.1l0,0c0,0,0,0,0,0c0,0,0-0.1-0.1-0.1
										c-0.1-0.1,0,0,0-0.1c0,0-0.1-0.1-0.1-0.1l0,0c0,0,0,0,0,0c0,0-0.1-0.1-0.1-0.1l0,0c-0.1,0-0.2-0.1-0.3-0.1l-0.1,0l0,0
										c0,0-0.1,0-0.1,0c-0.2-0.1-0.5-0.1-0.8-0.2c0,0,0,0,0,0c-0.2-0.1-0.4,0-0.6-0.1l0,0c-0.1,0,0,0-0.1,0c0,0-0.1,0-0.2,0
										c0,0,0,0,0,0c0,0,0,0,0,0c-0.1,0-0.2,0-0.3,0c0,0-0.1,0-0.1-0.1c0,0,0,0-0.1,0c0,0-0.1,0-0.1,0c0,0,0.1,0,0.1,0l0,0
										c0,0,0,0,0,0c0,0,0,0,0,0c0,0,0,0,0,0c0,0-0.1,0-0.1,0c0,0,0,0-0.1,0c0,0,0,0,0,0l0,0l0,0c-0.1,0-0.2,0-0.2,0
										c0.1,0,0,0,0,0c0,0,0.1,0,0.1,0c0,0,0,0,0,0c-0.1,0-0.1,0-0.2,0c0,0,0,0,0,0c0,0-0.1,0-0.1,0c0,0-0.1,0-0.1,0
										c0,0,0,0-0.1,0l0,0c-0.1,0-0.1,0-0.1,0c0,0,0,0,0,0c-0.1,0-0.1,0-0.1,0l0,0c-0.1,0-0.2,0-0.2,0c0,0-0.1,0-0.2,0
										c0,0,0,0,0,0c-0.1,0-0.3,0-0.4,0l0,0c-0.1,0-0.1,0.1-0.2,0.1l0,0c-0.1,0-0.2,0-0.3,0l0,0c-0.1,0-0.1,0-0.1,0
										c-0.1,0-0.3,0-0.5,0l0,0c-0.1,0-0.1,0-0.2,0l0,0c0,0-0.1,0-0.1,0c0,0-0.1,0,0,0c-0.2,0-0.4,0-0.5,0c-0.2,0-0.3,0.1-0.4,0.1
										l0,0c-0.1,0-0.2,0-0.2,0c-0.1,0-0.2,0.1-0.3,0.1l0,0c0,0-0.1,0-0.1,0c0,0,0,0,0,0c0,0-0.1,0-0.1,0l0,0
										c-0.1,0-0.3,0.1-0.4,0.1c0,0,0,0,0,0c-0.1,0-0.2,0.1-0.3,0.1l0,0c-0.1,0.1-0.1,0-0.2,0l0.1,0c0,0-0.1,0-0.1,0
										c-0.1,0,0,0-0.1,0c0,0,0.1,0,0,0l-0.1,0c0,0,0,0-0.1,0c0,0-0.1,0,0,0.1c-0.1,0.1-0.3,0.1-0.3,0.2c-0.1,0,0,0.2,0,0.2
										c0,0.1,0.1,0.1,0.2,0.1c0,0,0,0,0,0c0,0,0.1,0,0.1,0.1c0,0-0.1,0-0.2-0.1c0.1,0,0.2,0.1,0.2,0.1l0,0c0.1,0,0,0,0.1,0l0,0
										c0.1,0,0.1,0,0.2,0l0,0c0,0,0.1,0,0.1,0l-0.1,0c0,0,0,0,0.1,0.1c0.1,0,0,0,0.1,0c0,0,0,0,0,0c0.1,0,0.2,0,0.3,0l0,0
										c0.1,0,0.2,0,0.2,0l0,0c0.1,0,0.2,0,0.2,0.1c0,0-0.1,0,0,0c0.1,0,0.1,0,0.2,0c0,0,0,0,0,0c0.1,0,0.2,0,0.2,0
										c0.1,0.1,0.3,0,0.4,0.1c0,0,0,0,0,0l0,0c0,0,0,0,0.1,0c0,0,0.1,0,0.1,0c0,0,0,0,0.1,0c-0.1,0,0,0-0.1,0c0.1,0,0.1,0,0.2,0
										l0.1,0c0,0,0.1,0,0.1,0c0,0,0,0,0,0c0,0,0.1,0,0.1,0l0,0c0.1,0,0.2,0,0.3,0l0,0c0.1,0,0.1,0,0.2,0c0,0,0,0,0,0
										c0,0-0.1,0-0.1,0l0.1,0l-0.1,0c0.1,0,0.1,0,0,0c0.1,0,0.1,0,0.2,0c0,0,0,0,0,0c0.1,0,0.1,0,0.2,0c0,0,0,0,0,0
										c0,0,0.1,0,0.1,0l0,0c0,0,0,0,0.1,0c0,0,0.1,0,0,0c0,0,0.1,0,0,0c0.1,0,0.1,0,0.1,0c0,0,0,0,0,0c0,0,0,0,0.1,0
										c-0.1,0,0,0-0.1,0c0,0,0.1,0,0.1,0c0.1,0,0,0,0,0c0,0,0,0,0,0l0,0c0,0,0,0,0.1,0l0,0c0,0,0.1,0,0.2,0c0,0-0.1,0,0,0
										c0.1,0,0,0,0.1,0c0.1,0,0,0,0.1,0c0,0,0,0,0,0c0.1,0,0.1,0,0.2,0c0,0-0.1,0,0,0c0,0,0.1,0,0.1,0l0,0c0,0,0,0,0,0
										c0,0,0,0,0,0c0,0,0,0,0,0c0.1,0,0.1,0,0,0c0.1,0,0.1,0,0.2,0c0,0,0.1,0,0.2,0c0,0-0.1,0,0,0c0.1,0,0.2,0,0.4,0l0,0
										c0,0,0.1,0,0.1,0l0,0c0,0,0.1,0,0.1,0c0.1,0,0.1,0,0.2,0c-0.1,0,0,0-0.1,0c0.1,0,0.1,0,0.1,0c0,0,0,0,0,0c0,0,0.1,0,0.2,0
										l0,0c0.1,0,0.2,0,0.4,0l0,0l0,0l0,0l0,0c0,0,0.1,0,0.1,0c0,0,0,0,0,0c0,0,0,0,0.1,0c0,0,0,0,0.1,0c0,0,0,0,0,0
										c0,0,0.1,0,0.1,0c0,0,0,0,0,0c0,0,0,0,0,0c0,0,0,0,0.1,0l0,0c0,0,0,0,0,0c0,0,0,0,0,0c0.1,0,0,0,0-0.1c0.1,0,0.2,0,0.2,0
										l0,0c0,0,0,0,0.1,0l0.1,0c0,0,0,0,0,0c0.1,0,0.1,0,0.1,0l0,0c0.1,0,0.2,0,0.2,0c0.1,0,0.2,0,0.2-0.1c0,0,0.1,0,0.2,0
										c0.1,0,0,0,0,0c0.1,0,0.1-0.1,0.1,0c0.1,0,0,0,0,0c0,0,0.1,0,0.2,0c0,0,0,0,0,0c0,0,0,0,0,0l0,0l0.1,0c0.1-0.1,0,0,0.1-0.1
										l0,0c0,0,0.1,0,0.2-0.1c0,0,0,0,0,0l0,0c0,0,0,0,0,0c0,0,0,0,0.1,0c0,0,0,0,0,0l0.1-0.1l0,0c0.1,0,0.1-0.1,0.2-0.1l0,0
										c0,0,0,0,0.1,0c0,0,0,0,0,0l0,0c0,0-0.1,0.1-0.1,0.1c0,0,0,0,0,0c0,0-0.1,0.1-0.1,0.1c0,0,0,0,0,0c-0.1,0,0,0-0.1,0
										c0,0,0,0,0,0c0,0-0.1,0-0.1,0.1c0,0,0.1,0,0,0c-0.1,0-0.1,0.1-0.2,0.1c-0.1,0.1-0.2,0-0.3,0.1c0,0,0.1,0,0,0c0,0,0,0,0,0
										c-0.1,0-0.1,0-0.1,0c0,0,0,0-0.1,0c0,0-0.1,0,0,0c-0.1,0.1-0.2,0-0.2,0.1l0,0l-0.1,0l0,0c0,0,0,0-0.1,0c0,0,0,0,0.1,0
										c-0.1,0-0.1,0-0.2,0c0,0,0.1,0,0,0c0,0-0.1,0-0.1,0l0,0c-0.1,0,0,0-0.1,0c0,0,0,0,0,0c0,0-0.1,0,0,0c0,0-0.1,0-0.1,0
										c0,0,0,0,0,0l-0.1,0c0,0,0,0,0,0c-0.2,0-0.3,0.1-0.5,0c0,0,0,0,0,0c-0.1,0-0.1,0-0.2,0l0,0c-0.1,0-0.2,0-0.3,0c0,0,0,0,0,0
										c-0.1,0-0.1,0-0.2,0l0,0c-0.1,0-0.3,0-0.4,0c0,0,0.1,0,0,0c-0.1,0-0.2,0-0.3,0c0,0,0,0,0,0c-0.1,0,0,0-0.1,0c0,0,0,0,0,0
										l0,0c0,0,0,0,0,0c0,0-0.2,0-0.2,0c0,0,0,0,0,0c0,0-0.1,0-0.1,0l0,0c0,0-0.1,0-0.1,0c-0.1,0,0,0-0.1,0l0.1,0l-0.1,0l0,0
										c-0.1,0-0.1,0-0.2,0l0,0l-0.1,0c0,0-0.1,0-0.1,0c-0.1,0-0.2,0-0.3,0c0,0,0,0,0,0c-0.1,0-0.1,0-0.2,0c0,0,0,0,0,0
										c-0.1,0-0.1,0-0.1,0c0,0,0,0,0,0c0,0,0,0,0,0c0.1-0.1-0.1,0-0.1-0.1c0,0-0.1,0-0.1,0.1l0,0c0,0,0,0-0.1,0c0,0,0,0,0,0
										c-0.1,0-0.3,0-0.4,0c0,0,0.1,0,0,0c-0.1,0-0.2,0-0.4,0c0,0,0.2,0,0.2,0c-0.1,0-0.3,0-0.5,0c-0.1-0.1-0.2,0-0.3,0
										c0,0,0,0-0.1,0c0,0,0,0,0,0c-0.1,0-0.2,0-0.2,0c0,0-0.1,0-0.2,0c-0.1,0-0.1,0-0.2,0c0,0-0.1,0-0.1,0c0,0,0,0,0,0
										c0,0-0.1,0-0.1,0c0,0,0,0,0,0c0,0-0.1,0-0.2,0c0,0,0,0,0,0c-0.2,0-0.4-0.1-0.6-0.1l0,0c-0.1-0.1-0.1,0-0.2,0
										c-0.1-0.1-0.3-0.1-0.4-0.2c-0.1,0-0.1-0.1-0.2-0.2c0-0.1,0-0.2,0.1-0.3c0,0,0,0,0,0c0,0,0,0,0.1-0.1l0,0
										c0.1-0.1,0.3-0.2,0.5-0.2c0.1-0.1,0.2-0.1,0.3-0.1c0,0,0,0,0,0l0.1-0.1l0,0c0.1-0.1,0.4,0,0.5-0.1l0,0c0,0,0,0,0.1,0
										c0,0,0,0,0,0c0.1,0,0.2,0,0.3-0.1c0,0,0,0,0.1,0c0,0,0,0,0,0c0.1,0,0.2,0,0.3,0C7-14,7-14,7-14c0.1,0,0.2,0,0.3,0l0,0
										c0,0,0.1,0,0.1,0c0,0,0,0,0,0l0.1,0c0,0,0,0,0,0c0.1,0,0,0,0,0l0,0c0,0,0,0,0,0c0.1,0,0.3,0,0.4,0l0,0c0.1,0,0.2,0,0.2,0
										c0,0,0,0,0,0c0.1,0,0,0,0.1,0c0,0,0,0-0.1,0l0.2,0c0,0,0.1,0,0.2,0c0,0,0,0,0,0l0,0l0,0l0.1,0l0,0c0,0,0.1,0,0.1,0
										c0.1,0,0.1,0,0.2,0c0,0,0.2,0,0.2,0c0.1,0,0.3,0,0.5,0l0,0c0.1,0,0.1,0,0.2,0l0,0c0.1,0,0.3,0,0.4,0c0,0,0,0,0,0
										c0,0,0,0,0,0c0,0,0,0,0,0l0.1,0c0.1,0,0.3,0,0.5,0c0,0,0,0,0,0c0.1,0,0.3,0,0.4,0l0,0c0.1,0,0,0,0.1,0c0,0,0,0-0.1,0
										c0.1,0,0.1,0,0.2,0l0,0c0.1,0,0.1,0,0.1,0c0.1,0,0.1,0.1,0.2,0.1c0,0,0,0,0,0c0.1,0,0.1,0,0.2,0c0.1,0-0.1,0,0,0l-0.1,0
										c0.1,0-0.1,0-0.1,0c0.1,0,0.1,0,0.2,0c0,0-0.1,0-0.1,0l0,0c0,0,0,0,0,0c0,0,0,0,0.1,0c0,0,0,0,0,0c0,0,0,0,0,0
										c0.1,0,0.2,0,0.2,0c0,0,0,0,0,0C12.3-13.9,12.4-13.9,12.5-13.9C12.5-13.9,12.4-13.9,12.5-13.9
										C12.5-13.9,12.5-13.9,12.5-13.9C12.5-13.9,12.5-13.9,12.5-13.9z M10.8-14C10.8-14,10.8-14,10.8-14L10.8-14
										C10.8-14,10.8-14,10.8-14z M10.7-14C10.7-14,10.7-14,10.7-14C10.7-14,10.7-14,10.7-14C10.7-14,10.7-14,10.7-14z M11-13.9
										L11-13.9C10.9-13.9,10.9-13.9,11-13.9C10.9-13.9,10.9-13.9,11-13.9C11-13.9,11-13.9,11-13.9z"/>
									<path fill="#202020" d="M11-13.9L11-13.9C11-13.9,11-13.9,11-13.9L11-13.9L11-13.9z"/>
									<polygon fill="#202020" points="11.3,-12.3 11.3,-12.3 11.3,-12.3 									"/>
									<polygon fill="#202020" points="8.6,-14.1 8.6,-14.1 8.7,-14.1 									"/>
									<path fill="#202020" d="M12.1-12.4C12.1-12.4,12.1-12.4,12.1-12.4C12.1-12.4,12.1-12.4,12.1-12.4z"/>
									<path fill="#202020" d="M12.4-12.4L12.4-12.4C12.4-12.4,12.4-12.4,12.4-12.4z"/>
									<polygon fill="#202020" points="12.7,-12.5 12.7,-12.5 12.7,-12.5 									"/>
									<path fill="#202020" d="M8.4-12.2C8.4-12.2,8.4-12.2,8.4-12.2C8.4-12.2,8.4-12.2,8.4-12.2z"/>
									<path fill="#202020" d="M9.7-12.2C9.7-12.2,9.7-12.2,9.7-12.2C9.7-12.2,9.7-12.2,9.7-12.2z"/>
									<polygon fill="#202020" points="7,-12.3 7,-12.3 7,-12.3 									"/>
									<path fill="#202020" d="M9.6-12.2C9.6-12.2,9.6-12.2,9.6-12.2C9.6-12.2,9.6-12.2,9.6-12.2z"/>
									<polygon fill="#202020" points="13.8,-12.8 13.8,-12.8 13.8,-12.8 									"/>
									<path fill="#202020" d="M13.8-12.8L13.8-12.8C13.8-12.8,13.8-12.8,13.8-12.8z"/>
									<path fill="#202020" d="M13.8-12.9L13.8-12.9C13.8-12.9,13.8-12.9,13.8-12.9z"/>
									<path fill="#202020" d="M13.5-12.7L13.5-12.7L13.5-12.7z"/>
									<path fill="#202020" d="M13.4-12.6C13.4-12.6,13.4-12.6,13.4-12.6l0.1,0C13.4-12.6,13.4-12.6,13.4-12.6z"/>
									<path fill="#202020" d="M12.9-12.6L12.9-12.6C13-12.6,12.9-12.6,12.9-12.6C12.9-12.6,13-12.6,12.9-12.6z"/>
									<path fill="#202020" d="M12.6-12.5C12.7-12.6,12.6-12.6,12.6-12.5C12.6-12.5,12.6-12.5,12.6-12.5z"/>
									<path fill="#202020" d="M10.6-12.3L10.6-12.3C10.6-12.3,10.6-12.3,10.6-12.3z"/>
									<polygon fill="#202020" points="10.2,-12.2 10.3,-12.2 10.3,-12.2 									"/>
									<polygon fill="#202020" points="10,-12.3 10,-12.3 10,-12.3 									"/>
									<path fill="#202020" d="M6.6-12.5L6.6-12.5C6.7-12.5,6.7-12.5,6.6-12.5z"/>
									<path fill="#202020" d="M5.2-12.8C5.2-12.8,5.2-12.8,5.2-12.8C5.2-12.8,5.2-12.8,5.2-12.8z"/>
									<polygon fill="#202020" points="8.3,-13.9 8.2,-13.9 8.3,-13.9 									"/>
								</g>
							</g>
						</g>
					</g>
				</g>
			</g>
			<g>
				<g>
					<g>
						<g>
							<g>
								<path fill="#202020" d="M9.6-13.1C9.6-13.1,9.6-13.2,9.6-13.1L9.6-13.1L9.6-13.1z"/>
								<path fill="#202020" d="M9.5-13.1C9.5-13.1,9.4-13.1,9.5-13.1C9.5-13.1,9.5-13.1,9.5-13.1C9.5-13.1,9.5-13.1,9.5-13.1
									C9.5-13.1,9.6-13.1,9.5-13.1C9.5-13.2,9.5-13.1,9.5-13.1C9.5-13.1,9.5-13.1,9.5-13.1z"/>
								<path fill="#202020" d="M7.8-13.4L7.8-13.4C7.8-13.4,7.8-13.4,7.8-13.4z"/>
								<path fill="#202020" d="M8.9-13.5C8.9-13.5,8.9-13.5,8.9-13.5C8.9-13.5,8.9-13.5,8.9-13.5z"/>
								<path fill="#202020" d="M9.1-13.5C9.1-13.5,9.1-13.5,9.1-13.5C9.1-13.5,9.1-13.5,9.1-13.5z"/>
								<path fill="#202020" d="M7.8-13.4L7.8-13.4C7.8-13.4,7.8-13.4,7.8-13.4z"/>
								<path fill="#202020" d="M9.2-13L9.2-13C9.2-13.1,9.2-13.1,9.2-13L9.2-13z"/>
								<polygon fill="#202020" points="8.1,-13.3 8.1,-13.3 8.1,-13.3 								"/>
								<path fill="#202020" d="M8.5-13.2C8.5-13.2,8.4-13.2,8.5-13.2C8.5-13.2,8.5-13.2,8.5-13.2C8.5-13.2,8.5-13.2,8.5-13.2z"/>
								<path fill="#202020" d="M9.1-13.1L9.1-13.1L9.1-13.1z"/>
								<path fill="#202020" d="M7.9-13.4C7.9-13.4,7.9-13.4,7.9-13.4L7.9-13.4z"/>
								<path fill="#202020" d="M6.1-12.9L6.1-12.9L6.1-12.9z"/>
								<polygon fill="#202020" points="5.7,-13.2 5.7,-13.2 5.7,-13.2 								"/>
								<path fill="#202020" d="M9.5-13.5L9.5-13.5C9.5-13.5,9.5-13.5,9.5-13.5z"/>
								<path fill="#202020" d="M12.1-13.1C12.2-13.1,12.1-13,12.1-13.1C12.2-13,12.2-13.1,12.1-13.1z"/>
								<path fill="#202020" d="M9.2-13L9.2-13C9.2-13,9.2-13,9.2-13z"/>
								<polygon fill="#202020" points="12.2,-13 12.2,-13 12.2,-13 								"/>
								<path fill="#202020" d="M10.4-13.6L10.4-13.6C10.4-13.6,10.4-13.6,10.4-13.6z"/>
								<path fill="#202020" d="M9.7-13.6L9.7-13.6C9.7-13.6,9.7-13.6,9.7-13.6z"/>
								<path fill="#202020" d="M10.7-13.7C10.7-13.7,10.7-13.7,10.7-13.7L10.7-13.7C10.7-13.7,10.7-13.7,10.7-13.7z"/>
								<polygon fill="#202020" points="11.1,-13.7 11.1,-13.7 11.1,-13.7 								"/>
								<path fill="#202020" d="M7.3-12.8C7.2-12.8,7.2-12.8,7.3-12.8C7.2-12.8,7.2-12.8,7.3-12.8z"/>
								<path fill="#202020" d="M9.2-13.1C9.2-13.1,9.2-13,9.2-13.1L9.2-13.1L9.2-13.1z"/>
								<path fill="#202020" d="M10.7-13.8L10.7-13.8C10.8-13.8,10.7-13.8,10.7-13.8z"/>
								<path fill="#202020" d="M9.8-12.6L9.8-12.6C9.8-12.6,9.8-12.6,9.8-12.6z"/>
								<path fill="#202020" d="M11-13.9C11-13.8,11-13.8,11-13.9L11-13.9L11-13.9z"/>
								<path fill="#202020" d="M7.2-12.8L7.2-12.8L7.2-12.8z"/>
								<path fill="#202020" d="M6.9-12.8C6.8-12.8,6.9-12.8,6.9-12.8c-0.1,0-0.1,0-0.1,0c0,0,0,0,0,0c0,0-0.1,0-0.1,0
									c0,0,0.1,0,0-0.1c0,0-0.1,0-0.1,0c0,0,0,0-0.1,0c0,0,0,0,0,0c-0.1,0-0.2,0-0.2,0c0,0-0.1,0-0.1-0.1c0,0-0.1,0-0.1,0
									c0,0-0.1,0-0.1-0.1C6-13,6-13,6-13c0,0,0,0,0,0c0,0,0,0,0,0c0,0,0,0,0,0c0,0,0,0,0,0l-0.1,0c0,0,0,0,0,0c0,0,0,0-0.1,0l0,0
									l0,0l-0.1,0c-0.1-0.1,0-0.1,0-0.1l0,0c0,0,0,0,0,0c0,0,0.1,0,0.1,0c0.1,0,0,0,0.1,0.1l0.1,0l0,0c0,0,0,0,0,0
									c0,0,0.1,0,0.1,0l0,0c0.1,0,0.1,0.1,0.2,0.1l0.1,0l0,0c0,0,0,0,0.1,0c0.2,0.1,0.4,0,0.6,0.1c0,0,0,0,0,0
									c0.2,0.1,0.3-0.1,0.4,0l0,0c0.1,0,0,0,0,0c0,0,0.1,0,0.1,0c0,0,0,0,0,0c0,0,0,0,0,0c0,0,0.2,0,0.2,0c0,0,0.1,0,0.1,0.1
									c0,0,0,0,0,0c0,0,0,0,0.1,0c0,0,0,0-0.1,0l0,0c0,0,0,0,0,0c0,0,0,0,0,0c0,0,0,0,0,0C8-13,8-13,8-13c0,0,0,0,0,0c0,0,0,0,0,0
									l0,0l0,0c0,0,0.1,0,0.2,0c0,0,0,0,0,0c0,0,0,0-0.1,0c0,0,0,0,0,0c0.1,0,0.1,0,0.2,0c0,0,0,0,0,0c0,0,0.1,0,0.1,0
									c0,0,0.1,0,0.1,0.1c0,0,0,0,0.1,0l0,0c0,0,0,0,0.1,0c0,0,0,0,0,0c0.1,0,0.1,0,0.1,0l0,0c0,0,0.1,0,0.1,0c0,0,0.1,0,0.1,0
									c0,0,0,0,0,0c0.1,0,0.2,0,0.3,0l0,0c0,0,0.1-0.1,0.1-0.1l0,0c0.1,0,0.1,0,0.2,0l0,0c0,0,0,0,0.1,0c0.1,0,0.2,0,0.4,0l0,0
									c0,0,0.1,0,0.1,0l0,0c0,0,0,0,0.1,0c0,0,0,0,0,0c0.1,0,0.3,0,0.4,0c0.1,0,0.2-0.1,0.3-0.1l0,0c0,0,0.1,0,0.1,0
									c0.1,0,0.1-0.1,0.2-0.1l0,0c0,0,0.1,0,0.1,0c0,0,0,0,0,0c0,0,0,0,0.1,0l0,0c0.1,0,0.2,0,0.3,0c0,0,0,0,0,0
									c0,0,0.2,0,0.2-0.1l0,0c0.1,0,0.1,0,0.2,0L12-13c0,0,0.1,0,0,0c0,0,0,0,0.1,0c0,0,0,0,0,0l0.1,0c0,0,0,0,0,0
									c0,0,0.1,0,0-0.1c0.1-0.1,0.1-0.1,0.1-0.2c0.1,0-0.1-0.2,0-0.2c0,0-0.1-0.1-0.1-0.1c0,0,0,0,0,0c0,0-0.1,0-0.1-0.1
									c0,0,0.1,0,0.1,0c0,0-0.1-0.1-0.1-0.1l0,0c0,0,0,0-0.1,0l0,0c-0.1,0-0.1,0-0.2,0l0,0c0,0-0.1,0-0.1,0l0,0c0,0,0,0-0.1,0
									c-0.1,0,0,0-0.1,0c0,0,0,0,0,0c-0.1,0-0.1,0-0.2,0l0,0c-0.1,0-0.1,0-0.2,0l0,0c-0.1,0-0.1,0-0.1,0c0,0,0.1,0,0,0
									c-0.1,0,0,0-0.1,0c0,0,0,0,0,0c0,0-0.1,0-0.2,0c-0.1,0-0.2,0-0.3,0c0,0,0,0,0,0l0,0c0,0,0,0,0,0c0,0-0.1,0-0.1,0
									c0,0,0,0,0,0c0,0,0,0,0,0c-0.1,0-0.1,0.1-0.2,0.1l0,0c0,0-0.1,0-0.1,0c0,0,0,0,0,0c0,0-0.1,0-0.1,0l0,0c-0.1,0-0.1,0-0.2,0
									l0,0c0,0-0.1,0-0.1,0c0,0,0,0,0,0c0,0,0.1,0,0.1,0l-0.1,0l0.1,0c0,0,0,0,0,0c-0.1,0-0.1,0-0.1,0c0,0,0,0,0,0
									c-0.1,0-0.1,0-0.1,0c0,0,0,0,0,0c0,0-0.1,0-0.1,0l0,0c0,0,0,0-0.1,0c0,0,0,0,0,0c0,0,0,0,0,0c-0.1,0,0,0-0.1,0c0,0,0,0,0,0
									c0,0,0,0,0,0c0.1,0,0,0,0.1,0c0,0-0.1,0-0.1,0c0,0,0,0,0,0c0,0,0,0,0,0l0,0c0,0,0,0,0,0l0,0c0,0-0.1,0-0.1,0c0,0,0,0,0,0
									c-0.1,0,0,0-0.1,0c-0.1,0,0,0-0.1,0c0,0,0,0,0,0c-0.1,0-0.1,0-0.2,0c0,0,0,0,0,0c0,0-0.1,0-0.1,0l0,0c0,0,0,0,0,0
									c0,0,0,0,0,0c0,0,0,0,0,0c-0.1,0,0,0,0,0c-0.1,0-0.1,0-0.1,0c0,0-0.1,0-0.1,0c0,0,0.1,0,0,0c-0.1,0-0.2,0-0.3,0l0,0
									c0,0,0,0-0.1,0l0,0c0,0-0.1,0-0.1,0c-0.1,0-0.1,0-0.1,0c0.1,0,0,0,0,0c-0.1,0-0.1,0-0.1,0c0,0,0,0,0,0c0,0-0.1,0-0.1,0l0,0
									c0,0-0.2,0-0.2,0l0,0l0,0l0,0l0,0c0.1,0,0,0,0.1,0c0,0,0,0,0,0c0.1,0,0.1,0,0.1,0c0,0-0.1,0,0,0c0,0,0,0,0.1,0c0,0,0,0,0,0
									c0,0,0,0,0,0c0,0,0,0,0,0c0,0,0,0,0.1,0l-0.1,0c0,0,0,0,0,0c0,0-0.1,0-0.1,0c0.1,0,0.1,0,0.1,0c0,0,0.1,0,0.1,0l0,0
									c0,0,0,0,0,0l0,0c0,0,0,0,0,0c0,0,0.1,0,0.1,0l0,0c0,0,0.2,0.1,0.2,0.1c0.1,0,0.1,0,0.1,0c0,0,0.1,0,0.1,0c0,0,0,0,0,0
									c0,0,0.1,0,0.1,0c0,0,0,0,0,0c0,0,0.1,0,0.1,0c0,0,0,0,0,0c0,0,0,0,0,0l0,0l0,0.1c0.1,0,0,0,0.1,0l0,0c0,0,0.1,0,0.1,0
									c0,0,0,0,0,0l0,0l0,0c0,0,0,0,0.1,0c0,0,0,0,0,0l0.1,0l0,0c0.1,0,0.1-0.1,0.2,0l0,0c0,0,0,0,0.1,0c0,0,0,0,0,0l0,0
									c0,0-0.1,0-0.1,0c0,0,0,0,0,0c0,0-0.1,0-0.1,0c0,0,0,0,0,0c0,0,0,0-0.1,0c0,0,0,0,0,0c0,0-0.1,0-0.1,0c0,0,0,0,0,0
									c-0.1,0-0.1,0-0.2,0.1c-0.1,0-0.2,0-0.2,0c0,0,0,0,0,0c0,0,0,0,0,0c0,0-0.1,0-0.1,0c0,0,0,0,0,0c0,0,0,0,0,0
									c-0.1,0-0.1,0-0.2,0l0,0l-0.1,0l0,0c0,0,0,0-0.1,0c0,0,0,0,0.1,0c0,0-0.1,0-0.1,0c0,0,0,0,0,0c0,0-0.1,0-0.1,0l0,0
									c-0.1,0,0,0-0.1,0c0,0,0,0,0,0c0,0-0.1,0,0,0c0,0-0.1,0-0.1,0c0,0,0,0,0,0l-0.1,0c0,0,0,0,0,0c-0.1-0.1-0.4-0.1-0.4-0.2
									c0,0,0,0-0.1,0c0,0,0,0,0,0l0.1,0c0,0,0,0,0.1,0l0,0c0.1,0,0.2,0,0.3,0c0,0,0,0,0,0c0.1,0,0.2,0,0.2,0l0,0
									c0.1,0,0.2,0,0.3-0.1c0,0-0.1,0,0,0c0.1,0,0.1,0,0.2,0c0,0,0,0,0,0c0.1,0,0,0,0.1,0c0,0,0,0,0,0l0,0c0,0,0,0,0,0
									c0,0,0.1,0,0.1,0c0,0,0,0,0,0c0,0,0.1,0,0.1,0l0,0c0,0,0.1,0,0.1,0c0.1,0,0,0,0.1,0l0,0l0.1,0l0,0c0,0,0.1,0,0.1,0l0,0
									l0.1,0c0,0,0.1,0,0,0c0.1,0,0.2,0,0.2,0c0,0,0,0,0,0c0.1,0,0.1,0,0.1,0c0,0,0,0,0,0c0.1,0,0,0,0.1,0c0,0,0,0,0,0
									c0,0,0,0,0,0c0,0.1,0.1,0,0,0.1c0,0,0.1,0,0.1-0.1l0,0c0,0,0,0,0,0c0,0,0,0,0,0c0.1,0,0.2,0,0.3,0c0,0-0.1,0,0,0
									c0.1,0,0.2,0,0.3-0.1c0,0-0.1,0-0.1,0c0.1,0,0.2,0,0.3-0.1c0,0,0.1,0,0.2,0c0,0,0,0,0.1,0c0,0,0,0,0,0c0,0,0.1,0,0.1,0
									c0,0,0.1,0,0.1,0c0,0,0.1,0,0.2,0c0,0,0.1,0,0.1,0c0,0,0,0,0,0c0,0,0.1,0,0.1,0c0,0,0,0,0,0c0,0,0.1,0,0.1,0c0,0,0,0,0,0
									c0.2,0,0.3,0,0.5,0l0,0c0.1,0.1,0.1,0,0.2,0c0.2,0.1,0.4,0.3,0.4,0.6c0,0,0,0,0,0c0,0,0,0,0,0.1l0,0c0,0.1-0.2,0.3-0.3,0.3
									c-0.1,0.1-0.2,0-0.3,0.1c0,0,0,0,0,0l-0.1,0l0,0c-0.1,0-0.3,0-0.4,0l0,0c0,0,0,0,0,0c0,0,0,0,0,0c-0.1,0-0.1,0-0.2,0
									c0,0,0,0,0,0c0,0,0,0,0,0c-0.1,0-0.1,0-0.2,0c0,0-0.1,0-0.1,0c-0.1,0-0.1,0-0.2,0l0,0c0,0-0.1,0-0.1,0c0,0,0,0,0,0l0,0
									c0,0,0,0,0,0c0,0,0,0,0,0l0,0c0,0,0,0,0,0c-0.1,0-0.2,0-0.3,0l0,0c0,0-0.1,0-0.1,0c0,0,0,0,0,0c-0.1,0,0,0-0.1,0
									c0,0,0,0,0,0l-0.1,0c0,0-0.1,0-0.1,0c0,0,0,0,0,0l0,0l0,0l0,0l0,0c0,0,0,0-0.1,0c-0.1,0-0.1,0-0.2,0c0,0-0.1,0-0.1,0
									c-0.1,0-0.3,0-0.4,0l0,0c-0.1,0-0.1,0-0.1,0l0,0c-0.1,0-0.2-0.1-0.3-0.1c0,0,0,0,0,0c0,0,0,0,0,0c0,0,0,0,0,0l0,0
									c-0.1,0-0.2-0.1-0.3-0.1c0,0,0,0,0,0c-0.1,0-0.2,0-0.3,0l0,0c0,0,0,0-0.1,0c0,0,0,0,0,0c-0.1,0,0,0-0.1,0l0,0
									c-0.1,0-0.1,0-0.1,0c-0.1,0-0.1-0.1-0.2,0c0,0,0,0,0,0c-0.1,0-0.1,0-0.2,0c0,0,0,0,0,0l0.1,0c-0.1,0,0,0,0,0
									c0,0-0.1,0-0.1,0c0,0,0.1,0,0,0l0,0c0,0,0,0,0,0c0,0,0,0-0.1,0c0,0,0,0,0,0l0,0c-0.1,0-0.1,0-0.2,0c0,0,0,0,0,0
									C7-12.8,7-12.8,6.9-12.8C6.9-12.8,7-12.8,6.9-12.8C6.9-12.8,6.9-12.8,6.9-12.8C6.8-12.8,6.9-12.8,6.9-12.8z M8.1-12.8
									C8.1-12.8,8.1-12.8,8.1-12.8L8.1-12.8C8.1-12.8,8.1-12.8,8.1-12.8z M8.2-12.8C8.2-12.8,8.2-12.8,8.2-12.8L8.2-12.8
									C8.2-12.8,8.2-12.8,8.2-12.8z M8-13L8-13C8-13,8-13,8-13C8-13,8-13,8-13L8-13z"/>
								<polygon fill="#202020" points="8,-12.9 8,-12.9 8,-12.9 8,-12.9 								"/>
								<path fill="#202020" d="M7.8-13.4L7.8-13.4C7.8-13.4,7.8-13.4,7.8-13.4L7.8-13.4z"/>
								<polygon fill="#202020" points="9.7,-12.6 9.7,-12.6 9.7,-12.6 								"/>
								<path fill="#202020" d="M8.1-13.2L8.1-13.2L8.1-13.2z"/>
								<path fill="#202020" d="M8.3-13.1L8.3-13.1C8.4-13.1,8.3-13.1,8.3-13.1z"/>
								<polygon fill="#202020" points="8.5,-13.1 8.5,-13.1 8.5,-13.1 								"/>
								<path fill="#202020" d="M9.7-13.7L9.7-13.7C9.7-13.7,9.7-13.7,9.7-13.7z"/>
								<path fill="#202020" d="M8.8-13.6C8.8-13.6,8.8-13.6,8.8-13.6C8.8-13.6,8.8-13.6,8.8-13.6z"/>
								<polygon fill="#202020" points="10.7,-13.8 10.7,-13.8 10.7,-13.8 								"/>
								<path fill="#202020" d="M8.9-13.6C8.8-13.6,8.8-13.6,8.9-13.6C8.8-13.6,8.8-13.6,8.9-13.6z"/>
								<polygon fill="#202020" points="9.4,-13.1 9.4,-13.1 9.4,-13.1 								"/>
								<path fill="#202020" d="M9.4-13.1L9.4-13.1L9.4-13.1z"/>
								<path fill="#202020" d="M9.4-13.1L9.4-13.1C9.4-13.1,9.4-13.1,9.4-13.1z"/>
								<path fill="#202020" d="M9.1-13L9.1-13L9.1-13z"/>
								<path fill="#202020" d="M9-13C9.1-13,9.1-13,9-13L9-13C9.1-13,9.1-13.1,9-13z"/>
								<path fill="#202020" d="M8.7-13.1L8.7-13.1C8.8-13.1,8.8-13.1,8.7-13.1C8.7-13.2,8.8-13.1,8.7-13.1z"/>
								<path fill="#202020" d="M8.5-13.2C8.6-13.2,8.5-13.2,8.5-13.2C8.5-13.2,8.5-13.2,8.5-13.2z"/>
								<path fill="#202020" d="M8.1-13.4L8.1-13.4C8.1-13.4,8.1-13.4,8.1-13.4z"/>
								<polygon fill="#202020" points="8.4,-13.6 8.4,-13.6 8.3,-13.6 								"/>
								<polygon fill="#202020" points="8.6,-13.4 8.6,-13.4 8.6,-13.5 								"/>
								<path fill="#202020" d="M11-13.7L11-13.7C11-13.7,11-13.7,11-13.7z"/>
								<path fill="#202020" d="M12-13.6C12.1-13.6,12.1-13.6,12-13.6C12.1-13.6,12.1-13.6,12-13.6z"/>
								<polygon fill="#202020" points="10,-12.8 10,-12.8 9.9,-12.8 								"/>
							</g>
						</g>
					</g>
				</g>
			</g>
		</g>
	</g>
</pattern>
<pattern  id="SVGID_1_" xlink:href="#New_Pattern_Swatch_8" patternTransform="matrix(0.49 0 0 0.49 -4156.5215 -4199.8833)">
</pattern>
<rect opacity="0.4" fill="url(#SVGID_1_)" width="72" height="72"/>
</svg>
