<?xml version="1.0" encoding="utf-8"?>
<!-- Generator: Adobe Illustrator 18.0.0, SVG Export Plug-In . SVG Version: 6.00 Build 0)  -->
<!DOCTYPE svg PUBLIC "-//W3C//DTD SVG 1.1//EN" "http://www.w3.org/Graphics/SVG/1.1/DTD/svg11.dtd">
<svg version="1.1" id="Layer_1" xmlns="http://www.w3.org/2000/svg" xmlns:xlink="http://www.w3.org/1999/xlink" x="0px" y="0px"
	 viewBox="0 0 144 144" enable-background="new 0 0 144 144" xml:space="preserve">
<g>
	<g>
		<g>
			<g>
				<g>
					<g>
						<path fill="#202020" d="M96,103.9c0,0,0.2,0,0.1-0.1l-0.2-0.1L96,103.9z"/>
						<path fill="#202020" d="M96.4,103c-0.1-0.1-0.3-0.3-0.4-0.2c0.2,0.1,0.1,0.2,0.3,0.3c0,0.1,0,0.2-0.1,0.2c0.1,0,0,0.2,0.1,0.3
							c0.1-0.2,0.1-0.4,0-0.6C96.3,102.9,96.3,103,96.4,103z"/>
						<path fill="#202020" d="M90.5,91.9L90.5,91.9C90.5,91.9,90.5,91.9,90.5,91.9z"/>
						<path fill="#202020" d="M82.9,89.1C83,89.1,83,89,82.9,89.1C83,89,82.9,89,82.9,89.1z"/>
						<path fill="#202020" d="M81.5,88.8C81.6,88.8,81.6,88.8,81.5,88.8C81.6,88.8,81.6,88.8,81.5,88.8z"/>
						<path fill="#202020" d="M90.5,91.9l-0.1-0.2C90.3,91.7,90.4,91.8,90.5,91.9z"/>
						<path fill="#202020" d="M95.7,101.3c0,0,0,0.1,0.1,0.1L95.7,101.3L95.7,101.3z"/>
						<path fill="#202020" d="M93.3,94.2L93.3,94.2c0.1,0,0.1,0,0.1,0L93.3,94.2z"/>
						<path fill="#202020" d="M94.9,96.4c0-0.1-0.2,0-0.3,0C94.7,96.4,94.8,96.5,94.9,96.4C94.8,96.5,94.9,96.5,94.9,96.4z"/>
						<path fill="#202020" d="M96.2,100.6L96.2,100.6C96.2,100.6,96.2,100.6,96.2,100.6z"/>
						<path fill="#202020" d="M91.9,92.7C91.9,92.7,91.9,92.7,91.9,92.7C91.9,92.7,91.9,92.7,91.9,92.7z"/>
						<path fill="#202020" d="M95.3,106.8C95.4,106.8,95.4,106.8,95.3,106.8C95.4,106.8,95.4,106.8,95.3,106.8z"/>
						<path fill="#202020" d="M96.5,103.9L96.5,103.9C96.5,103.9,96.5,103.9,96.5,103.9L96.5,103.9z"/>
						<path fill="#202020" d="M78.9,88.9C78.9,88.9,78.9,88.9,78.9,88.9C79,88.9,79,88.9,78.9,88.9z"/>
						<path fill="#202020" d="M67.2,107.1c0.1-0.3,0.3,0.4,0.3,0C67.5,107.1,67.2,106.7,67.2,107.1z"/>
						<path fill="#202020" d="M95.7,101.2l0-0.1C95.7,101.2,95.7,101.2,95.7,101.2z"/>
						<path fill="#202020" d="M67.5,107L67.5,107L67.5,107C67.5,107,67.5,107,67.5,107z"/>
						<path fill="#202020" d="M73.4,91.3C73.5,91.3,73.5,91.3,73.4,91.3C73.5,91.3,73.5,91.3,73.4,91.3z"/>
						<path fill="#202020" d="M77.5,89.6l-0.1,0C77.5,89.6,77.5,89.6,77.5,89.6z"/>
						<path fill="#202020" d="M71.8,93c-0.1,0-0.1,0-0.1,0.1L71.8,93C71.7,93,71.7,93,71.8,93z"/>
						<path fill="#202020" d="M70.2,94.7C70.2,94.7,70.2,94.7,70.2,94.7L70.2,94.7L70.2,94.7z"/>
						<path fill="#202020" d="M92.5,112.8c0.1,0,0.1,0,0.2,0C92.5,112.7,92.7,112.5,92.5,112.8z"/>
						<path fill="#202020" d="M95.8,101.3C95.7,101.3,95.7,101.3,95.8,101.3L95.8,101.3C95.8,101.3,95.8,101.3,95.8,101.3z"/>
						<path fill="#202020" d="M72.6,94l-0.3,0.2C72.4,94.1,72.5,94,72.6,94z"/>
						<path fill="#202020" d="M78.1,117.1L78.1,117.1C78.2,117.1,78.2,117.1,78.1,117.1z"/>
						<path fill="#202020" d="M71.6,94.9c-0.1,0-0.2,0-0.2,0.1c0,0,0,0,0,0.1L71.6,94.9z"/>
						<path fill="#202020" d="M92.7,112.8L92.7,112.8L92.7,112.8z"/>
						<path fill="#202020" d="M93.7,110.7c-0.2,0.3,0.1,0.2,0.2,0.4c-0.2,0.4-0.2,0.1-0.4,0.1c-0.1,0.2,0,0.5-0.1,0.7
							c0,0-0.1,0-0.1,0c0,0.3-0.5,0.6-0.5,1c0,0-0.1,0-0.1,0c0.1,0,0.2,0.1,0.3,0.2c-0.1,0.1-0.1,0.3-0.2,0.3c0.1-0.1,0-0.1,0-0.2
							l-0.1,0.2c-0.2,0,0.1-0.2,0-0.3c-0.2,0.3-0.3,0.7-0.5,0.8c-0.2-0.1,0.3-0.5,0-0.3l0.3-0.2c-0.4,0,0.2-0.1-0.3-0.2
							c-0.4,0.3-0.3,0.5-0.7,0.8c0,0.2,0.1,0.1,0.1,0.2c-0.4,0.6-0.7,0-0.9,0.5c0,0.2,0.1,0.4-0.3,0.5l0-0.2c-0.4,0.3,0,0.4-0.5,0.6
							c0-0.1,0.3-0.3,0.2-0.3c-0.4,0-0.1,0.2-0.3,0.4l-0.2-0.1c-0.4,0.3-0.8,0.7-1.3,1c0-0.1,0.1-0.2-0.1-0.2
							c-0.3,0.2-0.6,0.3-1,0.5c-0.4,0.1-0.7,0.2-1,0.2l-0.2,0.2c-0.1,0-0.1,0-0.1-0.1c-0.3,0,0,0.1-0.1,0.2c-0.1,0-0.2,0-0.1-0.1
							c-0.4,0.3-1.2,0.6-1.7,0.5l0.1-0.1c-0.4,0-0.4,0.4-0.7,0.3l0.1,0c-0.8,0-1.7,0.2-2.3-0.1c-0.1,0.2-0.8-0.1-0.9,0.2
							c-0.4-0.2-0.3-0.3-0.9-0.5c-0.2,0-0.3,0.2-0.5,0.1l0-0.2l-0.3,0.1l-0.1-0.2l-0.2,0c0.1,0,0.1,0.1,0.1,0.2
							c-0.3,0-0.7-0.3-0.7-0.4l-0.8-0.1c0-0.1,0.2,0,0.3,0c-0.4,0,0-0.2-0.4-0.2c0,0.1-0.1,0.1-0.1,0.1c-0.1-0.2-0.5-0.4-0.8-0.4
							l0.1-0.1c-0.5-0.2-1-0.5-1.6-0.8c0.2,0.2,0,0.3-0.2,0.2l0-0.2c-0.2,0,0.1,0.2-0.2,0.2c-0.2-0.2,0-0.3,0.1-0.2l-0.3-0.1
							c0-0.1,0.1,0,0.1-0.1c-0.2,0-0.3-0.4-0.5-0.4l0-0.1c-0.5-0.4-0.7-0.5-1.1-0.9c-0.1,0.1-0.2,0-0.4-0.1c-0.2-0.3-0.4-0.7-0.7-1
							c-0.3-0.2-0.2,0-0.3,0c0.1-0.1-0.2-0.5,0-0.3c-0.3-0.4-0.5-0.5-0.9-1c0,0.1,0,0.2-0.1,0.2c-0.1-0.1-0.1-0.3,0-0.3l0,0
							c-0.6-0.5-0.5-1.7-1-2.2l0,0l-0.4-0.5c-0.1-0.3,0.2,0.1,0.2-0.1c-0.5-0.6-0.3-1-0.6-1.5c0.1-0.3,0.1-0.6,0-1
							c-0.1-0.4-0.2-0.8,0-1.1l-0.1,0c-0.1-0.1,0-0.2,0.1-0.3c-0.1,0-0.1,0.2-0.1,0.1c-0.2-1.3,0.2-2.7,0.6-3.9
							c0.1-0.4-0.4-0.4-0.1-0.9l0.1,0.2c0-0.5,0.2-1,0.4-1.4c0.2-0.4,0.4-0.9,0.6-1.3c0,0.1,0.1,0.1,0,0.2c0.2-0.1,0.4-0.6,0.3-0.7
							c0.1-0.1,0.1,0,0.2,0c0.2-0.1,0.1-0.5,0.3-0.5c0,0,0,0.1,0,0.1c0-0.1,0.4-0.5,0.2-0.5c0.3-0.2,0.3-0.6,0.6-0.8
							c0-0.3,0.5-0.4,0.3-0.6c0.2,0.2,0.6-0.3,0.7-0.6c0,0.1,0.2-0.1,0.2,0.1c0.2-0.2,0.3-0.4,0.2-0.4c0.5-0.1,0.6-0.8,1-0.6
							c0.3-0.3,0.5-0.5,0.8-0.8c0.3-0.2,0.6-0.5,0.9-0.6c0.1,0.2-0.7,0.4-0.5,0.6c0.5-0.4,0.8-0.8,1.4-1c0.2,0,0,0.1-0.1,0.2
							c0.6-0.4,1.2-0.4,1.7-0.8c0,0,0,0.1-0.1,0.1c0.1,0,0.3,0,0.2-0.1L78,90.5c-0.2-0.1,0.3-0.5,0.4-0.6c-0.1,0.4,0.6-0.1,0.4,0.4
							c0.1,0,0.1-0.1,0.1-0.2c0.1,0,0.2,0,0.1,0.1c0.4-0.2,0.2-0.2,0.6-0.3c0,0.1-0.1,0.1-0.1,0.2c0.2-0.1,0.3-0.3,0.7-0.3
							c0,0,0,0.1-0.1,0.1c0.5-0.1,0.9-0.4,1.5-0.3c-0.2,0.3,0.2,0.1,0.2,0.3c0,0,0.3-0.1,0.3-0.1L82,89.8c0.3,0,0.5-0.1,0.8,0
							l-0.2,0.1l0.5,0l-0.3-0.1c0.3-0.1,0-0.3,0.4-0.2c-0.1,0,0.3,0,0.4,0.2l0,0c0.1,0,0.3-0.1,0.5,0c0,0.1-0.1,0.2-0.1,0.3
							c0.2-0.2,0.7,0,0.9-0.1c-0.1,0-0.1,0.1-0.1,0.2L85,90c0.1,0.1,0.1,0.1,0.1,0.2c0.4,0.1-0.1-0.3,0.4-0.1c0,0,0,0-0.1,0
							c0.4,0.2,0.9,0.1,1.3,0.4c0,0.2-0.4-0.1-0.3,0.1c0.6,0.2,1.3,0.2,1.8,0.5l-0.1-0.1c0.2-0.2,0.3,0.3,0.7,0.3
							c-0.1,0-0.2,0.1-0.1,0.1c0.3,0.3,0.8,0.4,1.3,0.6l-0.1,0c0.2,0.2,0.5,0.4,0.7,0.6c0.1,0,0.2,0.1,0.2-0.1
							c0.2,0.4,0.5,0.6,0.8,0.8c0.3,0.2,0.6,0.4,0.7,0.8c-0.1-0.1-0.2-0.1-0.1-0.1l0.5,0.4c0.1-0.1,0-0.1,0-0.3
							c0.1,0,0.3,0.1,0.4,0.2c-0.3-0.2-0.2,0.1-0.1,0.3c0,0,0.1,0,0.1-0.1c0,0.4,0.2-0.1,0.4,0.3l-0.1,0c0.1,0.1,0.3,0.2,0.4,0.3
							c-0.1,0.1-0.2-0.1-0.3,0c0.2,0.2,0.5,0.2,0.5,0.5c-0.1-0.1-0.2-0.2-0.3-0.3c0,0.3,0,0.3,0.1,0.5l0,0l0.1,0.4l0-0.1
							c0.5,0.1,0.4,0.5,0.8,0.8c-0.4-0.3-0.2,0-0.3,0.1c0,0.1,0,0.3,0,0.3c0.2,0.1,0,0.3,0.3,0.5c0,0,0.1,0.2-0.1,0.2
							c0.2,0.2,0.1-0.1,0.1-0.1c0.4,0.3,0.1,1,0.6,1.4c0.2,0.4,0.4,0.5,0.6,0.9c0,0.2-0.2-0.1-0.2-0.1c0,0.3,0.1,0.4,0.2,0.7
							c-0.1,0-0.1,0-0.1,0.1c0,0.2,0.2,0.1,0.2,0.4c-0.1,0-0.2-0.1-0.3-0.1c0.1,0.2,0.2,0.4,0.3,0.6c-0.1,0.1-0.2-0.1-0.2-0.2
							c0.1,0.2,0.2,0.6,0.3,0.7l0-0.2c0,0.1-0.1,0.1-0.2,0c-0.2-0.2,0-0.3,0.1-0.3l0.1,0.2c0.3-0.2-0.2-0.7-0.2-1l0.3,0.1L96,101
							c0-0.1,0.2-0.2,0.2,0c0.1-0.3-0.1-0.2-0.1-0.4c0,0,0,0,0,0l-0.1-0.2c0.1,0,0.2-0.1,0.2,0.1c0-0.5-0.3-0.6-0.2-0.8l0,0
							c-0.3-0.5-0.2,0-0.5-0.4l0.3-0.4l-0.2,0c0-0.1,0-0.2,0-0.2c-0.2-0.2-0.1,0.1-0.2,0c0.1-0.3-0.4-0.7-0.2-0.9
							c-0.2,0,0,0.3-0.2,0.1c0.2-0.2-0.2-0.3-0.2-0.6c0.2,0,0.2,0.3,0.2,0c-0.3,0-0.2-0.5-0.4-0.7c-0.2,0.1-0.3-0.4-0.6-0.7
							c0.1,0-0.3-0.7-0.5-1l0,0c-0.2,0.1-0.4-0.3-0.6-0.4c0.1-0.1,0.2-0.1,0.3,0c0,0-0.2-0.2-0.2-0.2c-0.1,0-0.2,0-0.3-0.1l0.2-0.1
							c-0.2-0.2-0.6-0.4-0.8-0.8c-0.1,0.1,0,0.5-0.4,0.3c0-0.1,0.1-0.2,0.2-0.1c0,0-0.1,0-0.2-0.1l0.2,0c-0.1-0.2-0.2,0-0.3-0.1
							c0.1-0.1,0-0.1,0-0.2c0,0,0.1,0.1,0.1,0.1c-0.1-0.1-0.2-0.3-0.2-0.4c0,0.1-0.1,0.1-0.2,0c-0.3-0.2,0-0.2-0.1-0.4
							c-0.1,0-0.2-0.2-0.3-0.1c-0.1-0.1,0-0.1,0-0.2c-0.2,0-0.7-0.5-0.6-0.2l0,0l0,0l0,0l0,0c-0.5-0.2-0.9-0.7-1.5-1l0,0
							c-0.3-0.1-0.7-0.3-1-0.3c-0.1,0-0.2-0.2-0.1-0.2c-0.3-0.1-0.3,0-0.6-0.3c0.3,0-0.1-0.1,0.3,0c-0.3-0.2-0.3-0.3-0.7-0.3
							c0.2-0.1-0.2-0.3-0.3-0.3l0.2,0.2c-0.2,0-0.3-0.1-0.5-0.2l0.1-0.2c-0.6-0.4-1.3,0-1.7-0.4c-0.2,0.1,0.4,0.2,0.2,0.3
							c-0.3-0.1-0.6-0.4-0.7-0.4c-0.4-0.2-0.4,0.2-0.9,0.1c0.1,0.1,0.1,0.3-0.3,0.3c-0.3,0-0.4-0.3-0.2-0.4c0.1,0,0.1,0,0.1,0
							c0.1,0,0.2,0,0.1-0.1l0,0.1c-0.2-0.1-0.6-0.1-0.5-0.2c-0.2,0.1-0.1,0.1,0.1,0.2c-0.4-0.1-0.6-0.1-1.1-0.1
							c0.1,0,0.1,0.1,0.1,0.1c-0.6-0.1-0.3,0.1-0.7,0.2c-0.2-0.1,0.1-0.3-0.3-0.1c-0.3-0.1-0.1-0.2,0-0.2c-0.4,0.1-0.7,0-1,0
							l0.2-0.1c-0.1,0.1-0.2,0.1-0.3,0.1l0.1,0.1c-0.1,0-0.2,0-0.2,0c-0.1,0.1,0.1,0.2-0.1,0.4c-0.2,0-0.5,0.1-0.6,0
							c0.5,0-0.1-0.2,0.3-0.3c-0.1,0-0.2,0-0.3,0c0,0,0,0,0-0.1c-0.5,0-0.2,0.3-0.7,0.4c0-0.1-0.2-0.2-0.2-0.1c0.2,0,0.1,0.1,0,0.3
							c-0.3,0-0.3,0.1-0.5,0.2l0.2,0c0,0.1-0.2,0.1-0.4,0.2c0-0.1,0.2-0.1,0.1-0.1c-0.2,0.3-0.6,0-0.9,0.2c-0.2,0-0.1-0.2-0.2-0.2
							c-0.3,0.3-0.4,0-0.8,0.3c0.2,0.1,0.2,0,0,0.3l0.6-0.4l-0.3,0.4c0.2-0.1,0.3-0.3,0.5-0.3c-0.1,0.2-0.1,0.1,0,0.2
							c-0.3-0.1-0.4,0.3-0.8,0.4l-0.1-0.3c-0.5,0.1-0.7,0.5-1.2,0.8l0.2-0.1c0,0.2-0.3,0.2-0.5,0.4c0-0.1-0.2-0.1-0.3-0.1
							c0.1,0.1-0.4,0.3-0.3,0.5l-0.3,0c-0.4,0.3-0.3,0.6-0.6,0.9c0-0.2-0.2-0.1,0-0.4c-0.1,0.1-0.2,0.2-0.2,0.3
							c-0.1,0-0.2,0.4-0.4,0.4c0,0.1,0.1,0.2-0.1,0.3c0,0,0,0,0,0c0,0-0.1,0.3,0.1,0.2c-0.6,0.1-0.9,1-1.4,1.2
							c-0.2,0.3-0.4,0.7-0.6,0.9c0,0,0,0,0-0.1c-0.3,0.3,0.1,0.4-0.2,0.8c-0.3,0.1,0.1-0.3-0.1-0.2C69,96,69,96.7,68.7,96.9l0-0.1
							c-0.2,0.2-0.1,0.6-0.4,1c0,0,0,0-0.1,0c0,0.3-0.1,0.9-0.2,1.3c-0.1-0.2,0-0.2-0.2-0.2c0,0.2,0.2,0,0.2,0.4
							c-0.1,0.1-0.3,0.3-0.4,0.3c0,0,0.1-0.3,0.1-0.3c-0.3,0.1-0.1,0.4-0.2,0.6l-0.1,0c-0.1,0.5,0.1,0.6,0,1.1l0.1,0
							c0.2,0.3-0.2,0.2-0.1,0.6l-0.2,0.1c0,0.2,0.1,0.7,0.1,1.1c-0.2-0.2-0.2-0.6-0.2-0.9c0,0.2-0.1,0.7,0,0.8c0-0.1-0.1-0.2,0-0.3
							c0.1,0.3,0.2,0.6,0.2,1c-0.4-0.1-0.2,1-0.5,1.3c0.1,0.4,0.1,0.7,0.1,1.1c0,0.4,0,0.8,0.1,1.2c0.3-0.4,0,0.2,0.4,0.1
							c0.1,0.2,0.1,0.3,0.1,0.3l-0.1,0.6c-0.1,0.2-0.1-0.2-0.2-0.1c0.1,0.4-0.1,0.2-0.1,0.5c0.1-0.1,0.2,0.1,0.2,0.3l0.1-0.4
							c0.3,0.5-0.1,0.6,0.2,1.1l-0.2-0.1c0.2,0.3,0.4,1.1,0.8,1.2c0,0.1-0.1,0.2-0.2,0.1c0.3,0.7,1,1.3,1.2,1.9l-0.1,0
							c0.1,0.1,0.3,0.1,0.3,0.3c0,0-0.1,0-0.1,0.1c0.1,0,0.3,0.2,0.4,0.4l-0.2-0.1c0.2,0.3,0.4,0.5,0.6,0.7c0.2,0.1,0.5,0.3,0.7,0.5
							c-0.2,0.2,0.1,0.7,0.3,0.9l0,0c0.6,0.6,1.2,0.8,1.9,1.2c0.2,0.5,1.3,1,1.9,1.5c-0.1-0.1,0.1-0.2,0.2-0.1
							c0.1,0.1,0.5,0.1,0.4,0.3l-0.1,0c0,0.3,0.4,0.4,0.7,0.5l0.2-0.3c0.3,0.3,0.8,0.5,1.2,0.6c0.5,0.1,0.9,0.1,1,0.4
							c0.2,0,0.4,0,0.6,0l0,0.2c0.5,0.1,0.7,0.2,1.4,0.2l-0.1,0.1c0.4,0,0.5-0.4,0.8-0.4l0.1,0.2c0.6,0.1,1.3,0.2,1.8,0
							c0,0,0,0.1-0.1,0.1c0.3,0,1.1,0,1-0.3c0,0.2,0.6-0.1,0.9-0.2l0,0.2c0.2-0.3,0.2-0.3,0.6-0.5c0.1,0,0.1,0.1,0,0.1
							c0.3,0,0.2-0.2,0.6-0.2l-0.1,0.1c0.3-0.1,0.3-0.1,0.4-0.3c0.2-0.1,0.6-0.2,0.7,0c0-0.1,0.1-0.3,0.3-0.3c0,0,0,0.1,0,0.1
							c0.5-0.1,0.6-0.5,1-0.5c0,0,0.1,0.1,0.1,0.1c-0.4,0.2-0.7,0.3-0.7,0.3c0.1,0.1,0.4,0,0.2,0.3c0.2-0.2,0.5-0.6,0.9-0.7
							c0,0,0,0,0.1,0l0,0c0.1,0,0.1-0.1,0.2-0.1c0.1,0,0.2-0.1,0.3-0.1c0.1,0.1,0.4-0.1,0.5-0.2c-0.1-0.1,0.1-0.2-0.1-0.2
							c0,0,0,0-0.1,0.1c0,0,0,0-0.1,0.1l0,0c-0.1,0.1-0.2,0.1-0.4,0.2c0.1-0.1,0.2-0.3,0.4-0.3c0-0.1,0-0.3,0.1-0.3
							c0.3,0.1,0.8-0.1,0.9,0c0.4-0.4,1-0.8,1-1.2c0.1-0.1,0.2,0,0.3,0c0,0.1-0.1,0.1-0.1,0.2c0.2-0.3,0.6-0.6,0.5-0.8
							c0.3-0.2,0,0.3,0.3-0.1l0,0.1c0.5-0.3,0.6-0.7,0.8-1c0.2-0.4,0.3-0.8,0.8-1.1c-0.1,0-0.1,0.1-0.1,0.1c0.9-0.9,1.2-2.3,1.9-3.3
							c0.2-0.3,0.1-0.4,0-0.6l0.2,0l-0.1-0.4c0-0.5,0.7-0.8,0.5-1.5l-0.1,0.1c0.1-0.2,0-0.7,0.2-0.7c0,0-0.1-0.1,0-0.2l0.1,0
							c0,0-0.1-0.6-0.1-0.6c0.1-0.4,0.4,0.1,0.4-0.6c0-0.3-0.2-0.7-0.3-0.6c0,0.1-0.1,0.2-0.2,0.3l0-0.2c-0.3,0-0.5-0.2-0.7,0.3
							l0.1,0.4l-0.1,0.1l0-0.3c-0.1,0.2,0,0.3,0,0.4c-0.1,0-0.1,0.1-0.2,0.1l0.2,0.4c-0.1,0-0.2-0.2-0.3,0c0.1,0.2,0.3-0.1,0.3,0.1
							c-0.1,0.2-0.2,0.1-0.2,0.3c-0.1,0-0.1,0-0.1-0.1c0.1,0.2,0,0.5,0.1,0.6c-0.2,0.2-0.1,0.6-0.3,0.5c0,0.1,0.1,0.3,0.1,0.5
							c-0.2-0.4-0.2,0.6-0.5,0.4c0.2,0.3-0.1,0.8-0.1,1.2c0,0,0-0.1,0-0.1c-0.1,0.2-0.2,0.2-0.3,0.3c0.2,0.1,0.1,0.4,0.1,0.7
							c-0.3,0.2-0.2-0.3-0.4-0.3c0.2,0.1,0,0.5,0.1,0.5c-0.2,0.1-0.1,0.1-0.3,0.1c0.2,0.2,0,0.2,0,0.4c-0.3,0.2-0.3-0.1-0.4,0.3
							C93.6,111,93.7,110.7,93.7,110.7z M88.4,116.3L88.4,116.3c0.1,0,0.1-0.1,0.1-0.1C88.5,116.3,88.5,116.3,88.4,116.3z
							 M87.8,116.6c0.1,0,0.2-0.1,0.3-0.1c0,0,0,0.1,0,0.1C88.1,116.6,87.9,116.6,87.8,116.6z M89.6,116.9c-0.1,0.1-0.1,0.1-0.2,0.1
							C89.5,116.9,89.6,116.9,89.6,116.9L89.6,116.9C89.6,116.9,89.6,116.9,89.6,116.9z"/>
						<path fill="#202020" d="M89.7,116.6C89.7,116.6,89.7,116.6,89.7,116.6C89.7,116.6,89.7,116.6,89.7,116.6L89.7,116.6
							L89.7,116.6z"/>
						<path fill="#202020" d="M90.6,91.9L90.6,91.9C90.6,91.9,90.6,92,90.6,91.9C90.6,92,90.6,91.9,90.6,91.9z"/>
						<polygon fill="#202020" points="78.9,117.2 78.9,117.3 78.9,117.2 						"/>
						<path fill="#202020" d="M92.9,94.9C92.9,94.9,92.9,95,92.9,94.9C92.9,95,92.9,94.9,92.9,94.9z"/>
						<path fill="#202020" d="M93.8,96.2l0.1,0.2C93.9,96.4,93.9,96.3,93.8,96.2z"/>
						<path fill="#202020" d="M94.4,97.3C94.4,97.3,94.4,97.3,94.4,97.3L94.4,97.3L94.4,97.3z"/>
						<path fill="#202020" d="M77.9,90.6C77.9,90.6,77.9,90.6,77.9,90.6C77.8,90.7,77.9,90.7,77.9,90.6z"/>
						<path fill="#202020" d="M83.6,89.7c-0.1,0-0.1,0-0.2,0C83.5,89.8,83.6,89.8,83.6,89.7z"/>
						<polygon fill="#202020" points="72.6,93.9 72.6,93.9 72.6,94 						"/>
						<path fill="#202020" d="M83.1,89.8c0.1,0,0.2,0,0.3,0C83.3,89.8,83.2,89.7,83.1,89.8z"/>
						<path fill="#202020" d="M95.8,102.4L95.8,102.4C95.9,102.4,95.9,102.4,95.8,102.4L95.8,102.4z"/>
						<path fill="#202020" d="M95.9,102.4L95.9,102.4C95.9,102.5,95.9,102.4,95.9,102.4z"/>
						<path fill="#202020" d="M95.9,102.6l0-0.1C95.9,102.5,95.9,102.6,95.9,102.6z"/>
						<path fill="#202020" d="M95.7,100.8L95.7,100.8C95.6,100.8,95.6,100.8,95.7,100.8z"/>
						<path fill="#202020" d="M95.5,100.3c0,0.1,0,0.3,0,0.5l0,0C95.5,100.7,95.6,100.4,95.5,100.3z"/>
						<path fill="#202020" d="M95.5,98.1c0,0,0.1,0.4,0.1,0.4c0-0.1,0.1-0.2,0.2,0C95.8,97.9,95.7,98.6,95.5,98.1z"/>
						<path fill="#202020" d="M95,96.8c0.1,0.2,0.1,0,0.1-0.1C95,96.7,95,96.6,95,96.8z"/>
						<path fill="#202020" d="M88,90.3l0.1-0.1C87.9,90.1,88.1,90.2,88,90.3z"/>
						<path fill="#202020" d="M86,90.4l0.1,0.1l0.1-0.1C86.3,90.4,86,90.4,86,90.4z"/>
						<polygon fill="#202020" points="85.3,89.1 85.3,89.1 85,89.1 						"/>
						<path fill="#202020" d="M70.3,94.3l0.2,0.1C70.5,94.3,70.4,94.1,70.3,94.3z"/>
						<path fill="#202020" d="M67.4,100.7c-0.1,0.1-0.2,0.2-0.1,0.4C67.3,101,67.4,100.8,67.4,100.7z"/>
						<polygon fill="#202020" points="76.7,118.1 76.6,118.1 76.8,118.1 						"/>
					</g>
				</g>
			</g>
		</g>
	</g>
	<g>
		<g>
			<g>
				<g>
					<g>
						<path fill="#202020" d="M96,64.6c0,0,0.2,0,0.1-0.1L96,64.4L96,64.6z"/>
						<path fill="#202020" d="M96.4,63.7c-0.1-0.1-0.3-0.3-0.4-0.2c0.2,0.1,0.1,0.2,0.3,0.3c0,0.1,0,0.2-0.1,0.2
							c0.1,0,0,0.2,0.1,0.3c0.1-0.2,0.1-0.4,0-0.6C96.3,63.6,96.3,63.7,96.4,63.7z"/>
						<path fill="#202020" d="M90.5,52.6L90.5,52.6C90.5,52.6,90.5,52.6,90.5,52.6z"/>
						<path fill="#202020" d="M82.9,49.8C83,49.8,83,49.8,82.9,49.8C83,49.8,82.9,49.8,82.9,49.8z"/>
						<path fill="#202020" d="M81.5,49.5C81.6,49.5,81.6,49.5,81.5,49.5C81.6,49.5,81.6,49.5,81.5,49.5z"/>
						<path fill="#202020" d="M90.5,52.6l-0.1-0.2C90.3,52.4,90.4,52.5,90.5,52.6z"/>
						<path fill="#202020" d="M95.7,62c0,0,0,0.1,0.1,0.1L95.7,62L95.7,62z"/>
						<path fill="#202020" d="M93.3,54.9L93.3,54.9c0.1,0,0.1,0,0.1,0L93.3,54.9z"/>
						<path fill="#202020" d="M94.9,57.1c0-0.1-0.2,0-0.3,0C94.7,57.2,94.8,57.2,94.9,57.1C94.8,57.2,94.9,57.2,94.9,57.1z"/>
						<path fill="#202020" d="M96.2,61.3L96.2,61.3C96.2,61.3,96.2,61.3,96.2,61.3z"/>
						<path fill="#202020" d="M91.9,53.4C91.9,53.4,91.9,53.4,91.9,53.4C91.9,53.4,91.9,53.4,91.9,53.4z"/>
						<path fill="#202020" d="M95.3,67.5C95.4,67.5,95.4,67.5,95.3,67.5C95.4,67.5,95.4,67.5,95.3,67.5z"/>
						<path fill="#202020" d="M96.5,64.6L96.5,64.6C96.5,64.6,96.5,64.6,96.5,64.6L96.5,64.6z"/>
						<path fill="#202020" d="M78.9,49.6C78.9,49.6,78.9,49.6,78.9,49.6C79,49.6,79,49.6,78.9,49.6z"/>
						<path fill="#202020" d="M67.2,67.8c0.1-0.3,0.3,0.4,0.3,0C67.5,67.8,67.2,67.4,67.2,67.8z"/>
						<path fill="#202020" d="M95.7,61.9l0-0.1C95.7,61.9,95.7,61.9,95.7,61.9z"/>
						<path fill="#202020" d="M67.5,67.7L67.5,67.7L67.5,67.7C67.5,67.7,67.5,67.7,67.5,67.7z"/>
						<path fill="#202020" d="M73.4,52C73.5,52.1,73.5,52.1,73.4,52C73.5,52.1,73.5,52,73.4,52z"/>
						<path fill="#202020" d="M77.5,50.3l-0.1,0C77.5,50.3,77.5,50.3,77.5,50.3z"/>
						<path fill="#202020" d="M71.8,53.7c-0.1,0-0.1,0-0.1,0.1L71.8,53.7C71.7,53.7,71.7,53.7,71.8,53.7z"/>
						<path fill="#202020" d="M70.2,55.4C70.2,55.4,70.2,55.4,70.2,55.4L70.2,55.4L70.2,55.4z"/>
						<path fill="#202020" d="M92.5,73.5c0.1,0,0.1,0,0.2,0C92.5,73.4,92.7,73.2,92.5,73.5z"/>
						<path fill="#202020" d="M95.8,62C95.7,62,95.7,62,95.8,62L95.8,62C95.8,62,95.8,62,95.8,62z"/>
						<path fill="#202020" d="M72.6,54.7l-0.3,0.2C72.4,54.8,72.5,54.7,72.6,54.7z"/>
						<path fill="#202020" d="M78.1,77.8L78.1,77.8C78.2,77.8,78.2,77.8,78.1,77.8z"/>
						<path fill="#202020" d="M71.6,55.7c-0.1,0-0.2,0-0.2,0.1c0,0,0,0,0,0.1L71.6,55.7z"/>
						<path fill="#202020" d="M92.7,73.5L92.7,73.5L92.7,73.5z"/>
						<path fill="#202020" d="M93.7,71.4c-0.2,0.3,0.1,0.2,0.2,0.4c-0.2,0.4-0.2,0.1-0.4,0.1c-0.1,0.2,0,0.5-0.1,0.7
							c0,0-0.1,0-0.1,0c0,0.3-0.5,0.6-0.5,1c0,0-0.1,0-0.1,0c0.1,0,0.2,0.1,0.3,0.2c-0.1,0.1-0.1,0.3-0.2,0.3c0.1-0.1,0-0.1,0-0.2
							l-0.1,0.2c-0.2,0,0.1-0.2,0-0.3c-0.2,0.3-0.3,0.7-0.5,0.8c-0.2-0.1,0.3-0.5,0-0.3l0.3-0.2c-0.4,0,0.2-0.1-0.3-0.2
							c-0.4,0.3-0.3,0.5-0.7,0.8c0,0.2,0.1,0.1,0.1,0.2c-0.4,0.6-0.7,0-0.9,0.5c0,0.2,0.1,0.4-0.3,0.5l0-0.2c-0.4,0.3,0,0.4-0.5,0.6
							c0-0.1,0.3-0.3,0.2-0.3c-0.4,0-0.1,0.2-0.3,0.4L89.6,76c-0.4,0.3-0.8,0.7-1.3,1c0-0.1,0.1-0.2-0.1-0.2c-0.3,0.2-0.6,0.3-1,0.5
							c-0.4,0.1-0.7,0.2-1,0.2l-0.2,0.2c-0.1,0-0.1,0-0.1-0.1c-0.3,0,0,0.1-0.1,0.2c-0.1,0-0.2,0-0.1-0.1c-0.4,0.3-1.2,0.6-1.7,0.5
							l0.1-0.1c-0.4,0-0.4,0.4-0.7,0.3l0.1,0c-0.8,0-1.7,0.2-2.3-0.1c-0.1,0.2-0.8-0.1-0.9,0.2c-0.4-0.2-0.3-0.3-0.9-0.5
							c-0.2,0-0.3,0.2-0.5,0.1l0-0.2l-0.3,0.1l-0.1-0.2l-0.2,0c0.1,0,0.1,0.1,0.1,0.2c-0.3,0-0.7-0.3-0.7-0.4l-0.8-0.1
							c0-0.1,0.2,0,0.3,0c-0.4,0,0-0.2-0.4-0.2c0,0.1-0.1,0.1-0.1,0.1c-0.1-0.2-0.5-0.4-0.8-0.4l0.1-0.1c-0.5-0.2-1-0.5-1.6-0.8
							c0.2,0.2,0,0.3-0.2,0.2l0-0.2c-0.2,0,0.1,0.2-0.2,0.2c-0.2-0.2,0-0.3,0.1-0.2L74,75.9c0-0.1,0.1,0,0.1-0.1
							c-0.2,0-0.3-0.4-0.5-0.4l0-0.1c-0.5-0.4-0.7-0.5-1.1-0.9c-0.1,0.1-0.2,0-0.4-0.1c-0.2-0.3-0.4-0.7-0.7-1c-0.3-0.2-0.2,0-0.3,0
							c0.1-0.1-0.2-0.5,0-0.3c-0.3-0.4-0.5-0.5-0.9-1c0,0.1,0,0.2-0.1,0.2c-0.1-0.1-0.1-0.3,0-0.3l0,0c-0.6-0.5-0.5-1.7-1-2.2l0,0
							l-0.4-0.5c-0.1-0.3,0.2,0.1,0.2-0.1c-0.5-0.6-0.3-1-0.6-1.5c0.1-0.3,0.1-0.6,0-1c-0.1-0.4-0.2-0.8,0-1.1l-0.1,0
							c-0.1-0.1,0-0.2,0.1-0.3c-0.1,0-0.1,0.2-0.1,0.1c-0.2-1.3,0.2-2.7,0.6-3.9c0.1-0.4-0.4-0.4-0.1-0.9l0.1,0.2
							c0-0.5,0.2-1,0.4-1.4c0.2-0.4,0.4-0.9,0.6-1.3c0,0.1,0.1,0.1,0,0.2c0.2-0.1,0.4-0.6,0.3-0.7c0.1-0.1,0.1,0,0.2,0
							c0.2-0.1,0.1-0.5,0.3-0.5c0,0,0,0.1,0,0.1c0-0.1,0.4-0.5,0.2-0.5c0.3-0.2,0.3-0.6,0.6-0.8c0-0.3,0.5-0.4,0.3-0.6
							c0.2,0.2,0.6-0.3,0.7-0.6c0,0.1,0.2-0.1,0.2,0.1c0.2-0.2,0.3-0.4,0.2-0.4c0.5-0.1,0.6-0.8,1-0.6c0.3-0.3,0.5-0.5,0.8-0.8
							c0.3-0.2,0.6-0.5,0.9-0.6c0.1,0.2-0.7,0.4-0.5,0.6c0.5-0.4,0.8-0.8,1.4-1c0.2,0,0,0.1-0.1,0.2c0.6-0.4,1.2-0.4,1.7-0.8
							c0,0,0,0.1-0.1,0.1c0.1,0,0.3,0,0.2-0.1L78,51.2c-0.2-0.1,0.3-0.5,0.4-0.6c-0.1,0.4,0.6-0.1,0.4,0.4c0.1,0,0.1-0.1,0.1-0.2
							c0.1,0,0.2,0,0.1,0.1c0.4-0.2,0.2-0.2,0.6-0.3c0,0.1-0.1,0.1-0.1,0.2c0.2-0.1,0.3-0.3,0.7-0.3c0,0,0,0.1-0.1,0.1
							c0.5-0.1,0.9-0.4,1.5-0.3c-0.2,0.3,0.2,0.1,0.2,0.3c0,0,0.3-0.1,0.3-0.1L82,50.5c0.3,0,0.5-0.1,0.8,0l-0.2,0.1l0.5,0l-0.3-0.1
							c0.3-0.1,0-0.3,0.4-0.2c-0.1,0,0.3,0,0.4,0.2l0,0c0.1,0,0.3-0.1,0.5,0c0,0.1-0.1,0.2-0.1,0.3c0.2-0.2,0.7,0,0.9-0.1
							c-0.1,0-0.1,0.1-0.1,0.2l0.1-0.1c0.1,0.1,0.1,0.1,0.1,0.2c0.4,0.1-0.1-0.3,0.4-0.1c0,0,0,0-0.1,0c0.4,0.2,0.9,0.1,1.3,0.4
							c0,0.2-0.4-0.1-0.3,0.1c0.6,0.2,1.3,0.2,1.8,0.5l-0.1-0.1c0.2-0.2,0.3,0.3,0.7,0.3c-0.1,0-0.2,0.1-0.1,0.1
							c0.3,0.3,0.8,0.4,1.3,0.6l-0.1,0c0.2,0.2,0.5,0.4,0.7,0.6c0.1,0,0.2,0.1,0.2-0.1c0.2,0.4,0.5,0.6,0.8,0.8
							c0.3,0.2,0.6,0.4,0.7,0.8C92.3,55,92.2,55,92.2,55l0.5,0.4c0.1-0.1,0-0.1,0-0.3c0.1,0,0.3,0.1,0.4,0.2
							c-0.3-0.2-0.2,0.1-0.1,0.3c0,0,0.1,0,0.1-0.1c0,0.4,0.2-0.1,0.4,0.3l-0.1,0c0.1,0.1,0.3,0.2,0.4,0.3c-0.1,0.1-0.2-0.1-0.3,0
							c0.2,0.2,0.5,0.2,0.5,0.5c-0.1-0.1-0.2-0.2-0.3-0.3c0,0.3,0,0.3,0.1,0.5l0,0l0.1,0.4l0-0.1c0.5,0.1,0.4,0.5,0.8,0.8
							c-0.4-0.3-0.2,0-0.3,0.1c0,0.1,0,0.3,0,0.3c0.2,0.1,0,0.3,0.3,0.5c0,0,0.1,0.2-0.1,0.2c0.2,0.2,0.1-0.1,0.1-0.1
							c0.4,0.3,0.1,1,0.6,1.4c0.2,0.4,0.4,0.5,0.6,0.9c0,0.2-0.2-0.1-0.2-0.1c0,0.3,0.1,0.4,0.2,0.7c-0.1,0-0.1,0-0.1,0.1
							c0,0.2,0.2,0.1,0.2,0.4c-0.1,0-0.2-0.1-0.3-0.1c0.1,0.2,0.2,0.4,0.3,0.6c-0.1,0.1-0.2-0.1-0.2-0.2c0.1,0.2,0.2,0.6,0.3,0.7
							l0-0.2c0,0.1-0.1,0.1-0.2,0c-0.2-0.2,0-0.3,0.1-0.3l0.1,0.2c0.3-0.2-0.2-0.7-0.2-1l0.3,0.1L96,61.7c0-0.1,0.2-0.2,0.2,0
							c0.1-0.3-0.1-0.2-0.1-0.4c0,0,0,0,0,0l-0.1-0.2c0.1,0,0.2-0.1,0.2,0.1c0-0.5-0.3-0.6-0.2-0.8l0,0c-0.3-0.5-0.2,0-0.5-0.4
							l0.3-0.4l-0.2,0c0-0.1,0-0.2,0-0.2c-0.2-0.2-0.1,0.1-0.2,0c0.1-0.3-0.4-0.7-0.2-0.9c-0.2,0,0,0.3-0.2,0.1
							c0.2-0.2-0.2-0.3-0.2-0.6c0.2,0,0.2,0.3,0.2,0c-0.3,0-0.2-0.5-0.4-0.7c-0.2,0.1-0.3-0.4-0.6-0.7c0.1,0-0.3-0.7-0.5-1l0,0
							c-0.2,0.1-0.4-0.3-0.6-0.4c0.1-0.1,0.2-0.1,0.3,0c0,0-0.2-0.2-0.2-0.2c-0.1,0-0.2,0-0.3-0.1l0.2-0.1c-0.2-0.2-0.6-0.4-0.8-0.8
							c-0.1,0.1,0,0.5-0.4,0.3c0-0.1,0.1-0.2,0.2-0.1c0,0-0.1,0-0.2-0.1l0.2,0c-0.1-0.2-0.2,0-0.3-0.1c0.1-0.1,0-0.1,0-0.2
							c0,0,0.1,0.1,0.1,0.1c-0.1-0.1-0.2-0.3-0.2-0.4c0,0.1-0.1,0.1-0.2,0c-0.3-0.2,0-0.2-0.1-0.4c-0.1,0-0.2-0.2-0.3-0.1
							c-0.1-0.1,0-0.1,0-0.2c-0.2,0-0.7-0.5-0.6-0.2l0,0l0,0l0,0l0,0c-0.5-0.2-0.9-0.7-1.5-1l0,0c-0.3-0.1-0.7-0.3-1-0.3
							c-0.1,0-0.2-0.2-0.1-0.2c-0.3-0.1-0.3,0-0.6-0.3c0.3,0-0.1-0.1,0.3,0c-0.3-0.2-0.3-0.3-0.7-0.3c0.2-0.1-0.2-0.3-0.3-0.3
							l0.2,0.2c-0.2,0-0.3-0.1-0.5-0.2l0.1-0.2c-0.6-0.4-1.3,0-1.7-0.4c-0.2,0.1,0.4,0.2,0.2,0.3c-0.3-0.1-0.6-0.4-0.7-0.4
							c-0.4-0.2-0.4,0.2-0.9,0.1c0.1,0.1,0.1,0.3-0.3,0.3c-0.3,0-0.4-0.3-0.2-0.4c0.1,0,0.1,0,0.1,0c0.1,0,0.2,0,0.1-0.1l0,0.1
							c-0.2-0.1-0.6-0.1-0.5-0.2c-0.2,0.1-0.1,0.1,0.1,0.2c-0.4-0.1-0.6-0.1-1.1-0.1c0.1,0,0.1,0.1,0.1,0.1
							c-0.6-0.1-0.3,0.1-0.7,0.2c-0.2-0.1,0.1-0.3-0.3-0.1c-0.3-0.1-0.1-0.2,0-0.2c-0.4,0.1-0.7,0-1,0l0.2-0.1
							c-0.1,0.1-0.2,0.1-0.3,0.1l0.1,0.1c-0.1,0-0.2,0-0.2,0c-0.1,0.1,0.1,0.2-0.1,0.4c-0.2,0-0.5,0.1-0.6,0c0.5,0-0.1-0.2,0.3-0.3
							c-0.1,0-0.2,0-0.3,0c0,0,0,0,0-0.1c-0.5,0-0.2,0.3-0.7,0.4c0-0.1-0.2-0.2-0.2-0.1c0.2,0,0.1,0.1,0,0.3c-0.3,0-0.3,0.1-0.5,0.2
							l0.2,0c0,0.1-0.2,0.1-0.4,0.2c0-0.1,0.2-0.1,0.1-0.1c-0.2,0.3-0.6,0-0.9,0.2c-0.2,0-0.1-0.2-0.2-0.2c-0.3,0.3-0.4,0-0.8,0.3
							c0.2,0.1,0.2,0,0,0.3l0.6-0.4l-0.3,0.4c0.2-0.1,0.3-0.3,0.5-0.3c-0.1,0.2-0.1,0.1,0,0.2c-0.3-0.1-0.4,0.3-0.8,0.4L75.3,51
							c-0.5,0.1-0.7,0.5-1.2,0.8l0.2-0.1c0,0.2-0.3,0.2-0.5,0.4c0-0.1-0.2-0.1-0.3-0.1c0.1,0.1-0.4,0.3-0.3,0.5l-0.3,0
							c-0.4,0.3-0.3,0.6-0.6,0.9c0-0.2-0.2-0.1,0-0.4c-0.1,0.1-0.2,0.2-0.2,0.3c-0.1,0-0.2,0.4-0.4,0.4c0,0.1,0.1,0.2-0.1,0.3
							c0,0,0,0,0,0c0,0-0.1,0.3,0.1,0.2c-0.6,0.1-0.9,1-1.4,1.2c-0.2,0.3-0.4,0.7-0.6,0.9c0,0,0,0,0-0.1c-0.3,0.3,0.1,0.4-0.2,0.8
							c-0.3,0.1,0.1-0.3-0.1-0.2c-0.4-0.1-0.3,0.5-0.6,0.7l0-0.1c-0.2,0.2-0.1,0.6-0.4,1c0,0,0,0-0.1,0c0,0.3-0.1,0.9-0.2,1.3
							c-0.1-0.2,0-0.2-0.2-0.2c0,0.2,0.2,0,0.2,0.4c-0.1,0.1-0.3,0.3-0.4,0.3c0,0,0.1-0.3,0.1-0.3c-0.3,0.1-0.1,0.4-0.2,0.6l-0.1,0
							c-0.1,0.5,0.1,0.6,0,1.1l0.1,0c0.2,0.3-0.2,0.2-0.1,0.6l-0.2,0.1c0,0.2,0.1,0.7,0.1,1.1c-0.2-0.2-0.2-0.6-0.2-0.9
							c0,0.2-0.1,0.7,0,0.8c0-0.1-0.1-0.2,0-0.3c0.1,0.3,0.2,0.6,0.2,1c-0.4-0.1-0.2,1-0.5,1.3c0.1,0.4,0.1,0.7,0.1,1.1
							c0,0.4,0,0.8,0.1,1.2c0.3-0.4,0,0.2,0.4,0.1c0.1,0.2,0.1,0.3,0.1,0.3l-0.1,0.6c-0.1,0.2-0.1-0.2-0.2-0.1
							c0.1,0.4-0.1,0.2-0.1,0.5c0.1-0.1,0.2,0.1,0.2,0.3l0.1-0.4c0.3,0.5-0.1,0.6,0.2,1.1l-0.2-0.1c0.2,0.3,0.4,1.1,0.8,1.2
							c0,0.1-0.1,0.2-0.2,0.1c0.3,0.7,1,1.3,1.2,1.9l-0.1,0c0.1,0.1,0.3,0.1,0.3,0.3c0,0-0.1,0-0.1,0.1c0.1,0,0.3,0.2,0.4,0.4
							l-0.2-0.1c0.2,0.3,0.4,0.5,0.6,0.7c0.2,0.1,0.5,0.3,0.7,0.5c-0.2,0.2,0.1,0.7,0.3,0.9l0,0c0.6,0.6,1.2,0.8,1.9,1.2
							c0.2,0.5,1.3,1,1.9,1.5C75,78.1,75.2,78,75.3,78c0.1,0.1,0.5,0.1,0.4,0.3l-0.1,0c0,0.3,0.4,0.4,0.7,0.5l0.2-0.3
							c0.3,0.3,0.8,0.5,1.2,0.6c0.5,0.1,0.9,0.1,1,0.4c0.2,0,0.4,0,0.6,0l0,0.2c0.5,0.1,0.7,0.2,1.4,0.2l-0.1,0.1
							c0.4,0,0.5-0.4,0.8-0.4l0.1,0.2c0.6,0.1,1.3,0.2,1.8,0c0,0,0,0.1-0.1,0.1c0.3,0,1.1,0,1-0.3c0,0.2,0.6-0.1,0.9-0.2l0,0.2
							c0.2-0.3,0.2-0.3,0.6-0.5c0.1,0,0.1,0.1,0,0.1c0.3,0,0.2-0.2,0.6-0.2l-0.1,0.1c0.3-0.1,0.3-0.1,0.4-0.3c0.2-0.1,0.6-0.2,0.7,0
							c0-0.1,0.1-0.3,0.3-0.3c0,0,0,0.1,0,0.1c0.5-0.1,0.6-0.5,1-0.5c0,0,0.1,0.1,0.1,0.1c-0.4,0.2-0.7,0.3-0.7,0.3
							c0.1,0.1,0.4,0,0.2,0.3c0.2-0.2,0.5-0.6,0.9-0.7c0,0,0,0,0.1,0l0,0c0.1,0,0.1-0.1,0.2-0.1c0.1,0,0.2-0.1,0.3-0.1
							c0.1,0.1,0.4-0.1,0.5-0.2c-0.1-0.1,0.1-0.2-0.1-0.2c0,0,0,0-0.1,0.1c0,0,0,0-0.1,0.1l0,0c-0.1,0.1-0.2,0.1-0.4,0.2
							c0.1-0.1,0.2-0.3,0.4-0.3c0-0.1,0-0.3,0.1-0.3c0.3,0.1,0.8-0.1,0.9,0c0.4-0.4,1-0.8,1-1.2c0.1-0.1,0.2,0,0.3,0
							c0,0.1-0.1,0.1-0.1,0.2c0.2-0.3,0.6-0.6,0.5-0.8c0.3-0.2,0,0.3,0.3-0.1l0,0.1c0.5-0.3,0.6-0.7,0.8-1c0.2-0.4,0.3-0.8,0.8-1.1
							c-0.1,0-0.1,0.1-0.1,0.1c0.9-0.9,1.2-2.3,1.9-3.3c0.2-0.3,0.1-0.4,0-0.6l0.2,0l-0.1-0.4c0-0.5,0.7-0.8,0.5-1.5l-0.1,0.1
							c0.1-0.2,0-0.7,0.2-0.7c0,0-0.1-0.1,0-0.2l0.1,0c0,0-0.1-0.6-0.1-0.6c0.1-0.4,0.4,0.1,0.4-0.6c0-0.3-0.2-0.7-0.3-0.6
							c0,0.1-0.1,0.2-0.2,0.3l0-0.2c-0.3,0-0.5-0.2-0.7,0.3l0.1,0.4l-0.1,0.1l0-0.3c-0.1,0.2,0,0.3,0,0.4c-0.1,0-0.1,0.1-0.2,0.1
							l0.2,0.4c-0.1,0-0.2-0.2-0.3,0c0.1,0.2,0.3-0.1,0.3,0.1c-0.1,0.2-0.2,0.1-0.2,0.3c-0.1,0-0.1,0-0.1-0.1c0.1,0.2,0,0.5,0.1,0.6
							c-0.2,0.2-0.1,0.6-0.3,0.5c0,0.1,0.1,0.3,0.1,0.5c-0.2-0.4-0.2,0.6-0.5,0.4c0.2,0.3-0.1,0.8-0.1,1.2c0,0,0-0.1,0-0.1
							c-0.1,0.2-0.2,0.2-0.3,0.3c0.2,0.1,0.1,0.4,0.1,0.7c-0.3,0.2-0.2-0.3-0.4-0.3c0.2,0.1,0,0.5,0.1,0.5c-0.2,0.1-0.1,0.1-0.3,0.1
							c0.2,0.2,0,0.2,0,0.4c-0.3,0.2-0.3-0.1-0.4,0.3C93.6,71.7,93.7,71.4,93.7,71.4z M88.4,77L88.4,77c0.1,0,0.1-0.1,0.1-0.1
							C88.5,77,88.5,77,88.4,77z M87.8,77.3c0.1,0,0.2-0.1,0.3-0.1c0,0,0,0.1,0,0.1C88.1,77.3,87.9,77.3,87.8,77.3z M89.6,77.6
							c-0.1,0.1-0.1,0.1-0.2,0.1C89.5,77.7,89.6,77.6,89.6,77.6L89.6,77.6C89.6,77.6,89.6,77.6,89.6,77.6z"/>
						<path fill="#202020" d="M89.7,77.4C89.7,77.3,89.7,77.3,89.7,77.4C89.7,77.3,89.7,77.3,89.7,77.4L89.7,77.4L89.7,77.4z"/>
						<path fill="#202020" d="M90.6,52.7L90.6,52.7C90.6,52.7,90.6,52.7,90.6,52.7C90.6,52.7,90.6,52.7,90.6,52.7z"/>
						<polygon fill="#202020" points="78.9,77.9 78.9,78 78.9,78 						"/>
						<path fill="#202020" d="M92.9,55.6C92.9,55.6,92.9,55.7,92.9,55.6C92.9,55.7,92.9,55.7,92.9,55.6z"/>
						<path fill="#202020" d="M93.8,57l0.1,0.2C93.9,57.1,93.9,57,93.8,57z"/>
						<path fill="#202020" d="M94.4,58C94.4,58,94.4,58,94.4,58L94.4,58L94.4,58z"/>
						<path fill="#202020" d="M77.9,51.3C77.9,51.3,77.9,51.3,77.9,51.3C77.8,51.4,77.9,51.4,77.9,51.3z"/>
						<path fill="#202020" d="M83.6,50.4c-0.1,0-0.1,0-0.2,0C83.5,50.5,83.6,50.5,83.6,50.4z"/>
						<polygon fill="#202020" points="72.6,54.6 72.6,54.6 72.6,54.7 						"/>
						<path fill="#202020" d="M83.1,50.5c0.1,0,0.2,0,0.3,0C83.3,50.5,83.2,50.5,83.1,50.5z"/>
						<path fill="#202020" d="M95.8,63.1L95.8,63.1C95.9,63.1,95.9,63.1,95.8,63.1L95.8,63.1z"/>
						<path fill="#202020" d="M95.9,63.1L95.9,63.1C95.9,63.2,95.9,63.2,95.9,63.1z"/>
						<path fill="#202020" d="M95.9,63.3l0-0.1C95.9,63.3,95.9,63.3,95.9,63.3z"/>
						<path fill="#202020" d="M95.7,61.5L95.7,61.5C95.6,61.5,95.6,61.5,95.7,61.5z"/>
						<path fill="#202020" d="M95.5,61c0,0.1,0,0.3,0,0.5l0,0C95.5,61.4,95.6,61.1,95.5,61z"/>
						<path fill="#202020" d="M95.5,58.8c0,0,0.1,0.4,0.1,0.4c0-0.1,0.1-0.2,0.2,0C95.8,58.6,95.7,59.3,95.5,58.8z"/>
						<path fill="#202020" d="M95,57.5c0.1,0.2,0.1,0,0.1-0.1C95,57.4,95,57.4,95,57.5z"/>
						<path fill="#202020" d="M88,51l0.1-0.1C87.9,50.8,88.1,51,88,51z"/>
						<path fill="#202020" d="M86,51.1l0.1,0.1l0.1-0.1C86.3,51.1,86,51.1,86,51.1z"/>
						<polygon fill="#202020" points="85.3,49.8 85.3,49.8 85,49.8 						"/>
						<path fill="#202020" d="M70.3,55l0.2,0.1C70.5,55,70.4,54.8,70.3,55z"/>
						<path fill="#202020" d="M67.4,61.5c-0.1,0.1-0.2,0.2-0.1,0.4C67.3,61.7,67.4,61.5,67.4,61.5z"/>
						<polygon fill="#202020" points="76.7,78.8 76.6,78.8 76.8,78.9 						"/>
					</g>
				</g>
			</g>
		</g>
	</g>
	<g>
		<g>
			<g>
				<g>
					<g>
						<path fill="#202020" d="M76.4,40c0,0,0.2,0,0.1-0.1l-0.2-0.1L76.4,40z"/>
						<path fill="#202020" d="M76.7,39.1c-0.1-0.1-0.3-0.3-0.4-0.2c0.2,0.1,0.1,0.2,0.3,0.3c0,0.1,0,0.2-0.1,0.2
							c0.1,0,0,0.2,0.1,0.3c0.1-0.2,0.1-0.4,0-0.6C76.6,39.1,76.7,39.1,76.7,39.1z"/>
						<path fill="#202020" d="M70.9,28L70.9,28C70.9,28.1,70.9,28,70.9,28z"/>
						<path fill="#202020" d="M63.3,25.2C63.4,25.2,63.4,25.2,63.3,25.2C63.3,25.2,63.3,25.2,63.3,25.2z"/>
						<path fill="#202020" d="M61.9,25C61.9,25,62,25,61.9,25C62,25,61.9,25,61.9,25z"/>
						<path fill="#202020" d="M70.9,28l-0.1-0.2C70.7,27.9,70.8,27.9,70.9,28z"/>
						<path fill="#202020" d="M76.1,37.5c0,0,0,0.1,0.1,0.1L76.1,37.5L76.1,37.5z"/>
						<path fill="#202020" d="M73.6,30.3L73.6,30.3c0.1,0,0.1,0,0.1,0L73.6,30.3z"/>
						<path fill="#202020" d="M75.2,32.6c0-0.1-0.2,0-0.3,0C75.1,32.6,75.1,32.6,75.2,32.6C75.2,32.6,75.2,32.6,75.2,32.6z"/>
						<path fill="#202020" d="M76.6,36.7L76.6,36.7C76.6,36.8,76.6,36.8,76.6,36.7z"/>
						<path fill="#202020" d="M72.2,28.9C72.3,28.9,72.3,28.8,72.2,28.9C72.2,28.8,72.2,28.9,72.2,28.9z"/>
						<path fill="#202020" d="M75.7,43C75.7,43,75.7,43,75.7,43C75.7,43,75.7,42.9,75.7,43z"/>
						<path fill="#202020" d="M76.8,40L76.8,40C76.9,40.1,76.9,40.1,76.8,40L76.8,40z"/>
						<path fill="#202020" d="M59.3,25.1C59.3,25.1,59.3,25.1,59.3,25.1C59.4,25,59.3,25,59.3,25.1z"/>
						<path fill="#202020" d="M47.5,43.2c0.1-0.3,0.3,0.4,0.3,0C47.8,43.2,47.5,42.9,47.5,43.2z"/>
						<path fill="#202020" d="M76.1,37.4l0-0.1C76.1,37.3,76.1,37.4,76.1,37.4z"/>
						<path fill="#202020" d="M47.9,43.2L47.9,43.2L47.9,43.2C47.9,43.2,47.9,43.2,47.9,43.2z"/>
						<path fill="#202020" d="M53.8,27.5C53.8,27.5,53.8,27.5,53.8,27.5C53.9,27.5,53.8,27.5,53.8,27.5z"/>
						<path fill="#202020" d="M57.9,25.8l-0.1,0C57.8,25.8,57.9,25.8,57.9,25.8z"/>
						<path fill="#202020" d="M52.1,29.1c-0.1,0-0.1,0-0.1,0.1L52.1,29.1C52,29.2,52.1,29.1,52.1,29.1z"/>
						<path fill="#202020" d="M50.5,30.9C50.5,30.9,50.6,30.9,50.5,30.9L50.5,30.9L50.5,30.9z"/>
						<path fill="#202020" d="M72.8,48.9c0.1,0,0.1,0,0.2,0C72.9,48.9,73.1,48.6,72.8,48.9z"/>
						<path fill="#202020" d="M76.1,37.4C76.1,37.4,76.1,37.4,76.1,37.4L76.1,37.4C76.1,37.5,76.1,37.5,76.1,37.4z"/>
						<path fill="#202020" d="M52.9,30.1l-0.3,0.2C52.7,30.3,52.8,30.2,52.9,30.1z"/>
						<path fill="#202020" d="M58.5,53.3L58.5,53.3C58.6,53.3,58.5,53.3,58.5,53.3z"/>
						<path fill="#202020" d="M52,31.1c-0.1,0-0.2,0-0.2,0.1c0,0,0,0,0,0.1L52,31.1z"/>
						<path fill="#202020" d="M73,48.9L73,48.9L73,48.9z"/>
						<path fill="#202020" d="M74,46.8c-0.2,0.3,0.1,0.2,0.2,0.4c-0.2,0.4-0.2,0.1-0.4,0.1c-0.1,0.2,0,0.5-0.1,0.7c0,0-0.1,0-0.1,0
							c0,0.3-0.5,0.6-0.5,1c0,0-0.1,0-0.1,0c0.1,0,0.2,0.1,0.3,0.2c-0.1,0.1-0.1,0.3-0.2,0.3c0.1-0.1,0-0.1,0-0.2L73,49.3
							c-0.2,0,0.1-0.2,0-0.3c-0.2,0.3-0.3,0.7-0.5,0.8c-0.2-0.1,0.3-0.5,0-0.3l0.3-0.2c-0.4,0,0.2-0.1-0.3-0.2
							c-0.4,0.3-0.3,0.5-0.7,0.8c0,0.2,0.1,0.1,0.1,0.2c-0.4,0.6-0.7,0-0.9,0.5c0,0.2,0.1,0.4-0.3,0.5l0-0.2c-0.4,0.3,0,0.4-0.5,0.6
							c0-0.1,0.3-0.3,0.2-0.3c-0.4,0-0.1,0.2-0.3,0.4L70,51.5c-0.4,0.3-0.8,0.7-1.3,1c0-0.1,0.1-0.2-0.1-0.2c-0.3,0.2-0.6,0.3-1,0.5
							c-0.4,0.1-0.7,0.2-1,0.2l-0.2,0.2c-0.1,0-0.1,0-0.1-0.1c-0.3,0,0,0.1-0.1,0.2c-0.1,0-0.2,0-0.1-0.1c-0.4,0.3-1.2,0.6-1.7,0.5
							l0.1-0.1c-0.4,0-0.4,0.4-0.7,0.3l0.1,0c-0.8,0-1.7,0.2-2.3-0.1c-0.1,0.2-0.8-0.1-0.9,0.2c-0.4-0.2-0.3-0.3-0.9-0.5
							c-0.2,0-0.3,0.2-0.5,0.1l0-0.2l-0.3,0.1l-0.1-0.2l-0.2,0c0.1,0,0.1,0.1,0.1,0.2c-0.3,0-0.7-0.3-0.7-0.4l-0.8-0.1
							c0-0.1,0.2,0,0.3,0c-0.4,0,0-0.2-0.4-0.2c0,0.1-0.1,0.1-0.1,0.1c-0.1-0.2-0.5-0.4-0.8-0.4l0.1-0.1c-0.5-0.2-1-0.5-1.6-0.8
							c0.2,0.2,0,0.3-0.2,0.2l0-0.2c-0.2,0,0.1,0.2-0.2,0.2c-0.2-0.2,0-0.3,0.1-0.2l-0.3-0.1c0-0.1,0.1,0,0.1-0.1
							c-0.2,0-0.3-0.4-0.5-0.4l0-0.1c-0.5-0.4-0.7-0.5-1.1-0.9c-0.1,0.1-0.2,0-0.4-0.1c-0.2-0.3-0.4-0.7-0.7-1c-0.3-0.2-0.2,0-0.3,0
							c0.1-0.1-0.2-0.5,0-0.3c-0.3-0.4-0.5-0.5-0.9-1c0,0.1,0,0.2-0.1,0.2c-0.1-0.1-0.1-0.3,0-0.3l0,0c-0.6-0.5-0.5-1.7-1-2.2l0,0
							l-0.4-0.5c-0.1-0.3,0.2,0.1,0.2-0.1c-0.5-0.6-0.3-1-0.6-1.5c0.1-0.3,0.1-0.6,0-1c-0.1-0.4-0.2-0.8,0-1.1l-0.1,0
							c-0.1-0.1,0-0.2,0.1-0.3c-0.1,0-0.1,0.2-0.1,0.1c-0.2-1.3,0.2-2.7,0.6-3.9c0.1-0.4-0.4-0.4-0.1-0.9l0.1,0.2
							c0-0.5,0.2-1,0.4-1.4c0.2-0.4,0.4-0.9,0.6-1.3c0,0.1,0.1,0.1,0,0.2c0.2-0.1,0.4-0.6,0.3-0.7c0.1-0.1,0.1,0,0.2,0
							c0.2-0.1,0.1-0.5,0.3-0.5c0,0,0,0.1,0,0.1c0-0.1,0.4-0.5,0.2-0.5c0.3-0.2,0.3-0.6,0.6-0.8c0-0.3,0.5-0.4,0.3-0.6
							c0.2,0.2,0.6-0.3,0.7-0.6c0,0.1,0.2-0.1,0.2,0.1c0.2-0.2,0.3-0.4,0.2-0.4c0.5-0.1,0.6-0.8,1-0.6c0.3-0.3,0.5-0.5,0.8-0.8
							c0.3-0.2,0.6-0.5,0.9-0.6c0.1,0.2-0.7,0.4-0.5,0.6c0.5-0.4,0.8-0.8,1.4-1c0.2,0,0,0.1-0.1,0.2c0.6-0.4,1.2-0.4,1.7-0.8
							c0,0,0,0.1-0.1,0.1c0.1,0,0.3,0,0.2-0.1l-0.1,0.1c-0.2-0.1,0.3-0.5,0.4-0.6c-0.1,0.4,0.6-0.1,0.4,0.4c0.1,0,0.1-0.1,0.1-0.2
							c0.1,0,0.2,0,0.1,0.1c0.4-0.2,0.2-0.2,0.6-0.3c0,0.1-0.1,0.1-0.1,0.2c0.2-0.1,0.3-0.3,0.7-0.3c0,0,0,0.1-0.1,0.1
							c0.5-0.1,0.9-0.4,1.5-0.3c-0.2,0.3,0.2,0.1,0.2,0.3c0,0,0.3-0.1,0.3-0.1L62.4,26c0.3,0,0.5-0.1,0.8,0L62.9,26l0.5,0l-0.3-0.1
							c0.3-0.1,0-0.3,0.4-0.2c-0.1,0,0.3,0,0.4,0.2l0,0c0.1,0,0.3-0.1,0.5,0c0,0.1-0.1,0.2-0.1,0.3c0.2-0.2,0.7,0,0.9-0.1
							c-0.1,0-0.1,0.1-0.1,0.2l0.1-0.1c0.1,0.1,0.1,0.1,0.1,0.2c0.4,0.1-0.1-0.3,0.4-0.1c0,0,0,0-0.1,0c0.4,0.2,0.9,0.1,1.3,0.4
							c0,0.2-0.4-0.1-0.3,0.1c0.6,0.2,1.3,0.2,1.8,0.5l-0.1-0.1c0.2-0.2,0.3,0.3,0.7,0.3c-0.1,0-0.2,0.1-0.1,0.1
							c0.3,0.3,0.8,0.4,1.3,0.6l-0.1,0c0.2,0.2,0.5,0.4,0.7,0.6c0.1,0,0.2,0.1,0.2-0.1c0.2,0.4,0.5,0.6,0.8,0.8
							c0.3,0.2,0.6,0.4,0.7,0.8c-0.1-0.1-0.2-0.1-0.1-0.1l0.5,0.4c0.1-0.1,0-0.1,0-0.3c0.1,0,0.3,0.1,0.4,0.2
							c-0.3-0.2-0.2,0.1-0.1,0.3c0,0,0.1,0,0.1-0.1c0,0.4,0.2-0.1,0.4,0.3l-0.1,0c0.1,0.1,0.3,0.2,0.4,0.3c-0.1,0.1-0.2-0.1-0.3,0
							c0.2,0.2,0.5,0.2,0.5,0.5c-0.1-0.1-0.2-0.2-0.3-0.3c0,0.3,0,0.3,0.1,0.5l0,0l0.1,0.4l0-0.1c0.5,0.1,0.4,0.5,0.8,0.8
							c-0.4-0.3-0.2,0-0.3,0.1c0,0.1,0,0.3,0,0.3c0.2,0.1,0,0.3,0.3,0.5c0,0,0.1,0.2-0.1,0.2c0.2,0.2,0.1-0.1,0.1-0.1
							c0.4,0.3,0.1,1,0.6,1.4c0.2,0.4,0.4,0.5,0.6,0.9c0,0.2-0.2-0.1-0.2-0.1c0,0.3,0.1,0.4,0.2,0.7c-0.1,0-0.1,0-0.1,0.1
							c0,0.2,0.2,0.1,0.2,0.4c-0.1,0-0.2-0.1-0.3-0.1c0.1,0.2,0.2,0.4,0.3,0.6c-0.1,0.1-0.2-0.1-0.2-0.2c0.1,0.2,0.2,0.6,0.3,0.7
							l0-0.2c0,0.1-0.1,0.1-0.2,0c-0.2-0.2,0-0.3,0.1-0.3l0.1,0.2c0.3-0.2-0.2-0.7-0.2-1l0.3,0.1l-0.2-0.3c0-0.1,0.2-0.2,0.2,0
							c0.1-0.3-0.1-0.2-0.1-0.4c0,0,0,0,0,0l-0.1-0.2c0.1,0,0.2-0.1,0.2,0.1c0-0.5-0.3-0.6-0.2-0.8l0,0c-0.3-0.5-0.2,0-0.5-0.4
							l0.3-0.4L76,35c0-0.1,0-0.2,0-0.2c-0.2-0.2-0.1,0.1-0.2,0c0.1-0.3-0.4-0.7-0.2-0.9c-0.2,0,0,0.3-0.2,0.1
							c0.2-0.2-0.2-0.3-0.2-0.6c0.2,0,0.2,0.3,0.2,0c-0.3,0-0.2-0.5-0.4-0.7c-0.2,0.1-0.3-0.4-0.6-0.7c0.1,0-0.3-0.7-0.5-1l0,0
							c-0.2,0.1-0.4-0.3-0.6-0.4c0.1-0.1,0.2-0.1,0.3,0c0,0-0.2-0.2-0.2-0.2c-0.1,0-0.2,0-0.3-0.1l0.2-0.1c-0.2-0.2-0.6-0.4-0.8-0.8
							c-0.1,0.1,0,0.5-0.4,0.3c0-0.1,0.1-0.2,0.2-0.1c0,0-0.1,0-0.2-0.1l0.2,0c-0.1-0.2-0.2,0-0.3-0.1c0.1-0.1,0-0.1,0-0.2
							c0,0,0.1,0.1,0.1,0.1c-0.1-0.1-0.2-0.3-0.2-0.4c0,0.1-0.1,0.1-0.2,0c-0.3-0.2,0-0.2-0.1-0.4c-0.1,0-0.2-0.2-0.3-0.1
							c-0.1-0.1,0-0.1,0-0.2c-0.2,0-0.7-0.5-0.6-0.2l0,0l0,0l0,0l0,0c-0.5-0.2-0.9-0.7-1.5-1l0,0c-0.3-0.1-0.7-0.3-1-0.3
							c-0.1,0-0.2-0.2-0.1-0.2c-0.3-0.1-0.3,0-0.6-0.3c0.3,0-0.1-0.1,0.3,0c-0.3-0.2-0.3-0.3-0.7-0.3c0.2-0.1-0.2-0.3-0.3-0.3
							l0.2,0.2c-0.2,0-0.3-0.1-0.5-0.2l0.1-0.2c-0.6-0.4-1.3,0-1.7-0.4c-0.2,0.1,0.4,0.2,0.2,0.3c-0.3-0.1-0.6-0.4-0.7-0.4
							c-0.4-0.2-0.4,0.2-0.9,0.1c0.1,0.1,0.1,0.3-0.3,0.3c-0.3,0-0.4-0.3-0.2-0.4c0.1,0,0.1,0,0.1,0c0.1,0,0.2,0,0.1-0.1l0,0.1
							c-0.2-0.1-0.6-0.1-0.5-0.2c-0.2,0.1-0.1,0.1,0.1,0.2C62.6,25,62.4,25,62,25c0.1,0,0.1,0.1,0.1,0.1c-0.6-0.1-0.3,0.1-0.7,0.2
							c-0.2-0.1,0.1-0.3-0.3-0.1c-0.3-0.1-0.1-0.2,0-0.2c-0.4,0.1-0.7,0-1,0l0.2-0.1c-0.1,0.1-0.2,0.1-0.3,0.1l0.1,0.1
							c-0.1,0-0.2,0-0.2,0c-0.1,0.1,0.1,0.2-0.1,0.4c-0.2,0-0.5,0.1-0.6,0c0.5,0-0.1-0.2,0.3-0.3c-0.1,0-0.2,0-0.3,0c0,0,0,0,0-0.1
							c-0.5,0-0.2,0.3-0.7,0.4c0-0.1-0.2-0.2-0.2-0.1c0.2,0,0.1,0.1,0,0.3c-0.3,0-0.3,0.1-0.5,0.2l0.2,0c0,0.1-0.2,0.1-0.4,0.2
							c0-0.1,0.2-0.1,0.1-0.1c-0.2,0.3-0.6,0-0.9,0.2c-0.2,0-0.1-0.2-0.2-0.2c-0.3,0.3-0.4,0-0.8,0.3c0.2,0.1,0.2,0,0,0.3l0.6-0.4
							l-0.3,0.4c0.2-0.1,0.3-0.3,0.5-0.3c-0.1,0.2-0.1,0.1,0,0.2c-0.3-0.1-0.4,0.3-0.8,0.4l-0.1-0.3c-0.5,0.1-0.7,0.5-1.2,0.8
							l0.2-0.1c0,0.2-0.3,0.2-0.5,0.4c0-0.1-0.2-0.1-0.3-0.1c0.1,0.1-0.4,0.3-0.3,0.5l-0.3,0c-0.4,0.3-0.3,0.6-0.6,0.9
							c0-0.2-0.2-0.1,0-0.4c-0.1,0.1-0.2,0.2-0.2,0.3c-0.1,0-0.2,0.4-0.4,0.4c0,0.1,0.1,0.2-0.1,0.3c0,0,0,0,0,0
							c0,0-0.1,0.3,0.1,0.2c-0.6,0.1-0.9,1-1.4,1.2c-0.2,0.3-0.4,0.7-0.6,0.9c0,0,0,0,0-0.1c-0.3,0.3,0.1,0.4-0.2,0.8
							c-0.3,0.1,0.1-0.3-0.1-0.2c-0.4-0.1-0.3,0.5-0.6,0.7l0-0.1c-0.2,0.2-0.1,0.6-0.4,1c0,0,0,0-0.1,0c0,0.3-0.1,0.9-0.2,1.3
							c-0.1-0.2,0-0.2-0.2-0.2c0,0.2,0.2,0,0.2,0.4c-0.1,0.1-0.3,0.3-0.4,0.3c0,0,0.1-0.3,0.1-0.3c-0.3,0.1-0.1,0.4-0.2,0.6l-0.1,0
							c-0.1,0.5,0.1,0.6,0,1.1l0.1,0c0.2,0.3-0.2,0.2-0.1,0.6l-0.2,0.1c0,0.2,0.1,0.7,0.1,1.1c-0.2-0.2-0.2-0.6-0.2-0.9
							c0,0.2-0.1,0.7,0,0.8c0-0.1-0.1-0.2,0-0.3c0.1,0.3,0.2,0.6,0.2,1c-0.4-0.1-0.2,1-0.5,1.3c0.1,0.4,0.1,0.7,0.1,1.1
							c0,0.4,0,0.8,0.1,1.2c0.3-0.4,0,0.2,0.4,0.1c0.1,0.2,0.1,0.3,0.1,0.3l-0.1,0.6c-0.1,0.2-0.1-0.2-0.2-0.1
							c0.1,0.4-0.1,0.2-0.1,0.5c0.1-0.1,0.2,0.1,0.2,0.3l0.1-0.4c0.3,0.5-0.1,0.6,0.2,1.1l-0.2-0.1c0.2,0.3,0.4,1.1,0.8,1.2
							c0,0.1-0.1,0.2-0.2,0.1c0.3,0.7,1,1.3,1.2,1.9l-0.1,0c0.1,0.1,0.3,0.1,0.3,0.3c0,0-0.1,0-0.1,0.1c0.1,0,0.3,0.2,0.4,0.4
							l-0.2-0.1c0.2,0.3,0.4,0.5,0.6,0.7c0.2,0.1,0.5,0.3,0.7,0.5c-0.2,0.2,0.1,0.7,0.3,0.9l0,0c0.6,0.6,1.2,0.8,1.9,1.2
							c0.2,0.5,1.3,1,1.9,1.5c-0.1-0.1,0.1-0.2,0.2-0.1c0.1,0.1,0.5,0.1,0.4,0.3l-0.1,0c0,0.3,0.4,0.4,0.7,0.5l0.2-0.3
							c0.3,0.3,0.8,0.5,1.2,0.6c0.5,0.1,0.9,0.1,1,0.4c0.2,0,0.4,0,0.6,0l0,0.2c0.5,0.1,0.7,0.2,1.4,0.2l-0.1,0.1
							c0.4,0,0.5-0.4,0.8-0.4l0.1,0.2c0.6,0.1,1.3,0.2,1.8,0c0,0,0,0.1-0.1,0.1c0.3,0,1.1,0,1-0.3c0,0.2,0.6-0.1,0.9-0.2l0,0.2
							c0.2-0.3,0.2-0.3,0.6-0.5c0.1,0,0.1,0.1,0,0.1c0.3,0,0.2-0.2,0.6-0.2l-0.1,0.1c0.3-0.1,0.3-0.1,0.4-0.3c0.2-0.1,0.6-0.2,0.7,0
							c0-0.1,0.1-0.3,0.3-0.3c0,0,0,0.1,0,0.1c0.5-0.1,0.6-0.5,1-0.5c0,0,0.1,0.1,0.1,0.1c-0.4,0.2-0.7,0.3-0.7,0.3
							c0.1,0.1,0.4,0,0.2,0.3c0.2-0.2,0.5-0.6,0.9-0.7c0,0,0,0,0.1,0l0,0c0.1,0,0.1-0.1,0.2-0.1c0.1,0,0.2-0.1,0.3-0.1
							c0.1,0.1,0.4-0.1,0.5-0.2c-0.1-0.1,0.1-0.2-0.1-0.2c0,0,0,0-0.1,0.1c0,0,0,0-0.1,0.1l0,0c-0.1,0.1-0.2,0.1-0.4,0.2
							c0.1-0.1,0.2-0.3,0.4-0.3c0-0.1,0-0.3,0.1-0.3c0.3,0.1,0.8-0.1,0.9,0c0.4-0.4,1-0.8,1-1.2c0.1-0.1,0.2,0,0.3,0
							c0,0.1-0.1,0.1-0.1,0.2c0.2-0.3,0.6-0.6,0.5-0.8c0.3-0.2,0,0.3,0.3-0.1l0,0.1c0.5-0.3,0.6-0.7,0.8-1c0.2-0.4,0.3-0.8,0.8-1.1
							c-0.1,0-0.1,0.1-0.1,0.1c0.9-0.9,1.2-2.3,1.9-3.3c0.2-0.3,0.1-0.4,0-0.6l0.2,0l-0.1-0.4c0-0.5,0.7-0.8,0.5-1.5l-0.1,0.1
							c0.1-0.2,0-0.7,0.2-0.7c0,0-0.1-0.1,0-0.2l0.1,0c0,0-0.1-0.6-0.1-0.6c0.1-0.4,0.4,0.1,0.4-0.6c0-0.3-0.2-0.7-0.3-0.6
							c0,0.1-0.1,0.2-0.2,0.3l0-0.2c-0.3,0-0.5-0.2-0.7,0.3l0.1,0.4l-0.1,0.1l0-0.3c-0.1,0.2,0,0.3,0,0.4C76.1,41,76,41,76,41.1
							l0.2,0.4c-0.1,0-0.2-0.2-0.3,0c0.1,0.2,0.3-0.1,0.3,0.1c-0.1,0.2-0.2,0.1-0.2,0.3c-0.1,0-0.1,0-0.1-0.1c0.1,0.2,0,0.5,0.1,0.6
							C75.9,42.6,76,43,75.7,43c0,0.1,0.1,0.3,0.1,0.5c-0.2-0.4-0.2,0.6-0.5,0.4c0.2,0.3-0.1,0.8-0.1,1.2c0,0,0-0.1,0-0.1
							c-0.1,0.2-0.2,0.2-0.3,0.3c0.2,0.1,0.1,0.4,0.1,0.7c-0.3,0.2-0.2-0.3-0.4-0.3c0.2,0.1,0,0.5,0.1,0.5c-0.2,0.1-0.1,0.1-0.3,0.1
							c0.2,0.2,0,0.2,0,0.4c-0.3,0.2-0.3-0.1-0.4,0.3C74,47.1,74,46.8,74,46.8z M68.8,52.5L68.8,52.5c0.1,0,0.1-0.1,0.1-0.1
							C68.9,52.4,68.8,52.4,68.8,52.5z M68.2,52.8c0.1,0,0.2-0.1,0.3-0.1c0,0,0,0.1,0,0.1C68.4,52.7,68.3,52.8,68.2,52.8z M70,53.1
							c-0.1,0.1-0.1,0.1-0.2,0.1C69.9,53.1,69.9,53.1,70,53.1L70,53.1C70,53,70,53.1,70,53.1z"/>
						<path fill="#202020" d="M70,52.8C70.1,52.8,70.1,52.8,70,52.8C70.1,52.8,70,52.8,70,52.8L70,52.8L70,52.8z"/>
						<path fill="#202020" d="M70.9,28.1L70.9,28.1C70.9,28.1,70.9,28.1,70.9,28.1C70.9,28.1,70.9,28.1,70.9,28.1z"/>
						<polygon fill="#202020" points="59.2,53.4 59.2,53.4 59.3,53.4 						"/>
						<path fill="#202020" d="M73.3,31.1C73.3,31.1,73.3,31.1,73.3,31.1C73.3,31.1,73.3,31.1,73.3,31.1z"/>
						<path fill="#202020" d="M74.2,32.4l0.1,0.2C74.2,32.5,74.2,32.5,74.2,32.4z"/>
						<path fill="#202020" d="M74.7,33.5C74.8,33.5,74.8,33.5,74.7,33.5L74.7,33.5L74.7,33.5z"/>
						<path fill="#202020" d="M58.3,26.8C58.3,26.8,58.3,26.8,58.3,26.8C58.1,26.9,58.2,26.8,58.3,26.8z"/>
						<path fill="#202020" d="M64,25.9c-0.1,0-0.1,0-0.2,0C63.9,26,63.9,26,64,25.9z"/>
						<polygon fill="#202020" points="53,30.1 53,30.1 52.9,30.1 						"/>
						<path fill="#202020" d="M63.5,25.9c0.1,0,0.2,0,0.3,0C63.7,25.9,63.6,25.9,63.5,25.9z"/>
						<path fill="#202020" d="M76.2,38.5L76.2,38.5C76.2,38.6,76.2,38.6,76.2,38.5L76.2,38.5z"/>
						<path fill="#202020" d="M76.2,38.6L76.2,38.6C76.3,38.6,76.3,38.6,76.2,38.6z"/>
						<path fill="#202020" d="M76.3,38.8l0-0.1C76.3,38.7,76.3,38.8,76.3,38.8z"/>
						<path fill="#202020" d="M76,36.9L76,36.9C76,36.9,76,36.9,76,36.9z"/>
						<path fill="#202020" d="M75.9,36.5c0,0.1,0,0.3,0,0.5l0,0C75.8,36.9,76,36.5,75.9,36.5z"/>
						<path fill="#202020" d="M75.9,34.2c0,0,0.1,0.4,0.1,0.4c0-0.1,0.1-0.2,0.2,0C76.1,34,76.1,34.8,75.9,34.2z"/>
						<path fill="#202020" d="M75.4,33c0.1,0.2,0.1,0,0.1-0.1C75.4,32.8,75.4,32.8,75.4,33z"/>
						<path fill="#202020" d="M68.4,26.5l0.1-0.1C68.3,26.3,68.4,26.4,68.4,26.5z"/>
						<path fill="#202020" d="M66.4,26.5l0.1,0.1l0.1-0.1C66.7,26.6,66.4,26.5,66.4,26.5z"/>
						<polygon fill="#202020" points="65.6,25.3 65.7,25.3 65.4,25.2 						"/>
						<path fill="#202020" d="M50.7,30.5l0.2,0.1C50.9,30.4,50.8,30.3,50.7,30.5z"/>
						<path fill="#202020" d="M47.8,36.9c-0.1,0.1-0.2,0.2-0.1,0.4C47.7,37.1,47.8,37,47.8,36.9z"/>
						<polygon fill="#202020" points="57.1,54.3 56.9,54.3 57.2,54.3 						"/>
					</g>
				</g>
			</g>
		</g>
	</g>
	<g>
		<g>
			<g>
				<g>
					<g>
						<path fill="#202020" d="M65.1,41.7c0,0-0.1-0.1-0.1-0.1L65.1,41.7L65.1,41.7z"/>
						<path fill="#202020" d="M64.8,41.5c0,0.1,0,0.3,0.1,0.4C64.9,41.7,64.9,41.8,64.8,41.5c0.1,0.1,0.1,0.1,0.2,0.2
							c0,0,0.1,0,0-0.1c-0.1-0.1-0.1-0.1-0.1,0C64.8,41.6,64.8,41.5,64.8,41.5z"/>
						<path fill="#202020" d="M62,42.4L62,42.4C62,42.4,62,42.4,62,42.4z"/>
						<path fill="#202020" d="M60.3,42.9C60.3,42.9,60.3,42.9,60.3,42.9C60.3,42.9,60.3,42.9,60.3,42.9z"/>
						<path fill="#202020" d="M60,42.8C60,42.8,60,42.8,60,42.8C60,42.8,60,42.8,60,42.8z"/>
						<path fill="#202020" d="M62,42.4L62,42.4C62,42.4,62,42.4,62,42.4z"/>
						<path fill="#202020" d="M64.6,42.1C64.6,42.1,64.6,42.1,64.6,42.1L64.6,42.1L64.6,42.1z"/>
						<path fill="#202020" d="M62.7,41.9L62.7,41.9C62.7,41.9,62.7,41.9,62.7,41.9L62.7,41.9z"/>
						<path fill="#202020" d="M63.2,41.7c0,0,0,0.1,0.1,0.2c0-0.1,0-0.1,0-0.1C63.3,41.7,63.3,41.7,63.2,41.7z"/>
						<path fill="#202020" d="M64.2,41.5L64.2,41.5L64.2,41.5z"/>
						<path fill="#202020" d="M62.3,42.1C62.3,42,62.3,42,62.3,42.1L62.3,42.1z"/>
						<path fill="#202020" d="M53.2,35.5C53.2,35.5,53.2,35.5,53.2,35.5C53.2,35.5,53.2,35.5,53.2,35.5z"/>
						<polygon fill="#202020" points="54.1,34.9 54.1,34.9 54.2,34.9 						"/>
						<path fill="#202020" d="M59.4,42.7L59.4,42.7C59.4,42.7,59.4,42.7,59.4,42.7z"/>
						<path fill="#202020" d="M55,43.5c-0.1,0.1-0.2,0.2-0.2,0.3C54.8,43.7,55,43.6,55,43.5z"/>
						<path fill="#202020" d="M64.6,42.1C64.6,42.1,64.6,42.1,64.6,42.1C64.6,42.1,64.6,42.1,64.6,42.1z"/>
						<polygon fill="#202020" points="54.8,43.8 54.8,43.8 54.8,43.8 						"/>
						<path fill="#202020" d="M58.2,43.1C58.2,43.2,58.2,43.2,58.2,43.1C58.3,43.2,58.2,43.2,58.2,43.1z"/>
						<path fill="#202020" d="M59.2,43.1L59.2,43.1C59.2,43.1,59.2,43.1,59.2,43.1z"/>
						<path fill="#202020" d="M57.8,43.5C57.8,43.4,57.8,43.4,57.8,43.5L57.8,43.5C57.8,43.4,57.8,43.4,57.8,43.5z"/>
						<polygon fill="#202020" points="57.3,43.5 57.3,43.6 57.3,43.6 						"/>
						<path fill="#202020" d="M53.2,37.1c0,0,0.1,0,0.1,0C53.3,37.1,53.2,37,53.2,37.1z"/>
						<path fill="#202020" d="M64.6,42C64.6,42,64.6,42.1,64.6,42L64.6,42C64.6,42,64.6,42,64.6,42z"/>
						<path fill="#202020" d="M58,44.7L58,44.7C58,44.7,58,44.7,58,44.7z"/>
						<path fill="#202020" d="M53.4,40.9L53.4,40.9C53.3,40.9,53.3,40.9,53.4,40.9z"/>
						<path fill="#202020" d="M57.7,44.8c0-0.1,0-0.1-0.1-0.1C57.6,44.7,57.6,44.7,57.7,44.8L57.7,44.8z"/>
						<path fill="#202020" d="M53.4,37.1L53.4,37.1L53.4,37.1z"/>
						<path fill="#202020" d="M53,36.6c0,0.1,0.2,0,0.3,0.1c0.1,0.1-0.2,0-0.3,0.1c0.1,0.1,0.2,0.1,0.2,0.2c0,0,0,0-0.1,0
							c0.2,0.1,0,0.2,0.2,0.3c0,0,0,0-0.1,0c0.1,0,0.2,0,0.3,0c0,0,0.1,0.1,0,0.1c0,0-0.1,0-0.1,0l0.1,0c-0.2,0-0.1-0.1-0.2-0.1
							c0.1,0.1,0.2,0.2,0.2,0.2c-0.2,0-0.1-0.1-0.2-0.1l0.1-0.1c-0.3,0.1,0-0.1-0.3,0c-0.1,0.1,0.1,0.1,0,0.2c0.1,0,0.2,0,0.3,0
							c0.2,0.2-0.5,0.1-0.2,0.2c0.1,0,0.4,0,0.2,0.1l-0.2,0c0,0.1,0.3,0.1,0.2,0.2c-0.1,0-0.1-0.1-0.1-0.1C53.1,38,53.4,38,53.4,38
							l-0.2,0c0,0.1,0.2,0.2,0.2,0.4c-0.1,0-0.1,0-0.2,0c0.1,0.2,0,0.3-0.1,0.5l0.2,0.1c0,0-0.1,0-0.1,0c-0.1,0.1,0.1,0,0.2,0
							c0,0-0.1,0-0.1,0c0.1,0.1,0.3,0.3,0.1,0.4l-0.1,0c-0.1,0.1,0.3,0.1,0.2,0.2l0,0c-0.1,0.2,0.1,0.4-0.2,0.6
							c0.2,0-0.1,0.2,0.2,0.2c-0.2,0.1-0.2,0.1-0.3,0.3c0,0,0.2,0.1,0.3,0.1l-0.2,0l0.2,0.1l-0.2,0l0,0c0,0,0.1,0,0.1,0
							c0.1,0.1-0.1,0.2-0.2,0.2l0.2,0.2c-0.1,0-0.1,0-0.1,0c0.2,0.1-0.2,0,0,0.1c0,0,0.1,0,0.1,0c-0.1,0.1-0.1,0.1,0,0.2l-0.1,0
							c0,0.1,0.1,0.3,0.1,0.4c0.1-0.1,0.3-0.1,0.3,0l-0.2,0c0.1,0,0.1-0.1,0.2,0c0,0.1-0.2,0.1-0.3,0l0.1,0.1c-0.1,0-0.1,0-0.2,0
							c0.1,0-0.2,0.1,0,0.2l-0.1,0c0,0.1,0.1,0.2,0.1,0.3c0.2,0,0.1,0,0.3,0.1c0,0.1-0.2,0.2-0.1,0.3c0.1,0.1,0.1,0,0.2,0
							c-0.1,0-0.1,0.1-0.2,0.1c0,0.1,0,0.2,0.2,0.3c0.1,0,0.1,0,0.1,0c0,0-0.1,0.1-0.1,0.1l0,0c0.1,0.1,0,0.3,0,0.5
							c-0.1,0.2-0.1,0.4,0,0.5l0,0c0,0,0.2,0.1,0.2,0.1c0,0.1-0.1,0-0.2,0.2c0.2,0.1,0.2,0.3,0.5,0.2c-0.1,0.2,0.1,0.2,0.3,0.2
							c0.2,0,0.4,0,0.5,0.1l0-0.1C55,44.8,55,45,55.1,45c0-0.1-0.1-0.1,0-0.1c0.4-0.1,0.7,0.2,1,0.2c0.1,0,0-0.5,0.2-0.3l0,0.2
							c0.2-0.2,0.5,0,0.7-0.3c0,0,0,0.1,0,0.1c0.1,0.1,0.2,0,0.2-0.1c0,0,0,0.1,0.1,0.2c0.1,0.1,0.1-0.2,0.1-0.1c0,0,0,0,0,0.1
							c0-0.1,0.2,0,0.1-0.2c0.1,0.1,0.2-0.1,0.2,0c0-0.2,0.2,0.1,0.1-0.2c0,0.3,0.2,0.2,0.2,0c0,0.1,0.1,0.1,0.1,0.2
							c0.1,0,0.1-0.1,0.1-0.2c0.2,0.3,0.2-0.3,0.3,0.1c0.2-0.2,0.3-0.3,0.4-0.4c0.1,0.3-0.2,0.1-0.1,0.3c0.1-0.1,0.2-0.4,0.3-0.4
							c0,0,0,0.1,0,0.2c0.1-0.1,0.3-0.1,0.4-0.2c0,0,0,0.1,0,0.1c0,0,0.1,0,0-0.1l0,0c-0.1-0.2,0-0.4,0-0.5c0,0.3,0.2,0,0.2,0.5
							c0,0,0-0.1,0-0.2c0,0,0.1,0.1,0.1,0.2c0.1-0.1,0-0.2,0.1-0.2c0,0.1,0,0.1,0,0.1c0-0.1,0-0.2,0.1-0.2c0,0,0,0.1,0,0.1
							c0.1-0.1,0.1-0.3,0.3-0.3c0,0.2,0.1,0.1,0.1,0.3l0.1-0.1l-0.1-0.1c0.1,0,0.1-0.2,0.1-0.1l0,0.1l0.1-0.1l-0.1-0.1
							c0-0.1-0.1-0.3,0-0.2c0,0,0.1,0,0.1,0.1l0,0c0-0.1,0-0.2,0.1-0.1c0,0.1,0.1,0.2,0.1,0.3c0-0.2,0.1-0.1,0.1-0.3
							c0,0,0,0.2,0.1,0.2l0-0.1c0,0,0.1,0.1,0.1,0.1c0.1,0-0.1-0.2,0-0.2c0,0,0,0,0,0.1c0.1,0,0.2-0.2,0.3-0.1
							c0.1,0.2-0.1,0.1,0,0.2c0.1-0.1,0.2-0.3,0.3-0.3l0,0c-0.1-0.3,0.2,0.1,0.2-0.1c0,0,0,0.2,0,0.1c0.1,0,0.2-0.1,0.3-0.3l0,0.1
							c0.1,0,0.2,0,0.2,0c0-0.1,0-0.1,0-0.2c0.3,0.3,0.2-0.4,0.5-0.1c0,0,0,0.1,0,0.1l0.1-0.1c-0.1-0.1,0-0.1-0.1-0.2
							c0-0.1,0-0.2,0-0.2c0,0.1,0.1,0.2,0.1,0.3c0,0,0-0.1,0-0.1c0.2,0.2-0.1-0.3,0.1-0.1l0,0.1c0,0,0-0.1,0.1-0.1
							c0.1,0.1,0,0.1,0,0.2c0,0,0-0.3,0.1-0.2c0,0,0,0.1,0,0.1c0.1,0.1,0.1,0.1,0.2,0.1l0,0l0.1,0l0,0c-0.1-0.4,0.1-0.1,0.1-0.4
							c0,0.3,0,0.1,0.1,0.3c0,0,0.1,0.1,0.1,0.1c0-0.1,0.1,0.1,0.1-0.1c0,0.1,0,0,0.1,0.1c0-0.1-0.1-0.1-0.1-0.2
							c0-0.2,0.3,0.1,0.3-0.2c0.1-0.1,0-0.3,0.1-0.5c0.1,0.1,0.1,0.2,0.1,0.2c0.1,0.1,0.1,0,0.1-0.1c0,0,0,0.1,0.1,0.1
							c0,0-0.1-0.2,0-0.1c0,0.1,0,0.2,0.1,0.2c0-0.1,0-0.2,0.1-0.3c0.1,0.1,0,0.1,0,0.2c0-0.1,0.1-0.1,0.1-0.3l-0.1,0
							c0,0,0.1,0.1,0.1,0.1c0,0.1-0.1,0-0.1-0.1l0,0c-0.2-0.3-0.1,0.1-0.2,0.1l-0.1-0.2l0,0.2c0-0.1-0.1-0.2-0.1-0.2
							c-0.1-0.1,0,0.1-0.1,0c0,0,0,0,0,0l0,0.1c0-0.1-0.1-0.2,0-0.1c-0.1-0.1-0.1,0.2-0.2,0.1l0,0c-0.1,0.1,0.1,0.2,0.1,0.4
							l-0.2-0.4l0.1,0.2c0,0,0,0-0.1-0.1c0,0.1,0,0.1,0.1,0.2c-0.1-0.1-0.1,0.1-0.3-0.1c0,0.1,0.1,0.1,0.1,0.2
							c-0.1-0.3-0.1,0.1-0.2,0c0-0.1,0-0.1-0.1-0.2c0.1,0.3-0.1,0-0.2,0.1c0.1,0.2-0.1,0.1-0.1,0.2c0-0.1-0.2,0-0.3-0.1l0,0
							c0.1,0.2,0,0.2-0.1,0.3c0-0.1-0.1-0.2,0-0.2l-0.1,0c0,0.1,0,0.1,0,0.1l0-0.2c-0.1,0-0.1,0.2-0.2,0.2c0.1,0.1,0.2,0.4,0.2,0.5
							c0-0.1-0.1-0.2-0.1-0.2c0,0,0,0.1,0,0l0-0.1c-0.1,0,0,0.1,0,0.1c0-0.1-0.1-0.1-0.1-0.2c0,0,0,0,0,0c0,0-0.1,0-0.2-0.1
							c0,0.1,0.1,0.1,0,0.2c-0.1,0-0.1-0.1-0.1-0.2c0,0.1-0.1,0,0,0.2c0,0-0.1-0.1-0.1-0.1c0,0.1-0.2,0.1,0,0.2l0,0l0,0l0,0l0,0
							c-0.1,0.2-0.3,0-0.4,0.1l0-0.1c0,0.1-0.1,0.1-0.1,0.2c0,0-0.1-0.1-0.1-0.1c0,0.1,0,0.1-0.1,0.1c0-0.1,0-0.1,0-0.1
							c-0.1,0-0.1-0.1-0.2,0.1c0-0.1-0.1-0.2-0.1-0.1l0.1,0.1c0,0-0.1,0-0.1,0l0-0.2c-0.2-0.2-0.1,0.5-0.4,0.1
							c0,0.1,0.1,0.1,0.1,0.2c-0.1,0-0.2-0.2-0.3-0.2c-0.1-0.1,0,0.3-0.1,0.3c0,0.1,0.1,0.2,0.1,0.3c-0.1,0-0.2-0.2-0.1-0.3
							c0,0,0,0,0,0c0,0,0-0.1,0-0.1l0,0.1c-0.1-0.1-0.1,0-0.2-0.1c0,0.1,0,0.1,0.1,0.1c-0.1-0.1-0.1,0-0.2,0c0,0,0.1,0.1,0,0.1
							c-0.2,0,0,0.1-0.1,0.2c-0.1-0.1-0.1-0.2-0.1-0.1c-0.1-0.1-0.1-0.2-0.1-0.2c0,0.2-0.2,0-0.2,0l0-0.1c0,0,0,0-0.1,0.1l0.1,0.1
							c0,0-0.1,0-0.1-0.1c0,0.1,0.1,0.2,0.1,0.3c-0.1-0.1-0.1,0.1-0.1-0.1c0.1,0-0.1-0.2,0-0.2c0,0,0,0-0.1,0c0,0,0,0,0,0
							c-0.1-0.1,0,0.2-0.1,0.2c0-0.1-0.1-0.2-0.1-0.2c0,0,0.1,0.2,0,0.2c-0.1-0.1-0.1,0.1-0.1,0.1l0,0c0,0.1,0,0.1-0.1,0.1
							c0-0.1,0-0.1,0-0.1c0,0.2-0.2-0.1-0.2,0c-0.1-0.1-0.1-0.2-0.1-0.2c0,0.1-0.1-0.1-0.2,0c0.1,0.1,0.1,0.1,0,0.2l0.1-0.1l0,0.2
							c0,0,0.1-0.1,0.1-0.1c0,0.1,0,0.1,0,0.2c-0.1-0.2-0.1,0.1-0.2,0l-0.1-0.3c-0.1-0.1-0.1,0.2-0.3,0.2l0.1,0c0,0.1-0.1,0-0.1,0.1
							c0-0.1-0.1-0.1-0.1-0.2c0,0.1-0.1,0-0.1,0.2l-0.1-0.1c-0.1,0-0.1,0.3-0.2,0.3c0-0.1-0.1-0.2,0-0.3c0,0-0.1,0-0.1,0.1
							c0-0.1-0.1,0.2-0.1,0.1c0,0.1,0,0.2,0,0.2c0,0,0-0.1,0-0.1c0,0.1,0,0.1,0,0.2c-0.2-0.3-0.3,0.1-0.4-0.2
							c-0.1,0-0.2,0.1-0.2,0.1c0,0,0-0.1,0,0c-0.1-0.1,0,0.3-0.1,0.2c-0.1-0.2,0-0.1,0-0.2c-0.1-0.4-0.1,0.1-0.2-0.1l0,0
							c-0.1-0.1-0.1,0.2-0.2,0.1c0,0,0,0,0-0.1c0,0.2-0.2,0.3-0.2,0.3c0-0.1,0-0.1,0-0.2c0,0,0,0.2,0,0.3c0-0.1-0.1-0.1-0.1-0.3
							l0.1,0c-0.1-0.2-0.1,0-0.1,0l0-0.1c-0.1,0-0.1,0.3-0.2,0.3l0,0.1c-0.1,0.2-0.1-0.1-0.1,0l0-0.2c0,0.1-0.1,0.2-0.2,0.3
							c0-0.2,0.1-0.3,0.2-0.4c0,0-0.1,0-0.2,0.1c0,0,0-0.1,0.1,0c0,0.2-0.1,0.3-0.2,0.3c0-0.4-0.2-0.1-0.3-0.5
							c-0.1,0.2-0.1-0.1-0.1,0c-0.2,0.3,0,0-0.2,0.4c0,0,0,0,0,0c0,0,0.1-0.2,0.1-0.2c0.1-0.1,0.1-0.1,0.1-0.1c0,0,0.1-0.1,0.2-0.2
							C55,43.3,55,43.4,55,43.3c0,0-0.1,0.2-0.1,0.2c-0.2,0.1,0.3-0.3,0.1-0.1l0.1-0.1c-0.1,0,0,0-0.3,0.1c0,0,0.1-0.1,0.2-0.1
							c0,0-0.3,0-0.2-0.2l0.1,0c0,0-0.2,0-0.1-0.1c0,0,0.1,0,0.1,0c0,0-0.2-0.1-0.1-0.1l0.1,0c0.1-0.2-0.3-0.2-0.3-0.3
							c0.3,0,0.3-0.2,0.4-0.2l0,0c0-0.2-0.2-0.3-0.3-0.4c0.3-0.1,0.1-0.4,0.2-0.5c0,0-0.2,0-0.2,0c0,0-0.2-0.1,0-0.1l0,0
							c0.2,0,0.2-0.1,0.2-0.2l-0.3,0c0.4-0.2-0.2-0.4,0.2-0.5c-0.1,0-0.1-0.1-0.2-0.1l0.2,0c0-0.1,0.1-0.2,0-0.3l0.1,0
							c0-0.1-0.5-0.1-0.5-0.1l0.2,0c0-0.1,0.2-0.3,0-0.4c0,0,0.1,0,0.1,0c0-0.1,0.2-0.2-0.2-0.2c0.2,0,0-0.1-0.1-0.2l0.2,0
							c-0.2-0.1-0.3-0.1-0.3-0.1c0,0,0.1,0,0.1,0c0.1-0.1-0.2,0-0.1-0.1l0.1,0c0-0.1,0-0.1-0.2-0.1c-0.1,0,0-0.1,0.2-0.1
							c-0.1,0-0.2,0-0.2-0.1c0.1,0,0.1,0,0.1,0c0.1-0.1-0.2-0.2,0-0.2c0.1,0,0.1,0,0.1,0c0,0.1,0,0.2,0,0.2c0.1,0,0.2-0.1,0.4,0
							c-0.1-0.1-0.4-0.2-0.3-0.2c0,0,0,0,0.1,0l0,0c0,0,0,0,0,0c0,0,0,0,0-0.1c0.1,0,0.1-0.1,0.1-0.1c-0.2,0-0.1,0-0.3,0
							c0,0,0,0,0,0c0,0,0,0,0,0l0,0c0,0,0,0.1,0,0.1c-0.1,0-0.2-0.1-0.1-0.1c-0.1,0-0.2,0-0.3,0c0.2-0.1,0.3-0.1,0.5-0.2
							c-0.1-0.1-0.1-0.3-0.4-0.3c0,0,0.1,0,0.1,0c0,0,0,0,0.1,0.1c-0.1-0.1,0-0.2-0.2-0.2c0.1-0.1,0.2,0,0.2-0.1l0.1,0
							c0.3-0.2-0.5-0.4-0.1-0.6c0,0,0,0-0.1,0c0.2-0.3-0.2-0.6,0.2-0.8c0.1-0.1-0.1-0.1-0.2-0.1l0.2,0l-0.2-0.1
							c-0.1-0.1,0.4-0.2,0.2-0.3l-0.1,0c0-0.1-0.1-0.2,0.1-0.2c0,0-0.1,0-0.1,0l0.1,0l-0.1-0.1c0.1-0.1,0.4,0,0.4-0.1
							c0-0.1-0.3-0.2-0.3-0.2c0,0-0.1,0.1-0.2,0l0-0.1c-0.3,0-0.5-0.1-0.7,0l0.2,0.1l-0.1,0l0-0.1c-0.1,0,0,0.1,0.1,0.1
							c-0.1,0-0.1,0-0.1,0l0.3,0.1c-0.1,0-0.2,0-0.3,0c0.1,0,0.2,0,0.3,0c-0.1,0-0.2,0-0.1,0.1c-0.1,0-0.1,0-0.1,0
							c0.1,0,0,0.1,0.2,0.1c-0.2,0,0,0.1-0.2,0.1c0.1,0,0.2,0.1,0.2,0.1c-0.3-0.1,0,0.1-0.3,0.1c0.3,0.1,0.1,0.2,0.3,0.3
							c0,0-0.1,0-0.1,0c0,0.1-0.1,0.1-0.2,0.1c0.2,0,0.3,0.1,0.4,0.1c-0.2,0.1-0.3,0-0.5,0c0.2,0,0.2,0.1,0.3,0.1
							c-0.1,0-0.1,0-0.3,0.1c0.3,0,0,0,0.2,0.1c-0.1,0.1-0.3,0-0.2,0.1C53.1,36.6,53,36.6,53,36.6z M53.5,38.4L53.5,38.4
							C53.5,38.4,53.5,38.4,53.5,38.4C53.5,38.4,53.5,38.4,53.5,38.4z M53.5,38.6C53.5,38.6,53.5,38.5,53.5,38.6
							c0.1-0.1,0.1-0.1,0.1-0.1C53.6,38.5,53.5,38.6,53.5,38.6z M54.6,38.2C54.6,38.3,54.6,38.3,54.6,38.2
							C54.6,38.3,54.6,38.3,54.6,38.2L54.6,38.2C54.6,38.2,54.6,38.2,54.6,38.2z"/>
						<path fill="#202020" d="M54.4,38.2C54.4,38.2,54.4,38.2,54.4,38.2C54.4,38.2,54.4,38.2,54.4,38.2L54.4,38.2L54.4,38.2z"/>
						<path fill="#202020" d="M62.1,42.4L62.1,42.4C62.1,42.4,62.1,42.4,62.1,42.4L62.1,42.4z"/>
						<polygon fill="#202020" points="53.3,40.7 53.3,40.7 53.3,40.7 						"/>
						<path fill="#202020" d="M63.1,42.6C63.1,42.6,63.1,42.6,63.1,42.6C63.1,42.6,63.1,42.6,63.1,42.6z"/>
						<path fill="#202020" d="M63.4,42.5L63.4,42.5C63.4,42.5,63.4,42.5,63.4,42.5z"/>
						<path fill="#202020" d="M63.7,42.4C63.7,42.4,63.7,42.4,63.7,42.4L63.7,42.4L63.7,42.4z"/>
						<path fill="#202020" d="M59.5,44.2C59.5,44.2,59.5,44.2,59.5,44.2C59.5,44.2,59.5,44.2,59.5,44.2z"/>
						<path fill="#202020" d="M60.7,43.4C60.7,43.4,60.7,43.5,60.7,43.4C60.7,43.5,60.7,43.5,60.7,43.4z"/>
						<polygon fill="#202020" points="58,44.7 58,44.7 58,44.7 						"/>
						<path fill="#202020" d="M60.6,43.5C60.6,43.5,60.7,43.5,60.6,43.5C60.6,43.5,60.6,43.5,60.6,43.5z"/>
						<path fill="#202020" d="M64.9,42L64.9,42C64.9,42,64.9,42,64.9,42L64.9,42z"/>
						<path fill="#202020" d="M64.9,42L64.9,42C64.9,42,64.9,42,64.9,42z"/>
						<path fill="#202020" d="M64.9,41.9L64.9,41.9C64.9,41.9,64.9,41.9,64.9,41.9z"/>
						<path fill="#202020" d="M64.5,42.1L64.5,42.1C64.5,42.1,64.5,42.1,64.5,42.1z"/>
						<path fill="#202020" d="M64.4,42.1c0,0,0.1,0.1,0.1,0l0,0C64.5,42.2,64.4,42,64.4,42.1z"/>
						<path fill="#202020" d="M63.7,41.7l0.1,0c0-0.1-0.1-0.1-0.1-0.2C63.5,41.4,63.8,41.6,63.7,41.7z"/>
						<path fill="#202020" d="M63.4,41.7c0,0,0-0.1,0-0.1C63.3,41.7,63.3,41.7,63.4,41.7z"/>
						<path fill="#202020" d="M61.4,42.5l0-0.1C61.3,42.4,61.4,42.4,61.4,42.5z"/>
						<polygon fill="#202020" points="61.3,43.4 61.4,43.4 61.3,43.3 						"/>
						<polygon fill="#202020" points="60.7,42.5 60.7,42.4 60.7,42.5 						"/>
						<path fill="#202020" d="M57.4,43.4l0,0.2C57.4,43.5,57.4,43.3,57.4,43.4z"/>
						<path fill="#202020" d="M55.9,43.7C55.9,43.6,55.9,43.6,55.9,43.7C55.9,43.7,55.9,43.7,55.9,43.7z"/>
						<polygon fill="#202020" points="54.7,41.1 54.8,41.1 54.7,41 						"/>
					</g>
				</g>
			</g>
		</g>
	</g>
	<g>
		<g>
			<g>
				<g>
					<g>
						<path fill="#202020" d="M84.1,73.1c0,0,0.1,0.1,0.1,0.1L84.1,73.1L84.1,73.1z"/>
						<path fill="#202020" d="M84.4,73.3c0-0.1-0.1-0.3-0.2-0.4C84.3,73.1,84.3,73,84.4,73.3c-0.1,0-0.2-0.1-0.2-0.2
							c0,0-0.1,0,0,0.1c0.1,0.1,0.2,0.1,0.1,0C84.4,73.2,84.4,73.3,84.4,73.3z"/>
						<path fill="#202020" d="M86.6,71.5L86.6,71.5C86.6,71.5,86.6,71.5,86.6,71.5z"/>
						<path fill="#202020" d="M87.5,69.8C87.5,69.9,87.5,69.9,87.5,69.8C87.5,69.9,87.5,69.9,87.5,69.8z"/>
						<path fill="#202020" d="M87.8,69.6L87.8,69.6C87.8,69.6,87.8,69.6,87.8,69.6z"/>
						<path fill="#202020" d="M86.6,71.5L86.6,71.5C86.6,71.4,86.6,71.4,86.6,71.5z"/>
						<path fill="#202020" d="M84.5,72.7C84.5,72.7,84.5,72.8,84.5,72.7L84.5,72.7L84.5,72.7z"/>
						<path fill="#202020" d="M86.3,72.2L86.3,72.2C86.3,72.2,86.3,72.3,86.3,72.2L86.3,72.2z"/>
						<path fill="#202020" d="M85.9,72.7c0,0-0.1-0.1-0.1-0.2C85.8,72.6,85.8,72.6,85.9,72.7C85.8,72.6,85.9,72.7,85.9,72.7z"/>
						<path fill="#202020" d="M85,73.2L85,73.2L85,73.2z"/>
						<path fill="#202020" d="M86.6,71.9C86.6,71.9,86.6,71.9,86.6,71.9C86.6,71.9,86.6,71.9,86.6,71.9z"/>
						<path fill="#202020" d="M79.1,62.7C79.1,62.7,79.1,62.7,79.1,62.7C79.1,62.7,79.1,62.7,79.1,62.7z"/>
						<polygon fill="#202020" points="78.1,62.3 78.1,62.3 78.1,62.2 						"/>
						<path fill="#202020" d="M88.1,69.1L88.1,69.1C88.1,69.1,88.1,69.1,88.1,69.1z"/>
						<path fill="#202020" d="M86.9,63.8c-0.1,0.1-0.2,0-0.3,0.2C86.7,63.9,86.9,63.9,86.9,63.8z"/>
						<path fill="#202020" d="M84.5,72.7C84.5,72.7,84.5,72.7,84.5,72.7C84.5,72.7,84.5,72.7,84.5,72.7z"/>
						<polygon fill="#202020" points="86.6,64 86.6,64 86.6,64 						"/>
						<path fill="#202020" d="M88.1,67.7C88.1,67.7,88.1,67.7,88.1,67.7C88.1,67.7,88.1,67.7,88.1,67.7z"/>
						<path fill="#202020" d="M87.8,68.7L87.8,68.7C87.8,68.7,87.8,68.7,87.8,68.7z"/>
						<path fill="#202020" d="M87.9,67.2C87.9,67.2,87.9,67.1,87.9,67.2L87.9,67.2C87.9,67.1,87.9,67.1,87.9,67.2z"/>
						<polygon fill="#202020" points="87.8,66.6 87.8,66.6 87.8,66.7 						"/>
						<path fill="#202020" d="M80.3,62.3c0,0,0-0.1,0-0.1C80.3,62.2,80.2,62.3,80.3,62.3z"/>
						<path fill="#202020" d="M84.5,72.8C84.5,72.8,84.5,72.7,84.5,72.8L84.5,72.8C84.5,72.8,84.5,72.8,84.5,72.8z"/>
						<path fill="#202020" d="M86.6,67.2L86.6,67.2C86.6,67.2,86.6,67.2,86.6,67.2z"/>
						<path fill="#202020" d="M83.5,62.7L83.5,62.7C83.5,62.7,83.5,62.7,83.5,62.7z"/>
						<path fill="#202020" d="M86.6,67c0.1,0,0.1,0,0.1-0.1C86.7,66.9,86.7,66.9,86.6,67L86.6,67z"/>
						<path fill="#202020" d="M80.3,62.1L80.3,62.1L80.3,62.1z"/>
						<path fill="#202020" d="M79.9,62.6c0.1,0,0-0.2,0-0.3C79.9,62.2,79.9,62.4,79.9,62.6c0.1-0.2,0.1-0.4,0.2-0.4c0,0,0,0,0,0.1
							c0-0.2,0.2,0,0.2-0.3c0,0,0,0,0,0.1c0-0.1,0-0.2-0.1-0.3c0,0,0-0.1,0.1,0c0,0,0,0.1,0,0.1l0-0.1c0.1,0.2,0,0.1,0,0.2
							c0.1-0.1,0.1-0.3,0.2-0.2c0,0.2-0.1,0.1,0,0.2l-0.1-0.1c0.1,0.3,0,0,0,0.3c0.1,0,0.1-0.1,0.2-0.1c0-0.1,0-0.2,0-0.3
							c0.1-0.2,0.1,0.5,0.2,0.2c0-0.1,0-0.4,0.1-0.3l0,0.2c0.1,0,0-0.3,0.1-0.2c0,0.1-0.1,0.1-0.1,0.1c0.1,0.2,0-0.1,0.1-0.1l0,0.2
							c0.1,0,0.2-0.2,0.3-0.2c0,0.1,0,0.1,0,0.2c0.1-0.1,0.3,0,0.4,0.2l0.1-0.2c0,0,0,0.1,0,0.1c0,0.1,0-0.1,0.1-0.2
							c0,0,0,0.1,0,0.1c0.1-0.1,0.3-0.3,0.4-0.1l0,0c0.1,0.1,0.2-0.3,0.2-0.1l0,0c0.1,0.1,0.4,0,0.4,0.3c0.1-0.2,0.1,0.2,0.2-0.2
							c0,0.2,0,0.2,0.1,0.4c0,0,0.1-0.2,0.2-0.2l-0.1,0.2l0.1-0.1l-0.1,0.2l0.1,0c0,0,0-0.1,0-0.1c0.1,0,0.1,0.2,0.1,0.3l0.2-0.1
							c0,0.1-0.1,0.1-0.1,0.1c0.2-0.1-0.1,0.2,0.1,0.1c0,0,0.1-0.1,0.1-0.1c0,0.1,0.1,0.2,0.1,0.1L83.9,63c0.1,0.1,0.2,0.1,0.3,0.1
							c0-0.1,0.1-0.2,0.2-0.2l-0.1,0.2c0.1-0.1,0-0.1,0.1-0.2c0,0-0.1,0.2-0.1,0.2l0.1,0c0,0-0.1,0.1-0.1,0.1c0.1-0.1,0,0.2,0.1,0.1
							l0,0c0.1,0.1,0.2,0,0.3,0.1c0.1-0.1,0.1-0.1,0.2-0.2c0,0.1,0,0.2,0.1,0.3c0.1,0,0.1-0.1,0.2-0.1c-0.1,0.1,0,0.2-0.1,0.2
							c0.1,0.1,0.1,0.1,0.3,0.1c0-0.1,0-0.1,0.1-0.1c0,0,0,0.1-0.1,0.1l0,0c0.3,0-0.1,0.6,0.2,0.4l0,0l0.2,0c0,0.1-0.1,0-0.2,0.1
							c0.3,0,0.1,0.2,0.3,0.2c-0.3,0.3,0.2,0.2,0,0.5l0.1-0.1c0.1,0,0,0.1,0,0.1c0.1,0,0.1-0.1,0.1-0.1c0.2,0.2,0.1,0.5,0.1,0.8
							c0,0.1,0.5-0.1,0.3,0.1l-0.2,0c0.3,0.1,0.1,0.4,0.3,0.5c0,0-0.1,0-0.1,0c-0.1,0.1,0,0.1,0.1,0.1c0,0-0.1,0-0.2,0.1
							c-0.1,0.1,0.2,0.1,0.1,0.1c0,0,0,0-0.1,0c0.1,0,0,0.1,0.2,0.1c-0.1,0.1,0.1,0.1,0,0.2c0.2,0-0.1,0.1,0.2,0.1
							c-0.3,0-0.2,0.1-0.1,0.2c-0.1,0-0.1,0-0.2,0c0,0.1,0.1,0.1,0.2,0.1c-0.3,0.1,0.3,0.2-0.1,0.3c0.2,0.2,0.2,0.3,0.3,0.5
							c-0.3,0,0-0.2-0.3-0.2c0.1,0.1,0.3,0.2,0.2,0.4c0,0-0.1,0-0.2,0c0.1,0.1-0.1,0.3,0.1,0.4c0,0,0,0-0.1,0c0,0,0,0,0.1,0.1l0,0
							c0.2,0,0.3,0.2,0.4,0.2c-0.3-0.1-0.1,0.1-0.5,0c0,0,0.1,0,0.2,0.1c0,0-0.1,0-0.2,0c0.1,0.1,0.2,0.1,0.2,0.2
							c-0.1,0-0.1,0-0.1-0.1c0.1,0.1,0.2,0.1,0.1,0.2c0,0-0.1,0-0.1,0c0,0.1,0.2,0.3,0.1,0.4c-0.2-0.1-0.1,0-0.3,0l0,0.1l0.1,0
							c0,0.1,0.1,0.2,0,0.2l-0.1-0.1l0,0.1l0.1,0c0.1,0.1,0.3,0.1,0.2,0.1c0,0,0,0.1-0.2,0l0,0c0.1,0.1,0.1,0.1,0,0.1
							c-0.1,0-0.2-0.1-0.3-0.1c0.2,0.1,0,0.2,0.2,0.3c0,0-0.1-0.1-0.2-0.1l0.1,0.1c-0.1,0-0.1,0-0.2,0c-0.1,0.1,0.3,0.1,0.1,0.1
							c0,0,0,0,0,0c-0.1,0.1,0,0.2-0.1,0.3c-0.2-0.1,0-0.1-0.2-0.1c0,0.1,0.1,0.4,0,0.5l0,0c0.3,0.2-0.2,0-0.1,0.1
							c0,0-0.1-0.1-0.1-0.1c-0.1,0.1,0,0.2,0,0.4l-0.1-0.1c-0.1,0-0.1,0.1-0.2,0.1c0.1,0.1,0,0.1,0.1,0.1c-0.5-0.1,0,0.4-0.4,0.3
							c0,0,0-0.1,0-0.1l0,0.1c0.1,0.1,0.1,0,0.2,0.1c0.1,0.1,0.1,0.1,0.1,0.2c0-0.1-0.2-0.1-0.2-0.2c0,0,0.1,0.1,0.1,0.1
							c-0.2-0.1,0.2,0.2,0,0.2l-0.1,0c0,0.1,0.1,0.1,0,0.2c-0.1-0.1,0-0.1-0.1-0.2c0,0,0.2,0.3,0,0.2c0,0,0-0.1,0-0.1
							c-0.2-0.1-0.1,0-0.2,0l0,0l-0.1,0l0.1,0c0.2,0.3,0,0.1,0.1,0.4c-0.1-0.2-0.1-0.1-0.2-0.2c-0.1,0-0.1,0-0.1-0.1
							c0.1,0.1-0.1,0,0,0.2c0,0,0,0-0.1-0.1c0,0.1,0.1,0.1,0.1,0.1c0.1,0.2-0.3,0-0.2,0.2c0,0.1,0.1,0.3,0.1,0.4
							c-0.1,0-0.1-0.2-0.1-0.2c-0.1,0-0.1,0-0.1,0.1c0,0-0.1-0.1-0.1-0.1c0,0,0.1,0.2,0,0.1c0-0.1-0.1-0.1-0.1-0.2
							c0,0.1,0,0.2,0,0.2c-0.1-0.1-0.1-0.1-0.1-0.2c0,0.1-0.1,0.2,0,0.3l0.1,0c0,0-0.1-0.1-0.1-0.1c0-0.1,0.1,0,0.1,0l0,0
							c0.2,0.2,0.1-0.1,0.2-0.1l0.1,0.2L84.7,73c0,0,0.1,0.1,0.1,0.2c0.1,0.1,0-0.1,0.1,0c0,0,0,0,0,0l0-0.1c0,0,0.1,0.1,0.1,0.1
							c0.2,0,0-0.2,0.1-0.1l0,0c0-0.1-0.1-0.1-0.2-0.4l0.3,0.3l-0.1-0.1c0,0,0,0,0.1,0c0-0.1-0.1-0.1-0.1-0.2c0.2,0.1,0.1-0.2,0.3,0
							c-0.1-0.1-0.1,0-0.1-0.1c0.2,0.2,0-0.1,0.2,0c0.1,0.1,0,0.1,0.1,0.2c-0.2-0.2,0.1,0,0.1-0.1c-0.2-0.1,0-0.1,0-0.2
							c0.1,0.1,0.2,0,0.3-0.1l0,0c-0.2-0.1-0.1-0.2-0.1-0.3c0.1,0.1,0.1,0.1,0.2,0.2l0,0c0-0.1-0.1-0.1-0.1-0.1l0.1,0.1
							c0-0.1-0.1-0.2,0.1-0.2c-0.1-0.1-0.4-0.2-0.4-0.3c0.1,0,0.2,0.1,0.2,0.2c0,0,0-0.1,0-0.1l0.1,0.1c0.1,0-0.1-0.1,0-0.1
							c0.1,0.1,0.1,0,0.2,0.1c0,0-0.1,0,0,0c0,0,0.1,0,0.2,0c-0.1,0-0.1-0.1-0.1-0.1c0-0.1,0.1,0.1,0.2,0c-0.1-0.1,0-0.1-0.1-0.1
							c0,0,0.1,0,0.1,0c0-0.1,0.1-0.2-0.1-0.2l0,0l0,0l0,0l0,0c-0.1-0.2,0.2-0.2,0.2-0.3l0,0c0-0.1,0-0.2,0-0.3c0,0,0.1,0,0.2,0
							c0-0.1-0.1-0.1,0.1-0.1c0.1,0.1,0.1,0,0,0.1c0.1,0,0.2,0,0.1-0.2c0.1,0.1,0.2,0,0.2,0l-0.1,0c0,0,0-0.1,0-0.1l0.2,0.1
							c0.3-0.1-0.3-0.4,0.2-0.4c-0.1-0.1-0.1,0-0.3,0c0.1-0.1,0.3,0,0.3-0.1c0.1-0.1-0.2-0.2-0.1-0.3c-0.1,0-0.2-0.1-0.3-0.1
							c0-0.1,0.3,0,0.3,0.1c0,0,0,0,0,0c0,0,0,0.1,0.1,0.1l-0.1,0c0.1,0,0.1-0.1,0.2-0.1c0-0.1-0.1-0.1-0.1,0
							c0.1-0.1,0.1-0.1,0.1-0.2c0,0-0.1,0-0.1,0c0.1-0.1-0.1-0.1-0.1-0.2c0.1,0,0.2,0.1,0.2,0c0.1,0,0.2,0,0.2,0.1
							c-0.1-0.1,0.1-0.1,0.2-0.2l0,0.1c0,0,0-0.1,0-0.1l-0.1,0c0,0,0,0,0.1,0c-0.1,0-0.2,0-0.3-0.1c0.1,0,0-0.1,0.1-0.1
							c-0.1,0.1,0.2,0,0.2,0.1c0,0,0,0,0-0.1c0,0,0,0,0,0c0.2-0.1-0.2-0.1-0.2-0.2c0.1,0,0.2,0,0.2,0c0,0-0.2,0-0.2-0.1
							c0.1-0.1,0-0.1,0-0.1l0,0c-0.1,0-0.1-0.1-0.1-0.1c0.1,0,0,0.1,0.1,0c-0.2-0.1,0.2-0.1,0.1-0.2c0.1,0,0.2,0,0.2,0
							c-0.1-0.1,0.1-0.1,0-0.2c-0.1,0-0.1,0-0.2-0.1l0.1,0.2l-0.2-0.1c0,0,0.1,0.1,0.1,0.1c-0.1-0.1-0.1,0-0.2,0
							c0.2,0-0.1-0.1,0-0.2l0.3,0c0.2-0.1-0.2-0.2-0.1-0.3l-0.1,0c-0.1,0,0-0.1-0.1-0.1c0.1,0,0.2,0,0.2,0c-0.1,0,0-0.1-0.2-0.1
							l0.1-0.1c0.1-0.1-0.3-0.1-0.3-0.2c0.1,0,0.2,0,0.3,0c0,0,0-0.1-0.1-0.1c0.1,0-0.2-0.1-0.1-0.1c-0.1,0-0.2,0-0.2,0
							c0,0,0.1,0,0.1,0c-0.1,0-0.1-0.1-0.2,0c0.3-0.1-0.1-0.3,0.2-0.4c0-0.1-0.1-0.2-0.1-0.2c0,0,0.1,0,0,0c0.1-0.1-0.3,0-0.2-0.1
							c0.2-0.1,0.1,0,0.2,0c0.4-0.1-0.1-0.1,0.1-0.2l0,0c0.1-0.1-0.2-0.1-0.2-0.2c0,0,0,0,0.1,0c-0.2,0-0.3-0.1-0.4-0.2
							c0.1,0,0.1,0,0.2,0c0,0-0.2,0.1-0.3,0c0.1,0,0.1-0.1,0.3-0.2l0,0.1c0.2-0.1,0-0.1,0-0.1l0.1,0c-0.1-0.1-0.3,0-0.3-0.2l-0.1,0
							c-0.2,0,0.1-0.1-0.1-0.1l0.2-0.1c-0.1,0-0.3-0.1-0.3-0.1c0.2,0,0.3,0,0.4,0c0,0-0.1-0.1-0.2-0.1c0,0,0.1,0,0.1,0
							c-0.2,0-0.3,0-0.3-0.1c0.4-0.2,0-0.3,0.3-0.5C87,64.3,87.1,64,87,63.8c-0.2,0.3,0,0-0.3,0.2c0,0,0,0,0-0.1l0.1-0.2
							c0.1-0.1,0.1,0,0.1-0.1c0-0.1,0.1-0.1,0.1-0.2c-0.1,0.1-0.2,0.1-0.2,0l-0.1,0.2c-0.2,0,0.2-0.3-0.1-0.3l0.1,0
							c-0.1,0-0.2-0.2-0.4-0.1c0,0,0.1-0.1,0.1-0.1C86.4,63,86,63.1,86,62.8l0.1-0.1c0,0-0.1,0.1-0.1,0c0,0,0.1-0.1,0.1-0.1
							c0,0-0.2,0.1-0.2,0l0.1,0c-0.1-0.2-0.3,0-0.5,0c0.2-0.2,0.1-0.3,0.1-0.4l0,0c-0.1-0.1-0.4,0-0.6,0c0.1-0.3-0.3-0.3-0.3-0.5
							c0,0.1-0.1,0.2-0.1,0.2c0-0.1-0.2,0.1-0.1-0.1l0,0c0.1-0.2,0-0.2-0.1-0.2l-0.1,0.3c0-0.5-0.5,0-0.4-0.4
							c-0.1,0.1-0.1,0-0.2,0.1l0.1-0.2c-0.1-0.1-0.1-0.1-0.3-0.1l0.1-0.1c-0.1,0-0.2,0.4-0.3,0.4l0.1-0.2c-0.1,0-0.2-0.3-0.4-0.1
							c0,0,0-0.1,0.1-0.1c-0.1,0-0.2-0.2-0.3,0.1c0-0.2-0.1-0.1-0.2,0l0-0.2c-0.1,0.2-0.1,0.2-0.2,0.3c0,0,0-0.1,0-0.1
							c-0.1-0.1-0.1,0.1-0.1,0l0-0.1c-0.1,0-0.1,0-0.1,0.1c-0.1,0.1-0.1-0.1-0.1-0.2c0,0.1-0.1,0.2-0.1,0.2c0-0.1,0-0.1,0-0.1
							c-0.1-0.1-0.2,0.2-0.3,0c0-0.1,0-0.1,0-0.1c0.1,0,0.2,0,0.2,0c0-0.1-0.1-0.2,0-0.4c-0.1,0.1-0.2,0.3-0.3,0.3c0,0,0,0,0-0.1
							l0,0c0,0,0,0,0,0c0,0,0,0-0.1,0c0-0.1-0.1-0.1-0.1-0.1c0,0.2,0,0.1,0,0.3c0,0,0,0,0,0c0,0,0,0,0,0l0,0c0,0,0.1,0,0.1,0
							c0,0.1-0.1,0.1-0.1,0.1c0,0.1,0,0.2-0.1,0.3c0-0.2-0.1-0.4-0.2-0.5c-0.1,0.1-0.3,0.1-0.3,0.4c0,0,0-0.1-0.1-0.1c0,0,0,0,0-0.1
							c-0.1,0.1-0.2,0-0.2,0.3c-0.1-0.1,0-0.2-0.1-0.2l0-0.1c-0.3-0.3-0.3,0.6-0.6,0.2c0,0,0,0,0,0.1c-0.3-0.1-0.5,0.3-0.9,0.1
							c-0.1,0-0.1,0.1-0.1,0.2l-0.1-0.2l0,0.2c0,0.2-0.4-0.3-0.4,0l0.1,0.1c-0.1,0-0.1,0.1-0.2,0c0,0,0,0.1,0,0.1l0-0.1l0,0.2
							c-0.1,0-0.2-0.3-0.3-0.3c0,0.1,0,0.3,0,0.3c0,0,0.1,0,0.1,0.1l0,0.1c0.1,0.2,0.3,0.5,0.4,0.6l0-0.2l0.1,0.1l0,0
							c0.1,0.1,0.1,0,0-0.1c0,0.1,0.1,0.1,0.1,0.1l-0.1-0.3c0.1,0.1,0.1,0.2,0.1,0.2c0-0.1-0.1-0.2-0.1-0.3c0.1,0.1,0.1,0.2,0.1,0.1
							c0,0.1,0,0.1,0,0.1c0-0.1,0.1-0.1,0-0.2c0.1,0.1,0.1-0.1,0.2,0.1c0-0.1,0-0.2,0-0.2c0.1,0.3,0.1,0,0.2,0.3
							c-0.1-0.3,0.1-0.2,0.1-0.3c0,0,0,0.1,0,0.1c0,0,0.1,0.1,0.1,0.1c-0.1-0.2,0-0.3,0-0.4c0.1,0.2,0,0.3,0.1,0.5
							c-0.1-0.2,0-0.2,0-0.3c0.1,0.1,0.1,0.1,0.1,0.2c-0.1-0.3,0-0.1,0-0.2c0.1,0.1,0.1,0.3,0.1,0.2C79.9,62.5,79.9,62.6,79.9,62.6z
							 M81.4,62L81.4,62C81.4,62,81.4,62,81.4,62C81.4,62,81.4,62,81.4,62z M81.6,62C81.5,62,81.5,62,81.6,62
							c-0.1-0.1-0.1-0.1,0-0.1C81.5,61.9,81.5,61.9,81.6,62z M81.3,60.8C81.3,60.8,81.3,60.8,81.3,60.8
							C81.3,60.9,81.3,60.9,81.3,60.8L81.3,60.8C81.3,60.9,81.3,60.8,81.3,60.8z"/>
						<path fill="#202020" d="M81.2,61C81.2,61,81.2,61,81.2,61C81.2,61.1,81.2,61.1,81.2,61L81.2,61L81.2,61z"/>
						<path fill="#202020" d="M86.6,71.5L86.6,71.5C86.6,71.5,86.6,71.5,86.6,71.5L86.6,71.5z"/>
						<polygon fill="#202020" points="83.3,62.7 83.3,62.7 83.3,62.7 						"/>
						<path fill="#202020" d="M85.7,71.8C85.6,71.8,85.6,71.8,85.7,71.8C85.6,71.8,85.6,71.8,85.7,71.8z"/>
						<path fill="#202020" d="M85.4,72.1L85.4,72.1C85.4,72.1,85.4,72.1,85.4,72.1z"/>
						<path fill="#202020" d="M85.2,72.2C85.2,72.2,85.2,72.2,85.2,72.2L85.2,72.2L85.2,72.2z"/>
						<path fill="#202020" d="M86.7,68.5C86.7,68.5,86.7,68.5,86.7,68.5C86.7,68.5,86.7,68.5,86.7,68.5z"/>
						<path fill="#202020" d="M86.8,69.8C86.8,69.8,86.8,69.8,86.8,69.8C86.7,69.8,86.7,69.8,86.8,69.8z"/>
						<polygon fill="#202020" points="86.6,67.2 86.6,67.2 86.6,67.2 						"/>
						<path fill="#202020" d="M86.8,69.7C86.7,69.7,86.7,69.7,86.8,69.7C86.8,69.7,86.8,69.7,86.8,69.7z"/>
						<path fill="#202020" d="M84.3,72.8L84.3,72.8C84.3,72.8,84.3,72.9,84.3,72.8L84.3,72.8z"/>
						<path fill="#202020" d="M84.3,72.9L84.3,72.9C84.3,72.9,84.3,72.9,84.3,72.9z"/>
						<path fill="#202020" d="M84.3,72.9L84.3,72.9C84.3,72.9,84.3,72.9,84.3,72.9z"/>
						<path fill="#202020" d="M84.6,72.7L84.6,72.7C84.6,72.7,84.6,72.7,84.6,72.7z"/>
						<path fill="#202020" d="M84.7,72.6c0,0-0.1-0.1-0.1,0l0,0C84.5,72.6,84.7,72.7,84.7,72.6z"/>
						<path fill="#202020" d="M85.5,72.9l-0.1,0c0.1,0,0.1,0.1,0.1,0.1C85.7,73.1,85.4,72.9,85.5,72.9z"/>
						<path fill="#202020" d="M85.8,72.7C85.8,72.8,85.8,72.8,85.8,72.7C85.8,72.7,85.8,72.7,85.8,72.7z"/>
						<path fill="#202020" d="M87,70.9l0.1,0.1C87.1,71,87.1,71,87,70.9z"/>
						<polygon fill="#202020" points="86.5,70.3 86.4,70.3 86.5,70.3 						"/>
						<polygon fill="#202020" points="87.6,70.4 87.6,70.5 87.5,70.4 						"/>
						<path fill="#202020" d="M88,66.7l-0.2,0C87.8,66.8,88,66.7,88,66.7z"/>
						<path fill="#202020" d="M87.4,65.2c0.1,0,0.1-0.1,0-0.1C87.4,65.1,87.4,65.2,87.4,65.2z"/>
						<polygon fill="#202020" points="84.3,61.5 84.3,61.5 84.3,61.5 						"/>
					</g>
				</g>
			</g>
		</g>
	</g>
	<g>
		<g>
			<g>
				<g>
					<g>
						<path fill="#202020" d="M78.8,116.2c0,0,0.1-0.1,0.1-0.1L78.8,116.2L78.8,116.2z"/>
						<path fill="#202020" d="M78.9,115.8c-0.1,0-0.2,0.1-0.3,0.3C78.7,116,78.6,116.1,78.9,115.8c0,0.1,0,0.2-0.1,0.2
							c0,0,0,0.1,0.1,0C78.9,115.9,78.9,115.9,78.9,115.8C78.8,115.9,78.8,115.9,78.9,115.8z"/>
						<path fill="#202020" d="M77.5,113.5L77.5,113.5C77.5,113.5,77.5,113.5,77.5,113.5z"/>
						<path fill="#202020" d="M77.1,111.9C77.1,111.9,77.2,111.9,77.1,111.9C77.2,111.9,77.2,111.9,77.1,111.9z"/>
						<path fill="#202020" d="M77.3,111.6L77.3,111.6C77.3,111.6,77.3,111.6,77.3,111.6z"/>
						<path fill="#202020" d="M77.5,113.5L77.5,113.5C77.5,113.4,77.5,113.5,77.5,113.5z"/>
						<path fill="#202020" d="M78.2,115.9C78.3,115.9,78.3,115.9,78.2,115.9L78.2,115.9L78.2,115.9z"/>
						<path fill="#202020" d="M78,114L78,114C78,114.1,78,114,78,114L78,114z"/>
						<path fill="#202020" d="M78.3,114.5c0,0-0.1,0.1-0.2,0.1C78.1,114.6,78.2,114.6,78.3,114.5C78.2,114.5,78.2,114.5,78.3,114.5z
							"/>
						<path fill="#202020" d="M78.6,115.3L78.6,115.3L78.6,115.3z"/>
						<path fill="#202020" d="M77.8,113.7C77.8,113.7,77.8,113.7,77.8,113.7L77.8,113.7z"/>
						<path fill="#202020" d="M72.6,98.8C72.6,98.8,72.6,98.8,72.6,98.8C72.6,98.8,72.6,98.8,72.6,98.8z"/>
						<polygon fill="#202020" points="73.5,98.3 73.5,98.3 73.6,98.3 						"/>
						<path fill="#202020" d="M77.5,111.1L77.5,111.1C77.5,111.1,77.5,111.1,77.5,111.1z"/>
						<path fill="#202020" d="M74.8,106.7c-0.1,0.1-0.2,0-0.3,0.2C74.6,106.8,74.8,106.8,74.8,106.7z"/>
						<path fill="#202020" d="M78.3,115.9L78.3,115.9C78.2,115.9,78.2,115.9,78.3,115.9z"/>
						<polygon fill="#202020" points="74.6,106.9 74.6,106.9 74.6,106.9 						"/>
						<path fill="#202020" d="M77.3,109.7C77.3,109.8,77.3,109.8,77.3,109.7C77.3,109.8,77.3,109.8,77.3,109.7z"/>
						<path fill="#202020" d="M77.2,110.8L77.2,110.8C77.2,110.8,77.2,110.8,77.2,110.8z"/>
						<path fill="#202020" d="M76.9,109.2C76.9,109.2,77,109.2,76.9,109.2L76.9,109.2C76.9,109.2,77,109.2,76.9,109.2z"/>
						<polygon fill="#202020" points="76.6,108.7 76.6,108.7 76.6,108.7 						"/>
						<path fill="#202020" d="M72.4,100.3c0,0,0.1,0,0.1,0C72.5,100.3,72.4,100.2,72.4,100.3z"/>
						<path fill="#202020" d="M78.3,115.8C78.3,115.9,78.3,115.9,78.3,115.8L78.3,115.8C78.3,115.9,78.3,115.8,78.3,115.8z"/>
						<path fill="#202020" d="M75.7,109.7L75.7,109.7C75.7,109.7,75.7,109.7,75.7,109.7z"/>
						<path fill="#202020" d="M72.4,104.1L72.4,104.1C72.4,104.1,72.4,104.1,72.4,104.1z"/>
						<path fill="#202020" d="M75.7,109.5C75.7,109.5,75.7,109.5,75.7,109.5C75.7,109.5,75.7,109.5,75.7,109.5L75.7,109.5z"/>
						<path fill="#202020" d="M72.6,100.3L72.6,100.3L72.6,100.3z"/>
						<path fill="#202020" d="M72.3,99.7c0,0.1,0.2,0.1,0.3,0.1c0,0.1-0.2,0-0.3,0c0,0.1,0.2,0.1,0.2,0.2c0,0,0,0-0.1,0
							c0.2,0.1,0,0.2,0.2,0.3c0,0,0,0-0.1,0c0.1,0,0.2,0,0.3,0c0,0,0.1,0.1,0,0.1c0,0,0,0-0.1,0l0.1,0c-0.2,0-0.1-0.1-0.2-0.1
							c0.1,0.1,0.2,0.2,0.1,0.2c-0.2,0-0.1-0.1-0.2-0.1l0.1-0.1c-0.3,0,0,0-0.3,0c-0.1,0.1,0.1,0.1,0,0.2c0.1,0,0.2,0,0.3,0
							c0.2,0.2-0.5,0.1-0.3,0.2c0.1,0,0.4,0.1,0.2,0.1l-0.2,0c0,0.1,0.3,0.1,0.2,0.2c-0.1,0-0.1-0.1-0.1-0.1
							c-0.2,0.1,0.1,0.1,0.1,0.1l-0.2,0c0,0.1,0.2,0.3,0.2,0.4c-0.1,0-0.1,0-0.2,0c0.1,0.2,0,0.3-0.2,0.5l0.2,0.1c0,0-0.1,0-0.1,0
							c-0.1,0.1,0.1,0,0.2,0c0,0-0.1,0-0.1,0c0.1,0.1,0.3,0.3,0.1,0.4l-0.1,0c-0.1,0.1,0.3,0.1,0.2,0.2l0,0
							c-0.1,0.2,0.1,0.4-0.1,0.6c0.2,0-0.1,0.2,0.2,0.2c-0.2,0.1-0.2,0.1-0.3,0.3c0,0,0.2,0,0.3,0.1l-0.2,0l0.2,0l-0.2,0.1l0.1,0
							c0,0,0.1-0.1,0.1-0.1c0.1,0.1-0.1,0.2-0.2,0.2l0.2,0.2c-0.1,0-0.1,0-0.1,0c0.2,0.1-0.2,0,0,0.1c0,0,0.1,0,0.1,0
							c-0.1,0.1-0.1,0.2,0,0.2l-0.1,0c0,0.1,0.1,0.3,0.2,0.4c0-0.1,0.3-0.1,0.3-0.1l-0.2,0.1c0.1,0,0.1-0.1,0.2,0
							c0,0.1-0.2,0.1-0.3,0.1l0.1,0.1c-0.1,0-0.1,0-0.2,0c0.1,0-0.2,0.2,0.1,0.2l-0.1,0c0,0.2,0.1,0.2,0.2,0.3c0.2-0.1,0.1,0,0.3,0
							c0,0.1-0.1,0.2,0,0.3c0.1,0,0.1,0,0.2,0c-0.1,0.1-0.1,0.2-0.2,0.1c0.1,0.1,0.1,0.1,0.3,0.2c0,0,0.1-0.1,0.1-0.1
							c0,0,0,0.1-0.1,0.1l0,0c0.3,0.1-0.2,0.6,0.2,0.6l0,0l0.2,0c0,0.1-0.1,0-0.2,0.1c0.3,0,0.1,0.2,0.4,0.3
							c-0.3,0.4,0.3,0.3,0.2,0.6l0.1-0.1c0.1,0,0,0.1,0,0.1c0.1-0.1,0-0.1,0.1-0.1c0.3,0.2,0.4,0.6,0.6,0.9c0.1,0.1,0.4-0.4,0.3-0.1
							l-0.1,0.1c0.3,0,0.3,0.3,0.6,0.3c0,0-0.1,0.1-0.1,0.1c-0.1,0.1,0.1,0.1,0.2,0c0,0-0.1,0.1-0.1,0.1c0,0.1,0.2-0.1,0.1,0.1
							c0,0,0,0-0.1,0c0.1,0,0,0.1,0.2,0c0,0.1,0.1,0,0.1,0.1c0.2-0.1,0,0.1,0.2,0c-0.2,0.1-0.1,0.2,0,0.2c-0.1,0-0.1,0.1-0.2,0.1
							c0,0,0.1,0,0.2,0c-0.3,0.2,0.3,0.1-0.1,0.2c0.2,0.1,0.3,0.2,0.3,0.3c-0.3,0,0-0.1-0.3-0.1c0.1,0.1,0.3,0.2,0.3,0.3
							c0,0-0.1,0-0.2,0c0.1,0.1,0,0.3,0.1,0.4c0,0-0.1,0-0.1,0c0,0,0,0.1,0.1,0.1l0,0c0.2,0,0.4,0.1,0.4,0.1c-0.3,0-0.1,0.1-0.5,0.1
							c0,0,0.1,0,0.2,0c0,0-0.1,0-0.2,0c0.1,0.1,0.2,0.1,0.2,0.1c-0.1,0-0.1,0-0.1,0c0.1,0,0.2,0.1,0.2,0.2c0,0-0.1,0-0.1,0
							c0,0.1,0.3,0.2,0.2,0.4c-0.3,0-0.1,0.1-0.3,0.1l0.1,0.1l0.1,0c0,0.1,0.2,0.1,0.1,0.2l-0.1,0l0.1,0.1l0.1-0.1
							c0.1,0.1,0.3,0,0.2,0c0,0,0,0.1-0.1,0.1l0,0c0.1,0,0.2,0,0.1,0.1c-0.1,0-0.2,0-0.3,0c0.2,0,0.1,0.1,0.3,0.1c0,0-0.2,0-0.2,0
							l0.1,0c0,0-0.1,0-0.1,0.1c0,0.1,0.3-0.1,0.2,0c0,0,0,0-0.1,0c0,0.1,0.1,0.2,0.1,0.3c-0.2,0.1-0.1-0.1-0.2,0
							c0.1,0.1,0.3,0.2,0.3,0.4l0,0c0.3-0.1-0.1,0.1,0.1,0.2c0,0-0.2,0-0.1,0c0,0.1,0.1,0.2,0.3,0.3l-0.1,0c0,0.1,0,0.2,0,0.2
							c0.1,0,0.1,0,0.2,0c-0.3,0.4,0.4,0.2,0.1,0.5c0,0-0.1,0-0.1,0l0.1,0.1c0.1-0.1,0.1-0.1,0.1-0.1c0.1,0,0.2,0,0.2,0
							c-0.1,0-0.2,0.1-0.2,0.2c0,0,0.1,0,0.1-0.1c-0.2,0.2,0.2-0.1,0.1,0l-0.1,0c0,0,0.1,0,0.2,0c-0.1,0.1-0.1,0-0.2,0.1
							c0,0,0.3-0.1,0.2,0.1c0,0-0.1,0-0.1,0c-0.1,0.1-0.1,0.1-0.1,0.2l0,0l0,0.1l0,0c0.4-0.2,0.1,0.1,0.4,0
							c-0.3,0.1-0.1,0.1-0.3,0.2c0,0,0,0.1-0.1,0.1c0.1,0,0,0.1,0.2,0.1c0,0,0,0-0.1,0.1c0.1,0,0.1-0.1,0.1-0.1
							c0.2-0.1,0,0.3,0.3,0.2c0.2,0,0.3-0.1,0.4-0.1c0,0.1-0.2,0.1-0.2,0.1c0,0.1,0,0.1,0.1,0.1c0,0-0.1,0.1-0.1,0.1
							c0,0,0.2-0.1,0.1,0c-0.1,0-0.1,0.1-0.2,0.1c0.1,0,0.2,0,0.3,0c-0.1,0.1-0.1,0.1-0.2,0.1c0.1,0,0.2,0,0.3-0.1l0-0.1
							c0,0-0.1,0.1-0.1,0.1c-0.1,0.1,0-0.1,0-0.1l0.1,0c0.2-0.3-0.1-0.1-0.2-0.1l0.2-0.1l-0.2,0.1c0-0.1,0.1-0.2,0.2-0.2
							c0-0.1-0.1,0,0-0.1c0,0,0,0,0,0l-0.1,0c0,0,0.1-0.1,0.1-0.1c0-0.2-0.2,0-0.1-0.1l0,0c-0.1,0-0.1,0.1-0.4,0.2l0.3-0.3l-0.1,0.1
							c0,0,0,0,0-0.1c-0.1,0-0.1,0.1-0.2,0.1c0.1-0.2-0.2-0.1,0-0.3c-0.1,0.1,0,0.1-0.2,0.1c0.2-0.2-0.1,0,0-0.2
							c0.1-0.1,0.1,0,0.2-0.1c-0.2,0.1,0-0.1-0.1-0.1c-0.2,0.1-0.1,0-0.2-0.1c0.1,0,0-0.2,0-0.3l0,0c-0.2,0.1-0.2,0-0.3,0
							c0.1-0.1,0.2-0.1,0.2-0.1l0,0c-0.1,0-0.1,0-0.1,0L78,114c0-0.1-0.2,0-0.2-0.2c-0.1,0.1-0.3,0.3-0.5,0.2c0.1,0,0.2-0.1,0.2-0.1
							c0,0-0.1,0-0.1,0l0.1,0c0-0.1-0.1,0-0.1,0c0.1-0.1,0.1-0.1,0.1-0.1c0,0,0,0,0,0c0,0,0-0.1,0.1-0.2c-0.1,0-0.1,0.1-0.2,0.1
							c0-0.1,0.1-0.1,0.1-0.1c-0.1,0,0-0.1-0.2,0c0,0,0.1-0.1,0.1-0.1c-0.1,0-0.1-0.1-0.2,0l0,0l0,0l0,0l0,0c-0.2,0,0-0.3-0.1-0.3
							l0.1,0c-0.1,0-0.1-0.1-0.2-0.1c0,0,0.1-0.1,0.1-0.1c-0.1,0-0.1,0-0.1-0.1c0.1,0,0.1,0,0.1,0c0-0.1,0.1-0.1-0.1-0.1
							c0.1,0,0.2-0.1,0.1-0.1l-0.1,0.1c0,0,0-0.1,0-0.1l0.2,0c0.2-0.2-0.4-0.1-0.1-0.3c-0.1,0-0.1,0.1-0.2,0.1
							c0-0.1,0.3-0.2,0.3-0.2c0.1-0.1-0.3,0-0.2-0.1c-0.1,0-0.2,0.1-0.3,0c0-0.1,0.3-0.1,0.3-0.1c0,0,0,0,0,0c0,0,0.1,0,0.1,0
							l-0.1,0c0.1,0,0-0.1,0.2-0.1c-0.1,0-0.1,0-0.1,0c0.1-0.1,0-0.1,0-0.2c0,0-0.1,0-0.1,0c0.1-0.1-0.1,0-0.2-0.1
							c0.1-0.1,0.2,0,0.2-0.1c0.1-0.1,0.2,0,0.2,0c-0.1-0.1,0.1-0.1,0.1-0.2l0.1,0c0,0,0,0,0-0.1l-0.1,0c0,0,0,0,0.1,0
							c-0.1,0-0.2,0-0.4,0c0.1,0-0.1-0.1,0.1-0.1c-0.1,0.1,0.2,0,0.2,0.1c0,0,0,0,0-0.1c0,0,0,0,0,0c0.2-0.1-0.2,0-0.2-0.1
							c0.1,0,0.2,0,0.2,0c0,0-0.2,0-0.2,0c0.1-0.1-0.1-0.1-0.1-0.1l0,0c-0.1,0-0.1,0-0.1-0.1c0.1,0,0.1,0,0.1,0
							c-0.2,0,0.2-0.1,0.1-0.2c0.1,0,0.2,0,0.2,0c-0.1-0.1,0.1-0.1,0-0.2c-0.1,0-0.1,0-0.2,0l0.1,0.1l-0.2-0.1c0,0,0.1,0.1,0.1,0.1
							c-0.1,0-0.1,0-0.2,0c0.2-0.1-0.1-0.1,0-0.2l0.3,0c0.1-0.1-0.2-0.2-0.1-0.3l-0.1,0.1c-0.1,0,0-0.1-0.1-0.1
							c0.1,0,0.1-0.1,0.2-0.1c-0.1,0,0-0.1-0.2-0.1l0.1-0.1c0-0.1-0.3-0.1-0.3-0.2c0.1,0,0.2-0.1,0.3,0c0,0,0-0.1-0.1-0.1
							c0.1,0-0.2-0.1-0.1-0.1c-0.1,0-0.2,0-0.2,0c0,0,0.1,0,0.1,0c-0.1,0-0.1,0-0.2,0.1c0.3-0.3-0.2-0.3,0-0.5
							c-0.1,0-0.2-0.1-0.2-0.2c0,0,0,0,0,0c0-0.1-0.3,0.2-0.3,0c0.1-0.2,0.1,0,0.1-0.1c0.3-0.3-0.1-0.1,0-0.3l0,0
							c0-0.1-0.2,0-0.3-0.1c0,0,0,0,0,0c-0.2,0.1-0.3,0.1-0.4,0.1c0.1-0.1,0.1,0,0.2-0.2c0,0-0.1,0.2-0.2,0.2c0-0.1,0-0.2,0.1-0.3
							l0.1,0c0.1-0.2-0.1-0.1-0.1-0.1l0.1-0.1c-0.1,0-0.2,0.1-0.3,0l0,0.1c-0.2,0.1,0-0.1-0.1,0l0.1-0.2c-0.1,0-0.3,0.1-0.3,0.1
							c0.1-0.1,0.3-0.1,0.4-0.2c0,0-0.1-0.1-0.2,0c0,0,0.1,0,0.1,0c-0.2,0.1-0.3,0.1-0.3,0.1c0.3-0.3-0.1-0.2,0.1-0.5
							c-0.2,0-0.1-0.2-0.2-0.3c-0.2,0.3,0,0-0.3,0.2c0,0,0,0,0,0l0.1-0.2c0.1-0.1,0.1,0,0.1-0.1c0-0.1,0.1-0.1,0.1-0.2
							c-0.1,0.1-0.2,0.1-0.1,0l-0.1,0.1c-0.2,0,0.2-0.2,0-0.2l0.1,0c-0.1,0-0.1-0.2-0.4-0.1c0,0,0.1-0.1,0.1-0.1
							c0-0.1-0.4-0.1-0.3-0.3l0.1,0c0,0-0.2,0-0.1,0c0,0,0.1,0,0.1,0c0,0-0.2,0-0.1,0l0.1,0c0.1-0.2-0.3-0.1-0.4-0.2
							c0.2-0.1,0.3-0.2,0.3-0.3l0,0c0-0.2-0.3-0.2-0.4-0.3c0.2-0.2,0-0.3,0.2-0.5c0,0-0.2,0-0.2,0c0,0-0.2-0.1,0-0.1l0,0
							c0.2-0.1,0.1-0.1,0.1-0.2l-0.3,0c0.4-0.2-0.2-0.4,0.2-0.5c-0.1,0-0.1-0.1-0.2-0.1l0.2,0c0-0.1,0-0.2,0-0.3l0.1,0
							c0-0.1-0.5-0.1-0.5-0.1l0.2,0c0-0.1,0.2-0.3,0-0.4c0,0,0.1,0,0.1,0c0-0.1,0.2-0.2-0.2-0.2c0.2,0,0-0.1-0.1-0.2l0.2,0
							c-0.2-0.1-0.3-0.1-0.3-0.1c0,0,0.1,0,0.1,0c0.1-0.1-0.2-0.1-0.1-0.1l0.1,0c0-0.1,0-0.1-0.2-0.1c-0.1,0,0-0.1,0.2-0.1
							c-0.1,0-0.2-0.1-0.2-0.1c0.1,0,0.1,0,0.1,0c0.1-0.1-0.2-0.2,0-0.2c0.1,0,0.1,0,0.1,0c0,0.1,0,0.2,0,0.1c0.1,0,0.2-0.1,0.4,0
							c-0.1-0.1-0.3-0.2-0.3-0.2c0,0,0,0,0.1,0l0,0c0,0,0,0,0,0c0,0,0,0,0-0.1c0.1,0,0.1-0.1,0.1-0.1c-0.2,0-0.1-0.1-0.3,0
							c0,0,0,0,0,0c0,0,0,0,0,0l0,0c0,0,0,0.1,0,0.1c-0.1,0-0.1-0.1-0.1-0.1c-0.1,0-0.2-0.1-0.3-0.1c0.2,0,0.4-0.1,0.5-0.1
							c-0.1-0.1,0-0.2-0.3-0.3c0,0,0.1,0,0.1,0c0,0,0,0,0.1,0.1c-0.1-0.1,0-0.2-0.2-0.2c0.1-0.1,0.2,0.1,0.2,0l0.1,0
							c0.4-0.2-0.5-0.4,0-0.6c0,0,0,0-0.1,0c0.2-0.2-0.1-0.6,0.2-0.8c0.1-0.1-0.1-0.1-0.2-0.2l0.2,0l-0.2-0.1
							C73.4,99,74,99,73.7,98.8l-0.1,0c0,0,0-0.2,0.1-0.1c0,0-0.1,0-0.1,0l0.1,0l-0.1-0.1c0.1-0.1,0.4,0.1,0.4-0.1
							c0-0.1-0.2-0.2-0.3-0.2c0,0-0.1,0-0.2,0l0-0.1c-0.3-0.1-0.5-0.1-0.7-0.1l0.1,0.1l-0.1,0l0-0.1c-0.1,0,0,0.1,0,0.1
							c-0.1,0-0.1,0-0.1,0l0.2,0.1c-0.1,0-0.2-0.1-0.3,0c0.1,0.1,0.2,0,0.3,0.1c-0.1,0-0.2,0-0.1,0.1c-0.1,0-0.1,0-0.1,0
							c0.1,0.1,0,0.1,0.2,0.2c-0.2,0,0,0.1-0.2,0.1c0.1,0,0.2,0.1,0.2,0.1c-0.3-0.1,0,0.1-0.4,0.1c0.3,0.1,0.1,0.2,0.2,0.3
							c0,0-0.1,0,0,0c0,0-0.1,0-0.2,0.1c0.2,0,0.3,0.1,0.4,0.2c-0.2,0-0.3-0.1-0.5-0.1c0.2,0,0.2,0.1,0.3,0.1c-0.1,0-0.1,0-0.3,0
							c0.3,0,0,0.1,0.2,0.1c-0.1,0-0.3,0-0.2,0.1C72.4,99.8,72.3,99.7,72.3,99.7z M72.6,101.6L72.6,101.6
							C72.6,101.6,72.6,101.6,72.6,101.6C72.6,101.6,72.6,101.6,72.6,101.6z M72.6,101.8C72.6,101.7,72.6,101.7,72.6,101.8
							c0.1-0.1,0.1-0.1,0.1,0C72.7,101.7,72.6,101.7,72.6,101.8z M73.7,101.5C73.7,101.5,73.7,101.5,73.7,101.5
							C73.7,101.5,73.7,101.5,73.7,101.5L73.7,101.5C73.7,101.5,73.7,101.5,73.7,101.5z"/>
						<path fill="#202020" d="M73.5,101.5L73.5,101.5C73.5,101.5,73.5,101.5,73.5,101.5L73.5,101.5L73.5,101.5z"/>
						<path fill="#202020" d="M77.5,113.5L77.5,113.5C77.5,113.5,77.5,113.5,77.5,113.5L77.5,113.5z"/>
						<polygon fill="#202020" points="72.3,103.9 72.4,103.9 72.3,103.9 						"/>
						<path fill="#202020" d="M77.4,114.5C77.3,114.5,77.3,114.5,77.4,114.5C77.3,114.5,77.3,114.5,77.4,114.5z"/>
						<path fill="#202020" d="M77.5,114.8L77.5,114.8C77.5,114.9,77.5,114.8,77.5,114.8z"/>
						<path fill="#202020" d="M77.6,115.1C77.7,115.1,77.7,115.1,77.6,115.1L77.6,115.1L77.6,115.1z"/>
						<path fill="#202020" d="M76.1,110.8C76.1,110.8,76.1,110.8,76.1,110.8C76,110.8,76.1,110.8,76.1,110.8z"/>
						<path fill="#202020" d="M76.6,112.1C76.5,112.1,76.5,112.1,76.6,112.1C76.5,112.1,76.5,112.1,76.6,112.1z"/>
						<polygon fill="#202020" points="75.7,109.7 75.7,109.7 75.7,109.7 						"/>
						<path fill="#202020" d="M76.5,112C76.4,112.1,76.4,112.1,76.5,112C76.5,112.1,76.5,112.1,76.5,112z"/>
						<polygon fill="#202020" points="78.4,116.1 78.4,116.1 78.5,116.1 						"/>
						<path fill="#202020" d="M78.5,116.1L78.5,116.1C78.5,116.1,78.5,116.1,78.5,116.1z"/>
						<path fill="#202020" d="M78.5,116.1L78.5,116.1C78.5,116.1,78.5,116.1,78.5,116.1z"/>
						<path fill="#202020" d="M78.2,115.8L78.2,115.8C78.2,115.8,78.2,115.8,78.2,115.8z"/>
						<path fill="#202020" d="M78.1,115.7c0,0,0,0.1,0,0.1l0,0C78.1,115.9,78.2,115.6,78.1,115.7z"/>
						<path fill="#202020" d="M78.3,114.9L78.3,114.9c0.1,0,0.1,0,0.1,0C78.6,114.7,78.4,115,78.3,114.9z"/>
						<path fill="#202020" d="M78.3,114.6c0.1,0,0.1-0.1,0.1-0.1C78.3,114.5,78.3,114.5,78.3,114.6z"/>
						<path fill="#202020" d="M77.4,112.9l0.1,0C77.5,112.8,77.5,112.9,77.4,112.9z"/>
						<polygon fill="#202020" points="76.5,112.7 76.5,112.8 76.6,112.8 						"/>
						<polygon fill="#202020" points="77.5,112.3 77.5,112.3 77.5,112.2 						"/>
						<path fill="#202020" d="M76.8,108.7l-0.1,0.1C76.7,108.8,76.9,108.7,76.8,108.7z"/>
						<path fill="#202020" d="M75.5,107.7C75.6,107.6,75.6,107.5,75.5,107.7C75.5,107.6,75.5,107.7,75.5,107.7z"/>
						<polygon fill="#202020" points="73.8,104.1 73.9,104.1 73.8,104.1 						"/>
					</g>
				</g>
			</g>
		</g>
	</g>
</g>
</svg>
