<?xml version="1.0" encoding="utf-8"?>
<!-- Generator: Adobe Illustrator 18.0.0, SVG Export Plug-In . SVG Version: 6.00 Build 0)  -->
<!DOCTYPE svg PUBLIC "-//W3C//DTD SVG 1.1//EN" "http://www.w3.org/Graphics/SVG/1.1/DTD/svg11.dtd">
<svg version="1.1" id="Layer_1" xmlns="http://www.w3.org/2000/svg" xmlns:xlink="http://www.w3.org/1999/xlink" x="0px" y="0px"
	 viewBox="0 0 144 144" enable-background="new 0 0 144 144" xml:space="preserve">
<g>
	<g>
		<path fill="none" stroke="#000000" stroke-width="0.576" stroke-miterlimit="10" d="M-72-11.5"/>
	</g>
</g>
<g>
	<g>
		<path fill="none" stroke="#000000" stroke-width="0.576" stroke-miterlimit="10" d="M-60.8-10.2"/>
	</g>
</g>
<g>
	<g>
		<g>
			<g>
				<g>
					<g>
						<g>
							<path fill="#3C3C3C" d="M27.9,64.3c-0.1,0-0.2,0.1,0,0.3l0.3,0L27.9,64.3z"/>
							<path fill="#3C3C3C" d="M28.7,65.8c0.3,0.1,0.7,0.1,0.7-0.1c-0.3,0-0.3-0.1-0.7-0.1c-0.2-0.2-0.2-0.4-0.2-0.4
								c-0.1,0-0.2-0.3-0.4-0.3c0.1,0.4,0.4,0.7,0.8,0.8C28.8,65.8,28.7,65.8,28.7,65.8z"/>
							<path fill="#3C3C3C" d="M49.6,58l-0.1,0.1C49.5,58.1,49.5,58.1,49.6,58z"/>
							<path fill="#3C3C3C" d="M61.8,49.3c-0.1,0.1-0.1,0.1-0.1,0.1C61.7,49.4,61.8,49.3,61.8,49.3z"/>
							<path fill="#3C3C3C" d="M64,48c0,0-0.1,0.1-0.1,0.1C63.9,48.1,64,48,64,48z"/>
							<path fill="#3C3C3C" d="M49.6,58l0.4-0.2C49.9,57.8,49.8,57.9,49.6,58z"/>
							<path fill="#3C3C3C" d="M31.8,66.8c-0.1,0-0.1,0-0.2,0L31.8,66.8L31.8,66.8z"/>
							<path fill="#3C3C3C" d="M44.4,62.1L44.4,62.1c-0.1,0.1-0.1,0.2-0.1,0.2L44.4,62.1z"/>
							<path fill="#3C3C3C" d="M40.3,65.1c0.1-0.1,0-0.2,0-0.3c0,0.1-0.1,0.2-0.1,0.3C40.2,65,40.2,65.1,40.3,65.1z"/>
							<path fill="#3C3C3C" d="M32.7,67.8l-0.1,0C32.6,67.8,32.7,67.8,32.7,67.8z"/>
							<path fill="#3C3C3C" d="M47.3,60C47.3,60,47.4,60,47.3,60C47.4,60,47.3,60,47.3,60z"/>
							<path fill="#3C3C3C" d="M25.4,59.4C25.4,59.4,25.4,59.4,25.4,59.4C25.4,59.4,25.4,59.4,25.4,59.4z"/>
							<path fill="#3C3C3C" d="M27.5,64.6L27.5,64.6c-0.1,0-0.1,0-0.2,0L27.5,64.6z"/>
							<path fill="#3C3C3C" d="M67.9,45.4C67.9,45.4,67.9,45.4,67.9,45.4C67.8,45.5,67.9,45.5,67.9,45.4z"/>
							<path fill="#3C3C3C" d="M80.6,14.8c0.5,0.2-0.9,0.1-0.1,0.4C80.4,15.1,81.2,15.1,80.6,14.8z"/>
							<path fill="#3C3C3C" d="M31.9,66.9l0.2,0C32,66.9,31.9,66.9,31.9,66.9z"/>
							<path fill="#3C3C3C" d="M80.5,15.3L80.5,15.3L80.5,15.3C80.5,15.3,80.5,15.3,80.5,15.3z"/>
							<path fill="#3C3C3C" d="M76.6,39c0,0-0.1,0-0.1,0C76.5,39,76.5,39,76.6,39z"/>
							<path fill="#3C3C3C" d="M69.9,43.5l0.2-0.1C70,43.4,70,43.5,69.9,43.5z"/>
							<path fill="#3C3C3C" d="M79.8,36.3c0.1-0.1,0.1-0.1,0.2-0.2c0,0,0,0-0.1,0C80,36.2,79.9,36.2,79.8,36.3z"/>
							<path fill="#3C3C3C" d="M83.3,33.7C83.3,33.7,83.2,33.7,83.3,33.7c-0.1,0-0.2,0.1-0.2,0.1L83.3,33.7z"/>
							<path fill="#3C3C3C" d="M31.3,49.9c-0.1,0-0.2,0-0.3,0C31.2,49.9,30.7,50.3,31.3,49.9z"/>
							<path fill="#3C3C3C" d="M31.7,66.9c0,0,0.1-0.1,0.1-0.1C31.8,66.8,31.8,66.8,31.7,66.9C31.7,66.9,31.7,66.9,31.7,66.9z"/>
							<path fill="#3C3C3C" d="M79,34.9l0.6-0.4C79.4,34.6,79.2,34.8,79,34.9z"/>
							<path fill="#3C3C3C" d="M56.5,31.5l-0.1,0.1C56.4,31.6,56.5,31.5,56.5,31.5z"/>
							<path fill="#3C3C3C" d="M81.2,33.3c0.1,0,0.3-0.1,0.4-0.1c0,0,0-0.1,0-0.1L81.2,33.3z"/>
							<path fill="#3C3C3C" d="M31.1,49.9L31.1,49.9L31.1,49.9z"/>
							<path fill="#3C3C3C" d="M27.7,52.9c0.4-0.3,0.1-0.4,0.1-0.6c0.6-0.5,0.4-0.1,0.7-0.1c0.4-0.3,0.5-0.8,0.8-1
								c0,0,0.1,0,0.1,0.1c0.3-0.5,1.2-0.9,1.6-1.5c0,0,0.1,0,0.1,0c-0.2,0-0.2-0.1-0.3-0.2c0.2-0.2,0.3-0.5,0.5-0.4
								c-0.1,0.1-0.1,0.2-0.2,0.3l0.2-0.2c0.4,0-0.3,0.3-0.2,0.5c0.4-0.4,0.9-1,1.3-1.2c0.2,0.1-0.8,0.7-0.2,0.5l-0.6,0.3
								c0.7,0-0.4,0.2,0.3,0.3c0.8-0.5,0.8-0.7,1.6-1.2c0.1-0.2-0.2-0.1-0.1-0.3c0.9-1,1.2-0.1,1.8-1c0.1-0.3,0-0.6,0.7-0.9l0,0.4
								c0.8-0.5,0.2-0.6,1.1-1c-0.1,0.2-0.5,0.5-0.4,0.4c0.6-0.2,0.3-0.4,0.6-0.7l0.2,0.1c0.8-0.6,1.5-1.4,2.4-2
								c0,0.1-0.1,0.3,0.1,0.2c1-0.9,2.4-1.7,3.5-2.3l0.3-0.5c0.1-0.1,0.2-0.1,0.2,0.1c0.5-0.2-0.1-0.1,0.1-0.3
								c0.2-0.2,0.4-0.1,0.3,0c0.6-0.7,1.8-1.8,2.7-2.2l-0.1,0.2c0.6-0.4,0.4-0.8,1.1-1.1l-0.1,0.1c1.3-0.9,2.7-2.1,3.8-2.5
								c0-0.4,1.4-0.8,1.2-1.2c0.9-0.4,0.7-0.2,1.8-0.8c0.3-0.2,0.3-0.5,0.6-0.8l0.1,0.2l0.3-0.5l0.4,0l0.3-0.3
								c-0.1,0.1-0.3,0.1-0.3,0.1c0.4-0.4,1.3-0.8,1.4-0.7l1.1-1c0,0.1-0.2,0.3-0.3,0.4c0.5-0.6,0.2,0.1,0.7-0.5c-0.1,0,0-0.1,0-0.2
								c0.4-0.1,1-0.6,1.5-1l0,0.2c0.9-0.6,1.8-1.4,2.8-2.1c-0.4,0.2-0.5-0.1-0.2-0.3l0.3,0.1c0.1-0.3-0.4,0.2-0.1-0.3
								c0.4-0.2,0.4,0,0.2,0.2l0.4-0.4c0.1,0,0,0.1,0,0.2c0.1-0.2,0.9-0.4,1-0.8l0.1,0c1-0.7,1.4-1.1,2.2-1.7
								c-0.1-0.2,0.2-0.4,0.4-0.7c0.6-0.4,1.4-0.7,2.1-1.3c0.4-0.4,0-0.2,0.2-0.5c0.1,0.1,0.8-0.4,0.6,0c0.8-0.6,1.1-0.8,2.1-1.7
								c-0.2,0-0.3,0.1-0.3,0c0.2-0.2,0.5-0.3,0.5-0.2l0,0.1c0.5-0.6,1.3-1,2-1.4c0.4-0.2,0.7-0.4,1-0.6c0.3-0.2,0.5-0.4,0.7-0.5
								l0,0c0,0,0.9-0.6,0.9-0.6c0.5-0.1-0.3,0.2,0.1,0.2c1.1-0.6,1.8-0.3,2.8-0.4c0.3,0.3,1,0.4,1.6,0.7c0.6,0.2,1.3,0.6,1.6,1.1
								l0-0.1c0.3,0.1,0.2,0.3,0.3,0.4c0-0.1-0.1-0.3,0-0.2c0.8,0.7,1.5,1.9,2.2,3c0.4,0.6,0.6,1,0.9,1.6c0.2,0.5,0.3,1.1,0.4,1.6
								c0.1,0.4,0.2,0.5,0.4,0.6c0.1,0.1,0.2,0.3,0.1,0.9l-0.2-0.3c0.1,0.8-0.1,1.7-0.4,2.5c-0.3,0.8-0.8,1.5-1.3,2.1
								c0-0.1,0-0.2,0.1-0.3c-0.3,0.1-0.9,0.8-0.9,1c-0.2,0.2-0.1-0.1-0.3,0c-0.4,0.2-0.7,0.8-0.9,0.7c0,0,0.1-0.1,0.1-0.2
								c-0.2,0.2-1,0.7-0.7,0.7c-0.6,0.3-1,0.9-1.6,1.1c-0.2,0.4-1,0.6-0.9,0.9c-0.1-0.3-1.1,0.5-1.4,0.9c0.1-0.2-0.4,0.1-0.3-0.1
								c-0.4,0.3-0.7,0.6-0.6,0.7c-1,0.2-1.3,1.4-2,1.3c-1.1,1-2.2,1.9-3.2,2.8c-0.1-0.3,1.2-0.9,0.9-1.1c-1,0.9-1.4,1.5-2.5,2.2
								c-0.3,0.2,0.1-0.2,0.1-0.3c-1,0.9-2,1.4-2.8,2.3c0,0,0.1-0.1,0.1-0.2c-0.2,0.1-0.5,0.3-0.3,0.4l0.2-0.2c0.4,0-0.5,0.9-0.4,1
								c0.1-0.6-1,0.6-0.8-0.2c-0.1,0.1-0.2,0.3-0.1,0.3c-0.2,0.1-0.3,0.1-0.2-0.1c-0.6,0.5-0.3,0.5-0.9,0.9c0-0.1,0.1-0.2,0.1-0.3
								c-0.2,0.3-0.4,0.7-1,1c0-0.1-0.1-0.1,0.1-0.2c-0.8,0.6-1.2,1.4-2.3,1.9c0.1-0.4-0.4,0.2-0.6,0l-0.5,0.4l0.3,0
								c-0.4,0.3-0.7,0.8-1.2,1l0.3-0.3l-0.8,0.6l0.5-0.3C61,49,61.6,48.7,61,49.1c0.1-0.1-0.4,0.3-0.8,0.4l0,0
								c-0.2,0.2-0.3,0.5-0.7,0.6c-0.1,0-0.1-0.3-0.2-0.3c-0.1,0.3-1,0.8-1.1,1.2c0.1-0.1,0-0.2-0.1-0.2l-0.1,0.3
								c-0.2,0.1-0.3,0.1-0.3,0c-0.6,0.4,0.4,0.1-0.4,0.5c0-0.1,0-0.1,0.1-0.2c-0.8,0.5-1.4,1.1-2.1,1.5c-0.4-0.1,0.6-0.5,0.2-0.5
								c-0.9,0.7-1.8,1.7-2.8,2.4l0.2-0.1c0.1,0.4-0.8,0.4-1.2,0.9c0.1-0.1,0-0.3,0-0.2c-0.7,0.4-1.3,1-2.2,1.8l0.1-0.2
								c-0.4,0.2-1,0.7-1.5,1c-0.1,0.2-0.3,0.3-0.1,0.3c-1.6,0.5-2.2,2-3.6,2.5c0.1-0.1,0.3-0.3,0.2-0.2l-0.9,0.8
								c0.2,0.1,0.2,0,0.5-0.1c-0.1,0.2-0.3,0.4-0.5,0.6c0.4-0.4-0.2-0.2-0.4-0.1c0.1,0,0,0.1,0.1,0.1c-0.7,0.1,0.1,0.3-0.7,0.7
								l0-0.1c-0.2,0.2-0.4,0.5-0.7,0.7c-0.2-0.1,0.2-0.3,0.1-0.4c-0.4,0.3-0.6,0.8-1,0.9c0.1-0.2,0.4-0.3,0.5-0.5
								c-0.5,0.1-0.5,0.2-0.8,0.4l0,0l-0.7,0.4l0.2-0.1c-0.2,0.7-0.9,0.8-1.4,1.5c0.5-0.7,0-0.2-0.1-0.4c-0.2,0.1-0.5,0.2-0.5,0.1
								c-0.2,0.4-0.6,0.3-0.9,0.8c-0.1,0-0.3,0.2-0.3,0c-0.3,0.3,0.2,0,0.2,0.1c-0.5,0.6-1.6,0.6-2.5,1.1c-0.9,0.3-1,0.5-1.9,0.6
								c-0.3-0.1,0.3-0.2,0.3-0.2c-0.5-0.1-0.8-0.1-1.2-0.2c0.1,0,0-0.1-0.1-0.2c-0.3-0.1-0.3,0.2-0.7-0.1c0.1,0,0.2-0.1,0.4-0.2
								c-0.4,0-0.8-0.1-1.2-0.2c0-0.2,0.3,0,0.5-0.1c-0.5-0.1-1.1-0.5-1.3-0.4l0.2,0.2c-0.2-0.1,0-0.2,0.1-0.1
								c0.4,0.1,0.5,0.3,0.5,0.4L30,66.5c0.1,0.5,1.2,0.5,1.7,0.6l-0.3,0.2c0,0,0.2,0,0.3,0c0.2,0,0.3-0.1,0.3-0.1
								c0.1,0.1,0.2,0.3-0.1,0.3c0.4,0.2,0.4,0,0.8,0.2c0,0,0,0,0,0c0,0,0.5,0,0.5,0c-0.1,0.1,0.1,0.2-0.2,0.2
								c0.8,0.2,1.3-0.2,1.6-0.1l-0.1,0c1.1-0.3,0.1-0.2,0.8-0.6c0,0,0.2,0.1,0.3,0.2c0.2,0.1,0.4,0.2,0.4,0.2l0-0.2
								c0.1,0,0.3-0.1,0.3,0c0.3-0.3-0.1-0.1,0.1-0.3c0.6,0,1.3-0.8,1.6-0.6c0.1-0.2-0.5,0.2-0.1-0.2c0.4,0.2,0.5-0.5,1-0.6
								c0,0.2-0.5,0.4,0,0.3c0.1-0.4,0.8-0.5,1.1-0.8c-0.1-0.2,0.7-0.6,1.2-1.1c0,0.1,1.2-0.7,1.8-1l0,0c0-0.3,0.5-0.6,0.9-1
								c0.1,0.1,0,0.2-0.1,0.5l0.4-0.3c0-0.1,0.1-0.3,0.4-0.5l0,0.2c0.5-0.4,0.9-0.9,1.6-1.3c-0.1-0.2-0.8,0-0.2-0.6
								c0.1,0.1,0.2,0.2,0.1,0.3c0.1-0.1,0.2-0.2,0.3-0.3l-0.2,0.3c0.3-0.2,0.1-0.2,0.3-0.4c0.1,0.1,0.2,0,0.3,0.1
								c-0.1,0.1-0.2,0.1-0.3,0.2c0.3-0.2,0.6-0.3,0.8-0.3c-0.1,0-0.1-0.2,0.1-0.3c0.5-0.4,0.3,0,0.6-0.1c0.1-0.2,0.4-0.3,0.3-0.5
								c0.1-0.1,0.2,0,0.3,0c0.2-0.3,1.2-0.9,0.8-0.9l-0.1,0l0,0l0,0l0,0c0.7-0.8,1.8-1.2,2.6-1.9l0,0.1c0.5-0.4,1.1-0.9,1.4-1.2
								c0.1-0.1,0.4-0.2,0.4,0c0.4-0.3,0.4-0.4,1-0.7c-0.3,0.4,0.2,0-0.3,0.4c0.5-0.3,0.7-0.3,1.1-0.9c-0.1,0.3,0.5-0.1,0.7-0.3
								l-0.4,0.2c0.3-0.2,0.5-0.4,0.7-0.5l0,0.3c1.2-0.5,1.6-1.7,2.6-1.9c0.2-0.3-0.6,0.3-0.5,0c0.5-0.3,1.2-0.4,1.3-0.5
								c0.7-0.4,0.4-0.7,1.1-1.1c-0.1,0-0.3-0.1,0.1-0.6c0.5-0.3,0.8-0.1,0.5,0.1c-0.1,0.1-0.2,0.1-0.2,0.1
								c-0.1,0.1-0.3,0.3-0.1,0.2l0-0.1c0.3-0.1,0.9-0.6,0.9-0.4c0.3-0.3,0.1-0.2-0.2-0.1c0.7-0.3,0.9-0.7,1.6-1.1
								c-0.1,0-0.3,0-0.2,0c1-0.6,0.3-0.4,0.9-0.9c0.4-0.2,0.1,0.3,0.6-0.2c0.4-0.2,0.2,0.1,0.1,0.3c0.5-0.5,1.1-0.7,1.5-0.9
								l-0.3,0.3c0.2-0.2,0.3-0.3,0.5-0.4l-0.3,0c0.2-0.1,0.3-0.2,0.4-0.2c0.1-0.2-0.3-0.1,0-0.5c0.3-0.1,0.7-0.6,0.9-0.5
								c-0.8,0.5,0.2,0.1-0.4,0.6c0.1-0.1,0.3-0.2,0.4-0.3c0,0,0,0.1,0,0.1c0.8-0.4,0.2-0.4,0.9-1c0,0.2,0.3,0.1,0.4,0
								c-0.3,0.2-0.3-0.1,0-0.3c0.5-0.3,0.5-0.4,0.7-0.6l-0.3,0.2c0-0.2,0.3-0.3,0.6-0.6c0.1,0.1-0.3,0.3-0.1,0.2
								c0.2-0.4,1-0.4,1.4-0.9c0.3-0.1,0.2,0.2,0.4,0.1c0.5-0.5,0.7-0.3,1.2-0.9c-0.3,0-0.3,0,0-0.4L72.2,42l0.5-0.7
								c-0.3,0.2-0.6,0.5-0.8,0.6c0.2-0.3,0.2-0.3,0-0.3c0.6-0.1,0.7-0.7,1.3-0.9l0.2,0.3c0.8-0.4,1.1-1.1,2.1-1.7l-0.3,0.2
								c0-0.2,0.5-0.4,0.8-0.7c0.1,0.1,0.3,0,0.4,0c-0.1-0.1,0.7-0.5,0.6-0.8l0.5-0.1c0.8-0.5,0.6-0.9,1.3-1.4
								c-0.1,0.3,0.3,0.1-0.2,0.6c0.2-0.2,0.5-0.3,0.4-0.4c0.2,0,0.5-0.6,0.8-0.7c0.1-0.1,0-0.3,0.3-0.4c0,0,0,0.1,0,0.1
								c0-0.1,0.4-0.4,0-0.3c1-0.2,2-1.5,2.9-1.7c0.5-0.4,1.1-0.9,1.5-1.3c0,0.1,0,0.1-0.1,0.1c0.7-0.4,0.2-0.6,1-1
								c0.5-0.1-0.3,0.4,0,0.3c0.4,0.3,0.9-0.8,1.5-1l-0.1,0.1c0.5-0.3,0.7-1.1,1.1-1.7c0,0,0,0.1,0.1,0c0.1-0.6,0.4-1.6,0.4-2.3
								c0.1,0.3,0,0.4,0.2,0.3c0-0.3-0.3,0-0.2-0.6c0.1-0.2,0.3-0.7,0.4-0.7c0,0,0,0.7,0,0.7c0.3-0.3,0.1-0.9,0.1-1.2l0.1,0
								c-0.1-1-0.4-1-0.6-2.1l0,0.1c-0.4-0.5,0-0.5-0.4-1l0.2-0.3c-0.2-0.3-0.9-1.1-1.3-1.5c0.4,0.2,0.9,0.8,1.3,1.2
								c-0.2-0.4-0.7-1.1-1-1.2c0.1,0.1,0.3,0.2,0.3,0.4c-0.4-0.2-0.9-0.7-1.3-1.2c0.5-0.2-1-1.6-1.1-2.3c-1.1-0.9-2.1-1.9-3.8-2.3
								c0.5,0.6-0.5-0.1-0.5,0.3c-0.4,0-0.5-0.1-0.5-0.1c0,0-0.3-0.1-0.5-0.2c-0.3-0.1-0.6-0.1-0.6-0.1c-0.3-0.1,0.4-0.1,0.3-0.2
								c-0.9,0-0.4-0.2-0.9-0.3c0.1,0.2-0.3,0.2-0.8,0.3c0,0,0.2,0,0.4,0c0.2,0,0.4,0.1,0.4,0.1c-1.1,0.4-1.1-0.2-2.2,0.4
								c0,0,0.3-0.3,0.3-0.3c-0.3,0.1-0.8,0.3-1.3,0.6c-0.5,0.3-0.9,0.7-1,1c-0.1,0-0.3,0-0.1-0.2c-1.1,0.7-2.2,2-3.1,2.5l0-0.1
								c-0.2,0.2-0.2,0.4-0.5,0.5c0,0,0-0.1-0.1-0.1c-0.1,0.1-0.4,0.5-0.7,0.7l0.2-0.3c-1.1,0.6-1.4,1.4-2.3,2.1
								c-0.2-0.3-1.1,0.3-1.5,0.5l0,0c-1.2,0.9-1.9,1.7-3,2.6c-0.9,0.2-2.4,1.6-3.7,2.3c0.2-0.1,0.1,0.2-0.1,0.4
								c-0.3,0.1-0.6,0.7-0.7,0.4l0.1-0.1c-0.4-0.1-0.9,0.4-1.3,0.7l0.1,0.3c-1.4,0.4-2.8,2.3-3.7,2.3c-0.2,0.3-0.5,0.5-0.8,0.8
								l-0.1-0.2c-0.8,0.5-1.2,0.7-2,1.4l0.1-0.3c-0.5,0.4-0.3,0.9-0.8,1.3l-0.3-0.1c-0.9,0.7-2,1.1-2.7,2c0,0,0-0.1,0.1-0.2
								c-0.4,0.3-1.8,1-1.4,1.2c-0.2-0.2-0.9,0.7-1.4,1.1l0-0.2c-0.3,0.5-0.2,0.6-0.8,1c-0.2,0.1-0.2,0,0-0.1
								c-0.5,0.2-0.2,0.4-0.9,0.7l0.1-0.2C43,39.6,43,39.7,42.9,40c-0.2,0.3-0.9,0.6-1.1,0.5c0,0.1-0.2,0.4-0.5,0.6
								c-0.1,0,0-0.1,0-0.2c-0.9,0.5-1,1-1.7,1.3c0,0-0.1,0-0.2,0c0.6-0.4,1.1-0.8,1.1-0.8c-0.1-0.1-0.6,0.2-0.4-0.3
								c-0.3,0.4-0.8,1.1-1.4,1.4c0,0-0.1,0-0.1,0l0-0.1c-0.1,0.1-0.2,0.2-0.3,0.2c-0.2,0.1-0.3,0.1-0.4,0.2
								c-0.1-0.1-0.6,0.4-0.9,0.5c0.1,0.1-0.2,0.4,0.2,0.3c0,0,0-0.1,0.2-0.2c0,0,0.1-0.1,0.1-0.1l0,0c0.2-0.1,0.4-0.3,0.6-0.5
								c-0.1,0.2-0.3,0.4-0.6,0.6c-0.1,0.2-0.1,0.4-0.2,0.5c-0.5,0-1.2,0.4-1.4,0.3c-0.7,0.6-1.7,1.4-2,2c-0.2,0.2-0.3,0.1-0.4,0.1
								c0.1-0.1,0.3-0.2,0.3-0.3c-0.4,0.4-1.3,1-1.2,1.2c-0.6,0.3,0.2-0.4-0.6,0.2l0.1-0.1c-1.7,0.7-2,2.3-3.9,3
								c0.1-0.1,0.2-0.1,0.2-0.1c-0.5,0.3-1,0.6-1.5,1c-0.5,0.4-1,0.8-1.3,1.3c-0.8,1-1.3,2.1-1.8,3.2c-0.2,0.7-0.1,0.8,0,1.2
								l-0.2,0.1c0,0,0.1,0.2,0.1,0.4c0.1,0.2,0.1,0.4,0.1,0.4c0.1,0.5,0,0.9,0,1.4c0,0.5,0.1,1,0.5,1.5l0.1-0.2
								c0.1,0.4,0.7,1.2,0.6,1.2c0,0,0.2,0,0.2,0.2l-0.1,0.1c0,0,0.2,0.2,0.4,0.4c0.2,0.2,0.4,0.4,0.4,0.4c0.4,0.7-0.4,0.2,0.3,1.1
								c0.3,0.3,1,0.8,1,0.7c-0.1-0.1-0.2-0.4-0.1-0.5l0.3,0.3c0.3-0.1,0.8-0.1,0.4-1l-0.6-0.4l0-0.3l0.4,0.5
								c-0.1-0.4-0.3-0.5-0.5-0.6c0-0.1,0-0.2,0-0.3L26.4,62c0.1-0.1,0.4,0.1,0.2-0.3c-0.3-0.2,0,0.4-0.4,0c0-0.3,0.1-0.3-0.2-0.6
								c0-0.1,0.1,0,0.2,0c-0.3-0.2-0.4-0.7-0.7-0.8c0-0.2-0.1-0.4-0.2-0.6c-0.1-0.2-0.1-0.4,0.1-0.4c-0.1-0.1-0.4-0.5-0.4-0.8
								c0.4,0.5-0.1-1.1,0.4-1c-0.4-0.4-0.1-1.4,0-2.1c0,0,0,0.1,0,0.2c0.1-0.4,0.3-0.4,0.4-0.6c-0.2-0.2,0-0.7,0-1.1
								c0.5-0.3,0.1,0.4,0.4,0.4c-0.2-0.1,0.3-0.8,0-0.8c0.4-0.2,0.3-0.2,0.6-0.2c-0.2-0.3,0.2-0.3,0.3-0.6c0.5-0.2,0.3,0.2,0.7-0.3
								C28,52.5,27.7,52.9,27.7,52.9z M39.7,43.4L39.7,43.4c-0.1,0.1-0.2,0.2-0.2,0.2C39.5,43.5,39.6,43.5,39.7,43.4z M40.8,42.6
								c-0.1,0.1-0.3,0.2-0.5,0.3c-0.1,0-0.1-0.1,0-0.2C40.3,42.8,40.6,42.7,40.8,42.6z M37.8,43.1C37.9,43,38,43,38,43
								C38,43,37.9,43.1,37.8,43.1l0,0.1C37.7,43.2,37.7,43.2,37.8,43.1z"/>
							<path fill="#3C3C3C" d="M37.6,43.5C37.6,43.6,37.6,43.6,37.6,43.5C37.6,43.6,37.6,43.6,37.6,43.5L37.6,43.5
								C37.7,43.5,37.6,43.5,37.6,43.5z"/>
							<path fill="#3C3C3C" d="M49.4,58.1L49.4,58.1C49.4,58.1,49.4,58.1,49.4,58.1C49.4,58.1,49.4,58.1,49.4,58.1z"/>
							<polygon fill="#3C3C3C" points="55.4,32.4 55.4,32.4 55.3,32.5 							"/>
							<path fill="#3C3C3C" d="M43.3,61.8c0,0-0.1,0-0.1,0C43.2,61.8,43.2,61.8,43.3,61.8z"/>
							<path fill="#3C3C3C" d="M40.8,63.5l-0.4,0.2C40.5,63.6,40.7,63.6,40.8,63.5z"/>
							<path fill="#3C3C3C" d="M38.8,64.8C38.8,64.9,38.8,64.9,38.8,64.8L38.8,64.8L38.8,64.8z"/>
							<path fill="#3C3C3C" d="M69,42.5C69,42.5,69.1,42.5,69,42.5C69.2,42.3,69.1,42.4,69,42.5z"/>
							<path fill="#3C3C3C" d="M60.3,49.5c0.1-0.1,0.1-0.2,0.2-0.3C60.3,49.3,60.2,49.4,60.3,49.5z"/>
							<polygon fill="#3C3C3C" points="79,35 79,35 79,34.9 							"/>
							<path fill="#3C3C3C" d="M60.9,48.9c-0.2,0.1-0.3,0.2-0.4,0.3C60.6,49.1,60.8,49,60.9,48.9z"/>
							<path fill="#3C3C3C" d="M30,66L30,66c-0.1-0.1-0.1,0-0.1,0L30,66z"/>
							<path fill="#3C3C3C" d="M29.9,66l-0.1,0C29.8,66,29.8,66,29.9,66z"/>
							<path fill="#3C3C3C" d="M29.5,65.9l0.2,0.1C29.7,65.9,29.6,65.8,29.5,65.9z"/>
							<path fill="#3C3C3C" d="M32.7,67L32.7,67C32.7,67,32.7,67,32.7,67z"/>
							<path fill="#3C3C3C" d="M33.5,67.1c-0.2,0-0.5-0.2-0.8-0.2l0,0.1C32.8,66.9,33.3,67.2,33.5,67.1z"/>
							<path fill="#3C3C3C" d="M37.5,66.8c0,0-0.8,0.3-0.8,0.3c0.2,0,0.4,0,0,0.2C37.8,67.1,36.5,67.3,37.5,66.8z"/>
							<path fill="#3C3C3C" d="M39.6,65.5c-0.3,0.3,0.1,0.1,0.1,0.1C39.8,65.4,39.9,65.3,39.6,65.5z"/>
							<path fill="#3C3C3C" d="M54,55l0.1,0.2C54.3,54.9,54,55.1,54,55z"/>
							<polygon fill="#3C3C3C" points="56.2,52.2 55.9,52.3 55.9,52.5 							"/>
							<polygon fill="#3C3C3C" points="58.6,52 58.5,52.1 58.9,51.8 							"/>
							<path fill="#3C3C3C" d="M82.8,34.3l-0.2-0.1C82.4,34.4,82.5,34.6,82.8,34.3z"/>
							<path fill="#3C3C3C" d="M88.8,23.3c0.1-0.2,0-0.6-0.2-0.8C88.7,22.8,88.7,23.1,88.8,23.3z"/>
							<polygon fill="#3C3C3C" points="57.1,29 57.3,28.7 56.9,29.1 							"/>
						</g>
					</g>
				</g>
			</g>
		</g>
		<g>
			<g>
				<g>
					<g>
						<g>
							<path fill="#3C3C3C" d="M77.1,17.6c0-0.1-0.1-0.2-0.1-0.1l0.1,0.2L77.1,17.6z"/>
							<path fill="#3C3C3C" d="M76.5,17.5c0,0.1,0.1,0.3,0.3,0.4c-0.1-0.2,0-0.1-0.2-0.4c0-0.1,0.1,0,0.2,0.1c0-0.1,0.1,0,0-0.1
								c-0.2-0.1-0.3,0-0.2,0.1C76.6,17.6,76.5,17.5,76.5,17.5z"/>
							<path fill="#3C3C3C" d="M74.7,22.9L74.7,22.9C74.8,22.9,74.7,22.9,74.7,22.9z"/>
							<path fill="#3C3C3C" d="M76.1,26.4C76.1,26.4,76,26.4,76.1,26.4C76.1,26.4,76.1,26.5,76.1,26.4z"/>
							<path fill="#3C3C3C" d="M76.3,27.1C76.3,27.1,76.3,27.1,76.3,27.1C76.2,27.1,76.2,27.1,76.3,27.1z"/>
							<path fill="#3C3C3C" d="M74.7,22.9L74.7,23C74.8,23,74.7,23,74.7,22.9z"/>
							<path fill="#3C3C3C" d="M76.4,18.4C76.4,18.4,76.4,18.4,76.4,18.4C76.4,18.4,76.4,18.4,76.4,18.4L76.4,18.4z"/>
							<path fill="#3C3C3C" d="M74.4,21.3L74.4,21.3C74.4,21.2,74.3,21.2,74.4,21.3L74.4,21.3z"/>
							<path fill="#3C3C3C" d="M74.5,20c0,0,0.2,0.1,0.3,0.1c-0.1,0-0.1-0.1-0.1-0.1C74.6,20,74.6,20,74.5,20z"/>
							<path fill="#3C3C3C" d="M75.6,18.2L75.6,18.2C75.6,18.1,75.6,18.2,75.6,18.2z"/>
							<path fill="#3C3C3C" d="M74.4,22.2C74.4,22.2,74.3,22.2,74.4,22.2C74.4,22.2,74.4,22.2,74.4,22.2z"/>
							<path fill="#3C3C3C" d="M78.3,17.5C78.3,17.5,78.3,17.4,78.3,17.5C78.3,17.5,78.3,17.5,78.3,17.5z"/>
							<polygon fill="#3C3C3C" points="76.8,17.2 76.8,17.1 76.7,17.1 							"/>
							<path fill="#3C3C3C" d="M76.9,28.2L76.9,28.2C76.8,28.2,76.8,28.2,76.9,28.2z"/>
							<path fill="#3C3C3C" d="M87.3,28.8c-0.2,0-0.1-0.3-0.3-0.3C87,28.6,87.1,28.9,87.3,28.8z"/>
							<path fill="#3C3C3C" d="M76.4,18.4C76.4,18.4,76.4,18.5,76.4,18.4C76.4,18.4,76.4,18.4,76.4,18.4z"/>
							<path fill="#3C3C3C" d="M86.9,28.5L86.9,28.5L86.9,28.5C86.9,28.5,86.9,28.5,86.9,28.5z"/>
							<path fill="#3C3C3C" d="M79.2,29.9C79.2,29.9,79.2,29.8,79.2,29.9C79.2,29.8,79.2,29.9,79.2,29.9z"/>
							<path fill="#3C3C3C" d="M77.7,28.4L77.7,28.4C77.7,28.5,77.7,28.5,77.7,28.4z"/>
							<path fill="#3C3C3C" d="M80.3,30.2C80.3,30.2,80.3,30.2,80.3,30.2C80.3,30.2,80.3,30.2,80.3,30.2
								C80.3,30.2,80.3,30.2,80.3,30.2z"/>
							<polygon fill="#3C3C3C" points="81.4,30.5 81.3,30.5 81.3,30.5 							"/>
							<path fill="#3C3C3C" d="M81,17.4c0-0.1,0-0.1,0-0.2C81,17.4,80.8,17.4,81,17.4z"/>
							<path fill="#3C3C3C" d="M76.3,18.4C76.4,18.4,76.4,18.4,76.3,18.4L76.3,18.4C76.4,18.4,76.3,18.4,76.3,18.4z"/>
							<path fill="#3C3C3C" d="M80.9,28.7l0.1,0.1C81,28.8,81,28.8,80.9,28.7z"/>
							<path fill="#3C3C3C" d="M85.9,21.9L85.9,21.9C85.9,21.9,85.9,21.9,85.9,21.9z"/>
							<path fill="#3C3C3C" d="M81.4,28.9c0,0.1,0,0.1,0,0.2c0,0,0,0,0,0L81.4,28.9z"/>
							<path fill="#3C3C3C" d="M81,17.3L81,17.3L81,17.3z"/>
							<path fill="#3C3C3C" d="M80,17.5c0.1,0,0.1-0.2,0.1-0.4c0.2,0,0,0.2,0.1,0.3c0.1-0.1,0.2-0.3,0.3-0.3c0,0,0,0.1,0,0.1
								c0.2-0.2,0.3,0.1,0.5-0.1c0,0,0,0,0,0.1c0-0.1,0-0.3,0.1-0.3c0.1,0,0.2-0.1,0.1,0c0,0-0.1,0-0.1,0.1l0.1,0
								c0,0.3-0.1,0-0.2,0.2c0.1,0,0.4-0.2,0.4-0.1c-0.1,0.2-0.3,0-0.2,0.2l-0.1-0.1c0,0.4-0.1-0.1-0.1,0.4c0.2,0.1,0.2,0,0.4,0.1
								c0.1-0.1,0.1-0.2,0.2-0.3c0.4-0.1,0,0.6,0.3,0.4c0.1-0.1,0.3-0.4,0.3-0.2l-0.2,0.2c0.2,0.1,0.3-0.3,0.4,0
								c-0.1,0.1-0.2,0-0.2,0c0,0.3,0.2-0.1,0.3,0l-0.1,0.2c0.2,0.1,0.5,0.1,0.7,0.2c-0.1,0.1-0.1,0.1-0.1,0.2
								c0.3,0.1,0.5,0.4,0.6,0.7l0.2-0.1c0,0,0,0.1-0.1,0.1c0,0.1,0.1-0.1,0.2-0.1c0.1,0,0,0.1-0.1,0.2c0.3,0,0.7,0.1,0.7,0.4
								l-0.1,0c0,0.2,0.4-0.1,0.4,0.1l0,0c0.2,0.3,0.6,0.5,0.4,1c0.3-0.1,0.1,0.4,0.4,0.2c-0.1,0.3-0.2,0.3-0.1,0.6
								c0,0.1,0.3,0,0.4,0l-0.2,0.1l0.3,0l-0.2,0.2l0.1,0.1c0,0,0.1-0.1,0.1-0.1c0.1,0.1,0,0.4-0.1,0.4c0,0,0.1,0.1,0.2,0.1
								c0.1,0.1,0.1,0.1,0.1,0.1c-0.1,0-0.1,0-0.2,0c0.3,0.1-0.2,0.1,0,0.2c0,0,0.1,0,0.2,0c-0.1,0.1,0,0.3,0.1,0.4l-0.1,0
								c0,0.2,0.2,0.5,0.3,0.7c0-0.1,0.3-0.1,0.3-0.1l-0.2,0.1c0.1,0,0.1-0.1,0.3,0c0,0.1-0.2,0.1-0.3,0.1l0.1,0.1
								c-0.1,0-0.1,0-0.2,0c0.1,0-0.2,0.2,0.1,0.3l-0.1,0c0,0.3,0.1,0.4,0.2,0.6c0.2,0,0.2,0.1,0.3,0.1c-0.1,0.2-0.2,0.3-0.2,0.5
								c0.1,0.1,0.2,0,0.3,0.1c-0.2,0-0.2,0.2-0.3,0.1c0,0.2,0,0.3,0.1,0.6c0.1,0,0.1-0.1,0.2,0c0,0.1-0.1,0.1-0.2,0.1l0,0
								c0.2,0.4-0.7,0.6-0.4,0.9l0,0c0,0,0.1,0.3,0.1,0.3c-0.1,0.1-0.1-0.1-0.2-0.1c0.1,0.4-0.2,0.4-0.2,0.6
								c-0.5-0.2-0.3,0.5-0.8,0.4l0.1,0.1c0,0.1-0.1,0-0.1,0c0.1,0.1,0.1,0,0.1,0.1c-0.3,0.4-0.9,0.4-1.4,0.4c-0.2,0,0,0.7-0.2,0.4
								l0-0.2c-0.3,0.4-0.7,0.1-1.1,0.3c0-0.1,0-0.1,0.1-0.1c-0.1-0.2-0.3,0-0.3,0.1c-0.1,0,0-0.1,0-0.2c-0.1-0.1-0.2,0.2-0.3,0
								c0,0,0-0.1,0-0.1c-0.1,0.1-0.2-0.1-0.2,0.1c-0.1-0.1-0.3,0-0.4-0.1c-0.1,0.2-0.2-0.2-0.3,0.1c0.1-0.3-0.2-0.3-0.3-0.2
								c0.1-0.1,0-0.1,0-0.2c-0.1,0-0.2,0-0.3,0.1c0-0.4-0.5,0.1-0.4-0.4c-0.4,0-0.7-0.1-1-0.2c0.2-0.3,0.3,0.2,0.5-0.1
								c-0.3,0-0.6,0.1-0.8-0.2c0-0.1,0.1-0.1,0.2-0.1c-0.3-0.1-0.4-0.4-0.7-0.4c0,0,0.1,0,0.1,0c0,0-0.1-0.1-0.1,0l0.1,0
								c-0.1,0.2-0.4,0.2-0.5,0.2c0.4-0.2-0.1-0.3,0.4-0.5c0,0-0.1,0-0.2,0.1c0-0.1,0-0.1,0.1-0.1c-0.2-0.1-0.2,0.1-0.4-0.1
								c0.1,0,0.1,0,0.2-0.1c-0.2,0-0.3,0.1-0.4-0.1c0,0,0.1-0.1,0.1,0c-0.2-0.2-0.5-0.1-0.6-0.4c0.3-0.1,0-0.1,0.2-0.3l-0.1-0.1
								l-0.1,0.1c-0.1-0.1-0.3-0.1-0.3-0.2l0.1,0l-0.2-0.2l0,0.2c-0.2,0-0.3,0.2-0.3,0c0,0-0.1-0.1,0-0.2l0,0c-0.1,0-0.2,0-0.2-0.1
								c0.1-0.1,0.3-0.1,0.3-0.2c-0.2,0.1-0.2-0.2-0.4-0.2c0.1,0,0.2-0.1,0.2-0.1l-0.2,0c0-0.1,0-0.1,0.1-0.1
								c-0.1-0.2-0.3,0.2-0.2-0.1c0,0,0,0,0.1,0c0-0.2-0.3-0.3-0.3-0.5c0.2-0.2,0.1,0.1,0.3,0c-0.2-0.2-0.5-0.4-0.5-0.7l0,0.1
								c-0.4,0.1,0.1-0.3-0.1-0.3c0,0,0.2,0,0.2,0c0-0.2-0.2-0.3-0.4-0.6l0.1,0c0.1-0.1,0-0.3,0-0.4c-0.1,0-0.1-0.1-0.2,0
								c0.5-0.4-0.4-0.7,0.1-1c0,0,0.1,0.1,0.1,0.1c0,0-0.1-0.3-0.1-0.3c-0.2,0-0.1,0-0.2,0.1c-0.1,0-0.2-0.1-0.2-0.2
								c0.1,0.1,0.3,0,0.4,0c-0.1,0-0.1,0-0.2,0c0.3-0.1-0.3,0-0.1-0.2l0.1,0c0-0.1-0.1-0.2-0.1-0.2c0.2,0,0.1,0.1,0.2,0.1
								c0-0.1-0.3-0.3-0.1-0.3c0,0.1,0,0.1,0.1,0.2c0.2-0.1,0.2-0.1,0.2-0.2l0,0l0.1-0.2l-0.1,0c-0.5-0.2,0-0.3-0.3-0.5
								c0.2,0.3,0.2,0.1,0.4,0.1c0.1,0,0.1-0.1,0.2,0c-0.1-0.1,0.2-0.1,0-0.3c0.1,0,0-0.1,0.2,0c0-0.1-0.1,0-0.2-0.1
								c-0.2-0.2,0.4-0.3,0.2-0.6c0-0.2-0.2-0.4-0.2-0.6c0.1,0,0.2,0.2,0.2,0.2c0.1,0,0.2-0.1,0.2-0.2c0,0.1,0.1,0.1,0.2,0.1
								c0-0.1-0.2-0.2,0-0.2c0,0.1,0.1,0.2,0.2,0.2c0-0.1,0-0.3,0-0.4c0.1,0.1,0.1,0.2,0.1,0.2c0-0.1,0.1-0.3,0-0.4l-0.1,0
								c0,0,0.1,0.1,0.1,0.1c0,0.2-0.1,0.1-0.2,0l0-0.1c-0.3-0.2-0.2,0.3-0.3,0.4L75.9,18l0.1,0.3c-0.1,0-0.2-0.1-0.2-0.2
								c-0.2,0,0,0.1-0.2,0.1c0,0,0,0,0,0l0,0.1c0-0.1-0.2-0.1-0.1-0.1c-0.3,0.1,0,0.4-0.2,0.3l0,0c0,0.3,0.2,0.1,0.3,0.4l-0.5-0.1
								l0.2,0.1c0,0-0.1,0.1-0.1,0c0.1,0.2,0.1,0,0.2,0.1c-0.2,0.1,0,0.4-0.4,0.3c0.1,0.1,0.2-0.1,0.2,0.1c-0.4-0.1,0,0.2-0.2,0.2
								c-0.2-0.1,0-0.2-0.2-0.1c0.3,0.2-0.1,0.2-0.1,0.3c0.2,0.1,0.1,0.3,0.1,0.4c-0.1,0-0.2,0.3-0.3,0.5l0,0
								c0.3,0.1,0.2,0.2,0.2,0.3c-0.2,0-0.2,0-0.3-0.1l0,0.1c0.1,0,0.1,0.1,0.2,0.1l-0.2,0c0,0.2,0.2,0.3,0.1,0.5
								c0.2,0,0.5-0.2,0.6,0c-0.1,0-0.3,0-0.3,0c0,0,0.1,0.1,0,0.1l-0.2-0.1c-0.1,0.1,0.1,0,0.1,0.1c-0.1,0-0.1,0.1-0.2,0.1
								c0,0,0-0.1,0-0.1c0,0.1-0.1,0.2-0.2,0.2c0.1,0,0.2,0,0.2,0c0,0.2-0.2,0.1-0.2,0.2c0.1,0,0,0.1,0.2,0.1c0,0-0.1,0.1-0.1,0.1
								c0.1,0.1,0.1,0.4,0.3,0.2l0,0l0,0l0,0l0,0c0.3,0.2,0,0.6,0.2,0.8l-0.1,0c0.1,0.1,0.1,0.3,0.3,0.4c0,0-0.1,0.1-0.2,0.2
								c0.1,0.1,0.2,0.1,0.1,0.3c-0.2-0.1-0.1,0.1-0.1-0.1c0,0.2-0.1,0.2,0.1,0.3c-0.2,0-0.2,0.2-0.1,0.2l0.1-0.2
								c0.1,0.1,0.1,0.1,0.1,0.2L75,25.1c-0.1,0.4,0.7,0.3,0.4,0.7c0.2,0,0-0.2,0.2-0.2c0,0.1-0.2,0.4-0.1,0.5c0,0.2,0.4,0,0.4,0.2
								c0.1-0.1,0.2-0.2,0.4-0.1c0.1,0.1-0.2,0.3-0.3,0.3c0,0,0-0.1,0-0.1c-0.1,0-0.1-0.1-0.2,0l0.1,0c0,0.1,0.1,0.3,0,0.3
								c0.1,0.1,0.1,0,0.1-0.1c0,0.2,0.2,0.3,0.2,0.5c0-0.1,0.1-0.1,0.1-0.1c0.1,0.3,0.2,0,0.4,0.1c0,0.2-0.3,0.2-0.1,0.2
								c0,0.1-0.2,0.2-0.2,0.2c0.2,0,0.1,0.3,0.2,0.4l-0.1,0c0.1,0,0.1,0.1,0.1,0.1l0.1-0.2c0,0.1,0,0.1,0,0.1
								c0.1,0,0.2-0.2,0.4-0.2c0,0.1,0.2,0.1,0.1,0.3c-0.1-0.2-0.1,0.2-0.3,0c0,0,0.1,0,0.1,0.1c0,0,0,0-0.1,0
								c0,0.3,0.2-0.1,0.4,0.1c-0.1,0.1-0.1,0.2-0.1,0.2c-0.1-0.1,0.1-0.2,0.2-0.2c0,0.2,0.2,0.1,0.2,0.1l0-0.1c0.1-0.1,0.1,0,0.2,0
								c-0.1,0.1-0.1,0-0.1,0c0.2-0.1,0,0.3,0.3,0.3c0,0.1-0.1,0.2-0.1,0.3c0.2,0,0.1,0.3,0.3,0.3c0.1-0.2,0-0.1,0.2-0.2L78.1,29
								l0.3-0.1c-0.1-0.1-0.2,0-0.2-0.1c0.2,0,0.1,0,0.2-0.2c-0.1,0.3,0.3,0,0.3,0.3l-0.2,0.3c0.1,0.3,0.5,0.1,0.6,0.3l0-0.1
								c0.1-0.1,0.2,0.1,0.3,0.1c-0.1,0.1-0.1,0.2-0.1,0.3c0-0.1,0.2,0.1,0.3-0.1l0,0.2c0.2,0.2,0.4-0.2,0.6-0.1
								c-0.1,0.1-0.1,0.2-0.3,0.3c0.1,0,0.1,0.1,0.2,0c0,0.1,0.3-0.1,0.3,0.1c0.1,0,0.1-0.2,0.2-0.1c0,0,0,0.1,0,0.1
								c0-0.1,0.2,0,0.1-0.2c0.1,0.5,0.6,0.2,0.7,0.6c0.2,0,0.4,0,0.5,0c0,0,0,0.1,0,0c0.2,0.2,0.2-0.4,0.4-0.2
								c0.1,0.2-0.1,0.1-0.1,0.2c0,0.5,0.3,0,0.4,0.2l0,0c0.1,0.2,0.3-0.1,0.5-0.1c0,0,0,0,0,0.1c0.1-0.2,0.4-0.3,0.6-0.4
								c0,0.2-0.1,0.1,0,0.3c0.1,0-0.1-0.3,0.1-0.4c0.1,0.1,0.2,0.2,0.3,0.3l-0.2,0c0.1,0.2,0.2,0,0.3,0l0,0.1
								c0.3-0.1,0.2-0.4,0.4-0.4l-0.1-0.1c0.1-0.3,0.2,0.1,0.2-0.1l0.1,0.2c0.1-0.1,0.2-0.4,0.3-0.5c0,0.2-0.1,0.4-0.2,0.6
								c0.1,0,0.3-0.2,0.3-0.3c0,0,0,0.1-0.1,0.1c0-0.2,0.1-0.4,0.3-0.5c0.3,0.5,0.5-0.1,0.9,0.1c0.2-0.4,0.6-0.4,0.9-0.8
								c-0.4-0.1,0.1-0.1-0.3-0.3c0-0.1,0.1-0.1,0.1-0.1l0.4-0.1c0.1,0,0,0.1,0.1,0.2c0.2-0.2,0.2,0,0.4-0.1c-0.1-0.1-0.2-0.2,0-0.3
								l-0.3,0.1c-0.1-0.4,0.4-0.1,0.4-0.4l0.1,0.1c0-0.2,0.2-0.6-0.1-0.8c0.1,0,0.2,0,0.2,0.1c0.2-0.4-0.1-0.9,0.1-1.1l0.1,0
								c0-0.1-0.2-0.1-0.1-0.2c0,0,0.1,0,0.1,0c0,0-0.2-0.2-0.1-0.3l0.1,0.1c0.2-0.3-0.2-0.6-0.3-0.8c0.3,0,0.4-0.3,0.4-0.4l0,0
								c0-0.4-0.3-0.7-0.5-1c0.3-0.3,0-0.8,0-1.2c0,0.1-0.2,0.1-0.3,0c0-0.1-0.3-0.1,0-0.2l0,0c0.2-0.2,0.1-0.3,0.1-0.4l-0.4,0.1
								c0.4-0.5-0.6-0.8-0.2-1.1c-0.1,0-0.2-0.1-0.3-0.2l0.2-0.1C87,20.3,87,20.2,86.8,20l0.2,0c-0.1-0.1-0.6,0.1-0.7,0l0.2-0.2
								c-0.2-0.2-0.1-0.6-0.5-0.7c0,0,0.1-0.1,0.1,0c-0.1-0.1-0.2-0.5-0.5-0.2c0.2-0.2-0.2-0.2-0.4-0.3l0.2-0.1
								c-0.3,0.1-0.3,0.1-0.5,0c0,0,0.1-0.1,0.1-0.1c0-0.2-0.2,0.1-0.3-0.1l0.1,0c-0.1-0.1-0.1-0.1-0.3,0c-0.1,0-0.2-0.2-0.1-0.4
								c-0.1,0.1-0.2,0.1-0.3,0c0-0.1,0.1-0.1,0.1-0.1c-0.1-0.3-0.4,0-0.4-0.3c0-0.1,0-0.1,0-0.1c0.2,0.1,0.3,0.2,0.2,0.2
								c0.1-0.1,0-0.3,0.3-0.4c-0.2,0-0.5,0.1-0.6,0c0,0,0,0,0-0.1l0,0c0,0-0.1,0-0.1,0c0-0.1,0-0.1-0.1-0.1
								c0.1-0.1-0.1-0.2-0.2-0.2c-0.1,0.2-0.2,0.1-0.2,0.3c0,0,0,0,0.1,0c0,0,0,0,0,0l0,0c0,0,0.1,0.1,0.2,0.1
								c-0.1,0-0.2,0.1-0.2-0.1c-0.1,0.1-0.2,0.2-0.3,0.2c0.1-0.3-0.1-0.5,0-0.7c-0.3,0-0.6-0.2-0.8,0.1c-0.1,0,0-0.1,0-0.2
								c0.1,0,0.1,0,0.1,0c-0.2,0-0.4-0.1-0.5,0.1c-0.1-0.2,0.2-0.2-0.1-0.2l0.1-0.1c-0.3-0.6-0.9,0.4-1.3-0.2c0,0,0,0.1,0,0.1
								c-0.6-0.3-1.2,0.1-1.8-0.2c-0.2-0.1-0.2,0.1-0.3,0.3l-0.1-0.2l-0.1,0.3c-0.2,0.2-0.6-0.4-0.8,0l0.1,0.1
								c-0.1,0-0.3,0.2-0.3,0.1c0,0,0,0.2,0,0.1l-0.1-0.1c0,0-0.2,0.3-0.2,0.3c-0.2,0-0.2-0.4-0.5-0.2c-0.1,0.1-0.1,0.5,0,0.5
								c0,0,0.1,0,0.2,0.1l-0.1,0.1c0.2,0.3,0.3,0.6,0.6,0.7l0-0.2l0.1,0.1l-0.1,0.1c0.1,0.1,0.1,0,0.1-0.1c0.1,0.1,0.1,0.1,0.1,0.1
								c0,0,0-0.3,0-0.3c0.1,0.1,0.1,0.2,0.2,0.3c0-0.2-0.2-0.2-0.1-0.4c0.1,0.1,0.2,0.2,0.2,0.1c0,0.1,0,0.1,0,0.2
								c0-0.1,0.1-0.1,0.1-0.3c0.1,0.2,0.2-0.1,0.3,0.2c0-0.1,0-0.3,0.1-0.3c0,0.4,0.2,0,0.3,0.4c0-0.3,0.3-0.2,0.4-0.4
								c0,0,0,0.1,0,0.1c0.1,0,0.1,0.1,0.2,0.2c0-0.3,0.1-0.4,0.2-0.5c0.1,0.3-0.1,0.3,0,0.6c0-0.2,0.2-0.2,0.2-0.4
								c0.1,0.2,0.1,0.1,0.1,0.3c0-0.3,0.1-0.1,0.2-0.3c0.1,0.2,0,0.3,0.1,0.2C80.1,17.4,80,17.5,80,17.5z M83.2,18.2L83.2,18.2
								C83.2,18.2,83.1,18.2,83.2,18.2C83.1,18.2,83.2,18.2,83.2,18.2z M83.4,18.4C83.4,18.4,83.4,18.3,83.4,18.4
								c-0.1-0.1,0-0.2,0-0.2C83.4,18.2,83.4,18.3,83.4,18.4z M83.7,16.9C83.7,16.9,83.7,16.9,83.7,16.9C83.7,17,83.7,17,83.7,16.9
								L83.7,16.9C83.6,16.9,83.6,16.9,83.7,16.9z"/>
							<path fill="#3C3C3C" d="M83.4,17.1C83.4,17.1,83.4,17.1,83.4,17.1C83.4,17.1,83.4,17.1,83.4,17.1L83.4,17.1L83.4,17.1z"/>
							<path fill="#3C3C3C" d="M74.8,22.9L74.8,22.9C74.8,22.9,74.8,22.9,74.8,22.9C74.8,22.9,74.8,22.9,74.8,22.9z"/>
							<polygon fill="#3C3C3C" points="85.7,21.7 85.7,21.6 85.7,21.6 							"/>
							<path fill="#3C3C3C" d="M75.3,21.1C75.3,21.1,75.3,21.1,75.3,21.1C75.3,21.1,75.3,21.1,75.3,21.1z"/>
							<path fill="#3C3C3C" d="M75.4,20.4L75.4,20.4C75.4,20.4,75.4,20.4,75.4,20.4z"/>
							<path fill="#3C3C3C" d="M75.6,20C75.6,19.9,75.5,19.9,75.6,20L75.6,20L75.6,20z"/>
							<path fill="#3C3C3C" d="M78.5,27.4C78.5,27.4,78.5,27.4,78.5,27.4C78.6,27.5,78.6,27.4,78.5,27.4z"/>
							<path fill="#3C3C3C" d="M76.5,25.8c0,0,0.1,0,0.1,0C76.6,25.7,76.6,25.7,76.5,25.8z"/>
							<polygon fill="#3C3C3C" points="80.9,28.7 80.9,28.7 80.9,28.7 							"/>
							<path fill="#3C3C3C" d="M76.7,25.9c0-0.1,0-0.1-0.1-0.1C76.7,25.8,76.7,25.9,76.7,25.9z"/>
							<path fill="#3C3C3C" d="M76.7,18.1L76.7,18.1C76.7,18.1,76.7,18.1,76.7,18.1L76.7,18.1z"/>
							<path fill="#3C3C3C" d="M76.7,18.1L76.7,18.1C76.7,18,76.7,18,76.7,18.1z"/>
							<path fill="#3C3C3C" d="M76.7,18L76.7,18C76.7,18,76.7,18,76.7,18z"/>
							<path fill="#3C3C3C" d="M76.2,18.6L76.2,18.6C76.3,18.6,76.2,18.6,76.2,18.6z"/>
							<path fill="#3C3C3C" d="M76.1,18.7c0,0,0.2,0,0.2-0.1l0,0C76.3,18.7,76,18.6,76.1,18.7z"/>
							<path fill="#3C3C3C" d="M74.9,19.2l0.1-0.2c-0.1,0-0.2,0-0.2-0.1C74.6,19.1,75.1,19,74.9,19.2z"/>
							<path fill="#3C3C3C" d="M74.6,19.8c0-0.1-0.1,0-0.1,0C74.5,19.8,74.6,19.8,74.6,19.8z"/>
							<path fill="#3C3C3C" d="M75,24.3l-0.2,0.1C74.9,24.4,74.9,24.3,75,24.3z"/>
							<polygon fill="#3C3C3C" points="76.2,24.7 76.2,24.6 76.1,24.6 							"/>
							<polygon fill="#3C3C3C" points="75.2,25.7 75.2,25.7 75.3,25.8 							"/>
							<path fill="#3C3C3C" d="M81.1,30.6l0-0.2C81.1,30.4,81,30.7,81.1,30.6z"/>
							<path fill="#3C3C3C" d="M84.5,30.4c0.1,0.1,0.2,0.1,0.2,0C84.7,30.5,84.6,30.4,84.5,30.4z"/>
							<polygon fill="#3C3C3C" points="87.7,21.7 87.7,21.7 87.6,21.6 							"/>
						</g>
					</g>
				</g>
			</g>
		</g>
	</g>
	<g>
		<g>
			<g>
				<g>
					<g>
						<g>
							<path fill="#3C3C3C" d="M46.9,74.9c-0.1-0.1-0.2,0-0.1,0.2l0.3,0.1L46.9,74.9z"/>
							<path fill="#3C3C3C" d="M47.1,76.5c0.2,0.2,0.6,0.4,0.7,0.1c-0.3-0.1-0.3-0.2-0.7-0.4c-0.1-0.2-0.1-0.4,0-0.4
								c-0.1-0.1-0.1-0.4-0.3-0.4c-0.1,0.4,0.1,0.7,0.4,1C47.2,76.5,47.2,76.5,47.1,76.5z"/>
							<path fill="#3C3C3C" d="M69.4,76.7l-0.2,0C69.3,76.7,69.3,76.7,69.4,76.7z"/>
							<path fill="#3C3C3C" d="M83.9,72.9c-0.1,0-0.1,0.1-0.1,0.1C83.9,73,83.9,72.9,83.9,72.9z"/>
							<path fill="#3C3C3C" d="M86.4,72.5c-0.1,0-0.1,0-0.1,0C86.4,72.5,86.4,72.5,86.4,72.5z"/>
							<path fill="#3C3C3C" d="M69.4,76.7l0.4,0C69.8,76.6,69.6,76.7,69.4,76.7z"/>
							<path fill="#3C3C3C" d="M49.6,78.5c-0.1,0-0.1-0.1-0.2-0.1L49.6,78.5L49.6,78.5z"/>
							<path fill="#3C3C3C" d="M63.1,78.6l-0.1,0c0,0-0.1,0.1-0.1,0.1L63.1,78.6z"/>
							<path fill="#3C3C3C" d="M58.2,80c0.1,0,0.1-0.2,0.1-0.3c0,0.1-0.1,0.2-0.2,0.2C58.1,79.9,58.1,79.9,58.2,80z"/>
							<path fill="#3C3C3C" d="M50.1,79.8l-0.1,0C50,79.7,50.1,79.8,50.1,79.8z"/>
							<path fill="#3C3C3C" d="M66.6,77.7C66.6,77.7,66.6,77.8,66.6,77.7C66.6,77.7,66.6,77.7,66.6,77.7z"/>
							<path fill="#3C3C3C" d="M46.3,69.3C46.3,69.3,46.3,69.3,46.3,69.3C46.3,69.4,46.3,69.4,46.3,69.3z"/>
							<path fill="#3C3C3C" d="M46.4,75L46.4,75c-0.1-0.1-0.1-0.1-0.1-0.1L46.4,75z"/>
							<path fill="#3C3C3C" d="M91,71.5C91,71.5,91,71.5,91,71.5C90.9,71.6,91,71.6,91,71.5z"/>
							<path fill="#3C3C3C" d="M113.8,47.5c0.4,0.4-0.9-0.2-0.3,0.3C113.5,47.7,114.3,47.9,113.8,47.5z"/>
							<path fill="#3C3C3C" d="M49.7,78.6l0.2,0.1C49.8,78.7,49.7,78.6,49.7,78.6z"/>
							<path fill="#3C3C3C" d="M113.6,47.8L113.6,47.8L113.6,47.8C113.6,47.9,113.6,47.9,113.6,47.8z"/>
							<path fill="#3C3C3C" d="M101.4,68.6c0,0-0.1,0-0.1-0.1C101.3,68.6,101.3,68.6,101.4,68.6z"/>
							<path fill="#3C3C3C" d="M93.6,70.4l0.2,0C93.7,70.4,93.6,70.4,93.6,70.4z"/>
							<path fill="#3C3C3C" d="M105.4,67.2c0.1,0,0.2,0,0.3-0.1c0,0,0,0,0,0C105.6,67.2,105.5,67.2,105.4,67.2z"/>
							<path fill="#3C3C3C" d="M109.6,66.1C109.6,66.1,109.5,66.1,109.6,66.1c-0.1,0-0.2,0-0.2,0L109.6,66.1z"/>
							<path fill="#3C3C3C" d="M55.3,62.6c-0.1,0-0.2-0.1-0.2-0.1C55.1,62.6,54.5,62.8,55.3,62.6z"/>
							<path fill="#3C3C3C" d="M49.5,78.6c0,0,0.1,0,0.1,0C49.6,78.6,49.6,78.6,49.5,78.6C49.5,78.6,49.5,78.6,49.5,78.6z"/>
							<path fill="#3C3C3C" d="M105.1,65.7l0.7-0.2C105.6,65.6,105.4,65.6,105.1,65.7z"/>
							<path fill="#3C3C3C" d="M85.4,54.4l-0.1,0.1C85.3,54.5,85.3,54.4,85.4,54.4z"/>
							<path fill="#3C3C3C" d="M107.8,65c0.1,0,0.3,0,0.4,0c0,0,0.1,0,0.1-0.1L107.8,65z"/>
							<path fill="#3C3C3C" d="M55,62.5L55,62.5L55,62.5z"/>
							<path fill="#3C3C3C" d="M50.8,64.1c0.5-0.2,0.2-0.3,0.3-0.5c0.7-0.3,0.4,0.1,0.7,0.1c0.5-0.2,0.8-0.5,1.1-0.6
								c0,0,0.1,0,0,0.1c0.4-0.3,1.5-0.4,2-0.8c0,0,0.1,0,0.1,0c-0.1-0.1-0.2-0.2-0.2-0.3c0.3-0.1,0.5-0.3,0.6-0.2
								c-0.2,0-0.2,0.1-0.2,0.2l0.3-0.2c0.3,0.2-0.4,0.2-0.3,0.4c0.6-0.2,1.2-0.6,1.7-0.7c0.2,0.2-1,0.4-0.4,0.4l-0.7,0.1
								c0.6,0.2-0.4,0.1,0.2,0.3c0.9-0.2,1-0.4,1.9-0.6c0.2-0.2-0.1-0.2,0.1-0.4c1.2-0.6,1.2,0.3,2-0.3c0.2-0.2,0.2-0.5,0.9-0.6
								l-0.2,0.3c0.9-0.2,0.4-0.5,1.4-0.6c-0.1,0.1-0.7,0.3-0.5,0.3c0.7,0,0.4-0.3,0.8-0.4l0.2,0.2c0.9-0.3,1.9-0.7,2.9-1.1
								c0,0.1-0.2,0.2,0.1,0.2c1.3-0.5,2.8-0.7,4.1-0.9l0.4-0.3c0.1,0,0.2,0,0.1,0.1c0.5-0.1,0-0.1,0.2-0.3c0.3-0.1,0.4,0,0.2,0.1
								c0.8-0.4,2.4-1,3.3-1.1l-0.2,0.1c0.7-0.1,0.7-0.6,1.4-0.6L75.1,57c1.6-0.3,3.2-1,4.5-1c0.1-0.3,1.6-0.3,1.6-0.7
								c0.9,0,0.7,0.1,2-0.1c0.3-0.1,0.4-0.4,0.8-0.5l0.1,0.2l0.5-0.4l0.4,0.2l0.4-0.2c-0.2,0-0.4,0-0.3-0.1
								c0.6-0.3,1.5-0.3,1.5-0.1l1.4-0.6c0,0.1-0.2,0.2-0.4,0.3c0.7-0.4,0.2,0.2,0.8-0.2c-0.1,0,0-0.1,0-0.2c0.4,0,1.2-0.2,1.7-0.4
								l-0.1,0.2c1.1-0.2,2.2-0.7,3.4-1c-0.4,0-0.4-0.2-0.1-0.3l0.2,0.2c0.2-0.2-0.4,0,0-0.3c0.4-0.1,0.4,0.2,0.1,0.3l0.5-0.2
								c0,0.1-0.1,0.1-0.1,0.2c0.2-0.2,1,0,1.2-0.4l0,0.1c1.2-0.3,1.7-0.5,2.7-0.8c0-0.2,0.4-0.3,0.6-0.5c0.7-0.1,1.6-0.2,2.4-0.4
								c0.6-0.3,0.1-0.2,0.4-0.4c0.1,0.2,0.9-0.1,0.5,0.2c1-0.3,1.3-0.4,2.6-0.9c-0.2,0-0.3,0-0.3-0.1c0.2-0.1,0.6-0.1,0.5,0l-0.1,0
								c0.7-0.3,1.6-0.4,2.4-0.5c0.4,0,0.8-0.1,1.2-0.2c0.3-0.1,0.6-0.1,0.9-0.3l-0.1,0c0,0,1.1-0.3,1.1-0.2
								c0.5,0.1-0.3,0.1,0.1,0.3c1.2-0.2,1.8,0.4,2.8,0.6c0.2,0.4,0.8,0.7,1.3,1.2c0.5,0.5,1,1,1.1,1.6l0.1-0.1
								c0.2,0.2,0.1,0.3,0.1,0.5c0.1-0.1,0-0.3,0.1-0.2c0.5,0.9,0.7,2.3,1,3.6c0.1,0.7,0.2,1.2,0.2,1.8c0,0.6-0.1,1.1-0.2,1.7
								c-0.1,0.4,0,0.5,0.1,0.7c0.1,0.2,0.1,0.4-0.2,0.8l-0.1-0.4c-0.2,0.8-0.7,1.6-1.3,2.2c-0.6,0.6-1.3,1.1-2,1.5
								c0.1-0.1,0-0.2,0.2-0.2c-0.4,0-1.2,0.4-1.2,0.6c-0.3,0.1-0.1-0.1-0.3-0.1c-0.4,0-0.9,0.5-1.2,0.4c0,0,0.1-0.1,0.2-0.1
								c-0.2,0.1-1.2,0.3-0.9,0.4c-0.7,0.1-1.3,0.4-1.8,0.5c-0.3,0.3-1.2,0.2-1.2,0.5c0-0.3-1.3,0.1-1.6,0.3c0.1-0.1-0.4,0-0.3-0.2
								c-0.5,0.1-0.9,0.3-0.8,0.4c-1-0.1-1.7,0.8-2.4,0.5c-1.4,0.6-2.7,1-4,1.5c0-0.3,1.4-0.4,1.3-0.7c-1.2,0.5-1.9,0.9-3.1,1.2
								c-0.3,0,0.1-0.2,0.2-0.3c-1.2,0.5-2.4,0.6-3.5,1.1c0,0,0.1-0.1,0.2-0.1c-0.2,0.1-0.5,0.1-0.5,0.2l0.2-0.1
								c0.4,0.1-0.7,0.7-0.8,0.8c0.3-0.5-1.1,0.2-0.7-0.5c-0.1,0.1-0.3,0.2-0.2,0.3c-0.2,0-0.3,0-0.1-0.2c-0.8,0.3-0.4,0.4-1.1,0.5
								c0-0.1,0.1-0.1,0.2-0.2c-0.3,0.2-0.6,0.5-1.3,0.6c0-0.1-0.1-0.1,0.1-0.1c-1,0.3-1.7,0.8-2.8,1c0.3-0.4-0.4,0-0.5-0.2L85,71.5
								l0.3,0.1c-0.5,0.1-0.9,0.4-1.4,0.5l0.4-0.2l-1,0.3l0.6-0.1c-0.5,0.3,0.1,0.3-0.6,0.4c0.1-0.1-0.5,0.1-0.8,0.1l0,0
								c-0.2,0.2-0.5,0.3-0.9,0.4c-0.1-0.1,0-0.3-0.1-0.3c-0.2,0.3-1.2,0.4-1.5,0.7c0.1-0.1,0.1-0.2,0-0.2l-0.2,0.2
								c-0.3,0-0.3,0-0.3-0.1c-0.7,0.2,0.3,0.3-0.6,0.4c0.1,0,0,0,0.2-0.1c-0.9,0.2-1.7,0.6-2.5,0.7c-0.3-0.2,0.7-0.3,0.4-0.4
								c-1.2,0.4-2.3,1-3.5,1.2l0.2,0c-0.1,0.4-0.9,0-1.4,0.4c0.1-0.1,0.1-0.2,0.1-0.2c-0.8,0.2-1.6,0.5-2.7,0.9l0.1-0.1
								c-0.5,0-1.2,0.3-1.7,0.4c-0.1,0.1-0.4,0.2-0.2,0.3c-1.7-0.1-2.8,1.1-4.3,1c0.2,0,0.4-0.2,0.2-0.2l-1.1,0.4
								c0.1,0.1,0.2,0.1,0.4,0.1c-0.1,0.1-0.4,0.3-0.7,0.4c0.5-0.2-0.1-0.2-0.3-0.3c0.1,0,0,0.1,0,0.2c-0.7-0.1,0,0.3-0.9,0.4l0-0.1
								c-0.3,0.1-0.5,0.3-0.9,0.4c-0.2-0.1,0.3-0.2,0.3-0.3c-0.5,0.1-0.8,0.6-1.3,0.5c0.2-0.1,0.5-0.2,0.6-0.3c-0.5-0.1-0.6,0-0.9,0
								l0,0l-0.8,0.1l0.2,0c-0.5,0.6-1.2,0.4-1.9,0.9c0.7-0.5,0.1-0.2,0.1-0.4c-0.2,0-0.5,0-0.5-0.1c-0.3,0.3-0.7,0-1.1,0.4
								c0-0.1-0.4,0.1-0.3-0.1c-0.4,0.1,0.1,0.1,0.1,0.2c-0.7,0.4-1.7,0-2.7,0.1c-0.9,0-1.1,0.1-2-0.1c-0.2-0.2,0.3-0.1,0.3-0.1
								c-0.4-0.3-0.7-0.4-1.1-0.6c0.1,0,0.1-0.1,0-0.2c-0.3-0.2-0.3,0.1-0.6-0.3c0.1,0,0.3,0,0.4,0c-0.4-0.2-0.7-0.4-1.1-0.6
								c0-0.2,0.3,0.1,0.5,0.1c-0.4-0.3-0.9-0.8-1.1-0.8l0.1,0.3c-0.1-0.1,0.1-0.2,0.2-0.1c0.4,0.2,0.3,0.5,0.3,0.6l-0.2-0.2
								c-0.1,0.5,0.9,0.9,1.4,1.2l-0.4,0.1c0,0,0.2,0.1,0.3,0.1c0.2,0,0.3,0.1,0.3,0.1c0.1,0.1,0.1,0.3-0.2,0.2
								c0.3,0.4,0.4,0.1,0.7,0.5c0,0,0,0,0,0c0,0,0.4,0.1,0.4,0.1c-0.1,0,0,0.2-0.3,0.1c0.7,0.5,1.3,0.2,1.6,0.5l-0.1,0
								c1.1,0.1,0.2-0.2,1-0.3c0,0,0.1,0.1,0.3,0.3c0.1,0.1,0.3,0.3,0.3,0.3l0.1-0.2c0.1,0,0.3,0,0.3,0.1c0.4-0.2-0.1-0.1,0.2-0.2
								c0.6,0.2,1.5-0.3,1.7,0c0.1-0.2-0.5,0,0-0.2c0.3,0.3,0.6-0.2,1.2-0.2c-0.1,0.2-0.6,0.3-0.1,0.3c0.2-0.4,1-0.2,1.4-0.4
								c0-0.3,0.9-0.3,1.5-0.6c0,0.1,1.3-0.2,2-0.3l0,0c0.1-0.3,0.7-0.4,1.2-0.6c0,0.2,0,0.2-0.3,0.4l0.5-0.1
								c0.1-0.1,0.2-0.2,0.5-0.3l-0.1,0.2c0.6-0.2,1.1-0.5,2-0.6c0-0.2-0.7-0.3,0-0.7c0.1,0.1,0.1,0.2-0.1,0.3
								c0.1,0,0.2-0.1,0.4-0.1l-0.3,0.2c0.4,0,0.1-0.2,0.4-0.2c0,0.1,0.2,0,0.2,0.2c-0.1,0-0.3,0-0.4,0.1c0.3-0.1,0.7-0.1,0.9,0
								c0-0.1,0-0.2,0.2-0.3c0.6-0.2,0.2,0.1,0.6,0.1c0.1-0.1,0.5-0.1,0.5-0.3c0.2,0,0.2,0,0.3,0.1c0.3-0.2,1.4-0.4,1-0.5l-0.1,0
								c0,0,0,0,0,0l0,0l0,0c1-0.5,2.1-0.5,3.1-0.8l0,0.1c0.6-0.2,1.3-0.4,1.7-0.7c0.2,0,0.5,0,0.4,0.1c0.4-0.2,0.5-0.3,1.2-0.3
								c-0.4,0.2,0.2,0.1-0.5,0.2c0.6-0.1,0.8,0,1.4-0.4c-0.2,0.2,0.5,0.1,0.8,0l-0.5,0c0.3-0.1,0.6-0.2,0.9-0.2l-0.1,0.3
								c1.3-0.1,2.1-1.1,3.1-0.9c0.3-0.2-0.7,0.1-0.5-0.2c0.6-0.1,1.2,0,1.4,0c0.8-0.1,0.6-0.5,1.5-0.7c-0.1-0.1-0.3-0.2,0.3-0.5
								c0.6-0.1,0.8,0.1,0.4,0.3c-0.1,0-0.2,0-0.2,0c-0.2,0.1-0.4,0.2-0.2,0.2l0.1-0.1c0.3,0,1.1-0.2,0.9,0c0.4-0.2,0.1-0.2-0.2-0.1
								c0.8-0.1,1.1-0.3,1.9-0.4c-0.1,0-0.3-0.1-0.1-0.1c1.1-0.2,0.4-0.3,1.2-0.5c0.5,0-0.1,0.3,0.6,0c0.5,0,0.2,0.2,0,0.3
								c0.6-0.3,1.3-0.2,1.7-0.3l-0.3,0.2c0.2-0.1,0.4-0.1,0.6-0.2l-0.2-0.1c0.2,0,0.4-0.1,0.4,0c0.2-0.2-0.2-0.2,0.2-0.5
								c0.3,0,0.8-0.3,1-0.1c-0.9,0.2,0.2,0.2-0.6,0.4c0.1-0.1,0.3-0.1,0.5-0.1c0,0,0,0.1-0.1,0.1c0.9,0,0.3-0.3,1.2-0.6
								c-0.1,0.2,0.3,0.2,0.4,0.1c-0.4,0.1-0.2-0.2,0.1-0.3c0.6-0.1,0.6-0.2,0.9-0.3l-0.3,0c0.1-0.2,0.4-0.2,0.7-0.4
								c0.1,0.1-0.3,0.2-0.2,0.2c0.4-0.3,1,0,1.6-0.4c0.3,0,0.1,0.2,0.3,0.2c0.6-0.3,0.8,0,1.5-0.4c-0.2-0.1-0.3-0.1,0.2-0.3
								l-1.1,0.4l0.7-0.4c-0.4,0.1-0.7,0.3-0.9,0.3c0.3-0.2,0.3-0.2,0.1-0.3c0.5,0.1,0.9-0.4,1.5-0.4l0.1,0.4c0.9,0,1.4-0.6,2.6-0.8
								l-0.4,0c0.1-0.2,0.7-0.2,1-0.4c0,0.1,0.2,0.1,0.4,0.2c0-0.1,0.8-0.2,0.8-0.5l0.5,0c0.9-0.2,0.9-0.7,1.8-0.8
								c-0.2,0.2,0.2,0.2-0.3,0.5c0.3-0.1,0.5-0.1,0.5-0.2c0.2,0,0.7-0.4,1-0.3c0.1-0.1,0.1-0.2,0.4-0.3c0,0,0,0.1,0,0.1
								c0-0.1,0.5-0.2,0.2-0.3c1,0.2,2.4-0.7,3.3-0.5c0.6-0.2,1.3-0.5,1.9-0.6c0,0,0,0.1-0.1,0.1c0.8-0.1,0.4-0.5,1.3-0.6
								c0.5,0.1-0.4,0.3-0.1,0.2c0.2,0.4,1.1-0.4,1.8-0.4l-0.1,0.1c0.5-0.1,1-0.7,1.6-1.2c0,0,0,0.1,0,0.1c0.3-0.5,0.9-1.3,1.3-2
								c0,0.3-0.1,0.3,0.1,0.3c0.2-0.3-0.3-0.1,0-0.7c0.2-0.1,0.5-0.5,0.7-0.5c0,0-0.3,0.6-0.3,0.6c0.4-0.2,0.4-0.8,0.5-1.1l0.1,0.1
								c0.3-1,0-1.1,0.2-2.1l-0.1,0.1c-0.2-0.6,0.2-0.5,0-1.1l0.3-0.2c-0.1-0.4-0.5-1.3-0.7-1.9c0.3,0.3,0.6,1,0.8,1.6
								c0-0.4-0.3-1.3-0.5-1.4c0.1,0.1,0.2,0.3,0.2,0.5c-0.3-0.4-0.6-0.9-0.8-1.6c0.5,0-0.3-1.8-0.2-2.6c-0.7-1.2-1.3-2.5-2.7-3.5
								c0.2,0.7-0.4-0.3-0.6,0.2c-0.3-0.2-0.4-0.3-0.5-0.3c0,0-0.2-0.2-0.4-0.4c-0.2-0.2-0.5-0.3-0.5-0.3c-0.2-0.2,0.4,0,0.4-0.1
								c-0.8-0.3-0.3-0.3-0.8-0.6c0.1,0.2-0.3,0.1-0.8,0c0,0,0.2,0.1,0.3,0.2c0.2,0.1,0.3,0.2,0.3,0.2c-1.2-0.1-0.9-0.6-2.2-0.5
								c0,0,0.4-0.1,0.4-0.1c-0.3,0-0.9,0-1.5,0.1c-0.6,0.1-1.1,0.3-1.3,0.5c-0.1,0-0.3-0.1,0-0.2c-1.3,0.3-2.7,1.1-3.8,1.2l0.1-0.1
								c-0.2,0.1-0.4,0.3-0.7,0.3c0,0,0.1-0.1,0-0.1c-0.1,0.1-0.6,0.3-0.9,0.4l0.2-0.2c-1.3,0.2-1.8,0.8-2.9,1.1
								c-0.1-0.3-1.1-0.1-1.6,0l0,0c-1.5,0.4-2.4,0.9-3.7,1.4c-0.9-0.1-2.9,0.6-4.2,0.8c0.2,0,0,0.2-0.2,0.3c-0.3,0-0.8,0.4-0.8,0.2
								l0.1,0c-0.3-0.2-0.9,0-1.4,0.2l0,0.4c-1.5-0.2-3.4,1.1-4.2,0.9c-0.3,0.2-0.7,0.3-1,0.5l0-0.2c-0.9,0.2-1.3,0.3-2.4,0.6
								l0.2-0.2c-0.6,0.2-0.6,0.8-1.2,0.9l-0.2-0.2c-1.1,0.3-2.2,0.3-3.2,0.9c0,0,0-0.1,0.2-0.2c-0.5,0.1-2,0.3-1.7,0.7
								c-0.1-0.3-1.1,0.3-1.7,0.5l0-0.2c-0.4,0.4-0.4,0.4-1.1,0.7c-0.2,0-0.2-0.1,0-0.1c-0.6,0-0.4,0.3-1.1,0.4l0.2-0.2
								c-0.6,0.1-0.5,0.2-0.8,0.4c-0.3,0.2-1.1,0.2-1.2,0.1c0,0.1-0.3,0.3-0.7,0.4c-0.1-0.1,0-0.1,0.1-0.2c-1,0.1-1.3,0.6-2,0.6
								c0-0.1-0.1-0.1-0.1-0.1c0.7-0.2,1.3-0.3,1.3-0.3c0-0.2-0.7,0-0.2-0.4c-0.4,0.3-1.2,0.8-1.8,0.8c0,0-0.1,0-0.1,0l0.1,0
								c-0.1,0-0.3,0.1-0.4,0.1c-0.2,0-0.3,0-0.5,0.1c-0.1-0.1-0.7,0.1-1,0.2c0.1,0.2-0.3,0.3,0.1,0.3c-0.1,0,0,0,0.2-0.1
								c0,0,0.1,0,0.1-0.1l0,0c0.2-0.1,0.4-0.1,0.7-0.2C64,58.8,63.8,59,63.4,59c-0.1,0.2-0.3,0.3-0.3,0.4c-0.5-0.2-1.3-0.1-1.5-0.2
								c-0.9,0.4-2.1,0.6-2.6,1.2c-0.2,0.1-0.3,0-0.4-0.1c0.1-0.1,0.3-0.1,0.4-0.2c-0.5,0.2-1.5,0.4-1.6,0.7c-0.7,0.1,0.3-0.3-0.6,0
								l0.1-0.1c-1.9,0.1-2.7,1.4-4.8,1.4c0.1,0,0.2,0,0.3,0c-0.6,0.1-1.1,0.2-1.7,0.4c-0.6,0.2-1.2,0.4-1.7,0.7
								c-1.1,0.6-2,1.5-2.8,2.4c-0.4,0.5-0.3,0.7-0.4,1.1l-0.3,0c0,0,0,0.2,0,0.4c0,0.2,0,0.4,0,0.4c-0.1,0.5-0.3,0.9-0.5,1.3
								c-0.2,0.4-0.3,1-0.1,1.6l0.1-0.2c0,0.5,0.2,1.4,0.1,1.4c0,0,0.2,0.1,0.1,0.3l-0.1,0c0,0,0.1,0.3,0.2,0.5
								c0.1,0.2,0.2,0.5,0.2,0.5c0.1,0.8-0.5,0-0.2,1.2c0.2,0.4,0.6,1.1,0.7,1c0-0.2-0.1-0.5,0-0.5l0.2,0.4c0.3,0,0.7,0.2,0.7-0.8
								l-0.4-0.6l0.1-0.3l0.2,0.6c0.1-0.4-0.1-0.5-0.3-0.7c0.1-0.1,0.1-0.2,0.1-0.3l-0.5-0.6c0.1-0.1,0.3,0.2,0.3-0.2
								c-0.2-0.3-0.2,0.4-0.4-0.1c0.1-0.3,0.2-0.3,0-0.6c0.1-0.1,0.1,0,0.2,0.1c-0.2-0.3-0.2-0.8-0.3-1c0.1-0.2,0.1-0.4,0.1-0.7
								c0-0.2,0.1-0.4,0.2-0.4c-0.1-0.1-0.2-0.6-0.1-0.9c0.2,0.6,0.3-1,0.7-0.8c-0.2-0.5,0.4-1.3,0.8-1.9c0,0,0,0.1-0.1,0.2
								c0.3-0.3,0.4-0.3,0.6-0.4c-0.2-0.2,0.2-0.7,0.4-1c0.6-0.1,0,0.4,0.2,0.5c-0.2-0.2,0.5-0.7,0.3-0.7c0.4,0,0.3-0.1,0.6,0
								c-0.1-0.3,0.3-0.2,0.5-0.5c0.6,0,0.2,0.3,0.7,0C51.2,63.8,50.8,64.1,50.8,64.1z M65.4,59.5L65.4,59.5c-0.1,0-0.2,0.1-0.3,0.1
								C65.2,59.6,65.3,59.6,65.4,59.5z M66.7,59.2c-0.2,0-0.3,0.1-0.5,0.1c-0.1-0.1,0-0.1,0.1-0.2C66.2,59.2,66.5,59.2,66.7,59.2z
								 M63.7,58.6c0.2-0.1,0.3-0.1,0.3,0C63.9,58.6,63.8,58.6,63.7,58.6l-0.1,0.1C63.6,58.6,63.7,58.6,63.7,58.6z"/>
							<path fill="#3C3C3C" d="M63.4,58.9C63.4,58.9,63.4,58.9,63.4,58.9C63.4,58.9,63.4,59,63.4,58.9l0.1,0
								C63.5,58.9,63.4,58.9,63.4,58.9z"/>
							<path fill="#3C3C3C" d="M69.2,76.7L69.2,76.7C69.2,76.7,69.2,76.7,69.2,76.7C69.2,76.7,69.2,76.7,69.2,76.7z"/>
							<polygon fill="#3C3C3C" points="84,54.9 84,54.8 83.9,54.9 							"/>
							<path fill="#3C3C3C" d="M62.2,77.9c0,0,0,0-0.1,0C62.1,77.9,62.1,77.9,62.2,77.9z"/>
							<path fill="#3C3C3C" d="M59.2,78.7l-0.4,0C58.9,78.7,59.1,78.7,59.2,78.7z"/>
							<path fill="#3C3C3C" d="M56.9,79.2C56.9,79.3,56.9,79.3,56.9,79.2L56.9,79.2L56.9,79.2z"/>
							<path fill="#3C3C3C" d="M93.1,69.2C93.1,69.2,93.1,69.2,93.1,69.2C93.4,69.1,93.2,69.1,93.1,69.2z"/>
							<path fill="#3C3C3C" d="M82.4,72.6c0.1-0.1,0.2-0.1,0.3-0.2C82.5,72.4,82.4,72.4,82.4,72.6z"/>
							<polygon fill="#3C3C3C" points="105.1,65.7 105.1,65.7 105.1,65.7 							"/>
							<path fill="#3C3C3C" d="M83.2,72.2c-0.2,0-0.4,0.1-0.5,0.1C82.9,72.3,83.1,72.3,83.2,72.2z"/>
							<path fill="#3C3C3C" d="M48.2,77.2L48.2,77.2C48.2,77.1,48.1,77.1,48.2,77.2L48.2,77.2z"/>
							<path fill="#3C3C3C" d="M48.1,77.1L48.1,77.1C48.1,77.1,48.1,77.1,48.1,77.1z"/>
							<path fill="#3C3C3C" d="M47.9,76.8l0.2,0.2C48,76.9,47.9,76.9,47.9,76.8z"/>
							<path fill="#3C3C3C" d="M50.4,79.1L50.4,79.1C50.4,79,50.4,79,50.4,79.1z"/>
							<path fill="#3C3C3C" d="M51.2,79.4c-0.2-0.1-0.4-0.3-0.7-0.4l-0.1,0C50.6,79,50.9,79.5,51.2,79.4z"/>
							<path fill="#3C3C3C" d="M55,80.6c0,0-0.8,0.1-0.8,0.1c0.1,0.1,0.4,0.1,0,0.2C55.2,81,53.9,80.7,55,80.6z"/>
							<path fill="#3C3C3C" d="M57.4,80.1c-0.4,0.1,0,0.1,0,0.2C57.7,80.1,57.7,80.1,57.4,80.1z"/>
							<path fill="#3C3C3C" d="M74.6,75.4l0,0.2C74.9,75.5,74.6,75.5,74.6,75.4z"/>
							<polygon fill="#3C3C3C" points="77.7,73.6 77.3,73.6 77.2,73.8 							"/>
							<polygon fill="#3C3C3C" points="80,74.4 79.8,74.4 80.3,74.2 							"/>
							<path fill="#3C3C3C" d="M108.9,66.5l-0.2-0.2C108.5,66.4,108.5,66.6,108.9,66.5z"/>
							<path fill="#3C3C3C" d="M118.4,58.3c0.1-0.1,0.2-0.5,0.1-0.8C118.5,57.8,118.4,58.2,118.4,58.3z"/>
							<polygon fill="#3C3C3C" points="86.8,52.3 87.1,52.1 86.6,52.3 							"/>
						</g>
					</g>
				</g>
			</g>
		</g>
		<g>
			<g>
				<g>
					<g>
						<g>
							<path fill="#3C3C3C" d="M109.5,48.8c0-0.1,0-0.2-0.1-0.1L109.5,48.8L109.5,48.8z"/>
							<path fill="#3C3C3C" d="M109,48.5c0,0.1,0,0.3,0.1,0.5c0-0.2,0-0.1,0-0.4c0,0,0.1,0,0.1,0.1c0-0.1,0.1,0,0.1-0.1
								c-0.1-0.1-0.2-0.1-0.3,0.1C109.1,48.6,109.1,48.5,109,48.5z"/>
							<path fill="#3C3C3C" d="M105.5,53L105.5,53C105.5,52.9,105.5,52.9,105.5,53z"/>
							<path fill="#3C3C3C" d="M105.5,56.7C105.4,56.7,105.4,56.7,105.5,56.7C105.4,56.7,105.4,56.7,105.5,56.7z"/>
							<path fill="#3C3C3C" d="M105.4,57.4C105.4,57.4,105.4,57.4,105.4,57.4C105.4,57.4,105.3,57.4,105.4,57.4z"/>
							<path fill="#3C3C3C" d="M105.5,53L105.5,53C105.4,53.1,105.4,53,105.5,53z"/>
							<path fill="#3C3C3C" d="M108.6,49.3C108.6,49.3,108.6,49.3,108.6,49.3C108.6,49.3,108.6,49.3,108.6,49.3L108.6,49.3z"/>
							<path fill="#3C3C3C" d="M105.7,51.3L105.7,51.3C105.7,51.2,105.7,51.2,105.7,51.3L105.7,51.3z"/>
							<path fill="#3C3C3C" d="M106.3,50.1c0,0,0.1,0.1,0.2,0.2c-0.1-0.1-0.1-0.1-0.1-0.1C106.4,50.1,106.3,50.1,106.3,50.1z"/>
							<path fill="#3C3C3C" d="M108,48.8L108,48.8C108,48.8,108,48.8,108,48.8z"/>
							<path fill="#3C3C3C" d="M105.4,52.2C105.4,52.2,105.3,52.2,105.4,52.2C105.3,52.2,105.4,52.2,105.4,52.2z"/>
							<path fill="#3C3C3C" d="M110.8,49.1C110.8,49.1,110.8,49.1,110.8,49.1C110.8,49.1,110.7,49.1,110.8,49.1z"/>
							<polygon fill="#3C3C3C" points="109.4,48.3 109.4,48.3 109.4,48.2 							"/>
							<path fill="#3C3C3C" d="M105.5,58.6L105.5,58.6C105.5,58.6,105.5,58.6,105.5,58.6z"/>
							<path fill="#3C3C3C" d="M115,62.9c-0.2-0.1,0.1-0.3-0.2-0.4C114.9,62.6,114.8,62.9,115,62.9z"/>
							<path fill="#3C3C3C" d="M108.6,49.3C108.6,49.3,108.6,49.3,108.6,49.3C108.6,49.3,108.6,49.3,108.6,49.3z"/>
							<path fill="#3C3C3C" d="M114.8,62.6L114.8,62.6L114.8,62.6C114.8,62.6,114.8,62.6,114.8,62.6z"/>
							<path fill="#3C3C3C" d="M107.1,61.1C107.1,61,107.1,61,107.1,61.1C107.1,61,107.1,61,107.1,61.1z"/>
							<path fill="#3C3C3C" d="M106.2,59.1L106.2,59.1C106.2,59.2,106.2,59.2,106.2,59.1z"/>
							<path fill="#3C3C3C" d="M108,61.7C108,61.7,108,61.7,108,61.7C108.1,61.7,108.1,61.7,108,61.7C108.1,61.7,108,61.7,108,61.7z
								"/>
							<path fill="#3C3C3C" d="M108.9,62.4C108.9,62.4,108.9,62.4,108.9,62.4L108.9,62.4L108.9,62.4z"/>
							<path fill="#3C3C3C" d="M113.2,50.1c0-0.1,0-0.1,0.1-0.2C113.2,50,113.1,50,113.2,50.1z"/>
							<path fill="#3C3C3C" d="M108.6,49.2C108.6,49.3,108.6,49.3,108.6,49.2L108.6,49.2C108.6,49.3,108.6,49.2,108.6,49.2z"/>
							<path fill="#3C3C3C" d="M109.1,60.6l0.1,0.1C109.2,60.7,109.2,60.6,109.1,60.6z"/>
							<path fill="#3C3C3C" d="M116.3,56L116.3,56C116.2,56,116.2,56,116.3,56z"/>
							<path fill="#3C3C3C" d="M109.6,61c0,0.1,0,0.1,0,0.2c0,0,0,0,0,0L109.6,61z"/>
							<path fill="#3C3C3C" d="M113.3,49.9L113.3,49.9L113.3,49.9z"/>
							<path fill="#3C3C3C" d="M112.3,49.8c0.1,0.1,0.2-0.2,0.3-0.3c0.2,0,0,0.2,0,0.3c0.1,0,0.3-0.2,0.4-0.1c0,0,0,0.1-0.1,0.1
								c0.2-0.1,0.3,0.2,0.5,0c0,0,0,0,0,0.1c0.1-0.1,0.1-0.2,0.2-0.3c0.1,0,0.2-0.1,0.1,0.1c0,0-0.1,0-0.1,0.1l0.1,0
								c-0.1,0.2-0.1,0-0.2,0.2c0.2,0,0.4,0,0.4,0.1c-0.1,0.2-0.2-0.1-0.3,0.2l-0.1-0.2c-0.1,0.4-0.1-0.1-0.2,0.3
								c0.1,0.2,0.2,0.1,0.4,0.2c0.1-0.1,0.1-0.2,0.2-0.2c0.4,0-0.3,0.6,0.1,0.5c0.2-0.1,0.4-0.3,0.4,0l-0.2,0.1
								c0.1,0.2,0.4-0.2,0.4,0.1c-0.1,0-0.2-0.1-0.2,0c-0.1,0.2,0.2,0,0.2,0.1l-0.2,0.2c0.2,0.1,0.4,0.2,0.6,0.4
								c-0.1,0-0.2,0-0.2,0.1c0.3,0.2,0.3,0.6,0.3,0.9l0.2,0c0,0-0.1,0.1-0.1,0.1c0,0.1,0.1-0.1,0.2,0c0,0.1-0.1,0.1-0.1,0.1
								c0.3,0.1,0.6,0.4,0.5,0.7l-0.1,0c0,0.2,0.5,0,0.3,0.2l0,0c0,0.4,0.3,0.7,0.1,1.1c0.3,0,0,0.4,0.4,0.3
								c-0.2,0.2-0.3,0.2-0.3,0.5c0,0.1,0.3,0.1,0.3,0.2l-0.2,0l0.2,0.1l-0.3,0.1l0.1,0.1c0,0,0.1-0.1,0.2-0.1
								c0.1,0.1-0.1,0.4-0.2,0.4c0,0,0.1,0.1,0.1,0.2c0,0.1,0.1,0.2,0.1,0.2c-0.1,0-0.1-0.1-0.2-0.1c0.2,0.2-0.2,0,0,0.2
								c0,0,0.1,0,0.2,0c-0.1,0.1-0.1,0.3-0.1,0.4l-0.1,0c-0.1,0.2,0,0.5,0,0.8c0.1-0.1,0.3,0,0.3,0.1l-0.2,0
								c0.1,0.1,0.1-0.1,0.3,0.1c0,0.1-0.3,0-0.3,0l0.1,0.1c-0.1,0-0.1,0-0.2-0.1c0.1,0.1-0.3,0.2,0,0.3l-0.1,0
								c-0.1,0.2,0,0.4-0.1,0.6c0.2,0.1,0.1,0.1,0.2,0.2c-0.1,0.1-0.3,0.3-0.4,0.4c0,0.2,0.1,0.1,0.2,0.2c-0.2-0.1-0.2,0.1-0.3,0
								c-0.1,0.2-0.1,0.3-0.1,0.6c0.1,0,0.1,0,0.2,0c0,0.1-0.1,0.1-0.2,0l0,0c0.1,0.4-0.8,0.3-0.7,0.7l0,0c0,0,0,0.3,0,0.3
								c-0.1,0.1,0-0.1-0.2-0.2c0,0.4-0.3,0.3-0.4,0.5c-0.4-0.3-0.5,0.3-0.8,0.1l0.1,0.1c0,0.1-0.1,0-0.1-0.1c0,0.1,0.1,0.1,0.1,0.2
								c-0.4,0.3-1,0.1-1.5-0.1c-0.2,0-0.2,0.6-0.4,0.3l0.1-0.2c-0.4,0.2-0.7-0.2-1.2-0.1c0,0,0.1-0.1,0.1-0.1c0-0.2-0.3-0.1-0.3,0
								c0,0,0-0.1,0-0.2c0-0.1-0.3,0.1-0.2-0.1c0,0,0,0,0.1,0c-0.1,0-0.2-0.1-0.3,0c-0.1-0.2-0.3-0.1-0.3-0.3
								c-0.2,0.1-0.1-0.2-0.3,0c0.2-0.2,0-0.4-0.2-0.3c0.1,0,0-0.1,0.1-0.2c-0.1-0.1-0.2-0.1-0.3,0c0.1-0.4-0.5-0.1-0.2-0.5
								c-0.3-0.1-0.6-0.3-0.9-0.5c0.3-0.2,0.2,0.3,0.5,0.1c-0.3-0.2-0.6-0.1-0.7-0.4c0-0.1,0.1,0,0.2,0c-0.3-0.2-0.3-0.5-0.5-0.6
								c0,0,0.1,0,0.1,0c0,0,0-0.1-0.1-0.1l0.1,0c-0.2,0.2-0.5,0-0.6,0c0.4-0.1,0-0.3,0.5-0.4c0,0-0.1,0-0.2,0
								c0-0.1,0.1-0.1,0.2-0.1c-0.1-0.1-0.3,0-0.3-0.2c0.1,0,0.1,0,0.2,0c-0.2,0-0.3-0.1-0.3-0.2c0,0,0.1,0,0.1,0
								c-0.1-0.2-0.5-0.3-0.4-0.6c0.3,0,0.1-0.1,0.3-0.2l-0.1-0.1l-0.1,0.1c0-0.1-0.2-0.2-0.2-0.3l0.1,0.1l-0.1-0.2l-0.1,0.2
								c-0.2-0.1-0.3,0.1-0.3-0.1c0,0,0-0.1,0.1-0.2l0,0c-0.1,0-0.2-0.1-0.1-0.2c0.1,0,0.3,0,0.3-0.1c-0.2,0-0.1-0.3-0.3-0.3
								c0.1,0,0.2,0,0.2,0l-0.2,0c0-0.1,0.1-0.1,0.2-0.1c0-0.2-0.3,0.1-0.2-0.1c0,0,0,0,0.1,0c0.1-0.2-0.1-0.4-0.1-0.6
								c0.3-0.1,0.1,0.2,0.3,0.1c-0.1-0.3-0.3-0.6-0.3-0.8l0,0c-0.4-0.1,0.2-0.2,0-0.3c0,0,0.2,0.1,0.2,0c0.1-0.2-0.1-0.4-0.1-0.7
								l0.1,0c0.1-0.1,0.1-0.3,0.2-0.4c-0.1-0.1-0.1-0.1-0.2-0.1c0.6-0.2-0.1-0.8,0.4-0.9c0,0,0,0.1,0.1,0.1c0,0,0-0.3,0-0.3
								c-0.2,0-0.1,0-0.2,0c-0.1-0.1-0.1-0.2-0.1-0.2c0,0.2,0.2,0.1,0.3,0.1c0,0-0.1,0-0.1-0.1c0.3,0-0.3-0.2,0-0.3l0.1,0
								c0-0.1-0.1-0.2,0-0.3c0.2,0.1,0,0.1,0.2,0.2c0-0.1-0.2-0.4,0-0.4c0,0.1,0,0.1,0,0.2c0.2,0,0.2,0,0.3-0.1l0,0l0.2-0.1l-0.1,0
								c-0.4-0.4,0.1-0.3-0.1-0.6c0.1,0.3,0.1,0.1,0.3,0.3c0.1,0,0.2,0,0.2,0c-0.1-0.2,0.2,0,0.1-0.3c0.1,0,0.1-0.1,0.2,0.1
								c0-0.1-0.1-0.1-0.2-0.1c-0.1-0.3,0.5-0.1,0.4-0.5c0.1-0.2-0.1-0.5,0.1-0.7c0.1,0,0.1,0.2,0.1,0.2c0.2,0,0.2,0,0.2-0.2
								c0,0.1,0.1,0.1,0.1,0.1c0.1-0.1-0.1-0.3,0.1-0.2c0,0.1,0.1,0.2,0.1,0.3c0-0.1,0.1-0.2,0.1-0.3c0.1,0.1,0,0.2,0,0.3
								c0.1-0.1,0.2-0.2,0.2-0.4l-0.1,0c0,0,0.1,0.1,0.1,0.2c0,0.2-0.1,0-0.2-0.1l0-0.1c-0.2-0.3-0.2,0.2-0.4,0.2l-0.1-0.3l0,0.3
								c-0.1,0-0.2-0.2-0.1-0.2c-0.2-0.1,0,0.1-0.2,0.1c0,0,0,0,0,0l0,0.1c0-0.1-0.1-0.2-0.1-0.2c-0.3,0-0.1,0.4-0.3,0.3l0,0
								c-0.1,0.3,0.1,0.2,0.1,0.5l-0.5-0.3l0.1,0.2c0,0-0.1,0-0.1,0c0,0.2,0.1,0.1,0.1,0.2c-0.2,0-0.2,0.3-0.5,0.1
								c0.1,0.1,0.2,0,0.2,0.2c-0.3-0.2,0,0.2-0.3,0.2c-0.1-0.1,0-0.2-0.2-0.2c0.2,0.2-0.2,0.2-0.2,0.3c0.2,0.1,0,0.3,0,0.5
								c-0.1-0.1-0.3,0.2-0.4,0.3l0,0c0.2,0.1,0.1,0.3,0.1,0.4c-0.1-0.1-0.2-0.1-0.2-0.2l0,0.1c0.1,0.1,0.1,0.1,0.1,0.2l-0.2-0.1
								c0,0.2,0.1,0.4-0.1,0.5c0.2,0.1,0.5,0,0.6,0.2c-0.1,0-0.3-0.1-0.3-0.1c0,0,0.1,0.1,0,0.1l-0.1-0.1c-0.1,0.1,0.1,0.1,0.1,0.1
								c-0.1,0-0.1,0-0.2,0c0,0,0.1,0,0-0.1c0,0.1-0.1,0.1-0.3,0.2c0.1,0,0.2,0,0.2,0.1c0,0.2-0.2,0-0.3,0.1c0.1,0.1,0,0.1,0.2,0.2
								c0,0-0.1,0-0.2,0c0.1,0.1,0,0.4,0.2,0.3l0,0l0,0l0,0l0,0c0.2,0.3-0.2,0.5-0.1,0.8l-0.1,0c0.1,0.2,0,0.4,0.2,0.5
								c0,0-0.1,0.1-0.2,0.1c0.1,0.1,0.1,0.1,0,0.3c-0.1-0.1-0.1,0-0.1-0.1c-0.1,0.2-0.2,0.2,0,0.4c-0.2-0.1-0.2,0.1-0.2,0.2
								l0.1-0.1c0,0.1,0,0.2,0,0.2l-0.2,0c-0.3,0.4,0.5,0.5,0.1,0.8c0.2,0.1,0.1-0.2,0.3-0.1c0,0.1-0.3,0.4-0.3,0.4
								c-0.1,0.2,0.4,0.1,0.3,0.4c0.1,0,0.3-0.1,0.4,0c0,0.1-0.3,0.3-0.4,0.2c0,0,0-0.1,0-0.1c0,0-0.1-0.1-0.2,0l0.1,0
								c-0.1,0.1,0,0.3-0.2,0.3c0.1,0.1,0.1,0,0.2-0.1c-0.1,0.2,0.1,0.3,0,0.5c0,0,0.1-0.1,0.1-0.1c0,0.3,0.2,0.1,0.3,0.2
								c-0.1,0.1-0.3,0.1-0.1,0.2c0,0.1-0.2,0.1-0.3,0.1c0.2,0.1,0,0.4,0,0.5l-0.1-0.1c0.1,0,0.1,0.1,0.1,0.1l0.1-0.1
								c0,0.1,0,0.1-0.1,0.1c0.1,0,0.2-0.1,0.4-0.1c-0.1,0.1,0.2,0.2,0,0.3c0-0.2-0.2,0.1-0.3-0.1c0,0,0.1,0.1,0,0.1c0,0,0,0-0.1,0
								c-0.1,0.3,0.3,0,0.4,0.2c-0.1,0-0.2,0.1-0.1,0.2c0-0.1,0.2-0.1,0.3-0.1c0,0.2,0.1,0.1,0.2,0.2l0-0.1c0.1,0,0.1,0,0.2,0.1
								c-0.1,0.1-0.1-0.1-0.1,0c0.2,0-0.1,0.3,0.1,0.4c0,0.1-0.2,0.1-0.2,0.2c0.2,0.1,0,0.3,0.2,0.4c0.1-0.1,0.1-0.1,0.3-0.1
								l-0.3-0.2l0.3,0c0-0.1-0.2-0.1-0.2-0.2c0.2,0,0.1,0,0.2-0.1c-0.2,0.2,0.2,0.1,0.2,0.3l-0.4,0.2c0,0.3,0.4,0.2,0.5,0.5l0-0.1
								c0.2-0.1,0.1,0.1,0.2,0.2c-0.1,0.1-0.1,0.2-0.2,0.2c0.1-0.1,0.1,0.2,0.4,0l-0.1,0.2c0.1,0.2,0.5-0.1,0.6,0.1
								c-0.2,0.1-0.2,0.2-0.3,0.2c0.1,0.1,0.1,0.1,0.2,0.1c0,0.1,0.3,0,0.2,0.2c0.1,0,0.2-0.1,0.2-0.1c0,0,0,0.1,0,0.1
								c0,0,0.2,0,0.2-0.1c-0.1,0.5,0.5,0.4,0.4,0.8c0.2,0.1,0.3,0.1,0.5,0.2c0,0,0,0.1-0.1,0c0.1,0.2,0.3-0.3,0.4,0
								c0,0.3-0.2,0-0.1,0.2c-0.2,0.4,0.3,0.1,0.3,0.4l0,0c0.1,0.2,0.3,0,0.5,0.1c0,0,0,0,0,0.1c0.2-0.2,0.5-0.2,0.7-0.2
								c-0.1,0.2-0.1,0.1-0.1,0.3c0.1,0,0-0.3,0.2-0.3c0,0.1,0.1,0.2,0.1,0.4l-0.2,0c0,0.3,0.2,0,0.3,0.1l0,0.1
								c0.3,0,0.3-0.3,0.6-0.2l0-0.1c0.2-0.3,0.1,0.2,0.3,0l0,0.3c0.1-0.1,0.3-0.3,0.5-0.3c-0.1,0.2-0.3,0.3-0.4,0.5
								c0.1,0,0.3,0,0.4-0.2c0,0-0.1,0.1-0.1,0.1c0.1-0.2,0.2-0.3,0.4-0.4c0.1,0.5,0.5,0,0.8,0.4c0.3-0.3,0.7-0.2,1.1-0.4
								c-0.3-0.3,0.1-0.1-0.2-0.4c0.1-0.1,0.1-0.1,0.1-0.1l0.4,0c0.1,0.1,0,0.1,0,0.2c0.2-0.1,0.2,0.1,0.4,0.1
								c-0.1-0.1-0.1-0.2,0.1-0.3l-0.3,0c0.1-0.4,0.4,0.1,0.5-0.3l0,0.2c0.1-0.2,0.4-0.4,0.2-0.8c0.1,0,0.2,0.1,0.2,0.1
								c0.3-0.3,0.2-0.9,0.5-1l0.1,0.1c0-0.1-0.1-0.2,0-0.2c0,0,0.1,0.1,0.1,0c0,0-0.1-0.2,0-0.3l0.1,0.1c0.3-0.3,0-0.6,0-0.9
								c0.3,0.1,0.5-0.1,0.6-0.2l0,0c0.1-0.4-0.1-0.7-0.1-1.1c0.4-0.2,0.3-0.7,0.5-1.1c-0.1,0.1-0.2,0-0.3-0.1
								c0.1-0.1-0.2-0.2,0.1-0.2l0,0c0.3-0.1,0.2-0.2,0.2-0.4l-0.4,0c0.5-0.4-0.2-0.9,0.2-1.1c-0.1-0.1-0.1-0.2-0.2-0.3l0.2,0
								c0-0.2,0-0.4-0.1-0.7l0.2,0c0-0.2-0.6-0.1-0.7-0.2l0.3-0.1c-0.1-0.3,0.1-0.6-0.3-0.8c0,0,0.1,0,0.2,0c0-0.1,0-0.6-0.4-0.4
								c0.2-0.1-0.1-0.3-0.2-0.4l0.2-0.1c-0.3,0-0.3,0-0.5-0.1c0,0,0.1-0.1,0.1,0c0-0.2-0.2,0-0.2-0.2l0.1,0
								c-0.1-0.1-0.1-0.1-0.3-0.1c-0.1,0-0.1-0.3,0.1-0.4c-0.1,0-0.3,0-0.3-0.1c0.1,0,0.1,0,0.1,0c0-0.3-0.4-0.2-0.3-0.4
								c0.1,0,0.1-0.1,0.1-0.1c0.1,0.2,0.2,0.3,0.1,0.3c0.2-0.1,0.1-0.2,0.4-0.3c-0.2,0-0.5-0.1-0.6-0.2c0,0,0,0,0-0.1l0,0
								c0,0,0-0.1-0.1-0.1c0-0.1,0-0.1,0-0.1c0.1-0.1,0-0.2-0.1-0.3c-0.2,0.1-0.2,0-0.3,0.2c0,0,0,0,0.1,0c0,0,0,0,0,0l0,0
								c0,0,0.1,0.1,0.1,0.2c-0.1,0-0.2,0-0.2-0.1c-0.1,0-0.3,0.1-0.3,0.1c0.2-0.2,0.1-0.5,0.2-0.6c-0.2-0.1-0.4-0.4-0.8-0.2
								c-0.1,0,0-0.1,0-0.2c0.1,0,0.1,0,0.1,0c-0.2,0-0.3-0.3-0.5-0.1c-0.1-0.2,0.2-0.1,0-0.2l0.1,0c-0.1-0.6-1,0-1.1-0.7
								c0,0,0,0.1,0,0.1c-0.4-0.5-1.1-0.4-1.6-0.9c-0.1-0.1-0.2,0-0.3,0.1l0-0.2l-0.2,0.2c-0.2,0.1-0.4-0.6-0.7-0.2l0,0.1
								c-0.1,0-0.4,0.1-0.3-0.1c0,0,0,0.2-0.1,0.1l0-0.1c0,0-0.3,0.2-0.3,0.2c-0.2,0,0-0.4-0.4-0.4c-0.1,0.1-0.3,0.4-0.2,0.4
								c0,0,0.1,0,0.2,0.2l-0.1,0.1c0.1,0.3,0.1,0.7,0.3,0.8l0.1-0.2l0.1,0.1l-0.1,0c0.1,0.1,0.1,0,0.1-0.1c0,0.1,0.1,0.1,0.1,0.2
								c0,0,0.1-0.3,0.1-0.3c0,0.1,0,0.3,0.1,0.3c0.1-0.1-0.1-0.3,0-0.4c0.1,0.1,0.1,0.3,0.1,0.1c0,0.1,0,0.1,0,0.2
								c0.1-0.1,0.2-0.1,0.2-0.2c0.1,0.2,0.2,0,0.2,0.3c0-0.1,0.1-0.2,0.2-0.2c-0.2,0.3,0.2,0.1,0.1,0.4c0.1-0.3,0.3-0.1,0.5-0.2
								c0,0,0,0.1-0.1,0c0.1,0.1,0.1,0.2,0.1,0.2c0.1-0.3,0.3-0.3,0.4-0.4c0,0.3-0.2,0.3-0.2,0.5c0.1-0.2,0.3-0.1,0.3-0.3
								c0,0.2,0,0.1,0,0.3c0.2-0.3,0.1,0,0.2-0.2c0,0.2-0.1,0.3,0,0.3C112.4,49.7,112.3,49.8,112.3,49.8z M115,51.6L115,51.6
								C115,51.6,115,51.5,115,51.6C115,51.5,115,51.6,115,51.6z M115.2,51.8c0,0,0-0.1-0.1-0.1c0.1,0,0.1-0.1,0.1,0
								C115.2,51.7,115.2,51.8,115.2,51.8z M115.9,50.5C116,50.5,116,50.6,115.9,50.5C115.9,50.6,115.9,50.6,115.9,50.5L115.9,50.5
								C115.9,50.5,115.9,50.5,115.9,50.5z"/>
							<path fill="#3C3C3C" d="M115.7,50.6C115.7,50.6,115.7,50.6,115.7,50.6C115.7,50.6,115.6,50.6,115.7,50.6L115.7,50.6
								L115.7,50.6z"/>
							<path fill="#3C3C3C" d="M105.5,52.9L105.5,52.9C105.5,52.9,105.5,52.9,105.5,52.9C105.5,52.9,105.5,52.9,105.5,52.9z"/>
							<polygon fill="#3C3C3C" points="116.1,55.7 116.2,55.7 116.1,55.7 							"/>
							<path fill="#3C3C3C" d="M106.6,51.5C106.6,51.5,106.6,51.5,106.6,51.5C106.7,51.5,106.6,51.5,106.6,51.5z"/>
							<path fill="#3C3C3C" d="M107,50.9l0.1,0C107,50.8,107,50.9,107,50.9z"/>
							<path fill="#3C3C3C" d="M107.3,50.5C107.3,50.5,107.3,50.4,107.3,50.5L107.3,50.5L107.3,50.5z"/>
							<path fill="#3C3C3C" d="M107.4,58.5C107.4,58.5,107.4,58.5,107.4,58.5C107.4,58.6,107.4,58.5,107.4,58.5z"/>
							<path fill="#3C3C3C" d="M106.1,56.2c0,0,0.1,0,0.1,0.1C106.2,56.3,106.2,56.2,106.1,56.2z"/>
							<polygon fill="#3C3C3C" points="109.1,60.6 109.1,60.6 109.1,60.6 							"/>
							<path fill="#3C3C3C" d="M106.2,56.4c0-0.1,0-0.1,0-0.1C106.2,56.3,106.2,56.4,106.2,56.4z"/>
							<path fill="#3C3C3C" d="M109,49.1L109,49.1C109,49.1,109,49.1,109,49.1L109,49.1z"/>
							<path fill="#3C3C3C" d="M109,49.1L109,49.1C109,49.1,109,49.1,109,49.1z"/>
							<path fill="#3C3C3C" d="M109.1,49L109.1,49C109.1,49.1,109.1,49.1,109.1,49z"/>
							<path fill="#3C3C3C" d="M108.4,49.4L108.4,49.4C108.4,49.4,108.4,49.4,108.4,49.4z"/>
							<path fill="#3C3C3C" d="M108.2,49.5c0.1,0,0.2,0.1,0.2,0l0-0.1C108.5,49.6,108.2,49.4,108.2,49.5z"/>
							<path fill="#3C3C3C" d="M107,49.5l0.2-0.1c-0.1,0-0.2-0.1-0.1-0.1C106.7,49.3,107.2,49.4,107,49.5z"/>
							<path fill="#3C3C3C" d="M106.5,50c0-0.1-0.1-0.1-0.1-0.1C106.4,50,106.4,50,106.5,50z"/>
							<path fill="#3C3C3C" d="M105.2,54.3l-0.2,0C105,54.4,105.1,54.3,105.2,54.3z"/>
							<polygon fill="#3C3C3C" points="106.1,55.1 106.3,55 106.1,55 							"/>
							<polygon fill="#3C3C3C" points="104.9,55.7 104.9,55.7 105,55.8 							"/>
							<path fill="#3C3C3C" d="M108.6,62.4l0.1-0.2C108.7,62.2,108.5,62.4,108.6,62.4z"/>
							<path fill="#3C3C3C" d="M111.9,63.5c0,0.1,0.1,0.2,0.2,0.1C112,63.5,112,63.4,111.9,63.5z"/>
							<polygon fill="#3C3C3C" points="118,56.4 118,56.5 118,56.3 							"/>
						</g>
					</g>
				</g>
			</g>
		</g>
	</g>
	<g>
		<g>
			<g>
				<g>
					<g>
						<g>
							<path fill="#3C3C3C" d="M56,128.9c-0.1,0-0.2,0.1,0,0.3l0.3,0L56,128.9z"/>
							<path fill="#3C3C3C" d="M56.9,130.3c0.3,0.1,0.7,0.1,0.6-0.2c-0.3,0-0.3-0.1-0.7,0c-0.2-0.1-0.3-0.3-0.2-0.4
								c-0.1,0-0.3-0.3-0.4-0.3c0.1,0.4,0.4,0.6,0.9,0.7C57.1,130.3,56.9,130.3,56.9,130.3z"/>
							<path fill="#3C3C3C" d="M76.8,120.1l-0.1,0.1C76.7,120.2,76.7,120.2,76.8,120.1z"/>
							<path fill="#3C3C3C" d="M87.8,110c-0.1,0.1-0.1,0.1-0.1,0.2C87.8,110.1,87.9,110,87.8,110z"/>
							<path fill="#3C3C3C" d="M89.9,108.5c0,0-0.1,0.1-0.1,0.1C89.8,108.6,89.9,108.5,89.9,108.5z"/>
							<path fill="#3C3C3C" d="M76.8,120.1l0.3-0.2C77.1,119.8,76.9,120,76.8,120.1z"/>
							<path fill="#3C3C3C" d="M60.1,130.9c-0.1,0-0.1,0-0.2,0L60.1,130.9L60.1,130.9z"/>
							<path fill="#3C3C3C" d="M72,124.8L72,124.8c-0.1,0.1-0.1,0.2-0.1,0.2L72,124.8z"/>
							<path fill="#3C3C3C" d="M68.3,128.2c0.1-0.1,0-0.2,0-0.3c0,0.1,0,0.2-0.1,0.3C68.2,128.2,68.3,128.2,68.3,128.2z"/>
							<path fill="#3C3C3C" d="M61.1,131.8l-0.1,0C61,131.8,61.1,131.8,61.1,131.8z"/>
							<path fill="#3C3C3C" d="M74.7,122.3C74.7,122.3,74.8,122.3,74.7,122.3C74.8,122.3,74.8,122.3,74.7,122.3z"/>
							<path fill="#3C3C3C" d="M52.9,124.3C52.9,124.3,52.9,124.3,52.9,124.3C52.9,124.3,52.9,124.3,52.9,124.3z"/>
							<path fill="#3C3C3C" d="M55.6,129.3L55.6,129.3c-0.1,0-0.1,0-0.2,0L55.6,129.3z"/>
							<path fill="#3C3C3C" d="M93.5,105.5C93.5,105.5,93.5,105.5,93.5,105.5C93.4,105.6,93.5,105.6,93.5,105.5z"/>
							<path fill="#3C3C3C" d="M102.6,73.6c0.5,0.2-0.9,0.2-0.1,0.4C102.4,74,103.2,73.8,102.6,73.6z"/>
							<path fill="#3C3C3C" d="M60.2,131l0.2,0C60.3,131,60.2,131,60.2,131z"/>
							<path fill="#3C3C3C" d="M102.5,74.1L102.5,74.1L102.5,74.1C102.5,74.1,102.5,74.1,102.5,74.1z"/>
							<path fill="#3C3C3C" d="M101.4,98.1c0,0-0.1,0-0.1,0C101.2,98.1,101.3,98.1,101.4,98.1z"/>
							<path fill="#3C3C3C" d="M95.3,103.3l0.2-0.1C95.4,103.3,95.3,103.3,95.3,103.3z"/>
							<path fill="#3C3C3C" d="M104.2,95c0.1-0.1,0.1-0.1,0.2-0.2c0,0,0,0,0,0C104.4,94.9,104.3,95,104.2,95z"/>
							<path fill="#3C3C3C" d="M107.4,92.1C107.4,92.1,107.4,92.1,107.4,92.1c-0.1,0.1-0.1,0.1-0.2,0.1L107.4,92.1z"/>
							<path fill="#3C3C3C" d="M57.7,114.2c-0.1,0-0.2,0-0.3,0C57.5,114.2,57.1,114.7,57.7,114.2z"/>
							<path fill="#3C3C3C" d="M60,131c0,0,0.1-0.1,0.1-0.1C60.1,131,60.1,131,60,131C60,131,60,131,60,131z"/>
							<path fill="#3C3C3C" d="M103.3,93.8l0.5-0.4C103.7,93.5,103.5,93.6,103.3,93.8z"/>
							<path fill="#3C3C3C" d="M80.5,93l-0.1,0.1C80.5,93.1,80.5,93,80.5,93z"/>
							<path fill="#3C3C3C" d="M105.3,91.9c0.1,0,0.3-0.1,0.4-0.2c0,0,0-0.1,0-0.1L105.3,91.9z"/>
							<path fill="#3C3C3C" d="M57.4,114.2L57.4,114.2L57.4,114.2z"/>
							<path fill="#3C3C3C" d="M54.4,117.6c0.4-0.4,0-0.4,0-0.6c0.5-0.6,0.4-0.1,0.7-0.2c0.3-0.4,0.4-0.8,0.7-1.1c0,0,0.1,0,0.1,0.1
								c0.2-0.5,1.1-1.1,1.4-1.7c0,0,0.1,0,0.1,0c-0.2,0-0.3-0.1-0.3-0.2c0.2-0.2,0.3-0.5,0.5-0.4c-0.1,0.1-0.1,0.2-0.1,0.3l0.2-0.3
								c0.4,0-0.3,0.3-0.1,0.5c0.4-0.5,0.8-1.1,1.2-1.4c0.2,0.1-0.7,0.8-0.1,0.5l-0.6,0.4c0.7-0.1-0.3,0.3,0.3,0.2
								c0.7-0.6,0.7-0.8,1.4-1.4c0.1-0.2-0.2-0.1-0.1-0.3c0.8-1.1,1.2-0.3,1.7-1.2c0.1-0.3-0.1-0.6,0.6-0.9l0,0.4
								c0.7-0.6,0.1-0.6,0.9-1.2c-0.1,0.2-0.5,0.6-0.3,0.5c0.6-0.3,0.2-0.4,0.6-0.7l0.2,0.1c0.7-0.7,1.4-1.5,2.1-2.3
								c0,0.1-0.1,0.3,0.2,0.2c0.9-1,2.1-1.9,3.2-2.7l0.2-0.5c0.1-0.1,0.2-0.1,0.2,0c0.4-0.3-0.1-0.1,0.1-0.3c0.2-0.2,0.4-0.2,0.3,0
								c0.5-0.7,1.6-2,2.5-2.5l-0.1,0.2c0.6-0.4,0.3-0.9,1-1.2l-0.1,0.1c1.2-1,2.4-2.4,3.5-3c0-0.4,1.3-1,1-1.4
								c0.8-0.5,0.7-0.2,1.7-1c0.3-0.2,0.2-0.5,0.5-0.9l0.2,0.2l0.3-0.6l0.4,0l0.3-0.3c-0.1,0.1-0.3,0.2-0.3,0.1
								c0.4-0.5,1.2-0.9,1.3-0.8l1-1.1c0,0.1-0.1,0.3-0.2,0.4c0.4-0.7,0.3,0.1,0.7-0.6c-0.1,0,0-0.1-0.1-0.2c0.4-0.1,1-0.7,1.4-1.2
								l0,0.2c0.8-0.7,1.6-1.6,2.5-2.4c-0.4,0.2-0.5,0-0.2-0.3l0.3,0.1c0.1-0.3-0.3,0.2-0.1-0.3c0.4-0.3,0.4,0,0.3,0.2l0.4-0.4
								c0.1,0,0,0.1,0,0.2c0.1-0.3,0.9-0.5,0.9-0.9l0.1,0c0.9-0.8,1.3-1.3,2-2c-0.1-0.2,0.2-0.4,0.3-0.7c0.6-0.5,1.3-0.9,1.9-1.5
								c0.4-0.5,0-0.2,0.1-0.5c0.2,0.1,0.8-0.5,0.5-0.1c0.8-0.7,1-0.9,1.9-2c-0.2,0-0.3,0.1-0.3,0c0.2-0.2,0.5-0.3,0.5-0.2l0,0.1
								c0.5-0.6,1.2-1.1,1.9-1.6c0.3-0.2,0.7-0.5,1-0.7c0.3-0.2,0.5-0.4,0.7-0.6l0,0c0,0,0.8-0.7,0.9-0.7c0.5-0.2-0.2,0.2,0.2,0.2
								c1-0.7,1.8-0.5,2.8-0.7c0.4,0.3,1,0.3,1.7,0.5c0.7,0.2,1.4,0.4,1.7,0.9l0-0.1c0.3,0,0.2,0.2,0.4,0.4c0-0.1-0.2-0.3,0-0.2
								c0.9,0.6,1.7,1.7,2.6,2.7c0.4,0.5,0.8,1,1,1.5c0.3,0.5,0.5,1,0.6,1.6c0.1,0.4,0.3,0.5,0.4,0.6c0.2,0.1,0.3,0.3,0.2,0.8
								l-0.3-0.3c0.2,0.8,0.1,1.7-0.1,2.5c-0.3,0.8-0.7,1.6-1.1,2.3c0-0.1,0-0.2,0.1-0.3c-0.3,0.2-0.8,0.9-0.8,1.1
								c-0.2,0.2-0.1,0-0.3,0c-0.4,0.2-0.6,0.8-0.9,0.9c0,0,0-0.1,0.1-0.2c-0.1,0.2-0.9,0.8-0.6,0.8c-0.6,0.4-0.9,1-1.4,1.3
								c-0.1,0.4-1,0.7-0.8,1c-0.2-0.3-1.1,0.6-1.3,1.1c0-0.2-0.4,0.2-0.3,0c-0.4,0.3-0.7,0.7-0.5,0.8c-0.9,0.4-1.2,1.5-1.9,1.5
								c-1,1.1-1.9,2.2-2.9,3.2c-0.2-0.3,1.1-1,0.8-1.2c-0.9,1-1.2,1.7-2.2,2.5c-0.3,0.2,0-0.2,0.1-0.3c-0.9,1-1.8,1.7-2.6,2.6
								c0,0,0.1-0.1,0.1-0.2c-0.2,0.2-0.4,0.3-0.3,0.4l0.1-0.2c0.4-0.1-0.4,0.9-0.3,1c0-0.6-0.9,0.7-0.8-0.1
								c-0.1,0.1-0.2,0.3-0.1,0.3c-0.2,0.1-0.3,0.1-0.2-0.1c-0.5,0.6-0.2,0.5-0.8,1c0-0.1,0-0.2,0-0.3c-0.2,0.4-0.4,0.7-0.9,1.1
								c0-0.1-0.1,0,0-0.2c-0.8,0.7-1.1,1.5-2,2.2c0-0.5-0.4,0.2-0.6,0l-0.4,0.5l0.3-0.1c-0.4,0.4-0.6,0.8-1,1.1l0.2-0.4l-0.7,0.7
								l0.5-0.3c-0.3,0.5,0.3,0.2-0.3,0.6c0.1-0.1-0.4,0.4-0.7,0.5l0,0c-0.1,0.2-0.3,0.5-0.6,0.7c-0.1,0-0.1-0.3-0.2-0.3
								c0,0.3-0.9,0.9-1,1.3c0-0.1,0-0.2-0.1-0.2l0,0.3c-0.2,0.1-0.3,0.1-0.3,0c-0.6,0.5,0.4,0.1-0.4,0.6c0-0.1,0-0.1,0.1-0.2
								c-0.7,0.6-1.2,1.3-1.9,1.8c-0.4,0,0.5-0.5,0.1-0.5c-0.9,0.9-1.6,1.9-2.5,2.7l0.2-0.1c0.1,0.4-0.8,0.5-1.1,1
								c0.1-0.1,0-0.3,0-0.2c-0.6,0.5-1.1,1.2-1.9,2.1l0-0.2c-0.4,0.3-0.9,0.8-1.3,1.1c0,0.2-0.3,0.4,0,0.3c-1.5,0.7-2,2.2-3.3,2.9
								c0.1-0.1,0.2-0.3,0.1-0.2l-0.8,0.9c0.2,0.1,0.2,0,0.4-0.1c0,0.2-0.2,0.5-0.5,0.7c0.3-0.4-0.2-0.2-0.4-0.1
								c0.1,0,0,0.1,0.1,0.1c-0.7,0.2,0.1,0.3-0.6,0.7l0-0.1c-0.2,0.2-0.3,0.5-0.6,0.7c-0.2,0,0.2-0.3,0.1-0.4
								c-0.3,0.3-0.5,0.9-0.9,1.1c0.1-0.2,0.3-0.4,0.4-0.6c-0.5,0.2-0.5,0.2-0.8,0.4l0,0l-0.7,0.5l0.2-0.1c-0.1,0.8-0.8,0.9-1.2,1.7
								c0.4-0.8,0-0.2-0.1-0.4c-0.2,0.1-0.5,0.3-0.4,0.2c-0.2,0.4-0.6,0.3-0.8,0.9c-0.1,0-0.3,0.2-0.3,0.1c-0.3,0.3,0.2,0,0.2,0.1
								c-0.4,0.7-1.5,0.8-2.3,1.3c-0.8,0.4-1,0.6-1.8,0.8c-0.3-0.1,0.2-0.2,0.2-0.3c-0.5-0.1-0.8-0.1-1.3,0c0.1-0.1,0-0.1-0.1-0.2
								c-0.3,0-0.3,0.2-0.7,0c0.1-0.1,0.2-0.2,0.4-0.2c-0.4,0-0.8,0-1.2-0.1c-0.1-0.1,0.3-0.1,0.5-0.1c-0.5-0.1-1.2-0.3-1.4-0.2
								l0.2,0.2c-0.2-0.1,0-0.2,0.1-0.2c0.4,0,0.5,0.3,0.5,0.4l-0.3-0.1c0.1,0.5,1.2,0.3,1.8,0.4l-0.3,0.2c0,0,0.2,0,0.3-0.1
								c0.2,0,0.3-0.1,0.3-0.1c0.1,0.1,0.2,0.3-0.1,0.3c0.5,0.2,0.4-0.1,0.8,0.1c0,0,0,0,0,0.1c0,0,0.5-0.1,0.4-0.1
								c-0.1,0.1,0.1,0.2-0.2,0.2c0.9,0.1,1.3-0.4,1.6-0.2l-0.1,0c1.1-0.4,0.1-0.2,0.8-0.7c0,0,0.2,0.1,0.4,0.1
								c0.2,0.1,0.4,0.1,0.4,0.1l0-0.2c0.1,0,0.3-0.1,0.3,0c0.3-0.3-0.1,0,0-0.3c0.6-0.1,1.2-1,1.5-0.8c0-0.3-0.5,0.3-0.1-0.2
								c0.4,0.2,0.5-0.5,0.9-0.7c0,0.2-0.4,0.5,0.1,0.3c0-0.4,0.8-0.6,1-0.9c-0.2-0.2,0.6-0.7,1.1-1.2c0,0.1,1.1-0.8,1.6-1.2l0,0
								c-0.1-0.3,0.5-0.7,0.8-1.1c0.1,0.1,0.1,0.2-0.1,0.5l0.3-0.3c0-0.1,0.1-0.3,0.3-0.5l0,0.2c0.4-0.4,0.8-1,1.4-1.5
								c-0.1-0.2-0.8,0.1-0.3-0.6c0.1,0,0.2,0.2,0.1,0.3c0-0.1,0.1-0.2,0.3-0.3l-0.1,0.3c0.3-0.2,0-0.2,0.3-0.4
								c0.1,0.1,0.2-0.1,0.3,0c0,0.1-0.2,0.1-0.3,0.2c0.3-0.2,0.6-0.4,0.8-0.4c-0.1,0-0.1-0.1,0-0.3c0.4-0.4,0.3,0,0.6-0.2
								c0-0.2,0.4-0.4,0.3-0.5c0.1-0.1,0.2-0.1,0.3-0.1c0.2-0.3,1.1-1,0.7-1l-0.1,0l0,0l0,0l0,0c0.6-0.9,1.7-1.4,2.4-2.2l0,0.1
								c0.4-0.5,1-1,1.2-1.4c0.1-0.1,0.4-0.2,0.4-0.1c0.3-0.4,0.3-0.5,0.9-0.8c-0.3,0.4,0.2,0-0.3,0.4c0.5-0.4,0.7-0.4,1-1
								c0,0.3,0.5-0.2,0.7-0.4l-0.4,0.2c0.2-0.2,0.4-0.4,0.7-0.6l0,0.3c1.1-0.7,1.4-1.9,2.4-2.2c0.1-0.3-0.6,0.4-0.5,0
								c0.4-0.4,1.1-0.5,1.3-0.7c0.7-0.4,0.3-0.8,1-1.3c-0.1,0-0.4-0.1,0-0.6c0.4-0.4,0.8-0.2,0.5,0.1c-0.1,0.1-0.2,0.1-0.2,0.1
								c-0.1,0.2-0.3,0.3,0,0.3l0-0.1c0.3-0.1,0.9-0.7,0.8-0.5c0.3-0.4,0-0.2-0.2,0c0.6-0.4,0.9-0.8,1.5-1.3c-0.1,0-0.3,0.1-0.2,0
								c0.9-0.7,0.3-0.5,0.8-1c0.4-0.2,0.1,0.3,0.6-0.3c0.4-0.3,0.2,0.1,0.1,0.3c0.4-0.6,1-0.8,1.3-1.1l-0.2,0.3
								c0.1-0.2,0.3-0.3,0.4-0.4l-0.3,0c0.2-0.1,0.3-0.3,0.4-0.2c0.1-0.2-0.3-0.1-0.1-0.5c0.3-0.1,0.6-0.7,0.8-0.6
								c-0.7,0.6,0.2,0.1-0.3,0.6c0.1-0.1,0.2-0.2,0.4-0.4c0,0,0,0.1,0,0.1c0.8-0.4,0.1-0.5,0.8-1.1c0,0.2,0.3,0,0.4-0.1
								c-0.3,0.2-0.3,0-0.1-0.3c0.5-0.3,0.4-0.5,0.6-0.7l-0.3,0.2c0-0.2,0.2-0.4,0.5-0.7c0.1,0-0.2,0.3-0.1,0.2
								c0.2-0.5,0.9-0.5,1.3-1.1c0.3-0.1,0.2,0.2,0.4,0c0.4-0.6,0.7-0.4,1.1-1c-0.3,0-0.3,0.1,0-0.4l-0.8,0.9l0.4-0.7
								c-0.3,0.2-0.5,0.6-0.7,0.7c0.2-0.4,0.2-0.3,0-0.3c0.5-0.2,0.6-0.8,1.2-1l0.3,0.3c0.8-0.5,1-1.2,1.9-1.9l-0.3,0.2
								c0-0.2,0.5-0.5,0.7-0.8c0.1,0.1,0.3,0,0.4,0c-0.1-0.1,0.6-0.6,0.5-0.8l0.5-0.2c0.7-0.6,0.5-1,1.2-1.6
								c-0.1,0.3,0.3,0.1-0.1,0.6c0.2-0.2,0.4-0.4,0.4-0.4c0.2-0.1,0.5-0.7,0.8-0.8c0-0.1,0-0.3,0.2-0.5c0,0,0,0.1,0,0.1
								c0-0.1,0.3-0.4,0-0.3c1-0.3,1.8-1.7,2.7-2c0.4-0.5,1-1,1.4-1.4c0,0.1,0,0.1,0,0.1c0.7-0.4,0.1-0.6,0.9-1.1
								c0.5-0.2-0.3,0.4,0,0.3c0.4,0.3,0.8-0.9,1.4-1.2l-0.1,0.1c0.4-0.3,0.6-1.1,0.9-1.9c0,0,0,0.1,0.1,0c0-0.6,0.2-1.6,0.2-2.4
								c0.2,0.2,0.1,0.4,0.3,0.2c0-0.3-0.3,0.1-0.3-0.6c0.1-0.2,0.2-0.7,0.4-0.8c0,0,0,0.7,0,0.7c0.3-0.3,0-0.9,0-1.2l0.1,0
								c-0.2-1-0.5-1-0.9-2l0,0.1c-0.5-0.4-0.1-0.5-0.5-0.9l0.1-0.3c-0.3-0.3-1-1-1.5-1.4c0.4,0.1,1,0.6,1.4,1
								c-0.2-0.3-0.9-1-1.1-1.1c0.1,0.1,0.3,0.2,0.4,0.3c-0.5-0.2-0.9-0.5-1.4-1.1c0.5-0.3-1.1-1.5-1.4-2.2c-1.2-0.7-2.3-1.6-4-1.9
								c0.5,0.5-0.5-0.1-0.4,0.4c-0.4,0-0.5,0-0.5,0c0,0-0.3-0.1-0.6-0.1c-0.3-0.1-0.6-0.1-0.6-0.1c-0.3-0.1,0.4-0.1,0.3-0.2
								c-0.9,0.1-0.4-0.2-1-0.2c0.1,0.1-0.3,0.2-0.7,0.3c0,0,0.2,0,0.4,0c0.2,0,0.4,0,0.4,0c-1.1,0.5-1.1-0.1-2.1,0.6
								c0,0,0.3-0.3,0.3-0.3c-0.3,0.2-0.8,0.4-1.2,0.8c-0.5,0.3-0.9,0.8-0.9,1.1c-0.1,0-0.3,0-0.1-0.2c-1,0.9-1.9,2.3-2.8,2.8l0-0.1
								c-0.2,0.2-0.2,0.4-0.5,0.6c0,0,0-0.1-0.1-0.1c-0.1,0.1-0.4,0.6-0.6,0.8l0.1-0.3c-1,0.8-1.3,1.6-2,2.3c-0.2-0.2-1,0.4-1.4,0.7
								l0,0c-1.1,1-1.7,1.9-2.6,3c-0.9,0.3-2.2,1.9-3.4,2.7c0.2-0.1,0.1,0.2,0,0.4c-0.3,0.2-0.5,0.8-0.7,0.5l0.1-0.1
								c-0.4,0-0.8,0.5-1.2,0.8l0.2,0.3c-1.4,0.5-2.5,2.6-3.4,2.7c-0.2,0.3-0.5,0.6-0.7,0.9l-0.1-0.2c-0.7,0.6-1.1,0.9-1.9,1.7
								l0.1-0.3c-0.5,0.4-0.2,1-0.6,1.4l-0.3-0.1c-0.8,0.8-1.8,1.3-2.4,2.3c0,0-0.1-0.1,0.1-0.3c-0.4,0.3-1.6,1.2-1.2,1.4
								c-0.2-0.2-0.9,0.8-1.2,1.3l-0.1-0.2c-0.2,0.5-0.2,0.6-0.6,1.1c-0.1,0.1-0.2,0,0-0.1c-0.5,0.3-0.2,0.4-0.8,0.8l0.1-0.3
								c-0.4,0.4-0.4,0.4-0.5,0.7c-0.2,0.3-0.8,0.7-1,0.6c0,0.1-0.1,0.5-0.4,0.6c-0.1,0,0-0.1,0-0.2c-0.8,0.6-0.9,1.1-1.5,1.4
								c-0.1,0-0.1,0-0.2,0c0.6-0.5,1-0.9,1-0.9c-0.1-0.1-0.6,0.3-0.4-0.3c-0.3,0.4-0.7,1.2-1.2,1.6c0,0-0.1,0-0.1,0l0-0.1
								c-0.1,0.1-0.2,0.2-0.3,0.3c-0.2,0.1-0.3,0.2-0.4,0.3c-0.2-0.1-0.6,0.4-0.8,0.6c0.2,0.1-0.2,0.4,0.2,0.2c0,0,0-0.1,0.2-0.2
								c0,0,0.1-0.1,0.1-0.1l0,0c0.1-0.1,0.3-0.3,0.6-0.5c-0.1,0.2-0.2,0.5-0.6,0.6c0,0.2-0.1,0.4-0.1,0.5c-0.5,0.1-1.2,0.5-1.4,0.5
								c-0.6,0.7-1.6,1.6-1.8,2.2c-0.2,0.2-0.3,0.1-0.4,0.2c0.1-0.1,0.2-0.3,0.3-0.3c-0.3,0.4-1.1,1.1-1.1,1.4
								c-0.6,0.4,0.1-0.4-0.5,0.2l0-0.1c-1.6,0.9-1.7,2.5-3.6,3.5c0.1-0.1,0.2-0.1,0.2-0.1c-0.5,0.3-0.9,0.7-1.3,1.1
								c-0.4,0.4-0.9,0.9-1.2,1.4c-0.7,1.1-1.1,2.2-1.4,3.4c-0.1,0.7,0,0.8,0.2,1.2l-0.2,0.2c0,0,0.1,0.2,0.2,0.3
								c0.1,0.2,0.2,0.3,0.2,0.3c0.2,0.5,0.1,0.9,0.2,1.4c0,0.5,0.2,1,0.6,1.5l0-0.2c0.2,0.4,0.9,1.1,0.7,1.2c0.1,0,0.2,0,0.3,0.2
								l-0.1,0.1c0,0,0.2,0.2,0.4,0.3c0.2,0.2,0.4,0.3,0.4,0.3c0.5,0.7-0.4,0.2,0.4,1.1c0.3,0.3,1.1,0.7,1,0.5
								c-0.1-0.1-0.3-0.4-0.2-0.5l0.3,0.3c0.3-0.2,0.7-0.2,0.2-1.1l-0.6-0.4l0-0.3l0.4,0.4c-0.1-0.3-0.4-0.4-0.6-0.5
								c0-0.1,0-0.2-0.1-0.3l-0.7-0.3c0-0.1,0.4,0.1,0.1-0.3c-0.3-0.1,0,0.4-0.4,0.1c-0.1-0.3,0.1-0.3-0.3-0.5c0-0.1,0.1-0.1,0.2,0
								c-0.3-0.2-0.5-0.6-0.8-0.7c0-0.2-0.1-0.4-0.2-0.6c-0.1-0.2-0.1-0.4,0-0.4c-0.1-0.1-0.4-0.4-0.5-0.7c0.5,0.4-0.2-1.1,0.3-1
								c-0.4-0.3-0.2-1.4-0.2-2.1c0,0,0.1,0.1,0,0.2c0.1-0.4,0.2-0.5,0.4-0.7c-0.3-0.1-0.1-0.7-0.1-1.1c0.5-0.3,0.2,0.4,0.5,0.4
								c-0.2-0.1,0.2-0.8-0.1-0.8c0.3-0.2,0.2-0.2,0.5-0.3c-0.3-0.3,0.2-0.3,0.2-0.7c0.5-0.3,0.3,0.1,0.6-0.4
								C54.7,117.1,54.4,117.6,54.4,117.6z M65.3,106.7L65.3,106.7c-0.1,0.1-0.2,0.2-0.2,0.2C65.1,106.9,65.1,106.8,65.3,106.7z
								 M66.2,105.8c-0.1,0.1-0.3,0.2-0.4,0.4c-0.1,0-0.1-0.1,0-0.2C65.8,106.1,66,105.9,66.2,105.8z M63.3,106.7
								c0.1-0.2,0.2-0.2,0.3-0.2C63.5,106.6,63.4,106.7,63.3,106.7l0,0.1C63.3,106.8,63.3,106.7,63.3,106.7z"/>
							<path fill="#3C3C3C" d="M63.2,107.1C63.2,107.2,63.2,107.2,63.2,107.1C63.2,107.2,63.2,107.2,63.2,107.1L63.2,107.1
								L63.2,107.1z"/>
							<path fill="#3C3C3C" d="M76.6,120.2L76.6,120.2C76.6,120.2,76.6,120.2,76.6,120.2C76.6,120.2,76.6,120.2,76.6,120.2z"/>
							<polygon fill="#3C3C3C" points="79.6,94 79.5,94 79.5,94.1 							"/>
							<path fill="#3C3C3C" d="M70.9,124.6c0,0-0.1,0-0.1,0C70.8,124.6,70.9,124.6,70.9,124.6z"/>
							<path fill="#3C3C3C" d="M68.6,126.6l-0.4,0.2C68.4,126.8,68.5,126.7,68.6,126.6z"/>
							<path fill="#3C3C3C" d="M66.8,128.2C66.8,128.2,66.8,128.2,66.8,128.2L66.8,128.2L66.8,128.2z"/>
							<path fill="#3C3C3C" d="M94.3,102.5C94.3,102.5,94.3,102.4,94.3,102.5C94.4,102.2,94.3,102.3,94.3,102.5z"/>
							<path fill="#3C3C3C" d="M86.4,110.4c0.1-0.1,0.1-0.2,0.2-0.3C86.4,110.2,86.3,110.3,86.4,110.4z"/>
							<polygon fill="#3C3C3C" points="103.3,93.8 103.3,93.8 103.3,93.8 							"/>
							<path fill="#3C3C3C" d="M86.9,109.7c-0.2,0.1-0.3,0.2-0.4,0.4C86.7,110,86.8,109.9,86.9,109.7z"/>
							<path fill="#3C3C3C" d="M58.2,130.4L58.2,130.4c-0.1,0-0.1,0-0.1,0L58.2,130.4z"/>
							<path fill="#3C3C3C" d="M58.1,130.3l-0.1,0C58,130.3,58.1,130.3,58.1,130.3z"/>
							<path fill="#3C3C3C" d="M57.7,130.2l0.2,0.1C57.9,130.3,57.8,130.2,57.7,130.2z"/>
							<path fill="#3C3C3C" d="M61,131.1L61,131.1C61,131,61,131,61,131.1z"/>
							<path fill="#3C3C3C" d="M61.9,131c-0.2,0-0.5-0.1-0.8-0.1l0,0.1C61.2,130.9,61.7,131.1,61.9,131z"/>
							<path fill="#3C3C3C" d="M65.8,130.3c0,0-0.7,0.4-0.7,0.4c0.2,0,0.4,0,0.1,0.2C66.1,130.5,64.9,130.9,65.8,130.3z"/>
							<path fill="#3C3C3C" d="M67.7,128.7c-0.3,0.3,0.1,0.1,0.1,0.1C67.9,128.6,68,128.5,67.7,128.7z"/>
							<path fill="#3C3C3C" d="M80.8,116.6l0.1,0.2C81.1,116.5,80.8,116.7,80.8,116.6z"/>
							<polygon fill="#3C3C3C" points="82.7,113.6 82.4,113.7 82.4,113.9 							"/>
							<polygon fill="#3C3C3C" points="85,113.1 84.9,113.3 85.3,112.8 							"/>
							<path fill="#3C3C3C" d="M107,92.7l-0.2-0.1C106.6,92.8,106.8,93,107,92.7z"/>
							<path fill="#3C3C3C" d="M111.7,81.1c0.1-0.2-0.1-0.6-0.3-0.7C111.5,80.6,111.6,80.9,111.7,81.1z"/>
							<polygon fill="#3C3C3C" points="80.9,90.4 81,90.2 80.7,90.5 							"/>
						</g>
					</g>
				</g>
			</g>
		</g>
		<g>
			<g>
				<g>
					<g>
						<g>
							<path fill="#3C3C3C" d="M99.4,76.8c0-0.1-0.1-0.2-0.1-0.1l0.1,0.2L99.4,76.8z"/>
							<path fill="#3C3C3C" d="M98.8,76.8c0,0.1,0.1,0.3,0.3,0.4c-0.1-0.2,0-0.1-0.2-0.4c0-0.1,0.1,0,0.2,0c0-0.1,0.1,0,0-0.2
								c-0.2-0.1-0.3,0-0.2,0.2C98.9,76.8,98.8,76.8,98.8,76.8z"/>
							<path fill="#3C3C3C" d="M97.7,82.4L97.7,82.4C97.7,82.3,97.7,82.3,97.7,82.4z"/>
							<path fill="#3C3C3C" d="M99.4,85.7C99.4,85.7,99.4,85.7,99.4,85.7C99.4,85.7,99.4,85.7,99.4,85.7z"/>
							<path fill="#3C3C3C" d="M99.7,86.3C99.7,86.3,99.7,86.3,99.7,86.3C99.6,86.3,99.6,86.3,99.7,86.3z"/>
							<path fill="#3C3C3C" d="M97.7,82.4l0,0.1C97.7,82.5,97.7,82.4,97.7,82.4z"/>
							<path fill="#3C3C3C" d="M98.8,77.7C98.8,77.7,98.8,77.6,98.8,77.7C98.8,77.6,98.8,77.6,98.8,77.7L98.8,77.7z"/>
							<path fill="#3C3C3C" d="M97.1,80.8L97.1,80.8C97.1,80.7,97.1,80.7,97.1,80.8L97.1,80.8z"/>
							<path fill="#3C3C3C" d="M97.1,79.4c0,0,0.2,0.1,0.3,0.1c-0.1,0-0.1,0-0.1-0.1C97.2,79.4,97.1,79.4,97.1,79.4z"/>
							<path fill="#3C3C3C" d="M98,77.5L98,77.5C98,77.5,98,77.5,98,77.5z"/>
							<path fill="#3C3C3C" d="M97.2,81.7C97.2,81.7,97.2,81.7,97.2,81.7C97.2,81.7,97.2,81.7,97.2,81.7z"/>
							<path fill="#3C3C3C" d="M100.6,76.5C100.6,76.5,100.6,76.5,100.6,76.5C100.6,76.5,100.6,76.5,100.6,76.5z"/>
							<polygon fill="#3C3C3C" points="99,76.4 99,76.4 98.9,76.3 							"/>
							<path fill="#3C3C3C" d="M100.4,87.4L100.4,87.4C100.3,87.4,100.4,87.4,100.4,87.4z"/>
							<path fill="#3C3C3C" d="M110.8,86.7c-0.2,0-0.1-0.3-0.4-0.2C110.5,86.5,110.6,86.8,110.8,86.7z"/>
							<path fill="#3C3C3C" d="M98.8,77.7C98.8,77.7,98.8,77.7,98.8,77.7C98.8,77.7,98.8,77.7,98.8,77.7z"/>
							<path fill="#3C3C3C" d="M110.4,86.5L110.4,86.5L110.4,86.5C110.4,86.5,110.4,86.5,110.4,86.5z"/>
							<path fill="#3C3C3C" d="M102.9,88.8C102.9,88.7,102.9,88.7,102.9,88.8C102.9,88.7,102.9,88.7,102.9,88.8z"/>
							<path fill="#3C3C3C" d="M101.2,87.5L101.2,87.5C101.2,87.5,101.2,87.5,101.2,87.5z"/>
							<path fill="#3C3C3C" d="M104,88.9C104,88.9,104,88.9,104,88.9C104.1,88.9,104.1,88.9,104,88.9C104,88.9,104,88.9,104,88.9z"
								/>
							<polygon fill="#3C3C3C" points="105.1,89.1 105.1,89.1 105.1,89.1 							"/>
							<path fill="#3C3C3C" d="M103.2,76.2c0-0.1,0-0.1,0-0.2C103.2,76.1,103.1,76.2,103.2,76.2z"/>
							<path fill="#3C3C3C" d="M98.7,77.6C98.7,77.7,98.8,77.7,98.7,77.6L98.7,77.6C98.7,77.6,98.7,77.6,98.7,77.6z"/>
							<path fill="#3C3C3C" d="M104.5,87.4l0.1,0.1C104.6,87.4,104.5,87.4,104.5,87.4z"/>
							<path fill="#3C3C3C" d="M108.7,80.1L108.7,80.1C108.6,80,108.6,80.1,108.7,80.1z"/>
							<path fill="#3C3C3C" d="M105,87.5c0,0.1,0,0.1,0.1,0.1C105.1,87.7,105.1,87.7,105,87.5L105,87.5z"/>
							<path fill="#3C3C3C" d="M103.2,76L103.2,76L103.2,76z"/>
							<path fill="#3C3C3C" d="M102.2,76.4c0.1,0,0.1-0.3,0.1-0.4c0.2-0.1,0.1,0.2,0.1,0.3c0.1-0.1,0.2-0.3,0.3-0.3c0,0,0,0.1,0,0.1
								c0.1-0.2,0.3,0,0.5-0.2c0,0,0,0,0,0.1c0-0.1,0-0.3,0-0.4c0.1,0,0.2-0.1,0.1,0c0,0-0.1,0.1-0.1,0.1l0.1-0.1
								c0,0.3-0.1,0.1-0.1,0.2c0.1-0.1,0.3-0.2,0.4-0.1c0,0.2-0.3,0-0.2,0.3l-0.1-0.1c0,0.4-0.1,0-0.1,0.4c0.2,0.1,0.2-0.1,0.4,0
								c0.1-0.1,0-0.2,0.1-0.3c0.4-0.1,0,0.6,0.3,0.4c0.1-0.1,0.2-0.4,0.3-0.2l-0.1,0.2c0.2,0.1,0.2-0.3,0.4-0.1
								c-0.1,0.1-0.2,0-0.2,0.1c0,0.2,0.1-0.1,0.2-0.1l-0.1,0.2c0.2,0,0.5,0,0.7,0.1c0,0.1-0.1,0.1-0.1,0.2c0.3,0,0.5,0.4,0.7,0.6
								l0.2-0.1c0,0,0,0.1-0.1,0.1c0,0.1,0.1-0.1,0.2-0.1c0.1,0,0,0.1-0.1,0.2c0.3,0,0.7,0.1,0.7,0.4l-0.1,0
								c0.1,0.2,0.4-0.2,0.4,0.1l0,0c0.2,0.3,0.6,0.5,0.6,0.9c0.3-0.2,0.1,0.3,0.5,0.1c0,0.3-0.1,0.3-0.1,0.6c0,0.1,0.3-0.1,0.4,0
								l-0.2,0.1l0.3,0l-0.2,0.2l0.1,0c0,0,0-0.1,0.1-0.1c0.2,0.1,0.1,0.4,0,0.4c0,0,0.1,0,0.2,0.1c0.1,0.1,0.2,0.1,0.2,0.1
								c-0.1,0-0.1,0-0.2,0c0.3,0-0.2,0.1,0.1,0.2c0,0,0.1-0.1,0.2-0.1c-0.1,0.1,0,0.3,0.1,0.4l-0.1,0c0.1,0.2,0.3,0.4,0.3,0.7
								c0-0.1,0.3-0.2,0.3-0.1l-0.2,0.1c0.1,0,0.1-0.1,0.3-0.1c0,0.1-0.2,0.1-0.3,0.1l0.1,0.1c-0.1,0-0.1,0-0.2,0
								c0.2,0-0.2,0.3,0.1,0.3l-0.1,0c0.1,0.2,0.2,0.3,0.2,0.5c0.2,0,0.2,0.1,0.3,0.1c0,0.2-0.2,0.4-0.1,0.5c0.1,0.1,0.2,0,0.3,0.1
								c-0.2,0-0.2,0.2-0.3,0.1c0,0.2,0.1,0.3,0.2,0.6c0.1,0,0.1-0.1,0.2,0c0,0.1-0.1,0.1-0.2,0.1l0,0c0.3,0.4-0.6,0.6-0.3,0.9l0,0
								c0,0,0.1,0.3,0.1,0.3c-0.1,0.1-0.1-0.1-0.2-0.1c0.2,0.4-0.2,0.4-0.1,0.6c-0.5-0.1-0.3,0.5-0.7,0.5l0.1,0.1
								c0.1,0.1-0.1,0-0.1,0c0.1,0.1,0.1,0,0.1,0.1c-0.2,0.5-0.9,0.5-1.3,0.6c-0.2,0,0.1,0.6-0.2,0.4l0-0.2
								c-0.3,0.4-0.7,0.2-1.1,0.4c0-0.1,0-0.1,0.1-0.1c-0.1-0.2-0.3,0-0.3,0.1c-0.1,0,0-0.1,0-0.2c-0.1-0.1-0.2,0.2-0.2,0
								c0,0,0-0.1,0-0.1c-0.1,0.1-0.2,0-0.2,0.2c-0.1-0.1-0.3,0-0.4-0.1c-0.1,0.2-0.2-0.2-0.3,0.1c0.1-0.3-0.2-0.3-0.3-0.2
								c0.1-0.1-0.1-0.1,0-0.2c-0.1,0-0.2,0-0.2,0.2c-0.1-0.4-0.5,0.2-0.4-0.3c-0.4,0-0.7,0-1-0.1c0.2-0.3,0.3,0.1,0.4-0.2
								c-0.3,0-0.6,0.2-0.8-0.1c0-0.1,0.1-0.1,0.2-0.1c-0.3,0-0.4-0.3-0.7-0.3c0,0,0.1,0,0.1,0c0,0-0.1-0.1-0.1,0l0.1,0
								c-0.1,0.2-0.4,0.2-0.5,0.3c0.3-0.3-0.1-0.2,0.3-0.6c0,0-0.1,0-0.2,0.1c0-0.1,0-0.1,0.1-0.2c-0.2-0.1-0.2,0.1-0.4,0
								c0-0.1,0.1-0.1,0.2-0.1c-0.2,0-0.3,0.1-0.4,0c0,0,0.1-0.1,0.1,0c-0.2-0.1-0.5,0-0.6-0.3c0.3-0.2,0-0.1,0.2-0.3l-0.2-0.1
								l-0.1,0.1c-0.1-0.1-0.3-0.1-0.3-0.2l0.1,0l-0.2-0.1l0,0.2c-0.2,0-0.2,0.2-0.3,0c0,0-0.1-0.1,0-0.2l0,0c-0.1,0-0.2,0-0.2-0.1
								c0.1-0.1,0.2-0.2,0.3-0.2c-0.2,0.1-0.2-0.2-0.5-0.1c0.1,0,0.2-0.1,0.2-0.1l-0.2,0.1c0-0.1,0-0.1,0.1-0.2
								c-0.1-0.2-0.2,0.2-0.2,0c0,0,0,0,0.1,0c0-0.2-0.3-0.3-0.3-0.5c0.2-0.2,0.1,0.1,0.3-0.1c-0.2-0.2-0.5-0.4-0.6-0.6l0,0.1
								c-0.4,0.1,0.1-0.3-0.1-0.3c0,0,0.2,0,0.2,0c0-0.2-0.2-0.3-0.4-0.5l0.1,0c0-0.1,0-0.3,0-0.4c-0.1,0-0.1-0.1-0.2,0
								c0.4-0.5-0.5-0.6,0-1c0,0,0.1,0.1,0.1,0c0,0-0.1-0.3-0.1-0.3c-0.2,0-0.1,0-0.2,0.1c-0.1,0-0.2-0.1-0.2-0.2
								c0.1,0.1,0.3,0,0.3-0.1c0,0-0.1,0-0.2,0c0.3-0.2-0.3,0-0.1-0.2l0.1,0c0-0.1-0.2-0.1-0.1-0.2c0.2,0,0.1,0.1,0.2,0.1
								c0-0.1-0.4-0.2-0.2-0.3c0.1,0,0,0.1,0.1,0.2c0.2-0.1,0.2-0.1,0.2-0.2l0,0l0.1-0.2l-0.1,0c-0.5-0.2-0.1-0.3-0.4-0.5
								c0.3,0.2,0.2,0.1,0.4,0.1c0.1,0,0.1-0.1,0.2-0.1c-0.2-0.1,0.1-0.1-0.1-0.3c0.1,0,0-0.1,0.2,0c0-0.1-0.1,0-0.2,0
								c-0.2-0.2,0.4-0.3,0.1-0.6c0-0.2-0.3-0.4-0.3-0.6c0.1,0,0.2,0.2,0.2,0.2c0.1-0.1,0.2-0.1,0.1-0.3c0,0,0.1,0.1,0.2,0.1
								c0-0.1-0.2-0.2,0-0.2c0.1,0.1,0.1,0.1,0.2,0.2c0-0.1-0.1-0.3,0-0.4c0.1,0,0.1,0.2,0.2,0.2c0-0.1,0.1-0.3-0.1-0.4l-0.1,0
								c0,0,0.1,0.1,0.1,0.1c0.1,0.2-0.1,0.1-0.2,0l0-0.1c-0.4-0.2-0.1,0.3-0.2,0.4l-0.2-0.2l0.1,0.3c-0.1,0-0.2-0.1-0.2-0.2
								c-0.2,0,0,0.1-0.1,0.1c0,0,0,0,0,0l0,0.1c0,0-0.2-0.1-0.1-0.1c-0.3,0.1,0.1,0.4-0.2,0.4l0,0c0,0.3,0.2,0.1,0.4,0.4l-0.5,0
								l0.2,0.1c0,0,0,0.1-0.1,0c0.1,0.1,0.1,0,0.2,0.1c-0.2,0.1,0,0.4-0.3,0.3c0.1,0.1,0.2-0.1,0.2,0.1c-0.4,0,0,0.2-0.1,0.3
								c-0.2-0.1-0.1-0.2-0.3-0.1c0.3,0.1-0.1,0.2-0.1,0.4c0.2,0,0.1,0.2,0.2,0.4c-0.1,0-0.2,0.3-0.2,0.5l0,0c0.3,0,0.2,0.2,0.3,0.3
								c-0.2,0-0.2,0-0.3-0.1l0,0.1c0.1,0,0.1,0.1,0.2,0.1l-0.2,0c0,0.2,0.3,0.3,0.2,0.5c0.2,0,0.5-0.2,0.6-0.1
								c-0.1,0-0.3,0.1-0.3,0c0,0,0.1,0,0.1,0.1l-0.2-0.1c-0.1,0.1,0.1,0,0.1,0.1c-0.1,0-0.1,0.1-0.2,0.1c0,0,0-0.1,0-0.1
								c0,0.1-0.1,0.2-0.2,0.3c0.1,0,0.2,0,0.2,0c0,0.2-0.1,0.1-0.2,0.2c0.1,0,0,0.1,0.2,0.1c0,0-0.1,0.1-0.1,0.1
								c0.1,0.1,0.1,0.4,0.3,0.2l0,0l0,0l0,0l0,0c0.3,0.2,0.1,0.6,0.3,0.8l-0.1,0c0.1,0.1,0.2,0.3,0.4,0.3c0,0-0.1,0.2-0.1,0.2
								c0.1,0.1,0.2,0.1,0.2,0.3c-0.2-0.1-0.1,0.1-0.1-0.1c0,0.2-0.1,0.3,0.2,0.3c-0.2,0-0.1,0.2,0,0.3l0.1-0.2
								c0.1,0.1,0.1,0.1,0.1,0.2l-0.2,0.1c-0.1,0.4,0.7,0.2,0.5,0.7c0.2,0,0-0.2,0.2-0.3c0.1,0.1-0.1,0.5-0.1,0.5
								c0,0.2,0.4-0.1,0.4,0.2c0-0.1,0.2-0.2,0.4-0.2c0.1,0.1-0.1,0.4-0.3,0.3c0,0,0-0.1,0-0.1c-0.1,0-0.1,0-0.2,0.1l0.1,0
								c0,0.1,0.1,0.3,0,0.3c0.1,0,0.1-0.1,0.1-0.1c0,0.2,0.2,0.2,0.3,0.4c0-0.1,0.1-0.1,0.1-0.1c0.1,0.3,0.2,0,0.4,0.1
								c0,0.2-0.2,0.2,0,0.3c0,0.1-0.1,0.2-0.2,0.2c0.2,0,0.2,0.3,0.2,0.4l-0.1,0c0.1,0,0.1,0,0.1,0.1l0.1-0.2c0,0.1,0.1,0.1,0,0.1
								c0.1,0,0.1-0.2,0.3-0.3c0,0.1,0.2,0.1,0.1,0.3c-0.1-0.2-0.1,0.2-0.3,0.1c0,0,0.1,0,0.1,0.1c0,0,0,0-0.1,0
								c0.1,0.3,0.2-0.1,0.4,0c-0.1,0.1-0.1,0.2-0.1,0.2c-0.1-0.1,0.1-0.2,0.2-0.2c0.1,0.2,0.2,0,0.2,0.1l0-0.1c0.1-0.1,0.1,0,0.3,0
								c0,0.1-0.1,0-0.1,0.1c0.2-0.1,0.1,0.3,0.3,0.3c0,0.1-0.1,0.2-0.1,0.3c0.2,0,0.1,0.3,0.3,0.2c0-0.2,0-0.1,0.2-0.2l-0.3-0.1
								l0.3-0.1c-0.1-0.1-0.2,0-0.3-0.1c0.2-0.1,0.1,0,0.2-0.2c0,0.3,0.3,0,0.3,0.2l-0.2,0.4c0.1,0.3,0.5,0,0.7,0.2l-0.1-0.1
								c0.1-0.1,0.2,0.1,0.3,0c-0.1,0.1,0,0.2,0,0.3c0-0.1,0.2,0.1,0.3-0.2l0.1,0.2c0.2,0.2,0.4-0.3,0.6-0.2c-0.1,0.1,0,0.2-0.2,0.3
								c0.1,0,0.1,0.1,0.2,0c0,0.1,0.3-0.1,0.3,0c0-0.1,0.1-0.2,0.2-0.2c0,0,0,0.1,0,0.1c0-0.1,0.1-0.1,0.1-0.2
								c0.1,0.5,0.6,0.1,0.8,0.5c0.2,0,0.4,0,0.5,0c0,0,0,0.1,0,0.1c0.2,0.1,0.1-0.4,0.4-0.2c0.1,0.2-0.1,0.1-0.1,0.2
								c0,0.5,0.3-0.1,0.5,0.2l0,0c0.1,0.1,0.3-0.2,0.5-0.2c0,0,0,0,0,0.1c0.1-0.3,0.3-0.4,0.5-0.5c0,0.2-0.1,0.1,0,0.3
								c0.1,0-0.1-0.3,0.1-0.4c0.1,0.1,0.2,0.1,0.3,0.3l-0.2,0.1c0.2,0.2,0.2-0.1,0.3-0.1l0,0.1c0.2-0.1,0.1-0.4,0.4-0.5l-0.1-0.1
								c0-0.3,0.2,0.1,0.2-0.2l0.2,0.2c0.1-0.1,0.2-0.4,0.3-0.5c0,0.2-0.1,0.4-0.1,0.6c0.1-0.1,0.3-0.2,0.3-0.3c0,0,0,0.1-0.1,0.1
								c0-0.2,0.1-0.4,0.2-0.5c0.3,0.4,0.5-0.2,0.9,0c0.1-0.4,0.5-0.5,0.8-0.9c-0.4-0.1,0-0.1-0.3-0.3c0-0.1,0-0.1,0.1-0.1l0.4-0.1
								c0.1,0,0,0.1,0.1,0.2c0.1-0.2,0.2,0,0.4-0.1c-0.2,0-0.2-0.2-0.1-0.3l-0.2,0.1c-0.1-0.4,0.4-0.1,0.3-0.5l0.1,0.1
								c0-0.2,0.2-0.6-0.1-0.8c0.1,0,0.2,0,0.2,0c0.1-0.4-0.2-0.8,0-1.1l0.1,0c0-0.1-0.2-0.1-0.1-0.2c0,0,0.1,0,0.1,0
								c0,0-0.2-0.2-0.1-0.3l0.1,0.1c0.1-0.4-0.3-0.5-0.4-0.8c0.3,0,0.4-0.3,0.4-0.5l0,0c-0.1-0.4-0.4-0.6-0.6-0.9
								c0.3-0.3-0.1-0.8-0.1-1.2c0,0.1-0.2,0.1-0.3,0c0-0.1-0.3-0.1,0-0.2l0,0c0.2-0.2,0.1-0.3,0-0.4l-0.3,0.2
								c0.3-0.6-0.6-0.7-0.3-1.1c-0.1,0-0.2-0.1-0.3-0.1l0.2-0.1c-0.1-0.2-0.1-0.3-0.4-0.5l0.1,0c-0.1-0.1-0.6,0.2-0.7,0.1l0.2-0.2
								c-0.2-0.2-0.2-0.6-0.6-0.6c0,0,0.1-0.1,0.1-0.1c-0.1-0.1-0.3-0.5-0.5-0.2c0.2-0.2-0.2-0.2-0.4-0.2l0.1-0.1
								c-0.3,0.1-0.3,0.2-0.5,0.1c0,0,0.1-0.1,0.1-0.1c-0.1-0.2-0.2,0.1-0.3-0.1l0.1-0.1c-0.1-0.1-0.1,0-0.3,0
								c-0.1,0-0.2-0.2-0.1-0.4c-0.1,0.1-0.2,0.2-0.3,0.1c0-0.1,0.1-0.1,0.1-0.1c-0.1-0.2-0.4,0-0.5-0.3c0-0.1,0-0.1,0-0.1
								c0.2,0.1,0.3,0.2,0.3,0.2c0.1-0.2,0-0.3,0.2-0.4c-0.2,0-0.5,0.2-0.6,0c0,0,0,0,0-0.1l0,0c0,0-0.1,0-0.1,0c0,0,0-0.1-0.1-0.1
								c0.1-0.1-0.1-0.2-0.2-0.2c-0.1,0.2-0.2,0.1-0.1,0.3c0,0,0,0,0.1,0c0,0,0,0,0,0l0,0c0,0,0.1,0,0.2,0.1c-0.1,0.1-0.2,0.1-0.2,0
								c-0.1,0.1-0.2,0.2-0.2,0.2c0-0.3-0.1-0.5-0.1-0.7c-0.3,0-0.6-0.2-0.8,0.2c-0.1,0,0-0.1,0-0.2c0,0,0.1,0,0.1,0
								c-0.2,0-0.4-0.1-0.5,0.2c-0.1-0.2,0.2-0.2-0.1-0.2l0.1-0.1c-0.4-0.5-0.9,0.5-1.3-0.1c0,0,0.1,0,0.1,0.1
								c-0.6-0.3-1.2,0.2-1.8,0c-0.2,0-0.2,0.1-0.2,0.3l-0.1-0.2l-0.1,0.3c-0.2,0.2-0.6-0.3-0.8,0.1l0.1,0.1c-0.1,0-0.3,0.3-0.3,0.1
								c0,0,0,0.1,0,0.1l-0.1-0.1c0,0-0.1,0.3-0.1,0.3c-0.2,0.1-0.2-0.4-0.5-0.2c-0.1,0.1-0.1,0.5,0,0.5c0,0,0.1,0,0.2,0.1l0,0.1
								c0.2,0.3,0.4,0.5,0.7,0.6l0-0.2l0.1,0.1l-0.1,0.1c0.1,0.1,0.1-0.1,0.1-0.2c0.1,0.1,0.1,0.1,0.1,0.1c0,0-0.1-0.3-0.1-0.3
								c0.1,0.1,0.1,0.2,0.2,0.3c0-0.2-0.2-0.2-0.2-0.3c0.1,0.1,0.2,0.2,0.2,0.1c0.1,0.1,0.1,0.1,0.1,0.2c0-0.1,0.1-0.1,0.1-0.3
								c0.1,0.1,0.2-0.1,0.3,0.1c0-0.1,0-0.3,0.1-0.3c0,0.4,0.2-0.1,0.3,0.3c0-0.3,0.2-0.2,0.4-0.4c0,0,0,0.1,0,0.1
								c0.1,0,0.1,0.1,0.2,0.2c0-0.3,0.1-0.4,0.2-0.5c0.1,0.3,0,0.3,0,0.6c0-0.2,0.2-0.2,0.1-0.4c0.1,0.2,0.1,0.1,0.1,0.3
								c0-0.3,0.1-0.1,0.1-0.3c0.1,0.2,0,0.3,0.2,0.2C102.3,76.3,102.2,76.4,102.2,76.4z M105.5,76.7L105.5,76.7
								C105.5,76.7,105.5,76.7,105.5,76.7C105.5,76.7,105.5,76.7,105.5,76.7z M105.8,76.8c0,0-0.1-0.1-0.1-0.1
								c0-0.1,0.1-0.1,0.1-0.1C105.7,76.7,105.8,76.8,105.8,76.8z M105.8,75.3C105.9,75.3,105.9,75.4,105.8,75.3
								C105.9,75.4,105.8,75.4,105.8,75.3L105.8,75.3C105.8,75.4,105.8,75.3,105.8,75.3z"/>
							<path fill="#3C3C3C" d="M105.6,75.5C105.6,75.5,105.6,75.5,105.6,75.5C105.6,75.5,105.6,75.5,105.6,75.5L105.6,75.5
								L105.6,75.5z"/>
							<path fill="#3C3C3C" d="M97.7,82.3L97.7,82.3C97.7,82.3,97.7,82.3,97.7,82.3L97.7,82.3z"/>
							<polygon fill="#3C3C3C" points="108.4,79.8 108.4,79.8 108.4,79.8 							"/>
							<path fill="#3C3C3C" d="M98,80.5C98,80.5,98,80.5,98,80.5C98,80.5,98,80.5,98,80.5z"/>
							<path fill="#3C3C3C" d="M98,79.8L98,79.8C98.1,79.8,98.1,79.8,98,79.8z"/>
							<path fill="#3C3C3C" d="M98.2,79.3C98.1,79.3,98.1,79.3,98.2,79.3L98.2,79.3L98.2,79.3z"/>
							<path fill="#3C3C3C" d="M101.9,86.4C101.9,86.4,102,86.4,101.9,86.4C102,86.4,102,86.4,101.9,86.4z"/>
							<path fill="#3C3C3C" d="M99.8,85c0,0,0.1,0,0.1,0C99.9,84.9,99.9,84.9,99.8,85z"/>
							<polygon fill="#3C3C3C" points="104.5,87.4 104.5,87.4 104.5,87.4 							"/>
							<path fill="#3C3C3C" d="M100,85.1C100,85,100,85,100,85.1C99.9,85,99.9,85.1,100,85.1z"/>
							<path fill="#3C3C3C" d="M99.1,77.3L99.1,77.3C99.1,77.3,99.1,77.3,99.1,77.3L99.1,77.3z"/>
							<path fill="#3C3C3C" d="M99.1,77.3L99.1,77.3C99,77.3,99,77.3,99.1,77.3z"/>
							<path fill="#3C3C3C" d="M99,77.2L99,77.2C99.1,77.2,99.1,77.2,99,77.2z"/>
							<path fill="#3C3C3C" d="M98.6,77.8L98.6,77.8C98.7,77.9,98.7,77.9,98.6,77.8z"/>
							<path fill="#3C3C3C" d="M98.6,78c0,0,0.2,0,0.2-0.1l0,0C98.8,77.9,98.5,77.9,98.6,78z"/>
							<path fill="#3C3C3C" d="M97.4,78.6l0.1-0.2c-0.1,0-0.2,0-0.2-0.1C97.1,78.6,97.5,78.4,97.4,78.6z"/>
							<path fill="#3C3C3C" d="M97.2,79.2c0-0.1-0.1,0-0.2,0C97.1,79.3,97.1,79.3,97.2,79.2z"/>
							<path fill="#3C3C3C" d="M98.1,83.7l-0.2,0.1C98,83.8,98,83.7,98.1,83.7z"/>
							<polygon fill="#3C3C3C" points="99.3,83.9 99.3,83.8 99.2,83.9 							"/>
							<polygon fill="#3C3C3C" points="98.5,85 98.4,85 98.6,85.1 							"/>
							<path fill="#3C3C3C" d="M104.9,89.3l0-0.2C104.8,89.1,104.8,89.3,104.9,89.3z"/>
							<path fill="#3C3C3C" d="M108.3,88.7c0.1,0.1,0.2,0.1,0.2,0C108.4,88.7,108.3,88.6,108.3,88.7z"/>
							<polygon fill="#3C3C3C" points="110.3,79.6 110.4,79.6 110.3,79.5 							"/>
						</g>
					</g>
				</g>
			</g>
		</g>
	</g>
</g>
</svg>
