<?xml version="1.0" encoding="utf-8"?>
<!-- Generator: Adobe Illustrator 18.0.0, SVG Export Plug-In . SVG Version: 6.00 Build 0)  -->
<!DOCTYPE svg PUBLIC "-//W3C//DTD SVG 1.1//EN" "http://www.w3.org/Graphics/SVG/1.1/DTD/svg11.dtd">
<svg version="1.1" id="Layer_1" xmlns="http://www.w3.org/2000/svg" xmlns:xlink="http://www.w3.org/1999/xlink" x="0px" y="0px"
	 viewBox="0 0 144 144" enable-background="new 0 0 144 144" xml:space="preserve">
<g>
	<g>
		<g>
			<g>
				<g>
					<g>
						<path fill="#202020" d="M17.5,69c0.1-0.1,0-0.2-0.4-0.1c0,0-0.1,0.1-0.2,0.1c-0.1,0.1-0.2,0.1-0.2,0.1s0.2,0,0.4-0.1
							C17.3,69,17.5,69,17.5,69z"/>
						<path fill="#202020" d="M14.8,67.9c-0.5-0.2-1-0.6-0.9-0.2c0.5,0.2,0.6,0.4,1.2,0.5c0.4,0.2,0.6,0.4,0.5,0.5
							c0.2,0,0.7,0.3,0.9,0.1c-0.6-0.2-1.2-0.5-1.8-0.8C14.5,67.9,14.7,67.9,14.8,67.9z"/>
						<path fill="#202020" d="M46.4,54.7l-0.3,0C46.3,54.7,46.3,54.7,46.4,54.7z"/>
						<path fill="#202020" d="M71,50.7c-0.2,0.1-0.3,0.1-0.3,0.1C70.9,50.7,71,50.7,71,50.7z"/>
						<path fill="#202020" d="M75.1,49.7c-0.1,0-0.2,0-0.2,0.1C74.9,49.7,75,49.7,75.1,49.7z"/>
						<path fill="#202020" d="M46.4,54.7l0.7,0C47.2,54.6,46.8,54.7,46.4,54.7z"/>
						<path fill="#202020" d="M13.3,62.6c-0.1,0.1-0.1,0.3-0.1,0.4C13.2,62.9,13.3,62.8,13.3,62.6C13.3,62.7,13.3,62.7,13.3,62.6z"
							/>
						<path fill="#202020" d="M35.6,56.2l-0.2,0c-0.1,0-0.1,0.1-0.2,0.1L35.6,56.2z"/>
						<path fill="#202020" d="M27.4,57.6c0.2,0,0.2-0.2,0.3-0.3c-0.1,0.1-0.2,0.2-0.4,0.2C27.3,57.5,27.3,57.5,27.4,57.6z"/>
						<path fill="#202020" d="M15,61.5l-0.1,0.2C14.9,61.6,15,61.6,15,61.5z"/>
						<path fill="#202020" d="M41.6,55.5C41.6,55.5,41.6,55.6,41.6,55.5C41.7,55.5,41.6,55.5,41.6,55.5z"/>
						<path fill="#202020" d="M15.7,77.2C15.7,77.2,15.7,77.2,15.7,77.2C15.7,77.2,15.7,77.2,15.7,77.2z"/>
						<path fill="#202020" d="M18.9,68.6l-0.1,0.1c0,0,0,0.1,0,0.1L18.9,68.6z"/>
						<path fill="#202020" d="M80.8,52C80.8,51.9,80.8,51.9,80.8,52C80.7,51.8,80.8,51.9,80.8,52z"/>
						<path fill="#202020" d="M117.3,74.9c0.8-0.2-1.1,0.8,0.1,0.4C117.3,75.3,118.3,74.6,117.3,74.9z"/>
						<path fill="#202020" d="M13.4,62.4c0.1-0.1,0.1-0.2,0.2-0.3C13.5,62.3,13.5,62.4,13.4,62.4z"/>
						<path fill="#202020" d="M117.4,75.3L117.4,75.3l0.1,0C117.5,75.3,117.5,75.3,117.4,75.3z"/>
						<path fill="#202020" d="M95.8,61.8c0,0-0.1,0-0.2-0.1C95.6,61.8,95.7,61.8,95.8,61.8z"/>
						<path fill="#202020" d="M83.9,55.4l0.2,0.3C84,55.5,84,55.4,83.9,55.4z"/>
						<path fill="#202020" d="M102.4,59.4c0.2,0,0.2,0,0.5-0.1c0,0,0,0-0.1,0C102.7,59.3,102.6,59.4,102.4,59.4z"/>
						<path fill="#202020" d="M109.3,58.6c0,0-0.1,0-0.1,0c-0.1,0-0.2,0-0.2,0c0,0,0.1,0,0.2,0C109.2,58.6,109.3,58.6,109.3,58.6z"
							/>
						<path fill="#202020" d="M36.1,85.3c-0.1-0.1-0.2-0.2-0.2-0.3C35.9,85.2,34.9,84.9,36.1,85.3z"/>
						<path fill="#202020" d="M13.4,62.7c0-0.1,0-0.1,0-0.2C13.4,62.5,13.3,62.6,13.4,62.7C13.3,62.7,13.3,62.7,13.4,62.7z"/>
						<path fill="#202020" d="M102.3,57.8c0,0,0.3-0.1,0.6-0.1c0.3,0,0.6-0.1,0.6-0.1C103.1,57.6,102.7,57.7,102.3,57.8z"/>
						<path fill="#202020" d="M82.6,91l-0.2-0.1C82.5,91,82.6,91,82.6,91z"/>
						<path fill="#202020" d="M106.9,57.1c0.2,0,0.4,0.1,0.7,0.1c0,0,0.1,0,0.1-0.1C107.7,57.1,106.9,57,106.9,57.1z"/>
						<path fill="#202020" d="M35.8,85.1L35.8,85.1L35.8,85.1z"/>
						<path fill="#202020" d="M28.6,83.7c1.1,0.2,0.5-0.2,0.8-0.3c1.3,0.2,0.5,0.3,1,0.5c0.8,0.1,1.5,0,2,0.1c0,0.1,0.1,0.1,0,0.1
							c0.9,0,2.4,0.6,3.4,0.7c0.1,0,0.1,0.1,0.1,0.1c-0.1-0.2-0.1-0.3,0-0.4c0.4,0.2,0.9,0.2,1,0.4c-0.3-0.1-0.3-0.1-0.5-0.1
							l0.5,0.1c0.3,0.4-0.7-0.2-0.7,0c0.9,0.3,2,0.6,2.7,1c0,0.3-1.6-0.7-0.8-0.1c0,0-0.2-0.1-0.5-0.3c-0.3-0.1-0.5-0.3-0.5-0.3
							c0.6,0.7-0.6-0.3-0.1,0.4c1.3,0.7,1.6,0.6,2.7,1.5c0.3,0.1,0-0.2,0.4-0.1c0.9,0.5,1.1,1,1.3,1.3c0.2,0.3,0.3,0.6,0.9,1.1
							c0.4,0.2,0.7,0.1,1.4,1l-0.5-0.1c1,1.1,0.9,0.4,1.9,1.6c-0.3-0.1-0.9-0.8-0.8-0.6c0.6,0.9,0.6,0.4,1.2,1l0,0.3
							c0.6,0.5,1.4,1,2.2,1.5c0.8,0.4,1.7,0.7,2.6,1c-0.1,0-0.5,0,0,0.2c2.4,0.5,5.1,0.5,7.3,0.2l0.8-0.4c0.2,0,0.4,0,0.2,0.1
							c0.9-0.2,0-0.1,0.4-0.3c0.5-0.1,0.7-0.1,0.4,0.1c1.4-0.6,3.9-1.8,5.5-2.2L64.5,93c1.2-0.4,1.1-0.9,2.2-1.2l-0.2,0.1
							c2.4-1,5.1-2.1,7.1-2.2c0.2-0.2,0.8-0.3,1.4-0.3c0.6-0.1,1.2-0.1,1.2-0.3c1.4,0.2,1.1,0.2,3,0.6c0.5,0.1,0.8-0.1,1.5,0.1
							l-0.1,0.2c0,0,0.2,0,0.4,0.1c0.2,0,0.5,0.1,0.5,0.1l0.3,0.5c0,0,0.6,0.2,0.6,0.2c-0.2-0.1-0.4-0.3-0.3-0.4
							c0.9,0.4,1.9,1.5,1.8,1.6c0,0,0.5,0.3,1,0.7c0.5,0.3,1.1,0.7,1.1,0.7c-0.1,0-0.5-0.2-0.8-0.3c1.3,0.6,0.1,0.4,1.3,0.8
							c-0.1-0.1,0.1-0.1,0.2-0.1c0.3,0.2,0.8,0.5,1.4,0.6c0.6,0.2,1.3,0.2,1.9,0.1l-0.2,0.2c1,0,2-0.2,3-0.5c1-0.2,1.9-0.5,2.9-0.7
							c-0.7,0.1-0.6-0.2-0.1-0.4l0.3,0.2c0.3-0.2-0.6,0.1,0.1-0.3c0.7-0.2,0.6,0.1,0.2,0.3l0.9-0.3c0.1,0.1-0.1,0.1-0.2,0.2
							c0.3-0.2,1.6-0.2,2.1-0.5l0.1,0.1c2-0.5,2.8-0.8,4.4-1.3c0-0.2,0.6-0.3,1-0.6c1.2-0.3,2.5-0.5,3.9-0.9c1-0.4,0.2-0.2,0.7-0.5
							c0.1,0.2,1.5-0.3,0.8,0.1c1.7-0.6,2.2-0.6,4.3-1.6c-0.3,0-0.5,0.1-0.4,0c0.4-0.2,0.9-0.3,0.9-0.2l-0.1,0.1
							c1.1-0.7,2.5-1.5,3.3-3c0.8-1.4,0.7-3.2,0.2-4.2l0.1,0.1c0,0-0.2-0.5-0.5-1c-0.3-0.5-0.6-0.9-0.6-0.9
							c-0.5-0.9,0.4,0.5,0.2-0.2c-0.3-0.4-0.6-0.8-0.8-1.1c-0.1-0.1-0.2-0.2-0.2-0.3c0.2-0.1,0.3-0.1,0.4-0.2
							c0.4-0.2,0.8-0.4,1.2-0.7c1.5-0.2,4.5-2.3,6.3-2.8l-0.2-0.1c0.4-0.3,0.6-0.2,0.9-0.3c-0.1-0.1-0.5,0.1-0.3-0.1
							c0.9-0.5,1.9-1,2.8-1.5c0.5-0.2,1-0.5,1.5-0.7c0.5-0.3,1.1-0.5,1.6-1.1c0.3-0.3,0.5-0.7,0.6-1.1c0.1-0.4,0-0.9-0.1-1.3
							c-0.3-0.8-0.7-1.3-1.1-1.7c-0.8-0.8-1.6-1.6-2.4-2.3c-0.6-0.5-0.9-0.5-1.2-0.6c-0.3-0.1-0.6-0.2-1.4-0.9l0.6,0.1
							c-2.8-1.6-5.9-3.2-9-3.8c0.2,0,0.2-0.1,0.5,0c-0.3-0.2-0.9-0.3-1.4-0.4c-0.5-0.1-1-0.1-1,0c-0.5-0.1-0.1-0.1-0.4-0.3
							c-0.6-0.2-1.7,0-2-0.2c-0.1,0,0.2,0,0.3,0c-0.2,0-0.7,0-1.1-0.1c-0.4,0-0.7,0-0.5,0.1c-0.6-0.1-1.2-0.1-1.7-0.1
							c-0.5,0-1.1,0.1-1.5,0c-0.6,0.2-2.1,0.1-2.2,0.4c0-0.4-2.1,0.1-2.8,0.4c0.2-0.2-0.7,0.1-0.4-0.1c-0.8,0.2-1.6,0.5-1.4,0.6
							c-0.8,0.1-1.6,0.4-2.2,0.7c-0.6,0.3-1.2,0.6-1.6,0.5c-1.1,0.5-2.1,0.8-3.1,0.7c-1-0.1-2.1-0.4-3-0.9c0.1-0.1,0.6,0.1,1.2,0.3
							c0.5,0.2,1,0.3,1,0.1c-1.8-0.4-3.1-0.9-4.7-2.1c-0.4-0.3,0.3,0.1,0.5,0.1c-1.8-1.1-3-2.5-4.3-3.8c0,0,0.2,0.1,0.3,0.2
							c-0.2-0.3-0.5-0.7-0.6-0.6l0.2,0.3c0.2,0.6-1.2-0.9-1.4-0.9c0.7,0.3-1-1.6,0-1.1c-0.2-0.2-0.4-0.4-0.4-0.3
							c-0.2-0.3-0.2-0.4,0.1-0.2c-0.9-1-0.7-0.6-1.5-1.5c0.1,0,0.3,0.1,0.4,0.2c-0.5-0.4-1.1-0.8-2-1.4c0.1,0,0-0.1,0.3,0.1
							c-0.8-0.5-1.7-0.7-2.6-0.7c-0.9,0-1.7,0.3-2.6,0.5c0.5-0.5-0.7,0.1-0.8-0.1l-1,0.4l0.4,0c-0.9,0.3-1.6,0.7-2.3,0.8l0.6-0.3
							c0,0-0.4,0.1-0.8,0.3c-0.4,0.1-0.8,0.2-0.8,0.2s0.2,0,0.5-0.1c0.2,0,0.5-0.1,0.5-0.1c-0.8,0.4,0.2,0.3-1,0.5
							c0.2-0.1-0.9,0.2-1.4,0.2l0,0c-0.4,0.2-0.8,0.4-1.5,0.5c-0.2,0,0.1-0.3-0.1-0.3c-0.4,0.3-2,0.5-2.5,0.9
							c0.2-0.1,0.2-0.2,0.1-0.2l-0.3,0.3c-0.4,0-0.5,0-0.4-0.1c-1.2,0.2,0.5,0.3-1,0.4c0.1,0,0.1-0.1,0.3-0.1
							c-1.5,0.2-2.8,0.6-4.2,0.8c-0.4-0.2,1.2-0.3,0.7-0.4c-1.9,0.4-4,0.9-5.9,1.1l0.4,0c-0.2,0.4-1.4,0-2.4,0.3
							c0.2-0.1,0.3-0.2,0.2-0.2c-1.3,0.1-2.7,0.4-4.6,0.8l0.2-0.1c-0.8,0-2,0.2-2.9,0.2c-0.2,0.1-0.7,0.2-0.4,0.3
							c-2.6-0.3-4.9,0.9-7.2,0.7c0.3,0,0.6-0.2,0.4-0.1l-1.9,0.3c0.2,0.1,0.3,0.1,0.7,0.1c-0.2,0.1-0.8,0.3-1.3,0.3
							c0.9-0.2,0-0.3-0.4-0.3c0.1,0-0.1,0.1,0,0.2c-1.1-0.1-0.1,0.3-1.5,0.4l0.1-0.1c-0.5,0.1-1,0.3-1.5,0.4
							c-0.3-0.2,0.5-0.2,0.5-0.3c-0.8,0.1-1.5,0.6-2.2,0.5c0.3-0.1,0.8-0.2,1.1-0.3c-0.8-0.1-0.9,0-1.5,0.1l0.1-0.2l-1.3,0h0.3
							c-0.9,1-2,0.6-3.2,1.2c1.2-0.6,0.2-0.1,0.2-0.4c-0.3,0-0.9,0.1-0.7,0c-0.6,0.3-1.1,0.1-1.9,0.6c-0.1-0.1-0.7,0.2-0.6,0
							c-0.8,0.2,0.2,0.1,0.2,0.2c-1.2,0.5-3,0.4-4.7,1.4c-0.7,0.4-1.1,0.7-1.4,1c-0.3,0.3-0.7,0.6-1.1,1.2c-0.4,0.3,0.1-0.5,0.1-0.5
							c-0.7,0.5-1.1,1-1.4,1.7c0-0.2-0.1-0.1-0.3,0.1c-0.3,0.6,0,0.5-0.3,1.2c0-0.2-0.1-0.4-0.1-0.7c-0.2,0.7-0.3,1.5-0.1,2.3
							c-0.1,0.2-0.2-0.5-0.3-0.8c0,0.5,0.1,1.1,0.3,1.6c0.2,0.5,0.5,0.8,0.6,0.9c0,0-0.2-0.5-0.2-0.5c0.1,0.3-0.1,0.2-0.2,0
							c-0.4-0.7-0.2-1.1-0.2-1.1c0,0,0.1,0.5,0.1,0.5c0.1-0.3,0-0.8,0-1.4c0-0.6,0.1-1.3,0.4-1.8c0,0,0,0.1,0,0.3c0,0.1,0,0.3,0,0.3
							c0,0,0.3-1.1,0.3-1.1c0.2-0.2,0.4-0.2,0.2,0.3c0.5-0.5,0.3-0.6,0.8-1c0.1,0,0.1,0,0,0.1c0,0,0.1-0.1,0.2-0.3
							c0.1-0.1,0.2-0.3,0.2-0.3c-0.1,0.1,0.2,0.1-0.1,0.3c1-0.7,1.6-1.4,2.1-1.4L17.4,60c1.6-0.8,0.1-0.3,1.2-1c0,0,0.3,0.1,0.5,0.1
							c0.3,0.1,0.5,0.1,0.5,0.1l0.1-0.3c0.2,0,0.5-0.1,0.5,0c0.6-0.3-0.1-0.1,0.2-0.3c0.9,0,2.4-0.7,2.7-0.4c0.3-0.2-0.9,0.1,0-0.3
							c0.4,0.3,1.1-0.3,1.9-0.3c-0.2,0.2-1,0.3-0.2,0.3c0.4-0.4,1.6-0.3,2.3-0.5c0-0.3,1.5-0.4,2.6-0.7c-0.1,0.1,2.2-0.2,3.3-0.3
							l0,0c0.2-0.3,1.3-0.4,2.1-0.6c0,0.2-0.1,0.2-0.6,0.4l0.8-0.1c0.2-0.1,0.4-0.2,0.9-0.3l-0.2,0.2c1-0.2,2-0.5,3.3-0.5
							c0.1-0.2-1.1-0.4,0.3-0.7c0.1,0.1,0.1,0.3-0.2,0.3c0.1,0,0.4-0.1,0.7-0.1l-0.5,0.2c0.6,0,0.3-0.2,0.8-0.2
							c0,0.1,0.4,0.1,0.3,0.2c-0.1,0-0.4,0-0.6,0.1c0.5,0,1.2,0,1.4,0c-0.1-0.1,0-0.2,0.4-0.3c1-0.1,0.4,0.1,1,0.1
							c0.2-0.1,0.9-0.1,0.9-0.3c0.3,0,0.4,0.2,0.5,0.2c0.5-0.2,2.5-0.3,1.8-0.3H46c0,0,0.1,0,0.1,0h0h0c1.7-1,3.6-0.4,5.3-0.7l0,0
							c1-0.2,2.3-0.4,3-0.6c0.3,0,0.7,0,0.6,0.1c0.8-0.2,0.9-0.3,2-0.3c-0.8,0.2,0.3,0.1-0.8,0.2c1-0.1,1.3,0,2.3-0.4
							c-0.3,0.2,0.8,0.1,1.3,0l-0.7,0c0.5-0.1,1-0.2,1.5-0.2l-0.2,0.3c2.1-0.1,3.7-1.1,5.3-1c0.5-0.3-1.1,0.1-0.7-0.2
							c1-0.2,2-0.1,2.3-0.1c1.3-0.2,1.1-0.6,2.5-0.9c-0.2,0-0.4-0.2,0.6-0.5c0.9-0.2,1.2,0,0.7,0.3c-0.2,0.1-0.3,0.1-0.3,0
							C70.4,50.9,70,51,70.4,51l0.1-0.1c0.5,0,1.8-0.4,1.5-0.2c0.7-0.3,0.3-0.2-0.3-0.1c1.2-0.2,1.9-0.6,3.1-0.9
							c-0.2,0-0.4,0-0.2-0.1c0.9-0.2,1.1-0.3,1.2-0.4c0.1-0.1,0.1-0.2,0.7-0.3c0.7,0.1-0.2,0.3,0.9,0.2c0.6,0.2,0.1,0.2-0.1,0.3
							c1-0.1,1.6,0.6,2,1c0,0-0.4-0.2-0.4-0.2c0.3,0.1,0.5,0.3,0.7,0.5l-0.1-0.3c0.2,0.2,0.4,0.4,0.4,0.5c0.3,0.2,0-0.4,0.6,0
							c0.3,0.4,1,1,0.9,1.3c-0.8-1.2-0.1,0.2-0.9-0.7c0.2,0.2,0.3,0.4,0.5,0.7c0,0.1-0.1,0-0.1-0.1c0.7,1.2,0.6,0.3,1.4,1.6
							c-0.2-0.1,0,0.4,0.2,0.6c-0.4-0.5,0-0.4,0.4,0c0.5,0.8,0.7,0.8,1,1.2l-0.3-0.5c0.2,0.1,0.5,0.5,1,0.9c0,0.1-0.5-0.4-0.3-0.2
							c0.7,0.4,1,1.4,1.9,2c0.3,0.4-0.1,0.2,0.2,0.5c1,0.6,0.9,1,2,1.6c-0.2-0.3-0.3-0.3,0.5,0c0,0-0.5-0.2-0.9-0.5
							c-0.4-0.3-0.9-0.6-0.9-0.6s0.3,0.1,0.6,0.3c0.3,0.1,0.6,0.3,0.6,0.3c-0.5-0.3-1.1-0.7-1.4-0.9c0.6,0.3,0.5,0.3,0.4,0
							c0.5,0.7,1.4,0.9,2.2,1.5l-0.2,0.3c0.6,0.5,1.2,0.7,1.9,1c0.7,0.2,1.5,0.4,2.5,0.6c0,0-0.2,0-0.3-0.1c-0.2,0-0.3-0.1-0.3-0.1
							c0.3-0.1,1.2,0.2,1.9,0c-0.1,0.1,0.4,0.2,0.7,0.2c0-0.1,1.5-0.3,1.5-0.7c0,0,0.2,0,0.4-0.1C97.8,61,98,61,98,61
							c1.4-0.5,1.4-1,2.8-1.4c-0.4,0.3,0.3,0.2-0.6,0.6c0.4-0.1,0.9-0.3,0.8-0.4c0.3,0,1.2-0.5,1.7-0.5c0.2-0.1,0.2-0.3,0.7-0.4
							c0.1,0,0,0.1,0,0.1c0-0.1,0.8-0.2,0.3-0.3c1.5,0.1,4.1-0.5,5.4-0.1c1,0,2.3,0,3.2,0.1c-0.1,0,0,0.1-0.2,0
							c1.3,0.3,0.9-0.3,2.3,0.1c0.7,0.4-0.8,0-0.4,0.1c0.1,0.2,0.5,0.3,1,0.4c0.5,0.1,1.2,0.2,1.6,0.5l-0.2,0
							c0.3,0.2,0.8,0.3,1.3,0.4c0.5,0.1,1.1,0.2,1.7,0.5c0,0-0.1,0,0,0.1c0.9,0.1,2.4,0.7,3.5,1.2c-0.4,0-0.5-0.2-0.4,0.1
							c0.5,0.3,0-0.3,1,0.2c0.2,0.3,0.9,0.7,0.8,1c0,0-0.9-0.5-0.9-0.5c0.2,0.2,0.4,0.4,0.7,0.5c0.3,0.2,0.6,0.3,0.8,0.5l-0.1,0.1
							c1.3,0.8,1.4,0.7,2.7,1.8l-0.1-0.2c0.8,0.4,0.4,0.6,1.2,1.1l0,0.4c0.2,0.2,0.6,0.5,0.9,0.9c0.3,0.4,0.3,1,0,1.4
							c0.1-0.3,0.2-0.7,0-1c-0.1-0.3-0.4-0.7-0.7-0.9c0.2,0.2,0.4,0.6,0.5,0.8c0.1,0.3,0,0.5,0.1,0.7c0.1-0.2,0-0.4,0.1-0.5
							c0.1,0.2,0.1,0.6-0.1,0.9c-0.3,0.4-0.7,0.7-1.2,0.9c-0.1-0.6-2.9,1.3-3.8,1.3c-1.8,1.1-3.8,1.8-6,3c1,0-0.6,0.3-0.3,0.7
							c-0.5,0.3-0.7,0.4-0.8,0.4c0,0-0.4,0.1-0.8,0.3c-0.2,0.1-0.4,0.1-0.6,0.2c-0.2,0.1-0.4,0.1-0.4,0.1c-0.3,0.1-0.2,0,0.1-0.2
							c0.2-0.1,0.2-0.1,0.3-0.2c0.1,0,0.1-0.1,0.1-0.1c-0.2,0.1-0.6,0.3-0.8,0.4c-0.2,0.1-0.3,0.1-0.4,0.1c-0.2,0-0.3,0-1.1,0.3
							c0.3,0,0.1,0.1-0.2,0.3c0.3,0.3,0.6,0.8,1,1.4l-0.7-1.3c0.1,0,0.1,0,0.2-0.1c0,0-0.1,0.1-0.1,0.1c1.9,2.3,1,2,2,3.4l-0.4-0.4
							c0.2,0.3,0.6,1,0.8,1.7c0.2,0.7,0.3,1.4,0.5,1.7c-0.1,0.1-0.2,0.3-0.2,0c-0.1,0.9-0.5,1.8-1.2,2.5c-0.7,0.7-1.7,1.2-2.5,1.4
							l0.1-0.2c-0.3,0.2-0.6,0.4-1.1,0.5c0,0,0.1-0.2-0.1-0.1c-0.2,0.1-0.9,0.5-1.5,0.6l0.4-0.2c-2.1,0.5-3.1,1.2-4.8,1.7
							c-0.1-0.3-1.7,0.1-2.5,0.2l0-0.1c-2.4,0.6-4,1.3-6.2,2c-0.7,0-1.9,0.3-3.2,0.6c-1.3,0.3-2.7,0.7-3.7,0.7c0.3,0,0,0.3-0.4,0.3
							c-0.5,0-1.4,0.2-1.2-0.1l0.2,0c-0.3-0.3-1.2-0.4-1.8-0.8l-0.3,0.3c-0.8-0.7-1.9-1.7-3-2.4c-0.6-0.4-1.2-0.7-1.7-1
							c-0.5-0.2-1-0.5-1.3-0.7c-0.3,0-0.6-0.1-0.9-0.2c-0.3,0-0.6-0.1-0.9-0.1l0.1-0.2c-1.6-0.3-2.4-0.3-4.4,0l0.4-0.2
							c-1.1,0.1-1.3,0.8-2.3,1l-0.4-0.2c-1.8,0.4-3.7,0.8-5.3,1.8c0-0.1,0-0.2,0.3-0.3c-0.8,0.3-3.2,1.1-2.7,1.4
							c-0.1-0.2-1.7,0.7-2.6,1.2l0.1-0.2c-0.7,0.5-0.7,0.6-1.7,1.1c-0.3,0.1-0.3-0.1,0.1-0.1c-0.9,0.2-0.6,0.4-1.7,0.6l0.4-0.2
							c-0.9,0.2-0.8,0.3-1.3,0.6c-0.6,0.2-1.7,0.3-1.9,0.1c-0.1,0.1-0.6,0.3-1.1,0.3c-0.1-0.1,0.1-0.1,0.2-0.2
							c-1.5,0-2.3,0.3-3.3-0.1c0-0.1-0.1-0.1-0.2-0.1c1.2,0.2,2.2,0.2,2.1,0.2c0-0.2-0.9-0.3-0.2-0.5c-0.7,0.2-2.1,0.2-3-0.1
							c0,0-0.1-0.1-0.1-0.1l0.1,0c-0.2-0.1-0.4-0.1-0.6-0.2c-0.3-0.1-0.4-0.2-0.7-0.4c0-0.2-0.9-0.5-1.3-0.8
							c-0.1,0.2-0.6-0.2-0.2,0.3c-0.1-0.1,0.1,0,0.4,0.2c0.1,0,0.1,0.1,0.2,0.1l0,0c0.3,0.2,0.6,0.4,1.1,0.5
							c-0.4-0.1-0.8-0.2-1.2-0.5c-0.3,0-0.6-0.1-0.7-0.1c-0.4-0.6-1.3-1.6-1.3-1.8c-1.2-0.9-2.6-2.5-3.6-3c-0.4-0.3-0.3-0.4-0.4-0.6
							c0.2,0.1,0.4,0.4,0.6,0.4c-0.7-0.6-2-1.8-2.4-1.6c-0.9-0.7,0.7,0.2-0.7-0.7l0.2,0c-1.2-1-2.5-1.4-3.7-1.7
							c-1.3-0.3-2.6-0.5-4.1-1.1c0.2,0.1,0.3,0.1,0.4,0.2c-1.8-0.6-3.8-0.8-5.7-1.2c-1.9-0.4-3.8-0.8-5.4-1.7
							c-0.9-0.5-1.1-0.4-1.7-0.6l-0.1-0.3c0,0-0.3-0.1-0.5-0.2c-0.3-0.1-0.5-0.2-0.5-0.2c-0.7-0.4-1-1-1.3-1.6
							c-0.3-0.6-0.6-1.3-0.9-2.1c0,0-0.1,0.3-0.1,0.3c-0.1-0.3-0.2-0.9-0.2-1.3c0-0.4,0-0.8,0.1-0.7c0-0.1-0.1-0.2,0-0.5l0.1,0
							c0,0,0-0.1,0-0.3c0-0.2,0-0.4,0.1-0.6c0-0.2,0.1-0.4,0.1-0.6c0-0.2,0.1-0.3,0.1-0.3c0.3-0.6,0.4-0.4,0.5-0.4
							c0,0,0.1,0,0.2-0.1c0.1-0.1,0.3-0.3,0.6-0.5c0.1-0.1,0.2-0.2,0.4-0.4c0.1-0.1,0.3-0.3,0.4-0.4c0.3-0.2,0.5-0.4,0.4-0.4
							c-0.3,0.1-0.7,0.2-0.8,0.1c0,0,0.1-0.1,0.3-0.2c0.2-0.1,0.3-0.1,0.3-0.1c0-0.2,0.1-0.4,0-0.5c0-0.1-0.2-0.1-0.4-0.1
							c-0.2,0-0.6,0.1-1,0.3c0,0-0.1,0.1-0.2,0.2c-0.1,0.1-0.2,0.2-0.3,0.3c-0.2,0.3-0.4,0.5-0.4,0.5c0,0-0.4,0.2-0.4,0.2
							c0,0,0.7-0.9,0.8-0.9c-0.6,0.3-0.8,0.8-0.9,1.2c-0.1,0-0.3,0.2-0.4,0.4c0,0-0.1,0.3-0.1,0.7c0,0.3-0.1,0.7-0.1,0.7
							c-0.2,0.1-0.1-0.6-0.4,0.2c0,0.6,0.4-0.5,0.3,0.5c-0.2,0.6-0.4,0.4-0.2,1.1c-0.1,0.1-0.1-0.1-0.2-0.3c0,0.7,0.1,1.7,0.4,2
							c0,0.3,0.1,0.9,0.3,1.3c0.2,0.4,0.4,0.8,0.2,0.8c0.2,0.1,0.8,0.8,1.2,1.2c-0.5-0.3-0.1,0.2,0.3,0.6c0.5,0.5,1,0.9,0.8,1
							c0.4,0.1,1,0.5,1.7,0.8c0.7,0.4,1.4,0.7,2.1,0.8c-0.1,0-0.2,0-0.3-0.1c0.7,0.3,0.9,0.5,1.3,0.7c0.2-0.2,1.3,0,1.9,0
							c0.8,0.5-0.6,0.2-0.4,0.5c0-0.2,1.6,0.1,1.3-0.1c0.6,0.3,0.6,0.2,0.8,0.5c0.2-0.3,0.6,0.1,1.2,0c0.9,0.4,0.2,0.4,1.3,0.5
							C29.5,83.8,28.6,83.7,28.6,83.7z M50.4,95.1L50.4,95.1c-0.2-0.1-0.4-0.1-0.5-0.2C49.9,95,50.1,95.1,50.4,95.1z M52.6,95.5
							c-0.3,0-0.6-0.1-1-0.1c-0.1-0.1,0-0.1,0.2-0.1C51.7,95.3,52.2,95.4,52.6,95.5z M48.7,93c0.3,0.1,0.4,0.2,0.4,0.3
							c-0.1-0.1-0.3-0.1-0.5-0.2c0,0,0,0,0,0C48.6,93,48.6,93,48.7,93z"/>
						<path fill="#202020" d="M48.1,92.9c0,0-0.1,0-0.1-0.1C48,92.9,48.1,93,48.1,92.9c0.1,0.1,0.1,0.1,0.1,0.1
							C48.2,93,48.1,93,48.1,92.9z"/>
						<path fill="#202020" d="M46.1,54.7L46.1,54.7C46.2,54.7,46.1,54.7,46.1,54.7C46.1,54.7,46.1,54.7,46.1,54.7z"/>
						<polygon fill="#202020" points="80.7,90.1 80.7,90.1 80.5,90.1 						"/>
						<path fill="#202020" d="M34.4,55.5c0,0-0.1,0-0.2,0C34.2,55.4,34.3,55.5,34.4,55.5z"/>
						<path fill="#202020" d="M29.3,56.2l-0.7,0.1C28.9,56.3,29.2,56.2,29.3,56.2z"/>
						<path fill="#202020" d="M25.5,56.8C25.4,56.9,25.4,56.9,25.5,56.8L25.5,56.8L25.5,56.8z"/>
						<path fill="#202020" d="M84.7,54.3c0,0,0.1,0.1,0.1,0.1C85.1,54.6,84.9,54.5,84.7,54.3z"/>
						<path fill="#202020" d="M68.6,50.5c0.2-0.1,0.4-0.2,0.5-0.2C68.8,50.3,68.6,50.4,68.6,50.5z"/>
						<path fill="#202020" d="M102.1,57.8L102.1,57.8c0,0,0.1,0,0.1,0L102.1,57.8z"/>
						<path fill="#202020" d="M70,50.1c-0.3,0-0.6,0.1-0.8,0.2C69.4,50.2,69.7,50.1,70,50.1z"/>
						<path fill="#202020" d="M13,66.5l0.1,0.2c0,0,0,0,0,0L13,66.5z"/>
						<path fill="#202020" d="M13.1,66.7l0.1,0.2C13.2,66.8,13.1,66.8,13.1,66.7z"/>
						<path fill="#202020" d="M13.5,67.3c0,0-0.3-0.4-0.3-0.4C13.3,67.1,13.4,67.3,13.5,67.3z"/>
						<path fill="#202020" d="M14.4,61.2L14.4,61.2C14.3,61.1,14.3,61.1,14.4,61.2z"/>
						<path fill="#202020" d="M15.6,60c-0.3,0.2-0.9,0.5-1.3,1l0,0.1C14.5,60.8,15.4,60.3,15.6,60z"/>
						<path fill="#202020" d="M22.1,58.5l-1.3,0.3c0.2,0,0.6,0,0,0.2C22.5,58.8,20.4,58.9,22.1,58.5z"/>
						<path fill="#202020" d="M26.1,57.7c-0.7,0.2,0,0.1,0,0.2C26.5,57.7,26.6,57.7,26.1,57.7z"/>
						<path fill="#202020" d="M55.3,53.8l0,0.2C55.8,53.8,55.3,53.9,55.3,53.8z"/>
						<polygon fill="#202020" points="60.8,52 60.2,52 60,52.2 						"/>
						<polygon fill="#202020" points="64.3,52.6 64,52.7 64.9,52.5 						"/>
						<path fill="#202020" d="M108.1,58.8l-0.2-0.2C107.6,58.6,107.5,58.8,108.1,58.8z"/>
						<path fill="#202020" d="M127.4,65.4c0.1,0.2,0.5,0.7,0.8,0.9C127.9,65.9,127.6,65.5,127.4,65.4z"/>
						<path fill="#202020" d="M86.2,91.6l0.4,0.2C86.6,91.8,86.4,91.7,86.2,91.6c-0.1-0.1-0.3-0.2-0.3-0.2L86.2,91.6z"/>
					</g>
				</g>
			</g>
		</g>
	</g>
	<g>
		<g>
			<g>
				<g>
					<g>
						<path fill="#202020" d="M73,71.1c0-0.1,0-0.2-0.1-0.2l-0.1,0.2L73,71.1z"/>
						<path fill="#202020" d="M72.4,70.6c-0.1,0.1-0.2,0.3-0.2,0.5c0.1-0.2,0.1-0.1,0.2-0.4c0.1,0,0.2,0.1,0.1,0.2
							c0-0.1,0.1,0.1,0.2-0.1c-0.1-0.2-0.3-0.2-0.4,0C72.4,70.7,72.4,70.7,72.4,70.6z"/>
						<path fill="#202020" d="M63.9,70.3L63.9,70.3C64,70.3,63.9,70.3,63.9,70.3z"/>
						<path fill="#202020" d="M59.9,67.1C59.9,67.1,60,67.1,59.9,67.1C59.9,67.1,59.9,67.1,59.9,67.1z"/>
						<path fill="#202020" d="M58.9,66.7C59,66.7,59,66.7,58.9,66.7C59,66.7,58.9,66.7,58.9,66.7z"/>
						<path fill="#202020" d="M63.9,70.3l-0.1-0.1C63.8,70.2,63.9,70.2,63.9,70.3z"/>
						<path fill="#202020" d="M71.2,71.2C71.2,71.2,71.3,71.2,71.2,71.2C71.3,71.2,71.2,71.2,71.2,71.2L71.2,71.2z"/>
						<path fill="#202020" d="M66.2,70.1L66.2,70.1C66.3,70.1,66.3,70,66.2,70.1L66.2,70.1z"/>
						<path fill="#202020" d="M68,70.1c0,0-0.1,0.2-0.1,0.3c0-0.1,0.1-0.1,0.1-0.1C68,70.2,68,70.1,68,70.1z"/>
						<path fill="#202020" d="M70.8,70.4L70.8,70.4C70.9,70.4,70.8,70.4,70.8,70.4z"/>
						<path fill="#202020" d="M64.9,70.1C64.9,70,64.9,70,64.9,70.1C64.9,70,64.9,70,64.9,70.1z"/>
						<path fill="#202020" d="M32,67.7C32,67.7,32,67.6,32,67.7C32,67.7,32,67.7,32,67.7z"/>
						<polygon fill="#202020" points="30,66.9 30,66.9 30,66.8 						"/>
						<path fill="#202020" d="M57,66.6L57,66.6C57.1,66.6,57,66.6,57,66.6z"/>
						<path fill="#202020" d="M47.8,76.9c0.2,0.2-0.3,0.2,0,0.4C47.8,77.2,48.1,77,47.8,76.9z"/>
						<path fill="#202020" d="M71.2,71.2C71.1,71.2,71.1,71.2,71.2,71.2C71.1,71.2,71.2,71.2,71.2,71.2z"/>
						<path fill="#202020" d="M47.8,77.3L47.8,77.3L47.8,77.3C47.9,77.3,47.8,77.3,47.8,77.3z"/>
						<path fill="#202020" d="M53.5,69.1C53.5,69.1,53.6,69.1,53.5,69.1C53.6,69.1,53.5,69.1,53.5,69.1z"/>
						<path fill="#202020" d="M56.1,67.4L56.1,67.4C56.1,67.4,56.1,67.4,56.1,67.4z"/>
						<path fill="#202020" d="M52.8,70.6C52.8,70.6,52.8,70.6,52.8,70.6L52.8,70.6C52.8,70.6,52.8,70.6,52.8,70.6z"/>
						<polygon fill="#202020" points="52.2,72 52.2,72 52.2,72 						"/>
						<path fill="#202020" d="M35.6,69.2c0-0.1,0.1-0.1,0.1-0.2C35.6,69.1,35.4,69,35.6,69.2z"/>
						<path fill="#202020" d="M71.2,71.1C71.2,71.1,71.2,71.2,71.2,71.1L71.2,71.1C71.2,71.1,71.2,71.1,71.2,71.1z"/>
						<path fill="#202020" d="M54.2,71.4l-0.1,0.2C54.1,71.5,54.2,71.5,54.2,71.4z"/>
						<path fill="#202020" d="M37.3,78.1l-0.1,0C37.2,78.1,37.3,78.1,37.3,78.1z"/>
						<path fill="#202020" d="M53.8,72.2c-0.1,0-0.1,0-0.2,0.1c0,0,0,0,0,0L53.8,72.2z"/>
						<path fill="#202020" d="M35.7,69L35.7,69L35.7,69z"/>
						<path fill="#202020" d="M34.3,68.6c0.2,0.1,0.2-0.2,0.3-0.3c0.2,0.1,0,0.2,0,0.4c0.2,0,0.4-0.1,0.5,0c0,0,0,0.1-0.1,0.1
							c0.3-0.1,0.4,0.3,0.7,0.2c0,0,0,0,0,0.1c0.1-0.1,0.2-0.2,0.2-0.3c0.1,0.1,0.2,0,0.1,0.2c0,0-0.1,0-0.1,0l0.1,0
							c-0.1,0.2-0.2,0-0.3,0.1c0.2,0.1,0.5,0.1,0.5,0.3c-0.2,0.2-0.3-0.2-0.3,0.1c0,0-0.1-0.2-0.1-0.2c-0.2,0.4-0.1-0.1-0.3,0.3
							c0.1,0.2,0.3,0.2,0.4,0.4c0.1,0,0.1-0.1,0.3-0.2c0.4,0.2-0.3,0.6,0.1,0.7c0.2,0,0.5-0.1,0.4,0.2l-0.3,0c0.1,0.3,0.4,0,0.4,0.3
							c-0.1,0-0.2-0.2-0.2-0.1c-0.1,0.2,0.2,0.1,0.2,0.2l-0.2,0.1c0.1,0.3,0.4,0.5,0.5,0.9c-0.1,0-0.2-0.1-0.2,0
							c0.2,0.4,0,0.9-0.2,1.3l0.2,0.2c0,0-0.1,0.1-0.1,0c-0.1,0.1,0.1,0,0.2,0.1c0,0.1-0.1,0.1-0.2,0c0.1,0.3,0.2,0.9-0.1,1.1l0-0.1
							c-0.2,0.2,0.3,0.4,0,0.5l0-0.1c-0.1,0.1-0.1,0.2-0.2,0.4c-0.1,0.2-0.2,0.4-0.4,0.6c-0.3,0.4-0.6,0.7-1.2,1.1
							c0.2,0,0,0.2-0.2,0.4c0,0,0.1,0.1,0.2,0.1c0.1,0,0.2,0,0.4-0.1c0.1,0.2-0.1,0.3,0.5,0.5c0.2,0.1,0.6-0.2,0.8-0.2L36.4,78
							c0,0,0.5-0.2,0.5-0.2c0,0,0,0.3,0,0.3l0.3,0c-0.1,0-0.1-0.1-0.1-0.2c0.2,0,0.4,0,0.5,0.1c0.2,0.1,0.3,0.2,0.2,0.2l0.5-0.1
							c0,0.1-0.1,0.1-0.2,0.2c0.3-0.2,0,0.2,0.3,0.1c0-0.1,0-0.1,0-0.2c0.1,0.1,0.4,0.2,0.6,0.1l-0.1,0.1c0.4,0.1,0.8,0,1.3,0
							c-0.2-0.1-0.1-0.3,0-0.4l0,0.2c0.1-0.1-0.1-0.1,0.1-0.3c0.2,0,0.1,0.3,0,0.3l0.2-0.1c0,0.1,0,0.1-0.1,0.2
							c0.1-0.1,0.3,0.3,0.5,0l0,0.1c0.4,0,0.6,0,1,0c0-0.2,0.2-0.1,0.3-0.3c0.3,0.1,0.5,0.2,0.9,0.2c0.2-0.1,0.1-0.2,0.2-0.3
							c0,0.2,0.3,0.2,0.2,0.3c0.4,0,0.5,0,1-0.2c-0.1-0.1-0.1-0.1-0.1-0.2c0.1,0,0.2,0.1,0.2,0.2l0,0c0.5-0.3,1.2,0.5,1.7,0.1l0,0
							l0.4-0.2c0.2,0-0.1,0.1,0,0.2c0.5-0.3,0.8,0,1.1-0.2c0.3,0.5,1.1-0.1,1.5,0.2l0-0.1c0.1-0.1,0.1,0.1,0.2,0.1
							c0-0.1-0.1-0.1-0.1-0.2c0.5-0.1,1-0.1,1.7-0.5c0.7-0.4,1.1-1,1.3-1.5c0.1-0.4-0.6-0.4-0.2-0.7l0.2,0.2c-0.1-0.7,0.4-1.3,0.3-2
							c0,0.1,0.1,0.1,0.1,0.1c0.2-0.1,0.2-0.5,0-0.5c0-0.1,0.1,0,0.2,0c0.1-0.1-0.1-0.4,0.1-0.4c0,0,0,0.1,0,0.1
							c0-0.1,0.2-0.4-0.1-0.4c0.2-0.2,0.1-0.5,0.3-0.6c-0.2-0.2,0.3-0.3,0-0.5c0.3,0.1,0.4-0.2,0.3-0.4c0.1,0.1,0.1-0.1,0.2,0.1
							c0.1-0.1,0.1-0.3-0.1-0.4c0.5-0.1,0.1-0.7,0.6-0.5c0.1-0.5,0.3-0.9,0.6-1.2c0.2,0.2-0.3,0.3-0.1,0.6c0.2-0.4,0.2-0.7,0.5-0.9
							c0.1,0,0,0.1,0,0.2c0.2-0.3,0.6-0.4,0.9-0.7c0,0,0,0.1,0,0.1c0.1,0,0.2,0,0.1-0.2l0,0.1c-0.2-0.1,0.1-0.5,0.1-0.6
							c0,0.4,0.4,0,0.4,0.5c0,0,0.1-0.1,0-0.2c0.1,0,0.1,0.1,0.1,0.2c0.2-0.1,0.1-0.3,0.3-0.3c0,0.1,0,0.1,0,0.2
							c0.1-0.2,0.2-0.3,0.4-0.3c0,0,0,0.1,0,0.1c0.3-0.1,0.5-0.4,0.9-0.3c-0.1,0.3,0.1,0.1,0.1,0.4l0.2-0.1L59.1,68
							c0.2,0,0.3-0.1,0.5,0L59.4,68c0,0,0.3,0,0.3,0c0,0-0.1-0.2-0.1-0.1c0.2-0.1,0.1-0.3,0.3-0.2c-0.1,0,0.2,0.1,0.2,0.2l0,0
							c0.1,0,0.2-0.1,0.3,0c0,0.1-0.2,0.2-0.2,0.3c0.2-0.2,0.4,0.2,0.6,0c-0.1,0-0.2,0.1-0.2,0.2l0.2-0.1c0,0.1,0,0.1-0.1,0.2
							c0.1,0.2,0.2-0.3,0.3,0c0,0,0,0-0.1,0c0.2,0.2,0.5,0.3,0.6,0.6c-0.2,0.2-0.2-0.2-0.3,0.1c0.3,0.3,0.8,0.5,1,0.9l0-0.1
							c0.3-0.2,0.1,0.4,0.4,0.4c-0.1,0-0.2,0.1-0.1,0.1c0.3,0.3,0.7,0.3,1.2,0.3l-0.1,0.1c0.2,0.1,0.5,0.1,0.7,0.2
							c0.1-0.1,0.2-0.1,0.1-0.2c0.6,0.6,1.1-0.3,1.6,0.2c-0.1,0-0.1,0.1-0.1,0.1l0.4-0.1c0-0.2-0.1-0.1-0.1-0.2
							c0.1-0.1,0.2-0.2,0.3-0.2c-0.2,0.1,0,0.3,0.1,0.4c0-0.1,0-0.1,0-0.2c0.2,0.3,0-0.3,0.3-0.1l0,0.1c0.1,0,0.2-0.2,0.3-0.1
							c0.1,0.2-0.1,0.1-0.1,0.2c0.2,0,0.3-0.4,0.5-0.2c-0.1,0.1-0.2,0.1-0.2,0.1c0.2,0.2,0.2,0.2,0.3,0.2l0,0l0.3,0.1l-0.1-0.1
							c0.2-0.5,0.4-0.1,0.7-0.4c-0.3,0.3,0,0.2-0.1,0.4c0.1,0.1,0.2,0.1,0.2,0.2c0.1-0.2,0.2,0.1,0.4-0.1c0,0.1,0.1,0,0.1,0.2
							c0.2-0.1,0-0.1,0-0.2c0.3-0.2,0.6,0.3,1,0c0.3-0.1,0.4-0.4,0.7-0.5c0.1,0.1-0.1,0.3-0.1,0.3c0.2,0.1,0.3,0.1,0.5,0
							c0,0.1,0,0.1,0,0.2c0.1,0,0.1-0.3,0.3-0.2c0,0.1-0.1,0.2-0.1,0.3c0.1-0.1,0.3-0.2,0.5-0.3c0,0.1-0.1,0.2-0.1,0.3
							c0.2-0.1,0.5-0.1,0.5-0.3L72,70.8c0.1,0,0,0.2,0,0.2c-0.1,0.1-0.2-0.1-0.2-0.1l0.1,0c-0.1-0.4-0.4,0.1-0.7,0l0.1-0.3l-0.2,0.2
							c0-0.1-0.1-0.2,0-0.3c-0.2-0.1-0.1,0.1-0.3-0.1c0,0,0,0,0-0.1l-0.2,0.1c0-0.1,0-0.2,0.1-0.2c-0.3-0.2-0.5,0.2-0.6,0l0,0
							c-0.4,0.1,0,0.2-0.3,0.5l-0.2-0.5l0,0.2c0,0-0.1,0-0.1-0.1c-0.1,0.1,0,0.1-0.1,0.2c-0.2-0.2-0.5,0.1-0.6-0.3
							c-0.1,0.2,0.2,0.1,0,0.2c-0.1-0.4-0.2,0.1-0.4-0.1c0.1-0.2,0.2-0.1,0-0.3c-0.1,0.3-0.3-0.1-0.5,0c0,0.3-0.3,0.1-0.6,0.2
							c0-0.1-0.5-0.1-0.7-0.2l0,0c0,0.3-0.3,0.2-0.5,0.3c0-0.2,0-0.2,0.1-0.3l-0.2,0c0,0.1-0.1,0.1-0.2,0.2l0-0.2
							c-0.2,0-0.4,0.2-0.7,0.1c0,0.2,0.2,0.5-0.1,0.6c0-0.1,0-0.3,0.1-0.3c0,0-0.1,0.1-0.1,0l0.1-0.2c-0.1-0.1-0.1,0.1-0.2,0.1
							c0-0.1-0.1-0.1-0.1-0.2c0,0,0.1,0.1,0.1,0c-0.1,0-0.3-0.1-0.3-0.2c0,0.1,0,0.2-0.1,0.2c-0.2,0-0.1-0.2-0.2-0.2
							c-0.1,0.1-0.2,0-0.2,0.2c-0.1,0-0.1-0.1-0.1-0.2c-0.1,0.1-0.5,0-0.4,0.2l0,0l0,0l0,0l0,0c-0.4,0.2-0.7-0.2-0.9-0.3l0-0.1
							c-0.2,0-0.4-0.2-0.6-0.2c0,0,0-0.2,0.1-0.2c-0.1-0.1-0.2,0-0.3-0.3c0.2,0.1,0.1-0.1,0.2,0.1c-0.1-0.2,0-0.3-0.3-0.4
							c0.2,0,0.1-0.3,0-0.3l0,0.2c-0.1-0.1-0.1-0.2-0.2-0.3l0.2-0.1c0-0.3-0.3-0.4-0.5-0.5c-0.2-0.1-0.4-0.2-0.4-0.5
							c-0.2,0.1,0.2,0.3-0.1,0.3c-0.2-0.2-0.2-0.6-0.3-0.6c-0.3-0.3-0.4,0.2-0.7,0c0,0.1,0,0.3-0.3,0.3c-0.2-0.1-0.2-0.4,0-0.4
							c0.1,0,0.1,0,0.1,0.1c0.1,0,0.2,0,0.1-0.1L60,67c-0.1-0.1-0.4-0.2-0.3-0.3c-0.2,0-0.1,0.1,0,0.2c-0.3-0.2-0.5-0.1-0.8-0.2
							c0,0.1,0.1,0.2,0,0.1c-0.4-0.1-0.2,0.2-0.5,0.2c-0.2-0.1,0.1-0.3-0.2-0.2c-0.2-0.1-0.1-0.2,0-0.3c-0.3,0.2-0.5-0.1-0.7-0.1
							l0.1-0.1c-0.1,0.1-0.2,0.1-0.2,0.1l0.1,0.2c-0.1,0-0.2,0-0.2-0.1c-0.1,0.1,0.1,0.3,0,0.4c-0.1-0.1-0.3,0.2-0.4,0
							c0.4,0-0.1-0.2,0.2-0.3c-0.1,0-0.1,0.1-0.2,0c0,0,0,0,0-0.1c-0.4-0.1-0.1,0.3-0.4,0.4c0-0.1-0.2-0.2-0.2-0.2
							c0.1,0,0.1,0.2,0,0.3c-0.2,0-0.2,0.2-0.3,0.2l0.1,0c0,0.1-0.1,0.2-0.2,0.3c-0.1-0.1,0.1-0.1,0-0.1c0,0.3-0.5,0-0.6,0.2
							c-0.1,0-0.1-0.2-0.2-0.2c-0.1,0.3-0.4,0-0.5,0.3c0.2,0.1,0.2,0,0.1,0.3c0,0,0.3-0.4,0.3-0.4c0,0,0,0.1-0.1,0.2
							c0,0.1,0,0.2,0,0.2c0.1-0.1,0.2-0.3,0.3-0.3c0,0.2-0.1,0.1,0.1,0.2c-0.3-0.1-0.2,0.3-0.5,0.3l-0.3-0.3
							c-0.4,0.1-0.3,0.6-0.7,0.8l0.1-0.1c0.1,0.2-0.2,0.2-0.2,0.4c-0.1-0.1-0.2-0.1-0.3-0.1c0.1,0.1-0.2,0.2,0,0.4l-0.3,0
							c-0.3,0.2,0.1,0.5-0.1,0.8c-0.1-0.2-0.2-0.1-0.2-0.3c-0.1,0.1-0.1,0.2,0,0.2c-0.1,0,0,0.4-0.2,0.4c0,0.1,0.2,0.2,0.1,0.3
							c0,0-0.1,0-0.1,0c0.1,0,0,0.2,0.2,0.2c-0.5,0.1-0.4,0.8-0.8,0.9c0,0.2-0.1,0.5-0.2,0.7c0,0-0.1,0,0-0.1
							c-0.2,0.2,0.3,0.3,0.1,0.6c-0.3,0.1-0.1-0.2-0.2-0.1c-0.5-0.1-0.1,0.4-0.4,0.5l0-0.1c-0.2,0.1,0,0.4-0.1,0.7c0,0,0,0-0.1,0
							c0.2,0.2,0.2,0.6,0.1,0.9c-0.2-0.1-0.1-0.1-0.2-0.1c0,0.1,0.3,0,0.3,0.3c-0.1,0-0.2,0.2-0.4,0.2l0-0.2c-0.3,0-0.1,0.3-0.1,0.4
							l-0.1-0.1C50.9,75.7,51.2,76,51,76h0.1c0.2,0-0.2,0.2-0.1,0.4l-0.3-0.1c0,0.1,0,0.5-0.1,0.6c0-0.2,0-0.4,0-0.6
							c0,0.1-0.1,0.2-0.1,0.3c0,0,0-0.1,0-0.1c0.1,0.2,0,0.4-0.2,0.5c-0.1-0.3-0.2-0.2-0.4-0.2c-0.2,0-0.4,0-0.5-0.2
							c-0.4,0.2-0.9,0-1.4,0.1c0.2,0.4-0.2,0-0.1,0.5c-0.1,0-0.2,0-0.2,0L47.5,77c-0.1-0.1,0.1-0.1,0.1-0.2c-0.3,0-0.1-0.2-0.3-0.3
							c0,0.2-0.1,0.2-0.2,0.2l0.2,0.2c-0.4,0.2-0.3-0.3-0.7-0.1l0.1-0.1c-0.2,0.1-0.7,0-0.9,0.4c0,0-0.1-0.2,0-0.2
							c-0.5,0-1,0.4-1.4,0.2l0-0.1c-0.1,0-0.1,0.2-0.3,0.1c0,0,0-0.1,0-0.1c0,0-0.2,0.2-0.3,0.1l0.1-0.1c-0.4-0.1-0.7,0.3-1.1,0.3
							c0-0.3-0.3-0.4-0.5-0.5l0,0c-0.5-0.1-0.9,0.2-1.4,0.3c-0.3-0.4-1-0.2-1.5-0.5c0.1,0.1,0,0.2-0.1,0.3c-0.1-0.1-0.3,0.2-0.3-0.1
							l0,0c-0.1-0.3-0.3-0.2-0.5-0.3l-0.1,0.4c-0.1-0.1-0.2-0.2-0.4-0.3c-0.1,0-0.2,0-0.2,0c0,0-0.1,0-0.1,0c-0.1,0-0.3,0.1-0.1-0.1
							c-0.1,0.1-0.2,0.1-0.3,0.1l0.2-0.2c0-0.1,0-0.1,0-0.1l0,0l0.2-0.1l0,0l0,0c0,0-0.9,0.3-0.8,0.2l0.4-0.1c0-0.1,0.2-0.1,0.2-0.1
							c0,0,0,0,0-0.1c0,0,0,0,0,0c0,0,0-0.1,0-0.2c0,0,0.1,0.1,0.1,0.1c0.1-0.2,0.5-0.7,0.1-0.7c0.3,0.1,0.2-0.4,0.1-0.7l0.2,0.1
							c-0.2-0.3-0.3-0.3-0.3-0.6c0-0.1,0.2,0,0.1,0.1c0.1-0.2-0.2-0.2,0-0.4l0.1,0.1c0.1-0.2,0-0.2-0.1-0.3
							c-0.1-0.1,0.1-0.4,0.3-0.4c-0.1,0-0.2-0.2-0.2-0.3c0.1,0,0.1,0,0.1,0.1c0.1-0.4-0.2-0.5-0.1-0.8c0.1,0,0.1,0,0.1-0.1
							c0,0.3,0,0.5,0,0.5c0.2,0,0.2-0.2,0.5-0.1c-0.2-0.2-0.5-0.5-0.4-0.7c0,0,0,0,0.1,0l0,0c0-0.1,0-0.1-0.1-0.1c0-0.1,0-0.1,0-0.2
							c0.1-0.1,0-0.3,0-0.4c-0.2,0.1-0.2-0.1-0.3,0.1c0,0,0,0,0.1,0.1c0,0,0,0,0,0l0,0c0,0.1,0.1,0.2,0.1,0.3
							c-0.1-0.1-0.2-0.1-0.1-0.3c-0.1,0-0.3-0.1-0.3-0.1c0.2-0.2,0.3-0.6,0.4-0.7c-0.2-0.3-0.4-0.8-0.8-0.8c-0.1-0.1,0-0.2,0.1-0.2
							c0.1,0,0.1,0.1,0.2,0.1c-0.2-0.1-0.4-0.5-0.6-0.4c0-0.3,0.3,0,0-0.3l0.1,0c0-0.4-0.4-0.5-0.7-0.6c-0.3-0.1-0.6-0.2-0.8-0.6
							c0,0.1,0,0.1,0,0.1c-0.6-0.7-1.6-0.7-2.3-1.3c-0.2-0.1-0.3,0-0.5,0.1l0-0.2l-0.3,0.2c-0.4,0.1-0.6-0.6-1-0.3l0.1,0.1
							c-0.2,0-0.5,0.1-0.5-0.1c0,0,0,0.2-0.1,0.1l0-0.1c0,0-0.4,0.2-0.4,0.2c-0.3,0,0-0.5-0.5-0.4c-0.2,0.1-0.4,0.4-0.3,0.5
							c0.1,0,0.2,0,0.2,0.1L30,66.9c0.1,0.3,0.1,0.7,0.4,0.8l0.2-0.2l0.1,0.1c0,0-0.2,0-0.2,0c0.1,0.1,0.2,0,0.2-0.1
							c0,0.1,0.1,0.1,0.1,0.2l0.2-0.3c0,0.1-0.1,0.3,0.1,0.3c0.1-0.2-0.1-0.3,0-0.4c0.1,0.1,0.1,0.3,0.2,0.1c0,0.1,0,0.1,0,0.2
							c0.1-0.1,0.3-0.1,0.3-0.2c0.1,0.2,0.4,0,0.3,0.3c0-0.1,0.2-0.2,0.3-0.2c-0.2,0.3,0.4,0.1,0.3,0.5c0.2-0.3,0.5-0.1,0.8-0.2
							c0,0-0.1,0.1-0.1,0c0.1,0.1,0.1,0.2,0.2,0.3c0.1-0.3,0.3-0.3,0.5-0.4c0.1,0.3-0.2,0.3-0.3,0.5c0.1-0.2,0.3-0.1,0.4-0.3
							c0,0.2,0.1,0.1,0,0.4c0.2-0.3,0.1,0,0.3-0.1c0.1,0.2-0.1,0.3,0.1,0.3C34.5,68.6,34.3,68.6,34.3,68.6z M37.2,72L37.2,72
							C37.2,72,37.2,71.9,37.2,72C37.2,71.9,37.2,71.9,37.2,72z M37.3,72.4c0-0.1,0-0.1,0-0.2c0.1,0,0.1,0,0.1,0
							C37.3,72.2,37.3,72.3,37.3,72.4z M38.5,71.3c0,0.1,0,0.1,0,0.1C38.5,71.3,38.4,71.3,38.5,71.3l-0.1,0
							C38.4,71.2,38.5,71.2,38.5,71.3z"/>
						<path fill="#202020" d="M38.2,71.2C38.2,71.2,38.2,71.2,38.2,71.2C38.2,71.2,38.2,71.2,38.2,71.2L38.2,71.2L38.2,71.2z"/>
						<path fill="#202020" d="M64,70.3L64,70.3C64,70.3,64,70.3,64,70.3C64,70.3,64,70.3,64,70.3z"/>
						<polygon fill="#202020" points="36.4,78.1 36.4,78 36.3,78 						"/>
						<path fill="#202020" d="M66.4,71C66.5,71,66.5,71,66.4,71C66.5,71,66.5,71,66.4,71z"/>
						<path fill="#202020" d="M67.5,71l0.2,0.1C67.6,71.1,67.6,71.1,67.5,71z"/>
						<path fill="#202020" d="M68.4,71.1C68.4,71.1,68.4,71.1,68.4,71.1L68.4,71.1L68.4,71.1z"/>
						<path fill="#202020" d="M56.7,68.6C56.7,68.6,56.7,68.6,56.7,68.6C56.6,68.6,56.7,68.6,56.7,68.6z"/>
						<path fill="#202020" d="M60.1,68C60,68,60,68,60,68C60,68.1,60,68.1,60.1,68z"/>
						<polygon fill="#202020" points="54.2,71.4 54.2,71.4 54.2,71.4 						"/>
						<path fill="#202020" d="M59.8,68c0,0.1,0.1,0.1,0.2,0.1C59.9,68,59.9,68,59.8,68z"/>
						<path fill="#202020" d="M72,71.2L72,71.2C72,71.2,72,71.2,72,71.2L72,71.2z"/>
						<path fill="#202020" d="M72,71.2L72,71.2C72,71.2,72,71.2,72,71.2z"/>
						<path fill="#202020" d="M72.1,71.1L72.1,71.1C72.1,71.2,72.1,71.2,72.1,71.1z"/>
						<path fill="#202020" d="M70.9,71.1L70.9,71.1C70.9,71.2,70.9,71.2,70.9,71.1z"/>
						<path fill="#202020" d="M70.5,71.2c0.1,0,0.2,0.2,0.3,0.1l0-0.1C70.8,71.3,70.6,71,70.5,71.2z"/>
						<path fill="#202020" d="M69.1,70.3l0.3,0.1c0-0.1-0.1-0.2,0-0.2C69.1,69.9,69.5,70.3,69.1,70.3z"/>
						<path fill="#202020" d="M68.3,70.2c0.2,0,0-0.1,0-0.2C68.2,70.1,68.1,70.1,68.3,70.2z"/>
						<path fill="#202020" d="M62.6,69.4l0.1-0.1C62.7,69.2,62.7,69.3,62.6,69.4z"/>
						<polygon fill="#202020" points="61.2,69 61.2,69.2 61.3,69.1 						"/>
						<path fill="#202020" d="M61.6,67.6L61.6,67.6c0.1,0-0.2-0.1-0.2-0.1C61.4,67.5,61.6,67.6,61.6,67.6z"/>
						<path fill="#202020" d="M52.1,71.7l0.2,0.1C52.3,71.7,52.1,71.5,52.1,71.7z"/>
						<path fill="#202020" d="M50.9,76.1c-0.1,0-0.2,0.1-0.2,0.2C50.8,76.2,50.9,76.2,50.9,76.1z"/>
						<polygon fill="#202020" points="38.4,76.5 38.5,76.5 38.3,76.5 						"/>
					</g>
				</g>
			</g>
		</g>
	</g>
	<g>
		<g>
			<g>
				<g>
					<g>
						<path fill="#202020" d="M60.2,81.7c-0.1,0-0.1,0.2,0.1,0.2l0.1-0.2L60.2,81.7z"/>
						<path fill="#202020" d="M60.9,82.3c0.2-0.1,0.4-0.2,0.3-0.5C61,82,61,81.9,60.8,82.1c-0.1,0-0.2-0.1-0.2-0.2
							c-0.1,0-0.2-0.1-0.3,0c0.1,0.2,0.3,0.3,0.6,0.2C61,82.2,60.9,82.2,60.9,82.3z"/>
						<path fill="#202020" d="M73.1,84.1L73.1,84.1C73,84.1,73.1,84.1,73.1,84.1z"/>
						<path fill="#202020" d="M80.8,82.9C80.7,82.9,80.7,82.9,80.8,82.9C80.7,82.9,80.8,82.9,80.8,82.9z"/>
						<path fill="#202020" d="M82.1,82.4C82,82.5,82,82.5,82.1,82.4C82,82.5,82,82.5,82.1,82.4z"/>
						<path fill="#202020" d="M73.1,84.1l0.2,0.1C73.3,84.2,73.2,84.2,73.1,84.1z"/>
						<path fill="#202020" d="M62.7,82.1c0,0-0.1,0-0.1,0L62.7,82.1L62.7,82.1z"/>
						<path fill="#202020" d="M69.7,84.2L69.7,84.2c-0.1,0-0.1,0.1-0.1,0.1L69.7,84.2z"/>
						<path fill="#202020" d="M67.1,83.9c0.1,0,0.1-0.2,0.1-0.3c0,0.1-0.1,0.1-0.1,0.1C67.1,83.8,67.1,83.9,67.1,83.9z"/>
						<path fill="#202020" d="M63.1,83L63.1,83C63,83,63.1,83,63.1,83z"/>
						<path fill="#202020" d="M71.6,84.3C71.6,84.4,71.6,84.4,71.6,84.3C71.6,84.4,71.6,84.3,71.6,84.3z"/>
						<path fill="#202020" d="M61.8,61.4C61.8,61.4,61.8,61.3,61.8,61.4C61.8,61.4,61.8,61.4,61.8,61.4z"/>
						<polygon fill="#202020" points="58.9,60 58.9,60 59,59.9 						"/>
						<path fill="#202020" d="M84.2,81.4C84.2,81.4,84.2,81.4,84.2,81.4C84.2,81.4,84.2,81.4,84.2,81.4z"/>
						<path fill="#202020" d="M94.5,70.8c0.1,0.3-0.5-0.1-0.3,0.3C94.2,71.1,94.7,71.1,94.5,70.8z"/>
						<path fill="#202020" d="M62.7,82.1c0,0,0.1,0,0.1,0C62.8,82.1,62.7,82.1,62.7,82.1z"/>
						<path fill="#202020" d="M94.2,71.1L94.2,71.1L94.2,71.1C94.2,71.2,94.2,71.2,94.2,71.1z"/>
						<path fill="#202020" d="M88.8,79.2C88.8,79.2,88.8,79.2,88.8,79.2C88.8,79.2,88.8,79.2,88.8,79.2z"/>
						<path fill="#202020" d="M85.2,80.3L85.2,80.3C85.2,80.3,85.2,80.3,85.2,80.3z"/>
						<path fill="#202020" d="M90.8,78.8c0.1,0,0.1,0,0.1,0c0,0,0,0,0,0C90.9,78.8,90.9,78.8,90.8,78.8z"/>
						<path fill="#202020" d="M93,78.9C93,78.9,93,78.8,93,78.9l-0.1,0L93,78.9z"/>
						<path fill="#202020" d="M68.6,60.9c-0.1-0.1-0.1-0.1-0.1-0.2C68.6,60.9,68.3,60.9,68.6,60.9z"/>
						<path fill="#202020" d="M62.6,82.2C62.7,82.1,62.7,82.1,62.6,82.2L62.6,82.2C62.6,82.1,62.6,82.2,62.6,82.2z"/>
						<path fill="#202020" d="M90.9,77.2l0.4,0C91.2,77.3,91.1,77.2,90.9,77.2z"/>
						<path fill="#202020" d="M81.3,66L81.3,66C81.2,66,81.2,66,81.3,66z"/>
						<path fill="#202020" d="M92.4,77.3c0.1,0.1,0.1,0.1,0.2,0.1c0,0,0,0,0,0L92.4,77.3z"/>
						<path fill="#202020" d="M69,60.7L69,60.7L69,60.7z"/>
						<path fill="#202020" d="M66.3,61.4c0.3,0,0.1-0.3,0.2-0.4c0.4-0.1,0.2,0.2,0.4,0.3c0.2-0.1,0.4-0.3,0.6-0.4c0,0,0.1,0.1,0,0.1
							c0.2-0.2,0.8-0.1,1.1-0.4c0,0,0,0,0,0.1c-0.1-0.1-0.1-0.3-0.1-0.4c0.1,0,0.3-0.2,0.3,0c-0.1,0-0.1,0.1-0.1,0.1l0.2-0.1
							c0.2,0.2-0.2,0.1-0.2,0.3c0.3-0.1,0.6-0.3,0.9-0.3c0.1,0.2-0.5,0.1-0.2,0.3l-0.4-0.1c0.3,0.4-0.2,0,0.1,0.4
							c0.5,0,0.5-0.2,1-0.1c0.1-0.1,0-0.2,0.1-0.3c0.7-0.3,0.6,0.6,1,0.2c0.1-0.2,0.2-0.5,0.5-0.3l-0.1,0.3c0.4,0,0.3-0.4,0.7-0.2
							c-0.1,0.1-0.4,0.1-0.3,0.1c0.3,0.2,0.2-0.2,0.5-0.1l0,0.2c0.5,0,1-0.1,1.5-0.1c0,0.1-0.1,0.1,0,0.2c0.7,0,1.4,0.3,1.9,0.6
							l0.3-0.1c0.1,0,0.1,0.1,0,0.1c0.2,0.2,0.1-0.1,0.2-0.2c0.1,0,0.1,0.2,0,0.2c0.5,0,1.3,0.1,1.6,0.5l-0.1-0.1
							c0.3,0.2,0.6,0.1,0.7,0.1h-0.1c0.6,1,1.4,1,1.5,1.6c0.3-0.1,0.3,0.7,0.7,0.5c0.1,0.5-0.1,0.4,0.1,1c0,0.1,0.3,0.1,0.4,0.3
							L81,65.4c0,0,0.3,0.2,0.3,0.2l-0.2,0.2l0.1,0.2c0-0.1,0-0.2,0.1-0.2c0.2,0.2,0.1,0.7,0,0.8l0.4,0.7c-0.1,0-0.2-0.1-0.2-0.2
							c0.3,0.3-0.2,0.1,0.1,0.4c0-0.1,0.1,0,0.2,0c-0.1,0.2,0,0.7,0.2,1l-0.2,0c0.2,0.6,0.7,1.3,1.3,1.8c-0.2-0.2,0.1-0.4,0.3-0.3
							l-0.1,0.2c0.2,0-0.1-0.2,0.2-0.2c0.2,0.2,0,0.3-0.2,0.3c0,0,0.3,0.2,0.3,0.2c0,0.1-0.1,0.1-0.2,0.1c0.2,0,0.4,0.6,0.7,0.4
							l0,0.1c0.7,0.3,1.1,0.3,1.7,0.4c0-0.2,0.3-0.1,0.4-0.3c0.4,0.1,0.8,0.3,1.3,0.3c0.3-0.1,0.1-0.2,0.2-0.3
							c0,0.2,0.5,0.2,0.3,0.3c0.6-0.1,0.7-0.1,1.4-0.2c-0.1-0.1-0.2-0.1-0.1-0.2c0.1,0,0.3,0.1,0.3,0.2l0,0c0.8-0.3,1.7,0.5,2.2,0.2
							l0,0c0,0,0.6-0.1,0.6-0.1c0.2,0.1-0.2,0.1,0,0.3c0.3-0.1,0.5,0,0.7,0.1c0.1,0.1,0.2,0.1,0.3,0.1c0.1,0.1,0.2,0.1,0.3,0.1
							c0,0.3,0.2,0.5,0.4,0.7c0.2,0.2,0.4,0.5,0.4,0.8l0.1-0.1c0.2,0.1,0,0.2,0,0.3c0.1-0.1,0-0.2,0.1-0.1c0.3,0.5,0.5,1.1,0.6,1.8
							c0.1,0.3,0.1,0.7,0.2,1l0.2,0.5l0.1,0.1c0,0,0,0,0,0c0,0,0,0,0,0c-0.1,0,0.8,0.1,0.5,0.2c0,0-0.4-0.1-0.4-0.1
							c0.1,0,0.1,0,0.1,0.1c0.1,0.1,0.1,0.1,0,0.1c0,0-0.1,0-0.1,0c0,0-0.1,0-0.1,0c0,0-0.3,0.1-0.5,0.1c0.1-0.1,0.1-0.1,0.1-0.1
							c-0.2-0.2-0.7,0-0.7,0.1c-0.1,0,0-0.1-0.1-0.2c-0.2-0.1-0.5,0.2-0.6,0c0,0,0.1-0.1,0.1-0.1c-0.1,0.1-0.6,0-0.5,0.2
							c-0.3-0.1-0.7,0.1-1-0.1c-0.2,0.2-0.6-0.1-0.7,0.2c0-0.3-0.6-0.3-0.9-0.1c0.1-0.1-0.2-0.1-0.1-0.2c-0.3,0-0.5,0.1-0.5,0.2
							c-0.5-0.4-1,0.3-1.3-0.1c-0.8,0.3-1.5,0.5-2.2,0.8c-0.1-0.3,0.8-0.3,0.7-0.6c-0.7,0.3-1,0.7-1.6,0.9c-0.2,0,0-0.2,0.1-0.2
							c-0.6,0.4-1.2,0.6-1.7,1c0,0,0-0.1,0.1-0.1c-0.1,0.1-0.3,0.1-0.2,0.2l0.1-0.1c0.3,0.1-0.2,0.6-0.1,0.7
							c-0.1-0.5-0.5,0.2-0.6-0.4c-0.1,0.1-0.1,0.2,0,0.2c-0.1,0-0.2,0-0.1-0.1c-0.3,0.3-0.1,0.3-0.4,0.5c0-0.1,0-0.1,0-0.2
							c-0.1,0.2-0.2,0.4-0.5,0.6c0,0-0.1-0.1,0-0.1c-0.4,0.3-0.6,0.8-1.1,1c0-0.3-0.2,0-0.4-0.2l-0.2,0.2l0.2,0
							c-0.2,0.1-0.4,0.4-0.6,0.4l0.1-0.2l-0.4,0.3l0.3,0c-0.2,0.2,0.3,0.3-0.1,0.4c0.1-0.1-0.3,0.1-0.3,0v0c0,0.1-0.3,0.3-0.5,0.3
							c-0.1-0.1-0.1-0.3-0.2-0.3c0,0.3-0.6,0.3-0.7,0.5c0-0.1,0-0.2,0-0.2L78.6,83c-0.1,0-0.2,0-0.2-0.2c-0.4,0.1,0.2,0.3-0.3,0.3
							c0,0,0,0,0.1-0.1c-0.4,0-0.8,0.3-1.3,0.3c-0.2-0.2,0.3-0.1,0.2-0.3c-0.6,0.1-1.2,0.5-1.8,0.4l0.1,0c-0.1,0.4-0.4-0.2-0.7,0
							c0.1,0,0.1-0.2,0.1-0.2c-0.4-0.1-0.8,0.1-1.4,0.2l0.1-0.1c-0.2-0.1-0.6-0.1-0.9-0.1c-0.1,0.1-0.2,0.1-0.1,0.2
							c-0.8-0.6-1.5,0.2-2.2-0.3c0.1,0,0.2-0.1,0.1-0.1l-0.6,0c0,0.2,0.1,0.1,0.2,0.2c-0.1,0.1-0.3,0.2-0.4,0.1
							c0.3-0.1,0-0.3-0.1-0.4c0,0.1,0,0.1,0,0.2c-0.3-0.3-0.1,0.3-0.5,0.1l0-0.1c-0.2,0-0.3,0.1-0.5,0.1c-0.1-0.2,0.2-0.1,0.2-0.2
							c-0.2,0-0.5,0.3-0.7,0.1c0.1,0,0.3,0,0.4-0.1c-0.2-0.2-0.2-0.2-0.4-0.2l0,0l-0.4-0.1l0.1,0.1c-0.4,0.5-0.6,0-1.1,0.3
							c0.4-0.3,0.1-0.2,0.1-0.4c-0.1-0.1-0.2-0.2-0.2-0.2c-0.2,0.1-0.3-0.2-0.6,0c0-0.1-0.2,0-0.1-0.2c-0.3,0,0,0.1,0,0.2
							c-0.4,0.2-0.9-0.4-1.5-0.2c-0.5,0.1-0.6,0.3-1.1,0.3c-0.1-0.1,0.2-0.2,0.2-0.2c-0.2-0.1-0.4-0.2-0.6-0.1c0.1-0.1,0-0.1,0-0.2
							c-0.2,0-0.2,0.2-0.4,0.1c0.1-0.1,0.1-0.2,0.2-0.2c-0.2,0-0.5,0.1-0.7,0.1c0-0.1,0.2-0.2,0.3-0.2c-0.3,0-0.7,0-0.8,0.1l0.1,0.1
							c-0.1,0,0-0.2,0.1-0.2c0.2-0.1,0.3,0.1,0.3,0.2l-0.2,0c0.1,0.4,0.6,0.1,1,0.1l-0.2,0.3l0.4-0.2c0.1,0.1,0.1,0.3-0.1,0.3
							c0.2,0.2,0.2-0.1,0.4,0.1c0,0,0,0,0,0l0.2,0c-0.1,0.1,0,0.2-0.1,0.1c0.4,0.2,0.7-0.1,0.8,0.1l0,0c0.6,0,0.1-0.2,0.5-0.4
							l0.2,0.6l0.1-0.2c0.1,0,0.2,0,0.1,0.1c0.2-0.1,0-0.1,0.1-0.2c0.2,0.2,0.8,0,0.8,0.4c0.1-0.1-0.2-0.2,0.1-0.2
							c0,0.4,0.4,0,0.6,0.2c-0.1,0.2-0.3,0-0.1,0.2c0.2-0.3,0.5,0.1,0.7,0.1c0-0.3,0.5-0.1,0.9-0.1c0,0.1,0.7,0.2,1,0.3l0,0
							c0.1-0.3,0.4-0.2,0.7-0.2c0,0.2-0.1,0.2-0.2,0.3l0.2,0c0.1-0.1,0.1-0.1,0.3-0.1l-0.1,0.2c0.3,0,0.7-0.2,1.1,0
							c0-0.2-0.3-0.5,0.1-0.6c0,0.1,0,0.3-0.1,0.3c0,0,0.1-0.1,0.2,0L71,84c0.2,0.1,0.1-0.1,0.3-0.1c0,0.1,0.1,0.1,0.1,0.2
							c0,0-0.1-0.1-0.2,0c0.2,0,0.4,0.1,0.4,0.2c0-0.1,0-0.2,0.1-0.2c0.3,0,0.1,0.2,0.3,0.3c0.1-0.1,0.3,0,0.3-0.2
							c0.1,0,0.1,0.1,0.1,0.2c0.2-0.1,0.8,0,0.6-0.2l0-0.1l0-0.1h0h0c0.5,0,1,0.2,2,0.1v0.1c0-0.1,0.5-0.1,0.8-0.2
							c0.1,0,0.1,0.1,0.1,0.2c0.2-0.1,0.2-0.2,0.6-0.1c-0.2,0.1,0.1,0.1-0.3,0.1c0.3,0,0.4,0.1,0.7-0.1c-0.1,0.2,0.3,0.2,0.4,0.1
							l-0.3-0.1c0.2-0.1,0.3-0.1,0.5-0.1l0,0.2c0.7,0.1,1.1-0.7,1.7-0.5c0.1-0.2-0.4,0-0.3-0.2c0.3-0.1,0.7,0.1,0.8,0.1
							c0.5,0,0.2-0.5,0.7-0.6c-0.1-0.1-0.2-0.2,0-0.4c0.3-0.1,0.5,0.1,0.4,0.3c-0.1,0-0.1,0-0.1,0c-0.1,0.1-0.2,0.2,0,0.2l0-0.1
							c0.2,0,0.6-0.2,0.5,0c0.2-0.2,0-0.2-0.2-0.1c0.4-0.1,0.5-0.3,0.9-0.4c-0.1,0-0.2-0.1-0.1-0.1c0.6-0.2,0.1-0.3,0.5-0.5
							c0.3,0,0.1,0.3,0.4,0c0.2-0.1,0.2,0.2,0.1,0.3c0.2-0.3,0.6-0.3,0.8-0.4l-0.1,0.2c0.1-0.1,0.2-0.1,0.2-0.2l-0.2-0.1
							c0.1,0,0.2-0.1,0.2,0c0-0.2-0.2-0.2-0.1-0.4c0.2,0,0.3-0.3,0.5-0.2c-0.4,0.2,0.2,0.2-0.1,0.4c0-0.1,0.1-0.1,0.2-0.1
							c0,0,0,0,0,0.1c0.5-0.1,0-0.3,0.4-0.6c0,0.1,0.2,0.1,0.3,0.1c-0.2,0.1-0.2-0.1-0.1-0.3c0.3-0.1,0.2-0.2,0.4-0.3l-0.2,0
							c0-0.1,0.1-0.2,0.3-0.3c0.1,0.1-0.1,0.1,0,0.1c0.1-0.3,0.5,0,0.7-0.3c0.2,0,0.1,0.2,0.3,0.2c0.2-0.3,0.4,0,0.7-0.3
							c-0.2-0.1-0.2-0.1,0-0.3c0,0-0.1,0.1-0.2,0.2c-0.1,0.1-0.2,0.2-0.2,0.2l0.2-0.4c-0.2,0.1-0.3,0.3-0.4,0.3
							c0.1-0.2,0.1-0.2,0-0.2c0.3,0.1,0.4-0.3,0.7-0.3l0.1,0.4c0.4,0,0.6-0.4,1.2-0.5l-0.2,0c0-0.2,0.3-0.1,0.5-0.2
							c0,0.1,0.1,0.2,0.2,0.2c0-0.1,0.4,0,0.4-0.3l0.3,0.2c0.4,0,0.5-0.4,0.9-0.4c-0.1,0.2,0.1,0.2-0.2,0.4c0.1,0,0.3,0,0.3-0.1
							c0.1,0.1,0.4-0.2,0.5-0.1c0.1-0.1,0.1-0.2,0.2-0.2c0,0,0,0.1,0,0.1c0-0.1,0.3-0.1,0.1-0.2c0.4,0.4,1.3,0,1.7,0.4
							c0.3,0,0.7-0.1,1-0.1c0,0,0,0.1-0.1,0.1c0.4,0.1,0.3-0.4,0.7-0.3c0.2,0.2-0.2,0.1-0.1,0.2c0.1,0.5,0.6-0.1,0.9,0.2l-0.1,0
							c0.2,0.2,0.7-0.2,1.3-0.3c0,0,0,0,0,0.1c0.2-0.3,0.7-0.4,1.1-0.6c0.1,0.2-0.1,0.1,0.3,0.2c0.1,0,0-0.1-0.1-0.1
							c-0.1,0-0.1-0.1-0.1-0.1c0,0,0,0,0,0c0,0-0.1-0.1-0.1-0.1c0,0,0.1,0,0.2,0c0.1,0,0.1-0.1,0.3-0.1l0.3,0.3l0,0
							c0.1,0,0.2,0,0.2,0c0-0.1-0.6-0.5-0.7-0.7l0.2,0.1c-0.4-0.4-0.6-0.5-0.8-0.7c-0.2-0.1-0.4-0.3-0.5-0.6l-0.1,0.1
							c-0.4-0.1,0-0.3-0.2-0.4l0.2-0.2c-0.1-0.1-0.5-0.5-0.6-0.8c0.3,0.1,0.5,0.4,0.7,0.6c-0.1-0.2-0.2-0.6-0.4-0.6
							c0,0.1,0.1,0.1,0.1,0.2c-0.3-0.1-0.5-0.4-0.6-0.7c0.5-0.1-0.2-1,0.1-1.4c-0.5-0.6-0.6-1.4-1.3-2c-0.1,0.5-0.2-0.2-0.4,0.2
							c-0.2-0.1-0.2-0.1-0.2-0.2c0,0-0.1-0.1-0.2-0.3c-0.1-0.2-0.2-0.3-0.2-0.3c-0.1-0.2,0.2,0,0.3-0.1c-0.4-0.2-0.1-0.3-0.3-0.5
							c0,0.2-0.2,0.1-0.5,0c0,0,0.3,0.3,0.3,0.3c-0.3,0-0.4-0.1-0.5-0.3c-0.1-0.1-0.2-0.3-0.6-0.2c0,0,0.2-0.1,0.2-0.1
							c-0.3,0-1.2-0.2-1.5,0.1c-0.1-0.1-0.1-0.2,0-0.2c-0.7-0.1-1.6,0.4-2.1,0.2l0-0.1c-0.1,0-0.2,0.2-0.4,0.1c0,0,0-0.1,0-0.1
							c-0.1,0-0.3,0.2-0.5,0.1l0.1-0.1c-0.6-0.1-1,0.3-1.5,0.4c0-0.3-0.5-0.4-0.7-0.5l0,0c-0.6-0.1-1.1,0.1-1.7-0.1
							c-0.1-0.4-0.8-0.8-0.8-1.5c0,0.1-0.2,0.1-0.3,0c0-0.2-0.3-0.3-0.1-0.4l0,0.1c0.2-0.2,0.1-0.5,0-0.7L83,67
							c0.4-0.8-0.7-1.7-0.4-2.3c-0.2-0.1-0.2-0.4-0.4-0.5l0.2-0.1c-0.2-0.5-0.3-0.7-0.8-1.2l0.2,0c-0.2-0.3-0.7,0-1-0.2l0.1-0.3
							c-0.4-0.4-0.8-1-1.4-1.2c0,0,0.1-0.1,0.2,0c-0.2-0.2-0.9-0.8-1-0.4c0.1-0.2-0.6-0.3-0.9-0.3l0.1-0.2c-0.4,0.1-0.4,0.2-0.8,0.1
							c-0.1-0.1,0-0.2,0.1-0.1c-0.2-0.2-0.3,0.1-0.6-0.1l0.2-0.1c-0.3-0.1-0.3,0-0.5,0c-0.2,0-0.5-0.2-0.5-0.4
							c-0.1,0.1-0.3,0.2-0.4,0.1c0-0.1,0.1-0.1,0.1-0.1c-0.5-0.2-0.8,0.1-1.1-0.2c0-0.1,0-0.1,0-0.1c0.4,0.1,0.7,0.2,0.7,0.2
							c0-0.2-0.3-0.3,0-0.5c-0.3,0.1-0.8,0.3-1.1,0.2c0,0,0,0,0-0.1l0,0c-0.1,0-0.1,0-0.2,0c-0.1,0-0.2-0.1-0.3-0.1
							c0-0.2-0.4-0.1-0.5-0.1c0,0.2-0.2,0.2,0,0.3c0,0,0,0,0.1,0c0,0,0.1,0,0.1,0l0,0c0.1,0,0.2,0,0.4,0c-0.1,0.1-0.3,0.2-0.4,0
							c-0.1,0.1-0.2,0.2-0.2,0.3c-0.2-0.3-0.6-0.5-0.7-0.6c-0.5,0.1-1.2,0.1-1.5,0.5c-0.1,0.1-0.2-0.1-0.2-0.2c0.1,0,0.2,0,0.2-0.1
							c-0.3,0.1-0.8,0.1-0.9,0.3c-0.4-0.1,0.2-0.3-0.3-0.2l0.1-0.1c-1-0.4-1.5,0.8-2.5,0.3c0.1,0,0.1,0,0.1,0.1
							c-1.2-0.1-2.4,0.4-3.5,0.1c-0.3-0.1-0.4,0.1-0.6,0.2l-0.1-0.2l-0.3,0.3c-0.5,0.2-0.8-0.5-1.4-0.2l0.1,0.1
							c-0.2,0-0.7,0-0.6-0.1c0,0-0.1,0.1-0.2,0.1l0-0.1L60,60c-0.4-0.1,0.1-0.4-0.4-0.5c-0.2,0-0.7,0.2-0.6,0.3
							c0.1,0,0.2,0.1,0.2,0.2l-0.2,0c-0.1,0.3-0.4,0.6,0.1,0.9l0.4-0.1l0.1,0.2l-0.3,0c0.1,0.2,0.3,0.1,0.4,0c0,0.1,0.1,0.2,0.1,0.2
							l0.4-0.3c0,0.1-0.2,0.2,0,0.3c0.2-0.1-0.1-0.3,0.2-0.4c0.2,0.2,0.1,0.3,0.3,0.2c0,0.1,0,0.1-0.1,0.2c0.2-0.1,0.5,0,0.6-0.2
							c0.2,0.2,0.6,0,0.6,0.3c0.1-0.1,0.3-0.2,0.5-0.2c-0.3,0.4,0.6,0,0.6,0.4c0.2-0.3,0.8-0.2,1.2-0.4c0,0-0.1,0.1-0.1,0.1
							c0.2,0,0.3,0.1,0.4,0.2c0-0.3,0.4-0.4,0.5-0.5c0.3,0.2-0.1,0.3,0,0.6c0-0.2,0.5-0.3,0.4-0.4c0.2,0.1,0.2,0.1,0.3,0.3
							c0-0.3,0.2-0.1,0.3-0.3c0.3,0.1,0.1,0.3,0.4,0.2C66.5,61.2,66.3,61.4,66.3,61.4z M73.9,60.6L73.9,60.6c-0.1,0-0.1,0-0.2,0
							C73.8,60.6,73.8,60.6,73.9,60.6z M74.5,60.7c-0.1,0-0.2,0-0.3-0.1c0-0.1,0-0.1,0.1-0.1C74.3,60.6,74.4,60.6,74.5,60.7z
							 M73.3,59.1c0.1,0,0.1,0,0.2,0.1C73.4,59.2,73.4,59.2,73.3,59.1L73.3,59.1C73.3,59.2,73.3,59.2,73.3,59.1z"/>
						<path fill="#202020" d="M73.1,59.4C73.1,59.4,73.1,59.4,73.1,59.4C73.1,59.4,73.1,59.4,73.1,59.4L73.1,59.4L73.1,59.4z"/>
						<path fill="#202020" d="M73,84.1L73,84.1C73,84.1,73,84.1,73,84.1C73,84.1,73,84.1,73,84.1z"/>
						<polygon fill="#202020" points="81,65.5 81,65.4 80.9,65.4 						"/>
						<path fill="#202020" d="M69.4,83.2C69.4,83.2,69.4,83.2,69.4,83.2C69.4,83.2,69.4,83.2,69.4,83.2z"/>
						<path fill="#202020" d="M67.9,83l-0.2-0.1C67.8,83,67.8,83,67.9,83z"/>
						<path fill="#202020" d="M66.7,82.8C66.7,82.8,66.7,82.9,66.7,82.8L66.7,82.8L66.7,82.8z"/>
						<path fill="#202020" d="M84.4,79.2C84.4,79.2,84.5,79.2,84.4,79.2C84.5,79.1,84.5,79.1,84.4,79.2z"/>
						<path fill="#202020" d="M79.8,82.5c0-0.1,0.1-0.1,0.1-0.2C79.8,82.4,79.8,82.4,79.8,82.5z"/>
						<polygon fill="#202020" points="90.9,77.2 90.9,77.2 90.9,77.2 						"/>
						<path fill="#202020" d="M80.2,82.2c-0.1,0-0.2,0.1-0.2,0.1C80,82.3,80.1,82.3,80.2,82.2z"/>
						<path fill="#202020" d="M61.6,81.8L61.6,81.8C61.6,81.8,61.6,81.8,61.6,81.8L61.6,81.8z"/>
						<path fill="#202020" d="M61.6,81.9L61.6,81.9C61.5,81.9,61.5,81.9,61.6,81.9z"/>
						<path fill="#202020" d="M61.3,81.9l0.1,0C61.4,81.9,61.4,81.8,61.3,81.9z"/>
						<path fill="#202020" d="M63.2,82.2L63.2,82.2C63.2,82.2,63.2,82.2,63.2,82.2z"/>
						<path fill="#202020" d="M63.6,82.3c-0.1,0-0.3-0.2-0.4-0.2l0,0.1C63.3,82.1,63.5,82.4,63.6,82.3z"/>
						<path fill="#202020" d="M65.5,83.5l-0.4-0.1c0.1,0.1,0.1,0.2-0.1,0.2C65.5,83.9,65,83.4,65.5,83.5z"/>
						<path fill="#202020" d="M66.7,83.8c-0.2,0,0,0.1,0,0.2C66.8,83.9,66.9,83.9,66.7,83.8z"/>
						<path fill="#202020" d="M75.9,84.2l0,0.2C76.1,84.4,75.9,84.3,75.9,84.2z"/>
						<polygon fill="#202020" points="77.5,83.1 77.3,83 77.3,83.2 						"/>
						<polygon fill="#202020" points="78.8,84.1 78.7,84.1 79,84 						"/>
						<path fill="#202020" d="M92.6,79l0-0.2C92.5,78.8,92.4,79.1,92.6,79z"/>
						<path fill="#202020" d="M97.1,76.4c0.1-0.1,0.1-0.3-0.1-0.3C97,76.2,97,76.4,97.1,76.4z"/>
						<polygon fill="#202020" points="83.2,66.6 83.3,66.7 83.1,66.5 						"/>
					</g>
				</g>
			</g>
		</g>
	</g>
	<g>
		<g>
			<g>
				<g>
					<g>
						<path fill="#202020" d="M113.1,65.6c0,0-0.1-0.1-0.1-0.1L113.1,65.6L113.1,65.6z"/>
						<path fill="#202020" d="M112.8,65.4c0.1,0.1,0.2,0.2,0.4,0.4C113,65.6,113,65.7,112.8,65.4c0.1,0.1,0.2,0.1,0.2,0.2
							c0,0,0,0-0.1-0.1c-0.1-0.1-0.2-0.1-0.1,0C112.8,65.5,112.8,65.4,112.8,65.4z"/>
						<path fill="#202020" d="M111.7,65.9L111.7,65.9C111.7,65.9,111.7,65.9,111.7,65.9z"/>
						<path fill="#202020" d="M111.1,66.3C111.1,66.3,111,66.3,111.1,66.3C111,66.3,111,66.3,111.1,66.3z"/>
						<path fill="#202020" d="M110.8,66.2C110.8,66.2,110.8,66.2,110.8,66.2C110.8,66.2,110.8,66.2,110.8,66.2z"/>
						<path fill="#202020" d="M111.7,65.9L111.7,65.9C111.7,65.9,111.7,65.9,111.7,65.9z"/>
						<path fill="#202020" d="M113,65.9C113,65.9,113,65.9,113,65.9C113,65.8,113,65.9,113,65.9L113,65.9z"/>
						<path fill="#202020" d="M111.8,65.6L111.8,65.6C111.8,65.5,111.7,65.5,111.8,65.6L111.8,65.6z"/>
						<path fill="#202020" d="M111.9,65.4c0,0,0.1,0.1,0.2,0.2C112.1,65.5,112,65.5,111.9,65.4C112,65.4,112,65.4,111.9,65.4z"/>
						<path fill="#202020" d="M112.4,65.4L112.4,65.4L112.4,65.4z"/>
						<path fill="#202020" d="M111.6,65.6C111.6,65.6,111.6,65.6,111.6,65.6L111.6,65.6z"/>
						<path fill="#202020" d="M106.9,70.9C106.9,70.8,106.9,70.8,106.9,70.9C106.9,70.8,106.9,70.9,106.9,70.9z"/>
						<polygon fill="#202020" points="106.2,70.1 106.2,70.1 106.2,70 						"/>
						<path fill="#202020" d="M110.5,66.1L110.5,66.1C110.5,66.1,110.5,66.1,110.5,66.1z"/>
						<path fill="#202020" d="M109,67.5c0.1,0.1,0.1,0.2,0.2,0.3C109.2,67.8,109.1,67.6,109,67.5z"/>
						<path fill="#202020" d="M113,65.9L113,65.9C113,65.9,113,65.9,113,65.9z"/>
						<polygon fill="#202020" points="109.2,67.8 109.2,67.8 109.3,67.8 						"/>
						<path fill="#202020" d="M110.2,66.5C110.2,66.6,110.2,66.6,110.2,66.5C110.2,66.6,110.2,66.6,110.2,66.5z"/>
						<path fill="#202020" d="M110.6,66.5L110.6,66.5C110.6,66.5,110.6,66.5,110.6,66.5z"/>
						<path fill="#202020" d="M110.2,66.9C110.2,66.9,110.2,66.9,110.2,66.9L110.2,66.9C110.2,66.9,110.2,66.9,110.2,66.9z"/>
						<polygon fill="#202020" points="110,67 110.1,67 110.1,67 						"/>
						<path fill="#202020" d="M107.5,70.5c0,0-0.1-0.1-0.1-0.2C107.4,70.4,107.4,70.5,107.5,70.5z"/>
						<path fill="#202020" d="M113,65.8C113,65.8,113,65.9,113,65.8C113,65.9,113,65.9,113,65.8C113,65.8,113,65.8,113,65.8z"/>
						<path fill="#202020" d="M111.2,68.1L111.2,68.1C111.1,68.1,111.2,68.1,111.2,68.1z"/>
						<path fill="#202020" d="M108.8,69.6L108.8,69.6C108.8,69.6,108.8,69.6,108.8,69.6z"/>
						<path fill="#202020" d="M111.1,68.2c0-0.1-0.1-0.1-0.1-0.1C111,68.1,111,68.1,111.1,68.2L111.1,68.2z"/>
						<path fill="#202020" d="M107.4,70.3L107.4,70.3L107.4,70.3z"/>
						<path fill="#202020" d="M107.4,70.8c0,0-0.1-0.2-0.2-0.4C107.2,70.4,107.3,70.6,107.4,70.8c0-0.2-0.1-0.4-0.1-0.4
							c0,0,0,0,0.1,0.1c-0.1-0.2,0.1,0,0-0.3l0,0.1c-0.1-0.1-0.1-0.2-0.2-0.3c0,0-0.1-0.2,0,0c0,0,0,0.1,0,0.1l0-0.1
							c0.1,0.2,0,0.1,0.1,0.2c0-0.1-0.1-0.3,0-0.2c0.1,0.2,0,0.1,0.1,0.3l-0.1-0.1c0.2,0.3,0,0,0.2,0.3c0.1,0,0-0.1,0.1-0.1
							c-0.1-0.1-0.1-0.2-0.2-0.3c-0.1-0.2,0.3,0.5,0.2,0.2c-0.1-0.1-0.2-0.4-0.1-0.3l0.1,0.2c0.1,0-0.2-0.3,0-0.2c0,0.1,0,0.1,0,0.1
							c0.1,0.2-0.1-0.1,0-0.2l0.1,0.2c0-0.1,0-0.2,0-0.3c0,0.1,0.1,0.1,0.1,0.2c0-0.1,0.1,0,0.3,0l-0.1-0.2c0,0,0.1,0.1,0.1,0.1
							c0.1,0.1-0.1-0.1-0.1-0.2c0,0,0.1,0.1,0.1,0.1c-0.1-0.2-0.1-0.4,0.1-0.2l0,0.1c0.1,0.1-0.2-0.4-0.1-0.2l0,0
							c0.1,0,0.1-0.2,0.3,0.1c-0.2-0.3,0.1,0.1-0.1-0.3c0.1,0.1,0.2,0.2,0.3,0.3c0,0-0.1-0.2-0.1-0.3l0.1,0.2l-0.1-0.2l0.2,0.2
							l0-0.1c0,0-0.1-0.1-0.1-0.1c0-0.1,0.1,0.1,0.2,0.2l0-0.2c0,0.1,0.1,0.1,0.1,0.2c-0.1-0.2,0.1,0.2,0.1,0c0,0-0.1-0.1-0.1-0.1
							c0.1,0.1,0.1,0.1,0.1,0l0.1,0.1c0.1,0,0.1-0.1,0.1-0.2c-0.1,0-0.2-0.3-0.2-0.3l0.1,0.2c-0.1-0.1-0.1-0.1-0.1-0.2
							c0,0,0.2,0.2,0.2,0.3l0-0.1c0,0.1,0.1,0.1,0.1,0.2c-0.1-0.1,0.2,0.2,0-0.1l0,0.1c0.1,0,0-0.1,0.1-0.2
							c-0.1-0.2-0.1-0.1-0.1-0.3c0.1,0,0.2,0.1,0.2,0.1c0-0.1-0.1-0.1-0.1-0.2c0.1,0.1,0.1,0.1,0.2,0.2c0-0.1,0-0.1,0-0.2
							c0-0.1-0.1-0.1-0.1-0.1c0,0,0.1,0,0.1,0.1l0,0c-0.1-0.3,0.4,0.3,0.3,0l0,0l-0.1-0.2c0,0,0.1,0.1,0.1,0.2c-0.1-0.3,0.1,0,0-0.2
							c0.3,0.4,0.1-0.1,0.3,0.1l-0.1-0.1c-0.1-0.1,0.1,0,0.1,0.1c-0.1-0.1-0.1-0.1-0.1-0.1c0-0.2,0.3,0,0.5,0c0.1,0-0.4-0.5-0.1-0.3
							l0.1,0.2c-0.1-0.3,0.2-0.1,0.1-0.4c0,0,0.1,0.1,0.1,0.1c0.1,0.1,0.1,0,0-0.1c0,0,0.1,0.1,0.1,0.1c0.1,0.1-0.1-0.2,0-0.1
							c0,0,0,0,0,0.1c0-0.1,0.1,0-0.1-0.2c0.1,0.1,0-0.1,0.1,0c-0.1-0.2,0.1,0-0.1-0.2c0.2,0.3,0.2,0.2,0.1,0
							c0.1,0.1,0.1,0.1,0.2,0.2c0,0,0-0.1-0.1-0.2c0.3,0.3-0.1-0.3,0.2,0.1c-0.1-0.2-0.1-0.3-0.1-0.4c0.2,0.2,0,0.1,0.2,0.3
							c0-0.1-0.2-0.4-0.1-0.4c0,0,0.1,0.1,0.1,0.2c0-0.1,0.1-0.1,0-0.2c0,0,0,0.1,0,0.1c0,0,0.1,0,0-0.1l0,0
							c-0.1-0.1-0.3-0.4-0.3-0.5c0.3,0.3,0.1,0,0.4,0.5c0,0,0-0.1-0.1-0.2c0,0,0.1,0.1,0.1,0.1c0-0.1-0.1-0.2-0.1-0.2
							c0,0.1,0.1,0.1,0.1,0.1c-0.1-0.1-0.2-0.2-0.1-0.2c0,0,0.1,0.1,0.1,0.1c0-0.1-0.2-0.3,0-0.3c0.2,0.2,0.1,0.1,0.3,0.3l0-0.1
							l-0.1-0.1c0,0-0.1-0.2,0-0.1l0.1,0.1l0-0.1l-0.1-0.1c-0.1-0.1-0.2-0.2-0.1-0.2c0,0,0,0,0.1,0.1l0,0c0-0.1-0.1-0.1,0-0.1
							c0.1,0.1,0.2,0.2,0.2,0.3c-0.1-0.2,0-0.1-0.1-0.3c0,0,0.1,0.1,0.1,0.2l-0.1-0.1c0,0,0.1,0.1,0.1,0.1c0,0-0.2-0.2-0.1-0.2
							c0,0,0,0,0,0.1c0.1,0,0-0.1,0.1-0.1c0.2,0.2,0,0.1,0.2,0.2c0-0.1-0.1-0.3,0-0.3l0,0c-0.2-0.3,0.2,0.1,0.1,0
							c0,0,0.1,0.2,0.1,0.1c0.1,0,0-0.1,0-0.2l0.1,0.1c0.1,0,0.1,0,0.1,0c-0.1-0.1,0-0.1-0.1-0.2c0.4,0.3-0.1-0.3,0.3,0
							c0,0,0,0.1,0,0.1l0-0.1c-0.1-0.1-0.1-0.1-0.2-0.2c-0.1-0.1-0.1-0.1-0.1-0.2c0.1,0.1,0.2,0.2,0.3,0.2l-0.1-0.1
							c0.2,0.2-0.2-0.2-0.1-0.1l0.1,0.1c0,0-0.1-0.1-0.1-0.1c0.1,0.1,0,0.1,0.2,0.2c0,0-0.2-0.3-0.1-0.2c0,0,0,0.1,0,0.1
							c0.2,0.1,0.1,0.1,0.2,0.1l0,0l0.1,0l0,0c-0.3-0.4,0-0.1-0.2-0.4c0.2,0.2,0.1,0.1,0.3,0.3c0,0,0.1,0.1,0.1,0.1
							c-0.1-0.1,0.1,0.1,0-0.1c0,0,0,0,0.1,0.1c0-0.1-0.1-0.1-0.1-0.1c-0.1-0.2,0.3,0.1,0.1-0.1c-0.1-0.1-0.2-0.3-0.3-0.4
							c0.1,0.1,0.2,0.2,0.2,0.2c0.1,0.1,0.1,0,0,0c0,0,0.1,0.1,0.1,0.1c0,0-0.2-0.2-0.1-0.1c0.1,0.1,0.1,0.2,0.2,0.2
							c0-0.1-0.1-0.2-0.1-0.2c0.1,0.1,0.1,0.1,0.2,0.2c0-0.1,0-0.1-0.2-0.3l-0.1,0c0,0,0.1,0.1,0.1,0.1c0.1,0.1-0.1,0-0.1-0.1l0,0
							c-0.3-0.3,0,0.1,0,0.1l-0.2-0.2l0.1,0.2c-0.1,0-0.2-0.2-0.2-0.2c-0.1-0.1,0.1,0.1-0.1,0c0,0,0,0,0,0l0,0.1
							c0,0-0.1-0.1-0.1-0.1c-0.1-0.1,0.1,0.2-0.1,0.1l0,0c0,0.1,0.1,0.2,0.3,0.4l-0.4-0.4l0.1,0.2c0,0,0,0-0.1-0.1
							c0.1,0.1,0.1,0.1,0.2,0.2c-0.2-0.1,0,0.1-0.2-0.1c0.1,0.1,0.1,0.1,0.2,0.2c-0.3-0.3,0,0.1-0.1,0c-0.1-0.1,0-0.1-0.2-0.2
							c0.2,0.2-0.1,0-0.1,0c0.2,0.2,0,0.1,0.1,0.2c-0.1-0.1-0.1-0.1-0.2-0.1l0,0c0.2,0.2,0.1,0.2,0.1,0.2c-0.1-0.1-0.1-0.2-0.2-0.2
							l0,0c0.1,0.1,0.1,0.1,0.1,0.1l-0.1-0.1c0,0,0.1,0.2,0,0.1c0.1,0.1,0.4,0.3,0.4,0.5c-0.1-0.1-0.2-0.2-0.2-0.2c0,0,0,0.1,0,0
							l-0.1-0.1c-0.1,0,0.1,0.1,0.1,0.1c-0.1-0.1-0.1-0.1-0.1-0.1c0,0,0,0,0,0c0,0-0.1-0.1-0.2-0.1c0.1,0.1,0.1,0.1,0.1,0.2
							c0,0-0.1-0.1-0.2-0.2c0.1,0.1,0,0,0.1,0.2c0,0-0.1-0.1-0.1-0.1c0.1,0.1,0,0.1,0.1,0.2l0,0l0,0l0,0l0,0c0.1,0.2-0.2,0-0.1,0.1
							l0-0.1c0,0.1,0,0.1,0.1,0.2c0,0-0.1-0.1-0.2-0.1c0,0.1,0.1,0.1,0,0.1c-0.1-0.1-0.1-0.1,0-0.1c-0.1,0-0.1-0.1,0,0.1
							c-0.1-0.1-0.2-0.2-0.1-0.1l0.1,0.1c0,0,0,0,0,0l-0.2-0.2c-0.2-0.2,0.2,0.4-0.1,0.1c0.1,0.1,0.1,0.1,0.2,0.2
							c0,0-0.3-0.2-0.3-0.2c-0.1-0.1,0.2,0.3,0.1,0.2c0.1,0.1,0.2,0.2,0.2,0.3c0,0-0.3-0.2-0.3-0.3c0,0,0,0,0,0c0,0,0-0.1-0.1-0.1
							l0.1,0.1c-0.1-0.1-0.1,0-0.2-0.1c0,0.1,0.1,0.1,0.1,0.1c-0.1-0.1,0,0-0.1,0c0,0,0.1,0.1,0.1,0.1c-0.1,0,0.1,0.1,0.1,0.2
							c-0.1-0.1-0.2-0.2-0.2-0.1c-0.1-0.1-0.1-0.2-0.2-0.2c0.1,0.1-0.1,0-0.1-0.1l0-0.1c0,0,0,0,0,0l0.1,0.1c0,0,0,0-0.1-0.1
							c0.1,0.1,0.2,0.2,0.3,0.3c-0.1-0.1,0,0.1-0.1-0.1c0.1,0-0.1-0.2-0.1-0.2c0,0,0,0,0,0c0,0,0,0,0,0c-0.2-0.1,0.1,0.2,0.1,0.2
							c-0.1-0.1-0.2-0.2-0.1-0.2c0,0,0.1,0.2,0.2,0.2c-0.1-0.1,0,0.1,0,0.1l0,0c0.1,0.1,0.1,0.1,0.1,0.1c-0.1-0.1,0-0.1-0.1-0.1
							c0.1,0.2-0.2-0.1-0.1,0c-0.1-0.1-0.2-0.2-0.2-0.2c0.1,0.1-0.1-0.1-0.1,0c0.1,0.1,0.1,0.1,0.2,0.2l0-0.1l0.1,0.2
							c0,0,0-0.1,0-0.1c0.1,0.1,0,0.1,0.1,0.2c-0.2-0.2,0.1,0.1-0.1,0l-0.3-0.3c-0.2-0.1,0.1,0.2,0,0.2l0.1,0c0.1,0.1,0,0,0,0.1
							c-0.1-0.1-0.1-0.1-0.2-0.2c0.1,0.1,0,0,0.1,0.2l-0.1-0.1c-0.1,0,0.2,0.3,0.2,0.3c-0.1-0.1-0.2-0.2-0.2-0.3c0,0,0,0,0,0.1
							c-0.1-0.1,0.1,0.2,0,0.1c0,0.1,0.1,0.2,0.1,0.2c0,0,0-0.1,0-0.1c0,0.1,0,0.1,0.1,0.2c-0.3-0.3-0.1,0.1-0.3-0.2
							c0,0.1,0,0.1,0,0.1c0,0,0-0.1,0,0c-0.1-0.1,0.2,0.3,0.1,0.2c-0.2-0.2-0.1-0.1-0.1-0.2c-0.3-0.4,0,0.1-0.2-0.1l0,0
							c-0.1-0.1,0.1,0.2,0,0.2c0,0,0,0,0-0.1c0.1,0.2,0.1,0.3,0.1,0.4c-0.1-0.1,0-0.1-0.2-0.2c0,0,0.2,0.2,0.2,0.3
							c-0.1-0.1-0.1-0.1-0.3-0.3l0,0c-0.2-0.2,0,0-0.1,0l-0.1-0.1c0,0.1,0.2,0.3,0.1,0.3l0.1,0.1c0.1,0.2-0.1-0.1,0,0.1l-0.2-0.2
							c0,0.1,0.1,0.3,0.1,0.3c-0.1-0.2-0.1-0.3-0.2-0.4c0,0,0,0.1,0,0.2c0,0,0-0.1,0-0.1c0.1,0.2,0.2,0.3,0.1,0.3
							c-0.3-0.4-0.2-0.1-0.4-0.4c0.1,0.2-0.1,0-0.2,0.1c0.3,0.3,0,0,0.2,0.4c0,0,0,0,0,0l-0.2-0.2c-0.1-0.1,0-0.1-0.1-0.2
							c0,0-0.1-0.1-0.2-0.2c0.1,0.1,0.1,0.2,0.1,0.2l0.1,0.1c0.1,0.2-0.2-0.3-0.2-0.1l-0.1-0.1c0,0.1-0.1,0.1,0.1,0.4
							c0,0-0.1-0.1-0.1-0.2c-0.1,0,0.1,0.4-0.1,0.2l-0.1-0.1c0,0,0.1,0.2,0,0.1c0,0-0.1-0.1-0.1-0.1c0,0,0.1,0.2,0,0.1l-0.1-0.1
							c-0.1-0.1,0.1,0.3,0.1,0.4c-0.2-0.3-0.3-0.3-0.3-0.3l0,0c-0.1,0,0,0.3,0.1,0.4c-0.2-0.3-0.2,0-0.4-0.2c0,0,0.1,0.2,0.1,0.2
							c0,0,0.1,0.2-0.1,0l0,0c-0.2-0.2-0.1-0.1-0.2-0.1l0.2,0.3c-0.4-0.4,0,0.3-0.3-0.1c0,0.1,0,0.1,0.1,0.2l-0.1-0.2
							c-0.1,0-0.1,0-0.1,0l-0.1-0.1c0,0,0.3,0.5,0.3,0.5l-0.2-0.2c0,0-0.2-0.2-0.1,0.1c0,0-0.1-0.1-0.1-0.1c0,0-0.2-0.1,0,0.2
							c-0.1-0.2-0.1,0,0,0.1l-0.1-0.2c0.1,0.2,0.1,0.3,0.2,0.4c0,0-0.1-0.1-0.1-0.1c-0.1-0.1,0.1,0.2,0,0.1l-0.1-0.1
							c0,0,0,0.1,0.1,0.2c0,0.1-0.1,0-0.2-0.2c0.1,0.1,0.1,0.2,0.1,0.2c0-0.1-0.1-0.1-0.1-0.1c-0.1-0.1,0.1,0.2-0.1,0.1
							c0-0.1-0.1-0.1-0.1-0.1c0,0,0.1,0,0.1,0c-0.1-0.2-0.1-0.2-0.2-0.4c0.1,0.1,0.2,0.4,0.1,0.3c0,0,0,0,0-0.1l0,0c0,0,0,0,0,0
							c0,0,0,0,0,0c-0.1-0.1-0.1-0.1-0.1-0.1c0.1,0.2,0.1,0.2,0.2,0.3c0,0,0,0,0,0c0,0,0,0,0,0l0,0c0,0,0,0,0,0c0,0.1,0.1,0.2,0,0.1
							c0.1,0.1,0.1,0.2,0.1,0.3c-0.2-0.2-0.3-0.3-0.4-0.5c0,0.1-0.1,0.1,0.1,0.5c0,0-0.1-0.1-0.1-0.1c0,0,0,0,0-0.1
							c0,0.1,0,0.1,0.1,0.3c-0.1-0.1-0.1-0.2-0.1-0.2l0-0.1c-0.3-0.3,0.2,0.6-0.1,0.2c0,0,0,0,0.1,0.1c-0.2-0.2-0.1,0.3-0.4,0
							c-0.1-0.1,0,0.1,0.1,0.2l-0.1-0.2l0.1,0.2c0,0.2-0.3-0.4-0.2-0.1l0.1,0.1c0,0,0,0.1-0.1,0c0,0,0.1,0.1,0,0.1l-0.1-0.1l0,0.2
							c-0.1-0.1-0.2-0.4-0.3-0.4c0,0,0.1,0.3,0.1,0.4c0,0,0.1,0.1,0.1,0.1l0,0.1c0.2,0.3,0.3,0.6,0.4,0.8l-0.1-0.2l0.1,0.1l0,0
							c0.1,0.1,0,0,0-0.1c0,0.1,0.1,0.1,0.1,0.1l-0.1-0.3c0.1,0.1,0.1,0.2,0.2,0.3c-0.1-0.1-0.1-0.2-0.2-0.3
							c0.1,0.1,0.1,0.2,0.1,0.1c0,0.1,0.1,0.1,0.1,0.2c0-0.1,0-0.1-0.1-0.2c0.1,0.2,0-0.1,0.2,0.2c0-0.1-0.1-0.2-0.1-0.2
							c0.2,0.3,0.1,0,0.2,0.3c-0.1-0.3,0-0.2-0.1-0.3c0,0,0,0.1,0,0.1c0,0,0.1,0.1,0.1,0.1c-0.1-0.2-0.1-0.3-0.2-0.5
							c0.2,0.2,0.1,0.3,0.3,0.5c-0.1-0.2-0.1-0.2-0.2-0.4c0.1,0.1,0.1,0.1,0.2,0.3c-0.2-0.3,0-0.1-0.1-0.3c0.1,0.1,0.2,0.3,0.1,0.2
							C107.4,70.7,107.4,70.8,107.4,70.8z M107.7,69.9L107.7,69.9C107.7,69.9,107.7,69.9,107.7,69.9
							C107.7,69.9,107.7,69.9,107.7,69.9z M107.8,69.9C107.8,69.9,107.8,69.9,107.8,69.9c-0.1-0.1-0.1-0.1-0.1-0.1
							C107.7,69.8,107.8,69.8,107.8,69.9z M107,68.8C107,68.7,107,68.8,107,68.8C107,68.8,107,68.8,107,68.8L107,68.8
							C107,68.8,107,68.8,107,68.8z"/>
						<path fill="#202020" d="M107.1,69L107.1,69C107.1,69,107.1,69,107.1,69L107.1,69L107.1,69z"/>
						<path fill="#202020" d="M111.7,65.9L111.7,65.9C111.7,65.9,111.7,65.9,111.7,65.9L111.7,65.9z"/>
						<polygon fill="#202020" points="108.7,69.7 108.7,69.7 108.7,69.7 						"/>
						<path fill="#202020" d="M112.4,66.2L112.4,66.2C112.4,66.2,112.4,66.2,112.4,66.2z"/>
						<path fill="#202020" d="M112.6,66.1L112.6,66.1C112.6,66.1,112.6,66.1,112.6,66.1z"/>
						<path fill="#202020" d="M112.7,66.1C112.7,66.1,112.7,66.1,112.7,66.1L112.7,66.1L112.7,66.1z"/>
						<path fill="#202020" d="M111.5,67.5C111.5,67.5,111.5,67.5,111.5,67.5C111.5,67.6,111.5,67.6,111.5,67.5z"/>
						<path fill="#202020" d="M111.6,66.8C111.6,66.9,111.6,66.9,111.6,66.8C111.7,66.9,111.7,66.9,111.6,66.8z"/>
						<polygon fill="#202020" points="111.2,68.1 111.2,68.1 111.2,68.1 						"/>
						<path fill="#202020" d="M111.6,66.9C111.7,66.9,111.7,66.9,111.6,66.9C111.6,66.9,111.6,66.9,111.6,66.9z"/>
						<path fill="#202020" d="M113.1,65.8L113.1,65.8C113.1,65.8,113.1,65.8,113.1,65.8L113.1,65.8z"/>
						<path fill="#202020" d="M113.1,65.8L113.1,65.8C113.1,65.8,113.1,65.8,113.1,65.8z"/>
						<path fill="#202020" d="M113.1,65.7L113.1,65.7C113.1,65.8,113.1,65.8,113.1,65.7z"/>
						<path fill="#202020" d="M113,65.9L113,65.9C113,65.9,113,65.9,113,65.9z"/>
						<path fill="#202020" d="M112.9,65.9c0,0,0.1,0.1,0.1,0L112.9,65.9C113.1,66,112.9,65.8,112.9,65.9z"/>
						<path fill="#202020" d="M112.2,65.4L112.2,65.4c0,0-0.1-0.1-0.1-0.1C111.9,65.2,112.2,65.4,112.2,65.4z"/>
						<path fill="#202020" d="M112,65.4c0,0-0.1-0.1-0.1-0.1C112,65.4,112,65.4,112,65.4z"/>
						<path fill="#202020" d="M111.4,66l-0.1-0.1C111.3,65.9,111.3,65.9,111.4,66z"/>
						<polygon fill="#202020" points="111.9,66.8 112,66.9 111.9,66.7 						"/>
						<polygon fill="#202020" points="111,65.9 111,65.9 111,65.9 						"/>
						<path fill="#202020" d="M109.9,66.9l0.1,0.2C110.1,67,109.9,66.8,109.9,66.9z"/>
						<path fill="#202020" d="M109.6,67.4C109.5,67.3,109.5,67.3,109.6,67.4C109.6,67.4,109.6,67.4,109.6,67.4z"/>
						<polygon fill="#202020" points="107.9,68.2 107.9,68.1 107.9,68.2 						"/>
					</g>
				</g>
			</g>
		</g>
	</g>
</g>
</svg>
