<?xml version="1.0" encoding="utf-8"?>
<!-- Generator: Adobe Illustrator 18.0.0, SVG Export Plug-In . SVG Version: 6.00 Build 0)  -->
<!DOCTYPE svg PUBLIC "-//W3C//DTD SVG 1.1//EN" "http://www.w3.org/Graphics/SVG/1.1/DTD/svg11.dtd">
<svg version="1.1" id="Layer_1" xmlns="http://www.w3.org/2000/svg" xmlns:xlink="http://www.w3.org/1999/xlink" x="0px" y="0px"
	 viewBox="0 0 144 144" enable-background="new 0 0 144 144" xml:space="preserve">
<g>
	<g>
		<g>
			<g>
				<g>
					<g>
						<path fill="#202020" d="M45.2,53.9c0-0.1-0.1-0.1-0.2,0.1l0.1,0.3C45,54.3,45.2,53.9,45.2,53.9z"/>
						<path fill="#202020" d="M44.2,55.5c0.1,0.4,0.3,0.5,0.4,0.3c-0.1,0-0.1-0.1-0.1-0.2c0-0.1-0.1-0.2-0.1-0.3
							c0-0.3,0.2-0.5,0.2-0.4c0-0.1,0.2-0.4,0.1-0.6c-0.3,0.3-0.4,0.8-0.4,1.2C44.3,55.6,44.3,55.5,44.2,55.5z"/>
						<path fill="#202020" d="M70,51.6l-0.2,0C69.9,51.5,70,51.6,70,51.6z"/>
						<path fill="#202020" d="M86.4,57.5c-0.1,0-0.2,0-0.2,0C86.4,57.5,86.5,57.5,86.4,57.5z"/>
						<path fill="#202020" d="M89.5,57.8c-0.1,0-0.1,0-0.2,0C89.4,57.8,89.4,57.8,89.5,57.8z"/>
						<path fill="#202020" d="M70,51.6c0,0,0.4,0.1,0.4,0.1C70.5,51.6,70.3,51.6,70,51.6z"/>
						<path fill="#202020" d="M46.9,55.6c-0.1,0-0.2,0.1-0.3,0.1C46.7,55.7,46.8,55.6,46.9,55.6C46.9,55.6,46.9,55.6,46.9,55.6z"/>
						<path fill="#202020" d="M63.2,54.8l-0.1,0.1c0,0-0.1,0.1-0.1,0.1L63.2,54.8z"/>
						<path fill="#202020" d="M57.7,57.2c0.1,0,0.1-0.2,0.2-0.3C57.8,57,57.7,57,57.7,57.2C57.6,57.1,57.6,57.1,57.7,57.2z"/>
						<path fill="#202020" d="M48.3,56.1l-0.2,0C48.2,56.1,48.2,56.1,48.3,56.1z"/>
						<path fill="#202020" d="M67,52.7C67,52.7,67,52.7,67,52.7C67,52.7,67,52.7,67,52.7z"/>
						<path fill="#202020" d="M38.8,54.9C38.8,54.9,38.8,54.9,38.8,54.9C38.8,54.9,38.8,54.9,38.8,54.9z"/>
						<path fill="#202020" d="M44.8,56.1L44.8,56.1c-0.1,0.1-0.1,0.1-0.1,0.1L44.8,56.1z"/>
						<path fill="#202020" d="M95.1,57.4C95.1,57.4,95.1,57.4,95.1,57.4C94.9,57.5,95,57.5,95.1,57.4z"/>
						<path fill="#202020" d="M94,16.5c0.3,0.5-0.8-0.6-0.3,0.2C93.7,16.5,94.4,17.1,94,16.5z"/>
						<path fill="#202020" d="M47,55.6c0.1,0,0.2,0,0.2,0C47.2,55.6,47.1,55.6,47,55.6z"/>
						<path fill="#202020" d="M93.7,16.7L93.7,16.7L93.7,16.7C93.7,16.7,93.7,16.7,93.7,16.7z"/>
						<path fill="#202020" d="M106.8,51.9c0,0-0.1,0-0.1,0.1C106.7,52,106.8,52,106.8,51.9z"/>
						<path fill="#202020" d="M98.2,56.3l0.2,0C98.3,56.3,98.3,56.3,98.2,56.3z"/>
						<path fill="#202020" d="M106.8,46.7c0-0.1,0-0.2-0.1-0.3c0,0,0,0,0,0.1C106.7,46.5,106.8,46.6,106.8,46.7z"/>
						<path fill="#202020" d="M104.3,42.2C104.3,42.3,104.3,42.3,104.3,42.2c0,0.1,0.1,0.2,0.1,0.2L104.3,42.2z"/>
						<path fill="#202020" d="M40.5,40.9c-0.1,0.1-0.1,0.2-0.2,0.2C40.4,41.1,40.2,41.8,40.5,40.9z"/>
						<path fill="#202020" d="M46.9,55.7c0,0,0.1-0.1,0.1-0.1C47,55.6,46.9,55.6,46.9,55.7C46.9,55.7,46.9,55.7,46.9,55.7z"/>
						<path fill="#202020" d="M105.6,47l-0.3-0.7C105.4,46.5,105.5,46.8,105.6,47z"/>
						<path fill="#202020" d="M61.1,12.8L61,12.9C61,12.9,61.1,12.9,61.1,12.8z"/>
						<path fill="#202020" d="M104.1,44.3c0-0.2-0.1-0.3-0.2-0.4c0,0-0.1,0-0.1-0.1L104.1,44.3z"/>
						<path fill="#202020" d="M40.3,41.1L40.3,41.1L40.3,41.1z"/>
						<path fill="#202020" d="M38.8,46.3c0.3-0.7-0.1-0.4-0.1-0.6c0.3-0.9,0.3-0.3,0.5-0.6c0.2-0.6,0.1-1,0.3-1.4c0,0,0.1-0.1,0.1,0
							c0.1-0.6,0.6-1.7,0.6-2.5c0,0,0.1-0.1,0.1-0.1c-0.1,0.1-0.2,0.1-0.3,0c0.1-0.3,0.1-0.7,0.2-0.7c-0.1,0.2,0,0.2,0,0.3l0-0.4
							c0.3-0.3-0.1,0.5,0.1,0.5c0.2-0.7,0.2-1.6,0.3-2.1c0.2-0.1-0.2,1.3,0.1,0.6l-0.3,0.8c0.4-0.6-0.2,0.5,0.3,0
							c0.3-1.1,0.2-1.3,0.5-2.3c-0.1-0.3-0.2,0.1-0.2-0.2c0.1-1.6,0.7-1.1,0.7-2.3c-0.1-0.3-0.3-0.5,0.1-1.2l0.1,0.3
							c0.3-1-0.1-0.7,0.4-1.6c0,0.2-0.2,0.8-0.1,0.6c0.4-0.6,0.1-0.5,0.3-1l0.2,0c0.4-1,0.9-2.1,1.6-3.2c0,0.1-0.1,0.3,0.1,0.1
							c0.8-1.3,2-2.7,3-3.8l0.2-0.6c0.1-0.1,0.2-0.1,0.1,0c0.4-0.4-0.1-0.1,0.1-0.4c0.2-0.3,0.4-0.3,0.3-0.1
							c0.6-0.9,1.7-2.5,2.6-3.1l-0.1,0.2c0.6-0.6,0.4-0.9,1.1-1.4l-0.1,0.1c1.4-1.3,2.8-2.8,4-3.5c0-0.4,1.5-1.1,1.4-1.4
							c0.9-0.5,0.7-0.3,2-1.1c0.3-0.2,0.4-0.5,0.8-0.8l0.1,0.1l0.5-0.5l0.4,0l0.4-0.2c-0.2,0.1-0.4,0.1-0.4,0
							c0.6-0.4,1.6-0.5,1.7-0.4c0,0,0.4-0.2,0.8-0.3c0.4-0.1,0.8-0.2,0.8-0.2c0,0.1-0.3,0.2-0.5,0.2c0.8-0.3,0.2,0.1,1-0.2
							c-0.1,0,0-0.1,0.1-0.1c0.4,0,1.3-0.1,2-0.2l-0.1,0.1c1.2-0.1,2.7-0.2,4.1-0.3c-0.5,0-0.4-0.2,0-0.3l0.2,0.2
							c0.3-0.1-0.4-0.1,0.1-0.2c0.5,0,0.4,0.2,0.1,0.3l0.6-0.1c0,0.1-0.1,0.1-0.1,0.2c0.3-0.1,1.1,0.1,1.5-0.1l0,0.1
							c1.4,0,2.1-0.1,3.2-0.1c0-0.2,0.5-0.1,0.8-0.2c0.9,0.1,1.8,0.3,2.8,0.4c0.7,0,0.2-0.1,0.6-0.2c0,0.1,1,0.3,0.5,0.3
							c1.2,0.2,1.5,0.2,3.1,0.4c-0.1-0.1-0.3-0.2-0.2-0.2c0.3,0,0.6,0.2,0.5,0.3l-0.1,0c1.8,0.2,3.6,1.6,4.9,2l-0.1,0
							c0,0,0.3,0.1,0.7,0.3c0.3,0.1,0.6,0.3,0.6,0.3c0.5,0.4-0.4-0.1,0,0.2c1.4,0.6,1.9,1.4,2.9,2.2c0.2,0.5,0.7,1.1,1.3,1.8
							c0.3,0.4,0.5,0.7,0.8,1.1c0.2,0.4,0.4,0.7,0.5,1l0-0.1c0.3,0.2,0.2,0.4,0.3,0.6c0.1-0.1-0.1-0.4,0.1-0.2
							c1.4,2.5,2.1,5.6,2.8,8.5c0.3,1.1,0.7,0.5,0.8,1.9l-0.3-0.3c0.8,2.1,1.1,4.5,2.1,6.5c-0.1-0.1-0.1-0.1-0.2-0.3
							c0,0.5,0.6,1.6,0.7,1.6c0.1,0.3-0.1,0.1,0,0.3c0.1,0.5,0.6,1,0.6,1.3c0,0-0.1-0.1-0.1-0.2c0.2,0.3,0.6,1.3,0.6,1
							c0.3,0.8,0.8,1.4,1.1,2c0.4,0.3,0.7,1.2,0.9,1.2c-0.2,0.1,0.5,1.3,0.8,1.7c-0.1-0.1,0.1,0.4-0.1,0.3c0.2,0.5,0.4,1,0.5,0.8
							c0,0.5,0.1,1,0.2,1.4c0,0.4,0,0.8-0.2,1c-0.3,1.4-1.8,2.3-3.1,3.1c-0.1-0.2,1.5-0.8,1.3-1.1c-1.2,0.8-1.9,1.4-3.2,2
							c-0.4,0.1,0.2-0.2,0.3-0.3c-0.3,0.2-0.7,0.3-1,0.5c-0.3,0.1-0.7,0.2-1,0.4c-0.3,0.1-0.6,0.2-1,0.4c-0.3,0.1-0.6,0.2-0.9,0.3
							c0,0,0.1-0.1,0.2-0.1c-0.2,0.1-0.6,0.1-0.5,0.2l0.2-0.1c0.4,0-0.9,0.6-0.9,0.7c0.4-0.4-1.3,0.2-0.7-0.4
							c-0.2,0.1-0.4,0.2-0.3,0.2c-0.3,0-0.3,0-0.1-0.1c-0.9,0.2-0.5,0.3-1.4,0.4c0-0.1,0.2-0.1,0.2-0.2c-0.4,0.2-0.8,0.3-1.5,0.4
							c0,0,0-0.1,0.2-0.1c-0.6,0.1-1.1,0.2-1.7,0.3c-0.5,0.1-1.1,0.2-1.8,0.1c0.4-0.2-0.5-0.1-0.5-0.3c0,0-0.2,0-0.4,0
							c-0.2,0-0.4,0-0.4,0l0.3,0.1c-0.6,0-1.2,0.1-1.7,0l0.5-0.1c0,0-0.3,0-0.6,0c-0.3,0-0.6,0-0.6,0s0.2,0,0.3,0.1
							c0.2,0,0.3,0.1,0.3,0.1c-0.7,0.1,0,0.3-0.8,0.1c0.2,0-0.6-0.1-1-0.2l0,0c-0.3,0-0.7,0.1-1.1-0.1c-0.1-0.1,0.1-0.2,0.1-0.3
							c-0.3,0.1-1.5-0.2-1.9-0.1c0.1,0,0.2-0.1,0.1-0.1l-0.3,0.1c-0.3-0.1-0.3-0.2-0.2-0.2c-0.9-0.2,0.2,0.3-0.8,0
							c0.1,0,0.1,0,0.2,0c-0.5-0.1-1-0.3-1.5-0.4c-0.5-0.1-1-0.3-1.4-0.5c-0.2-0.3,0.8,0.3,0.6,0c-0.7-0.2-1.3-0.5-2-0.7
							c-0.7-0.3-1.3-0.6-1.9-0.9l0.2,0.1c-0.3,0.2-0.8-0.6-1.5-0.9c0.2,0.1,0.3,0,0.2,0c-0.4-0.3-0.8-0.5-1.3-0.8
							c-0.5-0.3-1.1-0.6-1.8-0.7l0.2,0c-0.6-0.3-1.6-0.2-2.2-0.1c-0.2,0.1-0.5,0.2-0.3,0.3c-1,0.1-1.8,0.6-2.5,1.1
							c-0.7,0.5-1.4,1-2.2,1.2c0.2-0.1,0.4-0.3,0.2-0.2l-1.2,0.7c0.2,0.1,0.2,0,0.5-0.1c-0.1,0.2-0.4,0.4-0.7,0.5
							c0.5-0.4-0.1-0.2-0.4-0.1c0.1,0,0,0.1,0,0.1c-0.7,0.1,0,0.3-1,0.6l0-0.1c-0.3,0.2-0.6,0.4-1,0.6c-0.2-0.1,0.3-0.2,0.3-0.3
							c-0.5,0.2-0.9,0.7-1.4,0.8c0.2-0.1,0.5-0.3,0.7-0.4c-0.6,0.1-0.6,0.1-1,0.2l0,0c0,0-0.2,0.1-0.5,0.1c-0.2,0.1-0.4,0.1-0.4,0.1
							l0.2,0c-0.5,0.6-1.3,0.5-2.2,0.8c0.9-0.3,0.1-0.1,0.2-0.3c-0.2,0-0.6-0.1-0.5-0.1c-0.4,0.1-0.7-0.2-1.3-0.1
							c0-0.1-0.5-0.1-0.3-0.2c-0.6-0.1,0.1,0.1,0,0.2c-0.9,0-2-0.8-3.4-0.7c-1.1,0-1.4,0.2-2.4,0.3c-0.4-0.1,0.3-0.2,0.3-0.2
							c-0.6-0.1-1,0-1.5,0.1c0.1-0.1,0-0.1-0.2-0.1c-0.4,0.1-0.3,0.2-0.8,0.3c0.1-0.1,0.2-0.2,0.4-0.3c-0.5,0.1-1,0.4-1.4,0.5
							c-0.1,0,0-0.1,0.1-0.1c0.1-0.1,0.3-0.1,0.3-0.2c-0.1,0-0.2,0.1-0.3,0.1c-0.1,0-0.1,0.1-0.2,0.1c-0.1,0.1-0.3,0.1-0.4,0.2
							c-0.1,0.1-0.1,0-0.1,0c0,0-0.1,0-0.1,0l0,0.2l0,0.1c0,0,0,0,0.1,0l0,0c0,0,0,0,0,0c-0.1,0-0.1,0,0-0.1c0,0,0.1-0.1,0.1-0.1
							l0.1,0c0.4-0.2,0.4-0.1,0.5,0l-0.3,0.1c0.1,0.1,0.5,0,0.9-0.1c0.4-0.1,0.8-0.3,1.2-0.4l-0.3,0.3c0,0,0.2-0.1,0.4-0.2
							c0.2-0.1,0.4-0.1,0.4-0.1c0.2,0,0.3,0.2-0.1,0.2c0.5,0.1,0.5-0.1,0.9,0c0.1,0,0,0,0,0l0.5-0.1c-0.1,0.1,0.1,0.2-0.2,0.1
							c0.9,0.1,1.5-0.2,1.8,0l-0.1,0c1.3,0.1,0.1-0.2,1.1-0.2c0,0,0.1,0.1,0.3,0.3c0.1,0.1,0.3,0.3,0.3,0.3l0.2-0.1
							c0.1,0,0.4,0.1,0.3,0.2c0.5,0-0.1-0.1,0.2-0.1c0.6,0.3,1.7,0.4,1.8,0.7c0.3-0.1-0.6-0.2,0.1-0.2c0.1,0.3,0.8,0.1,1.4,0.2
							c-0.2,0.2-0.8,0-0.2,0.2c0.4-0.2,1.2,0,1.7-0.2c0-0.2,1-0.4,1.8-0.8c0,0.1,1.5-0.5,2.2-0.8l0,0c0-0.2,0.8-0.6,1.3-0.9
							c0,0.1,0,0.2-0.3,0.4l0.5-0.3c0.1-0.1,0.2-0.2,0.5-0.4l0,0.2c0.6-0.4,1.2-0.9,2.1-1.3c0-0.1-0.8,0,0-0.5c0.1,0,0.2,0.1,0,0.3
							c0.1-0.1,0.2-0.2,0.4-0.3l-0.3,0.3c0.4-0.2,0.1-0.2,0.4-0.4c0.1,0.1,0.3-0.1,0.3,0c-0.1,0.1-0.3,0.1-0.4,0.2
							c0.3-0.2,0.8-0.4,0.9-0.4c-0.1,0-0.1-0.1,0.2-0.3c0.6-0.3,0.3,0,0.7-0.1c0.1-0.1,0.6-0.2,0.5-0.4c0.2-0.1,0.3,0,0.3,0
							c0.2-0.1,0.6-0.2,0.9-0.2c0.3,0,0.5-0.1,0.3-0.1l-0.1,0c0,0,0,0,0.1,0l0,0l0,0c0.6-0.1,1.2,0.1,1.7,0.4c0.5,0.3,1,0.7,1.6,1
							l0,0c0.7,0.3,1.4,0.8,2,0.9c0.2,0.1,0.4,0.3,0.3,0.3c0.5,0.2,0.6,0.2,1.3,0.6c-0.6-0.1,0.1,0.2-0.6-0.2
							c0.6,0.4,0.8,0.5,1.6,0.7c-0.3,0,0.4,0.4,0.8,0.5c0,0-0.1-0.1-0.2-0.1c-0.1-0.1-0.2-0.1-0.2-0.1c0.4,0.1,0.7,0.2,1,0.4
							l-0.2,0.1c1.4,0.7,2.7,0.4,3.7,1c0.4,0-0.8-0.3-0.4-0.3c0.7,0.2,1.3,0.6,1.5,0.6c0.9,0.3,0.9-0.1,1.9,0.1
							c-0.1-0.1-0.2-0.3,0.5-0.2c0.7,0.1,0.8,0.3,0.4,0.4c-0.2,0-0.2,0-0.2-0.1c-0.2,0-0.5,0-0.3,0.1l0.1-0.1
							c0.3,0.1,1.3,0.1,1.1,0.2c0.5,0,0.2-0.1-0.2-0.2c0.9,0.1,1.4,0.1,2.3,0.1c-0.1,0-0.3-0.1-0.1-0.1c1.3,0.1,0.6-0.1,1.5-0.2
							c0.5,0.1-0.2,0.3,0.7,0.1c0.6,0,0.1,0.2-0.1,0.2c0.8-0.2,1.6,0,2.1-0.1l-0.4,0.1c0.3-0.1,0.5-0.1,0.7-0.1l-0.3-0.1
							c0.3,0,0.5,0,0.5,0c0.3-0.1-0.2-0.2,0.3-0.4c0.4,0,1-0.2,1.2-0.1c-1.1,0.2,0.2,0.2-0.7,0.4c0.2,0,0.4-0.1,0.6-0.1
							c0,0,0,0-0.1,0.1c1.1-0.1,0.4-0.3,1.5-0.5C96.4,57,96.9,57.1,97,57c-0.4,0.1-0.2-0.1,0.1-0.3c0.7-0.1,0.7-0.3,1.1-0.4
							l-0.4,0.1c0.1-0.1,0.4-0.2,0.9-0.4c0.1,0.1-0.4,0.2-0.2,0.2c0.5-0.3,1.2-0.2,1.9-0.6c0.3-0.1,0.1,0.2,0.4,0.1
							c0.7-0.5,0.9-0.2,1.7-0.7c-0.3,0-0.3,0,0.2-0.3l-1.3,0.7l0.8-0.6c-0.4,0.2-0.8,0.5-1.1,0.5c0.4-0.3,0.3-0.2,0.1-0.2
							c0.6-0.1,1-0.6,1.7-0.8l0.1,0.3c1-0.4,1.6-0.9,2.7-1.7l-0.4,0.2c0.1-0.2,0.7-0.5,1-0.9c0,0.1,0.3-0.1,0.5-0.2
							c0,0,0.1-0.2,0.3-0.5c0.1-0.3,0.2-0.6,0.1-0.7c0,0,0.1-0.1,0.2-0.3c0.1-0.1,0.1-0.3,0.1-0.3c0.2-0.6,0-1-0.1-1.3
							c-0.1-0.3-0.2-0.6-0.4-1.1c0.2,0.3,0.2-0.2,0.4,0.5c-0.1-0.4-0.2-0.7-0.2-0.7c0-0.2-0.5-0.9-0.5-1.2c-0.1-0.1-0.2-0.1-0.4-0.5
							c0,0,0,0,0,0c0,0-0.4-0.5-0.3-0.1c-0.2-1.1-1.6-2.5-1.7-3.5c-0.4-0.6-0.8-1.4-1.1-2c0,0,0.1,0,0.1,0.1
							c-0.3-0.9-0.5-0.4-0.8-1.4c0-0.6,0.3,0.5,0.2,0.1c0.3-0.3-0.5-1.2-0.5-1.9l0.1,0.2c-0.1-0.5-0.5-1.2-0.8-2.1c0,0,0,0,0.1,0
							c-0.4-0.5-0.7-1.6-1-2.5c0.2,0.2,0.2,0.4,0.3,0.2c-0.1-0.4-0.2,0.2-0.4-0.6c0-0.3-0.1-0.8,0.1-0.9l0.2,0.7
							c0.1-0.4-0.2-0.9-0.3-1.3l0.1,0c-0.3-1.1-0.5-1-0.8-2.2l0,0.1c-0.4-0.6,0-0.6-0.4-1.2l0.2-0.3c-0.2-0.4-0.6-1.4-0.9-2.1
							c0.3,0.4,0.7,1.2,0.9,1.7c-0.1-0.4-0.4-1.4-0.6-1.6c0.1,0.2,0.2,0.4,0.2,0.5c-0.3-0.4-0.6-1.1-0.9-1.9c0.2,0,0-0.5-0.2-1.2
							c-0.2-0.6-0.6-1.3-0.6-1.7c-0.8-1.3-1.4-2.8-2.7-4.1c0.2,0.7-0.4-0.4-0.5-0.1c-0.3-0.3-0.4-0.4-0.4-0.5c0,0-0.2-0.3-0.4-0.5
							c-0.2-0.3-0.4-0.5-0.4-0.5c-0.2-0.3,0.4,0.2,0.4,0.1c-0.7-0.6-0.2-0.4-0.6-0.8c0,0.2-0.4-0.1-0.8-0.4c0,0,0.1,0.1,0.3,0.3
							c0.1,0.1,0.2,0.3,0.2,0.3c-1.1-0.6-0.7-0.9-1.9-1.5l0.4,0.1c-0.6-0.3-2.2-1.2-2.9-1.2c-0.1-0.1-0.2-0.2,0.1-0.1
							c-1.5-0.7-3.4-0.9-4.6-1.4l0.1-0.1c-0.3,0-0.5,0-0.9-0.1c0,0,0.1-0.1,0-0.1c-0.2,0-0.8,0-1.2-0.1l0.3,0
							c-1.5-0.4-2.4-0.1-3.7-0.1c0-0.2-1.2-0.4-1.8-0.5l0,0c-1.8-0.1-3,0.2-4.7,0.3c-1-0.2-3.4,0-5.1,0c0.3,0,0,0.2-0.3,0.2
							c-0.4,0-1.1,0.3-1,0l0.1,0c-0.3-0.2-1.1,0-1.7,0.1l-0.1,0.3c-0.8-0.1-1.9,0.2-2.8,0.7c-0.9,0.4-1.7,0.9-2.1,1
							c-0.3,0.3-0.7,0.6-1,0.9l-0.1-0.1c-0.9,0.6-1.3,1-2.3,1.8l0.1-0.3c-0.6,0.5-0.4,1-0.9,1.4l-0.3,0c-1,0.9-2.1,1.6-2.9,2.7
							c0,0,0-0.1,0.1-0.3c-0.4,0.4-1.8,1.6-1.4,1.7c-0.2-0.1-0.9,1-1.3,1.6l0-0.2c-0.3,0.6-0.2,0.6-0.7,1.3c-0.1,0.1-0.2,0.1,0-0.1
							c-0.5,0.4-0.2,0.5-0.8,1l0.1-0.3c-0.4,0.5-0.4,0.5-0.5,0.9c-0.2,0.4-0.8,1-1,1c0,0.1-0.1,0.5-0.4,0.8c-0.1,0,0-0.1,0-0.2
							c-0.8,0.8-0.9,1.5-1.4,2c-0.1,0-0.1,0-0.2,0.1c0.5-0.7,1-1.3,0.9-1.3c-0.1-0.1-0.6,0.5-0.4-0.1c-0.3,0.5-0.7,1.5-1.1,2.1
							c0,0-0.1,0-0.1,0.1l0-0.1C43.1,29,43,29.1,43,29.3c-0.1,0.2-0.2,0.3-0.4,0.5c-0.1,0-0.5,0.7-0.7,1c0.2,0-0.1,0.5,0.2,0.1
							c0,0,0-0.1,0.1-0.3c0-0.1,0.1-0.1,0.1-0.1l0,0c0.1-0.2,0.3-0.5,0.5-0.8c-0.1,0.3-0.2,0.6-0.5,0.9c0,0.2,0,0.4,0,0.6
							c-0.4,0.3-0.9,1.2-1.1,1.3c-0.4,1.1-0.8,2.6-0.6,3.3c0,0.3-0.2,0.3-0.2,0.4c0-0.2,0.1-0.4,0-0.5c-0.1,0.6-0.3,1.8-0.2,2
							c-0.2,0.8-0.1-0.5-0.3,0.6l0-0.2c-0.7,2-0.3,3.5-1.6,5.5c0.1-0.1,0.1-0.2,0.2-0.2c-1.1,2.4-2,5.3-2.1,8c0,0.8,0.2,0.9,0.4,1.3
							L36.7,53c0,0,0.1,0.2,0.2,0.4c0.1,0.2,0.2,0.4,0.2,0.4c0.3,0.5,0.4,1,0.7,1.5c0.3,0.5,0.7,1,1.5,1.2c0,0-0.1-0.2-0.1-0.2
							c0.5,0.3,1.6,0.5,1.5,0.6c0.1,0,0.2-0.1,0.4,0l0,0.1c0,0,1.3-0.1,1.3-0.2c1-0.1-0.1,0.4,1.3,0.2c0.5-0.1,1.4-0.7,1.2-0.6
							c-0.2,0.1-0.5,0.1-0.6,0l0.5-0.2c0-0.3,0.3-0.6-0.9-0.5c0,0-0.2,0.1-0.4,0.2c-0.2,0.1-0.4,0.2-0.4,0.2l-0.3-0.1
							c0,0,0.2,0,0.3-0.1c0.2,0,0.3-0.1,0.3-0.1c-0.4,0-0.6,0.1-0.8,0.2c-0.1-0.1-0.2-0.1-0.3-0.1c0,0-0.2,0.1-0.4,0.2
							c-0.2,0.1-0.4,0.1-0.4,0.1c-0.1-0.1,0.3-0.2-0.2-0.3c-0.3,0.1,0.3,0.2-0.3,0.3c-0.4-0.2-0.2-0.2-0.7-0.2
							c0-0.1,0.1-0.1,0.2-0.1c-0.4,0-0.9-0.2-1.1-0.2c-0.3-0.3-1-0.7-0.8-0.8c-0.1,0-0.5-0.3-0.7-0.6c0.3,0.2,0.1-0.1,0-0.4
							c-0.2-0.3-0.3-0.8-0.1-0.7c-0.4-0.4-0.5-1.6-0.6-2.4c0,0,0.1,0.1,0,0.2c0-0.5,0.1-0.6,0.2-0.9c-0.2-0.1-0.2-0.8-0.2-1.3
							c0.3-0.5,0.2,0.4,0.4,0.3c-0.2,0,0.1-1-0.1-0.9c0.2-0.4,0.2-0.4,0.4-0.5c-0.2-0.2,0.1-0.4,0-0.8c0.4-0.6,0.3-0.1,0.5-0.8
							C38.9,45.6,38.8,46.3,38.8,46.3z M44.2,29.3L44.2,29.3c-0.1,0.1-0.1,0.2-0.2,0.3C44,29.5,44.1,29.4,44.2,29.3z M45,28
							c-0.1,0.1-0.2,0.3-0.4,0.5c-0.1,0-0.1-0.1,0-0.2C44.6,28.5,44.8,28.2,45,28z M42.3,30.1c0.1-0.2,0.2-0.3,0.2-0.3
							C42.5,29.9,42.4,30.1,42.3,30.1c0,0.1,0,0.1,0,0.1C42.3,30.2,42.3,30.2,42.3,30.1z"/>
						<path fill="#202020" d="M42.3,30.6C42.3,30.6,42.3,30.7,42.3,30.6C42.3,30.7,42.3,30.6,42.3,30.6c0.1-0.1,0.1-0.1,0.1-0.1
							C42.3,30.5,42.3,30.6,42.3,30.6z"/>
						<path fill="#202020" d="M69.8,51.5L69.8,51.5C69.8,51.5,69.8,51.5,69.8,51.5C69.8,51.5,69.8,51.5,69.8,51.5z"/>
						<polygon fill="#202020" points="59.7,13.6 59.7,13.6 59.6,13.7 						"/>
						<path fill="#202020" d="M62.2,54.5c0,0-0.1,0-0.1,0C62.1,54.5,62.1,54.5,62.2,54.5z"/>
						<path fill="#202020" d="M58.9,55.9l-0.5,0.1C58.7,56,58.8,56,58.9,55.9z"/>
						<path fill="#202020" d="M56.4,56.5C56.3,56.6,56.3,56.6,56.4,56.5L56.4,56.5L56.4,56.5z"/>
						<path fill="#202020" d="M97.7,55.4C97.7,55.4,97.8,55.4,97.7,55.4C98,55.3,97.9,55.3,97.7,55.4z"/>
						<path fill="#202020" d="M84.9,56.7c0.1,0,0.3,0,0.4,0C85.1,56.6,85,56.6,84.9,56.7z"/>
						<polygon fill="#202020" points="105.6,47.1 105.6,47.1 105.6,47 						"/>
						<path fill="#202020" d="M86,56.8c-0.2-0.1-0.4-0.1-0.6-0.1C85.5,56.7,85.8,56.8,86,56.8z"/>
						<path fill="#202020" d="M44.9,56L44.9,56C44.8,56.1,44.8,56.1,44.9,56C44.8,56.1,44.8,56.1,44.9,56L44.9,56L44.9,56z"/>
						<path fill="#202020" d="M44.8,56.1C44.8,56.1,44.8,56.1,44.8,56.1C44.7,56.1,44.7,56.1,44.8,56.1
							C44.7,56.1,44.8,56.1,44.8,56.1z"/>
						<path fill="#202020" d="M44.6,56l0.1,0.1C44.7,56,44.7,56,44.6,56z"/>
						<path fill="#202020" d="M48.1,55.5L48.1,55.5C48.1,55.5,48.1,55.5,48.1,55.5z"/>
						<path fill="#202020" d="M49.3,55.5c-0.3,0-0.7-0.1-1.1-0.1l0,0C48.3,55.4,49,55.6,49.3,55.5z"/>
						<path fill="#202020" d="M53.8,56.9l-0.9-0.3c0.1,0.1,0.3,0.2-0.1,0.1C53.9,57.2,52.6,56.6,53.8,56.9z"/>
						<path fill="#202020" d="M56.8,57.3c-0.5,0.1,0,0.1,0,0.1C57.1,57.3,57.2,57.3,56.8,57.3z"/>
						<path fill="#202020" d="M75.5,54.4l-0.1,0.1C75.8,54.7,75.4,54.5,75.5,54.4z"/>
						<polygon fill="#202020" points="79.5,55.3 79.2,55.1 79,55.2 						"/>
						<polygon fill="#202020" points="81.5,56.9 81.3,56.9 82,57 						"/>
						<path fill="#202020" d="M104.8,42.9l-0.1,0.2C104.9,43.3,105.1,43.3,104.8,42.9z"/>
						<path fill="#202020" d="M99.7,28.8c0-0.2,0-0.6-0.2-0.8C99.7,28.3,99.7,28.7,99.7,28.8z"/>
						<polygon fill="#202020" points="62.9,10.8 63.2,10.7 62.6,10.9 						"/>
					</g>
				</g>
			</g>
		</g>
	</g>
	<g>
		<g>
			<g>
				<g>
					<g>
						<path fill="#202020" d="M62.9,34.6c0.1,0,0.1-0.1,0-0.2l-0.2,0.1L62.9,34.6z"/>
						<path fill="#202020" d="M62.3,33.9c-0.2,0-0.5,0.1-0.4,0.3c0.3-0.1,0.2,0,0.5-0.1c0.1,0,0.2,0.1,0.1,0.2c0.1,0,0.2,0.1,0.3,0
							c-0.1-0.2-0.3-0.3-0.5-0.3C62.2,34,62.2,34,62.3,33.9z"/>
						<path fill="#202020" d="M70.7,28.1L70.7,28.1C70.6,28,70.7,28,70.7,28.1z"/>
						<path fill="#202020" d="M74.5,34.2c-0.1-0.1-0.1-0.1-0.1-0.1C74.5,34.2,74.5,34.2,74.5,34.2z"/>
						<path fill="#202020" d="M76.1,34.7C76.1,34.7,76.1,34.7,76.1,34.7C76.1,34.7,76.1,34.7,76.1,34.7z"/>
						<path fill="#202020" d="M70.7,28.1l0.2,0.1C70.9,28.1,70.8,28.1,70.7,28.1z"/>
						<path fill="#202020" d="M61.2,32.7c0,0.1,0,0.1,0,0.2L61.2,32.7L61.2,32.7z"/>
						<path fill="#202020" d="M67.4,28.4L67.4,28.4c-0.1,0-0.1,0.1-0.1,0.1L67.4,28.4z"/>
						<path fill="#202020" d="M65.1,29.5c0.1,0,0-0.2,0-0.2C65.1,29.4,65,29.4,65.1,29.5C65,29.5,65,29.5,65.1,29.5z"/>
						<path fill="#202020" d="M62.1,32.3L62.1,32.3C62,32.4,62.1,32.4,62.1,32.3z"/>
						<path fill="#202020" d="M69.2,28.1C69.2,28.1,69.2,28.2,69.2,28.1C69.2,28.1,69.2,28.1,69.2,28.1z"/>
						<path fill="#202020" d="M49,42.4C49,42.4,49,42.4,49,42.4C49,42.4,49,42.4,49,42.4z"/>
						<path fill="#202020" d="M50,39.3L50,39.3C50,39.3,50.1,39.3,50,39.3L50,39.3z"/>
						<path fill="#202020" d="M78.7,34.1C78.7,34.1,78.7,34.1,78.7,34.1C78.6,34.2,78.7,34.2,78.7,34.1z"/>
						<path fill="#202020" d="M84.3,45.6c0.3,0-0.3,0.3,0.1,0.3C84.4,45.9,84.6,45.5,84.3,45.6z"/>
						<path fill="#202020" d="M61.2,32.6l0.1-0.1C61.3,32.5,61.2,32.5,61.2,32.6z"/>
						<path fill="#202020" d="M84.4,45.9L84.4,45.9L84.4,45.9C84.5,45.9,84.5,45.9,84.4,45.9z"/>
						<path fill="#202020" d="M83.8,32.8C83.8,32.8,83.8,32.8,83.8,32.8C83.8,32.8,83.8,32.8,83.8,32.8z"/>
						<path fill="#202020" d="M79.9,33.3l0.1,0C80,33.3,80,33.3,79.9,33.3z"/>
						<path fill="#202020" d="M85.7,33.4c0,0,0,0.1,0.1,0.1L85.7,33.4C85.7,33.5,85.7,33.4,85.7,33.4z"/>
						<path fill="#202020" d="M86.9,35.1C86.9,35,86.9,35,86.9,35.1l0-0.1L86.9,35.1z"/>
						<path fill="#202020" d="M54.7,46.9c-0.1,0-0.1-0.1-0.2-0.1C54.6,46.9,54.2,47,54.7,46.9z"/>
						<path fill="#202020" d="M61.3,32.7c0,0,0-0.1,0-0.1L61.3,32.7C61.2,32.7,61.2,32.7,61.3,32.7z"/>
						<path fill="#202020" d="M86.5,32.5c0,0,0.3,0.3,0.3,0.3C86.7,32.7,86.6,32.6,86.5,32.5z"/>
						<path fill="#202020" d="M69.2,44.8L69.2,44.8C69.2,44.8,69.2,44.8,69.2,44.8z"/>
						<path fill="#202020" d="M87.6,33.8c0,0.1,0,0.2,0,0.3c0,0,0,0,0.1,0C87.7,34,87.6,33.8,87.6,33.8z"/>
						<path fill="#202020" d="M54.5,46.8L54.5,46.8L54.5,46.8z"/>
						<path fill="#202020" d="M51.7,46.8c0.4,0.2,0.3-0.1,0.4-0.2c0.5,0.1,0.2,0.2,0.3,0.4c0.3,0,0.6-0.1,0.8-0.1c0,0,0.1,0.1,0,0.1
							c0.3-0.1,1,0,1.3-0.3c0,0,0.1,0,0.1,0c-0.1-0.1-0.1-0.2-0.1-0.3c0.2,0,0.3-0.2,0.4-0.1c-0.1,0-0.1,0.1-0.1,0.1l0.2-0.1
							c0.2,0.1-0.2,0.2-0.2,0.3c0.4-0.2,0.6-0.5,0.9-0.6c0.2,0.1-0.5,0.4-0.1,0.4c0,0-0.4,0.2-0.4,0.1c0.4,0.1-0.3,0.1,0.2,0.3
							c0.6-0.3,0.6-0.4,1-0.8c0-0.2-0.1-0.1-0.1-0.2c0.4-0.7,0.8-0.1,0.9-0.7c0-0.2-0.2-0.4,0.2-0.6l0.1,0.2
							c0.3-0.3-0.1-0.4,0.4-0.6c0,0.1-0.2,0.3-0.1,0.3c0.3-0.1,0.1-0.2,0.2-0.4l0.2,0.1c0.3-0.3,0.7-0.7,1.2-0.9
							c0,0.1-0.1,0.2,0.1,0.2c0.6-0.3,1.4-0.4,2-0.3l0.2-0.2c0.1,0,0.1,0.1,0,0.1c0.3,0.1,0-0.1,0.1-0.2c0.1,0,0.2,0.1,0.1,0.1
							c0.4-0.2,1.3-0.2,1.8,0l-0.1,0c0.4,0.1,0.5-0.3,0.8,0l-0.1,0c0.8,0.3,1.7,0.4,2.2,0.8c0.2-0.2,0.8,0.4,0.9,0.1
							c0.4,0.3,0.3,0.3,0.9,0.6c0.2,0.1,0.3-0.1,0.6-0.1l0,0.2l0.4-0.1l0.1,0.2l0.2,0c-0.1,0-0.2-0.1-0.1-0.2c0.3,0,0.8,0.3,0.8,0.4
							l0.8,0c0,0.1-0.2,0.1-0.3,0.1c0.5-0.1,0,0.2,0.5,0.1c0,0,0-0.1,0.1-0.1c0.2,0.1,0.6,0.2,1,0.2l-0.1,0.1
							c0.6,0.1,1.3,0.1,1.9,0.1c-0.2-0.1-0.2-0.3,0-0.3l0.1,0.2c0.1-0.1-0.2-0.1,0.1-0.2c0.2,0,0.1,0.2,0,0.3l0.3,0
							c0,0.1-0.1,0.1-0.1,0.1c0.1-0.1,0.5,0.2,0.7,0l0,0.1c0.6,0.1,0.9,0,1.4,0.1c0-0.2,0.2-0.1,0.4-0.2c0.4,0.1,0.7,0.3,1.2,0.4
							c0.3,0,0.1-0.1,0.3-0.1c0,0.1,0.4,0.3,0.2,0.3c0.5,0.1,0.7,0.2,1.4,0.3c-0.1-0.1-0.1-0.1-0.1-0.2c0.1,0,0.3,0.2,0.2,0.2l0,0
							c0.4,0,0.8,0.3,1.3,0.5c0.4,0.2,0.9,0.3,1.3,0.2l0,0c0,0,0.2,0,0.4-0.1c0.2,0,0.4-0.1,0.4-0.1c0.3,0-0.2,0.1,0.1,0.2
							c0.8-0.3,1.3-0.2,1.8-0.7c0.3,0.1,0.7-0.2,1.1-0.5c0.4-0.3,0.7-0.7,1-0.9l-0.1,0c0-0.2,0.2-0.1,0.3-0.2c-0.1,0-0.2,0.1-0.2,0
							c0.8-1.2,1.6-2.6,2-4c0.1-0.5-0.4-0.4-0.1-1l0.2,0.2c-0.1-1.1,0.1-2.2-0.3-3.3c0.1,0.1,0.1,0,0.1,0.2c0.1-0.2-0.2-0.8-0.3-0.8
							c0-0.2,0.1-0.1,0.1-0.2c0-0.2-0.3-0.5-0.2-0.7c0,0,0.1,0,0.1,0.1c-0.1-0.1-0.2-0.7-0.3-0.5c-0.1-0.4-0.4-0.7-0.5-1
							c-0.2-0.1-0.3-0.6-0.6-0.6c0.2-0.1-0.3-0.7-0.6-0.8c0.1,0-0.1-0.2,0-0.2c-0.2-0.2-0.5-0.3-0.5-0.2c-0.3-0.6-1.1-0.3-1.3-0.7
							c-0.9-0.1-1.8,0-2.5,0.2c0-0.3,0.8-0.1,0.8-0.4c-0.8,0.2-1.1,0.4-1.8,0.6c-0.2,0,0.1-0.1,0.1-0.2c-0.7,0.3-1.3,0.4-1.9,0.7
							c0,0,0-0.1,0.1-0.1c-0.1,0.1-0.3,0.1-0.2,0.2l0.1-0.1C79.6,32.5,79,33,79,33c0.1-0.4-0.6,0.1-0.4-0.4c-0.1,0-0.1,0.1-0.1,0.2
							c-0.1,0-0.2,0-0.1-0.1c-0.4,0.2-0.2,0.3-0.5,0.4c0-0.1,0-0.1,0.1-0.2c-0.1,0.2-0.3,0.3-0.6,0.4c0,0,0-0.1,0-0.1
							c-0.5,0.2-0.8,0.6-1.4,0.6c0.1-0.3-0.2,0-0.2-0.3c0,0-0.2,0.1-0.2,0.1l0.1,0.1c-0.2,0-0.4,0.1-0.6-0.1c0,0,0.2,0,0.2,0
							c0,0-0.3-0.2-0.3-0.2c0,0,0.1,0.2,0.1,0.2c-0.2-0.1-0.2,0.2-0.4-0.1c0.1,0.1-0.2-0.2-0.1-0.4l0,0c-0.1-0.1-0.2-0.2-0.2-0.4
							c0.1-0.1,0.2,0,0.3-0.1c-0.2-0.1-0.2-0.6-0.4-0.8c0,0.1,0.2,0,0.2,0l-0.2-0.1c0-0.1,0.1-0.2,0.1-0.1c0-0.4-0.2,0.2-0.2-0.3
							c0,0,0,0,0.1,0.1c0-0.5-0.2-0.9-0.3-1.4c0.2-0.2,0.2,0.4,0.3,0.2c-0.2-0.7-0.8-1.3-1.3-1.7l0.1,0.1c-0.3,0.2-0.3-0.4-0.7-0.5
							c0.1,0,0.2-0.1,0.1-0.1c-0.4-0.3-0.9-0.4-1.5-0.5l0.1-0.1c-0.2-0.1-0.7-0.2-1-0.3c-0.1,0.1-0.3,0-0.2,0.2
							c-0.4-0.3-0.9-0.2-1.2-0.1c-0.4,0.1-0.7,0.3-1.2,0.2c0.1,0,0.2-0.1,0.1-0.1l-0.6,0.2c0.1,0.1,0.1,0.1,0.3,0.1
							c-0.1,0.1-0.2,0.2-0.4,0.3c0.2-0.2-0.1-0.2-0.2-0.2c0,0,0,0.1,0,0.1c-0.4-0.1,0,0.2-0.4,0.3l0-0.1c-0.1,0.1-0.3,0.2-0.4,0.3
							c-0.1-0.1,0.1-0.1,0.1-0.3c-0.2,0.1-0.3,0.5-0.6,0.5c0.1-0.1,0.2-0.2,0.3-0.2c-0.3,0-0.3,0-0.5,0.1l0,0l-0.4,0.2l0.1,0
							c-0.1,0.5-0.5,0.4-0.7,0.9c0.2-0.4,0-0.2-0.1-0.3c-0.1,0-0.3,0.1-0.3,0c-0.1,0.2-0.3,0.1-0.4,0.5c0,0-0.2,0.2-0.2,0
							c-0.2,0.2,0.1,0,0.1,0.1c-0.2,0.4-0.9,0.5-1.1,1.2c-0.2,0.5-0.1,0.7-0.3,1.1c-0.2,0.1-0.1-0.2-0.1-0.2
							c-0.2,0.2-0.3,0.3-0.4,0.6c0-0.1-0.1,0-0.2,0c-0.1,0.2,0.1,0.2-0.1,0.5c0,0-0.1-0.1-0.1-0.2c0,0.2-0.1,0.3-0.1,0.4l0,0.2
							c0,0.1,0,0.1,0.1,0.1c0,0-0.1,0-0.2,0c0,0,0-0.1,0-0.2c0,0,0,0.1,0,0.1l0,0.1l0.1,0l0.3,0.1c0.2,0.1,0.4,0.1,0.5,0.1l-0.1-0.1
							c0.1,0-0.1,0.1-0.2,0.1c-0.4-0.1-0.3-0.2-0.3-0.2l0.2,0.1c0-0.1,0-0.1,0-0.2l-0.1,0l0-0.1c0,0,0-0.1,0-0.1
							c0-0.2,0-0.4,0.1-0.6c0,0,0.2,0.2,0.2,0.2c0,0,0-0.4,0-0.4c0.1,0,0.2,0,0.2,0.1c0.2-0.2,0-0.2,0.2-0.3c0,0,0,0,0,0l0.1-0.2
							c0,0.1,0.2,0.1,0.1,0.2c0.3-0.3,0.2-0.7,0.5-0.7l0,0c0.3-0.5-0.1-0.1,0-0.6c0,0,0.1,0,0.3,0c0.1,0,0.3,0,0.3,0l-0.1-0.2
							c0,0,0.1-0.1,0.2-0.1c0.1-0.2-0.1,0-0.1-0.2c0.3-0.1,0.5-0.6,0.8-0.5c0-0.2-0.3,0.1-0.1-0.2c0.3,0.2,0.2-0.3,0.5-0.3
							c0,0.2-0.2,0.3,0.1,0.2c0-0.3,0.4-0.3,0.6-0.4c-0.1-0.2,0.4-0.3,0.6-0.6c0,0.1,0.7-0.2,1-0.3l0,0c0-0.2,0.3-0.3,0.6-0.4
							c0,0.1,0,0.2-0.1,0.3l0.2-0.1c0-0.1,0.1-0.1,0.2-0.2l0,0.2c0.3-0.1,0.6-0.3,1-0.3c0-0.1-0.4-0.3,0-0.5c0,0.1,0.1,0.2-0.1,0.2
							c0,0,0.1-0.1,0.2-0.1l-0.2,0.2c0.2,0,0.1-0.1,0.2-0.1c0,0.1,0.1,0.1,0.1,0.2c0,0-0.1,0-0.2,0c0.2,0,0.4,0.1,0.4,0.1
							c0-0.1,0-0.2,0.1-0.2c0.3,0,0.1,0.1,0.3,0.2c0.1-0.1,0.3,0,0.3-0.1c0.1,0,0.1,0.1,0.1,0.1c0.2-0.1,0.7,0.1,0.6-0.1l0,0l0,0
							l0,0l0,0c0.6-0.1,1.1,0.4,1.5,0.6l0,0c0.3,0.1,0.6,0.4,0.8,0.4c0.1,0.1,0.1,0.2,0,0.2c0.2,0.1,0.3,0.1,0.4,0.5
							c-0.2-0.1,0,0.1-0.2-0.2c0.1,0.3,0.1,0.4,0.3,0.6c-0.2,0-0.1,0.2,0,0.4c0,0,0-0.2,0-0.2c0.1,0.1,0.1,0.3,0.1,0.4l-0.2,0
							c-0.1,0.6,0.5,1.1,0.2,1.7c0.2,0.2,0-0.4,0.2-0.2c0,0.3-0.2,0.7-0.2,0.8c0,0.5,0.4,0.4,0.6,0.9c0-0.1,0.1-0.2,0.4,0
							c0.2,0.3,0.2,0.5-0.1,0.4c-0.1-0.1-0.1-0.1-0.1-0.1c-0.1-0.1-0.2-0.2-0.2,0l0.1,0c0.1,0.2,0.6,0.5,0.4,0.5
							c0.3,0.1,0.2,0,0-0.2c0.4,0.3,0.8,0.3,1.3,0.3c-0.1,0-0.2-0.1-0.1-0.1c0.7,0,0.3-0.2,0.7-0.3c0.3,0,0,0.3,0.4,0.1
							c0.3,0,0.1,0.2,0,0.2c0.3-0.2,0.7-0.1,0.9-0.2l-0.2,0.1c0.1-0.1,0.2-0.1,0.3-0.1l-0.2-0.1c0.1,0,0.2-0.1,0.2,0
							c0.1-0.1-0.2-0.2,0-0.4c0.2,0,0.4-0.2,0.5-0.1c-0.5,0.1,0.1,0.1-0.3,0.3c0.1,0,0.2-0.1,0.3-0.1c0,0,0,0,0,0.1
							c0.5,0,0.1-0.3,0.6-0.4c0,0.1,0.2,0.1,0.2,0.1c-0.2,0.1-0.1-0.1,0-0.3c0.3,0,0.3-0.2,0.4-0.2l-0.2,0c0-0.1,0.2-0.2,0.4-0.3
							c0,0.1-0.2,0.1-0.1,0.1c0.2-0.2,0.6,0,0.8-0.2c0.2,0,0.1,0.2,0.2,0.2c0.3-0.2,0.4,0,0.7-0.2c-0.1-0.1-0.1-0.1,0.1-0.3L81.3,33
							l0.3-0.3c-0.2,0-0.4,0.2-0.5,0.2c0.2-0.2,0.1-0.1,0-0.2c0.3,0.1,0.5-0.3,0.8-0.2l0.1,0.3c0.4,0.1,0.7-0.3,1.3-0.2
							c0,0-0.2-0.1-0.2-0.1c0.1-0.1,0.3,0,0.5,0c0,0.1,0.1,0.1,0.1,0.2c0-0.1,0.4,0.1,0.5-0.1l0.2,0.2c0.4,0.2,0.6-0.1,0.9,0.1
							c-0.2,0-0.1,0.2-0.3,0.1c0.1,0.1,0.2,0.2,0.3,0.1c0,0.1,0.4,0.1,0.4,0.3c0.1,0,0.2-0.1,0.3,0.1c0,0,0,0,0,0
							c0,0,0.2,0.1,0.2-0.1c0.1,0.5,0.8,1,0.7,1.5c0.2,0.3,0.4,0.6,0.4,0.9c0,0-0.1,0-0.1,0c0,0.4,0.4,0.1,0.4,0.6
							c-0.1,0.3-0.2-0.2-0.2-0.1c-0.3,0.1,0.2,0.5,0,0.9l0-0.1c-0.1,0.2,0.2,0.6,0.2,0.9c0,0,0,0-0.1,0c0.2,0.3,0.3,0.8,0.3,1.2
							c-0.1-0.1-0.1-0.2-0.2-0.1c0,0.2,0.2,0,0.3,0.3c-0.1,0.1-0.2,0.3-0.3,0.4l0-0.3c-0.2,0.1,0,0.4-0.1,0.6l-0.1,0
							c0,0.5,0.2,0.5,0,1l0.1,0c0.1,0.3-0.2,0.2-0.1,0.5l-0.2,0c0,0.2,0,0.7-0.1,1c-0.1-0.2,0-0.6,0-0.9c0,0.2-0.2,0.6-0.1,0.7
							c0-0.1,0-0.2,0-0.2c0.1,0.3,0,0.6-0.1,0.9c-0.3-0.2-0.6,0.8-1,0.8c-0.2,0.6-0.8,0.9-1.4,1.3c0.4,0.1-0.2,0.1,0,0.4
							c-0.1,0.1-0.2,0.1-0.2,0.1c0,0-0.1,0-0.3,0c-0.1,0-0.3,0-0.3,0c-0.1-0.1,0.1-0.1,0.1-0.2c-0.3,0.1-0.2-0.1-0.4-0.1
							c0.1,0.1-0.1,0.2-0.3,0.2c0,0,0.3,0.1,0.3,0.1c-0.4,0.3-0.5-0.2-0.9,0.1l0.1-0.1c-0.2,0.1-0.9,0-1.2,0.2c0,0-0.1-0.2,0-0.2
							c-0.6-0.1-1.5-0.1-2-0.4l0.1-0.1c-0.1,0-0.3,0.1-0.4-0.1c0,0,0.1-0.1,0-0.1c-0.1,0-0.4,0-0.5-0.1l0.2,0
							c-0.6-0.3-1.1-0.1-1.7-0.2c0.1-0.2-0.5-0.4-0.8-0.5l0,0c-0.8-0.2-1.4,0-2.2,0.1c-0.4-0.3-1.5-0.2-2.2-0.4
							c0.1,0.1,0,0.2-0.2,0.2c-0.2-0.1-0.5,0.1-0.4-0.1l0.1,0c-0.1-0.2-0.4-0.2-0.7-0.3l-0.1,0.3c-0.6-0.5-1.8-0.3-2.1-0.8
							c-0.2,0-0.4-0.1-0.6,0l0.1-0.1c-0.4-0.2-0.7-0.3-1.2-0.5l0.2-0.1c-0.3-0.1-0.6,0.3-0.9,0.2l0-0.3c-0.6-0.2-1.1-0.6-1.7-0.5
							c0,0,0.1-0.1,0.2-0.1c-0.3-0.1-1.1-0.4-1-0.1c0-0.2-0.6-0.1-1-0.1l0.1-0.1c-0.3,0.2-0.3,0.2-0.7,0.3c-0.1,0-0.1-0.1,0-0.1
							c-0.3-0.1-0.2,0.1-0.6,0.1l0.1-0.1c-0.3,0-0.3,0-0.5,0.2c-0.2,0.1-0.6,0-0.7-0.1c0,0.1-0.2,0.2-0.4,0.2c0,0,0-0.1,0.1-0.1
							c-0.6,0-0.7,0.3-1.1,0.3c0,0-0.1-0.1-0.1-0.1c0.4-0.1,0.8-0.2,0.7-0.2c0-0.1-0.4-0.1-0.2-0.3c-0.3,0.2-0.7,0.5-1,0.6
							c0,0,0,0-0.1,0l0,0c-0.1,0-0.1,0.1-0.2,0.1c-0.1,0-0.2,0-0.3,0.1c-0.1-0.1-0.4,0.1-0.6,0.2c0.1,0.1-0.1,0.2,0.1,0.2
							c0,0,0,0,0.1-0.1c0,0,0,0,0.1-0.1l0,0c0.1-0.1,0.2-0.1,0.4-0.2c-0.1,0.1-0.2,0.3-0.4,0.3c0,0.1-0.1,0.3-0.1,0.3
							c-0.3-0.1-0.8,0.2-0.9,0.1c-0.4,0.4-0.8,1-0.8,1.4c-0.1,0.1-0.2,0.1-0.2,0.1c0-0.1,0.1-0.2,0.1-0.2c-0.1,0.3-0.5,0.6-0.4,0.8
							c-0.3,0.2,0-0.3-0.3,0.1l0-0.1c-0.4,0.1-0.6,0.4-0.9,0.6c-0.3,0.2-0.7,0.3-1.2,0c0.1,0,0.1,0.1,0.1,0.1
							c-0.5-0.2-1.1-0.4-1.6-0.7c-0.5-0.3-0.9-0.8-1-1.3c-0.1-0.3-0.2-0.3-0.4-0.4l0.1-0.1l-0.3-0.3c-0.3-0.5,0.2-0.9-0.1-1.5
							l-0.1,0.1c0-0.2-0.1-0.7,0.1-0.7c0,0-0.1-0.1-0.1-0.2l0.1,0l-0.1-0.6c0.1-0.4,0.3,0.1,0.4-0.5c0-0.2-0.1-0.7-0.2-0.6
							c0,0.1-0.1,0.2-0.2,0.2l0-0.2c-0.2-0.1-0.5-0.3-0.8,0.2l0.1,0.4L49.2,40l0-0.3c-0.2,0.2-0.1,0.3,0,0.4c-0.1,0-0.1,0.1-0.2,0.1
							l0.2,0.4c-0.1,0-0.2-0.2-0.3,0.1c0.1,0.2,0.2-0.2,0.3,0.2c-0.1,0.2-0.2,0.1-0.1,0.3c-0.1,0-0.1,0-0.1-0.1
							c0.1,0.2,0,0.5,0.2,0.6C49,42,49.3,42.4,49,42.4c0.1,0.1,0.2,0.3,0.3,0.5c-0.4-0.3,0.1,0.7-0.2,0.7c0.3,0.2,0.4,0.9,0.8,1.2
							c0,0-0.1,0-0.1-0.1C50,45,50,45.1,50,45.3c0.2-0.1,0.5,0.2,0.7,0.2c0.1,0.4-0.3,0-0.4,0.3c0.1-0.1,0.5,0.3,0.6,0.1
							c0.1,0.3,0.1,0.2,0.1,0.4c0.2-0.2,0.2,0.1,0.5,0.1c0.2,0.3,0,0.3,0.4,0.4C52,46.9,51.7,46.8,51.7,46.8z M59,43.1L59,43.1
							c-0.1,0-0.1,0.1-0.1,0.1C58.9,43.2,58.9,43.2,59,43.1z M59.6,42.9c-0.1,0-0.2,0-0.3,0.1c0,0,0-0.1,0-0.1
							C59.3,42.9,59.5,42.9,59.6,42.9z M57.8,42.5c0.1-0.1,0.1-0.1,0.2,0C57.9,42.5,57.9,42.5,57.8,42.5L57.8,42.5
							C57.8,42.6,57.8,42.5,57.8,42.5z"/>
						<path fill="#202020" d="M57.7,42.8C57.7,42.8,57.7,42.8,57.7,42.8C57.7,42.8,57.7,42.8,57.7,42.8L57.7,42.8L57.7,42.8z"/>
						<path fill="#202020" d="M70.6,28L70.6,28C70.6,28,70.6,28,70.6,28C70.6,28,70.6,28,70.6,28z"/>
						<polygon fill="#202020" points="68.5,44.7 68.5,44.6 68.4,44.7 						"/>
						<path fill="#202020" d="M66.8,27.9C66.8,27.8,66.8,27.8,66.8,27.9C66.8,27.8,66.8,27.8,66.8,27.9z"/>
						<path fill="#202020" d="M65.3,28.5L65,28.6C65.1,28.6,65.2,28.5,65.3,28.5z"/>
						<path fill="#202020" d="M64.1,29.2C64.1,29.2,64.1,29.2,64.1,29.2L64.1,29.2L64.1,29.2z"/>
						<path fill="#202020" d="M79.5,32.4C79.5,32.4,79.5,32.3,79.5,32.4C79.6,32.3,79.6,32.3,79.5,32.4z"/>
						<path fill="#202020" d="M74.6,33.2c0,0,0.1,0.1,0.1,0.1C74.7,33.3,74.6,33.2,74.6,33.2z"/>
						<polygon fill="#202020" points="86.5,32.5 86.5,32.5 86.5,32.5 						"/>
						<path fill="#202020" d="M74.8,33.5c0-0.1-0.1-0.1-0.1-0.2C74.7,33.4,74.8,33.5,74.8,33.5z"/>
						<path fill="#202020" d="M61.2,34L61.2,34c0.1,0,0.1,0,0.1,0L61.2,34z"/>
						<path fill="#202020" d="M61.3,34l0.1,0C61.4,34,61.4,34,61.3,34z"/>
						<path fill="#202020" d="M61.7,34.1L61.4,34C61.5,34,61.6,34.1,61.7,34.1z"/>
						<path fill="#202020" d="M61.5,32.1L61.5,32.1C61.5,32.1,61.5,32.1,61.5,32.1z"/>
						<path fill="#202020" d="M61.8,31.6c-0.1,0.1-0.3,0.2-0.3,0.4l0,0C61.5,31.9,61.8,31.8,61.8,31.6z"/>
						<path fill="#202020" d="M63.7,30.5l-0.3,0.3c0.1,0,0.2,0,0.1,0.1C63.9,30.6,63.3,30.8,63.7,30.5z"/>
						<path fill="#202020" d="M64.7,29.7c-0.2,0.2,0.1,0.1,0.1,0.1C64.9,29.7,64.9,29.7,64.7,29.7z"/>
						<path fill="#202020" d="M72.9,29.4l-0.1,0.1C72.9,29.5,72.9,29.4,72.9,29.4z"/>
						<polygon fill="#202020" points="74.3,30.7 74.4,30.5 74.2,30.5 						"/>
						<polygon fill="#202020" points="73.4,31.9 73.4,31.8 73.5,32.1 						"/>
						<path fill="#202020" d="M86.6,34.8l0.1-0.1C86.7,34.6,86.5,34.7,86.6,34.8z"/>
						<path fill="#202020" d="M87.5,41.1c-0.1,0.1-0.2,0.2-0.1,0.3C87.4,41.3,87.5,41.2,87.5,41.1z"/>
						<polygon fill="#202020" points="70.6,43.8 70.7,43.8 70.5,43.8 						"/>
					</g>
				</g>
			</g>
		</g>
	</g>
	<g>
		<g>
			<g>
				<g>
					<g>
						<path fill="#202020" d="M100.8,56.7c0.1,0,0-0.2-0.1-0.1c0,0-0.1,0.2-0.1,0.2C100.6,56.8,100.8,56.7,100.8,56.7z"/>
						<path fill="#202020" d="M99.7,57.1c-0.1,0.3,0,0.6,0.2,0.5c0-0.3,0-0.3,0-0.6c0.1-0.2,0.3-0.2,0.3-0.2c0-0.1,0.2-0.1,0.3-0.3
							C100.2,56.5,99.8,56.8,99.7,57.1C99.7,57.2,99.7,57.2,99.7,57.1z"/>
						<path fill="#202020" d="M92.3,77.7l0.1-0.1C92.4,77.6,92.3,77.6,92.3,77.7z"/>
						<path fill="#202020" d="M87.9,90.5c0-0.1,0-0.1,0-0.2C87.9,90.4,87.9,90.5,87.9,90.5z"/>
						<path fill="#202020" d="M87,92.6c0,0,0-0.1,0.1-0.1C87,92.5,87,92.6,87,92.6z"/>
						<path fill="#202020" d="M92.3,77.7L92.1,78C92.2,78,92.2,77.8,92.3,77.7z"/>
						<path fill="#202020" d="M99,60.1c0-0.1,0-0.1,0-0.2L99,60.1L99,60.1z"/>
						<path fill="#202020" d="M94.1,72l0-0.1c0,0,0-0.1,0-0.1L94.1,72z"/>
						<path fill="#202020" d="M95.5,67.6c0,0.1,0.1,0.2,0.1,0.2c0-0.1,0-0.2,0-0.2C95.6,67.6,95.6,67.6,95.5,67.6z"/>
						<path fill="#202020" d="M98.1,60.8l0-0.1C98.1,60.7,98.1,60.8,98.1,60.8z"/>
						<path fill="#202020" d="M93,75.1C93,75.1,92.9,75.1,93,75.1C92.9,75.1,93,75.1,93,75.1z"/>
						<path fill="#202020" d="M42.8,62.1C42.9,62.1,42.9,62.1,42.8,62.1C42.8,62,42.8,62,42.8,62.1z"/>
						<path fill="#202020" d="M41.6,56.9L41.6,56.9c0.1,0.1,0.1,0.1,0.1,0L41.6,56.9z"/>
						<path fill="#202020" d="M85.5,96.5C85.5,96.5,85.5,96.5,85.5,96.5C85.5,96.4,85.5,96.5,85.5,96.5z"/>
						<path fill="#202020" d="M74,119.8c0.2,0.4-0.6-0.4-0.3,0.2C73.7,120,74.3,120.3,74,119.8z"/>
						<path fill="#202020" d="M99,60.2l-0.1,0.2C98.9,60.3,99,60.2,99,60.2z"/>
						<path fill="#202020" d="M73.7,120L73.7,120L73.7,120C73.8,120.1,73.8,120.1,73.7,120z"/>
						<path fill="#202020" d="M82.6,105.8C82.6,105.8,82.7,105.8,82.6,105.8C82.7,105.8,82.7,105.8,82.6,105.8z"/>
						<path fill="#202020" d="M85,99L85,99.2C85,99.1,85,99.1,85,99z"/>
						<path fill="#202020" d="M81.6,109.5c0,0.1-0.1,0.1-0.1,0.2c0,0,0,0,0,0C81.6,109.7,81.6,109.6,81.6,109.5z"/>
						<path fill="#202020" d="M80.4,113.2L80.4,113.2c0.1-0.1,0.1-0.1,0.1-0.2L80.4,113.2z"/>
						<path fill="#202020" d="M48.1,72.9c0-0.1,0-0.2,0-0.2C48,72.7,47.7,72.2,48.1,72.9z"/>
						<path fill="#202020" d="M98.9,60.1c0,0,0,0.1,0,0.1L98.9,60.1C99,60,99,60,98.9,60.1z"/>
						<path fill="#202020" d="M82.8,110l-0.2,0.6C82.6,110.4,82.7,110.2,82.8,110z"/>
						<path fill="#202020" d="M61.1,97.5l-0.1-0.1C61.1,97.4,61.1,97.4,61.1,97.5z"/>
						<path fill="#202020" d="M82,112.4c-0.1,0.1-0.2,0.2-0.2,0.3c0,0,0,0.1,0,0.1L82,112.4z"/>
						<path fill="#202020" d="M48.1,72.6L48.1,72.6L48.1,72.6z"/>
						<path fill="#202020" d="M45.8,69.1c0.3,0.5,0.3,0.2,0.5,0.2c0.4,0.6,0,0.4,0,0.6c0.3,0.4,0.6,0.6,0.7,0.9c0,0,0,0.1-0.1,0.1
							c0.4,0.3,0.7,1.2,1.1,1.6c0,0,0,0.1,0,0.1c0-0.1,0.1-0.2,0.2-0.2c0.1,0.2,0.4,0.4,0.3,0.5c-0.1-0.1-0.1-0.1-0.2-0.2l0.2,0.2
							c0,0.3-0.2-0.3-0.4-0.2c0.3,0.4,0.8,0.9,1,1.3c-0.1,0.2-0.6-0.8-0.4-0.2l-0.3-0.6c0,0.6-0.2-0.4-0.2,0.2
							c0.4,0.8,0.6,0.8,1,1.5c0.2,0.1,0.1-0.1,0.3,0c0.8,0.9,0.1,1.1,0.8,1.7c0.2,0.1,0.5,0.1,0.7,0.7l-0.3-0.1
							c0.5,0.7,0.5,0.2,0.9,1c-0.2-0.1-0.4-0.5-0.4-0.4c0.2,0.6,0.3,0.3,0.6,0.6l-0.1,0.2c0.5,0.7,1.2,1.4,1.8,2.1
							c-0.1,0-0.2-0.1-0.1,0.1c0.8,0.9,1.5,2.1,2,3.2l0.4,0.3c0.1,0.1,0,0.2,0,0.1c0.2,0.4,0.1,0,0.3,0.1c0.1,0.2,0.1,0.3,0,0.2
							c0.5,0.6,1.4,1.8,1.5,2.7l-0.1-0.1c0.2,0.6,0.6,0.5,0.7,1.2L58,88.4c0.4,1.3,0.9,2.8,0.9,4c0.3,0.1,0.3,1.4,0.7,1.4
							c0.2,0.8,0,0.7,0.4,1.8c0.1,0.3,0.4,0.3,0.6,0.7l-0.1,0.1l0.4,0.4l-0.1,0.3l0.2,0.3C61,97.2,61,97,61,97
							c0.3,0.5,0.5,1.3,0.5,1.3l0.7,1.1c-0.1,0-0.2-0.2-0.3-0.3c0.5,0.5-0.1,0.2,0.3,0.7c0-0.1,0.1,0,0.1,0c0.1,0.3,0.4,1,0.6,1.4
							l-0.1,0c0.3,0.9,0.8,1.9,1.1,2.9c-0.1-0.4,0.2-0.4,0.3-0.1l-0.1,0.2c0.2,0.2,0-0.3,0.2,0c0.1,0.4-0.1,0.3-0.2,0.1l0.2,0.5
							c0,0-0.1-0.1-0.2-0.1c0.2,0.2,0.1,0.9,0.3,1.1l0,0c0.3,1.1,0.5,1.5,0.8,2.4c0.2,0,0.2,0.3,0.4,0.5c0.1,0.7,0.3,1.4,0.5,2.2
							c0.3,0.5,0.2,0.1,0.4,0.3c-0.1,0.1,0.2,0.8-0.1,0.5c0.4,0.9,0.5,1.2,1.2,2.2c0-0.1-0.1-0.3,0-0.2c0.1,0.2,0.2,0.5,0.1,0.5l0,0
							c0.8,1.1,1.5,2.9,2.5,3.6l-0.1,0l0.9,0.7c0.3,0.4-0.3-0.1-0.1,0.2c1,0.7,1.3,1.4,2.1,2c0.2,0.8,1.9,1.9,2.2,2.9l0-0.1
							c0.1,0.1,0.1,0.1,0.2,0.2c0,0.1,0,0.1,0.1,0.3c0-0.1-0.1-0.3,0-0.2c0.2,0.3,0.5,0.8,0.7,1.2c0.2,0.5,0.5,1.3,0.8,2
							c0.3,0.8,0.6,1.8,0.9,2.8c0.3,0.8,0.5,1.7,0.8,2.5c-0.1-1.5-0.1-3.1-0.2-4.6l-0.1-1.3l0-1c0-0.4,0.1-0.6,0.1-0.9
							c0-0.3,0.1-0.6,0.1-0.9c0.2-0.9-0.4-0.6,0.1-1.6l0.1,0.3c0.2-1.7,1-3.3,1.3-5c0,0.1,0.1,0.1,0,0.3c0.2-0.3,0.4-1.3,0.3-1.3
							c0.1-0.2,0.1,0,0.2-0.2c0.2-0.3,0.1-0.9,0.3-1c0,0,0,0.1,0,0.2c0-0.2,0.4-1,0.1-0.9c0.3-0.6,0.3-1.2,0.6-1.6
							c-0.1-0.4,0.4-1,0.2-1.2c0.2,0.1,0.5-1,0.5-1.4c0,0.2,0.2-0.3,0.2-0.1c0.1-0.4,0.2-0.8,0.1-0.8c0.5-0.7,0.3-1.7,0.8-2
							c0.3-1.3,0.6-2.6,0.9-3.7c0.2,0.1-0.4,1.3-0.1,1.3c0.3-1.1,0.3-1.8,0.7-2.9c0.1-0.3,0.1,0.2,0.1,0.3c0.3-1.1,0.7-2.1,0.9-3.1
							c0,0,0,0.1,0,0.2c0.1-0.2,0.2-0.4,0.1-0.5l0,0.2C85.9,99.2,86,98.1,86,98c0.2,0.4,0.4-0.9,0.6-0.3c0-0.1,0-0.3-0.1-0.3
							c0.1-0.2,0.1-0.2,0.2,0c0.2-0.7,0-0.5,0.2-1.1c0.1,0,0,0.2,0.1,0.2c0-0.4,0-0.7,0.2-1.2c0,0,0.1,0,0,0.2
							c0.3-0.9,0.2-1.6,0.7-2.6c0.1,0.4,0.2-0.3,0.4-0.3l0.1-0.6l-0.2,0.2c0.2-0.5,0.1-0.9,0.3-1.3l0,0.4l0.2-0.9l-0.2,0.5
							c0.1-0.5-0.3,0,0-0.6c0,0.1,0.2-0.5,0.4-0.7l0,0c0-0.3,0-0.5,0.2-0.8c0.1-0.1,0.2,0.1,0.3,0.1c-0.1-0.3,0.3-1.1,0.2-1.5
							c0,0.1,0.1,0.1,0.1,0.1l-0.1-0.2c0.1-0.2,0.1-0.2,0.2-0.2c0.2-0.6-0.3,0.1,0-0.6c0,0.1,0,0,0,0.2c0.3-0.8,0.4-1.5,0.7-2.2
							c0.3-0.1-0.2,0.6,0.1,0.5c0.3-1,0.5-2.2,0.9-3.2l-0.1,0.2c-0.2-0.2,0.4-0.7,0.4-1.2c0,0.1,0.1,0.2,0.1,0.2
							c0.3-0.7,0.4-1.4,0.7-2.5l0,0.2c0.2-0.4,0.4-1,0.6-1.5c0-0.2,0.1-0.4-0.1-0.3c0.9-1.2,0.6-2.6,1.4-3.7c0,0.1-0.1,0.4,0,0.2
							l0.3-1c-0.1,0-0.1,0.1-0.3,0.3c0-0.2,0-0.5,0.1-0.7c-0.1,0.5,0.2,0.1,0.3-0.1c0,0-0.1-0.1-0.1-0.1c0.4-0.5-0.2-0.2,0.2-0.8
							l0.1,0.1c0.1-0.3,0.1-0.6,0.2-0.8c0.2-0.1,0,0.3,0.1,0.4c0.1-0.4,0-0.9,0.3-1.2c0,0.2-0.1,0.4-0.1,0.6
							c0.3-0.3,0.3-0.4,0.4-0.7l0,0l0.3-0.7l-0.1,0.2c-0.2-0.6,0.3-1.1,0.3-1.8c0,0.8,0.1,0.2,0.2,0.3c0.1-0.2,0.2-0.4,0.3-0.3
							c0-0.4,0.3-0.5,0.3-1c0.1,0,0.1-0.3,0.2-0.2c0.1-0.4-0.1,0.1-0.2,0c0-0.7,0.7-1.5,0.8-2.5c0.2-0.8,0.1-1.1,0.2-1.8
							c0.2-0.2,0.1,0.3,0.1,0.3c0.2-0.4,0.3-0.7,0.4-1.1c0,0.1,0.1,0,0.2-0.1c0.1-0.3-0.1-0.3,0.1-0.7c0,0.1,0.1,0.2,0.1,0.4
							c0.1-0.4,0.1-0.8,0.2-1.2c0.1-0.1,0.1,0.3,0.1,0.4c0.1-0.4,0.3-1.1,0.2-1.3l-0.1,0.2c0-0.2,0.1,0,0.1,0.1
							c0,0.4-0.2,0.5-0.3,0.5l0.1-0.3c-0.4,0.2-0.3,1.1-0.5,1.6l-0.1-0.3l0,0.6c-0.1,0.1-0.2,0.1-0.2-0.1c-0.2,0.3,0,0.4-0.3,0.7
							c0,0,0,0,0,0L98,61.2c0-0.1-0.2,0-0.1-0.2c-0.4,0.6-0.2,1.2-0.5,1.4l0-0.1c-0.2,1,0.1,0.1,0.1,0.9L97,63.6l0.1,0.2
							c0,0.1-0.1,0.3-0.2,0.2c0,0.4,0.1,0,0.1,0.2c-0.3,0.4-0.4,1.3-0.7,1.3c0.1,0.2,0.2-0.4,0.2,0.1c-0.3,0-0.1,0.6-0.4,1
							c-0.1-0.2,0.1-0.6-0.2-0.2c0.2,0.3-0.3,0.8-0.4,1.2c0.2,0.1-0.2,0.8-0.3,1.4c-0.1-0.1-0.5,1.1-0.8,1.6l0,0
							c0.2,0.2-0.1,0.7-0.2,1.2c-0.1-0.1-0.1-0.1-0.1-0.4l-0.1,0.4c0,0.1,0,0.3,0,0.5L94,72.2c-0.2,0.5-0.2,1.1-0.5,1.8
							c0.1,0.1,0.6-0.4,0.4,0.3c-0.1,0-0.2,0-0.2-0.2c0,0.1,0,0.2-0.1,0.4l0-0.3c-0.2,0.3,0,0.2,0,0.4c-0.1,0-0.1,0.2-0.2,0.1
							c0-0.1,0.1-0.2,0.1-0.3c-0.1,0.3-0.3,0.6-0.4,0.7c0.1,0,0.1,0,0.1,0.3c-0.2,0.5-0.2,0.1-0.3,0.4c0,0.2-0.2,0.5,0,0.5
							c-0.1,0.2-0.1,0.2-0.2,0.2c0,0.3-0.4,1.3-0.1,1l0-0.1c0,0,0,0,0,0l0,0l0,0c-0.1,1-0.7,1.8-1,2.8l-0.1,0
							c-0.1,0.6-0.4,1.2-0.4,1.6c-0.1,0.2-0.2,0.3-0.3,0.3c-0.1,0.4-0.1,0.5-0.3,1c0-0.4-0.1,0.1,0.1-0.4c-0.2,0.5-0.3,0.6-0.4,1.2
							c-0.1-0.2-0.3,0.3-0.3,0.6l0.2-0.3c-0.1,0.3-0.2,0.5-0.3,0.8l-0.1-0.2c-0.6,1-0.3,2.1-0.9,2.8c0,0.3,0.3-0.6,0.3-0.3
							c-0.2,0.5-0.6,0.9-0.7,1.1c-0.3,0.7,0,0.7-0.2,1.4c0.1-0.1,0.3-0.1,0.2,0.5c-0.2,0.5-0.5,0.5-0.4,0.2c0-0.1,0.1-0.2,0.1-0.2
							c0-0.2,0.1-0.4-0.1-0.2l0,0.1c-0.1,0.2-0.4,0.9-0.4,0.7c-0.1,0.4,0.1,0.2,0.2-0.1c-0.3,0.6-0.3,1-0.6,1.6
							c0.1-0.1,0.2-0.2,0.1-0.1c-0.4,0.9,0,0.5-0.2,1.1c-0.2,0.3-0.2-0.2-0.3,0.5c-0.2,0.4-0.2,0-0.2-0.1c-0.1,0.6-0.4,1.1-0.6,1.4
							L86,95c0,0.2-0.1,0.4-0.1,0.5l0.2-0.1c-0.1,0.2-0.1,0.3-0.2,0.3c0,0.2,0.3-0.1,0.2,0.3c-0.1,0.2-0.2,0.8-0.4,0.8
							c0.3-0.8-0.2,0,0-0.6c0,0.1-0.1,0.3-0.2,0.5c0,0,0,0,0-0.1c-0.4,0.7,0.1,0.4-0.2,1.2c-0.1-0.1-0.2,0.1-0.3,0.3
							c0.1-0.3,0.2-0.1,0.2,0.2C85,98.7,85.1,98.7,85,99l0.1-0.3c0.1,0.1,0,0.4-0.1,0.7c-0.1,0,0.1-0.3,0-0.2c0,0.4-0.5,0.8-0.5,1.4
							c-0.1,0.2-0.2,0-0.3,0.2c-0.1,0.6-0.3,0.6-0.4,1.3c0.2-0.1,0.2-0.2,0.1,0.3l0.2-1.1l0,0.7c0.1-0.3,0.1-0.7,0.2-0.9
							c0,0.4,0,0.3,0.1,0.2c-0.3,0.4-0.2,0.9-0.5,1.3l-0.3-0.1c-0.4,0.7-0.3,1.4-0.7,2.3l0.2-0.3c0.1,0.2-0.2,0.6-0.2,0.9
							c-0.1-0.1-0.2,0.1-0.3,0.2c0.1,0-0.2,0.7-0.1,0.9l-0.3,0.4c-0.3,0.8,0,1-0.3,1.7c0-0.3-0.2,0.1-0.1-0.5
							c-0.1,0.3-0.2,0.5-0.1,0.5c-0.1,0.1-0.1,0.7-0.3,0.9c0,0.1,0.1,0.2,0,0.5c0,0-0.1,0-0.1,0c0.1,0-0.1,0.5,0.1,0.3
							c-0.6,0.7-0.7,2.2-1.2,2.7c-0.1,0.6-0.3,1.2-0.5,1.7c0,0-0.1,0,0-0.1c-0.3,0.7,0.2,0.5-0.2,1.3c-0.3,0.3,0-0.4-0.1-0.2
							c-0.4,0-0.3,1-0.6,1.4l0-0.1c-0.2,0.4-0.2,1-0.4,1.7c0,0,0,0-0.1,0c0,0.5-0.2,1.4-0.3,2c-0.1-0.2,0-0.3-0.2-0.2
							c-0.1,0.3,0.2,0,0.1,0.6c-0.1,0.2-0.3,0.6-0.5,0.6l0.1-0.6c-0.3,0.2-0.2,0.7-0.3,1l-0.1-0.1c-0.1,0.4-0.1,0.7-0.1,0.9
							c0,0.2,0,0.3,0,0.7l0.1,0c0.1,0.3,0,0.4,0,0.4c0,0-0.1,0,0,0.4c0,0-0.2-0.3-0.2-0.4c0,0.2,0.1,0.5,0.1,0.8
							c0,0.2,0,0.4,0.1,0.6c0,0.1,0,0.2,0,0.3l0,0.1c0,0,0,0,0,0l0,0l0,0c-0.1-0.5-0.2-1.3-0.3-1.9c0,0.1,0,0.5,0.1,1
							c0-0.2-0.1-0.4,0-0.4c0,0.2,0.1,0.3,0.1,0.5c0,0.1,0.1,0.4,0,0.4c0,0-0.1-0.2-0.2-0.5c-0.1-0.6-0.2-0.9-0.3-1.1
							c-0.1-0.1-0.1-0.3-0.2-0.4c-0.1-0.1-0.1-0.3-0.1-0.4c-0.1,0-0.3-0.3-0.5-0.6c-0.2-0.2-0.4-0.5-0.5-0.7c-0.4-0.5-0.8-1-1.2-1.5
							c0.1,0.6-0.3-0.3-0.5,0c-0.2-0.2-0.3-0.3-0.3-0.3l-0.5-0.8c-0.1-0.2,0.3,0.2,0.3,0.1c-0.5-0.5-0.1-0.3-0.4-0.7
							c0,0.2-0.3,0-0.5-0.4l0.3,0.5c-0.8-0.6-0.4-0.8-1.2-1.4l0.3,0.1c-0.4-0.3-1.2-1.3-1.7-1.5c0-0.1,0-0.2,0.1-0.1
							c-0.7-0.9-1.7-1.9-2-2.8l0.1,0c-0.1-0.2-0.3-0.3-0.3-0.5c0,0,0.1,0,0.1,0c-0.1-0.1-0.4-0.5-0.4-0.7l0.2,0.2
							c-0.3-1.1-0.9-1.5-1.2-2.4c0.2-0.1,0-1-0.1-1.4l0,0c-0.3-1.3-0.8-2.1-1.3-3.3c0-0.8-0.7-2.6-1-3.8c0,0.2-0.2,0-0.3-0.2
							c-0.1-0.3-0.5-0.7-0.3-0.7l0,0.1c0.1-0.3-0.2-0.8-0.4-1.3l-0.3,0.1c-0.2-1.3-1.7-2.8-1.6-3.6c-0.2-0.2-0.3-0.6-0.5-0.8
							l0.1-0.1c-0.3-0.7-0.4-1.1-0.8-2l0.2,0.2c-0.2-0.5-0.6-0.5-0.8-1l0.2-0.2c-0.3-1-0.3-2-0.8-2.9c0,0,0.1,0,0.2,0.2
							c-0.1-0.5-0.5-1.8-0.7-1.6c0.2-0.1-0.4-1-0.7-1.4l0.2,0c-0.4-0.3-0.4-0.3-0.8-0.9c-0.1-0.1,0-0.2,0.1,0
							c-0.2-0.5-0.3-0.3-0.6-0.8l0.2,0.1c-0.3-0.5-0.3-0.4-0.5-0.6c-0.2-0.2-0.5-0.9-0.4-1c-0.1,0-0.4-0.2-0.5-0.5
							c0-0.1,0.1,0,0.2,0c-0.4-0.8-0.9-1-1.1-1.5c0,0,0-0.1,0-0.1c0.4,0.6,0.7,1,0.7,1c0.1-0.1-0.2-0.6,0.2-0.3
							c-0.3-0.3-1-0.8-1.3-1.3c0,0,0-0.1,0-0.1l0,0c-0.1-0.1-0.1-0.2-0.2-0.3c-0.1-0.2-0.1-0.3-0.2-0.4c0.1-0.1-0.3-0.6-0.5-0.8
							c-0.1,0.1-0.3-0.2-0.2,0.2c0,0,0,0,0.2,0.2c0,0,0.1,0.1,0.1,0.1l0,0c0.1,0.1,0.3,0.3,0.4,0.5c-0.2-0.1-0.4-0.3-0.5-0.6
							c-0.2-0.1-0.3-0.1-0.4-0.2c-0.1-0.4-0.4-1.1-0.3-1.3c-0.6-0.6-1.2-1.6-1.7-1.9c-0.2-0.2-0.1-0.3-0.1-0.4
							c0.1,0.1,0.2,0.2,0.3,0.3c-0.3-0.4-0.8-1.2-1-1.2c-0.2-0.6,0.3,0.2-0.1-0.5L50,74c-0.6-1.5-1.8-2-2.3-3.8c0,0.1,0.1,0.2,0,0.2
							c-0.8-1.9-2-3.7-2.6-5.7c-0.2-0.6-0.3-0.6-0.6-0.8l0.1-0.2l-0.4-0.5c-0.5-0.7-0.2-1.5-0.9-2.4l-0.1,0.2
							c-0.1-0.4-0.5-1.1-0.4-1.1c0,0-0.2-0.1-0.2-0.2l0.1,0l-0.5-0.8c-0.2-0.7,0.4,0,0-1c-0.2-0.4-0.7-1-0.7-0.8
							c0.1,0.2,0.1,0.4,0,0.5l-0.2-0.3c-0.3,0-0.6-0.1-0.4,0.8l0.4,0.5l0,0.2L41.3,58c0,0.3,0.2,0.5,0.3,0.6c0,0.1-0.1,0.2,0,0.3
							l0.5,0.5c-0.1,0.1-0.3-0.2-0.2,0.2c0.2,0.2,0.1-0.3,0.4,0.1c0,0.3-0.1,0.3,0.1,0.6c0,0.1-0.1,0-0.2-0.1
							c0.2,0.3,0.3,0.8,0.5,0.9c0,0.3,0.4,1,0.2,1c0.1,0.1,0.4,0.4,0.5,0.7c-0.5-0.4,0.4,1,0.1,1c0.4,0.3,0.7,1.3,1.1,1.8
							c0,0-0.1-0.1-0.1-0.1c0.1,0.4,0.1,0.5,0.2,0.8c0.2,0,0.5,0.5,0.8,0.7c0,0.5-0.4-0.2-0.5,0.1c0.1-0.1,0.5,0.7,0.6,0.5
							c0,0.4,0.1,0.3,0,0.6c0.3-0.1,0.2,0.3,0.5,0.5c0.1,0.5-0.2,0.2,0.2,0.7C46.2,69.6,45.8,69.1,45.8,69.1z M53.7,80.7L53.7,80.7
							c-0.1-0.1-0.1-0.2-0.2-0.2C53.5,80.5,53.6,80.6,53.7,80.7z M54.3,81.6c-0.1-0.1-0.2-0.3-0.3-0.4c0-0.1,0.1-0.1,0.2,0
							C54.1,81.2,54.3,81.5,54.3,81.6z M53.8,79c0.1,0.1,0.1,0.2,0.1,0.2C53.8,79.2,53.8,79.1,53.8,79l-0.1,0
							C53.7,79,53.7,79,53.8,79z"/>
						<path fill="#202020" d="M53.4,78.9C53.4,78.8,53.4,78.8,53.4,78.9C53.4,78.9,53.4,78.9,53.4,78.9L53.4,78.9L53.4,78.9z"/>
						<path fill="#202020" d="M92.4,77.5L92.4,77.5C92.4,77.5,92.4,77.5,92.4,77.5C92.4,77.5,92.4,77.5,92.4,77.5z"/>
						<polygon fill="#202020" points="60.5,96.3 60.5,96.3 60.4,96.2 						"/>
						<path fill="#202020" d="M94.9,71.6C95,71.6,95,71.6,94.9,71.6C95,71.5,95,71.6,94.9,71.6z"/>
						<path fill="#202020" d="M95.9,69l0.2-0.4C96,68.8,95.9,68.9,95.9,69z"/>
						<path fill="#202020" d="M96.6,67C96.6,67,96.6,67,96.6,67L96.6,67L96.6,67z"/>
						<path fill="#202020" d="M86.1,99.2L86.1,99.2C86,99.5,86.1,99.3,86.1,99.2z"/>
						<path fill="#202020" d="M88.8,89.5c0,0.1,0,0.2,0,0.3C88.9,89.7,88.9,89.5,88.8,89.5z"/>
						<polygon fill="#202020" points="82.8,110 82.8,110 82.8,110 						"/>
						<path fill="#202020" d="M88.7,90.3c0.1-0.2,0.1-0.3,0.1-0.4C88.8,90,88.7,90.1,88.7,90.3z"/>
						<path fill="#202020" d="M99.6,58.3L99.6,58.3c0-0.1,0-0.1,0-0.1L99.6,58.3z"/>
						<path fill="#202020" d="M99.7,58.2l0-0.1C99.7,58.1,99.7,58.1,99.7,58.2z"/>
						<path fill="#202020" d="M99.7,57.8l0,0.2C99.7,58,99.7,57.9,99.7,57.8z"/>
						<path fill="#202020" d="M98.7,60.9L98.7,60.9C98.7,61,98.7,60.9,98.7,60.9z"/>
						<path fill="#202020" d="M98.4,61.7c0.1-0.2,0.3-0.4,0.3-0.7l0,0C98.8,61.1,98.4,61.5,98.4,61.7z"/>
						<path fill="#202020" d="M96.6,64.9l0.3-0.7c-0.1,0.1-0.2,0.2-0.1-0.1C96.3,64.9,96.9,64,96.6,64.9z"/>
						<path fill="#202020" d="M95.8,67c0.1-0.4-0.1,0-0.1-0.1C95.7,67.2,95.7,67.2,95.8,67z"/>
						<path fill="#202020" d="M90.7,82.2l-0.1-0.1C90.5,82.4,90.6,82.2,90.7,82.2z"/>
						<polygon fill="#202020" points="90.4,85.4 90.5,85.1 90.5,85 						"/>
						<polygon fill="#202020" points="88.8,86.8 88.8,86.7 88.7,87.1 						"/>
						<path fill="#202020" d="M80.5,112.5l0.2,0C80.7,112.3,80.6,112.2,80.5,112.5z"/>
						<path fill="#202020" d="M77.5,123.5c-0.1,0-0.1,0-0.1,0.3C77.4,123.7,77.5,123.6,77.5,123.5z"/>
						<polygon fill="#202020" points="63.2,98.4 63.3,98.6 63.1,98.3 						"/>
					</g>
				</g>
			</g>
		</g>
	</g>
</g>
</svg>
