<?xml version="1.0" encoding="utf-8"?>
<!-- Generator: Adobe Illustrator 18.0.0, SVG Export Plug-In . SVG Version: 6.00 Build 0)  -->
<!DOCTYPE svg PUBLIC "-//W3C//DTD SVG 1.1//EN" "http://www.w3.org/Graphics/SVG/1.1/DTD/svg11.dtd">
<svg version="1.1" id="Layer_1" xmlns="http://www.w3.org/2000/svg" xmlns:xlink="http://www.w3.org/1999/xlink" x="0px" y="0px"
	 viewBox="0 0 144 144" enable-background="new 0 0 144 144" xml:space="preserve">
<g>
	<g>
		<g>
			<g>
				<g>
					<g>
						<path fill="#202020" d="M21.5,87.9c-0.2,0.1-0.1,0.1,0.4,0.1c0,0,0.4-0.1,0.4-0.1C22.3,87.9,21.5,87.9,21.5,87.9z"/>
						<path fill="#202020" d="M24.1,89.7c0.4,0.4,0.8,0.9,0.8,0.5c-0.4-0.4-0.4-0.6-1-0.9c-0.3-0.3-0.6-0.6-0.5-0.6
							c-0.2-0.1-0.6-0.5-0.9-0.4c0.6,0.3,1.2,0.8,1.7,1.4C24.3,89.8,24.2,89.7,24.1,89.7z"/>
						<path fill="#202020" d="M53.8,96.8L53.6,97C53.6,96.9,53.7,96.9,53.8,96.8z"/>
						<path fill="#202020" d="M76.5,100.3c-0.2,0.1-0.2,0.2-0.2,0.2C76.4,100.4,76.5,100.3,76.5,100.3z"/>
						<path fill="#202020" d="M79.8,96.6c-0.1,0.1-0.1,0.2-0.1,0.3C79.7,96.8,79.8,96.7,79.8,96.6z"/>
						<path fill="#202020" d="M53.8,96.8l0.6-0.4C54.4,96.3,54.1,96.6,53.8,96.8z"/>
						<path fill="#202020" d="M25.9,95.7c0-0.1-0.1-0.3-0.1-0.4L25.9,95.7C25.8,95.7,25.8,95.7,25.9,95.7z"/>
						<path fill="#202020" d="M43.4,103.4c0,0-0.2,0-0.2,0c-0.1,0-0.1,0-0.2,0.1C42.9,103.4,43.4,103.4,43.4,103.4z"/>
						<path fill="#202020" d="M38.1,96c0.1,0.2,0.2,0.2,0.3,0.3c-0.1-0.1-0.2-0.2-0.2-0.4C38.2,95.9,38.1,95.9,38.1,96z"/>
						<path fill="#202020" d="M26.3,97.6c-0.1,0-0.1,0-0.2,0c-0.1,0-0.1,0-0.2,0c0,0,0.1,0,0.2,0C26.2,97.6,26.2,97.6,26.3,97.6z"/>
						<path fill="#202020" d="M49.8,100.7c0,0,0.1,0,0.1,0C49.9,100.6,49.8,100.6,49.8,100.7z"/>
						<path fill="#202020" d="M20.2,79.5C20.2,79.5,20.2,79.5,20.2,79.5C20.2,79.6,20.2,79.6,20.2,79.5z"/>
						<path fill="#202020" d="M23,89.6L23,89.5c0,0-0.1,0-0.1,0L23,89.6z"/>
						<path fill="#202020" d="M83.1,88.7C83.1,88.7,83.1,88.7,83.1,88.7C83,88.9,83.1,88.8,83.1,88.7z"/>
						<path fill="#202020" d="M111.4,61.1c0.5,0.8-1.1-0.9-0.3,0.2C111,61.1,112.1,61.9,111.4,61.1z"/>
						<path fill="#202020" d="M25.9,95.9l0.1,0.4C25.9,96.1,25.9,96,25.9,95.9z"/>
						<path fill="#202020" d="M111.1,61.2L111.1,61.2l0.1,0.1C111.1,61.3,111.1,61.2,111.1,61.2z"/>
						<path fill="#202020" d="M101.4,89c-0.1,0-0.1,0-0.2,0C101.2,89.1,101.2,89.1,101.4,89z"/>
						<path fill="#202020" d="M86.6,86.4l0.3,0.1C86.8,86.5,86.7,86.4,86.6,86.4z"/>
						<path fill="#202020" d="M106,82.4c0.1-0.2,0.1-0.3,0.1-0.6c0,0,0,0.1,0,0.1C106,82,106,82.2,106,82.4z"/>
						<path fill="#202020" d="M105.6,74.2c0,0,0,0.1,0,0.2c0,0.1,0,0.2,0.1,0.3L105.6,74.2z"/>
						<path fill="#202020" d="M27.1,59c-0.1,0.1-0.2,0.1-0.3,0.2C26.9,59.1,26.3,59.9,27.1,59z"/>
						<path fill="#202020" d="M25.8,95.7c0,0,0.1,0.1,0.1,0.2C25.9,95.8,25.8,95.7,25.8,95.7C25.8,95.6,25.8,95.6,25.8,95.7z"/>
						<path fill="#202020" d="M104.8,81.9c0,0,0.1-0.3,0.1-0.6c0-0.3,0.1-0.6,0.1-0.6C104.9,81,104.8,81.4,104.8,81.9z"/>
						<path fill="#202020" d="M64.4,51.1l-0.3,0.2C64.2,51.2,64.3,51.2,64.4,51.1z"/>
						<path fill="#202020" d="M104.7,77c0-0.2,0-0.5,0-0.7c0-0.1,0-0.1-0.1-0.1L104.7,77z"/>
						<path fill="#202020" d="M26.7,59.1L26.7,59.1L26.7,59.1z"/>
						<path fill="#202020" d="M27.4,66.7c-0.3-1.2-0.4-0.5-0.5-0.7c-0.5-1.4,0-0.7-0.1-1.2c-0.3-0.8-0.6-1.5-0.7-2.1
							c0-0.1,0-0.2,0.1,0c-0.1-0.4-0.2-1.1-0.1-1.7c0.1-0.6,0.3-1.2,0.6-1.7c0.1,0,0.1-0.1,0.1-0.1c-0.2,0.1-0.3,0-0.3-0.1
							c0.3-0.4,0.6-0.8,0.8-0.8c-0.3,0.2-0.2,0.3-0.3,0.4c0,0,0.1-0.1,0.2-0.2c0.1-0.1,0.2-0.2,0.2-0.2c0.5-0.2-0.5,0.5-0.4,0.7
							c0.6-0.8,1.7-1.5,2.5-1.7c0.1,0.1-0.3,0.2-0.7,0.4c-0.3,0.2-0.5,0.3,0,0.1c0,0-1.1,0.5-1.1,0.5c0.9-0.3-0.6,0.4,0.3,0.2
							c0.7-0.4,1.1-0.6,1.5-0.7c0.4-0.1,0.8-0.3,1.6-0.3c0.3-0.1-0.1-0.2,0.2-0.3c0.4,0,0.8,0,1,0.1c0.3,0.1,0.4,0.2,0.7,0.4
							c0.5,0.4,1,1,1.6,1.6c0-0.1,0-0.1,0.1-0.3c0-0.1,0-0.3,0-0.4c0-0.3,0-0.7,0-1.1c0-0.5-0.1-0.8-0.1-1.2c0-0.3,0-0.6,0.1-1.3
							l0.2,0.5c0.2-1.7-0.2-1,0.2-2.7c0,0.3-0.1,1.3-0.1,1.1c0.3-1.1,0-0.8,0.1-1.7l0.2-0.1c0.3-1.7,0.7-3.6,1.6-5.4
							c0,0.1-0.1,0.4,0.2,0.1c0.6-1.1,1.3-2.1,2.3-2.9c1-0.8,2.1-1.4,3.1-1.6c0,0,0.2-0.1,0.4-0.2c0.2-0.1,0.4-0.2,0.4-0.2
							c0.2,0,0.4,0,0.2,0.1c0.8,0,0-0.1,0.4-0.2c0.5,0,0.6,0.1,0.3,0.1c0.7-0.1,1.8,0.1,2.6,0.8c0.8,0.7,1.1,1.8,1,2.6l-0.1-0.3
							c0.1,1.3,0.4,1.5,0.3,2.8l0-0.3c0,0.8,0.1,1.6,0.3,2.4c0.2,0.8,0.7,1.5,1.3,2.1c1.1,1.2,2.6,1.8,3.7,2.1
							c0.3-0.1,1,0.1,1.8,0.1c0.8,0.1,1.5-0.1,1.6-0.2c0.9-0.1,1.2-0.1,1.6-0.1c0.4-0.1,0.9-0.2,2.1-0.6c0.6-0.2,0.8-0.6,1.5-1
							l0.1,0.2l0.9-0.7l0.6-0.1l0.6-0.4c-0.3,0.1-0.6,0.2-0.6,0.2c1-0.6,2.6-1.2,2.6-1.1c0,0,0.6-0.3,1.2-0.6
							c0.6-0.3,1.2-0.5,1.2-0.5c0,0.1-0.4,0.2-0.8,0.4c1.3-0.6,0.3,0.1,1.5-0.4c-0.2,0,0.1-0.1,0.1-0.2c0.6-0.1,2.1-0.3,3.1-0.2
							l-0.2,0.1c0.9,0.1,1.9,0.3,2.7,0.7c0.9,0.4,1.7,1.1,2.5,1.9c-0.5-0.6-0.3-0.6,0.2-0.2l0.1,0.3c0.4,0.2-0.4-0.5,0.3,0
							c0.6,0.6,0.2,0.6-0.1,0.2l0.8,0.7c0,0.1-0.2-0.1-0.3-0.1c0.4,0.2,1.1,1.5,1.8,1.7l0,0.1c0.9,0.8,1.7,1.3,2.5,1.7
							c0.8,0.3,1.6,0.6,2.7,0.6c0-0.2,0.9-0.2,1.4-0.5c1.5-0.4,2.8-1.3,4.2-2.1c0.9-0.7,0.2-0.3,0.6-0.6c0.1,0.1,1.5-0.6,0.9-0.1
							c0.4-0.2,0.8-0.3,1.1-0.4c0.3-0.1,0.6-0.2,0.9-0.3c0.6-0.1,1.3-0.3,2.5-0.3c-0.3-0.1-0.6-0.1-0.4-0.2c0.4,0,1,0.1,0.9,0.2
							l-0.1,0c1.4,0,2.9,0.5,4.2,1.2c1.3,0.7,2.4,1.5,3.4,2.1l-0.1-0.1c0,0,0.4,0.3,0.9,0.7c0.4,0.4,0.8,0.7,0.8,0.7
							c0.7,0.8-0.5-0.4-0.1,0.2c1.8,1.7,2.3,3.2,3.8,4.6c0.4,0.7,1.5,1.9,2.9,2.6c1.5,0.8,3.2,0.9,4.4,1l-0.1-0.1
							c0.6-0.1,0.7,0,1.2,0c-0.1-0.1-0.7,0-0.3-0.1c2.5-0.3,4.9-1.5,6.7-3.6l-1.1-0.9c-1.7,1.7-3.5,3.5-5.2,5.2
							c-1.2,1.3-0.3,1.1-2,2.5l0.3-0.6c-1.1,1.4-2.4,2.7-3.9,3.2c-1.5,0.6-3,0.1-4.7-0.5c0.2,0,0.2,0,0.5,0.1
							c-0.3-0.2-0.9-0.5-1.5-0.6c-0.6-0.2-1.1-0.3-1.2-0.2c-0.6-0.2-0.1-0.1-0.5-0.3c-0.3-0.1-0.7-0.1-1.1-0.1c-0.4,0-0.8,0-1.1,0
							c0.1,0.8,0.2,1.4,0.2,1.7c0,0.1-0.1-0.4-0.1-0.6c0.1,0.3,0.2,1.1,0.3,1.7c0.1,0.4,0.2,0.8,0.2,0.5c0.2,1.3,0.5,2.5,0.6,3.5
							c0.3,0.6,0.2,2.2,0.4,2.4c-0.1,0-0.1,0.5-0.2,1.2c0,0.7,0,1.4,0,1.8c0-0.3-0.2,0.7-0.3,0.3c-0.2,0.9-0.4,1.6-0.2,1.5
							c-0.4,0.7-0.7,1.5-1.1,2.1c-0.4,0.6-0.8,1.1-1.3,1.2c-0.9,0.9-2.1,1.3-3.3,1.5c-1.2,0.2-2.5,0-3.7-0.2c0.1-0.1,0.7,0,1.4,0.1
							c0.6,0.1,1.2,0.1,1.2,0c-2.2,0-3.6-0.3-5.8-1.2c-0.6-0.2,0.4,0,0.6,0c-2.3-0.7-4.4-1.7-6.7-1.7c0,0,0.3,0,0.5,0
							c-0.5-0.1-1.1,0-1,0.1c0,0,0.1,0,0.2,0c0.1,0,0.2,0,0.2,0c0.4,0.1-0.1,0.1-0.6,0.3c-0.6,0.1-1.1,0.5-1.1,0.6
							c0.3-0.3-0.3-0.1-0.7,0.2c-0.4,0.3-0.7,0.7-0.5,0c-0.2,0.2-0.4,0.6-0.3,0.6c-0.3,0.3-0.4,0.4-0.2,0c-0.8,1.4-0.4,1-1.1,2.2
							c-0.1,0,0.1-0.3,0.1-0.5c-0.2,0.7-0.4,1.4-0.8,2.5c0-0.1-0.1,0,0-0.3C80,93,80,94.4,79,96.3c0.1-0.7-0.4,0.6-0.7,0.6
							c0,0-0.1,0.2-0.3,0.5c-0.2,0.2-0.3,0.5-0.3,0.5l0.4-0.3c-0.6,0.8-1.1,1.5-1.8,2c0,0,0.1-0.1,0.2-0.3c0.1-0.1,0.2-0.3,0.2-0.3
							s-0.3,0.3-0.7,0.6c-0.4,0.3-0.7,0.6-0.7,0.6s0.2-0.1,0.5-0.3c0.2-0.1,0.4-0.3,0.4-0.3c-0.7,0.7,0.3,0.2-0.9,0.9
							c0.2-0.2-0.9,0.5-1.4,0.6l0,0c-0.4,0.3-0.9,0.6-1.6,0.5c-0.2-0.1,0.1-0.2,0-0.3c-0.2,0.1-0.7,0-1.1-0.4
							c-0.4-0.4-0.8-0.9-1-1.1c0.2,0.1,0.3,0.1,0.2,0l-0.4-0.3c-0.2-0.4-0.2-0.5-0.1-0.5c-0.7-1.2,0,0.5-0.8-1
							c0.1,0.1,0.1,0,0.2,0.3c-0.9-1.5-1.8-2.8-2.9-3.9c-0.1-0.2,0.2,0,0.4,0.2c0.2,0.2,0.5,0.5,0.4,0.2c-0.8-0.9-1.8-1.6-3-2
							c-1.2-0.4-2.4-0.5-3.5-0.4c0,0,0.1,0,0.2,0c0.1,0,0.2,0,0.2,0c-0.3,0.3-1.7,0-2.7,0.6c0.3-0.1,0.3-0.3,0.2-0.2
							c-1.5,0.5-2.9,1.3-4.6,2.9l0.2-0.2c-0.7,0.5-1.8,1.5-2.5,2.1c-0.2,0.2-0.6,0.6-0.2,0.5c-1.2,0.8-2.2,1.8-3.2,2.6
							c-1,0.8-2.2,1.5-3.4,1.6c0.3-0.1,0.7-0.3,0.4-0.2c0,0-0.5,0.2-1,0.3c-0.5,0.1-1,0.1-1,0.1c0.2,0.1,0.3,0.1,0.7,0.2
							c-0.3,0.1-0.9,0.2-1.4,0.1c1,0.1,0-0.2-0.3-0.4c0.1,0.1-0.1,0.1-0.1,0.1c-0.5-0.3-0.5-0.3-0.6-0.2c-0.1,0-0.3,0-0.8-0.6l0.1,0
							c-0.4-0.4-0.8-0.8-1-1.4c0-0.3,0.3,0.5,0.5,0.5c-0.4-0.7-0.9-1.5-1-2.3c0.1,0.4,0.3,0.9,0.4,1.2c-0.1-0.9-0.1-1-0.2-1.6l0,0.1
							l-0.2-1.5l0,0.4c-0.3-0.5-0.5-1.1-0.7-1.7c-0.2-0.6-0.5-1.3-1.2-1.7c0.6,0.4,0.6,0.5,0.6,0.4c0-0.1-0.2-0.4-0.1-0.4
							c-0.1-0.2-0.3-0.4-0.4-0.5c-0.1-0.1-0.2-0.2-0.1-0.2c-0.4-0.2-0.7-0.4-1-0.5c-0.4-0.1-0.8-0.2-1.3-0.1
							c-0.1-0.1-0.8,0.1-0.7-0.1c-1,0.2,0.2,0,0.2,0.1c-0.7,0.2-1.6,0.4-2.5,0.7c-0.9,0.3-1.8,0.8-2.6,1.5c-0.7,0.6-1.1,1-1.4,1.4
							c-0.2,0.2-0.3,0.4-0.5,0.6c-0.2,0.2-0.4,0.5-0.8,0.7c-0.3,0-0.2-0.1,0-0.1c0.1-0.1,0.3-0.2,0.3-0.3c-0.2,0.2-0.5,0.2-0.7,0.2
							c-0.4-0.1-0.5-0.5-0.6-1c0.1,0.2,0.1,0,0.1-0.3c-0.1-0.6-0.3-0.4-0.2-1.3c0.1,0.1,0.2,0.3,0.3,0.6c-0.1-0.8-0.2-1.6-0.4-2.4
							c0.1-0.2,0.2,0.5,0.3,0.8c0-0.5-0.1-1.1-0.2-1.6c-0.1-0.5-0.3-1-0.4-1.1c0,0,0,0.2,0.1,0.3c0,0.2,0,0.3,0,0.3
							c-0.1-0.3,0.1-0.2,0.2,0c0.3,0.8,0.1,1.2,0.1,1.2l-0.1-0.6c-0.2,0.6,0.2,2.4,0.3,3.5l-0.3-0.5c0,0,0.1,0.3,0.2,0.6
							c0.1,0.3,0.2,0.6,0.2,0.6c0,0.2-0.1,0.5-0.3-0.1c0,0.4,0.2,0.6,0.3,0.7c0.1,0.1,0.2,0.2,0.5,0.4c0,0,0.1,0,0.2,0.1
							c0.1,0,0,0,0,0c0,0,0.3,0,0.5-0.1c0.2-0.1,0.4-0.3,0.4-0.3c-0.1,0.1,0.3,0.1-0.3,0.3c0.5-0.2,0.7-0.5,0.9-0.7
							c0.2-0.2,0.4-0.4,0.5-0.6c0.3-0.3,0.6-0.6,0.9-0.7l-0.1,0.1c1.6-1.2,0-0.3,1.2-1.3c0,0,0.3,0,0.6-0.1c0.3,0,0.6,0,0.6,0
							l0.1-0.2c0.2-0.1,0.6-0.2,0.5-0.1c0.7-0.4-0.2,0,0.2-0.3c0.5-0.1,1.2-0.4,1.8-0.5c0.6-0.1,1.1-0.1,1.2,0
							c0.4-0.1-1-0.1,0.1-0.2c0.1,0.2,0.4,0.2,0.8,0.2c0.4,0.1,0.8,0.3,1.1,0.6c-0.3-0.1-0.9-0.5-0.3,0c0.1,0,0.3,0.1,0.4,0.3
							c0.1,0.1,0.3,0.3,0.4,0.5c0.2,0.4,0.3,0.9,0.4,1.2c0.3,0,0.5,1.6,0.8,2.9c0,0,0,0.6,0.3,1.4c0.2,0.8,0.8,1.7,1.3,2.1l-0.1,0
							c0.2,0,0.5,0.2,1,0.4c0.4,0.2,1,0.3,1.5,0.4c-0.1,0.1-0.2,0.2-0.8,0.1c0,0,0.2,0,0.5,0.1c0.2,0,0.5,0,0.5,0
							c0.2-0.1,0.5-0.1,1.1-0.2l-0.2,0.2c1.3-0.1,2.4-0.7,3.7-1.4c0-0.2-1.2,0.2,0.1-0.6c0.1,0,0.2,0.1-0.1,0.4
							c0.1-0.1,0.4-0.3,0.6-0.4c0,0-0.1,0.1-0.2,0.2c-0.1,0.1-0.2,0.2-0.2,0.2c0.6-0.3,0.2-0.3,0.7-0.6c0.1,0.1,0.4-0.2,0.4-0.1
							c-0.1,0.1-0.4,0.2-0.6,0.4c0.5-0.3,1.1-0.8,1.4-0.8c-0.1,0-0.1-0.1,0.2-0.4c0.9-0.8,0.4-0.2,0.9-0.6c0.2-0.2,0.8-0.7,0.7-0.8
							c0.3-0.2,0.4-0.2,0.5-0.3c0.4-0.5,2-1.9,1.4-1.6l-0.1,0.1c0,0,0,0,0.1-0.1l0,0l0,0c1.4-1.4,3.2-2.5,5-3.2l0,0.1
							c1-0.5,2.4-0.7,3.2-0.8c0.3,0,0.8,0.1,0.6,0.2c0.8,0.1,1,0,2.1,0.5c-0.8-0.2,0.2,0.2-0.8-0.2c0.5,0.2,0.8,0.4,1.1,0.5
							c0.3,0.2,0.6,0.4,1.1,0.7c-0.4-0.2,0.5,0.7,0.9,1.1c0,0-0.1-0.2-0.2-0.3c-0.1-0.2-0.2-0.3-0.2-0.3c0.4,0.4,0.8,0.8,1.1,1.2
							l-0.3-0.1c1.2,1.9,2.5,3.3,3.5,5c0.3,0.2,0-0.1-0.2-0.4c-0.2-0.3-0.4-0.6-0.1-0.4c0.3,0.5,0.7,1,1.1,1.3
							c0.4,0.4,0.9,0.5,1.2,0.5c1,0.1,1.3-0.2,1.7-0.4c0.3-0.2,0.6-0.4,1.4-0.8c-0.2,0-0.4,0,0.5-0.7c0.9-0.6,1.3-0.6,0.7-0.1
							c-0.2,0.2-0.3,0.2-0.3,0.2c-0.3,0.2-0.7,0.5-0.3,0.3l0.1-0.1c0.5-0.2,1.7-1.3,1.5-1c0.6-0.7,0.2-0.3-0.3,0.1
							c1.1-0.9,1.6-1.7,2.4-2.9c-0.2,0.2-0.3,0.3-0.2,0.1c0.6-0.9,0.6-1.2,0.6-1.3c0-0.2,0-0.2,0.2-0.9c0.4-0.7,0.1,0.4,0.5-1
							c0.3-0.8,0.2-0.1,0.2,0.2c0.3-1.3,0.8-2.3,1.1-3l-0.2,0.7c0.1-0.4,0.2-0.7,0.3-1L82,90.9c0.2-0.4,0.3-0.7,0.3-0.6
							c0.1-0.4-0.3,0.2-0.1-0.6c0.3-0.5,0.7-1.4,0.9-1.5c-0.9,1.3,0.2-0.1-0.4,1.1c0.1-0.2,0.2-0.5,0.5-0.8c0,0,0,0.1,0,0.2
							c0.5-0.6,0.5-0.7,0.6-0.9c0.1-0.2,0.1-0.4,0.6-0.8c-0.1,0.2,0.4,0,0.5-0.1c-0.4,0.2-0.3-0.1,0.1-0.3c0.9-0.1,1-0.1,1.5-0.1
							c0,0-0.1,0-0.3-0.1c-0.1,0-0.3,0-0.3,0c0.2-0.1,0.7,0,1.4,0.1c0,0.1-0.7-0.1-0.4,0c0.8,0,1.7,0.6,2.9,0.9
							c0.5,0.2,0,0.2,0.4,0.4c1.3,0.3,1.3,0.6,2.6,1c-0.3-0.3-0.4-0.2,0.6-0.1c0,0-0.5-0.2-1.1-0.3c-0.5-0.2-1.1-0.3-1.1-0.3
							l1.4,0.3c-0.6-0.2-1.4-0.4-1.8-0.6c0.7,0.1,0.6,0.1,0.3-0.1c0.8,0.5,1.8,0.5,2.8,1l-0.1,0.3c1.6,0.6,2.9,0.6,5.2,0.6
							c0,0-0.2,0-0.4,0c-0.2,0-0.4,0-0.4,0c0.3-0.1,1.4-0.1,2.1-0.4c0,0.1,0.4,0,0.7,0c0,0,0.4-0.2,0.7-0.4c0.4-0.2,0.8-0.5,0.8-0.7
							c0,0,0.2-0.1,0.4-0.3c0.2-0.1,0.4-0.3,0.4-0.3c0.7-0.6,0.9-1.1,1.1-1.6c0.2-0.5,0.3-0.9,0.7-1.7c-0.1,0.5,0.3-0.2-0.1,0.9
							c0.2-0.5,0.4-1,0.4-1c0.2-0.3,0.3-1.5,0.5-2c0-0.2-0.1-0.3,0-1c0-0.1,0.1,0,0.1,0c0,0,0-1-0.2-0.4c0.2-0.8,0.2-2.1,0-3.2
							c-0.1-1.2-0.4-2.3-0.3-3c-0.1-0.6-0.3-1.2-0.4-1.9c-0.1-0.3-0.1-0.6-0.2-0.9c0-0.2-0.1-0.4-0.1-0.6c0,0.1,0.1,0,0.1,0.1
							c0-0.1,0-0.2,0-0.3c0-0.1-0.1-0.2,0-0.2c0.1,0,0.1-0.1,0.2-0.1c0.1-0.1,0.3-0.2,1.1,0.1c0.8,0.4-0.9-0.1-0.4,0.1
							c0.1,0.2,0.5,0.3,1.1,0.5c0.6,0.2,1.3,0.4,1.8,0.7l-0.3-0.1c0.8,0.4,2.1,0.7,3.7,0.6c0,0-0.1,0,0,0.1c0.5-0.1,1.3-0.4,1.9-0.8
							c0.7-0.4,1.3-0.9,1.8-1.4c-0.2,0.4-0.4,0.5-0.1,0.4c0.5-0.4-0.3,0,0.6-0.9c0.3-0.2,1-0.8,1.2-0.8l-0.8,0.8
							c0.6-0.3,1-1.1,1.5-1.5l0,0.1c1.2-1.3,1-1.5,2.4-2.9l-0.2,0.1c0.6-0.9,0.7-0.6,1.3-1.4l0.4-0.1c0.4-0.5,1.5-1.9,2.3-2.8
							c-0.4,0.6-1.3,1.7-1.8,2.5c0.5-0.5,1.6-1.7,1.7-2c-0.2,0.2-0.4,0.5-0.6,0.7c0.2-0.3,0.5-0.7,0.8-1.1c-0.1-0.1-0.2-0.2-0.4-0.3
							c-0.3,0.4-0.7,0.9-1.3,1.4c-0.1-0.2-0.7,0.3-1.6,0.7c-0.9,0.5-2,0.7-2.5,0.7c-1.1,0.3-2.2,0.3-3.4,0c-1.1-0.3-2.2-0.9-3.2-1.7
							c0.5,0.9-0.6-0.5-0.7-0.1c-0.5-0.4-0.6-0.6-0.6-0.7c0,0-0.3-0.4-0.6-0.8c-0.3-0.4-0.5-0.8-0.5-0.8c-0.2-0.4,0.4,0.4,0.5,0.3
							c-0.8-1.1-0.2-0.6-0.7-1.4c0,0.2-0.4-0.3-0.9-1l0.6,1c-0.7-0.7-0.9-1.1-1.1-1.5c-0.2-0.4-0.4-0.8-1.2-1.5l0.5,0.4
							c-0.4-0.4-1.1-1.1-1.9-1.7c-0.8-0.6-1.7-1.1-2.2-1.2c-0.1-0.1-0.3-0.3,0.1-0.1c-1.1-0.7-2.5-1.2-3.8-1.4
							c-1.3-0.3-2.6-0.3-3.6-0.4l0.2-0.1c-0.5,0.1-0.8,0.2-1.4,0.2c0,0,0.2-0.1,0-0.1c-0.1,0-0.4,0.1-0.8,0.2
							c-0.4,0.1-0.8,0.2-1.1,0.3c0,0,0.5-0.2,0.5-0.2c-1.3,0.3-2.2,0.8-2.9,1.3c-0.7,0.5-1.3,1.1-2.2,1.7c-0.1-0.1-0.5,0.1-1,0.3
							c-0.5,0.2-1.1,0.4-1.5,0.4l0,0c-1.1,0.2-2.1-0.1-3.1-0.6c-1-0.5-1.8-1.1-2.8-2c-0.5-0.7-1.3-1.7-2.5-2.8c-0.6-0.5-1.3-1-2-1.4
							c-0.7-0.4-1.5-0.6-2.2-0.8c0.4,0.1-0.1,0.2-0.6,0.1c-0.7-0.1-1.8,0.2-1.7-0.1l0.2,0c-0.5-0.2-1.8,0-2.8,0.3l-0.1,0.3
							c-1.3,0.1-2.9,0.9-4.3,1.6c-1.3,0.7-2.5,1.4-3.2,1.5c-0.5,0.3-1.2,0.6-1.7,0.9l0-0.2c-0.8,0.3-1.4,0.4-2,0.6
							c-0.6,0.1-1.3,0.2-2.3,0.2l0.4-0.1c-1.1-0.1-1.4,0.4-2.4,0.1l-0.2-0.3c-0.9-0.3-1.7-0.9-2.3-1.6c-0.6-0.7-1-1.5-1.2-2.4
							c0,0,0.1,0.1,0.2,0.4c-0.1-0.4-0.1-1.3-0.1-2.1c0-0.8-0.1-1.4-0.2-1.2c0.1,0,0.1-0.6,0-1.3c-0.1-0.7-0.6-1.6-1-2.1l0.3,0.1
							c-0.4-0.4-0.7-0.5-1-0.7C47,41.5,46.7,41.2,46,41c-0.3-0.1-0.2-0.2,0.2,0c-0.5-0.2-0.8-0.2-1-0.3c-0.3,0-0.5,0-1.2-0.1
							c0,0,0.1,0,0.3,0c0.1,0,0.3,0,0.3,0c-1.2,0-1.1,0.1-1.7,0.3c-0.7,0.2-2,0.6-2.2,0.6c-0.1,0.1-0.6,0.5-1.1,0.9
							c-0.1,0,0.1-0.2,0.2-0.2c-1.6,1-2,2-2.8,2.9c-0.1,0-0.1,0-0.2,0.1c0.8-1.2,1.8-2,1.7-1.9c-0.1-0.1-1,0.7-0.4-0.1
							c-0.7,0.8-1.5,2.2-2,3.2c0,0-0.1,0.1-0.1,0.1l0-0.1c-0.1,0.2-0.2,0.5-0.3,0.7c-0.2,0.3-0.3,0.5-0.4,0.9
							c-0.2,0.1-0.5,1.3-0.7,1.8c0.2,0-0.1,0.7,0.3,0.1c0,0.1,0-0.1,0.1-0.5c0-0.1,0-0.2,0.1-0.2c0,0,0,0,0,0
							c0.1-0.4,0.3-0.8,0.5-1.4c-0.1,0.5-0.2,0.9-0.5,1.5c0,0.3,0,0.7,0,0.9c-0.4,0.7-0.8,2.2-1,2.4c-0.1,0.9-0.2,1.9-0.3,2.9
							c0,0.2,0,0.5,0,0.7c0,0.2,0,0.2,0,0.4c0,0.1,0,0.3,0,0.4c0,0.1,0,0.1,0,0.2c0,0,0,0.1,0,0.1l0,0l0,0c-0.2-0.2-0.3-0.3-0.4-0.4
							c0.1,0,0.2,0.1,0.3,0.1c0,0,0,0,0,0l0,0c-0.2-0.1-0.4-0.2-1.2-0.4c-0.7-0.1-1.2,0-1.4,0.1c-1.3,0,0.7-0.3-1.1,0l0.2-0.1
							c-1.8,0.2-3.2,1.1-4.1,2.4c-0.9,1.3-0.9,3-0.8,4.9c0-0.3,0-0.4,0-0.5c0.3,2.2,1.3,4.2,1.4,6.3c0,1-0.3,2.1-1,2.8
							c-0.7,0.7-1.7,1.1-2.7,1.5c-1.1,0.6-1.2,0.8-1.7,1.4l-0.3,0.1c0,0,0,0.1-0.1,0.2c-0.1,0.1-0.1,0.3-0.2,0.4
							c-0.2,0.3-0.3,0.6-0.3,0.6c-0.4,0.8-0.8,1.5-1,2.4c-0.2,0.8-0.4,1.8-0.1,2.9l0.1-0.3c0,0.9,0.6,2.5,0.5,2.4
							c0,0.1,0.2,0.2,0.3,0.5l-0.1,0.1c0,0,0.2,0.5,0.5,0.9c0.3,0.4,0.5,0.9,0.5,0.9c0.7,1.4-0.5,0,0.7,2c0.5,0.7,1.5,1.9,1.4,1.6
							c-0.2-0.3-0.4-0.8-0.4-0.8l0.5,0.6c0.3,0,0.8,0.3,0-1.4l-0.8-1L22,86.7l0.6,0.9c-0.2-0.6-0.5-0.9-0.8-1.2c0-0.1,0-0.3-0.1-0.5
							c0,0-0.2-0.2-0.4-0.5c-0.2-0.3-0.4-0.5-0.4-0.5c0-0.2,0.4,0.4,0.1-0.4c-0.3-0.5,0,0.6-0.4-0.3c-0.1-0.6,0-0.5-0.3-1.1
							c0-0.1,0.1,0,0.2,0.3c-0.3-0.6-0.4-1.6-0.6-1.9c0-0.3,0-0.8,0-1.3c0-0.4,0.1-0.8,0.2-0.7c-0.1-0.2-0.1-1.1,0.1-1.6
							c0,0.5,0.1,0,0.4-0.5c0.2-0.6,0.7-1.1,0.7-0.9c0.1-0.4,0.5-0.9,1.1-1.3c0.6-0.4,1.4-0.8,2-1.2c-0.1,0.1-0.2,0.2-0.3,0.2
							c0.7-0.4,1-0.4,1.5-0.7c0-0.1,0.3-0.4,0.5-0.8c0.3-0.4,0.5-0.9,0.7-1.2c0.3-0.5,0.3-0.3,0.3,0c0,0.3-0.2,0.6,0,0.5
							c-0.1,0,0.1-0.5,0.2-0.9c0.1-0.5,0.1-0.9,0-0.7c0.1-0.4,0.2-0.6,0.2-0.7c0-0.1,0.1-0.2,0.2-0.4c-0.3-0.1-0.1-0.8-0.4-1.4
							c-0.1-1.1,0.2-0.4-0.2-1.5C27,65.7,27.4,66.7,27.4,66.7z M36.8,46.5L36.8,46.5c-0.1,0.2-0.2,0.4-0.3,0.5
							C36.6,46.9,36.7,46.7,36.8,46.5z M38.2,44.6c-0.2,0.2-0.4,0.5-0.6,0.8c-0.1,0-0.1-0.1,0.1-0.3C37.6,45.2,37.9,44.8,38.2,44.6z
							 M34.7,48.5c0.1-0.4,0.2-0.5,0.2-0.5c-0.1,0.2-0.1,0.4-0.2,0.7c0,0,0,0,0,0.1C34.7,48.6,34.7,48.6,34.7,48.5z"/>
						<path fill="#202020" d="M34.7,49.2c0,0.1,0,0.1,0,0.2C34.7,49.3,34.7,49.2,34.7,49.2c0.1-0.1,0.1-0.2,0.1-0.2
							C34.7,49.1,34.7,49.2,34.7,49.2z"/>
						<path fill="#202020" d="M53.5,97L53.5,97C53.5,97,53.5,97,53.5,97C53.5,97,53.5,97,53.5,97z"/>
						<polygon fill="#202020" points="62,52.4 62,52.4 61.8,52.5 						"/>
						<path fill="#202020" d="M42.2,102.4c0,0-0.1,0-0.1-0.1C42.1,102.4,42.2,102.4,42.2,102.4z"/>
						<path fill="#202020" d="M39.4,98.2l-0.1-0.8C39.4,97.7,39.4,98,39.4,98.2z"/>
						<path fill="#202020" d="M38,93.9c-0.1,0-0.1,0-0.1,0l0,0L38,93.9z"/>
						<path fill="#202020" d="M86.4,85.3c0.1,0,0.1,0,0.2,0C87,85.4,86.7,85.3,86.4,85.3z"/>
						<path fill="#202020" d="M74,101.1c0.2-0.1,0.4-0.2,0.5-0.4C74.3,100.9,74,101,74,101.1z"/>
						<path fill="#202020" d="M104.7,82L104.7,82c0,0,0-0.1,0-0.1L104.7,82z"/>
						<path fill="#202020" d="M75.4,100.3c-0.3,0.2-0.6,0.3-0.8,0.5C74.8,100.6,75.2,100.5,75.4,100.3z"/>
						<path fill="#202020" d="M25.5,91.7l0-0.2c0,0,0,0,0,0L25.5,91.7z"/>
						<path fill="#202020" d="M25.4,91.5l-0.1-0.2C25.4,91.3,25.4,91.4,25.4,91.5z"/>
						<path fill="#202020" d="M25.1,90.7c0,0,0.1,0.1,0.1,0.2c0,0.1,0.1,0.3,0.1,0.3C25.3,91.1,25.2,90.8,25.1,90.7z"/>
						<path fill="#202020" d="M26.3,97L26.3,97C26.3,96.9,26.3,96.9,26.3,97z"/>
						<path fill="#202020" d="M27.3,96.3c-0.2,0.2-0.4,0.3-0.6,0.4c-0.1,0.1-0.2,0.1-0.4,0.1l0,0l0,0l0,0c0.1,0,0.2,0,0.4-0.1
							C26.9,96.7,27.2,96.5,27.3,96.3z"/>
						<path fill="#202020" d="M34,93.3c0,0-0.4,0.1-0.7,0.2c-0.3,0.1-0.7,0.2-0.7,0.2c0.3,0,0.6-0.1,0,0.2c0.9-0.2,0.8-0.2,0.7-0.2
							C33.2,93.6,33.1,93.5,34,93.3z"/>
						<path fill="#202020" d="M37.7,94.7c-0.4-0.6-0.1,0-0.1,0C37.8,95.1,37.9,95.2,37.7,94.7z"/>
						<path fill="#202020" d="M62.6,93.3l-0.1,0.1C63.1,93.5,62.5,93.4,62.6,93.3z"/>
						<path fill="#202020" d="M68.1,96.2l-0.3-0.5l-0.3-0.1c0,0,0.1,0.2,0.3,0.3C67.9,96,68.1,96.2,68.1,96.2z"/>
						<polygon fill="#202020" points="69.3,99.9 69.1,99.7 69.8,100.6 						"/>
						<path fill="#202020" d="M106,75.6l-0.2,0.2C105.9,76.2,106.1,76.3,106,75.6z"/>
						<path fill="#202020" d="M120.7,65.8c0.2-0.1,0.8-0.6,1-1C121.2,65.3,120.8,65.6,120.7,65.8z"/>
						<path fill="#202020" d="M67.2,48.3l0.5-0.2C67.7,48.1,67.5,48.2,67.2,48.3c-0.2,0.1-0.4,0.2-0.4,0.2L67.2,48.3z"/>
					</g>
				</g>
			</g>
		</g>
	</g>
	<g>
		<g>
			<g>
				<g>
					<g>
						<path fill="#202020" d="M92.4,63.9c0-0.1-0.2-0.1-0.2,0.1l0.2,0.1L92.4,63.9z"/>
						<path fill="#202020" d="M91.8,64.5c0,0.2,0.1,0.4,0.3,0.4c-0.1-0.2,0-0.2-0.2-0.4c0-0.1,0.1-0.2,0.2-0.1c0-0.1,0.1-0.2,0-0.3
							c-0.2,0.1-0.3,0.3-0.2,0.5C91.9,64.6,91.9,64.6,91.8,64.5z"/>
						<path fill="#202020" d="M82.2,66.9L82.2,66.9C82.2,66.9,82.2,66.9,82.2,66.9z"/>
						<path fill="#202020" d="M75.8,64.3C75.9,64.4,75.9,64.3,75.8,64.3C75.9,64.3,75.8,64.3,75.8,64.3z"/>
						<path fill="#202020" d="M74.7,63.8C74.8,63.8,74.8,63.8,74.7,63.8C74.8,63.8,74.8,63.8,74.7,63.8z"/>
						<path fill="#202020" d="M82.2,66.9L82,66.8C82,66.8,82.1,66.8,82.2,66.9z"/>
						<path fill="#202020" d="M91.3,66.1c0,0,0-0.1,0-0.1C91.4,66,91.3,66.1,91.3,66.1L91.3,66.1z"/>
						<path fill="#202020" d="M85.1,67.4L85.1,67.4c0.1,0,0.1,0,0.1-0.1L85.1,67.4z"/>
						<path fill="#202020" d="M87.3,67.3c0,0,0,0.2,0,0.2c0-0.1,0-0.1,0.1-0.1C87.3,67.3,87.3,67.3,87.3,67.3z"/>
						<path fill="#202020" d="M90.5,66L90.5,66C90.5,66,90.5,66,90.5,66z"/>
						<path fill="#202020" d="M83.5,67.1C83.5,67,83.5,67,83.5,67.1C83.5,67,83.5,67,83.5,67.1z"/>
						<path fill="#202020" d="M36,75.3C36,75.3,36,75.3,36,75.3C36,75.3,36,75.3,36,75.3z"/>
						<polygon fill="#202020" points="35.5,78 35.5,78 35.4,78 						"/>
						<path fill="#202020" d="M72.5,63.3C72.6,63.3,72.6,63.3,72.5,63.3C72.6,63.3,72.6,63.3,72.5,63.3z"/>
						<path fill="#202020" d="M57.5,62.6c0.2,0.2-0.4,0-0.2,0.3C57.4,62.9,57.8,62.8,57.5,62.6z"/>
						<path fill="#202020" d="M91.3,66.1L91.3,66.1C91.2,66.2,91.3,66.2,91.3,66.1z"/>
						<path fill="#202020" d="M57.4,62.9L57.4,62.9L57.4,62.9C57.4,63,57.4,63,57.4,62.9z"/>
						<path fill="#202020" d="M68.5,66.6C68.6,66.6,68.6,66.6,68.5,66.6C68.6,66.6,68.6,66.6,68.5,66.6z"/>
						<path fill="#202020" d="M71.2,63.7l-0.1,0C71.1,63.7,71.1,63.7,71.2,63.7z"/>
						<path fill="#202020" d="M68,68.1C67.9,68.1,67.9,68.1,68,68.1L68,68.1C67.9,68.1,67.9,68.1,68,68.1z"/>
						<path fill="#202020" d="M66.4,68.4C66.4,68.4,66.4,68.4,66.4,68.4L66.4,68.4L66.4,68.4z"/>
						<path fill="#202020" d="M37.8,70.7c-0.1,0-0.1-0.1-0.1-0.1C37.7,70.7,37.5,70.8,37.8,70.7z"/>
						<path fill="#202020" d="M91.3,66.1C91.3,66.1,91.3,66.1,91.3,66.1L91.3,66.1C91.3,66.1,91.3,66.1,91.3,66.1z"/>
						<path fill="#202020" d="M68.7,69.2c0,0-0.4,0.2-0.4,0.2C68.4,69.3,68.5,69.3,68.7,69.2z"/>
						<path fill="#202020" d="M49.7,72L49.7,72C49.7,72,49.7,72,49.7,72z"/>
						<path fill="#202020" d="M67.1,69.7c-0.1-0.1-0.2-0.1-0.2-0.1c0,0,0,0,0,0L67.1,69.7z"/>
						<path fill="#202020" d="M37.6,70.6L37.6,70.6L37.6,70.6z"/>
						<path fill="#202020" d="M36.7,72.1c0.1-0.2-0.1-0.2-0.2-0.3c0.1-0.3,0.2,0,0.4,0c0.1-0.2,0-0.4,0.1-0.5c0,0,0.1,0,0.1,0.1
							c0-0.3,0.4-0.4,0.5-0.7c0,0,0,0,0.1,0c-0.1-0.1-0.2-0.2-0.2-0.2c0.1-0.1,0.1-0.2,0.2-0.1c-0.1,0,0,0.1-0.1,0.1l0.1-0.1
							c0.2,0.1-0.1,0.2,0,0.3c0.2-0.2,0.4-0.5,0.6-0.5c0.1,0.2-0.4,0.2-0.1,0.3c0,0-0.3,0.1-0.3,0.1c0.3,0.2-0.2,0.1,0.2,0.3
							c0.3-0.1,0.3-0.3,0.7-0.3c0-0.1-0.1-0.1,0-0.3c0.5-0.3,0.5,0.4,0.9,0.1c0.1-0.1,0.1-0.4,0.4-0.3L39.9,70
							c0.4,0,0.2-0.3,0.6-0.2c-0.1,0.1-0.3,0.1-0.2,0.1c0.3,0.2,0.2-0.1,0.4-0.1l0,0.2c0.4,0,0.9-0.1,1.3,0c0,0.1-0.1,0.1,0,0.2
							c0.6,0,1.1,0.4,1.6,0.8l0.3-0.1c0,0,0,0.1,0,0.1c0.2,0.2,0.1-0.1,0.2-0.1c0.1,0.1,0.1,0.2,0,0.2c0.4,0.1,1.1,0.3,1.3,0.7
							l-0.1,0c0.2,0.2,0.5-0.1,0.6,0.3l-0.1,0c0.3,0.2,0.6,0.5,0.8,0.7c0.1,0.1,0.2,0.2,0.4,0.4c0.2,0.2,0.3,0.4,0.5,0.6
							c0.1-0.1,0.6,0.5,0.8,0.6c0-0.1,0.1-0.3,0-0.4c0.4-0.3,0.3-0.1,0.9-0.9c0.2-0.3,0-0.4,0.1-0.6l0.2,0.1l0-0.3l0.3,0l0-0.2
							c0,0.1-0.1,0.1-0.2,0.1c0.1-0.3,0.4-0.5,0.5-0.5l0.2-0.7c0.1,0,0,0.2,0,0.3c0-0.4,0.2,0,0.2-0.3c-0.1,0-0.1-0.1-0.1-0.1
							c0.2-0.1,0.4-0.4,0.4-0.7l0.1,0.1c0.3-0.4,0.5-0.9,0.7-1.4c-0.1,0.1-0.3,0-0.2-0.1l0.2,0c-0.1-0.1-0.1,0.1-0.2-0.1
							c0.1-0.2,0.3,0,0.3,0.1l0.1-0.3c0.1,0,0.1,0.1,0.1,0.1c-0.1-0.1,0.4-0.3,0.3-0.5l0.1,0c0.3-0.5,0.3-0.7,0.5-1.1
							c-0.1-0.1,0-0.2-0.1-0.4c0.2-0.3,0.5-0.5,0.7-0.9c0.1-0.3-0.1-0.1-0.1-0.3c0.1,0.1,0.3-0.3,0.3-0.1c0.2-0.4,0.3-0.6,0.5-1.1
							c-0.1,0-0.1,0.1-0.2,0c0-0.1,0.2-0.2,0.2-0.1l0,0c0.1-0.3,0.4-0.5,0.6-0.5c0.2,0,0.4,0.1,0.6-0.1l0,0c0,0,0.5-0.1,0.5-0.1
							c0.2,0.1-0.2,0.1,0,0.2c0.6-0.1,0.9,0.3,1.4,0.3c0.2,0.5,1.2,0.5,1.6,1l0-0.1c0.2,0,0.1,0.1,0.2,0.2c0-0.1-0.1-0.1,0-0.2
							c1,0.4,1.9,1.3,2.7,2.1c0.3,0.3,0.5-0.3,0.8,0.3l-0.2,0c0.8,0.4,1.3,1.2,2.2,1.6c-0.1,0-0.1,0.1-0.2,0
							c0.1,0.2,0.6,0.4,0.7,0.3c0.1,0.1,0,0.1,0,0.2c0.2,0.2,0.6,0.1,0.6,0.2c0,0-0.1,0-0.1,0c0.2,0,0.6,0.2,0.5,0
							c0.4,0.2,0.7,0,1,0.1c0.2-0.2,0.7,0,0.7-0.3c0,0.3,0.8,0,0.9-0.3c0,0.1,0.2-0.1,0.2,0.1c0.3-0.2,0.4-0.4,0.3-0.5
							c0.3-0.1,0.4-0.4,0.5-0.6c0.1-0.2,0.1-0.4,0.3-0.5c0.1-0.8,0.1-1.4,0.3-1.9c0.2,0.1-0.2,0.6,0.1,0.6c0-0.5-0.1-0.9,0.3-1.2
							c0.1,0,0,0.1,0.1,0.2c0.2-0.4,0.6-0.4,1-0.6c0,0,0,0.1-0.1,0.1c0.1,0,0.2,0,0.2-0.1l-0.1,0c-0.2-0.2,0.3-0.4,0.4-0.5
							c-0.2,0.3,0.5,0.1,0.2,0.5c0.1,0,0.1-0.1,0.1-0.2c0.1,0,0.1,0.1,0,0.2c0.3,0,0.2-0.2,0.5-0.2c0,0.1-0.1,0.1-0.1,0.1
							c0.2-0.1,0.3-0.2,0.6-0.1c0,0,0,0.1-0.1,0.1c0.5,0,0.8-0.2,1.3,0.1c-0.2,0.2,0.2,0.1,0.1,0.3l0.3,0l-0.1-0.1
							c0.2,0.1,0.5,0,0.7,0.1l-0.2,0l0.4,0.1L75.6,65c0.3,0,0.1-0.3,0.4-0.1c-0.1,0,0.2,0.1,0.3,0.2l0,0c0.1,0,0.3,0,0.4,0.1
							c0,0.1-0.1,0.2-0.1,0.3c0.2-0.1,0.6,0.2,0.8,0c-0.1,0-0.1,0.1-0.1,0.2l0.1-0.1c0.1,0.1,0.1,0.1,0,0.2c0.3,0.2,0-0.3,0.3,0
							c0,0,0,0-0.1,0c0.4,0.2,0.8,0.2,1.1,0.4c0,0.2-0.3-0.1-0.3,0.1c0.5,0.2,1.1,0.2,1.6,0.4L80,66.7c0.2-0.3,0.3,0.3,0.6,0.3
							c-0.1,0-0.1,0.1-0.1,0.1c0.3,0.2,0.7,0.2,1.3,0.3l-0.1,0.1c0.2,0.1,0.5,0.2,0.8,0.3c0.1-0.1,0.2,0,0.2-0.1
							c0.6,0.6,1.4,0.1,2,0.6c-0.1,0-0.2,0-0.1,0.1l0.6,0c0-0.1-0.1-0.1-0.2-0.2c0.1-0.1,0.2-0.1,0.4-0.1c-0.3,0.1,0,0.2,0.1,0.3
							c0,0,0-0.1,0-0.1c0.3,0.3,0.1-0.3,0.4-0.1l0,0.1c0.1,0,0.3-0.1,0.4-0.1c0.1,0.2-0.2,0.1-0.2,0.2c0.2,0,0.4-0.3,0.6-0.2
							c-0.1,0-0.2,0.1-0.3,0.1c0.2,0.2,0.3,0.1,0.4,0.1l0,0c0,0,0.1,0,0.2,0c0.1,0,0.2,0,0.2,0l-0.1,0c0.2-0.4,0.6-0.2,0.9-0.5
							c-0.3,0.3,0,0.2,0,0.3c0.1,0,0.3,0,0.2,0.1c0.1-0.2,0.3,0,0.5-0.3c0,0,0.2-0.1,0.2,0.1c0.2-0.1-0.1-0.1-0.1-0.1
							c0.3-0.3,0.9-0.1,1.2-0.7c0.3-0.3,0.3-0.5,0.5-0.9c0.2,0,0,0.2,0,0.2c0.2-0.1,0.3-0.2,0.4-0.4c0,0.1,0.1,0.1,0.2,0.1
							c0.1-0.1-0.1-0.2,0.1-0.3c0,0.1,0.1,0.2,0.1,0.3c0.1-0.2,0.2-0.4,0.2-0.6c0.1,0,0,0.2,0.1,0.3c0.1-0.2,0.3-0.6,0.2-0.7
							l-0.1,0.1c0-0.1,0.1,0,0.1,0.1c0,0.2-0.2,0.2-0.3,0.2l0.1-0.1c-0.3-0.1-0.3,0.5-0.5,0.7L91,65.7c0,0-0.1,0.4-0.1,0.4
							c-0.1,0-0.2-0.1-0.1-0.2c-0.2,0.1-0.1,0.2-0.3,0.2c0,0,0,0,0,0l-0.1,0.2c0-0.1-0.1-0.1,0-0.2c-0.3,0.1-0.3,0.5-0.6,0.4l0,0
							c-0.4,0.3,0.1,0.2-0.2,0.5c0,0-0.1-0.1-0.2-0.1c-0.1-0.1-0.2-0.1-0.2-0.1l0,0.2c0,0-0.1,0.1-0.2,0c-0.1,0.2,0.1,0.1,0,0.2
							c-0.3,0-0.6,0.3-0.8,0.1c0,0.2,0.3,0,0,0.2c-0.2-0.3-0.3,0.1-0.5,0.1c0-0.2,0.2-0.1,0-0.2c-0.1,0.3-0.4,0-0.6,0.1
							c0,0.2-0.4,0.2-0.7,0.2c0-0.1-0.6-0.1-0.9-0.2l0,0c-0.1,0.2-0.4,0.2-0.6,0.2c0-0.1,0.1-0.2,0.2-0.2l-0.2,0
							c-0.1,0.1-0.1,0.1-0.3,0.1l0.1-0.2c-0.3,0-0.6,0.1-0.9-0.1c-0.1,0.1,0.2,0.5-0.2,0.5c0-0.1,0-0.2,0.1-0.2c0,0-0.1,0-0.2,0
							l0.2-0.1c-0.1-0.1-0.1,0.1-0.2,0.1c0-0.1-0.1-0.1,0-0.2c0,0,0.1,0.1,0.2,0c-0.1,0-0.3-0.2-0.3-0.3c0,0.1,0,0.1-0.1,0.1
							c-0.3-0.1-0.1-0.2-0.2-0.3c-0.1,0.1-0.2-0.1-0.3,0.1c-0.1,0-0.1-0.1-0.1-0.2c-0.2,0-0.6-0.2-0.5,0l0,0l0,0l0,0l0,0
							c-0.5,0-0.9-0.4-1.4-0.5l0-0.1c-0.3,0-0.6-0.2-0.8-0.2c-0.1,0-0.1-0.2-0.1-0.2c-0.2,0-0.3,0-0.5-0.2c0.2,0,0-0.1,0.2,0
							c-0.2-0.2-0.3-0.3-0.6-0.2c0.2-0.1-0.1-0.3-0.3-0.3l0.1,0.2c-0.1,0-0.3-0.1-0.4-0.2l0.1-0.1c-0.4-0.4-1.1,0-1.4-0.6
							c-0.2,0.1,0.3,0.2,0.1,0.3c-0.2-0.1-0.4-0.5-0.5-0.5c-0.3-0.2-0.4,0.1-0.8,0c0,0.1,0,0.3-0.3,0.2c-0.2-0.1-0.2-0.4,0-0.4
							c0.1,0,0.1,0,0.1,0.1c0.1,0,0.2,0,0.1-0.1L76,64.3c-0.1-0.1-0.5-0.2-0.4-0.3c-0.2,0-0.1,0.1,0,0.2c-0.3-0.2-0.5-0.2-0.9-0.3
							c0,0.1,0.1,0.1,0,0.1c-0.5-0.2-0.3,0.1-0.6,0c-0.2-0.1,0.1-0.2-0.3-0.2c-0.2-0.1,0-0.2,0.1-0.2c-0.4,0.1-0.6-0.2-0.8-0.2
							l0.2,0c-0.1,0-0.2,0-0.3,0l0.1,0.1c-0.1,0-0.2,0-0.2-0.1c-0.1,0.1,0.1,0.2-0.2,0.3c-0.1-0.1-0.4,0-0.5-0.1
							c0.4,0.1,0-0.2,0.3-0.2c-0.1,0-0.2,0-0.3,0c0,0,0,0,0,0c-0.4-0.2-0.2,0.2-0.6,0.2c0.1-0.1-0.1-0.2-0.2-0.2
							c0.2,0,0.1,0.2-0.1,0.3c-0.3-0.1-0.3,0.1-0.5,0.1l0.2,0c0,0.1-0.2,0.1-0.4,0.2c0-0.1,0.2-0.1,0.1-0.1c-0.2,0.2-0.6,0-0.8,0.3
							c-0.2,0-0.1-0.2-0.3-0.1c-0.3,0.4-0.5,0.2-0.7,0.7c0.2,0,0.2-0.1,0.1,0.3c0,0,0.3-0.6,0.4-0.6c0,0-0.2,0.5-0.1,0.5
							c0.1-0.2,0.2-0.4,0.3-0.4c-0.1,0.2-0.1,0.2,0.1,0.2c-0.4,0-0.2,0.5-0.5,0.6l-0.3-0.2c-0.4,0.4-0.2,0.8-0.4,1.3l0.1-0.1
							c0.1,0.1-0.1,0.3-0.1,0.5c-0.1,0-0.2,0-0.3,0.1c0.1,0-0.1,0.3,0.1,0.4c0,0-0.2,0.1-0.2,0.1c-0.2,0.3,0.1,0.5-0.1,0.8
							c0-0.2-0.2-0.1-0.1-0.3c-0.1,0.1-0.1,0.1-0.1,0.2c-0.1,0-0.1,0.3-0.3,0.3c0,0.1,0,0.2-0.1,0.2c0,0,0-0.1,0-0.1
							c0,0.1-0.2,0.2,0,0.2c-0.2-0.1-0.5,0-0.7,0c-0.2,0-0.5,0.1-0.6-0.1c-0.3,0-0.6,0-0.8-0.1c0,0,0-0.1,0.1,0
							c-0.3-0.2-0.3,0.2-0.6,0c-0.1-0.3,0.2,0,0.2-0.1c0.1-0.4-0.4-0.2-0.5-0.5l0.1,0c-0.1-0.2-0.5-0.2-0.7-0.4c0,0,0,0,0,0
							c-0.3,0-0.7-0.3-1-0.4c0.2,0,0.2,0,0.2-0.1c-0.1-0.1-0.1,0.2-0.4,0c0-0.1-0.1-0.3,0-0.5l0.2,0.2c0-0.2-0.3-0.2-0.4-0.4
							l0.1-0.1c-0.4-0.3-0.5-0.1-0.9-0.4l0,0.1c-0.3,0-0.1-0.2-0.4-0.3l0.1-0.2c-0.2-0.1-0.6-0.2-0.9-0.3c0.2,0,0.6,0.1,0.8,0.1
							c-0.1-0.1-0.5-0.3-0.6-0.3c0.1,0,0.2,0,0.2,0.1c-0.3,0-0.5-0.1-0.8-0.2c0.3-0.3-0.7-0.6-0.7-1c-0.6-0.1-1-0.6-1.7-0.9
							c0.1,0.4-0.2-0.1-0.3,0.3c-0.2,0-0.2-0.1-0.2-0.1L57,62.6c-0.1-0.1,0.2,0,0.2-0.1c-0.3-0.1-0.1-0.2-0.3-0.4
							c0,0.1-0.2,0.1-0.4,0l0.2,0.2c-0.5,0-0.3-0.4-0.9-0.4l0.2-0.1c-0.1,0-0.4-0.1-0.7-0.1c-0.3,0-0.7,0.1-0.8,0.3
							c-0.1,0-0.2-0.1,0-0.2c-0.5,0.1-0.9,0.5-1.1,0.8c-0.2,0.3-0.3,0.6-0.5,0.8l0-0.1c0,0.1,0,0.3-0.1,0.3c0,0-0.1-0.1-0.1,0
							c0,0.1,0,0.3-0.1,0.4l0-0.2c-0.4,0.5-0.2,0.9-0.4,1.4c-0.2-0.1-0.5,0.2-0.7,0.4l0,0C51,66.5,51,67,50.8,67.6
							c-0.4,0.2-0.7,1.1-1.2,1.6c0.1-0.1,0.2,0.1,0.1,0.2c-0.1,0.1,0,0.4-0.2,0.3l0,0c-0.3,0-0.3,0.3-0.5,0.5l0.2,0.2
							c-0.7,0.3-0.6,1.5-1.2,1.6c0,0.2,0,0.2,0,0.3L48,72.2c-0.1,0-0.1,0-0.1,0.1c0,0,0,0,0,0l0-0.2c0,0-0.1,0.6-0.2,0.5
							c0,0,0.1-0.3,0.1-0.3c-0.1-0.1-0.3-0.3-0.4-0.4c-0.2-0.2-0.4-0.4-0.7-0.4c0,0,0.1-0.1,0.2,0c-0.2-0.2-0.7-0.7-0.8-0.4
							c0.1-0.2-0.4-0.3-0.7-0.4l0.1-0.1c-0.3,0-0.3,0.1-0.7,0c-0.1-0.1,0-0.1,0.1-0.1c-0.2-0.2-0.3,0-0.5-0.2l0.2,0
							c-0.2-0.1-0.2-0.1-0.4-0.1c-0.2,0-0.4-0.3-0.4-0.4c-0.1,0.1-0.3,0.1-0.4,0c0-0.1,0.1-0.1,0.1-0.1c-0.4-0.3-0.7-0.1-0.9-0.3
							c0-0.1,0-0.1,0-0.1c0.4,0.1,0.6,0.2,0.6,0.2c0.1-0.1-0.2-0.3,0.1-0.4c-0.3,0-0.7,0.1-1,0c0,0,0,0,0-0.1l0,0
							c-0.1,0-0.1,0-0.2,0c-0.1,0-0.1-0.1-0.2-0.1c0-0.1-0.3-0.1-0.5-0.1c0,0.2-0.2,0.1,0,0.3c0,0,0,0,0.1,0c0,0,0,0,0.1,0l0,0
							c0.1,0,0.2,0,0.4,0.1c-0.1,0.1-0.3,0.1-0.4,0c-0.1,0.1-0.2,0.2-0.2,0.2c-0.2-0.3-0.6-0.4-0.6-0.5c-0.5,0.1-1.1,0.1-1.3,0.5
							C39.1,69.2,39,69.1,39,69c0.1,0,0.2-0.1,0.2-0.1c-0.2,0.1-0.8,0.2-0.7,0.4c-0.3,0,0.1-0.3-0.3-0.1l0-0.1c-0.5,0-0.8,0.3-1,0.6
							c-0.2,0.3-0.5,0.6-0.9,0.8c0.1,0,0.1,0,0.1,0c-0.5,0.3-0.7,0.9-0.9,1.4c-0.2,0.5-0.3,1.1-0.5,1.6c-0.1,0.3,0,0.3,0.1,0.5
							l-0.2,0.1l0.2,0.3c0.1,0.4-0.4,0.8-0.1,1.3l0.1-0.1c0,0.2,0.1,0.6,0,0.6c0,0,0.1,0.1,0.1,0.1l-0.1,0l0.2,0.5
							c0,0.4-0.4,0-0.3,0.5c0.1,0.2,0.4,0.5,0.4,0.5c0-0.1,0-0.2,0.1-0.2l0.1,0.2c0.3,0,0.6,0.1,0.7-0.4l-0.2-0.3l0.1-0.1l0,0.3
							c0.1-0.2,0-0.2-0.1-0.3c0.1,0,0.1-0.1,0.1-0.1l-0.3-0.3c0.1,0,0.2,0.1,0.3-0.1c-0.1-0.1-0.2,0.2-0.3-0.1
							c0.1-0.2,0.2-0.1,0.1-0.3c0.1,0,0.1,0,0.2,0.1c-0.1-0.1-0.1-0.4-0.2-0.5c0.1-0.2-0.1-0.5,0.2-0.5c-0.1,0-0.2-0.3-0.2-0.4
							c0.3,0.2,0-0.5,0.4-0.4c-0.3-0.2-0.1-0.7-0.2-1c0,0,0.1,0.1,0,0.1c0-0.2,0.1-0.2,0.2-0.3c-0.2-0.1-0.2-0.4-0.3-0.5
							c0.3-0.1,0.2,0.2,0.4,0.2c-0.2,0-0.1-0.4-0.2-0.4c0.2-0.1,0.1-0.1,0.3-0.1c-0.3-0.1,0-0.1-0.1-0.3c0.2-0.1,0.3,0.1,0.3-0.2
							C36.8,71.9,36.7,72.1,36.7,72.1z M42,70L42,70c-0.1,0-0.1,0-0.1,0C41.9,70,41.9,70,42,70z M42.5,70.1c-0.1,0-0.1-0.1-0.2-0.1
							c0-0.1,0-0.1,0.1-0.1C42.4,70,42.5,70.1,42.5,70.1z M41.6,68.7c0.1,0,0.1,0,0.1,0.1C41.7,68.8,41.6,68.8,41.6,68.7L41.6,68.7
							C41.5,68.8,41.6,68.8,41.6,68.7z"/>
						<path fill="#202020" d="M41.4,68.9C41.4,68.9,41.3,68.9,41.4,68.9C41.3,68.9,41.4,69,41.4,68.9L41.4,68.9L41.4,68.9z"/>
						<path fill="#202020" d="M82.3,66.9L82.3,66.9C82.3,66.9,82.3,67,82.3,66.9C82.3,67,82.3,66.9,82.3,66.9z"/>
						<polygon fill="#202020" points="49.5,72.6 49.5,72.6 49.5,72.6 						"/>
						<path fill="#202020" d="M85.3,68.1C85.3,68.1,85.4,68.2,85.3,68.1C85.4,68.2,85.4,68.1,85.3,68.1z"/>
						<path fill="#202020" d="M86.8,68.1l0.2,0C86.9,68.2,86.8,68.1,86.8,68.1z"/>
						<path fill="#202020" d="M87.9,68C87.9,68,87.9,68,87.9,68L87.9,68L87.9,68z"/>
						<path fill="#202020" d="M71.4,64.7L71.4,64.7C71.3,64.8,71.4,64.8,71.4,64.7z"/>
						<path fill="#202020" d="M76.2,65.1c-0.1,0-0.1,0-0.2,0C76.1,65.2,76.2,65.2,76.2,65.1z"/>
						<polygon fill="#202020" points="68.7,69.1 68.7,69.1 68.7,69.2 						"/>
						<path fill="#202020" d="M75.8,65.1c0.1,0.1,0.1,0.1,0.2,0.1C76,65.1,75.9,65.1,75.8,65.1z"/>
						<path fill="#202020" d="M92,65.3L92,65.3C92,65.2,92,65.2,92,65.3L92,65.3z"/>
						<path fill="#202020" d="M92,65.2L92,65.2C92,65.2,92,65.2,92,65.2z"/>
						<path fill="#202020" d="M92,65l0,0.1C92,65.1,92.1,65.1,92,65z"/>
						<path fill="#202020" d="M90.9,66.4L90.9,66.4C91,66.5,91,66.5,90.9,66.4z"/>
						<path fill="#202020" d="M90.6,66.7c0.1-0.1,0.3-0.1,0.4-0.2l0,0C91,66.6,90.6,66.6,90.6,66.7z"/>
						<path fill="#202020" d="M88.7,67l0.3-0.1c-0.1,0-0.2-0.1-0.1-0.2C88.5,66.8,89.1,66.9,88.7,67z"/>
						<path fill="#202020" d="M87.6,67.3c0.2-0.1,0-0.1,0-0.1C87.5,67.2,87.5,67.2,87.6,67.3z"/>
						<path fill="#202020" d="M79.9,65.9l0.1-0.1C79.9,65.8,80,65.9,79.9,65.9z"/>
						<polygon fill="#202020" points="78.2,66.1 78.3,66.2 78.4,66.1 						"/>
						<polygon fill="#202020" points="77.8,64.7 77.8,64.7 77.6,64.7 						"/>
						<path fill="#202020" d="M66.7,68.3l0,0.2C66.9,68.4,66.9,68.2,66.7,68.3z"/>
						<path fill="#202020" d="M62.1,65.5c0-0.1-0.1-0.3-0.2-0.3C62,65.4,62,65.5,62.1,65.5z"/>
						<polygon fill="#202020" points="49,70.5 49,70.4 48.9,70.6 						"/>
					</g>
				</g>
			</g>
		</g>
	</g>
	<g>
		<g>
			<g>
				<g>
					<g>
						<path fill="#202020" d="M93.3,73.5c0-0.1,0-0.2-0.1-0.1L93.3,73.5L93.3,73.5z"/>
						<path fill="#202020" d="M92.8,73.4c0,0.1,0,0.3,0.1,0.4C92.8,73.6,92.9,73.7,92.8,73.4c0.1,0,0.2,0.1,0.2,0.2
							c0-0.1,0.1,0,0.1-0.1c-0.1-0.1-0.2-0.1-0.3,0.1C92.8,73.5,92.8,73.4,92.8,73.4z"/>
						<path fill="#202020" d="M87.4,76.6L87.4,76.6C87.4,76.6,87.4,76.6,87.4,76.6z"/>
						<path fill="#202020" d="M83.7,77.1C83.8,77.1,83.8,77.1,83.7,77.1C83.8,77.1,83.7,77.1,83.7,77.1z"/>
						<path fill="#202020" d="M83.1,76.8C83.1,76.8,83.1,76.8,83.1,76.8C83.1,76.8,83.1,76.8,83.1,76.8z"/>
						<path fill="#202020" d="M87.4,76.6l-0.1,0C87.3,76.7,87.3,76.6,87.4,76.6z"/>
						<path fill="#202020" d="M92.2,74.2C92.2,74.2,92.2,74.1,92.2,74.2L92.2,74.2L92.2,74.2z"/>
						<path fill="#202020" d="M88.7,75.6L88.7,75.6C88.7,75.6,88.7,75.5,88.7,75.6L88.7,75.6z"/>
						<path fill="#202020" d="M89.7,74.8c0,0,0.1,0.1,0.1,0.2C89.8,74.9,89.8,74.9,89.7,74.8C89.8,74.8,89.8,74.8,89.7,74.8z"/>
						<path fill="#202020" d="M91.6,73.8L91.6,73.8C91.6,73.7,91.6,73.7,91.6,73.8z"/>
						<path fill="#202020" d="M87.9,76.1C87.9,76.1,87.9,76,87.9,76.1C87.9,76.1,87.9,76.1,87.9,76.1z"/>
						<path fill="#202020" d="M55.8,78.3C55.8,78.3,55.8,78.2,55.8,78.3C55.7,78.3,55.7,78.3,55.8,78.3z"/>
						<polygon fill="#202020" points="54.1,77.8 54.1,77.8 54.1,77.7 						"/>
						<path fill="#202020" d="M81.9,76.5L81.9,76.5C81.9,76.5,81.9,76.5,81.9,76.5z"/>
						<path fill="#202020" d="M72.9,82c0.1,0.1-0.2,0.2,0,0.3C72.9,82.3,73,82.1,72.9,82z"/>
						<path fill="#202020" d="M92.2,74.2C92.2,74.2,92.2,74.2,92.2,74.2C92.2,74.2,92.2,74.2,92.2,74.2z"/>
						<polygon fill="#202020" points="72.9,82.3 72.9,82.3 72.9,82.3 						"/>
						<path fill="#202020" d="M78.8,76.9C78.8,76.9,78.8,76.9,78.8,76.9C78.8,76.9,78.8,76.9,78.8,76.9z"/>
						<path fill="#202020" d="M81.1,76.8L81.1,76.8C81.1,76.8,81.1,76.8,81.1,76.8z"/>
						<path fill="#202020" d="M77.8,77.7C77.8,77.8,77.7,77.8,77.8,77.7L77.8,77.7C77.7,77.8,77.8,77.8,77.8,77.7z"/>
						<polygon fill="#202020" points="77,78.7 77,78.7 77.1,78.7 						"/>
						<path fill="#202020" d="M59.1,77.6c0,0,0-0.1-0.1-0.1C59,77.6,58.9,77.7,59.1,77.6z"/>
						<path fill="#202020" d="M92.2,74.1C92.2,74.1,92.2,74.2,92.2,74.1L92.2,74.1C92.2,74.1,92.2,74.1,92.2,74.1z"/>
						<path fill="#202020" d="M78.6,78.7l-0.1,0.1C78.6,78.8,78.6,78.8,78.6,78.7z"/>
						<path fill="#202020" d="M66.6,78.9L66.6,78.9C66.5,78.9,66.5,78.9,66.6,78.9z"/>
						<path fill="#202020" d="M78.3,79.1c-0.1,0-0.1,0-0.1,0c0,0,0,0,0,0L78.3,79.1z"/>
						<path fill="#202020" d="M59,77.5L59,77.5L59,77.5z"/>
						<path fill="#202020" d="M57.9,78c0.2,0,0-0.2,0.1-0.3c0.2-0.1,0.1,0.1,0.2,0.2c0.1-0.1,0.2-0.3,0.3-0.3c0,0,0,0,0,0.1
							c0.1-0.2,0.4-0.1,0.5-0.3c0,0,0,0,0,0.1c0-0.1-0.1-0.2-0.1-0.3c0.1,0,0.1-0.1,0.2,0c0,0,0,0.1-0.1,0.1l0.1-0.1
							c0.1,0.2-0.1,0.1-0.1,0.2c0.1-0.1,0.3-0.3,0.4-0.2c0,0.2-0.3,0.1-0.1,0.2l-0.2-0.1c0.2,0.3-0.1,0,0,0.3c0.2,0,0.3-0.1,0.5-0.1
							c0-0.1,0-0.2,0-0.3c0.3-0.2,0.3,0.5,0.5,0.2c0.1-0.1,0.1-0.4,0.3-0.3l-0.1,0.2c0.2,0,0.1-0.3,0.4-0.2c0,0.1-0.2,0.1-0.1,0.1
							c0.2,0.2,0.1-0.1,0.2-0.1l0,0.2c0.2,0,0.5-0.2,0.8-0.2c0,0.1-0.1,0.1,0,0.2c0.3-0.1,0.7,0.1,1,0.2l0.1-0.1c0,0,0,0.1,0,0.1
							c0.1,0.1,0-0.1,0.1-0.2c0.1,0,0.1,0.1,0,0.2c0.2-0.1,0.7-0.2,0.9,0l-0.1,0c0.2,0.1,0.3-0.3,0.4-0.1l0,0c0.4,0.2,0.8,0.2,1,0.5
							c0.1-0.2,0.3,0.2,0.5-0.1c0.1,0.2,0.1,0.3,0.3,0.5c0.1,0.1,0.2-0.1,0.3-0.1l-0.1,0.2l0.2-0.1l0,0.2l0.1,0c0,0,0-0.1,0-0.2
							c0.2,0,0.3,0.3,0.2,0.4l0.4,0.1c0,0.1-0.1,0-0.2,0c0.3,0-0.1,0.2,0.2,0.1c0,0,0.1-0.1,0.1-0.1c0,0.1,0.2,0.3,0.3,0.3l-0.1,0.1
							c0.2,0.2,0.4,0.3,0.6,0.5c0-0.1,0.1-0.2,0.2-0.2l-0.1,0.2c0.1,0,0-0.1,0.2-0.1c0.1,0.1-0.1,0.2-0.2,0.2l0.1,0.1
							c0,0-0.1,0-0.1,0.1c0.1,0,0,0.3,0.2,0.2l0,0c0.2,0.2,0.3,0.3,0.5,0.5c0.1-0.1,0.2,0,0.3,0c0.1,0.2,0.1,0.4,0.3,0.6
							c0.2,0.1,0.1-0.1,0.3-0.1c-0.1,0.1,0.1,0.3-0.1,0.3c0.2,0.2,0.3,0.3,0.7,0.4c0-0.1,0-0.1,0-0.1c0.1,0,0.1,0.1,0,0.2l0,0
							c0.5,0.1,0.7,0.9,1.2,0.7l0,0l0.4-0.1c0.2,0.1-0.1,0.1,0,0.2c0.4-0.2,0.6,0.1,1,0c0.3,0.4,0.9-0.1,1.3,0.1l0-0.1
							c0.1-0.1,0.1,0,0.2,0c0-0.1-0.1-0.1-0.1-0.1c0.7-0.3,1.5-0.5,2.2-1.1c0.2-0.2-0.3-0.5,0.1-0.6l0.1,0.2c0.2-0.6,0.6-1,0.7-1.5
							c0,0,0.1,0.1,0,0.1c0.2,0,0.2-0.3,0.1-0.4c0-0.1,0.1,0,0.2,0c0.1,0,0-0.3,0.1-0.3c0,0,0,0,0,0.1c0-0.1,0.2-0.2,0-0.3
							c0.2-0.1,0.1-0.3,0.3-0.4C78,79,78.3,79,78.2,78.8c0.2,0.2,0.3-0.1,0.3-0.2c0,0.1,0.1,0,0.2,0.1c0.1-0.1,0.1-0.2,0-0.3
							c0.3,0.2,0.2-0.4,0.5-0.1c0.2-0.3,0.5-0.4,0.8-0.6c0,0.3-0.3,0.1-0.2,0.4c0.2-0.2,0.4-0.4,0.7-0.4c0.1,0,0,0.1-0.1,0.2
							c0.3-0.1,0.6,0,0.9-0.1c0,0,0,0-0.1,0.1c0.1,0,0.1,0,0.1-0.1l-0.1,0c-0.1-0.2,0.2-0.3,0.3-0.4c-0.1,0.3,0.3,0.1,0.1,0.5
							c0,0,0.1-0.1,0.1-0.2c0.1,0,0.1,0.1,0,0.2c0.2,0,0.1-0.2,0.3-0.2c0,0.1,0,0.1-0.1,0.1c0.1-0.1,0.2-0.2,0.4-0.1
							c0,0,0,0.1,0,0.1c0.3,0,0.5-0.2,0.8-0.1c-0.1,0.2,0.1,0.1,0.1,0.3l0.2,0l-0.1-0.1c0.1,0,0.3-0.1,0.4,0l-0.1,0.1l0.3,0
							l-0.1-0.1c0.2-0.1,0-0.3,0.2-0.2c0,0,0.1,0,0.2,0.1l0,0c0.1-0.1,0.2-0.1,0.3-0.1c0,0.1,0,0.2,0,0.3c0.1-0.2,0.4,0,0.4-0.2
							c0,0,0,0.2,0,0.2l0.1-0.1c0.1,0,0.1,0.1,0.1,0.2c0.2,0-0.1-0.3,0.2-0.2c0,0,0,0,0,0.1c0.3,0.1,0.5-0.1,0.7-0.1
							c0.1,0.2-0.2,0.1-0.1,0.2c0.3-0.1,0.6-0.4,1-0.4l-0.1,0c0-0.3,0.3,0.1,0.4-0.1c0,0,0,0.2,0,0.1c0.2,0,0.4-0.2,0.6-0.5l0,0.1
							c0.1,0,0.3-0.1,0.5-0.2c0-0.1,0.1-0.1,0-0.2c0.6,0.2,0.6-0.6,1.1-0.5c0,0,0,0.1,0,0.1l0.2-0.2c-0.1-0.1-0.1,0-0.2-0.1
							c0-0.1,0-0.2,0.1-0.2c-0.1,0.2,0.1,0.2,0.2,0.2c0,0,0-0.1-0.1-0.1c0.3,0.1-0.1-0.2,0.1-0.2l0,0.1c0-0.1,0.1-0.2,0.1-0.2
							c0.1,0.1,0,0.1,0,0.2c0.1-0.1,0-0.4,0.2-0.3c0,0.1-0.1,0.1-0.1,0.2c0.2,0.1,0.2,0,0.3,0l0,0l0.2-0.1l-0.1,0
							c-0.1-0.4,0.2-0.3,0.2-0.6c0,0.3,0.1,0.1,0.2,0.3c0.1,0,0.2,0,0.2,0.1c0-0.2,0.2,0,0.2-0.3c0,0,0.1-0.1,0.2,0.1
							c0.1-0.1-0.1-0.1-0.1-0.1c0-0.3,0.5-0.1,0.6-0.5c0.1-0.2,0.1-0.4,0.2-0.6c0.1,0,0.1,0.2,0.1,0.2c0.1,0,0.2-0.1,0.3-0.2
							c0,0.1,0,0.1,0.1,0.1c0.1-0.1-0.1-0.2,0.1-0.2c0,0.1,0,0.2,0,0.2c0.1-0.1,0.1-0.2,0.2-0.3c0.1,0.1,0,0.2,0,0.2
							c0.1-0.1,0.2-0.2,0.2-0.4l-0.1,0c0,0,0.1,0.1,0.1,0.1c0,0.2-0.2,0-0.2,0l0.1-0.1c-0.2-0.3-0.3,0.2-0.4,0.3L92,73.7l0,0.3
							c-0.1,0-0.2-0.1-0.1-0.2c-0.2,0,0,0.1-0.2,0.1c0,0,0,0,0,0l-0.1,0.1c0-0.1-0.1-0.1,0-0.1c-0.3,0-0.2,0.3-0.4,0.2l0,0
							c-0.2,0.2,0.1,0.2,0,0.5l-0.4-0.3l0.1,0.2c0,0-0.1,0-0.1,0c0,0.2,0.1,0.1,0.1,0.2c-0.2,0-0.3,0.3-0.5,0.1c0,0.1,0.2,0,0.1,0.2
							c-0.2-0.2-0.1,0.1-0.3,0.1c-0.1-0.1,0.1-0.2-0.1-0.2c0.1,0.3-0.2,0.1-0.3,0.2c0.1,0.2-0.1,0.2-0.2,0.4c0-0.1-0.3,0.1-0.5,0.2
							l0,0c0.1,0.2-0.1,0.3-0.1,0.4c-0.1-0.1-0.1-0.2-0.1-0.2l-0.1,0.1c0,0.1,0,0.1,0,0.2l-0.1-0.1c-0.1,0.1-0.2,0.3-0.4,0.4
							c0.1,0.1,0.4,0.2,0.2,0.5c-0.1-0.1-0.1-0.2-0.1-0.2c0,0,0,0.1-0.1,0.1l0-0.2c-0.1,0,0,0.1,0,0.2c-0.1-0.1-0.1,0-0.1-0.1
							c0,0,0.1,0,0.1,0c-0.1,0-0.2,0-0.3,0c0,0.1,0.1,0.1,0,0.2c-0.1,0.1-0.1-0.1-0.2-0.1c0,0.1-0.1,0.1,0,0.2c0,0-0.1,0-0.1-0.1
							c0,0.1-0.3,0.2-0.2,0.3l0,0l0,0l0,0l0,0c-0.2,0.3-0.5,0.2-0.8,0.3l0-0.1c-0.1,0.1-0.3,0.1-0.4,0.3c0,0-0.1-0.1-0.1-0.1
							c-0.1,0.1-0.1,0.1-0.3,0.1C86,77,85.8,77,86,77c-0.2,0-0.2-0.1-0.3,0.1c0-0.2-0.1-0.2-0.2-0.1l0.1,0.1c-0.1,0-0.1,0-0.2,0
							l0-0.2c-0.3-0.2-0.5,0.4-0.8,0c-0.1,0.1,0.2,0.1,0.1,0.3c-0.1,0-0.3-0.3-0.3-0.3c-0.2-0.1-0.2,0.3-0.4,0.2
							c0,0.1,0,0.3-0.1,0.3c-0.1,0-0.2-0.3-0.1-0.3c0,0,0.1,0,0,0c0.1,0,0.1,0,0.1-0.1l0,0.1c-0.1-0.1-0.3-0.1-0.2-0.2
							c-0.1,0.1-0.1,0.1,0,0.2c-0.2-0.1-0.3,0-0.5-0.1c0,0,0,0.1,0,0.1c-0.3-0.1-0.1,0.1-0.3,0.1c-0.1-0.1,0.1-0.2-0.1-0.2
							c-0.1-0.1,0-0.2,0.1-0.2c-0.2,0.1-0.3-0.1-0.4-0.2l0.1,0c-0.1,0-0.1,0-0.2,0l0,0.1c-0.1,0-0.1,0-0.1-0.1
							c-0.1,0.1,0,0.2-0.1,0.3c-0.1-0.1-0.2,0-0.3-0.1c0.2,0.1,0-0.2,0.2-0.2c0,0-0.1,0-0.1,0c0,0,0,0,0,0c-0.2-0.2-0.1,0.2-0.4,0.2
							c0-0.1,0-0.2-0.1-0.2c0.1,0,0,0.2-0.1,0.2c-0.2-0.1-0.2,0.1-0.3,0l0.1,0c0,0.1-0.1,0.1-0.2,0.1c0-0.1,0.1-0.1,0.1-0.1
							c-0.1,0.2-0.3-0.2-0.5-0.1c-0.1-0.1,0-0.2-0.1-0.2c-0.2,0.1-0.2-0.1-0.4,0c0.1,0.1,0.1,0.1-0.1,0.2l0.3-0.1l-0.2,0.2
							c0.1,0,0.2-0.1,0.3-0.1c-0.1,0.1-0.1,0.1,0,0.2c-0.2-0.2-0.3,0.1-0.4,0l0-0.3c-0.3-0.1-0.4,0.2-0.8,0.3l0.1,0
							c0,0.1-0.2,0.1-0.3,0.2c0-0.1-0.1-0.1-0.2-0.2c0,0.1-0.2,0.1-0.2,0.3l-0.2-0.1c-0.3,0.1-0.1,0.4-0.3,0.5
							c0-0.1-0.2-0.1-0.1-0.3c-0.1,0-0.2,0.1-0.1,0.1c-0.1,0-0.1,0.3-0.2,0.2c0,0.1,0.1,0.2,0,0.2c0,0,0,0,0,0c0,0,0,0.2,0.1,0.2
							c-0.4-0.1-0.4,0.5-0.8,0.5c-0.1,0.2-0.1,0.4-0.2,0.5c0,0,0,0,0,0c-0.2,0.1,0.2,0.3,0,0.4c-0.2,0,0-0.2-0.1-0.1
							c-0.3-0.2-0.1,0.3-0.4,0.3l0,0c-0.2,0,0,0.3-0.1,0.5c0,0,0,0,0,0c0.1,0.2,0,0.5,0,0.6c-0.1-0.1,0-0.1-0.2-0.2
							c0,0.1,0.2,0.1,0.2,0.3c-0.1,0-0.2,0-0.4,0l0.1-0.1c-0.2-0.1-0.1,0.2-0.2,0.2l-0.1-0.1c-0.1,0.2,0,0.3-0.1,0.5l0.1,0
							c0.1,0.3-0.2,0-0.2,0.2l-0.2-0.2c0,0.1-0.1,0.4-0.2,0.5c0-0.2,0.1-0.4,0.1-0.5c-0.1,0.1-0.2,0.2-0.2,0.3c0,0,0-0.1,0.1-0.1
							c0,0.2-0.1,0.4-0.2,0.4c-0.2-0.4-0.5,0.1-0.7-0.2c-0.2,0.2-0.6,0.1-0.9,0.1c0.1,0.3-0.1,0-0.1,0.4c-0.1,0-0.1,0-0.1,0
							c0,0-0.2-0.2-0.2-0.2c0-0.1,0.1-0.1,0.1-0.2c-0.2,0-0.1-0.2-0.2-0.3c0,0.1-0.1,0.2-0.2,0.1l0.1,0.2c-0.3,0.1-0.2-0.3-0.4-0.2
							l0.1-0.1c-0.1,0-0.4-0.1-0.6,0.1c0,0,0-0.1,0.1-0.1c-0.2-0.1-0.7,0-0.8-0.3l0.1-0.1c-0.1,0-0.2,0.1-0.2,0c0,0,0.1-0.1,0.1-0.1
							c0,0-0.2,0-0.2-0.1l0.1,0c-0.1-0.3-0.5-0.2-0.7-0.3c0.2-0.2,0.1-0.4,0.1-0.5l0,0c-0.2-0.3-0.6-0.4-0.9-0.6
							c0-0.4-0.5-0.7-0.7-1.1c0,0.1-0.1,0.1-0.2,0.1c0-0.1-0.3,0-0.1-0.2l0,0c0.1-0.2-0.1-0.3-0.2-0.4l-0.2,0.2
							c-0.1-0.6-0.9-0.4-0.9-0.8c-0.1,0-0.2,0-0.3,0l0.1-0.1c-0.2-0.2-0.3-0.2-0.6-0.3l0.1-0.1c-0.2-0.1-0.4,0.4-0.5,0.3l0-0.2
							c-0.3-0.1-0.5-0.4-0.9-0.3c0,0,0-0.1,0.1-0.1c-0.1,0-0.5-0.3-0.5,0c0-0.2-0.3-0.1-0.5,0l0.1-0.2c-0.2,0.2-0.2,0.2-0.4,0.2
							c0,0,0-0.1,0-0.1c-0.1-0.1-0.1,0.1-0.3,0l0.1-0.1c-0.2,0-0.1,0-0.2,0.1c-0.1,0-0.3-0.1-0.3-0.2c0,0.1-0.1,0.2-0.2,0.1
							c0-0.1,0-0.1,0-0.1c-0.2-0.1-0.4,0.2-0.6,0c0-0.1,0-0.1,0-0.1c0.2,0,0.4,0,0.4,0c0-0.1-0.2-0.2,0-0.4
							c-0.1,0.1-0.4,0.3-0.6,0.2c0,0,0,0,0-0.1l0,0c0,0-0.1,0-0.1,0c-0.1,0-0.1,0-0.1,0c0-0.1-0.2-0.1-0.3-0.1c0,0.2-0.1,0.1,0,0.3
							c0,0,0,0,0.1,0c0,0,0,0,0,0c0,0,0,0,0,0c0.1,0,0.1,0,0.2,0c-0.1,0.1-0.1,0.1-0.2,0.1c0,0.1-0.1,0.2-0.1,0.3
							c-0.1-0.2-0.3-0.3-0.4-0.5c-0.3,0.1-0.6,0.1-0.7,0.4c-0.1,0-0.1-0.1-0.1-0.1c0,0,0.1,0,0.1-0.1c-0.1,0.1-0.4,0.1-0.4,0.3
							c-0.2-0.1,0.1-0.2-0.2-0.1l0-0.1c-0.5-0.3-0.7,0.6-1.3,0.2c0,0,0.1,0,0.1,0.1c-0.6-0.1-1.2,0.4-1.8,0.2
							c-0.2,0-0.2,0.1-0.3,0.2L56.1,77L56,77.2c-0.2,0.2-0.5-0.3-0.8,0l0.1,0.1c-0.1,0-0.3,0.1-0.3,0c0,0,0,0.1-0.1,0.1l0-0.1
							l-0.2,0.2c-0.2,0,0-0.4-0.4-0.3c-0.1,0.1-0.3,0.3-0.2,0.4c0,0,0.1,0,0.2,0.1l-0.1,0.1c0,0.3,0,0.6,0.3,0.7l0.1-0.2l0.1,0.1
							l-0.1,0c0.1,0.1,0.1,0,0.2-0.1c0,0.1,0.1,0.1,0.1,0.1l0.1-0.3c0,0.1,0,0.2,0.1,0.3c0.1-0.1-0.1-0.2,0-0.3
							c0.1,0.1,0.1,0.2,0.2,0.1c0,0.1,0,0.1,0,0.2c0.1-0.1,0.2-0.1,0.2-0.2c0.1,0.1,0.3-0.1,0.3,0.1c0-0.1,0.1-0.2,0.2-0.3
							c-0.1,0.3,0.3,0,0.3,0.3c0.1-0.3,0.4-0.2,0.5-0.4c0,0,0,0.1,0,0.1c0.1,0,0.2,0.1,0.2,0.1c0-0.2,0.1-0.3,0.2-0.5
							c0.2,0.2,0,0.3,0,0.5c0-0.2,0.2-0.2,0.1-0.4c0.1,0.1,0.1,0,0.2,0.2c0-0.3,0.1-0.1,0.1-0.2c0.2,0.1,0.1,0.3,0.2,0.1
							C58,77.9,57.9,78,57.9,78z M61.8,77.3L61.8,77.3C61.7,77.3,61.7,77.3,61.8,77.3C61.7,77.3,61.7,77.3,61.8,77.3z M62.1,77.3
							c0,0-0.1,0-0.1,0c0-0.1,0-0.1,0-0.1C62,77.2,62,77.3,62.1,77.3z M61.4,76.2C61.5,76.1,61.5,76.2,61.4,76.2
							C61.5,76.2,61.4,76.2,61.4,76.2L61.4,76.2C61.4,76.2,61.4,76.2,61.4,76.2z"/>
						<path fill="#202020" d="M61.3,76.4C61.3,76.4,61.3,76.4,61.3,76.4C61.3,76.4,61.3,76.4,61.3,76.4L61.3,76.4L61.3,76.4z"/>
						<path fill="#202020" d="M87.4,76.6L87.4,76.6C87.4,76.6,87.4,76.6,87.4,76.6L87.4,76.6z"/>
						<polygon fill="#202020" points="66.2,78.8 66.2,78.8 66.2,78.8 						"/>
						<path fill="#202020" d="M89.3,76.1C89.3,76.1,89.3,76.1,89.3,76.1C89.3,76.1,89.3,76.1,89.3,76.1z"/>
						<path fill="#202020" d="M90,75.6l0.1,0C90,75.6,90,75.6,90,75.6z"/>
						<path fill="#202020" d="M90.5,75.3C90.5,75.3,90.5,75.3,90.5,75.3L90.5,75.3L90.5,75.3z"/>
						<path fill="#202020" d="M81.1,77.8C81.1,77.8,81.1,77.8,81.1,77.8C81,77.9,81.1,77.9,81.1,77.8z"/>
						<path fill="#202020" d="M84,77.7c0,0-0.1,0.1-0.1,0.1C84,77.8,84,77.8,84,77.7z"/>
						<polygon fill="#202020" points="78.6,78.7 78.6,78.7 78.6,78.7 						"/>
						<path fill="#202020" d="M83.8,77.8c0.1,0,0.1,0,0.1,0C83.9,77.8,83.8,77.8,83.8,77.8z"/>
						<path fill="#202020" d="M92.7,73.9L92.7,73.9C92.7,73.9,92.7,73.9,92.7,73.9L92.7,73.9z"/>
						<path fill="#202020" d="M92.7,73.9L92.7,73.9C92.7,73.9,92.7,73.9,92.7,73.9z"/>
						<path fill="#202020" d="M92.8,73.8L92.8,73.8C92.7,73.9,92.8,73.9,92.8,73.8z"/>
						<path fill="#202020" d="M92,74.2L92,74.2C92,74.3,92,74.3,92,74.2z"/>
						<path fill="#202020" d="M91.8,74.4c0.1,0,0.2,0,0.2,0l0,0C92,74.4,91.8,74.3,91.8,74.4z"/>
						<path fill="#202020" d="M90.5,74.4l0.2-0.1c-0.1,0-0.2-0.1-0.1-0.1C90.3,74.2,90.8,74.2,90.5,74.4z"/>
						<path fill="#202020" d="M90,74.7c0.1-0.1-0.1-0.1-0.1-0.1C89.9,74.7,89.9,74.7,90,74.7z"/>
						<path fill="#202020" d="M86.1,77l0-0.1C86,76.9,86.1,76.9,86.1,77z"/>
						<polygon fill="#202020" points="85.3,77.9 85.4,78 85.5,77.8 						"/>
						<polygon fill="#202020" points="84.8,76.9 84.8,76.9 84.7,76.9 						"/>
						<path fill="#202020" d="M77,78.4l0.2,0.1C77.2,78.5,77,78.3,77,78.4z"/>
						<path fill="#202020" d="M75.4,81.3c-0.1,0-0.2,0-0.2,0.1C75.3,81.3,75.3,81.3,75.4,81.3z"/>
						<polygon fill="#202020" points="67.7,78 67.8,78 67.7,78 						"/>
					</g>
				</g>
			</g>
		</g>
	</g>
</g>
</svg>
