<?xml version="1.0" encoding="utf-8"?>
<!-- Generator: Adobe Illustrator 18.0.0, SVG Export Plug-In . SVG Version: 6.00 Build 0)  -->
<!DOCTYPE svg PUBLIC "-//W3C//DTD SVG 1.1//EN" "http://www.w3.org/Graphics/SVG/1.1/DTD/svg11.dtd">
<svg version="1.1" id="Layer_1" xmlns="http://www.w3.org/2000/svg" xmlns:xlink="http://www.w3.org/1999/xlink" x="0px" y="0px"
	 viewBox="0 0 360 360" enable-background="new 0 0 360 360" xml:space="preserve">
<pattern  y="360" width="49" height="53.2" patternUnits="userSpaceOnUse" id="baconbacon" viewBox="0 -53.2 49 53.2" overflow="visible">
	<g>
		<polygon fill="none" points="0,0 49,0 49,-53.2 0,-53.2 		"/>
		<g>
			<polygon fill="none" points="0,0 49,0 49,-53.2 0,-53.2 			"/>
			<g>
				<g>
					<g>
						<path fill="#202020" d="M8.6-35.2c0-0.1-0.1-0.1-0.1-0.1C8.6-35.3,8.6-35.2,8.6-35.2c0,0.1,0,0.2,0,0.2l0,0
							C8.6-35,8.6-35.1,8.6-35.2z"/>
						<path fill="#202020" d="M8.3-35.5c-0.1,0.1-0.3,0.2-0.1,0.2c0.1,0,0.2,0,0.2,0.1l-0.1-0.1l0,0C8.3-35.4,8.1-35.3,8.3-35.5
							C8.3-35.5,8.4-35.5,8.3-35.5c0.1,0,0.2,0,0.2,0C8.6-35.6,8.4-35.6,8.3-35.5L8.3-35.5z"/>
						<path fill="#202020" d="M17.1-36.2L17.1-36.2L17.1-36.2z"/>
						<path fill="#202020" d="M19.1-29.5L19.1-29.5C19.2-29.5,19.1-29.5,19.1-29.5z"/>
						<path fill="#202020" d="M19.8-28.7C19.9-28.6,19.9-28.6,19.8-28.7C19.9-28.6,19.9-28.6,19.8-28.7z"/>
						<path fill="#202020" d="M17.2-36l-0.1-0.2C17.2-36.1,17.2-36,17.2-36z"/>
						<path fill="#202020" d="M9.7-36L9.7-36C9.6-36,9.7-36,9.7-36L9.7-36z"/>
						<path fill="#202020" d="M15.6-38.9L15.6-38.9h0.1C15.7-38.9,15.6-38.9,15.6-38.9z"/>
						<path fill="#202020" d="M13.5-37.8c0.1,0,0.1,0,0.1,0C13.6-37.9,13.6-37.9,13.5-37.8L13.5-37.8z"/>
						<path fill="#202020" d="M10.1-36.4L10.1-36.4C10.2-36.4,10.1-36.4,10.1-36.4z"/>
						<path fill="#202020" d="M16.8-37.5L16.8-37.5L16.8-37.5z"/>
						<path fill="#202020" d="M9.2-32.8L9.2-32.8L9.2-32.8z"/>
						<path fill="#202020" d="M8.5-35.4L8.5-35.4L8.5-35.4L8.5-35.4z"/>
						<path fill="#202020" d="M21.6-27.4L21.6-27.4L21.6-27.4z"/>
						<path fill="#202020" d="M27.4-11.1C27.1-10.9,27.7-11.2,27.4-11.1C27.7-11.2,27.4-11.1,27.4-11.1z"/>
						<path fill="#202020" d="M9.9-36.1L9.9-36.1C9.8-36.1,9.8-36.1,9.9-36.1z"/>
						<path fill="#202020" d="M27.4-11.1L27.4-11.1L27.4-11.1L27.4-11.1z"/>
						<path fill="#202020" d="M25.4-24L25.4-24C25.4-24,25.3-24,25.4-24z"/>
						<path fill="#202020" d="M22.7-26.5L22.7-26.5C22.7-26.6,22.7-26.5,22.7-26.5z"/>
						<path fill="#202020" d="M26.2-22L26.2-22C26.2-22.1,26.2-22.1,26.2-22C26.2-22.1,26.2-22,26.2-22z"/>
						<path fill="#202020" d="M26.7-20.3C26.8-20.2,26.8-20.2,26.7-20.3C26.8-20.2,26.8-20.2,26.7-20.3L26.7-20.3z"/>
						<path fill="#202020" d="M11.3-27.2C11.3-27.2,11.4-27.1,11.3-27.2C11.2-27.4,11.4-27.1,11.3-27.2z"/>
						<path fill="#202020" d="M9.7-36.1L9.7-36.1L9.7-36.1L9.7-36.1z"/>
						<path fill="#202020" d="M25.9-21.6l-0.1-0.3C25.9-21.8,25.9-21.7,25.9-21.6z"/>
						<path fill="#202020" d="M21.1-18.3L21.1-18.3L21.1-18.3z"/>
						<path fill="#202020" d="M26.3-20.5L26.3-20.5c0-0.1-0.1-0.1-0.1-0.2L26.3-20.5z"/>
						<path fill="#202020" d="M11.3-27.2L11.3-27.2L11.3-27.2z"/>
						<path fill="#202020" d="M10.5-29c-0.1-0.3,0-0.1-0.2-0.3c0-0.2-0.1-0.3,0-0.3c-0.1-0.1-0.1-0.1-0.2-0.2c0.1,0.1-0.1-0.4,0-0.4
							c-0.1-0.1,0,0.3-0.1,0.1c0-0.2-0.1-0.5-0.1-0.5c-0.1-0.1-0.1-0.2-0.2-0.4v0.1c-0.1-0.3-0.3-0.8-0.2-1.1
							c-0.1,0.1-0.2-0.8-0.2-0.5c0-0.2,0-0.4,0-0.5c-0.1,0-0.1-0.4-0.2-0.5C9.1-33.6,9-33.9,9-34c0,0.1,0,0.1,0,0.1
							c0-0.2,0-0.1-0.1-0.3c0-0.2,0.1,0,0.1-0.1c-0.1-0.2-0.1,0-0.1-0.1v-0.3c0-0.1,0-0.1-0.1-0.1c0-0.1,0-0.2,0-0.4L8.9-35
							l-0.1-0.1v-0.3c-0.1-0.5-0.2-0.3-0.2-0.3v0.2c0,0-0.1-0.1-0.1-0.2c0-0.1-0.1,0.3,0,0.5c0.1,0.6,0.1,0.1,0.2,0.5v0.5l0,0
							c0,0.1,0,0.1,0,0.2c0,0,0.1,0.4,0.2,0.6l-0.1-0.1c0,0.6,0.3,0.8,0.4,1.3v0.3l0.1,0.1c0,0.2,0,0.2,0.1,0.5
							c0.4,1,0.7,2.1,1.2,3.1c0,0,0,0-0.1-0.1c0.5,0.8,0.5,1.4,1.1,2.1v-0.1c0.2,0.4,0-0.1,0.2,0.2c0,0.1,0.3,0.5,0.4,0.7
							c0-0.1-0.1-0.1-0.1-0.2c0,0,0.1,0,0.2,0.2c0.1,0.3,0.5,0.7,0.8,1.1c0.1,0,0.4,0.2,0.6,0.3c0,0,0.1,0.1,0.1,0.2
							c0.2,0.1,0.2,0.2,0.3,0.3c-0.1-0.1-0.2-0.2-0.3-0.2l0,0c0,0,0,0-0.1,0c-0.1-0.1-0.1-0.1-0.1-0.1c-0.2-0.1,0,0-0.1,0.1
							c0.1,0.1,0.3,0.3,0.4,0.3c0.1,0,0.1,0.1,0.2,0.1c0.1,0.1,0.1,0.1,0.2,0.1l0,0l0,0c0.2,0.1,0.5,0.4,0.8,0.5
							c-0.2-0.2,0.1,0,0.1-0.1c0,0-0.2-0.1-0.5-0.3h0.1c0.3,0.1,0.5,0.3,0.9,0.5l-0.1-0.1c0.2,0.1,0.3,0.2,0.3,0.2
							c0.1,0,0.4,0.1,0.5,0.2s0.1,0.1,0.4,0.2l-0.2-0.1c0.3,0.1,0.2,0.1,0.5,0.2c-0.1,0-0.1,0,0,0c0.3,0.1,0.3,0.1,0.6,0.2v-0.1
							c0.3,0.1,0.8,0.2,0.8,0.1c-0.1,0.1,0.6,0.1,0.9,0.1c-0.1,0-0.1,0-0.1,0c0.2,0,0.6,0,0.6,0s0.1,0.1,0.1,0.3
							c0,0.1,0.1,0.2,0.1,0.4l0.1,0.1c0.1,0.3-0.1,0.4,0,0.7v-0.1c0.1,0.5,0.2,0.7,0.3,1.1h0.1c0,0.2,0.1,0.3,0.1,0.5
							c0.2,0.3,0.2,1.4,0.5,2l-0.1,0.1c0.1,0.2,0.1,0.5,0.2,0.6v-0.1c0.1,0,0.1,0.2,0.1,0.4c0,0.1,0,0.2,0,0.2
							c0.2,0.6,0.4,1.6,0.6,2c0.2,0.6,0.2,1.1,0.4,1.8l0,0c0.1,0.2,0.3,0.7,0.3,0.6c0.2,0.5,0.2,0.8,0.5,1.4v-0.1
							c0.1,0.1,0.2,0.4,0.2,0.4c0,0.1,0,0,0,0c0.1,0.1,0.1,0.2,0.2,0.3v-0.1c0,0,0.1,0.1,0.1,0.2s0.1,0.1,0.2,0.2
							C24-8.7,24-8.7,24-8.6c0,0,0,0.1,0.1,0.1h0.1c0.1-0.1,0.2-0.1,0.3-0.2c0.3-0.2,0.6-0.3,0.9-0.5c-0.1,0.1-0.1,0,0,0
							c0.3-0.1,0.8-0.4,1.1-0.5L26-10c0.5-0.2,0.3-0.3,0.8-0.5l-0.2,0.2c0.2-0.1,0.3-0.2,0.3-0.1c0.2-0.2,0-0.1,0.3-0.3
							c0,0-0.2,0.1-0.2,0l0.4-0.3c0,0,0.1,0,0.2-0.1c0,0.1,0.3-0.2,0.2,0c0.6-0.4,1.1-0.7,1.6-1c0.1-0.1,0.4-0.3,0.5-0.5
							c0.2-0.3,0.1-0.6,0-0.5c0-0.4-0.2-0.6-0.2-0.8c0,0.1,0.1,0.2,0.1,0.2c0-0.1-0.2-0.5-0.3-0.6c0.1,0.2,0.3,0.5,0.3,0.7
							c-0.1-0.3-0.3-0.7-0.4-0.8h-0.1c-0.1-0.3-0.2-0.2-0.2-0.4l0,0c-0.3-0.4-0.2-0.5-0.4-0.8l0,0c-0.1-0.1-0.2-0.4-0.3-0.5l0.2,0.2
							c-0.1,0-0.2-0.2-0.2-0.3c-0.2-0.3,0-0.1-0.1-0.3c-0.1,0,0,0,0,0.1c-0.2-0.3-0.3-0.8-0.4-1l0,0c-0.2-0.3-0.2-0.6-0.3-0.8h0.1
							c-0.2-0.2-0.2-0.7-0.3-0.7c-0.1-0.1,0.1,0.3,0,0.1c-0.2-0.4,0-0.3-0.2-0.6c0,0.1,0,0,0,0.1c-0.1-0.3-0.2-0.6-0.3-0.9
							c-0.2-0.3-0.3-1.1-0.6-1.4c0.1,0.1,0-0.1,0-0.1l0,0c-0.1-0.2,0-0.2,0-0.2c-0.1-0.1-0.1-0.4-0.2-0.5c0,0,0-0.1-0.1-0.2
							c0.1,0.3,0,0.1,0,0.2c-0.2-0.4-0.1-0.5-0.3-0.9l-0.2-0.2c0-0.1-0.2-0.4-0.2-0.4c-0.1-0.1-0.1-0.2-0.2-0.1
							c-0.1-0.2-0.3-0.3-0.3-0.4l0.1,0.1c-0.3-0.4-0.5-0.7-0.8-1L24-25.2c-0.2-0.2-0.4-0.4-0.6-0.5c0.1,0,0.1,0,0-0.1
							c0.1,0,0.2,0.2,0.4,0.3l-0.2-0.3c0,0,0.1,0.1,0.2,0.2s0.2,0.2,0.2,0.2c-0.2-0.2-0.2-0.2-0.1-0.2c-0.3-0.3-0.3-0.2-0.6-0.5
							c-0.1-0.1,0,0-0.2,0c-0.2-0.2-0.5-0.3-0.7-0.4c-0.1,0,0.1,0.1,0.1,0.1c-0.2-0.1-0.3-0.2-0.3-0.2l0.2,0.1
							c-0.1-0.1-0.1-0.1-0.4-0.2c-0.1-0.1-0.2-0.2,0-0.1c-0.1,0-0.2-0.1-0.2,0c-0.4-0.2-0.1-0.2-0.5-0.4c0,0,0.1,0,0,0
							c-0.1-0.1-0.2-0.1-0.2-0.2c0.3,0.2-0.1,0,0.2,0.2c-0.1,0-0.3-0.2-0.4-0.2c-0.2-0.2,0-0.1-0.1-0.2c0,0-0.1,0-0.2-0.1h0.1
							c-0.1,0-0.1-0.1-0.2-0.2l0.1,0.1c-0.2-0.1-0.5-0.2-0.7-0.5c0.1,0.1,0.2,0.2,0,0.1c-0.2-0.2-0.1,0-0.2-0.2
							c-0.3-0.3,0-0.1-0.4-0.5c0-0.1,0,0,0.1,0c-0.1-0.1-0.2-0.2-0.3-0.3c-0.1-0.1-0.2-0.2-0.3-0.4c0.1,0.1,0.2,0.2,0.1,0
							c0,0.1-0.2-0.2-0.2-0.3l0,0c-0.1-0.1,0,0,0,0.1c0,0,0,0,0.1,0.1c0.1,0.2,0,0.2-0.2-0.1c-0.1-0.3,0-0.2,0-0.2
							c-0.2-0.3-0.1-0.4-0.2-0.7c0-0.1-0.2-0.3-0.3-0.6c0-0.2,0.1,0.3,0.1,0.2C18-31.5,18-32,17.9-32.6v0.1c0-0.2-0.1-0.3-0.1-0.4
							l0.1,0.2c0-0.1-0.1-0.5-0.1-0.3c0-0.3-0.1-0.4-0.2-0.7c0.1,0.3,0,0,0,0.3c-0.1-0.3-0.1-0.3-0.2-0.5c0,0-0.1-0.1-0.1-0.2
							c0-0.2-0.1-0.5-0.2-0.8l0,0c-0.1-0.5-0.3-1-0.5-1.4l0,0l0,0l0,0l0,0c0.1,0.2-0.1-0.4-0.1-0.5c0,0-0.1,0-0.1-0.1
							c0.1,0,0-0.2,0-0.3c-0.1-0.2-0.1,0-0.2-0.2c0-0.1,0-0.1,0-0.1c0-0.1-0.1-0.2-0.2-0.4c0,0,0.1,0.1,0.1,0.2L16-37.8
							c-0.1-0.1,0-0.1-0.1-0.2v0.2c0-0.1-0.1-0.2-0.1-0.2c0,0.1,0,0.1,0,0.1c-0.1-0.4,0.1-0.1,0.1-0.2c-0.1-0.2-0.1-0.3-0.2-0.5
							c-0.1-0.2-0.2-0.3-0.4-0.4v0.1C15.1-39,15.1-39,15-39h-0.2c0.2,0,0.2,0,0.2,0c-0.3,0-0.5,0.2-0.6,0.2l0,0
							c-0.3,0.2-0.8,0.5-0.8,0.5c-0.3,0.2-0.6,0.4-0.7,0.4c-0.2,0.1-0.4,0.4-0.5,0.4c-0.2,0.2,0,0,0.1,0c-0.2,0.2-0.4,0.2-0.5,0.3
							c-0.3,0.1,0,0-0.1,0c0,0.1-0.5,0.3-0.7,0.4c-0.1,0,0.1-0.1-0.1,0c0,0-0.1,0-0.1,0.1h-0.1c0,0,0,0-0.1,0.1
							c-0.1,0-0.1,0.1-0.1,0.1c-0.4,0,0.1-0.1-0.5,0l0,0c-0.1,0.1-0.4,0.1-0.7,0.2c0.1,0,0.1,0,0.1,0H9.4l0,0
							c-0.2,0.1-0.2,0-0.4,0.1c0.2,0,0.1,0,0.1,0.1H8.8H9c-0.3,0.1-0.7,0.2-0.8,0.3c0,0,0,0,0.1,0h0.1c0,0,0.6,0,0.4,0.1
							c-0.1,0-0.1,0,0,0l-0.1,0.1c0.1,0,0.4-0.2,0.6-0.2c-0.1,0-0.2,0.1-0.2,0c0.2-0.1,0.4-0.1,0.6-0.2c-0.1,0-0.2,0-0.2,0
							c0.2-0.1,0.2,0,0.3-0.1c0.1,0,0.1-0.1,0.1-0.1c0.2,0,0.4-0.1,0.6-0.2c0,0-0.2,0-0.1,0c0.4-0.1,0.5,0,0.9-0.1
							c0.5-0.1,1-0.4,1.3-0.5c0,0-0.2,0.2,0,0.1c-0.1,0,0.1-0.1,0.1-0.1c0.3-0.1,0.3-0.2,0.5-0.2c0,0,0.1-0.1,0.2-0.2
							c-0.1,0,0.2-0.2-0.1,0c0.4-0.1,0.5-0.4,0.8-0.4L14-37.7l0.3-0.2l0,0c0.2-0.1,0.2-0.1,0.3-0.3c-0.1,0-0.2,0.1-0.3,0.2
							c0.2-0.2,0.4-0.2,0.6-0.3c0,0-0.2,0.1-0.2,0c0.1-0.1,0.2-0.1,0.4-0.2l0,0c0.3-0.2,0.2,0,0.4-0.2l0,0c0.1-0.1,0.3-0.1,0.1-0.1
							c0.1,0,0.3,0,0.3,0.1c-0.1,0-0.2,0-0.2,0s0.1,0,0.2,0.1c0.1,0.1,0.2,0.2,0.2,0.2c0,0.1,0,0-0.1-0.1c0.2,0.2,0.3,0.5,0.4,0.8
							s0.2,0.7,0.4,1c-0.1-0.1,0,0.1,0,0.1c0.1,0.2,0.2,0.5,0.3,0.8v-0.1c0.2,0.5,0.2,0.9,0.3,1.3c0,0,0,0,0-0.1
							c0,0.3,0.2,0.6,0.2,0.7v-0.1c0.2,0.5,0.2,1.1,0.4,1.7c0.1,0.1-0.1-0.3,0-0.2c0.1,0.4,0.1,0.8,0.2,1.2c0-0.1,0-0.1,0-0.1
							c0.1,0.4-0.1-0.1,0,0.3c0,0,0,0,0.1,0.1v0.1c0,0,0,0,0-0.1c0,0.2,0.2,0.6,0.2,0.8c0,0,0.1-0.1,0.1,0c0.1,0.2,0.1,0.3,0.1,0.4
							l0,0c0.1,0.1,0.2,0.4,0.2,0.3c0.2,0.3,0,0.1,0.1,0.3l-0.1-0.1c-0.1-0.1-0.1-0.1-0.1-0.1s0.1,0.1,0.1,0.2
							c0.1,0.1,0.1,0.2,0.1,0.2l0-0.3c0.1,0.2,0.2,0.4,0.4,0.6l-0.1-0.1l0.2,0.2c0.1,0,0.3,0.3,0.2,0.1c0.4,0.4,0.6,0.7,1.1,1
							c-0.1-0.1,0,0,0-0.1c0.2,0.2,0.4,0.3,0.5,0.4l-0.1-0.1c0.3,0.2,0.2,0.2,0.5,0.4c-0.1-0.1,0-0.1,0.1,0c0,0,0,0.1,0.1,0.1
							c-0.2-0.3,0.4,0.2,0.3,0c0,0.1,0.5,0.4,0.3,0.4l-0.1-0.1c0,0,0.1,0.1,0.2,0.2c-0.1-0.1-0.1-0.1-0.1-0.1c0.4,0.3,0.9,0.6,1.3,1
							c0,0-0.2-0.2-0.1-0.1c0.5,0.4,0.6,0.7,1,1.1c0.1,0-0.1-0.2-0.2-0.3c-0.1-0.2-0.2-0.3-0.2-0.3c0.4,0.5,0.8,1,1,1.7
							c0.2,0.2,0.2,0.6,0.5,1c-0.1,0,0,0.2,0.1,0.4c0-0.1,0.1,0.1,0.1,0.1c0,0.2,0.2,0.8,0.3,0.7c-0.1,0.1,0.2,0.4,0.2,0.6
							c0.1,0.2,0.2,0.5,0.3,0.8c-0.1-0.1,0.1,0.3,0.1,0.5v-0.1c0.1,0.1,0.1,0.4,0.2,0.5s0,0,0.1,0.1c-0.1,0,0.1,0.5,0.2,0.7
							c0-0.1,0-0.1,0-0.2c0.3,0.8,0.8,1.7,1.1,2.5V-16c0.3,0.5,0.1,0.4,0.3,0.8c0.2,0.3,0.3,0.5,0.5,0.8s0.4,0.5,0.5,0.8
							c0.2,0.2,0.2,0.5,0.1,0.7s-0.3,0.3-0.6,0.5c-0.1,0,0,0,0-0.1c-0.1,0.1-0.1,0.1-0.2,0.2l0,0c-0.4,0.3-1.4,0.7-1.7,1.1
							c-0.5,0.2-0.8,0.5-1.3,0.8c-0.2,0.1,0.2-0.1,0,0.1L25.6-10l0,0c-0.3,0.1-0.6,0.3-0.9,0.5c-0.2,0.1-0.3,0.2-0.5,0.3L24-9.4
							h-0.1c0,0,0-0.1-0.1-0.1l0,0c0,0.1-0.1-0.1-0.2-0.2c0,0,0,0,0.1,0.1c-0.3-0.5-0.4-0.6-0.6-1.1c0.1,0.2-0.1-0.2-0.2-0.2
							c0-0.1,0.1,0.1,0-0.2c-0.2-0.4-0.3-0.7-0.4-1c0-0.2-0.1-0.3,0-0.3c-0.1-0.4-0.2-0.7-0.3-1.2l0,0c0-0.2-0.2-0.5-0.2-0.6v0.1
							l0-0.3c0,0.1,0,0.2-0.1,0c0-0.2,0.1,0.1,0.1-0.1l0,0c0-0.2,0-0.2,0.1,0c-0.2-0.5-0.3-1.1-0.4-1.6v0.1
							c-0.1-0.3-0.2-0.7-0.2-0.8c0,0,0-0.1,0,0c0-0.3-0.1,0-0.1-0.4c0,0.1,0,0.2,0,0.2l-0.1-0.7c0,0-0.2-0.4-0.2-0.7
							c0,0,0,0.1,0.1,0.1v-0.2L21-18.6v-0.3h-0.1c0-0.2,0-0.3,0-0.5c-0.2-0.6-0.2-0.5-0.3-0.9c0.1-0.1-0.2-0.7-0.1-0.8
							c-0.1-0.2-0.1-0.3-0.2-0.5c0-0.1-0.1-0.2-0.1-0.3c0-0.1-0.1-0.2-0.2-0.3c-0.1,0-0.3,0-0.4,0h-0.3c-0.2,0-0.3,0-0.5,0h0.1
							c-0.3,0-0.4-0.1-0.7-0.1h0.1c-0.5,0-1.2-0.2-1.6-0.3c0.1,0.1,0,0.1-0.1,0s0.2,0-0.1-0.1c0,0,0,0.1-0.1,0l-0.2-0.1
							c-0.6-0.2-1.2-0.5-1.7-0.8c-0.1-0.1,0,0,0,0c-0.4-0.3-0.8-0.6-1.1-0.9h-0.1c-0.2-0.2,0-0.2-0.3-0.3l0.2,0.2
							c-0.3-0.3-0.1-0.2-0.4-0.5v0.1c-0.3-0.2-0.2-0.3-0.3-0.4c-0.2-0.4-0.3-0.2-0.6-0.7c0-0.1,0.1,0,0-0.1
							c-0.3-0.4-0.2-0.4-0.5-0.8c-0.2-0.2,0.1,0.2-0.1,0c0,0,0,0.1,0.1,0.2c0,0.1,0.1,0.1,0.1,0.1c-0.2-0.2,0.1,0.2,0.1,0.2
							c-0.1-0.2-0.2-0.5-0.4-0.7c-0.1,0,0.2,0.3,0,0.2l-0.1-0.1v0.1c-0.1,0-0.1-0.2-0.2-0.3c0,0,0,0,0.1,0l0,0
							c-0.1-0.3-0.3-0.7-0.4-0.9l0,0c-0.1-0.2-0.1-0.3-0.2-0.5c-0.1-0.1-0.1,0.1-0.2-0.2c0-0.1,0.1,0,0-0.2
							C10.5-29.1,10.6-28.9,10.5-29z M14.4-23.5l0.1,0.1l0,0C14.5-23.5,14.4-23.5,14.4-23.5z M14.9-23.2
							C14.8-23.2,14.8-23.2,14.9-23.2c0,0,0.1,0,0.2,0.1C15-23.1,14.8-23.2,14.9-23.2z M13.8-23.6L13.8-23.6c0,0.1,0.1,0.1,0.1,0.1
							C13.9-23.4,13.8-23.5,13.8-23.6L13.8-23.6z"/>
						<path fill="#202020" d="M13.7-23.7L13.7-23.7L13.7-23.7L13.7-23.7L13.7-23.7z"/>
						<path fill="#202020" d="M17.1-36.2C17.1-36.3,17.1-36.2,17.1-36.2L17.1-36.2C17.1-36.3,17.1-36.3,17.1-36.2z"/>
						<polygon fill="#202020" points="20.9,-18.9 20.9,-18.9 21,-18.9 						"/>
						<path fill="#202020" d="M15.4-38.6C15.4-38.7,15.4-38.7,15.4-38.6L15.4-38.6z"/>
						<path fill="#202020" d="M14.1-37.9l0.2-0.1C14.1-38,14.1-37.9,14.1-37.9z"/>
						<path fill="#202020" d="M13.3-37.4L13.3-37.4C13.2-37.4,13.3-37.4,13.3-37.4L13.3-37.4z"/>
						<path fill="#202020" d="M22.4-26.3L22.4-26.3C22.5-26.3,22.5-26.3,22.4-26.3z"/>
						<path fill="#202020" d="M18.8-29.8c0-0.1-0.1-0.1-0.1-0.2C18.7-30,18.7-29.9,18.8-29.8z"/>
						<path fill="#202020" d="M25.8-21.9L25.8-21.9L25.8-21.9z"/>
						<path fill="#202020" d="M18.7-29.8c0,0.1,0.1,0.1,0.1,0.2C18.8-29.7,18.8-29.7,18.7-29.8z"/>
						<path fill="#202020" d="M8.8-35.7L8.8-35.7L8.8-35.7L8.8-35.7z"/>
						<path fill="#202020" d="M8.7-35.6L8.7-35.6C8.8-35.7,8.7-35.6,8.7-35.6z"/>
						<path fill="#202020" d="M8.7-35.6l-0.1,0.1C8.6-35.6,8.7-35.6,8.7-35.6z"/>
						<path fill="#202020" d="M10.2-36.2L10.2-36.2L10.2-36.2z"/>
						<path fill="#202020" d="M10.2-36.2L10.2-36.2c0.2,0,0.3-0.1,0.4-0.1C10.5-36.3,10.2-36.2,10.2-36.2z"/>
						<path fill="#202020" d="M11.9-36.9C12.1-37,12-36.9,11.9-36.9c0,0,0.1,0,0.2-0.1c0.1,0,0.2-0.1,0.2-0.1
							C11.8-36.8,12.3-37.1,11.9-36.9z"/>
						<path fill="#202020" d="M13.2-37.7C13.2-37.7,13.1-37.5,13.2-37.7C13.4-37.7,13.3-37.7,13.2-37.7z"/>
						<path fill="#202020" d="M17.9-33.8L17.9-33.8C17.9-33.8,18-33.6,17.9-33.8z"/>
						<polygon fill="#202020" points="18,-32.4 18,-32.3 18,-32.2 						"/>
						<polygon fill="#202020" points="18.6,-31.1 18.6,-31.4 18.6,-31.3 						"/>
						<path fill="#202020" d="M26.7-20.6L26.7-20.6C26.7-20.7,26.6-20.7,26.7-20.6z"/>
						<path fill="#202020" d="M29.3-14.8c-0.1-0.1-0.2-0.2-0.2-0.3C29.1-15,29.2-14.9,29.3-14.8z"/>
						<polygon fill="#202020" points="20.9,-17.3 20.9,-17.1 20.9,-17.2 						"/>
					</g>
					<g>
						<path fill="#202020" d="M24.3-12.2L24.3-12.2C24.3-12.1,24.3-12.1,24.3-12.2L24.3-12.2z"/>
						<path fill="#202020" d="M24.1-12.3c0,0.1,0,0.1,0.1,0.2C24.2-12.2,24.2-12.2,24.1-12.3C24.2-12.2,24.1-12.2,24.1-12.3
							S24.1-12.4,24.1-12.3C24.1-12.4,24.1-12.3,24.1-12.3L24.1-12.3z"/>
						<path fill="#202020" d="M22.8-15.9L22.8-15.9L22.8-15.9z"/>
						<path fill="#202020" d="M22.1-18.2L22.1-18.2L22.1-18.2z"/>
						<path fill="#202020" d="M22-18.6L22-18.6L22-18.6z"/>
						<path fill="#202020" d="M22.7-15.9L22.7-15.9C22.8-15.9,22.8-15.9,22.7-15.9z"/>
						<path fill="#202020" d="M24-12.8L24-12.8L24-12.8L24-12.8z"/>
						<path fill="#202020" d="M23-14.8L23-14.8L23-14.8L23-14.8z"/>
						<path fill="#202020" d="M23.2-14.1L23.2-14.1L23.2-14.1L23.2-14.1z"/>
						<path fill="#202020" d="M23.7-12.9L23.7-12.9L23.7-12.9z"/>
						<path fill="#202020" d="M22.8-15.4L22.8-15.4L22.8-15.4z"/>
						<path fill="#202020" d="M11.7-33.6L11.7-33.6L11.7-33.6z"/>
						<path fill="#202020" d="M11.3-34.5L11.3-34.5L11.3-34.5L11.3-34.5z"/>
						<path fill="#202020" d="M21.7-19.3C21.7-19.2,21.7-19.2,21.7-19.3C21.7-19.2,21.7-19.2,21.7-19.3z"/>
						<path fill="#202020" d="M18.1-24.4C17.9-24.4,18.1-24.3,18.1-24.4C18.1-24.2,18-24.4,18.1-24.4z"/>
						<path fill="#202020" d="M24-12.8L24-12.8L24-12.8z"/>
						<path fill="#202020" d="M18.1-24.4L18.1-24.4L18.1-24.4L18.1-24.4z"/>
						<path fill="#202020" d="M21.3-20.9L21.3-20.9L21.3-20.9z"/>
						<path fill="#202020" d="M21.7-19.7L21.7-19.7L21.7-19.7z"/>
						<path fill="#202020" d="M21.2-21.6L21.2-21.6L21.2-21.6L21.2-21.6z"/>
						<path fill="#202020" d="M21-22.2L21-22.2L21-22.2L21-22.2z"/>
						<path fill="#202020" d="M12.1-31.6C12.2-31.6,12.2-31.6,12.1-31.6C12.1-31.7,12.2-31.6,12.1-31.6z"/>
						<path fill="#202020" d="M24-12.8L24-12.8L24-12.8L24-12.8z"/>
						<path fill="#202020" d="M21.5-21.8L21.5-21.8C21.6-21.7,21.5-21.8,21.5-21.8z"/>
						<path fill="#202020" d="M14.8-27.7L14.8-27.7L14.8-27.7z"/>
						<path fill="#202020" d="M21.4-22.2L21.4-22.2C21.4-22.2,21.4-22.1,21.4-22.2L21.4-22.2z"/>
						<path fill="#202020" d="M12.1-31.6L12.1-31.6L12.1-31.6z"/>
						<path fill="#202020" d="M12-32.2c0-0.1,0,0-0.1-0.1c0-0.1-0.1-0.1,0-0.1c-0.1,0,0,0-0.1-0.1c0,0,0-0.2,0.1-0.2
							c-0.1,0,0,0.1-0.1,0.1c0-0.1,0-0.2,0.1-0.2c0,0,0-0.1-0.1-0.1l0,0c0-0.2-0.1-0.3,0-0.4c-0.1,0-0.1-0.3-0.1-0.2
							c0,0,0-0.1,0-0.2c-0.1,0,0-0.1-0.1-0.2c0.1,0,0-0.1,0-0.2l0,0c0-0.1,0,0-0.1-0.1c0-0.1,0.1,0,0.1-0.1s-0.1,0-0.1,0l0.1-0.1
							c0,0,0,0-0.1,0c0,0,0.1-0.1,0-0.1v0.1l0,0l-0.2-0.3c-0.1-0.2-0.2-0.1-0.2-0.1v0.1c0,0-0.1,0-0.1-0.1c0,0-0.1,0.1-0.1,0.2
							c0.1,0.2,0.1,0,0.2,0.2v0.2l0,0v0.1c0,0,0,0.2,0.1,0.2l0,0c0,0.2,0.2,0.3,0.2,0.5v0.1h0.1c0,0.1,0,0.1,0,0.2
							c0.2,0.3,0.2,0.8,0.3,1.1l0,0c0.2,0.3,0,0.5,0.2,0.8l0,0c0,0.2,0,0,0.1,0.1c-0.1,0,0,0.2,0,0.3c0,0,0,0,0-0.1
							c0,0,0.1,0,0.1,0.1c-0.1,0.1,0,0.3,0.1,0.5c0,0,0.1,0.1,0.2,0.2v0.1v0.1c0-0.1-0.1-0.1-0.1-0.1l0,0l0,0l0,0c-0.1,0,0,0-0.1,0
							c0,0.1,0.1,0.2,0.1,0.2s0,0,0.1,0.1c0,0,0,0,0,0.1l0,0l0,0c0.1,0.1,0.1,0.2,0.1,0.3c0-0.1,0.1,0,0.1,0s-0.1-0.1-0.1-0.2l0,0
							c0.1,0.1,0,0.2,0.2,0.3l0,0c0.1,0,0.1,0.1,0,0.1c0.1,0,0.1,0.1,0.2,0.1c0,0.1,0,0.1,0,0.2v-0.1c0.1,0.1,0,0.1,0.1,0.2
							c-0.1,0,0-0.1,0,0s0,0.1,0,0.2l0,0c0,0.1,0.1,0.3,0.2,0.2c-0.1,0.1,0.1,0.2,0.2,0.3v-0.1c0.1,0.2,0.3,0.3,0.4,0.4H14
							c0.1,0.1,0,0.2,0.1,0.3v-0.1c0.2,0.1,0.2,0.2,0.3,0.2l0,0c0,0.1,0.1,0.1,0.1,0.2c0.2,0,0.3,0.3,0.6,0.4l-0.3-0.5
							c0.1,0,0.2,0.1,0.2,0.1l0,0c0.1-0.1,0.1,0,0.1,0.1v0.1c0.2,0.1,0.4,0.4,0.5,0.4c0.1,0.2,0.2,0.4,0.3,0.6l0,0
							c0.1,0.1,0.2,0.2,0.2,0.1c0.1,0.2,0.1,0.3,0.3,0.4v-0.1l0.1,0.1l0,0c0.1,0,0.1,0.1,0.1,0.1l0,0c0.2,0.1,0.3,0.3,0.5,0.4l0,0
							c0,0.1,0.2,0.2,0.3,0.3v-0.1c0.1,0.2,0.2,0,0.3,0.2h-0.1c0.1,0,0.1,0.1,0.1,0.1c0.1,0,0-0.1,0.2,0c0,0-0.1-0.1,0-0.1h0.2
							c0,0,0,0,0.1,0c-0.1,0.1,0.1,0.1,0,0.1c0.2,0.1,0.4,0.2,0.6,0.3c0.1,0,0.3,0.2,0.4,0.1c0.1,0.1,0.2,0.1,0.2,0.2
							c0,0,0,0-0.1-0.1c0,0,0.1,0.1,0.2,0.2c0-0.1-0.1-0.2-0.2-0.2c0.1,0.1,0.2,0.2,0.2,0.2h0.1c0,0.1,0.1,0,0.1,0.1l0,0
							c0.2,0.1,0.1,0.2,0.2,0.2l0,0c0,0,0.1,0.1,0.2,0.1L20-23.4c0-0.1,0.1,0,0.2,0c0.1,0.1,0,0.1,0,0.1s0,0,0-0.1
							c0.1,0.1,0.2,0.2,0.3,0.3l0,0c0.1,0.1,0.2,0.2,0.2,0.2l0,0c0.1,0,0.2,0.2,0.2,0.1c0,0-0.1-0.1,0-0.1c0.1,0.1,0,0.1,0.1,0.2
							l0,0c0,0.1,0.1,0.2,0.1,0.3c0.1,0.1,0.1,0.4,0.2,0.5c-0.1,0,0,0.1-0.1,0.1l0,0c0,0.1,0,0.1,0,0.1v0.2v0.1c0-0.1,0,0,0.1-0.1
							c0.1,0.2-0.1,0.2,0,0.3l0.1,0.1c-0.1,0,0,0.2,0,0.2h0.1c0,0.1,0.1,0.2,0,0.2v-0.1c0.1,0.2,0,0.3,0.1,0.4h0.1
							c0.1,0.1,0,0.2,0.1,0.2c-0.1,0,0,0-0.1,0c0,0,0-0.1,0-0.2v0.1v-0.2c0,0.1,0,0.1-0.1,0.1c0,0.1,0.1,0.1,0.1,0.2h0.1
							c0,0.1,0.1,0.2,0.1,0.2l0,0c0,0.1,0,0.1,0,0.1V-20c0,0.1,0,0.1,0,0.2c0,0,0,0.1-0.1,0c0,0,0,0.1,0.1,0c0,0.1-0.1,0.1,0,0.2
							l0,0v0.1c0-0.1,0.1,0,0-0.1c0.1,0,0,0.1,0.1,0.2c0,0.1-0.1,0-0.1,0.1c0,0,0,0,0,0.1h-0.1v0.1v-0.1c0,0.1,0.1,0.1,0.1,0.2
							c0,0,0-0.1,0.1,0c0,0.1,0,0,0.1,0.1c0,0.1-0.1,0,0,0.2l0,0c0,0.1,0,0.2,0.1,0.3c0,0-0.1-0.1-0.1,0l0.1,0.1l0,0l0,0l0,0
							c0-0.1,0.1-0.1,0.1,0s0,0.1-0.1,0.1c0.1,0.1-0.1,0.2,0,0.3c0,0,0.1,0.1,0.2,0.2c0,0.1-0.1-0.1-0.1,0c0.2,0.1,0,0.3,0.1,0.5
							h0.1c0,0.1,0,0.1,0,0.2l-0.3-0.2c0,0.1,0,0.2,0.1,0.1c0,0.1,0,0.1,0.1,0.2c0-0.1,0,0,0-0.1c0.1,0.1,0.1,0.1,0.1,0.2h0.1
							c0,0.1,0,0.2,0,0.3l0,0c0,0.2,0.2,0.3,0.2,0.5l0,0l0,0l0,0l0,0c-0.1-0.1,0,0.1,0,0.2h0.1c-0.1,0,0,0.1,0,0.1s0.1,0,0.1,0.1
							s0,0.1,0,0.1l0.1,0.1v-0.1c0,0,0,0,0.1,0c0,0.1,0,0,0,0.1v-0.1v0.1c0,0,0,0,0.1,0c0,0.1-0.1,0-0.2,0.1c0.1,0.1,0,0.2,0.1,0.3
							l0,0v0.1v0.1c0-0.1,0-0.1,0.1-0.1c0,0.1,0.1,0.2,0,0.2l0,0c0.1,0.1,0.1,0.3,0.2,0.3c0,0.1,0.1,0.2,0,0.3
							c0,0.1,0.1,0.2,0.1,0.2c0.1,0.1,0,0,0.1,0c0.1,0.1,0,0.2,0.1,0.2c0,0.1,0,0-0.1,0c0.1,0,0.1,0.2,0.2,0.2c0,0.1,0,0,0,0.1l0,0
							l0,0h0.2c0,0.2-0.1,0-0.1,0.2l0,0c0.1,0,0,0.2,0.1,0.2l0,0v0.1l0,0c0.1,0.1,0,0.1,0.1,0.1c0,0,0,0,0.1,0v0.1l0.1-0.1
							c0.1,0.1,0,0.3,0.1,0.3v-0.1c0,0,0.1,0,0.1,0.1c0,0,0,0.1,0,0l0,0c0-0.1,0-0.2,0-0.2v0.1c0-0.1,0-0.2,0-0.2v0.1
							c0-0.1,0-0.1,0-0.1h-0.1c0-0.1,0-0.1-0.1-0.2v0.1c0-0.1,0-0.2,0-0.3c0-0.2-0.2-0.3-0.2-0.4c0,0,0.1,0.1,0.1,0c0,0,0,0-0.1,0
							c0-0.1-0.1-0.1,0-0.2c0,0,0,0-0.1-0.1C24-13.9,24-14,24-13.8c0-0.2-0.1-0.2,0-0.3l0,0l-0.1-0.1l0,0c0-0.1,0-0.1-0.1-0.1v0.1
							c-0.1,0,0-0.2,0-0.2v0.1c0-0.1,0-0.1,0-0.2l0,0c-0.1-0.1,0.1-0.1,0-0.2l0,0c0,0-0.1-0.1-0.1,0v-0.1c0,0,0,0.1,0.1,0.1v-0.2
							c0,0,0,0,0,0.1c-0.2-0.2,0-0.5-0.2-0.7c0,0,0,0,0-0.1s-0.1-0.2-0.1-0.3l0,0c0-0.2,0-0.3-0.1-0.5l0,0c0-0.1-0.2-0.2-0.1-0.2
							l0,0c-0.1-0.2-0.1-0.4-0.1-0.6c-0.1,0,0,0.1-0.1,0.1c-0.1-0.1,0-0.3-0.1-0.4l0,0c-0.1-0.2,0.1,0,0-0.1c0,0,0,0-0.1,0v-0.1
							h-0.1c0-0.1,0-0.2,0-0.3h-0.1c0-0.1,0-0.1,0-0.2l0,0c0,0-0.1-0.2-0.1-0.1c-0.1-0.1,0,0,0-0.1v0.1v-0.2v0.1c0-0.1,0-0.2,0-0.2
							h-0.1v-0.1c-0.1,0,0-0.1-0.1-0.1c-0.1-0.2,0-0.3-0.1-0.5l0,0c0-0.1,0-0.2,0-0.2v0.1c0-0.1,0-0.1,0-0.2c0,0,0,0-0.1,0
							c0,0,0,0,0-0.1c-0.1,0.2-0.1-0.1-0.2,0c0,0,0-0.2,0.1-0.2l0,0V-20l0,0c0-0.2-0.1-0.4-0.1-0.6v0.1c-0.1-0.2,0-0.3-0.1-0.5
							c-0.1,0,0,0.2,0,0.2c0-0.2-0.1-0.4-0.1-0.7c-0.2-0.1,0-0.2-0.2-0.4c0.1,0,0.1-0.1,0-0.2c0,0,0-0.1-0.1,0c0-0.1,0-0.3-0.1-0.2
							c0.1,0,0-0.2,0-0.2c-0.1-0.1,0-0.2-0.1-0.3c0.1,0,0-0.1-0.1-0.2l0,0c-0.1,0-0.1-0.2-0.2-0.2c0,0,0,0-0.1,0
							c0,0-0.1-0.2-0.2-0.2c0,0,0,0,0,0.1c-0.2-0.2-0.5-0.3-0.8-0.5v0.1c-0.2,0-0.1-0.2-0.2-0.2c-0.4-0.2-0.8-0.4-1.1-0.6l0,0h-0.1
							l0,0c-0.2,0-0.4-0.3-0.6-0.3c-0.1-0.1-0.3-0.1-0.4-0.3c-0.1,0,0.1,0.1,0,0l-0.2-0.2l0,0c-0.1-0.2-0.5-0.2-0.6-0.4l0,0h-0.1
							c0,0,0,0,0.1,0c-0.1-0.2-0.2-0.2-0.3-0.3c0,0.1-0.1,0-0.1,0s0.1,0,0-0.1s-0.2-0.2-0.3-0.2c0-0.1,0-0.1,0-0.1
							c-0.1-0.1-0.1-0.2-0.2-0.4l0,0c0-0.1-0.1-0.1-0.1-0.2v0.1V-27c0,0.1,0,0.1-0.1,0.1c0-0.1,0,0,0-0.1h-0.1c0-0.1,0-0.1,0.1-0.1
							c-0.1-0.2-0.2-0.3-0.4-0.5l0,0c-0.1-0.1-0.2-0.2-0.2-0.2l0,0c-0.1-0.1-0.1,0-0.1-0.1v0.1l0.1,0.1c0,0-0.2,0-0.2-0.1
							c0,0,0,0,0.1,0v-0.1h-0.1V-28l0,0c0-0.1,0-0.1-0.1-0.2c-0.2-0.1-0.2-0.1-0.3-0.1c0.1-0.1-0.2-0.2-0.2-0.2
							c-0.1,0-0.2-0.1-0.3-0.2s-0.2-0.2-0.3-0.3l0,0c-0.1,0,0-0.1-0.1-0.2l0,0c-0.1-0.1-0.1-0.1-0.2-0.2c0-0.1-0.1-0.2-0.1-0.2
							s0,0-0.1,0c0,0,0.1,0,0-0.1l0,0v-0.1c-0.2-0.2-0.3-0.3-0.4-0.5c-0.1,0-0.1,0-0.1,0c-0.1-0.2-0.1-0.3-0.2-0.5h-0.1
							c0-0.1,0.1-0.1,0-0.2v0.1c-0.1-0.1,0-0.1,0-0.2L12.2-31c-0.1-0.1,0-0.1,0-0.2c0-0.2-0.2-0.1-0.2-0.3c0-0.1,0,0,0.1-0.1
							c-0.1-0.2,0-0.2-0.1-0.3c-0.1,0,0,0.1-0.1,0l0.1,0.1c-0.1-0.1,0,0.1,0,0.1c0-0.1,0-0.2,0-0.3v0.1V-32c0,0,0,0,0,0.1V-32h0.1
							l0,0c0-0.1-0.1-0.2,0-0.3l0,0C12-32,12-32.1,12-32.2C12-32.2,12-32.1,12-32.2S12.1-32.2,12-32.2C12-32.3,12-32.2,12-32.2z
							 M12.7-30.1L12.7-30.1L12.7-30.1L12.7-30.1z M12.8-29.9L12.8-29.9L12.8-29.9L12.8-29.9z M12.3-30.1L12.3-30.1L12.3-30.1
							L12.3-30.1L12.3-30.1z"/>
						<path fill="#202020" d="M12.3-30.2L12.3-30.2C12.4-30.2,12.3-30.2,12.3-30.2L12.3-30.2L12.3-30.2z"/>
						<path fill="#202020" d="M22.8-15.9L22.8-15.9L22.8-15.9L22.8-15.9z"/>
						<polygon fill="#202020" points="14.7,-27.9 14.7,-27.8 14.7,-27.8 						"/>
						<path fill="#202020" d="M23.2-14.8L23.2-14.8L23.2-14.8z"/>
						<path fill="#202020" d="M23.4-14.3L23.4-14.3C23.4-14.4,23.4-14.3,23.4-14.3z"/>
						<path fill="#202020" d="M23.5-14L23.5-14L23.5-14L23.5-14z"/>
						<path fill="#202020" d="M22-19.8L22-19.8L22-19.8z"/>
						<path fill="#202020" d="M22.4-18.1C22.4-18,22.4-18,22.4-18.1C22.4-18,22.4-18,22.4-18.1z"/>
						<path fill="#202020" d="M21.6-21.7L21.6-21.7L21.6-21.7z"/>
						<path fill="#202020" d="M22.4-18.1L22.4-18.1C22.3-18.1,22.4-18.1,22.4-18.1z"/>
						<path fill="#202020" d="M24.1-12.5L24.1-12.5L24.1-12.5L24.1-12.5z"/>
						<path fill="#202020" d="M24.1-12.5L24.1-12.5L24.1-12.5z"/>
						<path fill="#202020" d="M24.1-12.5L24.1-12.5L24.1-12.5z"/>
						<path fill="#202020" d="M23.9-13L23.9-13L23.9-13z"/>
						<path fill="#202020" d="M23.9-13L23.9-13c0-0.1-0.1-0.1-0.1-0.1C23.8-13.1,23.9-13,23.9-13z"/>
						<path fill="#202020" d="M23.5-13.4C23.4-13.5,23.5-13.5,23.5-13.4v-0.2C23.5-13.4,23.3-13.6,23.5-13.4z"/>
						<path fill="#202020" d="M23.2-14C23.2-14,23.3-13.9,23.2-14L23.2-14z"/>
						<path fill="#202020" d="M22.5-16.7L22.5-16.7C22.5-16.7,22.5-16.8,22.5-16.7z"/>
						<polygon fill="#202020" points="22.6,-17.2 22.6,-17.2 22.6,-17.3 						"/>
						<polygon fill="#202020" points="22.2,-17.6 22.2,-17.5 22.2,-17.5 						"/>
						<path fill="#202020" d="M21.1-22.1L21.1-22.1C21-22.1,21.1-22.1,21.1-22.1z"/>
						<path fill="#202020" d="M19.5-23.4c0,0.1,0.1,0.1,0.1,0.1C19.6-23.4,19.6-23.4,19.5-23.4z"/>
						<path fill="#202020" d="M14.8-27.2l0.1,0.1L14.8-27.2z"/>
					</g>
					<g>
						<path fill="#202020" d="M25.5-13.4L25.5-13.4C25.5-13.3,25.5-13.3,25.5-13.4L25.5-13.4z"/>
						<path fill="#202020" d="M25.3-13.5c0,0.1,0,0.1,0.1,0.2C25.4-13.4,25.4-13.4,25.3-13.5C25.4-13.4,25.3-13.4,25.3-13.5
							S25.3-13.6,25.3-13.5C25.3-13.6,25.3-13.5,25.3-13.5L25.3-13.5z"/>
						<path fill="#202020" d="M24-17.1L24-17.1L24-17.1z"/>
						<path fill="#202020" d="M23.3-19.4L23.3-19.4L23.3-19.4z"/>
						<path fill="#202020" d="M23.2-19.8L23.2-19.8L23.2-19.8z"/>
						<path fill="#202020" d="M23.9-17.1L23.9-17.1C24-17.1,24-17.1,23.9-17.1z"/>
						<path fill="#202020" d="M25.2-14L25.2-14L25.2-14L25.2-14z"/>
						<path fill="#202020" d="M24.2-16L24.2-16L24.2-16L24.2-16z"/>
						<path fill="#202020" d="M24.4-15.3L24.4-15.3L24.4-15.3L24.4-15.3z"/>
						<path fill="#202020" d="M24.9-14.1L24.9-14.1L24.9-14.1z"/>
						<path fill="#202020" d="M24-16.6L24-16.6L24-16.6z"/>
						<path fill="#202020" d="M12.9-34.8L12.9-34.8L12.9-34.8z"/>
						<path fill="#202020" d="M12.5-35.7L12.5-35.7L12.5-35.7L12.5-35.7z"/>
						<path fill="#202020" d="M22.9-20.5C22.9-20.4,22.9-20.4,22.9-20.5C22.9-20.4,22.9-20.4,22.9-20.5z"/>
						<path fill="#202020" d="M19.3-25.6C19.1-25.6,19.3-25.5,19.3-25.6C19.3-25.4,19.2-25.6,19.3-25.6z"/>
						<path fill="#202020" d="M25.2-14L25.2-14L25.2-14z"/>
						<path fill="#202020" d="M19.3-25.6L19.3-25.6L19.3-25.6L19.3-25.6z"/>
						<path fill="#202020" d="M22.5-22.1L22.5-22.1L22.5-22.1z"/>
						<path fill="#202020" d="M22.9-20.9L22.9-20.9L22.9-20.9z"/>
						<path fill="#202020" d="M22.4-22.8L22.4-22.8L22.4-22.8L22.4-22.8z"/>
						<path fill="#202020" d="M22.2-23.4L22.2-23.4L22.2-23.4L22.2-23.4z"/>
						<path fill="#202020" d="M13.3-32.8C13.4-32.8,13.4-32.8,13.3-32.8C13.3-32.9,13.4-32.8,13.3-32.8z"/>
						<path fill="#202020" d="M25.2-14L25.2-14L25.2-14L25.2-14z"/>
						<path fill="#202020" d="M22.7-23L22.7-23C22.8-22.9,22.7-23,22.7-23z"/>
						<path fill="#202020" d="M16-28.9L16-28.9L16-28.9z"/>
						<path fill="#202020" d="M22.6-23.4L22.6-23.4C22.6-23.4,22.6-23.3,22.6-23.4L22.6-23.4z"/>
						<path fill="#202020" d="M13.3-32.8L13.3-32.8L13.3-32.8z"/>
						<path fill="#202020" d="M13-33.6c0-0.1,0,0-0.1-0.1c0-0.1-0.1-0.1,0-0.1c-0.1,0,0,0-0.1-0.1c0,0,0-0.2,0.1-0.2
							c-0.1,0,0,0.1-0.1,0.1c0-0.1,0-0.2,0.1-0.2c0,0,0-0.1-0.1-0.1l0,0c0-0.2-0.1-0.3,0-0.4c-0.1,0-0.1-0.3-0.1-0.2
							c0,0,0-0.1,0-0.2c-0.1,0,0-0.1-0.1-0.2c0.1,0,0-0.1,0-0.2l0,0c0-0.1,0,0-0.1-0.1c0-0.1,0.1,0,0.1-0.1c0-0.1-0.1,0-0.1,0
							l0.1-0.1c0,0,0,0-0.1,0c0,0,0.1-0.1,0-0.1v0.1l0,0v-0.1c-0.1-0.2-0.2-0.1-0.2-0.1v0.1c0,0-0.1,0-0.1-0.1c0,0-0.1,0.1-0.1,0.2
							c0.1,0.2,0.1,0,0.2,0.2v0.2l0,0v0.1c0,0,0,0.2,0.1,0.2l0,0c0,0.2,0.2,0.3,0.2,0.5v0.1h0.1c0,0.1,0,0.1,0,0.2
							c0.2,0.3,0.2,0.8,0.3,1.1l0,0c0.2,0.3,0,0.5,0.2,0.8l0,0c0,0.2,0,0,0.1,0.1c-0.1,0,0,0.2,0,0.3c0,0,0,0,0-0.1
							c0,0,0.1,0,0.1,0.1c-0.1,0.1,0,0.3,0.1,0.5c0,0,0.1,0.1,0.2,0.2v0.1v0.1c0-0.1-0.1-0.1-0.1-0.1l0,0l0,0l0,0c-0.1,0,0,0-0.1,0
							c0,0.1,0.1,0.2,0.1,0.2s0,0,0.1,0.1c0,0,0,0,0,0.1l0,0l0,0c0.1,0.1,0.1,0.2,0.1,0.3c0-0.1,0.1,0,0.1,0s-0.1-0.1-0.1-0.2l0,0
							c0.1,0.1,0,0.2,0.2,0.3l0,0c0.1,0,0.1,0.1,0,0.1c0.1,0,0.1,0.1,0.2,0.1c0,0.1,0,0.1,0,0.2v-0.1c0.1,0.1,0,0.1,0.1,0.2
							c-0.1,0,0-0.1,0,0s0,0.1,0,0.2l0,0c0,0.1,0.1,0.3,0.2,0.2c-0.1,0.1,0.1,0.2,0.2,0.3v-0.1c0.1,0.2,0.3,0.3,0.4,0.4h0.1
							c0.1,0.1,0,0.2,0.1,0.3v-0.1c0.2,0.1,0.2,0.2,0.3,0.2l0,0c0,0.1,0.1,0.1,0.1,0.2c0.2,0,0.3,0.3,0.6,0.4L16-28.4
							c0.1,0,0.2,0.1,0.2,0.1l0,0c0.1-0.1,0.1,0,0.1,0.1v0.1c0.2,0.1,0.4,0.4,0.5,0.4c0.1,0.2,0.2,0.4,0.3,0.6l0,0
							c0.1,0.1,0.2,0.2,0.2,0.1c0.1,0.2,0.1,0.3,0.3,0.4v-0.1l0.1,0.1l0,0c0.1,0,0.1,0.1,0.1,0.1l0,0c0.2,0.1,0.3,0.3,0.5,0.4l0,0
							c0,0.1,0.2,0.2,0.3,0.3v-0.1c0.1,0.2,0.2,0,0.3,0.2h-0.1c0.1,0,0.1,0.1,0.1,0.1c0.1,0,0-0.1,0.2,0c0,0-0.1-0.1,0-0.1h0.2
							c0,0,0,0,0.1,0c-0.1,0.1,0.1,0.1,0,0.1c0.2,0.1,0.4,0.2,0.6,0.3c0.1,0,0.3,0.2,0.4,0.1c0.1,0.1,0.2,0.1,0.2,0.2
							c0,0,0,0-0.1-0.1c0,0,0.1,0.1,0.2,0.2c0-0.1-0.1-0.2-0.2-0.2c0.1,0.1,0.2,0.2,0.2,0.2h0.1c0,0.1,0.1,0,0.1,0.1l0,0
							c0.2,0.1,0.1,0.2,0.2,0.2l0,0c0,0,0.1,0.1,0.2,0.1l-0.1-0.1c0-0.1,0.1,0,0.2,0c0.1,0.1,0,0.1,0,0.1s0,0,0-0.1
							c0.1,0.1,0.2,0.2,0.3,0.3l0,0c0.1,0.1,0.2,0.2,0.2,0.2l0,0c0.1,0,0.2,0.2,0.2,0.1c0,0-0.1-0.1,0-0.1c0.1,0.1,0,0.1,0.1,0.2
							l0,0c0,0.1,0.1,0.2,0.1,0.3c0.1,0.1,0.1,0.4,0.2,0.5c-0.1,0,0,0.1-0.1,0.1l0,0c0,0.1,0,0.1,0,0.1v0.2v0.1c0-0.1,0,0,0.1-0.1
							c0.1,0.2-0.1,0.2,0,0.3l0.1,0.1c-0.1,0,0,0.2,0,0.2h0.1c0,0.1,0.1,0.2,0,0.2V-22c0.1,0.2,0,0.3,0.1,0.4h0.1
							c0.1,0.1,0,0.2,0.1,0.2c-0.1,0,0,0-0.1,0c0,0,0-0.1,0-0.2v0.1v-0.2c0,0.1,0,0.1-0.1,0.1c0,0.1,0.1,0.1,0.1,0.2H23
							c0,0.1,0.1,0.2,0.1,0.2l0,0c0,0.1,0,0.1,0,0.1v-0.1c0,0.1,0,0.1,0,0.2c0,0,0,0.1-0.1,0c0,0,0,0.1,0.1,0c0,0.1-0.1,0.1,0,0.2
							l0,0v0.1c0-0.1,0.1,0,0-0.1c0.1,0,0,0.1,0.1,0.2c0,0.1-0.1,0-0.1,0.1c0,0,0,0,0,0.1H23v0.1v-0.1c0,0.1,0.1,0.1,0.1,0.2
							c0,0,0-0.1,0.1,0c0,0.1,0,0,0.1,0.1c0,0.1-0.1,0,0,0.2l0,0c0,0.1,0,0.2,0.1,0.3c0,0-0.1-0.1-0.1,0l0.1,0.1l0,0l0,0l0,0
							c0-0.1,0.1-0.1,0.1,0s0,0.1-0.1,0.1c0.1,0.1-0.1,0.2,0,0.3c0,0,0.1,0.1,0.2,0.2c0,0.1-0.1-0.1-0.1,0c0.2,0.1,0,0.3,0.1,0.5
							h0.1c0,0.1,0,0.1,0,0.2l-0.1-0.1c0,0.1,0,0.2,0.1,0.1c0,0.1,0,0.1,0.1,0.2c0-0.1,0,0,0-0.1c0.1,0.1,0.1,0.1,0.1,0.2H24
							c0,0.1,0,0.2,0,0.3l0,0c0,0.2,0.2,0.3,0.2,0.5l0,0l0,0l0,0l0,0c-0.1-0.1,0,0.1,0,0.2h0.1c-0.1,0,0,0.1,0,0.1s0.1,0,0.1,0.1
							s0,0.1,0,0.1l0.1,0.1v-0.1c0,0,0,0,0.1,0c0,0.1,0,0,0,0.1v-0.1v0.1c0,0,0,0,0.1,0c0,0.1-0.1,0-0.2,0.1c0.1,0.1,0,0.2,0.1,0.3
							l0,0v0.1v0.1c0-0.1,0-0.1,0.1-0.1c0,0.1,0.1,0.2,0,0.2l0,0c0.1,0.1,0.1,0.3,0.2,0.3c0,0.1,0.1,0.2,0,0.3
							c0,0.1,0.1,0.2,0.1,0.2c0.1,0.1,0,0,0.1,0c0.1,0.1,0,0.2,0.1,0.2c0,0.1,0,0-0.1,0c0.1,0,0.1,0.2,0.2,0.2c0,0.1,0,0,0,0.1l0,0
							l0,0h0.2c0,0.2-0.1,0-0.1,0.2l0,0c0.1,0,0,0.2,0.1,0.2l0,0v-0.1l0,0c0.1,0.1,0,0.1,0.1,0.1c0,0,0,0,0.1,0v0.1l0.1-0.1
							c0.1,0.1,0,0.3,0.1,0.3v-0.1c0,0,0.1,0,0.1,0.1c0,0,0,0.1,0,0l0,0c0-0.1,0-0.2,0-0.2v0.1c0-0.1,0-0.2,0-0.2v0.1
							c0-0.1,0-0.1,0-0.1h-0.1c0-0.1,0-0.1-0.1-0.2v0.1c0-0.1,0-0.2,0-0.3c0-0.2-0.2-0.3-0.2-0.4c0,0,0.1,0.1,0.1,0c0,0,0,0-0.1,0
							c0-0.1-0.1-0.1,0-0.2c0,0,0,0-0.1-0.1c-0.1,0-0.1-0.1-0.1,0.1c0-0.2-0.1-0.2,0-0.3l0,0l-0.1-0.1l0,0c0-0.1,0-0.1-0.1-0.1v0.1
							c-0.1,0,0-0.2,0-0.2v0.1c0-0.1,0-0.1,0-0.2l0,0c-0.1-0.1,0.1-0.1,0-0.2l0,0c0,0-0.1-0.1-0.1,0v-0.1c0,0,0,0.1,0.1,0.1v-0.2
							c0,0,0,0,0,0.1c-0.2-0.2,0-0.5-0.2-0.7c0,0,0,0,0-0.1s-0.1-0.2-0.1-0.3l0,0c0-0.2,0-0.3-0.1-0.5l0,0c0-0.1-0.2-0.2-0.1-0.2
							l0,0c-0.1-0.2-0.1-0.4-0.1-0.6c-0.1,0,0,0.1-0.1,0.1c-0.1-0.1,0-0.3-0.1-0.4l0,0c-0.1-0.2,0.1,0,0-0.1c0,0,0,0-0.1,0V-19h-0.1
							c0-0.1,0-0.2,0-0.3h-0.1c0-0.1,0-0.1,0-0.2l0,0c0,0-0.1-0.2-0.1-0.1c-0.1-0.1,0,0,0-0.1v0.1v-0.2v0.1c0-0.1,0-0.2,0-0.2h-0.1
							V-20c-0.1,0,0-0.1-0.1-0.1c-0.1-0.2,0-0.3-0.1-0.5l0,0c0-0.1,0-0.2,0-0.2v0.1c0-0.1,0-0.1,0-0.2c0,0,0,0-0.1,0c0,0,0,0,0-0.1
							c-0.1,0.2-0.1-0.1-0.2,0c0,0,0-0.2,0.1-0.2l0,0v-0.1l0,0c0-0.2-0.1-0.4-0.1-0.6v0.1c-0.1-0.2,0-0.3-0.1-0.5
							c-0.1,0,0,0.2,0,0.2c0-0.2-0.1-0.4-0.1-0.7c-0.2-0.1,0-0.2-0.2-0.4c0.1,0,0.1-0.1,0-0.2c0,0,0-0.1-0.1,0c0-0.1,0-0.3-0.1-0.2
							c0.1,0,0-0.2,0-0.2c-0.1-0.1,0-0.2-0.1-0.3c0.1,0,0-0.1-0.1-0.2l0,0c-0.1,0-0.1-0.2-0.2-0.2c0,0,0,0-0.1,0
							c0,0-0.1-0.2-0.2-0.2c0,0,0,0,0,0.1c-0.2-0.2-0.5-0.3-0.8-0.5v0.1c-0.2,0-0.1-0.2-0.2-0.2c-0.4-0.2-0.8-0.4-1.1-0.6l0,0h-0.1
							l0,0c-0.2,0-0.4-0.3-0.6-0.3c-0.1-0.1-0.3-0.1-0.4-0.3c-0.1,0,0.1,0.1,0,0l-0.2-0.2l0,0c-0.1-0.2-0.5-0.2-0.6-0.4l0,0H18
							c0,0,0,0,0.1,0c-0.1-0.2-0.2-0.2-0.3-0.3c0,0.1-0.1,0-0.1,0s0.1,0,0-0.1s-0.2-0.2-0.3-0.2c0-0.1,0-0.1,0-0.1
							c-0.1-0.1-0.1-0.2-0.2-0.4l0,0c0-0.1-0.1-0.1-0.1-0.2v0.1v-0.1c0,0.1,0,0.1-0.1,0.1c0-0.1,0,0,0-0.1h-0.1c0-0.1,0-0.1,0.1-0.1
							c-0.1-0.2-0.2-0.3-0.4-0.5l0,0c-0.1-0.1-0.2-0.2-0.2-0.2l0,0c-0.1-0.1-0.1,0-0.1-0.1v0.1l-0.2-0.2c0,0-0.2,0-0.2-0.1
							c0,0,0,0,0.1,0v-0.1h-0.1v-0.1l0,0c0-0.1,0-0.1-0.1-0.2c-0.2-0.1-0.2-0.1-0.3-0.1c0.1-0.1-0.2-0.2-0.2-0.2
							c-0.1,0-0.2-0.1-0.3-0.2s-0.2-0.2-0.3-0.3l0,0c-0.1,0,0-0.1-0.1-0.2l0,0c-0.1-0.1-0.1-0.1-0.2-0.2c0-0.1-0.1-0.2-0.1-0.2
							s0,0-0.1,0c0,0,0.1,0,0-0.1l0,0v-0.1c-0.2-0.2-0.3-0.3-0.4-0.5c-0.1,0-0.1,0-0.1,0c-0.1-0.2-0.1-0.3-0.2-0.5h-0.1
							c0-0.1,0.1-0.1,0-0.2v0.1c-0.1-0.1,0-0.1,0-0.2l-0.1,0.1c-0.1-0.1,0-0.1,0-0.2c0-0.2-0.2-0.1-0.2-0.3c0-0.1,0,0,0.1-0.1
							C13.1-33.4,13.2-33.4,13-33.6C13-33.5,13.1-33.4,13-33.6l0.1,0.2c-0.1-0.1,0,0.1,0,0.1C13.1-33.4,13.1-33.5,13-33.6L13-33.6
							L13-33.6C13.1-33.6,13.1-33.6,13-33.6L13-33.6l0.2,0l0,0c0-0.1-0.1-0.2,0-0.3l0,0c0-0.1,0-0.1,0-0.2c0,0-0.1,0.1-0.1-0.1
							c0,0,0.1,0,0.1-0.1C13.2-33.5,13.2-33.4,13-33.6z M13.9-31.3L13.9-31.3L13.9-31.3L13.9-31.3z M14-31.1L14-31.1L14-31.1
							L14-31.1z M13.5-31.3L13.5-31.3L13.5-31.3L13.5-31.3L13.5-31.3z"/>
						<path fill="#202020" d="M13.5-31.4L13.5-31.4C13.6-31.4,13.5-31.4,13.5-31.4L13.5-31.4L13.5-31.4z"/>
						<path fill="#202020" d="M24-17.1L24-17.1L24-17.1L24-17.1z"/>
						<polygon fill="#202020" points="15.9,-29.1 15.9,-29 15.9,-29 						"/>
						<path fill="#202020" d="M24.4-16L24.4-16L24.4-16z"/>
						<path fill="#202020" d="M24.6-15.5L24.6-15.5C24.6-15.6,24.6-15.5,24.6-15.5z"/>
						<path fill="#202020" d="M24.7-15.2L24.7-15.2L24.7-15.2L24.7-15.2z"/>
						<path fill="#202020" d="M23.2-21L23.2-21L23.2-21z"/>
						<path fill="#202020" d="M23.6-19.3C23.6-19.2,23.6-19.2,23.6-19.3C23.6-19.2,23.6-19.2,23.6-19.3z"/>
						<path fill="#202020" d="M22.8-22.9L22.8-22.9L22.8-22.9z"/>
						<path fill="#202020" d="M23.6-19.3L23.6-19.3C23.5-19.3,23.6-19.3,23.6-19.3z"/>
						<path fill="#202020" d="M25.3-13.7L25.3-13.7L25.3-13.7L25.3-13.7z"/>
						<path fill="#202020" d="M25.3-13.7L25.3-13.7L25.3-13.7z"/>
						<path fill="#202020" d="M25.3-13.7L25.3-13.7L25.3-13.7z"/>
						<path fill="#202020" d="M25.1-14.2L25.1-14.2L25.1-14.2z"/>
						<path fill="#202020" d="M25.1-14.2L25.1-14.2c0-0.1-0.1-0.1-0.1-0.1L25.1-14.2z"/>
						<path fill="#202020" d="M24.7-14.7C24.6-14.7,24.7-14.7,24.7-14.7v-0.2C24.7-14.7,24.5-14.8,24.7-14.7z"/>
						<path fill="#202020" d="M24.4-15.2C24.4-15.2,24.5-15.1,24.4-15.2L24.4-15.2z"/>
						<path fill="#202020" d="M23.7-17.9L23.7-17.9C23.7-17.9,23.7-18,23.7-17.9z"/>
						<polygon fill="#202020" points="23.8,-18.4 23.8,-18.4 23.8,-18.5 						"/>
						<polygon fill="#202020" points="23.4,-18.8 23.4,-18.7 23.4,-18.7 						"/>
						<path fill="#202020" d="M22.3-23.3L22.3-23.3C22.2-23.3,22.3-23.3,22.3-23.3z"/>
						<path fill="#202020" d="M20.7-24.6c0,0.1,0.1,0.1,0.1,0.1C20.8-24.6,20.8-24.6,20.7-24.6z"/>
						<path fill="#202020" d="M16-28.4l0.1,0.1L16-28.4z"/>
					</g>
				</g>
				<g>
					<g>
						<path fill="#202020" d="M18-40c0-0.1-0.1-0.1-0.1-0.1L18-40c0,0.1,0,0.2,0,0.2l0,0C18-39.8,18-39.9,18-40z"/>
						<path fill="#202020" d="M17.6-40.3c-0.1,0.1-0.3,0.2-0.1,0.2c0.1,0,0.2,0,0.2,0L17.6-40.3L17.6-40.3
							C17.6-40.2,17.4-40.1,17.6-40.3C17.6-40.3,17.7-40.3,17.6-40.3c0.1,0,0.2-0.1,0.2-0.1C17.8-40.4,17.7-40.4,17.6-40.3
							C17.6-40.3,17.7-40.3,17.6-40.3z"/>
						<path fill="#202020" d="M26.3-41.7L26.3-41.7C26.4-41.7,26.4-41.7,26.3-41.7z"/>
						<path fill="#202020" d="M28.9-35.3C28.9-35.3,28.9-35.2,28.9-35.3C28.9-35.2,28.9-35.2,28.9-35.3z"/>
						<path fill="#202020" d="M29.6-34.4C29.7-34.4,29.7-34.4,29.6-34.4C29.7-34.4,29.7-34.4,29.6-34.4z"/>
						<path fill="#202020" d="M26.5-41.5l-0.1-0.2C26.4-41.6,26.5-41.5,26.5-41.5z"/>
						<path fill="#202020" d="M18.9-41L18.9-41C18.9-40.9,18.9-41,18.9-41L18.9-41z"/>
						<path fill="#202020" d="M24.6-44.4C24.6-44.3,24.6-44.3,24.6-44.4h0.1C24.7-44.3,24.6-44.3,24.6-44.4z"/>
						<path fill="#202020" d="M22.6-43c0.1,0,0.1-0.1,0.1-0.1S22.7-43.1,22.6-43C22.6-43.1,22.6-43,22.6-43z"/>
						<path fill="#202020" d="M19.3-41.3L19.3-41.3C19.4-41.3,19.3-41.3,19.3-41.3z"/>
						<path fill="#202020" d="M25.9-43L25.9-43L25.9-43z"/>
						<path fill="#202020" d="M18.8-37.7L18.8-37.7L18.8-37.7z"/>
						<path fill="#202020" d="M17.8-40.2L17.8-40.2L17.8-40.2L17.8-40.2z"/>
						<path fill="#202020" d="M31.5-33.2L31.5-33.2C31.5-33.3,31.5-33.3,31.5-33.2z"/>
						<path fill="#202020" d="M38.6-17.5C38.4-17.3,38.9-17.6,38.6-17.5C38.9-17.6,38.6-17.5,38.6-17.5z"/>
						<path fill="#202020" d="M19.1-41L19.1-41C19-41,19.1-41,19.1-41z"/>
						<path fill="#202020" d="M38.6-17.5L38.6-17.5L38.6-17.5L38.6-17.5z"/>
						<path fill="#202020" d="M35.5-30.2C35.6-30.2,35.6-30.2,35.5-30.2C35.6-30.2,35.5-30.2,35.5-30.2z"/>
						<path fill="#202020" d="M32.7-32.5L32.7-32.5C32.6-32.5,32.7-32.5,32.7-32.5z"/>
						<path fill="#202020" d="M36.5-28.3L36.5-28.3C36.5-28.3,36.5-28.4,36.5-28.3L36.5-28.3z"/>
						<path fill="#202020" d="M37.2-26.6C37.2-26.6,37.3-26.6,37.2-26.6L37.2-26.6L37.2-26.6z"/>
						<path fill="#202020" d="M21.3-32.2L21.3-32.2C21.2-32.5,21.3-32.2,21.3-32.2z"/>
						<path fill="#202020" d="M18.9-41C19-41,19-41,18.9-41C19-41,19-41,18.9-41L18.9-41z"/>
						<path fill="#202020" d="M36.3-27.9l-0.1-0.3C36.2-28.1,36.3-28,36.3-27.9z"/>
						<path fill="#202020" d="M31.7-24.2L31.7-24.2C31.7-24.1,31.7-24.2,31.7-24.2z"/>
						<path fill="#202020" d="M36.8-26.8L36.8-26.8c0-0.1-0.1-0.1-0.1-0.2L36.8-26.8z"/>
						<path fill="#202020" d="M21.3-32.2L21.3-32.2L21.3-32.2z"/>
						<path fill="#202020" d="M20.4-33.9c-0.1-0.3-0.1-0.1-0.2-0.3c0-0.2-0.2-0.3-0.1-0.3c-0.1-0.1-0.1-0.1-0.2-0.2
							c0.1,0.1-0.1-0.4-0.1-0.4c-0.1-0.1,0.1,0.3-0.1,0.1c0-0.2-0.2-0.5-0.1-0.5c-0.1-0.1-0.1-0.2-0.2-0.3v0.1
							c-0.1-0.4-0.3-0.8-0.3-1.1c-0.1,0.1-0.3-0.7-0.3-0.4c-0.1-0.1-0.1-0.4-0.1-0.4c-0.1,0.1-0.1-0.3-0.2-0.5
							c0-0.1-0.1-0.4-0.1-0.5c0,0.1,0,0.1,0,0.1c0-0.2,0-0.1-0.1-0.3c-0.1-0.2,0.1,0,0.1-0.1c-0.1-0.2-0.1,0-0.1-0.1v-0.3
							c0-0.1,0-0.1-0.1-0.1c0-0.1,0-0.2-0.1-0.4l0.1,0.3l-0.1-0.1v-0.3c-0.1-0.5-0.1-0.3-0.2-0.3v0.2c0,0-0.1-0.1-0.1-0.2
							s0,0.3,0,0.5c0.2,0.5,0.1,0.1,0.2,0.5l0.1,0.5l0,0c0.1,0.1,0,0.1,0,0.2c0-0.1,0.1,0.4,0.2,0.6L18.2-38
							c0.1,0.6,0.3,0.8,0.5,1.3l0.1,0.3h0.1c0.1,0.2,0,0.2,0.2,0.5c0.5,1,0.8,2,1.4,2.9c0,0-0.1,0-0.1-0.1c0.6,0.8,0.7,1.4,1.3,2
							v-0.1c0.3,0.4,0-0.1,0.2,0.2c0,0.1,0.3,0.5,0.5,0.7c0,0-0.1-0.1-0.1-0.2c0,0,0.1,0,0.2,0.1c0.1,0.3,0.5,0.7,0.9,1
							c0.1,0,0.4,0.2,0.6,0.3c0,0,0.1,0.1,0.1,0.2c0.2,0.1,0.2,0.2,0.3,0.2c-0.1-0.1-0.2-0.2-0.3-0.2l0,0c0,0,0,0-0.1,0
							C23.9-29,23.9-29,23.9-29c-0.2-0.1,0,0-0.1,0.1c0.1,0.1,0.4,0.3,0.4,0.2c0.1,0.1,0.1,0.1,0.2,0.1c0,0,0.1,0.1,0.2,0.1l0,0l0,0
							c0.3,0.1,0.6,0.4,0.8,0.5c-0.2-0.2,0.1-0.1,0.1-0.1s-0.2-0.1-0.6-0.2H25c0.3,0.1,0.5,0.3,0.9,0.4L25.8-28
							c0.2,0,0.3,0.1,0.3,0.2c0,0,0.4,0,0.5,0.1s0.1,0.1,0.4,0.2v-0.2c0.3,0.1,0.2,0.1,0.5,0.1c-0.1,0-0.1,0,0,0
							c0.3,0.1,0.3,0.1,0.6,0.2v-0.1c0.3,0.1,0.8,0.1,0.8,0.1c-0.1,0.1,0.6,0,0.9,0c-0.1,0-0.1,0-0.1,0c0.2,0,0.6-0.1,0.6,0
							c0,0,0.1,0.1,0.1,0.2c0.1,0.1,0.1,0.3,0.2,0.4l-0.1,0.1c0.1,0.3,0,0.4,0.1,0.7v-0.1c0.2,0.5,0.2,0.7,0.4,1.1l0,0
							c0,0.2,0.1,0.3,0.1,0.5c0.2,0.3,0.4,1.3,0.7,1.9l-0.1,0.1c0.1,0.2,0.2,0.5,0.2,0.6V-22c0.1-0.1,0.1,0.2,0.2,0.4
							c0,0.1,0,0.2,0,0.2c0.2,0.6,0.5,1.5,0.7,1.9c0.2,0.6,0.3,1.1,0.6,1.8l0,0c0.1,0.2,0.3,0.6,0.4,0.6c0.2,0.5,0.2,0.8,0.6,1.3
							v-0.1c0.1,0.2,0.2,0.4,0.2,0.4c0,0.1,0,0,0,0c0.1,0.1,0.1,0.2,0.2,0.3v-0.1c0,0.1,0.1,0.1,0.1,0.2c0.1,0.1,0.1,0.2,0.2,0.2
							c0,0.1,0.1,0.1,0.1,0.2c0,0,0,0.1,0.1,0.1l0.1-0.1c0.1-0.1,0.2-0.2,0.3-0.2c0.3-0.2,0.6-0.4,0.8-0.5c-0.1,0.1-0.1,0,0,0
							c0.2-0.1,0.8-0.5,1-0.6l-0.2,0.1c0.5-0.2,0.3-0.3,0.8-0.6l-0.2,0.2c0.2-0.1,0.3-0.2,0.3-0.2c0.2-0.2,0-0.1,0.3-0.3
							c0,0-0.2,0.1-0.2,0l0.4-0.3c0,0,0-0.1,0.2-0.2c0,0.1,0.3-0.2,0.2,0c0.6-0.4,1-0.8,1.5-1.1c0.1-0.1,0.4-0.3,0.5-0.6
							c0.2-0.3,0.1-0.6,0-0.5c-0.1-0.4-0.2-0.6-0.3-0.8c0.1,0.1,0.1,0.2,0.1,0.2c0-0.1-0.2-0.5-0.4-0.6c0.1,0.2,0.3,0.5,0.4,0.7
							c-0.2-0.3-0.4-0.6-0.5-0.8L40-21.2c-0.1-0.2-0.2-0.2-0.3-0.4h0.1c-0.3-0.4-0.2-0.4-0.5-0.8l0,0c-0.1-0.1-0.2-0.3-0.3-0.4
							l0.2,0.2c-0.1,0-0.2-0.2-0.3-0.2c-0.2-0.3,0-0.2-0.1-0.3c-0.1,0,0,0,0,0.1c-0.2-0.3-0.4-0.7-0.5-0.9l0,0
							c-0.2-0.3-0.3-0.6-0.4-0.8v0.1c-0.2-0.2-0.3-0.7-0.4-0.7c-0.1-0.1,0.2,0.3,0,0.1c-0.2-0.4,0-0.3-0.2-0.6c0,0.1,0,0,0,0.1
							c-0.1-0.3-0.2-0.6-0.3-0.9c-0.2-0.3-0.4-1.1-0.7-1.4c0.1,0.1,0-0.1,0-0.1l0,0c-0.1-0.2-0.1-0.2-0.1-0.2
							c-0.1-0.1-0.2-0.4-0.2-0.5c0,0,0-0.1-0.1-0.2c0.1,0.3,0,0.1,0,0.2c-0.2-0.4-0.1-0.5-0.4-0.8l-0.2-0.2c0-0.1-0.2-0.4-0.2-0.4
							c-0.1,0-0.1-0.1-0.2-0.1c-0.1-0.2-0.3-0.3-0.3-0.4l0.1,0.1c-0.4-0.4-0.5-0.7-0.9-0.9l-0.1,0.1c-0.2-0.2-0.4-0.4-0.6-0.5
							c0.1,0,0.1,0,0-0.1c0.1,0,0.2,0.2,0.4,0.3L33.2-32c0,0,0.1,0.1,0.2,0.2c0.1,0.1,0.2,0.2,0.2,0.2c-0.2-0.2-0.2-0.2-0.1-0.2
							c-0.3-0.2-0.3-0.2-0.6-0.4c-0.1,0,0,0.1-0.2,0c-0.2-0.2-0.5-0.2-0.7-0.4c-0.1,0,0.1,0.1,0.1,0.1c-0.2-0.1-0.3-0.2-0.3-0.2
							l0.2,0.1c-0.2-0.1-0.2-0.1-0.4-0.2c-0.1-0.1-0.2-0.2,0-0.1c-0.1,0-0.2-0.1-0.2,0c-0.4-0.2-0.1-0.2-0.5-0.3c0,0,0.1,0,0,0
							s-0.2-0.1-0.2-0.1c0.3,0.2-0.2,0,0.2,0.2c-0.1,0-0.3-0.1-0.4-0.2c-0.2-0.1,0-0.1-0.1-0.2c0,0-0.1,0-0.2-0.1h0.1
							c-0.1-0.1-0.2-0.1-0.2-0.2l0.2,0.1c-0.2-0.1-0.5-0.2-0.7-0.4c0.1,0.1,0.2,0.2,0,0.1c-0.3-0.2-0.1,0-0.3-0.1
							c-0.3-0.2,0-0.1-0.4-0.4c0-0.1,0,0,0.1,0c-0.2-0.1-0.2-0.2-0.3-0.3c-0.1-0.1-0.2-0.2-0.3-0.3c0.1,0.1,0.2,0.2,0.1,0
							c0,0.1-0.2-0.2-0.3-0.3l0,0c-0.1-0.1,0,0,0,0.1c0,0,0,0,0.1,0.1s0,0.1-0.2-0.1c-0.2-0.3-0.1-0.2,0-0.2
							c-0.2-0.3-0.1-0.3-0.3-0.7c0-0.1-0.2-0.3-0.3-0.6c0-0.2,0.1,0.3,0.1,0.2c-0.3-0.4-0.2-0.9-0.5-1.4v0.1c0-0.2-0.1-0.3-0.1-0.4
							l0.1,0.2c0-0.2-0.2-0.5-0.2-0.3c-0.1-0.3-0.1-0.4-0.2-0.6c0.1,0.3,0,0,0.1,0.2c-0.1-0.3-0.1-0.3-0.2-0.5c0,0-0.1-0.1-0.1-0.2
							c0-0.2-0.2-0.5-0.2-0.8l0,0c-0.2-0.5-0.4-0.9-0.6-1.4l0,0l0,0l0,0l0,0c0.1,0.2-0.1-0.4-0.2-0.5c0,0-0.1,0-0.1-0.1
							c0.1,0-0.1-0.2-0.1-0.3c-0.1-0.2-0.1,0.1-0.2-0.2c0-0.1,0-0.1,0-0.1s-0.2-0.2-0.2-0.3c0,0.1,0.1,0.1,0.1,0.2l-0.1-0.1
							c-0.1-0.1,0-0.1-0.1-0.2v0.2c0-0.1-0.1-0.2-0.1-0.2c0,0.1,0,0.1,0,0.1c-0.2-0.4,0.1-0.1,0.1-0.2c-0.1-0.2-0.2-0.3-0.3-0.5
							c0.5-0.2,0.4-0.3,0.2-0.4l0.1,0.1c-0.2-0.1-0.2-0.1-0.3-0.1l-0.2,0.1c0.2,0,0.2,0,0.2,0c-0.2,0-0.5,0.2-0.6,0.2l0,0
							c-0.3,0.2-0.8,0.6-0.8,0.6c-0.3,0.2-0.6,0.5-0.6,0.4c-0.2,0.1-0.4,0.4-0.5,0.4c-0.2,0.2,0,0,0.1,0c-0.2,0.2-0.4,0.2-0.4,0.3
							c-0.2,0.1,0-0.1-0.1,0c0,0.1-0.4,0.3-0.6,0.4c-0.1,0,0.1-0.1-0.1,0l-0.1,0.1h-0.1c0,0,0,0.1-0.1,0.1c0,0.1-0.1,0.1-0.1,0.1
							c-0.4,0.1,0-0.1-0.5,0l0,0c-0.1,0.1-0.4,0.1-0.7,0.2c0.1-0.1,0.1,0,0.1,0h-0.2l0,0c-0.2,0.1-0.2,0-0.4,0.1
							c0.2,0,0.1,0,0.1,0.1l-0.3,0.1h0.2c-0.3,0.1-0.7,0.2-0.8,0.4c0,0,0,0,0.1,0h0.1c0,0-0.1,0.1-0.2,0.2c0,0-0.1,0,0,0l-0.1,0.1
							c0.1,0,0.4-0.2,0.6-0.3c-0.1,0-0.2,0.1-0.2,0c0.2-0.1,0.4-0.1,0.6-0.2c-0.1,0-0.2,0-0.2,0c0.2-0.1,0.2,0,0.3-0.1
							c0.1,0,0.1-0.1,0.1-0.1c0.2,0,0.4-0.1,0.6-0.2c0,0-0.2,0-0.1,0c0.4-0.1,0.5-0.1,0.9-0.2c0.5-0.1,0.9-0.4,1.3-0.6
							c0,0-0.2,0.2,0,0.1l0.1-0.1c0.2-0.1,0.3-0.2,0.5-0.3c0,0,0.1-0.1,0.2-0.2c-0.1,0,0.2-0.2-0.1,0c0.4-0.2,0.5-0.4,0.8-0.5
							L23.2-43l0.3-0.2l0,0c0.1-0.1,0.2-0.1,0.3-0.3c-0.1,0.1-0.2,0.1-0.3,0.2c0.1-0.2,0.4-0.2,0.5-0.3c0,0-0.2,0.1-0.2,0
							c0.1-0.1,0.3-0.2,0.4-0.2l0,0c0.3-0.2,0.2,0,0.4-0.2l0,0c-0.2-0.1,0.1-0.2-0.2-0.2c0.1,0,0.3,0,0.3,0c-0.1,0-0.2,0-0.2,0
							s0.1,0,0.2,0.1c0.2,0.1,0.3,0.2,0.3,0.2s0-0.1-0.1-0.1c0.3,0.2,0.4,0.5,0.5,0.8c0.2,0.3,0.3,0.6,0.5,0.9c-0.1-0.1,0,0.1,0,0.1
							c0.1,0.2,0.2,0.6,0.3,0.8v-0.1c0.2,0.5,0.3,0.9,0.5,1.3c0,0,0,0,0-0.1c0.1,0.3,0.3,0.5,0.2,0.6v-0.1c0.2,0.5,0.3,1.1,0.5,1.7
							c0.1,0.1-0.1-0.3,0-0.2c0.2,0.4,0.2,0.8,0.4,1.2c0-0.1,0-0.1,0-0.1c0.2,0.4-0.1,0,0.1,0.3c0,0,0,0,0.1,0.1v0.1c0,0,0,0,0-0.1
							c0,0.2,0.2,0.6,0.2,0.8c0,0,0.1-0.1,0.1,0c0.1,0.2,0.2,0.3,0.2,0.4l0,0c0.1,0.1,0.3,0.4,0.2,0.3c0.2,0.3,0,0.1,0.1,0.3
							l-0.1-0.1c-0.1-0.1-0.1-0.1-0.1-0.1s0.1,0.1,0.1,0.2c0.1,0.1,0.2,0.2,0.2,0.2L28.8-35c0.2,0.2,0.3,0.4,0.5,0.6v-0.1l0.2,0.2
							c0.1,0,0.3,0.2,0.2,0.1c0.4,0.3,0.7,0.6,1.1,0.9c-0.1-0.1-0.1,0-0.1-0.1c0.3,0.2,0.4,0.2,0.5,0.4l-0.1-0.1
							c0.3,0.2,0.2,0.2,0.5,0.3c-0.1-0.1,0-0.1,0.1,0c0,0,0,0.1,0.1,0.1c-0.2-0.2,0.4,0.2,0.3,0c0,0,0.5,0.4,0.3,0.3l-0.1-0.1
							c0,0,0.1,0.1,0.2,0.1c-0.1,0-0.1-0.1-0.1-0.1c0.5,0.3,1,0.5,1.4,0.9c0,0-0.2-0.2-0.1-0.1c0.5,0.3,0.7,0.6,1.1,1.1
							c0,0-0.1-0.2-0.2-0.3c-0.1-0.1-0.2-0.2-0.2-0.3c0.5,0.5,0.8,1,1.1,1.6c0.2,0.2,0.3,0.6,0.6,1c-0.1,0,0,0.2,0.1,0.4
							c0-0.1,0.1,0.1,0.1,0.1c0.1,0.2,0.3,0.8,0.3,0.7c-0.1,0.1,0.2,0.4,0.2,0.6c0.2,0.2,0.2,0.5,0.4,0.8c-0.1-0.1,0.1,0.3,0.2,0.4
							v-0.1c0.1,0.1,0.1,0.4,0.2,0.5c0.1,0.1,0,0,0.1,0.1c0,0,0.2,0.5,0.3,0.6c0-0.1,0-0.1,0-0.2c0.3,0.8,0.9,1.6,1.3,2.4v-0.2
							c0.4,0.4,0.1,0.4,0.4,0.7c0.2,0.2,0.4,0.5,0.6,0.7c0.2,0.2,0.4,0.5,0.5,0.7s0.2,0.5,0.1,0.7c-0.1,0.2-0.3,0.4-0.6,0.5
							c-0.1,0.1,0,0,0-0.1c-0.1,0.1-0.1,0.1-0.2,0.2l0,0c-0.4,0.4-1.3,0.9-1.6,1.2c-0.5,0.3-0.7,0.5-1.3,0.8c-0.2,0.1,0.2-0.1,0,0.1
							l-0.5,0.3l0,0c-0.2,0.1-0.5,0.4-0.8,0.6c-0.2,0.1-0.3,0.2-0.5,0.4l-0.1,0.1h-0.1c0,0,0-0.1-0.1-0.1l0,0c0,0-0.1-0.1-0.2-0.2
							c0,0,0,0,0.1,0.1c-0.4-0.5-0.4-0.6-0.7-1.1c0.1,0.2-0.1-0.2-0.2-0.2c0-0.1,0.1,0.1,0-0.2c-0.2-0.4-0.4-0.7-0.5-1
							c0-0.2-0.1-0.3-0.1-0.3c-0.2-0.4-0.2-0.7-0.5-1.2l0,0c0-0.2-0.2-0.5-0.2-0.6v0.1l0.2-0.1c0,0.1,0,0.2-0.1,0s0,0.1,0-0.1h-0.1
							c0-0.2,0-0.2,0.1,0c-0.2-0.5-0.3-1.1-0.5-1.6v0.1c-0.1-0.3-0.2-0.6-0.3-0.8c0,0,0-0.1,0,0c-0.1-0.3-0.1,0-0.1-0.4
							c0,0.1,0.1,0.2,0,0.2l-0.2-0.7c0,0-0.2-0.4-0.3-0.7l0.1,0.1v-0.2l-0.1-0.1v-0.3h-0.1c-0.1-0.2,0-0.3-0.1-0.5
							c-0.2-0.6-0.2-0.5-0.4-0.8c0.1-0.1-0.2-0.7-0.2-0.8c-0.1-0.2-0.2-0.3-0.2-0.5c0-0.1-0.1-0.2-0.1-0.3c0-0.1-0.1-0.2-0.2-0.3
							c-0.1-0.1-0.3-0.1-0.4-0.1h-0.3c-0.2,0-0.3,0-0.5,0.1h0.1c-0.3,0.1-0.4-0.1-0.7,0h0.1c-0.5,0.1-1.2-0.1-1.6-0.2
							c0.1,0,0,0.1-0.1,0s0.1-0.1-0.1-0.1c0,0,0,0-0.1,0v0.2c-0.6-0.1-1.2-0.3-1.8-0.7c-0.1,0-0.1,0,0,0.1c-0.4-0.2-0.8-0.6-1.1-0.8
							h-0.1c-0.2-0.2-0.1-0.2-0.3-0.3c-0.1-0.1,0.2,0.1,0.2,0.2c-0.4-0.2-0.2-0.2-0.5-0.5v0.1c-0.3-0.2-0.2-0.3-0.3-0.4
							c-0.2-0.4-0.3-0.2-0.7-0.7c0-0.1,0.1,0,0-0.1c-0.3-0.3-0.3-0.4-0.5-0.8c-0.2-0.1,0.1,0.2-0.1,0c0,0,0,0.1,0.1,0.1
							c0.1,0.1,0.1,0.1,0.1,0.1c-0.2-0.2,0.1,0.2,0.1,0.2c-0.1-0.2-0.3-0.5-0.4-0.7c0,0,0.2,0.3,0.1,0.2l-0.1-0.1c0,0,0,0.1,0.1,0.1
							c-0.1,0-0.1-0.1-0.2-0.2c0,0,0,0,0.1,0l0,0c-0.1-0.3-0.4-0.6-0.5-0.9l0,0c-0.1-0.2-0.1-0.3-0.2-0.5
							C20.5-33.7,20.5-33.5,20.4-33.9c-0.1-0.1,0.1,0.1-0.1-0.2C20.3-34.1,20.4-33.8,20.4-33.9z M24.7-28.8c0,0,0.1,0,0.1,0.1l0,0
							C24.7-28.8,24.7-28.8,24.7-28.8z M25.1-28.6C25.1-28.6,25-28.6,25.1-28.6s0.2,0,0.2,0.1C25.3-28.5,25.1-28.6,25.1-28.6z
							 M24-28.9L24-28.9c0.1,0,0.1,0.1,0.2,0.1C24.2-28.8,24.1-28.8,24-28.9L24-28.9z"/>
						<path fill="#202020" d="M24-28.9C24-28.9,24-29,24-28.9C23.9-29,23.9-29,24-28.9C23.9-29,23.9-29,24-28.9
							C24-29,24-28.9,24-28.9z"/>
						<path fill="#202020" d="M26.3-41.8L26.3-41.8L26.3-41.8L26.3-41.8z"/>
						<path fill="#202020" d="M31.6-24.8L31.6-24.8L31.6-24.8z"/>
						<path fill="#202020" d="M24.4-44L24.4-44L24.4-44z"/>
						<path fill="#202020" d="M23.1-43.1l0.2-0.2C23.2-43.2,23.2-43.2,23.1-43.1z"/>
						<path fill="#202020" d="M22.4-42.5L22.4-42.5L22.4-42.5L22.4-42.5z"/>
						<path fill="#202020" d="M32.4-32.3L32.4-32.3C32.5-32.3,32.5-32.2,32.4-32.3z"/>
						<path fill="#202020" d="M28.5-35.5c0,0,0-0.1-0.1-0.2C28.4-35.6,28.4-35.6,28.5-35.5z"/>
						<path fill="#202020" d="M36.2-28.2L36.2-28.2L36.2-28.2z"/>
						<path fill="#202020" d="M28.5-35.5c0,0.1,0.1,0.1,0.1,0.2C28.6-35.3,28.5-35.4,28.5-35.5z"/>
						<path fill="#202020" d="M18.1-40.5L18.1-40.5L18.1-40.5L18.1-40.5z"/>
						<path fill="#202020" d="M18-40.5L18-40.5L18-40.5z"/>
						<path fill="#202020" d="M18-40.5L18-40.5C17.9-40.4,18-40.4,18-40.5z"/>
						<path fill="#202020" d="M19.4-41.1L19.4-41.1L19.4-41.1z"/>
						<path fill="#202020" d="M19.4-41.1L19.4-41.1c0.2,0,0.3-0.1,0.4-0.2C19.7-41.3,19.5-41.1,19.4-41.1z"/>
						<path fill="#202020" d="M21.1-42C21.3-42.1,21.2-42,21.1-42c0,0,0.1,0,0.2-0.1c0.1,0,0.2-0.1,0.2-0.1
							C21-41.9,21.5-42.3,21.1-42z"/>
						<path fill="#202020" d="M22.4-42.8C22.3-42.8,22.2-42.7,22.4-42.8C22.5-42.9,22.5-42.9,22.4-42.8z"/>
						<path fill="#202020" d="M27.4-39.4L27.4-39.4C27.3-39.4,27.4-39.2,27.4-39.4z"/>
						<polygon fill="#202020" points="27.5,-38 27.5,-37.9 27.6,-37.7 						"/>
						<polygon fill="#202020" points="28.2,-36.8 28.2,-37 28.2,-37 						"/>
						<path fill="#202020" d="M37.1-26.9L37.1-26.9C37.1-27.1,37.1-27,37.1-26.9z"/>
						<path fill="#202020" d="M40.2-21.3c0-0.1-0.2-0.2-0.2-0.3C40-21.5,40.2-21.4,40.2-21.3z"/>
						<polygon fill="#202020" points="31.6,-23.2 31.7,-23 31.6,-23.1 						"/>
					</g>
					<g>
						<path fill="#202020" d="M35.4-18.3L35.4-18.3C35.4-18.2,35.4-18.2,35.4-18.3L35.4-18.3z"/>
						<path fill="#202020" d="M35.2-18.4c0,0.1,0.1,0.1,0.1,0.2C35.3-18.3,35.3-18.3,35.2-18.4C35.3-18.3,35.3-18.4,35.2-18.4
							C35.3-18.5,35.2-18.5,35.2-18.4C35.2-18.6,35.2-18.5,35.2-18.4C35.2-18.4,35.2-18.5,35.2-18.4z"/>
						<path fill="#202020" d="M33.6-21.9L33.6-21.9L33.6-21.9z"/>
						<path fill="#202020" d="M32.8-24.1L32.8-24.1L32.8-24.1z"/>
						<path fill="#202020" d="M32.6-24.5L32.6-24.5L32.6-24.5z"/>
						<path fill="#202020" d="M33.6-22L33.6-22C33.6-21.9,33.6-22,33.6-22z"/>
						<path fill="#202020" d="M35.1-18.9L35.1-18.9L35.1-18.9L35.1-18.9z"/>
						<path fill="#202020" d="M33.9-20.9L33.9-20.9L33.9-20.9L33.9-20.9z"/>
						<path fill="#202020" d="M34.2-20.1C34.2-20.2,34.3-20.2,34.2-20.1C34.2-20.2,34.2-20.2,34.2-20.1L34.2-20.1z"/>
						<path fill="#202020" d="M34.8-19L34.8-19L34.8-19z"/>
						<path fill="#202020" d="M33.7-21.5L33.7-21.5L33.7-21.5z"/>
						<path fill="#202020" d="M21.1-38.7L21.1-38.7L21.1-38.7z"/>
						<path fill="#202020" d="M20.7-39.5L20.7-39.5L20.7-39.5L20.7-39.5z"/>
						<path fill="#202020" d="M32.3-25.2L32.3-25.2L32.3-25.2z"/>
						<path fill="#202020" d="M28.2-30C28.1-30,28.3-29.9,28.2-30C28.3-29.8,28.2-30,28.2-30z"/>
						<path fill="#202020" d="M35-19L35-19L35-19z"/>
						<path fill="#202020" d="M28.3-30L28.3-30L28.3-30L28.3-30z"/>
						<path fill="#202020" d="M31.7-26.8C31.8-26.8,31.8-26.8,31.7-26.8C31.8-26.8,31.8-26.8,31.7-26.8z"/>
						<path fill="#202020" d="M32.3-25.6L32.3-25.6C32.2-25.6,32.2-25.6,32.3-25.6z"/>
						<path fill="#202020" d="M31.6-27.5L31.6-27.5L31.6-27.5L31.6-27.5z"/>
						<path fill="#202020" d="M31.4-28.1L31.4-28.1L31.4-28.1L31.4-28.1z"/>
						<path fill="#202020" d="M21.7-36.7C21.8-36.7,21.8-36.7,21.7-36.7C21.7-36.8,21.8-36.7,21.7-36.7z"/>
						<path fill="#202020" d="M35-18.9L35-18.9L35-18.9L35-18.9z"/>
						<path fill="#202020" d="M31.9-27.7L31.9-27.7L31.9-27.7z"/>
						<path fill="#202020" d="M24.7-33L24.7-33C24.7-33.1,24.7-33.1,24.7-33z"/>
						<path fill="#202020" d="M31.7-28.1L31.7-28.1C31.8-28.1,31.8-28,31.7-28.1L31.7-28.1z"/>
						<path fill="#202020" d="M21.7-36.7L21.7-36.7L21.7-36.7z"/>
						<path fill="#202020" d="M21.4-37.3C21.4-37.4,21.4-37.3,21.4-37.3c-0.1-0.2-0.2-0.2-0.1-0.2c-0.1,0,0,0-0.1-0.1
							c0.1,0,0-0.2,0.1-0.2c-0.1,0,0,0.1-0.1,0.1c0-0.1,0-0.2,0.1-0.2c0-0.1-0.1-0.1-0.1-0.1l0,0c0-0.2-0.1-0.3,0-0.4
							c-0.1,0.1-0.1-0.2-0.2-0.1c0,0,0-0.1,0-0.2c-0.1,0-0.1-0.1-0.1-0.2c0,0,0-0.1,0-0.2l0,0c0-0.1,0-0.1-0.1-0.1
							c0-0.1,0.1,0,0.1-0.1c0-0.1-0.1,0-0.1,0l0.1-0.1c0,0,0,0-0.1,0v-0.1v0.1h-0.1v-0.1c-0.1-0.1-0.2-0.1-0.2,0v0.1
							c0,0-0.1,0-0.1-0.1l-0.1,0.2c0.1,0.2,0.1,0,0.2,0.1v0.2l0,0v0.1c0.1,0,0.1,0.1,0.1,0.2l0,0c0,0.2,0.2,0.3,0.2,0.4v0.1h0.1
							c0,0.1-0.1,0.1,0,0.2c0.2,0.3,0.2,0.7,0.4,1.1l0,0c0.2,0.2,0.1,0.5,0.3,0.8l0,0c0.1,0.2,0,0,0.1,0.1c0,0,0,0.2,0.1,0.3
							c0,0,0,0,0-0.1h0.1c-0.1,0.1,0,0.3,0.1,0.5c0.1,0,0.2,0.1,0.2,0.1v0.1c0.1,0,0.1,0.1,0.1,0.1c-0.2-0.2-0.3-0.2-0.3-0.2l0,0
							l0,0l0,0c-0.1,0,0,0-0.1,0l0.1,0.1c0,0,0,0,0.1,0.1c0,0,0,0,0,0.1l0,0l0,0c0.1,0.1,0.1,0.2,0.1,0.3c0-0.1,0.1,0,0.1-0.1
							c0,0-0.1-0.1-0.1-0.2l0,0c0.1,0.1,0.1,0.2,0.2,0.3l0,0v0.1c0,0,0.1,0.1,0.2,0.1c0,0.1,0,0.1,0.1,0.2v-0.1
							c0.1,0.1,0,0.1,0.1,0.2c0,0,0-0.1,0,0c0.1,0.1,0.1,0.1,0.1,0.2l0,0c0.1,0.1,0.1,0.2,0.2,0.2c-0.1,0,0.1,0.2,0.2,0.2v-0.1
							c0.1,0.2,0.3,0.2,0.4,0.4h0.1c0.1,0.1,0,0.2,0.1,0.3V-33c0.1,0.1,0.2,0.2,0.3,0.2l0.2-0.1l0.1,0.1c0.2-0.1,0.4,0.3,0.6,0.3
							v0.1c0.1,0.1,0.2,0.1,0.2,0.1l0,0c0-0.1,0.1,0,0.1,0.1v0.1c0.2,0.1,0.4,0.3,0.5,0.4c0.2,0.2,0.2,0.4,0.4,0.5l0,0
							c0.1,0,0.2,0.2,0.2,0.1c0.1,0.1,0.2,0.3,0.3,0.4v-0.1c0.1,0,0.1,0.1,0.1,0.1l0,0c0.1,0,0.1,0.1,0.1,0.1l0,0
							c0.2,0.1,0.3,0.3,0.5,0.4l0,0c0,0.1,0.3,0.2,0.3,0.3V-30c0.1,0.1,0.2,0,0.3,0.1H28c0.1,0,0.1,0.1,0.1,0.1c0.1,0,0-0.1,0.2,0
							c0,0-0.1-0.1,0-0.1h0.2c0,0,0,0,0.1,0c-0.1,0.1,0.1,0.1,0,0.1c0.2,0.1,0.4,0.1,0.6,0.3c0.2-0.1,0.4,0.2,0.4,0.1
							c0.1,0.1,0.2,0.1,0.2,0.2c0,0,0,0-0.1-0.1c0,0.1,0.1,0.1,0.2,0.2c-0.1-0.1-0.2-0.2-0.2-0.2c0.1,0.1,0.2,0.2,0.2,0.2l0.1-0.1
							c0.1,0.1,0.1,0,0.2,0.1l0,0c0.2,0.1,0.1,0.1,0.2,0.2l0,0c0,0,0.1,0.1,0.2,0.1l-0.1-0.1c0,0,0.1,0,0.2,0c0.1,0.1,0,0.1,0,0.1
							s0,0,0-0.1c0.1,0.1,0.2,0.2,0.3,0.2l0,0c0.1,0.1,0.2,0.2,0.2,0.2l0,0c0.1,0,0.2,0.2,0.2,0.1c0,0-0.1-0.1,0-0.1
							c0.1,0.1,0,0.1,0.1,0.2l0,0c0.1,0.1,0.1,0.2,0.1,0.3c0.2,0.1,0.1,0.4,0.3,0.5c-0.1,0,0,0.1-0.1,0.1l0,0c0,0.1,0,0.1,0,0.1v0.2
							v0.1c0-0.1,0,0,0.1-0.1c0.1,0.1,0,0.2,0,0.3l0.1,0.1c-0.1,0,0,0.2,0,0.2s0.1,0.1,0.1,0c0,0.1,0.1,0.2,0,0.2v-0.1
							c0.1,0.2,0,0.3,0.1,0.4h0.1c0.1,0.1,0,0.2,0.1,0.2c-0.1,0-0.1,0-0.1,0s0-0.1,0-0.2v0.2V-26c0,0.1,0,0.1-0.1,0.1
							c0,0.1,0.1,0.1,0.1,0.2s0.1,0,0.1,0c0,0.1,0.1,0.2,0.1,0.2l0,0c0,0.1,0,0.1,0,0.1v-0.1c0,0.1,0,0.1,0,0.2s0,0.1-0.1,0.1
							c0,0,0,0.1,0.1,0c0,0.1-0.1,0.1,0,0.2l0,0v0.1c0-0.1,0.1,0,0-0.1c0.1,0,0.1,0.1,0.1,0.2s-0.1,0.1-0.1,0.1s0,0,0,0.1h-0.1v0.1
							v-0.1c0,0.1,0.1,0.1,0.1,0.2c0,0,0-0.1,0.1,0c0,0.2,0,0,0.1,0.1c0,0.1-0.1,0.1,0,0.2l0,0c0.1,0.1,0.1,0.2,0.1,0.3
							c0,0-0.1-0.1-0.1,0l0.1,0.1l0,0l0,0l0,0c0-0.1,0.1-0.1,0.1,0s0,0.1-0.1,0.1c0.1,0.1,0,0.2,0,0.3c0,0,0.1,0.1,0.2,0.2
							c0,0.1-0.1-0.1-0.1,0c0.2,0.1,0.1,0.3,0.2,0.5h0.1c0,0.1,0.1,0.1,0.1,0.2l-0.1-0.1c0,0,0.1,0.2,0.1,0.1c0,0.1,0,0.1,0.1,0.2
							c0-0.1,0,0,0-0.1c0.1,0.1,0.1,0.1,0.1,0.2h0.1c0,0.1,0.1,0.2,0.1,0.3l0,0c0,0.2,0.2,0.3,0.2,0.5l0,0l0,0l0,0l0,0
							c-0.1-0.1,0,0.1,0,0.2H34c-0.1,0,0,0.1,0,0.1s0.1,0,0.1,0.1v0.1l0.1,0.1v-0.1c0,0,0,0,0.1,0c0,0.1,0,0,0,0.1v-0.1v0.1
							c0-0.1,0-0.1,0.1-0.1c0,0.2-0.1,0.1-0.1,0.1c0.1,0.1,0.1,0.2,0.1,0.3l0,0v0.1v0.1c0-0.1,0-0.1,0-0.1c0,0.1,0.1,0.2,0,0.2l0,0
							c0.1,0.1,0.2,0.3,0.2,0.3c0,0.1,0.1,0.2,0.1,0.3s0.2,0.2,0.1,0.2c0.1,0.1,0,0,0.1,0s0,0.2,0.1,0.2c0,0.1,0,0-0.1,0
							c0.1,0,0.1,0.2,0.2,0.2c0,0.1,0,0,0,0.1l0,0l0,0h0.2c0,0.2-0.1,0,0,0.2l0,0c0.1,0,0,0.2,0.1,0.2c0-0.1,0,0,0-0.1v0.1l0,0
							c0.1,0,0,0,0.1,0.1c0,0,0,0,0.1,0v0.1v-0.1c0.1,0.1,0,0.3,0.2,0.3v-0.1c0,0,0.1,0,0.1,0.1c0,0,0,0.1,0,0l0,0
							c0-0.1,0-0.2-0.1-0.2v0.1c0-0.1,0-0.2-0.1-0.2v0.1c-0.1-0.1,0-0.1,0-0.1h-0.1c0-0.1,0-0.1-0.1-0.2v0.1c0-0.1,0-0.2,0-0.3
							c0-0.2-0.2-0.3-0.2-0.4c0,0,0.1,0.1,0.1,0c0,0,0,0-0.1,0c0-0.1-0.1-0.1-0.1-0.2c0,0,0,0-0.1,0S35-19.4,35-19.2
							c0-0.2-0.1-0.2,0-0.3l0,0l-0.1-0.1l0,0c0-0.1,0-0.1-0.1-0.1v0.1c-0.1,0,0-0.2,0-0.2v0.1c0-0.1,0-0.1,0-0.2l0,0
							c-0.1-0.1,0.1-0.1,0-0.2l0,0c0,0-0.1-0.1-0.1,0v-0.1c0,0,0,0,0.1,0v-0.2c0,0,0,0,0,0.1c-0.2-0.2-0.1-0.5-0.3-0.6
							c0,0,0,0,0-0.1s-0.1-0.2-0.1-0.2l0,0c0-0.2,0-0.3-0.1-0.5l0,0c0-0.1-0.2-0.2-0.1-0.2l0,0c-0.1-0.2-0.1-0.4-0.1-0.6
							c-0.1,0,0,0.1,0,0.1C34-22.5,34-22.7,34-22.8l0,0c-0.1-0.1,0.1,0,0-0.1c0,0,0,0-0.1,0V-23h-0.1c0-0.1-0.1-0.2,0-0.3h-0.1
							c0-0.1,0-0.1,0-0.2l0,0c-0.1,0-0.1-0.2-0.1-0.1c-0.1-0.1,0,0,0-0.1L33-24.2v-0.2v0.1c-0.1-0.1,0-0.2-0.1-0.2l0,0v-0.1
							c-0.1,0-0.1-0.1-0.1,0c-0.1-0.2,0-0.3-0.1-0.5l0,0c-0.1-0.1,0-0.2,0-0.2v0.1c0-0.1,0-0.1,0-0.2c0,0,0,0-0.1,0c0,0,0,0,0-0.1
							c-0.1,0.1-0.1-0.1-0.2,0c0,0,0-0.2,0.1-0.2l0,0v-0.1l0,0c0-0.2-0.1-0.3-0.2-0.5v0.1c-0.1-0.2-0.1-0.3-0.1-0.5
							c-0.1,0,0.1,0.2,0,0.2c-0.1-0.2-0.1-0.4-0.2-0.7c-0.2,0,0-0.2-0.2-0.3c0,0,0-0.1,0-0.2c0,0.1-0.1,0-0.1,0
							c0-0.1-0.1-0.3-0.1-0.2c0.1,0-0.1-0.1,0-0.2c-0.1-0.1-0.1-0.2-0.2-0.3c0.1,0,0-0.1-0.1-0.2l0,0c-0.1,0-0.1-0.2-0.2-0.2
							c0,0,0,0-0.1,0c0,0-0.1-0.2-0.2-0.2c0,0,0,0,0,0.1c-0.3-0.2-0.6-0.3-0.8-0.5l0.2,0.1c-0.2,0-0.1-0.2-0.2-0.2
							c-0.4-0.2-0.8-0.3-1.1-0.5l0,0h-0.1l0,0c-0.2,0-0.5-0.3-0.6-0.2c-0.1-0.1-0.3-0.1-0.4-0.3c-0.1,0,0.1,0.1,0,0.1l-0.2-0.2l0,0
							c-0.1-0.2-0.5-0.2-0.6-0.4l0,0h-0.1c0,0,0,0,0.1,0c-0.2-0.1-0.2-0.2-0.3-0.3c0,0.1-0.1,0-0.1,0s0.1,0,0-0.1s-0.2-0.2-0.3-0.2
							c0-0.1-0.1-0.1,0-0.1c-0.1-0.1-0.2-0.2-0.3-0.3l0,0c0-0.1-0.2-0.1-0.2-0.2v0.1l0.1-0.1c0,0.1,0,0.1-0.1,0.1c0-0.1,0,0,0-0.1
							h-0.1c0,0,0-0.1,0.1-0.1c-0.1-0.1-0.3-0.3-0.4-0.4l0,0c-0.1-0.1-0.2-0.2-0.2-0.2l0,0c-0.1-0.1,0,0.1-0.1-0.1v0.1H25
							c0,0-0.2,0-0.2-0.1c0,0,0,0,0.1,0l-0.1-0.1h-0.1l-0.1-0.1l0,0c-0.1-0.1,0-0.1-0.1-0.2c-0.2-0.1-0.2-0.1-0.3-0.1
							c0-0.1-0.2-0.1-0.2-0.2c-0.1,0-0.2-0.1-0.3-0.2c-0.1-0.1-0.2-0.2-0.3-0.2l0,0c-0.1,0,0-0.2-0.1-0.2l0,0
							c-0.1,0-0.2-0.1-0.2-0.2c-0.1,0.1-0.1,0-0.1,0s0,0-0.1,0c0,0,0.1,0,0-0.1l0,0v-0.1c-0.2-0.2-0.3-0.3-0.4-0.5
							c-0.1,0-0.1,0-0.1,0c-0.1-0.2-0.1-0.3-0.2-0.5h-0.1c0-0.1,0.1-0.1,0-0.2v0.1c-0.1-0.1,0-0.1-0.1-0.2v0.1c-0.1-0.1,0-0.1,0-0.2
							c0-0.2-0.2-0.1-0.2-0.3c0-0.1,0,0,0.1-0.1c-0.1-0.2-0.1-0.2-0.1-0.3c-0.1,0,0,0.1-0.1,0l0.1,0.1c-0.1-0.1,0,0.1,0,0.1
							c-0.1-0.1,0-0.2-0.1-0.3v0.1v-0.1c0,0,0,0,0,0.1v-0.1h0.1l0,0c0-0.1-0.1-0.2-0.1-0.3l0,0c0-0.1,0-0.1,0-0.2
							C21.6-37.3,21.6-37.2,21.4-37.3c0.1-0.1,0.2-0.1,0.2-0.2C21.6-37.4,21.6-37.4,21.4-37.3z M22.4-35.2
							C22.4-35.2,22.5-35.2,22.4-35.2L22.4-35.2L22.4-35.2z M22.5-35.1L22.5-35.1C22.5-35.1,22.6-35.1,22.5-35.1
							C22.5-35,22.5-35.1,22.5-35.1z M22-35.2L22-35.2C22.1-35.2,22.1-35.2,22-35.2C22.1-35.2,22-35.2,22-35.2S22-35.3,22-35.2z"/>
						<path fill="#202020" d="M22.1-35.3L22.1-35.3L22.1-35.3L22.1-35.3L22.1-35.3z"/>
						<path fill="#202020" d="M33.6-21.9L33.6-21.9L33.6-21.9L33.6-21.9z"/>
						<path fill="#202020" d="M24.6-33.2L24.6-33.2L24.6-33.2z"/>
						<path fill="#202020" d="M34.2-20.9L34.2-20.9L34.2-20.9z"/>
						<path fill="#202020" d="M34.4-20.4L34.4-20.4L34.4-20.4z"/>
						<path fill="#202020" d="M34.5-20.1L34.5-20.1L34.5-20.1L34.5-20.1z"/>
						<path fill="#202020" d="M32.6-25.7L32.6-25.7C32.6-25.8,32.6-25.8,32.6-25.7z"/>
						<path fill="#202020" d="M33-24.1C33-24,33-24,33-24.1C33.1-24,33.1-24,33-24.1z"/>
						<path fill="#202020" d="M32-27.6L32-27.6L32-27.6z"/>
						<path fill="#202020" d="M33-24C33-24.1,33-24.1,33-24C33-24.1,33-24.1,33-24z"/>
						<path fill="#202020" d="M35.2-18.7C35.3-18.6,35.3-18.6,35.2-18.7L35.2-18.7L35.2-18.7z"/>
						<path fill="#202020" d="M35.3-18.6L35.3-18.6C35.2-18.6,35.3-18.6,35.3-18.6z"/>
						<path fill="#202020" d="M35.3-18.6L35.3-18.6L35.3-18.6z"/>
						<path fill="#202020" d="M35-19.1L35-19.1L35-19.1z"/>
						<path fill="#202020" d="M35-19.1L35-19.1C35-19.2,35-19.2,35-19.1L35-19.1z"/>
						<path fill="#202020" d="M34.5-19.5C34.4-19.6,34.5-19.6,34.5-19.5v-0.2C34.5-19.5,34.4-19.7,34.5-19.5z"/>
						<path fill="#202020" d="M34.2-20C34.2-20.1,34.3-20,34.2-20C34.2-20.1,34.2-20.1,34.2-20z"/>
						<path fill="#202020" d="M33.3-22.7L33.3-22.7C33.3-22.7,33.2-22.8,33.3-22.7z"/>
						<polygon fill="#202020" points="33.4,-23.2 33.4,-23.3 33.3,-23.3 						"/>
						<polygon fill="#202020" points="32.9,-23.6 32.9,-23.5 32.9,-23.5 						"/>
						<path fill="#202020" d="M31.4-28L31.4-28C31.4-27.9,31.4-28,31.4-28z"/>
						<path fill="#202020" d="M29.8-29.2h0.1C29.9-29.1,29.8-29.1,29.8-29.2z"/>
						<path fill="#202020" d="M24.8-32.5L24.8-32.5L24.8-32.5z"/>
					</g>
					<g>
						<path fill="#202020" d="M36.5-19.6L36.5-19.6C36.5-19.5,36.5-19.5,36.5-19.6L36.5-19.6z"/>
						<path fill="#202020" d="M36.3-19.7c0,0.1,0.1,0.1,0.1,0.2C36.4-19.6,36.4-19.6,36.3-19.7C36.4-19.6,36.4-19.7,36.3-19.7
							C36.4-19.8,36.3-19.8,36.3-19.7C36.3-19.8,36.3-19.8,36.3-19.7C36.3-19.7,36.3-19.8,36.3-19.7z"/>
						<path fill="#202020" d="M34.7-23.2L34.7-23.2L34.7-23.2z"/>
						<path fill="#202020" d="M33.9-25.4L33.9-25.4C33.9-25.5,33.9-25.4,33.9-25.4z"/>
						<path fill="#202020" d="M33.7-25.8L33.7-25.8L33.7-25.8z"/>
						<path fill="#202020" d="M34.7-23.3L34.7-23.3C34.7-23.2,34.7-23.3,34.7-23.3z"/>
						<path fill="#202020" d="M36.2-20.2L36.2-20.2L36.2-20.2L36.2-20.2z"/>
						<path fill="#202020" d="M35-22.2L35-22.2L35-22.2L35-22.2z"/>
						<path fill="#202020" d="M35.3-21.4C35.3-21.5,35.4-21.5,35.3-21.4C35.3-21.5,35.3-21.5,35.3-21.4L35.3-21.4z"/>
						<path fill="#202020" d="M35.9-20.3L35.9-20.3L35.9-20.3z"/>
						<path fill="#202020" d="M34.8-22.8L34.8-22.8L34.8-22.8z"/>
						<path fill="#202020" d="M22.3-40L22.3-40L22.3-40z"/>
						<path fill="#202020" d="M21.8-40.8C21.7-40.8,21.7-40.8,21.8-40.8L21.8-40.8L21.8-40.8z"/>
						<path fill="#202020" d="M33.4-26.5L33.4-26.5L33.4-26.5z"/>
						<path fill="#202020" d="M29.3-31.3C29.2-31.3,29.4-31.2,29.3-31.3C29.4-31.2,29.3-31.3,29.3-31.3z"/>
						<path fill="#202020" d="M36.2-20.3L36.2-20.3L36.2-20.3z"/>
						<path fill="#202020" d="M29.3-31.3L29.3-31.3L29.3-31.3L29.3-31.3z"/>
						<path fill="#202020" d="M32.9-28.1L32.9-28.1L32.9-28.1z"/>
						<path fill="#202020" d="M33.3-26.9L33.3-26.9C33.3-26.9,33.3-27,33.3-26.9z"/>
						<path fill="#202020" d="M32.7-28.8L32.7-28.8L32.7-28.8L32.7-28.8z"/>
						<path fill="#202020" d="M32.5-29.4L32.5-29.4L32.5-29.4L32.5-29.4z"/>
						<path fill="#202020" d="M22.8-38C22.9-38,22.9-38,22.8-38C22.9-38.1,22.9-38,22.8-38z"/>
						<path fill="#202020" d="M36.2-20.2L36.2-20.2C36.2-20.3,36.2-20.2,36.2-20.2L36.2-20.2z"/>
						<path fill="#202020" d="M33-29L33-29C33-28.9,33-29,33-29z"/>
						<path fill="#202020" d="M25.9-34.3L25.9-34.3C25.9-34.4,25.9-34.4,25.9-34.3z"/>
						<path fill="#202020" d="M32.9-29.4L32.9-29.4C32.9-29.4,32.9-29.3,32.9-29.4L32.9-29.4z"/>
						<path fill="#202020" d="M22.8-38L22.8-38L22.8-38z"/>
						<path fill="#202020" d="M22.6-38.7C22.6-38.8,22.6-38.7,22.6-38.7c-0.1-0.2-0.2-0.2-0.1-0.2c-0.1,0,0,0-0.1-0.1
							c0.1,0,0-0.2,0.1-0.2c-0.1,0,0,0.1-0.1,0.1c0-0.1,0-0.2,0.1-0.2c0-0.1-0.1-0.1-0.1-0.1l0,0c0-0.2-0.1-0.3,0-0.4
							c-0.1,0.1-0.1-0.2-0.2-0.1c0,0,0-0.1,0-0.2c-0.1,0-0.1-0.1-0.1-0.2c0,0,0-0.1,0-0.2l0,0c0-0.1,0-0.1-0.1-0.1
							c0-0.1,0.1,0,0.1-0.1s-0.1,0-0.1,0l0.1-0.1c0,0,0,0-0.1,0v-0.1v0.2h-0.1v-0.1c-0.1-0.1-0.2-0.1-0.2,0v0.1c0,0-0.1,0-0.1-0.1
							l-0.1,0.2c0.1,0.2,0.1,0,0.2,0.1v0.3l0,0v0.1c0.1,0,0.1,0.1,0.1,0.2l0,0c0,0.2,0.2,0.3,0.2,0.4v0.1h0.1c0,0.1-0.1,0.1,0,0.2
							c0.2,0.3,0.2,0.7,0.4,1.1l0,0c0.2,0.2,0.1,0.5,0.3,0.8l0,0c0.1,0.2,0,0,0.1,0.1c0,0,0,0.2,0.1,0.3c0,0,0,0,0-0.1h0.1
							c-0.1,0.1,0,0.3,0.1,0.5c0.1,0,0.2,0.1,0.2,0.1v0.1c0.1,0,0.1,0.1,0.1,0.1c0-0.1-0.1-0.1-0.1-0.1l0,0l0,0l0,0
							c-0.1,0,0,0-0.1,0l0.1,0.1c0,0,0,0,0.1,0.1c0,0,0,0,0,0.1l0,0l0,0c0.1,0.1,0.1,0.2,0.1,0.3c0-0.1,0.1,0,0.1-0.1
							c0,0-0.1-0.1-0.1-0.2l0,0c0.1,0.1,0.1,0.2,0.2,0.3l0,0v0.1c0,0,0.1,0.1,0.2,0.1c0,0.1,0,0.1,0.1,0.2v-0.1
							c0.1,0.1,0,0.1,0.1,0.2c0,0,0-0.1,0,0c0.1,0.1,0.1,0.1,0.1,0.2l0,0c0.1,0.1,0.1,0.2,0.2,0.2c-0.1,0,0.1,0.2,0.2,0.2v-0.1
							c0.1,0.2,0.3,0.2,0.4,0.4h0.1c0.1,0.1,0,0.2,0.1,0.3v-0.1c0.1,0.1,0.2,0.2,0.3,0.2l0,0l0.1,0.1c0.2-0.1,0.4,0.3,0.6,0.3v0.1
							c0.1,0.1,0.2,0.1,0.2,0.1l0,0c0-0.1,0.1,0,0.1,0.1v0.1c0.2,0.1,0.4,0.3,0.5,0.4c0.2,0.2,0.2,0.4,0.4,0.5l0,0
							c0.1,0,0.2,0.2,0.2,0.1c0.1,0.1,0.2,0.3,0.3,0.4v-0.1c0.1,0,0.1,0.1,0.1,0.1l0,0c0.1,0,0.1,0.1,0.1,0.1l0,0
							c0.2,0.1,0.3,0.3,0.5,0.4l0,0c0,0.1,0.3,0.2,0.3,0.3V-31c0.1,0.1,0.2,0,0.3,0.1h-0.1c0.1,0,0.1,0.1,0.1,0.1c0.1,0,0-0.1,0.2,0
							c0,0-0.1-0.1,0-0.1h0.2c0,0,0,0,0.1,0c-0.1,0.1,0.1,0.1,0,0.1c0.2,0.1,0.4,0.1,0.6,0.3c0.2-0.1,0.4,0.2,0.4,0.1
							c0.1,0.1,0.2,0.1,0.2,0.2c0,0,0,0-0.1-0.1c0,0.1,0.1,0.1,0.2,0.2c-0.1-0.1-0.2-0.2-0.2-0.2c0.1,0.1,0.2,0.2,0.2,0.2l0.1-0.1
							c0.1,0.1,0.1,0,0.2,0.1l0,0c0.2,0.1,0.1,0.1,0.2,0.2l0,0c0,0,0.1,0.1,0.2,0.1l-0.4-0.4c0,0,0.1,0,0.2,0c0.1,0.1,0,0.1,0,0.1
							s0,0,0-0.1c0.1,0.1,0.2,0.2,0.3,0.2l0,0c0.1,0.1,0.2,0.2,0.2,0.2l0,0c0.1,0,0.2,0.2,0.2,0.1c0,0-0.1-0.1,0-0.1
							c0.1,0.1,0,0.1,0.1,0.2l0,0c0.1,0.1,0.1,0.2,0.1,0.3c0.2,0.1,0.1,0.4,0.3,0.5c-0.1,0,0,0.1-0.1,0.1l0,0c0,0.1,0,0.1,0,0.1v0.2
							v0.1c0-0.1,0,0,0.1-0.1c0.1,0.1,0,0.2,0,0.3H33c-0.1,0,0,0.2,0,0.2s0.1,0.1,0.1,0c0,0.1,0.1,0.2,0,0.2v-0.1
							c0.1,0.2,0,0.3,0.1,0.4h0.1c0.1,0.1,0,0.2,0.1,0.2c-0.1,0-0.1,0-0.1,0s0-0.1,0-0.2v0.2v-0.2c0,0.1,0,0.1-0.1,0.1
							c0,0.1,0.1,0.1,0.1,0.2s0.1,0,0.1,0c0,0.1,0.1,0.2,0.1,0.2l0,0c0,0.1,0,0.1,0,0.1v-0.1c0,0.1,0,0.1,0,0.2s0,0.1-0.1,0.1
							c0,0,0,0.1,0.1,0c0,0.1-0.1,0.1,0,0.2l0,0v0.1c0-0.1,0.1,0,0-0.1c0.1,0,0.1,0.1,0.1,0.2s-0.1,0.1-0.1,0.1s0,0,0,0.1h-0.1v0.1
							V-26c0,0.1,0.1,0.1,0.1,0.2c0,0,0-0.1,0.1,0c0,0.2,0,0,0.1,0.1c0,0.1-0.1,0.1,0,0.2l0,0c0.1,0.1,0.1,0.2,0.1,0.3
							c0,0-0.1-0.1-0.1,0l0.1,0.1l0,0l0,0l0,0c0-0.1,0.1-0.1,0.1,0s0,0.1-0.1,0.1c0.1,0.1,0,0.2,0,0.3c0,0,0.1,0.1,0.2,0.2
							c0,0.1-0.1-0.1-0.1,0c0.2,0.1,0.1,0.3,0.2,0.5h0.1c0,0.1,0.1,0.1,0.1,0.2l-0.1-0.1c0,0,0.1,0.2,0.1,0.1c0,0.1,0,0.1,0.1,0.2
							c0-0.1,0,0,0-0.1c0.1,0.1,0.1,0.1,0.1,0.2h0.1c0,0.1,0.1,0.2,0.1,0.3l0,0c0,0.2,0.2,0.3,0.2,0.5l0,0l0,0l0,0l0,0
							c-0.1-0.1,0,0.1,0,0.2H35c-0.1,0,0,0.1,0,0.1s0.1,0,0.1,0.1v0.1l0.1,0.1v-0.1c0,0,0,0,0.1,0c0,0.1,0,0,0,0.1v-0.1v0.1
							c0-0.1,0-0.1,0.1-0.1c0,0.2-0.1,0.1-0.1,0.1c0.1,0.1,0.1,0.2,0.1,0.3l0,0v0.1v0.1c0-0.1,0-0.1,0-0.1c0,0.1,0.1,0.2,0,0.2l0,0
							c0.1,0.1,0.2,0.3,0.2,0.3c0,0.1,0.1,0.2,0.1,0.3s0.2,0.2,0.1,0.2c0.1,0.1,0,0,0.1,0s0,0.2,0.1,0.2c0,0.1,0,0-0.1,0
							c0.1,0,0.1,0.2,0.2,0.2c0,0.1,0,0,0,0.1l0,0l0,0h0.2c0,0.2-0.1,0,0,0.2l0,0c0.1,0,0,0.2,0.1,0.2c0-0.1,0,0,0-0.1v0.1l0,0
							c0.1,0,0,0,0.1,0.1c0,0,0,0,0.1,0v0.1v-0.1c0.1,0.1,0,0.3,0.2,0.3v-0.1c0,0,0.1,0,0.1,0.1c0,0,0,0.1,0,0l0,0
							c0-0.1,0-0.2-0.1-0.2v0.1c0-0.1,0-0.2-0.1-0.2v0.1c-0.1-0.1,0-0.1,0-0.1h-0.1c0-0.1,0-0.1-0.1-0.2v0.1c0-0.1,0-0.2,0-0.3
							c0-0.2-0.2-0.3-0.2-0.4c0,0,0.1,0.1,0.1,0c0,0,0,0-0.1,0c0-0.1-0.1-0.1-0.1-0.2c0,0,0,0-0.1,0S36-20.8,36-20.6
							c0-0.2-0.1-0.2,0-0.3l0,0L35.9-21l0,0c0-0.1,0-0.1-0.1-0.1v0.1c-0.1,0,0-0.2,0-0.2v0.1c0-0.1,0-0.1,0-0.2l0,0
							c-0.1-0.1,0.1-0.1,0-0.2l0,0c0,0-0.1-0.1-0.1,0v-0.1c0,0,0,0,0.1,0v-0.2c0,0,0,0,0,0.1c-0.2-0.2-0.1-0.5-0.3-0.6
							c0,0,0,0,0-0.1s-0.1-0.2-0.1-0.2l0,0c0-0.2,0-0.3-0.1-0.5l0,0c0-0.1-0.2-0.2-0.1-0.2l0,0c-0.1-0.2-0.1-0.4-0.1-0.6
							c-0.1,0,0,0.1,0,0.1C35-23.9,35-24.1,35-24.2l0,0c-0.1-0.1,0.1,0,0-0.1c0,0,0,0-0.1,0v-0.1h-0.1c0-0.1-0.1-0.2,0-0.3h-0.1
							c0-0.1,0-0.1,0-0.2l0,0c-0.1,0-0.1-0.2-0.1-0.1c-0.1-0.1,0,0,0-0.1l0.1,0.1v-0.2v0.1c-0.1-0.1,0-0.2-0.1-0.2l0,0v-0.1
							c-0.1,0-0.1-0.1-0.1,0c-0.5-0.7-0.5-0.8-0.5-1l0,0c-0.1-0.1,0-0.2,0-0.2v0.1c0-0.1,0-0.1,0-0.2c0,0,0,0-0.1,0c0,0,0,0,0-0.1
							c-0.1,0.1-0.1-0.1-0.2,0c0,0,0-0.2,0.1-0.2l0,0v-0.1l0,0c0-0.2-0.1-0.3-0.2-0.5v0.1c-0.1-0.2-0.1-0.3-0.1-0.5
							c-0.1,0,0.1,0.2,0,0.2c-0.1-0.2-0.1-0.4-0.2-0.7c-0.2,0,0-0.2-0.2-0.3c0,0,0-0.1,0-0.2c0,0.1-0.1,0-0.1,0
							c0-0.1-0.1-0.3-0.1-0.2c0.1,0-0.1-0.1,0-0.2c-0.1-0.1-0.1-0.2-0.2-0.3c0.1,0,0-0.1-0.1-0.2l0,0c-0.1,0-0.1-0.2-0.2-0.2
							c0,0,0,0-0.1,0c0,0-0.1-0.2-0.2-0.2c0,0,0,0,0,0.1c-0.3-0.2-0.6-0.3-0.8-0.5v0.1c-0.2,0-0.1-0.2-0.2-0.2
							c-0.4-0.2-0.8-0.3-1.1-0.5l0,0h-0.1l0,0c-0.2,0-0.5-0.3-0.6-0.2c-0.1-0.1-0.3-0.1-0.4-0.3c-0.1,0,0.1,0.1,0,0.1l0.1-0.2l0,0
							c-0.1-0.2-0.5-0.2-0.6-0.4l0,0h-0.1c0,0,0,0,0.1,0c-0.2-0.1-0.2-0.2-0.3-0.3c0,0.1-0.1,0-0.1,0s0.1,0,0-0.1s-0.2-0.2-0.3-0.2
							c0-0.1-0.1-0.1,0-0.1c-0.1-0.1-0.2-0.2-0.3-0.3l0,0c0-0.1-0.2-0.1-0.2-0.2v0.1l-0.1-0.1c0,0.1,0,0.1-0.1,0.1c0-0.1,0,0,0-0.1
							h-0.1c0,0,0-0.1,0.1-0.1c-0.1-0.1-0.3-0.3-0.4-0.4l0,0c-0.1-0.1-0.2-0.2-0.2-0.2l0,0c-0.1-0.1,0,0.1-0.1-0.1v0.1h-0.2
							c0,0-0.2,0-0.2-0.1c0,0,0,0,0.1,0l-0.1-0.1h-0.1l-0.1-0.1l0,0c-0.1-0.1,0-0.1-0.1-0.2c-0.2-0.1-0.2-0.1-0.3-0.1
							c0-0.1-0.2-0.1-0.2-0.2c-0.1,0-0.2-0.1-0.3-0.2c-0.1-0.1-0.2-0.2-0.3-0.2l0,0c-0.1,0,0-0.2-0.1-0.2l0,0
							c-0.1,0-0.2-0.1-0.2-0.2c-0.1-0.1-0.1-0.2-0.1-0.2s0,0-0.1,0c0,0,0.1,0,0-0.1l0,0v-0.1c-0.2-0.2-0.3-0.3-0.4-0.5
							c-0.1,0-0.1,0-0.1,0c-0.1-0.2-0.1-0.3-0.2-0.5h-0.1c0-0.1,0.1-0.1,0-0.2v0.1c-0.1-0.1,0-0.1-0.1-0.2v0.1c-0.1-0.1,0-0.1,0-0.2
							c0-0.2-0.2-0.1-0.2-0.3c0-0.1,0,0,0.1-0.1c0,0.2,0,0.2,0,0c-0.1,0,0,0.1-0.1,0l0.1,0.1c-0.1-0.1,0,0.1,0,0.1
							c-0.1-0.1,0-0.2-0.1-0.3v0.1v-0.1c0,0,0,0,0,0.1v-0.1H23l0,0c0-0.1-0.1-0.2-0.1-0.3l0,0c0-0.1,0-0.1,0-0.2
							C22.7-38.6,22.7-38.5,22.6-38.7C22.7-38.7,22.7-38.6,22.6-38.7C22.7-38.7,22.7-38.6,22.6-38.7z M23.5-36.5L23.5-36.5
							L23.5-36.5L23.5-36.5z M23.6-36.4L23.6-36.4C23.6-36.4,23.7-36.4,23.6-36.4C23.6-36.3,23.6-36.4,23.6-36.4z M23.2-36.5
							L23.2-36.5L23.2-36.5L23.2-36.5L23.2-36.5z"/>
						<path fill="#202020" d="M23.2-36.6L23.2-36.6L23.2-36.6L23.2-36.6L23.2-36.6z"/>
						<path fill="#202020" d="M34.7-23.2L34.7-23.2L34.7-23.2L34.7-23.2z"/>
						<polygon fill="#202020" points="25.6,-34.5 25.7,-34.5 25.7,-34.5 						"/>
						<path fill="#202020" d="M35.3-22.2L35.3-22.2L35.3-22.2z"/>
						<path fill="#202020" d="M35.5-21.7L35.5-21.7L35.5-21.7z"/>
						<path fill="#202020" d="M35.6-21.4L35.6-21.4L35.6-21.4L35.6-21.4z"/>
						<path fill="#202020" d="M33.7-27L33.7-27C33.7-27.1,33.7-27.1,33.7-27z"/>
						<path fill="#202020" d="M34.1-25.4C34.1-25.3,34.1-25.3,34.1-25.4C34.2-25.3,34.1-25.3,34.1-25.4z"/>
						<polygon fill="#202020" points="33,-28.9 33.1,-28.9 33.1,-28.9 						"/>
						<path fill="#202020" d="M34.1-25.3C34.1-25.4,34.1-25.4,34.1-25.3C34.1-25.4,34.1-25.4,34.1-25.3z"/>
						<path fill="#202020" d="M36.3-20C36.3-19.9,36.3-19.9,36.3-20L36.3-20L36.3-20z"/>
						<path fill="#202020" d="M36.3-19.9L36.3-19.9L36.3-19.9z"/>
						<path fill="#202020" d="M36.4-19.9L36.4-19.9L36.4-19.9z"/>
						<path fill="#202020" d="M36.1-20.4L36.1-20.4L36.1-20.4z"/>
						<path fill="#202020" d="M36.1-20.4L36.1-20.4C36.1-20.5,36-20.5,36.1-20.4L36.1-20.4z"/>
						<path fill="#202020" d="M35.6-20.8C35.6-20.9,35.6-20.9,35.6-20.8V-21C35.6-20.8,35.5-21,35.6-20.8z"/>
						<path fill="#202020" d="M35.3-21.3C35.3-21.3,35.4-21.3,35.3-21.3C35.3-21.4,35.3-21.4,35.3-21.3z"/>
						<path fill="#202020" d="M34.4-24L34.4-24L34.4-24z"/>
						<polygon fill="#202020" points="34.4,-24.5 34.5,-24.6 34.4,-24.6 						"/>
						<polygon fill="#202020" points="34,-24.9 34,-24.8 34,-24.8 						"/>
						<path fill="#202020" d="M32.5-29.3L32.5-29.3C32.5-29.2,32.5-29.2,32.5-29.3z"/>
						<path fill="#202020" d="M30.8-30.4h0.1C31-30.4,30.9-30.4,30.8-30.4z"/>
						<path fill="#202020" d="M25.9-33.8L25.9-33.8L25.9-33.8z"/>
					</g>
				</g>
			</g>
		</g>
	</g>
</pattern>
<pattern  id="SVGID_1_" xlink:href="#baconbacon" patternTransform="matrix(1 0 0 -1 0 -16903.5996)">
</pattern>
<rect fill="url(#SVGID_1_)" width="360" height="360"/>
</svg>
