<?xml version="1.0" encoding="utf-8"?>
<!-- Generator: Adobe Illustrator 18.0.0, SVG Export Plug-In . SVG Version: 6.00 Build 0)  -->
<!DOCTYPE svg PUBLIC "-//W3C//DTD SVG 1.1//EN" "http://www.w3.org/Graphics/SVG/1.1/DTD/svg11.dtd">
<svg version="1.1" id="Layer_1" xmlns="http://www.w3.org/2000/svg" xmlns:xlink="http://www.w3.org/1999/xlink" x="0px" y="0px"
	 viewBox="0 0 144 144" enable-background="new 0 0 144 144" xml:space="preserve">
<g>
	<g>
		<path fill="none" stroke="#000000" stroke-width="0.576" stroke-miterlimit="10" d="M-72-11.5"/>
	</g>
</g>
<g>
	<g>
		<path fill="none" stroke="#000000" stroke-width="0.576" stroke-miterlimit="10" d="M-60.8-10.2"/>
	</g>
</g>
<g>
	<g>
		<g>
			<g>
				<g>
					<g>
						<path fill="#202020" d="M48,134.8c0,0.1,0.1,0.1,0.2-0.2l-0.1-0.2L48,134.8z"/>
						<path fill="#202020" d="M48.6,132.7c0-0.4,0-0.8-0.2-0.6c0.1,0.4,0,0.5,0.1,0.9c0,0.3-0.1,0.5-0.2,0.5c0,0.1-0.1,0.5-0.1,0.7
							C48.4,133.7,48.5,133.2,48.6,132.7C48.6,132.6,48.6,132.7,48.6,132.7z"/>
						<path fill="#202020" d="M54.7,102.3l-0.1,0.2C54.7,102.5,54.7,102.4,54.7,102.3z"/>
						<path fill="#202020" d="M58.4,83.5c0,0.1,0,0.2,0,0.2C58.4,83.5,58.4,83.4,58.4,83.5z"/>
						<path fill="#202020" d="M59.2,80.3c0,0.1,0,0.1,0,0.2C59.1,80.4,59.2,80.3,59.2,80.3z"/>
						<path fill="#202020" d="M54.7,102.3l0.1-0.5C54.8,101.8,54.7,102.1,54.7,102.3z"/>
						<path fill="#202020" d="M49.1,128.5c0,0.1,0,0.2,0,0.3L49.1,128.5C49.1,128.5,49.1,128.5,49.1,128.5z"/>
						<path fill="#202020" d="M53.2,110.7l0,0.2c0,0,0,0.1,0,0.1L53.2,110.7z"/>
						<path fill="#202020" d="M52,117c0-0.1-0.1-0.2-0.1-0.3C51.9,116.8,51.9,117,52,117C51.9,117.1,52,117.1,52,117z"/>
						<path fill="#202020" d="M49.9,127.1l0,0.2C49.8,127.3,49.8,127.2,49.9,127.1z"/>
						<path fill="#202020" d="M54.1,106.1C54.1,106.1,54.1,106.1,54.1,106.1C54.1,106,54.1,106.1,54.1,106.1z"/>
						<path fill="#202020" d="M48.4,128.8C48.4,128.8,48.4,128.8,48.4,128.8C48.4,128.8,48.4,128.8,48.4,128.8z"/>
						<path fill="#202020" d="M48.2,134.9l-0.1,0c0,0,0,0,0,0.1L48.2,134.9z"/>
						<path fill="#202020" d="M60.4,74.4C60.4,74.4,60.4,74.4,60.4,74.4C60.4,74.6,60.4,74.5,60.4,74.4z"/>
						<path fill="#202020" d="M65.1,35.9c0.2-0.6-0.1,1,0.2,0.1C65.3,36.1,65.4,35.1,65.1,35.9z"/>
						<path fill="#202020" d="M49.1,128.3l0-0.3C49.2,128.2,49.1,128.2,49.1,128.3z"/>
						<path fill="#202020" d="M65.4,36L65.4,36L65.4,36C65.4,35.9,65.4,36,65.4,36z"/>
						<path fill="#202020" d="M63,60.8c0,0-0.1,0.1-0.1,0.1C62.9,60.9,62.9,60.9,63,60.8z"/>
						<path fill="#202020" d="M60.9,70.9l0.1-0.2C60.9,70.7,60.9,70.8,60.9,70.9z"/>
						<path fill="#202020" d="M63.8,55.5c0-0.1,0.1-0.2,0.1-0.4c0,0,0,0,0,0.1C63.9,55.3,63.9,55.4,63.8,55.5z"/>
						<path fill="#202020" d="M64.9,50C64.9,50.1,64.8,50.1,64.9,50c-0.1,0.2-0.1,0.2-0.1,0.3L64.9,50z"/>
						<path fill="#202020" d="M51.5,112.1c-0.1,0.1-0.1,0.2-0.2,0.2C51.5,112.3,51.4,113.1,51.5,112.1z"/>
						<path fill="#202020" d="M49.2,128.5c0,0,0-0.1,0-0.2C49.1,128.4,49.1,128.4,49.2,128.5C49.1,128.5,49.1,128.5,49.2,128.5z"/>
						<path fill="#202020" d="M62.9,55.1l0.2-0.9C63,54.5,63,54.8,62.9,55.1z"/>
						<path fill="#202020" d="M59.1,72.9l0,0.2C59,73,59.1,72.9,59.1,72.9z"/>
						<path fill="#202020" d="M63.6,51.7c0.1-0.1,0.1-0.3,0.2-0.5c0,0,0-0.1,0-0.1L63.6,51.7z"/>
						<path fill="#202020" d="M51.4,112.4L51.4,112.4L51.4,112.4z"/>
						<path fill="#202020" d="M50.6,118.1c0.2-0.8-0.1-0.4-0.1-0.6c0.1-1,0.2-0.4,0.3-0.8c0.1-0.6,0-1.1,0.1-1.6c0,0,0.1-0.1,0.1,0
							c0-0.7,0.4-1.9,0.4-2.7c0-0.1,0-0.1,0.1-0.1c-0.1,0.1-0.2,0.1-0.2,0.1c0.1-0.4,0-0.7,0.2-0.8c0,0.2,0,0.3,0,0.4l0-0.4
							c0.2-0.3-0.1,0.5,0.1,0.6c0.1-0.8,0.1-1.7,0.3-2.2c0.2-0.1-0.2,1.4,0.1,0.6l-0.2,0.9c0.4-0.6-0.1,0.5,0.2,0
							c0.3-1.2,0.2-1.3,0.4-2.5c0-0.3-0.1,0.1-0.2-0.2c0.2-1.7,0.6-1.3,0.7-2.5c0-0.3-0.2-0.5,0.1-1.4l0.1,0.3
							c0.2-1.1-0.1-0.7,0.2-1.9c0,0.2-0.1,0.9-0.1,0.7c0.3-0.8,0-0.6,0.1-1.2l0.2-0.1c0.2-1.2,0.4-2.6,0.6-3.9c0,0.1,0,0.3,0.1,0
							c0.3-1.7,0.7-3.6,1.1-5.3l0-0.7c0-0.1,0.1-0.3,0.1-0.1c0.2-0.6-0.1,0-0.1-0.4c0.1-0.4,0.2-0.5,0.2-0.2
							c0.1-1.2,0.4-3.3,0.8-4.4l0,0.2c0.2-0.9-0.1-1.1,0.2-1.9l0,0.2c0.4-2,0.8-4.2,1.2-5.7c-0.1-0.3,0.5-2,0.2-2.2
							c0.3-1.1,0.3-0.8,0.7-2.4c0.1-0.4,0-0.7,0-1.2l0.1,0l0-0.8l0.2-0.4l0.1-0.5c0,0.2-0.1,0.4-0.2,0.4c0.1-0.8,0.5-1.9,0.5-1.9
							l0.2-1.9c0,0.1,0,0.4,0,0.6c0.1-1,0.2-0.2,0.2-1.1c-0.1,0.1-0.1-0.1-0.1-0.1c0.2-0.4,0.4-1.5,0.5-2.2l0.1,0.2
							c0.3-1.4,0.5-2.9,0.8-4.4c-0.1,0.5-0.3,0.4-0.2-0.1l0.2-0.2c0-0.3-0.1,0.5-0.1-0.2c0.1-0.6,0.2-0.4,0.2,0l0.1-0.7
							c0,0,0,0.1,0.1,0.2c0-0.3,0.4-1.2,0.3-1.6l0,0c0.3-1.5,0.4-2.2,0.6-3.5c-0.1,0,0-0.5,0-0.9c0.2-0.9,0.5-1.9,0.7-3
							c0.1-0.8-0.1-0.2-0.1-0.6c0.1,0,0.3-1.1,0.3-0.6c0.2-1.3,0.3-1.7,0.5-3.4c-0.1,0.2-0.1,0.4-0.2,0.3c0-0.3,0.2-0.7,0.2-0.6
							l0,0.1c0.2-1.9,1.2-4.3,1.2-5.9l0,0.1l0.2-1.6c0.2-0.7,0,0.4,0.2-0.1c0.1-1.7,0.5-2.7,0.7-4.1c0.5-1,0.7-3.8,1.2-5.2L67.2,31
							c0-0.4,0.1-0.4,0.2-0.7c-0.1,0-0.1,0.4-0.1,0.2c0.1-0.4,0.1-0.8,0.2-1.2c0.1,0,0.5,0.1,0.5,0.1c-0.5,2-0.9,4.1-1.4,6.1
							c-0.2,1.2,0.3,0.8-0.2,2.2l-0.1-0.5c-0.3,2.4-0.9,4.9-1.3,7.3c0-0.1,0-0.2,0-0.4c-0.2,0.5-0.4,1.8-0.3,1.9
							c-0.1,0.4-0.1,0.1-0.2,0.3c-0.2,0.5-0.1,1.3-0.3,1.5c0,0,0-0.1,0-0.2c0,0.3-0.3,1.5-0.1,1.2c-0.2,0.9-0.3,1.7-0.5,2.4
							c0,0.5-0.4,1.5-0.2,1.7c-0.2-0.1-0.5,1.5-0.5,2.1c0-0.2-0.2,0.5-0.2,0.2c-0.1,0.6-0.2,1.2-0.1,1.1c-0.5,1.1-0.3,2.4-0.7,3
							c-0.3,1.9-0.5,3.7-0.8,5.4c-0.2-0.1,0.3-1.9,0.1-1.9c-0.2,1.6-0.2,2.6-0.6,4.2c-0.1,0.4,0-0.3,0-0.4c-0.2,1.6-0.6,3.1-0.8,4.6
							c0,0,0-0.2,0-0.3c0,0.3-0.2,0.7-0.1,0.6l0-0.3c0.2-0.4,0,1.2,0.1,1.2c-0.2-0.5-0.3,1.4-0.5,0.6c0,0.2,0,0.4,0,0.4
							c-0.1,0.3-0.1,0.4-0.1,0.1c-0.1,1,0,0.7-0.2,1.6c0,0,0-0.2-0.1-0.3c0,0.5,0,1-0.2,1.7c0-0.1-0.1,0,0-0.2
							c-0.2,1.3-0.2,2.3-0.6,3.8c-0.1-0.5-0.2,0.5-0.3,0.5l-0.1,0.8l0.1-0.3c-0.1,0.7-0.1,1.3-0.3,1.9l0-0.5l-0.2,1.3l0.2-0.7
							c-0.1,0.7,0.2,0,0,0.9c0-0.2-0.1,0.7-0.3,1l0,0c0,0.4,0,0.7-0.2,1.2c-0.1,0.1-0.2-0.1-0.2-0.1c0.1,0.4-0.3,1.6-0.2,2.1
							c0-0.1-0.1-0.2-0.1-0.1l0.1,0.3c-0.1,0.3-0.1,0.4-0.2,0.3c-0.2,1,0.3-0.3,0,0.9c0-0.1,0-0.1,0-0.2c-0.3,1.1-0.4,2.2-0.6,3.3
							c-0.2,0.3,0.1-0.9-0.1-0.6c-0.3,1.5-0.4,3.2-0.7,4.6l0.1-0.3c0.2,0.2-0.3,1.1-0.4,1.8c0-0.2-0.1-0.3-0.1-0.2
							c-0.2,1-0.3,2.1-0.6,3.6l0-0.2c-0.2,0.6-0.3,1.6-0.5,2.2c0,0.2-0.1,0.6,0.1,0.4c-0.7,1.9-0.5,3.8-1.2,5.5c0-0.2,0-0.5,0-0.3
							l-0.2,1.5c0.1-0.1,0.1-0.2,0.2-0.5c0,0.2,0,0.6-0.1,1c0.1-0.7-0.2,0-0.3,0.3c0,0,0.1,0.1,0.1,0c-0.3,0.7,0.2,0.2-0.1,1.2
							l0-0.1c-0.1,0.4-0.1,0.8-0.1,1.2c-0.1,0.2,0-0.4-0.1-0.5c-0.1,0.6,0,1.2-0.2,1.8c0-0.3,0.1-0.6,0.1-0.9
							c-0.2,0.6-0.2,0.6-0.3,1.1l0,0l-0.3,1l0.1-0.3c0.2,0.8-0.2,1.5-0.2,2.6c0-1-0.1-0.2-0.2-0.3c-0.1,0.3-0.2,0.6-0.2,0.5
							c0,0.5-0.2,0.8-0.2,1.5c0,0-0.1,0.5-0.2,0.4c-0.1,0.6,0.1-0.1,0.1-0.1c0,1-0.6,2.2-0.7,3.7c-0.1,1.2-0.1,1.5-0.2,2.6
							c-0.1,0.4-0.1-0.3-0.1-0.3c-0.2,0.6-0.3,1-0.3,1.6c0-0.1-0.1,0-0.1,0.2c-0.1,0.5,0.1,0.3-0.1,0.9c0-0.1-0.1-0.3-0.1-0.5
							c-0.1,0.5-0.1,1.1-0.2,1.7c-0.1,0.1,0-0.4-0.1-0.6c-0.1,0.6-0.2,1.6-0.2,1.8l0.1-0.4c0,0.2-0.1,0.1-0.1-0.1
							c0-0.6,0.2-0.8,0.2-0.8l0,0.4c0.3-0.4,0.3-1.6,0.4-2.4l0.1,0.4l0-0.8c0.1-0.2,0.2-0.3,0.2,0.1c0.2-0.6,0-0.5,0.2-1
							c0-0.1,0,0,0,0l0.1-0.6c0,0.1,0.1-0.1,0.1,0.3c0.3-1,0.2-1.6,0.4-2l0,0.1c0.2-1.4-0.1-0.2-0.1-1.2l0.5-0.6l-0.1-0.2
							c0-0.1,0.1-0.4,0.1-0.4c0-0.6-0.1,0.1-0.1-0.2c0.3-0.7,0.3-1.9,0.5-2c-0.1-0.3-0.2,0.6-0.1-0.1c0.3-0.2,0.1-0.9,0.3-1.5
							c0.1,0.2-0.1,0.8,0.1,0.2c-0.1-0.4,0.3-1.2,0.3-1.8c-0.1-0.1,0.2-1.2,0.3-2.1c0,0.1,0.4-1.7,0.6-2.5l0,0
							c-0.1-0.2,0.1-1,0.2-1.7c0.1,0,0.1,0.2,0.1,0.5l0.1-0.6c0-0.1,0-0.3,0-0.7l0.1,0.2c0.1-0.8,0.2-1.6,0.4-2.6
							c-0.1-0.1-0.5,0.7-0.3-0.3c0.1,0,0.2,0,0.1,0.2c0-0.1,0-0.3,0.1-0.5l0,0.4c0.1-0.4,0-0.3,0-0.6c0.1,0,0.1-0.3,0.2-0.2
							c0,0.1-0.1,0.3-0.1,0.5c0.1-0.4,0.2-0.9,0.3-1.1c-0.1,0-0.1,0-0.1-0.3c0.1-0.8,0.2-0.2,0.3-0.7c0-0.2,0.1-0.7,0-0.7
							c0-0.2,0.1-0.3,0.2-0.3c0-0.4,0.3-1.9,0.1-1.5l0,0.1c0,0,0,0,0-0.1l0,0l0,0c0.1-1.3,0.6-2.7,0.8-4.1l0,0
							c0.1-0.8,0.3-1.8,0.3-2.3c0-0.2,0.2-0.5,0.2-0.4c0.1-0.6,0-0.7,0.3-1.5c0,0.6,0.1-0.2-0.1,0.6c0.2-0.8,0.3-0.9,0.3-1.8
							c0.1,0.3,0.2-0.6,0.3-0.9l-0.2,0.5c0.1-0.4,0.1-0.8,0.2-1.2l0.1,0.2c0.5-1.6,0.3-2.9,0.8-4.1c0-0.4-0.2,0.9-0.3,0.5
							c0.2-0.7,0.5-1.5,0.6-1.7c0.3-1,0-1,0.2-2c-0.1,0.1-0.2,0.2-0.1-0.6c0.2-0.7,0.4-0.9,0.3-0.4c0,0.2-0.1,0.3-0.1,0.2
							c0,0.2-0.1,0.6,0,0.3l0-0.1c0.1-0.4,0.3-1.4,0.3-1.1c0.1-0.6,0-0.3-0.1,0.2c0.3-0.9,0.3-1.5,0.5-2.4c-0.1,0.1-0.1,0.3-0.1,0.1
							c0.3-1.4,0-0.6,0.2-1.6c0.2-0.5,0.1,0.2,0.3-0.8c0.2-0.6,0.2-0.1,0.2,0.1c0.1-0.9,0.4-1.6,0.5-2.1l0,0.5
							c0-0.3,0.1-0.5,0.1-0.7L60,76.2c0.1-0.3,0.1-0.5,0.2-0.5c0-0.3-0.2,0.2-0.2-0.4c0.1-0.4,0.2-1.1,0.3-1.2
							c-0.3,1.1,0.2-0.1,0,0.9c0-0.2,0.1-0.4,0.1-0.7c0,0,0,0,0,0.1c0.3-1.1-0.1-0.5,0.2-1.7c0,0.2,0.2-0.2,0.2-0.4
							c-0.1,0.5-0.2,0.2-0.1-0.2c0.2-0.7,0.1-0.8,0.2-1.2l-0.1,0.4c0-0.2,0-0.5,0.1-1c0.1,0,0,0.5,0,0.3c0-0.6,0.4-1.2,0.4-2.1
							c0.1-0.4,0.1,0,0.2-0.3c0.1-0.9,0.3-0.9,0.4-1.9c-0.2,0.2-0.1,0.3-0.1-0.4l-0.2,1.5l0-1c-0.1,0.5-0.1,1-0.2,1.3
							c0-0.5,0-0.4-0.1-0.2c0.3-0.6,0.2-1.3,0.4-2l0.2,0.1c0.3-1.1,0.2-2,0.6-3.4l-0.1,0.4c-0.1-0.2,0.2-0.9,0.2-1.3
							c0.1,0.1,0.2-0.2,0.3-0.4c-0.1,0,0.2-1,0.1-1.2l0.2-0.6c0.3-1.1,0-1.4,0.3-2.5c0,0.3,0.2-0.1,0.1,0.6c0.1-0.4,0.2-0.7,0.1-0.7
							c0.1-0.2,0.1-1,0.2-1.4c0-0.2-0.1-0.2,0-0.6c0,0,0,0,0,0c0,0,0.1-0.7-0.1-0.3c0.5-1.1,0.6-3.2,1-4.1c0.1-0.8,0.3-1.8,0.4-2.5
							c0,0.1,0,0,0,0.1c0.3-1-0.1-0.7,0.2-1.8c0.2-0.6,0,0.6,0.1,0.3c0.3-0.1,0.2-1.4,0.5-2.1l0,0.2c0.2-0.6,0.2-1.5,0.4-2.4
							c0,0,0,0.1,0,0c0-0.7,0.2-1.9,0.3-2.9c0.1,0.3,0,0.4,0.1,0.3c0.1-0.4-0.2,0.1-0.1-0.7c0.1-0.3,0.3-0.8,0.4-0.9l-0.1,0.8
							c0.2-0.4,0.2-1,0.3-1.4l0.1,0.1c0.2-1.2,0-1.2,0.3-2.5l-0.1,0.1c0-0.7,0.2-0.6,0.2-1.3l0.2-0.2c0-0.5,0.1-1.7,0.3-2.5
							c0,0.5-0.1,1.5-0.1,2.1c0.1-0.5,0.3-1.6,0.3-1.8c0,0.2,0,0.4-0.1,0.6c0-0.3,0-0.6,0-1c0-0.2,0.1-0.4,0.1-0.6
							c0-0.2,0.1-0.5,0.1-0.7c0.1,0,0.2-0.2,0.3-0.5c-0.2-0.1-0.6-0.1-1-0.2c-0.4-0.1-0.8-0.2-1.2-0.2c-0.1,0.4-0.2,0.7-0.2,1
							c-0.1,0.2-0.1,0.4-0.2,0.5c-0.2,1.6-0.7,3.2-1,5.1c0.4-0.6-0.1,0.6,0.2,0.5c-0.1,0.4-0.1,0.6-0.1,0.6L65,37.3
							c-0.1,0.3,0-0.4,0-0.4c-0.2,1-0.2,0.4-0.4,1c0.1-0.1,0.1,0.4-0.1,0.9l0.3-0.7c-0.1,1.4-0.4,1.1-0.6,2.5l0-0.4
							c-0.1,0.7-0.5,2.6-0.4,3.3c-0.1,0.1-0.2,0.3-0.1,0c-0.4,1.7-0.5,3.7-0.9,5l0-0.1c0,0.3,0,0.6-0.1,0.9c0,0,0-0.1-0.1,0
							c0,0.2,0,0.8-0.2,1.2l0-0.4c-0.4,1.6-0.3,2.5-0.5,3.9c-0.2,0-0.5,1.2-0.6,1.9l0,0c-0.4,1.9-0.5,3.2-0.7,5
							c-0.4,1-0.8,3.7-1.2,5.4c0.1-0.3,0.1,0.1,0.1,0.4c-0.1,0.4-0.1,1.2-0.2,1.1l0-0.1c-0.2,0.3-0.3,1.1-0.5,1.8l0.2,0.2
							c-0.7,1.7-0.7,4.5-1.2,5.4c0,0.4-0.1,0.9-0.1,1.4l-0.1,0c-0.3,1.1-0.4,1.7-0.6,3.1l0-0.3c-0.2,0.8,0.2,1.1,0,1.8L56.5,81
							c-0.3,1.4-0.7,2.8-0.8,4.2c0,0-0.1-0.1,0-0.3c-0.1,0.7-0.6,2.5-0.3,2.3c-0.2,0-0.3,1.4-0.4,2.2l-0.1-0.1
							c0,0.7,0.1,0.7-0.1,1.6c-0.1,0.2-0.1,0.2,0-0.1c-0.2,0.7,0,0.6-0.2,1.4l0-0.3c-0.1,0.7-0.1,0.7-0.1,1.1c0,0.5-0.3,1.4-0.4,1.5
							c0,0.1,0.1,0.5-0.1,0.9c-0.1,0,0-0.1,0-0.2c-0.3,1.2-0.2,1.8-0.5,2.6c0,0-0.1,0.1-0.1,0.1c0.2-1,0.3-1.7,0.3-1.7
							c-0.1,0-0.3,0.8-0.3,0.1c0,0.6-0.1,1.7-0.3,2.5c0,0,0,0.1-0.1,0.1l0-0.1c0,0.2-0.1,0.3-0.1,0.5c-0.1,0.2-0.1,0.4-0.2,0.6
							c-0.1,0.1-0.2,0.9-0.3,1.3c0.1,0,0,0.5,0.2,0c0,0.1,0-0.1,0-0.3c0-0.1,0-0.1,0-0.2l0,0c0-0.3,0.1-0.6,0.2-1
							c0,0.3,0,0.6-0.2,1.1c0,0.2,0.1,0.4,0.1,0.6c-0.3,0.5-0.6,1.5-0.7,1.6c-0.2,1.2-0.5,2.8-0.4,3.6c0,0.3-0.1,0.4-0.2,0.5
							c0-0.2,0.1-0.4,0.1-0.5c-0.1,0.7-0.4,2-0.2,2.2c-0.2,0.8-0.1-0.5-0.3,0.7l0-0.2c-0.7,2.2-0.3,3.8-1.1,6.3
							c0.1-0.2,0.1-0.3,0.1-0.3c-0.7,2.9-1,6-1.8,8.8c-0.2,0.8-0.1,0.9-0.1,1.4l-0.2,0.2l0,0.9c-0.1,1.2-0.7,2-0.8,3.6l0.1-0.2
							c-0.1,0.5-0.3,1.7-0.4,1.6c0,0.1,0.1,0.2,0,0.4l-0.1,0l-0.1,1.4c-0.1,0.5-0.2,0.5-0.2,0.5c-0.1,0-0.1,0-0.4,1.1
							c0,0,0.1,0,0.2,0c0.2,0,0.5,0.1,0.8,0.1c0.3,0,0.4,0,0.6,0c0.3,0,0.5,0,0.4,0c-0.2,0-0.6-0.2-0.6-0.2l0.5,0.1
							c0.1-0.2,0.5-0.3-0.6-0.7c-0.1,0-0.2,0-0.3,0l0-0.1c0,0,0.1-0.1,0.1-0.1l0,0.2l0.1,0c0,0,0,0,0,0c0-0.1,0-0.1,0-0.3
							c0.1-0.1,0.1-0.2,0.2-0.3l0-0.9c0.1-0.1,0.1,0.4,0.2-0.2c0-0.4-0.2,0.4-0.2-0.3c0.2-0.4,0.2-0.3,0.2-0.8
							c0.1-0.1,0.1,0.1,0.1,0.3c0-0.5,0.2-1.2,0.1-1.4c0.2-0.4,0.3-1.5,0.4-1.4c0-0.1,0-0.8,0.1-1.2c0.1,0.8,0.3-1.5,0.5-1.3
							c-0.1-0.6,0.3-2,0.4-3c0,0.1,0,0.2,0,0.3c0.1-0.5,0.2-0.7,0.3-1c-0.2-0.1,0-1,0-1.4c0.3-0.6,0.1,0.4,0.3,0.3
							c-0.1,0,0.1-1.2-0.1-1c0.2-0.5,0.1-0.4,0.3-0.7c-0.2-0.1,0.1-0.5,0-0.9c0.2-0.7,0.2-0.2,0.3-1
							C50.6,117.4,50.6,118.1,50.6,118.1z M53.9,98.7L53.9,98.7c0,0.2-0.1,0.3-0.1,0.4C53.9,99.1,53.9,98.9,53.9,98.7z M54.2,97.1
							c0,0.2-0.1,0.4-0.1,0.7c-0.1,0-0.1,0,0-0.2C54,97.7,54.1,97.3,54.2,97.1z M52.7,100.4c0-0.3,0.1-0.3,0.1-0.4
							C52.8,100.1,52.8,100.3,52.7,100.4c0,0.1,0,0.1,0,0.1C52.8,100.5,52.7,100.4,52.7,100.4z"/>
						<path fill="#202020" d="M52.8,100.9c0,0,0,0.1,0,0.1C52.8,100.9,52.8,100.9,52.8,100.9c0-0.1,0-0.1,0-0.1
							C52.8,100.8,52.8,100.8,52.8,100.9z"/>
						<path fill="#202020" d="M54.6,102.5L54.6,102.5C54.6,102.5,54.6,102.6,54.6,102.5C54.6,102.6,54.6,102.6,54.6,102.5z"/>
						<polygon fill="#202020" points="58.8,74.7 58.7,74.7 58.7,74.9 						"/>
						<path fill="#202020" d="M52.5,111.4c0,0,0,0-0.1,0.1C52.5,111.5,52.5,111.5,52.5,111.4z"/>
						<path fill="#202020" d="M51.7,115.3l-0.1,0.5C51.6,115.6,51.7,115.4,51.7,115.3z"/>
						<path fill="#202020" d="M51.1,118.2C51.1,118.3,51.1,118.3,51.1,118.2L51.1,118.2L51.1,118.2z"/>
						<path fill="#202020" d="M60,70.9c0,0,0-0.1,0-0.1C60.1,70.5,60,70.7,60,70.9z"/>
						<path fill="#202020" d="M57.6,85.1c0-0.2,0-0.3,0-0.5C57.6,84.8,57.5,85,57.6,85.1z"/>
						<polygon fill="#202020" points="62.9,55.2 62.9,55.2 62.9,55.1 						"/>
						<path fill="#202020" d="M57.8,83.9c-0.1,0.2-0.1,0.5-0.1,0.7C57.7,84.4,57.7,84.2,57.8,83.9z"/>
						<path fill="#202020" d="M48.6,131.1l0,0.1c0,0,0,0,0,0L48.6,131.1z"/>
						<path fill="#202020" d="M48.6,131.3l0,0.2C48.6,131.4,48.6,131.3,48.6,131.3z"/>
						<path fill="#202020" d="M48.5,131.8l0-0.3C48.5,131.5,48.5,131.7,48.5,131.8z"/>
						<path fill="#202020" d="M49.4,127.2L49.4,127.2C49.4,127.2,49.4,127.2,49.4,127.2z"/>
						<path fill="#202020" d="M49.6,126c-0.1,0.3-0.2,0.7-0.3,1.1l0,0C49.3,126.9,49.6,126.3,49.6,126z"/>
						<path fill="#202020" d="M51.1,121.1l-0.2,1c0.1-0.2,0.2-0.4,0.1,0.1C51.4,120.9,50.8,122.4,51.1,121.1z"/>
						<path fill="#202020" d="M51.8,118C51.7,118.5,51.8,118,51.8,118C51.9,117.7,51.9,117.6,51.8,118z"/>
						<path fill="#202020" d="M56.1,95.5L56.1,95.5C56.2,95.2,56.1,95.6,56.1,95.5z"/>
						<polygon fill="#202020" points="56.3,91.1 56.2,91.5 56.2,91.7 						"/>
						<polygon fill="#202020" points="57.6,88.8 57.6,88.9 57.7,88.2 						"/>
						<path fill="#202020" d="M64.8,51l-0.2,0.1C64.6,51.4,64.7,51.5,64.8,51z"/>
						<path fill="#202020" d="M67.8,34.7c0.1-0.2,0.2-0.6,0.2-0.9C67.9,34.2,67.8,34.5,67.8,34.7z"/>
						<polygon fill="#202020" points="58.5,70.2 58.5,69.9 58.5,70.5 						"/>
					</g>
				</g>
			</g>
		</g>
	</g>
	<g>
		<g>
			<g>
				<g>
					<g>
						<path fill="#202020" d="M79.2,117c0,0.1,0.1,0,0.1-0.3l-0.1-0.2L79.2,117z"/>
						<path fill="#202020" d="M79.5,114.9c-0.1-0.4-0.2-0.8-0.3-0.6c0.1,0.4,0.1,0.5,0.2,0.9c0,0.3,0,0.6-0.1,0.5
							c0,0.1,0,0.5,0.1,0.7C79.5,115.9,79.5,115.4,79.5,114.9C79.4,114.7,79.5,114.9,79.5,114.9z"/>
						<path fill="#202020" d="M79.7,83.9l0,0.2C79.7,84,79.7,83.9,79.7,83.9z"/>
						<path fill="#202020" d="M79.8,64.7c0,0.1,0,0.2,0,0.2C79.8,64.7,79.8,64.6,79.8,64.7z"/>
						<path fill="#202020" d="M80,61.4c0,0.1,0,0.1,0,0.2C80,61.5,80,61.4,80,61.4z"/>
						<path fill="#202020" d="M79.7,83.9l0-0.5C79.7,83.3,79.7,83.6,79.7,83.9z"/>
						<path fill="#202020" d="M79.2,110.6c0,0.1,0,0.2,0,0.3L79.2,110.6C79.2,110.6,79.2,110.6,79.2,110.6z"/>
						<path fill="#202020" d="M79.8,92.3l0,0.2c0,0,0,0.1,0.1,0.1L79.8,92.3z"/>
						<path fill="#202020" d="M79.9,98.8c0-0.1-0.1-0.2-0.2-0.3C79.7,98.7,79.8,98.8,79.9,98.8C79.8,98.9,79.8,98.9,79.9,98.8z"/>
						<path fill="#202020" d="M79.6,109.1l0,0.2C79.7,109.3,79.7,109.2,79.6,109.1z"/>
						<path fill="#202020" d="M79.9,87.7C79.9,87.7,79.9,87.7,79.9,87.7C79.9,87.6,79.9,87.7,79.9,87.7z"/>
						<path fill="#202020" d="M78.5,111C78.5,111,78.5,111,78.5,111C78.5,111.1,78.5,111.1,78.5,111z"/>
						<path fill="#202020" d="M79.5,117l-0.1,0c0,0,0,0,0,0.1L79.5,117z"/>
						<path fill="#202020" d="M80.1,55.4C80.1,55.4,80.1,55.4,80.1,55.4C80.1,55.6,80.1,55.5,80.1,55.4z"/>
						<path fill="#202020" d="M77.5,16.7c0.1-0.6,0.1,1,0.3,0.1C77.7,16.8,77.5,15.9,77.5,16.7z"/>
						<path fill="#202020" d="M79.2,110.4l0-0.3C79.2,110.3,79.2,110.4,79.2,110.4z"/>
						<path fill="#202020" d="M77.7,16.7L77.7,16.7L77.7,16.7C77.7,16.7,77.7,16.7,77.7,16.7z"/>
						<path fill="#202020" d="M80,41.5c0,0,0,0.1-0.1,0.1C80,41.7,80,41.6,80,41.5z"/>
						<path fill="#202020" d="M79.9,51.8l0-0.3C79.9,51.7,79.9,51.8,79.9,51.8z"/>
						<path fill="#202020" d="M79.9,36.2c0-0.1,0-0.2,0-0.4c0,0,0,0,0,0.1C79.9,35.9,79.9,36,79.9,36.2z"/>
						<path fill="#202020" d="M79.9,30.6c0,0,0,0.1,0,0.1c0,0.1,0,0.1,0,0.2L79.9,30.6z"/>
						<path fill="#202020" d="M78.5,94.1c0,0.1-0.1,0.2-0.1,0.3C78.5,94.3,78.5,95.1,78.5,94.1z"/>
						<path fill="#202020" d="M79.2,110.6c0,0,0-0.1-0.1-0.2C79.2,110.5,79.2,110.6,79.2,110.6C79.2,110.6,79.2,110.6,79.2,110.6z"
							/>
						<path fill="#202020" d="M78.9,36l0-0.9C78.9,35.3,78.9,35.6,78.9,36z"/>
						<path fill="#202020" d="M78.5,54.2l0,0.2C78.5,54.3,78.5,54.2,78.5,54.2z"/>
						<path fill="#202020" d="M78.9,32.5c0-0.2,0.1-0.3,0.1-0.5c0,0,0-0.1,0-0.1L78.9,32.5z"/>
						<path fill="#202020" d="M78.4,94.4L78.4,94.4L78.4,94.4z"/>
						<path fill="#202020" d="M78.7,100.2c0-0.8-0.2-0.4-0.2-0.6c0-1,0.1-0.5,0.2-0.8c0-0.6-0.2-1.1-0.2-1.6c0,0,0-0.1,0.1,0
							c-0.1-0.7,0-2-0.2-2.7c0-0.1,0-0.1,0-0.1c-0.1,0.1-0.2,0.1-0.2,0.1c0-0.4-0.1-0.7,0-0.8c0,0.2,0,0.3,0.1,0.4l0-0.4
							c0.1-0.4,0.1,0.5,0.2,0.5c0-0.8-0.2-1.7-0.1-2.3c0.1-0.1,0,1.4,0.2,0.6l-0.1,0.9c0.2-0.7,0,0.6,0.2-0.1c0-1.2-0.1-1.3,0-2.5
							c-0.1-0.3-0.1,0.1-0.2-0.2c-0.1-1.7,0.4-1.3,0.2-2.6c-0.1-0.3-0.3-0.5-0.2-1.3l0.2,0.3c0-1.2-0.2-0.7-0.1-1.9
							c0.1,0.2,0.1,0.9,0.1,0.7c0.1-0.8-0.1-0.6-0.1-1.2l0.1-0.1c0-1.2-0.1-2.6-0.2-4c0,0.1,0.1,0.3,0.1,0c-0.1-1.7,0-3.7,0.1-5.4
							l-0.1-0.6c0-0.1,0.1-0.3,0.1-0.1c0-0.7-0.1,0-0.1-0.3c0-0.4,0.1-0.5,0.1-0.3c-0.1-1.2-0.2-3.3-0.1-4.5l0,0.2
							c0.1-0.9-0.3-1.1-0.1-1.9l0,0.2c0.1-2-0.1-4.3,0.1-5.9c-0.2-0.3,0.1-2-0.2-2.2c0.1-1.2,0.2-0.8,0.3-2.5c0-0.4-0.2-0.7-0.2-1.2
							l0.1,0l-0.1-0.7l0.2-0.4l0-0.5c0,0.2-0.1,0.4-0.1,0.4c-0.1-0.8,0.1-1.9,0.2-2l-0.1-1.9c0.1,0,0.1,0.4,0.1,0.6
							c-0.1-1,0.1-0.2,0-1.1c0,0.1-0.1-0.1-0.1-0.1c0.1-0.5,0.1-1.5,0-2.3l0.1,0.1c0-1.4,0-2.9,0-4.5c0,0.6-0.2,0.4-0.2,0l0.1-0.2
							c-0.1-0.3-0.1,0.5-0.2-0.1c0-0.6,0.2-0.4,0.2-0.1l0-0.7c0,0,0.1,0.1,0.1,0.2c-0.1-0.3,0.1-1.2,0-1.7l0,0c0-1.6,0-2.3-0.1-3.6
							c-0.1,0-0.1-0.5-0.2-0.9c0-0.9,0.1-2,0.1-3.1c-0.1-0.8-0.1-0.2-0.2-0.6c0.1-0.1,0.1-1.2,0.2-0.6c0-1.4,0-1.7-0.1-3.5
							c0,0.2-0.1,0.4-0.1,0.3c0-0.3,0-0.7,0.1-0.7l0,0.1c-0.2-1.9,0.3-4.5,0.1-6l0,0.1L78.4,21c0-0.7,0.1,0.4,0.2-0.1
							c-0.2-1.7,0-2.7-0.1-4.1c0.3-1.1,0-3.9,0.2-5.4l-0.1,0.1c-0.1-0.4,0-0.5,0.1-0.7c-0.1,0-0.1,0.4-0.1,0.2c0-0.4,0-0.8,0-1.2
							c0.1,0,0.5,0,0.6,0c-0.1,2.1-0.1,4.2-0.2,6.2c0,1.2,0.4,0.7,0.2,2.2l-0.1-0.4c0.2,2.4,0,5,0.1,7.4C79,25,79,25,79,24.8
							c-0.1,0.5,0,1.9,0.1,1.9c0,0.4-0.1,0.1-0.1,0.3c-0.1,0.5,0.1,1.3,0,1.5c0,0,0-0.1,0-0.2c0.1,0.3,0,1.5,0.1,1.2
							c-0.1,0.9,0.1,1.7,0,2.4c0.1,0.5-0.1,1.5,0.1,1.7c-0.2-0.1-0.2,1.6-0.1,2.1c-0.1-0.2-0.1,0.5-0.1,0.3c0,0.6,0,1.2,0.1,1.1
							c-0.2,1.2,0.2,2.4-0.1,3.1c0.1,1.9,0.2,3.7,0.2,5.4c-0.2-0.1,0-1.9-0.2-1.8c0.1,1.6,0.2,2.6,0.2,4.2c0,0.4-0.1-0.2-0.1-0.4
							c0.1,1.6,0,3.2,0.1,4.6c0,0,0-0.2-0.1-0.3c0,0.3,0,0.7,0.1,0.6l0-0.3c0.1-0.5,0.3,1.1,0.3,1.2c-0.3-0.5-0.1,1.4-0.4,0.7
							c0,0.2,0.1,0.4,0.1,0.4c0,0.3-0.1,0.4-0.1,0.1c0,1,0.1,0.7,0.1,1.6c0,0-0.1-0.2-0.1-0.3c0.1,0.5,0.2,0.9,0.1,1.7
							c0,0-0.1,0-0.1-0.2c0,1.4,0.2,2.3,0.1,3.8c-0.2-0.4-0.1,0.5-0.2,0.6l0,0.8l0.1-0.3c0,0.7,0.1,1.3,0.1,1.9l-0.1-0.5l0,1.3
							l0.1-0.7c0.1,0.7,0.2-0.1,0.2,0.9c0-0.2,0,0.7-0.1,1.1l0,0c0.1,0.3,0.1,0.7,0.1,1.2c-0.1,0.1-0.2-0.1-0.2,0
							c0.1,0.3,0,1.6,0.2,2.1c0-0.1-0.1-0.2-0.1-0.1l0.1,0.3c0,0.3-0.1,0.4-0.1,0.3c0,1,0.2-0.3,0.1,0.9c0-0.1,0,0,0-0.2
							c0,1.2,0.1,2.3,0,3.3c-0.2,0.3,0-0.9-0.2-0.6c0,1.5,0.2,3.2,0.2,4.7l0-0.3c0.2,0.2-0.1,1.1,0,1.9c0-0.2-0.1-0.2-0.1-0.2
							c0,1,0.1,2.1,0.1,3.6l-0.1-0.2c-0.1,0.6,0,1.6-0.1,2.2c0.1,0.2,0,0.6,0.1,0.3c-0.3,2,0.2,3.8-0.1,5.6c0-0.2-0.1-0.5-0.1-0.3
							l0.1,1.5c0.1-0.1,0.1-0.2,0.1-0.5c0.1,0.2,0.1,0.6,0.1,1c-0.1-0.7-0.2,0-0.2,0.3c0,0,0.1,0.1,0.1,0c-0.2,0.8,0.2,0.1,0.1,1.2
							l-0.1-0.1c0,0.4,0.1,0.8,0.1,1.2c-0.1,0.2-0.1-0.4-0.1-0.5c0,0.6,0.2,1.2,0.1,1.8c0-0.3,0-0.6-0.1-0.9
							c-0.1,0.6-0.1,0.7-0.1,1.1l0,0l-0.1,1l0-0.3c0.3,0.8,0.1,1.6,0.3,2.6c-0.2-1-0.1-0.2-0.2-0.2c0,0.3-0.1,0.7-0.1,0.6
							c0.1,0.5-0.1,0.8,0.1,1.5c0,0,0,0.5-0.1,0.4c0,0.6,0.1-0.2,0.1-0.1c0.1,1-0.2,2.3,0,3.7c0.1,1.2,0.2,1.4,0.3,2.6
							c-0.1,0.4-0.2-0.3-0.2-0.3c-0.1,0.6-0.1,1.1,0,1.7c0-0.1-0.1,0-0.1,0.2c0,0.5,0.2,0.3,0.1,0.9c0-0.1-0.1-0.2-0.2-0.5
							c0.1,0.5,0.1,1.1,0.2,1.7c-0.1,0.2-0.1-0.3-0.2-0.5c0,0.6,0.1,1.7,0.2,1.8l0-0.4c0,0.2-0.1,0.1-0.1-0.1
							c-0.1-0.5,0-0.8,0.1-0.8l0,0.4c0.2-0.4,0-1.6,0-2.4l0.2,0.3l-0.1-0.8c0-0.2,0.1-0.3,0.2,0.1c0.1-0.6-0.1-0.5,0-1
							c0-0.1,0,0,0,0l-0.1-0.6c0,0.1,0.1-0.1,0.1,0.3c0.1-1-0.1-1.6,0-2l0,0.1c-0.1-1.4-0.1-0.1-0.3-1.2l0.3-0.7l-0.1-0.1
							c0-0.1,0-0.4,0.1-0.4c-0.1-0.5-0.1,0.1-0.1-0.2c0.1-0.7-0.1-1.9,0.2-2.1c-0.1-0.3-0.1,0.7-0.1-0.1c0.2-0.2,0-0.9,0.1-1.5
							c0.1,0.2,0.1,0.8,0.2,0.2c-0.2-0.4,0-1.3,0-1.8c-0.2,0-0.1-1.2-0.1-2.1c0.1,0.1,0.1-1.7,0.1-2.6l0,0c-0.2-0.2-0.1-1-0.2-1.7
							c0.1,0,0.1,0.1,0.2,0.5l0-0.6c-0.1-0.1-0.1-0.3-0.1-0.7l0.1,0.2c0-0.8-0.1-1.6-0.1-2.6c-0.1-0.1-0.3,0.8-0.4-0.3
							c0.1,0,0.2-0.1,0.2,0.2c0-0.1,0-0.3,0-0.5l0.1,0.4c0-0.5-0.1-0.2-0.1-0.6c0.1,0,0.1-0.3,0.1-0.2c0,0.1,0,0.3,0,0.5
							c0-0.4,0.1-0.9,0.1-1.1c0,0-0.1,0-0.1-0.3c0-0.8,0.1-0.3,0.1-0.7c-0.1-0.2,0-0.7-0.1-0.7c0-0.2,0.1-0.3,0.1-0.4
							c-0.1-0.4,0-1.9-0.2-1.5l0,0.1c0,0,0,0,0-0.1v0v0c-0.1-1.3,0.1-2.8,0-4.1l0,0c0-0.8,0-1.8-0.1-2.3c0-0.2,0.1-0.6,0.1-0.5
							c0-0.6-0.1-0.7,0-1.6c0.1,0.6,0.1-0.2,0.1,0.6c0-0.8,0.1-1,0-1.8c0.1,0.3,0.1-0.6,0.1-1L79.8,74c0-0.4,0-0.8,0-1.2l0.1,0.2
							c0.2-1.6-0.3-2.9,0-4.2c-0.1-0.4-0.1,0.9-0.2,0.5c0-0.7,0.2-1.5,0.2-1.8c0.1-1-0.2-1-0.2-2c-0.1,0.1-0.2,0.3-0.2-0.5
							c0-0.7,0.2-0.9,0.3-0.4c0,0.2,0,0.3,0,0.3c0,0.2,0,0.6,0.1,0.3L79.9,65c0.1-0.4,0-1.4,0.1-1.2c0-0.6-0.1-0.2-0.1,0.2
							c0.1-1,0-1.5,0.1-2.5c0,0.2-0.1,0.3-0.1,0.1c0.1-1.4-0.1-0.6-0.1-1.6c0.1-0.6,0.2,0.2,0.1-0.8c0.1-0.6,0.1-0.1,0.2,0.1
							c-0.1-0.9,0.1-1.7,0.1-2.2l0,0.5c0-0.3,0-0.5,0-0.8L80,57.2c0-0.3,0-0.5,0.1-0.5c-0.1-0.3-0.2,0.2-0.3-0.3
							c0.1-0.4-0.1-1.1,0.1-1.3c0,1.2,0.1-0.1,0.2,0.9c0-0.2,0-0.4,0-0.7c0,0,0,0,0,0.1c0.1-1.1-0.2-0.5-0.2-1.7
							c0.1,0.1,0.1-0.3,0.1-0.5c0,0.5-0.1,0.2-0.2-0.2c0.1-0.7,0-0.8,0-1.2l0,0.4c-0.1-0.2-0.1-0.5-0.1-1c0.1,0,0,0.5,0.1,0.3
							c-0.1-0.6,0.1-1.3,0-2.1c0.1-0.4,0.1,0,0.2-0.4c-0.1-0.9,0.1-1,0-1.9c-0.1,0.3-0.1,0.3-0.2-0.3l0.1,1.6l-0.1-1
							c0,0.5,0.1,1,0,1.3c-0.1-0.5-0.1-0.4-0.1-0.2c0.2-0.6-0.1-1.3,0-2l0.3,0c0.1-1.1-0.1-2-0.1-3.4l0,0.5c-0.1-0.2,0-0.9-0.1-1.4
							c0.1,0,0.1-0.2,0.2-0.4c-0.1,0,0-1.1-0.2-1.2l0.1-0.6c0-1.2-0.2-1.3-0.2-2.5c0.1,0.3,0.2-0.2,0.2,0.6c0-0.4,0-0.7,0-0.7
							c0.1-0.2-0.1-1,0-1.4c0-0.2-0.1-0.2-0.1-0.6c0,0,0,0,0,0c0,0-0.1-0.7-0.2-0.3c0.3-1.2,0-3.2,0.2-4.2c0-0.8,0-1.8-0.1-2.5
							c0,0,0,0,0,0.1c0.1-1-0.2-0.6-0.2-1.8c0.1-0.6,0.1,0.6,0.1,0.2c0.3-0.2,0-1.4,0.1-2.2l0,0.2c0.1-0.6-0.1-1.5-0.1-2.4
							c0,0,0,0,0,0c-0.1-0.7-0.2-1.9-0.2-2.9c0.1,0.3,0.1,0.4,0.2,0.2c0-0.4-0.2,0.1-0.2-0.7c0.1-0.3,0.1-0.9,0.2-1l0,0.8
							c0.2-0.4,0-1,0-1.4l0.1,0.1c0-1.2-0.2-1.2-0.2-2.5L79.7,15c-0.2-0.7,0.1-0.6,0-1.3l0.2-0.2c0-0.5-0.2-1.7-0.2-2.5
							c0.1,0.5,0.2,1.5,0.3,2.1c0-0.5,0-1.6-0.1-1.8c0,0.2,0.1,0.4,0,0.6c-0.1-0.3-0.1-0.6-0.1-1c0-0.2,0-0.4,0-0.6
							c0-0.2,0-0.5,0-0.7c0.1,0,0.1-0.2,0.2-0.6c-0.2,0-0.6,0-1,0c-0.4,0-0.8,0-1.2,0c0,0.4,0,0.7,0,1c0,0.2,0,0.4-0.1,0.5
							c0.1,1.6-0.1,3.3,0,5.2c0.3-0.7,0,0.6,0.3,0.4c0,0.4,0,0.6,0,0.7l-0.2,1.4c-0.1,0.3-0.1-0.4-0.1-0.4c0,1-0.1,0.4-0.2,1.1
							c0.1-0.1,0.1,0.3,0.1,0.9l0.1-0.8c0.1,1.4-0.2,1.2-0.1,2.6L77.3,21c0,0.7,0,2.6,0.2,3.3c0,0.1-0.1,0.3-0.1,0
							c0,1.7,0.2,3.8,0.1,5.1l-0.1-0.1c0,0.3,0.1,0.5,0.1,0.9c0,0-0.1-0.1-0.1,0c0,0.2,0.1,0.8,0.1,1.3l-0.1-0.4
							c-0.1,1.7,0.2,2.5,0.2,3.9c-0.2,0-0.3,1.3-0.3,1.9l0,0c0,1.9,0.2,3.3,0.2,5c-0.2,1.1-0.1,3.7-0.2,5.5c0-0.3,0.1,0,0.2,0.4
							c0,0.4,0.1,1.2,0,1.1l0-0.1c-0.2,0.3-0.1,1.2-0.1,1.8l0.2,0.1c-0.3,1.8,0.1,4.6-0.2,5.5c0.1,0.4,0.1,0.9,0.1,1.4l-0.1,0
							c0,1.2,0,1.8,0,3.2l-0.1-0.3c0,0.8,0.4,1,0.4,1.8l-0.2,0.2c0,1.4-0.2,2.9,0,4.3c0,0-0.1-0.1-0.1-0.3c0,0.7-0.1,2.6,0.1,2.3
							c-0.2,0,0,1.5,0.1,2.2L77.5,71c0.2,0.6,0.2,0.7,0.2,1.6c0,0.2-0.1,0.2-0.1-0.1c-0.1,0.7,0.1,0.6,0,1.4l-0.1-0.3
							c0,0.7,0,0.7,0.1,1.1c0,0.5,0,1.4-0.1,1.5c0.1,0.1,0.2,0.5,0.1,0.9c0,0.1-0.1-0.1-0.1-0.2c-0.1,1.2,0.1,1.8,0,2.7
							c0,0-0.1,0.1-0.1,0.1c0-1,0-1.8,0-1.7c-0.1,0-0.1,0.8-0.3,0.2c0.1,0.6,0.3,1.7,0.2,2.5c0,0,0,0.1,0,0.1l0-0.1
							c0,0.2,0,0.3,0,0.5c0,0.2,0,0.4,0,0.6c-0.1,0.1,0,0.9-0.1,1.3c0.1,0,0.1,0.5,0.2,0c0,0.1,0-0.1,0-0.3c0-0.1,0-0.1,0-0.2l0,0
							c0-0.3,0-0.6,0-1c0.1,0.3,0.1,0.6,0,1.1c0.1,0.2,0.2,0.4,0.2,0.5c-0.2,0.5-0.3,1.6-0.4,1.7c0.1,1.2,0,2.8,0.3,3.6
							c0,0.3-0.1,0.4-0.1,0.5c0-0.2,0-0.4-0.1-0.5c0.1,0.7,0,2,0.2,2.2c-0.1,0.9-0.1-0.5-0.1,0.7l0-0.2c-0.3,2.3,0.4,3.8,0.1,6.4
							c0-0.2,0-0.3,0.1-0.3c-0.1,2.9,0.1,6.1-0.1,9c0,0.8,0.1,0.9,0.1,1.4l-0.1,0.2l0.2,0.9c0.1,1.2-0.3,2.1-0.1,3.7l0.1-0.2
							c0,0.6,0.1,1.8,0,1.7c0,0.1,0.1,0.2,0,0.4l-0.1,0l0.1,1.4c0,0.5-0.1,0.5-0.1,0.5c-0.1,0-0.1,0.1-0.1,1.2c0,0,0.1,0,0.2,0
							c0.2,0,0.5,0,0.8,0c0.3,0,0.4,0,0.6-0.1c0.3-0.1,0.5-0.1,0.4-0.1c-0.2,0-0.6,0-0.6-0.1l0.5,0c0.1-0.2,0.5-0.4-0.8-0.5
							c-0.1,0-0.2,0.1-0.3,0.1l0-0.1c0,0,0.1-0.2,0.1-0.2l0,0.2l0.1,0c0,0,0,0,0,0c0-0.1,0,0-0.1-0.3c0.1-0.1,0.1-0.2,0.1-0.4
							l-0.2-0.9c0.1-0.1,0.2,0.4,0.2-0.2c-0.1-0.4-0.2,0.4-0.2-0.3c0.1-0.4,0.2-0.3,0.1-0.8c0.1-0.1,0.1,0,0.1,0.2
							c-0.1-0.4,0-1.2-0.1-1.4c0.1-0.4,0-1.5,0.2-1.5c0-0.1-0.1-0.8-0.2-1.2c0.2,0.8,0-1.5,0.3-1.3c-0.2-0.6-0.1-2-0.2-3
							c0,0.1,0,0.2,0,0.3c0-0.6,0.1-0.7,0.1-1.1c-0.2-0.1-0.2-0.9-0.3-1.4c0.2-0.7,0.2,0.4,0.4,0.2c-0.1,0-0.1-1.2-0.3-1
							c0.1-0.5,0-0.4,0.2-0.7c-0.2-0.1,0-0.5-0.2-0.9c0.1-0.8,0.2-0.2,0.1-1C78.6,99.5,78.7,100.2,78.7,100.2z M78.3,80.5L78.3,80.5
							c0,0.2,0,0.3,0,0.4C78.3,80.8,78.3,80.7,78.3,80.5z M78.3,78.8c0,0.2,0,0.5,0,0.7c0,0.1-0.1,0-0.1-0.2
							C78.2,79.5,78.3,79.1,78.3,78.8z M77.5,82.3c0-0.3,0-0.3,0-0.4C77.5,82.1,77.5,82.2,77.5,82.3l0.1,0.1
							C77.5,82.4,77.5,82.4,77.5,82.3z"/>
						<path fill="#202020" d="M77.6,82.8c0,0,0,0.1,0,0.1C77.6,82.9,77.6,82.8,77.6,82.8l0-0.1C77.6,82.7,77.6,82.8,77.6,82.8z"/>
						<path fill="#202020" d="M79.7,84.1L79.7,84.1C79.7,84.1,79.7,84.1,79.7,84.1C79.7,84.1,79.7,84.1,79.7,84.1z"/>
						<polygon fill="#202020" points="78.5,56 78.5,56 78.5,56.1 						"/>
						<path fill="#202020" d="M79.3,93.2c0,0,0,0.1,0,0.1C79.3,93.3,79.3,93.3,79.3,93.2z"/>
						<path fill="#202020" d="M79.3,97.2l0,0.6C79.2,97.5,79.2,97.3,79.3,97.2z"/>
						<path fill="#202020" d="M79.2,100.2C79.2,100.2,79.2,100.2,79.2,100.2L79.2,100.2L79.2,100.2z"/>
						<path fill="#202020" d="M79.1,52.1c0,0,0-0.1,0-0.1C79,51.7,79,51.9,79.1,52.1z"/>
						<path fill="#202020" d="M79.3,66.4c0-0.2,0-0.3-0.1-0.5C79.3,66.2,79.3,66.4,79.3,66.4z"/>
						<polygon fill="#202020" points="78.9,36.1 78.9,36.1 78.9,36 						"/>
						<path fill="#202020" d="M79.3,65.3c0,0.3,0,0.5,0,0.7C79.3,65.7,79.3,65.5,79.3,65.3z"/>
						<path fill="#202020" d="M79.1,113.3l0,0.1c0,0,0,0,0,0L79.1,113.3z"/>
						<path fill="#202020" d="M79.2,113.5l0,0.2C79.2,113.6,79.2,113.5,79.2,113.5z"/>
						<path fill="#202020" d="M79.2,114l0-0.3C79.2,113.7,79.2,113.9,79.2,114z"/>
						<path fill="#202020" d="M79.2,109.3L79.2,109.3C79.2,109.3,79.2,109.3,79.2,109.3z"/>
						<path fill="#202020" d="M79.2,108.1c0,0.3-0.1,0.7-0.1,1.1l0,0C79.1,109.1,79.3,108.4,79.2,108.1z"/>
						<path fill="#202020" d="M79.7,103l0,1c0-0.2,0.1-0.4,0.1,0.1C80,102.8,79.7,104.3,79.7,103z"/>
						<path fill="#202020" d="M79.8,99.8C79.8,100.4,79.9,99.8,79.8,99.8C79.9,99.5,79.8,99.4,79.8,99.8z"/>
						<path fill="#202020" d="M79.8,77l0.1,0.1C79.9,76.6,79.9,77,79.8,77z"/>
						<polygon fill="#202020" points="79.2,72.6 79.2,73 79.3,73.2 						"/>
						<polygon fill="#202020" points="80,70 80,70.2 80,69.5 						"/>
						<path fill="#202020" d="M80,31.6l-0.1,0.1C79.9,32,80,32.1,80,31.6z"/>
						<path fill="#202020" d="M79.8,15c0.1-0.2,0.1-0.6,0-0.9C79.9,14.5,79.8,14.8,79.8,15z"/>
						<polygon fill="#202020" points="77.4,51.6 77.4,51.3 77.4,51.9 						"/>
					</g>
				</g>
			</g>
		</g>
	</g>
	<g>
		<g>
			<g>
				<g>
					<g>
						<path fill="#202020" d="M79.2,117c0,0.1,0.1,0,0.1-0.3l-0.1-0.2L79.2,117z"/>
						<path fill="#202020" d="M79.5,114.9c-0.1-0.4-0.2-0.8-0.3-0.6c0.1,0.4,0.1,0.5,0.2,0.9c0,0.3,0,0.6-0.1,0.5
							c0,0.1,0,0.5,0.1,0.7C79.5,115.9,79.5,115.4,79.5,114.9C79.4,114.7,79.5,114.9,79.5,114.9z"/>
						<path fill="#202020" d="M79.7,83.9l0,0.2C79.7,84,79.7,83.9,79.7,83.9z"/>
						<path fill="#202020" d="M79.8,64.7c0,0.1,0,0.2,0,0.2C79.8,64.7,79.8,64.6,79.8,64.7z"/>
						<path fill="#202020" d="M80,61.4c0,0.1,0,0.1,0,0.2C80,61.5,80,61.4,80,61.4z"/>
						<path fill="#202020" d="M79.7,83.9l0-0.5C79.7,83.3,79.7,83.6,79.7,83.9z"/>
						<path fill="#202020" d="M79.2,110.6c0,0.1,0,0.2,0,0.3L79.2,110.6C79.2,110.6,79.2,110.6,79.2,110.6z"/>
						<path fill="#202020" d="M79.8,92.3l0,0.2c0,0,0,0.1,0.1,0.1L79.8,92.3z"/>
						<path fill="#202020" d="M79.9,98.8c0-0.1-0.1-0.2-0.2-0.3C79.7,98.7,79.8,98.8,79.9,98.8C79.8,98.9,79.8,98.9,79.9,98.8z"/>
						<path fill="#202020" d="M79.6,109.1l0,0.2C79.7,109.3,79.7,109.2,79.6,109.1z"/>
						<path fill="#202020" d="M79.9,87.7C79.9,87.7,79.9,87.7,79.9,87.7C79.9,87.6,79.9,87.7,79.9,87.7z"/>
						<path fill="#202020" d="M78.5,111C78.5,111,78.5,111,78.5,111C78.5,111.1,78.5,111.1,78.5,111z"/>
						<path fill="#202020" d="M79.5,117l-0.1,0c0,0,0,0,0,0.1L79.5,117z"/>
						<path fill="#202020" d="M80.1,55.4C80.1,55.4,80.1,55.4,80.1,55.4C80.1,55.6,80.1,55.5,80.1,55.4z"/>
						<path fill="#202020" d="M77.5,16.7c0.1-0.6,0.1,1,0.3,0.1C77.7,16.8,77.5,15.9,77.5,16.7z"/>
						<path fill="#202020" d="M79.2,110.4l0-0.3C79.2,110.3,79.2,110.4,79.2,110.4z"/>
						<path fill="#202020" d="M77.7,16.7L77.7,16.7L77.7,16.7C77.7,16.7,77.7,16.7,77.7,16.7z"/>
						<path fill="#202020" d="M80,41.5c0,0,0,0.1-0.1,0.1C80,41.7,80,41.6,80,41.5z"/>
						<path fill="#202020" d="M79.9,51.8l0-0.3C79.9,51.7,79.9,51.8,79.9,51.8z"/>
						<path fill="#202020" d="M79.9,36.2c0-0.1,0-0.2,0-0.4c0,0,0,0,0,0.1C79.9,35.9,79.9,36,79.9,36.2z"/>
						<path fill="#202020" d="M79.9,30.6c0,0,0,0.1,0,0.1c0,0.1,0,0.1,0,0.2L79.9,30.6z"/>
						<path fill="#202020" d="M78.5,94.1c0,0.1-0.1,0.2-0.1,0.3C78.5,94.3,78.5,95.1,78.5,94.1z"/>
						<path fill="#202020" d="M79.2,110.6c0,0,0-0.1-0.1-0.2C79.2,110.5,79.2,110.6,79.2,110.6C79.2,110.6,79.2,110.6,79.2,110.6z"
							/>
						<path fill="#202020" d="M78.9,36l0-0.9C78.9,35.3,78.9,35.6,78.9,36z"/>
						<path fill="#202020" d="M78.5,54.2l0,0.2C78.5,54.3,78.5,54.2,78.5,54.2z"/>
						<path fill="#202020" d="M78.9,32.5c0-0.2,0.1-0.3,0.1-0.5c0,0,0-0.1,0-0.1L78.9,32.5z"/>
						<path fill="#202020" d="M78.4,94.4L78.4,94.4L78.4,94.4z"/>
						<path fill="#202020" d="M78.7,100.2c0-0.8-0.2-0.4-0.2-0.6c0-1,0.1-0.5,0.2-0.8c0-0.6-0.2-1.1-0.2-1.6c0,0,0-0.1,0.1,0
							c-0.1-0.7,0-2-0.2-2.7c0-0.1,0-0.1,0-0.1c-0.1,0.1-0.2,0.1-0.2,0.1c0-0.4-0.1-0.7,0-0.8c0,0.2,0,0.3,0.1,0.4l0-0.4
							c0.1-0.4,0.1,0.5,0.2,0.5c0-0.8-0.2-1.7-0.1-2.3c0.1-0.1,0,1.4,0.2,0.6l-0.1,0.9c0.2-0.7,0,0.6,0.2-0.1c0-1.2-0.1-1.3,0-2.5
							c-0.1-0.3-0.1,0.1-0.2-0.2c-0.1-1.7,0.4-1.3,0.2-2.6c-0.1-0.3-0.3-0.5-0.2-1.3l0.2,0.3c0-1.2-0.2-0.7-0.1-1.9
							c0.1,0.2,0.1,0.9,0.1,0.7c0.1-0.8-0.1-0.6-0.1-1.2l0.1-0.1c0-1.2-0.1-2.6-0.2-4c0,0.1,0.1,0.3,0.1,0c-0.1-1.7,0-3.7,0.1-5.4
							l-0.1-0.6c0-0.1,0.1-0.3,0.1-0.1c0-0.7-0.1,0-0.1-0.3c0-0.4,0.1-0.5,0.1-0.3c-0.1-1.2-0.2-3.3-0.1-4.5l0,0.2
							c0.1-0.9-0.3-1.1-0.1-1.9l0,0.2c0.1-2-0.1-4.3,0.1-5.9c-0.2-0.3,0.1-2-0.2-2.2c0.1-1.2,0.2-0.8,0.3-2.5c0-0.4-0.2-0.7-0.2-1.2
							l0.1,0l-0.1-0.7l0.2-0.4l0-0.5c0,0.2-0.1,0.4-0.1,0.4c-0.1-0.8,0.1-1.9,0.2-2l-0.1-1.9c0.1,0,0.1,0.4,0.1,0.6
							c-0.1-1,0.1-0.2,0-1.1c0,0.1-0.1-0.1-0.1-0.1c0.1-0.5,0.1-1.5,0-2.3l0.1,0.1c0-1.4,0-2.9,0-4.5c0,0.6-0.2,0.4-0.2,0l0.1-0.2
							c-0.1-0.3-0.1,0.5-0.2-0.1c0-0.6,0.2-0.4,0.2-0.1l0-0.7c0,0,0.1,0.1,0.1,0.2c-0.1-0.3,0.1-1.2,0-1.7l0,0c0-1.6,0-2.3-0.1-3.6
							c-0.1,0-0.1-0.5-0.2-0.9c0-0.9,0.1-2,0.1-3.1c-0.1-0.8-0.1-0.2-0.2-0.6c0.1-0.1,0.1-1.2,0.2-0.6c0-1.4,0-1.7-0.1-3.5
							c0,0.2-0.1,0.4-0.1,0.3c0-0.3,0-0.7,0.1-0.7l0,0.1c-0.2-1.9,0.3-4.5,0.1-6l0,0.1L78.4,21c0-0.7,0.1,0.4,0.2-0.1
							c-0.2-1.7,0-2.7-0.1-4.1c0.3-1.1,0-3.9,0.2-5.4l-0.1,0.1c-0.1-0.4,0-0.5,0.1-0.7c-0.1,0-0.1,0.4-0.1,0.2c0-0.4,0-0.8,0-1.2
							c0.1,0,0.5,0,0.6,0c-0.1,2.1-0.1,4.2-0.2,6.2c0,1.2,0.4,0.7,0.2,2.2l-0.1-0.4c0.2,2.4,0,5,0.1,7.4C79,25,79,25,79,24.8
							c-0.1,0.5,0,1.9,0.1,1.9c0,0.4-0.1,0.1-0.1,0.3c-0.1,0.5,0.1,1.3,0,1.5c0,0,0-0.1,0-0.2c0.1,0.3,0,1.5,0.1,1.2
							c-0.1,0.9,0.1,1.7,0,2.4c0.1,0.5-0.1,1.5,0.1,1.7c-0.2-0.1-0.2,1.6-0.1,2.1c-0.1-0.2-0.1,0.5-0.1,0.3c0,0.6,0,1.2,0.1,1.1
							c-0.2,1.2,0.2,2.4-0.1,3.1c0.1,1.9,0.2,3.7,0.2,5.4c-0.2-0.1,0-1.9-0.2-1.8c0.1,1.6,0.2,2.6,0.2,4.2c0,0.4-0.1-0.2-0.1-0.4
							c0.1,1.6,0,3.2,0.1,4.6c0,0,0-0.2-0.1-0.3c0,0.3,0,0.7,0.1,0.6l0-0.3c0.1-0.5,0.3,1.1,0.3,1.2c-0.3-0.5-0.1,1.4-0.4,0.7
							c0,0.2,0.1,0.4,0.1,0.4c0,0.3-0.1,0.4-0.1,0.1c0,1,0.1,0.7,0.1,1.6c0,0-0.1-0.2-0.1-0.3c0.1,0.5,0.2,0.9,0.1,1.7
							c0,0-0.1,0-0.1-0.2c0,1.4,0.2,2.3,0.1,3.8c-0.2-0.4-0.1,0.5-0.2,0.6l0,0.8l0.1-0.3c0,0.7,0.1,1.3,0.1,1.9l-0.1-0.5l0,1.3
							l0.1-0.7c0.1,0.7,0.2-0.1,0.2,0.9c0-0.2,0,0.7-0.1,1.1l0,0c0.1,0.3,0.1,0.7,0.1,1.2c-0.1,0.1-0.2-0.1-0.2,0
							c0.1,0.3,0,1.6,0.2,2.1c0-0.1-0.1-0.2-0.1-0.1l0.1,0.3c0,0.3-0.1,0.4-0.1,0.3c0,1,0.2-0.3,0.1,0.9c0-0.1,0,0,0-0.2
							c0,1.2,0.1,2.3,0,3.3c-0.2,0.3,0-0.9-0.2-0.6c0,1.5,0.2,3.2,0.2,4.7l0-0.3c0.2,0.2-0.1,1.1,0,1.9c0-0.2-0.1-0.2-0.1-0.2
							c0,1,0.1,2.1,0.1,3.6l-0.1-0.2c-0.1,0.6,0,1.6-0.1,2.2c0.1,0.2,0,0.6,0.1,0.3c-0.3,2,0.2,3.8-0.1,5.6c0-0.2-0.1-0.5-0.1-0.3
							l0.1,1.5c0.1-0.1,0.1-0.2,0.1-0.5c0.1,0.2,0.1,0.6,0.1,1c-0.1-0.7-0.2,0-0.2,0.3c0,0,0.1,0.1,0.1,0c-0.2,0.8,0.2,0.1,0.1,1.2
							l-0.1-0.1c0,0.4,0.1,0.8,0.1,1.2c-0.1,0.2-0.1-0.4-0.1-0.5c0,0.6,0.2,1.2,0.1,1.8c0-0.3,0-0.6-0.1-0.9
							c-0.1,0.6-0.1,0.7-0.1,1.1l0,0l-0.1,1l0-0.3c0.3,0.8,0.1,1.6,0.3,2.6c-0.2-1-0.1-0.2-0.2-0.2c0,0.3-0.1,0.7-0.1,0.6
							c0.1,0.5-0.1,0.8,0.1,1.5c0,0,0,0.5-0.1,0.4c0,0.6,0.1-0.2,0.1-0.1c0.1,1-0.2,2.3,0,3.7c0.1,1.2,0.2,1.4,0.3,2.6
							c-0.1,0.4-0.2-0.3-0.2-0.3c-0.1,0.6-0.1,1.1,0,1.7c0-0.1-0.1,0-0.1,0.2c0,0.5,0.2,0.3,0.1,0.9c0-0.1-0.1-0.2-0.2-0.5
							c0.1,0.5,0.1,1.1,0.2,1.7c-0.1,0.2-0.1-0.3-0.2-0.5c0,0.6,0.1,1.7,0.2,1.8l0-0.4c0,0.2-0.1,0.1-0.1-0.1
							c-0.1-0.5,0-0.8,0.1-0.8l0,0.4c0.2-0.4,0-1.6,0-2.4l0.2,0.3l-0.1-0.8c0-0.2,0.1-0.3,0.2,0.1c0.1-0.6-0.1-0.5,0-1
							c0-0.1,0,0,0,0l-0.1-0.6c0,0.1,0.1-0.1,0.1,0.3c0.1-1-0.1-1.6,0-2l0,0.1c-0.1-1.4-0.1-0.1-0.3-1.2l0.3-0.7l-0.1-0.1
							c0-0.1,0-0.4,0.1-0.4c-0.1-0.5-0.1,0.1-0.1-0.2c0.1-0.7-0.1-1.9,0.2-2.1c-0.1-0.3-0.1,0.7-0.1-0.1c0.2-0.2,0-0.9,0.1-1.5
							c0.1,0.2,0.1,0.8,0.2,0.2c-0.2-0.4,0-1.3,0-1.8c-0.2,0-0.1-1.2-0.1-2.1c0.1,0.1,0.1-1.7,0.1-2.6l0,0c-0.2-0.2-0.1-1-0.2-1.7
							c0.1,0,0.1,0.1,0.2,0.5l0-0.6c-0.1-0.1-0.1-0.3-0.1-0.7l0.1,0.2c0-0.8-0.1-1.6-0.1-2.6c-0.1-0.1-0.3,0.8-0.4-0.3
							c0.1,0,0.2-0.1,0.2,0.2c0-0.1,0-0.3,0-0.5l0.1,0.4c0-0.5-0.1-0.2-0.1-0.6c0.1,0,0.1-0.3,0.1-0.2c0,0.1,0,0.3,0,0.5
							c0-0.4,0.1-0.9,0.1-1.1c0,0-0.1,0-0.1-0.3c0-0.8,0.1-0.3,0.1-0.7c-0.1-0.2,0-0.7-0.1-0.7c0-0.2,0.1-0.3,0.1-0.4
							c-0.1-0.4,0-1.9-0.2-1.5l0,0.1c0,0,0,0,0-0.1v0v0c-0.1-1.3,0.1-2.8,0-4.1l0,0c0-0.8,0-1.8-0.1-2.3c0-0.2,0.1-0.6,0.1-0.5
							c0-0.6-0.1-0.7,0-1.6c0.1,0.6,0.1-0.2,0.1,0.6c0-0.8,0.1-1,0-1.8c0.1,0.3,0.1-0.6,0.1-1L79.8,74c0-0.4,0-0.8,0-1.2l0.1,0.2
							c0.2-1.6-0.3-2.9,0-4.2c-0.1-0.4-0.1,0.9-0.2,0.5c0-0.7,0.2-1.5,0.2-1.8c0.1-1-0.2-1-0.2-2c-0.1,0.1-0.2,0.3-0.2-0.5
							c0-0.7,0.2-0.9,0.3-0.4c0,0.2,0,0.3,0,0.3c0,0.2,0,0.6,0.1,0.3L79.9,65c0.1-0.4,0-1.4,0.1-1.2c0-0.6-0.1-0.2-0.1,0.2
							c0.1-1,0-1.5,0.1-2.5c0,0.2-0.1,0.3-0.1,0.1c0.1-1.4-0.1-0.6-0.1-1.6c0.1-0.6,0.2,0.2,0.1-0.8c0.1-0.6,0.1-0.1,0.2,0.1
							c-0.1-0.9,0.1-1.7,0.1-2.2l0,0.5c0-0.3,0-0.5,0-0.8L80,57.2c0-0.3,0-0.5,0.1-0.5c-0.1-0.3-0.2,0.2-0.3-0.3
							c0.1-0.4-0.1-1.1,0.1-1.3c0,1.2,0.1-0.1,0.2,0.9c0-0.2,0-0.4,0-0.7c0,0,0,0,0,0.1c0.1-1.1-0.2-0.5-0.2-1.7
							c0.1,0.1,0.1-0.3,0.1-0.5c0,0.5-0.1,0.2-0.2-0.2c0.1-0.7,0-0.8,0-1.2l0,0.4c-0.1-0.2-0.1-0.5-0.1-1c0.1,0,0,0.5,0.1,0.3
							c-0.1-0.6,0.1-1.3,0-2.1c0.1-0.4,0.1,0,0.2-0.4c-0.1-0.9,0.1-1,0-1.9c-0.1,0.3-0.1,0.3-0.2-0.3l0.1,1.6l-0.1-1
							c0,0.5,0.1,1,0,1.3c-0.1-0.5-0.1-0.4-0.1-0.2c0.2-0.6-0.1-1.3,0-2l0.3,0c0.1-1.1-0.1-2-0.1-3.4l0,0.5c-0.1-0.2,0-0.9-0.1-1.4
							c0.1,0,0.1-0.2,0.2-0.4c-0.1,0,0-1.1-0.2-1.2l0.1-0.6c0-1.2-0.2-1.3-0.2-2.5c0.1,0.3,0.2-0.2,0.2,0.6c0-0.4,0-0.7,0-0.7
							c0.1-0.2-0.1-1,0-1.4c0-0.2-0.1-0.2-0.1-0.6c0,0,0,0,0,0c0,0-0.1-0.7-0.2-0.3c0.3-1.2,0-3.2,0.2-4.2c0-0.8,0-1.8-0.1-2.5
							c0,0,0,0,0,0.1c0.1-1-0.2-0.6-0.2-1.8c0.1-0.6,0.1,0.6,0.1,0.2c0.3-0.2,0-1.4,0.1-2.2l0,0.2c0.1-0.6-0.1-1.5-0.1-2.4
							c0,0,0,0,0,0c-0.1-0.7-0.2-1.9-0.2-2.9c0.1,0.3,0.1,0.4,0.2,0.2c0-0.4-0.2,0.1-0.2-0.7c0.1-0.3,0.1-0.9,0.2-1l0,0.8
							c0.2-0.4,0-1,0-1.4l0.1,0.1c0-1.2-0.2-1.2-0.2-2.5L79.7,15c-0.2-0.7,0.1-0.6,0-1.3l0.2-0.2c0-0.5-0.2-1.7-0.2-2.5
							c0.1,0.5,0.2,1.5,0.3,2.1c0-0.5,0-1.6-0.1-1.8c0,0.2,0.1,0.4,0,0.6c-0.1-0.3-0.1-0.6-0.1-1c0-0.2,0-0.4,0-0.6
							c0-0.2,0-0.5,0-0.7c0.1,0,0.1-0.2,0.2-0.6c-0.2,0-0.6,0-1,0c-0.4,0-0.8,0-1.2,0c0,0.4,0,0.7,0,1c0,0.2,0,0.4-0.1,0.5
							c0.1,1.6-0.1,3.3,0,5.2c0.3-0.7,0,0.6,0.3,0.4c0,0.4,0,0.6,0,0.7l-0.2,1.4c-0.1,0.3-0.1-0.4-0.1-0.4c0,1-0.1,0.4-0.2,1.1
							c0.1-0.1,0.1,0.3,0.1,0.9l0.1-0.8c0.1,1.4-0.2,1.2-0.1,2.6L77.3,21c0,0.7,0,2.6,0.2,3.3c0,0.1-0.1,0.3-0.1,0
							c0,1.7,0.2,3.8,0.1,5.1l-0.1-0.1c0,0.3,0.1,0.5,0.1,0.9c0,0-0.1-0.1-0.1,0c0,0.2,0.1,0.8,0.1,1.3l-0.1-0.4
							c-0.1,1.7,0.2,2.5,0.2,3.9c-0.2,0-0.3,1.3-0.3,1.9l0,0c0,1.9,0.2,3.3,0.2,5c-0.2,1.1-0.1,3.7-0.2,5.5c0-0.3,0.1,0,0.2,0.4
							c0,0.4,0.1,1.2,0,1.1l0-0.1c-0.2,0.3-0.1,1.2-0.1,1.8l0.2,0.1c-0.3,1.8,0.1,4.6-0.2,5.5c0.1,0.4,0.1,0.9,0.1,1.4l-0.1,0
							c0,1.2,0,1.8,0,3.2l-0.1-0.3c0,0.8,0.4,1,0.4,1.8l-0.2,0.2c0,1.4-0.2,2.9,0,4.3c0,0-0.1-0.1-0.1-0.3c0,0.7-0.1,2.6,0.1,2.3
							c-0.2,0,0,1.5,0.1,2.2L77.5,71c0.2,0.6,0.2,0.7,0.2,1.6c0,0.2-0.1,0.2-0.1-0.1c-0.1,0.7,0.1,0.6,0,1.4l-0.1-0.3
							c0,0.7,0,0.7,0.1,1.1c0,0.5,0,1.4-0.1,1.5c0.1,0.1,0.2,0.5,0.1,0.9c0,0.1-0.1-0.1-0.1-0.2c-0.1,1.2,0.1,1.8,0,2.7
							c0,0-0.1,0.1-0.1,0.1c0-1,0-1.8,0-1.7c-0.1,0-0.1,0.8-0.3,0.2c0.1,0.6,0.3,1.7,0.2,2.5c0,0,0,0.1,0,0.1l0-0.1
							c0,0.2,0,0.3,0,0.5c0,0.2,0,0.4,0,0.6c-0.1,0.1,0,0.9-0.1,1.3c0.1,0,0.1,0.5,0.2,0c0,0.1,0-0.1,0-0.3c0-0.1,0-0.1,0-0.2l0,0
							c0-0.3,0-0.6,0-1c0.1,0.3,0.1,0.6,0,1.1c0.1,0.2,0.2,0.4,0.2,0.5c-0.2,0.5-0.3,1.6-0.4,1.7c0.1,1.2,0,2.8,0.3,3.6
							c0,0.3-0.1,0.4-0.1,0.5c0-0.2,0-0.4-0.1-0.5c0.1,0.7,0,2,0.2,2.2c-0.1,0.9-0.1-0.5-0.1,0.7l0-0.2c-0.3,2.3,0.4,3.8,0.1,6.4
							c0-0.2,0-0.3,0.1-0.3c-0.1,2.9,0.1,6.1-0.1,9c0,0.8,0.1,0.9,0.1,1.4l-0.1,0.2l0.2,0.9c0.1,1.2-0.3,2.1-0.1,3.7l0.1-0.2
							c0,0.6,0.1,1.8,0,1.7c0,0.1,0.1,0.2,0,0.4l-0.1,0l0.1,1.4c0,0.5-0.1,0.5-0.1,0.5c-0.1,0-0.1,0.1-0.1,1.2c0,0,0.1,0,0.2,0
							c0.2,0,0.5,0,0.8,0c0.3,0,0.4,0,0.6-0.1c0.3-0.1,0.5-0.1,0.4-0.1c-0.2,0-0.6,0-0.6-0.1l0.5,0c0.1-0.2,0.5-0.4-0.8-0.5
							c-0.1,0-0.2,0.1-0.3,0.1l0-0.1c0,0,0.1-0.2,0.1-0.2l0,0.2l0.1,0c0,0,0,0,0,0c0-0.1,0,0-0.1-0.3c0.1-0.1,0.1-0.2,0.1-0.4
							l-0.2-0.9c0.1-0.1,0.2,0.4,0.2-0.2c-0.1-0.4-0.2,0.4-0.2-0.3c0.1-0.4,0.2-0.3,0.1-0.8c0.1-0.1,0.1,0,0.1,0.2
							c-0.1-0.4,0-1.2-0.1-1.4c0.1-0.4,0-1.5,0.2-1.5c0-0.1-0.1-0.8-0.2-1.2c0.2,0.8,0-1.5,0.3-1.3c-0.2-0.6-0.1-2-0.2-3
							c0,0.1,0,0.2,0,0.3c0-0.6,0.1-0.7,0.1-1.1c-0.2-0.1-0.2-0.9-0.3-1.4c0.2-0.7,0.2,0.4,0.4,0.2c-0.1,0-0.1-1.2-0.3-1
							c0.1-0.5,0-0.4,0.2-0.7c-0.2-0.1,0-0.5-0.2-0.9c0.1-0.8,0.2-0.2,0.1-1C78.6,99.5,78.7,100.2,78.7,100.2z M78.3,80.5L78.3,80.5
							c0,0.2,0,0.3,0,0.4C78.3,80.8,78.3,80.7,78.3,80.5z M78.3,78.8c0,0.2,0,0.5,0,0.7c0,0.1-0.1,0-0.1-0.2
							C78.2,79.5,78.3,79.1,78.3,78.8z M77.5,82.3c0-0.3,0-0.3,0-0.4C77.5,82.1,77.5,82.2,77.5,82.3l0.1,0.1
							C77.5,82.4,77.5,82.4,77.5,82.3z"/>
						<path fill="#202020" d="M77.6,82.8c0,0,0,0.1,0,0.1C77.6,82.9,77.6,82.8,77.6,82.8l0-0.1C77.6,82.7,77.6,82.8,77.6,82.8z"/>
						<path fill="#202020" d="M79.7,84.1L79.7,84.1C79.7,84.1,79.7,84.1,79.7,84.1C79.7,84.1,79.7,84.1,79.7,84.1z"/>
						<polygon fill="#202020" points="78.5,56 78.5,56 78.5,56.1 						"/>
						<path fill="#202020" d="M79.3,93.2c0,0,0,0.1,0,0.1C79.3,93.3,79.3,93.3,79.3,93.2z"/>
						<path fill="#202020" d="M79.3,97.2l0,0.6C79.2,97.5,79.2,97.3,79.3,97.2z"/>
						<path fill="#202020" d="M79.2,100.2C79.2,100.2,79.2,100.2,79.2,100.2L79.2,100.2L79.2,100.2z"/>
						<path fill="#202020" d="M79.1,52.1c0,0,0-0.1,0-0.1C79,51.7,79,51.9,79.1,52.1z"/>
						<path fill="#202020" d="M79.3,66.4c0-0.2,0-0.3-0.1-0.5C79.3,66.2,79.3,66.4,79.3,66.4z"/>
						<polygon fill="#202020" points="78.9,36.1 78.9,36.1 78.9,36 						"/>
						<path fill="#202020" d="M79.3,65.3c0,0.3,0,0.5,0,0.7C79.3,65.7,79.3,65.5,79.3,65.3z"/>
						<path fill="#202020" d="M79.1,113.3l0,0.1c0,0,0,0,0,0L79.1,113.3z"/>
						<path fill="#202020" d="M79.2,113.5l0,0.2C79.2,113.6,79.2,113.5,79.2,113.5z"/>
						<path fill="#202020" d="M79.2,114l0-0.3C79.2,113.7,79.2,113.9,79.2,114z"/>
						<path fill="#202020" d="M79.2,109.3L79.2,109.3C79.2,109.3,79.2,109.3,79.2,109.3z"/>
						<path fill="#202020" d="M79.2,108.1c0,0.3-0.1,0.7-0.1,1.1l0,0C79.1,109.1,79.3,108.4,79.2,108.1z"/>
						<path fill="#202020" d="M79.7,103l0,1c0-0.2,0.1-0.4,0.1,0.1C80,102.8,79.7,104.3,79.7,103z"/>
						<path fill="#202020" d="M79.8,99.8C79.8,100.4,79.9,99.8,79.8,99.8C79.9,99.5,79.8,99.4,79.8,99.8z"/>
						<path fill="#202020" d="M79.8,77l0.1,0.1C79.9,76.6,79.9,77,79.8,77z"/>
						<polygon fill="#202020" points="79.2,72.6 79.2,73 79.3,73.2 						"/>
						<polygon fill="#202020" points="80,70 80,70.2 80,69.5 						"/>
						<path fill="#202020" d="M80,31.6l-0.1,0.1C79.9,32,80,32.1,80,31.6z"/>
						<path fill="#202020" d="M79.8,15c0.1-0.2,0.1-0.6,0-0.9C79.9,14.5,79.8,14.8,79.8,15z"/>
						<polygon fill="#202020" points="77.4,51.6 77.4,51.3 77.4,51.9 						"/>
					</g>
				</g>
			</g>
		</g>
	</g>
	<g>
		<g>
			<g>
				<g>
					<g>
						<path fill="#202020" d="M79.2,117c0,0.1,0.1,0,0.1-0.3l-0.1-0.2L79.2,117z"/>
						<path fill="#202020" d="M79.5,114.9c-0.1-0.4-0.2-0.8-0.3-0.6c0.1,0.4,0.1,0.5,0.2,0.9c0,0.3,0,0.6-0.1,0.5
							c0,0.1,0,0.5,0.1,0.7C79.5,115.9,79.5,115.4,79.5,114.9C79.4,114.7,79.5,114.9,79.5,114.9z"/>
						<path fill="#202020" d="M79.7,83.9l0,0.2C79.7,84,79.7,83.9,79.7,83.9z"/>
						<path fill="#202020" d="M79.8,64.7c0,0.1,0,0.2,0,0.2C79.8,64.7,79.8,64.6,79.8,64.7z"/>
						<path fill="#202020" d="M80,61.4c0,0.1,0,0.1,0,0.2C80,61.5,80,61.4,80,61.4z"/>
						<path fill="#202020" d="M79.7,83.9l0-0.5C79.7,83.3,79.7,83.6,79.7,83.9z"/>
						<path fill="#202020" d="M79.2,110.6c0,0.1,0,0.2,0,0.3L79.2,110.6C79.2,110.6,79.2,110.6,79.2,110.6z"/>
						<path fill="#202020" d="M79.8,92.3l0,0.2c0,0,0,0.1,0.1,0.1L79.8,92.3z"/>
						<path fill="#202020" d="M79.9,98.8c0-0.1-0.1-0.2-0.2-0.3C79.7,98.7,79.8,98.8,79.9,98.8C79.8,98.9,79.8,98.9,79.9,98.8z"/>
						<path fill="#202020" d="M79.6,109.1l0,0.2C79.7,109.3,79.7,109.2,79.6,109.1z"/>
						<path fill="#202020" d="M79.9,87.7C79.9,87.7,79.9,87.7,79.9,87.7C79.9,87.6,79.9,87.7,79.9,87.7z"/>
						<path fill="#202020" d="M78.5,111C78.5,111,78.5,111,78.5,111C78.5,111.1,78.5,111.1,78.5,111z"/>
						<path fill="#202020" d="M79.5,117l-0.1,0c0,0,0,0,0,0.1L79.5,117z"/>
						<path fill="#202020" d="M80.1,55.4C80.1,55.4,80.1,55.4,80.1,55.4C80.1,55.6,80.1,55.5,80.1,55.4z"/>
						<path fill="#202020" d="M77.5,16.7c0.1-0.6,0.1,1,0.3,0.1C77.7,16.8,77.5,15.9,77.5,16.7z"/>
						<path fill="#202020" d="M79.2,110.4l0-0.3C79.2,110.3,79.2,110.4,79.2,110.4z"/>
						<path fill="#202020" d="M77.7,16.7L77.7,16.7L77.7,16.7C77.7,16.7,77.7,16.7,77.7,16.7z"/>
						<path fill="#202020" d="M80,41.5c0,0,0,0.1-0.1,0.1C80,41.7,80,41.6,80,41.5z"/>
						<path fill="#202020" d="M79.9,51.8l0-0.3C79.9,51.7,79.9,51.8,79.9,51.8z"/>
						<path fill="#202020" d="M79.9,36.2c0-0.1,0-0.2,0-0.4c0,0,0,0,0,0.1C79.9,35.9,79.9,36,79.9,36.2z"/>
						<path fill="#202020" d="M79.9,30.6c0,0,0,0.1,0,0.1c0,0.1,0,0.1,0,0.2L79.9,30.6z"/>
						<path fill="#202020" d="M78.5,94.1c0,0.1-0.1,0.2-0.1,0.3C78.5,94.3,78.5,95.1,78.5,94.1z"/>
						<path fill="#202020" d="M79.2,110.6c0,0,0-0.1-0.1-0.2C79.2,110.5,79.2,110.6,79.2,110.6C79.2,110.6,79.2,110.6,79.2,110.6z"
							/>
						<path fill="#202020" d="M78.9,36l0-0.9C78.9,35.3,78.9,35.6,78.9,36z"/>
						<path fill="#202020" d="M78.5,54.2l0,0.2C78.5,54.3,78.5,54.2,78.5,54.2z"/>
						<path fill="#202020" d="M78.9,32.5c0-0.2,0.1-0.3,0.1-0.5c0,0,0-0.1,0-0.1L78.9,32.5z"/>
						<path fill="#202020" d="M78.4,94.4L78.4,94.4L78.4,94.4z"/>
						<path fill="#202020" d="M78.7,100.2c0-0.8-0.2-0.4-0.2-0.6c0-1,0.1-0.5,0.2-0.8c0-0.6-0.2-1.1-0.2-1.6c0,0,0-0.1,0.1,0
							c-0.1-0.7,0-2-0.2-2.7c0-0.1,0-0.1,0-0.1c-0.1,0.1-0.2,0.1-0.2,0.1c0-0.4-0.1-0.7,0-0.8c0,0.2,0,0.3,0.1,0.4l0-0.4
							c0.1-0.4,0.1,0.5,0.2,0.5c0-0.8-0.2-1.7-0.1-2.3c0.1-0.1,0,1.4,0.2,0.6l-0.1,0.9c0.2-0.7,0,0.6,0.2-0.1c0-1.2-0.1-1.3,0-2.5
							c-0.1-0.3-0.1,0.1-0.2-0.2c-0.1-1.7,0.4-1.3,0.2-2.6c-0.1-0.3-0.3-0.5-0.2-1.3l0.2,0.3c0-1.2-0.2-0.7-0.1-1.9
							c0.1,0.2,0.1,0.9,0.1,0.7c0.1-0.8-0.1-0.6-0.1-1.2l0.1-0.1c0-1.2-0.1-2.6-0.2-4c0,0.1,0.1,0.3,0.1,0c-0.1-1.7,0-3.7,0.1-5.4
							l-0.1-0.6c0-0.1,0.1-0.3,0.1-0.1c0-0.7-0.1,0-0.1-0.3c0-0.4,0.1-0.5,0.1-0.3c-0.1-1.2-0.2-3.3-0.1-4.5l0,0.2
							c0.1-0.9-0.3-1.1-0.1-1.9l0,0.2c0.1-2-0.1-4.3,0.1-5.9c-0.2-0.3,0.1-2-0.2-2.2c0.1-1.2,0.2-0.8,0.3-2.5c0-0.4-0.2-0.7-0.2-1.2
							l0.1,0l-0.1-0.7l0.2-0.4l0-0.5c0,0.2-0.1,0.4-0.1,0.4c-0.1-0.8,0.1-1.9,0.2-2l-0.1-1.9c0.1,0,0.1,0.4,0.1,0.6
							c-0.1-1,0.1-0.2,0-1.1c0,0.1-0.1-0.1-0.1-0.1c0.1-0.5,0.1-1.5,0-2.3l0.1,0.1c0-1.4,0-2.9,0-4.5c0,0.6-0.2,0.4-0.2,0l0.1-0.2
							c-0.1-0.3-0.1,0.5-0.2-0.1c0-0.6,0.2-0.4,0.2-0.1l0-0.7c0,0,0.1,0.1,0.1,0.2c-0.1-0.3,0.1-1.2,0-1.7l0,0c0-1.6,0-2.3-0.1-3.6
							c-0.1,0-0.1-0.5-0.2-0.9c0-0.9,0.1-2,0.1-3.1c-0.1-0.8-0.1-0.2-0.2-0.6c0.1-0.1,0.1-1.2,0.2-0.6c0-1.4,0-1.7-0.1-3.5
							c0,0.2-0.1,0.4-0.1,0.3c0-0.3,0-0.7,0.1-0.7l0,0.1c-0.2-1.9,0.3-4.5,0.1-6l0,0.1L78.4,21c0-0.7,0.1,0.4,0.2-0.1
							c-0.2-1.7,0-2.7-0.1-4.1c0.3-1.1,0-3.9,0.2-5.4l-0.1,0.1c-0.1-0.4,0-0.5,0.1-0.7c-0.1,0-0.1,0.4-0.1,0.2c0-0.4,0-0.8,0-1.2
							c0.1,0,0.5,0,0.6,0c-0.1,2.1-0.1,4.2-0.2,6.2c0,1.2,0.4,0.7,0.2,2.2l-0.1-0.4c0.2,2.4,0,5,0.1,7.4C79,25,79,25,79,24.8
							c-0.1,0.5,0,1.9,0.1,1.9c0,0.4-0.1,0.1-0.1,0.3c-0.1,0.5,0.1,1.3,0,1.5c0,0,0-0.1,0-0.2c0.1,0.3,0,1.5,0.1,1.2
							c-0.1,0.9,0.1,1.7,0,2.4c0.1,0.5-0.1,1.5,0.1,1.7c-0.2-0.1-0.2,1.6-0.1,2.1c-0.1-0.2-0.1,0.5-0.1,0.3c0,0.6,0,1.2,0.1,1.1
							c-0.2,1.2,0.2,2.4-0.1,3.1c0.1,1.9,0.2,3.7,0.2,5.4c-0.2-0.1,0-1.9-0.2-1.8c0.1,1.6,0.2,2.6,0.2,4.2c0,0.4-0.1-0.2-0.1-0.4
							c0.1,1.6,0,3.2,0.1,4.6c0,0,0-0.2-0.1-0.3c0,0.3,0,0.7,0.1,0.6l0-0.3c0.1-0.5,0.3,1.1,0.3,1.2c-0.3-0.5-0.1,1.4-0.4,0.7
							c0,0.2,0.1,0.4,0.1,0.4c0,0.3-0.1,0.4-0.1,0.1c0,1,0.1,0.7,0.1,1.6c0,0-0.1-0.2-0.1-0.3c0.1,0.5,0.2,0.9,0.1,1.7
							c0,0-0.1,0-0.1-0.2c0,1.4,0.2,2.3,0.1,3.8c-0.2-0.4-0.1,0.5-0.2,0.6l0,0.8l0.1-0.3c0,0.7,0.1,1.3,0.1,1.9l-0.1-0.5l0,1.3
							l0.1-0.7c0.1,0.7,0.2-0.1,0.2,0.9c0-0.2,0,0.7-0.1,1.1l0,0c0.1,0.3,0.1,0.7,0.1,1.2c-0.1,0.1-0.2-0.1-0.2,0
							c0.1,0.3,0,1.6,0.2,2.1c0-0.1-0.1-0.2-0.1-0.1l0.1,0.3c0,0.3-0.1,0.4-0.1,0.3c0,1,0.2-0.3,0.1,0.9c0-0.1,0,0,0-0.2
							c0,1.2,0.1,2.3,0,3.3c-0.2,0.3,0-0.9-0.2-0.6c0,1.5,0.2,3.2,0.2,4.7l0-0.3c0.2,0.2-0.1,1.1,0,1.9c0-0.2-0.1-0.2-0.1-0.2
							c0,1,0.1,2.1,0.1,3.6l-0.1-0.2c-0.1,0.6,0,1.6-0.1,2.2c0.1,0.2,0,0.6,0.1,0.3c-0.3,2,0.2,3.8-0.1,5.6c0-0.2-0.1-0.5-0.1-0.3
							l0.1,1.5c0.1-0.1,0.1-0.2,0.1-0.5c0.1,0.2,0.1,0.6,0.1,1c-0.1-0.7-0.2,0-0.2,0.3c0,0,0.1,0.1,0.1,0c-0.2,0.8,0.2,0.1,0.1,1.2
							l-0.1-0.1c0,0.4,0.1,0.8,0.1,1.2c-0.1,0.2-0.1-0.4-0.1-0.5c0,0.6,0.2,1.2,0.1,1.8c0-0.3,0-0.6-0.1-0.9
							c-0.1,0.6-0.1,0.7-0.1,1.1l0,0l-0.1,1l0-0.3c0.3,0.8,0.1,1.6,0.3,2.6c-0.2-1-0.1-0.2-0.2-0.2c0,0.3-0.1,0.7-0.1,0.6
							c0.1,0.5-0.1,0.8,0.1,1.5c0,0,0,0.5-0.1,0.4c0,0.6,0.1-0.2,0.1-0.1c0.1,1-0.2,2.3,0,3.7c0.1,1.2,0.2,1.4,0.3,2.6
							c-0.1,0.4-0.2-0.3-0.2-0.3c-0.1,0.6-0.1,1.1,0,1.7c0-0.1-0.1,0-0.1,0.2c0,0.5,0.2,0.3,0.1,0.9c0-0.1-0.1-0.2-0.2-0.5
							c0.1,0.5,0.1,1.1,0.2,1.7c-0.1,0.2-0.1-0.3-0.2-0.5c0,0.6,0.1,1.7,0.2,1.8l0-0.4c0,0.2-0.1,0.1-0.1-0.1
							c-0.1-0.5,0-0.8,0.1-0.8l0,0.4c0.2-0.4,0-1.6,0-2.4l0.2,0.3l-0.1-0.8c0-0.2,0.1-0.3,0.2,0.1c0.1-0.6-0.1-0.5,0-1
							c0-0.1,0,0,0,0l-0.1-0.6c0,0.1,0.1-0.1,0.1,0.3c0.1-1-0.1-1.6,0-2l0,0.1c-0.1-1.4-0.1-0.1-0.3-1.2l0.3-0.7l-0.1-0.1
							c0-0.1,0-0.4,0.1-0.4c-0.1-0.5-0.1,0.1-0.1-0.2c0.1-0.7-0.1-1.9,0.2-2.1c-0.1-0.3-0.1,0.7-0.1-0.1c0.2-0.2,0-0.9,0.1-1.5
							c0.1,0.2,0.1,0.8,0.2,0.2c-0.2-0.4,0-1.3,0-1.8c-0.2,0-0.1-1.2-0.1-2.1c0.1,0.1,0.1-1.7,0.1-2.6l0,0c-0.2-0.2-0.1-1-0.2-1.7
							c0.1,0,0.1,0.1,0.2,0.5l0-0.6c-0.1-0.1-0.1-0.3-0.1-0.7l0.1,0.2c0-0.8-0.1-1.6-0.1-2.6c-0.1-0.1-0.3,0.8-0.4-0.3
							c0.1,0,0.2-0.1,0.2,0.2c0-0.1,0-0.3,0-0.5l0.1,0.4c0-0.5-0.1-0.2-0.1-0.6c0.1,0,0.1-0.3,0.1-0.2c0,0.1,0,0.3,0,0.5
							c0-0.4,0.1-0.9,0.1-1.1c0,0-0.1,0-0.1-0.3c0-0.8,0.1-0.3,0.1-0.7c-0.1-0.2,0-0.7-0.1-0.7c0-0.2,0.1-0.3,0.1-0.4
							c-0.1-0.4,0-1.9-0.2-1.5l0,0.1c0,0,0,0,0-0.1v0v0c-0.1-1.3,0.1-2.8,0-4.1l0,0c0-0.8,0-1.8-0.1-2.3c0-0.2,0.1-0.6,0.1-0.5
							c0-0.6-0.1-0.7,0-1.6c0.1,0.6,0.1-0.2,0.1,0.6c0-0.8,0.1-1,0-1.8c0.1,0.3,0.1-0.6,0.1-1L79.8,74c0-0.4,0-0.8,0-1.2l0.1,0.2
							c0.2-1.6-0.3-2.9,0-4.2c-0.1-0.4-0.1,0.9-0.2,0.5c0-0.7,0.2-1.5,0.2-1.8c0.1-1-0.2-1-0.2-2c-0.1,0.1-0.2,0.3-0.2-0.5
							c0-0.7,0.2-0.9,0.3-0.4c0,0.2,0,0.3,0,0.3c0,0.2,0,0.6,0.1,0.3L79.9,65c0.1-0.4,0-1.4,0.1-1.2c0-0.6-0.1-0.2-0.1,0.2
							c0.1-1,0-1.5,0.1-2.5c0,0.2-0.1,0.3-0.1,0.1c0.1-1.4-0.1-0.6-0.1-1.6c0.1-0.6,0.2,0.2,0.1-0.8c0.1-0.6,0.1-0.1,0.2,0.1
							c-0.1-0.9,0.1-1.7,0.1-2.2l0,0.5c0-0.3,0-0.5,0-0.8L80,57.2c0-0.3,0-0.5,0.1-0.5c-0.1-0.3-0.2,0.2-0.3-0.3
							c0.1-0.4-0.1-1.1,0.1-1.3c0,1.2,0.1-0.1,0.2,0.9c0-0.2,0-0.4,0-0.7c0,0,0,0,0,0.1c0.1-1.1-0.2-0.5-0.2-1.7
							c0.1,0.1,0.1-0.3,0.1-0.5c0,0.5-0.1,0.2-0.2-0.2c0.1-0.7,0-0.8,0-1.2l0,0.4c-0.1-0.2-0.1-0.5-0.1-1c0.1,0,0,0.5,0.1,0.3
							c-0.1-0.6,0.1-1.3,0-2.1c0.1-0.4,0.1,0,0.2-0.4c-0.1-0.9,0.1-1,0-1.9c-0.1,0.3-0.1,0.3-0.2-0.3l0.1,1.6l-0.1-1
							c0,0.5,0.1,1,0,1.3c-0.1-0.5-0.1-0.4-0.1-0.2c0.2-0.6-0.1-1.3,0-2l0.3,0c0.1-1.1-0.1-2-0.1-3.4l0,0.5c-0.1-0.2,0-0.9-0.1-1.4
							c0.1,0,0.1-0.2,0.2-0.4c-0.1,0,0-1.1-0.2-1.2l0.1-0.6c0-1.2-0.2-1.3-0.2-2.5c0.1,0.3,0.2-0.2,0.2,0.6c0-0.4,0-0.7,0-0.7
							c0.1-0.2-0.1-1,0-1.4c0-0.2-0.1-0.2-0.1-0.6c0,0,0,0,0,0c0,0-0.1-0.7-0.2-0.3c0.3-1.2,0-3.2,0.2-4.2c0-0.8,0-1.8-0.1-2.5
							c0,0,0,0,0,0.1c0.1-1-0.2-0.6-0.2-1.8c0.1-0.6,0.1,0.6,0.1,0.2c0.3-0.2,0-1.4,0.1-2.2l0,0.2c0.1-0.6-0.1-1.5-0.1-2.4
							c0,0,0,0,0,0c-0.1-0.7-0.2-1.9-0.2-2.9c0.1,0.3,0.1,0.4,0.2,0.2c0-0.4-0.2,0.1-0.2-0.7c0.1-0.3,0.1-0.9,0.2-1l0,0.8
							c0.2-0.4,0-1,0-1.4l0.1,0.1c0-1.2-0.2-1.2-0.2-2.5L79.7,15c-0.2-0.7,0.1-0.6,0-1.3l0.2-0.2c0-0.5-0.2-1.7-0.2-2.5
							c0.1,0.5,0.2,1.5,0.3,2.1c0-0.5,0-1.6-0.1-1.8c0,0.2,0.1,0.4,0,0.6c-0.1-0.3-0.1-0.6-0.1-1c0-0.2,0-0.4,0-0.6
							c0-0.2,0-0.5,0-0.7c0.1,0,0.1-0.2,0.2-0.6c-0.2,0-0.6,0-1,0c-0.4,0-0.8,0-1.2,0c0,0.4,0,0.7,0,1c0,0.2,0,0.4-0.1,0.5
							c0.1,1.6-0.1,3.3,0,5.2c0.3-0.7,0,0.6,0.3,0.4c0,0.4,0,0.6,0,0.7l-0.2,1.4c-0.1,0.3-0.1-0.4-0.1-0.4c0,1-0.1,0.4-0.2,1.1
							c0.1-0.1,0.1,0.3,0.1,0.9l0.1-0.8c0.1,1.4-0.2,1.2-0.1,2.6L77.3,21c0,0.7,0,2.6,0.2,3.3c0,0.1-0.1,0.3-0.1,0
							c0,1.7,0.2,3.8,0.1,5.1l-0.1-0.1c0,0.3,0.1,0.5,0.1,0.9c0,0-0.1-0.1-0.1,0c0,0.2,0.1,0.8,0.1,1.3l-0.1-0.4
							c-0.1,1.7,0.2,2.5,0.2,3.9c-0.2,0-0.3,1.3-0.3,1.9l0,0c0,1.9,0.2,3.3,0.2,5c-0.2,1.1-0.1,3.7-0.2,5.5c0-0.3,0.1,0,0.2,0.4
							c0,0.4,0.1,1.2,0,1.1l0-0.1c-0.2,0.3-0.1,1.2-0.1,1.8l0.2,0.1c-0.3,1.8,0.1,4.6-0.2,5.5c0.1,0.4,0.1,0.9,0.1,1.4l-0.1,0
							c0,1.2,0,1.8,0,3.2l-0.1-0.3c0,0.8,0.4,1,0.4,1.8l-0.2,0.2c0,1.4-0.2,2.9,0,4.3c0,0-0.1-0.1-0.1-0.3c0,0.7-0.1,2.6,0.1,2.3
							c-0.2,0,0,1.5,0.1,2.2L77.5,71c0.2,0.6,0.2,0.7,0.2,1.6c0,0.2-0.1,0.2-0.1-0.1c-0.1,0.7,0.1,0.6,0,1.4l-0.1-0.3
							c0,0.7,0,0.7,0.1,1.1c0,0.5,0,1.4-0.1,1.5c0.1,0.1,0.2,0.5,0.1,0.9c0,0.1-0.1-0.1-0.1-0.2c-0.1,1.2,0.1,1.8,0,2.7
							c0,0-0.1,0.1-0.1,0.1c0-1,0-1.8,0-1.7c-0.1,0-0.1,0.8-0.3,0.2c0.1,0.6,0.3,1.7,0.2,2.5c0,0,0,0.1,0,0.1l0-0.1
							c0,0.2,0,0.3,0,0.5c0,0.2,0,0.4,0,0.6c-0.1,0.1,0,0.9-0.1,1.3c0.1,0,0.1,0.5,0.2,0c0,0.1,0-0.1,0-0.3c0-0.1,0-0.1,0-0.2l0,0
							c0-0.3,0-0.6,0-1c0.1,0.3,0.1,0.6,0,1.1c0.1,0.2,0.2,0.4,0.2,0.5c-0.2,0.5-0.3,1.6-0.4,1.7c0.1,1.2,0,2.8,0.3,3.6
							c0,0.3-0.1,0.4-0.1,0.5c0-0.2,0-0.4-0.1-0.5c0.1,0.7,0,2,0.2,2.2c-0.1,0.9-0.1-0.5-0.1,0.7l0-0.2c-0.3,2.3,0.4,3.8,0.1,6.4
							c0-0.2,0-0.3,0.1-0.3c-0.1,2.9,0.1,6.1-0.1,9c0,0.8,0.1,0.9,0.1,1.4l-0.1,0.2l0.2,0.9c0.1,1.2-0.3,2.1-0.1,3.7l0.1-0.2
							c0,0.6,0.1,1.8,0,1.7c0,0.1,0.1,0.2,0,0.4l-0.1,0l0.1,1.4c0,0.5-0.1,0.5-0.1,0.5c-0.1,0-0.1,0.1-0.1,1.2c0,0,0.1,0,0.2,0
							c0.2,0,0.5,0,0.8,0c0.3,0,0.4,0,0.6-0.1c0.3-0.1,0.5-0.1,0.4-0.1c-0.2,0-0.6,0-0.6-0.1l0.5,0c0.1-0.2,0.5-0.4-0.8-0.5
							c-0.1,0-0.2,0.1-0.3,0.1l0-0.1c0,0,0.1-0.2,0.1-0.2l0,0.2l0.1,0c0,0,0,0,0,0c0-0.1,0,0-0.1-0.3c0.1-0.1,0.1-0.2,0.1-0.4
							l-0.2-0.9c0.1-0.1,0.2,0.4,0.2-0.2c-0.1-0.4-0.2,0.4-0.2-0.3c0.1-0.4,0.2-0.3,0.1-0.8c0.1-0.1,0.1,0,0.1,0.2
							c-0.1-0.4,0-1.2-0.1-1.4c0.1-0.4,0-1.5,0.2-1.5c0-0.1-0.1-0.8-0.2-1.2c0.2,0.8,0-1.5,0.3-1.3c-0.2-0.6-0.1-2-0.2-3
							c0,0.1,0,0.2,0,0.3c0-0.6,0.1-0.7,0.1-1.1c-0.2-0.1-0.2-0.9-0.3-1.4c0.2-0.7,0.2,0.4,0.4,0.2c-0.1,0-0.1-1.2-0.3-1
							c0.1-0.5,0-0.4,0.2-0.7c-0.2-0.1,0-0.5-0.2-0.9c0.1-0.8,0.2-0.2,0.1-1C78.6,99.5,78.7,100.2,78.7,100.2z M78.3,80.5L78.3,80.5
							c0,0.2,0,0.3,0,0.4C78.3,80.8,78.3,80.7,78.3,80.5z M78.3,78.8c0,0.2,0,0.5,0,0.7c0,0.1-0.1,0-0.1-0.2
							C78.2,79.5,78.3,79.1,78.3,78.8z M77.5,82.3c0-0.3,0-0.3,0-0.4C77.5,82.1,77.5,82.2,77.5,82.3l0.1,0.1
							C77.5,82.4,77.5,82.4,77.5,82.3z"/>
						<path fill="#202020" d="M77.6,82.8c0,0,0,0.1,0,0.1C77.6,82.9,77.6,82.8,77.6,82.8l0-0.1C77.6,82.7,77.6,82.8,77.6,82.8z"/>
						<path fill="#202020" d="M79.7,84.1L79.7,84.1C79.7,84.1,79.7,84.1,79.7,84.1C79.7,84.1,79.7,84.1,79.7,84.1z"/>
						<polygon fill="#202020" points="78.5,56 78.5,56 78.5,56.1 						"/>
						<path fill="#202020" d="M79.3,93.2c0,0,0,0.1,0,0.1C79.3,93.3,79.3,93.3,79.3,93.2z"/>
						<path fill="#202020" d="M79.3,97.2l0,0.6C79.2,97.5,79.2,97.3,79.3,97.2z"/>
						<path fill="#202020" d="M79.2,100.2C79.2,100.2,79.2,100.2,79.2,100.2L79.2,100.2L79.2,100.2z"/>
						<path fill="#202020" d="M79.1,52.1c0,0,0-0.1,0-0.1C79,51.7,79,51.9,79.1,52.1z"/>
						<path fill="#202020" d="M79.3,66.4c0-0.2,0-0.3-0.1-0.5C79.3,66.2,79.3,66.4,79.3,66.4z"/>
						<polygon fill="#202020" points="78.9,36.1 78.9,36.1 78.9,36 						"/>
						<path fill="#202020" d="M79.3,65.3c0,0.3,0,0.5,0,0.7C79.3,65.7,79.3,65.5,79.3,65.3z"/>
						<path fill="#202020" d="M79.1,113.3l0,0.1c0,0,0,0,0,0L79.1,113.3z"/>
						<path fill="#202020" d="M79.2,113.5l0,0.2C79.2,113.6,79.2,113.5,79.2,113.5z"/>
						<path fill="#202020" d="M79.2,114l0-0.3C79.2,113.7,79.2,113.9,79.2,114z"/>
						<path fill="#202020" d="M79.2,109.3L79.2,109.3C79.2,109.3,79.2,109.3,79.2,109.3z"/>
						<path fill="#202020" d="M79.2,108.1c0,0.3-0.1,0.7-0.1,1.1l0,0C79.1,109.1,79.3,108.4,79.2,108.1z"/>
						<path fill="#202020" d="M79.7,103l0,1c0-0.2,0.1-0.4,0.1,0.1C80,102.8,79.7,104.3,79.7,103z"/>
						<path fill="#202020" d="M79.8,99.8C79.8,100.4,79.9,99.8,79.8,99.8C79.9,99.5,79.8,99.4,79.8,99.8z"/>
						<path fill="#202020" d="M79.8,77l0.1,0.1C79.9,76.6,79.9,77,79.8,77z"/>
						<polygon fill="#202020" points="79.2,72.6 79.2,73 79.3,73.2 						"/>
						<polygon fill="#202020" points="80,70 80,70.2 80,69.5 						"/>
						<path fill="#202020" d="M80,31.6l-0.1,0.1C79.9,32,80,32.1,80,31.6z"/>
						<path fill="#202020" d="M79.8,15c0.1-0.2,0.1-0.6,0-0.9C79.9,14.5,79.8,14.8,79.8,15z"/>
						<polygon fill="#202020" points="77.4,51.6 77.4,51.3 77.4,51.9 						"/>
					</g>
				</g>
			</g>
		</g>
	</g>
	<g>
		<g>
			<g>
				<g>
					<g>
						<path fill="#202020" d="M96.9,119.2c0,0.1,0.1,0,0.1-0.3l-0.1-0.2L96.9,119.2z"/>
						<path fill="#202020" d="M97.2,117.1c-0.1-0.4-0.2-0.8-0.3-0.6c0.1,0.4,0.1,0.5,0.2,0.9c0,0.3,0,0.6-0.1,0.5
							c0,0.1,0,0.5,0.1,0.7C97.2,118.1,97.2,117.6,97.2,117.1C97.1,116.9,97.2,117,97.2,117.1z"/>
						<path fill="#202020" d="M97.4,86l0,0.2C97.4,86.2,97.4,86.1,97.4,86z"/>
						<path fill="#202020" d="M97.5,66.8c0,0.1,0,0.2,0,0.2C97.5,66.9,97.5,66.8,97.5,66.8z"/>
						<path fill="#202020" d="M97.7,63.6c0,0.1,0,0.1,0,0.2C97.7,63.7,97.7,63.6,97.7,63.6z"/>
						<path fill="#202020" d="M97.4,86l0-0.5C97.4,85.5,97.4,85.8,97.4,86z"/>
						<path fill="#202020" d="M96.9,112.8c0,0.1,0,0.2,0,0.3L96.9,112.8C96.9,112.8,96.9,112.8,96.9,112.8z"/>
						<path fill="#202020" d="M97.5,94.5l0,0.2c0,0,0,0.1,0.1,0.1L97.5,94.5z"/>
						<path fill="#202020" d="M97.6,101c0-0.1-0.1-0.2-0.2-0.3C97.4,100.8,97.5,101,97.6,101C97.5,101.1,97.5,101.1,97.6,101z"/>
						<path fill="#202020" d="M97.3,111.3l0,0.2C97.4,111.5,97.3,111.4,97.3,111.3z"/>
						<path fill="#202020" d="M97.6,89.9C97.6,89.9,97.6,89.8,97.6,89.9C97.6,89.8,97.6,89.8,97.6,89.9z"/>
						<path fill="#202020" d="M96.2,113.2C96.2,113.2,96.2,113.2,96.2,113.2C96.2,113.2,96.2,113.3,96.2,113.2z"/>
						<path fill="#202020" d="M97.2,119.2l-0.1,0c0,0,0,0,0,0.1L97.2,119.2z"/>
						<path fill="#202020" d="M97.8,57.5C97.8,57.6,97.8,57.6,97.8,57.5C97.8,57.7,97.8,57.6,97.8,57.5z"/>
						<path fill="#202020" d="M95.2,18.8c0.1-0.6,0.1,1,0.3,0.1C95.4,19,95.2,18.1,95.2,18.8z"/>
						<path fill="#202020" d="M96.9,112.6l0-0.3C96.9,112.5,96.9,112.5,96.9,112.6z"/>
						<path fill="#202020" d="M95.4,18.9L95.4,18.9L95.4,18.9C95.4,18.8,95.4,18.9,95.4,18.9z"/>
						<path fill="#202020" d="M97.7,43.7c0,0,0,0.1-0.1,0.1C97.7,43.9,97.7,43.8,97.7,43.7z"/>
						<path fill="#202020" d="M97.6,54l0-0.3C97.6,53.9,97.6,53.9,97.6,54z"/>
						<path fill="#202020" d="M97.6,38.4c0-0.1,0-0.2,0-0.4c0,0,0,0,0,0.1C97.6,38.1,97.6,38.2,97.6,38.4z"/>
						<path fill="#202020" d="M97.6,32.8c0,0,0,0.1,0,0.1c0,0.1,0,0.1,0,0.2L97.6,32.8z"/>
						<path fill="#202020" d="M96.2,96.3c0,0.1-0.1,0.2-0.1,0.3C96.2,96.5,96.2,97.3,96.2,96.3z"/>
						<path fill="#202020" d="M96.9,112.8c0,0,0-0.1-0.1-0.2C96.9,112.7,96.9,112.7,96.9,112.8C96.9,112.8,96.9,112.8,96.9,112.8z"
							/>
						<path fill="#202020" d="M96.6,38.1l0-0.9C96.6,37.5,96.6,37.8,96.6,38.1z"/>
						<path fill="#202020" d="M96.2,56.3l0,0.2C96.2,56.5,96.2,56.4,96.2,56.3z"/>
						<path fill="#202020" d="M96.6,34.6c0-0.2,0.1-0.3,0.1-0.5c0,0,0-0.1,0-0.1L96.6,34.6z"/>
						<path fill="#202020" d="M96.1,96.5L96.1,96.5L96.1,96.5z"/>
						<path fill="#202020" d="M96.4,102.4c0-0.8-0.2-0.4-0.2-0.6c0-1,0.1-0.5,0.2-0.8c0-0.6-0.2-1.1-0.2-1.6c0,0,0-0.1,0.1,0
							c-0.1-0.7,0-2-0.2-2.7c0-0.1,0-0.1,0-0.1c-0.1,0.1-0.2,0.1-0.2,0.1c0-0.4-0.1-0.7,0-0.8c0,0.2,0,0.3,0.1,0.4l0-0.4
							c0.1-0.4,0.1,0.5,0.2,0.5c0-0.8-0.2-1.7-0.1-2.3c0.1-0.1,0,1.4,0.2,0.6L96,95.6c0.2-0.7,0,0.6,0.2-0.1c0-1.2-0.1-1.3,0-2.5
							c-0.1-0.3-0.1,0.1-0.2-0.2c-0.1-1.7,0.4-1.3,0.2-2.6c-0.1-0.3-0.3-0.5-0.2-1.3l0.2,0.3c0-1.2-0.2-0.7-0.1-1.9
							c0.1,0.2,0.1,0.9,0.1,0.7c0.1-0.8-0.1-0.6-0.1-1.2l0.1-0.1c0-1.2-0.1-2.6-0.2-4c0,0.1,0.1,0.3,0.1,0c-0.1-1.7,0-3.7,0.1-5.4
							l-0.1-0.6c0-0.1,0.1-0.3,0.1-0.1c0-0.7-0.1,0-0.1-0.3c0-0.4,0.1-0.5,0.1-0.3c-0.1-1.2-0.2-3.3-0.1-4.5l0,0.2
							c0.1-0.9-0.3-1.1-0.1-1.9l0,0.2c0.1-2-0.1-4.3,0.1-5.9c-0.2-0.3,0.1-2-0.2-2.2c0.1-1.2,0.2-0.8,0.3-2.5c0-0.4-0.2-0.7-0.2-1.2
							l0.1,0l-0.1-0.7l0.2-0.4l0-0.5c0,0.2-0.1,0.4-0.1,0.4c-0.1-0.8,0.1-1.9,0.2-2l-0.1-1.9c0.1,0,0.1,0.4,0.1,0.6
							c-0.1-1,0.1-0.2,0-1.1c0,0.1-0.1-0.1-0.1-0.1c0.1-0.5,0.1-1.5,0-2.3l0.1,0.1c0-1.4,0-2.9,0-4.5c0,0.6-0.2,0.4-0.2,0l0.1-0.2
							c-0.1-0.3-0.1,0.5-0.2-0.1c0-0.6,0.2-0.4,0.2-0.1l0-0.7c0,0,0.1,0.1,0.1,0.2c-0.1-0.3,0.1-1.2,0-1.7l0,0c0-1.6,0-2.3-0.1-3.6
							c-0.1,0-0.1-0.5-0.2-0.9c0-0.9,0.1-2,0.1-3.1c-0.1-0.8-0.1-0.2-0.2-0.6c0.1-0.1,0.1-1.2,0.2-0.6c0-1.4,0-1.7-0.1-3.5
							c0,0.2-0.1,0.4-0.1,0.3c0-0.3,0-0.7,0.1-0.7l0,0.1c-0.2-1.9,0.3-4.5,0.1-6l0,0.1l-0.1-1.6c0-0.7,0.1,0.4,0.2-0.1
							c-0.2-1.7,0-2.7-0.1-4.1c0.3-1.1,0-3.9,0.2-5.4l-0.1,0.1c-0.1-0.4,0-0.5,0.1-0.7c-0.1,0-0.1,0.4-0.1,0.2c0-0.4,0-0.8,0-1.2
							c0.1,0,0.5,0,0.6,0c-0.1,2.1-0.1,4.2-0.2,6.2c0,1.2,0.4,0.7,0.2,2.2l-0.1-0.4c0.2,2.4,0,5,0.1,7.4c0-0.1-0.1-0.1-0.1-0.4
							c-0.1,0.5,0,1.9,0.1,1.9c0,0.4-0.1,0.1-0.1,0.3c-0.1,0.5,0.1,1.3,0,1.5c0,0,0-0.1,0-0.2c0.1,0.3,0,1.5,0.1,1.2
							c-0.1,0.9,0.1,1.7,0,2.4c0.1,0.5-0.1,1.5,0.1,1.7c-0.2-0.1-0.2,1.6-0.1,2.1c-0.1-0.2-0.1,0.5-0.1,0.3c0,0.6,0,1.2,0.1,1.1
							c-0.2,1.2,0.2,2.4-0.1,3.1c0.1,1.9,0.2,3.7,0.2,5.4c-0.2-0.1,0-1.9-0.2-1.8c0.1,1.6,0.2,2.6,0.2,4.2c0,0.4-0.1-0.2-0.1-0.4
							c0.1,1.6,0,3.2,0.1,4.6c0,0,0-0.2-0.1-0.3c0,0.3,0,0.7,0.1,0.6l0-0.3c0.1-0.5,0.3,1.1,0.3,1.2c-0.3-0.5-0.1,1.4-0.4,0.7
							c0,0.2,0.1,0.4,0.1,0.4c0,0.3-0.1,0.4-0.1,0.1c0,1,0.1,0.7,0.1,1.6c0,0-0.1-0.2-0.1-0.3c0.1,0.5,0.2,0.9,0.1,1.7
							c0,0-0.1,0-0.1-0.2c0,1.4,0.2,2.3,0.1,3.8c-0.2-0.4-0.1,0.5-0.2,0.6l0,0.8l0.1-0.3c0,0.7,0.1,1.3,0.1,1.9l-0.1-0.5l0,1.3
							l0.1-0.7c0.1,0.7,0.2-0.1,0.2,0.9c0-0.2,0,0.7-0.1,1.1l0,0c0.1,0.3,0.1,0.7,0.1,1.2c-0.1,0.1-0.2-0.1-0.2,0
							c0.1,0.3,0,1.6,0.2,2.1c0-0.1-0.1-0.2-0.1-0.1L97,72c0,0.3-0.1,0.4-0.1,0.3c0,1,0.2-0.3,0.1,0.9c0-0.1,0,0,0-0.2
							c0,1.2,0.1,2.3,0,3.3c-0.2,0.3,0-0.9-0.2-0.6c0,1.5,0.2,3.2,0.2,4.7l0-0.3c0.2,0.2-0.1,1.1,0,1.9c0-0.2-0.1-0.2-0.1-0.2
							c0,1,0.1,2.1,0.1,3.6L97,85.2c-0.1,0.6,0,1.6-0.1,2.2c0.1,0.2,0,0.6,0.1,0.3c-0.3,2,0.2,3.8-0.1,5.6c0-0.2-0.1-0.5-0.1-0.3
							l0.1,1.5c0.1-0.1,0.1-0.2,0.1-0.5c0.1,0.2,0.1,0.6,0.1,1c-0.1-0.7-0.2,0-0.2,0.3c0,0,0.1,0.1,0.1,0c-0.2,0.8,0.2,0.1,0.1,1.2
							l-0.1-0.1c0,0.4,0.1,0.8,0.1,1.2c-0.1,0.2-0.1-0.4-0.1-0.5c0,0.6,0.2,1.2,0.1,1.8c0-0.3,0-0.6-0.1-0.9
							c-0.1,0.6-0.1,0.7-0.1,1.1l0,0l-0.1,1l0-0.3c0.3,0.8,0.1,1.6,0.3,2.6c-0.2-1-0.1-0.2-0.2-0.2c0,0.3-0.1,0.7-0.1,0.6
							c0.1,0.5-0.1,0.8,0.1,1.5c0,0,0,0.5-0.1,0.4c0,0.6,0.1-0.2,0.1-0.1c0.1,1-0.2,2.3,0,3.7c0.1,1.2,0.2,1.4,0.3,2.6
							c-0.1,0.4-0.2-0.3-0.2-0.3c-0.1,0.6-0.1,1.1,0,1.7c0-0.1-0.1,0-0.1,0.2c0,0.5,0.2,0.3,0.1,0.9c0-0.1-0.1-0.2-0.2-0.5
							c0.1,0.5,0.1,1.1,0.2,1.7c-0.1,0.2-0.1-0.3-0.2-0.5c0,0.6,0.1,1.7,0.2,1.8l0-0.4c0,0.2-0.1,0.1-0.1-0.1
							c-0.1-0.5,0-0.8,0.1-0.8l0,0.4c0.2-0.4,0-1.6,0-2.4l0.2,0.3l-0.1-0.8c0-0.2,0.1-0.3,0.2,0.1c0.1-0.6-0.1-0.5,0-1
							c0-0.1,0,0,0,0l-0.1-0.6c0,0.1,0.1-0.1,0.1,0.3c0.1-1-0.1-1.6,0-2l0,0.1c-0.1-1.4-0.1-0.1-0.3-1.2l0.3-0.7l-0.1-0.1
							c0-0.1,0-0.4,0.1-0.4c-0.1-0.5-0.1,0.1-0.1-0.2c0.1-0.7-0.1-1.9,0.2-2.1c-0.1-0.3-0.1,0.7-0.1-0.1c0.2-0.2,0-0.9,0.1-1.5
							c0.1,0.2,0.1,0.8,0.2,0.2c-0.2-0.4,0-1.3,0-1.8c-0.2,0-0.1-1.2-0.1-2.1c0.1,0.1,0.1-1.7,0.1-2.6l0,0c-0.2-0.2-0.1-1-0.2-1.7
							c0.1,0,0.1,0.1,0.2,0.5l0-0.6c-0.1-0.1-0.1-0.3-0.1-0.7l0.1,0.2c0-0.8-0.1-1.6-0.1-2.6c-0.1-0.1-0.3,0.8-0.4-0.3
							c0.1,0,0.2-0.1,0.2,0.2c0-0.1,0-0.3,0-0.5l0.1,0.4c0-0.5-0.1-0.2-0.1-0.6c0.1,0,0.1-0.3,0.1-0.2c0,0.1,0,0.3,0,0.5
							c0-0.4,0.1-0.9,0.1-1.1c0,0-0.1,0-0.1-0.3c0-0.8,0.1-0.3,0.1-0.7c-0.1-0.2,0-0.7-0.1-0.7c0-0.2,0.1-0.3,0.1-0.4
							c-0.1-0.4,0-1.9-0.2-1.5l0,0.1c0,0,0,0,0-0.1v0v0c-0.1-1.3,0.1-2.8,0-4.1l0,0c0-0.8,0-1.8-0.1-2.3c0-0.2,0.1-0.6,0.1-0.5
							c0-0.6-0.1-0.7,0-1.6c0.1,0.6,0.1-0.2,0.1,0.6c0-0.8,0.1-1,0-1.8c0.1,0.3,0.1-0.6,0.1-1l-0.1,0.6c0-0.4,0-0.8,0-1.2l0.1,0.2
							c0.2-1.6-0.3-2.9,0-4.2c-0.1-0.4-0.1,0.9-0.2,0.5c0-0.7,0.2-1.5,0.2-1.8c0.1-1-0.2-1-0.2-2c-0.1,0.1-0.2,0.3-0.2-0.5
							c0-0.7,0.2-0.9,0.3-0.4c0,0.2,0,0.3,0,0.3c0,0.2,0,0.6,0.1,0.3l-0.1-0.1c0.1-0.4,0-1.4,0.1-1.2c0-0.6-0.1-0.2-0.1,0.2
							c0.1-1,0-1.5,0.1-2.5c0,0.2-0.1,0.3-0.1,0.1c0.1-1.4-0.1-0.6-0.1-1.6c0.1-0.6,0.2,0.2,0.1-0.8c0.1-0.6,0.1-0.1,0.2,0.1
							c-0.1-0.9,0.1-1.7,0.1-2.2l0,0.5c0-0.3,0-0.5,0-0.8l-0.1,0.3c0-0.3,0-0.5,0.1-0.5c-0.1-0.3-0.2,0.2-0.3-0.3
							c0.1-0.4-0.1-1.1,0.1-1.3c0,1.2,0.1-0.1,0.2,0.9c0-0.2,0-0.4,0-0.7c0,0,0,0,0,0.1c0.1-1.1-0.2-0.5-0.2-1.7
							c0.1,0.1,0.1-0.3,0.1-0.5c0,0.5-0.1,0.2-0.2-0.2c0.1-0.7,0-0.8,0-1.2l0,0.4c-0.1-0.2-0.1-0.5-0.1-1c0.1,0,0,0.5,0.1,0.3
							c-0.1-0.6,0.1-1.3,0-2.1c0.1-0.4,0.1,0,0.2-0.4c-0.1-0.9,0.1-1,0-1.9c-0.1,0.3-0.1,0.3-0.2-0.3l0.1,1.6l-0.1-1
							c0,0.5,0.1,1,0,1.3c-0.1-0.5-0.1-0.4-0.1-0.2c0.2-0.6-0.1-1.3,0-2l0.3,0c0.1-1.1-0.1-2-0.1-3.4l0,0.5c-0.1-0.2,0-0.9-0.1-1.4
							c0.1,0,0.1-0.2,0.2-0.4c-0.1,0,0-1.1-0.2-1.2l0.1-0.6c0-1.2-0.2-1.3-0.2-2.5c0.1,0.3,0.2-0.2,0.2,0.6c0-0.4,0-0.7,0-0.7
							c0.1-0.2-0.1-1,0-1.4c0-0.2-0.1-0.2-0.1-0.6c0,0,0,0,0,0c0,0-0.1-0.7-0.2-0.3c0.3-1.2,0-3.2,0.2-4.2c0-0.8,0-1.8-0.1-2.5
							c0,0,0,0,0,0.1c0.1-1-0.2-0.6-0.2-1.8c0.1-0.6,0.1,0.6,0.1,0.2c0.3-0.2,0-1.4,0.1-2.2l0,0.2c0.1-0.6-0.1-1.5-0.1-2.4
							c0,0,0,0,0,0c-0.1-0.7-0.2-1.9-0.2-2.9c0.1,0.3,0.1,0.4,0.2,0.2c0-0.4-0.2,0.1-0.2-0.7c0.1-0.3,0.1-0.9,0.2-1l0,0.8
							c0.2-0.4,0-1,0-1.4l0.1,0.1c0-1.2-0.2-1.2-0.2-2.5l-0.1,0.1c-0.2-0.7,0.1-0.6,0-1.3l0.2-0.2c0-0.5-0.2-1.7-0.2-2.5
							c0.1,0.5,0.2,1.5,0.3,2.1c0-0.5,0-1.6-0.1-1.8c0,0.2,0.1,0.4,0,0.6c-0.1-0.3-0.1-0.6-0.1-1c0-0.2,0-0.4,0-0.6
							c0-0.2,0-0.5,0-0.7c0.1,0,0.1-0.2,0.2-0.6c-0.2,0-0.6,0-1,0c-0.4,0-0.8,0-1.2,0c0,0.4,0,0.7,0,1c0,0.2,0,0.4-0.1,0.5
							c0.1,1.6-0.1,3.3,0,5.2c0.3-0.7,0,0.6,0.3,0.4c0,0.4,0,0.6,0,0.7l-0.2,1.4c-0.1,0.3-0.1-0.4-0.1-0.4c0,1-0.1,0.4-0.2,1.1
							c0.1-0.1,0.1,0.3,0.1,0.9l0.1-0.8c0.1,1.4-0.2,1.2-0.1,2.6L95,23.2c0,0.7,0,2.6,0.2,3.3c0,0.1-0.1,0.3-0.1,0
							c0,1.7,0.2,3.8,0.1,5.1l-0.1-0.1c0,0.3,0.1,0.5,0.1,0.9c0,0-0.1-0.1-0.1,0c0,0.2,0.1,0.8,0.1,1.3l-0.1-0.4
							c-0.1,1.7,0.2,2.5,0.2,3.9c-0.2,0-0.3,1.3-0.3,1.9l0,0c0,1.9,0.2,3.3,0.2,5c-0.2,1.1-0.1,3.7-0.2,5.5c0-0.3,0.1,0,0.2,0.4
							c0,0.4,0.1,1.2,0,1.1l0-0.1c-0.2,0.3-0.1,1.2-0.1,1.8l0.2,0.1c-0.3,1.8,0.1,4.6-0.2,5.5c0.1,0.4,0.1,0.9,0.1,1.4l-0.1,0
							c0,1.2,0,1.8,0,3.2L95,62.7c0,0.8,0.4,1,0.4,1.8l-0.2,0.2c0,1.4-0.2,2.9,0,4.3c0,0-0.1-0.1-0.1-0.3c0,0.7-0.1,2.6,0.1,2.3
							c-0.2,0,0,1.5,0.1,2.2l-0.1-0.1c0.2,0.6,0.2,0.7,0.2,1.6c0,0.2-0.1,0.2-0.1-0.1c-0.1,0.7,0.1,0.6,0,1.4l-0.1-0.3
							c0,0.7,0,0.7,0.1,1.1c0,0.5,0,1.4-0.1,1.5c0.1,0.1,0.2,0.5,0.1,0.9c0,0.1-0.1-0.1-0.1-0.2c-0.1,1.2,0.1,1.8,0,2.7
							c0,0-0.1,0.1-0.1,0.1c0-1,0-1.8,0-1.7c-0.1,0-0.1,0.8-0.3,0.2c0.1,0.6,0.3,1.7,0.2,2.5c0,0,0,0.1,0,0.1l0-0.1
							c0,0.2,0,0.3,0,0.5c0,0.2,0,0.4,0,0.6c-0.1,0.1,0,0.9-0.1,1.3c0.1,0,0.1,0.5,0.2,0c0,0.1,0-0.1,0-0.3c0-0.1,0-0.1,0-0.2l0,0
							c0-0.3,0-0.6,0-1c0.1,0.3,0.1,0.6,0,1.1c0.1,0.2,0.2,0.4,0.2,0.5c-0.2,0.5-0.3,1.6-0.4,1.7c0.1,1.2,0,2.8,0.3,3.6
							c0,0.3-0.1,0.4-0.1,0.5c0-0.2,0-0.4-0.1-0.5c0.1,0.7,0,2,0.2,2.2c-0.1,0.9-0.1-0.5-0.1,0.7l0-0.2c-0.3,2.3,0.4,3.8,0.1,6.4
							c0-0.2,0-0.3,0.1-0.3c-0.1,2.9,0.1,6.1-0.1,9c0,0.8,0.1,0.9,0.1,1.4l-0.1,0.2l0.2,0.9c0.1,1.2-0.3,2.1-0.1,3.7l0.1-0.2
							c0,0.6,0.1,1.8,0,1.7c0,0.1,0.1,0.2,0,0.4l-0.1,0l0.1,1.4c0,0.5-0.1,0.5-0.1,0.5c-0.1,0-0.1,0.1-0.1,1.2c0,0,0.1,0,0.2,0
							c0.2,0,0.5,0,0.8,0c0.3,0,0.4,0,0.6-0.1c0.3-0.1,0.5-0.1,0.4-0.1c-0.2,0-0.6,0-0.6-0.1l0.5,0c0.1-0.2,0.5-0.4-0.8-0.5
							c-0.1,0-0.2,0.1-0.3,0.1l0-0.1c0,0,0.1-0.2,0.1-0.2l0,0.2l0.1,0c0,0,0,0,0,0c0-0.1,0,0-0.1-0.3c0.1-0.1,0.1-0.2,0.1-0.4
							l-0.2-0.9c0.1-0.1,0.2,0.4,0.2-0.2c-0.1-0.4-0.2,0.4-0.2-0.3c0.1-0.4,0.2-0.3,0.1-0.8c0.1-0.1,0.1,0,0.1,0.2
							c-0.1-0.4,0-1.2-0.1-1.4c0.1-0.4,0-1.5,0.2-1.5c0-0.1-0.1-0.8-0.2-1.2c0.2,0.8,0-1.5,0.3-1.3c-0.2-0.6-0.1-2-0.2-3
							c0,0.1,0,0.2,0,0.3c0-0.6,0.1-0.7,0.1-1.1c-0.2-0.1-0.2-0.9-0.3-1.4c0.2-0.7,0.2,0.4,0.4,0.2c-0.1,0-0.1-1.2-0.3-1
							c0.1-0.5,0-0.4,0.2-0.7c-0.2-0.1,0-0.5-0.2-0.9c0.1-0.8,0.2-0.2,0.1-1C96.3,101.6,96.4,102.4,96.4,102.4z M96,82.7L96,82.7
							c0,0.2,0,0.3,0,0.4C96,83,96,82.9,96,82.7z M96,81c0,0.2,0,0.5,0,0.7c0,0.1-0.1,0-0.1-0.2C95.9,81.7,96,81.3,96,81z
							 M95.1,84.5c0-0.3,0-0.3,0-0.4C95.2,84.3,95.2,84.4,95.1,84.5l0.1,0.1C95.2,84.6,95.2,84.6,95.1,84.5z"/>
						<path fill="#202020" d="M95.3,85c0,0,0,0.1,0,0.1C95.3,85,95.3,85,95.3,85l0-0.1C95.3,84.9,95.3,84.9,95.3,85z"/>
						<path fill="#202020" d="M97.4,86.3L97.4,86.3C97.4,86.3,97.4,86.3,97.4,86.3C97.4,86.3,97.4,86.3,97.4,86.3z"/>
						<polygon fill="#202020" points="96.2,58.2 96.2,58.2 96.2,58.3 						"/>
						<path fill="#202020" d="M97,95.4c0,0,0,0.1,0,0.1C97,95.5,97,95.5,97,95.4z"/>
						<path fill="#202020" d="M97,99.3l0,0.6C96.9,99.6,96.9,99.5,97,99.3z"/>
						<path fill="#202020" d="M96.9,102.4C96.9,102.4,96.9,102.4,96.9,102.4L96.9,102.4L96.9,102.4z"/>
						<path fill="#202020" d="M96.8,54.2c0,0,0-0.1,0-0.1C96.7,53.8,96.7,54,96.8,54.2z"/>
						<path fill="#202020" d="M97,68.6c0-0.2,0-0.3-0.1-0.5C97,68.3,97,68.5,97,68.6z"/>
						<polygon fill="#202020" points="96.6,38.2 96.6,38.2 96.6,38.1 						"/>
						<path fill="#202020" d="M97,67.4c0,0.3,0,0.5,0,0.7C97,67.9,97,67.6,97,67.4z"/>
						<path fill="#202020" d="M96.8,115.5l0,0.1c0,0,0,0,0,0L96.8,115.5z"/>
						<path fill="#202020" d="M96.9,115.6l0,0.2C96.9,115.7,96.9,115.7,96.9,115.6z"/>
						<path fill="#202020" d="M96.9,116.1l0-0.3C96.9,115.9,96.9,116.1,96.9,116.1z"/>
						<path fill="#202020" d="M96.9,111.5L96.9,111.5C96.9,111.4,96.9,111.5,96.9,111.5z"/>
						<path fill="#202020" d="M96.9,110.3c0,0.3-0.1,0.7-0.1,1.1l0,0C96.8,111.2,97,110.5,96.9,110.3z"/>
						<path fill="#202020" d="M97.4,105.2l0,1c0-0.2,0.1-0.4,0.1,0.1C97.7,105,97.4,106.5,97.4,105.2z"/>
						<path fill="#202020" d="M97.5,102C97.5,102.6,97.6,102,97.5,102C97.5,101.7,97.5,101.6,97.5,102z"/>
						<path fill="#202020" d="M97.5,79.1l0.1,0.1C97.6,78.8,97.6,79.2,97.5,79.1z"/>
						<polygon fill="#202020" points="96.9,74.8 96.9,75.2 97,75.4 						"/>
						<polygon fill="#202020" points="97.7,72.2 97.7,72.4 97.7,71.7 						"/>
						<path fill="#202020" d="M97.7,33.8l-0.1,0.1C97.6,34.2,97.7,34.3,97.7,33.8z"/>
						<path fill="#202020" d="M97.5,17.2c0.1-0.2,0.1-0.6,0-0.9C97.6,16.6,97.5,17,97.5,17.2z"/>
						<polygon fill="#202020" points="95.1,53.8 95.1,53.4 95.1,54.1 						"/>
					</g>
				</g>
			</g>
		</g>
	</g>
</g>
</svg>
