<?xml version="1.0" encoding="utf-8"?>
<!-- Generator: Adobe Illustrator 18.0.0, SVG Export Plug-In . SVG Version: 6.00 Build 0)  -->
<!DOCTYPE svg PUBLIC "-//W3C//DTD SVG 1.1//EN" "http://www.w3.org/Graphics/SVG/1.1/DTD/svg11.dtd">
<svg version="1.1" id="Layer_1" xmlns="http://www.w3.org/2000/svg" xmlns:xlink="http://www.w3.org/1999/xlink" x="0px" y="0px"
	 viewBox="0 0 144 144" enable-background="new 0 0 144 144" xml:space="preserve">
<g>
	<g>
		<g>
			<g>
				<g>
					<g>
						<path fill="#202020" d="M53.8,84.9c0.2,0,0-0.2-0.3-0.1c0,0-0.1,0.3-0.1,0.3c0,0,0-0.1,0.1-0.1C53.7,84.9,53.8,84.9,53.8,84.9
							z"/>
						<path fill="#202020" d="M53.4,87.1c0.4,0.4,1.1,0.5,0.9,0.2c-0.5-0.1-0.5-0.2-1-0.6c-0.2-0.4-0.1-0.8-0.1-0.7
							c-0.1-0.2,0-0.7,0-0.9c-0.4,0.4-0.3,1.4,0.3,2C53.6,87.2,53.4,87.1,53.4,87.1z"/>
						<path fill="#202020" d="M86.5,105.7l-0.1-0.3C86.5,105.5,86.5,105.6,86.5,105.7z"/>
						<path fill="#202020" d="M102.7,99.5c0,0.2,0,0.3,0,0.3C102.7,99.6,102.7,99.5,102.7,99.5z"/>
						<path fill="#202020" d="M102.5,94.5c0,0.1,0,0.2,0,0.3C102.5,94.6,102.5,94.5,102.5,94.5z"/>
						<path fill="#202020" d="M86.5,105.7l0.3,0.7C86.9,106.5,86.7,106,86.5,105.7z"/>
						<path fill="#202020" d="M58.1,91.4c0-0.2,0-0.3-0.1-0.5C58.1,91.1,58.1,91.2,58.1,91.4C58.1,91.4,58.1,91.4,58.1,91.4z"/>
						<path fill="#202020" d="M79.6,98.7l-0.2,0.1c-0.1,0-0.1,0.1-0.2,0.1L79.6,98.7z"/>
						<path fill="#202020" d="M69.7,100c0.2,0,0.3-0.1,0.4-0.2c-0.1,0.1-0.3,0.1-0.5,0.1C69.6,99.9,69.6,99.9,69.7,100z"/>
						<path fill="#202020" d="M57.1,93.6l0-0.3C57.2,93.4,57.2,93.5,57.1,93.6z"/>
						<path fill="#202020" d="M84.1,100.5c0,0,0,0.1,0,0.1C84.1,100.6,84.1,100.5,84.1,100.5z"/>
						<path fill="#202020" d="M44,87.7C44,87.7,44,87.8,44,87.7C44.1,87.7,44.1,87.7,44,87.7z"/>
						<path fill="#202020" d="M54.6,84.6l-0.1,0.1c0,0,0,0.1,0,0.1L54.6,84.6z"/>
						<path fill="#202020" d="M100.3,85.4C100.3,85.5,100.3,85.5,100.3,85.4C100.4,85.7,100.4,85.6,100.3,85.4z"/>
						<path fill="#202020" d="M96.3,40c1,0.2-1.6,0.2-0.1,0.3C96,40.3,97.4,40.1,96.3,40z"/>
						<path fill="#202020" d="M58.1,91.7c0,0.1,0,0.3,0,0.4C58.1,91.9,58.1,91.8,58.1,91.7z"/>
						<path fill="#202020" d="M96.1,40.4L96.1,40.4l0.1,0C96.2,40.4,96.2,40.4,96.1,40.4z"/>
						<path fill="#202020" d="M104.3,75.1c0,0-0.1-0.1-0.2-0.1C104.1,75,104.2,75,104.3,75.1z"/>
						<path fill="#202020" d="M97.7,80.7l-0.2-0.4C97.6,80.4,97.6,80.6,97.7,80.7z"/>
						<path fill="#202020" d="M112.5,73.9c0.2-0.1,0.3,0,0.6-0.2c0,0-0.1,0-0.1,0C112.9,73.8,112.8,73.8,112.5,73.9z"/>
						<path fill="#202020" d="M118.3,68c0,0.1,0,0.1,0,0.2c0,0.1,0,0.2,0.1,0.3c0,0,0-0.1,0-0.2C118.4,68.1,118.3,68,118.3,68z"/>
						<path fill="#202020" d="M38.2,70c0.2,0.1,0.2,0.2,0.3,0.2C38.4,70.1,39.6,70.3,38.2,70z"/>
						<path fill="#202020" d="M58,91.4c0,0.1,0.1,0.1,0.1,0.3C58.1,91.6,58.1,91.5,58,91.4C58.1,91.4,58,91.4,58,91.4z"/>
						<path fill="#202020" d="M112.5,72.6c0,0,0.3-0.1,0.6-0.2c0.3-0.1,0.6-0.2,0.6-0.2C113.3,72.3,112.9,72.4,112.5,72.6z"/>
						<path fill="#202020" d="M45.5,34.8c0,0,0.1,0.2,0.1,0.2C45.6,34.9,45.5,34.8,45.5,34.8z"/>
						<path fill="#202020" d="M116.7,70.1c0.2-0.1,0.3-0.2,0.4-0.4c0,0,0-0.1,0-0.1C117.1,69.6,116.7,70.1,116.7,70.1z"/>
						<path fill="#202020" d="M38.5,70.2L38.5,70.2L38.5,70.2z"/>
						<path fill="#202020" d="M40.9,76.8c0.4-0.4,0.5-0.6,0.4-0.7c0-0.1-0.2,0-0.1-0.2c1-1.3,0.6-0.5,1-0.9c0.5-0.9,0.8-1.9,0.5-2.9
							c0-0.1,0-0.3,0.1-0.1c-0.1-0.4-0.4-0.7-0.8-1.1c-0.4-0.3-0.9-0.5-1.3-0.5c-0.9-0.1-1.5-0.2-2.1-0.2c-0.1,0-0.1-0.1-0.1-0.1
							c0.2,0.1,0.2,0.3,0.1,0.3c-0.5-0.1-1.1-0.1-1.2-0.4c0.3,0.1,0.4,0.1,0.5,0.1c0,0-0.1,0-0.3-0.1c-0.1,0-0.3-0.1-0.3-0.1
							c-0.4-0.4,0.8,0.2,0.8,0c-1.1-0.2-2.4-0.6-3.2-1.1c-0.1-0.2,1.9,0.8,0.9,0.2c0,0,0.3,0.2,0.6,0.3c0.3,0.1,0.6,0.3,0.6,0.3
							c-0.8-0.7,0.7,0.3,0-0.3c-1.6-0.7-1.8-0.7-3.3-1.7c-0.4-0.1,0,0.2-0.4,0.1c-2.2-1.3-1.4-1.6-3-2.5c-0.5-0.2-0.8-0.1-1.7-1.1
							l0.5,0.1c-0.6-0.6-0.8-0.7-1.1-0.8c-0.2-0.1-0.5-0.3-0.8-1c0.2,0.2,0.8,1,0.7,0.8c-0.3-0.5-0.4-0.6-0.5-0.7
							c-0.1-0.1-0.3-0.2-0.4-0.6l0.1-0.2c-0.6-1.5-0.1-3.5,1.1-5.1c0,0.1-0.2,0.4,0.2,0.1c1.4-2.1,4-3.6,6.3-4.4
							c0,0,0.2-0.1,0.4-0.3c0.2-0.1,0.4-0.2,0.4-0.2c0.2-0.1,0.4-0.1,0.2,0c0.9-0.3,0-0.1,0.4-0.3c0.5-0.2,0.7-0.1,0.4,0
							c1.6-0.7,4.7-1.6,6.5-1.8L42.7,50c1.4-0.3,1.5-0.7,2.8-0.8l-0.2,0.1c1.5-0.3,3.2-0.8,4.6-1.7c0.7-0.4,1.3-1,1.8-1.6
							c0.5-0.6,0.8-1.4,0.9-2.1c-0.1-0.3-0.1-1.2-0.4-2c-0.3-0.8-0.8-1.4-1-1.4c-0.5-0.8-0.7-1.1-1-1.4c-0.3-0.3-0.7-0.7-1.7-1.5
							c-0.5-0.4-0.9-0.4-1.6-0.9l0.1-0.1c0,0-0.2-0.1-0.5-0.3c-0.2-0.1-0.4-0.3-0.4-0.3s-0.1-0.1-0.1-0.3C46,35.6,46,35.4,46,35.4
							c0,0-0.4-0.5-0.4-0.5c0.1,0.2,0.2,0.5,0.2,0.5c-0.4-0.4-0.5-1-0.4-1.3c0.1-0.4,0.5-0.5,0.5-0.5c0,0,0.1-0.1,0.2-0.2
							c0.2-0.1,0.4-0.3,0.7-0.5c0.6-0.3,1.2-0.5,1.2-0.5c0,0.1-0.5,0.2-0.8,0.4c1.3-0.6,0.3,0.1,1.6-0.5c-0.2,0,0.1-0.1,0.1-0.2
							c0.7-0.1,2.2-0.5,3.3-0.8l-0.2,0.2c2-0.4,4.3-0.9,6.6-0.7c-0.8-0.1-0.6-0.3,0.1-0.3l0.3,0.2c0.4-0.1-0.7-0.1,0.2-0.2
							c0.9,0.1,0.5,0.3,0.1,0.3c0,0,0.3,0,0.5,0c0.3,0,0.5,0.1,0.5,0.1c0,0.1-0.2,0-0.3,0.1c0.5-0.1,1.7,0.6,2.3,0.6l0,0.1
							c2,0.9,2.8,1.5,4.1,2.9c0.1-0.1,0.6,0.5,1.1,0.9c0.9,1.1,1.8,2.5,3.3,3.6c1.1,0.7,0.4,0.1,0.9,0.3c0,0.2,1.6,1,0.7,0.7
							c1,0.5,1.7,0.7,2.4,0.9c0.7,0.2,1.6,0.3,2.9,0.4c-0.3-0.1-0.6-0.2-0.4-0.2c0.5,0.1,1.1,0.2,1,0.2l-0.1,0c3,0.1,6.9,0.4,9.2,0
							l-0.1,0l2.4-0.2c1.1,0-0.7,0.1,0.2,0.2c2.6-0.3,4.1,0,6.3-0.2c1.7,0.4,5.9,0.1,8.1,0.5l-0.1-0.1c0.6-0.1,0.7,0.1,1.1,0.1
							c-0.1-0.1-0.6-0.1-0.3-0.2c1.2,0,2.4,0.2,3.6,0.5c1.1,0.3,2.3,0.8,3,1.6c0.4,0.4,0.6,0.8,0.6,1.3c0.1,0.5,0,0.9-0.3,1.4
							c-0.5,0.9-1.4,1.8-2.2,2.8c-0.6,0.7-0.7,1-0.8,1.4c-0.1,0.4-0.3,0.6-1,1.8c0,0,0-0.2,0.1-0.4c0-0.2,0.1-0.4,0.1-0.4
							c-0.5,0.9-0.7,2.2-0.4,3.3c0.3,1.1,1,2,1.7,2.7c0.7,0.7,1.5,1.3,2.1,1.9c0.7,0.6,1.3,1.2,2,1.9c-0.2-0.1-0.2-0.1-0.5-0.3
							c0.4,0.6,1.8,2.1,1.9,2.1c0.3,0.5,0,0.2,0.1,0.5c0.4,0.6,1.1,1.5,1.2,1.9c0,0.1-0.1-0.2-0.2-0.3c0.3,0.4,0.9,2,0.9,1.6
							c0.2,0.6,0.4,1.2,0.5,1.8c0.1,0.5,0.1,0.9-0.2,1.3c0,0.3-0.4,0.7-0.7,1c-0.4,0.3-0.7,0.6-0.8,0.7c0-0.1-0.5,0.1-1.1,0.5
							c-0.6,0.3-1.3,0.6-1.7,0.8c0.2-0.2-0.7,0.1-0.4-0.1c-0.9,0.3-1.7,0.5-1.6,0.6c-1.8,0-3.5,0.7-4.6,0.4
							c-2.9,0.2-5.6,0.2-8.2,0.3c0.1-0.3,2.9,0,2.8-0.3c-1.2,0-2.2,0.1-3.2,0.2c-0.5,0-1.1,0-1.7,0.2c-0.3,0.1-0.6,0.3-0.9,0.6
							c-0.2,0.3-0.4,0.7-0.4,1.1c-0.1,0.8-0.1-0.5,0.1-0.8c-0.4,0.9-0.2,1.6,0,2.3c0.2,0.7,0.5,1.2,0.8,1.8c0.6,1,1.2,2,1.8,2.9
							c0,0-0.2-0.2-0.3-0.4c0.2,0.4,0.4,0.9,0.5,0.8l-0.2-0.4c-0.2-0.7,1.1,1.4,1.2,1.4c-0.6-0.5,0.8,2-0.1,1.1
							c0.1,0.2,0.3,0.6,0.4,0.5c0.1,0.4,0.1,0.5-0.1,0.2c0.6,1.4,0.6,0.9,1,2.2c-0.1,0-0.2-0.2-0.3-0.4c0.4,0.6,0.7,1.3,1,2.4
							c-0.1-0.1-0.1,0.1-0.2-0.3c0.6,2,1.2,3.3,1.4,5.6c-0.3-0.6,0,0.8-0.2,0.9l0.2,1.2l0.1-0.5c0.1,1,0.3,2,0.3,2.9
							c0,0,0-0.2-0.1-0.4c0-0.2-0.1-0.4-0.1-0.4s0,0.5,0.1,1c0,0.5,0,1,0,1l0.1-1.1c0.1,1.1,0.3-0.1,0.2,1.3c0-0.3,0,1.1-0.2,1.6
							l0,0c0,0.5,0.1,1.1,0,1.9c-0.1,0.2-0.2-0.2-0.3-0.1c0.2,0.5-0.3,2.4-0.3,3.1c0-0.2-0.1-0.3-0.1-0.2l0,0.5
							c-0.2,0.5-0.2,0.5-0.3,0.4c-0.5,1.3,0.5-0.3-0.3,1.2c0-0.1,0-0.1,0.1-0.3c-0.7,1.5-1.7,2.9-3.1,3.7c-0.3,0,0-0.2,0.3-0.3
							c0.3-0.2,0.5-0.4,0.2-0.3c-0.8,0.7-1.9,1.2-3,1.3c-1.1,0.1-2.3-0.2-3.2-0.8c0,0,0.3,0.2,0.3,0.2c-0.4,0.1-1.3-1-2.2-1.7
							c0.2,0.2,0.4,0.1,0.3,0.1c-1-1.1-2.1-2.3-3.1-4.4l0.2,0.2c-0.3-0.9-0.9-2.2-1.2-3.2c-0.2-0.2-0.4-0.8-0.4-0.4
							c-0.4-1.5-1-2.9-1.9-4c-0.4-0.6-0.9-1.1-1.4-1.7c-0.3-0.2-0.6-0.9-1-0.4c-0.4,0.2-0.7,0.4-1,0.5c0.3-0.2,0.6-0.4,0.4-0.3
							c0,0.1-2,1.1-2,1c0.2,0.1,0.3,0,0.8-0.1c-0.2,0.2-0.8,0.5-1.4,0.7c0.9-0.4-0.1-0.2-0.5-0.1c0.1,0,0,0.1,0,0.1
							c-1.2,0.1-0.1,0.3-1.8,0.5l0.1-0.1c-0.6,0.1-1.1,0.3-1.8,0.4c-0.3-0.1,0.6-0.1,0.7-0.3c-0.9,0.1-1.8,0.5-2.7,0.4
							c0.4-0.1,1-0.1,1.4-0.2c-0.9-0.1-1-0.1-1.7-0.1l0.1,0c0,0-0.4,0-0.8,0c-0.4,0-0.8-0.1-0.8-0.1l0.4,0.1c-1.2,0.4-2.4,0-3.9,0.1
							c1.5-0.1,0.3-0.1,0.4-0.3c-0.4-0.1-1-0.2-0.8-0.2c-0.8,0.1-1.2-0.3-2.3-0.2c0-0.1-0.8-0.1-0.6-0.2c-1-0.1,0.2,0.1,0.1,0.2
							c-0.7,0-1.6-0.2-2.5-0.4c-0.9-0.2-1.9-0.5-2.7-0.9c-0.7-0.4-1-0.9-1.2-1.3c-0.2-0.5-0.3-1-0.3-1.8c0.2-0.6,0.1,0.5,0.2,0.5
							c0.1-0.9,0.3-1.6,0.4-2.5c0,0.2,0.1,0,0.2-0.3c0-0.8-0.1-0.5-0.2-1.5c0.1,0.1,0.3,0.4,0.3,0.7c-0.1-0.9-0.7-1.8-1.5-2.3
							c-0.2-0.2,0.6,0.2,0.8,0.5c-0.4-0.4-1-0.8-1.5-1c-0.5-0.2-1-0.3-1.1-0.3l0.5,0.3c-0.3-0.1-0.1-0.2,0.1-0.1
							c0.8,0.2,1.1,0.6,1.1,0.7c0,0-0.1-0.1-0.3-0.1c-0.1-0.1-0.3-0.1-0.3-0.1c0.2,0.3,0.8,0.5,1.3,1.1c0.5,0.5,0.7,1.4,0.6,2
							c0,0-0.2-0.5-0.2-0.5c0,0,0.1,1.3,0.1,1.3c-0.1,0.3-0.3,0.4-0.2-0.2c-0.2,0.9,0,0.8-0.3,1.5c0,0.1,0,0,0,0c0,0,0,0.2,0,0.4
							c0,0.2,0,0.4,0,0.4c0-0.2-0.2,0.1-0.1-0.4c-0.2,0.8-0.1,1.5,0.2,2c0.2,0.5,0.5,0.8,0.7,1.1L57.7,97c0.4,0.4,0.7,0.5,0.8,0.6
							c0.1,0.1,0.2,0,0.2,0c0-0.1,0-0.1,0.7,0.1c0,0,0.9,0.8,0.9,0.8l0.3-0.1c0.2,0.1,0.6,0.2,0.6,0.2c0.8,0-0.1-0.1,0.4-0.1
							c1,0.3,2.9,0.4,3.1,0.7c0.4-0.1-1-0.2,0.1-0.2c0.3,0.3,1.3,0.1,2.3,0.4c-0.3,0.1-1.2-0.1-0.3,0.2c0.6-0.2,1.9,0.3,2.7,0.3
							c0-0.2,1.8,0,3.2-0.1c-0.1,0.1,2.6,0,3.9-0.3l0,0c0.2-0.2,1.5-0.5,2.4-0.9c0,0.1-0.1,0.3-0.6,0.5c0,0,0.2-0.1,0.4-0.1
							c0.2-0.1,0.4-0.2,0.4-0.2c0.2-0.2,0.5-0.2,1-0.5l-0.1,0.2c0.3-0.1,0.6-0.3,0.8-0.4c0.1-0.1,0.3-0.2,0.4-0.3l0.3-0.2l0.3-0.2
							c0.1,0.1,0.2,0.1,0.2,0.2c0,0,0.1,0.1,0.1,0.1l0.2,0.2c0.1,0.1,0.2,0.3,0.3,0.4c0.2,0-0.4-1.2,0.7,0c0,0.1-0.1,0.2-0.4-0.1
							c0.1,0.1,0.4,0.4,0.5,0.6c0,0-0.1-0.1-0.2-0.2c-0.1-0.1-0.2-0.2-0.2-0.2c0.4,0.6,0.3,0.2,0.6,0.7c-0.1,0,0.1,0.4,0,0.4
							c-0.1-0.1-0.2-0.4-0.4-0.6c0.3,0.5,0.6,1.2,0.7,1.5c0-0.1,0.1-0.1,0.4,0.3c0.5,1.1,0.1,0.4,0.3,1.1c0.2,0.2,0.4,1,0.6,0.9
							c0.1,0.3,0.1,0.4,0.1,0.6c0.3,0.5,1.1,2.7,1,2l-0.1-0.2c0,0,0,0.1,0,0.1c0,0,0,0,0,0l0,0c0.5,0.9,0.9,1.9,1.4,2.9
							c0.5,1,1.1,1.9,1.8,2.6l0,0c0.9,0.9,2.1,1.8,3,2c0.3,0.1,0.8,0.4,0.6,0.4c0.5,0.1,0.7,0.2,1.1,0.2c0.3,0,0.7,0.1,1.4,0.1
							c-1,0.2,0.4,0.1-1,0.1c1.3,0.1,1.7,0.1,2.9-0.6c-0.4,0.3,1-0.3,1.4-0.7c0,0-0.2,0.1-0.4,0.2c-0.2,0.1-0.4,0.2-0.4,0.2
							c0.6-0.4,1-0.7,1.5-1.2l-0.1,0.4c1.1-0.8,1.6-2,2-3c0.4-1,0.5-2,0.9-2.9c0-0.7-0.4,1.3-0.4,0.7c0.3-1.1,0.7-2.3,0.7-2.7
							c0.2-1.6-0.1-1.5,0-3.1c-0.1,0.2-0.3,0.4-0.3-0.8c0-1.1,0.3-1.4,0.3-0.7c0,0.3,0,0.4,0,0.4c0,0.4,0.1,0.9,0.1,0.4l-0.1-0.1
							c0.1-0.6,0-2.2,0.1-1.8c-0.1-0.9-0.1-0.4-0.1,0.3c0-1.5-0.1-2.3-0.3-3.8c0,0.2-0.1,0.5-0.1,0.2c-0.2-2.2-0.3-1-0.6-2.4
							c-0.1-0.9,0.3,0.2-0.1-1.2c-0.1-0.9,0.1-0.2,0.3,0.1c-0.4-1.3-0.6-2.5-0.8-3.3l0.3,0.7c-0.2-0.4-0.3-0.8-0.4-1.1l0,0.4
							c-0.1-0.4-0.2-0.8-0.2-0.8c-0.2-0.4-0.1,0.4-0.5-0.4c-0.1-0.6-0.7-1.6-0.6-1.9c0.6,1.7,0.1-0.3,0.7,1.2
							c-0.1-0.3-0.2-0.6-0.4-1c0-0.1,0.1,0,0.1,0.1c-0.5-1.7-0.5-0.7-1.2-2.3c0.2,0.2,0-0.5-0.2-0.7c0.3,0.6,0,0.4-0.4-0.2
							c-0.4-1.1-0.6-1.1-0.9-1.6l0.3,0.6c-0.2-0.2-0.5-0.7-0.9-1.3c0-0.1,0.4,0.6,0.3,0.3c-0.3-0.3-0.5-0.8-0.8-1.3
							c-0.2-0.5-0.5-1-0.7-1.5c-0.1-0.5,0.2-0.1,0-0.6c-0.2-0.6-0.2-0.9-0.2-1.1c0.1-0.3,0.1-0.4,0.4-0.7c-0.1,0-0.2,0-0.2,0
							c0,0,0.1-0.2,0.4-0.3c0,0-0.1,0-0.2,0.1c-0.1,0.1-0.3,0.2-0.4,0.4c-0.2,0.3-0.1,0.8-0.1,0.8s-0.1-0.3,0-0.6
							c0-0.3,0.2-0.5,0.2-0.5c-0.4,0.4-0.3,1.1-0.3,1.4c-0.2-0.6-0.1-0.6-0.2-0.2c0.1-0.4,0.1-0.8,0.3-1.2c0.2-0.3,0.7-0.6,1.2-0.5
							l0,0.3c1.6,0.2,3-0.1,5.2,0l-0.7-0.1c0.3-0.1,1.4,0,2.1-0.1c-0.1,0.1,0.4,0.2,0.7,0.2c0-0.1,1.6,0,1.8-0.2l1,0.1
							c1.8-0.1,2-0.5,3.7-0.7c-0.5,0.2,0.3,0.2-0.8,0.4c0.6-0.1,1.1-0.2,1.1-0.2c0.4,0,1.5-0.5,2.1-0.6c0.2-0.1,0.3-0.3,0.9-0.5
							c0.1,0,0,0.1,0,0.1c0,0,0.9-0.5,0.3-0.4c0.9-0.2,2-0.9,2.9-1.7c0.5-0.4,0.9-1,1.1-1.5c0.2-0.6,0.1-1.1,0.2-1.6
							c-0.3-1.3-0.9-2.7-1.5-3.7c0.1,0,0.1,0,0.1,0.2c-0.7-1.4-0.7-0.7-1.7-2.2c-0.4-0.8,0.7,0.7,0.4,0.2c0.2-0.4-1.4-1.7-2.1-2.7
							l0.2,0.2c-0.5-0.8-1.7-1.5-2.8-2.5c0,0,0.1,0,0,0c-0.9-0.5-2.4-1.8-2.6-3.2c0.2,0.4,0.2,0.6,0.3,0.3c-0.1-0.3-0.1-0.2-0.2-0.2
							c-0.1,0-0.2-0.1-0.2-0.7c0-0.4,0.4-1.2,0.6-1.2c0,0-0.3,1-0.3,1c0.2-0.5,0.4-1.3,0.7-1.8l0,0.1c1-1.4,0.9-1.6,2.2-3.1
							l-0.2,0.1c0.5-1,0.7-0.6,1.2-1.7c0,0,0.4-0.2,0.4-0.2c0.1-0.4,0.4-1.1,0.2-1.8c-0.1-0.4-0.2-0.8-0.4-1.1
							c-0.2-0.3-0.4-0.6-0.7-0.9c0.3,0.2,0.8,0.7,1,1.3c0.2,0.6,0.3,1.4,0.2,1.9c0.1-0.4,0.2-1.1,0-1.8c-0.1-0.7-0.6-1.1-0.7-1.3
							c0.2,0.2,0.5,0.6,0.6,0.9c-0.5-0.9-1.5-1.7-2.8-2.3c0.2-0.1-0.7-0.6-1.8-0.9c-1.1-0.3-2.4-0.4-2.9-0.6c-2.5,0-5-0.3-7.9-0.4
							c1,0.4-0.9,0-0.7,0.4c-0.7,0-0.9,0-1,0l-2.1-0.2c-0.5-0.1,0.7-0.1,0.6-0.2c-1.5,0-0.6-0.1-1.6-0.2c0.2,0.1-0.5,0.2-1.4,0.2
							l1.2,0.1c-2.1,0.2-1.8-0.3-3.9,0l0.7-0.1c-1.1,0.1-4,0.2-5,0.5c-0.2,0-0.4-0.1,0-0.2c-2.6,0.1-5.7,0.5-7.6,0l0.2-0.1
							c-0.5,0-0.8,0-1.4-0.2c0,0,0.2,0,0-0.1c-0.2,0-1.2-0.1-1.8-0.4c0,0,0.1,0,0.3,0c0.1,0,0.3,0,0.3,0c-2.2-0.9-3.4-1.3-4.9-2.8
							c0.2-0.2-1-1.7-1.6-2.5l0,0c-0.9-1.1-1.9-2.1-3-2.8c-1.1-0.7-2.3-1.1-3.7-1.4c-0.8-0.4-2.3-0.7-3.9-0.7
							c-1.6,0-3.3,0.2-4.7,0.4c0.4,0,0,0.2-0.5,0.3c-0.6,0.1-1.7,0.6-1.6,0.3l0.2-0.1c-0.5-0.1-1.8,0.3-2.8,0.6L48,31.3
							c-0.7,0.1-1.5,0.3-2.3,0.7c-0.4,0.2-0.8,0.5-1.1,1c-0.3,0.4-0.5,1-0.4,1.6c0.1,1.1,0.8,1.8,1.3,2.2c0.5,0.5,0.9,0.9,1.1,1.2
							c0.6,0.3,1.2,0.8,1.8,1.1l-0.1,0.1c0.7,0.5,1.2,0.9,1.6,1.4c0.4,0.5,0.9,1,1.2,1.9c0,0-0.2-0.3-0.2-0.3c0.2,0.5,0.4,0.7,0.5,1
							c0.1,0.3,0.3,0.6,0.1,1.1c0,0-0.3,0.2-0.3,0.2c-0.3,0.8-1.1,1.5-2,2c-0.9,0.5-1.8,0.9-2.8,1.3c0,0,0.1-0.1,0.4-0.2
							c-0.9,0.3-3.8,0.7-3.4,1c-0.1-0.2-2.2,0.5-3.3,0.8l0.1-0.2c-0.9,0.4-0.9,0.5-2.3,0.9c-0.3,0.1-0.3,0,0.1-0.1
							c-1.1,0.2-0.8,0.4-2.1,0.7l0.4-0.3c-1.1,0.3-1,0.4-1.5,0.7c-0.6,0.3-2,0.8-2.2,0.8c-0.1,0.2-0.6,0.5-1.2,0.9
							c-0.1,0,0.1-0.2,0.2-0.2c-1.7,0.9-2.3,1.8-3.3,2.6c-0.1,0-0.1,0-0.2,0.1c1-1.2,2.1-1.8,2-1.8c-0.1-0.1-1.1,0.6-0.4-0.2
							c-0.8,0.7-1.8,2.1-2.6,3.1c0,0-0.1,0.1-0.1,0.1l0.1-0.1c-0.2,0.2-0.3,0.5-0.4,0.7c-0.2,0.3-0.4,0.6-0.5,0.9
							C26,58,25.5,59.3,25.5,60c0.2,0,0.1,0.8,0.3,0c0,0.1,0-0.1,0.1-0.6c0-0.1,0-0.2,0-0.3c0,0,0,0,0,0c0.1-0.4,0.3-0.9,0.5-1.5
							c-0.1,0.5-0.3,1-0.5,1.7c0,0.3,0.1,0.7,0.1,0.9c-0.1,0.4-0.2,1.1-0.1,1.7c0.1,0.6,0.3,1.1,0.3,1.2c0.6,0.9,1.4,1.7,2.2,2.3
							c0.8,0.6,1.6,1.1,2.1,1.3c0.4,0.3,0.4,0.4,0.6,0.6c-0.3-0.2-0.5-0.4-0.7-0.4c0.9,0.6,2.5,1.8,2.9,1.7c1.1,0.8-0.7-0.2,0.8,0.7
							l-0.2-0.1c1.5,1.1,2.9,1.6,4.5,1.8c0.8,0.1,1.6,0.1,2.3,0.2c0.7,0.1,1.4,0.8,1.1,1.6c0.1-0.2,0.1-0.3,0.1-0.4
							c-0.2,2-2.5,3.4-3.5,5.6c-1.1,2.1-1.6,4.6-0.6,6.9c0.6,1.2,0.9,1.2,1.5,1.7c0,0,0.1,0.3,0.1,0.3c0,0,1.2,0.6,1.3,0.6
							c0.9,0.4,1.6,0.7,2.5,1c0.9,0.2,1.9,0.4,3.1,0.1l-0.3-0.1c0.9,0,2.6-0.7,2.5-0.5c0.1,0,0.2-0.2,0.6-0.3l0.1,0.1
							c0,0,0.5-0.2,0.9-0.5c0.5-0.3,0.9-0.5,0.9-0.5c1.5-0.7,0,0.5,2-0.7c0.7-0.5,2-1.6,1.7-1.4c-0.3,0.2-0.8,0.4-0.9,0.4l0.6-0.5
							c0-0.3,0.3-0.9-1.4,0l-1.1,0.8l-0.4,0.1l1-0.6c-0.6,0.2-0.9,0.5-1.3,0.8c-0.1,0-0.3,0-0.6,0.1c0,0-0.3,0.2-0.5,0.4
							c-0.3,0.2-0.5,0.4-0.5,0.4c-0.2,0,0.4-0.4-0.4-0.1c-0.5,0.3,0.6,0-0.3,0.5c-0.6,0.1-0.5,0-1.2,0.3c-0.1,0,0-0.1,0.3-0.2
							c-0.6,0.3-1.6,0.5-2,0.7c-0.6,0-2.2,0.1-2.1-0.2c-0.2,0.1-1.1,0.1-1.7-0.1c0.6,0,0-0.1-0.6-0.4c-0.6-0.2-1.2-0.7-1-0.7
							c-0.4-0.1-1-0.5-1.4-1.1c-0.5-0.6-0.8-1.3-1-2c0,0.1,0.1,0.2,0.1,0.3c-0.2-0.7-0.1-1,0-1.4c-0.3-0.1-0.2-1.3-0.1-2
							c0.3-0.4,0.3-0.3,0.3,0c0,0.2,0,0.6,0.1,0.4c-0.1,0,0-0.4,0.1-0.8c0.1-0.4,0.2-0.7,0.1-0.6c0.4-0.6,0.3-0.6,0.7-0.8
							c-0.2-0.3,0.3-0.6,0.5-1.2c0.8-0.8,0.4-0.1,1.1-1c0.2-0.2,0.2-0.1,0.1,0.1C41.1,76.6,40.9,76.8,40.9,76.8z M28.2,56.7
							L28.2,56.7c-0.2,0.2-0.3,0.4-0.3,0.5C27.9,57.1,28,57,28.2,56.7z M29.8,54.9c-0.2,0.2-0.5,0.4-0.8,0.7c-0.1,0-0.1-0.1,0.1-0.3
							C29.1,55.5,29.5,55.1,29.8,54.9z M25.8,58.7c0.1-0.4,0.2-0.5,0.3-0.6c-0.1,0.2-0.2,0.4-0.2,0.7c0,0,0,0,0,0.1
							C25.8,58.8,25.8,58.8,25.8,58.7z"/>
						<path fill="#202020" d="M25.8,59.5c0,0.1,0,0.1,0,0.2C25.9,59.6,25.9,59.5,25.8,59.5c0.1-0.1,0.1-0.2,0-0.2
							C25.9,59.4,25.9,59.4,25.8,59.5z"/>
						<path fill="#202020" d="M86.4,105.3L86.4,105.3C86.4,105.4,86.4,105.3,86.4,105.3C86.4,105.3,86.4,105.3,86.4,105.3z"/>
						<polygon fill="#202020" points="47.1,36.5 47.1,36.6 47.3,36.7 						"/>
						<path fill="#202020" d="M78.1,98.4c0,0-0.1,0-0.2,0C77.9,98.5,78,98.4,78.1,98.4z"/>
						<path fill="#202020" d="M72.2,99.2l-0.8-0.1C71.8,99.2,72,99.2,72.2,99.2z"/>
						<path fill="#202020" d="M67.7,98.9C67.6,99,67.6,99,67.7,98.9L67.7,98.9L67.7,98.9z"/>
						<path fill="#202020" d="M96.9,81.5c0-0.1-0.1-0.1-0.1-0.1C96.5,81,96.7,81.2,96.9,81.5z"/>
						<path fill="#202020" d="M102,102.1c0-0.2,0-0.5-0.1-0.7C102,101.8,101.9,102.1,102,102.1z"/>
						<path fill="#202020" d="M112.3,72.6L112.3,72.6c0,0,0.1,0,0.1,0L112.3,72.6z"/>
						<path fill="#202020" d="M102,100.4c0,0.4,0,0.7,0,1C102,101.1,102,100.7,102,100.4z"/>
						<path fill="#202020" d="M55.6,87.9l-0.2-0.1c0,0,0,0,0,0L55.6,87.9z"/>
						<path fill="#202020" d="M55.3,87.8l-0.2-0.1C55.2,87.8,55.3,87.8,55.3,87.8z"/>
						<path fill="#202020" d="M54.6,87.6l0.5,0.2C54.9,87.7,54.8,87.6,54.6,87.6z"/>
						<path fill="#202020" d="M57.8,93.5L57.8,93.5C57.8,93.5,57.8,93.5,57.8,93.5z"/>
						<path fill="#202020" d="M57.7,95.2c0-0.4,0.1-1,0.2-1.6l0-0.1C57.8,93.8,57.5,94.8,57.7,95.2z"/>
						<path fill="#202020" d="M63.4,99.1l-1.5-0.3c0.3,0.1,0.6,0.2-0.1,0.1C63.6,99.4,61.4,98.7,63.4,99.1z"/>
						<path fill="#202020" d="M68.2,99.8c-0.8-0.1,0,0.1,0,0.1C68.6,99.9,68.8,99.9,68.2,99.8z"/>
						<path fill="#202020" d="M93.6,113.4l-0.1,0.1C94.1,113.7,93.5,113.5,93.6,113.4z"/>
						<path fill="#202020" d="M99.3,110.8c0,0-0.1,0.1-0.2,0.2c-0.1,0.1-0.2,0.2-0.2,0.2l-0.1,0.3c0,0,0.2-0.2,0.3-0.3
							C99.2,111,99.3,110.8,99.3,110.8z"/>
						<path fill="#202020" d="M102.1,107.8l-0.1,0.3c0,0,0.1-0.3,0.1-0.5c0.1-0.3,0.1-0.5,0.1-0.5s0,0.2-0.1,0.4
							C102.2,107.6,102.1,107.8,102.1,107.8z"/>
						<path fill="#202020" d="M118.5,69.7c0,0-0.2,0.2-0.2,0.2c-0.1,0.2-0.1,0.4-0.1,0.4C118.2,70.3,118.4,70.2,118.5,69.7z"/>
						<path fill="#202020" d="M111.6,48.9c0.3-0.1,0.8-0.7,1-1.1C112.2,48.3,111.8,48.7,111.6,48.9z"/>
						<path fill="#202020" d="M46.7,31.5l0.5-0.2C47.2,31.3,46.9,31.4,46.7,31.5c-0.2,0.1-0.5,0.2-0.5,0.2L46.7,31.5z"/>
					</g>
				</g>
			</g>
		</g>
	</g>
	<g>
		<g>
			<g>
				<g>
					<g>
						<path fill="#202020" d="M74.5,52.1c-0.1,0-0.1,0.1,0.1,0.2l0.2-0.1L74.5,52.1z"/>
						<path fill="#202020" d="M75.3,52.8c0.2,0,0.4-0.1,0.4-0.3c-0.2,0.1-0.2,0-0.5,0.2c-0.1,0-0.2-0.1-0.2-0.2
							c-0.1,0-0.2-0.1-0.3,0c0.1,0.2,0.3,0.3,0.6,0.3C75.4,52.7,75.3,52.8,75.3,52.8z"/>
						<path fill="#202020" d="M80.5,59.9L80.5,59.9C80.6,59.9,80.5,59.9,80.5,59.9z"/>
						<path fill="#202020" d="M71.6,61.6C71.7,61.5,71.7,61.5,71.6,61.6C71.6,61.5,71.6,61.6,71.6,61.6z"/>
						<path fill="#202020" d="M70,62.7C70,62.6,70,62.6,70,62.7C70,62.6,70,62.7,70,62.7z"/>
						<path fill="#202020" d="M80.5,59.9l-0.2-0.1C80.3,59.9,80.4,59.9,80.5,59.9z"/>
						<path fill="#202020" d="M77.3,52.8c0,0-0.1,0-0.1,0L77.3,52.8L77.3,52.8z"/>
						<path fill="#202020" d="M82.8,57.9L82.8,57.9c0-0.1,0-0.1-0.1-0.1L82.8,57.9z"/>
						<path fill="#202020" d="M81.8,55.5c0,0,0.2-0.1,0.2-0.1c-0.1,0-0.1,0-0.2,0C81.8,55.5,81.8,55.5,81.8,55.5z"/>
						<path fill="#202020" d="M77.8,53.6L77.8,53.6C77.7,53.6,77.8,53.6,77.8,53.6z"/>
						<path fill="#202020" d="M81.9,59.3C81.9,59.3,81.9,59.3,81.9,59.3C81.9,59.3,81.9,59.3,81.9,59.3z"/>
						<path fill="#202020" d="M49,59.8C49,59.8,49,59.8,49,59.8C49,59.8,49,59.8,49,59.8z"/>
						<path fill="#202020" d="M51.6,57.5L51.6,57.5c0,0.1,0,0.1,0,0.1L51.6,57.5z"/>
						<path fill="#202020" d="M73.4,64.3L73.4,64.3C73.3,64.3,73.3,64.3,73.4,64.3z"/>
						<path fill="#202020" d="M69.4,73.6c0,0.3-0.4-0.3-0.3,0.2C69.1,73.7,69.5,73.9,69.4,73.6z"/>
						<path fill="#202020" d="M77.3,52.8l0.1,0C77.4,52.8,77.4,52.8,77.3,52.8z"/>
						<path fill="#202020" d="M69.1,73.8L69.1,73.8L69.1,73.8C69.1,73.8,69.1,73.8,69.1,73.8z"/>
						<path fill="#202020" d="M79.1,66.7C79.1,66.7,79.1,66.7,79.1,66.7C79,66.6,79,66.7,79.1,66.7z"/>
						<path fill="#202020" d="M75,64.6L75,64.6C75.1,64.7,75,64.6,75,64.6z"/>
						<path fill="#202020" d="M80.2,68.2c0,0.1,0,0.1,0,0.1l0,0C80.2,68.3,80.2,68.3,80.2,68.2z"/>
						<path fill="#202020" d="M79.5,70.3C79.5,70.3,79.5,70.3,79.5,70.3L79.5,70.3L79.5,70.3z"/>
						<path fill="#202020" d="M45.9,67.2c0.1-0.1,0.1-0.1,0.2-0.1C45.9,67.1,45.9,66.7,45.9,67.2z"/>
						<path fill="#202020" d="M77.2,52.9C77.3,52.9,77.3,52.8,77.2,52.9L77.2,52.9C77.2,52.9,77.2,52.9,77.2,52.9z"/>
						<path fill="#202020" d="M81.5,68.3c0,0,0,0.5-0.1,0.5C81.5,68.7,81.5,68.5,81.5,68.3z"/>
						<path fill="#202020" d="M60.8,73.5L60.8,73.5C60.7,73.5,60.8,73.5,60.8,73.5z"/>
						<path fill="#202020" d="M81,70.2c-0.1,0.1-0.2,0.1-0.2,0.2c0,0,0,0,0,0.1L81,70.2z"/>
						<path fill="#202020" d="M46,67.1L46,67.1L46,67.1z"/>
						<path fill="#202020" d="M46.5,64.3c-0.2,0.4,0.1,0.3,0.2,0.4c-0.1,0.5-0.2,0.2-0.4,0.3c-0.1,0.3,0.1,0.6,0,0.8
							c0,0-0.1,0-0.1,0c0.1,0.4-0.2,0.9-0.1,1.3c0,0,0,0-0.1,0c0.1,0,0.2,0,0.3,0c0,0.2,0.1,0.3-0.1,0.4c0-0.1,0-0.1-0.1-0.2l0,0.2
							c-0.2,0.1,0-0.3-0.2-0.3c0,0.4,0.1,0.8,0.1,1.1c-0.2,0.1,0-0.7-0.2-0.3l0.1-0.4c-0.3,0.3,0.1-0.3-0.3,0c-0.1,0.6,0,0.7,0,1.3
							c0.1,0.1,0.2-0.1,0.3,0.1c0.3,0.8-0.4,0.8,0.1,1.4c0.2,0.1,0.4,0.1,0.5,0.5l-0.3,0c0.3,0.6,0.4,0.2,0.7,0.7
							c-0.1,0-0.3-0.4-0.3-0.3c0.1,0.4,0.3,0.2,0.5,0.4L47,71.9c0.5,0.5,1.1,0.8,1.7,1.1c-0.1,0-0.2,0-0.1,0.2
							c0.8,0.3,1.6,0.8,2.3,1.2l0.3-0.1c0.1,0,0.1,0.1,0,0.1c0.3,0.2,0-0.1,0.2-0.1c0.2,0,0.2,0.2,0.1,0.2c0.6,0,1.5,0.1,2,0.5
							l-0.1,0c0.4,0.2,0.6-0.2,0.9,0l-0.1,0c1,0.3,2,0.2,2.9,0.3c0.1-0.2,1-0.1,1-0.5c0.6,0,0.5,0.1,1.3-0.2
							c0.2-0.1,0.2-0.4,0.4-0.6l0.1,0.1c0,0,0-0.1,0.1-0.2c0-0.1,0.1-0.2,0.1-0.2l0.3,0l0.2-0.2c-0.1,0.1-0.2,0.1-0.2,0.1
							c0.2-0.3,0.7-0.7,0.8-0.7c0,0,0.3-1,0.3-1c0.1,0,0,0.2,0,0.3c0-0.5,0.2,0,0.2-0.5c-0.1,0-0.1-0.1-0.1-0.1
							c0.2-0.2,0.3-0.7,0.4-1l0.1,0.1c0.2-0.6,0.3-1.3,0.5-1.9c-0.1,0.2-0.3,0-0.3-0.1l0.2,0c-0.1-0.2-0.1,0.1-0.2-0.1
							c0.1-0.2,0.3,0,0.3,0.1c0,0,0.1-0.3,0.1-0.3c0.1,0,0,0.1,0.1,0.1c0-0.2,0.4-0.3,0.3-0.5l0.1,0c0.4-0.4,0.6-0.6,0.9-0.7
							c0-0.2,0.1-0.2,0.2-0.3c0.3,0,0.6,0.3,0.9,0.5c0.3,0.1,0.2-0.1,0.3,0c-0.1,0.1,0.2,0.4,0,0.3c0.4,0.4,0.4,0.5,0.9,1.1
							c0-0.1,0-0.2,0.1-0.2c0.1,0.1,0.1,0.3,0,0.3l0,0c0.6,0.7,0.2,2,0.7,2.6l0,0l0.4,0.7c0.1,0.3-0.2-0.2-0.2,0.1
							c0.5,0.7,0.4,1.3,1,1.8c0,0.4,0.3,0.8,0.7,1.1c0.4,0.4,1,0.6,1.3,0.9l0-0.1c0.2,0,0.2,0.2,0.3,0.2c0-0.1-0.2-0.2,0-0.2
							c1.6,0.5,3.5,0.6,5.1-0.1c0.6-0.3,0.1-0.6,0.8-0.8l-0.1,0.3c0.9-0.8,2-1.6,2.5-2.6c0,0.1,0,0.1,0,0.2c0.3-0.1,0.6-0.7,0.5-0.8
							c0.1-0.1,0.1,0,0.2,0c0.2-0.2,0.2-0.6,0.4-0.6c0,0,0,0.1,0,0.1c0-0.2,0.4-0.6,0.2-0.6c0.3-0.3,0.4-0.7,0.6-1
							c-0.1-0.3,0.4-0.7,0.2-0.9c0.2,0.1,0.4-0.8,0.3-1.1c0.1,0.1,0.1-0.3,0.2-0.2c0-0.4-0.2-0.7-0.3-0.6c0.1-0.4-0.1-0.7-0.4-0.9
							c-0.2-0.2-0.4-0.4-0.4-0.7c-0.9-0.6-1.7-0.9-2.5-1.1c0.1-0.2,0.8,0.3,0.9,0.1c-0.8-0.3-1.3-0.2-1.9-0.5
							c-0.2-0.1,0.1-0.1,0.2-0.1c-0.7-0.2-1.3-0.6-2-0.7c0,0,0.1,0,0.2,0c-0.1,0-0.3-0.2-0.3,0l0.1,0c0.1,0.2-0.6,0.1-0.7,0.2
							c0.3-0.2-0.6-0.3-0.1-0.6c-0.1,0-0.2,0-0.2,0.1c-0.1-0.1-0.1-0.1,0-0.2c-0.5-0.1-0.4,0.1-0.8-0.1c0-0.1,0.1,0,0.2-0.1
							c-0.2,0-0.5,0-0.8-0.1c0,0,0-0.1,0.1,0c-0.2-0.1-0.3,0-0.6-0.1c-0.2,0-0.5-0.1-0.6-0.2c0.6,0,0-0.1,0.6-0.1c0,0,0-0.1,0-0.1
							l-0.3,0c0.1-0.1,0-0.2,0.3-0.3c0,0,0,0.1,0,0.1c0,0,0.2-0.2,0.2-0.2L72.3,62c0.1-0.2-0.3-0.1,0.1-0.3c0,0,0.2-0.1,0.5-0.1l0,0
							c0.1-0.1,0.2-0.3,0.5-0.3c0.1,0,0,0.2,0.1,0.3c0.1-0.2,0.7-0.3,0.8-0.6c0,0.1,0,0.2,0,0.2l0.1-0.2c0.2,0,0.2,0,0.2,0.1
							c0.4-0.1-0.2-0.2,0.3-0.3c0,0,0,0-0.1,0.1c0.5-0.1,1-0.4,1.4-0.4c0.2,0.2-0.4,0.1-0.2,0.3c0.7-0.2,1.4-0.5,2-0.4l-0.1,0
							c0.1-0.3,0.5,0.1,0.8,0c-0.1,0-0.1,0.2-0.1,0.1c0.4,0,0.9,0,1.7-0.1l-0.1,0.1c0.3,0.1,0.8,0,1.1,0c0.1-0.1,0.3-0.1,0.1-0.2
							c0.5,0.1,1-0.2,1.3-0.6c0.3-0.4,0.4-0.8,0.7-1.2c0,0.1,0,0.3,0,0.2c0,0,0.1-0.8,0.1-0.8c-0.1,0.1-0.1,0.1-0.2,0.2
							c-0.1-0.1-0.1-0.3-0.1-0.5c0.1,0.3,0.2,0,0.3-0.2c0,0-0.1,0-0.1,0c0.2-0.4-0.3,0-0.2-0.6l0.1,0c-0.1-0.2-0.2-0.3-0.3-0.5
							c0.1-0.1,0.1,0.2,0.3,0.1c-0.1-0.3-0.5-0.4-0.5-0.7c0.1,0.1,0.2,0.2,0.3,0.3c0-0.3,0-0.4-0.1-0.6l0,0c0,0-0.3-0.5-0.3-0.5
							l0,0.1c-0.5,0-0.6-0.5-1.1-0.6c0.5,0.1,0.1-0.1,0.3-0.2c-0.1-0.1-0.2-0.3-0.1-0.3c-0.3,0-0.3-0.3-0.7-0.3
							c0-0.1-0.2-0.1-0.1-0.2c-0.3-0.1,0,0.1,0,0.2c-0.5,0-1-0.6-1.7-0.6c-0.6,0-0.7,0.1-1.2,0.1c-0.2-0.1,0.2-0.2,0.2-0.2
							c-0.3-0.1-0.5-0.2-0.7-0.1c0.1,0,0-0.1-0.1-0.2c-0.2,0-0.2,0.2-0.4,0c0.1-0.1,0.1-0.1,0.3-0.2c-0.3,0-0.5,0.1-0.8,0
							c0-0.1,0.2-0.1,0.3-0.2c-0.3,0-0.7-0.1-0.9,0l0.2,0.1c-0.1,0,0-0.1,0.1-0.2c0.3-0.1,0.3,0.1,0.3,0.2l-0.2,0
							c0.1,0.4,0.7,0.1,1.1,0.2L77,53.3l0.4-0.1c0.1,0.1,0.1,0.2-0.1,0.2c0.2,0.2,0.2,0,0.4,0.1c0,0,0,0,0,0l0.3,0
							c-0.1,0,0,0.2-0.1,0.1c0.4,0.2,0.8,0,0.9,0.2l0,0c0.6,0.1,0.1-0.2,0.6-0.2l0.2,0.5l0.1-0.1c0.1,0,0.2,0.1,0.1,0.1
							c0.3,0,0-0.1,0.2-0.1c0.2,0.3,0.9,0.3,0.8,0.6c0.2-0.1-0.2-0.2,0.1-0.2c-0.1,0.3,0.4,0.1,0.5,0.4c-0.2,0.1-0.3-0.1-0.2,0.1
							c0.3-0.1,0.4,0.4,0.6,0.5c0.2-0.1,0.4,0.3,0.7,0.6c-0.1,0,0.2,0.7,0.2,1.1l0,0c0.2,0,0.2,0.4,0.3,0.7c-0.1,0-0.2-0.1-0.2-0.2
							c0,0,0,0.2,0,0.2c0.1,0.1,0.1,0.1,0.1,0.3L82.7,58c0,0.3,0,0.7-0.3,1c0.1,0.1,0.6-0.1,0.3,0.4c-0.1,0-0.2-0.1-0.1-0.2
							c0,0,0,0.2-0.1,0.2c0,0,0-0.2,0-0.2c-0.2,0.1,0,0.1-0.1,0.3c-0.1-0.1-0.1,0-0.2-0.1c0,0,0.1-0.1,0.1-0.1
							c-0.1,0.1-0.3,0.2-0.4,0.1c0,0,0.1,0.1,0,0.2c-0.3,0.2-0.2-0.1-0.3-0.1c0,0.1-0.2,0.1-0.2,0.2c-0.1,0-0.1,0-0.2-0.1
							c-0.1,0.1-0.8,0.1-0.6,0.3l0,0l0,0l0,0l0,0c-0.6,0.2-1.3-0.1-1.9-0.1l0-0.1c-0.4,0.1-0.8,0-1.1,0.2c-0.1,0-0.3-0.1-0.2-0.2
							c-0.3,0.1-0.3,0.1-0.7,0.1c0.3-0.1-0.1-0.1,0.3-0.1c-0.4,0-0.5-0.1-0.9,0.1c0.1-0.2-0.3-0.1-0.5-0.1l0.3,0.1
							c-0.2,0.1-0.4,0.1-0.5,0.1l0.1-0.2c-0.8-0.1-1.2,0.7-1.9,0.6c-0.1,0.2,0.4-0.1,0.3,0.2c-0.3,0.1-0.8,0-0.9,0
							c-0.2,0.1-0.3,0.2-0.4,0.3c-0.1,0.1-0.1,0.2-0.5,0.4c0.1,0,0.3,0.1,0,0.4c-0.3,0.2-0.8,0.1-0.6-0.1c0.1-0.1,0.2-0.1,0.2-0.1
							c0.1-0.1,0.3-0.2,0-0.2l0,0.1c-0.3,0.1-0.9,0.5-0.9,0.3c-0.3,0.2,0,0.1,0.3,0c-0.3,0.2-0.6,0.3-0.8,0.4
							c-0.1,0.1-0.2,0.1-0.3,0.2c-0.1,0-0.1,0.1-0.2,0.1c0,0,0.1,0.1,0.1,0.1c0-0.1,0.1-0.1,0.1-0.1c0.7,0.4,0.6,0.1,1.2,0.3
							c0.2,0.2-0.5,0.1,0.3,0.3c0.3,0.2-0.1,0.2-0.3,0.1c0.4,0.1,0.7,0.2,0.9,0.4c0.3,0.2,0.4,0.3,0.5,0.3l-0.2,0
							c0.1,0,0.2,0.1,0.3,0.1l-0.1-0.2c0.1,0.1,0.2,0.1,0.2,0.2c0.2,0,0-0.2,0.3-0.3c0.1,0.1,0.5,0.1,0.5,0.3c-0.5-0.3,0,0.2-0.4,0
							c0.1,0,0.2,0.1,0.3,0.1c0,0,0,0-0.1,0c0.4,0.3,0.3-0.1,0.8,0.1c-0.1,0.1,0,0.2,0.1,0.2c-0.2-0.1,0-0.2,0.2-0.2
							c0.3,0.2,0.4,0.1,0.5,0.2l-0.2-0.1c0.1-0.1,0.3,0,0.5,0.1c0,0.1-0.2,0-0.2,0c0.3-0.1,0.5,0.4,0.9,0.4c0.1,0.1-0.1,0.2,0.1,0.3
							c0.4,0,0.4,0.3,0.8,0.4c-0.1-0.2-0.1-0.2,0.2-0.2l-0.7-0.2l0.5,0c-0.2-0.1-0.5-0.1-0.6-0.2c0.2,0,0.2,0,0.2-0.1
							c0.2,0.3,0.6,0.1,0.8,0.4l-0.1,0.3c0.4,0.3,0.9,0.2,1.4,0.5l-0.1-0.1c0.1-0.1,0.3,0.2,0.5,0.2c-0.1,0.1,0,0.2,0,0.3
							c0-0.1,0.3,0.3,0.5,0.1c0,0,0.1,0.3,0.1,0.3c0.2,0.4,0.6,0.2,0.7,0.7c-0.2-0.1-0.2,0.1-0.3-0.1c0,0.1,0.1,0.2,0.1,0.2
							c0,0.1,0.2,0.4,0.1,0.5c0.1,0.1,0.2,0.1,0.1,0.3c0,0-0.1,0-0.1,0c0.1,0,0,0.3,0.2,0.1c-0.4,0.4-0.4,1.4-0.9,1.6
							c-0.1,0.3-0.4,0.7-0.5,1c0,0,0,0,0-0.1c-0.3,0.3,0.1,0.4-0.3,0.8c-0.3,0.1,0.1-0.3-0.1-0.2c-0.3-0.2-0.3,0.5-0.7,0.7l0-0.1
							c-0.3,0.1-0.3,0.6-0.6,0.9c0,0,0,0,0,0c-0.1,0.3-0.4,0.8-0.7,1.1c0-0.2,0.1-0.2-0.1-0.2c-0.1,0.1,0.2,0.2-0.1,0.4
							c-0.1,0-0.4,0.1-0.5,0l0.3-0.2c-0.3-0.1-0.4,0.3-0.5,0.3l0-0.1c-0.4,0.3-0.3,0.5-0.9,0.7l0.1,0c-0.2,0.3-0.3,0-0.5,0.2
							l-0.2-0.2c-0.2,0.1-0.6,0.4-1,0.4c0.2-0.2,0.6-0.3,0.8-0.5c-0.2,0.1-0.6,0.1-0.7,0.3c0.1,0,0.2-0.1,0.3-0.1
							c-0.2,0.2-0.6,0.3-1,0.3c0-0.2-0.2-0.3-0.5-0.3c-0.3-0.1-0.6-0.1-0.7-0.4c-0.7-0.1-1.1-0.6-1.6-1.1c-0.1,0.4-0.1-0.2-0.4,0.1
							c-0.1-0.1-0.2-0.2-0.2-0.2c0,0-0.1-0.6-0.1-0.6c0-0.2,0.1,0.1,0.2,0.1c-0.2-0.4,0.1-0.2,0-0.5c-0.1,0.1-0.2-0.1-0.3-0.3l0,0.4
							c-0.4-0.5,0.1-0.6-0.3-1.1l0.2,0.1c-0.2-0.3-0.3-1.1-0.7-1.3c0-0.1,0.1-0.2,0.2,0c-0.2-0.8-0.8-1.6-1-2.3l0.1,0
							c-0.1-0.1-0.3-0.2-0.3-0.4c0,0,0.1,0,0.1-0.1c-0.1-0.1-0.4-0.3-0.5-0.5l0.2,0.1c-0.4-0.8-1.1-0.9-1.8-1.1
							c0.1-0.3-0.7-0.6-1.1-0.5l0,0c-0.6,0.1-1.1,0.4-1.4,0.7c-0.3,0.3-0.5,0.7-0.8,1.1c-0.3,0.2-0.6,0.6-0.8,1.1
							c-0.2,0.5-0.3,1-0.5,1.4c0.1-0.1,0.2,0.1,0.2,0.2c-0.1,0.2,0,0.5-0.2,0.5l0-0.1c-0.3,0.1-0.3,0.4-0.4,0.7l0.3,0.1
							c-0.3,0.3-0.5,0.7-0.7,1c-0.2,0.3-0.5,0.6-0.7,0.6c-0.1,0.2-0.3,0.3-0.4,0.4l-0.1-0.1c-0.4,0.2-0.6,0.2-1.2,0.4l0.1-0.1
							c-0.3,0.1-0.3,0.5-0.6,0.6L56.8,74c-0.6,0-1.2-0.2-1.8-0.1c0,0,0-0.1,0.1-0.1c-0.3,0-1.1-0.4-1,0c0-0.2-0.6-0.2-1-0.2l0.1-0.1
							c-0.3,0.1-0.4,0.2-0.8,0.1c-0.1,0,0-0.1,0.1-0.1c-0.3-0.2-0.3,0.1-0.6-0.1l0.2-0.1c-0.3-0.1-0.3-0.1-0.5,0
							c-0.2,0-0.6-0.2-0.6-0.4c-0.1,0.1-0.3,0.1-0.4,0c0-0.1,0.1-0.1,0.1-0.1c-0.5-0.3-0.8-0.1-1.1-0.4c0-0.1,0-0.1,0-0.1
							c0.4,0.2,0.7,0.3,0.7,0.3c0.1-0.1-0.2-0.3,0.1-0.4c-0.3,0-0.8,0-1.1-0.2c0,0,0,0,0-0.1l0,0c-0.1-0.1-0.1-0.1-0.2-0.1
							c-0.1-0.1-0.1-0.1-0.2-0.2c0-0.1-0.3-0.3-0.4-0.4c-0.1,0.1-0.2,0-0.2,0.2c0,0,0,0,0.1,0.1c0,0,0,0,0.1,0l0,0
							c0.1,0.1,0.2,0.2,0.3,0.2c-0.2,0-0.3,0-0.4-0.2c-0.1,0-0.3,0-0.3,0c0-0.3-0.2-0.7-0.1-0.9c-0.4-0.3-0.6-0.9-1-1.1
							c-0.1-0.1,0-0.2,0.1-0.2c0,0.1,0.1,0.2,0.1,0.2c-0.2-0.2-0.2-0.8-0.4-0.9c0.1-0.4,0.2,0.2,0.1-0.3l0.1,0.1
							c0.2-0.5,0.1-0.9,0-1.3c-0.1-0.4-0.1-0.9,0.3-1.4c0,0.1-0.1,0.1-0.1,0.1c0.6-1.2,0.8-2.6,1.7-3.7c0.2-0.3,0.1-0.4,0.2-0.6
							l0.2,0l0-0.4c0.2-0.6,0.9-0.6,1-1.3l-0.1,0c0.2-0.2,0.4-0.7,0.5-0.6c0,0-0.1-0.1,0.1-0.2l0.1,0l0.2-0.6
							c0.3-0.3,0.2,0.3,0.7-0.3c0.1-0.2,0.3-0.7,0.1-0.7c-0.1,0.1-0.2,0.2-0.3,0.1l0.1-0.2c-0.2-0.2-0.3-0.5-0.8-0.2l-0.1,0.4
							l-0.2,0l0.2-0.3c-0.2,0.1-0.2,0.3-0.2,0.4c-0.1,0-0.1,0-0.2,0.1l0,0.5c-0.1,0-0.1-0.3-0.3-0.1c0,0.2,0.3,0,0.2,0.3
							c-0.2,0.1-0.3,0-0.3,0.2c-0.1,0-0.1-0.1-0.1-0.2c-0.1,0.2-0.3,0.5-0.2,0.6c-0.2,0.1-0.4,0.6-0.6,0.5c0,0.1,0,0.4-0.1,0.6
							c-0.1-0.5-0.4,0.6-0.6,0.4c0.1,0.4-0.4,0.9-0.4,1.4c0,0,0-0.1,0-0.1c-0.1,0.2-0.2,0.3-0.4,0.4c0.2,0.1,0.1,0.5,0.1,0.8
							c-0.3,0.2-0.2-0.3-0.4-0.3c0.2,0.1-0.1,0.6,0.1,0.5c-0.2,0.2-0.1,0.2-0.4,0.2c0.2,0.2,0,0.2,0,0.5c-0.3,0.3-0.3,0-0.3,0.4
							C46.4,64.7,46.5,64.3,46.5,64.3z M48.8,73L48.8,73c-0.1,0-0.1-0.1-0.2-0.1C48.6,72.9,48.7,72.9,48.8,73z M49.5,73.4
							c-0.1,0-0.2-0.1-0.3-0.2c0-0.1,0.1-0.1,0.1-0.1C49.2,73.2,49.4,73.3,49.5,73.4z M48.7,71.6c0.1,0,0.1,0.1,0.1,0.1
							C48.7,71.7,48.7,71.7,48.7,71.6L48.7,71.6C48.6,71.6,48.7,71.6,48.7,71.6z"/>
						<path fill="#202020" d="M48.4,71.6C48.4,71.6,48.4,71.6,48.4,71.6C48.4,71.7,48.4,71.7,48.4,71.6L48.4,71.6L48.4,71.6z"/>
						<path fill="#202020" d="M80.6,59.9L80.6,59.9C80.6,59.9,80.6,59.9,80.6,59.9C80.6,59.9,80.6,59.9,80.6,59.9z"/>
						<polygon fill="#202020" points="60.1,74.2 60.1,74.2 60,74.3 						"/>
						<path fill="#202020" d="M83.5,57.5C83.5,57.5,83.5,57.5,83.5,57.5C83.5,57.4,83.5,57.5,83.5,57.5z"/>
						<path fill="#202020" d="M82.9,55.6c0,0-0.1-0.3-0.1-0.3C82.8,55.5,82.9,55.5,82.9,55.6z"/>
						<path fill="#202020" d="M81.9,54.5C81.9,54.5,81.9,54.5,81.9,54.5L81.9,54.5L81.9,54.5z"/>
						<path fill="#202020" d="M75.3,63.6C75.3,63.6,75.3,63.6,75.3,63.6C75.5,63.6,75.4,63.6,75.3,63.6z"/>
						<path fill="#202020" d="M72.8,61.6c0,0.1-0.1,0.1-0.1,0.1C72.7,61.8,72.8,61.7,72.8,61.6z"/>
						<polygon fill="#202020" points="81.5,68.2 81.5,68.2 81.5,68.3 						"/>
						<path fill="#202020" d="M72.5,61.9c0.1,0,0.1,0,0.2-0.1C72.6,61.8,72.5,61.8,72.5,61.9z"/>
						<path fill="#202020" d="M76.1,52.5L76.1,52.5C76,52.5,76,52.5,76.1,52.5L76.1,52.5z"/>
						<path fill="#202020" d="M76,52.5L76,52.5C76,52.5,76,52.6,76,52.5z"/>
						<path fill="#202020" d="M75.8,52.5l0.2,0C75.9,52.5,75.8,52.5,75.8,52.5z"/>
						<path fill="#202020" d="M77.8,53L77.8,53C77.9,52.9,77.8,53,77.8,53z"/>
						<path fill="#202020" d="M78.4,53.1c-0.1,0-0.3-0.2-0.5-0.2l0,0C78,52.9,78.3,53.1,78.4,53.1z"/>
						<path fill="#202020" d="M80.4,54.4L80,54.2c0.1,0.1,0.1,0.2-0.1,0.1C80.4,54.7,79.9,54.2,80.4,54.4z"/>
						<path fill="#202020" d="M81.6,55.2C81.3,55.1,81.5,55.3,81.6,55.2C81.6,55.3,81.7,55.4,81.6,55.2z"/>
						<path fill="#202020" d="M77.3,59.8l0-0.1C77.1,59.7,77.3,59.7,77.3,59.8z"/>
						<polygon fill="#202020" points="75.5,60.8 75.7,60.9 75.7,60.7 						"/>
						<polygon fill="#202020" points="74,60.2 74.1,60.1 73.8,60.3 						"/>
						<path fill="#202020" d="M79.6,69.9l0.2,0C79.8,69.8,79.6,69.7,79.6,69.9z"/>
						<path fill="#202020" d="M74.7,75.1c-0.1-0.1-0.3,0-0.4,0.1C74.5,75.2,74.7,75.2,74.7,75.1z"/>
						<polygon fill="#202020" points="60.2,71.8 60.2,71.6 60.1,71.9 						"/>
					</g>
				</g>
			</g>
		</g>
	</g>
</g>
</svg>
