<?xml version="1.0" encoding="utf-8"?>
<!-- Generator: Adobe Illustrator 18.0.0, SVG Export Plug-In . SVG Version: 6.00 Build 0)  -->
<!DOCTYPE svg PUBLIC "-//W3C//DTD SVG 1.1//EN" "http://www.w3.org/Graphics/SVG/1.1/DTD/svg11.dtd">
<svg version="1.1" id="Layer_1" xmlns="http://www.w3.org/2000/svg" xmlns:xlink="http://www.w3.org/1999/xlink" x="0px" y="0px"
	 viewBox="0 0 144 144" enable-background="new 0 0 144 144" xml:space="preserve">
<g>
	<g>
		<g>
			<g>
				<g>
					<g>
						<path fill="#202020" d="M32.4,106c0.1-0.1-0.2-0.1-0.2,0.1c0,0,0.2,0.1,0.2,0.1c0,0,0-0.1,0-0.1C32.4,106.1,32.4,106,32.4,106
							z"/>
						<path fill="#202020" d="M33.9,107.2c0.5-0.1,1.1,0,0.8-0.3c-0.5,0-0.7,0-1.2,0.1c-0.4,0-0.7-0.2-0.6-0.2c-0.1,0-0.2,0-0.3-0.1
							c-0.1-0.1-0.2-0.2-0.3-0.2c0.1,0.2,0.3,0.4,0.6,0.5c0.3,0.1,0.7,0,1,0C34.1,107.1,33.9,107.1,33.9,107.2z"/>
						<path fill="#202020" d="M72.8,109.1l-0.2,0.1C72.6,109.2,72.7,109.2,72.8,109.1z"/>
						<path fill="#202020" d="M96.6,103.3c-0.2,0-0.3,0-0.3,0C96.5,103.3,96.6,103.3,96.6,103.3z"/>
						<path fill="#202020" d="M100.9,103.7c-0.1,0-0.2,0-0.3,0C100.7,103.7,100.8,103.7,100.9,103.7z"/>
						<path fill="#202020" d="M72.8,109.1l0.6-0.3C73.4,108.8,73.1,109,72.8,109.1z"/>
						<path fill="#202020" d="M39.2,108.8c-0.1,0-0.2-0.1-0.4-0.1L39.2,108.8C39.2,108.8,39.2,108.8,39.2,108.8z"/>
						<path fill="#202020" d="M62.4,113.3l-0.2,0c-0.1,0-0.1,0.1-0.2,0.1L62.4,113.3z"/>
						<path fill="#202020" d="M53.9,113.3c0.2,0,0.3-0.1,0.4-0.2c-0.1,0.1-0.3,0.1-0.4,0.1C53.8,113.2,53.8,113.3,53.9,113.3z"/>
						<path fill="#202020" d="M40.8,110.1l-0.2-0.1C40.6,110,40.7,110.1,40.8,110.1z"/>
						<path fill="#202020" d="M68.4,111.6C68.4,111.6,68.5,111.6,68.4,111.6C68.5,111.6,68.5,111.6,68.4,111.6z"/>
						<path fill="#202020" d="M27.8,100C27.8,100,27.8,100,27.8,100C27.8,100.1,27.8,100.1,27.8,100z"/>
						<path fill="#202020" d="M33.7,107.8l-0.1-0.1c0,0-0.1,0-0.1,0.1L33.7,107.8z"/>
						<path fill="#202020" d="M108.9,103.3C108.9,103.3,108.8,103.3,108.9,103.3C108.6,103.4,108.7,103.3,108.9,103.3z"/>
						<path fill="#202020" d="M97.8,45.6c0.7,0.4-1.3-0.3-0.2,0.3C97.5,45.8,98.8,46.1,97.8,45.6z"/>
						<path fill="#202020" d="M39.4,108.9l0.3,0.1C39.6,109,39.5,108.9,39.4,108.9z"/>
						<path fill="#202020" d="M97.6,45.9L97.6,45.9l0.1,0.1C97.7,45.9,97.6,45.9,97.6,45.9z"/>
						<path fill="#202020" d="M119.9,89.6c0,0-0.1,0.1-0.1,0.2C119.8,89.8,119.8,89.7,119.9,89.6z"/>
						<path fill="#202020" d="M113.2,101.3l0.3-0.2C113.4,101.2,113.3,101.2,113.2,101.3z"/>
						<path fill="#202020" d="M119.7,82.5c0-0.2,0-0.2,0-0.5c0,0,0,0,0,0.1C119.7,82.2,119.7,82.3,119.7,82.5z"/>
						<path fill="#202020" d="M119.2,75.3c0,0,0,0.1,0,0.1c0,0.1,0,0.2,0,0.2L119.2,75.3z"/>
						<path fill="#202020" d="M19.6,80.1c0,0.2-0.1,0.3-0.1,0.3C19.6,80.4,19.8,81.4,19.6,80.1z"/>
						<path fill="#202020" d="M39.2,108.9c0.1,0,0.1,0,0.2,0C39.4,108.9,39.3,108.8,39.2,108.9C39.2,108.8,39.2,108.8,39.2,108.9z"
							/>
						<path fill="#202020" d="M118.4,82.3l0-1.1C118.4,81.5,118.4,81.9,118.4,82.3z"/>
						<path fill="#202020" d="M49.4,45.2l-0.3,0.1C49.2,45.3,49.3,45.2,49.4,45.2z"/>
						<path fill="#202020" d="M118.1,77.8c0-0.2,0.1-0.4,0.1-0.7c0,0,0-0.1-0.1-0.1L118.1,77.8z"/>
						<path fill="#202020" d="M19.5,80.5L19.5,80.5L19.5,80.5z"/>
						<path fill="#202020" d="M21.5,87.7c-0.3-1-0.4-0.4-0.5-0.6c-0.4-1.2,0-0.6,0-1.1c-0.3-0.8-0.6-1.3-0.7-1.9c0-0.1,0-0.2,0.1,0
							c-0.4-0.8-0.5-2.5-0.8-3.4c0-0.1,0-0.1,0-0.1c-0.1,0.2-0.2,0.2-0.3,0.2c-0.1-0.5-0.2-0.9-0.1-1.1c0,0.3,0.1,0.3,0.1,0.5
							l-0.1-0.5c0.2-0.5,0.1,0.7,0.3,0.7c-0.2-1-0.4-2.1-0.4-2.9c0.2-0.2,0.2,1.8,0.3,0.8l0,1.2c0.2-0.9,0,0.7,0.3-0.1
							c0-1.5-0.2-1.7-0.1-3.2c-0.1-0.3-0.2,0.1-0.3-0.2c-0.1-1.1,0.1-1.5,0.2-1.9c0.1-0.3,0.3-0.6,0.2-1.4c-0.1-0.4-0.3-0.6,0-1.7
							l0.2,0.4c0.3-1.5-0.2-0.9,0.3-2.4c0,0.3-0.2,1.2-0.1,0.9c0.4-1,0-0.7,0.2-1.5l0.2-0.1c0.4-1.5,0.8-3.2,1.6-4.9
							c0,0.1-0.1,0.4,0.2,0.1c0.9-2,2.3-4.1,3.8-5.6l0.4-0.7c0.1-0.1,0.3-0.2,0.2,0c0.6-0.5,0-0.1,0.2-0.4c0.3-0.3,0.5-0.4,0.3-0.1
							c0.4-0.6,1.2-1.4,1.9-2.1c0.8-0.7,1.6-1.4,2.3-1.7l-0.2,0.2c1-0.6,0.9-1.1,2-1.5L33,51.2c2.3-1.3,4.9-2.7,6.9-3.2
							c0.3-0.4,2.5-0.8,2.5-1.2c1.5-0.3,1.1-0.1,3.2-0.6c0.5-0.1,0.8-0.4,1.4-0.6l0.1,0.2l0.9-0.4l0.5,0.1l0.6-0.2
							c-0.3,0-0.6,0-0.5,0c1-0.3,2.5-0.4,2.5-0.3c0,0,0.6-0.2,1.2-0.3c0.6-0.1,1.2-0.3,1.2-0.3c0,0.1-0.4,0.2-0.7,0.3
							c1.3-0.4,0.3,0.1,1.4-0.2c-0.2,0,0.1-0.1,0.1-0.2c0.6,0,1.9-0.2,2.9-0.4L57,44c1.8-0.2,3.8-0.5,5.8-0.6c-0.7,0-0.6-0.2,0-0.3
							l0.2,0.2c0.4-0.1-0.6-0.1,0.2-0.2c0.8,0,0.5,0.2,0.1,0.3l0.9-0.1c0.1,0.1-0.2,0.1-0.2,0.2c0.4-0.1,1.6,0.2,2.1,0l0,0.1
							c2,0.1,2.9,0.1,4.5,0.4c0.1-0.2,0.7,0,1.2-0.1c1.2,0.3,2.5,0.7,3.9,1.1c1,0.2,0.3-0.1,0.8,0c0,0.2,1.5,0.5,0.7,0.4
							c1.8,0.4,2.3,0.5,4.6,0.6c-0.2-0.1-0.5-0.1-0.4-0.2c0.4,0,0.9,0.1,0.9,0.2l-0.1,0c2.6,0,6,0,7.9-0.4l-0.1,0c0,0,0.5-0.1,1-0.1
							c0.5,0,1-0.1,1-0.1c0.9,0.1-0.6,0.1,0.1,0.2c2.2,0,3.3,0.6,5,1.1c0.6,0.5,1.7,1,2.9,1.6c1.2,0.6,2.4,1.2,3.2,1.8l0-0.1
							c0.5,0.2,0.5,0.4,0.8,0.6c0-0.1-0.4-0.3-0.1-0.2c1.9,1,3.9,2,5.7,3.1c1.9,1.1,3.6,2.4,4.8,3.9c0.4,0.6,0.6,0.7,0.8,0.9
							c0.2,0.2,0.5,0.4,0.7,1.3l-0.4-0.4c0.7,1.3,1,2.9,1.2,4.5c0.2,1.6,0.4,3.2,0.7,4.8c-0.1-0.2-0.1-0.2-0.2-0.5
							c-0.1,0.7,0.3,2.4,0.4,2.4c0,0.5-0.1,0.1-0.1,0.4c0,0.7,0.4,1.6,0.3,2c0,0.1-0.1-0.2-0.1-0.3c0.1,0.4,0.2,2,0.3,1.6
							c0,1.2,0.3,2.2,0.3,3.2c0.2,0.6,0.1,2,0.3,2.2c-0.3-0.1-0.1,2.1,0.1,2.8c-0.1-0.2-0.1,0.6-0.2,0.4c0,0.8,0.1,1.6,0.2,1.5
							c-0.3,1.5,0.3,3.1-0.2,4c0,2.5-0.2,4.8-1,6.8c-0.1-0.1,0.1-0.6,0.3-1.2c0.2-0.6,0.3-1.1,0.1-1.1c-0.4,2-0.6,3.2-1.8,4.9
							c-0.3,0.4,0.1-0.3,0.1-0.5c-1,1.8-2.6,2.9-4.1,3.9c0,0,0.2-0.1,0.3-0.2c-0.3,0.2-0.8,0.3-0.7,0.4l0.3-0.2
							c0.3-0.1,0,0.2-0.3,0.5c-0.4,0.3-0.8,0.5-0.9,0.6c0.5-0.5-1.8,0.5-1-0.2c-0.2,0.1-0.5,0.2-0.4,0.3c-0.4,0.1-0.5,0.1-0.1-0.1
							c-1.2,0.4-0.8,0.4-1.9,0.6c0-0.1,0.2-0.1,0.3-0.2c-0.6,0.2-1.2,0.4-2.2,0.5c0.1,0-0.1-0.1,0.2-0.1c-1.7,0.2-3,0.5-4.9,0.3
							c0.6-0.2-0.7-0.1-0.7-0.3l-1,0l0.4,0.1c-0.9,0-1.7,0.1-2.5,0l0.7-0.1l-1.7,0l1,0.1c-0.9,0.1,0.1,0.3-1.1,0.2
							c0.2,0-0.9,0-1.4-0.2l0,0c-0.5,0.1-0.9,0.1-1.6,0.1c-0.2-0.1,0.1-0.2,0-0.3c-0.4,0.2-2.2,0.2-2.7,0.4c0.2-0.1,0.2-0.2,0.1-0.2
							l-0.4,0.2c-0.4,0-0.5,0-0.4-0.1c-1.3,0.1,0.4,0.2-1.1,0.3c0.1,0,0.1,0,0.3-0.1c-1.5,0.1-2.9,0.6-4.3,0.8
							c-0.5-0.1,1.2-0.3,0.7-0.4c-2,0.5-4,1.3-5.9,2l0.3-0.1c-0.1,0.4-1.4,0.4-2.3,0.9c0.2-0.1,0.2-0.3,0.2-0.2
							c-1.3,0.5-2.5,1.2-4.2,2.3l0.2-0.2c-0.7,0.3-1.8,1-2.6,1.4c-0.2,0.2-0.6,0.4-0.3,0.4c-1.3,0.4-2.3,1-3.4,1.5
							c-1.1,0.5-2.2,0.9-3.4,0.9c0.3-0.1,0.6-0.2,0.4-0.2c0,0-0.5,0.1-0.9,0.2c-0.5,0.1-1,0.2-1,0.2c0.2,0.1,0.3,0,0.7,0.1
							c-0.2,0.1-0.8,0.3-1.3,0.3c0.9-0.2,0-0.2-0.4-0.2c0.1,0-0.1,0.1,0,0.1c-1-0.2-0.2,0.3-1.6,0.2l0.1-0.1c-0.5,0.1-1,0.2-1.6,0.1
							c-0.2-0.2,0.6-0.1,0.6-0.2c-0.8,0-1.6,0.3-2.3,0.1c0.3,0,0.8,0,1.2,0c-0.8-0.2-0.9-0.2-1.5-0.2l0.1,0c0,0-0.3,0-0.7-0.1
							c-0.3,0-0.7-0.1-0.7-0.1l0.3,0.1c-1,0.3-2-0.1-3.4,0c1.3-0.1,0.2-0.1,0.4-0.3c-0.3-0.1-0.8-0.2-0.7-0.2c-0.6,0-1-0.3-1.9-0.2
							c0-0.1-0.7-0.1-0.5-0.2c-0.8-0.1,0.2,0.1,0.1,0.2c-1.3,0-2.9-0.8-4.7-1.1c-1.5-0.3-1.9-0.3-3.3-0.6c-0.4-0.2,0.5-0.1,0.5-0.1
							c-0.7-0.3-1.3-0.5-2-0.7c0.2,0,0-0.1-0.2-0.2c-0.6-0.2-0.5,0-1.2-0.3c0.2,0,0.3,0,0.6,0c-0.7-0.2-1.4-0.4-2.1-0.7
							c-0.1-0.2,0.5,0,0.7,0.1c-0.8-0.3-2-0.8-2.3-0.8l0.5,0.3c-0.3-0.1-0.1-0.2,0.1-0.1c0.7,0.2,0.9,0.5,0.9,0.5l-0.5-0.2
							c0.4,0.5,1.9,0.8,2.9,1.2l-0.5,0.1l1.1,0.2c0.2,0.1,0.3,0.3-0.2,0.2c0.7,0.4,0.7,0.2,1.2,0.5c0.1,0,0,0,0,0l0.7,0.2
							c-0.2,0,0.1,0.2-0.4,0c1.2,0.6,2.1,0.5,2.5,0.8l-0.1,0c1.8,0.4,0.2-0.1,1.6,0.1c0,0,0.2,0.2,0.4,0.3c0.2,0.2,0.4,0.3,0.4,0.3
							l0.2-0.1c0.2,0.1,0.5,0.2,0.5,0.2c0.7,0-0.1-0.1,0.3-0.1c0.9,0.4,2.5,0.4,2.7,0.8c0.3-0.1-0.8-0.3,0.1-0.2
							c0.2,0.4,1.1,0.1,1.9,0.4c-0.3,0.1-1.1-0.1-0.2,0.2c0.5-0.2,1.6,0.3,2.3,0.3c0.1-0.2,1.5,0.1,2.7,0c-0.1,0.1,2.2,0.2,3.4,0.2
							l0,0c0.2-0.2,1.4-0.2,2.2-0.4c0,0.1-0.2,0.2-0.6,0.3l0.8-0.1c0.2-0.1,0.4-0.2,0.9-0.3l-0.2,0.2c1-0.2,2.1-0.6,3.4-0.9
							c0-0.2-1.1-0.1,0.2-0.6c0.1,0.1,0.2,0.2-0.2,0.3c0.1,0,0.4-0.2,0.6-0.3l-0.5,0.3c0.6-0.1,0.3-0.2,0.7-0.4
							c0,0.1,0.4-0.1,0.3,0.1c-0.1,0.1-0.4,0.1-0.6,0.2c0.5-0.2,1.2-0.4,1.4-0.4c-0.1,0-0.1-0.1,0.3-0.3c0.9-0.5,0.4,0,1-0.2
							c0.2-0.2,0.8-0.4,0.8-0.6c0.3-0.1,0.4-0.1,0.5-0.1c0.4-0.3,2.2-1.2,1.6-1.1l-0.1,0.1c0,0,0,0,0.1,0l0,0l0,0
							c1.5-1,3.2-1.7,4.8-2.5l0,0.1c0.9-0.5,2.1-0.9,2.8-1.3c0.3-0.1,0.7-0.1,0.6,0c0.7-0.3,0.8-0.4,1.9-0.6c-0.7,0.3,0.3,0-0.8,0.3
							c1-0.3,1.2-0.2,2.3-0.7c-0.3,0.2,0.8,0,1.3-0.2l-0.7,0.1c0.5-0.1,1-0.2,1.5-0.3l-0.2,0.2c2.1-0.2,3.7-1,5.3-0.8
							c0.5-0.2-1.1,0-0.7-0.2c1-0.1,2,0.2,2.3,0.2c1.3,0.1,1.2-0.3,2.6-0.2c-0.2-0.1-0.3-0.3,0.7-0.3c1,0.1,1.2,0.3,0.6,0.4
							c-0.2,0-0.3,0-0.3-0.1c-0.3,0-0.7,0-0.3,0.1l0.1-0.1c0.5,0.1,1.8,0.1,1.5,0.2c0.7,0,0.3-0.1-0.2-0.2c1.2,0.2,2,0.1,3.2,0.2
							c-0.2,0-0.4-0.1-0.2-0.1c1.9,0.1,0.8-0.1,2.1-0.1c0.7,0.1-0.3,0.3,1,0.2c0.8,0,0.2,0.2-0.1,0.2c1.2-0.1,2.2,0,2.9-0.1
							l-0.6,0.1c0.4-0.1,0.7-0.1,1-0.1l-0.4-0.1c0.4,0,0.7-0.1,0.7,0c0.4-0.1-0.3-0.2,0.4-0.4c0.5,0,1.5-0.4,1.7-0.2
							c-1.5,0.3,0.2,0.2-1.1,0.5c0.2-0.1,0.6-0.1,0.9-0.2c0.1,0,0,0-0.1,0.1c1.5-0.2,0.6-0.3,2.1-0.8c-0.2,0.2,0.4,0.1,0.6-0.1
							c-0.6,0.2-0.3,0,0.2-0.3c0.9-0.3,1-0.5,1.4-0.8l-0.5,0.3c0.1-0.2,0.6-0.4,1.1-0.8c0.1,0-0.5,0.4-0.3,0.3
							c0.5-0.6,1.6-0.8,2.2-1.7c0.4-0.3,0.2,0.1,0.5-0.2c0.7-1,1-1,1.6-2.1c-0.3,0.3-0.3,0.3,0-0.5c0,0-0.1,0.1-0.1,0.3
							c-0.1,0.2-0.2,0.4-0.3,0.6c-0.1,0.2-0.3,0.5-0.4,0.6c-0.1,0.2-0.2,0.3-0.2,0.3c0,0,0.6-1.2,0.6-1.2c-0.2,0.3-0.3,0.6-0.5,0.8
							c-0.2,0.3-0.3,0.5-0.4,0.6c0.3-0.6,0.3-0.5,0-0.3c0.7-0.6,0.9-1.5,1.4-2.3l0.3,0.2c0.8-1.3,0.8-2.6,1.3-4.4l-0.2,0.6
							c-0.1-0.3,0.2-1.2,0.2-1.8c0.1,0.1,0.2-0.3,0.3-0.6c-0.1,0,0.1-1.4-0.1-1.6l0.2-0.8c0.1-1.5-0.3-1.8-0.3-3.2
							c0.1,0.4,0.2-0.2,0.3,0.8c0-0.5,0-0.9-0.1-0.9c0.1-0.3-0.2-1.4-0.1-1.8c-0.1-0.2-0.2-0.3-0.2-0.8c0-0.1,0.1,0,0.1,0
							c-0.1,0-0.1-0.9-0.2-0.4c0.3-1.5-0.3-4.2-0.2-5.5c-0.1-1.1-0.3-2.3-0.4-3.3c0,0.1,0.1,0,0.1,0.2c0-1.3-0.4-0.8-0.5-2.3
							c0.1-0.8,0.2,0.8,0.2,0.3c0.3-0.3-0.3-1.8-0.2-2.9l0.1,0.2c0-0.8-0.4-1.9-0.5-3.2c0,0,0,0.1,0.1,0c-0.3-0.8-0.6-2.5-0.9-3.7
							c0.2,0.3,0.2,0.5,0.3,0.3c-0.1-0.5-0.2,0.2-0.5-0.9c0-0.4-0.2-1.2-0.1-1.3c0,0,0.1,0.3,0.2,0.5c0.1,0.3,0.2,0.5,0.2,0.5
							c0-0.6-0.5-1.3-0.7-1.8l0.1,0c-0.4-0.7-0.7-1.1-1-1.4c-0.3-0.3-0.6-0.6-1.2-1.3l0.1,0.2c-0.8-0.5-0.5-0.7-1.3-1.1l-0.1-0.4
							c-0.5-0.4-1.9-1.1-2.9-1.5c0.6,0.1,1.8,0.7,2.5,1.1c-0.5-0.4-1.8-1.1-2.1-1.2c0.2,0.1,0.5,0.2,0.7,0.4
							c-0.7-0.2-1.7-0.6-2.7-1.2c0.4-0.3-2.8-1.5-3.4-2.3c-2-0.9-3.6-2.2-6-3.3c0.7,0.7-0.7-0.3-0.7,0.1c-0.6-0.2-0.8-0.3-0.8-0.4
							c0,0-0.4-0.2-0.8-0.4c-0.4-0.2-0.8-0.4-0.8-0.4c-0.4-0.2,0.6,0.1,0.5,0c-1.2-0.4-0.5-0.3-1.3-0.7c0.1,0.2-0.5,0.1-1.2-0.1
							c0,0,0.3,0.1,0.5,0.2c0.3,0.1,0.5,0.2,0.5,0.2c-0.9-0.1-1.3-0.3-1.7-0.4c-0.4-0.1-0.8-0.3-1.8-0.2l0.6-0.1
							c-0.5,0-1.4,0-2.3,0.1c-0.9,0.1-1.7,0.2-2.2,0.4c-0.2,0-0.4-0.1,0-0.2c-1.1,0.1-2.3,0.3-3.4,0.4c-1.1,0.1-2.2,0.1-3-0.1
							l0.2-0.1c-0.4,0-0.7,0.1-1.2-0.1c0,0,0.2-0.1,0-0.1c-0.2,0-1.1,0-1.6-0.2l0.5,0c-2-0.5-3.2-0.5-5-0.9c0.1-0.2-1.6-0.7-2.4-0.9
							l0,0c-2.5-0.5-4.3-0.4-6.7-0.3c-1.5-0.3-5,0-7.3,0.2c0.4,0,0,0.2-0.4,0.3c-0.6,0-1.5,0.4-1.4,0.1l0.2,0
							c-0.4-0.2-1.6,0.1-2.4,0.2l-0.1,0.3c-2.4-0.1-5.9,1.4-7.2,1.3c-0.5,0.2-1.2,0.4-1.7,0.6l0-0.2c-0.7,0.2-1.3,0.3-1.9,0.5
							c-0.6,0.2-1.2,0.4-2.1,0.7l0.3-0.2c-1,0.3-1.1,0.9-2,1.3l-0.4-0.1c-1.7,0.7-3.6,1.3-5.1,2.5c0,0,0-0.1,0.3-0.3
							c-0.8,0.4-3,1.7-2.6,1.8C31,51,29.5,52.2,28.8,53l0-0.2c-0.6,0.7-0.5,0.8-1.4,1.6c-0.2,0.2-0.3,0.1,0-0.2
							c-0.8,0.6-0.4,0.6-1.3,1.4l0.2-0.4c-0.7,0.7-0.6,0.7-0.9,1.2c-0.3,0.5-1.2,1.4-1.4,1.4c0,0.2-0.2,0.7-0.6,1.1
							c-0.1,0,0-0.2,0-0.3c-1,1.3-1.2,2.1-1.8,3c-0.1,0-0.1,0-0.2,0.1c0.6-1.2,1.2-2,1.1-1.9c-0.1-0.1-0.7,0.8-0.4,0
							c-0.2,0.4-0.4,0.9-0.6,1.5c-0.2,0.6-0.5,1.1-0.7,1.6c0,0-0.1,0.1-0.1,0.1l0-0.1c-0.1,0.2-0.2,0.4-0.2,0.6
							c-0.2,0.3-0.3,0.5-0.4,0.8c-0.1,0.1-0.5,1.1-0.7,1.6c0.2,0-0.1,0.7,0.3,0.1c0,0.1,0-0.1,0.1-0.4c0-0.1,0.1-0.2,0.1-0.2l0,0
							c0.1-0.3,0.3-0.7,0.5-1.2c-0.1,0.4-0.2,0.8-0.4,1.3c0,0.3,0,0.6,0,0.8c-0.5,0.6-0.9,1.9-1.1,2.1c-0.3,1.6-0.6,3.7-0.4,4.7
							c0,0.5-0.1,0.5-0.2,0.7c0-0.3,0-0.6,0-0.7c0,0.5,0,1.1-0.1,1.7c0,0.6,0,1.1,0.1,1.2c-0.1,1.1-0.2-0.6-0.2,0.9l-0.1-0.2
							c-0.3,3.1,0.8,4.9,1.2,8.3c0-0.2,0-0.4,0-0.4c0.7,3.8,2.6,7.5,4.2,11c0.5,1,0.7,1,1.1,1.5l0,0.3c0,0,0.2,0.2,0.4,0.4
							c0.2,0.2,0.4,0.4,0.4,0.4c1,1.3,1.2,2.6,2.6,4l-0.1-0.3c0.4,0.6,1.5,1.8,1.3,1.8c0.1,0,0.2,0.1,0.4,0.4l-0.1,0.1
							c0,0,0.3,0.3,0.6,0.6c0.3,0.3,0.7,0.6,0.7,0.6c0.9,1-0.4,0.1,1,1.6c0.6,0.5,1.8,1.2,1.7,1c-0.2-0.2-0.6-0.5-0.5-0.6l0.6,0.4
							c0.3-0.1,0.8,0-0.3-1.2c0,0-0.2-0.2-0.5-0.3c-0.2-0.2-0.5-0.3-0.5-0.3l-0.2-0.4c0,0,0.2,0.2,0.3,0.3c0.2,0.2,0.4,0.3,0.4,0.3
							c-0.3-0.5-0.6-0.6-1-0.8c0-0.1-0.1-0.3-0.2-0.4l-1-0.7c0-0.2,0.5,0.2,0-0.4c-0.4-0.3,0.2,0.5-0.5-0.1
							c-0.3-0.5-0.1-0.4-0.6-0.9c0-0.1,0.1,0,0.3,0.1c-0.4-0.4-1-1.2-1.3-1.3c-0.2-0.5-1.2-1.6-1-1.7c-0.2-0.1-0.7-0.7-1.1-1.2
							c0.8,0.6-1.1-1.7-0.7-1.6c-0.6-0.5-1.4-2.2-2.1-3.2c0.1,0.1,0.2,0.2,0.2,0.3c-0.3-0.6-0.3-0.9-0.5-1.3c-0.2,0-0.8-1-1.1-1.5
							c-0.2-0.9,0.5,0.4,0.5,0c-0.1,0.1-0.8-1.3-0.8-1c-0.1-0.7-0.2-0.6-0.1-1c-0.3,0-0.3-0.6-0.6-1c-0.2-1,0.1-0.3-0.3-1.3
							C21.1,86.8,21.5,87.7,21.5,87.7z M22,63.1L22,63.1c-0.1,0.2-0.2,0.4-0.2,0.5C21.8,63.5,21.9,63.3,22,63.1z M23,61.2
							c-0.1,0.2-0.3,0.5-0.5,0.8c-0.1,0-0.1-0.1,0-0.2C22.5,61.9,22.8,61.4,23,61.2z M20,64.9c0.1-0.3,0.2-0.4,0.2-0.5
							c-0.1,0.2-0.1,0.3-0.2,0.6c0,0,0,0,0,0C20,65,20,64.9,20,64.9z"/>
						<path fill="#202020" d="M20,65.5c0,0,0,0.1,0,0.1C20,65.6,20.1,65.5,20,65.5c0.1-0.1,0.1-0.1,0.1-0.2
							C20.1,65.4,20,65.5,20,65.5z"/>
						<path fill="#202020" d="M72.5,109.2L72.5,109.2C72.5,109.2,72.5,109.2,72.5,109.2C72.5,109.2,72.5,109.2,72.5,109.2z"/>
						<polygon fill="#202020" points="47.1,45.8 47.1,45.8 46.9,45.9 						"/>
						<path fill="#202020" d="M61.2,112.6c0,0-0.1,0-0.2,0C61.1,112.6,61.1,112.6,61.2,112.6z"/>
						<path fill="#202020" d="M56.1,112.7l-0.7-0.1C55.7,112.6,56,112.7,56.1,112.7z"/>
						<path fill="#202020" d="M52.2,112.3C52.2,112.3,52.2,112.3,52.2,112.3L52.2,112.3L52.2,112.3z"/>
						<path fill="#202020" d="M112.4,100.5c0,0,0.1-0.1,0.1-0.1C112.8,100.2,112.6,100.3,112.4,100.5z"/>
						<path fill="#202020" d="M94.4,102.6c0.2,0,0.4-0.1,0.6-0.1C94.6,102.5,94.4,102.5,94.4,102.6z"/>
						<path fill="#202020" d="M118.4,82.4L118.4,82.4c0,0,0-0.1,0-0.1L118.4,82.4z"/>
						<path fill="#202020" d="M95.8,102.6c-0.3,0-0.6,0-0.9,0C95.2,102.6,95.6,102.6,95.8,102.6z"/>
						<path fill="#202020" d="M36,107.4l-0.2-0.1c0,0,0,0,0,0L36,107.4z"/>
						<path fill="#202020" d="M35.8,107.3l-0.2-0.1C35.7,107.3,35.8,107.3,35.8,107.3z"/>
						<path fill="#202020" d="M35.2,107.1l0.5,0.1C35.5,107.2,35.3,107.1,35.2,107.1z"/>
						<path fill="#202020" d="M40.8,109.5L40.8,109.5C40.8,109.4,40.8,109.4,40.8,109.5z"/>
						<path fill="#202020" d="M42.3,110c-0.4-0.1-0.9-0.4-1.4-0.6l-0.1,0C41.1,109.4,41.9,109.9,42.3,110z"/>
						<path fill="#202020" d="M48.5,112.4c0,0-0.3-0.1-0.7-0.2c-0.3-0.1-0.6-0.2-0.6-0.2c0.2,0.1,0.5,0.3-0.1,0.1
							C48.7,112.7,46.8,112,48.5,112.4z"/>
						<path fill="#202020" d="M52.6,113.1c-0.7-0.1,0,0.1,0,0.1C53,113.2,53.1,113.2,52.6,113.1z"/>
						<path fill="#202020" d="M80.9,105.4l0,0.2C81.4,105.4,80.9,105.5,80.9,105.4z"/>
						<polygon fill="#202020" points="86.2,103.2 85.7,103.2 85.4,103.4 						"/>
						<polygon fill="#202020" points="89.7,103.8 89.5,103.8 90.4,103.7 						"/>
						<path fill="#202020" d="M119.5,76.5l-0.2,0.2C119.4,77.1,119.6,77.2,119.5,76.5z"/>
						<path fill="#202020" d="M114.5,55.5c-0.1-0.2-0.5-0.7-0.9-0.9C114,55,114.3,55.4,114.5,55.5z"/>
						<polygon fill="#202020" points="52.4,43.2 52.8,43 52,43.2 						"/>
					</g>
				</g>
			</g>
		</g>
	</g>
	<g>
		<g>
			<g>
				<g>
					<g>
						<path fill="#202020" d="M98.5,69.7c-0.1,0-0.1,0.1-0.1,0.2l0.2,0L98.5,69.7z"/>
						<path fill="#202020" d="M98.6,70.6c0.2,0.1,0.4,0.2,0.5,0c-0.2,0-0.2-0.1-0.4-0.1c-0.1-0.1-0.1-0.2,0-0.2
							c-0.1,0-0.1-0.2-0.2-0.2c0,0.2,0.1,0.4,0.3,0.5C98.7,70.6,98.7,70.5,98.6,70.6z"/>
						<path fill="#202020" d="M95.6,77.1L95.6,77.1C95.6,77.1,95.6,77.1,95.6,77.1z"/>
						<path fill="#202020" d="M91.2,79.4C91.2,79.3,91.2,79.3,91.2,79.4C91.2,79.3,91.2,79.4,91.2,79.4z"/>
						<path fill="#202020" d="M90.8,80.5C90.8,80.4,90.8,80.4,90.8,80.5C90.8,80.4,90.8,80.4,90.8,80.5z"/>
						<path fill="#202020" d="M95.6,77.1L95.4,77C95.4,77.1,95.5,77.1,95.6,77.1z"/>
						<path fill="#202020" d="M99.8,71.9C99.7,71.8,99.7,71.8,99.8,71.9L99.8,71.9L99.8,71.9z"/>
						<path fill="#202020" d="M98.8,77.3L98.8,77.3c0.1,0,0.1,0,0.1-0.1L98.8,77.3z"/>
						<path fill="#202020" d="M99.8,76.4c0,0.1,0.2,0.1,0.2,0.1c-0.1,0-0.1-0.1-0.1-0.1C99.8,76.4,99.8,76.4,99.8,76.4z"/>
						<path fill="#202020" d="M99.3,72.6L99.3,72.6C99.3,72.6,99.3,72.6,99.3,72.6z"/>
						<path fill="#202020" d="M97,77.1C97,77,97,77,97,77.1C97,77,97,77.1,97,77.1z"/>
						<path fill="#202020" d="M51.1,75.5C51.1,75.5,51.1,75.5,51.1,75.5C51.1,75.5,51.1,75.4,51.1,75.5z"/>
						<path fill="#202020" d="M52.3,72.7L52.3,72.7C52.3,72.7,52.4,72.7,52.3,72.7L52.3,72.7z"/>
						<path fill="#202020" d="M89.8,82.2L89.8,82.2C89.8,82.1,89.8,82.2,89.8,82.2z"/>
						<path fill="#202020" d="M74.8,80.5c0,0.3-0.3-0.3-0.3,0.1C74.5,80.6,74.9,80.8,74.8,80.5z"/>
						<path fill="#202020" d="M99.8,71.9L99.8,71.9C99.8,72,99.8,72,99.8,71.9z"/>
						<path fill="#202020" d="M74.5,80.7L74.5,80.7L74.5,80.7C74.5,80.7,74.5,80.7,74.5,80.7z"/>
						<path fill="#202020" d="M86,85.3C86.1,85.4,86.1,85.4,86,85.3C86.1,85.4,86.1,85.3,86,85.3z"/>
						<path fill="#202020" d="M89.2,83.4L89.2,83.4C89.2,83.4,89.2,83.4,89.2,83.4z"/>
						<path fill="#202020" d="M84.4,86.4c-0.1,0-0.1,0-0.1,0c0,0,0,0,0,0C84.3,86.4,84.3,86.4,84.4,86.4z"/>
						<path fill="#202020" d="M82.4,87C82.5,87,82.5,87,82.4,87l0.1,0L82.4,87z"/>
						<path fill="#202020" d="M53,82c0-0.1,0-0.1,0-0.2C52.9,82,52.7,81.7,53,82z"/>
						<path fill="#202020" d="M99.7,71.9C99.7,71.9,99.8,71.9,99.7,71.9L99.7,71.9C99.7,71.9,99.7,71.9,99.7,71.9z"/>
						<path fill="#202020" d="M84.8,87.6l-0.3,0.1C84.5,87.7,84.7,87.7,84.8,87.6z"/>
						<path fill="#202020" d="M65.2,76.2L65.2,76.2C65.2,76.2,65.2,76.2,65.2,76.2z"/>
						<path fill="#202020" d="M83.4,88.1c-0.1,0-0.2-0.1-0.2-0.1c0,0,0,0,0,0.1L83.4,88.1z"/>
						<path fill="#202020" d="M53,81.9L53,81.9L53,81.9z"/>
						<path fill="#202020" d="M51.4,79.9c0.1,0.3,0.3,0.1,0.4,0.1c0.2,0.4-0.1,0.2-0.1,0.4c0.2,0.2,0.4,0.3,0.5,0.5
							c0,0,0,0.1-0.1,0.1c0.3,0.2,0.5,0.7,0.8,0.8c0,0,0,0.1,0,0.1c0-0.1,0.1-0.2,0.2-0.2c0.1,0.1,0.3,0.1,0.2,0.3
							c-0.1-0.1-0.1,0-0.2,0l0.2,0.1c0,0.2-0.2-0.1-0.3,0c0.3,0.2,0.6,0.3,0.8,0.5c-0.1,0.2-0.5-0.3-0.3,0l-0.2-0.3
							c0,0.4-0.2-0.2-0.2,0.2c0.4,0.4,0.5,0.3,0.9,0.7c0.2,0,0.1-0.2,0.2-0.2c0.7,0.2,0.3,0.7,0.9,0.7c0.2-0.1,0.3-0.3,0.6-0.1
							l-0.2,0.2c0.5,0.1,0.3-0.2,0.8,0c-0.1,0.1-0.4,0-0.3,0.1c0.3,0.2,0.3-0.1,0.5-0.1l0,0.2c0.5,0,1.1-0.2,1.7-0.3
							c0,0.1-0.1,0.1,0,0.2c0.7-0.2,1.5-0.4,2.2-0.7l0.1-0.3c0.1,0,0.1,0,0.1,0.1c0.3-0.1,0-0.1,0-0.2c0.1-0.1,0.2,0,0.2,0.1
							c0.3-0.4,0.9-1.1,1.3-1.3l0,0.1c0.3-0.2,0-0.5,0.4-0.7l0,0.1c0.6-0.6,0.9-1.4,1.4-1.9c-0.2-0.2,0.4-0.7,0.2-0.9
							c0.3-0.4,0.3-0.2,0.7-0.8c0.1-0.2-0.1-0.3-0.1-0.5l0.2,0.1l-0.1-0.3l0.2-0.1l0-0.2c0,0.1-0.1,0.1-0.2,0.1
							c0-0.3,0.4-0.6,0.5-0.5c0,0,0-0.2,0.1-0.3c0-0.2,0.1-0.3,0.1-0.3c0.1,0.1,0,0.1,0,0.2c0-0.4,0.2,0,0.2-0.3
							c-0.1,0-0.1-0.1-0.1-0.1c0.2-0.1,0.4-0.3,0.5-0.5l0,0.1c0.3-0.2,0.7-0.5,1-0.5c-0.1-0.1-0.1-0.3,0-0.3l0,0.2
							c0.1-0.1-0.1-0.1,0.1-0.2c0.2,0,0.1,0.2,0,0.3c0,0,0.2,0,0.2,0c0,0.1-0.1,0.1-0.1,0.1c0.1-0.1,0.2,0.3,0.4,0.1l0,0.1
							c0.4,0.2,0.6,0.3,1,0.6c0.1-0.1,0.2,0,0.4,0c0.2,0.3,0.4,0.6,0.7,0.9c0.3,0.2,0.2,0,0.3,0c-0.1,0.1,0.2,0.4,0,0.3
							c0.4,0.4,0.5,0.5,1,0.9c0-0.1,0-0.2,0-0.2c0.1,0.1,0.1,0.2,0.1,0.3l0,0c0.6,0.4,0.6,1.6,1.2,1.9l0,0l0.5,0.4
							c0.1,0.2-0.2-0.1-0.2,0.1c0.5,0.4,0.5,0.9,0.9,1.3c-0.2,0.6,0.7,1.3,0.7,1.9l0.1-0.1c0.2,0.1,0,0.2,0.1,0.3
							c0.1-0.1,0-0.2,0.1-0.1c0.7,1,1.2,2.3,2.1,3.4c0.4,0.4,0.6-0.2,0.9,0.4l-0.3,0c0.9,0.5,1.9,1.2,3,1.2c-0.1,0-0.1,0.1-0.2,0.1
							c0.2,0.2,0.8,0.1,0.8,0c0.2,0,0,0.1,0.1,0.2c0.2,0.1,0.5-0.2,0.7-0.1c0,0-0.1,0-0.1,0.1c0.1-0.1,0.7,0,0.5-0.2
							c0.4,0,0.7-0.2,1-0.2c0.1-0.2,0.6-0.1,0.6-0.4c0.1,0.3,0.7,0,0.8-0.2c0,0.1,0.2,0,0.2,0.1c0.2-0.1,0.4-0.2,0.3-0.3
							c0.6,0.1,0.7-0.6,1.2-0.4c0.6-0.5,1.2-0.9,1.7-1.3c0.1,0.2-0.6,0.4-0.5,0.6c0.5-0.4,0.7-0.8,1.2-1.2c0.2-0.1,0,0.1,0,0.2
							c0.5-0.5,1-0.8,1.3-1.3c0,0,0,0.1,0,0.1c0.1-0.1,0.2-0.2,0.1-0.2l-0.1,0.1c-0.2,0,0.1-0.6,0-0.7c0.1,0.4,0.4-0.4,0.6,0.1
							c0-0.1,0-0.2,0-0.2c0.1-0.1,0.1-0.1,0.1,0.1c0.2-0.4,0-0.3,0.2-0.6c0,0,0,0.1,0.1,0.2c0-0.2,0-0.4,0.2-0.7c0,0,0.1,0,0,0.1
							c0.2-0.5,0.1-1,0.4-1.5c0.2,0.2,0.1-0.2,0.3-0.2l0-0.3l-0.1,0.1c0.1-0.3-0.1-0.6,0-0.8l0.1,0.2c0,0,0-0.5,0-0.5
							c0,0,0,0.1,0,0.2c0,0.1,0,0.2,0,0.2c-0.1-0.3-0.3,0-0.2-0.3c0,0.1,0-0.3,0.1-0.4l0,0c-0.1-0.1-0.2-0.3-0.2-0.5
							c0.1-0.1,0.2,0,0.3-0.1c-0.2-0.1-0.1-0.3-0.4-0.5c0.1,0.1,0.2,0.1,0.2,0.1l-0.2-0.1c0-0.1,0,0,0.2,0c-0.1-0.2-0.3-0.1-0.3-0.3
							l0,0c0,0,0.1,0,0.1,0.1l0,0l0-0.1c0,0,0,0,0.1,0l0.2,0c0.1,0,0.3,0,0.4,0c0.2,0.2-0.2,0,0,0.2c0.1,0,0.2-0.1,0.5-0.1
							c0.3,0,0.6,0,0.9,0l-0.1,0c0.1-0.3,0.4,0.2,0.7,0.1c-0.1,0-0.1,0.2-0.1,0.1c0.4,0.1,0.8,0,1.4,0l-0.1,0.1
							c0.2,0.1,0.6,0.1,0.8,0.2c0.1-0.1,0.2,0,0.1-0.2c0.7,0.5,1.5-0.1,2.1,0.3c-0.1,0-0.2,0-0.1,0.1l0.6,0c0-0.1-0.1-0.1-0.2-0.2
							c0.1-0.1,0.2-0.1,0.4-0.1c-0.3,0.1,0,0.2,0.1,0.3c0,0,0-0.1,0-0.1c0.3,0.2,0.1-0.2,0.5-0.1l0,0.1c0.2-0.1,0.3-0.2,0.4-0.3
							c0.2,0.1-0.1,0.2,0,0.3c0.3-0.2,0.2-0.6,0.4-0.7c0,0.1,0,0.3-0.1,0.4c0.3-0.1,0.3-0.2,0.3-0.4l0,0c0,0,0-0.1,0.1-0.3
							c0-0.1,0-0.2,0-0.2l0,0.1c-0.4-0.3-0.1-0.6-0.4-1c0.3,0.4,0.1,0.1,0.3,0.1c0-0.1,0.1-0.3,0.1-0.2c-0.2-0.2,0.1-0.3-0.2-0.6
							c0.1,0,0-0.2,0.1-0.2c-0.1-0.2-0.1,0.1-0.2,0.1c-0.2-0.3,0.1-0.9-0.3-1.4c-0.2-0.4-0.4-0.5-0.7-0.8c0-0.2,0.2,0,0.2,0
							c0-0.3-0.1-0.4-0.2-0.6c0.1,0,0.1,0,0.1-0.1c-0.1-0.2-0.2,0-0.2-0.3c0.1,0,0.2,0,0.3,0.1c-0.1-0.2-0.3-0.3-0.4-0.5
							c0.1-0.1,0.2,0.1,0.3,0.1c-0.1-0.2-0.4-0.6-0.5-0.5l0,0.2c0-0.1,0.1-0.1,0.2-0.1c0.2,0.1,0.1,0.3,0,0.3l-0.1-0.1
							c-0.2,0.3,0.3,0.5,0.4,0.8l-0.3,0l0.3,0.2c0,0.1-0.1,0.2-0.2,0c0,0.2,0.1,0.2,0.1,0.4c0,0,0,0,0,0l0.1,0.2
							c-0.1,0-0.1,0.1-0.2,0c0,0.4,0.4,0.5,0.2,0.7l0,0c0.2,0.5,0.2,0,0.5,0.3l-0.4,0.4l0.2,0c0,0.1,0,0.2-0.1,0.2
							c0.2,0.2,0.1,0,0.2,0c-0.1,0.3,0.2,0.7-0.1,0.8c0.1,0.1,0.1-0.3,0.2,0c-0.3,0.1,0.1,0.3,0,0.6c-0.2-0.1-0.1-0.3-0.2,0
							c0.3,0.1,0,0.5,0,0.7c0.2,0,0.1,0.5,0.1,0.7c0,0-0.1,0.1-0.2,0.2c-0.1,0.1-0.3,0.1-0.4,0.1l0,0c0,0.2-0.3,0.2-0.5,0.2
							c0-0.1,0.1-0.2,0.2-0.2l-0.2,0c-0.1,0.1-0.1,0.1-0.3,0.1l0.1-0.2c-0.3,0-0.6,0.1-1,0c0,0.1,0.3,0.4-0.2,0.5
							c0-0.1,0-0.2,0.1-0.2c0,0-0.1,0.1-0.2,0l0.2-0.1c-0.2-0.1-0.1,0.1-0.2,0.1c0-0.1-0.1-0.1-0.1-0.2c0,0,0.1,0.1,0.2,0
							c-0.2,0-0.3-0.1-0.4-0.2c0,0.1,0,0.2-0.1,0.2c-0.3,0-0.1-0.1-0.3-0.2c-0.1,0.1-0.3,0-0.3,0.1c-0.1,0-0.1-0.1-0.1-0.1
							c-0.2,0.1-0.7-0.1-0.6,0.1l0,0l0,0l0,0l0,0c-0.5,0.1-1.1-0.2-1.6-0.2l0-0.1c-0.3,0-0.7,0-0.9,0.1c-0.1,0-0.2-0.1-0.2-0.2
							c-0.2,0-0.3,0.1-0.6,0c0.2-0.1-0.1-0.1,0.2,0c-0.2-0.1-0.5-0.2-0.9-0.1c0.1-0.1-0.4-0.2-0.6-0.2l0.4,0.1c-0.2,0-0.4,0-0.6-0.1
							l-0.1-0.2c-0.3-0.1-0.5-0.1-0.7-0.1c-0.1,0-0.2,0-0.3,0c0,0-0.1,0.1-0.1,0.1c0.2,0.3,0.4,0.5,0.6,0.7c0.1,0.2,0.2,0.4,0.2,0.6
							c0.3,0.3-0.2-0.5,0.2-0.2c0.2,0.3,0,0.8,0.1,1c0,0.3,0.3,0.3,0.3,0.6c0.1-0.1,0.2-0.1,0.3,0.2c0,0.3-0.3,0.3-0.3,0.2
							c0-0.1,0-0.1,0-0.1c0-0.1-0.1-0.2-0.1-0.1l0.1,0c-0.1,0.1-0.1,0.5-0.2,0.4c0,0.2,0.1,0.1,0.1-0.1c-0.1,0.3-0.1,0.5-0.2,0.8
							c0,0,0.1-0.1,0.1,0c-0.2,0.5,0.1,0.2,0,0.6c-0.2,0.2-0.2-0.1-0.2,0.2c-0.1,0.2-0.2,0-0.2-0.1c0,0.3-0.3,0.5-0.4,0.6l0-0.2
							c0,0.1,0,0.2-0.1,0.2l0.2,0c-0.1,0.1-0.1,0.1-0.2,0.1c0,0.1,0.2,0.1,0.2,0.3c-0.1,0.1-0.2,0.4-0.3,0.3c0.3-0.3-0.2-0.1,0-0.4
							c0,0.1-0.1,0.1-0.1,0.2c0,0,0,0,0-0.1c-0.4,0.2,0.1,0.3-0.2,0.6c0-0.1-0.2-0.1-0.2,0c0.1-0.1,0.2,0.1,0.1,0.2
							c-0.2,0.1-0.2,0.3-0.3,0.3l0.1-0.1c0,0.1-0.1,0.2-0.2,0.4c-0.1,0,0.1-0.2,0-0.1c0,0.3-0.5,0.2-0.6,0.5c-0.1,0-0.1-0.1-0.3-0.1
							c-0.2,0.3-0.4,0.1-0.6,0.4c0.2,0.1,0.2,0,0,0.3l0.4-0.4L88,84.5c0.1-0.1,0.2-0.3,0.3-0.3c-0.1,0.2-0.1,0.2,0.1,0.2
							c-0.3,0-0.3,0.4-0.6,0.4l-0.2-0.3c-0.4,0.1-0.5,0.5-1,0.7l0.2,0c0,0.2-0.3,0.2-0.4,0.3c0-0.1-0.2-0.1-0.3-0.1
							c0,0.1-0.4,0.2-0.3,0.4l-0.3,0c-0.4,0.1-0.3,0.5-0.7,0.7c0.1-0.2-0.1-0.2,0.1-0.4c-0.1,0.1-0.2,0.1-0.2,0.2
							c-0.1,0-0.3,0.3-0.5,0.2c0,0.1,0,0.2-0.2,0.2c0,0,0-0.1,0-0.1c0,0.1-0.2,0.2,0,0.2c-0.5-0.2-1.1,0.4-1.6,0.2
							c-0.3,0.1-0.6,0.2-0.9,0.2c0,0,0-0.1,0,0c-0.4-0.1-0.2,0.3-0.6,0.2c-0.2-0.2,0.2-0.1,0.1-0.2c0-0.4-0.5,0-0.7-0.3l0.1,0
							c-0.2-0.2-0.5,0-0.8-0.1c0,0,0,0,0-0.1c-0.3,0.1-0.7-0.1-1-0.2c0.2-0.1,0.2,0,0.2-0.1c-0.1-0.1-0.1,0.2-0.4,0.1
							c0-0.1-0.2-0.3-0.1-0.5l0.2,0.2c0-0.3-0.3-0.2-0.4-0.3l0.1-0.1c-0.3-0.3-0.5-0.1-0.8-0.5l0,0.1c-0.4,0,0-0.3-0.3-0.3l0.1-0.2
							c-0.2-0.1-0.5-0.4-0.8-0.6c0.2,0.1,0.5,0.3,0.7,0.4c-0.1-0.1-0.4-0.5-0.5-0.5c0.1,0,0.2,0.1,0.2,0.2c-0.3-0.1-0.5-0.3-0.7-0.6
							c0.4-0.2-0.4-0.8-0.2-1.2c-0.4-0.5-0.5-1.1-0.9-1.8c-0.2,0.4-0.1-0.2-0.4,0c-0.1-0.1-0.1-0.2-0.1-0.2l-0.1-0.6
							c0-0.2,0.1,0.1,0.2,0.1c-0.2-0.3,0.1-0.2,0-0.5c-0.1,0.1-0.2,0-0.3-0.2l0,0.3c-0.4-0.4,0-0.6-0.4-0.9l0.2,0.1
							c-0.2-0.2-0.6-0.9-0.9-0.9c0-0.1,0-0.2,0.1-0.1c-0.3-0.6-1.1-1-1.3-1.5l0.1,0c-0.1-0.1-0.3-0.1-0.3-0.2c0,0,0.1,0,0.1-0.1
							c-0.1,0-0.3-0.1-0.4-0.3l0.2,0c-0.3-0.6-0.8-0.6-1.3-0.9c0.2-0.2-0.1-0.6-0.3-0.8l0,0c-0.5-0.5-1.1-0.8-1.9-1
							c-0.2-0.2-0.7-0.4-1.2-0.3c-0.5,0.1-1,0.3-1.4,0.5c0.1,0,0.1,0.2,0,0.3c-0.2,0.1-0.3,0.5-0.4,0.3l0.1,0
							c-0.3-0.1-0.5,0.3-0.7,0.5l0.2,0.2c-0.4,0.2-0.6,0.7-0.7,1.1c-0.1,0.4-0.2,0.8-0.4,0.9c0,0.2-0.1,0.4,0,0.5l-0.2-0.1
							c-0.2,0.4-0.3,0.6-0.5,1.1l-0.1-0.1c-0.1,0.3,0.3,0.5,0.1,0.8l-0.3,0c-0.2,0.5-0.7,0.8-0.8,1.3c0,0-0.1-0.1,0-0.2
							c-0.1,0.2-0.7,0.6-0.4,0.7c-0.2-0.1-0.4,0.4-0.5,0.6l-0.1-0.1c0,0.3,0,0.4-0.2,0.6c-0.1,0-0.1-0.1,0-0.1
							c-0.3,0.1-0.1,0.2-0.4,0.4l0-0.1c-0.2,0.1-0.2,0.2-0.2,0.3c-0.1,0.1-0.5,0.2-0.6,0.1c0,0.1-0.1,0.3-0.2,0.3c0,0,0-0.1,0-0.1
							c-0.4,0.1-0.6,0.4-0.9,0.3c0,0,0-0.1-0.1-0.1c0.3-0.1,0.6-0.2,0.6-0.1c-0.1-0.1-0.3-0.1-0.2-0.3c-0.2,0.2-0.5,0.5-0.7,0.5
							c0,0,0,0,0,0l0,0c-0.1,0-0.1,0-0.2,0c-0.1,0-0.1,0-0.2,0c0-0.1-0.3,0-0.4,0c0,0.2-0.2,0.1,0,0.3c0,0,0,0,0.1,0c0,0,0,0,0.1,0
							l0,0c0.1,0,0.2,0,0.3,0c-0.1,0.1-0.2,0.2-0.4,0.1c-0.1,0.1-0.1,0.2-0.2,0.3c-0.2-0.2-0.6-0.4-0.6-0.5c-0.4,0.1-0.9-0.1-1.3,0
							c-0.1,0-0.1-0.1-0.1-0.2c0.1,0,0.1,0,0.2,0c-0.3,0-0.6-0.3-0.8-0.1c-0.2-0.3,0.2-0.1-0.1-0.3l0.1,0c-0.2-0.4-0.5-0.5-0.8-0.7
							c-0.3-0.2-0.6-0.4-0.7-1c0,0.1,0,0.1,0,0.1c-0.3-1-1-2-0.7-3.1c0-0.3-0.1-0.3-0.2-0.5l0.2-0.1L52,76.4
							c-0.1-0.5,0.5-0.8,0.2-1.4l-0.1,0.1c0-0.2,0-0.7,0.1-0.6c0,0-0.1-0.1,0-0.2l0.1,0l-0.1-0.5c0.1-0.4,0.3,0.1,0.5-0.5
							c0-0.2-0.2-0.7-0.2-0.6c0,0.1-0.1,0.2-0.2,0.2l0-0.2c-0.3-0.1-0.5-0.3-0.8,0.2l0.1,0.4l-0.1,0.1l0-0.3c-0.1,0.1-0.1,0.3,0,0.4
							c-0.1,0-0.1,0.1-0.2,0.1l0.2,0.4c-0.1,0-0.2-0.2-0.3,0c0.1,0.2,0.3-0.1,0.3,0.2c-0.1,0.1-0.2,0.1-0.2,0.3
							c-0.1,0-0.1,0-0.1-0.1c0.1,0.2,0,0.5,0.1,0.6c-0.2,0.2,0,0.6-0.3,0.6c0.1,0.1,0.2,0.3,0.2,0.5c-0.3-0.3,0,0.6-0.4,0.5
							c0.3,0.2,0.1,0.8,0.3,1.2c0,0-0.1-0.1-0.1-0.1c0,0.2-0.1,0.3-0.1,0.5c0.2,0,0.3,0.3,0.5,0.5c-0.2,0.3-0.3-0.1-0.5,0
							c0.2,0,0.3,0.4,0.4,0.3c-0.1,0.2,0,0.2-0.2,0.3c0.3,0,0.1,0.2,0.3,0.3c0,0.3-0.2,0.2,0,0.5C51.6,80.2,51.4,79.9,51.4,79.9z
							 M58.3,83.5L58.3,83.5c-0.1,0-0.1,0-0.2,0C58.1,83.5,58.2,83.5,58.3,83.5z M58.9,83.3c-0.1,0-0.2,0-0.3,0.1c0,0,0-0.1,0-0.1
							C58.7,83.3,58.8,83.3,58.9,83.3z M57.4,82.4c0.1,0,0.1,0,0.1,0C57.5,82.5,57.5,82.5,57.4,82.4L57.4,82.4
							C57.4,82.5,57.4,82.5,57.4,82.4z"/>
						<path fill="#202020" d="M57.3,82.7C57.3,82.7,57.3,82.7,57.3,82.7C57.3,82.7,57.3,82.7,57.3,82.7L57.3,82.7L57.3,82.7z"/>
						<path fill="#202020" d="M95.7,77.1L95.7,77.1C95.6,77.1,95.7,77.2,95.7,77.1C95.7,77.2,95.7,77.2,95.7,77.1z"/>
						<polygon fill="#202020" points="65,76.8 64.9,76.8 65,76.9 						"/>
						<path fill="#202020" d="M99.1,78.1C99.1,78.1,99.1,78.1,99.1,78.1C99.1,78.1,99.1,78.1,99.1,78.1z"/>
						<path fill="#202020" d="M100.5,77.1c0,0,0.1-0.3,0.1-0.3C100.6,77,100.6,77.1,100.5,77.1z"/>
						<path fill="#202020" d="M100.6,75.9C100.6,75.9,100.6,75.9,100.6,75.9L100.6,75.9L100.6,75.9z"/>
						<path fill="#202020" d="M90.1,84.1C90.1,84.1,90,84.1,90.1,84.1C90,84.2,90,84.1,90.1,84.1z"/>
						<path fill="#202020" d="M91.8,78.7c0,0.1,0.1,0.1,0.1,0.2C91.8,78.7,91.8,78.7,91.8,78.7z"/>
						<polygon fill="#202020" points="84.8,87.6 84.8,87.6 84.8,87.6 						"/>
						<path fill="#202020" d="M91.9,79.1c0-0.1,0-0.2,0-0.3C91.8,78.9,91.8,79,91.9,79.1z"/>
						<path fill="#202020" d="M99.3,70.9L99.3,70.9C99.3,70.8,99.3,70.8,99.3,70.9L99.3,70.9z"/>
						<path fill="#202020" d="M99.3,70.8L99.3,70.8C99.3,70.8,99.3,70.8,99.3,70.8z"/>
						<path fill="#202020" d="M99.2,70.7l0.1,0.1C99.2,70.7,99.2,70.7,99.2,70.7z"/>
						<path fill="#202020" d="M99.9,72.4L99.9,72.4C99.9,72.4,99.9,72.4,99.9,72.4z"/>
						<path fill="#202020" d="M100.1,72.8c0-0.1,0-0.3-0.1-0.5l0,0C100.1,72.4,99.9,72.7,100.1,72.8z"/>
						<path fill="#202020" d="M99.8,74.9l0-0.4c-0.1,0.1-0.1,0.2-0.2,0C99.5,75,99.7,74.4,99.8,74.9z"/>
						<path fill="#202020" d="M99.8,76.1c0-0.2-0.1,0-0.1,0C99.8,76.2,99.8,76.2,99.8,76.1z"/>
						<path fill="#202020" d="M93,76.7l0-0.1C92.8,76.6,93,76.7,93,76.7z"/>
						<polygon fill="#202020" points="91.7,77.4 91.9,77.5 91.8,77.3 						"/>
						<polygon fill="#202020" points="90,76.8 89.9,76.7 90.3,77.2 						"/>
						<path fill="#202020" d="M82.8,86.8l0.1,0.2C82.9,86.9,82.9,86.7,82.8,86.8z"/>
						<path fill="#202020" d="M77.5,85.3c0-0.1,0-0.3-0.2-0.3C77.4,85.1,77.4,85.3,77.5,85.3z"/>
						<polygon fill="#202020" points="64.4,74.7 64.4,74.5 64.3,74.8 						"/>
					</g>
				</g>
			</g>
		</g>
	</g>
	<g>
		<g>
			<g>
				<g>
					<g>
						<path fill="#202020" d="M79.6,60.8c0-0.1-0.1-0.1-0.1-0.1L79.6,60.8L79.6,60.8z"/>
						<path fill="#202020" d="M79.1,60.6c0,0.1,0,0.3,0.2,0.4C79.2,60.9,79.3,60.9,79.1,60.6c0.1,0,0.2,0.1,0.2,0.1c0,0,0.1,0,0-0.1
							c-0.1-0.1-0.2-0.1-0.2,0.1C79.2,60.7,79.1,60.7,79.1,60.6z"/>
						<path fill="#202020" d="M75.2,62.3L75.2,62.3C75.2,62.3,75.2,62.3,75.2,62.3z"/>
						<path fill="#202020" d="M72.7,62.3C72.7,62.3,72.7,62.3,72.7,62.3C72.7,62.3,72.7,62.3,72.7,62.3z"/>
						<path fill="#202020" d="M72.3,62L72.3,62C72.4,62,72.4,62,72.3,62z"/>
						<path fill="#202020" d="M75.2,62.3L75.2,62.3C75.1,62.3,75.1,62.3,75.2,62.3z"/>
						<path fill="#202020" d="M78.9,61.4C78.9,61.3,78.9,61.3,78.9,61.4L78.9,61.4L78.9,61.4z"/>
						<path fill="#202020" d="M76.2,61.8L76.2,61.8C76.2,61.7,76.2,61.7,76.2,61.8L76.2,61.8z"/>
						<path fill="#202020" d="M77,61.4c0,0,0,0.2,0.1,0.2C77,61.5,77,61.5,77,61.4C77,61.4,77,61.4,77,61.4z"/>
						<path fill="#202020" d="M78.3,60.9L78.3,60.9L78.3,60.9z"/>
						<path fill="#202020" d="M75.6,62C75.6,61.9,75.6,61.9,75.6,62C75.6,61.9,75.6,61.9,75.6,62z"/>
						<path fill="#202020" d="M53.9,56.8C53.9,56.8,53.9,56.8,53.9,56.8C53.9,56.8,53.9,56.8,53.9,56.8z"/>
						<polygon fill="#202020" points="55,55.9 55,55.9 55.1,56 						"/>
						<path fill="#202020" d="M71.8,61.6L71.8,61.6C71.8,61.6,71.8,61.6,71.8,61.6z"/>
						<path fill="#202020" d="M65.6,56.9c0.1,0.2-0.2,0.1-0.1,0.3C65.5,57.2,65.7,57,65.6,56.9z"/>
						<path fill="#202020" d="M78.8,61.4C78.8,61.4,78.8,61.4,78.8,61.4C78.8,61.4,78.8,61.4,78.8,61.4z"/>
						<polygon fill="#202020" points="65.5,57.2 65.5,57.2 65.5,57.2 						"/>
						<path fill="#202020" d="M70.4,60.6C70.4,60.6,70.3,60.6,70.4,60.6C70.3,60.6,70.4,60.6,70.4,60.6z"/>
						<path fill="#202020" d="M71.2,61.6L71.2,61.6C71.2,61.6,71.2,61.6,71.2,61.6z"/>
						<path fill="#202020" d="M69.7,60.2C69.7,60.2,69.7,60.2,69.7,60.2L69.7,60.2C69.7,60.2,69.7,60.2,69.7,60.2z"/>
						<polygon fill="#202020" points="69.2,59.7 69.2,59.7 69.2,59.7 						"/>
						<path fill="#202020" d="M55,59.5c0,0,0-0.1,0.1-0.1C55,59.4,54.9,59.4,55,59.5z"/>
						<path fill="#202020" d="M78.8,61.3C78.8,61.3,78.8,61.3,78.8,61.3L78.8,61.3C78.8,61.3,78.8,61.3,78.8,61.3z"/>
						<path fill="#202020" d="M68.7,61.1L68.7,61C68.7,61,68.7,61,68.7,61.1z"/>
						<path fill="#202020" d="M61,60L61,60C61,60,61,60,61,60z"/>
						<path fill="#202020" d="M68.4,60.7c0-0.1,0-0.1,0-0.1c0,0,0,0,0,0L68.4,60.7z"/>
						<path fill="#202020" d="M55.1,59.3L55.1,59.3L55.1,59.3z"/>
						<path fill="#202020" d="M54.1,58.8c0.1,0.1,0.2,0,0.3-0.1c0.1,0.1-0.1,0.2-0.2,0.3c0.1,0.1,0.3,0,0.4,0.1c0,0,0,0-0.1,0.1
							c0.2,0,0.2,0.3,0.5,0.2c0,0,0,0,0,0.1c0.1-0.1,0.1-0.2,0.2-0.2c0,0,0.2,0,0.1,0.1c0,0-0.1,0-0.1,0l0.1,0
							c-0.1,0.2-0.1,0-0.2,0.1c0.1,0,0.3,0,0.4,0.1c-0.1,0.2-0.2-0.1-0.2,0.1l-0.1-0.2c-0.1,0.3-0.1-0.1-0.2,0.2
							c0.1,0.2,0.2,0.1,0.4,0.2c0.1-0.1,0.1-0.1,0.2-0.2c0.3,0-0.1,0.5,0.3,0.4c0.1-0.1,0.2-0.3,0.3-0.1L56,60.1
							c0.2,0.1,0.2-0.2,0.3,0c-0.1,0.1-0.2,0-0.1,0c0.1,0.2,0.1-0.1,0.2-0.1l0,0.2c0.2,0,0.5,0,0.7,0c0,0.1-0.1,0.1,0,0.2
							c0.3,0,0.6,0.1,0.8,0.2l0.1-0.2c0,0,0,0.1,0,0.1c0.1,0.1,0-0.1,0.1-0.2c0.1,0,0.1,0.1,0,0.1c0.2-0.1,0.5-0.3,0.7-0.1l0,0.1
							c0.2,0.1,0.1-0.4,0.3-0.2l0,0c0.3,0,0.6-0.2,0.9,0c0-0.2,0.3,0,0.3-0.3c0.2,0.1,0.2,0.2,0.5,0.2c0.1,0,0-0.2,0.1-0.3l0.1,0.2
							l0-0.2l0.1,0.2L61,60c0,0-0.1-0.1-0.1-0.1c0.1-0.1,0.3,0,0.4,0.1l0.2-0.3c0,0.1,0,0.1,0,0.2c0.1-0.2,0.1,0.2,0.2-0.1
							c0,0,0-0.1,0-0.1c0.1,0.1,0.3,0,0.3-0.1l0,0.1c0.2-0.1,0.4-0.3,0.6-0.4c-0.1,0-0.2-0.2-0.2-0.2l0.1,0.1c0-0.1-0.1,0-0.1-0.2
							c0.1,0,0.2,0.1,0.2,0.2l0.1-0.1c0,0,0,0.1,0.1,0.1c0-0.1,0.3,0,0.2-0.2l0,0c0.2-0.1,0.2-0.3,0.4-0.4c-0.1-0.1,0-0.1-0.1-0.3
							c0.1,0,0.3,0,0.4-0.1c0-0.1-0.1-0.1-0.1-0.2c0.1,0.1,0.2,0,0.2,0.2c0.1-0.1,0.1-0.1,0.3-0.3c0,0-0.1-0.1-0.1-0.1
							c0,0,0.1,0,0.1,0.1l0,0c0.2-0.3,0.5,0.3,0.6,0l0,0c0,0,0.2-0.2,0.2-0.2c0.1,0-0.1,0.1,0,0.2c0.2-0.2,0.3,0.1,0.5-0.1
							c0,0.4,0.4,0.1,0.5,0.4l0-0.1c0.1-0.1,0,0.1,0,0.1c0-0.1,0-0.1,0-0.1c0.4,0.1,0.6,0.5,0.9,0.8c0.1,0.1,0.4-0.4,0.4,0L67,59.3
							c0.4,0,0.4,0.4,0.8,0.5c0,0-0.1,0.1-0.1,0C67.7,60,67.9,60.1,68,60c0,0-0.1,0.1-0.1,0.1c0,0.1,0.2,0,0.2,0.1c0,0,0,0-0.1,0
							c0.1,0,0.1,0.2,0.2,0c0,0.1,0.2,0.1,0.2,0.3c0.2-0.1,0.1,0.2,0.3,0.1c-0.2,0.2,0,0.3,0.1,0.3c-0.1,0,0,0.1-0.1,0.2
							c0.1,0.1,0.2,0.1,0.2,0c-0.1,0.3,0.4,0.1,0.2,0.4c0.3,0.1,0.6,0.2,0.8,0.3c-0.2,0.2-0.2-0.2-0.4,0c0.3,0.1,0.5,0,0.7,0.2
							c0,0.1-0.1,0.1-0.1,0.1c0.3,0.1,0.4,0.3,0.6,0.3c0,0,0,0-0.1,0c0,0,0.1,0.1,0.1,0l-0.1,0c0-0.2,0.3-0.2,0.4-0.3
							c-0.2,0.3,0.1,0.2-0.2,0.5c0,0,0.1,0,0.1-0.1c0,0,0,0.1-0.1,0.1c0.2,0,0.2-0.1,0.3,0c0,0.1-0.1,0.1-0.1,0.1
							c0.1-0.1,0.2-0.1,0.3,0c0,0,0,0.1-0.1,0.1c0.2,0.1,0.4-0.1,0.6,0c-0.1,0.2,0,0.1,0,0.3l0.1,0l0-0.1c0.1,0,0.2-0.1,0.3,0
							l-0.1,0.1l0.2,0L72.5,63c0.1-0.1,0-0.3,0.2-0.2c0,0,0.1,0,0.1,0.2l0,0c0.1-0.1,0.1-0.1,0.2-0.1c0,0.1,0,0.2,0,0.3
							c0.1-0.2,0.3,0,0.3-0.2c0,0,0,0.2,0,0.2l0.1-0.1c0,0,0.1,0.1,0,0.2c0.1,0,0-0.3,0.1-0.2c0,0,0,0,0,0.1c0.2,0.1,0.3-0.1,0.5,0
							c0.1,0.2-0.1,0.1-0.1,0.2c0.2-0.1,0.5-0.3,0.7-0.3l0,0c0-0.3,0.2,0.1,0.3,0c0,0,0,0.2,0,0.1c0.2,0,0.3-0.1,0.5-0.3l0,0.1
							c0.1,0,0.2,0,0.3,0c0-0.1,0.1-0.1,0-0.2c0.4,0.3,0.4-0.4,0.8-0.2c0,0,0,0.1,0,0.1l0.2-0.2c-0.1-0.1-0.1-0.1-0.1-0.1
							c0-0.1,0-0.2,0.1-0.2c-0.1,0.1,0.1,0.2,0.2,0.2c0,0,0-0.1,0-0.1c0.2,0.2-0.1-0.3,0.1-0.2l0,0.1c0-0.1,0-0.2,0.1-0.2
							c0.1,0.1,0,0.1,0,0.2c0.1,0,0-0.3,0.2-0.2c0,0.1-0.1,0.1-0.1,0.1c0.2,0.1,0.1,0.1,0.2,0.1l0,0l0.2,0l-0.1,0
							c-0.1-0.4,0.2-0.2,0.2-0.5c0,0.3,0,0.1,0.1,0.3c0.1,0,0.1,0,0.1,0.1c0-0.2,0.2,0,0.1-0.2c0,0,0.1,0,0.1,0.1
							c0.1-0.1-0.1-0.1-0.1-0.1c0-0.2,0.4,0,0.4-0.3c0.1-0.2,0-0.4,0.1-0.5c0.1,0,0.1,0.2,0.1,0.2c0.1,0,0.2,0,0.2-0.1
							c0,0.1,0,0.1,0.1,0.1c0,0-0.1-0.2,0-0.2c0,0.1,0.1,0.2,0.1,0.2c0-0.1,0-0.2,0.1-0.3c0.1,0.1,0,0.2,0,0.2
							c0.1-0.1,0.1-0.2,0.1-0.3l-0.1,0c0,0,0.1,0.1,0.1,0.1c0,0.1-0.1,0-0.2,0l0-0.1c-0.2-0.2-0.2,0.2-0.3,0.2l-0.1-0.2l0,0.2
							c-0.1,0-0.1-0.1-0.1-0.2c-0.1-0.1,0,0.1-0.1,0c0,0,0,0,0,0l0,0.1c0-0.1-0.1-0.1,0-0.1c-0.2,0-0.1,0.3-0.2,0.1l0,0
							c-0.1,0.2,0.1,0.2,0.1,0.4l-0.3-0.3l0.1,0.2c0,0-0.1,0-0.1-0.1c0,0.1,0,0.1,0.1,0.2c-0.2-0.1-0.2,0.2-0.4,0
							c0,0.1,0.1,0,0.1,0.2c-0.2-0.3-0.1,0.1-0.2,0c0-0.1,0.1-0.1-0.1-0.2c0.1,0.3-0.2,0-0.2,0.1c0.1,0.2-0.1,0.2-0.2,0.3
							c0-0.1-0.3,0-0.4,0l0,0c0.1,0.2-0.1,0.2-0.1,0.3c0-0.1-0.1-0.2,0-0.2l-0.1,0c0,0.1,0,0.1,0,0.2l0-0.2C76,61.8,76,62,75.8,62
							c0,0.1,0.3,0.3,0.1,0.5c0-0.1-0.1-0.2-0.1-0.2c0,0,0,0.1-0.1,0.1l0-0.1c-0.1,0,0,0.1,0,0.1c0-0.1-0.1-0.1-0.1-0.2
							c0,0,0.1,0,0.1,0c-0.1,0-0.1,0-0.2-0.1c0,0.1,0.1,0.1,0,0.2c-0.1,0-0.1-0.1-0.2-0.2c0,0.1-0.1,0,0,0.2c0,0-0.1-0.1-0.1-0.1
							c0,0.1-0.2,0.1-0.1,0.3l0,0c0,0,0,0,0,0l0,0l0,0c-0.1,0.2-0.4,0-0.5,0.1l0-0.1c-0.1,0.1-0.2,0.1-0.3,0.2c0,0-0.1-0.1-0.1-0.2
							c-0.1,0.1-0.1,0.1-0.2,0c0.1-0.1,0-0.1,0.1-0.1c-0.1,0-0.1-0.1-0.2,0c0-0.1-0.1-0.2-0.1-0.1l0.1,0.1c-0.1,0-0.1,0-0.2,0l0-0.2
							c-0.2-0.2-0.4,0.4-0.5,0c-0.1,0.1,0.1,0.1,0,0.3c-0.1,0-0.2-0.3-0.2-0.3c-0.1-0.1-0.2,0.3-0.3,0.2c0,0.1,0,0.3-0.1,0.3
							c-0.1,0-0.1-0.3,0-0.3c0,0,0,0,0,0c0,0,0.1,0,0.1-0.1l0,0.1c0-0.1-0.2-0.1-0.1-0.2c-0.1,0-0.1,0.1,0,0.1
							c-0.1-0.1-0.2,0-0.3-0.1c0,0,0,0.1,0,0.1c-0.1-0.1-0.1,0.1-0.2,0.1c0-0.1,0.1-0.2,0-0.2c0-0.1,0.1-0.2,0.1-0.2
							C72,62,72,61.7,72,61.7l0.1,0c0,0-0.1,0-0.1,0l0,0.1c0,0,0,0,0-0.1c-0.1,0.1-0.1,0.2-0.2,0.3c0-0.1-0.2,0-0.1-0.2
							c0.1,0.1,0.1-0.2,0.2-0.1c0,0-0.1,0-0.1,0c0,0,0,0,0,0c0-0.2-0.2,0.2-0.3,0.1c0.1-0.1,0.1-0.2,0-0.2c0,0-0.1,0.2-0.2,0.2
							c0-0.1-0.1,0-0.2,0l0,0.1c-0.1,0.1-0.1,0-0.2,0c0-0.1,0.1,0,0.1-0.1c-0.2,0.1,0-0.2-0.2-0.2c0-0.1,0.1-0.2,0.1-0.2
							c-0.2,0,0-0.2-0.2-0.2c-0.1,0.1,0,0.1-0.2,0.2l0.2,0.1l-0.2,0.1c0,0,0.2,0,0.2,0.1c-0.1,0-0.1,0-0.1,0.1
							c0.1-0.2-0.2,0-0.2-0.2l0.2-0.3c0-0.2-0.3,0-0.4-0.2l0,0.1c-0.1,0.1-0.1-0.1-0.2-0.1c0.1-0.1,0.1-0.1,0.1-0.2
							c-0.1,0.1-0.1-0.1-0.3,0l0-0.2c-0.1-0.2-0.4,0.1-0.4,0c0.1-0.1,0.1-0.2,0.3-0.1c0,0,0-0.1-0.1,0c0-0.1-0.2,0-0.2-0.1
							c-0.1,0-0.1,0.1-0.2,0c0,0,0,0,0,0c0,0-0.1,0-0.2,0.1c0.2-0.4-0.3-0.3-0.2-0.6c-0.1-0.1-0.2-0.1-0.3-0.2c0,0,0,0,0,0
							c0-0.2-0.3,0.2-0.3,0c0.1-0.2,0.1,0,0.1-0.1c0.3-0.3-0.2-0.1-0.1-0.3l0,0c0-0.2-0.2-0.1-0.3-0.2c0,0,0,0,0,0
							c-0.2,0.1-0.4,0-0.5-0.1c0.1-0.1,0.1,0,0.2-0.1c-0.1,0-0.1,0.2-0.3,0.1c0-0.1,0-0.2,0.1-0.3l0.1,0.1c0.1-0.2-0.1-0.1-0.1-0.2
							l0.1-0.1c-0.2-0.1-0.3,0.1-0.4,0l0,0.1c-0.2,0.1,0-0.2-0.2-0.1l0.1-0.2c-0.1,0-0.3,0-0.4,0c0.1-0.1,0.3-0.1,0.5-0.1
							c-0.1,0-0.2-0.1-0.3,0c0,0,0.1,0,0.1,0c-0.2,0.1-0.3,0.1-0.4,0.1c0.2-0.4-0.3-0.3-0.2-0.6c-0.3,0-0.4-0.3-0.8-0.3
							c0,0.4-0.1,0-0.2,0.3c-0.1,0-0.1,0-0.1,0c0,0-0.2-0.2-0.2-0.2c0-0.1,0.1-0.1,0.1-0.1c-0.2-0.1,0-0.2-0.1-0.3
							c0,0.1-0.1,0.2-0.2,0.1l0.1,0.2c-0.2,0.2-0.2-0.3-0.4-0.2l0.1-0.1c-0.1,0.1-0.5,0-0.6,0.3c0,0-0.1-0.1,0-0.2
							c-0.3,0-0.6,0.4-0.8,0.3l0-0.1c0,0,0,0.2-0.1,0.1c0,0,0-0.1,0-0.1c0,0-0.1,0.2-0.2,0.2l0-0.1c-0.3,0-0.2,0.4-0.4,0.6
							c-0.1-0.2-0.4-0.2-0.5-0.1l0,0c-0.2,0.1-0.2,0.4-0.4,0.7c-0.3-0.1-0.5,0.2-0.7,0.1c0.1,0,0.1,0.2,0.1,0.2
							c-0.1,0-0.1,0.2-0.1,0l0,0c-0.1-0.2-0.2-0.1-0.3-0.1l0.1,0.3c-0.4-0.3-0.5,0.4-0.7,0c0,0.1-0.1,0.1-0.1,0.2l0-0.2
							c-0.2,0-0.2,0-0.4,0.1l0-0.1c-0.1,0,0,0.5-0.1,0.5l-0.1-0.2c-0.2,0-0.4-0.1-0.5,0.1c0,0,0-0.1,0-0.1c-0.1,0-0.3-0.1-0.3,0.2
							c0-0.2-0.2,0-0.3,0.1l0-0.2c-0.1,0.2-0.1,0.3-0.2,0.3c0,0,0-0.1,0-0.1c-0.1-0.1-0.1,0.2-0.2,0.1l0-0.1c-0.1,0-0.1,0-0.1,0.2
							c-0.1,0.1-0.2-0.1-0.2-0.2c0,0.1-0.1,0.2-0.1,0.2c0-0.1,0-0.1,0-0.1c-0.1-0.1-0.3,0.2-0.3,0c0-0.1,0-0.1,0-0.1
							c0.1,0,0.2,0,0.2,0.1c0-0.1-0.1-0.2,0-0.4c-0.1,0.1-0.3,0.3-0.3,0.2c0,0,0,0,0-0.1l0,0c0,0,0,0-0.1,0c0,0,0-0.1-0.1-0.1
							C57.2,59,57,59,57,59c0,0.2-0.1,0.1-0.1,0.3c0,0,0,0,0,0c0,0,0,0,0,0l0,0c0,0,0.1,0,0.1,0c-0.1,0.1-0.1,0.1-0.1,0
							c-0.1,0.1-0.1,0.2-0.1,0.2c0-0.2-0.1-0.4,0-0.5c-0.2,0-0.3-0.1-0.5,0.2c-0.1,0,0-0.1,0-0.1c0,0,0.1,0,0.1,0
							c-0.1,0-0.2-0.1-0.4,0.1c0-0.1,0.2-0.1,0-0.2l0.1,0c0-0.2-0.2-0.2-0.3-0.2c-0.2,0-0.3,0-0.3-0.3c0,0,0,0,0,0.1
							c0-0.4-0.6-0.6-0.3-1c0-0.1-0.1-0.1-0.2-0.1l0.2,0l-0.2-0.1c-0.2-0.2,0.4-0.2,0.2-0.4l-0.1,0c0-0.1,0-0.2,0.1-0.2
							c0,0-0.1-0.1,0-0.1l0.1,0c0,0-0.1-0.2-0.1-0.2c0.1-0.1,0.3,0.2,0.4,0c0-0.1-0.1-0.3-0.2-0.3c0,0-0.1,0-0.2,0l0-0.1
							c-0.2-0.2-0.4-0.4-0.7-0.3c0,0,0,0.2,0.1,0.2l-0.1,0l0.1-0.1c-0.1,0-0.1,0.1,0,0.2c-0.1,0-0.1,0-0.2,0c0,0,0.2,0.3,0.2,0.3
							c-0.1,0-0.2-0.1-0.3-0.1c0.1,0.1,0.2,0,0.3,0.2c-0.1,0-0.2,0-0.2,0.1c-0.1,0-0.1,0-0.1-0.1c0.1,0.1,0,0.2,0.1,0.3
							c-0.2,0.1,0,0.3-0.2,0.2c0.1,0,0.2,0.2,0.2,0.2c-0.3-0.1,0,0.3-0.3,0.3c0.3,0.1,0.2,0.4,0.3,0.5c0,0-0.1,0-0.1,0
							c0,0.1-0.1,0.1-0.1,0.2c0.2,0,0.3,0.1,0.5,0.1c-0.2,0.2-0.3,0-0.5,0.1c0.2-0.1,0.2,0.1,0.4,0c-0.1,0.1,0,0.1-0.2,0.2
							c0.3-0.1,0.1,0.1,0.3,0c-0.1,0.2-0.2,0.2-0.1,0.2C54.3,58.8,54.1,58.8,54.1,58.8z M57.1,60.2L57.1,60.2
							C57,60.2,57,60.2,57.1,60.2C57,60.2,57,60.2,57.1,60.2z M57.3,60.3c0,0-0.1,0-0.1,0c0-0.1,0-0.1,0-0.1
							C57.2,60.2,57.3,60.2,57.3,60.3z M57.1,59.1C57.1,59,57.1,59.1,57.1,59.1C57.1,59.1,57.1,59.1,57.1,59.1L57.1,59.1
							C57.1,59.1,57.1,59.1,57.1,59.1z"/>
						<path fill="#202020" d="M57,59.2C57,59.2,57,59.3,57,59.2C57,59.3,57,59.3,57,59.2L57,59.2L57,59.2z"/>
						<path fill="#202020" d="M75.2,62.3L75.2,62.3C75.2,62.3,75.2,62.3,75.2,62.3L75.2,62.3z"/>
						<polygon fill="#202020" points="60.8,60.2 60.8,60.2 60.7,60.2 						"/>
						<path fill="#202020" d="M76.6,62.4C76.6,62.4,76.6,62.4,76.6,62.4C76.6,62.4,76.6,62.4,76.6,62.4z"/>
						<path fill="#202020" d="M77.1,62.2L77.1,62.2C77.2,62.2,77.1,62.2,77.1,62.2z"/>
						<path fill="#202020" d="M77.5,62.1C77.5,62,77.5,62,77.5,62.1L77.5,62.1L77.5,62.1z"/>
						<path fill="#202020" d="M70.7,62.5C70.6,62.5,70.6,62.5,70.7,62.5C70.6,62.5,70.6,62.5,70.7,62.5z"/>
						<path fill="#202020" d="M72.8,63C72.8,63,72.7,63.1,72.8,63C72.8,63.1,72.8,63.1,72.8,63z"/>
						<polygon fill="#202020" points="68.8,61.1 68.8,61.1 68.7,61.1 						"/>
						<path fill="#202020" d="M72.6,63C72.7,63.1,72.7,63.1,72.6,63C72.7,63,72.7,63,72.6,63z"/>
						<path fill="#202020" d="M79.2,61.2L79.2,61.2C79.2,61.2,79.2,61.1,79.2,61.2L79.2,61.2z"/>
						<path fill="#202020" d="M79.2,61.1L79.2,61.1C79.2,61.1,79.2,61.1,79.2,61.1z"/>
						<path fill="#202020" d="M79.2,61L79.2,61C79.2,61.1,79.2,61.1,79.2,61z"/>
						<path fill="#202020" d="M78.7,61.4L78.7,61.4C78.7,61.4,78.7,61.4,78.7,61.4z"/>
						<path fill="#202020" d="M78.5,61.5c0,0,0.2,0.1,0.2,0l0,0C78.7,61.5,78.5,61.4,78.5,61.5z"/>
						<path fill="#202020" d="M77.6,61.2l0.1,0c-0.1,0-0.1-0.1-0.1-0.1C77.4,61,77.7,61.2,77.6,61.2z"/>
						<path fill="#202020" d="M77.1,61.4c0.1-0.1,0-0.1-0.1-0.1C77.1,61.3,77.1,61.3,77.1,61.4z"/>
						<path fill="#202020" d="M74.3,62.4l0-0.1C74.2,62.3,74.3,62.3,74.3,62.4z"/>
						<polygon fill="#202020" points="73.7,63.2 73.8,63.3 73.8,63.2 						"/>
						<polygon fill="#202020" points="73.4,62.1 73.4,62.1 73.3,62.2 						"/>
						<path fill="#202020" d="M69.4,59.7l-0.1,0.1C69.3,59.8,69.5,59.7,69.4,59.7z"/>
						<path fill="#202020" d="M67.5,58.1c0-0.1,0-0.2-0.1-0.1C67.5,58,67.5,58.1,67.5,58.1z"/>
						<polygon fill="#202020" points="60.8,58.6 60.8,58.5 60.8,58.6 						"/>
					</g>
				</g>
			</g>
		</g>
	</g>
</g>
</svg>
