<?xml version="1.0" encoding="utf-8"?>
<!-- Generator: Adobe Illustrator 18.0.0, SVG Export Plug-In . SVG Version: 6.00 Build 0)  -->
<!DOCTYPE svg PUBLIC "-//W3C//DTD SVG 1.1//EN" "http://www.w3.org/Graphics/SVG/1.1/DTD/svg11.dtd">
<svg version="1.1" id="Layer_1" xmlns="http://www.w3.org/2000/svg" xmlns:xlink="http://www.w3.org/1999/xlink" x="0px" y="0px"
	 viewBox="0 0 72 72" enable-background="new 0 0 72 72" xml:space="preserve">
<pattern  y="72" width="18" height="18.1" patternUnits="userSpaceOnUse" id="New_Pattern_Swatch_1" viewBox="0 -18.1 18 18.1" overflow="visible">
	<g>
		<polygon fill="none" points="0,0 18,0 18,-18.1 0,-18.1 		"/>
		<g>
			<g>
				<g>
					<g>
						<g>
							<g>
								<g>
									<path fill="#202020" d="M4.1-7.3C4-7.3,4-7.3,4.1-7.3L4.1-7.3C4.1-7.3,4.1-7.3,4.1-7.3z"/>
									<path fill="#202020" d="M3.9-7.2c0,0,0.1,0,0.1,0C4-7.2,4-7.2,3.9-7.2C3.9-7.3,4-7.3,3.9-7.2C4-7.3,4-7.3,3.9-7.2
										C4-7.2,3.9-7.3,3.9-7.2C4-7.2,3.9-7.2,3.9-7.2z"/>
									<path fill="#202020" d="M6.5-6.8L6.5-6.8C6.4-6.8,6.5-6.8,6.5-6.8z"/>
									<path fill="#202020" d="M7.1-8.3C7.1-8.3,7.1-8.3,7.1-8.3C7.1-8.3,7.1-8.3,7.1-8.3z"/>
									<path fill="#202020" d="M7.3-8.5L7.3-8.5C7.3-8.5,7.3-8.5,7.3-8.5z"/>
									<path fill="#202020" d="M6.5-6.8L6.5-6.8C6.5-6.8,6.5-6.8,6.5-6.8z"/>
									<path fill="#202020" d="M4.3-7.2C4.3-7.1,4.3-7.1,4.3-7.2L4.3-7.2L4.3-7.2z"/>
									<path fill="#202020" d="M5.8-6.6L5.8-6.6C5.8-6.6,5.8-6.6,5.8-6.6L5.8-6.6z"/>
									<path fill="#202020" d="M5.3-6.8C5.3-6.8,5.3-6.8,5.3-6.8C5.3-6.8,5.3-6.8,5.3-6.8C5.3-6.8,5.3-6.8,5.3-6.8z"/>
									<path fill="#202020" d="M4.4-7L4.4-7L4.4-7z"/>
									<path fill="#202020" d="M6.2-6.5L6.2-6.5L6.2-6.5z"/>
									<path fill="#202020" d="M4.3-7.8L4.3-7.8L4.3-7.8z"/>
									<polygon fill="#202020" points="4,-7.2 4,-7.2 4,-7.2 									"/>
									<path fill="#202020" d="M7.8-8.8L7.8-8.8C7.7-8.8,7.8-8.8,7.8-8.8z"/>
									<path fill="#202020" d="M9.8-12.3C9.8-12.2,9.7-12.3,9.8-12.3C9.8-12.2,9.9-12.2,9.8-12.3z"/>
									<path fill="#202020" d="M4.3-7.1L4.3-7.1C4.3-7.1,4.3-7.1,4.3-7.1z"/>
									<polygon fill="#202020" points="9.8,-12.2 9.8,-12.2 9.8,-12.2 									"/>
									<path fill="#202020" d="M8.9-9.4C8.9-9.4,8.9-9.4,8.9-9.4C8.8-9.4,8.8-9.4,8.9-9.4z"/>
									<path fill="#202020" d="M8-8.9L8-8.9C8-8.9,8-8.9,8-8.9z"/>
									<path fill="#202020" d="M9.2-9.8C9.2-9.8,9.2-9.8,9.2-9.8L9.2-9.8C9.2-9.8,9.2-9.8,9.2-9.8z"/>
									<polygon fill="#202020" points="9.4,-10.2 9.4,-10.2 9.4,-10.2 									"/>
									<path fill="#202020" d="M5-9.1C5-9.1,5-9.1,5-9.1C5-9.1,5-9,5-9.1z"/>
									<path fill="#202020" d="M4.3-7.1C4.3-7.1,4.3-7.1,4.3-7.1C4.3-7.1,4.3-7.1,4.3-7.1L4.3-7.1z"/>
									<path fill="#202020" d="M9-9.9L9-9.9C9.1-9.9,9.1-9.9,9-9.9z"/>
									<path fill="#202020" d="M7.8-10.8L7.8-10.8C7.8-10.8,7.8-10.8,7.8-10.8z"/>
									<path fill="#202020" d="M9.2-10.1C9.2-10.1,9.2-10.1,9.2-10.1L9.2-10.1L9.2-10.1z"/>
									<path fill="#202020" d="M5-9.1L5-9.1L5-9.1z"/>
									<path fill="#202020" d="M4.7-8.7C4.7-8.6,4.7-8.7,4.7-8.7C4.7-8.6,4.6-8.6,4.6-8.5c0,0,0,0-0.1,0c0,0,0,0.1,0,0.1
										c0,0,0-0.1,0,0c0,0,0,0.1,0,0.1c0,0,0,0-0.1,0.1c0,0,0,0,0,0c0,0.1-0.1,0.2-0.1,0.2c0,0-0.1,0.2-0.1,0.1c0,0,0,0.1,0,0.1
										c0,0,0,0.1-0.1,0.1c0,0,0,0.1,0,0.1c0,0,0,0,0,0c0,0,0,0,0,0.1c0,0.1,0,0,0,0c0,0,0,0,0,0l0,0.1c0,0,0,0,0,0
										c0,0,0,0.1,0,0.1l0-0.1l0,0l0,0.1c0,0.1-0.1,0.1-0.1,0.1l0,0c0,0,0,0,0,0c0,0,0-0.1,0-0.1c0-0.1,0,0,0.1-0.1l0-0.1l0,0
										c0,0,0,0,0,0c0,0,0-0.1,0.1-0.1l0,0c0-0.1,0.1-0.2,0.1-0.3l0-0.1l0,0c0,0,0-0.1,0-0.1c0.1-0.2,0.3-0.5,0.4-0.7c0,0,0,0,0,0
										c0.2-0.1,0.2-0.3,0.4-0.4l0,0c0.1-0.1,0,0,0.1,0c0,0,0.1-0.1,0.1-0.1c0,0,0,0,0,0c0,0,0,0,0,0c0-0.1,0.2-0.2,0.2-0.2
										c0,0,0.1,0,0.2,0c0,0,0,0,0-0.1c0,0,0.1,0,0.1,0c0,0-0.1,0-0.1,0l0,0c0,0,0,0,0,0c0,0,0,0,0,0c0,0,0,0,0,0
										c0,0,0.1-0.1,0.1,0c0,0,0,0,0.1,0c0,0,0,0,0,0l0,0c0,0,0,0,0,0C6-9.9,6.1-9.9,6.1-10c0,0,0,0,0,0c0,0-0.1,0-0.1,0
										c0,0,0,0,0,0c0.1,0,0.1-0.1,0.2-0.1c0,0,0,0,0,0c0,0,0.1,0,0.1,0c0,0,0.1,0,0.1,0c0,0,0,0,0.1,0l0,0c0.1,0,0.1,0,0.1,0
										c0,0,0,0,0,0c0.1,0,0.1,0,0.1-0.1l0,0c0.1,0,0.2-0.1,0.2,0c0,0,0.2,0,0.2,0c0,0,0,0,0,0c0.1,0,0.2,0,0.2,0c0,0,0,0,0-0.1
										l0,0c0-0.1,0-0.1,0-0.2l0,0c0-0.1,0.1-0.2,0.1-0.3l0,0c0-0.1,0-0.1,0-0.1c0.1-0.1,0.1-0.3,0.2-0.5l0,0c0-0.1,0-0.1,0.1-0.1
										l0,0c0,0,0-0.1,0-0.1c0,0,0-0.1,0,0C7.9-11.5,8-11.8,8-11.9c0-0.2,0.1-0.3,0.2-0.4l0,0c0-0.1,0.1-0.1,0.1-0.1
										c0.1-0.1,0.1-0.2,0.2-0.3l0,0c0,0,0-0.1,0.1-0.1c0,0,0.1,0,0.1,0c0,0,0,0,0,0c0,0,0.1,0,0.1,0l0,0c0.1,0.1,0.3,0.1,0.4,0.2
										c0,0,0,0,0,0c0.1,0,0.2,0.1,0.3,0.1l0,0c0.1,0,0.1,0.1,0.2,0.1l-0.1,0c0,0,0.1,0,0.1,0c0,0,0,0,0.1,0.1c0,0-0.1,0,0,0
										l0.1,0.1c0,0,0,0,0.1,0c0,0,0.1,0,0.1,0c0.1,0.1,0.2,0.1,0.4,0.2c0,0,0.1,0.1,0.1,0.1c0,0.1,0,0.2,0,0.1
										c0,0.1-0.1,0.1-0.1,0.2c0,0,0,0,0,0c0,0-0.1,0.1-0.1,0.1c0,0,0.1-0.1,0.1-0.2c0,0.1-0.1,0.1-0.1,0.2l0,0
										c0,0.1-0.1,0-0.1,0.1l0,0c-0.1,0.1-0.1,0.1-0.1,0.2l0,0c0,0,0,0.1-0.1,0.1l0-0.1c0,0-0.1,0-0.1,0c0,0.1,0,0,0,0.1
										c0,0,0,0,0,0c0,0.1-0.1,0.2-0.1,0.2l0,0c0,0.1-0.1,0.2-0.1,0.2l0,0c-0.1,0-0.1,0.2-0.1,0.2c0,0,0-0.1,0,0
										c-0.1,0.1,0,0.1,0,0.2c0,0,0,0,0,0c0,0.1-0.1,0.1-0.1,0.2c-0.1,0.1-0.1,0.3-0.2,0.3c0,0,0,0,0,0l0,0c0,0,0,0,0,0.1
										c0,0,0,0.1-0.1,0.1c0,0,0,0,0,0.1c0-0.1,0,0,0-0.1C9-9.6,9-9.6,9-9.5l-0.1,0c0,0-0.1,0.1-0.1,0.1c0,0,0,0,0,0
										c0,0-0.1,0.1-0.1,0.1l0,0C8.6-9.2,8.6-9.2,8.5-9.1l0,0c-0.1,0-0.1,0.1-0.2,0.1c0,0,0,0,0,0c0,0,0.1,0,0.1-0.1L8.3-9.1
										l0.1-0.1c0,0,0,0,0,0C8.4-9,8.3-9.1,8.3-9c0,0,0,0,0,0C8.2-9,8.1-9,8.1-9c0,0,0,0,0,0C8-9,8-8.9,8-8.9l0,0c0,0,0,0-0.1,0
										c0,0,0,0.1,0,0c0,0-0.1,0,0,0c-0.1,0,0,0.1-0.1,0.1c0,0,0,0,0,0c0,0,0,0-0.1,0c0.1,0,0,0,0.1-0.1c0,0-0.1,0-0.1,0
										c0,0,0,0,0,0.1c0,0,0,0,0,0l0,0c0,0,0,0-0.1,0l0,0c0,0-0.1,0-0.2,0.1c0,0,0-0.1,0,0c-0.1,0.1,0,0-0.1,0
										c-0.1,0.1,0,0-0.1,0.1c0,0,0,0,0,0C7.2-8.5,7.2-8.4,7.2-8.4c0,0,0,0,0,0c0,0,0,0-0.1,0.1l0,0c0,0,0,0,0,0c0,0,0,0,0,0
										c0,0,0,0-0.1,0c0,0.1,0,0.1,0,0.1c0,0.1,0,0.1,0,0.2C7-8.1,7-8,7-8c0,0,0-0.1,0,0C6.9-7.9,7-7.8,6.9-7.7l0,0
										c0,0,0,0.1,0,0.1l0,0c0,0,0,0.1,0,0.1c0,0.1,0,0.1-0.1,0.2c0-0.1,0,0,0-0.1c0,0.1,0,0.1-0.1,0.1c0,0,0,0,0,0
										c0,0.1,0,0.1-0.1,0.2l0,0c0,0.1-0.1,0.2-0.2,0.3l0,0l0,0l0,0l0,0c0,0,0,0.1,0,0.1c0,0,0,0,0,0c0,0,0,0,0,0.1c0,0,0,0-0.1,0
										c0,0,0,0,0,0c-0.1,0-0.1,0-0.1,0c0,0,0,0,0,0c0,0,0,0,0,0c0,0,0,0-0.1,0l0,0c0,0,0,0,0,0c0,0,0,0,0,0c-0.1,0,0,0,0,0.1
										c-0.1,0-0.2,0-0.2-0.1l0,0c0,0-0.1,0-0.1,0l0,0c0,0,0,0,0.1,0c-0.1,0-0.1-0.1-0.1,0l0,0c-0.1,0-0.2-0.1-0.2-0.1
										c-0.1,0-0.2-0.1-0.2-0.1c0,0-0.1-0.1-0.1-0.1c0,0,0,0,0,0c0,0-0.1,0-0.1,0c-0.1,0,0,0,0,0C5-7,4.9-7,4.8-7c0,0,0,0,0,0
										c0,0,0,0,0,0l0,0L4.7-7c-0.1,0,0,0-0.1,0l0,0c0,0-0.1,0-0.2,0c0,0,0,0,0,0H4.4c0,0,0,0,0,0c0,0,0,0-0.1,0c0,0,0,0,0,0
										l-0.1,0l0,0c-0.1,0-0.2,0-0.2-0.1l0,0c0,0,0,0-0.1,0c0,0,0,0,0,0l0,0c0,0,0.1,0,0.1,0c0,0-0.1,0-0.1,0c0,0,0.1,0,0.1,0
										c0,0,0,0,0,0c0,0,0,0,0.1,0c0,0,0,0,0,0c0.1,0,0.1,0,0.1,0c0,0-0.1,0,0,0c0.1,0,0.1,0,0.2,0C4.8-7.1,4.9-7,5-7
										c0,0-0.1,0,0,0c0,0,0,0,0,0c0.1,0,0.1,0,0.1,0c0,0,0,0,0,0c0,0,0.1,0,0,0c0.1,0,0.1,0.1,0.2,0l0,0l0.1,0l0,0
										c0,0,0,0,0.1,0.1c0,0,0,0-0.1,0c0,0,0.1,0,0.1,0c0,0-0.1,0,0,0c0,0,0.1,0,0.1,0l0,0c0.1,0.1,0.1,0,0.1,0c0,0,0,0,0,0
										c0,0,0.1,0.1,0,0c0,0,0.1,0,0.1,0c0,0,0,0,0,0l0.1,0c0,0,0,0,0,0c0.1,0.1,0.3,0.1,0.4,0c0,0,0,0,0,0c0-0.1,0-0.1,0.1-0.2
										l0,0C6.5-7,6.5-7.1,6.5-7.2c0,0,0,0,0,0c0-0.1,0.1-0.1,0.1-0.1l0,0c0.1-0.1,0.1-0.3,0.1-0.4c0,0,0,0.1,0,0.1
										c0-0.1,0.1-0.2,0.1-0.3c0,0,0,0,0,0c0-0.1,0,0,0-0.1c0,0,0,0,0,0l0,0c0,0,0,0,0,0c0,0,0-0.1,0-0.2c0,0,0,0,0,0
										c0,0,0-0.1,0-0.1l0,0C7-8.3,7-8.3,7-8.3c0-0.1,0,0,0-0.1l0,0.1l0.1-0.1l0,0c0,0,0.1-0.1,0.1-0.1l0,0l0-0.1
										c0,0,0.1-0.1,0.1,0c0.1-0.1,0.2-0.2,0.3-0.2c0,0,0,0,0,0c0.1,0,0.1-0.1,0.1-0.1c0,0,0,0,0,0c0.1,0,0,0,0.1-0.1c0,0,0,0,0,0
										c0,0,0,0,0,0c0,0.1,0.1,0,0.1,0C7.9-9,8-9,7.9-9l0,0c0,0,0,0,0,0c0,0,0,0,0,0C8-9.1,8.2-9.1,8.3-9.2c0,0-0.1,0,0,0
										c0.1-0.1,0.2-0.1,0.3-0.2c0,0-0.1,0.1-0.1,0.1c0.1-0.1,0.2-0.2,0.3-0.3c0.1,0,0.1-0.1,0.2-0.2c0,0,0,0,0-0.1c0,0,0,0,0,0
										c0,0,0.1-0.2,0.1-0.2c0,0,0.1-0.1,0-0.1c0-0.1,0.1-0.1,0.1-0.2c0,0,0-0.1,0-0.1c0,0,0,0,0,0c0,0,0-0.1,0.1-0.1c0,0,0,0,0,0
										c0,0,0-0.1,0.1-0.2c0,0,0,0,0,0c0.1-0.2,0.2-0.4,0.3-0.6l0,0c0.1-0.1,0-0.1,0.1-0.2c0.2-0.2,0.6-0.4,0.3-0.5c0,0,0,0,0,0
										c0,0,0,0,0,0l0,0C10-12,9.8-12,9.7-12.1c-0.1,0-0.2-0.1-0.3-0.1c0,0,0.1,0,0,0l-0.1,0l0,0c-0.1,0-0.3-0.2-0.5-0.2l0,0
										c0,0,0,0,0,0c0,0,0,0,0,0c-0.2,0-0.1-0.1-0.2,0c0,0,0,0-0.1,0c0,0,0,0,0,0.1c0,0.1-0.1,0.1-0.2,0.2c0,0,0,0.1,0,0.1
										c0,0.1-0.1,0.2-0.1,0.3l0,0c0,0-0.1,0.1,0,0.1c0,0,0,0,0,0l0,0.1c0,0,0-0.1,0,0c0,0.1,0,0,0,0l0,0c0,0,0,0.1,0,0
										c0,0.1-0.1,0.3-0.1,0.4l0,0c0,0.1,0,0.2-0.1,0.2c0,0,0,0,0,0c0,0.1,0,0,0,0.1c0,0,0-0.1,0-0.1l0,0.2c0,0-0.1,0.1-0.1,0.2
										c0,0,0,0,0,0l0,0l0,0l0,0.1l0,0c0,0,0,0.1,0,0.1c-0.1,0.1-0.1,0.1-0.1,0.2c0,0-0.1,0.2,0,0.2c0,0,0,0.1-0.1,0.2
										c-0.2,0-0.2,0-0.4,0l0,0c-0.1,0-0.1,0-0.2,0l0,0c-0.1,0-0.3,0-0.4,0.1c0,0,0,0,0,0c0,0,0,0,0,0c0,0,0,0,0,0l0,0
										c-0.1,0-0.3,0-0.4,0.1c0,0,0,0,0,0c-0.1,0-0.2,0.1-0.3,0.2l0,0c0,0,0,0-0.1,0.1c0,0,0,0,0,0c-0.1,0,0,0.1-0.1,0.1l0,0
										c-0.1,0-0.1,0.1-0.1,0.1c-0.1,0.1-0.1,0-0.2,0.1c0,0,0,0,0,0C5.2-9.2,5.2-9.2,5.1-9.1c-0.1,0,0,0,0,0l0.1,0
										c-0.1,0,0,0,0-0.1c0,0-0.1,0.1-0.1,0.2c0,0,0.1-0.1,0-0.1l0,0c0,0,0,0,0,0c0,0,0,0-0.1,0.1c0,0,0,0,0,0c0,0,0,0,0,0
										C5-9,4.9-8.9,4.9-8.9c0,0,0,0,0,0C4.8-8.9,4.8-8.8,4.7-8.7C4.8-8.7,4.8-8.8,4.7-8.7C4.7-8.7,4.8-8.7,4.7-8.7
										C4.7-8.7,4.8-8.7,4.7-8.7z M5.9-9.7C6-9.7,6-9.7,5.9-9.7L5.9-9.7C6-9.7,6-9.7,5.9-9.7z M6.1-9.8C6.1-9.8,6-9.8,6.1-9.8
										C6.1-9.8,6.1-9.8,6.1-9.8C6.1-9.8,6.1-9.8,6.1-9.8z M5.8-9.8L5.8-9.8C5.8-9.8,5.8-9.8,5.8-9.8C5.8-9.8,5.8-9.8,5.8-9.8
										C5.8-9.8,5.8-9.8,5.8-9.8z"/>
									<path fill="#202020" d="M5.7-9.8L5.7-9.8C5.7-9.8,5.8-9.8,5.7-9.8L5.7-9.8L5.7-9.8z"/>
									<polygon fill="#202020" points="6.4,-6.8 6.4,-6.8 6.4,-6.8 									"/>
									<polygon fill="#202020" points="7.7,-10.6 7.7,-10.6 7.7,-10.6 									"/>
									<path fill="#202020" d="M5.8-6.7C5.8-6.7,5.8-6.7,5.8-6.7C5.8-6.7,5.8-6.7,5.8-6.7z"/>
									<path fill="#202020" d="M5.4-6.8L5.4-6.8C5.4-6.9,5.4-6.8,5.4-6.8z"/>
									<polygon fill="#202020" points="5.2,-6.9 5.2,-6.9 5.2,-6.9 									"/>
									<path fill="#202020" d="M8-9.1C8-9.1,8-9.1,8-9.1C8-9.1,8-9.1,8-9.1z"/>
									<path fill="#202020" d="M7-8.2C7-8.3,7-8.3,7-8.2C7-8.3,7-8.3,7-8.2z"/>
									<polygon fill="#202020" points="9,-9.9 9,-9.8 9,-9.9 									"/>
									<path fill="#202020" d="M7-8.3C7-8.3,7-8.3,7-8.3C7-8.3,7-8.3,7-8.3z"/>
									<polygon fill="#202020" points="4.1,-7.2 4.1,-7.2 4.1,-7.2 									"/>
									<path fill="#202020" d="M4.1-7.2L4.1-7.2L4.1-7.2z"/>
									<path fill="#202020" d="M4.1-7.2L4.1-7.2C4.1-7.2,4.1-7.2,4.1-7.2z"/>
									<path fill="#202020" d="M4.4-7.1L4.4-7.1L4.4-7.1z"/>
									<path fill="#202020" d="M4.5-7.1C4.5-7.1,4.4-7.1,4.5-7.1l-0.1,0C4.4-7.1,4.5-7.1,4.5-7.1z"/>
									<path fill="#202020" d="M4.9-6.9L4.9-6.9C4.9-6.9,4.9-6.9,4.9-6.9C4.9-6.9,4.8-7,4.9-6.9z"/>
									<path fill="#202020" d="M5.2-6.8C5.1-6.9,5.2-6.8,5.2-6.8C5.2-6.8,5.2-6.8,5.2-6.8z"/>
									<path fill="#202020" d="M6.7-7.3L6.7-7.3C6.8-7.4,6.7-7.3,6.7-7.3z"/>
									<polygon fill="#202020" points="6.8,-7.7 6.8,-7.7 6.8,-7.7 									"/>
									<polygon fill="#202020" points="7,-7.9 7,-7.9 7,-8 									"/>
									<path fill="#202020" d="M9.4-10.1L9.4-10.1C9.3-10.1,9.4-10.1,9.4-10.1z"/>
									<path fill="#202020" d="M10.1-11.4C10.1-11.4,10.2-11.4,10.1-11.4C10.1-11.4,10.1-11.4,10.1-11.4z"/>
									<polygon fill="#202020" points="7.7,-11.1 7.7,-11.1 7.7,-11 									"/>
								</g>
							</g>
						</g>
					</g>
				</g>
				<g>
					<g>
						<g>
							<g>
								<g>
									<path fill="#202020" d="M8.7-12C8.7-12,8.7-12,8.7-12L8.7-12L8.7-12z"/>
									<path fill="#202020" d="M8.7-12C8.7-12,8.7-12,8.7-12C8.7-12,8.7-12,8.7-12C8.7-12,8.7-12,8.7-12C8.7-12,8.7-12,8.7-12
										C8.7-12,8.7-12,8.7-12C8.7-12,8.7-12,8.7-12z"/>
									<path fill="#202020" d="M8.2-11.2L8.2-11.2L8.2-11.2z"/>
									<path fill="#202020" d="M8-10.7L8-10.7L8-10.7z"/>
									<path fill="#202020" d="M8-10.6L8-10.6L8-10.6z"/>
									<path fill="#202020" d="M8.2-11.2L8.2-11.2C8.2-11.2,8.2-11.2,8.2-11.2z"/>
									<polygon fill="#202020" points="8.6,-11.9 8.6,-11.9 8.6,-11.9 									"/>
									<polygon fill="#202020" points="8.3,-11.4 8.3,-11.4 8.3,-11.5 									"/>
									<path fill="#202020" d="M8.4-11.6C8.4-11.6,8.4-11.6,8.4-11.6C8.4-11.6,8.4-11.6,8.4-11.6C8.4-11.6,8.4-11.6,8.4-11.6z"/>
									<path fill="#202020" d="M8.5-11.9L8.5-11.9L8.5-11.9z"/>
									<path fill="#202020" d="M8.2-11.3L8.2-11.3L8.2-11.3z"/>
									<path fill="#202020" d="M5-7.6L5-7.6L5-7.6z"/>
									<polygon fill="#202020" points="4.8,-7.4 4.8,-7.4 4.8,-7.4 									"/>
									<path fill="#202020" d="M7.9-10.5L7.9-10.5C7.9-10.5,7.9-10.5,7.9-10.5z"/>
									<path fill="#202020" d="M6.8-9.5C6.8-9.5,6.8-9.5,6.8-9.5C6.8-9.5,6.8-9.5,6.8-9.5z"/>
									<path fill="#202020" d="M8.6-11.9L8.6-11.9L8.6-11.9z"/>
									<polygon fill="#202020" points="6.8,-9.5 6.8,-9.5 6.8,-9.5 									"/>
									<path fill="#202020" d="M7.7-10.1L7.7-10.1C7.8-10.1,7.7-10.1,7.7-10.1z"/>
									<path fill="#202020" d="M7.9-10.3L7.9-10.3L7.9-10.3z"/>
									<path fill="#202020" d="M7.7-9.9C7.7-9.9,7.7-9.9,7.7-9.9L7.7-9.9L7.7-9.9z"/>
									<polygon fill="#202020" points="7.6,-9.9 7.6,-9.9 7.6,-9.9 									"/>
									<path fill="#202020" d="M5.2-8.1L5.2-8.1C5.1-8.1,5.1-8,5.2-8.1z"/>
									<polygon fill="#202020" points="8.6,-11.9 8.6,-11.9 8.6,-11.9 									"/>
									<path fill="#202020" d="M7.8-9.8L7.8-9.8C7.8-9.8,7.8-9.8,7.8-9.8z"/>
									<path fill="#202020" d="M5.9-8.8L5.9-8.8L5.9-8.8z"/>
									<path fill="#202020" d="M7.7-9.8C7.7-9.8,7.7-9.8,7.7-9.8L7.7-9.8L7.7-9.8z"/>
									<path fill="#202020" d="M5.1-8.1L5.1-8.1L5.1-8.1z"/>
									<path fill="#202020" d="M5.1-7.9C5.1-7.9,5.1-7.9,5.1-7.9C5.1-7.9,5-7.9,5.1-7.9C5.1-7.9,5.1-7.9,5.1-7.9
										c0,0.1,0,0.1,0,0.1C5-7.8,5-7.8,5.1-7.9C5-7.8,5-7.8,5.1-7.8c0,0,0,0,0,0l0,0c0,0,0,0.1,0,0.1c0,0,0,0.1-0.1,0c0,0,0,0,0,0
										c0,0,0,0,0,0c0,0,0,0,0,0c0,0,0,0,0,0c0,0,0,0,0,0c0,0,0,0,0,0c0,0,0,0,0,0l0,0c0,0,0,0,0,0c0,0,0,0,0,0l0,0l0,0l0,0
										c0,0-0.1,0-0.1,0l0,0c0,0,0,0,0,0c0,0,0,0,0-0.1c0,0,0,0,0.1,0l0,0l0,0c0,0,0,0,0,0c0,0,0,0,0,0l0,0c0-0.1,0.1-0.1,0-0.1
										l0,0l0,0c0,0,0,0,0,0C5-7.8,4.9-8,5-8c0,0,0,0,0,0c0.1,0,0-0.1,0.1-0.2l0,0c0,0,0,0,0,0c0,0,0,0,0-0.1c0,0,0,0,0,0
										c0,0,0,0,0,0c0,0,0-0.1,0-0.1c0,0,0,0,0.1,0c0,0,0,0,0,0c0,0,0,0,0,0l0,0l0,0l0,0c0,0,0,0,0,0c0,0,0,0,0,0c0,0,0,0,0,0
										c0,0,0,0,0,0c0,0,0,0,0,0l0,0l0,0c0,0,0-0.1,0-0.1c0,0,0,0,0,0c0,0,0,0,0,0c0,0,0,0,0,0c0,0,0,0,0.1-0.1c0,0,0,0,0,0
										c0,0,0,0,0,0c0,0,0,0,0,0c0,0,0,0,0,0l0,0c0,0,0,0,0,0c0,0,0,0,0,0c0,0,0,0,0-0.1l0,0c0,0,0-0.1,0,0c0,0,0,0,0-0.1
										c0,0,0,0,0,0c0,0,0.1,0,0.1-0.1l0,0c0,0,0-0.1,0-0.1l0,0c0,0,0,0,0.1,0l0,0c0,0,0,0,0,0C5.8-8.9,5.9-9,5.9-9l0,0
										c0,0,0,0,0.1,0l0,0c0,0,0,0,0,0c0,0,0,0,0,0c0.1,0,0.1-0.1,0.1-0.1c0,0,0-0.1,0.1-0.1l0,0c0,0,0.1,0,0.1,0
										c0,0,0-0.1,0.1-0.1l0,0c0,0,0,0,0,0l0,0c0,0,0,0,0,0l0,0c0,0,0.1-0.1,0.1-0.1c0,0,0,0,0,0c0,0,0.1-0.1,0.1-0.1l0,0
										c0,0,0,0,0.1,0l0,0c0,0,0,0,0,0c0,0,0,0,0,0c0,0,0,0,0,0l0,0c0,0,0,0,0,0c0,0,0,0,0,0c0.1,0,0.1,0,0.1-0.1c0,0,0.1,0,0.1,0
										c0,0,0,0,0-0.1c0,0,0,0,0,0c0,0,0,0,0,0c0,0,0,0,0,0.1c0,0,0,0,0.1-0.1l0,0c0,0,0,0,0,0l0,0c0,0,0,0,0.1-0.1l0,0
										c0,0,0,0,0,0l0,0c0,0,0,0,0,0c0,0,0,0,0,0c0,0,0,0,0,0c0,0,0.1,0,0.1-0.1l0,0c0,0,0,0,0.1,0l0,0c0,0,0,0,0.1,0c0,0,0,0,0,0
										c0,0,0,0,0,0l0,0c0,0,0,0,0.1,0c0,0,0.1,0,0.1,0c0,0,0,0,0,0l0,0c0,0,0,0,0,0c0,0,0,0,0,0c0,0,0,0,0,0c0,0,0,0,0,0
										c0,0,0,0,0-0.1l0,0c0,0,0,0,0,0c0,0,0,0,0,0c0,0,0,0,0,0l0,0c0,0,0-0.1,0-0.1l0,0c0,0,0,0,0-0.1c0,0,0,0,0,0c0,0,0,0,0,0
										l0,0l0,0c0,0,0,0,0,0c0,0,0,0,0-0.1c0,0,0,0,0,0c0,0,0,0,0-0.1c0,0,0,0,0,0c0,0,0,0,0,0l0,0c0,0,0,0,0,0c0,0,0,0,0,0
										c0,0,0,0,0,0c0,0,0,0,0-0.1l0,0c0,0,0,0,0,0c0,0,0,0,0,0c0,0,0,0,0,0c0,0,0,0,0,0c0,0,0,0,0,0l0,0c0,0,0,0,0,0l0,0
										c0,0,0,0,0-0.1c0,0,0,0,0,0c0,0,0,0,0,0c0,0,0,0,0-0.1c0,0,0,0,0,0c0,0,0,0,0-0.1c0,0,0,0,0,0c0,0,0,0,0,0l0,0c0,0,0,0,0,0
										c0,0,0,0,0,0c0,0,0,0,0,0c0,0,0,0,0,0c0,0,0,0,0-0.1c0,0,0,0,0.1,0c0,0,0,0,0,0c0.1,0,0-0.1,0-0.1l0,0c0,0,0,0,0,0l0,0
										c0,0,0,0,0,0c0,0,0,0,0-0.1c0,0,0,0,0,0c0,0,0,0,0,0c0,0,0,0,0,0c0,0,0,0,0-0.1l0,0c0,0,0.1-0.1,0-0.1l0,0l0,0l0,0l0,0
										c0,0,0,0,0,0c0,0,0,0,0,0c0,0,0,0,0,0c0,0,0,0,0,0c0,0,0,0,0,0c0,0,0,0,0,0c0,0,0,0,0,0c0,0,0,0,0,0c0,0,0,0,0,0l0,0
										c0,0,0,0,0,0c0,0,0,0,0,0c0,0,0,0-0.1,0c0,0,0-0.1,0-0.1l0,0c0,0,0,0,0,0l0,0c0,0,0,0,0,0c0,0,0,0,0-0.1l0,0
										c0,0,0-0.1,0.1-0.1c0,0,0-0.1,0-0.1c0,0,0,0,0,0c0,0,0,0,0,0c0,0,0,0,0,0c0,0,0,0,0,0c0,0,0,0,0.1,0c0,0,0,0,0,0
										c0,0,0,0,0,0l0,0l0.1,0c0,0,0,0,0-0.1l0,0c0,0,0,0,0-0.1c0,0,0,0,0,0l0,0l0,0c0,0,0,0,0,0c0,0,0,0,0,0l0,0l0,0
										c0,0,0-0.1,0-0.1l0,0c0,0,0,0,0,0c0,0,0,0,0,0l0,0c0,0,0,0,0,0.1c0,0,0,0,0,0c0,0,0,0,0,0.1c0,0,0,0,0,0c0,0,0,0,0,0
										c0,0,0,0,0,0c0,0,0,0,0,0c0,0,0,0,0,0c0,0,0,0.1,0,0.1c0,0.1-0.1,0.1,0,0.1c0,0,0,0,0,0c0,0,0,0,0,0c0,0,0,0,0,0
										c0,0,0,0,0,0c0,0,0,0,0,0c0,0,0,0,0,0.1l0,0l0,0l0,0c0,0,0,0,0,0c0,0,0,0,0,0c0,0,0,0,0,0.1c0,0,0,0,0,0c0,0,0,0,0,0l0,0
										c0,0,0,0,0,0l0,0c0,0,0,0,0,0c0,0,0,0,0,0c0,0,0,0,0,0l0,0c0,0,0,0,0,0c-0.1,0,0,0.1-0.1,0.1c0,0,0,0,0,0c0,0,0,0,0,0.1
										l0,0c0,0,0,0.1,0,0.1c0,0,0,0,0,0c0,0-0.1,0,0,0.1l0,0c0,0,0,0.1,0,0.1c0,0,0,0,0,0c0,0,0,0.1,0,0.1c0,0,0,0,0,0
										c0,0,0,0,0,0c0,0,0,0,0,0l0,0c0,0,0,0,0,0c0,0,0,0,0,0.1c0,0,0,0,0,0c0,0,0,0,0,0l0,0c0,0,0,0,0,0c0,0,0,0,0,0l0,0l0,0l0,0
										c0,0,0,0,0,0.1l0,0l0,0c0,0,0,0,0,0c0,0,0,0.1,0,0.1c0,0,0,0,0,0c0,0,0,0,0,0.1c0,0,0,0,0,0c0,0,0,0,0,0.1c0,0,0,0,0,0
										c0,0,0,0,0,0c0,0,0,0-0.1,0c0,0,0,0.1,0,0.1l0,0c0,0,0,0,0,0l0,0c0,0,0,0.1,0,0.1c0,0,0,0,0,0c0,0,0,0.1,0,0.1
										c0,0,0-0.1,0-0.1c0,0,0,0.1,0,0.2c-0.1,0,0,0.1-0.1,0.1c0,0,0,0,0,0.1c0,0,0,0,0,0c0,0,0,0.1-0.1,0c0,0,0,0,0,0
										c0,0,0,0-0.1,0c0,0,0,0,0,0l0,0c0,0,0,0,0,0c0,0,0,0,0,0c0,0,0,0,0,0c0,0,0,0,0,0c-0.1,0-0.1,0.1-0.2,0.1l0,0
										c-0.1,0,0,0,0,0.1c-0.1,0-0.2,0-0.3,0.1c0,0,0,0,0,0c0,0,0,0,0,0l0,0c-0.1,0-0.1,0.1-0.2,0c0,0-0.1,0-0.1,0.1c0,0,0,0,0,0
										l0,0l0,0c0,0.1-0.1,0-0.2,0.1l0,0c0,0,0,0,0,0c0,0,0,0,0,0c0,0,0,0-0.1,0.1c0,0,0,0,0,0c0,0,0,0,0,0c0,0-0.1,0-0.1,0
										c0,0,0,0,0,0c0,0-0.1,0.1-0.1,0.1l0,0c0,0,0,0,0,0c0,0,0,0,0,0l0,0c0,0,0,0,0,0c0,0,0,0,0,0l0,0c0,0,0,0,0,0
										c0,0-0.1,0.1-0.1,0.1l0,0c0,0,0,0-0.1,0c0,0,0,0,0,0c0,0,0,0,0,0c0,0,0,0,0,0l0,0c0,0-0.1,0-0.1,0c0,0,0,0,0,0l0,0l0,0l0,0
										l0,0c0,0,0,0,0,0c0,0,0,0-0.1,0c0,0,0,0,0,0.1c-0.1,0-0.1,0-0.2,0.1l0,0c0,0,0,0,0,0.1l0,0c0,0-0.1,0.1-0.1,0.1
										c0,0,0,0,0,0c0,0,0,0,0,0c0,0,0,0,0,0l0,0c0,0-0.1,0.1-0.1,0.1c0,0,0,0,0,0c0,0,0,0.1,0,0.1l0,0c0,0,0,0,0,0c0,0,0,0,0,0
										c0,0,0,0,0,0.1l0,0c0,0,0,0,0,0c0,0-0.1,0-0.1,0c0,0,0,0,0,0c0,0,0,0,0,0.1c0,0,0,0,0,0l0,0c0,0,0,0,0,0c0,0,0,0,0,0.1
										c0,0,0,0,0,0l0,0c0,0,0,0,0,0c0,0,0,0,0,0c0,0,0,0,0,0l0,0C5.1-8,5.1-8,5.1-7.9C5.1-8,5.1-8,5.1-7.9C5.1-8,5.1-7.9,5.1-7.9
										C5.1-7.9,5.1-8,5.1-7.9C5.1-7.9,5.1-7.9,5.1-7.9C5.1-7.9,5.1-7.9,5.1-7.9z M5.3-8.4L5.3-8.4L5.3-8.4
										C5.3-8.4,5.3-8.4,5.3-8.4z M5.3-8.4C5.3-8.4,5.3-8.4,5.3-8.4C5.4-8.4,5.4-8.4,5.3-8.4C5.4-8.4,5.3-8.4,5.3-8.4z M5.2-8.4
										L5.2-8.4C5.2-8.4,5.2-8.4,5.2-8.4C5.2-8.4,5.2-8.4,5.2-8.4L5.2-8.4z"/>
									<polygon fill="#202020" points="5.2,-8.4 5.2,-8.4 5.2,-8.4 5.2,-8.4 									"/>
									<polygon fill="#202020" points="8.2,-11.2 8.2,-11.2 8.2,-11.2 									"/>
									<polygon fill="#202020" points="5.9,-8.8 5.9,-8.8 5.9,-8.8 									"/>
									<path fill="#202020" d="M8.4-11.4L8.4-11.4L8.4-11.4z"/>
									<path fill="#202020" d="M8.4-11.5L8.4-11.5C8.4-11.5,8.4-11.5,8.4-11.5z"/>
									<polygon fill="#202020" points="8.5,-11.6 8.5,-11.6 8.5,-11.6 									"/>
									<path fill="#202020" d="M8-10.3L8-10.3C8-10.3,8-10.3,8-10.3z"/>
									<path fill="#202020" d="M8.1-10.7C8.1-10.7,8.1-10.7,8.1-10.7C8.1-10.7,8.1-10.7,8.1-10.7z"/>
									<polygon fill="#202020" points="7.8,-9.8 7.8,-9.8 7.8,-9.8 									"/>
									<path fill="#202020" d="M8.1-10.7C8.1-10.7,8.1-10.7,8.1-10.7C8.1-10.7,8.1-10.7,8.1-10.7z"/>
									<polygon fill="#202020" points="8.7,-11.9 8.7,-11.9 8.7,-11.9 									"/>
									<path fill="#202020" d="M8.7-11.9L8.7-11.9L8.7-11.9z"/>
									<path fill="#202020" d="M8.7-12L8.7-12C8.7-11.9,8.7-11.9,8.7-12z"/>
									<path fill="#202020" d="M8.6-11.8L8.6-11.8L8.6-11.8z"/>
									<path fill="#202020" d="M8.6-11.8C8.6-11.8,8.6-11.8,8.6-11.8L8.6-11.8C8.6-11.8,8.6-11.8,8.6-11.8z"/>
									<path fill="#202020" d="M8.4-11.7L8.4-11.7C8.5-11.7,8.4-11.7,8.4-11.7C8.4-11.7,8.5-11.8,8.4-11.7z"/>
									<path fill="#202020" d="M8.4-11.6C8.4-11.7,8.4-11.7,8.4-11.6C8.4-11.6,8.4-11.6,8.4-11.6z"/>
									<path fill="#202020" d="M8.1-11L8.1-11C8.1-11,8.1-11,8.1-11z"/>
									<polygon fill="#202020" points="8.2,-10.9 8.2,-10.9 8.2,-10.9 									"/>
									<polygon fill="#202020" points="8,-10.8 8,-10.9 8,-10.8 									"/>
									<path fill="#202020" d="M7.6-9.9L7.6-9.9C7.6-9.9,7.6-9.9,7.6-9.9z"/>
									<path fill="#202020" d="M7.2-9.7C7.2-9.7,7.2-9.7,7.2-9.7C7.2-9.7,7.2-9.7,7.2-9.7z"/>
									<polygon fill="#202020" points="5.9,-9 5.9,-9 5.9,-9 									"/>
								</g>
							</g>
						</g>
					</g>
				</g>
				<g>
					<g>
						<g>
							<g>
								<g>
									<path fill="#202020" d="M9.1-11.8C9.1-11.8,9.1-11.8,9.1-11.8L9.1-11.8L9.1-11.8z"/>
									<path fill="#202020" d="M9-11.8C9-11.7,9-11.7,9-11.8C9-11.7,9-11.7,9-11.8C9-11.8,9-11.8,9-11.8C9-11.8,9.1-11.8,9-11.8
										C9-11.8,9-11.8,9-11.8C9-11.7,9-11.8,9-11.8z"/>
									<path fill="#202020" d="M8.6-11L8.6-11L8.6-11z"/>
									<path fill="#202020" d="M8.4-10.4L8.4-10.4L8.4-10.4z"/>
									<path fill="#202020" d="M8.3-10.4L8.3-10.4L8.3-10.4z"/>
									<path fill="#202020" d="M8.6-11L8.6-11C8.6-10.9,8.6-11,8.6-11z"/>
									<polygon fill="#202020" points="9,-11.6 9,-11.6 9,-11.6 									"/>
									<polygon fill="#202020" points="8.7,-11.2 8.7,-11.2 8.7,-11.2 									"/>
									<path fill="#202020" d="M8.7-11.4C8.7-11.4,8.7-11.4,8.7-11.4C8.7-11.4,8.7-11.4,8.7-11.4C8.7-11.4,8.7-11.4,8.7-11.4z"/>
									<path fill="#202020" d="M8.9-11.6L8.9-11.6L8.9-11.6z"/>
									<path fill="#202020" d="M8.6-11.1L8.6-11.1L8.6-11.1z"/>
									<path fill="#202020" d="M5.4-7.4L5.4-7.4L5.4-7.4z"/>
									<polygon fill="#202020" points="5.2,-7.2 5.2,-7.2 5.2,-7.2 									"/>
									<path fill="#202020" d="M8.2-10.2L8.2-10.2C8.2-10.2,8.2-10.2,8.2-10.2z"/>
									<path fill="#202020" d="M7.1-9.3C7.2-9.3,7.1-9.3,7.1-9.3C7.1-9.3,7.2-9.3,7.1-9.3z"/>
									<path fill="#202020" d="M9-11.6L9-11.6L9-11.6z"/>
									<polygon fill="#202020" points="7.1,-9.3 7.1,-9.3 7.2,-9.3 									"/>
									<path fill="#202020" d="M8.1-9.8L8.1-9.8C8.1-9.8,8.1-9.8,8.1-9.8z"/>
									<path fill="#202020" d="M8.2-10.1L8.2-10.1L8.2-10.1z"/>
									<path fill="#202020" d="M8.1-9.7C8.1-9.7,8.1-9.7,8.1-9.7L8.1-9.7L8.1-9.7z"/>
									<polygon fill="#202020" points="8,-9.6 8,-9.6 8,-9.6 									"/>
									<path fill="#202020" d="M5.5-7.8L5.5-7.8C5.5-7.8,5.5-7.8,5.5-7.8z"/>
									<polygon fill="#202020" points="9,-11.6 9,-11.6 9,-11.6 									"/>
									<path fill="#202020" d="M8.2-9.6L8.2-9.6C8.2-9.6,8.2-9.6,8.2-9.6z"/>
									<path fill="#202020" d="M6.3-8.6L6.3-8.6L6.3-8.6z"/>
									<path fill="#202020" d="M8.1-9.5C8.1-9.5,8.1-9.5,8.1-9.5L8.1-9.5L8.1-9.5z"/>
									<path fill="#202020" d="M5.5-7.8L5.5-7.8L5.5-7.8z"/>
									<path fill="#202020" d="M5.5-7.7C5.5-7.6,5.4-7.7,5.5-7.7C5.4-7.6,5.4-7.6,5.5-7.7C5.4-7.6,5.4-7.6,5.5-7.7
										c0,0.1,0,0.1,0,0.1C5.4-7.6,5.4-7.6,5.5-7.7c-0.1,0.1-0.1,0.1,0,0.1c0,0,0,0,0,0l0,0c0,0,0,0.1,0,0.1c0,0,0,0.1-0.1,0
										c0,0,0,0,0,0c0,0,0,0,0,0c0,0,0,0,0,0c0,0,0,0,0,0c0,0,0,0,0,0c0,0,0,0,0,0c0,0,0,0,0,0l0,0c0,0,0,0,0,0c0,0,0,0,0,0l0,0
										l0,0l0,0c0,0-0.1,0-0.1,0l0,0c0,0,0,0,0,0c0,0,0,0,0-0.1c0,0,0,0,0.1,0l0,0l0,0c0,0,0,0,0,0c0,0,0,0,0,0l0,0
										c0-0.1,0.1-0.1,0-0.1l0,0l0,0c0,0,0,0,0,0c0.1-0.1,0.1-0.2,0.1-0.2c0,0,0,0,0,0c0.1,0,0-0.1,0.1-0.2l0,0c0,0,0,0,0,0
										c0,0,0,0,0-0.1c0,0,0,0,0,0c0,0,0,0,0,0c0,0,0-0.1,0-0.1c0,0,0,0,0.1,0c0,0,0,0,0,0c0,0,0,0,0,0l0,0l0,0l0,0c0,0,0,0,0,0
										c0,0,0,0,0,0c0,0,0,0,0,0c0,0,0,0,0,0c0,0,0,0,0,0l0,0l0,0c0,0,0-0.1,0-0.1c0,0,0,0,0,0c0,0,0,0,0,0c0,0,0,0,0,0
										c0,0,0,0,0.1-0.1c0,0,0,0,0,0c0,0,0,0,0,0c0,0,0,0,0,0c0,0,0,0,0,0l0,0c0,0,0,0,0,0c0,0,0,0,0,0c0,0,0,0,0-0.1l0,0
										c0,0,0-0.1,0,0c0,0,0,0,0-0.1c0,0,0,0,0,0c0,0,0.1,0,0.1-0.1l0,0c0,0,0-0.1,0-0.1l0,0c0,0,0,0,0.1,0l0,0c0,0,0,0,0,0
										c0.1,0,0.1-0.1,0.2-0.1l0,0c0,0,0,0,0.1,0l0,0c0,0,0,0,0,0c0,0,0,0,0,0c0.1,0,0.1-0.1,0.1-0.1c0,0,0-0.1,0.1-0.1l0,0
										c0,0,0.1,0,0.1,0c0,0,0-0.1,0.1-0.1l0,0c0,0,0,0,0,0l0,0c0,0,0,0,0,0l0,0c0,0,0.1-0.1,0.1-0.1c0,0,0,0,0,0
										c0,0,0.1-0.1,0.1-0.1l0,0c0,0,0,0,0.1,0l0,0c0,0,0,0,0,0c0,0,0,0,0,0c0,0,0,0,0,0l0,0c0,0,0,0,0,0c0,0,0,0,0,0
										c0.1,0,0.1,0,0.1-0.1c0,0,0.1,0,0.1,0c0,0,0,0,0-0.1c0,0,0,0,0,0c0,0,0,0,0,0c0,0,0,0,0,0.1c0,0,0,0,0.1-0.1l0,0
										c0,0,0,0,0,0l0,0c0,0,0,0,0.1-0.1l0,0c0,0,0,0,0,0l0,0c0,0,0,0,0,0c0,0,0,0,0,0c0,0,0,0,0,0c0,0,0.1,0,0.1-0.1l0,0
										c0,0,0,0,0.1,0l0,0c0,0,0,0,0.1,0c0,0,0,0,0,0c0,0,0,0,0,0l0,0c0,0,0,0,0.1,0c0,0,0.1,0,0.1,0c0,0,0,0,0,0l0,0c0,0,0,0,0,0
										c0,0,0,0,0,0c0,0,0,0,0,0c0,0,0,0,0,0c0,0,0,0,0-0.1l0,0c0,0,0,0,0,0c0,0,0,0,0,0c0,0,0,0,0,0l0,0c0,0,0-0.1,0-0.1l0,0
										c0,0,0,0,0-0.1c0,0,0,0,0,0c0,0,0,0,0,0l0,0l0,0c0,0,0,0,0,0c0,0,0,0,0-0.1c0,0,0,0,0,0c0,0,0,0,0-0.1c0,0,0,0,0,0
										c0,0,0,0,0,0l0,0c0,0,0,0,0,0c0,0,0,0,0,0c0,0,0,0,0,0c0,0,0,0,0-0.1l0,0c0,0,0,0,0,0c0,0,0,0,0,0c0,0,0,0,0,0c0,0,0,0,0,0
										c0,0,0,0,0,0l0,0c0,0,0,0,0,0l0,0c0,0,0,0,0-0.1c0,0,0,0,0,0c0,0,0,0,0,0c0,0,0,0,0-0.1c0,0,0,0,0,0c0,0,0,0,0-0.1
										c0,0,0,0,0,0c0,0,0,0,0,0l0,0c0,0,0,0,0,0c0,0,0,0,0,0c0,0,0,0,0,0c0,0,0,0,0,0c0,0,0,0,0-0.1c0,0,0,0,0.1,0c0,0,0,0,0,0
										c0.1,0,0-0.1,0-0.1l0,0c0,0,0,0,0,0l0,0c0,0,0,0,0,0c0,0,0,0,0-0.1c0,0,0,0,0,0c0,0,0,0,0,0c0,0,0,0,0,0c0,0,0,0,0-0.1l0,0
										c0,0,0.1-0.1,0-0.1l0,0l0,0l0,0l0,0c0,0,0,0,0,0c0,0,0,0,0,0c0,0,0,0,0,0c0,0,0,0,0,0c0,0,0,0,0,0c0,0,0,0,0,0c0,0,0,0,0,0
										c0,0,0,0,0,0c0,0,0,0,0,0l0,0c0,0,0,0,0,0c0,0,0,0,0,0c0,0,0,0-0.1,0c0,0,0-0.1,0-0.1l0,0c0,0,0,0,0,0l0,0c0,0,0,0,0,0
										c0,0,0,0,0-0.1l0,0c0,0,0-0.1,0.1-0.1c0,0,0-0.1,0-0.1c0,0,0,0,0,0c0,0,0,0,0,0c0,0,0,0,0,0c0,0,0,0,0,0c0,0,0,0,0.1,0
										c0,0,0,0,0,0c0,0,0,0,0,0l0,0l0.1,0c0,0,0,0,0-0.1l0,0c0,0,0,0,0-0.1c0,0,0,0,0,0l0,0l0,0c0,0,0,0,0,0c0,0,0,0,0,0l0,0l0,0
										c0,0,0-0.1,0-0.1l0,0c0,0,0,0,0,0c0,0,0,0,0,0l0,0c0,0,0,0,0,0.1c0,0,0,0,0,0c0,0,0,0,0,0.1c0,0,0,0,0,0c0,0,0,0,0,0
										c0,0,0,0,0,0c0,0,0,0,0,0c0,0,0,0,0,0c0,0,0,0.1,0,0.1c0,0.1-0.1,0.1,0,0.1c0,0,0,0,0,0c0,0,0,0,0,0c0,0,0,0,0,0
										c0,0,0,0,0,0c0,0,0,0,0,0c0,0,0,0,0,0.1l0,0l0,0l0,0c0,0,0,0,0,0c0,0,0,0,0,0c0,0,0,0,0,0.1c0,0,0,0,0,0c0,0,0,0,0,0l0,0
										c0,0,0,0,0,0l0,0c0,0,0,0,0,0c0,0,0,0,0,0c0,0,0,0,0,0l0,0c0,0,0,0,0,0c-0.1,0,0,0.1-0.1,0.1c0,0,0,0,0,0c0,0,0,0,0,0.1
										l0,0c0,0,0,0.1,0,0.1c0,0,0,0,0,0c0,0-0.1,0,0,0.1l0,0c0,0,0,0.1,0,0.1c0,0,0,0,0,0c0,0,0,0.1,0,0.1c0,0,0,0,0,0
										c0,0,0,0,0,0c0,0,0,0,0,0l0,0c0,0,0,0,0,0c0,0,0,0,0,0.1c0,0,0,0,0,0c0,0,0,0,0,0l0,0c0,0,0,0,0,0c0,0,0,0,0,0l0,0l0,0l0,0
										c0,0,0,0,0,0.1l0,0l0,0c0,0,0,0,0,0c0,0,0,0.1,0,0.1c0,0,0,0,0,0c0,0,0,0,0,0.1c0,0,0,0,0,0c0,0,0,0,0,0.1c0,0,0,0,0,0
										c0,0,0,0,0,0c0,0,0,0-0.1,0c0,0,0,0.1,0,0.1l0,0c0,0,0,0,0,0l0,0c0,0,0,0.1,0,0.1c0,0,0,0,0,0c0,0,0,0.1,0,0.1
										c0,0,0-0.1,0-0.1c0,0,0,0.1,0,0.2c-0.1,0,0,0.1-0.1,0.1c0,0,0,0,0,0.1c0,0,0,0,0,0c0,0,0,0.1-0.1,0c0,0,0,0,0,0
										c0,0,0,0-0.1,0c0,0,0,0,0,0l0,0c0,0,0,0,0,0c0,0,0,0,0,0c0,0,0,0,0,0c0,0,0,0,0,0c-0.1,0-0.1,0.1-0.2,0.1l0,0
										c-0.1,0,0,0,0,0.1c-0.1,0-0.2,0-0.3,0.1c0,0,0,0,0,0c0,0,0,0,0,0l0,0c-0.1,0-0.1,0.1-0.2,0c0,0-0.1,0-0.1,0.1c0,0,0,0,0,0
										l0,0l0,0C7-9,6.9-9.1,6.9-9l0,0c0,0,0,0,0,0c0,0,0,0,0,0c0,0,0,0-0.1,0.1c0,0,0,0,0,0c0,0,0,0,0,0c0,0-0.1,0-0.1,0
										c0,0,0,0,0,0c0,0-0.1,0.1-0.1,0.1l0,0c0,0,0,0,0,0c0,0,0,0,0,0l0,0c0,0,0,0,0,0c0,0,0,0,0,0l0,0c0,0,0,0,0,0
										c0,0-0.1,0.1-0.1,0.1l0,0c0,0,0,0-0.1,0c0,0,0,0,0,0c0,0,0,0,0,0c0,0,0,0,0,0l0,0c0,0-0.1,0-0.1,0c0,0,0,0,0,0l0,0l0,0l0,0
										l0,0c0,0,0,0,0,0c0,0,0,0-0.1,0c0,0,0,0,0,0.1C6-8.5,6-8.4,6-8.4l0,0c0,0,0,0,0,0.1l0,0c0,0-0.1,0.1-0.1,0.1c0,0,0,0,0,0
										c0,0,0,0,0,0c0,0,0,0,0,0l0,0c0,0-0.1,0.1-0.1,0.1c0,0,0,0,0,0c0,0,0,0.1,0,0.1l0,0c0,0,0,0,0,0c0,0,0,0,0,0c0,0,0,0,0,0.1
										l0,0c0,0,0,0,0,0c0,0-0.1,0-0.1,0c0,0,0,0,0,0c0,0,0,0,0,0.1c0,0,0,0,0,0l0,0c0,0,0,0,0,0c0,0,0,0,0,0.1c0,0,0,0,0,0l0,0
										c0,0,0,0,0,0c0,0,0,0,0,0c0,0,0,0,0,0l0,0C5.5-7.8,5.5-7.8,5.5-7.7C5.5-7.7,5.5-7.7,5.5-7.7C5.5-7.7,5.5-7.7,5.5-7.7
										C5.5-7.7,5.4-7.7,5.5-7.7C5.4-7.7,5.5-7.7,5.5-7.7C5.5-7.6,5.5-7.7,5.5-7.7z M5.7-8.1L5.7-8.1L5.7-8.1
										C5.7-8.1,5.7-8.1,5.7-8.1z M5.7-8.2C5.7-8.2,5.7-8.2,5.7-8.2C5.7-8.2,5.7-8.2,5.7-8.2C5.7-8.2,5.7-8.2,5.7-8.2z M5.6-8.2
										L5.6-8.2C5.6-8.2,5.6-8.2,5.6-8.2C5.6-8.2,5.5-8.2,5.6-8.2L5.6-8.2z"/>
									<polygon fill="#202020" points="5.6,-8.2 5.6,-8.2 5.6,-8.2 5.6,-8.2 									"/>
									<polygon fill="#202020" points="8.6,-11 8.6,-11 8.6,-11 									"/>
									<polygon fill="#202020" points="6.3,-8.5 6.3,-8.5 6.3,-8.5 									"/>
									<path fill="#202020" d="M8.8-11.2L8.8-11.2L8.8-11.2z"/>
									<path fill="#202020" d="M8.8-11.3L8.8-11.3C8.8-11.3,8.8-11.3,8.8-11.3z"/>
									<polygon fill="#202020" points="8.8,-11.4 8.8,-11.4 8.8,-11.4 									"/>
									<path fill="#202020" d="M8.4-10.1L8.4-10.1C8.4-10,8.4-10,8.4-10.1z"/>
									<path fill="#202020" d="M8.5-10.5C8.5-10.5,8.5-10.4,8.5-10.5C8.5-10.5,8.5-10.5,8.5-10.5z"/>
									<polygon fill="#202020" points="8.2,-9.6 8.2,-9.6 8.2,-9.6 									"/>
									<path fill="#202020" d="M8.5-10.4C8.5-10.4,8.5-10.4,8.5-10.4C8.5-10.4,8.5-10.4,8.5-10.4z"/>
									<polygon fill="#202020" points="9,-11.7 9,-11.7 9,-11.7 									"/>
									<path fill="#202020" d="M9-11.7L9-11.7L9-11.7z"/>
									<path fill="#202020" d="M9-11.7L9-11.7C9-11.7,9-11.7,9-11.7z"/>
									<path fill="#202020" d="M9-11.6L9-11.6L9-11.6z"/>
									<path fill="#202020" d="M8.9-11.6C9-11.6,9-11.6,8.9-11.6L8.9-11.6C9-11.6,8.9-11.6,8.9-11.6z"/>
									<path fill="#202020" d="M8.8-11.5L8.8-11.5C8.8-11.5,8.8-11.5,8.8-11.5C8.8-11.5,8.8-11.5,8.8-11.5z"/>
									<path fill="#202020" d="M8.7-11.4C8.8-11.4,8.7-11.4,8.7-11.4C8.7-11.4,8.7-11.4,8.7-11.4z"/>
									<path fill="#202020" d="M8.5-10.8L8.5-10.8C8.5-10.8,8.5-10.8,8.5-10.8z"/>
									<polygon fill="#202020" points="8.5,-10.6 8.6,-10.6 8.6,-10.6 									"/>
									<polygon fill="#202020" points="8.4,-10.6 8.4,-10.6 8.4,-10.6 									"/>
									<path fill="#202020" d="M8-9.7L8-9.7C8-9.6,8-9.7,8-9.7z"/>
									<path fill="#202020" d="M7.5-9.4C7.5-9.4,7.5-9.4,7.5-9.4C7.5-9.4,7.5-9.4,7.5-9.4z"/>
									<polygon fill="#202020" points="6.3,-8.7 6.3,-8.8 6.3,-8.7 									"/>
								</g>
							</g>
						</g>
					</g>
				</g>
			</g>
			<g>
				<g>
					<g>
						<g>
							<g>
								<g>
									<path fill="#202020" d="M6.8-6.3C6.8-6.3,6.8-6.3,6.8-6.3L6.8-6.3C6.8-6.3,6.9-6.3,6.8-6.3z"/>
									<path fill="#202020" d="M6.7-6.2c0,0,0.1,0,0.1,0C6.8-6.2,6.8-6.2,6.7-6.2C6.7-6.3,6.8-6.3,6.7-6.2
										C6.8-6.3,6.8-6.3,6.7-6.2C6.8-6.3,6.6-6.3,6.7-6.2C6.7-6.2,6.7-6.2,6.7-6.2z"/>
									<path fill="#202020" d="M9.2-5.7L9.2-5.7C9.2-5.7,9.2-5.7,9.2-5.7z"/>
									<path fill="#202020" d="M10.1-7.2C10-7.2,10-7.2,10.1-7.2C10.1-7.2,10.1-7.2,10.1-7.2z"/>
									<path fill="#202020" d="M10.3-7.4L10.3-7.4C10.3-7.4,10.3-7.4,10.3-7.4z"/>
									<path fill="#202020" d="M9.2-5.7L9.2-5.7C9.2-5.8,9.2-5.7,9.2-5.7z"/>
									<polygon fill="#202020" points="7.1,-6.1 7,-6.1 7.1,-6.1 									"/>
									<path fill="#202020" d="M8.6-5.5L8.6-5.5C8.5-5.5,8.5-5.5,8.6-5.5L8.6-5.5z"/>
									<path fill="#202020" d="M8-5.7C8-5.7,8.1-5.7,8-5.7C8.1-5.7,8-5.7,8-5.7C8-5.7,8-5.7,8-5.7z"/>
									<path fill="#202020" d="M7.2-6L7.2-6L7.2-6z"/>
									<path fill="#202020" d="M9-5.4L9-5.4L9-5.4z"/>
									<path fill="#202020" d="M7.1-6.8L7.1-6.8L7.1-6.8z"/>
									<polygon fill="#202020" points="6.8,-6.2 6.8,-6.2 6.8,-6.2 									"/>
									<path fill="#202020" d="M10.8-7.6L10.8-7.6C10.7-7.6,10.7-7.6,10.8-7.6z"/>
									<path fill="#202020" d="M13.1-10.9C13.2-10.9,13-11,13.1-10.9C13.1-10.9,13.2-10.9,13.1-10.9z"/>
									<path fill="#202020" d="M7.1-6.1L7.1-6.1C7.1-6.1,7.1-6.1,7.1-6.1z"/>
									<polygon fill="#202020" points="13.1,-10.9 13.1,-10.9 13.1,-10.9 									"/>
									<path fill="#202020" d="M11.9-8.1C11.9-8.1,11.9-8.1,11.9-8.1C11.9-8.1,11.9-8.1,11.9-8.1z"/>
									<path fill="#202020" d="M11-7.7L11-7.7C11-7.7,11-7.7,11-7.7z"/>
									<path fill="#202020" d="M12.2-8.5C12.2-8.5,12.2-8.5,12.2-8.5L12.2-8.5C12.3-8.5,12.2-8.5,12.2-8.5z"/>
									<polygon fill="#202020" points="12.5,-8.9 12.5,-8.9 12.5,-8.9 									"/>
									<path fill="#202020" d="M8-8C8-8,8-8,8-8C8-8,7.9-8,8-8z"/>
									<path fill="#202020" d="M7.1-6.1C7.1-6.1,7.1-6.1,7.1-6.1C7.1-6.1,7.1-6.1,7.1-6.1L7.1-6.1z"/>
									<path fill="#202020" d="M12.1-8.6L12.1-8.6C12.2-8.6,12.1-8.6,12.1-8.6z"/>
									<path fill="#202020" d="M11-9.5L11-9.5C11-9.5,11-9.5,11-9.5z"/>
									<path fill="#202020" d="M12.3-8.8C12.3-8.9,12.3-8.9,12.3-8.8L12.3-8.8L12.3-8.8z"/>
									<path fill="#202020" d="M8-8L8-8L8-8z"/>
									<path fill="#202020" d="M7.7-7.6C7.6-7.6,7.6-7.6,7.7-7.6C7.6-7.5,7.5-7.5,7.6-7.5c0,0,0,0-0.1,0c0,0,0,0.1,0,0.1
										c0,0,0-0.1,0,0c0,0,0,0.1,0,0.1c0,0,0,0-0.1,0.1c0,0,0,0,0,0c0,0.1-0.1,0.2-0.1,0.2c0,0-0.1,0.2-0.1,0.1c0,0,0,0.1,0,0.1
										c0,0,0,0.1-0.1,0.1c0,0,0,0.1,0,0.1c0,0,0,0,0,0c0,0,0,0,0,0.1c0,0.1,0,0,0,0c0,0,0,0,0,0l0,0.1c0,0,0,0,0,0
										c0,0,0,0.1,0,0.1l0-0.1l0,0l0,0.1c-0.1,0.1-0.1,0.1-0.1,0l0,0c0,0,0,0,0,0c0,0,0-0.1,0-0.1c0-0.1,0,0,0.1-0.1l0-0.1l0,0
										c0,0,0,0,0,0c0,0,0-0.1,0.1-0.1l0,0C7-6.9,7.1-6.9,7.1-7l0-0.1l0,0c0,0,0-0.1,0-0.1c0.2-0.2,0.3-0.5,0.5-0.6c0,0,0,0,0,0
										C7.9-8,7.9-8.2,8.1-8.3l0,0c0.1-0.1,0,0,0.1,0c0,0,0.1-0.1,0.1-0.1c0,0,0,0,0,0c0,0,0,0,0,0c0-0.1,0.2-0.1,0.3-0.2
										c0,0,0.1,0,0.2,0c0,0,0,0,0,0c0,0,0.1,0,0.1,0c0,0-0.1,0-0.1,0l0,0c0,0,0,0,0,0c0,0,0,0,0,0c0,0,0,0,0,0c0,0,0.1,0,0.1,0
										c0,0,0,0,0.1,0c0,0,0,0,0,0l0,0c0,0,0,0,0,0c0.1,0,0.2-0.1,0.2-0.1c0,0,0,0,0,0c0,0-0.1,0-0.2,0c0,0,0,0,0,0
										c0.1,0,0.1-0.1,0.2-0.1c0,0,0,0,0,0c0,0,0.1,0,0.1,0c0,0,0.1,0,0.1,0c0,0,0,0,0.1,0l0,0c0.1,0,0.1,0,0.1,0c0,0,0,0,0,0
										c0.1,0,0.1,0,0.1,0l0,0c0.1,0,0.2,0,0.2,0c0,0,0.2,0,0.2,0c0,0,0,0,0,0c0.1,0,0.3,0.1,0.3,0l0,0c0-0.1,0-0.1,0-0.2l0,0
										c0.1-0.1,0.1-0.2,0.1-0.3l0,0c0-0.1,0-0.1,0-0.1c0.1-0.1,0.1-0.3,0.2-0.4l0,0C11-10,11-10,11-10l0,0c0,0,0-0.1,0-0.1
										c0,0,0-0.1,0,0c0.1-0.1,0.2-0.4,0.2-0.4c0.1-0.2,0.1-0.3,0.2-0.4l0,0c0,0,0.1-0.1,0.1-0.1c0.1-0.1,0.1-0.2,0.2-0.3l0,0
										c0,0,0.1-0.1,0.1-0.1c0,0,0,0,0,0c0,0,0.1,0,0.1,0l0,0c0.1,0.1,0.3,0.1,0.4,0.2c0,0,0,0,0,0c0.1,0,0.2,0.1,0.3,0.1l0,0
										c0.1,0,0.1,0.1,0.2,0.1l-0.1,0c0,0,0.1,0,0.1,0c0,0,0,0,0.1,0.1c0,0-0.1,0,0,0l0.1,0.1c0,0,0,0,0.1,0c0,0,0.1,0,0.1,0
										c0.2,0.1,0.3,0.2,0.4,0.2c0,0,0.1,0.1,0.1,0.2c0,0.1-0.1,0.1-0.1,0.1c0,0.1-0.1,0.1-0.1,0.2c0,0,0,0,0,0
										c0,0-0.1,0.1-0.1,0.1c0,0,0.1-0.1,0.1-0.2c-0.1,0.1-0.1,0.1-0.1,0.2l0,0c0,0.1-0.1,0-0.1,0.1l0,0c-0.1,0.1-0.1,0.1-0.1,0.2
										l0,0c0,0,0,0.1-0.1,0.1l0-0.1c0,0-0.1,0-0.1,0c0,0.1,0,0,0,0.1c0,0,0,0,0,0c-0.1,0.1-0.1,0.2-0.1,0.2l0,0
										c-0.1,0.1-0.1,0.1-0.1,0.2l0,0c-0.1,0-0.1,0.2-0.1,0.2c0,0,0-0.1,0,0c-0.1,0.1,0,0.1-0.1,0.2c0,0,0,0,0,0
										c0,0.1-0.1,0.1-0.1,0.2c-0.1,0.1-0.1,0.2-0.2,0.3c0,0,0,0,0,0c0,0,0,0,0,0c0,0,0,0,0,0.1c0,0-0.1,0.1-0.1,0.1
										c0,0,0,0,0,0.1c0-0.1,0,0,0-0.1c-0.1,0.1,0,0.1-0.1,0.2l-0.1,0c0,0-0.1,0.1-0.1,0.1c0,0,0,0-0.1,0c0,0-0.1,0.1-0.1,0.1l0,0
										c-0.1,0.1-0.2,0.1-0.3,0.2l0,0c-0.1,0-0.1,0.1-0.2,0.1c0,0,0,0,0,0c0,0,0.1,0,0.1-0.1l-0.1,0.1l0.1-0.1c0,0,0,0,0,0
										c-0.1,0-0.1,0-0.2,0.1c0,0,0,0,0,0c-0.1,0-0.1,0-0.2,0.1c0,0,0,0,0,0c0,0-0.1,0-0.1,0l0,0c0,0,0,0-0.1,0c0,0,0,0,0,0
										c0,0-0.1,0,0,0c-0.1,0,0,0.1-0.1,0.1c0,0,0,0,0,0c0,0,0,0-0.1,0c0.1,0,0,0,0.1-0.1c0,0-0.1,0-0.1,0c0,0,0,0,0,0.1
										c0,0,0,0,0,0l0,0c0,0,0,0-0.1,0l0,0c0,0-0.1,0-0.2,0.1c0,0,0,0,0,0c-0.1,0,0,0-0.1,0c-0.1,0,0,0-0.1,0.1c0,0,0,0,0,0
										c-0.1,0-0.1,0.1-0.2,0.1c0,0,0.1,0,0,0c0,0-0.1,0-0.1,0.1l0,0c0,0,0,0,0,0c0,0,0,0,0,0c0,0,0,0-0.1,0c0,0.1,0,0.1,0,0.1
										C9.9-7.1,10-7.1,9.9-7c0,0-0.1,0.1-0.1,0.1c0,0,0-0.1,0,0C9.8-6.8,9.8-6.7,9.7-6.6l0,0c0,0,0,0-0.1,0.1l0,0
										c0,0-0.1,0.1-0.1,0.1c0,0.1,0,0.1-0.1,0.1c0-0.1,0,0,0-0.1c-0.1,0.1,0,0.1-0.1,0.1c0,0,0,0,0,0c0,0.1-0.1,0.1-0.1,0.2l0,0
										C9.3-5.9,9.2-5.8,9.2-5.7l0,0l0,0l0,0l0,0c0,0,0,0.1,0,0.1c0,0,0,0,0,0c0,0,0,0,0,0.1c0,0,0,0-0.1,0c0,0,0,0,0,0
										c0,0-0.1,0-0.1,0c0,0,0,0,0,0c0,0,0,0,0,0c0,0,0,0-0.1,0l0,0c0,0,0,0,0,0c0,0,0,0,0,0c-0.1,0,0,0,0,0.1
										c-0.1,0-0.2,0-0.2-0.1l0,0c0,0-0.1,0-0.1,0l0,0c0,0,0,0,0.1,0c-0.1,0-0.1-0.1-0.1,0l0,0c-0.1,0-0.2-0.1-0.2-0.1
										C8.1-5.7,8.1-5.8,8-5.7c0,0-0.1-0.1-0.1-0.1c0,0,0,0,0,0c0,0-0.1,0-0.1-0.1c-0.1,0,0,0,0,0c0,0-0.1,0-0.2-0.1c0,0,0,0,0,0
										c0,0,0,0,0,0l0,0l0-0.1c-0.1,0,0,0-0.1,0l0,0c0,0-0.1,0-0.2,0c0,0,0,0,0,0L7.2-6c0,0,0,0,0,0c0,0,0,0-0.1,0c0,0,0,0,0,0
										L7-6.1l0,0c-0.1,0-0.2,0-0.2-0.1l0,0c0,0,0,0,0,0c0,0,0,0,0,0l0,0c0,0,0.1,0,0.1,0c0,0-0.1,0-0.1,0c0,0,0.1,0,0.1,0
										c0,0,0,0,0,0c0,0,0,0,0.1,0c0,0,0,0,0,0c0.1,0,0.1,0,0.1,0c0,0-0.1,0,0,0c0.1,0,0.1,0,0.2,0C7.6-6,7.7-6,7.8-6
										c0,0-0.1,0,0,0c0,0,0,0,0,0c0.1,0,0.1,0,0.1,0c0,0,0,0,0,0c0,0,0.1,0,0,0c0.1,0,0.1,0.1,0.2,0.1l0,0l0.1,0.1l0,0
										c0,0,0,0,0.1,0.1c0,0,0,0-0.1,0c0,0,0.1,0,0.1,0.1c0,0-0.1,0,0,0c0,0,0.1,0,0.1,0l0,0c0.1,0.1,0.1,0,0.1,0c0,0,0,0,0,0
										c0,0,0.1,0.1,0,0c0,0,0.1,0,0.1,0c0,0,0,0,0,0l0.1,0c0,0,0,0,0,0c0.1,0.1,0.3,0,0.4-0.1c0,0,0,0,0,0c0,0,0.1-0.1,0.1-0.2
										l0,0C9.2-5.9,9.3-6,9.3-6.1c0,0,0,0,0,0c0-0.1,0.1-0.1,0.1-0.1l0,0c0.1-0.1,0.1-0.3,0.2-0.4c0,0,0,0.1,0,0.1
										c0.1-0.1,0.1-0.2,0.1-0.3c0,0,0,0,0,0c0.1-0.1,0,0,0-0.1c0,0,0,0,0,0l0,0c0,0,0,0,0,0c0,0,0.1-0.1,0.1-0.2c0,0,0,0,0,0
										c0,0,0-0.1,0-0.1l0,0c0,0,0.1-0.1,0.1-0.1c0.1-0.1,0,0,0-0.1l-0.1,0L10-7.3l0,0c0,0,0.1-0.1,0.1-0.1l0,0l0.1-0.1
										c0,0,0.1,0,0.1,0c0.1-0.1,0.2-0.1,0.3-0.2c0,0,0,0,0,0c0.1,0,0.1-0.1,0.1-0.1c0,0,0,0,0,0c0.1,0,0,0,0.1-0.1c0,0,0,0,0,0
										c0,0,0,0,0,0c0,0.1,0.1,0,0.1,0c0,0,0.1-0.1,0.1-0.1l0,0c0,0,0,0,0.1,0c0,0,0,0,0,0c0.1-0.1,0.3-0.1,0.4-0.2c0,0-0.1,0,0,0
										c0.1,0,0.2-0.1,0.3-0.2c0,0-0.1,0.1-0.1,0.1c0.1-0.1,0.3-0.2,0.4-0.3c0.1,0,0.1-0.1,0.2-0.2c0,0,0,0,0-0.1c0,0,0,0,0,0
										c0,0,0.1-0.2,0.1-0.1c0,0,0.1-0.1,0.1-0.1c0,0,0.1-0.1,0.1-0.2c0,0,0-0.1,0-0.1c0,0,0,0,0,0c0,0,0-0.1,0.1-0.1c0,0,0,0,0,0
										c0,0,0-0.1,0.1-0.2c0,0,0,0,0,0c0.1-0.2,0.3-0.4,0.4-0.5l0,0c0.1-0.1,0-0.1,0.1-0.2c0.2-0.2,0.6-0.4,0.3-0.5c0,0,0,0,0,0
										c0,0,0,0-0.1,0l0,0c-0.1-0.1-0.4-0.1-0.4-0.2c-0.1,0-0.2-0.1-0.3-0.1c0,0,0.1,0,0,0l-0.1,0l0,0c-0.1,0-0.3-0.2-0.5-0.3l0,0
										c0,0,0,0,0,0c0,0,0,0,0,0c-0.1,0,0,0-0.2,0.1c0,0,0,0-0.1,0c0,0,0,0,0,0.1c0,0.1-0.1,0.1-0.2,0.2c0,0,0,0.1,0,0.1
										c-0.1,0.1-0.1,0.1-0.1,0.3l0,0c0,0-0.1,0.1-0.1,0.1c0,0,0,0,0,0l0,0.1c0,0,0-0.1,0,0c0,0.1,0,0,0,0l0,0c0,0,0,0.1,0,0
										c-0.1,0.1-0.1,0.2-0.2,0.4l0,0c0,0.1-0.1,0.1-0.1,0.2c0,0,0,0,0,0c0,0.1,0,0,0,0.1c0,0,0,0,0-0.1L11-9.6
										c0,0-0.1,0.1-0.1,0.1c0,0,0,0,0,0l0,0l0,0l0,0.1l0,0c0,0,0,0.1,0,0.1c-0.1,0.1-0.1,0.1-0.1,0.2c0,0-0.1,0.1-0.1,0.2
										c0,0-0.1,0.2-0.3,0.2c-0.1,0-0.2,0-0.3,0l0,0c-0.1,0-0.1,0-0.2,0l0,0c-0.1,0-0.3,0-0.4,0c0,0,0,0,0,0c0,0,0,0,0,0
										c0,0,0,0,0,0l-0.1,0c-0.1,0-0.3,0-0.5,0.1c0,0,0,0,0,0c-0.1,0-0.2,0.1-0.3,0.2l0,0c0,0,0,0-0.1,0.1c0,0,0,0,0.1,0
										c-0.1,0,0,0-0.1,0.1l0,0c-0.1,0-0.1,0.1-0.1,0.1c-0.1,0.1-0.1,0-0.2,0.1c0,0,0,0,0,0C8.1-8.1,8.1-8.1,8.1-8c-0.1,0,0,0,0,0
										l0.1,0c-0.1,0,0,0,0-0.1C8.1-8.1,8-8.1,8-8C8-8,8-8.1,8-8.1l0,0c0,0,0,0,0,0c0,0,0,0-0.1,0c0,0,0,0,0,0c0,0,0,0,0,0
										c0,0.1-0.1,0.1-0.2,0.2c0,0,0,0,0,0C7.8-7.8,7.8-7.7,7.7-7.6C7.7-7.7,7.7-7.7,7.7-7.6C7.7-7.6,7.7-7.7,7.7-7.6
										C7.7-7.6,7.7-7.7,7.7-7.6z M9-8.6C9-8.6,9-8.6,9-8.6L9-8.6C9-8.6,9-8.6,9-8.6z M9.1-8.7C9.1-8.7,9.1-8.7,9.1-8.7
										C9.1-8.7,9.1-8.7,9.1-8.7C9.1-8.7,9.1-8.7,9.1-8.7z M8.8-8.7L8.8-8.7C8.8-8.7,8.8-8.7,8.8-8.7C8.8-8.7,8.8-8.7,8.8-8.7
										C8.8-8.7,8.8-8.7,8.8-8.7z"/>
									<path fill="#202020" d="M8.8-8.7L8.8-8.7C8.8-8.7,8.8-8.7,8.8-8.7L8.8-8.7L8.8-8.7z"/>
									<polygon fill="#202020" points="9.2,-5.7 9.2,-5.7 9.2,-5.7 									"/>
									<polygon fill="#202020" points="10.9,-9.4 10.9,-9.4 10.9,-9.4 									"/>
									<path fill="#202020" d="M8.5-5.6C8.5-5.6,8.5-5.6,8.5-5.6C8.5-5.6,8.5-5.6,8.5-5.6z"/>
									<path fill="#202020" d="M8.2-5.7L8.2-5.7C8.2-5.8,8.2-5.7,8.2-5.7z"/>
									<polygon fill="#202020" points="8,-5.9 8,-5.9 8,-5.9 									"/>
									<path fill="#202020" d="M11-7.9C11-7.9,11-7.9,11-7.9C11-7.9,11-7.9,11-7.9z"/>
									<path fill="#202020" d="M9.9-7.1C9.9-7.2,9.9-7.2,9.9-7.1C9.9-7.2,9.9-7.1,9.9-7.1z"/>
									<polygon fill="#202020" points="12.1,-8.6 12.1,-8.6 12.1,-8.6 									"/>
									<path fill="#202020" d="M10-7.2C9.9-7.2,9.9-7.2,10-7.2C9.9-7.2,9.9-7.2,10-7.2z"/>
									<polygon fill="#202020" points="6.9,-6.2 6.9,-6.2 6.9,-6.2 									"/>
									<path fill="#202020" d="M6.9-6.2L6.9-6.2L6.9-6.2z"/>
									<path fill="#202020" d="M6.8-6.2L6.8-6.2C6.8-6.2,6.8-6.2,6.8-6.2z"/>
									<path fill="#202020" d="M7.2-6.1L7.2-6.1L7.2-6.1z"/>
									<path fill="#202020" d="M7.3-6.1C7.3-6.1,7.2-6.1,7.3-6.1l-0.1,0C7.2-6.1,7.3-6.1,7.3-6.1z"/>
									<path fill="#202020" d="M7.7-5.9L7.7-5.9C7.6-5.9,7.7-5.9,7.7-5.9C7.7-5.8,7.6-5.9,7.7-5.9z"/>
									<path fill="#202020" d="M8-5.8C7.9-5.8,8-5.8,8-5.8C8-5.8,8-5.7,8-5.8z"/>
									<path fill="#202020" d="M9.5-6.3L9.5-6.3C9.5-6.3,9.5-6.3,9.5-6.3z"/>
									<polygon fill="#202020" points="9.6,-6.6 9.6,-6.6 9.6,-6.6 									"/>
									<polygon fill="#202020" points="9.8,-6.8 9.8,-6.8 9.9,-6.8 									"/>
									<path fill="#202020" d="M12.5-8.8L12.5-8.8C12.5-8.8,12.5-8.8,12.5-8.8z"/>
									<path fill="#202020" d="M13.3-10C13.4-10,13.4-10,13.3-10C13.4-10,13.4-10,13.3-10z"/>
									<polygon fill="#202020" points="10.9,-9.8 10.9,-9.9 10.9,-9.8 									"/>
								</g>
							</g>
						</g>
					</g>
				</g>
				<g>
					<g>
						<g>
							<g>
								<g>
									<path fill="#202020" d="M12.1-10.8C12-10.8,12-10.8,12.1-10.8L12.1-10.8L12.1-10.8z"/>
									<path fill="#202020" d="M12-10.7C12-10.7,12-10.7,12-10.7C12-10.7,12-10.7,12-10.7C12-10.7,12-10.7,12-10.7
										C12-10.7,12-10.7,12-10.7C12-10.8,12-10.7,12-10.7C12-10.7,12-10.7,12-10.7z"/>
									<path fill="#202020" d="M11.5-10L11.5-10L11.5-10z"/>
									<path fill="#202020" d="M11.2-9.5L11.2-9.5L11.2-9.5z"/>
									<path fill="#202020" d="M11.1-9.4L11.1-9.4L11.1-9.4z"/>
									<path fill="#202020" d="M11.5-10L11.5-10C11.5-10,11.5-10,11.5-10z"/>
									<polygon fill="#202020" points="11.9,-10.6 11.9,-10.6 11.9,-10.6 									"/>
									<polygon fill="#202020" points="11.6,-10.2 11.6,-10.2 11.6,-10.2 									"/>
									<path fill="#202020" d="M11.6-10.4C11.6-10.4,11.7-10.4,11.6-10.4C11.7-10.4,11.7-10.4,11.6-10.4
										C11.7-10.4,11.7-10.4,11.6-10.4z"/>
									<path fill="#202020" d="M11.8-10.6L11.8-10.6L11.8-10.6z"/>
									<path fill="#202020" d="M11.5-10.1L11.5-10.1L11.5-10.1z"/>
									<path fill="#202020" d="M7.8-6.6L7.8-6.6L7.8-6.6z"/>
									<polygon fill="#202020" points="7.6,-6.4 7.6,-6.4 7.6,-6.4 									"/>
									<path fill="#202020" d="M11-9.2L11-9.2C11-9.2,11-9.2,11-9.2z"/>
									<path fill="#202020" d="M9.8-8.4C9.8-8.4,9.8-8.4,9.8-8.4C9.8-8.4,9.8-8.4,9.8-8.4z"/>
									<path fill="#202020" d="M11.9-10.6L11.9-10.6L11.9-10.6z"/>
									<polygon fill="#202020" points="9.8,-8.3 9.8,-8.3 9.8,-8.3 									"/>
									<path fill="#202020" d="M10.8-8.9L10.8-8.9C10.9-8.9,10.8-8.9,10.8-8.9z"/>
									<path fill="#202020" d="M11-9.1L11-9.1L11-9.1z"/>
									<path fill="#202020" d="M10.8-8.7C10.8-8.7,10.8-8.7,10.8-8.7L10.8-8.7L10.8-8.7z"/>
									<polygon fill="#202020" points="10.7,-8.7 10.7,-8.7 10.7,-8.7 									"/>
									<path fill="#202020" d="M8-7L8-7C8-7,8-7,8-7z"/>
									<polygon fill="#202020" points="11.9,-10.6 11.9,-10.6 11.9,-10.6 									"/>
									<path fill="#202020" d="M10.9-8.6L10.9-8.6C10.9-8.6,10.9-8.6,10.9-8.6z"/>
									<path fill="#202020" d="M8.9-7.7L8.9-7.7L8.9-7.7z"/>
									<path fill="#202020" d="M10.8-8.5C10.8-8.6,10.8-8.6,10.8-8.5L10.8-8.5L10.8-8.5z"/>
									<path fill="#202020" d="M8-7L8-7L8-7z"/>
									<path fill="#202020" d="M7.9-6.9C7.9-6.8,7.9-6.8,7.9-6.9C7.9-6.8,7.9-6.8,7.9-6.9C7.9-6.8,7.9-6.8,7.9-6.9
										C7.9-6.8,7.9-6.8,7.9-6.9C7.9-6.8,7.9-6.8,7.9-6.9C7.9-6.8,7.9-6.7,7.9-6.7c0,0,0,0,0,0l0,0c0,0,0,0.1,0,0.1
										c0,0,0,0.1-0.1,0c0,0,0,0,0,0c0,0,0,0,0,0c0,0,0,0,0,0c0,0,0,0,0,0c0,0,0,0,0,0c0,0,0,0,0,0c0,0,0,0,0,0l0,0c0,0,0,0,0,0
										c0,0,0,0,0,0l0,0l0,0l0,0c0,0-0.1,0-0.1,0l0,0c0,0,0,0,0,0c0,0,0,0,0-0.1c0,0,0,0,0.1,0l0,0l0,0c0,0,0,0,0,0c0,0,0,0,0,0
										l0,0c0-0.1,0.1-0.1,0.1-0.1l0,0l0,0c0,0,0,0,0,0C7.8-6.8,7.8-6.9,7.9-7c0,0,0,0,0,0c0.1,0,0-0.1,0.1-0.2l0,0c0,0,0,0,0,0
										c0,0,0,0,0-0.1c0,0,0,0,0,0c0,0,0,0,0,0c0,0,0-0.1,0-0.1c0,0,0,0,0.1,0c0,0,0,0,0,0c0,0,0,0,0,0l0,0l0,0l0,0c0,0,0,0,0,0
										c0,0,0,0,0,0c0,0,0,0,0,0c0,0,0,0,0,0c0,0,0,0,0,0l0,0l0,0c0,0,0-0.1,0-0.1c0,0,0,0,0,0c0,0,0,0,0,0c0,0,0,0,0,0
										c0,0,0,0,0.1-0.1c0,0,0,0,0,0c0,0,0,0,0,0c0,0,0,0,0,0c0,0,0,0,0,0l0,0c0,0,0,0,0,0c0,0,0,0,0,0c0,0,0,0,0-0.1l0,0
										c0,0,0-0.1,0.1,0c0,0,0,0,0.1-0.1c0,0,0,0,0,0c0,0,0.1,0,0.1-0.1l0,0c0,0,0-0.1,0-0.1l0,0c0,0,0.1,0,0.1,0l0,0c0,0,0,0,0,0
										c0,0,0.1-0.1,0.2,0l0,0c0,0,0,0,0.1,0l0,0c0,0,0,0,0,0c0,0,0,0,0,0C9-8,9.1-8,9.1-8c0,0,0.1-0.1,0.1-0.1l0,0
										c0,0,0.1,0,0.1,0c0,0,0-0.1,0.1-0.1l0,0c0,0,0,0,0,0l0,0c0,0,0,0,0,0l0,0c0,0,0.1-0.1,0.1-0.1c0,0,0,0,0,0
										c0,0,0.1-0.1,0.1-0.1l0,0c0,0,0,0,0.1,0l0,0c0,0,0,0,0,0c0,0,0,0,0,0c0,0,0,0,0,0l0,0c0,0,0,0,0,0c0,0,0,0,0,0
										c0.1,0,0.1,0,0.1,0c0,0,0.1,0,0.1,0c0,0,0,0,0.1-0.1c0,0,0,0,0,0c0,0,0,0,0,0c0,0,0,0,0,0.1c0,0,0,0,0.1-0.1l0,0
										c0,0,0,0,0,0l0,0c0,0,0,0,0.1-0.1l0,0c0,0,0,0,0,0l0,0c0,0,0,0,0,0c0,0,0,0,0,0c0,0,0,0,0,0c0,0,0.1,0,0.1-0.1l0,0
										c0,0,0,0,0.1,0l0,0c0,0,0,0,0.1,0c0,0,0,0,0,0c0,0,0,0,0,0l0,0c0,0,0,0,0.1,0c0,0,0.1,0,0.1,0c0,0,0,0,0,0l0,0c0,0,0,0,0,0
										c0,0,0,0,0,0c0,0,0,0,0,0c0,0,0,0,0,0c0,0,0-0.1,0-0.1l0,0c0,0,0,0,0,0c0,0,0,0,0,0c0,0,0,0,0,0l0,0c0,0,0-0.1,0-0.1l0,0
										c0,0,0,0,0-0.1c0,0,0,0,0,0c0,0,0,0,0,0l0,0l0,0c0,0,0,0,0,0c0,0,0,0,0,0c0,0,0,0,0,0c0,0,0,0,0-0.1c0,0,0,0,0,0
										c0,0,0,0,0,0l0,0c0,0,0,0,0,0c0,0,0,0,0,0c0,0,0,0,0,0c0,0,0,0,0-0.1l0,0c0,0,0,0,0,0c0,0,0,0,0,0c0,0,0,0,0,0c0,0,0,0,0,0
										c0,0,0,0,0,0l0,0c0,0,0,0,0,0l0,0c0,0,0,0,0-0.1c0,0,0,0,0,0c0,0,0,0,0,0c0,0,0,0,0-0.1c0,0,0,0,0,0c0,0,0,0,0-0.1
										c0,0,0,0,0,0c0,0,0,0,0,0l0,0c0,0,0,0,0,0c0,0,0,0,0,0c0,0,0,0,0,0c0,0,0,0,0,0c0,0,0,0,0-0.1c0,0,0,0,0.1,0c0,0,0,0,0,0
										c0.1,0,0-0.1,0.1-0.1l0,0c0,0,0,0,0,0l0,0c0,0,0,0,0,0c0,0,0,0,0,0c0,0,0,0,0,0c0,0,0,0,0,0c0,0,0,0,0,0c0,0,0,0,0-0.1l0,0
										c0,0,0.1-0.1,0.1-0.1l0,0l0,0l0,0l0,0c0,0,0,0,0-0.1c0,0,0,0,0,0c0,0,0,0,0,0c0,0,0,0,0,0c0,0,0,0,0,0c0,0,0,0,0,0
										c0,0,0,0,0,0c0,0,0,0,0,0c0,0,0,0,0,0l0,0c0,0,0,0,0,0c0,0,0,0,0,0c0,0,0,0-0.1,0c0,0,0-0.1,0-0.1l0,0c0,0,0,0,0,0l0,0
										c0,0,0,0,0,0c0,0,0,0,0-0.1l0,0c0,0,0.1-0.1,0.1-0.1c0,0,0-0.1,0-0.1c0,0,0.1,0,0,0c0,0,0,0,0,0c0,0,0,0,0,0c0,0,0,0,0,0
										c0,0,0,0,0.1,0c0,0,0,0,0,0c0,0,0,0,0,0l0,0l0.1,0c0,0,0,0,0-0.1l0,0c0,0,0,0,0,0c0,0,0,0,0,0l0,0l0,0c0,0,0,0,0,0
										c0,0,0,0,0,0l0,0l0,0c0,0,0-0.1,0-0.1l0,0c0,0,0,0,0,0c0,0,0,0,0,0l0,0c0,0,0,0,0,0.1c0,0,0,0,0,0c0,0,0,0,0,0.1
										c0,0,0,0,0,0c0,0,0,0,0,0c0,0,0,0,0,0c0,0,0,0,0,0c0,0,0,0,0,0c0,0,0,0.1,0,0.1c0,0.1-0.1,0.1-0.1,0.1c0,0,0,0,0,0
										c0,0,0,0,0,0c0,0,0,0,0,0c0,0,0,0,0,0c0,0,0,0,0,0c0,0,0,0,0,0.1l0,0l0,0l0,0c0,0,0,0,0,0c0,0,0,0,0,0c0,0,0,0,0,0.1
										c0,0,0,0,0,0c0,0,0,0,0,0l0,0c0,0,0,0,0,0l0,0c0,0,0,0,0,0c0,0,0,0,0,0c0,0,0,0,0,0l0,0c0,0,0,0,0,0c-0.1,0,0,0.1-0.1,0.1
										c0,0,0,0,0,0c0,0,0,0,0,0.1l0,0c0,0,0,0.1,0,0.1c0,0,0,0,0,0c0,0-0.1,0,0,0l0,0c0,0,0,0.1,0,0.1c0,0,0,0,0,0
										c0,0,0,0.1,0,0.1c0,0,0,0,0,0c0,0,0,0,0,0c0,0,0,0,0,0l0,0c0,0,0,0,0,0c0,0,0,0,0,0.1c0,0,0,0,0,0c0,0,0,0,0,0l0,0
										c0,0,0,0,0,0c0,0,0,0,0,0l0,0l0,0l0,0c0,0,0,0,0,0.1l0,0l0,0c0,0,0,0,0,0c0,0,0,0.1,0,0.1c0,0,0,0,0,0c0,0,0,0,0,0.1
										c0,0,0,0,0,0c0,0,0,0,0,0.1c0,0,0,0,0,0c0,0,0,0,0,0c0,0,0,0-0.1,0c0,0,0,0.1,0,0.1l0,0c0,0,0,0,0,0c0,0,0,0,0,0
										c0,0,0,0.1,0,0.1c0,0,0,0,0,0c0,0,0,0.1,0,0.1c0,0,0,0,0-0.1c0,0,0,0.1,0,0.2c-0.1,0,0,0.1-0.1,0.1c0,0,0,0,0,0.1
										c0,0,0,0,0,0c0,0-0.1,0.1-0.1,0c0,0,0,0,0,0c0,0,0,0-0.1,0c0,0,0,0,0,0l0,0c0,0,0,0,0,0c0,0,0,0,0,0c0,0,0,0,0,0
										c0,0,0,0,0,0c-0.1,0-0.1,0-0.2,0.1l0,0c-0.1,0,0,0-0.1,0.1c-0.1,0-0.2,0-0.3,0.1c0,0,0,0,0,0c0,0,0,0,0,0l0,0
										c-0.1,0-0.1,0.1-0.2,0c0,0-0.1,0-0.1,0.1c0,0,0,0,0,0l0,0l0,0c0,0.1-0.1,0-0.2,0.1l0,0c0,0,0,0,0,0c0,0,0,0,0,0
										c0,0,0,0-0.1,0.1c0,0,0,0,0,0c0,0,0,0,0,0c0,0-0.1,0-0.1,0c0,0,0,0,0,0c0,0-0.1,0.1-0.1,0.1l0,0c0,0,0,0,0,0c0,0,0,0,0,0
										l0,0c0,0,0,0,0,0c0,0,0,0,0,0l0,0c0,0,0,0,0,0c0,0-0.1,0.1-0.1,0.1l0,0c0,0,0,0-0.1,0c0,0,0,0,0,0c0,0,0,0,0,0c0,0,0,0,0,0
										l0,0c0,0-0.1,0-0.1,0c0,0,0,0,0,0l0,0l0,0l0,0l0,0c0,0,0,0,0,0c-0.1,0,0,0-0.1,0c0,0-0.1,0,0,0.1c-0.1,0-0.1,0-0.2,0.1l0,0
										c0,0,0,0,0,0.1l0,0c0,0-0.1,0.1-0.1,0.1c0,0,0,0,0,0c0,0,0,0,0,0c0,0,0,0,0,0l0,0c0,0-0.1,0-0.1,0.1c0,0,0,0,0,0
										c0,0,0,0.1-0.1,0.1l0,0c0,0,0,0,0,0c0,0,0,0,0,0c0,0,0,0,0,0.1l0,0c0,0,0,0,0,0c0,0-0.1,0-0.1,0c0,0,0,0,0,0c0,0,0,0,0,0.1
										c0,0,0,0,0,0l0,0c0,0,0,0,0,0c0,0,0,0,0,0.1c0,0,0,0,0,0l0,0c0,0,0,0,0,0c0,0,0,0,0,0c0,0,0,0,0,0l0,0C8-7,8-6.9,7.9-6.9
										C8-6.9,8-6.9,7.9-6.9C8-6.9,8-6.9,7.9-6.9C8-6.9,7.9-6.9,7.9-6.9C7.9-6.9,8-6.9,7.9-6.9C8-6.8,8-6.9,7.9-6.9z M8.2-7.3
										L8.2-7.3L8.2-7.3C8.2-7.3,8.2-7.3,8.2-7.3z M8.3-7.4C8.3-7.4,8.3-7.3,8.3-7.4C8.3-7.3,8.3-7.3,8.3-7.4
										C8.3-7.4,8.3-7.3,8.3-7.4z M8.1-7.4L8.1-7.4C8.1-7.4,8.1-7.4,8.1-7.4C8.1-7.4,8.1-7.4,8.1-7.4L8.1-7.4z"/>
									<polygon fill="#202020" points="8.1,-7.4 8.1,-7.3 8.1,-7.3 8.1,-7.4 									"/>
									<polygon fill="#202020" points="11.5,-10 11.5,-10 11.5,-10 									"/>
									<polygon fill="#202020" points="8.9,-7.7 8.9,-7.7 8.9,-7.7 									"/>
									<path fill="#202020" d="M11.7-10.2L11.7-10.2L11.7-10.2z"/>
									<path fill="#202020" d="M11.7-10.3L11.7-10.3C11.7-10.3,11.7-10.3,11.7-10.3z"/>
									<polygon fill="#202020" points="11.8,-10.4 11.8,-10.4 11.8,-10.4 									"/>
									<path fill="#202020" d="M11.1-9.1L11.1-9.1C11.1-9.1,11.1-9.1,11.1-9.1z"/>
									<path fill="#202020" d="M11.3-9.5C11.3-9.5,11.3-9.5,11.3-9.5C11.3-9.5,11.3-9.5,11.3-9.5z"/>
									<polygon fill="#202020" points="10.9,-8.6 10.9,-8.6 10.9,-8.6 									"/>
									<path fill="#202020" d="M11.3-9.4C11.3-9.4,11.3-9.5,11.3-9.4C11.3-9.5,11.3-9.4,11.3-9.4z"/>
									<polygon fill="#202020" points="12,-10.7 12,-10.7 12,-10.7 									"/>
									<path fill="#202020" d="M12-10.7L12-10.7L12-10.7z"/>
									<path fill="#202020" d="M12-10.7L12-10.7C12-10.7,12-10.7,12-10.7z"/>
									<path fill="#202020" d="M11.9-10.6L11.9-10.6L11.9-10.6z"/>
									<path fill="#202020" d="M11.9-10.5C11.9-10.6,11.9-10.6,11.9-10.5L11.9-10.5C11.9-10.6,11.9-10.6,11.9-10.5z"/>
									<path fill="#202020" d="M11.7-10.5L11.7-10.5C11.7-10.5,11.7-10.5,11.7-10.5C11.7-10.5,11.8-10.5,11.7-10.5z"/>
									<path fill="#202020" d="M11.7-10.4C11.7-10.4,11.7-10.4,11.7-10.4C11.7-10.4,11.7-10.4,11.7-10.4z"/>
									<path fill="#202020" d="M11.4-9.8L11.4-9.8C11.3-9.8,11.3-9.8,11.4-9.8z"/>
									<polygon fill="#202020" points="11.4,-9.6 11.4,-9.6 11.4,-9.7 									"/>
									<polygon fill="#202020" points="11.2,-9.6 11.2,-9.6 11.2,-9.6 									"/>
									<path fill="#202020" d="M10.7-8.7L10.7-8.7C10.7-8.7,10.7-8.7,10.7-8.7z"/>
									<path fill="#202020" d="M10.2-8.5C10.2-8.5,10.2-8.5,10.2-8.5C10.2-8.5,10.2-8.5,10.2-8.5z"/>
									<polygon fill="#202020" points="8.9,-7.9 8.9,-7.9 8.9,-7.9 									"/>
								</g>
							</g>
						</g>
					</g>
				</g>
				<g>
					<g>
						<g>
							<g>
								<g>
									<path fill="#202020" d="M12.4-10.5C12.4-10.5,12.4-10.5,12.4-10.5L12.4-10.5L12.4-10.5z"/>
									<path fill="#202020" d="M12.3-10.5C12.3-10.5,12.3-10.4,12.3-10.5C12.3-10.4,12.3-10.4,12.3-10.5
										C12.3-10.5,12.3-10.5,12.3-10.5C12.3-10.5,12.4-10.5,12.3-10.5C12.3-10.5,12.3-10.5,12.3-10.5
										C12.3-10.5,12.3-10.5,12.3-10.5z"/>
									<path fill="#202020" d="M11.8-9.7L11.8-9.7L11.8-9.7z"/>
									<path fill="#202020" d="M11.5-9.2L11.5-9.2L11.5-9.2z"/>
									<path fill="#202020" d="M11.4-9.1L11.4-9.1L11.4-9.1z"/>
									<path fill="#202020" d="M11.8-9.7L11.8-9.7C11.8-9.7,11.8-9.7,11.8-9.7z"/>
									<polygon fill="#202020" points="12.3,-10.3 12.3,-10.3 12.3,-10.3 									"/>
									<polygon fill="#202020" points="11.9,-9.9 11.9,-9.9 11.9,-9.9 									"/>
									<path fill="#202020" d="M12-10.1C12-10.1,12-10.1,12-10.1C12-10.1,12-10.1,12-10.1C12-10.1,12-10.1,12-10.1z"/>
									<path fill="#202020" d="M12.2-10.4L12.2-10.4L12.2-10.4z"/>
									<path fill="#202020" d="M11.8-9.8L11.8-9.8L11.8-9.8z"/>
									<path fill="#202020" d="M8.1-6.3L8.1-6.3L8.1-6.3z"/>
									<polygon fill="#202020" points="8,-6.1 8,-6.1 8,-6.1 									"/>
									<path fill="#202020" d="M11.3-9L11.3-9C11.3-9,11.3-9,11.3-9z"/>
									<path fill="#202020" d="M10.1-8.1C10.2-8.1,10.1-8.1,10.1-8.1C10.1-8.1,10.2-8.1,10.1-8.1z"/>
									<path fill="#202020" d="M12.3-10.3L12.3-10.3L12.3-10.3z"/>
									<polygon fill="#202020" points="10.1,-8.1 10.1,-8.1 10.2,-8.1 									"/>
									<path fill="#202020" d="M11.2-8.6L11.2-8.6C11.2-8.6,11.2-8.6,11.2-8.6z"/>
									<path fill="#202020" d="M11.3-8.9L11.3-8.9L11.3-8.9z"/>
									<path fill="#202020" d="M11.1-8.5C11.1-8.5,11.1-8.5,11.1-8.5L11.1-8.5L11.1-8.5z"/>
									<polygon fill="#202020" points="11,-8.4 11,-8.4 11,-8.4 									"/>
									<path fill="#202020" d="M8.4-6.7L8.4-6.7C8.3-6.7,8.3-6.7,8.4-6.7z"/>
									<polygon fill="#202020" points="12.3,-10.3 12.3,-10.3 12.3,-10.3 									"/>
									<path fill="#202020" d="M11.2-8.3L11.2-8.3C11.2-8.3,11.2-8.3,11.2-8.3z"/>
									<path fill="#202020" d="M9.2-7.4L9.2-7.4L9.2-7.4z"/>
									<path fill="#202020" d="M11.1-8.3C11.1-8.3,11.1-8.3,11.1-8.3L11.1-8.3L11.1-8.3z"/>
									<path fill="#202020" d="M8.3-6.7L8.3-6.7L8.3-6.7z"/>
									<path fill="#202020" d="M8.3-6.6C8.3-6.6,8.3-6.6,8.3-6.6C8.3-6.5,8.2-6.6,8.3-6.6C8.2-6.5,8.2-6.5,8.3-6.6
										C8.2-6.5,8.2-6.5,8.3-6.6C8.2-6.5,8.2-6.5,8.3-6.6C8.2-6.5,8.2-6.5,8.2-6.5c0,0,0,0,0,0l0,0c0,0,0,0.1,0,0.1
										c0,0,0,0.1-0.1,0c0,0,0,0,0,0c0,0,0,0,0,0c0,0,0,0,0,0c0,0,0,0,0,0c0,0,0,0,0,0c0,0,0,0,0,0c0,0,0,0,0,0l0,0c0,0,0,0,0,0
										c0,0,0,0,0,0l0,0l0,0l0,0c0,0-0.1,0-0.1,0l0,0c0,0,0,0,0,0c0,0,0,0,0-0.1c0,0,0,0,0.1,0l0,0l0,0c0,0,0,0,0,0c0,0,0,0,0,0
										l0,0c0-0.1,0.1-0.1,0.1-0.1l0,0l0,0c0,0,0,0,0,0c0.1-0.1,0.1-0.2,0.1-0.2c0,0,0,0,0,0c0.1,0,0-0.1,0.1-0.2l0,0c0,0,0,0,0,0
										c0,0,0,0,0-0.1c0,0,0,0,0,0c0,0,0,0,0,0c0,0,0-0.1,0-0.1c0,0,0,0,0.1,0c0,0,0,0,0,0c0,0,0,0,0,0l0,0l0,0l0,0c0,0,0,0,0,0
										c0,0,0,0,0,0c0,0,0,0,0,0c0,0,0,0,0,0c0,0,0,0,0,0l0,0l0,0c0,0,0-0.1,0-0.1c0,0,0,0,0,0c0,0,0,0,0,0c0,0,0,0,0,0
										c0,0,0,0,0.1-0.1c0,0,0,0,0,0c0,0,0,0,0,0c0,0,0,0,0,0c0,0,0,0,0,0l0,0c0,0,0,0,0,0c0,0,0,0,0,0c0,0,0,0,0-0.1l0,0
										c0,0,0-0.1,0.1,0c0,0,0,0,0.1-0.1c0,0,0,0,0,0c0,0,0.1,0,0.1-0.1l0,0c0,0,0-0.1,0-0.1l0,0c0,0,0.1,0,0.1,0l0,0c0,0,0,0,0,0
										c0,0,0.1-0.1,0.2,0l0,0c0,0,0,0,0.1,0l0,0c0,0,0,0,0,0c0,0,0,0,0,0c0.1,0,0.1-0.1,0.2-0.1c0,0,0.1-0.1,0.1-0.1l0,0
										c0,0,0.1,0,0.1,0c0,0,0-0.1,0.1-0.1l0,0c0,0,0,0,0,0l0,0c0,0,0,0,0,0l0,0C9.8-8,9.9-8,9.9-8c0,0,0,0,0,0
										c0,0,0.1-0.1,0.1-0.1l0,0c0,0,0,0,0.1,0l0,0c0,0,0,0,0,0c0,0,0,0,0,0c0,0,0,0,0,0l0,0c0,0,0,0,0,0c0,0,0,0,0,0
										c0.1,0,0.1,0,0.1,0c0,0,0.1,0,0.1,0c0,0,0,0,0.1-0.1c0,0,0,0,0,0c0,0,0,0,0,0c0,0,0,0,0,0.1c0,0,0,0,0.1-0.1l0,0
										c0,0,0,0,0,0l0,0c0,0,0,0,0.1-0.1l0,0c0,0,0,0,0,0l0,0c0,0,0,0,0,0c0,0,0,0,0,0c0,0,0,0,0,0c0,0,0.1,0,0.1-0.1l0,0
										c0,0,0,0,0.1,0l0,0c0,0,0,0,0.1,0c0,0,0,0,0,0c0,0,0,0,0,0l0,0c0,0,0,0,0.1,0c0,0,0.1,0,0.1,0c0,0,0,0,0,0l0,0c0,0,0,0,0,0
										c0,0,0,0,0,0c0,0,0,0,0,0c0,0,0,0,0,0c0,0,0-0.1,0-0.1l0,0c0,0,0,0,0,0c0,0,0,0,0,0c0,0,0,0,0,0l0,0c0,0,0-0.1,0-0.1l0,0
										c0,0,0,0,0-0.1c0,0,0,0,0,0c0,0,0,0,0,0l0,0l0,0c0,0,0,0,0,0c0,0,0,0,0,0c0,0,0,0,0,0c0,0,0,0,0-0.1c0,0,0,0,0,0
										c0,0,0,0,0,0l0,0c0,0,0,0,0,0c0,0,0,0,0,0c0,0,0,0,0,0c0,0,0,0,0-0.1l0,0c0,0,0,0,0,0c0,0,0,0,0,0c0,0,0,0,0,0c0,0,0,0,0,0
										c0,0,0,0,0,0l0,0c0,0,0,0,0,0l0,0c0,0,0,0,0-0.1c0,0,0,0,0,0c0,0,0,0,0,0c0,0,0,0,0-0.1c0,0,0,0,0,0c0,0,0,0,0-0.1
										c0,0,0,0,0,0c0,0,0,0,0,0l0,0c0,0,0,0,0,0c0,0,0,0,0,0c0,0,0,0,0,0c0,0,0,0,0,0c0,0,0,0,0-0.1c0,0,0,0,0.1,0c0,0,0,0,0,0
										c0.1,0,0-0.1,0.1-0.1l0,0c0,0,0,0,0,0l0,0c0,0,0,0,0,0c0,0,0,0,0,0c0,0,0,0,0,0c0,0,0,0,0,0c0,0,0,0,0,0c0,0,0,0,0-0.1l0,0
										c0,0,0.1-0.1,0.1-0.1l0,0l0,0l0,0l0,0c0,0,0,0,0-0.1c0,0,0,0,0,0c0,0,0,0,0,0c0,0,0,0,0,0c0,0,0,0,0,0c0,0,0,0,0,0
										c0,0,0,0,0,0c0,0,0,0,0,0c0,0,0,0,0,0l0,0c0,0,0,0,0,0c0,0,0,0,0,0c0,0,0,0-0.1,0c0,0,0-0.1,0-0.1l0,0c0,0,0,0,0,0l0,0
										c0,0,0,0,0,0c0,0,0,0,0-0.1l0,0c0,0,0.1-0.1,0.1-0.1c0,0,0-0.1,0-0.1c0,0,0.1,0,0,0c0,0,0,0,0,0c0,0,0,0,0,0c0,0,0,0,0,0
										c0,0,0,0,0.1,0c0,0,0,0,0,0c0,0,0,0,0,0l0,0l0.1,0c0,0,0,0,0-0.1l0,0c0,0,0,0,0,0c0,0,0,0,0,0l0,0l0,0c0,0,0,0,0,0
										c0,0,0,0,0,0l0,0l0,0c0,0,0-0.1,0-0.1l0,0c0,0,0,0,0,0c0,0,0,0,0,0l0,0c0,0,0,0,0,0.1c0,0,0,0,0,0c0,0,0,0,0,0.1
										c0,0,0,0,0,0c0,0,0,0,0,0c0,0,0,0,0,0c0,0,0,0,0,0c0,0,0,0,0,0c0,0,0,0.1,0,0.1c0,0.1-0.1,0.1-0.1,0.1c0,0,0,0,0,0
										c0,0,0,0,0,0c0,0,0,0,0,0c0,0,0,0,0,0c0,0,0,0,0,0c0,0,0,0,0,0.1l0,0l0,0l0,0c0,0,0,0,0,0c0,0,0,0,0,0c0,0,0,0,0,0.1
										c0,0,0,0,0,0c0,0,0,0,0,0l0,0c0,0,0,0,0,0l0,0c0,0,0,0,0,0c0,0,0,0,0,0c0,0,0,0,0,0l0,0c0,0,0,0,0,0c-0.1,0,0,0.1-0.1,0.1
										c0,0,0,0,0,0c0,0,0,0,0,0.1l0,0c0,0,0,0.1,0,0.1c0,0,0,0,0,0c0,0-0.1,0,0,0l0,0c0,0,0,0.1,0,0.1c0,0,0,0,0,0
										c0,0,0,0.1,0,0.1c0,0,0,0,0,0c0,0,0,0,0,0c0,0,0,0,0,0l0,0c0,0,0,0,0,0c0,0,0,0,0,0.1c0,0,0,0,0,0c0,0,0,0,0,0l0,0
										c0,0,0,0,0,0c0,0,0,0,0,0l0,0l0,0l0,0c0,0,0,0,0,0.1l0,0l0,0c0,0,0,0,0,0c0,0,0,0.1,0,0.1c0,0,0,0,0,0c0,0,0,0,0,0.1
										c0,0,0,0,0,0c0,0,0,0,0,0.1c0,0,0,0,0,0c0,0,0,0,0,0c0,0,0,0-0.1,0c0,0,0,0.1,0,0.1l0,0c0,0,0,0,0,0c0,0,0,0,0,0
										c0,0,0,0.1,0,0.1c0,0,0,0,0,0c0,0,0,0.1,0,0.1c0,0,0,0,0-0.1c0,0,0,0.1,0,0.2c-0.1,0,0,0.1-0.1,0.1c0,0,0,0,0,0.1
										c0,0,0,0,0,0c0,0-0.1,0.1-0.1,0c0,0,0,0,0,0c0,0,0,0-0.1,0c0,0,0,0,0,0l0,0c0,0,0,0,0,0c0,0,0,0,0,0c0,0,0,0,0,0
										c0,0,0,0,0,0c-0.1,0-0.1,0-0.2,0.1l0,0c-0.1,0,0,0-0.1,0.1c-0.1,0-0.2,0-0.3,0.1c0,0,0,0,0,0c0,0,0,0,0,0l0,0
										c-0.1,0-0.1,0.1-0.2,0c0,0-0.1,0-0.1,0.1c0,0,0,0,0,0l0,0l0,0c0,0.1-0.1,0-0.2,0.1l0,0c0,0,0,0,0,0c0,0,0,0,0,0
										c0,0,0,0-0.1,0.1c0,0,0,0,0,0c0,0,0,0,0,0c0,0-0.1,0-0.1,0c0,0,0,0,0,0c0,0-0.1,0.1-0.1,0.1l0,0c0,0,0,0,0,0c0,0,0,0,0,0
										l0,0c0,0,0,0,0,0c0,0,0,0,0,0l0,0c0,0,0,0,0,0c0,0-0.1,0.1-0.1,0.1l0,0c0,0,0,0-0.1,0c0,0,0,0,0,0c0,0,0,0,0,0c0,0,0,0,0,0
										l0,0c0,0-0.1,0-0.1,0c0,0,0,0,0,0l0,0l0,0l0,0l0,0c0,0,0,0,0,0c-0.1,0,0,0-0.1,0c0,0-0.1,0,0,0.1c-0.1,0-0.1,0-0.2,0.1l0,0
										c0,0,0,0,0,0.1l0,0c0,0-0.1,0.1-0.1,0.1c0,0,0,0,0,0c0,0,0,0,0,0c0,0,0,0,0,0l0,0c0,0-0.1,0-0.1,0.1c0,0,0,0,0,0
										c0,0,0,0.1-0.1,0.1l0,0c0,0,0,0,0,0c0,0,0,0,0,0c0,0,0,0,0,0.1l0,0c0,0,0,0,0,0c0,0-0.1,0-0.1,0c0,0,0,0,0,0c0,0,0,0,0,0.1
										c0,0,0,0,0,0l0,0c0,0,0,0,0,0c0,0,0,0,0,0.1c0,0,0,0,0,0l0,0c0,0,0,0,0,0c0,0,0,0,0,0c0,0,0,0,0,0l0,0
										C8.3-6.7,8.3-6.7,8.3-6.6C8.3-6.7,8.3-6.7,8.3-6.6C8.3-6.6,8.3-6.6,8.3-6.6C8.3-6.6,8.3-6.6,8.3-6.6
										C8.3-6.6,8.3-6.6,8.3-6.6C8.3-6.6,8.3-6.6,8.3-6.6z M8.6-7L8.6-7L8.6-7C8.6-7,8.6-7,8.6-7z M8.6-7.1
										C8.6-7.1,8.6-7.1,8.6-7.1C8.6-7.1,8.6-7.1,8.6-7.1C8.6-7.1,8.6-7.1,8.6-7.1z M8.4-7.1L8.4-7.1C8.4-7.1,8.4-7.1,8.4-7.1
										C8.4-7.1,8.4-7.1,8.4-7.1L8.4-7.1z"/>
									<polygon fill="#202020" points="8.4,-7.1 8.4,-7.1 8.4,-7.1 8.4,-7.1 									"/>
									<polygon fill="#202020" points="11.8,-9.7 11.8,-9.7 11.8,-9.7 									"/>
									<polygon fill="#202020" points="9.2,-7.4 9.2,-7.4 9.2,-7.4 									"/>
									<path fill="#202020" d="M12-9.9L12-9.9L12-9.9z"/>
									<path fill="#202020" d="M12-10L12-10C12-10,12-10,12-10z"/>
									<polygon fill="#202020" points="12.1,-10.1 12.1,-10.1 12.1,-10.1 									"/>
									<path fill="#202020" d="M11.5-8.8L11.5-8.8C11.5-8.8,11.5-8.8,11.5-8.8z"/>
									<path fill="#202020" d="M11.6-9.2C11.6-9.2,11.6-9.2,11.6-9.2C11.6-9.2,11.6-9.2,11.6-9.2z"/>
									<polygon fill="#202020" points="11.2,-8.4 11.2,-8.4 11.2,-8.3 									"/>
									<path fill="#202020" d="M11.6-9.2C11.6-9.2,11.6-9.2,11.6-9.2C11.6-9.2,11.6-9.2,11.6-9.2z"/>
									<polygon fill="#202020" points="12.3,-10.4 12.3,-10.4 12.3,-10.4 									"/>
									<path fill="#202020" d="M12.3-10.4L12.3-10.4L12.3-10.4z"/>
									<path fill="#202020" d="M12.3-10.4L12.3-10.4C12.3-10.4,12.3-10.4,12.3-10.4z"/>
									<path fill="#202020" d="M12.2-10.3L12.2-10.3L12.2-10.3z"/>
									<path fill="#202020" d="M12.2-10.3C12.2-10.3,12.2-10.3,12.2-10.3L12.2-10.3C12.2-10.3,12.2-10.3,12.2-10.3z"/>
									<path fill="#202020" d="M12.1-10.2L12.1-10.2C12.1-10.2,12.1-10.2,12.1-10.2C12-10.2,12.1-10.2,12.1-10.2z"/>
									<path fill="#202020" d="M12-10.1C12-10.1,12-10.1,12-10.1C12-10.1,12-10.1,12-10.1z"/>
									<path fill="#202020" d="M11.7-9.5L11.7-9.5C11.7-9.5,11.7-9.5,11.7-9.5z"/>
									<polygon fill="#202020" points="11.7,-9.4 11.7,-9.4 11.7,-9.4 									"/>
									<polygon fill="#202020" points="11.6,-9.4 11.6,-9.4 11.6,-9.3 									"/>
									<path fill="#202020" d="M11-8.4L11-8.4C11-8.4,11-8.4,11-8.4z"/>
									<path fill="#202020" d="M10.6-8.2C10.6-8.2,10.5-8.3,10.6-8.2C10.5-8.2,10.6-8.2,10.6-8.2z"/>
									<polygon fill="#202020" points="9.2,-7.6 9.2,-7.6 9.2,-7.6 									"/>
								</g>
							</g>
						</g>
					</g>
				</g>
			</g>
		</g>
		<polygon fill="none" points="18,0 0,0 0,-18.1 18,-18.1 		"/>
	</g>
</pattern>
<pattern  id="SVGID_1_" xlink:href="#New_Pattern_Swatch_1" patternTransform="matrix(0.4 0 0 0.4 -4888.7998 -4940.7251)">
</pattern>
<rect opacity="0.4" fill="url(#SVGID_1_)" width="72" height="72"/>
</svg>
