<?xml version="1.0" encoding="utf-8"?>
<!-- Generator: Adobe Illustrator 18.0.0, SVG Export Plug-In . SVG Version: 6.00 Build 0)  -->
<!DOCTYPE svg PUBLIC "-//W3C//DTD SVG 1.1//EN" "http://www.w3.org/Graphics/SVG/1.1/DTD/svg11.dtd">
<svg version="1.1" id="Layer_1" xmlns="http://www.w3.org/2000/svg" xmlns:xlink="http://www.w3.org/1999/xlink" x="0px" y="0px"
	 viewBox="0 0 144 144" enable-background="new 0 0 144 144" xml:space="preserve">
<pattern  width="18.3" height="17.8" patternUnits="userSpaceOnUse" id="New_Pattern_Swatch_5" viewBox="0 -17.8 18.3 17.8" overflow="visible">
	<g>
		<polygon fill="none" points="18.3,0 0,0 0,-17.8 18.3,-17.8 		"/>
		<g>
			<g>
				<g>
					<g>
						<g>
							<g>
								<path d="M8.4-4.1L8.4-4.1C8.3-4.1,8.3-4.1,8.4-4.1L8.4-4.1z"/>
								<path d="M8.5-3.9C8.5-3.9,8.4-4,8.4-4C8.4-4,8.4-4,8.5-3.9C8.4-4,8.5-4,8.5-3.9C8.5-3.9,8.5-3.9,8.5-3.9
									C8.6-3.9,8.6-3.9,8.5-3.9C8.5-3.9,8.5-3.9,8.5-3.9z"/>
								<path d="M11.2-5.3L11.2-5.3C11.2-5.3,11.2-5.3,11.2-5.3z"/>
								<path d="M11.7-7.3C11.7-7.3,11.7-7.4,11.7-7.3C11.7-7.4,11.7-7.4,11.7-7.3z"/>
								<path d="M11.9-7.7C11.9-7.7,11.9-7.7,11.9-7.7C11.9-7.7,11.9-7.7,11.9-7.7z"/>
								<path d="M11.2-5.4L11.2-5.4C11.2-5.4,11.2-5.4,11.2-5.4z"/>
								<path d="M9-3.8L9-3.8C8.9-3.8,9-3.8,9-3.8L9-3.8z"/>
								<path d="M10.4-4.8L10.4-4.8L10.4-4.8L10.4-4.8z"/>
								<path d="M9.9-4.4C9.9-4.4,9.9-4.4,9.9-4.4C9.9-4.4,9.9-4.4,9.9-4.4C9.9-4.4,9.9-4.4,9.9-4.4z"/>
								<path d="M9.1-3.7L9.1-3.7C9.1-3.7,9.1-3.7,9.1-3.7z"/>
								<path d="M10.9-4.9L10.9-4.9L10.9-4.9z"/>
								<path d="M8.5-4.5L8.5-4.5L8.5-4.5z"/>
								<path d="M9.2-4C9.2-4,9.2-4,9.2-4L9.2-4L9.2-4z"/>
								<path d="M12.1-8.4C12.1-8.4,12.1-8.4,12.1-8.4C12.1-8.4,12.1-8.3,12.1-8.4z"/>
								<path d="M9.4-11.6C9.2-11.6,9.4-11.6,9.4-11.6C9.4-11.6,9.3-11.6,9.4-11.6z"/>
								<path d="M9-3.8L9-3.8C9-3.8,9-3.8,9-3.8z"/>
								<path d="M9.3-11.6L9.3-11.6L9.3-11.6C9.4-11.6,9.4-11.6,9.3-11.6z"/>
								<path d="M12.3-9.3L12.3-9.3C12.3-9.3,12.3-9.3,12.3-9.3z"/>
								<path d="M12-8.8C12-8.8,12-8.8,12-8.8C12-8.8,12-8.8,12-8.8z"/>
								<path d="M12.6-10L12.6-10C12.6-9.9,12.6-9.9,12.6-10C12.6-9.9,12.6-9.9,12.6-10z"/>
								<path d="M12.5-10.5C12.5-10.6,12.5-10.6,12.5-10.5L12.5-10.5L12.5-10.5z"/>
								<path d="M7.5-6C7.5-6,7.5-6,7.5-6C7.6-5.9,7.5-6,7.5-6z"/>
								<path d="M9-3.8C9-3.8,9-3.8,9-3.8C9-3.8,9-3.8,9-3.8L9-3.8z"/>
								<path d="M12.4-10.1L12.4-10.1C12.4-10,12.4-10,12.4-10.1z"/>
								<path d="M5.9-10L5.9-10C5.9-10,5.9-10,5.9-10z"/>
								<path d="M12.4-10.4C12.4-10.4,12.4-10.4,12.4-10.4C12.4-10.4,12.4-10.4,12.4-10.4L12.4-10.4z"/>
								<path d="M7.5-6L7.5-6L7.5-6z"/>
								<path d="M8-5.7c0.1,0.1,0,0,0.1,0.1c0.1,0,0.1,0.1,0.1,0.1c0,0.1,0,0,0,0.1c0,0,0.1,0.1,0.1,0.1c0,0-0.1-0.1-0.1,0
									c0,0.1,0.1,0.2,0.1,0.2c0,0.1,0,0.1,0,0.1c0,0,0,0,0,0c0,0.1,0,0.3,0.1,0.3c0,0,0,0.1,0,0.1c0,0,0,0.1,0,0.1
									c0,0,0.1,0.1,0.1,0.1c0,0,0.1,0.1,0.1,0.1c0,0,0.1,0.1,0.1,0.1c0,0,0,0,0,0c0.1,0,0,0,0.1,0.1c0.1,0,0,0,0.1,0
									c0.1,0,0,0,0,0l0.1,0c0,0,0,0,0,0c0,0,0.1,0,0.1,0c0,0-0.1,0-0.1,0l0,0c0,0,0,0,0.1,0c0,0,0.1,0,0.1,0
									c0.1,0,0.1,0.1,0.1,0.1H9.1c0,0,0,0,0.1,0S9.1-4,9-4C8.8-4,9-4,8.9-4.1c0,0,0,0-0.1,0c0,0-0.1,0-0.1,0v0c0,0,0,0,0,0
									c0,0-0.1-0.1-0.2-0.1l0,0C8.4-4.3,8.4-4.4,8.4-4.4c0-0.1-0.1-0.1-0.1-0.2L8.2-4.7l0,0c0-0.1-0.1-0.1-0.1-0.2
									c0-0.2,0-0.3-0.1-0.5C8-5.5,7.8-5.6,7.7-5.7c0,0,0,0,0,0C7.6-5.8,7.5-5.8,7.4-5.9C7.3-5.9,7.2-6,7.1-6.1l0,0
									c-0.1-0.1,0,0,0-0.1c0,0-0.1-0.1-0.2-0.2c0,0,0,0,0.1,0c0,0,0,0,0-0.1c-0.1,0-0.2-0.2-0.3-0.3c0,0,0-0.1,0-0.2
									c0,0,0,0-0.1,0c0,0,0-0.1-0.1-0.1c0,0,0,0.1,0.1,0.1l0,0l0,0c0,0,0,0.1,0,0c0,0.1,0,0,0,0c0,0-0.1-0.1-0.1-0.1
									c0,0,0,0,0-0.1c0,0,0,0,0-0.1v0v0c0-0.1-0.1-0.2-0.1-0.3c0,0.1,0,0,0,0c0,0,0,0.1,0.1,0.2c0,0,0,0,0,0
									c0-0.1-0.1-0.2-0.1-0.3c0,0,0,0,0,0c0-0.1,0-0.1-0.1-0.1c0,0,0-0.1,0-0.2c0,0,0,0-0.1-0.1l0,0c0-0.1,0-0.1-0.1-0.1
									c0,0,0,0,0,0C6.1-8.1,6.1-8.1,6.1-8.2h0C6.1-8.2,5.9-8.4,6-8.4c0,0.1-0.1-0.2-0.2-0.2c0,0,0,0,0,0C5.7-8.7,5.7-8.9,5.7-9.1
									l0,0c0-0.1-0.1-0.1-0.1-0.2l0,0c0-0.2,0-0.2,0-0.4h0c0,0,0-0.1,0-0.2c0-0.1,0-0.2,0.1-0.3c0-0.1,0.1-0.2,0.1-0.3l0,0
									c0-0.1,0.1-0.2,0.1-0.2l0,0c0,0,0-0.1,0.1-0.1c0,0,0-0.1,0-0.1c0.1-0.1,0.1-0.2,0.2-0.3c0.1-0.1,0.2-0.2,0.2-0.2
									c0.2-0.1,0.3-0.2,0.5-0.3l0,0c0.1,0,0.2,0,0.2,0c0.2,0,0.3-0.1,0.5-0.1l0,0c0.1,0,0.1,0,0.1,0s0,0,0,0c0,0,0.1,0,0.1,0l0,0
									c0.2,0,0.4,0,0.6,0c0,0,0,0,0,0c0.1,0,0.3,0,0.4,0l-0.1,0c0.2,0,0.1,0,0.3,0l-0.1,0c0.1,0,0.1,0,0.1,0c0.1,0,0,0,0.1,0
									c0,0-0.1,0,0,0l0.2,0c0,0,0,0,0.1,0c0-0.1,0.1,0,0.1-0.1c0.2,0,0.4,0,0.6,0c0.1,0,0.4,0,0.4,0.1c0.1,0,0.2,0,0.3,0
									c0,0-0.1,0-0.1,0c0,0,0.2,0,0.3,0c-0.1,0-0.2,0-0.2,0c0.1,0,0.2,0,0.3,0l0,0c0.1,0,0.1,0,0.2,0l0,0c0.2,0,0.2,0,0.3,0l0,0
									c0,0,0.1,0,0.2,0.1l-0.1,0c0,0,0.1,0.1,0.1,0.1c0.1,0,0,0,0.1,0c0,0,0,0,0,0c0.1,0,0.2,0.1,0.3,0.1c0,0,0,0,0,0
									c0.1,0.1,0.2,0.1,0.2,0.2l0,0c0.1,0.1,0.2,0.1,0.2,0.2c0,0-0.1-0.1,0,0c0.1,0.1,0.1,0.1,0.2,0.2c0,0,0,0,0,0
									c0,0.1,0.1,0.2,0.1,0.3c0,0.1,0,0.2,0,0.2c0,0.1,0,0.2,0,0.3c0,0,0,0,0,0h0c0,0.1,0,0.1,0,0.1c0,0,0,0.1,0,0.2
									c0,0,0,0,0,0.1c0-0.1,0,0,0-0.1c0,0.1,0,0.1,0,0.1c0,0,0,0.1-0.1,0.1l-0.1,0.1c0,0,0,0.1,0,0.1c0,0,0,0.1,0,0.1
									c0,0-0.1,0-0.1,0c0,0-0.1,0.1-0.1,0.1l0.1,0c-0.1,0-0.1,0.1-0.2,0.1c0,0,0,0,0,0h0c0,0,0,0,0,0l-0.1,0c0,0,0,0,0,0h0
									c0,0,0,0,0,0c0,0,0.1,0,0.1,0.1c0,0,0,0,0,0c0,0-0.1,0-0.1-0.1l0.1,0c0,0,0,0-0.1,0h0c0,0,0,0,0,0c0,0,0,0,0,0s0,0,0,0l0,0
									c0,0,0,0,0,0s0,0,0,0c0,0,0,0,0,0c0.1,0.1,0.1,0.2,0.1,0.2c0,0,0,0,0,0c0,0.1,0,0.1,0.1,0.1l0-0.1c0,0.1,0,0.1,0,0.1
									c0,0.1,0.1,0.1,0,0c0,0,0,0.1,0,0.1c0,0.1,0.1,0.1,0,0.2c0,0,0,0,0,0c0,0,0,0.1,0,0.1c0-0.1,0,0,0-0.1c0,0,0,0.1,0,0.1
									c0,0.1,0,0,0,0.1c0,0,0,0,0,0.1l0,0c0,0,0,0.1,0,0.1v-0.1c0,0.1-0.1,0.2-0.1,0.3c0,0,0-0.1,0,0c0,0.1,0,0-0.1,0.1
									c-0.1,0.1,0,0-0.1,0.2c0,0,0,0,0,0c-0.1,0.1-0.1,0.2-0.2,0.2c0,0,0.1-0.1,0,0c0,0-0.1,0.1-0.1,0.1v0c0,0,0,0,0,0
									c0,0,0,0,0,0c0,0,0,0-0.1,0c0,0.1,0,0.1,0,0.1c-0.1,0.1,0,0.1-0.1,0.2c0,0-0.1,0.1-0.1,0.2c0,0.1,0.1-0.1,0.1,0
									c-0.1,0.1-0.1,0.3-0.2,0.4l0,0c0,0.1,0,0.1,0,0.1c0,0,0,0,0,0c0,0,0,0,0,0c0,0.1,0,0.1-0.1,0.1c0,0.1,0,0.1,0,0.2
									c0-0.1,0,0,0-0.1c0,0.1,0,0.1,0,0.2c0,0,0,0,0,0.1c0,0.1,0,0.2,0.1,0.3h0c0,0.1,0,0.3,0,0.5l0,0l0,0c0,0,0,0,0,0v0
									c0,0,0,0,0,0.1c0,0.1,0,0.1-0.1,0.1c0,0,0,0,0,0c0,0,0,0.1-0.1,0.1c-0.1,0,0,0-0.1,0c0,0,0,0,0,0c0,0-0.1,0-0.1,0
									c0,0,0,0,0.1,0c0,0,0,0,0,0c0,0,0,0-0.1,0l0,0c0,0,0,0-0.1,0c0,0,0,0,0,0c-0.1,0.1,0,0.1,0,0.1c-0.1,0-0.2,0.1-0.3,0.1l0,0
									c-0.1,0-0.1,0-0.1,0l-0.1,0c0,0,0,0,0,0c-0.1,0-0.2,0-0.2,0.1l0,0c-0.1,0-0.1,0-0.2,0.1c0,0,0,0-0.1,0.1s0,0,0,0
									c-0.1,0.1-0.1,0.2,0,0.2c0,0.1,0,0.2,0,0.2c0,0.1,0,0,0,0c0,0.1,0,0.2-0.1,0.2c0,0.1,0,0,0,0c0,0,0,0-0.1,0.1
									c0,0-0.1,0.1-0.1,0.1c0,0,0,0,0,0c0,0,0,0,0,0v0l-0.1,0c-0.1,0.1,0,0-0.1,0.1h0c-0.1,0-0.1,0.1-0.2,0c0,0,0,0,0,0H9.1l0,0
									c-0.1,0-0.1,0-0.1,0c0,0,0,0,0,0c0,0,0,0-0.1,0c0,0-0.1,0-0.1,0l0,0c-0.1,0-0.2,0-0.3-0.1l0,0c0,0,0,0-0.1-0.1c0,0,0,0,0,0
									l0,0c0,0,0.1,0,0.2,0.1c0,0-0.1,0-0.1,0c0.1,0,0.1,0,0.2,0c0,0,0,0-0.1,0c0.1,0,0.1,0,0.1,0c0,0,0,0,0,0c0.1,0,0.1,0,0.2,0
									c0,0-0.1,0,0,0c0.1,0,0.2,0,0.3-0.1c0.1,0,0.1-0.1,0.2-0.1c0.1,0,0.1-0.1,0.1-0.1c0,0-0.1,0.1,0,0c0,0,0,0,0,0
									c0-0.1,0.1-0.1,0-0.1c0,0,0,0,0-0.1c0,0,0-0.1,0,0c0-0.1,0-0.2,0-0.3l0,0c0,0,0,0,0-0.1c0,0,0-0.1,0-0.1l0,0c0,0,0,0,0-0.1
									s0,0,0.1-0.1c0,0-0.1,0.1-0.1,0.1C10-4.6,10-4.7,10-4.7c0,0-0.1,0.1,0,0.1c0,0,0.1-0.1,0.1-0.1v0c0.1,0,0-0.1,0.1-0.1
									c0,0,0,0,0,0c0,0,0.1,0,0,0c0,0,0.1,0,0.1-0.1c0,0-0.1,0-0.1,0l0.2-0.1c0,0,0,0,0,0c0.1,0,0.2,0,0.3-0.1
									C10.9-5,10.9-5.1,11-5.2c0,0,0,0,0,0c0-0.1,0.1-0.2,0.1-0.2l0,0c0-0.2-0.1-0.3-0.1-0.4c0,0,0,0,0,0c0-0.1,0-0.2,0-0.2v0
									c0-0.2,0-0.4,0-0.6c0,0,0,0.1,0,0.1c0-0.1,0.1-0.2,0.1-0.4c0,0,0,0,0,0c0.1-0.1,0,0,0-0.1c0,0,0,0,0,0v0c0,0,0,0,0,0
									c0-0.1,0.1-0.2,0.1-0.2c0,0,0,0,0,0c0-0.1,0.1-0.1,0.1-0.1l0,0c0,0,0.1-0.1,0.1-0.1c0.1-0.1,0,0,0-0.1l-0.1,0.1l0.1-0.1
									l0,0.1c0-0.1,0.1-0.1,0.1-0.2l0,0c0,0,0,0,0,0c0,0,0,0,0,0c0,0,0.1-0.1,0.1,0c0.1-0.1,0.1-0.3,0.1-0.4c0,0,0,0,0,0
									c0-0.1,0-0.1,0-0.2c0,0,0,0,0,0c0-0.1,0-0.1,0-0.2c0,0,0,0,0,0c0,0,0,0,0,0c0.1,0.1,0-0.1,0.1-0.1c0,0-0.1-0.2-0.1-0.1l0,0
									c0,0,0,0,0-0.1c0,0,0,0,0,0c0-0.1-0.1-0.1-0.1-0.2c0,0,0,0,0-0.1c0,0,0,0,0,0c0,0,0,0-0.1,0c-0.1-0.1-0.2-0.1-0.3-0.2
									c0.1,0,0.2,0.1,0.1,0.1c-0.1,0-0.1-0.1-0.1-0.1c0.1,0,0.2,0,0.3,0c0,0,0.1,0,0.1,0c0,0,0,0,0.1,0l0,0c0,0,0.1,0,0.1-0.1
									c0,0,0,0-0.1,0.1l0,0h0h0c0,0-0.1,0-0.1,0c0,0-0.1,0-0.1,0c0,0,0.1,0,0.1,0l0,0c0,0,0.1-0.1,0.1-0.1
									c0.1-0.1,0.1-0.1,0.2-0.2c0.1,0,0.1-0.1,0.1-0.1c0-0.1,0-0.1,0.1-0.2c0,0,0-0.1,0-0.1c0,0,0-0.1,0,0c0,0,0-0.1,0-0.1
									c0-0.1,0-0.1,0-0.1c0,0,0-0.1,0-0.2c0,0,0-0.1,0-0.1c0,0,0-0.1-0.1-0.1c0,0-0.1-0.1-0.1-0.1l0,0c0,0-0.1-0.1-0.1-0.1
									c0,0,0,0,0,0c0,0-0.1-0.1-0.2-0.1c0,0,0,0,0,0c-0.2-0.1-0.4-0.3-0.7-0.4l0.1,0c-0.2-0.1-0.1,0-0.2,0
									c-0.4-0.1-0.8-0.1-1.1-0.1c0,0,0,0,0,0c0,0-0.1,0-0.1,0l0,0c-0.2,0-0.5,0.1-0.6,0c-0.2,0-0.3,0-0.5,0c-0.1,0,0.1,0,0,0
									l-0.2,0h0c-0.2,0-0.5-0.1-0.7,0h0c0,0,0,0-0.1,0c0,0,0,0,0,0c-0.2,0-0.2,0-0.4,0c0.1,0-0.1,0-0.1,0c0,0,0,0-0.1,0
									c-0.1,0-0.2,0-0.4,0c0,0-0.1,0-0.1,0.1c-0.1,0-0.1,0-0.2,0.1c0,0-0.1,0-0.1,0c0,0-0.1,0-0.1,0.1h0c0,0-0.1,0.1-0.1,0.1
									c0,0,0,0,0,0L6.4-11c0,0,0-0.1,0,0c0,0.1,0,0,0,0h0c0,0,0,0.1,0,0c-0.1,0.1-0.2,0.3-0.3,0.4v0c0,0.1-0.1,0.2-0.1,0.2
									c0,0,0,0,0,0c0,0.1,0,0,0,0.1c0,0,0-0.1,0-0.1c0,0,0,0.1,0,0.1c0,0.1,0,0.1,0,0.1c0,0-0.1,0.1-0.1,0.2c0,0,0,0,0,0v0.1l0,0
									c0,0,0,0,0,0c0,0,0,0,0,0h0c0,0.1,0,0.1,0,0.1c0,0.2,0,0.1-0.1,0.3c0,0,0,0.2,0,0.2c0,0.1,0,0.2,0,0.3
									c0,0.1,0.1,0.2,0.1,0.3l0,0c0,0.1,0.1,0.1,0.1,0.2l0,0c0,0.1,0.1,0.2,0.1,0.2C6.3-8.1,6.3-8,6.3-8c0,0,0,0,0,0c0,0,0,0,0,0
									c0,0,0,0,0,0l0,0.1c0,0.2,0.1,0.4,0.2,0.6c0,0,0,0,0,0C6.6-7.1,6.7-7,6.7-6.8l0,0c0,0.1,0.1,0,0.1,0.1c0,0,0-0.1-0.1-0.1
									c0.1,0.1,0.1,0.1,0.1,0.2l0,0C6.9-6.5,6.9-6.5,7-6.5c0.1,0.1,0,0.1,0.2,0.2c0,0,0,0,0,0c0.1,0.1,0.1,0.1,0.2,0.2
									c0,0.1,0,0,0,0L7.3-6.1c0.1,0.1-0.1-0.1-0.1,0c0,0.1,0.1,0.1,0.2,0.2c0,0-0.1-0.1-0.1,0l0,0c0,0,0,0,0,0c0,0,0,0,0.1,0.1
									c0,0,0,0,0,0v0c0.1,0,0.2,0.1,0.3,0.2c0,0,0,0,0,0c0,0,0.1,0,0.2,0.1C7.9-5.7,7.9-5.7,8-5.7C8-5.6,8-5.7,8-5.7
									C8-5.6,8-5.7,8-5.7z M6.6-7.2C6.6-7.2,6.6-7.2,6.6-7.2L6.6-7.2C6.6-7.2,6.6-7.2,6.6-7.2z M6.5-7.3C6.5-7.3,6.5-7.3,6.5-7.3
									C6.5-7.3,6.5-7.3,6.5-7.3C6.5-7.3,6.5-7.3,6.5-7.3z M6.5-6.9L6.5-6.9C6.5-7,6.5-7,6.5-6.9C6.5-7,6.5-7,6.5-6.9
									C6.5-6.9,6.5-6.9,6.5-6.9z"/>
								<path d="M6.5-6.9L6.5-6.9C6.5-6.9,6.5-6.9,6.5-6.9L6.5-6.9C6.5-6.9,6.5-6.9,6.5-6.9z"/>
								<path d="M11.2-5.3L11.2-5.3L11.2-5.3L11.2-5.3z"/>
								<polygon points="5.9,-9.8 5.9,-9.8 5.9,-9.8 								"/>
								<path d="M10.3-4.8L10.3-4.8C10.3-4.8,10.3-4.8,10.3-4.8z"/>
								<path d="M9.8-4.5L9.8-4.5C9.9-4.6,9.8-4.5,9.8-4.5z"/>
								<path d="M9.8-4.2L9.8-4.2L9.8-4.2L9.8-4.2z"/>
								<path d="M11.9-8.7C11.9-8.7,11.9-8.7,11.9-8.7C11.9-8.7,11.9-8.8,11.9-8.7z"/>
								<path d="M11.5-7.3C11.5-7.3,11.5-7.3,11.5-7.3C11.5-7.3,11.5-7.3,11.5-7.3z"/>
								<polygon points="12.4,-10 12.4,-10 12.4,-10 								"/>
								<path d="M11.5-7.3C11.5-7.3,11.5-7.3,11.5-7.3C11.5-7.3,11.5-7.3,11.5-7.3z"/>
								<path d="M8.7-3.9L8.7-3.9L8.7-3.9L8.7-3.9z"/>
								<path d="M8.7-3.9L8.7-3.9C8.7-3.9,8.7-3.9,8.7-3.9z"/>
								<path d="M8.7-3.9L8.7-3.9C8.6-3.9,8.6-3.9,8.7-3.9z"/>
								<path d="M9.1-3.7L9.1-3.7C9.1-3.7,9.1-3.7,9.1-3.7z"/>
								<path d="M9.1-3.7L9.1-3.7c0,0,0.1,0,0.1,0C9.2-3.7,9.1-3.7,9.1-3.7z"/>
								<path d="M9.7-3.8C9.8-3.8,9.7-3.8,9.7-3.8C9.7-3.8,9.7-3.8,9.7-3.8c0.1-0.1,0.1-0.1,0.1-0.1C9.7-3.8,9.8-3.9,9.7-3.8z"/>
								<path d="M9.9-4.3C9.9-4.3,9.9-4.2,9.9-4.3C9.9-4.3,9.9-4.3,9.9-4.3z"/>
								<path d="M11.1-6.1L11.1-6.1C11.1-6.1,11.1-6.2,11.1-6.1z"/>
								<path d="M11.1-6.6C11.1-6.6,11.1-6.5,11.1-6.6L11.1-6.6C11.1-6.6,11.1-6.6,11.1-6.6C11.1-6.6,11.1-6.6,11.1-6.6
									C11.1-6.6,11.1-6.6,11.1-6.6z"/>
								<polygon points="11.4,-6.9 11.4,-6.8 11.4,-6.8 								"/>
								<path d="M12.6-10.4L12.6-10.4C12.6-10.4,12.6-10.4,12.6-10.4z"/>
								<path d="M11-11.6c0,0,0.1,0,0.1,0C11.1-11.6,11-11.6,11-11.6z"/>
								<polygon points="5.8,-10.3 5.8,-10.4 5.8,-10.3 								"/>
							</g>
						</g>
					</g>
				</g>
			</g>
			<g>
				<g>
					<g>
						<g>
							<g>
								<path d="M10.5-14L10.5-14L10.5-14L10.5-14z"/>
								<path d="M10.5-14C10.5-14,10.5-14,10.5-14C10.5-14,10.5-14,10.5-14C10.5-14,10.5-14,10.5-14C10.5-14,10.5-14,10.5-14
									C10.4-14,10.5-14,10.5-14L10.5-14z"/>
								<path d="M9.8-14.2L9.8-14.2C9.8-14.2,9.8-14.2,9.8-14.2z"/>
								<path d="M9.4-14C9.4-14.1,9.4-14,9.4-14L9.4-14z"/>
								<path d="M9.4-14C9.4-14,9.4-14,9.4-14C9.4-14,9.4-14,9.4-14z"/>
								<path d="M9.8-14.2L9.8-14.2C9.8-14.2,9.8-14.2,9.8-14.2z"/>
								<path d="M10.4-14L10.4-14C10.4-14,10.4-14,10.4-14L10.4-14z"/>
								<path d="M10-14.2C10-14.2,10-14.2,10-14.2L10-14.2L10-14.2z"/>
								<path d="M10.2-14.2C10.2-14.2,10.2-14.2,10.2-14.2C10.2-14.2,10.2-14.2,10.2-14.2C10.2-14.2,10.2-14.2,10.2-14.2z"/>
								<path d="M10.4-14.1L10.4-14.1L10.4-14.1z"/>
								<path d="M9.9-14.2C9.9-14.2,9.9-14.2,9.9-14.2C9.9-14.2,9.9-14.2,9.9-14.2z"/>
								<path d="M8.6-11.1L8.6-11.1L8.6-11.1z"/>
								<polygon points="8.6,-11 8.6,-11 8.6,-11 								"/>
								<path d="M9.2-14L9.2-14C9.2-14,9.2-14,9.2-14z"/>
								<path d="M8.5-13.1C8.4-13.1,8.5-13.1,8.5-13.1C8.4-13.1,8.5-13.1,8.5-13.1z"/>
								<path d="M10.4-14L10.4-14L10.4-14z"/>
								<path d="M8.5-13.1L8.5-13.1L8.5-13.1z"/>
								<path d="M9-13.8C9-13.8,9-13.8,9-13.8L9-13.8z"/>
								<path d="M9.2-13.9L9.2-13.9L9.2-13.9z"/>
								<path d="M8.9-13.7L8.9-13.7L8.9-13.7L8.9-13.7z"/>
								<path d="M8.8-13.6L8.8-13.6L8.8-13.6z"/>
								<path d="M8.5-11.4L8.5-11.4C8.5-11.4,8.5-11.5,8.5-11.4z"/>
								<path d="M10.4-14L10.4-14C10.4-14,10.4-14,10.4-14L10.4-14z"/>
								<path d="M9-13.6L9-13.6C9-13.6,9-13.6,9-13.6z"/>
								<path d="M8.4-12.3L8.4-12.3C8.4-12.3,8.4-12.3,8.4-12.3z"/>
								<path d="M9-13.5L9-13.5C9-13.5,9-13.5,9-13.5L9-13.5z"/>
								<path d="M8.5-11.4L8.5-11.4L8.5-11.4z"/>
								<path d="M8.5-11.4C8.5-11.4,8.5-11.4,8.5-11.4C8.5-11.4,8.5-11.3,8.5-11.4C8.5-11.3,8.5-11.3,8.5-11.4
									C8.6-11.3,8.6-11.3,8.5-11.4C8.6-11.3,8.6-11.3,8.5-11.4C8.6-11.3,8.6-11.3,8.5-11.4c0.1,0.1,0.1,0.1,0.1,0.1h0
									c0,0,0,0.1,0.1,0c0,0,0,0,0,0c0,0,0,0,0,0c0,0,0,0,0,0c0,0,0,0,0,0c0,0,0,0,0,0c0,0,0,0,0,0c0,0,0,0,0,0c0,0,0,0,0,0h0
									c0,0,0,0,0,0c0,0,0,0,0,0l0,0l0,0h0c0,0,0,0.1-0.1,0.1h0c0,0,0,0,0,0c0,0,0,0-0.1,0c0,0,0,0,0-0.1l0,0h0h0c0,0,0,0,0,0l0,0
									c-0.1,0,0-0.1,0-0.1h0l0.1,0c0,0,0,0,0,0C8.5-11.2,8.4-11.3,8.5-11.4L8.5-11.4c-0.1-0.1-0.2,0-0.2-0.1h0c0,0,0,0,0,0
									c0,0,0,0,0,0c0,0,0,0,0,0s0,0,0,0c0,0-0.1,0-0.1-0.1c0,0,0,0,0.1-0.1c0,0,0,0,0,0c0,0,0,0,0,0c0,0,0,0,0,0l0,0l0,0l0,0
									c0,0,0,0,0,0c0,0,0,0,0,0v0v0l0,0l0,0c0,0,0,0-0.1-0.1c0,0,0,0,0.1,0c0,0,0,0,0,0c0,0,0,0,0,0c0,0,0,0,0-0.1c0,0,0,0,0,0
									c0,0,0,0,0,0c0,0,0,0,0,0s0,0,0,0h0c0,0,0,0,0,0h0c0,0,0,0-0.1,0h0c0,0,0-0.1,0-0.1c0,0,0,0,0-0.1h0c0,0,0-0.1,0-0.1h0
									c0,0-0.1,0-0.1,0h0c0,0,0-0.1,0-0.1h0c0,0,0,0,0,0c0.1,0,0-0.1,0-0.1h0c0,0,0,0,0,0l0,0c0,0,0,0,0,0c0,0,0,0,0,0
									c0,0,0-0.1,0.1-0.1c0,0,0-0.1,0-0.1l0,0c0,0,0,0,0.1,0c0,0,0-0.1,0-0.1l0,0c0,0,0,0,0,0h0c0,0,0,0,0,0h0c0,0,0-0.1,0-0.1
									c0,0,0,0,0,0c0,0,0-0.1,0-0.1l0,0c0,0,0.1,0,0-0.1l0,0c0,0,0,0,0,0c0,0,0,0,0,0c0,0,0,0,0,0l0,0c0,0,0,0,0,0c0,0,0,0,0,0
									c0,0,0.1-0.1,0.1-0.1c0.1,0,0-0.1,0.1,0c0,0,0,0,0-0.1v0c0,0,0,0,0,0c0,0,0,0,0,0.1c0,0,0-0.1,0-0.1l0,0c0,0,0,0,0,0h0
									c0,0,0,0,0-0.1l0,0c0,0,0,0,0,0l0,0c0,0,0,0,0,0c0,0,0,0,0,0c0,0,0,0,0,0c0,0,0-0.1,0-0.1l0,0c0,0,0-0.1,0-0.1l0,0
									c0,0,0-0.1,0.1,0c0,0,0,0,0,0c0,0,0,0,0-0.1l0,0c0,0,0,0,0-0.1c0,0,0-0.1,0.1,0c0,0,0,0,0,0l0,0c0,0,0,0,0,0c0,0,0,0,0,0
									l0,0c0,0,0,0,0,0c0,0,0-0.1,0-0.1h0c0,0,0,0,0,0c0,0,0,0,0,0c0,0,0,0,0,0h0c0,0,0-0.1,0.1-0.1l0,0c0,0,0,0,0,0c0,0,0,0,0,0
									c0,0,0,0,0,0v0l0,0c0,0,0,0,0,0c0,0,0,0,0,0c0,0,0,0,0,0c0,0,0,0,0,0c0,0,0,0,0,0c0,0,0,0,0,0h0c0,0,0,0,0,0c0,0,0,0,0,0
									c0,0,0,0,0,0c0,0,0,0,0,0c0,0,0,0,0,0l0,0c0,0,0,0,0,0c0,0,0,0,0,0c0,0,0,0,0,0c0,0,0,0,0,0l0,0c0,0,0,0,0,0v0
									c0,0,0,0,0.1,0c0,0,0,0,0,0c0,0,0,0,0,0c0,0,0,0,0,0l0,0c0,0,0,0,0.1,0c0,0,0,0,0,0c0,0,0,0,0,0v0c0,0,0,0,0,0c0,0,0,0,0,0
									c0,0,0,0,0,0c0,0,0,0,0,0c0,0,0,0,0,0c0,0,0,0,0.1,0c0,0,0,0,0,0c0.1,0,0-0.1,0.1,0v0c0,0,0,0,0,0l0,0c0,0,0,0,0,0
									c0,0,0,0,0,0c0,0,0,0,0,0c0,0,0,0,0,0l0,0c0,0,0,0,0,0v0c0,0,0.1,0,0.1,0l0,0l0,0l0,0l0,0c0,0,0,0,0,0l0,0c0,0,0,0,0,0
									c0,0,0,0,0,0c0,0,0,0,0,0c0,0,0,0,0,0h0c0,0,0,0,0,0c0,0,0,0,0,0l0,0c0,0,0,0,0,0c0,0,0,0,0,0c0,0,0-0.1,0-0.1
									c0,0,0.1,0,0.1,0v0c0,0,0,0,0,0h0c0,0,0,0,0,0c0,0,0,0,0,0l0,0c0,0,0.1,0,0.1,0c0,0,0.1,0,0.1,0c0,0,0,0,0,0c0,0,0,0,0,0
									c0,0,0,0,0,0c0,0,0,0,0,0c0,0,0,0,0,0c0,0,0,0,0,0c0,0,0,0,0,0l0,0v0.1c0,0,0,0,0,0l0,0c0,0,0,0,0,0c0,0,0,0,0,0h0l0,0
									c0,0,0,0,0,0c0,0,0,0,0,0l0,0l0,0c0,0,0.1,0,0,0h0c0,0,0,0,0,0l0,0v0c0,0,0,0-0.1,0c0,0,0,0,0,0c0,0,0,0,0,0c0,0,0,0,0,0
									c0,0,0,0,0,0c0,0,0,0,0,0c0,0,0,0,0,0c0,0,0,0,0,0c0,0,0,0-0.1,0c0,0,0,0-0.1,0c0,0,0,0,0,0c0,0,0,0,0,0c0,0,0,0,0,0
									c0,0,0,0,0,0c0,0,0,0,0,0c0,0,0,0-0.1,0v0l0,0l0,0c0,0,0,0,0,0c0,0,0,0,0,0c0,0,0,0,0,0c0,0,0,0,0,0c0,0,0,0,0,0v0
									c0,0,0,0,0,0v0c0,0,0,0,0,0c0,0,0,0,0,0c0,0,0,0,0,0l0,0l0,0c0,0-0.1,0.1-0.1,0c0,0,0,0,0,0c0,0,0,0-0.1,0v0c0,0,0,0-0.1,0
									c0,0,0,0,0,0c0,0-0.1,0,0,0l0,0c0,0-0.1,0-0.1,0.1c0,0,0,0,0,0c0,0,0,0-0.1,0c0,0,0,0,0,0c0,0,0,0,0,0c0,0,0,0,0,0v0
									c0,0,0,0,0,0c0,0,0,0,0,0.1c0,0,0,0,0,0c0,0,0,0,0,0l0,0c0,0,0,0,0,0c0,0,0,0,0,0h0l0,0v0c0,0,0,0,0,0l0,0l0,0c0,0,0,0,0,0
									c0,0,0,0.1-0.1,0.1v0c0,0,0,0,0,0v0c0,0,0,0,0,0c0,0,0,0,0,0c0,0,0,0,0,0c0-0.1,0,0-0.1-0.1c0,0,0,0.1,0,0.1v0c0,0,0,0,0,0
									v0c0,0-0.1,0-0.1,0.1c0,0,0,0,0,0c0,0,0,0.1-0.1,0.1c0,0,0,0,0-0.1c0,0-0.1,0.1-0.1,0.1c-0.1,0,0,0-0.1,0c0,0,0,0,0,0
									c0,0,0,0,0,0c0,0,0,0.1,0,0c0,0,0,0,0,0c0,0,0,0,0,0c0,0,0,0,0,0c0,0,0,0,0,0c0,0,0,0,0,0s0,0,0,0c0,0,0,0,0,0c0,0,0,0,0,0
									c0,0.1-0.1,0.1-0.1,0.1l0,0c-0.1,0,0,0.1,0,0.1c0,0.1-0.1,0.1-0.1,0.2c0,0,0,0,0,0c0,0,0,0,0,0h0c-0.1,0,0,0.1-0.1,0.1
									c0,0,0,0.1,0,0.1c0,0,0,0,0,0v0l0,0c0,0-0.1,0.1-0.1,0.1l0,0c0,0,0,0,0,0c0,0,0,0,0,0c0,0,0,0.1,0,0.1c0,0,0,0,0,0
									c0,0,0,0,0,0c0,0,0,0,0,0.1c0,0,0,0,0,0c0,0,0,0.1,0,0.1h0c0,0,0,0,0,0c0,0,0,0,0,0v0c0,0,0,0,0,0c0,0,0,0,0,0h0
									c0,0,0,0,0,0c0,0,0,0.1,0,0.1h0c0,0,0,0,0,0.1h0c0,0,0,0,0,0c0,0,0,0,0,0l0,0c0,0,0,0,0,0l0,0v0l0,0l0,0h0c0,0,0,0,0,0
									c0,0,0,0-0.1,0.1c0,0,0,0,0,0c0,0,0,0.1,0,0.1l0,0c0,0,0,0,0,0h0c0,0,0,0.1,0,0.1c0,0,0,0,0,0c0,0,0,0,0,0c0,0,0,0,0,0l0,0
									c0,0,0,0.1,0,0.1c0,0,0,0,0,0c0,0,0,0.1,0,0.1l0,0c0,0,0,0,0,0c0,0,0,0,0,0c0,0,0,0,0,0h0c0,0,0,0,0,0c0,0-0.1,0,0,0.1
									c0,0,0,0,0,0C8.5-11.5,8.5-11.5,8.5-11.4C8.5-11.4,8.5-11.5,8.5-11.4l-0.1-0.1c0,0,0,0,0,0C8.4-11.5,8.5-11.4,8.5-11.4
									C8.5-11.4,8.5-11.4,8.5-11.4L8.5-11.4L8.5-11.4C8.4-11.4,8.4-11.4,8.5-11.4C8.5-11.4,8.5-11.4,8.5-11.4L8.5-11.4
									C8.5-11.4,8.5-11.4,8.5-11.4C8.5-11.4,8.5-11.4,8.5-11.4C8.5-11.4,8.5-11.4,8.5-11.4C8.5-11.4,8.5-11.4,8.5-11.4
									C8.5-11.4,8.6-11.4,8.5-11.4C8.6-11.4,8.6-11.4,8.5-11.4z M8.4-11.7C8.4-11.7,8.4-11.7,8.4-11.7L8.4-11.7
									C8.4-11.7,8.4-11.7,8.4-11.7z M8.4-11.7C8.4-11.7,8.4-11.7,8.4-11.7L8.4-11.7C8.4-11.7,8.4-11.7,8.4-11.7z M8.3-11.6
									L8.3-11.6C8.3-11.6,8.3-11.7,8.3-11.6C8.3-11.7,8.3-11.6,8.3-11.6S8.3-11.6,8.3-11.6z"/>
								<path d="M8.3-11.6L8.3-11.6C8.3-11.6,8.3-11.6,8.3-11.6L8.3-11.6L8.3-11.6z"/>
								<path d="M9.8-14.2L9.8-14.2L9.8-14.2L9.8-14.2z"/>
								<polygon points="8.4,-12.2 8.4,-12.2 8.4,-12.2 								"/>
								<path d="M10-14.1L10-14.1C10-14.1,10-14.1,10-14.1z"/>
								<path d="M10.1-14.1L10.1-14.1C10.1-14.1,10.1-14.1,10.1-14.1z"/>
								<path d="M10.2-14.1L10.2-14.1L10.2-14.1L10.2-14.1z"/>
								<path d="M9.3-13.8L9.3-13.8C9.3-13.8,9.3-13.8,9.3-13.8z"/>
								<path d="M9.5-14L9.5-14C9.5-14,9.5-14,9.5-14z"/>
								<polygon points="9,-13.6 9,-13.6 9,-13.6 								"/>
								<path d="M9.5-14C9.5-14,9.5-14,9.5-14C9.5-14,9.5-14,9.5-14z"/>
								<path d="M10.4-14C10.4-14,10.4-14,10.4-14L10.4-14L10.4-14z"/>
								<path d="M10.4-14L10.4-14L10.4-14z"/>
								<path d="M10.4-14L10.4-14C10.4-14,10.4-14,10.4-14z"/>
								<path d="M10.4-14L10.4-14L10.4-14z"/>
								<path d="M10.3-14L10.3-14C10.3-14,10.3-14,10.3-14C10.3-14.1,10.3-14,10.3-14z"/>
								<path d="M10.3-14.2C10.3-14.2,10.3-14.2,10.3-14.2L10.3-14.2C10.3-14.2,10.3-14.2,10.3-14.2z"/>
								<path d="M10.2-14.2C10.2-14.2,10.2-14.2,10.2-14.2C10.2-14.2,10.2-14.2,10.2-14.2z"/>
								<path d="M9.7-14.2L9.7-14.2C9.7-14.2,9.7-14.2,9.7-14.2z"/>
								<polygon points="9.6,-14 9.6,-14 9.6,-14 								"/>
								<polygon points="9.5,-14.1 9.5,-14.1 9.5,-14.1 								"/>
								<path d="M8.8-13.6L8.8-13.6C8.8-13.6,8.8-13.6,8.8-13.6z"/>
								<path d="M8.6-13.3C8.6-13.3,8.6-13.3,8.6-13.3C8.6-13.3,8.6-13.3,8.6-13.3z"/>
								<polygon points="8.2,-12.3 8.2,-12.3 8.2,-12.3 								"/>
							</g>
						</g>
					</g>
				</g>
			</g>
			<g>
				<g>
					<g>
						<g>
							<g>
								<path d="M7.3-8.3L7.3-8.3L7.3-8.3L7.3-8.3z"/>
								<path d="M7.3-8.3C7.3-8.3,7.3-8.3,7.3-8.3C7.3-8.3,7.3-8.3,7.3-8.3C7.3-8.3,7.3-8.3,7.3-8.3C7.3-8.3,7.3-8.3,7.3-8.3
									C7.3-8.3,7.3-8.3,7.3-8.3C7.3-8.3,7.3-8.3,7.3-8.3z"/>
								<path d="M7.3-8.1L7.3-8.1L7.3-8.1z"/>
								<path d="M7.3-8C7.3-8,7.3-8,7.3-8C7.3-8,7.3-8,7.3-8z"/>
								<path d="M7.2-8L7.2-8L7.2-8z"/>
								<path d="M7.3-8.1L7.3-8.1L7.3-8.1z"/>
								<path d="M7.3-8.3L7.3-8.3L7.3-8.3L7.3-8.3z"/>
								<path d="M7.3-8.1C7.3-8.1,7.3-8.1,7.3-8.1L7.3-8.1L7.3-8.1z"/>
								<path d="M7.3-8.2C7.3-8.2,7.3-8.2,7.3-8.2C7.3-8.2,7.3-8.2,7.3-8.2C7.3-8.2,7.3-8.2,7.3-8.2z"/>
								<path d="M7.3-8.2L7.3-8.2L7.3-8.2z"/>
								<path d="M7.3-8.1L7.3-8.1L7.3-8.1z"/>
								<path d="M6.7-8.3L6.7-8.3L6.7-8.3z"/>
								<polygon points="6.8,-8.3 6.8,-8.3 6.8,-8.3 								"/>
								<path d="M7.2-8L7.2-8L7.2-8z"/>
								<path d="M7-7.9C7-7.9,7-7.9,7-7.9C7-7.9,7-7.9,7-7.9z"/>
								<path d="M7.3-8.3L7.3-8.3L7.3-8.3z"/>
								<path d="M7-7.9L7-7.9L7-7.9z"/>
								<path d="M7.2-7.9C7.2-7.9,7.2-7.9,7.2-7.9C7.2-7.9,7.2-7.9,7.2-7.9z"/>
								<path d="M7.2-8L7.2-8L7.2-8z"/>
								<path d="M7.2-7.9L7.2-7.9C7.2-7.9,7.2-7.9,7.2-7.9C7.2-7.9,7.2-7.9,7.2-7.9z"/>
								<path d="M7.1-7.9L7.1-7.9L7.1-7.9z"/>
								<path d="M6.7-8.1L6.7-8.1C6.7-8.2,6.7-8.1,6.7-8.1z"/>
								<path d="M7.3-8.3L7.3-8.3L7.3-8.3L7.3-8.3z"/>
								<path d="M7.3-7.8L7.3-7.8L7.3-7.8z"/>
								<path d="M6.8-7.9L6.8-7.9L6.8-7.9z"/>
								<path d="M7.2-7.8C7.2-7.8,7.2-7.8,7.2-7.8C7.2-7.8,7.2-7.8,7.2-7.8L7.2-7.8z"/>
								<path d="M6.7-8.1L6.7-8.1L6.7-8.1z"/>
								<path d="M6.6-8.1C6.5-8.1,6.6-8.1,6.6-8.1C6.6-8.1,6.6-8.1,6.6-8.1C6.6-8.1,6.6-8.1,6.6-8.1C6.6-8.1,6.6-8.2,6.6-8.1
									C6.6-8.1,6.6-8.1,6.6-8.1C6.6-8.1,6.6-8.2,6.6-8.1C6.6-8.2,6.6-8.2,6.6-8.1C6.6-8.2,6.6-8.2,6.6-8.1
									C6.6-8.2,6.6-8.2,6.6-8.1C6.6-8.2,6.6-8.2,6.6-8.1C6.6-8.2,6.6-8.2,6.6-8.1C6.6-8.2,6.6-8.2,6.6-8.1
									C6.6-8.2,6.6-8.2,6.6-8.1C6.6-8.2,6.6-8.2,6.6-8.1C6.6-8.2,6.6-8.2,6.6-8.1C6.6-8.2,6.6-8.2,6.6-8.1
									C6.6-8.2,6.6-8.2,6.6-8.1L6.6-8.1C6.6-8.2,6.6-8.2,6.6-8.1C6.6-8.2,6.6-8.2,6.6-8.1L6.6-8.1L6.6-8.1l0.1-0.1
									c0,0,0.1,0,0.1,0l0,0h0c0,0,0,0,0,0c0,0,0,0-0.1,0l0,0h0h0c0,0,0,0,0,0h0c0,0,0,0,0,0l0,0h0c0,0,0,0,0,0c-0.1,0,0,0,0,0
									c0,0,0,0,0,0c-0.1,0,0.1,0,0,0h0c0,0,0,0,0,0c0,0,0,0,0,0c0,0,0,0,0,0h0c0,0,0,0,0.1,0c0,0,0,0-0.1,0c0,0,0,0,0,0
									c0,0,0,0,0,0l0,0l0,0l0,0l0,0c0,0,0,0,0,0c0,0,0,0,0,0l0,0l0,0l0,0l0,0c0,0,0,0,0,0c0,0,0,0-0.1,0v0c0,0,0,0,0,0
									c0,0,0,0,0,0c0,0,0,0,0,0c0,0,0,0,0,0c0,0,0,0,0,0c0,0,0,0,0,0h0c0,0,0,0,0,0c0,0,0,0,0,0c0,0,0,0,0,0l0,0c0,0,0,0,0,0
									c0,0,0,0,0,0h0c0,0,0,0,0,0l0,0l0.1,0l0,0c0,0,0,0,0,0l0,0c0,0,0,0,0,0c0,0,0,0,0,0l0,0c0,0,0,0,0,0l0,0c0,0,0,0,0,0
									c0,0,0,0,0,0c0,0,0,0,0,0c0,0,0,0,0,0l0,0c0,0,0,0,0,0.1c0,0,0,0,0,0l0,0l0,0v0l0,0v0c0,0,0,0,0,0c0,0,0,0,0,0c0,0,0,0,0,0
									v0c0,0,0,0,0,0v0c0,0,0,0,0,0c0,0,0,0,0,0s0,0,0,0v0l0,0c0-0.1,0,0,0-0.1c0,0,0,0,0,0c0,0.1,0,0,0,0.1c0,0,0,0,0,0
									c0,0,0,0,0,0c0,0,0,0,0,0c0,0,0,0,0,0.1c0,0,0,0,0,0v0c0,0,0,0,0,0v0v0v0c0,0,0,0,0,0l0,0c0,0,0,0,0,0c0,0,0,0,0,0
									c0,0,0,0,0,0c0,0,0,0,0,0c0,0,0,0,0,0c0,0,0,0,0,0l0,0c0,0,0,0,0,0c0,0,0,0,0,0c0,0,0,0,0,0c0,0,0,0,0,0s0,0,0,0
									c0,0,0,0,0,0c0,0,0,0,0,0l0,0l0,0c0,0,0,0,0,0c0,0,0,0,0,0c0,0,0,0,0,0c0,0,0,0,0,0l0,0c0,0,0,0,0,0c0,0,0,0,0,0
									c0,0,0,0,0,0h0c0,0,0,0,0,0l0,0c0,0,0,0,0,0c0,0,0,0,0,0v0l0,0v0c0,0,0,0,0,0c0,0,0,0,0,0c0,0,0,0,0,0c0,0,0,0,0,0
									c0,0,0,0,0,0c0,0,0,0,0,0l0,0c0,0,0,0,0,0c0,0,0,0,0,0s0,0,0,0c0,0,0,0,0,0l0,0l0,0c0,0,0,0,0,0c0,0,0,0,0,0c0,0,0,0,0,0
									c0,0,0,0,0,0l0,0l0,0l0,0c0,0,0,0,0,0c0,0,0,0,0,0c0,0,0,0,0,0c0,0,0,0,0,0h0c0,0,0,0,0,0c0,0,0,0,0,0c0,0,0,0,0,0h0
									c0,0,0,0,0,0l0,0l0,0c0,0,0,0,0,0c0,0,0,0,0,0h0c0,0,0,0,0,0c0.1,0,0,0,0,0l0,0l0,0h0c0,0,0,0,0,0c0,0,0,0,0,0c0,0,0,0,0,0
									c0,0,0,0,0,0c0,0,0,0,0,0c0,0,0,0,0,0h0c0,0,0,0,0,0l0,0l0,0l0,0l0,0c0,0,0,0,0,0h0c0,0,0,0,0,0c0,0,0,0,0,0s0,0,0,0
									c0,0,0,0,0,0l0,0c0,0,0,0,0,0c0,0,0,0,0,0h0c0,0,0,0,0,0s0,0,0,0c0,0-0.1,0-0.1,0c0,0,0,0,0,0h0c0,0,0,0,0,0l0,0
									c0,0,0,0,0,0c0,0,0,0,0,0l0,0c0,0,0,0,0,0c0,0,0,0,0,0c0,0,0,0,0,0c0,0,0,0,0,0c0,0,0,0,0,0c0,0,0,0,0,0c0,0,0,0,0,0
									c0,0,0,0,0,0c0,0,0,0,0,0l0,0l0.1,0c0,0,0,0-0.1,0l0,0c0,0,0,0,0,0l0,0h0l0,0c0,0,0,0,0,0c0,0,0,0,0,0l0,0l0,0c0,0,0,0,0,0
									l0,0c0,0,0,0,0,0l0,0v0c0,0,0,0,0,0c0,0,0,0,0,0c0,0,0,0,0,0c0,0,0,0,0,0c0,0,0,0,0,0l0,0c0,0,0,0,0,0c0,0,0,0,0,0
									c0,0,0,0,0.1,0c0,0,0,0,0,0c0,0,0,0,0,0c0,0,0,0,0,0c0,0,0,0,0,0l0,0c0,0,0,0,0,0c0,0,0,0,0.1,0l0,0l0,0l0,0c0,0,0,0,0,0
									c0,0,0,0,0,0c0,0,0,0,0,0c0,0,0,0,0,0h0h0c0,0,0,0,0,0h0c0,0,0,0,0,0c0,0,0,0,0,0c0,0,0,0,0,0l0,0h0c0,0,0,0,0,0
									c0,0,0,0,0,0c0,0,0,0,0,0h0c0,0,0,0,0,0c0,0,0,0,0,0c0,0,0,0,0,0l0,0c0,0,0,0,0,0c0,0,0,0,0,0c0,0,0,0,0,0c0,0,0,0,0,0
									c0,0,0,0,0,0c0,0,0,0,0,0l0,0c0,0,0,0,0,0c0,0,0,0,0,0c0,0,0,0,0,0c0,0,0,0,0,0l0,0c0,0,0,0,0,0c0,0,0,0,0,0h0v0l0,0
									c0,0,0,0,0,0h0v0c0,0,0,0,0,0c0,0,0,0,0,0h0c0,0,0,0,0,0c0,0,0,0,0,0c0,0,0,0,0,0c0,0,0,0,0,0l0,0c0,0,0,0-0.1,0
									c0,0,0,0,0,0l0,0c0,0,0,0,0,0c0,0,0,0,0,0c0,0,0,0,0,0l0,0c0,0,0,0,0,0.1c0,0,0,0,0,0c0,0,0,0,0,0.1c0,0,0,0,0,0
									c0,0,0,0,0,0c0,0,0,0,0,0c0,0,0,0,0,0c0,0,0,0,0,0c0,0,0,0,0,0c0,0,0,0,0,0c0,0,0,0,0,0c0,0,0,0,0,0c0,0,0,0,0,0
									c0,0,0,0,0,0v0c0,0,0,0-0.1,0v0c0,0,0,0,0,0c0,0-0.1,0-0.1,0c0,0,0,0,0,0c0,0,0,0,0,0v0c0,0,0,0,0,0c0,0,0,0,0,0
									c0,0,0,0,0,0l0,0l0,0c0,0,0-0.1,0,0l0,0v0c0,0,0,0,0,0c0,0,0,0,0,0c0,0,0,0,0,0c0,0,0,0,0,0c0,0,0,0,0,0c0,0,0,0,0,0
									c0,0,0,0,0,0l0,0c0,0,0,0,0,0l0,0h0c0,0,0,0,0,0c0,0,0,0,0,0l0,0c0,0,0,0,0,0c0,0,0,0,0,0l0,0c0,0,0,0,0,0l0,0c0,0,0,0,0,0
									c0,0,0,0,0,0h0c0,0,0,0,0,0s0,0,0,0h0l0,0l0,0l0,0l0,0c0,0,0,0,0.1-0.1c0,0,0,0,0,0c0,0,0,0,0-0.1l0,0c0,0,0,0,0,0h0
									c0,0,0,0,0,0l0,0c0,0,0,0,0,0h0h0c0,0,0,0,0,0c0,0,0,0,0,0c0,0,0,0,0,0h0c0,0,0,0,0,0c0,0,0,0,0,0c0,0,0,0,0,0h0
									c0,0,0,0,0,0c0,0,0.1,0,0,0c0,0,0,0,0,0C6.7-8.1,6.6-8.1,6.6-8.1c0.1,0,0.1,0,0.1,0l0,0c0,0,0,0,0,0c0,0,0,0,0,0
									c0,0,0,0,0,0h0h0c0,0,0,0,0,0c0,0,0,0,0,0h0C6.7-8.2,6.7-8.2,6.6-8.1c0.1,0,0.1,0,0.1,0S6.6-8.2,6.6-8.1
									c0.1-0.1,0.1-0.1,0.1-0.1C6.7-8.2,6.6-8.2,6.6-8.1C6.6-8.2,6.6-8.2,6.6-8.1z M6.7-8.1C6.7-8.1,6.7-8.1,6.7-8.1L6.7-8.1
									C6.7-8.1,6.7-8.1,6.7-8.1z M6.7-8.1C6.7-8.1,6.7-8.1,6.7-8.1L6.7-8.1C6.7-8.1,6.7-8.1,6.7-8.1z M6.8-8.1L6.8-8.1
									C6.8-8.1,6.8-8.1,6.8-8.1L6.8-8.1C6.8-8.1,6.8-8.1,6.8-8.1z"/>
								<path d="M6.8-8.1L6.8-8.1L6.8-8.1L6.8-8.1L6.8-8.1z"/>
								<path d="M7.3-8.1L7.3-8.1L7.3-8.1L7.3-8.1z"/>
								<path d="M6.7-7.9L6.7-7.9L6.7-7.9z"/>
								<path d="M7.4-8.2L7.4-8.2L7.4-8.2z"/>
								<path d="M7.4-8.2L7.4-8.2L7.4-8.2z"/>
								<path d="M7.4-8.2L7.4-8.2C7.4-8.2,7.4-8.2,7.4-8.2L7.4-8.2z"/>
								<path d="M7.3-7.9L7.3-7.9C7.3-7.9,7.3-7.9,7.3-7.9z"/>
								<path d="M7.3-8C7.3-8,7.3-8,7.3-8C7.3-8,7.3-8,7.3-8z"/>
								<path d="M7.3-7.8L7.3-7.8L7.3-7.8z"/>
								<path d="M7.3-8L7.3-8L7.3-8z"/>
								<path d="M7.3-8.3L7.3-8.3L7.3-8.3z"/>
								<path d="M7.3-8.3L7.3-8.3L7.3-8.3z"/>
								<path d="M7.3-8.3L7.3-8.3C7.3-8.3,7.3-8.3,7.3-8.3z"/>
								<path d="M7.3-8.3L7.3-8.3C7.3-8.3,7.3-8.3,7.3-8.3z"/>
								<path d="M7.3-8.3L7.3-8.3C7.4-8.3,7.3-8.3,7.3-8.3C7.3-8.3,7.4-8.3,7.3-8.3z"/>
								<path d="M7.3-8.2L7.3-8.2L7.3-8.2C7.3-8.2,7.2-8.2,7.3-8.2z"/>
								<path d="M7.3-8.2L7.3-8.2C7.3-8.2,7.3-8.2,7.3-8.2z"/>
								<path d="M7.3-8.1L7.3-8.1C7.3-8.1,7.3-8.1,7.3-8.1z"/>
								<polygon points="7.4,-8 7.4,-8 7.4,-8 								"/>
								<path d="M7.2-8.1L7.2-8.1L7.2-8.1z"/>
								<path d="M7.2-7.9L7.2-7.9C7.1-7.9,7.1-7.9,7.2-7.9z"/>
								<path d="M7.1-7.9C7.1-7.9,7.1-7.9,7.1-7.9C7.1-7.9,7.1-7.9,7.1-7.9z"/>
								<path d="M6.9-8L6.9-8L6.9-8z"/>
							</g>
						</g>
					</g>
				</g>
			</g>
			<g>
				<g>
					<g>
						<g>
							<g>
								<path d="M9.5-7.4L9.5-7.4C9.5-7.4,9.5-7.4,9.5-7.4L9.5-7.4z"/>
								<path d="M9.5-7.3C9.5-7.3,9.5-7.3,9.5-7.3C9.5-7.4,9.5-7.4,9.5-7.3C9.5-7.4,9.5-7.4,9.5-7.3C9.5-7.4,9.5-7.3,9.5-7.3
									C9.5-7.3,9.5-7.3,9.5-7.3L9.5-7.3z"/>
								<path d="M9.4-7L9.4-7L9.4-7z"/>
								<path d="M9.4-6.9L9.4-6.9L9.4-6.9z"/>
								<path d="M9.3-6.9L9.3-6.9L9.3-6.9z"/>
								<path d="M9.4-7L9.4-7L9.4-7z"/>
								<path d="M9.5-7.3L9.5-7.3L9.5-7.3L9.5-7.3z"/>
								<path d="M9.4-7.1C9.4-7.1,9.4-7.1,9.4-7.1L9.4-7.1L9.4-7.1z"/>
								<path d="M9.4-7.2C9.4-7.2,9.4-7.2,9.4-7.2L9.4-7.2C9.4-7.2,9.4-7.2,9.4-7.2z"/>
								<path d="M9.4-7.3L9.4-7.3L9.4-7.3z"/>
								<path d="M9.4-7.1L9.4-7.1L9.4-7.1z"/>
								<path d="M8.4-7.2L8.4-7.2L8.4-7.2z"/>
								<polygon points="8.6,-7.2 8.5,-7.2 8.5,-7.2 								"/>
								<path d="M9.3-6.8L9.3-6.8L9.3-6.8z"/>
								<path d="M8.9-6.6C8.9-6.6,8.9-6.6,8.9-6.6C8.9-6.6,8.9-6.6,8.9-6.6z"/>
								<path d="M9.5-7.3L9.5-7.3L9.5-7.3z"/>
								<path d="M8.9-6.6L8.9-6.6L8.9-6.6z"/>
								<path d="M9.2-6.7C9.2-6.7,9.2-6.7,9.2-6.7C9.2-6.7,9.2-6.7,9.2-6.7z"/>
								<path d="M9.3-6.8L9.3-6.8C9.3-6.8,9.3-6.8,9.3-6.8z"/>
								<path d="M9.2-6.7L9.2-6.7C9.2-6.7,9.2-6.7,9.2-6.7C9.2-6.7,9.2-6.7,9.2-6.7z"/>
								<path d="M9.2-6.7L9.2-6.7L9.2-6.7z"/>
								<path d="M8.4-7L8.4-7C8.4-7,8.4-7,8.4-7z"/>
								<path d="M9.5-7.3C9.5-7.3,9.5-7.3,9.5-7.3C9.5-7.3,9.5-7.3,9.5-7.3C9.5-7.3,9.5-7.3,9.5-7.3z"/>
								<path d="M9.3-6.6L9.3-6.6C9.3-6.6,9.3-6.6,9.3-6.6z"/>
								<path d="M8.5-6.6L8.5-6.6L8.5-6.6z"/>
								<path d="M9.3-6.5C9.2-6.5,9.2-6.5,9.3-6.5C9.3-6.5,9.3-6.5,9.3-6.5L9.3-6.5z"/>
								<path d="M8.4-7L8.4-7L8.4-7z"/>
								<path d="M8.3-7.1C8.3-7.1,8.3-7.1,8.3-7.1S8.4-7.1,8.3-7.1C8.4-7.1,8.4-7.1,8.3-7.1C8.4-7.1,8.4-7.1,8.3-7.1
									C8.4-7.1,8.4-7.1,8.3-7.1C8.4-7.1,8.4-7.1,8.3-7.1C8.4-7.1,8.4-7.1,8.3-7.1C8.4-7.1,8.4-7.1,8.3-7.1c0-0.1,0.1-0.1,0-0.1
									c0,0,0,0,0.1,0l0,0c0,0,0,0,0,0c0,0,0,0,0,0c0,0,0,0,0,0c0,0,0,0,0,0c0,0,0,0,0,0c0,0,0,0,0,0l0,0c0,0,0,0,0,0c0,0,0,0,0,0
									v0h0l0,0c0,0,0.1,0,0.1,0.1v0c0,0,0,0,0,0c0,0,0,0,0,0s0,0,0,0l0,0l0,0c0,0,0,0,0,0c0,0,0,0,0,0l0,0c0,0-0.1,0,0,0l0,0.1
									l0,0c0,0,0,0,0,0c-0.1,0,0,0.1,0,0.1c0,0,0,0,0,0c-0.1,0,0.1,0,0,0.1h0c0,0,0,0,0,0c0,0,0,0,0,0c0,0,0,0,0,0h0
									c0,0,0,0,0.1,0c0,0,0,0-0.1,0c0,0,0,0,0,0c0,0,0,0,0,0c0,0,0,0,0,0l0,0l0,0l0,0c0,0,0,0,0,0c0,0,0,0,0,0l0,0l0,0l0,0l0,0
									c0,0,0,0,0,0c0,0,0,0-0.1,0c0,0,0,0,0,0c0,0,0,0,0,0c0,0,0,0,0,0c0,0,0,0,0,0c0,0,0,0,0,0c0,0,0,0,0,0s0,0,0,0h0
									c0,0,0,0,0,0c0,0,0,0,0,0c0,0,0,0,0,0l0,0c0,0,0,0,0,0c0,0,0,0,0,0h0c0,0,0,0,0,0l0,0c0,0,0.1,0,0.1,0l0,0c0,0,0,0,0,0l0,0
									c0,0,0,0,0,0c0,0,0,0,0,0.1l0,0c0,0,0,0,0,0l0,0c0,0,0,0,0,0l0,0c0,0,0,0,0,0.1c0,0,0,0,0.1,0l0,0c0,0,0,0,0,0.1
									c0,0,0,0,0,0v0l0,0v0l0,0v0c0,0,0,0,0,0c0,0,0,0,0,0c0,0,0,0,0,0v0c0,0,0,0,0,0v0c0,0,0,0,0,0c0,0,0,0,0,0c0,0,0,0,0,0l0,0
									l0,0c0-0.1,0,0,0-0.1c0,0,0,0,0,0c0,0,0,0,0,0.1c0,0,0,0,0,0v0c0,0,0,0,0,0c0,0,0,0,0,0.1c0,0,0,0,0,0l0,0c0,0,0,0,0,0v0
									c0,0,0,0,0,0v0c0,0,0,0,0,0l0,0c0,0,0,0,0,0c0,0,0,0,0,0c0,0,0,0,0,0c0,0,0,0,0-0.1c0,0,0,0,0,0c0,0,0,0,0,0l0,0
									c0,0,0,0,0,0c0,0,0,0,0,0c0,0,0,0,0,0l0,0c0,0,0,0,0,0c0,0,0,0,0.1,0c0,0,0,0,0,0l0,0c0,0,0,0,0,0c0,0,0,0,0,0c0,0,0,0,0,0
									c0,0,0,0,0,0c0,0,0,0,0,0l0.1,0c0,0,0,0,0,0c0,0,0,0,0,0c0,0,0,0,0,0h0c0,0,0,0,0,0l0,0c0,0,0,0,0,0c0,0,0,0,0,0v0l0,0v0
									c0,0,0,0,0,0c0,0,0,0,0,0c0,0,0,0,0,0c0,0,0,0,0,0c0,0,0,0,0,0c0,0,0,0,0,0l0,0c0,0,0,0,0,0c0,0,0,0,0,0s0,0,0,0
									c0,0,0,0,0,0l0,0l0,0c0,0,0,0,0,0c0,0,0,0,0,0c0,0,0,0,0,0c0,0,0,0,0,0l0,0c0,0,0,0,0,0v0c0,0,0,0,0,0c0,0,0,0,0,0
									c0,0,0,0,0,0c0,0,0,0,0,0h0c0,0,0,0,0,0c0,0,0,0,0,0c0,0,0,0,0,0h0c0,0,0,0,0,0l0,0l0,0c0,0,0,0,0,0c0,0,0,0,0,0h0
									c0,0,0,0,0,0c0.1,0,0,0,0,0l0,0v0h0c0,0,0,0,0,0c0,0,0,0,0,0c0,0,0,0,0,0c0,0,0,0,0,0c0,0,0,0,0,0c0,0,0,0,0,0h0
									c0,0,0,0,0,0l0,0l0,0l0,0l0,0c0,0,0,0,0,0h0c0,0,0,0,0,0c0,0,0,0,0,0c0,0,0,0,0,0c0,0,0,0,0,0l0,0c0,0,0,0,0,0c0,0,0,0,0,0
									h0c0,0,0,0,0,0s0,0,0,0c0,0-0.1,0-0.1,0c0,0,0,0,0,0h0c0,0,0,0,0,0l0,0c0,0,0,0,0,0c0,0,0,0,0,0l0,0c0,0,0,0,0,0
									c0,0,0,0,0,0c0,0,0,0,0,0c0,0,0,0,0,0c0,0,0,0,0,0c0,0,0,0,0,0c0,0,0,0,0,0c0,0,0,0,0,0c0,0,0,0,0,0h0l0.1,0c0,0,0,0-0.1,0
									l0,0c0,0,0,0,0,0c0,0,0,0,0,0h0l0,0c0,0,0,0,0,0c0,0,0,0,0,0h0h0c0,0-0.1,0,0,0l0,0c0,0,0,0,0,0c0,0,0,0,0,0l0,0
									c0,0,0,0,0,0c0,0,0,0,0,0c0,0,0,0,0,0c0,0,0,0,0,0c0,0,0,0,0,0h0c0,0,0,0,0,0c0,0,0,0,0,0c0,0,0,0,0.1,0c0,0,0,0,0,0
									c0,0,0,0,0,0c0,0,0,0,0,0c0,0,0,0,0,0l0,0c0,0,0,0,0,0c0,0,0,0,0,0l0,0l0,0l0,0c0,0,0,0,0,0c0,0,0,0,0,0c0,0,0,0,0,0
									c0,0,0,0,0,0l0,0h0c0,0,0,0,0,0h0c0,0,0,0,0,0c0,0,0,0,0,0s0,0,0,0l0,0h0c-0.1,0,0,0,0,0.1c0,0,0,0,0,0c0,0,0,0,0,0h0
									c0,0,0,0,0,0c0,0,0,0,0,0c0,0,0,0,0,0l0,0c0,0,0,0,0,0.1c0,0,0,0,0,0c0,0,0,0,0,0l0,0c0,0,0,0,0,0c0,0,0,0,0,0l0,0
									c0,0,0,0,0,0c0,0,0,0,0,0c0,0,0,0,0,0s0,0,0,0l0,0c0,0,0,0,0,0s0,0,0,0h0v0l0,0c0,0,0,0,0,0h0v0c0,0,0,0,0,0c0,0,0,0,0,0.1
									c0,0,0,0,0,0s0,0,0,0l0,0c0,0,0,0,0,0c0,0,0,0,0,0c0,0,0,0,0,0c-0.1,0,0,0-0.1,0c0,0,0,0,0,0l0,0c0,0,0,0,0,0c0,0,0,0,0,0
									c0,0,0,0,0,0.1c0,0,0,0,0,0c0,0,0,0,0,0.1c0,0,0,0,0,0c0,0,0,0,0,0.1c0,0,0,0,0,0c0,0,0,0,0,0c0,0,0,0,0,0c0,0,0,0,0,0
									c0,0,0,0,0,0c0,0,0,0,0,0c0,0,0,0,0,0c0,0,0,0,0,0c0,0,0,0,0,0l0,0c0,0,0,0,0,0v0c0,0-0.1,0-0.1,0.1v0c0,0,0,0,0,0
									c0,0-0.1,0-0.1,0c0,0,0,0,0,0c0,0,0,0,0,0v0c0,0-0.1,0-0.1,0c0,0,0,0-0.1,0c0,0,0,0,0,0l0,0l0,0c0,0,0-0.1-0.1,0l0,0v0
									c0,0,0,0,0,0c0,0,0,0,0,0c0,0,0,0,0,0c0,0,0,0,0,0c0,0,0,0,0,0c0,0,0,0,0,0c0,0,0,0,0,0v0c0,0,0,0,0,0c0,0,0,0,0,0h0l0,0
									c0,0,0,0,0,0l0,0c0,0,0,0,0,0c0,0,0,0-0.1,0l0,0c0,0,0,0,0,0l0,0c0,0,0,0,0,0c0,0,0,0,0,0h0c0,0,0,0,0,0s0,0,0,0h0l0,0l0,0
									l0,0c0,0,0,0,0,0c0,0,0,0,0-0.1c0,0,0,0,0,0c0,0,0,0,0-0.1l0,0c0,0,0,0,0,0h0c0,0,0,0,0,0l0,0c0,0,0,0,0,0h0h0
									c0,0,0-0.1,0-0.1c0,0,0,0,0,0c0,0,0,0,0,0h0c0,0,0,0,0,0c0,0,0,0,0,0c0,0,0,0,0,0h0c0,0,0,0,0,0c0,0,0.1,0,0,0c0,0,0,0,0,0
									C8.4-7,8.3-7,8.3-7.1C8.4-7,8.3-7,8.3-7.1L8.3-7.1C8.4-7,8.4-7,8.4-7C8.4-7,8.4-7,8.3-7.1C8.4-7,8.4-7,8.3-7.1L8.3-7.1
									C8.4-7,8.4-7,8.3-7.1C8.4-7,8.4-7,8.3-7.1C8.4-7,8.4-7,8.3-7.1C8.4-7,8.4-7,8.3-7.1C8.3-7,8.4-7,8.3-7.1
									C8.4-7.1,8.4-7.1,8.3-7.1C8.4-7.1,8.3-7.1,8.3-7.1C8.3-7.1,8.4-7.1,8.3-7.1C8.4-7.1,8.3-7.1,8.3-7.1
									C8.3-7.1,8.3-7.1,8.3-7.1z M8.4-6.9C8.4-6.9,8.4-6.9,8.4-6.9L8.4-6.9C8.4-6.9,8.4-6.9,8.4-6.9z M8.4-6.9
									C8.4-6.9,8.4-6.9,8.4-6.9L8.4-6.9C8.4-6.9,8.4-6.9,8.4-6.9z M8.5-6.9L8.5-6.9L8.5-6.9C8.5-6.9,8.5-6.9,8.5-6.9L8.5-6.9z"/>
								<path d="M8.5-6.9L8.5-6.9L8.5-6.9L8.5-6.9L8.5-6.9z"/>
								<path d="M9.4-7L9.4-7L9.4-7L9.4-7z"/>
								<polygon points="8.5,-6.6 8.5,-6.6 8.5,-6.6 								"/>
								<path d="M9.5-7.1C9.5-7.1,9.5-7.1,9.5-7.1S9.5-7.1,9.5-7.1z"/>
								<path d="M9.5-7.2L9.5-7.2L9.5-7.2z"/>
								<path d="M9.5-7.2L9.5-7.2L9.5-7.2L9.5-7.2z"/>
								<path d="M9.4-6.7L9.4-6.7C9.4-6.7,9.4-6.7,9.4-6.7z"/>
								<path d="M9.4-6.9C9.4-6.9,9.4-6.9,9.4-6.9C9.5-6.9,9.5-6.9,9.4-6.9z"/>
								<path d="M9.3-6.6L9.3-6.6L9.3-6.6z"/>
								<path d="M9.4-6.9C9.5-6.9,9.5-6.9,9.4-6.9L9.4-6.9z"/>
								<path d="M9.5-7.3L9.5-7.3L9.5-7.3L9.5-7.3z"/>
								<path d="M9.5-7.3L9.5-7.3C9.5-7.3,9.5-7.3,9.5-7.3z"/>
								<path d="M9.5-7.3L9.5-7.3L9.5-7.3z"/>
								<path d="M9.5-7.3L9.5-7.3L9.5-7.3z"/>
								<path d="M9.5-7.3L9.5-7.3L9.5-7.3C9.5-7.3,9.5-7.3,9.5-7.3z"/>
								<path d="M9.4-7.2C9.4-7.2,9.4-7.2,9.4-7.2L9.4-7.2C9.4-7.2,9.4-7.2,9.4-7.2z"/>
								<path d="M9.4-7.2L9.4-7.2C9.4-7.2,9.4-7.2,9.4-7.2z"/>
								<path d="M9.4-7L9.4-7C9.4-7,9.4-7,9.4-7z"/>
								<polygon points="9.5,-6.9 9.5,-6.9 9.5,-6.9 								"/>
								<polygon points="9.4,-6.9 9.3,-6.9 9.4,-6.9 								"/>
								<path d="M9.2-6.7L9.2-6.7L9.2-6.7z"/>
								<path d="M9-6.6C9-6.6,9-6.6,9-6.6C9-6.6,9-6.6,9-6.6z"/>
								<polygon points="8.6,-6.7 8.7,-6.7 8.6,-6.7 								"/>
							</g>
						</g>
					</g>
				</g>
			</g>
			<g>
				<g>
					<g>
						<g>
							<g>
								<path d="M9.4-9.5L9.4-9.5C9.4-9.5,9.4-9.5,9.4-9.5L9.4-9.5z"/>
								<path d="M9.4-9.5C9.4-9.5,9.4-9.5,9.4-9.5C9.4-9.5,9.4-9.5,9.4-9.5C9.4-9.5,9.4-9.5,9.4-9.5C9.4-9.5,9.4-9.5,9.4-9.5
									C9.4-9.5,9.4-9.5,9.4-9.5L9.4-9.5z"/>
								<path d="M9.4-9.2L9.4-9.2L9.4-9.2z"/>
								<path d="M9.3-9L9.3-9L9.3-9z"/>
								<path d="M9.3-9L9.3-9L9.3-9z"/>
								<path d="M9.4-9.2L9.4-9.2L9.4-9.2z"/>
								<path d="M9.4-9.4L9.4-9.4C9.4-9.4,9.4-9.4,9.4-9.4L9.4-9.4z"/>
								<path d="M9.3-9.3L9.3-9.3L9.3-9.3L9.3-9.3z"/>
								<path d="M9.4-9.3C9.4-9.3,9.4-9.3,9.4-9.3L9.4-9.3L9.4-9.3z"/>
								<path d="M9.4-9.4L9.4-9.4L9.4-9.4z"/>
								<path d="M9.3-9.2L9.3-9.2L9.3-9.2z"/>
								<path d="M8.1-8.8L8.1-8.8L8.1-8.8z"/>
								<polygon points="8.2,-9 8.2,-9 8.2,-9 								"/>
								<path d="M9.2-9L9.2-9C9.2-9,9.2-9,9.2-9z"/>
								<path d="M8.9-8.7C8.9-8.7,8.9-8.7,8.9-8.7C8.9-8.7,8.9-8.7,8.9-8.7z"/>
								<path d="M9.4-9.4L9.4-9.4L9.4-9.4z"/>
								<path d="M8.9-8.7L8.9-8.7L8.9-8.7z"/>
								<path d="M9.2-8.9C9.2-8.9,9.2-8.9,9.2-8.9S9.2-8.9,9.2-8.9z"/>
								<path d="M9.3-8.9L9.3-8.9C9.3-8.9,9.2-8.9,9.3-8.9z"/>
								<path d="M9.2-8.8L9.2-8.8C9.2-8.8,9.2-8.8,9.2-8.8C9.2-8.8,9.2-8.8,9.2-8.8z"/>
								<polygon points="9.2,-8.8 9.2,-8.8 9.1,-8.8 								"/>
								<path d="M8.2-8.7L8.2-8.7C8.2-8.7,8.2-8.7,8.2-8.7z"/>
								<path d="M9.4-9.4L9.4-9.4L9.4-9.4L9.4-9.4z"/>
								<path d="M9.3-8.7L9.3-8.7L9.3-8.7z"/>
								<path d="M8.6-8.5L8.6-8.5L8.6-8.5z"/>
								<path d="M9.3-8.7C9.3-8.7,9.3-8.7,9.3-8.7C9.3-8.7,9.3-8.7,9.3-8.7L9.3-8.7z"/>
								<path d="M8.2-8.7L8.2-8.7L8.2-8.7z"/>
								<path d="M8.2-8.8C8.2-8.8,8.2-8.8,8.2-8.8C8.2-8.8,8.2-8.8,8.2-8.8C8.2-8.8,8.2-8.8,8.2-8.8C8.2-8.8,8.2-8.8,8.2-8.8
									C8.2-8.8,8.2-8.8,8.2-8.8C8.2-8.8,8.2-8.8,8.2-8.8C8.2-8.8,8.2-8.8,8.2-8.8L8.2-8.8C8.2-8.8,8.2-8.9,8.2-8.8
									C8.2-8.9,8.1-8.9,8.2-8.8C8.2-8.9,8.2-8.9,8.2-8.8c0-0.1-0.1-0.1,0-0.1c0,0,0,0,0,0c0,0,0,0,0,0c0,0,0,0,0,0c0,0,0,0,0,0
									c0,0,0,0,0,0l0,0c0,0,0,0,0,0c0,0,0,0,0,0l0,0l0,0h0c0,0,0.1,0,0.1-0.1h0c0,0,0,0,0,0c0,0,0,0,0,0c0,0,0,0,0,0h0h0
									c0,0,0,0,0,0c0,0,0,0,0,0l0,0c0,0,0,0,0,0l0,0l0,0c0,0,0,0,0,0c0,0,0,0,0,0.1c0,0,0,0,0,0c0,0.1,0.1,0,0.1,0l0,0
									c0,0,0,0,0,0c0,0,0,0,0,0c0,0,0,0,0,0c0,0,0,0,0,0c0,0,0,0,0.1,0c0,0,0,0,0,0.1c0,0,0,0,0,0c0,0,0,0,0,0c0,0,0,0,0,0l0,0
									l0,0l0,0c0,0,0,0,0,0c0,0,0,0,0,0c0,0,0,0,0,0l0,0l0,0l0,0c0,0,0,0,0,0c0,0,0,0,0,0c0,0,0,0,0,0v0c0,0,0,0,0,0c0,0,0,0,0,0
									c0,0,0,0,0,0c0,0,0,0,0,0c0,0,0,0,0,0l0,0c0,0,0,0,0,0v0c0,0,0,0,0,0l0,0c0,0,0,0,0,0c0,0,0,0,0,0c0,0,0,0,0,0c0,0,0,0,0,0
									l0,0c0,0,0-0.1,0-0.1l0,0c0,0,0,0,0,0v0c0,0,0,0,0,0c0,0.1,0,0,0,0l0,0c0,0,0,0,0,0l0,0c0,0,0,0,0,0c0,0,0,0,0,0
									c0,0,0,0,0,0c0,0,0,0,0,0l0,0c0,0,0,0,0,0.1c0,0,0-0.1,0,0v0c0,0,0,0,0,0v0c0,0,0,0,0,0v0c0,0,0,0,0,0c0,0,0,0,0,0
									c0,0,0,0,0,0v0c0,0,0,0,0,0l0,0c0,0,0,0,0,0c0,0,0,0,0,0c0,0,0,0,0,0L9-8.6l0,0c0-0.1,0,0,0-0.1c0,0,0,0,0,0c0,0,0,0,0.1,0
									c0,0,0,0,0,0v0c0,0,0,0,0,0c0,0,0,0,0,0.1c0,0,0,0,0,0l0,0c0,0,0,0,0,0v0c0,0,0,0,0,0v0c0,0,0,0,0,0l0,0c0,0,0,0,0,0
									c0,0,0,0,0,0c0,0,0,0,0,0c0,0,0,0,0-0.1l0,0c0,0,0,0,0,0l0,0c0,0,0,0,0,0c0,0,0,0,0,0c0,0,0,0,0,0l0,0c0,0,0,0,0,0
									c0,0,0,0,0.1,0c0,0,0,0,0,0l0,0l0,0c0,0,0,0,0,0c0,0,0,0,0,0c0,0,0,0,0,0c0,0,0,0,0,0l0,0c0,0,0,0,0,0c0,0,0,0,0,0
									c0,0,0,0,0,0h0c0,0,0,0,0,0l0,0c0,0,0,0,0,0c0,0,0,0,0,0v0l0,0v0c0,0,0,0,0,0c0,0,0,0,0,0c0,0,0,0,0,0c0,0,0,0,0,0
									c0,0,0,0,0,0c0,0,0,0,0,0l0,0c0,0,0,0,0,0l0,0c0,0,0,0,0,0c0,0,0,0,0,0l0,0l0,0c0,0,0,0,0,0c0,0,0,0,0,0c0,0,0,0,0,0
									c0,0,0,0,0,0h0c0,0,0,0,0,0l0,0c0,0,0,0,0,0c0,0,0,0,0,0c0,0,0,0,0,0c0,0,0,0,0,0h0c0,0,0,0,0,0c0,0,0,0,0,0c0,0,0,0,0,0h0
									c0,0,0,0,0,0l0,0c0,0,0,0,0,0c0,0,0,0,0,0c0,0,0,0,0,0h0c0,0,0,0,0,0c0.1,0,0,0,0,0l0,0v0h0c0,0,0,0,0,0c0,0,0,0,0,0
									c0,0,0,0,0,0c0,0,0,0,0,0c0,0,0,0,0,0c0,0,0,0,0,0h0c0,0,0,0,0,0l0,0l0,0l0,0l0,0c0,0,0,0,0,0h0c0,0,0,0,0,0c0,0,0,0,0,0
									c0,0,0,0,0,0c0,0,0,0,0,0l0,0c0,0,0,0,0,0c0,0,0,0,0,0h0c0,0,0,0,0,0s0,0,0,0c0,0-0.1,0-0.1,0c0,0,0,0,0,0h0c0,0,0,0,0,0
									l0,0c0,0,0,0,0,0c0,0,0,0,0,0l0,0c0,0,0,0,0,0c0,0,0,0,0,0c0,0,0,0,0,0c0,0,0,0,0,0s0,0,0,0c0,0,0,0,0,0c0,0,0,0,0,0
									c0,0,0,0,0,0c0,0,0,0,0,0h0l0.1,0c0,0,0,0-0.1,0l0,0c0,0,0,0,0,0c0,0,0,0,0,0h0l0,0c0,0,0,0,0,0c0,0,0,0,0,0h0h0
									c0,0-0.1,0,0,0l0,0c0,0,0,0,0,0c0,0,0,0,0,0l0,0c0,0,0,0,0,0c0,0,0,0,0,0c0,0,0,0,0,0c0,0,0,0,0,0s0,0,0,0c0,0,0,0,0,0
									s0,0,0,0c0,0,0,0,0,0c0,0,0,0,0.1,0c0,0,0,0,0,0c0,0,0,0,0,0c0,0,0,0,0,0c0,0,0,0,0,0l0,0c0,0,0,0,0,0c0,0,0,0,0.1,0l0,0
									l0,0l0,0c0,0,0,0,0,0c0,0,0,0,0,0c0,0,0,0,0,0c0,0,0,0,0,0c0,0,0,0,0,0h0c0,0,0,0,0,0h0c0,0,0,0,0,0c0,0,0,0,0,0s0,0,0,0
									l0,0h0c-0.1,0,0,0,0,0.1c0,0,0,0,0,0c0,0,0,0,0,0h0c0,0,0,0,0,0c0,0,0,0,0,0c0,0,0,0,0,0l0,0c0,0,0,0,0,0.1c0,0,0,0,0,0
									c0,0,0,0,0,0l0,0c0,0,0,0,0,0c0,0,0,0,0,0l0,0c0,0,0,0,0,0c0,0,0,0,0,0c0,0,0,0,0,0c0,0,0,0,0,0l0,0c0,0,0,0,0,0
									c0,0,0,0,0,0h0v0l0,0c0,0,0,0,0,0h0v0c0,0,0,0,0,0c0,0,0,0,0,0h0c0,0,0,0,0,0c0,0,0,0,0,0c0,0,0,0,0,0c0,0,0,0,0,0l0,0
									c-0.1,0,0,0-0.1,0c0,0,0,0,0,0l0,0c0,0,0,0,0,0c0,0,0,0,0,0c0,0,0,0,0,0.1l0,0c0,0,0,0,0,0.1c0,0,0,0,0.1,0c0,0,0,0,0,0.1
									c-0.1,0,0,0,0,0c0,0,0,0,0,0c0,0,0,0,0,0c0,0,0,0,0,0c0,0,0,0,0,0c0,0,0,0,0,0c0,0,0,0,0,0c0,0,0,0,0,0c0,0,0,0,0,0l0,0
									c0,0,0,0,0,0c0,0,0,0,0,0c0,0-0.1,0-0.1,0.1l0,0c0,0,0,0,0,0c0,0-0.1,0-0.1,0c0,0,0,0,0,0c0,0,0,0,0,0v0c0,0,0,0-0.1,0
									c0,0,0,0,0,0c0,0,0,0,0,0l0,0l0,0c0,0.1-0.1,0-0.1,0l0,0l0,0c0,0,0,0,0,0c0,0,0,0,0,0c0,0,0,0,0,0c0,0,0,0,0,0c0,0,0,0,0,0
									c0,0,0,0,0,0c0,0,0,0,0,0v0c0,0,0,0,0,0c0,0,0,0,0,0l0,0c0,0,0,0,0,0c0,0,0,0,0,0v0c0,0,0,0,0,0c0,0,0,0-0.1,0v0
									c0,0,0,0,0,0v0c0,0,0,0,0,0c0,0,0,0,0,0l0,0c0,0,0,0,0,0v0h0v0l0,0v0c0,0,0,0,0,0c0,0,0,0,0-0.1c0,0.1,0,0,0,0
									c0,0,0,0-0.1,0l0,0c0,0,0,0,0,0l0,0c0,0,0,0-0.1,0c0,0,0,0,0,0s0,0,0,0v0l0,0c0,0,0,0,0,0c0,0,0,0,0,0c0,0,0,0-0.1,0v0
									c0,0,0,0,0,0c0,0,0,0,0,0c0,0,0,0,0,0l0,0c0,0,0,0,0,0C8.2-8.7,8.3-8.7,8.2-8.8C8.3-8.7,8.3-8.7,8.2-8.8
									C8.2-8.7,8.2-8.7,8.2-8.8C8.2-8.7,8.2-8.7,8.2-8.8L8.2-8.8C8.3-8.7,8.3-8.7,8.2-8.8C8.3-8.7,8.3-8.7,8.2-8.8
									C8.3-8.7,8.3-8.7,8.2-8.8L8.2-8.8C8.3-8.8,8.3-8.8,8.2-8.8C8.3-8.8,8.3-8.8,8.2-8.8C8.3-8.8,8.3-8.7,8.2-8.8L8.2-8.8
									C8.2-8.7,8.2-8.7,8.2-8.8C8.2-8.7,8.2-8.7,8.2-8.8C8.2-8.7,8.2-8.7,8.2-8.8C8.2-8.7,8.2-8.8,8.2-8.8
									C8.2-8.7,8.2-8.7,8.2-8.8C8.2-8.7,8.2-8.7,8.2-8.8z M8.4-8.7L8.4-8.7L8.4-8.7L8.4-8.7z M8.4-8.7C8.4-8.7,8.4-8.7,8.4-8.7
									L8.4-8.7C8.4-8.7,8.4-8.7,8.4-8.7z M8.4-8.8L8.4-8.8C8.4-8.8,8.4-8.8,8.4-8.8L8.4-8.8C8.4-8.8,8.4-8.8,8.4-8.8z"/>
								<path d="M8.4-8.8L8.4-8.8C8.4-8.8,8.4-8.8,8.4-8.8L8.4-8.8L8.4-8.8z"/>
								<path d="M9.4-9.2L9.4-9.2L9.4-9.2L9.4-9.2z"/>
								<path d="M8.6-8.5L8.6-8.5L8.6-8.5z"/>
								<path d="M9.4-9.3L9.4-9.3L9.4-9.3z"/>
								<path d="M9.4-9.3L9.4-9.3L9.4-9.3z"/>
								<path d="M9.5-9.3L9.5-9.3C9.4-9.3,9.4-9.3,9.5-9.3L9.5-9.3z"/>
								<path d="M9.4-8.9L9.4-8.9C9.4-8.9,9.4-8.9,9.4-8.9z"/>
								<path d="M9.4-9C9.4-9,9.4-9,9.4-9C9.4-9,9.4-9,9.4-9z"/>
								<path d="M9.3-8.7L9.3-8.7L9.3-8.7z"/>
								<path d="M9.4-9C9.4-9,9.4-9,9.4-9C9.4-9,9.4-9,9.4-9z"/>
								<path d="M9.4-9.5L9.4-9.5L9.4-9.5L9.4-9.5z"/>
								<path d="M9.4-9.5L9.4-9.5L9.4-9.5z"/>
								<path d="M9.4-9.5L9.4-9.5C9.4-9.5,9.4-9.5,9.4-9.5z"/>
								<path d="M9.4-9.4L9.4-9.4C9.4-9.4,9.4-9.4,9.4-9.4z"/>
								<path d="M9.4-9.4L9.4-9.4L9.4-9.4C9.4-9.4,9.5-9.4,9.4-9.4z"/>
								<path d="M9.3-9.4C9.3-9.4,9.4-9.4,9.3-9.4L9.3-9.4C9.4-9.4,9.3-9.3,9.3-9.4z"/>
								<path d="M9.3-9.3L9.3-9.3C9.3-9.3,9.3-9.3,9.3-9.3z"/>
								<path d="M9.3-9.1L9.3-9.1C9.3-9.1,9.3-9.1,9.3-9.1z"/>
								<polygon points="9.4,-9.1 9.4,-9.1 9.4,-9.1 								"/>
								<path d="M9.3-9.1L9.3-9.1L9.3-9.1z"/>
								<path d="M9.2-8.8L9.2-8.8L9.2-8.8z"/>
								<path d="M9.1-8.7C9-8.7,9-8.7,9.1-8.7C9.1-8.7,9-8.7,9.1-8.7z"/>
								<path d="M8.7-8.7L8.7-8.7L8.7-8.7z"/>
							</g>
						</g>
					</g>
				</g>
			</g>
			<g>
				<g>
					<g>
						<g>
							<g>
								<path d="M10-8.3L10-8.3C9.9-8.3,10-8.3,10-8.3L10-8.3z"/>
								<path d="M9.9-8.3C9.9-8.3,9.9-8.3,9.9-8.3C10-8.3,10-8.3,9.9-8.3C9.9-8.3,9.9-8.3,9.9-8.3C10-8.3,10-8.3,9.9-8.3
									C10-8.3,9.9-8.3,9.9-8.3L9.9-8.3z"/>
								<path d="M10-8.1L10-8.1L10-8.1z"/>
								<path d="M10.1-8L10.1-8L10.1-8z"/>
								<path d="M10.1-8L10.1-8L10.1-8z"/>
								<path d="M10-8.1L10-8.1L10-8.1z"/>
								<path d="M10-8.3L10-8.3L10-8.3L10-8.3z"/>
								<path d="M10-8.1L10-8.1L10-8.1L10-8.1z"/>
								<path d="M9.9-8.2C9.9-8.2,9.9-8.2,9.9-8.2C9.9-8.2,9.9-8.2,9.9-8.2S9.9-8.2,9.9-8.2z"/>
								<path d="M9.9-8.2L9.9-8.2L9.9-8.2z"/>
								<path d="M10-8.1C10-8.1,10-8.1,10-8.1L10-8.1z"/>
								<path d="M10.8-8.4L10.8-8.4L10.8-8.4z"/>
								<polygon points="10.9,-8.5 10.9,-8.5 10.9,-8.5 								"/>
								<path d="M10.1-7.9L10.1-7.9C10.1-7.9,10.1-7.9,10.1-7.9z"/>
								<path d="M10.6-7.9C10.6-7.9,10.6-7.9,10.6-7.9C10.6-7.9,10.6-7.9,10.6-7.9z"/>
								<path d="M10-8.3L10-8.3L10-8.3z"/>
								<path d="M10.6-7.9L10.6-7.9L10.6-7.9z"/>
								<path d="M10.3-7.9L10.3-7.9L10.3-7.9z"/>
								<path d="M10.2-7.9L10.2-7.9L10.2-7.9z"/>
								<path d="M10.3-7.9L10.3-7.9L10.3-7.9L10.3-7.9z"/>
								<path d="M10.3-7.9L10.3-7.9L10.3-7.9z"/>
								<path d="M10.8-8.3L10.8-8.3C10.8-8.4,10.8-8.3,10.8-8.3z"/>
								<path d="M10-8.3L10-8.3C10-8.3,10-8.3,10-8.3C10-8.3,10-8.3,10-8.3z"/>
								<path d="M10.3-8.1L10.3-8.1C10.3-8.1,10.3-8.1,10.3-8.1z"/>
								<path d="M10.7-8.2L10.7-8.2L10.7-8.2z"/>
								<path d="M10.4-8.1C10.4-8.1,10.4-8.1,10.4-8.1C10.4-8.1,10.4-8.1,10.4-8.1L10.4-8.1z"/>
								<path d="M10.8-8.3L10.8-8.3L10.8-8.3z"/>
								<path d="M10.8-8.4C10.7-8.4,10.8-8.4,10.8-8.4C10.8-8.4,10.8-8.4,10.8-8.4C10.8-8.4,10.8-8.4,10.8-8.4
									C10.8-8.4,10.8-8.4,10.8-8.4C10.8-8.4,10.8-8.4,10.8-8.4C10.8-8.4,10.8-8.4,10.8-8.4C10.8-8.4,10.8-8.4,10.8-8.4L10.8-8.4
									C10.8-8.4,10.8-8.4,10.8-8.4C10.8-8.4,10.8-8.4,10.8-8.4C10.8-8.4,10.8-8.4,10.8-8.4C10.8-8.4,10.8-8.5,10.8-8.4
									C10.8-8.5,10.8-8.5,10.8-8.4C10.8-8.5,10.8-8.5,10.8-8.4C10.8-8.5,10.8-8.5,10.8-8.4C10.8-8.5,10.8-8.5,10.8-8.4
									C10.8-8.5,10.8-8.5,10.8-8.4L10.8-8.4C10.8-8.5,10.8-8.5,10.8-8.4C10.8-8.5,10.8-8.5,10.8-8.4L10.8-8.4L10.8-8.4L10.8-8.4
									C10.8-8.5,10.8-8.5,10.8-8.4l0.1-0.1c0,0,0,0,0,0h0c0,0,0,0,0,0h0h0h0c0,0,0,0,0,0h0c0,0,0,0,0,0h0h0c0,0,0,0,0,0
									c0,0,0,0,0,0.1c0,0,0,0,0,0c-0.1,0,0.1,0,0,0.1h0c0,0,0,0,0,0c0,0,0,0,0.1,0c0,0,0,0,0,0h0c0,0,0,0,0,0c0,0,0,0-0.1,0
									c0,0,0,0,0,0c0,0,0,0,0,0c0,0,0,0,0,0l0,0l0,0l0,0c0,0,0,0,0,0c0,0,0,0,0,0s0,0,0,0l0,0l0,0c0,0,0,0,0,0c0,0,0,0,0,0
									c0,0,0,0-0.1,0c0,0,0,0,0,0h0c0,0,0,0,0,0c0,0,0,0,0,0s0,0,0,0c0,0,0,0,0,0c0,0,0,0,0,0l0,0c0,0,0,0,0,0h0c0,0,0,0,0,0l0,0
									c0,0,0,0,0,0c0,0,0,0,0,0l0,0c0,0,0,0,0,0l0,0c0,0,0,0.1,0,0.1l0,0c0,0,0,0,0,0l0,0c0,0,0,0,0,0c0,0,0,0-0.1,0l0,0.1
									c0,0,0,0,0,0l0,0c0,0,0,0,0,0c0,0,0,0,0,0c0,0,0,0-0.1,0c0,0,0,0.1,0,0.1l0,0c0,0,0,0,0,0c0,0,0,0.1,0,0.1v0c0,0,0,0,0,0v0
									c0,0,0,0,0,0v0c0,0,0,0,0,0l0,0c0,0,0,0,0,0v0c0,0,0,0,0,0l0,0c0,0,0,0,0,0c0,0,0,0,0,0c0,0,0,0,0,0l0,0l0,0
									c0,0.1,0,0,0,0.1c0,0,0,0,0,0c0,0,0,0,0-0.1c0,0,0,0,0,0c0,0,0,0,0,0c0,0,0,0,0,0c0,0,0,0,0-0.1c0,0,0,0,0,0v0c0,0,0,0,0,0
									v0c0,0,0,0,0,0v0c0,0,0,0,0,0l0,0c0,0,0,0,0,0c0,0,0,0,0,0c0,0,0,0,0,0c0,0,0,0,0,0c0,0,0,0,0,0s0,0,0,0l0,0c0,0,0,0,0,0
									c0,0,0,0,0,0c0,0,0,0,0,0c0,0,0,0,0,0c0,0,0,0,0,0c0,0,0,0,0,0c0,0,0,0,0,0v0c0,0,0,0,0,0c0,0,0,0,0,0c0,0,0,0,0,0
									c0,0,0,0,0,0c0,0,0,0,0,0v0c0,0,0,0,0,0c0,0,0,0,0,0c0,0,0,0,0,0v0c0,0,0,0,0,0l0.1,0c0,0,0,0,0,0c0,0,0,0,0,0c0,0,0,0,0,0
									l0,0l0,0c0,0,0,0,0,0c0,0,0,0,0,0c0,0,0,0,0,0c0,0,0,0,0,0c0,0,0,0,0,0c0,0,0,0,0,0l0,0c0,0,0,0,0,0l0,0c0,0,0,0,0,0
									c0,0,0,0,0,0l0,0l0,0c0,0,0,0,0,0c0,0,0,0,0,0c0,0,0,0,0,0c0,0,0,0,0,0l0,0c0,0,0,0,0,0h0c0,0,0,0,0,0c0,0,0,0,0,0
									c0,0,0,0,0,0c0,0,0,0,0,0c0,0,0,0,0,0s0,0,0,0c0,0,0,0,0,0c0,0,0,0,0,0v0c0,0,0,0,0,0l0,0c0,0,0,0,0,0c0,0,0,0,0,0
									c0,0,0,0,0,0l0,0c0,0,0,0,0,0c0,0,0,0,0,0l0,0l0,0v0c0,0,0,0,0,0c0,0,0,0,0,0c0,0,0,0,0,0c0,0,0,0,0,0c0,0,0,0,0,0
									c0,0,0,0,0,0l0,0c0,0,0,0,0,0l0,0l0,0l0,0l0,0c0,0,0,0,0,0c0,0,0,0,0,0c0,0,0,0,0,0c0,0,0,0,0,0l0,0c0,0,0,0,0,0l0,0
									c0,0,0,0,0,0c0,0,0,0,0,0l0,0c0,0,0,0,0,0c0,0,0,0,0,0c0,0,0,0-0.1,0c0,0,0,0,0,0l0,0c0,0,0,0,0,0l0,0c0,0,0,0,0,0
									c0,0,0,0,0,0l0,0c0,0,0,0,0,0c0,0,0,0,0,0c0,0,0,0,0,0c0,0,0,0,0,0c0,0,0,0,0,0c0,0,0,0,0,0c0,0,0,0,0,0c0,0,0,0,0,0
									c0,0,0,0,0,0l0,0l0.1,0c0,0,0,0-0.1,0l0,0c0,0,0,0,0,0l0,0h0l0,0c0,0,0,0,0,0c0,0,0,0,0,0l0,0l0,0c0,0-0.1,0,0,0l0,0
									c0,0,0,0,0,0l0,0l0,0c0,0,0,0,0,0c0,0,0,0,0,0c0,0,0,0,0,0c0,0,0,0,0,0c0,0,0,0,0,0c0,0,0,0,0,0s0,0,0,0c0,0,0,0,0,0
									c0,0,0,0,0.1,0c0,0,0,0,0,0c0,0,0,0,0,0c0,0,0,0,0,0c0,0,0,0,0,0l0,0c0,0,0,0,0,0c0,0,0,0,0,0l0,0v0l0,0c0,0,0,0,0,0h0
									c0,0,0,0,0,0c0,0,0,0,0,0h0h0c0,0,0,0,0,0l0,0c0,0,0,0,0,0c0,0,0,0,0,0c0,0,0,0,0,0h0h0c0,0,0.1,0,0,0c0,0,0,0,0,0
									c0,0,0,0,0,0h0c0,0,0,0,0,0l0,0c0,0,0,0,0,0l0,0c0,0,0,0,0,0c0,0,0,0,0,0c0,0,0,0,0,0l0,0c0,0,0,0,0,0c0,0,0,0,0,0l0,0l0,0
									c0,0,0,0,0,0c0,0,0,0,0,0s0,0,0,0l0,0c0,0,0,0,0,0c0,0,0,0,0,0v0h0l0,0c0,0,0,0,0,0v0h0c0,0,0,0,0,0c0,0,0,0,0,0v0
									c0,0,0,0,0,0c0,0,0,0,0,0c0,0,0,0,0,0c0,0,0,0,0,0l0,0c0,0.1,0,0,0,0.1c0,0,0,0,0-0.1l0,0c0,0,0,0,0,0c0,0,0,0,0,0
									c0,0,0,0,0,0l0,0c0,0,0,0,0,0c0,0,0,0,0,0c0,0,0,0,0,0c0,0.1,0,0,0,0c0,0,0,0,0,0c0,0,0,0,0,0c0,0,0,0,0,0c0,0,0,0,0,0
									c0,0,0,0,0,0c0,0,0,0,0,0c0,0,0,0,0,0c0,0,0,0,0,0c0,0,0,0,0,0c0,0,0,0,0,0v0c0,0,0,0,0,0v0c0,0,0,0,0,0c0,0,0,0,0.1,0
									c0,0,0,0,0,0c0,0,0,0,0,0v0c0,0,0,0,0,0c0,0,0,0,0,0c0,0,0,0,0,0v0l0,0c0,0,0,0,0,0l0,0c0,0,0,0,0,0s0,0,0,0c0,0,0,0,0,0
									c0,0,0,0,0,0c0,0,0,0,0,0c0,0,0,0,0,0c0,0,0,0,0,0c0,0,0,0,0,0l0,0c0,0,0,0,0,0l0,0v0c0,0,0,0,0,0c0,0,0,0,0,0l0,0
									c0,0,0,0,0,0c0,0,0,0,0,0l0,0c0,0,0,0,0,0l0,0c0,0,0,0,0,0c0,0,0,0,0,0l0,0c0,0,0,0,0,0s0,0,0,0l0,0l0,0l0,0l0,0
									c0,0,0,0,0,0c0,0,0,0,0,0c0,0,0,0,0,0c0,0,0,0,0,0l0,0c0,0,0,0,0,0l0,0c0,0,0,0,0,0c0,0,0,0,0,0c0,0,0,0,0,0h0l0,0
									c0,0,0,0,0,0c0,0,0,0,0,0c0,0,0,0,0,0h0C10.8-8.3,10.8-8.3,10.8-8.4C10.8-8.3,10.8-8.3,10.8-8.4C10.8-8.3,10.8-8.3,10.8-8.4
									L10.8-8.4C10.8-8.3,10.8-8.3,10.8-8.4C10.8-8.4,10.8-8.3,10.8-8.4C10.8-8.4,10.8-8.4,10.8-8.4C10.8-8.4,10.8-8.4,10.8-8.4
									C10.8-8.4,10.8-8.4,10.8-8.4L10.8-8.4C10.8-8.4,10.8-8.4,10.8-8.4C10.8-8.4,10.8-8.4,10.8-8.4C10.8-8.4,10.8-8.4,10.8-8.4
									L10.8-8.4C10.8-8.4,10.8-8.4,10.8-8.4C10.8-8.3,10.8-8.4,10.8-8.4C10.8-8.4,10.8-8.4,10.8-8.4L10.8-8.4
									C10.8-8.4,10.8-8.4,10.8-8.4C10.8-8.4,10.8-8.4,10.8-8.4C10.8-8.4,10.8-8.4,10.8-8.4C10.8-8.4,10.8-8.4,10.8-8.4
									C10.8-8.4,10.8-8.4,10.8-8.4C10.8-8.4,10.8-8.4,10.8-8.4z M10.8-8.3L10.8-8.3L10.8-8.3L10.8-8.3z M10.8-8.3
									C10.8-8.3,10.8-8.3,10.8-8.3L10.8-8.3L10.8-8.3z M10.9-8.2L10.9-8.2L10.9-8.2L10.9-8.2L10.9-8.2z"/>
								<path d="M10.9-8.2L10.9-8.2L10.9-8.2L10.9-8.2L10.9-8.2z"/>
								<path d="M10-8.1L10-8.1L10-8.1L10-8.1z"/>
								<path d="M10.7-8.2L10.7-8.2L10.7-8.2z"/>
								<path d="M10-8.2L10-8.2C10-8.2,10-8.2,10-8.2z"/>
								<path d="M10-8.2L10-8.2L10-8.2z"/>
								<path d="M10-8.2L10-8.2C10-8.2,10-8.2,10-8.2L10-8.2z"/>
								<path d="M10.2-8.1L10.2-8.1C10.3-8.1,10.3-8.1,10.2-8.1z"/>
								<path d="M10.1-8.1L10.1-8.1C10.1-8.1,10.1-8.1,10.1-8.1z"/>
								<path d="M10.3-8.1L10.3-8.1L10.3-8.1z"/>
								<path d="M10.2-8.1C10.2-8.1,10.2-8.1,10.2-8.1C10.1-8.1,10.1-8.1,10.2-8.1z"/>
								<path d="M10-8.3L10-8.3L10-8.3L10-8.3z"/>
								<path d="M10-8.3L10-8.3C10-8.3,10-8.3,10-8.3z"/>
								<path d="M10-8.3L10-8.3L10-8.3z"/>
								<path d="M10-8.3L10-8.3L10-8.3z"/>
								<path d="M10-8.3L10-8.3C10-8.3,10-8.3,10-8.3C10-8.3,10-8.3,10-8.3z"/>
								<path d="M9.9-8.2L9.9-8.2L9.9-8.2C9.9-8.2,9.9-8.2,9.9-8.2z"/>
								<path d="M9.9-8.2L9.9-8.2C9.9-8.2,9.9-8.2,9.9-8.2z"/>
								<path d="M10-8L10-8C10-8.1,10-8,10-8z"/>
								<path d="M10.1-8.1L10.1-8.1L10.1-8.1z"/>
								<path d="M10.1-8L10.1-8L10.1-8z"/>
								<path d="M10.3-7.9L10.3-7.9C10.3-7.9,10.3-7.9,10.3-7.9z"/>
								<path d="M10.5-7.9C10.5-7.9,10.5-7.9,10.5-7.9C10.5-7.9,10.5-7.9,10.5-7.9z"/>
								<path d="M10.8-8L10.8-8L10.8-8z"/>
							</g>
						</g>
					</g>
				</g>
			</g>
			<g>
				<g>
					<g>
						<g>
							<g>
								<path d="M7.4-9.7L7.4-9.7C7.3-9.7,7.4-9.7,7.4-9.7L7.4-9.7z"/>
								<path d="M7.3-9.7C7.3-9.7,7.3-9.7,7.3-9.7C7.4-9.7,7.4-9.7,7.3-9.7L7.3-9.7C7.4-9.7,7.4-9.7,7.3-9.7
									C7.4-9.7,7.3-9.7,7.3-9.7C7.3-9.7,7.3-9.7,7.3-9.7z"/>
								<path d="M7.2-9.4L7.2-9.4L7.2-9.4z"/>
								<path d="M7.1-9.3C7.1-9.3,7.1-9.3,7.1-9.3C7.1-9.3,7.1-9.3,7.1-9.3z"/>
								<path d="M7-9.3L7-9.3L7-9.3z"/>
								<path d="M7.2-9.4L7.2-9.4L7.2-9.4z"/>
								<path d="M7.4-9.6C7.4-9.6,7.4-9.6,7.4-9.6C7.4-9.6,7.4-9.6,7.4-9.6L7.4-9.6z"/>
								<path d="M7.2-9.5C7.2-9.5,7.2-9.5,7.2-9.5L7.2-9.5L7.2-9.5z"/>
								<path d="M7.2-9.5C7.2-9.5,7.2-9.5,7.2-9.5C7.2-9.5,7.2-9.5,7.2-9.5C7.2-9.5,7.2-9.5,7.2-9.5z"/>
								<path d="M7.3-9.6L7.3-9.6L7.3-9.6z"/>
								<path d="M7.2-9.5L7.2-9.5L7.2-9.5z"/>
								<path d="M6.1-9.8L6.1-9.8L6.1-9.8z"/>
								<polygon points="6.2,-9.9 6.2,-9.9 6.2,-9.9 								"/>
								<path d="M7-9.3L7-9.3C7-9.3,7-9.3,7-9.3z"/>
								<path d="M6.6-9.2C6.6-9.2,6.6-9.2,6.6-9.2C6.6-9.2,6.6-9.2,6.6-9.2z"/>
								<path d="M7.4-9.6L7.4-9.6L7.4-9.6z"/>
								<path d="M6.6-9.2L6.6-9.2L6.6-9.2z"/>
								<path d="M6.9-9.3C6.9-9.3,6.9-9.3,6.9-9.3C6.9-9.3,6.9-9.3,6.9-9.3z"/>
								<path d="M7-9.3L7-9.3L7-9.3z"/>
								<path d="M6.9-9.2L6.9-9.2L6.9-9.2L6.9-9.2z"/>
								<path d="M6.8-9.2L6.8-9.2L6.8-9.2z"/>
								<path d="M6.1-9.7L6.1-9.7C6.1-9.7,6.1-9.7,6.1-9.7z"/>
								<path d="M7.4-9.6C7.4-9.6,7.4-9.6,7.4-9.6C7.4-9.6,7.4-9.6,7.4-9.6L7.4-9.6z"/>
								<path d="M6.9-9.1L6.9-9.1L6.9-9.1z"/>
								<path d="M6.2-9.3L6.2-9.3C6.2-9.3,6.2-9.3,6.2-9.3z"/>
								<path d="M6.9-9.1C6.9-9.1,6.9-9.1,6.9-9.1C6.9-9.1,6.9-9.1,6.9-9.1L6.9-9.1z"/>
								<path d="M6.2-9.7L6.2-9.7L6.2-9.7z"/>
								<path d="M6.1-9.7C6.1-9.7,6.1-9.7,6.1-9.7C6.1-9.7,6.2-9.7,6.1-9.7C6.1-9.7,6.1-9.7,6.1-9.7C6.1-9.7,6.1-9.7,6.1-9.7
									C6.1-9.7,6.2-9.7,6.1-9.7C6.2-9.7,6.2-9.7,6.1-9.7C6.1-9.7,6.2-9.7,6.1-9.7L6.1-9.7c0-0.1,0.1-0.1,0-0.1c0,0,0,0,0,0
									c0,0,0,0,0,0c0,0,0,0,0,0c0,0,0,0,0,0c0,0,0,0,0,0c0,0,0,0,0,0c0,0,0,0,0,0c0,0,0,0,0,0l0,0c0,0,0,0,0,0c0,0,0,0,0,0v0h0
									l0,0c0,0,0.1,0,0.1,0l0,0h0l0,0c0,0,0,0-0.1,0l0,0h0h0c0,0,0,0,0,0h0c0,0,0,0,0,0l0,0h0c0,0,0,0,0,0c0,0,0,0.1,0,0.1
									c0,0,0,0,0,0c-0.1,0,0.1,0,0,0.1h0c0,0,0,0,0,0c0,0,0,0,0,0c0,0,0,0,0,0h0c0,0,0,0,0.1,0c0,0,0,0-0.1,0c0,0,0,0,0,0
									c0,0,0,0,0,0c0,0,0,0,0,0l0,0l0,0l0,0c0,0,0,0,0,0c0,0,0,0,0,0l0,0l0,0l0,0c0,0,0,0,0,0c0,0,0,0,0,0c0,0,0,0-0.1,0
									c0,0,0,0,0,0c0,0,0,0,0,0c0,0,0,0,0,0c0,0,0,0,0,0c0,0,0,0,0,0c0,0,0,0,0,0c0,0,0,0,0,0h0c0,0,0,0,0,0h0c0,0,0,0,0,0h0
									c0,0,0,0,0,0c0.1,0,0,0,0,0h0c0,0,0,0,0,0l0,0l0.1,0h0l0,0l0,0c0,0,0,0,0,0c0,0,0,0,0,0l0,0c0,0,0,0,0,0l0,0c0,0,0,0,0,0
									c0,0,0,0,0,0c0,0,0,0,0,0.1c0,0,0,0,0.1,0l0,0c0,0,0,0,0,0.1c0,0,0.1,0,0.1,0l0,0l0,0v0c0,0,0,0,0,0v0c0,0,0,0,0,0
									c0,0,0,0,0,0c0,0,0,0,0,0l0,0c0,0,0,0.1,0,0v0c0,0,0,0,0,0v0c0,0,0,0,0,0v0l0,0c0,0,0,0,0,0c0,0,0,0,0,0c0,0.1,0,0,0,0.1
									c0,0,0,0,0,0c0,0,0,0,0,0c0,0,0,0,0,0c0,0,0,0,0,0c0,0,0,0,0,0v0c0,0,0,0,0,0v0c0,0,0,0,0,0v0c0,0,0,0,0,0h0c0,0,0,0,0,0
									c0,0,0,0,0,0c0,0,0,0,0,0c0,0,0,0,0,0c0,0,0,0,0,0s0,0,0,0l0,0c0,0,0,0,0,0c0,0,0,0,0,0c0,0,0,0,0,0c0,0,0,0,0,0l0,0
									c0,0,0,0,0,0c0,0,0,0,0,0v0c0,0,0,0,0,0c0,0,0,0,0,0c0,0,0,0,0,0c0,0,0,0,0,0c0,0,0,0,0,0l0,0c0,0,0,0,0,0c0,0,0,0,0,0
									c0,0,0,0,0,0l0,0c0,0,0,0,0,0l0,0c0,0,0,0,0,0c0,0,0,0,0,0v0v0v0c0,0,0,0,0,0c0,0,0,0,0,0c0,0,0,0,0,0c0,0,0,0,0,0
									c0,0,0,0,0,0c0,0,0,0,0,0l0,0c0,0,0,0,0,0c0,0,0,0,0,0c0,0,0,0,0,0c0,0,0,0,0,0l0,0l0,0c0,0,0,0,0,0c0,0,0,0,0,0
									c0,0,0,0,0,0c0,0,0,0,0,0l0,0c0,0,0,0,0,0v0c0,0,0,0,0,0c0,0,0,0,0,0c0,0,0,0,0,0c0,0,0,0,0,0l0,0c0,0,0,0,0,0c0,0,0,0,0,0
									c0,0,0,0,0,0v0c0,0,0,0,0,0l0,0c0,0,0,0,0,0c0,0,0,0,0,0c0,0,0,0,0,0c0,0,0,0,0,0c0,0,0,0,0,0c0.1,0,0,0,0,0l0,0
									c0,0,0,0,0,0h0c0,0,0,0,0,0c0,0,0,0,0,0c0,0,0,0,0,0c0,0,0,0,0,0c0,0,0,0,0,0c0,0,0,0,0,0l0,0c0,0,0,0,0,0l0,0l0,0l0,0l0,0
									c0,0,0,0,0,0h0c0,0,0,0,0,0c0,0,0,0,0,0s0,0,0,0c0,0,0,0,0,0c0,0,0,0,0,0c0,0,0,0,0,0c0,0,0,0,0,0l0,0c0,0,0,0,0,0s0,0,0,0
									c0,0,0,0-0.1,0c0,0,0,0,0,0l0,0c0,0,0,0,0,0l0,0c0,0,0,0,0,0c0,0,0,0,0,0l0,0c0,0,0,0,0,0c0,0,0,0,0,0c0,0,0,0,0,0
									c0,0,0,0,0,0c0,0,0,0,0,0c0,0,0,0,0,0c0,0,0,0,0,0c0,0,0,0,0,0c0,0,0,0,0,0l0,0l0,0c0,0,0,0,0,0l0,0c0,0,0,0,0,0
									c0,0,0,0,0,0l0,0l0,0c0,0,0,0,0,0c0,0,0,0,0,0l0,0l0,0c0,0,0,0,0,0l0,0c0,0,0,0,0,0c0,0,0,0,0,0h0c0,0,0,0,0,0c0,0,0,0,0,0
									c0,0,0,0,0,0c0,0,0,0,0,0c0,0,0,0,0,0c0,0,0,0,0,0c0,0,0,0,0,0c0,0,0,0,0,0c0,0,0,0,0,0c0,0,0,0,0,0c0,0,0,0,0,0
									c0,0,0,0,0,0c0,0,0,0,0,0c0,0,0,0,0,0c0,0,0,0,0,0c0,0,0,0,0,0h0h0l0,0c0,0,0,0,0,0c0,0,0,0,0,0c0,0,0,0,0,0c0,0,0,0,0,0
									l0,0h0c0,0,0,0,0,0l0,0c0,0,0,0,0,0c0,0,0,0,0,0c0,0,0,0,0,0v0v0c-0.1,0,0,0.1,0,0c0,0,0,0,0,0c0,0,0,0,0,0l0,0c0,0,0,0,0,0
									l0,0c0,0,0,0,0,0l0,0c0,0,0,0,0,0.1c0,0,0,0,0,0c0,0,0,0,0,0c0,0,0,0,0,0c0,0,0,0,0,0c0,0,0,0,0,0l0,0l0,0c0,0,0,0,0,0
									c0,0,0,0,0,0s0,0,0,0l0,0c0,0,0,0,0,0c0,0,0,0,0,0h0v0v0c0,0,0,0,0,0l0,0v0c0,0,0,0,0,0c0,0,0,0,0,0v0c0,0,0,0,0,0
									c0,0,0,0,0,0c0,0,0,0,0,0c0,0,0,0,0,0c0,0,0,0,0,0c0-0.1,0,0,0-0.1c0,0,0,0,0,0.1l0,0c0,0,0,0,0,0v0c0,0,0,0,0,0
									c0,0,0,0,0,0c0,0,0,0,0,0.1c0,0,0,0,0,0c0,0,0,0,0,0.1c0-0.1,0,0,0,0c0,0,0,0,0,0c0,0,0,0,0,0c0,0,0,0,0,0c0,0,0,0,0,0
									c0,0,0,0,0,0c0,0,0,0,0,0c0,0,0,0,0,0c0,0,0,0,0,0c0,0,0,0,0,0c0,0,0,0,0,0v0c0,0-0.1,0-0.1,0v0c0,0,0,0,0,0
									c0,0-0.1-0.1-0.1,0c0,0,0,0,0,0c0,0,0,0,0,0v0c0,0-0.1,0-0.1,0c0,0,0,0,0,0c0,0,0,0,0,0l0,0l0,0c0,0,0-0.1-0.1,0l0,0v0
									c0,0,0,0,0,0c0,0,0,0,0,0c0,0,0,0,0,0c0,0,0,0,0,0c0,0,0,0,0,0c0,0,0,0,0,0c0,0,0,0,0,0l0,0c0,0,0,0,0,0l0,0h0c0,0,0,0,0,0
									c0,0,0,0,0,0l0.1,0c0,0,0,0,0,0c0,0,0,0,0,0l0,0c0,0,0,0,0,0l0,0c0,0,0,0,0,0c0,0,0,0,0,0h0c0,0,0,0,0,0c0,0,0,0,0,0h0l0,0
									l0,0l0,0c0,0,0,0,0,0c0,0,0,0,0-0.1c-0.1,0,0,0,0,0c0,0,0-0.1,0-0.1l0,0c0,0,0,0,0,0h0c0,0,0,0,0,0h0c0,0,0,0,0,0h0h0
									c0,0,0,0,0-0.1c0,0,0,0,0,0C6.2-9.5,6.1-9.5,6.1-9.7L6.1-9.7C6.2-9.6,6.1-9.6,6.1-9.7C6.2-9.6,6.2-9.6,6.1-9.7
									C6.2-9.6,6.1-9.6,6.1-9.7L6.1-9.7C6.2-9.6,6.2-9.6,6.1-9.7C6.1-9.6,6.2-9.6,6.1-9.7C6.2-9.6,6.1-9.6,6.1-9.7
									C6.1-9.6,6.1-9.6,6.1-9.7C6.2-9.7,6.1-9.6,6.1-9.7L6.1-9.7C6.2-9.7,6.2-9.6,6.1-9.7C6.2-9.7,6.2-9.7,6.1-9.7
									C6.2-9.7,6.2-9.7,6.1-9.7L6.1-9.7L6.1-9.7C6.2-9.7,6.2-9.7,6.1-9.7C6.2-9.7,6.2-9.7,6.1-9.7L6.1-9.7
									C6.1-9.7,6.2-9.7,6.1-9.7C6.1-9.7,6.1-9.7,6.1-9.7C6.1-9.7,6.1-9.7,6.1-9.7C6.1-9.7,6.2-9.7,6.1-9.7
									C6.1-9.7,6.1-9.7,6.1-9.7C6.1-9.7,6.1-9.7,6.1-9.7z M6.2-9.5L6.2-9.5L6.2-9.5L6.2-9.5z M6.2-9.5C6.2-9.5,6.2-9.5,6.2-9.5
									L6.2-9.5C6.2-9.5,6.2-9.5,6.2-9.5z M6.3-9.6L6.3-9.6L6.3-9.6L6.3-9.6C6.3-9.6,6.3-9.6,6.3-9.6z"/>
								<path d="M6.3-9.6L6.3-9.6L6.3-9.6L6.3-9.6L6.3-9.6z"/>
								<path d="M7.2-9.4L7.2-9.4L7.2-9.4L7.2-9.4z"/>
								<path d="M6.2-9.3L6.2-9.3L6.2-9.3z"/>
								<path d="M7.3-9.5L7.3-9.5L7.3-9.5z"/>
								<path d="M7.3-9.5L7.3-9.5C7.3-9.5,7.3-9.5,7.3-9.5z"/>
								<path d="M7.3-9.5L7.3-9.5C7.3-9.5,7.3-9.5,7.3-9.5L7.3-9.5z"/>
								<path d="M7.1-9.1C7-9.1,7.1-9.1,7.1-9.1S7-9.1,7.1-9.1z"/>
								<path d="M7.1-9.3C7.1-9.3,7.1-9.3,7.1-9.3C7.1-9.3,7.1-9.3,7.1-9.3z"/>
								<path d="M6.9-9.1L6.9-9.1L6.9-9.1z"/>
								<path d="M7.1-9.3C7.1-9.3,7.1-9.3,7.1-9.3C7.1-9.3,7.1-9.3,7.1-9.3z"/>
								<path d="M7.4-9.6C7.4-9.7,7.4-9.7,7.4-9.6L7.4-9.6L7.4-9.6z"/>
								<path d="M7.4-9.7L7.4-9.7L7.4-9.7z"/>
								<path d="M7.4-9.7L7.4-9.7C7.4-9.7,7.4-9.7,7.4-9.7z"/>
								<path d="M7.4-9.6L7.4-9.6C7.4-9.6,7.4-9.6,7.4-9.6z"/>
								<path d="M7.4-9.6L7.4-9.6C7.4-9.6,7.4-9.6,7.4-9.6C7.4-9.6,7.4-9.6,7.4-9.6z"/>
								<path d="M7.3-9.6C7.3-9.6,7.3-9.6,7.3-9.6L7.3-9.6C7.3-9.6,7.2-9.6,7.3-9.6z"/>
								<path d="M7.2-9.6L7.2-9.6C7.2-9.6,7.2-9.6,7.2-9.6z"/>
								<path d="M7.1-9.4L7.1-9.4C7.1-9.4,7.1-9.4,7.1-9.4z"/>
								<path d="M7.2-9.3L7.2-9.3L7.2-9.3z"/>
								<polygon points="7.1,-9.4 7.1,-9.4 7.1,-9.4 								"/>
								<path d="M6.8-9.2L6.8-9.2C6.8-9.2,6.8-9.2,6.8-9.2z"/>
								<path d="M6.7-9.2C6.7-9.2,6.7-9.2,6.7-9.2L6.7-9.2z"/>
								<path d="M6.4-9.4L6.4-9.4L6.4-9.4z"/>
							</g>
						</g>
					</g>
				</g>
			</g>
			<g>
				<g>
					<g>
						<g>
							<g>
								<path d="M9.6-6.1L9.6-6.1C9.6-6,9.6-6.1,9.6-6.1L9.6-6.1z"/>
								<path d="M9.6-6C9.6-6,9.6-6,9.6-6S9.6-6,9.6-6L9.6-6C9.7-6,9.6-6,9.6-6C9.7-6,9.6-6,9.6-6C9.6-6,9.6-6,9.6-6z"/>
								<path d="M9.8-5.9L9.8-5.9L9.8-5.9z"/>
								<path d="M9.9-6C9.9-5.9,9.9-6,9.9-6S9.9-5.9,9.9-6z"/>
								<path d="M9.9-5.9L9.9-5.9L9.9-5.9z"/>
								<path d="M9.8-5.9L9.8-5.9C9.8-5.9,9.8-5.9,9.8-5.9z"/>
								<path d="M9.7-6.1L9.7-6.1L9.7-6.1L9.7-6.1z"/>
								<path d="M9.8-5.9L9.8-5.9L9.8-5.9L9.8-5.9z"/>
								<path d="M9.7-5.9C9.7-5.9,9.7-5.9,9.7-5.9L9.7-5.9C9.7-5.9,9.7-5.9,9.7-5.9z"/>
								<path d="M9.7-6L9.7-6L9.7-6z"/>
								<path d="M9.8-5.9C9.8-5.9,9.8-5.9,9.8-5.9L9.8-5.9z"/>
								<path d="M10.2-6.7C10.2-6.7,10.2-6.7,10.2-6.7L10.2-6.7z"/>
								<polygon points="10.3,-6.7 10.3,-6.7 10.3,-6.7 								"/>
								<path d="M10-5.9L10-5.9L10-5.9z"/>
								<path d="M10.2-6.2C10.2-6.2,10.2-6.2,10.2-6.2C10.2-6.2,10.2-6.2,10.2-6.2z"/>
								<path d="M9.7-6.1L9.7-6.1C9.7-6.1,9.7-6.1,9.7-6.1z"/>
								<path d="M10.2-6.2L10.2-6.2L10.2-6.2z"/>
								<path d="M10.1-6C10.1-6,10.1-6,10.1-6C10.1-6,10.1-6,10.1-6z"/>
								<path d="M10-6L10-6L10-6z"/>
								<path d="M10.1-6L10.1-6C10.1-6,10.1-6,10.1-6L10.1-6z"/>
								<path d="M10.1-6L10.1-6L10.1-6z"/>
								<path d="M10.3-6.6L10.3-6.6C10.2-6.6,10.2-6.6,10.3-6.6z"/>
								<path d="M9.7-6L9.7-6C9.7-6.1,9.7-6.1,9.7-6C9.7-6,9.7-6.1,9.7-6z"/>
								<path d="M10-6.2L10-6.2L10-6.2z"/>
								<path d="M10.2-6.4L10.2-6.4L10.2-6.4z"/>
								<path d="M10-6.2C10-6.2,10-6.2,10-6.2C10-6.2,10-6.2,10-6.2L10-6.2z"/>
								<path d="M10.3-6.6L10.3-6.6L10.3-6.6z"/>
								<path d="M10.3-6.7C10.2-6.7,10.3-6.7,10.3-6.7C10.3-6.7,10.3-6.7,10.3-6.7C10.3-6.7,10.3-6.7,10.3-6.7
									C10.3-6.7,10.3-6.7,10.3-6.7C10.3-6.7,10.3-6.7,10.3-6.7C10.3-6.7,10.3-6.7,10.3-6.7C10.3-6.7,10.3-6.7,10.3-6.7L10.3-6.7
									C10.3-6.7,10.3-6.7,10.3-6.7C10.3-6.7,10.3-6.7,10.3-6.7C10.3-6.7,10.3-6.7,10.3-6.7C10.3-6.7,10.3-6.7,10.3-6.7
									C10.3-6.7,10.3-6.7,10.3-6.7C10.3-6.7,10.3-6.7,10.3-6.7C10.3-6.7,10.3-6.7,10.3-6.7C10.3-6.7,10.3-6.7,10.3-6.7
									C10.3-6.7,10.3-6.7,10.3-6.7L10.3-6.7C10.3-6.7,10.3-6.7,10.3-6.7C10.3-6.7,10.3-6.7,10.3-6.7L10.3-6.7L10.3-6.7L10.3-6.7
									C10.3-6.7,10.3-6.7,10.3-6.7L10.3-6.7l0.1-0.1h0C10.4-6.7,10.4-6.7,10.3-6.7l0.1,0h0h0c0,0,0,0,0,0h0c0,0,0,0,0,0h0h0
									c0,0,0,0,0,0c0,0,0,0,0,0.1c0,0,0,0,0,0c-0.1,0,0.1,0,0,0h0c0,0,0,0,0,0c0,0,0,0,0,0c0,0,0,0,0,0h0c0,0,0,0,0,0
									c0,0,0,0-0.1,0c0,0,0,0,0,0c0,0,0,0,0,0l0,0l0,0l0,0l0,0c0,0,0,0,0,0c0,0,0,0,0,0l0,0l0,0l0,0c0,0,0,0,0,0c0,0,0,0,0.1,0
									c0,0,0,0-0.1,0v0c0,0,0,0,0,0c0,0,0,0,0,0c0,0,0,0,0,0c0,0,0,0,0,0c0,0,0,0,0,0c0,0,0,0,0,0h0c0,0,0,0,0,0h0c0,0,0,0,0,0h0
									c0,0,0,0,0,0c0,0,0,0,0,0h0c0,0,0,0,0,0l0,0l0.1,0v0c0,0,0,0,0,0l0,0c0,0,0,0,0,0c-0.1,0,0,0,0,0l0,0c0,0,0,0,0,0l0,0
									c0,0,0,0,0,0l0,0c0,0,0,0-0.1,0c0,0,0,0,0,0.1l0,0c0,0,0,0-0.1,0c0,0,0,0,0,0l0,0l0,0c0,0,0,0,0,0c0,0,0,0,0,0l0,0
									c0,0,0,0,0,0l0,0c0,0,0,0,0,0l0,0c0,0,0,0,0,0l0,0c0,0,0,0,0,0c0,0,0,0,0,0s0,0,0,0l0,0l0,0c0,0,0,0,0,0c0,0,0,0,0,0
									c0,0,0,0-0.1,0c0,0,0,0,0,0c0,0,0,0,0,0v0c0,0,0,0,0,0c0,0,0,0,0,0l0,0c0,0,0,0,0,0h0c0,0,0,0,0,0l0,0c0,0,0,0,0,0l0,0
									c0,0,0,0,0,0l0,0c0,0,0,0,0,0c0,0,0,0,0,0l0,0c0,0,0,0,0,0l0,0c0,0,0,0,0,0c0,0,0,0,0,0c0,0,0,0,0,0l0,0c0,0,0,0,0,0
									c0,0,0,0,0,0c0,0,0,0,0,0l0,0l0,0c0,0,0,0,0,0c0,0,0,0,0,0c0,0,0,0,0,0c0,0,0,0,0,0l0,0c0,0,0,0,0,0c0,0,0,0,0,0
									c0,0,0,0,0,0l0,0c0,0,0,0,0,0l0,0c0,0,0,0,0,0c0,0,0,0,0,0v0l0,0v0c0,0,0,0,0,0c0,0,0,0,0,0c0,0,0,0,0,0c0,0,0,0,0,0
									c0,0,0,0,0,0c0,0,0,0,0,0l0,0c0,0,0,0,0,0l0,0c0,0,0,0,0,0c0,0,0,0,0,0l0,0l0,0c0,0,0,0,0,0c0,0,0,0,0,0c0,0,0,0,0,0
									c0,0,0,0,0,0l0,0l0,0v0c0,0,0,0,0,0c0,0,0,0,0,0c0,0,0,0,0,0c0,0,0,0,0,0c0,0,0,0,0,0s0,0,0,0c0,0,0,0,0,0c0,0,0,0,0,0v0v0
									l0,0l0,0c0,0,0,0,0,0c0,0,0,0,0,0l0,0c0,0,0,0,0,0c0,0,0,0,0,0v0c0,0,0,0,0,0v0c0,0,0,0,0,0c0,0,0,0,0,0s0,0,0,0
									c0,0,0,0,0,0c0,0,0,0,0,0c0,0,0,0,0,0v0c0,0,0,0,0,0l0,0l0,0l0,0l0,0c0,0,0,0,0,0v0c0,0,0,0,0,0c0,0,0,0,0,0s0,0,0,0
									c0,0,0,0,0,0l0,0c0,0,0,0,0,0c0,0,0,0,0,0v0c0,0,0,0,0,0s0,0,0,0c0,0,0,0.1,0,0.1c0,0,0,0,0,0v0c0,0,0,0,0,0l0,0
									c0,0,0,0,0,0c0,0,0,0,0,0l0,0c0,0,0,0,0,0c0,0,0,0,0,0c0,0,0,0,0,0c0,0,0,0,0,0c0,0,0,0,0,0c0,0,0,0,0,0c0,0,0,0,0,0
									c0,0,0,0,0,0c0,0,0,0,0,0v0V-6c0,0,0,0,0,0.1l0,0c0,0,0,0,0,0c0,0,0,0,0,0v0l0,0c0,0,0,0,0,0c0,0,0,0,0,0l0,0l0,0
									c0,0,0,0,0,0l0,0c0,0,0,0,0,0c0,0,0,0,0,0v0c0,0,0,0,0,0c0,0,0,0,0,0c0,0,0,0,0,0s0,0,0,0s0,0,0,0c0,0,0,0,0,0c0,0,0,0,0,0
									c0,0,0,0,0,0c0,0,0,0,0-0.1c0,0,0,0,0,0c0,0,0,0,0,0c0,0,0,0,0,0c0,0,0,0,0,0c0,0,0,0,0,0c0,0,0,0,0,0c0,0,0,0,0,0l0,0v0
									l0,0c0,0,0,0,0,0c0,0,0,0,0,0c0,0,0,0,0,0c0,0,0,0,0,0c0,0,0,0,0,0v0c0,0,0,0,0,0v0c0,0,0,0,0,0c0,0,0,0,0,0c0,0,0,0,0,0
									l0,0v0c0,0.1,0,0,0,0c0,0,0,0,0,0c0,0,0,0,0,0v0c0,0,0,0,0,0c0,0,0,0,0,0c0,0,0,0,0,0l0,0c0,0,0,0,0,0c0,0,0,0,0,0
									c0,0,0,0,0,0c0,0,0,0,0,0c0,0,0,0,0,0c0,0,0,0,0,0v0v0c0,0,0,0,0,0c0,0,0,0,0,0c0,0,0,0,0,0l0,0c0,0,0,0,0,0c0,0,0,0,0,0
									l0,0v0v0c0,0,0,0,0,0v0v0c0,0,0,0,0,0c0,0,0,0,0,0v0c0,0,0,0,0,0c0,0,0,0,0,0c0,0,0,0,0,0c0,0,0,0,0,0c0,0,0,0,0,0
									C10-6,10-6,10-6c0,0,0,0,0-0.1l0,0c0,0,0,0,0,0c0,0,0,0,0,0c0,0,0,0,0,0c0,0,0,0,0,0c0,0,0,0,0,0c0,0,0,0,0,0c0,0,0,0,0-0.1
									c0,0.1,0,0,0,0c0,0,0,0,0,0c0,0,0,0,0,0c0,0,0,0,0,0c0,0,0,0,0,0c0,0,0,0,0,0c0,0,0,0,0,0l0,0c0,0,0,0,0,0l0,0c0,0,0,0,0,0
									l0,0c0,0,0,0,0,0l0,0c0,0,0,0,0,0c0,0,0.1,0,0.1,0c0,0,0,0,0,0c0,0,0,0,0,0l0,0c0,0,0,0,0,0c0,0,0,0,0,0c0,0,0,0,0,0l0,0
									l0,0c0,0,0,0,0,0l0,0c0,0,0,0,0,0c0,0,0,0,0,0c0,0,0,0,0,0c0,0,0,0,0,0c0,0,0,0,0,0c0,0,0,0,0,0c0,0,0,0,0,0v0l0,0
									c0,0,0,0,0,0c0,0,0,0,0,0v0l0,0c0,0,0,0,0,0l0.1,0.1c0,0,0,0,0,0c0,0,0,0,0,0l0,0c0,0,0,0,0,0c0,0,0,0,0,0c0,0,0,0,0,0
									c0,0,0,0,0,0l0,0c0,0,0,0,0,0h0l0,0l0,0l0,0l0,0l0,0c0,0,0,0,0.1,0c0,0,0,0,0,0c0,0,0,0,0,0l0,0c0,0,0,0,0,0l0,0
									c0,0,0,0,0,0h0c0,0,0,0,0,0h0l0,0c0,0,0,0,0,0c0,0,0,0,0,0c0,0,0,0,0,0h0c0,0,0,0,0,0c0,0,0,0,0,0c0,0,0,0,0,0h0
									c0,0,0,0,0,0C10.2-6.6,10.3-6.6,10.3-6.7C10.3-6.6,10.3-6.6,10.3-6.7C10.3-6.6,10.2-6.6,10.3-6.7
									C10.3-6.6,10.2-6.6,10.3-6.7L10.3-6.7C10.3-6.6,10.3-6.6,10.3-6.7C10.3-6.6,10.3-6.6,10.3-6.7C10.3-6.6,10.3-6.6,10.3-6.7
									L10.3-6.7L10.3-6.7C10.3-6.6,10.3-6.6,10.3-6.7C10.3-6.6,10.3-6.6,10.3-6.7L10.3-6.7C10.2-6.6,10.3-6.6,10.3-6.7
									C10.3-6.6,10.3-6.6,10.3-6.7C10.3-6.6,10.2-6.6,10.3-6.7C10.2-6.6,10.3-6.6,10.3-6.7C10.2-6.6,10.2-6.6,10.3-6.7
									C10.2-6.6,10.2-6.6,10.3-6.7z M10.3-6.5L10.3-6.5L10.3-6.5L10.3-6.5z M10.3-6.5C10.3-6.5,10.3-6.5,10.3-6.5L10.3-6.5
									L10.3-6.5z M10.4-6.5L10.4-6.5L10.4-6.5L10.4-6.5L10.4-6.5z"/>
								<path d="M10.4-6.5L10.4-6.5L10.4-6.5L10.4-6.5L10.4-6.5z"/>
								<path d="M9.8-5.9L9.8-5.9L9.8-5.9L9.8-5.9z"/>
								<polygon points="10.2,-6.4 10.2,-6.4 10.2,-6.4 								"/>
								<path d="M9.7-6L9.7-6L9.7-6z"/>
								<path d="M9.7-6L9.7-6L9.7-6z"/>
								<path d="M9.7-6L9.7-6C9.7-6,9.7-6,9.7-6L9.7-6z"/>
								<path d="M9.9-6.1L9.9-6.1L9.9-6.1z"/>
								<path d="M9.9-6C9.9-6,9.9-6,9.9-6C9.9-6,9.9-6,9.9-6z"/>
								<path d="M10-6.2L10-6.2L10-6.2z"/>
								<path d="M9.9-6C9.9-6,9.9-6,9.9-6L9.9-6z"/>
								<path d="M9.7-6.1C9.7-6.1,9.7-6.1,9.7-6.1L9.7-6.1L9.7-6.1z"/>
								<path d="M9.7-6.1L9.7-6.1L9.7-6.1z"/>
								<path d="M9.7-6.1L9.7-6.1L9.7-6.1z"/>
								<path d="M9.7-6.1L9.7-6.1L9.7-6.1z"/>
								<path d="M9.7-6.1L9.7-6.1C9.7-6.1,9.7-6.1,9.7-6.1C9.7-6,9.7-6.1,9.7-6.1z"/>
								<path d="M9.7-5.9C9.7-5.9,9.7-5.9,9.7-5.9L9.7-5.9C9.7-5.9,9.7-5.9,9.7-5.9z"/>
								<path d="M9.7-5.9L9.7-5.9C9.7-5.9,9.7-5.9,9.7-5.9z"/>
								<path d="M9.8-5.9L9.8-5.9C9.8-5.9,9.8-5.9,9.8-5.9z"/>
								<path d="M9.8-6.1L9.8-6.1L9.8-6.1z"/>
								<polygon points="9.9,-5.9 9.9,-5.9 9.9,-5.9 								"/>
								<path d="M10.1-6L10.1-6C10.1-6,10.1-6,10.1-6z"/>
								<path d="M10.2-6.1C10.2-6.1,10.2-6.1,10.2-6.1C10.2-6.1,10.2-6.1,10.2-6.1z"/>
								<path d="M10.4-6.3L10.4-6.3L10.4-6.3z"/>
							</g>
						</g>
					</g>
				</g>
			</g>
			<g>
				<g>
					<g>
						<g>
							<g>
								<path d="M11-10.5L11-10.5C10.9-10.5,11-10.5,11-10.5L11-10.5z"/>
								<path d="M10.9-10.5C10.9-10.5,10.9-10.5,10.9-10.5C10.9-10.5,10.9-10.5,10.9-10.5L10.9-10.5C11-10.5,10.9-10.5,10.9-10.5
									C10.9-10.5,10.9-10.5,10.9-10.5C10.9-10.5,10.9-10.5,10.9-10.5z"/>
								<path d="M10.8-10.4L10.8-10.4L10.8-10.4z"/>
								<path d="M10.7-10.3L10.7-10.3L10.7-10.3z"/>
								<path d="M10.7-10.3C10.7-10.3,10.7-10.3,10.7-10.3L10.7-10.3z"/>
								<path d="M10.8-10.4L10.8-10.4L10.8-10.4z"/>
								<path d="M11-10.5L11-10.5L11-10.5L11-10.5z"/>
								<path d="M10.8-10.4L10.8-10.4L10.8-10.4L10.8-10.4z"/>
								<path d="M10.8-10.5C10.8-10.5,10.8-10.5,10.8-10.5C10.8-10.5,10.8-10.5,10.8-10.5C10.8-10.5,10.8-10.5,10.8-10.5z"/>
								<path d="M10.9-10.5L10.9-10.5L10.9-10.5z"/>
								<path d="M10.8-10.4C10.8-10.4,10.8-10.4,10.8-10.4L10.8-10.4z"/>
								<path d="M10.1-10.6L10.1-10.6L10.1-10.6z"/>
								<polygon points="10.2,-10.6 10.2,-10.6 10.2,-10.6 								"/>
								<path d="M10.6-10.3L10.6-10.3L10.6-10.3z"/>
								<path d="M10.4-10.2C10.4-10.2,10.4-10.2,10.4-10.2C10.4-10.2,10.4-10.2,10.4-10.2z"/>
								<path d="M11-10.5L11-10.5L11-10.5z"/>
								<polygon points="10.4,-10.2 10.4,-10.2 10.4,-10.2 								"/>
								<path d="M10.6-10.3C10.6-10.3,10.6-10.3,10.6-10.3C10.6-10.3,10.6-10.3,10.6-10.3z"/>
								<path d="M10.7-10.3L10.7-10.3L10.7-10.3z"/>
								<path d="M10.6-10.3L10.6-10.3L10.6-10.3L10.6-10.3z"/>
								<path d="M10.6-10.3L10.6-10.3L10.6-10.3z"/>
								<path d="M10.1-10.5L10.1-10.5C10.1-10.5,10.1-10.5,10.1-10.5z"/>
								<path d="M11-10.5C11-10.5,11-10.5,11-10.5C11-10.5,11-10.5,11-10.5L11-10.5z"/>
								<path d="M10.6-10.1L10.6-10.1C10.6-10.1,10.6-10.1,10.6-10.1z"/>
								<path d="M10.1-10.2L10.1-10.2L10.1-10.2z"/>
								<path d="M10.6-10.1C10.6-10.1,10.6-10.1,10.6-10.1C10.6-10.1,10.6-10.1,10.6-10.1L10.6-10.1z"/>
								<path d="M10.1-10.5L10.1-10.5L10.1-10.5z"/>
								<path d="M10-10.5C10-10.5,10-10.5,10-10.5C10-10.5,10-10.5,10-10.5C10-10.5,10-10.5,10-10.5C10-10.5,10-10.5,10-10.5
									C10-10.5,10-10.5,10-10.5C10.1-10.5,10-10.5,10-10.5C10-10.5,10-10.5,10-10.5L10-10.5C10-10.5,10.1-10.5,10-10.5
									C10.1-10.5,10-10.6,10-10.5C10.1-10.6,10-10.6,10-10.5C10.1-10.6,10-10.6,10-10.5C10-10.6,10-10.6,10-10.5
									C10-10.6,10-10.6,10-10.5C10-10.6,10-10.6,10-10.5C10-10.6,10-10.6,10-10.5C10-10.6,10-10.6,10-10.5L10-10.5
									C10-10.6,10-10.6,10-10.5C10-10.6,10-10.6,10-10.5L10-10.5L10-10.5L10-10.5C10-10.6,10.1-10.6,10-10.5L10-10.5l0.1-0.1l0,0
									C10.1-10.6,10.1-10.6,10-10.5l0.1,0h0h0c0,0,0,0,0,0h0c0,0,0,0,0,0h0h0c0,0,0,0,0,0c0,0,0,0,0,0.1c0,0,0,0,0,0
									c-0.1,0,0.1,0,0,0h0c0,0,0,0,0,0c0,0,0,0,0,0c0,0,0,0,0,0h0c0,0,0,0,0.1,0c0,0,0,0-0.1,0c0,0,0,0,0,0c0,0,0,0,0,0l0,0l0,0
									l0,0l0,0c0,0,0,0,0,0c0,0,0,0,0,0l0,0l0,0l0,0c0,0,0,0,0,0c0,0,0,0,0,0c0,0,0,0-0.1,0v0c0,0,0,0,0,0c0,0,0,0,0,0
									c0,0,0,0,0,0c0,0,0,0,0,0c0,0,0,0,0,0c0,0,0,0,0,0h0c0,0,0,0,0,0h0c0,0,0,0,0,0h0c0,0,0,0,0,0c0.1,0,0,0,0,0h0c0,0,0,0,0,0
									h0l0.1,0h0c0,0,0,0,0,0l0,0c0,0,0,0,0,0c-0.1,0,0,0,0,0l0,0c0,0,0,0,0,0l0,0c0,0,0,0,0,0l0,0c0,0,0,0,0,0c0,0,0,0,0,0l0,0
									c0,0,0,0,0,0.1c0,0,0-0.1,0,0v0l0,0v0c0,0,0,0,0,0v0c0,0,0,0,0,0c0,0,0,0,0,0c0,0,0,0,0,0v0c0,0,0,0,0,0v0c0,0,0,0,0,0
									c0,0,0,0,0,0c0,0,0,0,0,0l0,0l0,0c0-0.1,0,0,0-0.1c0,0,0,0,0,0c0,0,0,0,0,0.1c0,0,0,0,0,0c0,0,0,0,0,0c0,0,0,0,0,0
									c0,0,0,0,0,0.1c0,0,0,0,0,0v0c0,0,0,0,0,0v0c0,0,0,0,0,0v0c0,0,0,0,0,0l0,0c0,0,0,0,0,0c0,0,0,0,0,0c0,0,0,0,0,0
									c0,0,0,0,0,0c0,0,0,0,0,0c0,0,0,0,0,0l0,0c0,0,0,0,0,0c0,0,0,0,0,0c0,0,0,0,0,0c0,0,0,0,0,0l0,0c0,0,0,0,0,0c0,0,0,0,0,0v0
									c0,0,0,0,0,0c0,0,0,0,0,0c0,0,0,0,0,0c0,0,0,0,0,0c0,0,0,0,0,0l0,0c0,0,0,0,0,0c0,0,0,0,0,0c0,0,0,0,0,0l0,0c0,0,0,0,0,0
									l0,0c0,0,0,0,0,0c0,0,0,0,0,0v0l0,0v0c0,0,0,0,0,0c0,0,0,0,0,0c0,0,0,0,0,0c0,0,0,0,0,0c0,0,0,0,0,0c0,0,0,0,0,0l0,0
									c0,0,0,0,0,0c0,0,0,0,0,0c0,0,0,0,0,0c0,0,0,0,0.1-0.1l0,0l0,0c0,0,0,0,0,0c0,0,0,0,0,0c0,0,0,0,0,0c0,0,0,0,0,0l0,0l0,0v0
									c0,0,0,0,0,0c0,0,0,0,0,0c0,0,0,0,0,0c0,0,0,0,0,0l0,0c0,0,0,0,0,0c0,0,0,0,0,0c0,0,0,0,0,0v0c0,0,0,0,0,0l0,0c0,0,0,0,0,0
									c0,0,0,0,0,0c0,0,0,0,0,0c0,0,0,0,0,0c0,0,0,0,0,0c0,0,0,0,0,0l0,0l0,0l0,0c0,0,0,0,0,0c0,0,0,0,0,0c0,0,0,0,0,0
									c0,0,0,0,0,0l0,0c0,0,0,0,0,0l0,0c0,0,0,0,0,0l0,0l0,0l0,0l0,0c0,0,0,0,0,0c0,0,0,0,0,0c0,0,0,0,0,0c0,0,0,0,0,0s0,0,0,0
									c0,0,0,0,0,0l0,0c0,0,0,0,0,0c0,0,0,0,0,0l0,0c0,0,0,0,0,0s0,0,0,0c0,0,0,0-0.1,0c0,0,0,0,0,0l0,0c0,0,0,0,0,0l0,0
									c0,0,0,0,0,0c0,0,0,0,0,0l0,0c0,0,0,0,0,0c0,0,0,0,0,0c0,0,0,0,0,0c0,0,0,0,0,0s0,0,0,0c0,0,0,0,0,0c0,0,0,0,0,0
									c0,0,0,0,0,0c0,0,0,0,0,0l0,0l0.1,0c0,0,0,0,0,0l0,0c0,0,0,0,0,0c0,0,0,0,0,0h0l0,0c0,0,0,0,0,0c0,0,0,0,0,0l0,0l0,0
									c0,0,0,0,0,0l0,0c0,0,0,0,0,0c0,0,0,0,0,0h0c0,0,0,0,0,0c0,0,0,0,0,0c0,0,0,0,0,0s0,0,0,0s0,0,0,0h0c0,0,0,0,0,0
									c0,0,0,0,0,0c0,0,0,0,0,0c0,0,0,0,0,0c0,0,0,0,0,0c0,0,0,0,0,0c0,0,0,0,0,0h0c0,0,0,0,0,0c0,0,0,0,0,0l0,0h0l0,0
									c0,0,0,0,0,0c0,0,0,0,0,0c0,0,0,0,0,0c0,0,0,0,0,0l0,0h0c0,0,0,0,0,0l0,0c0,0,0,0,0,0c0,0,0,0,0,0c0,0,0,0,0,0v0v0
									c-0.1,0,0,0.1,0,0c0,0,0,0,0,0c0,0,0,0,0,0l0,0c0,0,0,0,0,0l0,0c0,0,0,0,0,0l0,0c0,0,0,0,0,0c0,0,0,0,0,0c0,0,0,0,0,0l0,0
									c0,0,0,0,0,0c0,0,0,0,0,0l0,0l0,0c0,0,0,0,0,0c0,0,0,0,0,0s0,0,0,0l0,0c0,0,0,0,0,0c0,0,0,0,0,0h0v0v0c0,0,0,0,0,0l0,0v0
									c0,0,0,0,0,0c0,0,0,0,0,0v0c0,0,0,0,0,0c0,0,0,0,0,0c0,0,0,0,0,0c0,0,0,0,0,0c0,0,0,0,0,0c0-0.1,0,0,0-0.1c0,0,0,0,0,0.1
									l0,0c0,0,0,0,0,0c0,0,0,0,0,0c0,0,0,0,0,0c0,0,0,0,0,0c0,0,0,0,0,0c0,0,0,0,0,0c0,0,0,0,0,0.1c0-0.1,0,0,0,0c0,0,0,0,0,0
									c0,0,0,0,0,0c0,0,0,0,0,0c0,0,0,0,0,0c0,0,0,0,0,0c0,0,0,0,0,0c0,0,0,0,0,0c0,0,0,0,0,0c0,0,0,0,0,0c0,0,0,0,0,0v0
									c0,0,0,0-0.1,0v0c0,0,0,0,0,0c0,0-0.1,0-0.1,0c0,0,0,0,0,0c0,0,0,0,0,0v0c0,0,0,0,0,0c0,0,0,0,0,0c0,0,0,0,0,0l0,0l0,0
									c0,0,0-0.1,0,0l0,0v0c0,0,0,0,0,0c0,0,0,0,0,0c0,0,0,0,0,0c0,0,0,0,0,0c0,0,0,0,0,0c0,0,0,0,0,0c0,0,0,0,0,0v0c0,0,0,0,0,0
									l0,0h0c0,0,0,0,0,0c0,0,0,0,0,0l0,0c0,0,0,0,0,0c0,0,0,0-0.1,0l0,0c0,0,0,0,0,0l0,0c0,0,0,0,0,0c0,0,0,0,0,0c0,0,0,0,0,0
									s0,0,0,0c0,0,0,0,0,0l0,0l0,0l0,0h0l0,0h0c0,0,0,0,0,0c0,0,0,0,0,0c0,0,0,0,0-0.1l0,0c0,0,0,0,0,0h0c0,0,0,0,0,0h0
									c0,0,0,0,0,0h0h0c0,0,0,0,0,0c0,0,0,0,0,0c0,0,0,0,0,0h0c0,0,0,0,0,0c0,0,0,0,0,0c0,0,0,0,0,0h0c0,0,0,0,0,0c0,0,0.1,0,0,0
									C10.1-10.5,10.1-10.5,10-10.5C10.1-10.5,10.1-10.5,10-10.5c0.1,0,0.1,0,0.1,0h0c0,0,0,0,0,0c0,0,0,0,0,0c0,0,0,0,0,0h0h0
									c0,0,0,0,0,0c0,0,0,0,0,0h0C10.1-10.5,10.1-10.5,10-10.5c0.1,0,0.1,0,0.1,0S10.1-10.5,10-10.5c0.1,0,0.1,0,0.1,0
									C10.1-10.5,10.1-10.5,10-10.5C10.1-10.5,10.1-10.5,10-10.5z M10.1-10.4L10.1-10.4L10.1-10.4L10.1-10.4z M10.1-10.4
									C10.1-10.4,10.1-10.4,10.1-10.4L10.1-10.4C10.1-10.4,10.1-10.4,10.1-10.4z M10.3-10.4L10.3-10.4
									C10.3-10.4,10.3-10.4,10.3-10.4L10.3-10.4C10.3-10.4,10.3-10.4,10.3-10.4z"/>
								<path d="M10.3-10.4L10.3-10.4C10.2-10.4,10.2-10.4,10.3-10.4L10.3-10.4L10.3-10.4z"/>
								<path d="M10.8-10.4L10.8-10.4L10.8-10.4L10.8-10.4z"/>
								<path d="M10.1-10.2L10.1-10.2L10.1-10.2z"/>
								<path d="M10.9-10.4L10.9-10.4L10.9-10.4z"/>
								<path d="M10.9-10.4L10.9-10.4L10.9-10.4z"/>
								<path d="M10.9-10.4L10.9-10.4L10.9-10.4L10.9-10.4z"/>
								<path d="M10.7-10.2L10.7-10.2L10.7-10.2z"/>
								<path d="M10.8-10.3C10.8-10.3,10.8-10.3,10.8-10.3C10.8-10.3,10.8-10.3,10.8-10.3z"/>
								<path d="M10.6-10.1L10.6-10.1L10.6-10.1z"/>
								<path d="M10.8-10.3C10.8-10.3,10.8-10.3,10.8-10.3C10.8-10.3,10.8-10.3,10.8-10.3z"/>
								<path d="M11-10.5L11-10.5L11-10.5L11-10.5z"/>
								<path d="M11-10.5L11-10.5C11-10.5,11-10.5,11-10.5z"/>
								<path d="M11-10.5L11-10.5L11-10.5z"/>
								<path d="M11-10.5L11-10.5C11-10.5,11-10.5,11-10.5z"/>
								<path d="M11-10.5L11-10.5L11-10.5C10.9-10.5,11-10.5,11-10.5z"/>
								<path d="M10.9-10.5C10.9-10.5,10.9-10.5,10.9-10.5L10.9-10.5C10.9-10.5,10.8-10.5,10.9-10.5z"/>
								<path d="M10.8-10.5C10.8-10.5,10.8-10.5,10.8-10.5C10.8-10.5,10.8-10.5,10.8-10.5z"/>
								<path d="M10.8-10.4L10.8-10.4C10.8-10.4,10.8-10.4,10.8-10.4z"/>
								<path d="M10.8-10.3L10.8-10.3L10.8-10.3z"/>
								<polygon points="10.7,-10.4 10.7,-10.4 10.7,-10.4 								"/>
								<path d="M10.6-10.2L10.6-10.2C10.6-10.3,10.6-10.3,10.6-10.2z"/>
								<path d="M10.5-10.2C10.5-10.2,10.5-10.2,10.5-10.2C10.5-10.2,10.5-10.2,10.5-10.2z"/>
								<path d="M10.3-10.3L10.3-10.3L10.3-10.3z"/>
							</g>
						</g>
					</g>
				</g>
			</g>
			<g>
				<g>
					<g>
						<g>
							<g>
								<path d="M9.2-5.4L9.2-5.4L9.2-5.4L9.2-5.4z"/>
								<path d="M9.1-5.5C9.1-5.5,9.1-5.5,9.1-5.5C9.1-5.5,9.1-5.5,9.1-5.5C9.1-5.5,9.1-5.5,9.1-5.5C9.1-5.4,9.1-5.5,9.1-5.5
									C9.1-5.5,9.1-5.5,9.1-5.5C9.1-5.5,9.1-5.5,9.1-5.5z"/>
								<path d="M9-5.4L9-5.4C9-5.4,9-5.4,9-5.4z"/>
								<path d="M8.9-5.4L8.9-5.4L8.9-5.4z"/>
								<path d="M8.9-5.4L8.9-5.4L8.9-5.4z"/>
								<path d="M9-5.4L9-5.4C9-5.4,9-5.4,9-5.4z"/>
								<path d="M9.1-5.4L9.1-5.4L9.1-5.4L9.1-5.4z"/>
								<path d="M9-5.5C9-5.5,9-5.5,9-5.5L9-5.5L9-5.5z"/>
								<path d="M9-5.5C9-5.5,9-5.5,9-5.5C9-5.5,9-5.5,9-5.5C9-5.5,9-5.5,9-5.5z"/>
								<path d="M9.1-5.5L9.1-5.5L9.1-5.5z"/>
								<path d="M9-5.5L9-5.5L9-5.5z"/>
								<path d="M8.3-5.8L8.3-5.8L8.3-5.8z"/>
								<polygon points="8.5,-5.8 8.5,-5.8 8.5,-5.8 								"/>
								<path d="M8.8-5.5L8.8-5.5L8.8-5.5z"/>
								<path d="M8.6-5.4C8.6-5.4,8.6-5.4,8.6-5.4C8.6-5.4,8.6-5.4,8.6-5.4z"/>
								<path d="M9.1-5.4L9.1-5.4L9.1-5.4z"/>
								<path d="M8.6-5.4L8.6-5.4L8.6-5.4z"/>
								<path d="M8.8-5.4C8.8-5.4,8.8-5.4,8.8-5.4C8.8-5.4,8.8-5.4,8.8-5.4z"/>
								<path d="M8.8-5.4L8.8-5.4L8.8-5.4z"/>
								<path d="M8.8-5.4L8.8-5.4L8.8-5.4L8.8-5.4z"/>
								<path d="M8.8-5.4L8.8-5.4L8.8-5.4z"/>
								<path d="M8.3-5.7L8.3-5.7C8.3-5.7,8.3-5.7,8.3-5.7z"/>
								<path d="M9.1-5.4L9.1-5.4C9.1-5.4,9.1-5.4,9.1-5.4C9.1-5.4,9.1-5.4,9.1-5.4z"/>
								<path d="M8.8-5.2L8.8-5.2C8.8-5.2,8.8-5.2,8.8-5.2z"/>
								<path d="M8.4-5.4L8.4-5.4C8.4-5.4,8.4-5.4,8.4-5.4z"/>
								<path d="M8.8-5.2C8.8-5.3,8.8-5.3,8.8-5.2C8.8-5.3,8.8-5.3,8.8-5.2L8.8-5.2z"/>
								<path d="M8.3-5.7L8.3-5.7L8.3-5.7z"/>
								<path d="M8.4-5.7C8.3-5.7,8.4-5.7,8.4-5.7C8.4-5.7,8.4-5.7,8.4-5.7C8.4-5.7,8.4-5.7,8.4-5.7C8.4-5.7,8.4-5.7,8.4-5.7
									C8.4-5.7,8.4-5.7,8.4-5.7C8.4-5.7,8.4-5.7,8.4-5.7C8.4-5.7,8.4-5.7,8.4-5.7C8.4-5.7,8.4-5.7,8.4-5.7
									C8.4-5.7,8.4-5.7,8.4-5.7C8.4-5.7,8.4-5.8,8.4-5.7C8.4-5.7,8.4-5.8,8.4-5.7C8.4-5.7,8.4-5.8,8.4-5.7
									C8.4-5.8,8.4-5.8,8.4-5.7C8.4-5.8,8.4-5.8,8.4-5.7C8.4-5.8,8.4-5.8,8.4-5.7C8.4-5.8,8.4-5.8,8.4-5.7
									C8.4-5.8,8.4-5.8,8.4-5.7l0-0.1C8.4-5.8,8.4-5.8,8.4-5.7c0-0.1,0-0.1,0-0.1l0,0L8.4-5.7l0-0.1c0,0,0.1,0,0.1,0.1l0,0
									c0,0,0,0,0,0c0,0,0,0,0,0s0,0,0,0l0,0h0c0,0,0,0,0,0c0,0,0,0,0,0h0c0,0,0,0,0,0l0,0L8.4-5.7c0.1,0,0.1,0,0.1,0
									C8.4-5.7,8.5-5.7,8.4-5.7c0.1,0,0.1,0,0.1,0c-0.1,0,0.1,0,0,0h0C8.5-5.7,8.5-5.7,8.4-5.7c0.1,0,0.1,0.1,0.1,0.1
									C8.5-5.6,8.5-5.6,8.4-5.7L8.4-5.7c0.1,0.1,0.1,0.1,0.1,0.1C8.5-5.6,8.5-5.6,8.4-5.7c0.1,0.1,0.1,0.1,0.1,0.1c0,0,0,0,0,0
									l0,0l0,0l0,0l0,0c0,0,0,0,0,0c0,0,0,0,0,0l0,0l0,0l0,0l0,0c0,0,0,0,0,0c0,0,0,0-0.1,0v0c0,0,0,0,0,0c0,0,0,0,0,0
									c0,0,0,0,0,0c0,0,0,0,0,0c0,0,0,0,0,0c0,0,0,0,0,0h0c0,0,0,0,0,0h0c0,0,0,0,0,0l0,0c0,0,0,0,0,0c0,0,0,0,0,0h0c0,0,0,0,0,0
									l0,0l0.1,0l0,0v0l0,0c0,0,0,0,0,0c0,0,0,0,0,0l0,0c0,0,0,0,0,0l0,0c0,0,0,0,0,0l0,0c0,0,0,0,0,0c0,0,0,0,0,0l0,0
									c0,0,0,0,0,0c0,0,0,0,0,0l0,0l0,0l0,0c0,0,0,0,0,0l0,0c0,0,0,0,0,0l0,0c0,0,0,0,0,0l0,0c0,0,0,0,0,0l-0.1,0c0,0,0,0,0,0
									c0,0,0,0,0,0c0,0,0,0,0,0v0l0,0c0,0,0,0,0,0c0,0,0,0,0,0c0,0.1,0,0,0,0.1c0,0,0,0,0,0c0,0,0,0,0,0c0,0,0,0,0,0c0,0,0,0,0,0
									c0,0,0,0,0,0v0c0,0,0,0,0,0v0l0,0v0c0,0,0,0,0,0l0,0c0,0,0,0,0,0c0,0,0,0,0,0c0,0,0,0,0,0c0,0,0,0,0,0c0,0,0,0,0,0s0,0,0,0
									l0,0c0,0,0,0,0,0c0,0,0,0,0,0c0,0,0,0,0,0c0,0,0,0,0,0l0,0c0,0,0,0,0,0c0,0,0,0,0,0v0c0,0,0,0,0,0c0,0,0,0,0,0c0,0,0,0,0,0
									c0,0,0,0,0,0c0,0,0-0.1,0,0v0c0,0,0,0,0,0c0,0,0,0,0,0c0,0,0,0,0,0v0c0,0,0,0,0,0l0,0c0,0,0,0,0,0c0,0,0,0,0,0v0v0v0
									c0,0,0,0,0,0s0,0,0,0c0,0,0,0,0,0c0,0,0,0,0,0c0,0,0,0,0,0c0,0,0,0,0,0l0,0c0,0,0,0,0,0v0c0,0,0,0,0,0c0,0,0,0,0,0l0,0l0,0
									c0,0,0,0,0,0c0,0,0,0,0,0c0,0,0,0,0,0c0,0,0,0,0,0v0l0,0v0c0,0,0,0,0,0c0,0,0,0,0,0c0,0,0,0,0,0c0,0,0,0,0,0v0c0,0,0,0,0,0
									c0,0,0,0,0,0c0,0,0,0,0,0v0v0l0,0l0,0c0,0,0,0,0,0c0,0,0,0,0,0l0,0c0,0,0,0,0,0c0,0,0,0,0,0L9-5.4l0,0l0,0c0,0,0,0,0,0
									c0,0,0,0,0,0s0,0,0,0c0,0,0,0,0,0c0,0,0,0,0,0c0,0,0,0,0,0v0c0,0,0,0,0,0l0,0l0,0l0,0l0,0c0,0,0,0,0,0c0,0,0,0,0,0
									c0,0,0,0,0,0c0,0,0,0,0,0c0,0,0,0,0,0l0,0l0,0c0,0,0,0,0,0v0v0c0,0,0,0,0,0s0,0,0,0c0,0,0-0.1,0-0.1c0,0,0,0,0,0l0,0
									c0,0,0,0,0,0l0,0c0,0,0,0,0,0c0,0,0,0,0,0l0,0c0,0,0,0,0,0c0,0,0,0,0,0c0,0,0,0,0,0c0,0,0,0,0,0c0,0,0,0,0,0c0,0,0,0,0,0
									c0,0,0,0,0,0c0,0,0,0,0,0c0,0,0,0,0,0l0,0l0,0c0,0,0,0,0,0l0,0c0,0,0,0,0,0l0,0v0l0,0c0,0,0,0,0,0l0,0l0,0l0,0
									c0,0,0-0.1,0,0l0,0c0,0,0,0,0,0l0,0l0,0c0,0,0,0,0,0c0,0,0,0,0,0c0,0,0,0,0,0c0,0,0,0,0,0c0,0,0,0,0,0l0,0c0,0,0,0,0,0
									c0,0,0,0,0,0c0,0,0,0,0,0.1c0,0,0,0,0,0c0,0,0,0,0,0c0,0,0,0,0,0c0,0,0,0,0,0l0,0c0,0,0,0,0,0c0,0,0,0,0,0l0,0h0l0,0
									c0,0,0,0,0,0c0,0,0,0,0,0c0,0,0,0,0,0c0,0,0,0,0,0v0v0c0,0,0,0,0,0l0,0c0,0,0,0,0,0c0,0,0,0,0,0c0,0,0,0,0,0v0v0
									c0,0,0,0.1,0,0c0,0,0,0,0,0c0,0,0,0,0,0v0c0,0,0,0,0,0c0,0,0,0,0,0c0,0,0,0,0,0l0,0c0,0,0,0,0,0c0,0,0,0,0,0c0,0,0,0,0,0
									c0,0,0,0,0,0c0,0,0,0,0,0c0,0,0,0,0,0v0c0,0,0,0,0,0c0,0,0,0,0,0c0,0,0,0,0,0c0,0,0,0,0,0l0,0c0,0,0,0,0,0c0,0,0,0,0,0l0,0
									v0v0c0,0,0,0,0,0v0v0c0,0,0,0,0,0c0,0,0,0,0,0v0c0,0,0,0,0,0c0,0,0,0,0,0c0,0,0,0,0,0c0,0,0,0,0,0c0,0,0,0,0,0
									c0-0.1,0,0,0-0.1c0,0,0,0,0,0.1l0,0c0,0,0,0,0,0v0c0,0,0,0,0,0c0,0,0,0,0,0s0,0,0,0c0,0,0,0,0,0c0,0,0,0,0,0c0-0.1,0,0,0,0
									c0,0,0,0,0,0c0,0,0,0,0,0c0,0,0,0,0,0c0,0,0,0,0,0c0,0,0,0,0,0c0,0,0,0,0,0c0,0,0,0,0,0c0,0,0,0,0,0c0,0,0,0,0,0
									c0,0,0,0,0,0v0c0,0,0,0-0.1,0v0c0,0,0,0,0,0c0,0,0-0.1-0.1,0c0,0,0,0,0,0c0,0,0,0,0,0v0c0,0,0,0,0,0c0,0,0,0,0,0
									c0,0,0,0,0,0l0,0l0,0c0,0,0,0,0,0l0,0v0c0,0,0,0,0,0c0,0,0,0,0,0c0,0,0,0,0,0c0,0,0,0,0,0c0,0,0,0,0,0c0,0,0,0,0,0
									c0,0,0,0,0,0l0,0c0,0,0,0,0,0l0,0h0c0,0,0,0,0,0c0,0,0,0,0,0l0,0c0,0,0,0,0,0c0,0,0,0,0,0l0,0c0,0,0,0,0,0l0,0c0,0,0,0,0,0
									c0,0,0,0,0,0h0c0,0,0,0,0,0l0,0h0l0,0l0,0l0,0l0,0c0,0,0,0,0,0c0,0,0,0,0,0c0,0,0,0,0,0l0,0c0,0,0,0,0,0h0c0,0,0,0,0,0l0,0
									c0,0,0,0,0,0h0h0C8.4-5.6,8.4-5.6,8.4-5.7C8.4-5.6,8.4-5.6,8.4-5.7C8.4-5.6,8.4-5.6,8.4-5.7L8.4-5.7
									C8.4-5.6,8.3-5.6,8.4-5.7C8.4-5.6,8.4-5.6,8.4-5.7C8.4-5.6,8.4-5.6,8.4-5.7L8.4-5.7C8.4-5.6,8.4-5.6,8.4-5.7
									C8.3-5.6,8.4-5.6,8.4-5.7C8.4-5.6,8.3-5.6,8.4-5.7C8.3-5.6,8.3-5.6,8.4-5.7C8.4-5.7,8.3-5.7,8.4-5.7L8.4-5.7
									C8.4-5.7,8.4-5.7,8.4-5.7C8.4-5.7,8.4-5.7,8.4-5.7C8.4-5.7,8.4-5.7,8.4-5.7L8.4-5.7L8.4-5.7C8.4-5.7,8.4-5.7,8.4-5.7
									C8.4-5.7,8.4-5.7,8.4-5.7L8.4-5.7C8.3-5.7,8.4-5.7,8.4-5.7C8.3-5.7,8.3-5.7,8.4-5.7C8.3-5.7,8.3-5.7,8.4-5.7
									C8.3-5.7,8.3-5.7,8.4-5.7C8.3-5.7,8.3-5.7,8.4-5.7C8.3-5.7,8.3-5.7,8.4-5.7z M8.4-5.6L8.4-5.6L8.4-5.6L8.4-5.6z M8.4-5.6
									C8.4-5.6,8.4-5.6,8.4-5.6L8.4-5.6C8.4-5.6,8.4-5.6,8.4-5.6z M8.5-5.6L8.5-5.6C8.5-5.6,8.5-5.6,8.5-5.6L8.5-5.6
									C8.5-5.6,8.5-5.6,8.5-5.6z"/>
								<path d="M8.5-5.6L8.5-5.6C8.5-5.6,8.5-5.6,8.5-5.6L8.5-5.6L8.5-5.6z"/>
								<path d="M9-5.4L9-5.4L9-5.4L9-5.4z"/>
								<path d="M8.4-5.4L8.4-5.4L8.4-5.4z"/>
								<path d="M9.1-5.4L9.1-5.4L9.1-5.4z"/>
								<path d="M9.1-5.4L9.1-5.4L9.1-5.4z"/>
								<path d="M9.1-5.4L9.1-5.4C9.1-5.4,9.1-5.4,9.1-5.4L9.1-5.4z"/>
								<path d="M8.9-5.3L8.9-5.3L8.9-5.3z"/>
								<path d="M8.9-5.3L8.9-5.3L8.9-5.3z"/>
								<path d="M8.8-5.2L8.8-5.2L8.8-5.2z"/>
								<path d="M8.9-5.3C8.9-5.3,8.9-5.3,8.9-5.3C8.9-5.3,8.9-5.3,8.9-5.3z"/>
								<path d="M9.2-5.4L9.2-5.4L9.2-5.4L9.2-5.4z"/>
								<path d="M9.2-5.4L9.2-5.4L9.2-5.4z"/>
								<path d="M9.1-5.4L9.1-5.4C9.2-5.4,9.2-5.4,9.1-5.4z"/>
								<path d="M9.1-5.4L9.1-5.4L9.1-5.4z"/>
								<path d="M9.1-5.4L9.1-5.4C9.1-5.4,9.1-5.4,9.1-5.4C9.1-5.4,9.1-5.4,9.1-5.4z"/>
								<path d="M9.1-5.5L9.1-5.5L9.1-5.5C9.1-5.5,9-5.5,9.1-5.5z"/>
								<path d="M9-5.5C9-5.5,9-5.5,9-5.5C9-5.5,9-5.5,9-5.5z"/>
								<path d="M8.9-5.5L8.9-5.5L8.9-5.5z"/>
								<path d="M9-5.3L9-5.3L9-5.3z"/>
								<path d="M8.9-5.5L8.9-5.5L8.9-5.5z"/>
								<path d="M8.8-5.4L8.8-5.4C8.8-5.4,8.8-5.4,8.8-5.4z"/>
								<path d="M8.7-5.4C8.7-5.4,8.7-5.4,8.7-5.4C8.7-5.4,8.7-5.4,8.7-5.4z"/>
								<path d="M8.6-5.5L8.6-5.5L8.6-5.5z"/>
							</g>
						</g>
					</g>
				</g>
			</g>
			<g>
				<g>
					<g>
						<g>
							<g>
								<path d="M8.2-11.6L8.2-11.6C8.2-11.6,8.2-11.6,8.2-11.6L8.2-11.6z"/>
								<path d="M8.3-11.6C8.3-11.6,8.3-11.6,8.3-11.6C8.3-11.6,8.3-11.6,8.3-11.6C8.3-11.6,8.3-11.6,8.3-11.6
									C8.3-11.6,8.3-11.6,8.3-11.6C8.4-11.6,8.4-11.6,8.3-11.6C8.3-11.6,8.3-11.6,8.3-11.6z"/>
								<path d="M10-11.7L10-11.7L10-11.7z"/>
								<path d="M9.3-11.3C9.3-11.4,9.3-11.4,9.3-11.3C9.3-11.4,9.3-11.3,9.3-11.3L9.3-11.3C9.3-11.3,9.3-11.3,9.3-11.3z"/>
								<path d="M9.5-11.2C9.5-11.2,9.5-11.2,9.5-11.2C9.5-11.2,9.5-11.2,9.5-11.2z"/>
								<path d="M10-11.7L10-11.7C10-11.7,10-11.7,10-11.7z"/>
								<path d="M8.6-11.7L8.6-11.7L8.6-11.7L8.6-11.7z"/>
								<path d="M9.6-11.7C9.6-11.7,9.6-11.7,9.6-11.7L9.6-11.7L9.6-11.7z"/>
								<path d="M9.2-11.7C9.2-11.7,9.2-11.7,9.2-11.7C9.2-11.7,9.2-11.7,9.2-11.7C9.2-11.7,9.2-11.7,9.2-11.7z"/>
								<path d="M8.7-11.7L8.7-11.7L8.7-11.7z"/>
								<path d="M9.8-11.7L9.8-11.7L9.8-11.7z"/>
								<path d="M7.9-11.5L7.9-11.5L7.9-11.5z"/>
								<path d="M8.3-11.3L8.3-11.3L8.3-11.3L8.3-11.3z"/>
								<path d="M9.7-11.1L9.7-11.1L9.7-11.1z"/>
								<path d="M8.3-10.5C8.2-10.5,8.3-10.6,8.3-10.5C8.3-10.6,8.3-10.5,8.3-10.5z"/>
								<path d="M8.6-11.7L8.6-11.7L8.6-11.7z"/>
								<path d="M8.3-10.5L8.3-10.5L8.3-10.5L8.3-10.5z"/>
								<path d="M9.4-11.1L9.4-11.1L9.4-11.1z"/>
								<path d="M9.9-11L9.9-11C9.8-11,9.8-11,9.9-11z"/>
								<path d="M9.1-11L9.1-11C9.1-11,9.1-11,9.1-11C9.1-11,9.1-11,9.1-11z"/>
								<polygon points="8.9,-10.8 8.9,-10.8 8.8,-10.8 								"/>
								<path d="M6.9-11.3C6.9-11.3,6.9-11.3,6.9-11.3C7-11.3,6.9-11.3,6.9-11.3z"/>
								<path d="M8.6-11.7L8.6-11.7C8.6-11.7,8.6-11.7,8.6-11.7C8.6-11.7,8.6-11.7,8.6-11.7z"/>
								<path d="M9.1-10.8L9.1-10.8C9.1-10.8,9.1-10.8,9.1-10.8z"/>
								<path d="M7.5-10.6L7.5-10.6C7.5-10.6,7.5-10.6,7.5-10.6z"/>
								<path d="M9-10.7C9-10.7,9-10.7,9-10.7C9-10.7,9-10.7,9-10.7L9-10.7z"/>
								<path d="M6.9-11.3L6.9-11.3L6.9-11.3z"/>
								<path d="M7.3-11.4C7.3-11.5,7.3-11.4,7.3-11.4c0.1,0,0.1,0,0.1,0c0,0,0,0,0.1,0c0,0,0.1,0,0.1-0.1c0,0,0,0,0,0.1
									c0,0,0.1,0,0.1-0.1c0,0,0,0,0.1,0l0,0c0.1,0,0.1,0,0.2,0c0,0,0.1,0,0.1,0c0,0,0.1,0,0.1,0c0,0,0.1,0,0.1,0c0,0,0.1,0,0.1,0
									c0,0,0,0,0,0c0,0,0,0,0,0c0,0,0,0,0,0c0,0,0,0,0,0l0.1,0c0,0,0,0,0,0c0,0,0,0,0.1,0h0l0,0l0.1,0c0.1,0,0.1,0.1,0,0.1h0
									c0,0,0,0,0,0c0,0-0.1,0-0.1,0c-0.1,0,0,0-0.1-0.1l-0.1,0v0c0,0,0,0,0,0c0,0-0.1,0-0.1,0l0,0c-0.1,0-0.1,0-0.2,0l-0.1,0l0,0
									c0,0,0,0-0.1,0c-0.2,0-0.3,0-0.5,0.1c0,0,0,0,0,0c-0.2,0-0.2,0.1-0.3,0.1v0c-0.1,0,0,0,0,0c0,0-0.1,0.1-0.1,0.1c0,0,0,0,0,0
									c0,0,0,0,0,0c0,0.1-0.1,0.1-0.1,0.2c0,0-0.1,0-0.1,0c0,0,0,0,0,0c0,0,0,0,0,0.1c0,0,0,0,0,0l0,0c0,0,0,0,0,0c0,0,0,0,0,0
									c0,0,0,0,0,0c0,0,0,0.1-0.1,0.1c0,0,0,0,0,0c0,0,0,0,0,0l0,0c0,0,0,0,0,0c0,0,0,0,0,0.1c0,0,0,0,0,0c0,0,0,0,0,0
									c0,0,0,0,0-0.1c0,0,0,0,0,0c0,0,0,0,0,0c0,0,0,0,0,0c0,0,0,0,0,0c0,0,0,0,0,0c0,0,0,0,0.1,0c0,0,0,0,0.1,0l0,0
									c0.1,0,0,0,0.1,0c0,0,0,0,0,0c0.1,0,0.1,0,0.1-0.1v0c0,0,0.1-0.1,0.1,0c0,0,0.1,0,0.1,0c0,0,0,0,0,0c0.1,0,0.2,0,0.2,0l0,0
									c0,0,0-0.1,0.1-0.1l0,0c0.1,0,0.1,0,0.2,0v0c0,0,0.1,0,0.1,0c0,0,0.1,0,0.1,0.1c0,0,0.1,0.1,0.1,0.1c0,0.1,0,0.2,0,0.2l0,0
									c0,0,0,0.1,0,0.1v0c0,0,0,0,0,0.1c0,0,0,0,0.1-0.1c0,0.1,0,0.1,0,0.2c0,0,0,0,0,0c0,0,0,0,0,0c0,0,0,0,0,0c0,0,0,0,0,0l0,0
									l0,0c0,0,0,0,0,0.1c0,0,0-0.1,0.1-0.1c0,0,0,0,0,0v0c0,0,0,0,0,0c0,0,0,0,0,0c0,0,0,0,0,0v0c0.1,0,0.1-0.2,0.2-0.2
									c0,0,0,0,0,0c0-0.1,0.1-0.1,0.1-0.2l0,0c0-0.1,0.1,0,0.1-0.1l-0.1,0c0,0,0-0.1,0-0.1c0,0,0,0,0.1,0c0,0,0,0,0,0c0,0,0,0,0,0
									c0,0,0,0,0,0c0,0,0,0,0,0c0,0,0.1,0,0-0.1c0.1,0,0.1-0.1,0.2,0c0.1,0,0.1,0.1,0.2,0.1c0,0.1,0.1,0.2,0,0.2
									c0,0.1,0,0.1,0.1,0.1c0,0,0,0,0,0c0,0,0,0.1,0.1,0.1c0,0-0.1-0.1-0.1-0.1c0,0,0.1,0.1,0.1,0.1l0,0c0,0,0,0,0,0.1v0
									c0,0,0.1,0,0.1,0.1c0,0-0.1,0-0.1,0.1c0,0,0,0,0,0h0c0,0,0-0.1,0-0.1l0,0c0,0,0-0.1,0-0.1c0-0.1,0,0,0,0c0,0,0,0,0,0
									c0-0.1,0-0.1-0.1-0.2c0,0,0,0,0,0c0-0.1,0-0.1,0-0.1v0c0-0.1,0-0.1,0-0.1c0,0,0,0,0,0c0-0.1,0-0.1,0-0.1c0,0,0,0,0,0
									c0,0,0-0.1,0-0.1c0,0,0.1-0.1,0.1-0.1C9-11,9.1-11,9.1-11c0,0,0,0,0,0l0,0c0,0,0,0,0,0c0,0,0.1,0,0.1,0c0,0,0,0,0,0
									c0,0,0,0,0,0c0.1,0,0.1-0.1,0.1-0.1l0,0c0,0,0.1,0,0.1,0c0,0,0,0,0,0c0,0,0.1,0,0.1,0l0,0c0.1,0,0.1,0,0.2,0v0
									c0.1,0,0.1,0,0.1,0c0,0,0,0,0,0c0,0,0,0,0,0l0,0c0,0,0,0,0,0c0,0,0,0,0,0s0,0,0,0c0,0,0,0,0,0c0,0,0,0,0,0c0,0,0,0,0,0
									c0,0,0,0,0,0c0,0,0,0,0,0h0c0,0,0,0,0,0c0,0-0.1,0-0.1,0s0,0,0.1,0c0,0-0.1,0-0.1,0h0h0c0,0,0,0,0.1,0c0,0,0,0,0,0
									c0,0,0,0-0.1,0c0,0,0,0,0,0l0,0c0,0,0,0,0,0h0c0,0,0,0,0,0c0,0,0,0-0.1,0c0,0,0,0,0,0c-0.1,0,0,0,0,0c-0.1,0,0,0-0.1,0
									c0,0,0,0,0,0c-0.1-0.1-0.1-0.1-0.2-0.1c0,0,0,0,0,0c0,0,0,0,0,0c0,0,0,0,0,0c0,0,0,0,0,0h0h0c0,0,0,0,0,0c0,0,0,0,0,0
									c0,0,0.1,0,0.1,0c0,0,0,0,0,0s0,0,0,0c0,0,0,0-0.1,0c0.1,0,0-0.1,0.1-0.1c0,0,0.1,0,0.2,0c0,0-0.1,0-0.1,0c0,0,0,0,0,0
									c0,0,0,0,0,0c0,0,0,0,0.1,0c0,0,0,0,0.1,0h0l0,0c0,0,0,0,0,0l0,0c0,0,0,0,0,0h0c0,0,0,0,0.1,0c0,0,0,0,0.1,0c0,0,0,0,0,0
									c0.1,0,0,0,0.1,0c0,0,0.1,0,0.1,0c0,0,0,0,0,0c0,0,0,0,0,0h0l0,0l0,0h0c0,0,0,0,0,0c0,0,0,0-0.1,0l0,0l0,0l0,0l0,0
									c0,0-0.1,0-0.1,0c0,0,0,0,0,0c0,0,0,0-0.1,0c0,0,0,0,0,0c0,0,0,0,0,0c0,0,0,0,0,0c0,0,0,0,0,0c0,0,0,0,0,0c0,0,0,0,0,0l0,0
									h0c0,0,0,0,0,0c-0.1,0,0,0.1,0,0.1c-0.1,0-0.1,0-0.1,0l0,0c0,0,0,0,0,0h0c0,0,0,0,0,0c0,0-0.1,0-0.1,0l0,0
									c-0.1,0-0.1,0-0.1,0c-0.1,0-0.1,0-0.1,0c0,0-0.1,0-0.1,0c0,0,0,0,0,0c0,0-0.1,0-0.1,0c0,0,0,0,0,0c0,0-0.1,0-0.1,0
									c0,0,0,0,0,0c0,0,0,0,0,0v0l-0.1-0.1c-0.1,0,0,0-0.1,0.1l0,0c0,0-0.1,0-0.1,0c0,0,0,0,0,0l0,0l0,0c0,0,0,0-0.1,0
									c0,0,0,0,0,0l0,0v0c0,0-0.1,0.1-0.1,0l0,0c0,0,0,0-0.1,0c0,0,0,0,0,0h0c0,0,0.1-0.1,0.1-0.1c0,0,0,0,0,0c0,0,0.1,0,0.1-0.1
									c0,0,0,0,0,0c0,0,0,0,0.1,0c0,0,0,0,0,0c0,0,0.1,0,0.1,0c0,0,0,0,0,0c0.1,0,0.1-0.1,0.1-0.1c0.1-0.1,0.2,0,0.2,0
									c0,0-0.1,0,0,0c0,0,0,0,0,0c0,0,0.1,0,0.1,0c0,0,0,0,0,0c0,0,0,0,0,0c0.1,0,0.1,0,0.1-0.1h0l0.1,0l0,0c0,0,0,0,0.1,0
									c0,0,0,0-0.1,0c0,0,0.1,0,0.1,0c0,0,0,0,0,0c0,0,0,0,0.1,0v0c0.1,0,0-0.1,0.1,0v0c0,0,0.1,0,0,0c0,0,0,0,0.1,0c0,0,0,0,0,0
									c0,0,0,0,0,0c0,0,0,0,0,0c0,0,0,0,0,0c0.1,0,0.1,0,0.2,0c0.1,0,0.2,0,0.2,0.1c0,0,0,0,0.1,0c0,0,0.1,0,0.1,0.1h0
									c0.1,0,0.1,0,0.2,0c0,0,0.1,0,0.1,0v0c0,0-0.1,0-0.1,0c0,0,0,0,0,0c-0.1,0-0.2,0-0.1,0h0c-0.1,0-0.1,0-0.2,0.1
									c-0.1,0-0.1,0-0.2,0.1c-0.1,0,0.1,0,0,0c-0.1,0-0.2,0.1-0.2,0.1c0,0,0,0,0,0c-0.1,0,0,0,0,0c0,0,0,0,0,0l0,0c0,0,0,0,0,0
									c0,0,0,0,0,0s0,0,0,0c0,0,0,0,0,0c0,0,0,0,0,0l0,0c0,0-0.1,0-0.1,0c0,0,0,0,0,0s0,0,0.1,0c0,0,0,0,0,0s0,0,0,0l0,0l0,0h0
									c0,0,0,0,0,0h0c0,0,0.1,0,0.1,0l0,0h0c0,0,0,0,0,0c0,0,0,0,0.1,0l0.1,0l0,0c0,0,0,0,0,0c0,0,0,0,0,0c0.1,0,0.1,0,0.2,0.1
									c0,0,0,0-0.1,0c0.1,0,0.1,0,0.1,0.1c0,0,0,0,0,0c0,0,0,0,0.1,0c-0.1,0,0,0-0.1,0c0,0,0.1,0,0.1,0c0,0,0,0,0,0l0,0
									c0,0,0,0,0,0v0c-0.1,0.1-0.2,0.1-0.3,0.2c0,0,0.1,0,0,0c0,0-0.1,0-0.1,0c0,0,0,0-0.1,0c0,0-0.1,0-0.1,0c0,0,0.1,0,0.1,0
									c-0.1,0-0.2,0-0.3,0c0-0.1-0.1,0-0.2,0c0,0,0,0,0,0c0,0,0,0,0,0c0,0-0.1,0.1-0.1,0c0,0-0.1,0,0,0.1c0,0,0,0.1-0.1,0.1
									c0,0,0,0.1,0,0.1v0c0,0,0,0.1,0,0.1c0,0,0,0,0,0c0,0,0,0.1,0,0.1c0,0,0,0,0,0c0,0.1,0,0.3,0.1,0.4l0,0c0,0.1,0,0.1,0,0.1
									l0.2,0.1l-0.4,0c0,0,0,0-0.1,0c-0.1-0.1-0.1-0.2-0.1-0.3c0-0.1-0.1-0.2-0.1-0.2c0,0,0,0,0,0c0,0,0,0,0,0v0c0,0,0,0-0.1,0
									c0,0-0.1,0-0.1,0c0,0.1-0.1,0.1-0.1,0.2c0,0,0,0,0,0l-0.1,0.1l0,0c0,0.1-0.2,0.1-0.2,0.2l0,0c0,0,0,0,0,0c0,0,0,0,0,0
									C7.8-9.9,7.8-9.8,7.7-9.7c0-0.1,0,0,0,0c0,0,0,0,0,0.1C7.5-9.6,7.5-9.5,7.4-9.5c0,0,0,0.1-0.1,0.1c0,0,0,0,0,0
									c0-0.1,0-0.2,0.1-0.3l0,0c0,0,0-0.1,0-0.1c0,0,0-0.1,0-0.1c0,0,0,0,0,0V-10c0,0,0,0,0,0c0-0.1,0,0,0,0l0,0c0,0,0,0,0,0
									c0,0,0,0,0,0l0-0.1v0c0,0,0,0,0-0.1c0,0,0-0.1,0-0.1l0,0c0-0.1,0-0.1,0-0.1c0,0,0,0,0,0c0-0.1,0,0,0-0.1c0,0,0,0,0,0
									c0,0,0,0,0-0.1s0-0.1,0-0.1c0,0,0,0,0,0c0,0,0,0,0,0s0,0,0,0h0l0,0l0,0l0,0c0,0,0,0,0,0c-0.1,0-0.1,0-0.1,0
									c0,0.1-0.1,0-0.1,0.1c-0.1,0-0.2,0-0.3,0h0c-0.1,0-0.1,0-0.1,0l0,0c-0.1,0-0.2,0-0.2,0.1c0,0,0,0,0,0c0,0,0,0,0,0
									c0,0,0,0,0,0l0,0c-0.1,0-0.2,0-0.2-0.1s0-0.2,0-0.2c0,0,0,0,0,0c0-0.1,0.1-0.2,0.1-0.2l0,0c0,0,0-0.1,0-0.1c0,0,0,0,0,0
									c0.1,0,0-0.1,0.1-0.1v0c0.1,0,0-0.1,0-0.1c0-0.1,0.1,0,0.1-0.1c0,0,0,0,0,0c0.1,0,0.1-0.1,0.1-0.1c0.1,0,0,0,0,0h0
									c0.1,0,0,0,0,0c0,0,0.1-0.1,0.1-0.1c0,0,0,0,0,0l0,0c0,0,0,0,0,0c0,0,0,0,0,0c0,0,0,0,0,0h0c0,0,0.1-0.1,0.1-0.1
									c0,0,0,0,0,0C7.1-11.4,7.1-11.4,7.3-11.4C7.2-11.4,7.2-11.4,7.3-11.4C7.2-11.4,7.2-11.4,7.3-11.4
									C7.2-11.4,7.2-11.4,7.3-11.4z M6.3-10.8C6.3-10.8,6.3-10.8,6.3-10.8L6.3-10.8C6.3-10.8,6.3-10.8,6.3-10.8z M6.3-10.7
									C6.3-10.7,6.3-10.7,6.3-10.7C6.3-10.7,6.3-10.7,6.3-10.7C6.3-10.7,6.3-10.7,6.3-10.7z M6.5-10.8L6.5-10.8
									C6.5-10.8,6.5-10.8,6.5-10.8C6.5-10.8,6.5-10.8,6.5-10.8L6.5-10.8z"/>
								<path d="M6.5-10.8L6.5-10.8C6.5-10.8,6.5-10.8,6.5-10.8C6.5-10.8,6.5-10.8,6.5-10.8L6.5-10.8z"/>
								<path d="M10-11.7L10-11.7L10-11.7L10-11.7z"/>
								<path d="M7.5-10.6L7.5-10.6L7.5-10.6z"/>
								<path d="M9.6-11.8C9.5-11.8,9.5-11.8,9.6-11.8C9.5-11.8,9.5-11.8,9.6-11.8z"/>
								<path d="M9.3-11.8L9.3-11.8C9.3-11.8,9.3-11.8,9.3-11.8z"/>
								<path d="M9.2-11.8L9.2-11.8L9.2-11.8L9.2-11.8z"/>
								<path d="M10.1-11L10.1-11C10.1-11,10.1-11,10.1-11z"/>
								<path d="M9.6-11.4C9.6-11.4,9.6-11.4,9.6-11.4C9.6-11.4,9.6-11.4,9.6-11.4z"/>
								<path d="M9.2-10.8L9.2-10.8L9.2-10.8z"/>
								<path d="M9.6-11.4C9.6-11.4,9.6-11.4,9.6-11.4C9.5-11.4,9.6-11.4,9.6-11.4z"/>
								<path d="M8.4-11.7C8.4-11.7,8.4-11.7,8.4-11.7L8.4-11.7L8.4-11.7z"/>
								<path d="M8.4-11.7L8.4-11.7L8.4-11.7z"/>
								<path d="M8.4-11.7L8.4-11.7C8.4-11.7,8.4-11.7,8.4-11.7z"/>
								<path d="M8.6-11.7L8.6-11.7L8.6-11.7z"/>
								<path d="M8.6-11.8L8.6-11.8C8.7-11.8,8.7-11.8,8.6-11.8C8.7-11.7,8.6-11.8,8.6-11.8z"/>
								<path d="M8.9-11.7C9-11.7,9-11.7,8.9-11.7L8.9-11.7C8.9-11.7,9-11.7,8.9-11.7z"/>
								<path d="M9.2-11.7C9.2-11.7,9.2-11.7,9.2-11.7C9.2-11.7,9.2-11.7,9.2-11.7z"/>
								<path d="M9.9-11.6L9.9-11.6C9.9-11.6,9.9-11.6,9.9-11.6z"/>
								<polygon points="9.9,-11.5 9.9,-11.5 9.9,-11.5 								"/>
								<polygon points="9.6,-11.5 9.7,-11.5 9.7,-11.5 								"/>
								<path d="M8.9-10.8L8.9-10.8C8.9-10.8,8.9-10.8,8.9-10.8z"/>
								<path d="M8.8-10.1C8.9-10.1,8.9-10.1,8.8-10.1C8.8-10.1,8.8-10.1,8.8-10.1z"/>
								<polygon points="7.7,-10.5 7.7,-10.4 7.7,-10.5 								"/>
							</g>
						</g>
					</g>
				</g>
			</g>
		</g>
	</g>
</pattern>
<pattern  id="SVGID_1_" xlink:href="#New_Pattern_Swatch_5" patternTransform="matrix(0.9782 0 0 0.9814 -178.8717 -154.865)">
</pattern>
<rect opacity="0.5" fill="url(#SVGID_1_)" width="143.7" height="144.2"/>
</svg>
