<?xml version="1.0" encoding="utf-8"?>
<!-- Generator: Adobe Illustrator 18.0.0, SVG Export Plug-In . SVG Version: 6.00 Build 0)  -->
<!DOCTYPE svg PUBLIC "-//W3C//DTD SVG 1.1//EN" "http://www.w3.org/Graphics/SVG/1.1/DTD/svg11.dtd">
<svg version="1.1" id="Layer_1" xmlns="http://www.w3.org/2000/svg" xmlns:xlink="http://www.w3.org/1999/xlink" x="0px" y="0px"
	 viewBox="0 0 144 144" enable-background="new 0 0 144 144" xml:space="preserve">
<g>
	<g>
		<g>
			<g>
				<g>
					<path fill="#202020" d="M73.7,99.8C73.7,99.8,73.7,99.8,73.7,99.8L73.7,99.8L73.7,99.8z"/>
					<path fill="#202020" d="M73.7,99.8C73.7,99.9,73.7,99.9,73.7,99.8C73.7,99.8,73.7,99.8,73.7,99.8
						C73.7,99.8,73.7,99.8,73.7,99.8C73.7,99.8,73.7,99.8,73.7,99.8C73.7,99.8,73.7,99.8,73.7,99.8C73.7,99.8,73.7,99.8,73.7,99.8z"
						/>
					<path fill="#202020" d="M74,100.5L74,100.5L74,100.5z"/>
					<path fill="#202020" d="M74.5,100.7L74.5,100.7L74.5,100.7z"/>
					<path fill="#202020" d="M74.6,100.8L74.6,100.8L74.6,100.8z"/>
					<path fill="#202020" d="M74,100.5L74,100.5C74,100.6,74,100.6,74,100.5z"/>
					<polygon fill="#202020" points="73.8,99.9 73.7,99.9 73.8,99.9 					"/>
					<path fill="#202020" d="M73.8,100.4L73.8,100.4C73.8,100.4,73.8,100.4,73.8,100.4L73.8,100.4z"/>
					<path fill="#202020" d="M73.7,100.3C73.7,100.3,73.7,100.3,73.7,100.3C73.7,100.3,73.7,100.3,73.7,100.3L73.7,100.3z"/>
					<path fill="#202020" d="M73.6,100L73.6,100L73.6,100z"/>
					<path fill="#202020" d="M73.9,100.5L73.9,100.5L73.9,100.5z"/>
					<path fill="#202020" d="M73.8,99.6L73.8,99.6L73.8,99.6z"/>
					<polygon fill="#202020" points="73.6,99.8 73.6,99.8 73.6,99.8 					"/>
					<path fill="#202020" d="M74.7,100.8L74.7,100.8C74.7,100.8,74.7,100.8,74.7,100.8z"/>
					<path fill="#202020" d="M75.5,99.6C75.5,99.6,75.5,99.6,75.5,99.6C75.4,99.6,75.5,99.6,75.5,99.6z"/>
					<path fill="#202020" d="M73.8,99.9L73.8,99.9L73.8,99.9z"/>
					<polygon fill="#202020" points="75.4,99.6 75.4,99.6 75.4,99.6 					"/>
					<path fill="#202020" d="M75.1,100.6C75.1,100.6,75.1,100.6,75.1,100.6C75.1,100.6,75.1,100.6,75.1,100.6z"/>
					<path fill="#202020" d="M74.8,100.7L74.8,100.7L74.8,100.7z"/>
					<path fill="#202020" d="M75.2,100.5C75.2,100.5,75.2,100.5,75.2,100.5L75.2,100.5C75.2,100.5,75.2,100.5,75.2,100.5z"/>
					<polygon fill="#202020" points="75.3,100.4 75.3,100.4 75.3,100.4 					"/>
					<path fill="#202020" d="M74,99.3L74,99.3C74,99.3,73.9,99.3,74,99.3z"/>
					<path fill="#202020" d="M73.7,99.9C73.7,99.9,73.8,99.9,73.7,99.9L73.7,99.9L73.7,99.9z"/>
					<path fill="#202020" d="M75,100.3L75,100.3C75,100.3,75,100.3,75,100.3z"/>
					<path fill="#202020" d="M74.7,99.1L74.7,99.1L74.7,99.1z"/>
					<path fill="#202020" d="M75.1,100.3C75.1,100.3,75.1,100.3,75.1,100.3L75.1,100.3L75.1,100.3z"/>
					<path fill="#202020" d="M73.9,99.3L73.9,99.3L73.9,99.3z"/>
					<path fill="#202020" d="M73.9,99.4C73.9,99.4,73.9,99.4,73.9,99.4C73.9,99.4,73.9,99.4,73.9,99.4
						C73.9,99.4,73.9,99.4,73.9,99.4C73.9,99.4,73.9,99.4,73.9,99.4c0-0.1,0-0.1,0-0.1l0,0c0,0,0,0,0,0c0,0,0,0,0,0c0,0,0,0,0,0l0,0
						c0,0,0,0,0,0c0,0,0-0.1,0-0.1c0,0,0,0,0,0l0,0c0.1,0,0,0,0,0c0,0,0,0,0,0c0,0,0,0,0,0c0-0.1,0.1,0,0.1,0c0,0,0-0.1,0-0.1l0,0
						c0,0,0-0.1,0-0.1c0,0,0,0,0,0c0,0,0,0,0,0l0,0c0,0,0-0.1,0.1-0.1c0,0,0,0,0,0c0,0,0.1,0,0.1,0l0,0c0,0,0,0,0,0c0,0,0,0,0,0
						c0,0,0,0,0,0c0,0,0.1-0.1,0.1,0l0,0c0,0,0-0.1,0,0l0,0c0,0,0.1,0,0.1,0c0,0,0,0,0.1,0c0,0,0,0,0,0.1c0,0,0,0,0,0l0,0l0,0l0,0
						l0,0c0,0,0,0,0,0c0,0,0,0,0,0.1l0,0c0,0,0,0,0,0c0,0,0,0,0,0c0,0,0,0,0,0c0,0,0,0,0,0l0,0c0,0,0.1,0,0.1,0c0,0,0,0,0,0l0,0
						c0,0,0,0,0,0c0,0,0,0,0,0l0,0c0,0,0,0,0,0c0,0,0,0,0,0l0,0c0,0,0,0,0.1,0c0,0,0,0,0,0c0,0,0,0.1,0,0.1c0,0,0,0,0,0c0,0,0,0,0,0
						c0,0,0,0,0.1,0c0,0,0,0,0,0c0,0,0,0,0,0l0,0c0.1,0,0,0.1,0,0.1l0,0l0,0c0,0,0,0,0,0c0.1,0,0,0.1,0,0.1c-0.1,0,0,0.1,0,0.1l0,0
						c0,0,0,0,0,0c0,0,0,0,0,0c0,0.1,0,0.1-0.1,0.2c0,0,0.1,0,0,0.1l0,0c0,0.1,0,0.1,0,0.2c0,0,0,0,0,0c0,0,0,0,0,0c0,0,0,0,0,0
						c0,0,0,0,0,0l0,0c0,0,0,0,0,0c0,0,0,0,0,0c0,0,0,0,0,0c0,0-0.1,0,0,0c0,0,0,0,0,0c0,0,0,0,0,0c-0.1,0,0,0.1-0.1,0
						c0,0,0,0.1-0.1,0.1c0,0,0,0,0-0.1c0,0,0,0.1-0.1,0.1c0,0,0,0,0,0c0,0-0.1,0-0.1,0.1l0,0c0,0,0,0,0,0l0,0c0,0,0,0.1,0,0.1
						c0-0.1,0,0,0-0.1c0,0,0,0,0,0c0,0,0,0,0,0c0,0,0,0,0,0c0,0,0,0,0,0c0,0,0,0,0,0c0,0,0,0,0,0c0,0,0,0.1-0.1,0c0,0,0,0,0-0.1l0,0
						l0,0c0,0,0,0,0,0l0,0l0,0l0,0c0,0,0,0.1,0,0c0,0,0,0,0,0l0,0c0,0,0,0,0,0c0,0,0,0,0-0.1c0,0,0,0-0.1,0c0,0,0,0,0,0l0,0
						c0,0,0,0,0,0c0,0,0,0.1,0,0c0,0,0,0,0,0c0,0-0.1,0-0.1,0c0,0,0,0,0,0c0,0-0.1,0-0.1,0l0,0c0,0,0,0,0,0c0,0,0,0,0,0
						c0,0,0,0-0.1,0l0,0c0,0,0,0,0,0c0,0,0,0,0,0c0-0.1-0.1,0-0.1-0.1l0,0l0,0c0,0,0,0,0,0c0,0,0,0,0,0c0,0,0,0,0,0l0,0c0,0,0,0,0,0
						l0,0c0,0,0,0,0,0c0,0,0,0,0,0c0,0-0.1,0,0,0c0,0,0,0,0,0c0,0,0,0,0,0l0,0l0,0l0,0c-0.1,0,0,0-0.1,0c0.1,0,0,0,0.1,0
						c0,0,0,0,0,0c0,0,0,0,0,0c0,0,0,0,0,0c0,0,0,0,0,0c0,0,0-0.1,0-0.1c0,0-0.1,0-0.1,0c0,0,0,0,0,0c0,0,0,0,0,0c0,0,0,0,0,0
						c0,0,0,0,0,0c0,0,0,0,0,0c0,0,0,0,0,0c0,0,0,0,0,0c0,0,0,0-0.1,0l0,0c0,0,0,0,0,0c0,0,0,0,0,0l0,0c-0.1,0,0,0,0,0.1l0,0l0,0
						c0,0,0,0,0,0c0,0,0,0,0,0l0,0l0,0c0,0,0,0,0,0c0,0,0,0,0,0.1l0,0c0,0,0,0,0.1,0l-0.1,0l0,0c0,0,0,0,0,0c0,0,0,0,0,0
						c0,0,0,0,0,0.1c0,0,0,0,0,0c0,0,0,0,0,0c0,0,0,0,0,0c0,0,0,0,0,0c0,0,0,0,0.1,0c0,0,0,0,0,0.1l0,0c0,0,0,0,0.1,0c0,0,0,0,0,0
						l0,0c0,0,0,0,0,0l0,0c0,0,0.1,0,0.1,0c0,0,0-0.1,0.1-0.1c0,0,0,0,0,0c0,0,0,0,0,0l0,0c0,0,0,0,0,0c0,0,0,0,0,0c0,0,0,0,0,0
						c0,0,0,0,0,0c0,0,0,0,0,0c0,0,0,0,0,0c0,0,0,0,0,0c0,0,0,0,0,0c0,0,0,0,0.1,0l0,0l0,0l0,0l0,0c0,0,0.1,0.1,0.1,0.1l0,0
						c0,0,0,0,0.1,0c0,0,0,0,0,0c0,0,0,0,0,0c0,0,0,0,0,0c0,0,0,0,0,0c0,0,0,0,0,0l0,0c0,0,0,0,0,0l0,0c0,0.1,0.1-0.1,0.1,0
						c0,0,0,0,0,0c0,0,0,0.1,0,0.1c0,0,0,0,0.1,0c0,0,0,0,0-0.1c0,0,0,0.1,0,0.1c0,0,0,0,0,0c0,0,0,0,0,0l0,0c0,0,0,0,0,0
						c0,0,0,0,0,0c0,0,0,0,0.1,0c0,0,0,0,0,0c0,0,0,0,0,0c0,0,0,0,0,0c0,0,0,0,0,0c0,0,0,0,0.1,0l0,0c0,0,0,0,0,0l0,0c0,0,0,0,0,0
						c0,0,0,0,0-0.1c0,0,0,0,0,0c0,0,0,0,0,0c0,0,0,0,0,0l0,0c0,0,0,0,0,0c0,0,0,0,0,0c0,0,0,0,0,0c0,0,0,0,0,0l0,0c0,0,0,0,0,0
						c0,0,0,0,0,0c0,0,0,0,0.1,0c0,0,0,0,0,0c0,0,0,0,0.1,0c0,0,0,0,0,0l0,0l0,0c0,0,0,0,0,0c0,0,0,0,0,0c0,0,0,0,0,0l0,0.1
						c0,0,0-0.1,0.1-0.1l0,0c0,0,0,0,0,0c0,0,0,0,0,0c0,0,0,0,0-0.1l0,0c0,0,0-0.1,0-0.1c0,0,0,0,0,0.1c0,0,0,0,0,0c0,0,0,0,0,0
						c0,0,0,0,0,0l0,0c0,0,0,0,0,0c0.1,0,0.1-0.1,0.1,0c0,0,0,0,0-0.1c0,0,0,0,0,0c0,0,0,0,0-0.1c0,0,0,0,0,0c0.1,0,0,0,0.1,0l0,0
						c0,0,0,0,0-0.1l0,0c0,0,0-0.1,0-0.1c0,0,0,0,0,0c0,0,0,0,0,0c0,0,0,0,0.1,0l0,0c0,0,0,0,0,0l0,0c0,0,0,0,0-0.1l0,0c0,0,0,0,0,0
						l0,0c0,0,0-0.1,0-0.1c0,0,0,0,0.1,0.1c0,0,0,0,0-0.1c0,0,0,0,0,0c0,0,0,0,0-0.1c0.1,0,0-0.1,0.1-0.1c0,0,0-0.1,0-0.1
						c-0.1,0,0,0-0.1,0c0,0,0,0,0,0l0,0c0,0,0,0,0,0c0,0,0,0,0,0c0,0,0,0,0,0l0,0c0,0,0,0,0-0.1l0,0c0,0,0-0.1-0.1-0.1c0,0,0,0,0,0
						c0-0.1-0.1-0.1-0.1-0.1l0,0c0,0,0,0,0,0c0,0,0,0,0,0c0,0,0,0,0,0l0,0c0-0.1-0.1,0-0.1,0c0,0,0-0.1,0-0.1l0,0c0,0-0.1,0-0.1,0
						c0-0.1-0.1-0.1-0.1-0.1c0,0,0,0,0,0c0,0,0,0,0,0l0,0c0,0,0,0,0-0.1l0,0.1c0-0.1-0.1,0-0.1-0.1c0,0,0,0,0,0l0,0c0,0,0,0-0.1,0
						l0,0c0,0,0,0.1-0.1,0.1l0,0c0,0-0.1,0-0.1,0c0,0,0,0,0,0c0,0-0.1,0-0.1,0c0,0,0,0-0.1,0l0,0c0,0,0,0.1,0,0.1c0,0,0,0,0,0
						c0,0,0,0,0,0l0,0c0,0,0,0,0,0c0,0,0,0,0,0c0,0,0,0,0,0c0,0,0,0,0,0c0,0,0,0.1-0.1,0c0,0,0,0,0,0c0,0,0,0,0,0c0,0,0,0,0-0.1
						c0,0,0,0.1,0,0.1l0,0l0,0c0,0,0,0,0,0c0,0,0,0,0,0c0,0,0,0,0,0c0,0,0,0,0,0c0,0,0,0,0,0l0,0l0,0l0,0c0,0,0,0,0,0c0,0,0,0,0,0
						c0,0-0.1,0-0.1-0.1c0,0-0.1,0.1,0,0.1c0,0,0,0,0,0c0,0,0,0,0,0c0,0,0,0,0,0.1c0,0,0,0,0,0l0,0c-0.1,0,0,0.1-0.1,0.1
						c0,0,0,0,0,0c-0.1,0-0.1,0.2-0.1,0.2c0,0,0,0,0,0l0,0l0,0c0,0-0.1,0,0,0.1l0,0c0,0,0,0,0,0c0,0,0,0,0,0l0,0l0,0
						c0,0-0.1,0-0.1,0c0,0,0,0,0.1,0c0,0,0,0,0,0l0,0c0.1,0,0.1,0,0.1,0l0,0l0,0l0,0c0,0,0,0,0,0c0,0,0,0,0,0l0,0c0,0,0,0,0.1,0
						c0,0,0,0-0.1,0c0,0,0,0,0,0c0,0,0,0,0,0c0,0,0,0,0,0c0,0,0,0,0,0c0,0,0,0,0,0c0.1,0,0,0,0.1,0c0,0,0,0,0-0.1L73.9,99.4
						C73.8,99.5,73.8,99.5,73.9,99.4c-0.1,0.1-0.1,0-0.1,0C73.8,99.5,73.8,99.5,73.9,99.4C73.8,99.5,73.9,99.5,73.9,99.4
						C73.9,99.5,73.8,99.4,73.9,99.4C73.8,99.4,73.9,99.4,73.9,99.4C73.9,99.4,73.9,99.4,73.9,99.4C73.9,99.4,73.9,99.4,73.9,99.4z
						 M74.2,99.1L74.2,99.1L74.2,99.1C74.2,99.1,74.2,99.1,74.2,99.1z M74.2,99.1C74.2,99.1,74.2,99.1,74.2,99.1
						C74.2,99.1,74.2,99.1,74.2,99.1C74.2,99.1,74.2,99.1,74.2,99.1z M74,98.9C74,98.9,74,98.9,74,98.9C74,98.9,74,98.9,74,98.9
						L74,98.9C74,98.9,74,98.9,74,98.9z"/>
					<polygon fill="#202020" points="74,99 74,99 74,99 74,99 					"/>
					<polygon fill="#202020" points="74,100.5 74,100.5 74,100.5 					"/>
					<polygon fill="#202020" points="74.7,99.1 74.7,99.1 74.7,99.1 					"/>
					<path fill="#202020" d="M73.9,100.3L73.9,100.3L73.9,100.3z"/>
					<path fill="#202020" d="M73.8,100.2L73.8,100.2C73.8,100.2,73.8,100.2,73.8,100.2z"/>
					<path fill="#202020" d="M73.8,100.2C73.8,100.2,73.8,100.2,73.8,100.2L73.8,100.2L73.8,100.2z"/>
					<path fill="#202020" d="M74.7,100.5L74.7,100.5C74.8,100.5,74.7,100.5,74.7,100.5z"/>
					<path fill="#202020" d="M74.4,100.6C74.4,100.6,74.4,100.6,74.4,100.6C74.4,100.6,74.4,100.6,74.4,100.6z"/>
					<polygon fill="#202020" points="75,100.3 75,100.3 75,100.3 					"/>
					<path fill="#202020" d="M74.5,100.6C74.5,100.6,74.4,100.6,74.5,100.6C74.4,100.6,74.5,100.6,74.5,100.6z"/>
					<polygon fill="#202020" points="73.8,99.9 73.8,99.9 73.7,99.9 					"/>
					<path fill="#202020" d="M73.7,99.9L73.7,99.9L73.7,99.9z"/>
					<path fill="#202020" d="M73.7,99.9L73.7,99.9C73.7,99.9,73.7,99.9,73.7,99.9z"/>
					<path fill="#202020" d="M73.8,100L73.8,100C73.8,100,73.8,100,73.8,100z"/>
					<path fill="#202020" d="M73.8,100C73.8,100,73.8,100,73.8,100L73.8,100C73.8,100,73.7,100,73.8,100z"/>
					<path fill="#202020" d="M73.7,100.2L73.7,100.2C73.7,100.1,73.6,100.1,73.7,100.2C73.6,100.2,73.7,100.1,73.7,100.2z"/>
					<path fill="#202020" d="M73.7,100.2C73.7,100.2,73.7,100.2,73.7,100.2C73.7,100.3,73.7,100.3,73.7,100.2z"/>
					<path fill="#202020" d="M74.1,100.7L74.1,100.7C74.1,100.7,74.1,100.7,74.1,100.7z"/>
					<polygon fill="#202020" points="74.3,100.6 74.3,100.5 74.3,100.6 					"/>
					<polygon fill="#202020" points="74.3,100.8 74.3,100.8 74.3,100.8 					"/>
					<path fill="#202020" d="M75.3,100.4L75.3,100.4C75.3,100.4,75.3,100.4,75.3,100.4z"/>
					<path fill="#202020" d="M75.5,100C75.5,100,75.5,100,75.5,100C75.5,100,75.5,100,75.5,100z"/>
					<polygon fill="#202020" points="74.9,98.8 74.9,98.8 74.9,98.8 					"/>
				</g>
			</g>
		</g>
	</g>
</g>
<path d="M67,103.2c-1,0-1,2,0,2C69,105.2,69,103.2,67,103.2z"/>
<path d="M87,108c-1,0-1,2,0,2C89,110,89,108,87,108z"/>
<path d="M83,96.8h-0.2c-1.3,0-1.3,2,0,2H83C84.3,98.8,84.3,96.8,83,96.8z"/>
<g>
	<g>
		<g>
			<g>
				<g>
					<g>
						<g>
							<path fill="#202020" d="M111.1,36.7c0-0.1-0.2-0.1-0.2,0.2l0.2,0.2L111.1,36.7z"/>
							<path fill="#202020" d="M110.4,38.5c0.1,0.3,0.2,0.8,0.4,0.6c-0.2-0.4-0.1-0.4-0.3-0.8c0-0.3,0.2-0.5,0.2-0.4
								c0-0.1,0.1-0.4,0-0.6c-0.2,0.3-0.3,0.8-0.3,1.3C110.5,38.6,110.4,38.5,110.4,38.5z"/>
							<path fill="#202020" d="M105.1,65.6l0.1-0.2C105.1,65.5,105.1,65.5,105.1,65.6z"/>
							<path fill="#202020" d="M101.9,82.4c0-0.1,0-0.2,0-0.2C101.9,82.3,101.9,82.4,101.9,82.4z"/>
							<path fill="#202020" d="M101.1,85.2c0-0.1,0-0.1,0-0.2C101.1,85.1,101.1,85.2,101.1,85.2z"/>
							<path fill="#202020" d="M105.1,65.6l-0.2,0.4C105,66.1,105,65.8,105.1,65.6z"/>
							<path fill="#202020" d="M110.3,42.3c0-0.1,0-0.2,0-0.3L110.3,42.3L110.3,42.3z"/>
							<path fill="#202020" d="M106.2,58.1l0-0.1c0,0,0-0.1-0.1-0.1L106.2,58.1z"/>
							<path fill="#202020" d="M107.2,52.4c0,0.1,0.2,0.2,0.2,0.3c-0.1-0.1-0.1-0.2-0.1-0.3C107.4,52.4,107.3,52.4,107.2,52.4z"/>
							<path fill="#202020" d="M109.2,43.4l0-0.2C109.2,43.3,109.2,43.4,109.2,43.4z"/>
							<path fill="#202020" d="M105.5,62.2C105.4,62.2,105.4,62.2,105.5,62.2C105.4,62.2,105.4,62.2,105.5,62.2z"/>
							<path fill="#202020" d="M34,43.3C34.1,43.3,34.1,43.3,34,43.3C34,43.3,34,43.3,34,43.3z"/>
							<path fill="#202020" d="M33.5,36.6L33.5,36.6c0.1,0.1,0.1,0.1,0.1,0.1L33.5,36.6z"/>
							<path fill="#202020" d="M99.9,90.4C99.9,90.4,99.9,90.4,99.9,90.4C99.9,90.3,99.9,90.4,99.9,90.4z"/>
							<path fill="#202020" d="M66.9,113.6c0.5,0.3-0.9,0.1-0.1,0.4C66.7,114,67.5,113.9,66.9,113.6z"/>
							<path fill="#202020" d="M110.2,42.5l0,0.2C110.2,42.6,110.2,42.5,110.2,42.5z"/>
							<path fill="#202020" d="M66.7,114L66.7,114L66.7,114C66.8,114.1,66.8,114.1,66.7,114z"/>
							<path fill="#202020" d="M97.8,102.6c0,0,0.1-0.1,0.1-0.1C97.9,102.5,97.9,102.5,97.8,102.6z"/>
							<path fill="#202020" d="M99.8,93.6l-0.1,0.2C99.7,93.7,99.7,93.7,99.8,93.6z"/>
							<path fill="#202020" d="M96.6,106.4c-0.1,0.1-0.2,0.1-0.3,0.2c0,0,0,0,0.1,0C96.5,106.5,96.5,106.4,96.6,106.4z"/>
							<path fill="#202020" d="M92.5,109C92.5,109,92.6,109,92.5,109c0.1,0,0.2-0.1,0.2-0.1L92.5,109z"/>
							<path fill="#202020" d="M37.5,58c0-0.1,0.1-0.2,0.1-0.3C37.5,57.8,37.3,57.2,37.5,58z"/>
							<path fill="#202020" d="M110.1,42.3c0,0,0.1,0.1,0.1,0.2C110.2,42.4,110.2,42.3,110.1,42.3C110.2,42.3,110.2,42.3,110.1,42.3
								z"/>
							<path fill="#202020" d="M97.4,107.8l-0.7,0.4C96.9,108.1,97.1,108,97.4,107.8z"/>
							<path fill="#202020" d="M45.5,92.7l-0.1-0.2C45.5,92.6,45.5,92.6,45.5,92.7z"/>
							<path fill="#202020" d="M94.7,109.5c-0.2,0-0.3,0.1-0.5,0.1c0,0,0,0.1-0.1,0.1L94.7,109.5z"/>
							<path fill="#202020" d="M37.6,57.7L37.6,57.7L37.6,57.7z"/>
							<path fill="#202020" d="M36,52.8c0.2,0.7,0.3,0.3,0.5,0.4c0.3,0.9-0.1,0.4-0.2,0.8c0.2,0.5,0.5,0.9,0.6,1.3c0,0,0,0.1-0.1,0
								c0.3,0.5,0.4,1.7,0.8,2.3c0,0.1,0,0.1,0,0.1c0.1-0.1,0.2-0.2,0.3-0.2c0.1,0.3,0.3,0.6,0.2,0.7c0-0.2-0.1-0.2-0.2-0.3l0.2,0.3
								c-0.2,0.4-0.2-0.5-0.4-0.4c0.2,0.7,0.6,1.4,0.7,1.9C38.2,60,38,58.7,38,59.4l-0.1-0.8c-0.2,0.7-0.1-0.5-0.4,0.2
								c0.2,1.1,0.4,1.1,0.6,2.2c0.2,0.2,0.2-0.1,0.4,0.1c0.6,1.4-0.3,1.3,0.2,2.3c0.2,0.2,0.5,0.3,0.6,1.1l-0.3-0.2
								c0.2,1,0.5,0.5,0.6,1.6c-0.1-0.2-0.3-0.8-0.3-0.6c-0.1,0.7,0.3,0.5,0.4,1l-0.2,0.2c0.3,1.1,0.7,2.2,1,3.4
								c-0.1-0.1-0.2-0.2-0.2,0.1c0.5,1.5,0.7,3.2,0.9,4.7l0.3,0.5c0,0.1,0,0.3-0.1,0.1c0.1,0.6,0.1,0,0.3,0.3
								c0.1,0.3,0,0.5-0.1,0.3c0.4,1,1,2.8,1.1,3.9l-0.1-0.2c0.1,0.8,0.6,0.8,0.6,1.6L43,80.8c0.3,1.8,1,3.7,1,5.2
								c0.4,0.2,0.3,1.8,0.7,1.8c0,1.1-0.1,0.8,0.1,2.2c0.1,0.4,0.4,0.5,0.5,1l-0.2,0.1l0.4,0.6l-0.2,0.4l0.2,0.4
								c0-0.2,0-0.4,0.1-0.4c0.3,0.7,0.2,1.7,0.1,1.8l0.6,1.6c-0.1,0-0.2-0.3-0.3-0.5c0.4,0.8-0.2,0.2,0.2,1c0-0.1,0.1,0,0.2,0
								c0,0.4,0.2,1.3,0.4,2l-0.2-0.1c0.2,1.2,0.7,2.5,1,3.9c0-0.5,0.2-0.5,0.4-0.1l-0.2,0.2c0.2,0.2,0-0.4,0.3,0.1
								c0.1,0.5-0.2,0.4-0.3,0.1l0.2,0.6c-0.1,0.1-0.1-0.1-0.2-0.1c0.2,0.2,0,1.1,0.3,1.4l-0.1,0.1c0.2,0.7,0.3,1.2,0.4,1.6l0.1,0.4
								l0.1,0.3c0,0.1,0,0.1,0,0.2l0.1,0.1c0.1,0.1,0.3,0.3,0.5,0.4c0.1,0.1,0.2,0.2,0.3,0.3c0.1-0.1,0.5,0.2,0.8,0.3
								c0.6,0.6,1.3,1.3,2.2,1.8c0.7,0.3,0.3,0,0.6,0.1c-0.1,0.2,0.8,0.7,0.3,0.5c1.1,0.6,1.4,0.8,2.8,1.4c-0.1-0.1-0.3-0.3-0.2-0.3
								c0.3,0.1,0.5,0.4,0.5,0.4l-0.1,0c1.7,0.6,3.5,2.2,5,2.3l-0.1,0l1.4,0.2c0.6,0.2-0.4,0,0,0.3c0.8,0.1,1.4,0.2,1.9,0.4
								c0.6,0.1,1.1,0.3,1.7,0.3c0.9,0.7,3.5,0.5,4.8,0.9l-0.1-0.1c0.4-0.1,0.4,0.1,0.7,0.1c0-0.1-0.4-0.1-0.2-0.2
								c2.9,0,6.1,0,9.1-0.5c1.1-0.2,0.5-0.8,1.9-0.8l-0.3,0.3c1.1-0.4,2.1-0.8,3.2-1.1c1.1-0.4,2.1-0.8,3.1-1.3
								c-0.1,0.1-0.1,0.2-0.3,0.3c0.5,0,1.6-0.7,1.5-0.8c0.3-0.1,0.1,0.1,0.3,0.1c0.5-0.1,0.9-0.7,1.2-0.7c0,0-0.1,0.1-0.2,0.2
								c0.2-0.2,1.2-0.6,0.9-0.7c0.8-0.3,1.3-0.8,1.9-1.1c0.2-0.4,1.3-0.6,1.2-1c0.1,0.3,1.3-0.6,1.7-1c-0.1,0.2,0.4-0.2,0.3,0.1
								c0.5-0.3,0.9-0.7,0.7-0.8c0.2-0.1,0.4-0.2,0.6-0.3c0.1-0.2,0.1-0.4,0.2-0.7c0-0.3,0-0.3,0.1-0.5c0-0.1,0-0.2,0-0.4
								c0-0.5,0-0.9,0.3-1.2c0.1-1.7,0.3-3.3,0.5-4.8c0.3,0.1-0.3,1.7,0.1,1.7c0.1-1.5,0-2.3,0.3-3.8c0.1-0.4,0.1,0.2,0.1,0.4
								c0.1-1.5,0.5-2.8,0.6-4.1c0,0,0,0.2,0,0.3c0-0.3,0.2-0.6,0-0.6l0,0.3c-0.3,0.4-0.3-1.1-0.4-1.1c0.3,0.5,0.3-1.2,0.7-0.5
								c0-0.2,0-0.4-0.1-0.4c0.1-0.2,0.1-0.3,0.2,0c0.1-0.9-0.1-0.6,0-1.4c0.1,0,0.1,0.2,0.1,0.3c-0.1-0.4-0.1-0.9,0.1-1.6
								c0,0,0.1,0,0.1,0.2c0.2-1.2,0-2.1,0.4-3.4c0.2,0.4,0.2-0.4,0.5-0.4l0-0.7l-0.2,0.3c0.1-0.6,0-1.2,0.2-1.7l0,0.5l0.2-1.2
								l-0.2,0.6c0-0.6-0.3,0-0.1-0.8c0,0.2,0.1-0.6,0.3-0.9l0,0c0-0.3-0.1-0.6,0.1-1.1c0.1-0.1,0.3,0.1,0.3,0.1
								c-0.2-0.3,0.2-1.5,0-1.9c0,0.1,0.2,0.2,0.2,0.1l-0.1-0.3c0.1-0.3,0.1-0.3,0.2-0.2c0.2-0.9-0.4,0.2-0.1-0.8c0,0.1,0,0,0,0.2
								c0.3-1,0.2-2,0.5-2.9c0.3-0.2-0.1,0.8,0.2,0.6c0.2-1.4,0.2-2.9,0.5-4.2l-0.1,0.2c-0.3-0.2,0.4-0.9,0.3-1.6
								c0,0.2,0.2,0.2,0.1,0.2c0.2-0.9,0.2-1.9,0.4-3.2l0.1,0.2c0.2-0.5,0.3-1.4,0.4-1.9c-0.1-0.2,0-0.5-0.2-0.3
								c0.9-1.7,0.3-3.4,1.1-4.9c0,0.2,0,0.5,0,0.3l0.2-1.3c-0.2,0.1-0.1,0.2-0.3,0.4c-0.1-0.2-0.1-0.6,0-0.9c0,0.6,0.3,0,0.4-0.2
								c-0.1,0-0.1-0.1-0.1-0.1c0.4-0.6-0.3-0.2,0.1-1.1l0.1,0.1c0-0.4,0-0.7,0.1-1.1c0.2-0.1,0,0.4,0.2,0.4
								c0.1-0.5-0.2-1.1,0.1-1.6c0,0.2,0,0.6,0,0.8c0.3-0.5,0.3-0.6,0.4-0.9l0,0l0.3-0.9l-0.1,0.2c-0.4-0.8,0.2-1.4,0-2.4
								c0.1,0.9,0.1,0.2,0.3,0.3c0.1-0.2,0.2-0.6,0.3-0.5c-0.1-0.5,0.3-0.7,0.1-1.3c0.1,0,0.1-0.5,0.2-0.3c0-0.6-0.1,0.1-0.2,0
								c-0.1-0.9,0.6-2,0.6-3.3c0.1-1.1-0.1-1.3-0.1-2.3c0.2-0.3,0.2,0.3,0.2,0.3c0.2-0.5,0.3-0.9,0.3-1.5c0,0.1,0.1,0,0.2-0.1
								c0.1-0.4-0.2-0.3,0-0.8c0.1,0.1,0.2,0.2,0.2,0.5c0-0.5,0-1,0-1.5c0.1-0.1,0.1,0.3,0.2,0.5c0-0.6,0.2-1.5,0-1.7l-0.1,0.3
								c0-0.2,0.2-0.1,0.2,0.1c0.1,0.5-0.2,0.7-0.3,0.7l0-0.4c-0.5,0.3-0.2,1.4-0.3,2.1l-0.2-0.3l0.1,0.8c-0.1,0.1-0.3,0.2-0.3-0.1
								c-0.2,0.5,0,0.5-0.2,0.9c0,0,0,0,0,0l0,0.5c0-0.1-0.2,0-0.1-0.3c-0.3,0.9,0,1.5-0.3,1.8l0-0.1c-0.1,1.3,0.2,0.2,0.3,1.1
								l-0.6,0.5l0.2,0.2c0,0.1-0.1,0.4-0.2,0.3c0.1,0.5,0.1-0.1,0.2,0.2c-0.3,0.6-0.2,1.7-0.6,1.8c0.1,0.3,0.2-0.6,0.2,0.1
								c-0.4,0.1-0.1,0.8-0.3,1.3c-0.2-0.2,0-0.7-0.2-0.2c0.3,0.4-0.3,1.1-0.3,1.6c0.2,0.1-0.1,1.1-0.1,1.9
								c-0.1-0.1-0.4,1.5-0.6,2.2l0,0c0.2,0.2,0,0.9,0,1.5c-0.1,0-0.2-0.2-0.2-0.5l-0.1,0.5c0.1,0.1,0.1,0.3,0,0.7l-0.2-0.2
								c-0.1,0.7,0,1.4-0.3,2.3c0.2,0.1,0.6-0.6,0.6,0.3c-0.1,0-0.3,0-0.3-0.2c0,0.1,0,0.3,0,0.5L106,61c-0.1,0.4,0.1,0.2,0,0.6
								c-0.1,0-0.1,0.2-0.2,0.2c0-0.1,0.1-0.3,0.1-0.4c-0.1,0.4-0.3,0.8-0.4,0.9c0.1,0,0.2,0,0.2,0.3c-0.1,0.7-0.2,0.2-0.4,0.6
								c0.1,0.2-0.1,0.6,0.1,0.7c0,0.2-0.1,0.2-0.2,0.3c0,0.4-0.3,1.7,0,1.3l0-0.1c0,0,0,0,0,0.1l0,0l0,0c0,1.2-0.6,2.4-0.7,3.6
								l-0.1,0c0,0.7-0.2,1.6-0.2,2.1c0,0.2-0.2,0.5-0.3,0.4c0,0.5,0,0.6-0.2,1.4c0-0.6-0.1,0.2,0-0.6c-0.2,0.7-0.3,0.8-0.3,1.6
								c-0.1-0.3-0.3,0.5-0.3,0.8l0.2-0.5c0,0.4-0.1,0.7-0.2,1L103,75c-0.5,1.4,0,2.7-0.7,3.7c0.1,0.4,0.3-0.8,0.4-0.4
								c-0.2,0.6-0.6,1.3-0.6,1.5c-0.3,0.9,0.2,0.9-0.1,1.8c0.1-0.1,0.3-0.2,0.3,0.5c-0.1,0.7-0.5,0.7-0.5,0.3
								c0-0.2,0.1-0.2,0.1-0.2c0-0.2,0-0.5-0.1-0.3l0.1,0.1c-0.1,0.3-0.3,1.2-0.4,1c0,0.5,0.1,0.2,0.2-0.1c-0.3,0.8-0.2,1.3-0.5,2.2
								c0.1-0.1,0.2-0.2,0.2-0.1c-0.3,1.3,0.1,0.6-0.1,1.5c-0.2,0.5-0.3-0.2-0.3,0.7c-0.2,0.5-0.2,0.1-0.3-0.2
								c0,0.8-0.4,1.5-0.5,1.9l0-0.4c0,0.3,0,0.5-0.1,0.7l0.2-0.2c-0.1,0.2-0.1,0.4-0.2,0.4c0.1,0.3,0.3-0.1,0.4,0.4
								c-0.1,0.3-0.1,1-0.3,1.1c0.3-1-0.2,0.1-0.1-0.8c0,0.2,0,0.4-0.1,0.6c0,0,0,0,0-0.1c-0.4,0.9,0.2,0.5,0,1.5
								c-0.1-0.2-0.3,0.2-0.3,0.4c0.1-0.4,0.2-0.2,0.3,0.2c-0.2,0.6-0.1,0.7-0.1,1.1l0.1-0.4c0.1,0.2,0,0.5,0,0.9
								c-0.1,0,0-0.4-0.1-0.3c0.1,0.5-0.4,1.1-0.4,1.8c-0.1,0.3-0.2,0-0.3,0.3c0,0.8-0.3,0.8-0.3,1.7c0.2-0.2,0.2-0.3,0.2,0.4
								l0.1-1.4l0.1,0.9c0.1-0.4,0.1-0.9,0.1-1.1c0.1,0.4,0,0.4,0.2,0.2c-0.4,0.5-0.1,1.1-0.3,1.8l-0.4-0.1c-0.4,0.9-0.1,1.8-0.4,3
								l0.1-0.4c0.1,0.2-0.1,0.8-0.1,1.2c-0.1-0.1-0.2,0.2-0.3,0.3c0.1,0-0.2,0.9,0.1,1.1l-0.3,0.5c-0.1,0.5-0.1,0.8,0,1.1
								c0,0.1,0,0.3,0.1,0.4c0,0.1,0.1,0.3-0.1,0.4c0-0.1,0-0.1-0.1-0.2c-0.1,0,0-0.1-0.1-0.2c0,0.2-0.2,0.2-0.1,0.2
								c-0.1,0-0.6,0.7-0.9,0.7c-0.1,0.1,0,0.3-0.4,0.5c0,0,0-0.1,0-0.1c0,0.1-0.4,0.4-0.1,0.4c-1.1,0.2-2.4,1.5-3.4,1.7
								c-0.6,0.4-1.4,0.8-1.9,1.1c0-0.1,0-0.1,0.1-0.1c-0.9,0.3-0.3,0.6-1.3,0.9c-0.6,0,0.4-0.3,0.1-0.3c-0.3-0.4-1.1,0.6-1.8,0.6
								l0.1-0.1c-0.5,0.1-1.1,0.6-1.9,0.9c0,0,0-0.1,0-0.1c-0.5,0.5-1.5,0.8-2.3,1.2c0.2-0.3,0.3-0.2,0.1-0.3
								c-0.3,0.1,0.2,0.2-0.5,0.5c-0.3,0-0.8,0-0.9-0.2l0.7-0.2c-0.4-0.2-0.9,0.2-1.2,0.3l0-0.1c-1,0.3-1,0.6-2.1,0.8l0.1,0.1
								c-0.6,0.4-0.5-0.1-1.1,0.3l-0.2-0.3c-0.4,0.1-1.4,0.5-2.1,0.6c0.4-0.2,1.3-0.5,1.8-0.7c-0.4,0.1-1.4,0.2-1.6,0.4
								c0.2,0,0.4-0.1,0.5-0.1c-0.5,0.3-1.1,0.4-2,0.5c0.1-0.5-2.1-0.1-2.7-0.5c-1.4,0.1-2.8-0.2-4.5-0.5c0.5,0.5-0.5-0.1-0.5,0.4
								c-0.4,0-0.5-0.1-0.6-0.1l-1.1-0.5c-0.2-0.2,0.4,0,0.4-0.1c-0.8-0.2-0.3-0.3-0.8-0.5c0.1,0.2-0.3,0.1-0.8,0l0.6,0.4
								c-1.2-0.1-0.9-0.6-2.1-0.7l0.4,0c-0.3-0.1-0.8-0.2-1.4-0.4c-0.5-0.2-1.1-0.3-1.4-0.2c-0.1-0.1-0.2-0.3,0.1-0.2
								c-1.3-0.6-3.2-1-4.1-1.7l0.1,0c-0.3-0.1-0.5-0.1-0.8-0.3c0,0,0.1,0,0-0.1c-0.1,0-0.7-0.2-1-0.4l0.3,0.1
								c-1.2-0.8-2-0.9-3.1-1.6c0.2-0.2-0.7-1-1.1-1.4l0,0c-0.2-0.1-0.3-0.3-0.5-0.4l-0.2-0.2c-0.1-0.1,0,0-0.1,0c0,0,0,0-0.1-0.1
								l-0.2-0.5c-0.2-0.7-0.5-1.3-0.7-2.1c0.1-1-0.6-3.3-0.8-4.9c0,0.2-0.2,0-0.3-0.3c0-0.4-0.4-1-0.1-1l0,0.1
								c0.2-0.3,0-1.1-0.2-1.6l-0.4,0c0.2-1.6-1.1-3.9-0.8-4.9c-0.2-0.3-0.3-0.8-0.5-1.1l0.2,0c-0.2-1-0.3-1.5-0.6-2.8l0.2,0.2
								c-0.2-0.7-0.8-0.8-0.9-1.4l0.2-0.3c-0.3-1.2-0.3-2.5-0.9-3.7c0,0,0.1,0,0.2,0.2c-0.1-0.6-0.3-2.3-0.7-2
								c0.3-0.1-0.3-1.3-0.5-1.9l0.2,0.1c-0.4-0.5-0.4-0.5-0.7-1.3c0-0.2,0.1-0.2,0.1,0.1c0-0.6-0.3-0.4-0.4-1.2l0.2,0.3
								c-0.1-0.6-0.2-0.6-0.4-0.9c-0.2-0.4-0.2-1.2-0.1-1.4c-0.1-0.1-0.3-0.4-0.4-0.8c0.1-0.1,0.1,0.1,0.2,0.1
								c-0.1-1.1-0.6-1.5-0.6-2.3c0.1,0,0.1-0.1,0.1-0.2c0.2,0.8,0.3,1.5,0.3,1.5c0.2,0,0.1-0.7,0.4-0.2c-0.3-0.5-0.8-1.4-0.8-2.1
								c0,0,0-0.1,0-0.1l0,0.1c0-0.2-0.1-0.3-0.1-0.4c0-0.2,0-0.4-0.1-0.6c0.1-0.1-0.1-0.8-0.2-1.1c-0.2,0.1-0.3-0.4-0.3,0.1
								c0-0.1,0,0.1,0.1,0.3c0,0.1,0,0.1,0.1,0.1l0,0c0.1,0.2,0.1,0.5,0.2,0.8c-0.2-0.2-0.3-0.5-0.3-0.9c-0.2-0.1-0.3-0.3-0.4-0.4
								c0.2-0.5,0.1-1.5,0.2-1.6c-0.3-1-0.6-2.4-1.2-3c-0.1-0.3,0-0.4,0.1-0.5c0.1,0.2,0.1,0.4,0.2,0.4c-0.2-0.6-0.4-1.7-0.7-1.8
								c-0.1-0.8,0.3,0.4,0.1-0.7l0.1,0.1c-0.1-2.1-1.4-3.1-1.4-5.5c0,0.2,0,0.2,0,0.3c-0.4-2.6-1.4-5.2-1.6-7.8
								c-0.1-0.7-0.3-0.8-0.5-1.2l0.2-0.2L35.7,45c-0.4-1,0.1-2-0.6-3.2L35,42c-0.1-0.5-0.4-1.5-0.3-1.5c0,0-0.2-0.1-0.2-0.3l0.1,0
								L34.2,39c-0.1-0.9,0.5,0,0.2-1.3c-0.2-0.5-0.6-1.3-0.7-1.1c0,0.2,0.1,0.5-0.1,0.6l-0.2-0.4c-0.3,0-0.8-0.3-0.7,0.9l0.4,0.7
								l-0.1,0.3l-0.2-0.7c-0.1,0.4,0.1,0.6,0.3,0.9c-0.1,0.1-0.1,0.2-0.1,0.4l0.5,0.7c-0.1,0.1-0.3-0.3-0.3,0.2
								c0.2,0.3,0.2-0.4,0.4,0.2c-0.1,0.4-0.2,0.3,0,0.7c-0.1,0.1-0.1,0-0.2-0.2c0.2,0.4,0.3,1,0.5,1.2c-0.1,0.4,0.3,1.3,0,1.3
								c0.1,0.1,0.4,0.6,0.5,1c-0.5-0.6,0.3,1.3-0.1,1.3c0.4,0.4,0.5,1.7,0.9,2.5c0,0-0.1-0.1-0.1-0.2c0.1,0.5,0,0.7,0,1
								c0.3,0,0.5,0.7,0.8,1.1c-0.1,0.7-0.4-0.3-0.6,0c0.2-0.1,0.5,1,0.6,0.7c-0.1,0.5,0,0.4-0.2,0.7c0.4,0,0.2,0.4,0.4,0.7
								c0,0.7-0.3,0.2,0,0.9C36.3,53.4,36,52.8,36,52.8z M40.5,69.7L40.5,69.7c0-0.1-0.1-0.3-0.1-0.3C40.5,69.5,40.5,69.6,40.5,69.7
								z M40.9,71.2c0-0.2-0.1-0.4-0.1-0.6c0.1-0.1,0.1,0,0.2,0.1C40.8,70.6,40.9,71,40.9,71.2z M41.5,67.8c0.1,0.2,0.1,0.3,0,0.3
								C41.5,68.1,41.5,68,41.5,67.8l-0.1-0.1C41.4,67.8,41.5,67.8,41.5,67.8z"/>
							<path fill="#202020" d="M41.2,67.5C41.1,67.5,41.1,67.4,41.2,67.5C41.1,67.4,41.1,67.5,41.2,67.5l0,0.1
								C41.2,67.6,41.2,67.5,41.2,67.5z"/>
							<path fill="#202020" d="M105.2,65.4L105.2,65.4C105.2,65.4,105.2,65.4,105.2,65.4C105.2,65.4,105.2,65.4,105.2,65.4z"/>
							<polygon fill="#202020" points="45.1,91.1 45.1,91.1 45,91 							"/>
							<path fill="#202020" d="M107.3,57.5C107.3,57.5,107.3,57.5,107.3,57.5C107.3,57.4,107.3,57.5,107.3,57.5z"/>
							<path fill="#202020" d="M107.9,54.1l0.2-0.5C108,53.8,108,53.9,107.9,54.1z"/>
							<path fill="#202020" d="M108.5,51.4C108.5,51.4,108.5,51.4,108.5,51.4L108.5,51.4L108.5,51.4z"/>
							<path fill="#202020" d="M101.1,93.7c0,0,0,0.1,0,0.1C101.1,94,101.1,93.8,101.1,93.7z"/>
							<path fill="#202020" d="M102.9,81c0,0.1,0,0.3,0,0.4C103,81.2,103,81,102.9,81z"/>
							<polygon fill="#202020" points="97.4,107.8 97.4,107.8 97.4,107.8 							"/>
							<path fill="#202020" d="M102.8,82c0.1-0.2,0.1-0.4,0.1-0.6C102.9,81.6,102.8,81.8,102.8,82z"/>
							<path fill="#202020" d="M110.7,39.9l0-0.1c0,0,0,0,0,0L110.7,39.9z"/>
							<path fill="#202020" d="M110.7,39.8l0-0.1C110.7,39.7,110.7,39.8,110.7,39.8z"/>
							<path fill="#202020" d="M110.7,39.3l0,0.3C110.7,39.6,110.8,39.4,110.7,39.3z"/>
							<path fill="#202020" d="M110,43.4L110,43.4C110,43.5,110,43.5,110,43.4z"/>
							<path fill="#202020" d="M109.8,44.5c0.1-0.3,0.3-0.6,0.3-1l-0.1,0C110.1,43.7,109.7,44.3,109.8,44.5z"/>
							<path fill="#202020" d="M108.1,48.8l0.2-0.9c-0.1,0.1-0.2,0.3-0.2-0.1C107.7,48.9,108.4,47.6,108.1,48.8z"/>
							<path fill="#202020" d="M107.5,51.6c0.1-0.5-0.1,0-0.1,0C107.4,51.8,107.4,51.9,107.5,51.6z"/>
							<path fill="#202020" d="M103.9,71.6l-0.2-0.1C103.7,71.9,103.8,71.5,103.9,71.6z"/>
							<polygon fill="#202020" points="104.1,75.6 104.3,75.3 104.1,75.1 							"/>
							<polygon fill="#202020" points="102.4,77.6 102.4,77.5 102.4,78.1 							"/>
							<path fill="#202020" d="M93.2,108.4l0.2,0.1C93.6,108.4,93.5,108.1,93.2,108.4z"/>
							<path fill="#202020" d="M79.7,113.8c-0.2-0.1-0.6-0.1-0.8,0.1C79.2,113.9,79.6,113.9,79.7,113.8z"/>
							<polygon fill="#202020" points="47.7,94.5 47.8,94.8 47.6,94.3 							"/>
						</g>
					</g>
				</g>
			</g>
		</g>
		<g>
			<g>
				<g>
					<g>
						<g>
							<path fill="#202020" d="M111.2,36.4c-0.1-0.1-0.2-0.1-0.2,0.2c0,0,0.2,0.2,0.2,0.3c0,0,0-0.1,0-0.2
								C111.2,36.6,111.2,36.4,111.2,36.4z"/>
							<path fill="#202020" d="M110,37.8c-0.1,0.3-0.3,0.6,0,0.7c0.1-0.4,0.2-0.4,0.2-0.8c0.1-0.2,0.3-0.3,0.4-0.2
								c0-0.1,0.3-0.4,0.2-0.5c-0.3,0.3-0.5,0.6-0.7,1C110,38,110.1,37.9,110,37.8z"/>
							<path fill="#202020" d="M88,43l0.1,0C88.1,43,88,43,88,43z"/>
							<path fill="#202020" d="M73.8,43.5c0.1,0,0.2,0,0.2-0.1C73.8,43.5,73.7,43.5,73.8,43.5z"/>
							<path fill="#202020" d="M71.3,43.3c0.1,0,0.1,0,0.1,0C71.4,43.2,71.4,43.2,71.3,43.3z"/>
							<path fill="#202020" d="M88,43l-0.4,0C87.6,43,87.8,43,88,43z"/>
							<path fill="#202020" d="M107.6,40c0.1,0,0.1-0.1,0.2-0.1L107.6,40L107.6,40z"/>
							<path fill="#202020" d="M94.1,42.1l0.1,0c0,0,0.1-0.1,0.1-0.1L94.1,42.1z"/>
							<path fill="#202020" d="M98.9,41.3c-0.1,0-0.1,0.2-0.1,0.3c0-0.1,0.1-0.1,0.2-0.2C98.9,41.4,98.9,41.3,98.9,41.3z"/>
							<path fill="#202020" d="M106.3,39.7l0.1-0.1C106.4,39.7,106.3,39.7,106.3,39.7z"/>
							<path fill="#202020" d="M90.7,42.5C90.7,42.4,90.7,42.4,90.7,42.5C90.7,42.4,90.7,42.4,90.7,42.5z"/>
							<path fill="#202020" d="M106.9,32.2C106.9,32.2,106.9,32.2,106.9,32.2C106.9,32.2,107,32.2,106.9,32.2z"/>
							<path fill="#202020" d="M110.6,36.4L110.6,36.4c-0.1-0.1-0.1-0.1-0.1-0.1L110.6,36.4z"/>
							<path fill="#202020" d="M66.9,42.9C66.9,42.9,66.9,42.9,66.9,42.9C67.1,42.9,67,42.9,66.9,42.9z"/>
							<path fill="#202020" d="M37.8,33.8c-0.5,0,0.6-0.5-0.1-0.4C37.7,33.5,37.2,33.9,37.8,33.8z"/>
							<path fill="#202020" d="M107.5,40.1l-0.2,0.1C107.4,40.1,107.4,40.1,107.5,40.1z"/>
							<path fill="#202020" d="M37.7,33.4L37.7,33.4L37.7,33.4C37.6,33.4,37.6,33.4,37.7,33.4z"/>
							<path fill="#202020" d="M56.7,42.5C56.8,42.5,56.8,42.6,56.7,42.5C56.8,42.6,56.8,42.5,56.7,42.5z"/>
							<path fill="#202020" d="M64.3,43.2l-0.2,0C64.2,43.2,64.3,43.2,64.3,43.2z"/>
							<path fill="#202020" d="M52.8,42.4c-0.1,0-0.1-0.1-0.3,0c0,0,0,0,0,0C52.6,42.3,52.7,42.3,52.8,42.4z"/>
							<path fill="#202020" d="M48.7,41.9C48.7,41.9,48.8,41.9,48.7,41.9c0.1,0.1,0.2,0.1,0.2,0.1L48.7,41.9z"/>
							<path fill="#202020" d="M94.5,29.4c0.1,0.1,0.1,0.1,0.2,0.2C94.6,29.5,95.2,29.5,94.5,29.4z"/>
							<path fill="#202020" d="M107.5,39.9c0,0.1,0,0.1-0.1,0.1L107.5,39.9C107.6,40,107.6,39.9,107.5,39.9z"/>
							<path fill="#202020" d="M52.4,43.9l-0.7-0.1C52,43.9,52.2,43.9,52.4,43.9z"/>
							<path fill="#202020" d="M64.8,28.2l0.2,0C64.9,28.2,64.9,28.2,64.8,28.2z"/>
							<path fill="#202020" d="M49.8,43.6c-0.1-0.1-0.2-0.1-0.3-0.2c0,0-0.1,0-0.1,0L49.8,43.6z"/>
							<path fill="#202020" d="M94.7,29.7L94.7,29.7L94.7,29.7z"/>
							<path fill="#202020" d="M99,29.9c-0.6-0.1-0.3,0.2-0.5,0.3c-0.8-0.1-0.3-0.3-0.5-0.4c-0.5,0-0.9,0.2-1.2,0.1
								c0,0-0.1-0.1,0-0.1c-0.5,0.1-1.5-0.2-2.1,0c0,0-0.1-0.1-0.1-0.1c0.1,0.1,0.1,0.3,0,0.4c-0.3,0-0.5,0.1-0.6-0.1
								c0.2,0,0.2,0,0.3-0.1l-0.3,0c-0.2-0.3,0.4,0,0.4-0.2c-0.6,0-1.3,0.1-1.7,0c-0.1-0.3,1,0,0.5-0.2l0.7,0.2
								c-0.5-0.4,0.4,0.1,0-0.4c-0.9-0.2-1,0-1.9-0.2c-0.2,0.1,0,0.2-0.2,0.3c-1.3,0.1-0.9-0.7-1.9-0.5c-0.3,0.1-0.4,0.4-1,0.2
								l0.3-0.2c-0.9-0.1-0.5,0.3-1.4,0.1c0.2-0.1,0.7,0,0.6-0.1c-0.6-0.3-0.4,0.1-0.9,0.1l-0.1-0.2c-0.9,0-2,0.1-3,0
								c0.1-0.1,0.2-0.1,0-0.2c-1.3,0-2.7-0.2-4-0.4l-0.5,0.2c-0.1,0-0.2-0.1-0.1-0.1c-0.5-0.1,0,0.1-0.3,0.2
								c-0.3,0-0.4-0.1-0.2-0.2c-0.9,0.1-2.4,0.3-3.3,0.1l0.2-0.1c-0.7-0.1-0.8,0.4-1.4,0.2l0.1,0c-1.5-0.1-3.2,0.1-4.4-0.2
								c-0.2,0.3-1.5-0.1-1.6,0.3c-0.9-0.2-0.6-0.3-1.9-0.4c-0.3,0-0.5,0.3-0.9,0.3l0-0.2l-0.5,0.2l-0.3-0.3L65,28.2
								c0.2,0,0.3,0.1,0.3,0.2c-0.6,0.1-1.4-0.1-1.5-0.2l-1.4,0.2c0-0.1,0.3-0.1,0.4-0.2c-0.7,0.3-0.1-0.2-0.8,0
								c0.1,0,0,0.1-0.1,0.2c-0.3-0.1-1.1-0.1-1.7,0l0.1-0.2c-1,0-2.2,0.2-3.4,0.3c0.4,0,0.3,0.3,0,0.4l-0.2-0.2
								c-0.2,0.2,0.4,0.1-0.1,0.3c-0.4,0-0.3-0.2-0.1-0.3l-0.5,0.1c0-0.1,0.1-0.1,0.1-0.2c-0.2,0.2-0.9-0.2-1.2,0.1l0-0.1
								c-1.2,0.1-1.7,0.2-2.6,0.4c0,0.2-0.4,0.2-0.6,0.4c-0.7,0-1.5,0-2.3,0.1c-0.6,0.2-0.1,0.2-0.4,0.3c-0.1-0.2-0.9,0-0.5-0.2
								c-1,0.2-1.3,0.2-2.5,0.6c0.2,0,0.3,0.1,0.2,0.1c-0.2,0.1-0.5,0-0.5-0.1l0.1,0c-1.4,0.5-3.4,0.1-4.4,0.8l0.1,0
								c0,0-0.3,0.1-0.6,0.2c-0.3,0.1-0.6,0.3-0.6,0.3c-0.5,0.1,0.3-0.2-0.1-0.2c-1.2,0.6-2,0.5-2.9,1.1c-0.5-0.1-1.2,0.2-1.9,0.6
								c-0.7,0.4-1.4,0.9-2,1.3l0.1,0c-0.1,0.4-0.4,0.2-0.5,0.5c0.1,0,0.3-0.3,0.2,0l-0.3,0.5c-0.1,0.2-0.2,0.4-0.2,0.6
								c-0.1,0.4-0.1,1,0.1,1.4c0.3,0.8,0.9,1.4,1.4,1.8c1.1,0.9,2.3,1.5,3.5,2c0.9,0.3,0.7-0.4,1.7,0.2L39,41.4
								c1.9,0.3,3.7,1,5.5,1.1c-0.1,0-0.1,0.1-0.3,0.1c0.3,0.2,1.4,0.3,1.4,0.1c0.3,0.1,0,0.1,0.2,0.2c0.4,0.2,1-0.1,1.1,0.1
								c0,0-0.1,0-0.2,0c0.3,0,1.1,0.2,0.9,0c0.7,0.2,1.3,0.1,1.8,0.3c0.4-0.2,1.1,0.3,1.3,0c-0.1,0.3,1.1,0.4,1.6,0.3
								c-0.2,0.1,0.4,0.1,0.2,0.3c0.5,0,0.9,0,0.9-0.1c0.8,0.5,1.8-0.1,2.3,0.4c1.4,0,2.8-0.1,4.1,0c-0.1,0.3-1.4-0.1-1.4,0.3
								c1.2,0,2-0.3,3.2-0.1c0.3,0.1-0.2,0.1-0.3,0.2c1.2-0.1,2.4,0.2,3.5,0c0,0-0.1,0.1-0.2,0.1c0.2,0,0.5,0.1,0.5-0.1l-0.2,0
								c-0.3-0.2,0.9-0.4,0.9-0.5c-0.4,0.4,1.1,0.1,0.5,0.6c0.1,0,0.3-0.1,0.3-0.2c0.2,0,0.3,0.1,0.1,0.2c0.8-0.1,0.5-0.2,1.2-0.2
								c0,0.1-0.1,0.1-0.2,0.2c0.4-0.1,0.7-0.3,1.3-0.2c0,0,0,0.1-0.1,0.1c1,0,1.7-0.3,2.8-0.2c-0.3,0.3,0.4,0.1,0.4,0.4l0.6-0.1
								l-0.2-0.1c0.5,0,1-0.2,1.4-0.1l-0.4,0.1l1-0.1l-0.6-0.1c0.5-0.1-0.1-0.3,0.6-0.3c-0.1,0,0.5,0,0.8,0.1l0,0
								c0.3-0.1,0.5-0.2,0.9-0.1c0.1,0.1-0.1,0.3,0,0.3c0.2-0.2,1.2-0.1,1.5-0.3c-0.1,0.1-0.1,0.2-0.1,0.2l0.2-0.2
								c0.2,0.1,0.3,0.1,0.2,0.2c0.7,0-0.2-0.3,0.6-0.2c-0.1,0,0,0-0.2,0.1c0.9,0,1.7-0.2,2.5-0.1c0.2,0.3-0.7,0.1-0.4,0.3
								c1.1-0.1,2.4-0.4,3.5-0.4l-0.2,0c0.1-0.4,0.8,0.1,1.4-0.1c-0.1,0-0.2,0.2-0.1,0.2c0.8,0,1.5-0.2,2.7-0.4l-0.1,0.1
								c0.5,0,1.2-0.1,1.7-0.1c0.1-0.1,0.4-0.1,0.2-0.2c1.5,0.4,2.8-0.6,4.2-0.3c-0.2,0-0.4,0.1-0.2,0.1l1.1-0.2
								c-0.1-0.2-0.2-0.1-0.4-0.2c0.1-0.1,0.4-0.2,0.7-0.3c-0.5,0.2,0,0.3,0.3,0.3c0,0,0-0.1,0-0.2c0.6,0.2,0.1-0.3,0.9-0.3l0,0.1
								c0.3-0.1,0.5-0.2,0.9-0.3c0.2,0.2-0.3,0.1-0.3,0.3c0.5-0.1,0.8-0.5,1.3-0.4c-0.2,0.1-0.5,0.1-0.6,0.2
								c0.5,0.1,0.5,0.1,0.9,0.1l0,0l0.8,0l-0.2,0c0.5-0.6,1.1-0.3,1.8-0.8c-0.7,0.4-0.1,0.2-0.1,0.4c0.2,0,0.5,0,0.4,0.1
								c0.3-0.2,0.6,0,1.1-0.4c0,0.1,0.4-0.1,0.3,0.1c0.5-0.2-0.1-0.1-0.1-0.2c0.7-0.4,1.7-0.1,2.7-0.7c0.8-0.4,0.9-0.7,1.7-1.1
								c0.3,0-0.1,0.3-0.1,0.3c0.5-0.1,0.8-0.2,1.2-0.4c-0.1,0.1,0,0.1,0.2,0.1c0.3-0.2,0.1-0.3,0.6-0.4c0,0.1-0.1,0.3-0.2,0.4
								c0.4-0.2,0.7-0.5,1-0.8c0.2,0-0.1,0.3-0.2,0.4c0.4-0.3,1.1-0.8,1.1-1l-0.3,0.1c0.1-0.1,0.2,0.1,0.1,0.2
								c-0.3,0.4-0.6,0.3-0.6,0.2l0.2-0.2c-0.5-0.2-1,0.7-1.6,0.9l0.1-0.4l-0.5,0.5c-0.2,0-0.3-0.1,0-0.3c-0.4,0-0.3,0.2-0.7,0.2
								c0,0,0,0,0-0.1l-0.4,0.2c0.1-0.1-0.1-0.2,0.1-0.2c-0.8,0.1-1.1,0.6-1.4,0.5l0.1,0c-1,0.4,0,0.2-0.7,0.7l-0.7-0.4l0,0.2
								c-0.1,0-0.3,0.1-0.3,0c-0.4,0.2,0.1,0.1-0.1,0.3c-0.6-0.1-1.4,0.4-1.6,0.1c-0.1,0.2,0.5,0,0,0.2c-0.2-0.3-0.6,0.2-1.1,0.1
								c0.1-0.2,0.6-0.2,0.1-0.3c-0.2,0.4-0.9,0.1-1.3,0.3c0,0.3-0.8,0.3-1.5,0.5c0-0.1-1.3,0.1-1.9,0.1l0,0
								c-0.1,0.3-0.7,0.3-1.2,0.4c0-0.2,0.1-0.2,0.3-0.3l-0.4,0.1c-0.1,0.1-0.2,0.2-0.5,0.2l0.1-0.2c-0.6,0.1-1.1,0.4-1.9,0.3
								c0,0.2,0.7,0.4-0.1,0.6c0-0.1-0.1-0.3,0.1-0.3c-0.1,0-0.2,0.1-0.4,0.1l0.3-0.2c-0.4,0-0.2,0.2-0.4,0.2c0-0.1-0.2-0.1-0.2-0.2
								c0.1,0,0.2,0,0.3,0c-0.3,0-0.7,0-0.8-0.1c0,0.1,0,0.2-0.2,0.2c-0.6,0.1-0.2-0.1-0.6-0.2c-0.1,0.1-0.5,0-0.5,0.3
								c-0.2,0-0.2-0.1-0.3-0.1c-0.3,0.1-1.4,0.2-1,0.3l0.1,0c0,0,0,0,0,0l0,0l0,0c-1,0.3-2.1,0.1-3.1,0.2l0-0.1
								c-0.6,0.1-1.3,0.1-1.7,0.3c-0.2,0-0.4-0.1-0.3-0.2c-0.4,0.1-0.5,0.2-1.2,0.1c0.4-0.1-0.2-0.1,0.5-0.1c-0.6,0-0.7-0.1-1.3,0.1
								c0.2-0.2-0.5-0.2-0.7-0.1l0.4,0.1c-0.3,0-0.6,0-0.9,0l0.1-0.2c-1.2-0.2-2.1,0.6-3.1,0.1c-0.3,0.2,0.7,0.1,0.4,0.3
								c-0.6,0-1.1-0.3-1.3-0.3c-0.8-0.1-0.7,0.4-1.5,0.3c0.1,0.1,0.2,0.3-0.4,0.4c-0.6,0-0.7-0.3-0.3-0.4c0.1,0,0.2,0,0.2,0
								c0.2,0,0.4-0.1,0.2-0.2L74,43.4c-0.3-0.1-1-0.1-0.9-0.2c-0.4,0.1-0.2,0.1,0.1,0.2c-0.7-0.1-1.1,0-1.8-0.1
								c0.1,0,0.2,0.1,0.1,0.1c-1.1-0.1-0.5,0.2-1.2,0.2c-0.4-0.1,0.2-0.3-0.6-0.2c-0.4-0.1-0.1-0.2,0.1-0.3
								c-0.7,0.2-1.2-0.1-1.6-0.2l0.4-0.1c-0.2,0-0.4,0-0.6,0l0.2,0.2c-0.2,0-0.4,0-0.4-0.1c-0.2,0.1,0.2,0.3-0.3,0.4
								c-0.3-0.1-0.8,0.1-0.9-0.2c0.9,0.1-0.1-0.2,0.6-0.2c-0.1,0-0.3,0-0.5,0c0,0,0,0,0.1-0.1c-0.8-0.2-0.4,0.2-1.2,0.2
								c0.1-0.1-0.2-0.2-0.3-0.2c0.3,0,0.2,0.2-0.2,0.3c-0.5-0.1-0.6,0.1-0.9,0l0.3,0.1c-0.1,0.1-0.4,0.1-0.8,0.1
								c0-0.1,0.3-0.1,0.2-0.1c-0.4,0.2-0.9-0.3-1.5-0.1c-0.3-0.1,0-0.2-0.3-0.3c-0.7,0.1-0.7-0.2-1.4-0.1c0.2,0.2,0.2,0.1-0.3,0.3
								l1.1-0.1L61,43.2c0.3,0,0.7-0.1,0.9,0c-0.4,0.1-0.3,0.1-0.2,0.2c-0.5-0.3-0.9,0.1-1.5-0.1l0-0.4c-0.8-0.2-1.5,0.1-2.5-0.1
								l0.3,0.1c-0.2,0.2-0.7,0-1,0c0-0.1-0.2-0.2-0.3-0.3c0,0.1-0.8-0.1-0.9,0.2l-0.5-0.2c-0.8-0.2-1,0.3-1.8,0.2
								c0.3-0.1-0.1-0.3,0.5-0.3c-0.3,0-0.5-0.1-0.5,0c-0.2-0.1-0.8,0.1-1-0.1c-0.1,0-0.2,0.2-0.5,0.1c0,0,0-0.1,0-0.1
								c0,0.1-0.5,0-0.2,0.2c-0.8-0.5-2.4-0.3-3-0.8c-0.6,0-1.3-0.1-1.9-0.2c0,0,0-0.1,0.1,0c-0.7-0.3-0.5,0.3-1.3,0
								c-0.4-0.3,0.5,0,0.2-0.2c0-0.5-1-0.1-1.5-0.5l0.1,0c-0.4-0.2-1.1,0-1.8-0.2c0,0,0,0,0-0.1c-0.5,0.1-1.5,0-2.1-0.2
								c0.3-0.1,0.3,0,0.2-0.2c-0.3-0.1,0,0.3-0.6,0.2c-0.2-0.1-0.6-0.4-0.6-0.6l0.6,0.2c-0.2-0.3-0.7-0.2-1-0.3l0.1-0.1
								c-0.8-0.2-1,0-1.8-0.3l0.1,0.1c-0.6,0.1-0.3-0.3-0.9-0.3l0-0.3c-0.3-0.1-1.2-0.3-1.7-0.6c0.4,0,1,0.3,1.5,0.4
								c-0.3-0.1-1-0.5-1.2-0.5c0.1,0.1,0.3,0.1,0.4,0.2c-0.4,0-1-0.2-1.4-0.7c0.2-0.1,0-0.5-0.1-0.8c-0.1-0.3,0-0.7,0.3-0.8
								c0.1-0.4,0.5-0.8,1-1c0.5-0.3,1.1-0.5,1.7-0.8c-0.6-0.2,0.4-0.2,0.1-0.5c0.3-0.2,0.4-0.2,0.4-0.2c0,0,0.3,0,0.5-0.1
								c0.3,0,0.5,0,0.5,0c0.3,0-0.3,0.2-0.2,0.3c0.7-0.2,0.3,0.1,0.8,0c-0.1-0.1,0.2-0.3,0.6-0.3l-0.6,0c0.9-0.5,0.9,0.1,1.8-0.4
								l-0.3,0.2c0.5-0.2,1.8-0.5,2.3-0.9c0.1,0,0.2,0.1,0,0.2c1.2-0.2,2.6-0.9,3.6-0.9l-0.1,0.1c0.2-0.1,0.4-0.3,0.7-0.2
								c0,0-0.1,0.1,0,0.1c0.1-0.1,0.6-0.3,0.9-0.3L48,31.4c1.2,0,1.8-0.6,2.8-0.8c0,0.3,1,0.3,1.5,0.3l0,0c1.4-0.1,2.4-0.5,3.7-0.8
								c0.8,0.3,2.8-0.1,4.1,0c-0.2,0,0-0.2,0.2-0.3c0.3,0,0.8-0.3,0.8,0l-0.1,0c0.2,0.3,0.9,0.2,1.4,0.1l0.1-0.4
								c1.3,0.5,3.4-0.3,4.1,0.1c0.3-0.1,0.7-0.1,1-0.2l0,0.2c0.9,0,1.3,0.1,2.4,0L69.6,30c0.6,0,0.8-0.6,1.3-0.6l0.2,0.3
								c1.1,0,2.1,0.3,3.2,0c0,0,0,0.1-0.2,0.1c0.5,0,1.9,0.2,1.7-0.2c0,0.3,1.1,0.1,1.7-0.1l-0.1,0.2c0.5-0.2,0.5-0.3,1.2-0.4
								c0.2,0,0.1,0.2-0.1,0.1c0.5,0.1,0.4-0.2,1.1,0l-0.2,0.1c0.5,0,0.5,0,0.8-0.2c0.3-0.1,1,0.1,1.1,0.3c0.1-0.1,0.4-0.2,0.7-0.2
								c0,0.1-0.1,0.1-0.1,0.1c0.9,0.2,1.4-0.2,2,0.1c0,0.1,0,0.1,0.1,0.1c-0.7-0.1-1.3-0.1-1.2-0.1c0,0.2,0.6,0.2,0.1,0.5
								c0.5-0.1,1.3-0.4,1.9-0.2c0,0,0.1,0,0.1,0.1l-0.1,0c0.1,0,0.2,0,0.4,0c0.2,0,0.3,0.1,0.5,0.1c0.1,0.2,0.7,0.1,0.9,0.2
								c0-0.2,0.4-0.1,0-0.3c0,0-0.1,0-0.2,0c0,0-0.1,0-0.1,0l0,0c-0.2,0-0.4,0-0.7,0c0.2-0.1,0.5-0.2,0.8,0
								c0.2-0.1,0.3-0.2,0.4-0.3c0.4,0.3,1.1,0.5,1.2,0.7c0.9,0,2.1,0.1,2.7-0.2c0.3,0,0.3,0.1,0.4,0.2c-0.1,0-0.3,0-0.4,0
								c0.5,0,1.5,0.1,1.6-0.1c0.6,0.2-0.4,0.2,0.5,0.3l-0.1,0.1c1.6,0.6,2.9-0.3,4.7,0.5c-0.1-0.1-0.2-0.1-0.2-0.1
								c2.1,0.6,4.5,0.6,6.4,1.5c0.6,0.2,0.7,0.1,1.1,0.1l0.1,0.2l0.7-0.1c0.9,0.1,1.3,1,2.4,1.1l-0.1-0.2c0.4,0.2,1.2,0.5,1,0.6
								c0,0,0.2-0.1,0.3,0.1l0,0.1c0,0,0.9,0.4,0.9,0.4c0.3,0.3,0.2,0.3,0.1,0.4c-0.1,0.1-0.1,0.2,0.2,0.5c0.1,0.1,0.3,0.3,0.4,0.4
								c0.1,0.1,0.2,0.3,0.2,0.2c0-0.1,0-0.4,0.1-0.4c0,0,0.1,0.3,0.1,0.3c0.2,0,0.3,0.1,0.5,0.1c0.1,0,0.1-0.1,0.2-0.2
								c0.1-0.2,0.1-0.4,0-0.7c0-0.1-0.6-0.7-0.6-0.6l-0.1-0.3c0,0,0.1,0.1,0.2,0.3c0.1,0.2,0.2,0.3,0.2,0.3
								c-0.1-0.5-0.4-0.5-0.6-0.7c0-0.1,0-0.2-0.1-0.3c0,0-0.2-0.1-0.4-0.1c-0.2,0-0.4-0.1-0.4-0.1c0-0.2,0.4,0,0.1-0.4
								c-0.4-0.1,0.1,0.4-0.4,0.2c-0.2-0.3-0.1-0.4-0.5-0.4c0-0.1,0.1-0.1,0.2-0.1c-0.4-0.1-0.9-0.4-1.1-0.3
								c-0.2-0.3-1.1-0.4-0.9-0.7c-0.1,0-0.7,0-1-0.1c0.7-0.2-1.1-0.4-0.8-0.7c-0.5,0.2-1.5-0.3-2.3-0.3c0,0,0.1,0,0.2,0
								c-0.4-0.1-0.5-0.3-0.7-0.4c-0.1,0.3-0.8,0.2-1.1,0.3c-0.4-0.4,0.4-0.3,0.3-0.5c0,0.2-0.9,0-0.8,0.2c-0.3-0.2-0.3-0.1-0.5-0.4
								c-0.1,0.3-0.4,0-0.7,0.1c-0.5-0.3-0.1-0.3-0.7-0.4C98.5,29.9,99,29.9,99,29.9z M84.4,28.8L84.4,28.8c0.1,0,0.2,0,0.3,0
								C84.6,28.8,84.5,28.8,84.4,28.8z M83.2,28.7c0.1,0,0.3,0,0.5,0c0,0.1,0,0.1-0.1,0.1C83.6,28.8,83.3,28.7,83.2,28.7z
								 M85.7,30.2c-0.2,0-0.3,0-0.3-0.1C85.5,30.2,85.6,30.2,85.7,30.2L85.7,30.2C85.7,30.2,85.7,30.2,85.7,30.2z"/>
							<path fill="#202020" d="M86,30C86,30,86.1,30,86,30C86.1,30,86,30,86,30l-0.1,0C85.9,30,86,30,86,30z"/>
							<path fill="#202020" d="M88.1,43L88.1,43C88.1,43,88.1,43,88.1,43C88.1,43,88.1,43,88.1,43z"/>
							<polygon fill="#202020" points="66.2,28.1 66.2,28.1 66.3,28.1 							"/>
							<path fill="#202020" d="M94.9,42.9C94.9,42.9,95,42.9,94.9,42.9C95,42.9,95,42.9,94.9,42.9z"/>
							<path fill="#202020" d="M97.8,42.5l0.4,0C98.1,42.5,97.9,42.5,97.8,42.5z"/>
							<path fill="#202020" d="M100.1,42.2C100.1,42.1,100.1,42.1,100.1,42.2L100.1,42.2L100.1,42.2z"/>
							<path fill="#202020" d="M64.4,44.6C64.4,44.6,64.3,44.6,64.4,44.6C64.1,44.6,64.3,44.6,64.4,44.6z"/>
							<path fill="#202020" d="M75.1,44.2c-0.1,0-0.2,0.1-0.3,0.1C74.9,44.4,75,44.4,75.1,44.2z"/>
							<polygon fill="#202020" points="52.5,43.9 52.5,43.9 52.4,43.9 							"/>
							<path fill="#202020" d="M74.2,44.3c0.2,0,0.3,0,0.5,0C74.6,44.3,74.4,44.3,74.2,44.3z"/>
							<path fill="#202020" d="M109.5,39.1l0.1-0.1C109.5,39,109.5,39,109.5,39.1L109.5,39.1z"/>
							<path fill="#202020" d="M109.5,39L109.5,39C109.6,38.9,109.6,39,109.5,39z"/>
							<path fill="#202020" d="M109.8,38.7c0,0-0.2,0.2-0.2,0.2C109.7,38.8,109.8,38.8,109.8,38.7z"/>
							<path fill="#202020" d="M106.6,40.4L106.6,40.4C106.6,40.4,106.6,40.4,106.6,40.4z"/>
							<path fill="#202020" d="M105.8,40.7c0.2-0.1,0.6,0,0.8-0.2l0-0.1C106.5,40.6,105.9,40.5,105.8,40.7z"/>
							<path fill="#202020" d="M101.9,40.9l0.7-0.1c-0.1,0-0.3-0.1,0-0.2C101.7,40.5,102.9,40.7,101.9,40.9z"/>
							<path fill="#202020" d="M99.6,41.2c0.4-0.1,0-0.1,0-0.2C99.4,41.2,99.3,41.2,99.6,41.2z"/>
							<path fill="#202020" d="M82.9,43.2l0-0.2C82.6,43.1,82.9,43.1,82.9,43.2z"/>
							<polygon fill="#202020" points="79.7,44.3 80,44.4 80.1,44.2 							"/>
							<polygon fill="#202020" points="77.7,43.1 77.9,43 77.3,43.1 							"/>
							<path fill="#202020" d="M49.5,41.8l0.1,0.2C49.7,42,49.8,41.8,49.5,41.8z"/>
							<path fill="#202020" d="M37.6,39.3c-0.1-0.1-0.4-0.3-0.6-0.3C37.3,39.1,37.5,39.3,37.6,39.3z"/>
							<polygon fill="#202020" points="63,30 62.8,30.1 63.2,30 							"/>
						</g>
					</g>
				</g>
			</g>
		</g>
	</g>
	<g>
		<g>
			<g>
				<g>
					<g>
						<path fill="#202020" d="M105.1,63.5c0-0.1,0-0.2-0.1-0.1l0,0.2L105.1,63.5z"/>
						<path fill="#202020" d="M104.3,63.3c-0.1,0.1-0.2,0.3-0.1,0.5c0.1-0.2,0.2-0.1,0.3-0.4c0.1,0,0.2,0,0.2,0.1
							c0-0.1,0.2,0,0.2-0.1c-0.2-0.1-0.3-0.1-0.5,0.1C104.2,63.4,104.3,63.3,104.3,63.3z"/>
						<path fill="#202020" d="M96.2,61.5L96.2,61.5C96.2,61.5,96.2,61.5,96.2,61.5z"/>
						<path fill="#202020" d="M90.9,64.2C91,64.2,91,64.1,90.9,64.2C91,64.1,90.9,64.1,90.9,64.2z"/>
						<path fill="#202020" d="M89.9,63.9C89.9,63.9,89.9,63.9,89.9,63.9C89.9,63.9,89.9,63.9,89.9,63.9z"/>
						<path fill="#202020" d="M96.2,61.5L96,61.6C96.1,61.6,96.1,61.6,96.2,61.5z"/>
						<path fill="#202020" d="M102.7,63.8c0,0,0.1,0,0.1,0L102.7,63.8L102.7,63.8z"/>
						<path fill="#202020" d="M98.5,58.9L98.5,58.9c0.1-0.1,0.1-0.2,0.1-0.2C98.6,58.6,98.5,58.9,98.5,58.9z"/>
						<path fill="#202020" d="M99.7,61.2c0,0-0.2,0.1-0.2,0.1C99.6,61.2,99.6,61.2,99.7,61.2C99.7,61.2,99.7,61.2,99.7,61.2z"/>
						<path fill="#202020" d="M102.4,63.1L102.4,63.1C102.4,63.1,102.4,63.1,102.4,63.1z"/>
						<path fill="#202020" d="M96.9,60.4C96.9,60.4,96.9,60.4,96.9,60.4C96.9,60.4,96.9,60.4,96.9,60.4z"/>
						<path fill="#202020" d="M41.7,60.3C41.7,60.3,41.7,60.3,41.7,60.3C41.6,60.3,41.6,60.3,41.7,60.3z"/>
						<polygon fill="#202020" points="39,60.2 39,60.2 39,60.1 						"/>
						<path fill="#202020" d="M87.9,63.4L87.9,63.4C88,63.4,88,63.4,87.9,63.4z"/>
						<path fill="#202020" d="M71.2,64.9c0.2,0.1-0.3,0.2,0,0.3C71.1,65.1,71.4,64.9,71.2,64.9z"/>
						<path fill="#202020" d="M102.7,63.8L102.7,63.8C102.6,63.8,102.7,63.8,102.7,63.8z"/>
						<path fill="#202020" d="M71.2,65.2L71.2,65.2L71.2,65.2C71.2,65.2,71.2,65.2,71.2,65.2z"/>
						<path fill="#202020" d="M83.4,62.5C83.4,62.5,83.4,62.6,83.4,62.5C83.4,62.6,83.4,62.5,83.4,62.5z"/>
						<path fill="#202020" d="M86.7,63.5L86.7,63.5C86.7,63.5,86.7,63.5,86.7,63.5z"/>
						<path fill="#202020" d="M81.5,62.3c0,0-0.1,0-0.1,0l0,0C81.5,62.3,81.5,62.3,81.5,62.3z"/>
						<polygon fill="#202020" points="79.7,62 79.7,62 79.7,62 						"/>
						<path fill="#202020" d="M47.2,59.1c0,0-0.1-0.1-0.1-0.1C47.1,59.1,46.9,59.2,47.2,59.1z"/>
						<path fill="#202020" d="M102.8,63.7C102.7,63.7,102.7,63.8,102.8,63.7L102.8,63.7C102.8,63.7,102.8,63.7,102.8,63.7z"/>
						<path fill="#202020" d="M81.2,63.6l-0.3-0.1C81,63.5,81.1,63.5,81.2,63.6z"/>
						<path fill="#202020" d="M59.3,61.4L59.3,61.4C59.2,61.4,59.2,61.4,59.3,61.4z"/>
						<path fill="#202020" d="M80.1,63.4c0-0.1-0.1-0.1-0.1-0.1c0,0,0,0,0,0L80.1,63.4z"/>
						<path fill="#202020" d="M47.1,59L47.1,59L47.1,59z"/>
						<path fill="#202020" d="M45.2,59.7c0.3,0,0.1-0.2,0.1-0.4c0.3-0.1,0.2,0.1,0.3,0.2c0.2-0.1,0.3-0.3,0.5-0.3c0,0,0.1,0,0,0.1
							c0.2-0.2,0.7-0.1,0.9-0.4c0,0,0,0,0,0C47,58.9,47,58.8,47,58.7c0.1,0,0.2-0.2,0.3,0c-0.1,0-0.1,0.1-0.1,0.1l0.1-0.1
							c0.2,0.2-0.2,0.1-0.1,0.2c0.2-0.1,0.5-0.3,0.7-0.3c0.1,0.2-0.5,0.1-0.2,0.3l-0.3,0c0.3,0.3-0.2,0,0.1,0.3
							c0.4,0,0.4-0.2,0.8-0.2c0.1-0.1-0.1-0.2,0-0.3c0.5-0.3,0.5,0.4,0.9,0.1c0.1-0.1,0.1-0.4,0.4-0.3l-0.1,0.2
							c0.4,0,0.2-0.3,0.6-0.2c-0.1,0.1-0.3,0.1-0.2,0.1c0.3,0.1,0.2-0.1,0.4-0.2l0.1,0.2c0.4-0.1,0.8-0.3,1.3-0.3
							c0,0.1-0.1,0.1,0,0.2c0.6-0.1,1.2,0,1.7,0.2l0.2-0.2c0,0,0.1,0.1,0,0.1c0.2,0.1,0-0.1,0.1-0.2c0.1,0,0.1,0.1,0.1,0.2
							c0.4-0.1,1.1-0.2,1.4,0.1l-0.1,0c0.3,0.1,0.4-0.3,0.6,0l-0.1,0c0.6,0.3,1.3,0.5,1.6,0.9c0.2-0.2,0.4,0.4,0.7,0.2
							c0.2,0.4,0.1,0.3,0.4,0.8c0.1,0.1,0.3,0,0.5,0.1L58.8,61l0.3,0L59,61.3l0.2,0.1c0-0.1,0-0.2,0-0.2c0.2,0.1,0.4,0.6,0.3,0.6
							l0.6,0.4c-0.1,0-0.2,0-0.2,0c0.4,0.1-0.1,0.2,0.3,0.3c0-0.1,0.1-0.1,0.1-0.1c0,0.2,0.3,0.4,0.6,0.6L60.6,63
							c0.4,0.4,0.9,0.6,1.4,0.9c-0.1-0.2,0-0.3,0.2-0.2l0,0.2c0.2,0-0.1-0.2,0.1-0.2c0.2,0.1,0,0.3-0.1,0.2l0.3,0.1
							c0,0.1-0.1,0.1-0.1,0.1c0.1-0.1,0.3,0.4,0.5,0.3l0,0.1c0.5,0.3,0.8,0.3,1.2,0.5c0.1-0.1,0.2,0,0.4-0.1c0.3,0.2,0.6,0.4,1,0.5
							c0.3,0,0.1-0.1,0.3-0.2c0,0.1,0.4,0.2,0.1,0.3c0.5,0.1,0.6,0.1,1.2,0.1c-0.1-0.1-0.1-0.1-0.1-0.2c0.1,0,0.2,0.1,0.2,0.2l0,0
							c0.7-0.1,1.4,0.7,2,0.5l0,0l0.6-0.1c0.2,0.1-0.2,0.1,0,0.2c0.6-0.2,1,0.2,1.5,0c0.4,0.4,1.5-0.1,2.3-0.5l-0.1,0
							c0.1-0.2,0.2-0.1,0.3-0.2c-0.1,0-0.2,0.1-0.2,0c0.2-0.3,0.4-0.8,0.4-1.1c0-0.3,0.1-0.6,0.1-0.7c0.1-0.1,0.1-0.1,0.2-0.1
							c0.1,0,0.3-0.1,0.5-0.1c0.3,0,0.1-0.6,0.6-0.3l-0.1,0.2c0.8-0.3,1.6-0.1,2.4-0.2c0,0-0.1,0.1-0.1,0.1c0.2,0.1,0.6,0,0.6-0.1
							c0.1,0,0,0.1,0.1,0.2c0.2,0.1,0.4-0.1,0.5,0c0,0-0.1,0-0.1,0c0.1-0.1,0.5,0.1,0.4-0.1c0.3,0.1,0.6,0,0.8,0.1
							c0.2-0.2,0.5,0.2,0.6-0.1c-0.1,0.3,0.5,0.3,0.7,0.2c-0.1,0.1,0.1,0.1,0.1,0.2c0.2,0,0.4,0,0.4-0.1c0.3,0.4,0.8-0.1,1,0.4
							c0.7,0,1.3,0.1,1.9,0.1c-0.1,0.2-0.6-0.1-0.7,0.2c0.6,0,0.9-0.1,1.5,0.1c0.1,0.1-0.1,0.1-0.2,0.1c0.6,0,1.1,0.3,1.6,0.2
							c0,0-0.1,0-0.1,0c0.1,0,0.2,0.1,0.2,0l-0.1,0c-0.1-0.2,0.5-0.3,0.5-0.4c-0.2,0.3,0.5,0.2,0.1,0.5c0.1,0,0.2-0.1,0.2-0.1
							c0.1,0,0.1,0.1,0,0.2c0.4,0,0.3-0.1,0.6-0.1c0,0.1-0.1,0.1-0.1,0.1c0.2-0.1,0.4-0.2,0.6-0.1c0,0,0,0.1-0.1,0.1
							c0.5,0,0.8-0.2,1.3,0C89.6,65,90,64.9,90,65.1l0.3,0l-0.1-0.1c0.2,0,0.5-0.1,0.7,0L90.6,65l0.5,0l-0.3-0.1
							c0.2-0.1,0-0.3,0.3-0.2c-0.1,0,0.2,0,0.4,0.1l0,0c0.1-0.1,0.2-0.1,0.4-0.1c0,0.1,0,0.2,0,0.3c0.1-0.2,0.6-0.1,0.7-0.3
							c0,0.1,0,0.2,0,0.2l0.1-0.2c0.1,0,0.1,0,0.1,0.1c0.4,0-0.2-0.2,0.3-0.2c0,0,0,0-0.1,0.1c0.4,0,0.8-0.3,1.1-0.5
							c0.2,0.1-0.3,0.2-0.1,0.3c0.5-0.4,0.8-0.9,1.1-1.3l-0.1,0.1c-0.2-0.3,0.4-0.2,0.4-0.5c0,0.1,0.1,0.2,0.1,0.1
							c0.3-0.2,0.4-0.6,0.7-1l0,0.1c0.2-0.1,0.4-0.4,0.6-0.5c0-0.1,0.1-0.2-0.1-0.2c0.8-0.2,0.8-1.1,1.2-1c0,0-0.1,0.2,0,0.1
							l0.2-0.3c0-0.2,0-0.1,0-0.2c0-0.1,0.1-0.2,0.1-0.2c0,0,0-0.1,0.1-0.1c0,0,0,0,0,0.1l0,0c0,0,0,0,0,0c0,0-0.1,0.1-0.1,0.3
							c0,0.1,0,0.2,0,0.3c0-0.1,0-0.1,0.1-0.2c0,0.5,0.1-0.3,0.2,0.2l0,0.1c0.1,0.1,0.2,0.1,0.2,0.2c-0.1,0.2-0.1-0.1-0.2,0
							c0,0.1,0.4,0.1,0.4,0.4c-0.1-0.1-0.2-0.2-0.2-0.2c-0.1,0.2,0,0.3,0,0.4l0,0l0.2,0.4l0-0.1c0.5,0,0.4,0.4,0.9,0.5
							c-0.4-0.1-0.1,0.1-0.3,0.2c0,0.1,0.1,0.2,0,0.2c0.2,0,0.2,0.3,0.5,0.3c0,0.1,0.2,0.1,0,0.2c0.2,0.1,0-0.1,0.1-0.2
							c0.4,0.1,0.6,0.7,1.2,0.6c0.5,0.1,0.6-0.1,1-0.1c0.1,0.1-0.2,0.2-0.2,0.2c0.2,0.1,0.4,0.2,0.6,0.1c0,0,0,0.1,0,0.2
							c0.2,0,0.1-0.2,0.3-0.1c0,0.1-0.1,0.2-0.2,0.2c0.2,0,0.4-0.1,0.6-0.2c0.1,0.1-0.1,0.1-0.2,0.2c0.2,0,0.6-0.1,0.7-0.3l-0.1,0
							c0.1,0,0.1,0.1,0,0.2c-0.2,0.1-0.3,0-0.3-0.1l0.1,0c-0.1-0.3-0.6,0-0.9,0l0.1-0.2l-0.3,0.2c-0.1-0.1-0.1-0.2,0.1-0.2
							c-0.2-0.2-0.2,0.1-0.3-0.1c0,0,0,0,0,0l-0.2,0c0,0,0-0.2,0.1-0.1c-0.3-0.2-0.6,0-0.6-0.2l0,0c-0.5-0.1-0.1,0.2-0.5,0.2l0-0.5
							l-0.1,0.1c0,0-0.1-0.1-0.1-0.1c-0.2,0,0,0.1-0.2,0.1c-0.1-0.2-0.6-0.3-0.5-0.6c-0.1,0.1,0.1,0.2-0.1,0.1
							c0.1-0.3-0.3-0.1-0.3-0.4c0.2-0.1,0.2,0.1,0.2-0.1c-0.3,0.1-0.2-0.3-0.4-0.4c-0.2,0.1-0.3-0.2-0.5-0.4c0,0,0-0.1-0.1-0.4
							c-0.1-0.2-0.2-0.6-0.2-0.8l0,0c-0.2,0.2-0.2-0.1-0.3-0.3l0,0c0-0.1,0.1-0.2,0.1-0.3c0,0,0,0,0.1,0l0-0.1c0,0,0,0-0.1,0
							c-0.1,0.2-0.1,0.3-0.3,0.5l0.1-0.3c-0.3,0.3-0.5,0.8-0.9,1c0.1,0.1,0.4,0.2,0.2,0.5c-0.1-0.1-0.1-0.2-0.1-0.3
							c0,0,0,0.1-0.1,0.2c0,0,0-0.2,0-0.2c-0.2,0.1,0,0.2-0.1,0.3c-0.1-0.1-0.1,0-0.2-0.1c0,0,0.1-0.1,0.1-0.1
							c-0.2,0.1-0.3,0.2-0.4,0.2c0.1,0,0.1,0.1,0,0.2c-0.2,0.2-0.2,0-0.3,0c0,0.1-0.2,0.2,0,0.3c-0.1,0.1-0.1,0-0.2,0
							c0,0.2-0.4,0.5-0.2,0.5l0,0l0,0l0,0l0,0c-0.2,0.4-0.7,0.6-1,1l0,0c-0.1,0.2-0.4,0.5-0.4,0.7c-0.1,0.1-0.2,0.1-0.2,0
							c-0.1,0.2-0.1,0.2-0.4,0.4c0.1-0.2-0.1,0,0.1-0.2c-0.2,0.1-0.3,0.1-0.4,0.4c0-0.2-0.2,0-0.3,0l0.2,0c-0.1,0.1-0.2,0.1-0.3,0.2
							l0-0.2c-0.2,0-0.4,0.1-0.6,0.3c-0.2,0.1-0.4,0.2-0.6,0c-0.1,0.1,0.3,0.1,0.2,0.2c-0.2,0-0.5-0.3-0.6-0.3
							c-0.3-0.1-0.3,0.3-0.7,0.2c0,0.1,0.1,0.3-0.2,0.3c-0.3,0-0.3-0.3-0.1-0.3c0.1,0,0.1,0,0.1,0c0.1,0,0.2,0,0.1-0.1l0,0.1
							C91,64,90.6,64,90.7,63.9c-0.2,0.1-0.1,0.1,0,0.1c-0.3-0.1-0.5,0-0.8-0.1c0,0,0.1,0.1,0,0.1c-0.5-0.1-0.2,0.1-0.6,0.1
							c-0.2-0.1,0.1-0.2-0.2-0.2c-0.2-0.1,0-0.2,0.1-0.2c-0.3,0.1-0.5-0.2-0.7-0.2l0.2,0c-0.1,0-0.2,0-0.3,0l0.1,0.2
							c-0.1,0-0.2-0.1-0.2-0.1c-0.1,0.1,0,0.2-0.2,0.3c-0.1-0.1-0.4,0-0.4-0.2c0.4,0.1,0-0.2,0.3-0.2c-0.1,0-0.1,0-0.2,0
							c0,0,0,0,0,0c-0.3-0.2-0.2,0.2-0.6,0.1c0.1-0.1-0.1-0.2-0.1-0.2c0.2,0,0,0.2-0.1,0.2c-0.2-0.1-0.3,0-0.4,0l0.1,0.1
							c-0.1,0.1-0.2,0.1-0.4,0.1c0-0.1,0.2,0,0.1-0.1c-0.2,0.1-0.4-0.3-0.7-0.2c-0.1-0.1,0-0.2-0.1-0.3c-0.3,0.1-0.3-0.2-0.6-0.2
							c0.1,0.2,0.1,0.1-0.2,0.2l0.5,0l-0.4,0.1c0.2,0,0.3,0,0.4,0c-0.2,0.1-0.2,0-0.1,0.2c-0.2-0.2-0.4,0-0.7-0.2l0.1-0.3
							c-0.3-0.2-0.7,0-1.2-0.2l0.1,0.1c-0.1,0.1-0.3,0-0.5,0c0-0.1,0-0.2-0.1-0.3c0,0.1-0.4-0.1-0.4,0.1l-0.2-0.2
							c-0.4-0.1-0.5,0.2-0.9,0.1c0.1-0.1,0-0.2,0.3-0.2c-0.1,0-0.2-0.1-0.3,0c-0.1-0.1-0.4,0.1-0.5-0.1c-0.1,0-0.1,0.2-0.2,0.1
							c0,0,0-0.1,0-0.1c0,0.1-0.2,0-0.1,0.2c-0.3-0.4-1.1-0.2-1.4-0.5c-0.3,0-0.6,0-0.9,0c0,0,0-0.1,0.1,0c-0.3-0.1-0.3,0.3-0.6,0.1
							c-0.2-0.2,0.2-0.1,0.1-0.2c0-0.4-0.5,0-0.7-0.2l0.1,0c-0.2-0.1-0.5,0.1-0.9,0.1c0,0,0,0,0-0.1c-0.2,0.2-0.7,0.2-1,0.3
							c0.1-0.2,0.1-0.1,0.1-0.2c-0.1,0,0.1,0.2-0.2,0.3c-0.1-0.1-0.3-0.1-0.4-0.3l0.3,0c-0.2-0.2-0.4,0-0.5,0l0-0.1
							c-0.4,0.1-0.4,0.3-0.9,0.4l0.1,0.1c-0.2,0.3-0.3-0.1-0.4,0.2l-0.2-0.2c-0.2,0.1-0.4,0.6-0.5,1c-0.1-0.2,0.1-0.7,0.2-0.9
							c-0.2,0.1-0.5,0.6-0.4,0.8c0-0.1,0-0.2,0.1-0.3c0,0.3,0,0.6,0,1c-0.2,0-0.2,0.2-0.3,0.4c0,0.2-0.1,0.4-0.3,0.3
							c0,0.4-0.5,0.4-1,0.4c0.2,0.3-0.2,0-0.1,0.4c-0.1,0-0.2,0-0.2,0c0,0-0.1-0.1-0.2-0.1C70.8,65,70.7,65,70.7,65
							c-0.1-0.1,0.1-0.1,0.1-0.2c-0.3,0-0.1-0.2-0.3-0.3c0,0.1-0.1,0.2-0.3,0.1l0.2,0.2c-0.4,0.1-0.3-0.3-0.8-0.2l0.2-0.1
							c-0.2,0-0.9-0.1-1.1,0.1c0,0-0.1-0.2,0-0.2c-0.5-0.1-1.3,0.1-1.7-0.2l0.1-0.1c-0.1,0-0.2,0.1-0.3,0c0,0,0.1-0.1,0-0.1
							c-0.1,0-0.3,0.1-0.4,0l0.1-0.1c-0.5-0.2-0.9,0-1.3-0.1c0.1-0.2-0.3-0.5-0.5-0.6l0,0c-0.6-0.2-1-0.2-1.6-0.4
							c-0.2-0.4-1-0.7-1.3-1.2c0,0.1-0.1,0.1-0.2,0.1c-0.1-0.1-0.4-0.1-0.2-0.3l0,0c0.1-0.2-0.2-0.4-0.3-0.5l-0.2,0.2
							c-0.1-0.7-1.2-1-1.2-1.5c-0.2,0-0.3-0.2-0.5-0.2l0.1-0.1c-0.3-0.3-0.4-0.5-0.9-0.8l0.2,0c-0.2-0.2-0.6,0.2-0.8,0l0.1-0.2
							c-0.4-0.3-0.9-0.7-1.4-0.7c0,0,0.1-0.1,0.1-0.1c-0.2-0.1-0.9-0.5-0.9-0.1c0.1-0.2-0.5-0.2-0.8-0.1l0.1-0.1
							c-0.3,0.2-0.3,0.2-0.6,0.2c-0.1,0,0-0.1,0-0.1c-0.2-0.1-0.2,0.1-0.5,0l0.1-0.1c-0.3,0-0.2,0-0.4,0.1c-0.2,0.1-0.5-0.1-0.5-0.2
							c0,0.1-0.2,0.2-0.3,0.2c0-0.1,0-0.1,0.1-0.1c-0.4-0.1-0.6,0.2-0.9,0c0-0.1,0-0.1-0.1-0.1c0.3,0,0.6,0,0.6,0
							c0-0.1-0.3-0.2-0.1-0.4c-0.2,0.1-0.6,0.4-0.9,0.3c0,0,0,0,0,0l0,0c-0.1,0-0.1,0-0.2,0c-0.1,0-0.1,0-0.2,0c0-0.1-0.3,0-0.5,0
							c0,0.2-0.2,0.2,0,0.3c0,0,0,0,0.1,0c0,0,0,0,0.1,0l0,0c0.1,0,0.2,0,0.3,0c-0.1,0.1-0.2,0.2-0.4,0.1c-0.1,0.1-0.1,0.2-0.2,0.3
							c-0.2-0.2-0.6-0.3-0.6-0.4c-0.4,0.1-1,0.2-1.2,0.5c-0.1,0.1-0.1-0.1-0.2-0.1c0.1,0,0.1,0,0.2-0.1c-0.2,0.1-0.7,0.1-0.7,0.3
							c-0.3-0.1,0.1-0.2-0.3-0.1l0-0.1c-0.8-0.2-1.2,0.7-2.1,0.5c0.1,0,0.1,0,0.1,0.1c-1,0-2,0.6-3,0.5c-0.3,0-0.3,0.1-0.4,0.3
							L42.4,59l-0.2,0.3c-0.4,0.2-0.8-0.2-1.2,0.2l0.1,0.1c-0.2,0-0.6,0.2-0.6,0.1c0,0,0,0.1-0.1,0.1l0-0.1l-0.4,0.3
							c-0.4,0,0-0.4-0.6-0.2c-0.2,0.1-0.5,0.4-0.4,0.4c0.1,0,0.2,0,0.2,0.1L39,60.2c0,0.3,0,0.6,0.5,0.6l0.2-0.2l0.1,0.1l-0.2,0.1
							c0.2,0.1,0.2-0.1,0.3-0.1c0,0.1,0.1,0.1,0.2,0.1l0.2-0.3c0.1,0.1-0.1,0.2,0.1,0.2c0.1-0.2-0.2-0.2,0-0.3
							c0.2,0.1,0.2,0.2,0.3,0c0,0.1,0,0.1,0,0.2c0.1-0.1,0.4-0.1,0.4-0.3c0.2,0.1,0.5-0.2,0.5,0.1c0-0.1,0.2-0.3,0.3-0.3
							c-0.2,0.4,0.5-0.1,0.5,0.2c0.1-0.3,0.6-0.3,0.9-0.5c0,0,0,0.1-0.1,0.1c0.2,0,0.3,0,0.4,0.1c0-0.2,0.2-0.3,0.4-0.5
							c0.3,0.2-0.1,0.3,0,0.5c0-0.2,0.4-0.3,0.2-0.4c0.2,0.1,0.2,0,0.3,0.2c0-0.3,0.1-0.1,0.3-0.3c0.3,0.1,0.1,0.2,0.4,0.1
							C45.5,59.6,45.2,59.7,45.2,59.7z M51.7,58.3L51.7,58.3c-0.1,0-0.1,0-0.1,0C51.6,58.4,51.6,58.4,51.7,58.3z M52.2,58.3
							c-0.1,0-0.1,0-0.2,0c0-0.1,0-0.1,0.1-0.1C52,58.2,52.2,58.3,52.2,58.3z M51,57.3c0.1,0,0.1,0,0.1,0C51.1,57.3,51,57.3,51,57.3
							L51,57.3C51,57.3,51,57.3,51,57.3z"/>
						<path fill="#202020" d="M50.9,57.5C50.8,57.5,50.8,57.5,50.9,57.5C50.8,57.5,50.9,57.5,50.9,57.5L50.9,57.5L50.9,57.5z"/>
						<path fill="#202020" d="M96.3,61.5L96.3,61.5C96.3,61.5,96.3,61.5,96.3,61.5C96.3,61.5,96.3,61.5,96.3,61.5z"/>
						<polygon fill="#202020" points="58.8,61 58.8,61 58.7,61 						"/>
						<path fill="#202020" d="M98.4,60.3C98.3,60.3,98.3,60.3,98.4,60.3C98.3,60.3,98.3,60.3,98.4,60.3z"/>
						<path fill="#202020" d="M98.7,61.2l0.1,0.2C98.8,61.3,98.8,61.2,98.7,61.2z"/>
						<path fill="#202020" d="M99.4,62.1C99.4,62.1,99.4,62.1,99.4,62.1L99.4,62.1L99.4,62.1z"/>
						<path fill="#202020" d="M86.6,64.6C86.6,64.6,86.5,64.6,86.6,64.6C86.4,64.6,86.5,64.6,86.6,64.6z"/>
						<path fill="#202020" d="M91.5,64.8c-0.1,0-0.1,0.1-0.2,0.1C91.4,64.9,91.5,64.9,91.5,64.8z"/>
						<polygon fill="#202020" points="81.2,63.6 81.2,63.6 81.2,63.6 						"/>
						<path fill="#202020" d="M91.1,64.9c0.1,0,0.2,0,0.2,0C91.3,64.9,91.2,64.8,91.1,64.9z"/>
						<path fill="#202020" d="M103.7,63.8L103.7,63.8C103.8,63.8,103.8,63.8,103.7,63.8L103.7,63.8z"/>
						<path fill="#202020" d="M103.8,63.8L103.8,63.8C103.8,63.8,103.8,63.8,103.8,63.8z"/>
						<path fill="#202020" d="M104,63.8l-0.1,0C103.9,63.8,104,63.8,104,63.8z"/>
						<path fill="#202020" d="M102.3,63.7L102.3,63.7C102.3,63.7,102.3,63.7,102.3,63.7z"/>
						<path fill="#202020" d="M101.8,63.6c0.1,0,0.2,0.2,0.4,0.2l0,0C102.2,63.8,102,63.5,101.8,63.6z"/>
						<path fill="#202020" d="M100.6,62.2c0,0,0.3,0.2,0.3,0.2c0-0.1,0-0.2,0.1-0.1C100.7,61.9,100.9,62.4,100.6,62.2z"/>
						<path fill="#202020" d="M99.9,61.4C100,61.5,99.9,61.4,99.9,61.4C99.9,61.3,99.8,61.3,99.9,61.4z"/>
						<path fill="#202020" d="M94.5,63.1L94.4,63C94.3,63.1,94.4,63,94.5,63.1z"/>
						<polygon fill="#202020" points="93.7,64.6 93.9,64.6 93.9,64.5 						"/>
						<polygon fill="#202020" points="92.6,63.9 92.7,63.8 92.5,63.9 						"/>
						<path fill="#202020" d="M80,61.9l0,0.2C80.1,62.1,80.2,61.9,80,61.9z"/>
						<path fill="#202020" d="M74.2,62c-0.1-0.1-0.3-0.1-0.4,0.1C74,62,74.1,62,74.2,62z"/>
						<polygon fill="#202020" points="60.8,61 61,61.1 60.8,61 						"/>
					</g>
				</g>
			</g>
		</g>
	</g>
	<g>
		<g>
			<g>
				<g>
					<g>
						<path fill="#202020" d="M51.4,75.8C51.4,75.8,51.3,75.8,51.4,75.8L51.4,75.8L51.4,75.8z"/>
						<path fill="#202020" d="M51.2,75.9c0,0,0.1,0,0.2,0C51.3,75.9,51.4,75.9,51.2,75.9c0,0,0.1-0.1,0.1-0.1
							C51.3,75.9,51.4,75.9,51.2,75.9C51.2,75.9,51.2,75.9,51.2,75.9C51.3,75.9,51.2,75.9,51.2,75.9z"/>
						<path fill="#202020" d="M52.1,77.8L52.1,77.8C52.1,77.8,52.1,77.8,52.1,77.8z"/>
						<path fill="#202020" d="M53.3,78.3C53.3,78.3,53.3,78.3,53.3,78.3C53.3,78.3,53.3,78.3,53.3,78.3z"/>
						<path fill="#202020" d="M53.6,78.4L53.6,78.4C53.6,78.4,53.6,78.4,53.6,78.4z"/>
						<path fill="#202020" d="M52.1,77.8L52.1,77.8C52.1,77.8,52.1,77.8,52.1,77.8z"/>
						<path fill="#202020" d="M51.5,76.2C51.5,76.2,51.5,76.2,51.5,76.2C51.5,76.2,51.5,76.2,51.5,76.2L51.5,76.2z"/>
						<path fill="#202020" d="M51.6,77.4L51.6,77.4C51.6,77.4,51.6,77.4,51.6,77.4L51.6,77.4z"/>
						<path fill="#202020" d="M51.3,77.1c0,0,0.1,0,0.1,0C51.4,77,51.4,77,51.3,77.1C51.3,77,51.3,77,51.3,77.1z"/>
						<path fill="#202020" d="M51.2,76.3L51.2,76.3L51.2,76.3z"/>
						<path fill="#202020" d="M51.8,77.7C51.8,77.7,51.8,77.7,51.8,77.7L51.8,77.7z"/>
						<path fill="#202020" d="M51.6,75.4C51.6,75.4,51.6,75.4,51.6,75.4C51.6,75.4,51.6,75.4,51.6,75.4z"/>
						<polygon fill="#202020" points="51.2,75.8 51.2,75.8 51.1,75.8 						"/>
						<path fill="#202020" d="M54,78.4L54,78.4C54,78.5,54,78.4,54,78.4z"/>
						<path fill="#202020" d="M56.1,75.2c-0.1,0.1-0.1-0.1-0.2,0C55.9,75.3,56,75.3,56.1,75.2z"/>
						<path fill="#202020" d="M51.5,76.2L51.5,76.2C51.5,76.2,51.5,76.2,51.5,76.2z"/>
						<polygon fill="#202020" points="55.9,75.3 55.9,75.3 55.9,75.3 						"/>
						<path fill="#202020" d="M55,78C55,78,55,78,55,78C55,78,55,78,55,78z"/>
						<path fill="#202020" d="M54.3,78.2L54.3,78.2C54.3,78.2,54.3,78.2,54.3,78.2z"/>
						<path fill="#202020" d="M55.2,77.6C55.2,77.6,55.2,77.7,55.2,77.6L55.2,77.6C55.2,77.6,55.2,77.7,55.2,77.6z"/>
						<polygon fill="#202020" points="55.5,77.4 55.5,77.3 55.5,77.4 						"/>
						<path fill="#202020" d="M52,74.5L52,74.5C52,74.5,52,74.6,52,74.5z"/>
						<path fill="#202020" d="M51.4,76.2C51.5,76.2,51.5,76.2,51.4,76.2L51.4,76.2C51.5,76.2,51.4,76.2,51.4,76.2z"/>
						<path fill="#202020" d="M54.8,77.2L54.8,77.2C54.8,77.2,54.8,77.2,54.8,77.2z"/>
						<path fill="#202020" d="M54,73.9L54,73.9C54,73.9,54,73.9,54,73.9z"/>
						<path fill="#202020" d="M54.9,77C55,77,55,77.1,54.9,77C55,77,55,77,54.9,77L54.9,77z"/>
						<path fill="#202020" d="M51.9,74.5L51.9,74.5L51.9,74.5z"/>
						<path fill="#202020" d="M51.9,74.9c0,0-0.1-0.1-0.1-0.1C51.8,74.7,51.9,74.8,51.9,74.9c0-0.1-0.1-0.2,0-0.2c0,0,0,0,0,0
							c0-0.1,0.1-0.1,0-0.2l0,0c0,0-0.1-0.1-0.1-0.1c0,0,0-0.1,0,0c0,0,0,0,0,0l0,0c0.1,0,0,0,0.1,0.1c0-0.1,0-0.2,0-0.2
							c0.1,0.1,0,0.1,0.1,0.1l-0.1,0c0.1,0.1,0,0,0.1,0.1c0.1,0,0-0.1,0.1-0.1c0,0-0.1-0.1-0.1-0.1c0-0.1,0.2,0.1,0.2,0
							c0-0.1-0.1-0.2,0-0.1l0.1,0.1c0.1,0-0.1-0.2,0-0.1c0,0,0,0.1,0,0.1c0.1,0,0-0.1,0-0.1l0.1,0.1c0.1,0,0.1-0.2,0.1-0.2
							c0,0,0,0.1,0,0.1c0.1-0.1,0.2-0.1,0.3-0.1l0-0.1c0,0,0,0,0,0.1c0,0,0-0.1,0-0.1c0,0,0,0,0,0.1c0-0.1,0.1-0.2,0.2-0.1l0,0
							c0.1,0,0-0.2,0.1-0.1l0,0c0.1,0,0.3-0.1,0.3,0.1c0-0.1,0.1,0.1,0.1-0.1c0.1,0.1,0,0.1,0.1,0.2c0,0,0.1-0.1,0.1-0.1l0,0.1
							l0.1-0.1l0,0.1l0,0c0,0,0,0,0-0.1c0.1,0,0.1,0.1,0.1,0.1l0.1,0c0,0,0,0-0.1,0.1c0.1-0.1,0,0.1,0.1,0c0,0,0,0,0-0.1
							c0,0.1,0.1,0.1,0.1,0.1l0,0.1c0.1,0,0.2,0.1,0.2,0.1c0,0,0.1-0.1,0.1-0.1l0,0.1c0,0,0,0,0.1-0.1c0,0,0,0.1-0.1,0.1l0.1,0
							c0,0,0,0-0.1,0.1c0,0,0,0.1,0.1,0l0,0c0.1,0,0.1,0.1,0.2,0.1c0.1-0.1,0.1,0,0.1-0.1c0,0.1,0,0.1,0.1,0.2c0.1,0,0.1,0,0.1,0
							c-0.1,0,0,0.1-0.1,0.1c0.1,0.1,0.1,0.1,0.2,0.1c0,0,0,0,0-0.1c0,0,0,0.1,0,0.1l0,0c0.2,0-0.1,0.3,0.1,0.3l0,0l0.1,0.1
							c0,0-0.1,0-0.1,0c0.2,0.1,0,0.2,0.1,0.2c-0.2,0.1,0.1,0.2-0.1,0.3l0.1,0c0.1,0,0,0,0,0c0,0,0,0,0.1,0c0.1,0.2-0.1,0.4-0.2,0.5
							c0,0.1,0.2,0.1,0.1,0.2l-0.1-0.1c0.1,0.2-0.1,0.3-0.1,0.4c0,0,0,0,0,0c-0.1,0-0.1,0.1,0,0.1c0,0,0,0-0.1,0c0,0,0,0.1,0,0.1
							c0,0,0,0,0,0c0,0-0.1,0.1,0,0.1c-0.1,0,0,0.1-0.1,0.1c0,0.1-0.1,0,0,0.1c-0.1-0.1-0.1,0-0.1,0.1c0,0,0,0-0.1-0.1
							c0,0,0,0.1,0,0.1c-0.1-0.1,0,0.2-0.2,0.1c0,0.1-0.1,0.2-0.2,0.3c-0.1-0.1,0.1-0.1,0-0.2c0,0.1-0.1,0.2-0.2,0.2
							c0,0,0-0.1,0-0.1c-0.1,0.1-0.2,0.1-0.2,0.1c0,0,0,0,0,0c0,0,0,0,0,0l0,0c0.1,0.1,0,0.2,0,0.2c0-0.2-0.1,0-0.1-0.2
							c0,0,0,0,0,0.1c0,0,0,0,0-0.1c-0.1,0,0,0.1-0.1,0.1c0,0,0,0,0-0.1c0,0.1,0,0.1-0.1,0.1c0,0,0,0,0,0c-0.1,0-0.1,0.2-0.2,0.1
							c0-0.1,0,0,0-0.1l0,0l0,0.1c0,0-0.1,0.1-0.1,0l0,0l-0.1,0l0,0c0,0.1,0,0.1-0.1,0.1c0,0,0,0-0.1-0.1l0,0c0,0-0.1,0.1-0.1,0
							c0,0,0-0.1,0-0.1c0,0.1-0.1,0-0.1,0.1c0,0,0-0.1,0-0.1l0,0.1c0,0,0,0,0-0.1c-0.1,0,0,0.1-0.1,0.1c0,0,0,0,0,0
							c-0.1,0-0.1,0-0.2,0c0-0.1,0.1,0,0.1-0.1c-0.1,0-0.2,0.1-0.3,0l0,0c-0.1,0.1,0-0.1-0.1-0.1c0,0,0.1-0.1,0-0.1
							c0-0.1-0.1,0-0.2,0l0,0c0-0.1-0.1-0.1-0.1-0.1c0,0,0,0-0.1,0.1c0.1-0.2-0.3-0.1-0.2-0.3c0,0,0,0,0,0l-0.1,0c0,0,0,0,0,0.1
							c0,0-0.1,0-0.1,0c0.1,0,0.1-0.1,0.1-0.1c0,0,0,0-0.1,0c0.1-0.1-0.1,0.1-0.1,0l0,0c0,0-0.1,0-0.1,0c0.1-0.1,0,0,0.1,0
							c0,0-0.2,0-0.1-0.1c0,0,0,0,0.1,0c0.1-0.1,0-0.1,0-0.1l0,0l0-0.1l0,0c-0.2,0.1-0.1-0.1-0.2-0.1c0.1,0,0.1,0,0.1-0.1
							c0,0,0-0.1,0.1-0.1c-0.1,0,0-0.1-0.1-0.1c0,0,0,0,0.1-0.1c0,0,0,0-0.1,0c-0.1,0,0.1-0.2-0.1-0.2c-0.1-0.1-0.2,0-0.2-0.1
							c0,0,0.1,0,0.1,0c0,0,0-0.1,0-0.1c0,0,0,0,0.1,0c0,0-0.1,0-0.1,0c0,0,0.1,0,0.1,0c0,0-0.1-0.1-0.1-0.1c0,0,0.1,0,0.1,0
							c0,0-0.1-0.1-0.1-0.1l0,0c0,0,0.1,0,0.1,0c0.1,0,0,0.1,0,0.1l0,0c-0.2,0,0,0.1,0,0.2l-0.1,0l0.1,0c0,0-0.1,0-0.1,0
							c-0.1,0.1,0,0,0,0.1c0,0,0,0,0,0l0,0c0,0-0.1,0-0.1,0c0,0.1,0.1,0.1,0,0.1l0,0c0.1,0.1,0.1,0,0.2,0l-0.2,0.1l0.1,0
							c0,0,0,0,0,0c0.1,0,0,0,0.1,0c-0.1,0.1,0.1,0.1,0,0.2c0.1,0,0-0.1,0.1,0c-0.1,0.1,0,0,0,0.1c-0.1,0-0.1,0-0.1,0
							c0.1,0,0,0.1,0.1,0.1c0.1-0.1,0.1,0,0.1,0.1c0,0,0,0.1,0,0.2l0,0c0.1-0.1,0.1,0,0.2,0c0,0-0.1,0.1-0.1,0l0,0c0,0,0.1,0,0.1,0
							l-0.1,0c0,0,0.1,0,0.2,0.1c0.1-0.1,0.1-0.2,0.2-0.2c0,0-0.1,0.1-0.1,0.1c0,0,0,0,0,0l-0.1,0c0,0,0.1,0,0.1,0c0,0,0,0,0,0.1
							c0,0,0,0,0,0c0,0,0,0.1,0,0.1c0,0,0.1-0.1,0.1,0c0,0,0,0.1,0,0.1c0,0,0,0,0.1,0c0,0,0,0,0,0.1c0,0,0.1,0.1,0.1,0l0,0l0,0l0,0
							l0,0c0.1,0,0.1,0.1,0.2,0.2l0,0c0.1,0,0.1,0,0.2,0c0,0,0,0.1,0,0.1c0,0,0.1,0,0.1,0c-0.1,0,0,0-0.1,0c0,0,0,0.1,0.1,0
							c0,0.1,0,0.1,0,0.1l0-0.1c0,0,0.1,0,0.1,0l0,0.1c0.1,0.1,0.3-0.1,0.3,0.1c0-0.1-0.1-0.1,0-0.1c0,0,0.1,0.2,0.1,0.2
							c0.1,0.1,0.1-0.1,0.2-0.1c0,0,0-0.1,0.1-0.2c0,0,0.1,0.1,0,0.2c0,0,0,0,0,0c0,0,0,0,0,0.1l0,0c0,0,0.1,0,0.1,0.1
							c0,0,0-0.1,0-0.1c0.1,0.1,0.1,0,0.2,0c0,0,0-0.1,0-0.1c0.1,0,0-0.1,0.1-0.1c0,0,0,0.1,0.1,0.1c0,0,0,0.1,0,0.1
							c0.1-0.1,0.1,0,0.2,0l0,0c0,0,0,0,0.1,0l0-0.1c0,0,0,0,0,0c0,0,0-0.1,0-0.2c0,0,0.1,0,0.1,0c-0.1,0,0,0.1,0,0.1c0,0,0,0,0.1,0
							c0,0,0,0,0,0c0.1,0.1,0-0.1,0.1-0.1c0,0.1,0,0.1,0.1,0.1c0,0,0-0.1,0-0.1c0.1,0,0,0,0.1,0l0,0c0-0.1,0-0.1,0.1-0.1
							c0,0,0,0,0,0c0-0.1,0.1,0.1,0.2,0c0,0,0,0.1,0.1,0.1c0-0.1,0.1,0,0.1,0c0-0.1,0,0,0-0.1l-0.1,0.1l0-0.1c0,0,0,0.1-0.1,0.1
							c0-0.1,0,0,0-0.1c0.1,0.1,0.1-0.1,0.1-0.1l0.1,0.2c0.1,0,0.1-0.1,0.2-0.2l0,0c0-0.1,0.1,0,0.1-0.1c0,0,0.1,0.1,0.1,0.1
							c0,0,0.1,0,0-0.1l0.1,0c0.1,0,0-0.2,0-0.2c0,0.1,0.1,0.1,0.1,0.1c0,0,0,0,0-0.1c0,0,0-0.1,0.1-0.1c0,0,0-0.1,0-0.1
							c0,0,0,0,0,0c0,0,0-0.1-0.1-0.1c0.2,0.1,0.1-0.2,0.3-0.1c0-0.1,0-0.1,0.1-0.2c0,0,0,0,0,0c0.1,0-0.1-0.1,0-0.2
							c0.1,0,0,0.1,0.1,0.1c0.2,0.1,0-0.1,0.2-0.1l0,0c0.1,0,0-0.1,0-0.2c0,0,0,0,0,0c-0.1-0.1-0.1-0.2-0.1-0.2c0.1,0,0,0,0.1,0.1
							c0,0-0.1,0-0.1-0.1c0,0,0.1,0,0.2,0l0,0.1c0.1,0,0-0.1,0-0.1l0,0c0-0.1-0.1-0.1-0.1-0.2l0,0c-0.1-0.1,0.1,0,0-0.1l0.1,0
							c0,0-0.1-0.1-0.1-0.2c0.1,0,0.1,0.1,0.2,0.2c0,0,0-0.1,0-0.1c0,0,0,0,0,0c-0.1-0.1-0.1-0.1-0.1-0.2c0.2,0,0.1-0.2,0.2-0.2
							c-0.1-0.1,0-0.2,0-0.4c-0.2,0.1,0,0-0.2,0c0,0,0,0,0,0l0.1-0.1c0,0,0,0,0.1,0c0-0.1,0.1,0,0.1-0.1c-0.1,0-0.1,0-0.1,0L56,75.1
							c-0.1-0.1,0.1-0.1,0-0.2l0.1,0c0,0-0.1-0.2-0.2-0.2c0,0,0.1,0,0.1,0c0-0.1-0.3-0.2-0.2-0.3l0,0c0,0-0.1,0-0.1,0c0,0,0,0,0,0
							c0,0-0.1,0-0.1,0l0.1,0c0-0.1-0.2-0.1-0.3-0.1c0.1-0.1,0.1-0.2,0-0.2l0,0c-0.1-0.1-0.3-0.1-0.4-0.1c0-0.2-0.2-0.2-0.3-0.3
							c0,0,0,0.1-0.1,0.1c0,0-0.1,0-0.1-0.1l0,0c0-0.1,0-0.1-0.1-0.1l-0.1,0.1c0-0.3-0.3,0-0.4-0.2c0,0-0.1,0-0.1,0.1l0-0.1
							c-0.1,0-0.1-0.1-0.2,0l0-0.1c-0.1,0-0.1,0.2-0.2,0.2l0-0.1c-0.1,0-0.2-0.1-0.3,0c0,0,0-0.1,0-0.1c-0.1,0-0.2-0.1-0.2,0.1
							c0-0.1-0.1,0-0.2,0.1l0-0.1c0,0.1,0,0.1-0.1,0.2c0,0,0-0.1,0,0c-0.1,0,0,0.1-0.1,0.1l0-0.1c-0.1,0,0,0-0.1,0.1
							c0,0-0.1,0-0.1-0.1c0,0,0,0.1,0,0.1c0,0,0,0,0-0.1c-0.1,0-0.1,0.1-0.2,0.1c0,0,0,0,0,0c0.1,0,0.1-0.1,0.1,0
							c0-0.1-0.1-0.1-0.1-0.2c0,0.1,0,0.2-0.1,0.2c0,0,0,0,0,0l0,0c0,0,0,0,0,0c0,0,0,0-0.1,0c0,0-0.1,0-0.1,0c0,0.1,0,0.1,0.1,0.1
							c0,0,0,0,0,0c0,0,0,0,0,0l0,0c0,0,0,0,0.1,0c0,0,0,0.1-0.1,0.1c0,0.1,0,0.1,0,0.1c-0.1-0.1-0.2-0.1-0.2-0.1
							c0,0.1-0.2,0.1-0.1,0.3c0,0,0,0-0.1,0c0,0,0,0,0-0.1c0,0.1-0.1,0.1,0,0.2c-0.1,0,0-0.1-0.1,0l0,0c-0.2,0,0,0.4-0.3,0.4
							c0,0,0,0,0,0c-0.2,0.1-0.1,0.4-0.3,0.5c0,0,0,0.1,0,0.1l-0.1,0l0.1,0.1c0.1,0.1-0.3,0.1-0.1,0.2l0.1,0c0,0,0,0.1-0.1,0.1
							c0,0,0.1,0,0,0l0,0l0.1,0.1c0,0.1-0.2,0-0.2,0.1c0,0,0.1,0.1,0.2,0.1c0,0,0,0,0.1,0l0,0c0.1,0,0.3,0,0.4,0l-0.1-0.1l0.1,0l0,0
							c0.1,0,0,0,0-0.1c0,0,0.1,0,0.1,0l-0.1-0.1c0.1,0,0.1,0,0.1,0c-0.1,0-0.1,0-0.2,0c0.1,0,0.1,0,0.1,0c0,0,0.1,0,0.1,0
							c0,0,0-0.1-0.1-0.1c0.1,0,0-0.1,0.1-0.1c0,0-0.1-0.1-0.1-0.1c0.1,0.1,0-0.1,0.2,0c-0.1-0.1,0-0.1-0.1-0.2c0,0,0,0,0,0
							c0,0,0.1,0,0.1,0c-0.1,0-0.1-0.1-0.2-0.2c0.1,0,0.1,0.1,0.2,0.1c-0.1,0-0.1-0.1-0.1-0.1c0.1,0,0,0,0.1,0c-0.1-0.1,0,0-0.1-0.1
							C51.8,74.8,51.9,74.9,51.9,74.9C51.9,74.8,51.9,74.9,51.9,74.9z M52.5,73.9L52.5,73.9C52.5,74,52.5,74,52.5,73.9
							C52.5,74,52.5,74,52.5,73.9z M52.6,73.9C52.6,73.9,52.6,73.9,52.6,73.9C52.6,73.9,52.6,73.9,52.6,73.9
							C52.6,73.9,52.6,73.9,52.6,73.9z M52.2,73.5C52.2,73.5,52.2,73.5,52.2,73.5C52.2,73.5,52.2,73.5,52.2,73.5L52.2,73.5
							C52.2,73.5,52.2,73.5,52.2,73.5z"/>
						<polygon fill="#202020" points="52.2,73.6 52.2,73.6 52.2,73.6 52.2,73.6 						"/>
						<polygon fill="#202020" points="52.1,77.8 52.1,77.8 52.1,77.8 						"/>
						<polygon fill="#202020" points="53.9,73.9 53.9,73.9 53.9,73.9 						"/>
						<path fill="#202020" d="M51.8,77.2L51.8,77.2C51.8,77.1,51.8,77.1,51.8,77.2z"/>
						<path fill="#202020" d="M51.7,76.9L51.7,76.9C51.7,76.9,51.7,76.9,51.7,76.9z"/>
						<path fill="#202020" d="M51.7,76.8C51.6,76.8,51.6,76.8,51.7,76.8L51.7,76.8L51.7,76.8z"/>
						<path fill="#202020" d="M54.1,77.7L54.1,77.7C54.1,77.7,54.1,77.7,54.1,77.7z"/>
						<path fill="#202020" d="M53.2,78C53.3,78,53.3,77.9,53.2,78C53.3,77.9,53.3,77.9,53.2,78z"/>
						<polygon fill="#202020" points="54.8,77.2 54.8,77.2 54.8,77.2 						"/>
						<path fill="#202020" d="M53.3,77.9C53.3,77.9,53.3,77.9,53.3,77.9C53.3,77.9,53.3,77.9,53.3,77.9z"/>
						<path fill="#202020" d="M51.5,76L51.5,76C51.5,76,51.5,76,51.5,76L51.5,76z"/>
						<path fill="#202020" d="M51.5,76L51.5,76C51.4,76,51.4,76,51.5,76z"/>
						<path fill="#202020" d="M51.4,76L51.4,76C51.4,76,51.4,76,51.4,76z"/>
						<path fill="#202020" d="M51.5,76.3L51.5,76.3C51.5,76.3,51.5,76.3,51.5,76.3z"/>
						<path fill="#202020" d="M51.5,76.3C51.5,76.3,51.5,76.3,51.5,76.3L51.5,76.3C51.5,76.3,51.4,76.3,51.5,76.3z"/>
						<path fill="#202020" d="M51.3,76.8L51.3,76.8C51.2,76.7,51.2,76.7,51.3,76.8C51.1,76.8,51.2,76.7,51.3,76.8z"/>
						<path fill="#202020" d="M51.3,77C51.3,77,51.3,77,51.3,77C51.3,77,51.3,77,51.3,77z"/>
						<path fill="#202020" d="M52.5,78.1L52.5,78.1C52.5,78.1,52.5,78.1,52.5,78.1z"/>
						<polygon fill="#202020" points="52.9,77.8 52.9,77.8 52.8,77.8 						"/>
						<polygon fill="#202020" points="52.9,78.4 52.9,78.4 53,78.4 						"/>
						<path fill="#202020" d="M55.5,77.5L55.5,77.5C55.4,77.4,55.5,77.5,55.5,77.5z"/>
						<path fill="#202020" d="M56,76.3C56,76.3,56,76.3,56,76.3C56,76.3,55.9,76.3,56,76.3z"/>
						<polygon fill="#202020" points="54.4,73.3 54.5,73.3 54.4,73.3 						"/>
					</g>
				</g>
			</g>
		</g>
	</g>
	<g>
		<g>
			<g>
				<g>
					<g>
						<path fill="#202020" d="M72.5,80.8C72.5,80.8,72.5,80.8,72.5,80.8L72.5,80.8L72.5,80.8z"/>
						<path fill="#202020" d="M72.5,80.9c0,0,0.1,0,0.1,0C72.5,80.9,72.5,80.9,72.5,80.9C72.5,80.8,72.5,80.8,72.5,80.9
							C72.5,80.8,72.5,80.8,72.5,80.9C72.5,80.8,72.5,80.8,72.5,80.9C72.5,80.9,72.5,80.9,72.5,80.9z"/>
						<path fill="#202020" d="M72.9,81.7L72.9,81.7L72.9,81.7z"/>
						<path fill="#202020" d="M73.4,81.9L73.4,81.9C73.4,82,73.4,81.9,73.4,81.9z"/>
						<path fill="#202020" d="M73.6,82L73.6,82L73.6,82z"/>
						<path fill="#202020" d="M72.9,81.7L72.9,81.7C72.9,81.7,72.9,81.7,72.9,81.7z"/>
						<path fill="#202020" d="M72.6,81C72.6,81,72.6,81,72.6,81L72.6,81L72.6,81z"/>
						<polygon fill="#202020" points="72.6,81.6 72.6,81.5 72.6,81.6 						"/>
						<path fill="#202020" d="M72.5,81.4C72.5,81.4,72.5,81.4,72.5,81.4C72.5,81.4,72.5,81.4,72.5,81.4
							C72.5,81.4,72.5,81.4,72.5,81.4z"/>
						<path fill="#202020" d="M72.4,81L72.4,81L72.4,81z"/>
						<path fill="#202020" d="M72.7,81.7C72.7,81.7,72.7,81.7,72.7,81.7L72.7,81.7z"/>
						<path fill="#202020" d="M72.7,80.6L72.7,80.6L72.7,80.6z"/>
						<polygon fill="#202020" points="72.4,80.8 72.4,80.8 72.4,80.8 						"/>
						<path fill="#202020" d="M73.8,82L73.8,82C73.8,82,73.8,82,73.8,82z"/>
						<path fill="#202020" d="M74.7,80.5C74.7,80.6,74.7,80.5,74.7,80.5C74.7,80.5,74.7,80.6,74.7,80.5z"/>
						<path fill="#202020" d="M72.6,81L72.6,81L72.6,81z"/>
						<polygon fill="#202020" points="74.6,80.6 74.6,80.6 74.6,80.6 						"/>
						<path fill="#202020" d="M74.2,81.8C74.2,81.8,74.2,81.8,74.2,81.8C74.2,81.8,74.2,81.8,74.2,81.8z"/>
						<path fill="#202020" d="M73.9,81.9L73.9,81.9L73.9,81.9z"/>
						<path fill="#202020" d="M74.3,81.7C74.3,81.7,74.3,81.7,74.3,81.7L74.3,81.7C74.3,81.6,74.3,81.7,74.3,81.7z"/>
						<polygon fill="#202020" points="74.4,81.5 74.4,81.5 74.4,81.5 						"/>
						<path fill="#202020" d="M72.8,80.2L72.8,80.2C72.8,80.2,72.8,80.2,72.8,80.2z"/>
						<path fill="#202020" d="M72.6,81C72.6,81,72.6,81,72.6,81L72.6,81C72.6,81,72.6,81,72.6,81z"/>
						<path fill="#202020" d="M74.1,81.4L74.1,81.4C74.1,81.4,74.1,81.4,74.1,81.4z"/>
						<path fill="#202020" d="M73.8,79.9L73.8,79.9L73.8,79.9z"/>
						<path fill="#202020" d="M74.2,81.4C74.2,81.4,74.2,81.4,74.2,81.4L74.2,81.4L74.2,81.4z"/>
						<path fill="#202020" d="M72.8,80.2L72.8,80.2L72.8,80.2z"/>
						<path fill="#202020" d="M72.8,80.4C72.8,80.3,72.7,80.3,72.8,80.4C72.7,80.3,72.8,80.3,72.8,80.4c0-0.1,0-0.1,0-0.1
							C72.8,80.3,72.8,80.3,72.8,80.4c0-0.1,0-0.1,0-0.2l0,0c0,0,0,0-0.1,0c0,0,0,0,0,0c0,0,0,0,0,0l0,0c0,0,0,0,0,0
							c0,0,0-0.1,0-0.1c0,0,0,0,0,0.1l0,0c0.1,0,0,0,0.1,0c0,0,0,0,0-0.1c0,0,0,0,0,0c0-0.1,0.1,0.1,0.1,0c0,0,0-0.1,0-0.1l0,0
							c0,0,0-0.1,0-0.1c0,0,0,0,0,0c0,0,0,0,0,0l0,0c0,0,0-0.1,0.1-0.1c0,0,0,0,0,0c0,0,0.1,0,0.1,0l0,0c0,0,0,0,0,0c0,0,0,0,0,0
							c0,0,0,0,0,0c0,0,0.1-0.1,0.1-0.1l0,0c0,0,0-0.1,0-0.1l0,0c0.1,0,0.1,0,0.2,0c0-0.1,0.1,0,0.1,0c0,0,0,0.1,0.1,0.1
							c0,0,0,0,0,0l0,0l0,0l0,0.1l0,0c0,0,0,0,0,0c0,0,0,0,0,0.1l0.1,0c0,0,0,0,0,0c0,0,0,0,0,0c0,0,0,0,0,0c0,0,0,0,0,0l0,0
							c0,0,0.1,0,0.1,0c0,0,0-0.1,0-0.1l0,0c0,0,0,0,0,0c0,0,0,0,0,0.1l0,0c0,0,0,0,0,0c0,0,0,0.1,0,0l0,0c0,0,0.1,0,0.1,0
							c0,0,0,0,0.1,0c0,0,0,0.1,0,0.1c0,0,0,0,0.1,0c0,0,0,0,0,0c0,0,0,0,0.1,0.1c0,0,0,0,0,0c0,0,0,0,0,0l0,0c0.1,0,0,0.1,0,0.2
							l0,0l0,0c0,0,0,0,0,0c0.1,0,0,0.1,0.1,0.1c-0.1,0,0,0.1,0,0.1l0,0c0,0,0,0,0,0c0,0,0,0,0,0c0,0.1,0,0.2-0.1,0.2
							c0,0,0.1,0,0,0.1l0,0c0,0.1,0,0.1,0,0.2c0,0,0,0,0,0c0,0,0,0,0,0.1c0,0,0,0,0,0c0,0,0,0.1,0,0c0,0,0,0,0,0c0,0,0,0,0,0
							c0,0,0,0,0,0c0,0,0,0,0,0.1c0,0-0.1,0-0.1,0c0,0,0,0,0,0c0,0,0,0,0,0.1c-0.1,0,0,0.1-0.1,0c0,0.1-0.1,0.1-0.1,0.1
							c0-0.1,0,0,0-0.1c0,0,0,0.1-0.1,0.1c0,0,0,0,0,0c0,0-0.1,0-0.1,0.1c0,0,0,0,0,0c0,0,0,0,0,0l0,0c0,0,0,0.1,0,0.1
							c0-0.1,0,0,0-0.1c0,0,0,0,0,0c0,0,0,0,0,0c0,0,0,0,0,0.1c0,0,0,0,0,0c0,0,0,0.1,0,0c0,0,0,0,0,0c0,0-0.1,0.1-0.1,0.1
							c0-0.1,0,0,0-0.1l0,0l0,0c0,0,0,0-0.1,0l0,0l0,0l0,0c0,0,0,0.1,0,0c0,0,0,0,0,0l0,0c0,0,0,0,0,0c0,0,0-0.1,0-0.1
							c0,0,0,0-0.1,0c0,0,0,0,0,0l0,0c0,0,0,0,0,0c0,0,0,0.1,0,0c0,0,0,0,0,0c0,0-0.1,0-0.1,0c0-0.1,0,0,0,0c0,0-0.1,0-0.1,0l0,0
							c0,0.1,0,0,0,0c0,0,0,0,0,0c0,0-0.1,0-0.1,0l0,0c0,0,0,0,0-0.1c0,0,0,0,0,0c0-0.1-0.1,0-0.1-0.1c0,0,0,0,0,0l0,0c0,0,0,0,0,0
							c0,0,0,0,0,0c0,0,0,0,0,0l0,0c0-0.1-0.1,0,0,0l0,0c0,0,0,0,0,0c0,0,0,0,0,0c0,0-0.1,0-0.1,0c0,0,0,0,0,0c0,0,0,0,0,0l0,0l0,0
							l0,0c-0.1,0,0,0-0.1,0c0.1,0,0,0,0.1,0c0,0,0,0,0,0c0,0,0,0,0,0c0,0,0,0,0,0c0,0,0,0,0,0c-0.1,0,0-0.1,0-0.1c0,0-0.1,0-0.1,0
							c0,0,0,0,0,0c0,0,0,0,0,0c0,0,0,0,0,0c0,0,0,0,0,0c0,0,0,0,0.1,0c0,0,0,0-0.1,0c0,0,0,0,0.1,0c0,0,0,0-0.1,0l0,0c0,0,0,0,0,0
							c0,0,0,0,0,0l0,0c-0.1,0,0,0,0,0.1l-0.1,0l0,0c0,0,0,0-0.1,0c0,0,0,0,0,0c0,0,0,0,0,0l0,0c0,0,0,0,0,0c0,0,0.1,0,0,0.1l0,0
							c0,0,0,0,0.1,0l-0.1,0.1l0,0c0,0,0,0,0,0c0,0,0,0,0,0c0,0,0,0,0,0.1c0,0,0,0,0,0c-0.1,0,0,0,0,0.1c0,0,0,0,0,0
							c0.1,0,0,0,0,0.1c0,0,0,0,0.1,0c0,0,0,0.1,0,0.1l0,0c0,0,0.1,0,0.1,0c0,0,0,0-0.1,0l0,0c0,0,0,0,0,0l0,0c0,0,0.1,0,0.1,0.1
							c0,0,0-0.1,0.1-0.1c0,0,0,0,0,0c0,0,0,0,0,0l0,0c0,0,0,0,0,0c0,0,0,0,0,0c0,0,0,0,0,0c0,0,0,0,0,0.1c0,0,0,0,0,0
							c0,0,0,0,0,0.1c0,0,0,0,0,0c0,0,0,0,0,0c0,0,0.1,0,0.1,0l0,0l0,0l0,0l0,0c0.1,0,0.1,0.1,0.1,0.1l0,0c0,0,0.1,0,0.1,0
							c0,0,0,0,0,0c0,0,0,0,0,0c0,0,0,0,0,0c0,0,0,0,0.1,0c0,0,0,0,0,0l0,0c0,0,0,0,0,0l0,0c0,0.1,0.1-0.1,0.1,0c0,0,0,0,0-0.1
							c0,0,0,0.1,0,0.1c0,0,0-0.1,0.1,0c0,0,0-0.1,0-0.1c0,0,0,0.1,0,0.1c0,0,0,0,0,0c0,0,0,0,0,0l0,0c0,0,0,0,0,0c0,0,0,0,0,0
							c0,0,0.1,0,0.1,0c0,0,0,0,0,0c0,0,0,0,0.1,0c0,0,0,0.1,0,0c0,0,0,0,0,0.1c0,0,0.1,0,0.1,0l0,0c0,0,0,0,0,0l0,0c0,0,0,0,0,0
							c0,0,0-0.1,0-0.1c0,0,0,0,0,0c0,0,0,0,0,0.1c0,0,0,0,0,0l0,0c0,0,0-0.1,0-0.1c0,0,0,0,0,0c0,0,0,0,0-0.1c0,0,0,0,0,0l0,0
							c0,0,0,0,0,0c0,0,0,0,0,0c0,0,0.1,0,0.1,0c0,0,0,0,0,0c0,0,0,0,0.1,0c0,0,0,0,0-0.1l0,0l0-0.1c0,0,0,0,0,0c0,0,0,0,0,0
							c0,0,0,0,0.1,0l0,0.1c0.1,0,0-0.1,0.1-0.1l0,0c0,0,0,0,0,0c0,0,0,0,0,0c0,0,0,0,0-0.1l0,0c0,0,0-0.1,0-0.1c0,0,0,0,0,0.1
							c0,0,0,0,0,0c0,0,0,0,0,0c0,0,0,0,0,0c0,0,0,0,0,0c0,0,0,0,0,0c0.1,0,0.1-0.1,0.1-0.1c0,0,0-0.1,0-0.1c0,0,0,0,0,0
							c0,0-0.1-0.1,0-0.1c0,0,0,0,0,0c0.1,0,0,0,0.1,0l0,0c0,0,0-0.1,0-0.1c0,0,0,0,0,0c0,0,0-0.1,0-0.1c0,0,0,0,0,0
							c0,0-0.1,0-0.1,0c0,0,0,0,0.1,0l0,0c0.1,0,0,0,0,0l0,0c0,0,0-0.1,0-0.1l0,0c0,0,0,0,0,0l0.1,0c0,0,0-0.1,0-0.1
							c0,0,0.1,0.1,0.1,0.1c0,0,0-0.1,0-0.1c0,0,0,0,0,0c0,0-0.1,0-0.1-0.1c0.1,0,0-0.1,0.1-0.1c0-0.1,0-0.1,0-0.2c-0.1,0,0,0-0.1,0
							c0,0,0,0,0,0l0-0.1c0,0,0,0,0,0c0,0,0,0,0-0.1c0,0,0,0,0,0l0,0c-0.1,0,0.1-0.1,0-0.1l0,0c0,0,0-0.1-0.1-0.1c0,0,0,0,0,0
							c0-0.1-0.1-0.1-0.1-0.1l0,0c0,0,0,0,0,0c0,0,0,0,0,0c0,0,0,0,0,0l0,0c0-0.1-0.1,0-0.1-0.1c0,0,0-0.1,0-0.1l0,0
							c0-0.1-0.1,0-0.2-0.1c0-0.1-0.1-0.1-0.1-0.2c0,0,0,0,0,0c0,0-0.1,0,0,0l0,0c0-0.1,0-0.1,0-0.1l0,0.1c0-0.1-0.2,0-0.2-0.1
							c0,0,0,0-0.1,0l0,0c0,0-0.1,0-0.1,0l0,0c0,0,0,0.1-0.1,0.1l0-0.1c0,0-0.1,0-0.1,0c0,0,0,0,0,0c0,0-0.1,0-0.1,0
							c0,0-0.1,0-0.1,0l0,0c0,0.1,0,0.1,0,0.1c0,0,0,0,0,0c0,0,0,0,0,0l0,0c0,0,0,0,0,0c0,0,0,0-0.1,0c0,0,0,0.1,0,0c0,0,0,0,0,0
							c0,0,0,0.1-0.1,0c0,0,0,0,0,0c0,0,0.1,0,0.1,0c0,0,0,0,0-0.1c0,0,0,0.1-0.1,0.1c0,0,0,0,0,0l0,0c0,0,0,0,0,0c0,0,0,0,0,0
							c0,0,0,0,0,0c0,0,0,0,0,0.1c0,0,0,0,0,0l0,0l0,0l0,0c0,0,0,0,0,0c0,0,0,0,0,0.1c0,0-0.1,0-0.1-0.1c0,0-0.1,0.1,0,0.1
							c0,0,0,0,0,0c0,0,0,0,0,0c0,0,0,0.1,0,0.1c0,0,0,0,0,0l0,0c-0.1,0,0,0.2-0.1,0.2c0,0,0,0,0,0c-0.1,0.1-0.1,0.2-0.2,0.2
							c0,0,0,0,0,0.1l0,0l0,0c0,0-0.1,0-0.1,0.1l0,0c0,0,0,0.1,0,0.1c0,0,0,0,0,0l0,0l0,0c0,0-0.1,0-0.1,0c0,0,0.1,0.1,0.1,0
							c0,0,0,0,0,0l0,0c0.1,0,0.1,0,0.2,0l0,0l0,0l0,0c0,0,0,0,0,0c0,0,0,0,0,0l-0.1,0c0,0,0,0,0.1,0c0,0-0.1,0-0.1,0c0,0,0.1,0,0,0
							c0,0,0,0,0,0c0,0,0,0,0,0c0,0,0,0,0.1,0c0,0,0,0,0,0c0.1,0,0,0,0.1,0c-0.1,0,0-0.1,0-0.1c0,0,0,0,0,0
							C72.7,80.5,72.7,80.5,72.8,80.4c-0.1,0.1-0.1,0-0.1,0C72.7,80.4,72.7,80.4,72.8,80.4c-0.1,0-0.1,0-0.1,0
							C72.7,80.4,72.7,80.4,72.8,80.4C72.7,80.4,72.7,80.4,72.8,80.4C72.7,80.3,72.8,80.4,72.8,80.4C72.8,80.3,72.8,80.4,72.8,80.4z
							 M73.1,79.9L73.1,79.9L73.1,79.9C73.1,79.9,73.1,79.9,73.1,79.9z M73.1,79.9C73.1,79.9,73.1,79.9,73.1,79.9
							C73.1,79.9,73.1,79.9,73.1,79.9C73.1,79.9,73.1,79.9,73.1,79.9z M72.9,79.7C72.9,79.7,72.9,79.7,72.9,79.7
							C72.9,79.7,72.9,79.7,72.9,79.7L72.9,79.7L72.9,79.7z"/>
						<polygon fill="#202020" points="72.9,79.8 72.9,79.8 72.9,79.8 72.9,79.8 						"/>
						<polygon fill="#202020" points="72.9,81.7 72.9,81.7 72.9,81.7 						"/>
						<polygon fill="#202020" points="73.7,79.9 73.7,79.9 73.7,79.9 						"/>
						<path fill="#202020" d="M72.8,81.4L72.8,81.4L72.8,81.4z"/>
						<path fill="#202020" d="M72.7,81.3L72.7,81.3C72.7,81.3,72.7,81.3,72.7,81.3z"/>
						<path fill="#202020" d="M72.7,81.2C72.7,81.2,72.7,81.3,72.7,81.2L72.7,81.2L72.7,81.2z"/>
						<path fill="#202020" d="M73.8,81.7L73.8,81.7C73.8,81.7,73.8,81.7,73.8,81.7z"/>
						<path fill="#202020" d="M73.4,81.8L73.4,81.8C73.4,81.8,73.4,81.8,73.4,81.8z"/>
						<polygon fill="#202020" points="74.1,81.4 74.1,81.4 74.1,81.4 						"/>
						<path fill="#202020" d="M73.4,81.8C73.4,81.8,73.4,81.8,73.4,81.8C73.4,81.8,73.4,81.8,73.4,81.8z"/>
						<polygon fill="#202020" points="72.6,80.9 72.6,80.9 72.6,80.9 						"/>
						<path fill="#202020" d="M72.6,80.9L72.6,80.9L72.6,80.9z"/>
						<path fill="#202020" d="M72.6,80.9L72.6,80.9C72.6,80.9,72.6,80.9,72.6,80.9z"/>
						<path fill="#202020" d="M72.6,81L72.6,81C72.6,81,72.6,81,72.6,81z"/>
						<path fill="#202020" d="M72.6,81C72.6,81,72.6,81,72.6,81L72.6,81C72.6,81,72.6,81,72.6,81z"/>
						<path fill="#202020" d="M72.5,81.2L72.5,81.2C72.5,81.2,72.5,81.2,72.5,81.2C72.4,81.3,72.5,81.2,72.5,81.2z"/>
						<path fill="#202020" d="M72.5,81.3C72.5,81.3,72.5,81.4,72.5,81.3C72.5,81.4,72.5,81.4,72.5,81.3z"/>
						<path fill="#202020" d="M73.1,81.8L73.1,81.8C73.1,81.9,73,81.9,73.1,81.8z"/>
						<polygon fill="#202020" points="73.2,81.7 73.2,81.7 73.2,81.7 						"/>
						<polygon fill="#202020" points="73.3,82 73.2,82 73.3,82 						"/>
						<path fill="#202020" d="M74.5,81.6L74.5,81.6C74.4,81.5,74.5,81.6,74.5,81.6z"/>
						<path fill="#202020" d="M74.7,81C74.7,81,74.7,81,74.7,81C74.7,81,74.7,81,74.7,81z"/>
						<polygon fill="#202020" points="73.9,79.6 74,79.6 73.9,79.6 						"/>
					</g>
				</g>
			</g>
		</g>
	</g>
	<path d="M57,93.2c-2,0-2,2,0,2C58,95.2,58,93.2,57,93.2z"/>
	<path d="M60,83.5c-2,0-2,2,0,2C61,85.5,61,83.5,60,83.5z"/>
	<path d="M61,73.8c-2,0-2,2,0,2C62,75.8,62,73.8,61,73.8z"/>
	<path d="M45,64.2c-1,0-1,2,0,2C47,66.2,47,64.2,45,64.2z"/>
	<path d="M67,89c-1.3,0-1.3,2,0,2S68.3,89,67,89z"/>
	<path d="M75,90.5c-1.3,0-1.3,2,0,2S76.3,90.5,75,90.5z"/>
	<path d="M89,81c-2,0-2,2,0,2C90,83,90,81,89,81z"/>
	<path d="M82,71c-2,0-2,2,0,2C83,73,83,71,82,71z"/>
	<path d="M96,71.2c-1.3,0-1.3,2,0,2S97.3,71.2,96,71.2z"/>
</g>
</svg>
