<?xml version="1.0" encoding="utf-8"?>
<!-- Generator: Adobe Illustrator 18.0.0, SVG Export Plug-In . SVG Version: 6.00 Build 0)  -->
<!DOCTYPE svg PUBLIC "-//W3C//DTD SVG 1.1//EN" "http://www.w3.org/Graphics/SVG/1.1/DTD/svg11.dtd">
<svg version="1.1" id="Layer_1" xmlns="http://www.w3.org/2000/svg" xmlns:xlink="http://www.w3.org/1999/xlink" x="0px" y="0px"
	 viewBox="0 0 144 144" enable-background="new 0 0 144 144" xml:space="preserve">
<g>
	<g>
		<g>
			<g>
				<g>
					<g>
						<path fill="#202020" d="M39.4,83.1c0-0.1-0.2-0.1-0.2,0.3l0.2,0.3L39.4,83.1z"/>
						<path fill="#202020" d="M38.8,85.4c0.1,0.4,0.2,0.9,0.4,0.6c-0.2-0.4-0.1-0.5-0.2-1c0-0.3,0.1-0.6,0.2-0.5
							c0-0.1,0.1-0.5,0-0.7c-0.2,0.4-0.3,1-0.2,1.6C38.9,85.5,38.8,85.4,38.8,85.4z"/>
						<path fill="#202020" d="M59.7,107.1l-0.2-0.1C59.6,107.1,59.6,107.1,59.7,107.1z"/>
						<path fill="#202020" d="M80.1,110.8c-0.2,0-0.2,0-0.2,0.1C80,110.8,80.1,110.8,80.1,110.8z"/>
						<path fill="#202020" d="M83.7,110.6c-0.1,0-0.1,0-0.2,0C83.6,110.6,83.7,110.6,83.7,110.6z"/>
						<path fill="#202020" d="M59.7,107.1l0.5,0.3C60.2,107.4,59.9,107.3,59.7,107.1z"/>
						<path fill="#202020" d="M39.1,90.1c0-0.1,0-0.2-0.1-0.3L39.1,90.1C39.1,90,39.1,90,39.1,90.1z"/>
						<path fill="#202020" d="M51,104.1l-0.2,0c-0.1,0-0.1,0-0.2,0L51,104.1z"/>
						<path fill="#202020" d="M44.3,101c0.1,0.1,0.3,0,0.4,0c-0.1,0-0.2,0-0.4-0.1C44.3,100.9,44.3,101,44.3,101z"/>
						<path fill="#202020" d="M38.5,91.7l0-0.2C38.5,91.5,38.5,91.6,38.5,91.7z"/>
						<path fill="#202020" d="M55.8,105.6C55.8,105.6,55.8,105.7,55.8,105.6C55.8,105.7,55.8,105.6,55.8,105.6z"/>
						<path fill="#202020" d="M35.7,77.3C35.7,77.3,35.7,77.3,35.7,77.3C35.7,77.3,35.7,77.3,35.7,77.3z"/>
						<path fill="#202020" d="M37.6,85.1L37.6,85.1C37.5,85,37.5,85,37.4,85L37.6,85.1z"/>
						<path fill="#202020" d="M90.3,109.9C90.3,109.9,90.3,109.9,90.3,109.9C90.1,110,90.2,109.9,90.3,109.9z"/>
						<path fill="#202020" d="M103,61.9c0.2,0.7-0.7-0.9-0.3,0.1C102.7,61.8,103.3,62.7,103,61.9z"/>
						<path fill="#202020" d="M39.1,90.2l0,0.3C39.1,90.4,39.1,90.3,39.1,90.2z"/>
						<path fill="#202020" d="M102.7,61.9L102.7,61.9l0,0.1C102.7,62,102.7,62,102.7,61.9z"/>
						<path fill="#202020" d="M105.3,106c0,0-0.1,0-0.2,0C105.1,106.1,105.2,106.1,105.3,106z"/>
						<path fill="#202020" d="M94.1,109l0.3,0C94.3,108.9,94.2,109,94.1,109z"/>
						<path fill="#202020" d="M108.4,100.7c0-0.2,0.1-0.2,0.1-0.4c0,0,0,0,0,0.1C108.4,100.4,108.4,100.5,108.4,100.7z"/>
						<path fill="#202020" d="M109,94.5c0,0,0,0.1,0,0.1c0,0.1,0,0.1,0,0.2L109,94.5z"/>
						<path fill="#202020" d="M42.7,61.1c-0.1,0.1-0.2,0.1-0.3,0.1C42.6,61.2,42,61.9,42.7,61.1z"/>
						<path fill="#202020" d="M39,90.1c0,0,0.1,0.1,0.1,0.2C39.1,90.2,39.1,90.1,39,90.1C39,90,39,90,39,90.1z"/>
						<path fill="#202020" d="M107.1,100.2l0.1-0.9C107.2,99.5,107.2,99.9,107.1,100.2z"/>
						<path fill="#202020" d="M75.9,33.8l-0.2,0C75.8,33.9,75.9,33.8,75.9,33.8z"/>
						<path fill="#202020" d="M107.6,96.4c0.1-0.2,0.1-0.3,0.2-0.5c0,0,0-0.1,0-0.1L107.6,96.4z"/>
						<path fill="#202020" d="M42.4,61.2L42.4,61.2L42.4,61.2z"/>
						<path fill="#202020" d="M38.9,66.5c0.5-0.8,0-0.5,0-0.7c0.5-0.9,0.4-0.3,0.7-0.6c0.3-0.6,0.5-1.1,0.8-1.5c0.1,0,0.1-0.1,0.1,0
							c0.3-0.7,1.3-1.7,1.7-2.4c0.1,0,0.1,0,0.1,0c-0.2,0-0.3,0-0.3-0.1c0.3-0.3,0.4-0.7,0.6-0.7c-0.2,0.2-0.1,0.2-0.2,0.4l0.2-0.4
							c0.4-0.2-0.4,0.5-0.2,0.6c0.5-0.7,1.1-1.5,1.6-1.9c0.2,0-1,1.1-0.3,0.6l-0.7,0.7c0.7-0.4-0.4,0.4,0.3,0.1
							c0.9-0.9,0.9-1.1,1.9-2c0.1-0.3-0.2,0,0-0.3c1.2-1.5,1.4-0.7,2.2-1.8c0.2-0.3,0.1-0.6,0.9-1.2l-0.1,0.4
							c0.9-0.9,0.3-0.7,1.4-1.6c-0.1,0.2-0.7,0.8-0.5,0.6c0.8-0.5,0.4-0.5,0.8-1l0.2,0c1-1,1.9-2.2,3-3.3c0,0.1-0.2,0.3,0.1,0.1
							c1.3-1.4,2.9-2.9,4.2-4.1l0.4-0.6c0.1-0.1,0.3-0.2,0.2,0c0.6-0.5,0-0.1,0.1-0.4c0.3-0.3,0.5-0.3,0.3-0.1
							c0.8-1,2.4-2.7,3.5-3.5L61.9,42c0.8-0.6,0.6-1,1.5-1.6l-0.1,0.1c1.7-1.4,3.6-3.1,5.2-3.8c0.1-0.4,1.9-1,1.9-1.4
							c1.2-0.4,0.9-0.2,2.6-0.8c0.4-0.1,0.6-0.4,1.1-0.6l0.1,0.2c0,0,0.2-0.1,0.4-0.2c0.2-0.1,0.4-0.2,0.4-0.2l0.4,0.1
							c0,0,0.1,0,0.3-0.1c0.1,0,0.3-0.1,0.3-0.1c-0.2,0-0.5,0-0.4-0.1c0.8-0.2,2.1-0.1,2.1,0c0,0,0.5,0,1,0c0.5,0,1,0.1,1,0.1
							c-0.1,0.1-0.4,0-0.6,0c1.1,0,0.2,0.2,1.1,0.2C79.7,34,79.9,34,79.9,34c0.4,0.2,1.4,0.5,2.2,0.9l-0.2,0
							c1.3,0.7,2.6,1.6,3.7,2.8c-0.4-0.5-0.1-0.5,0.2-0.2l0,0.3c0.3,0.2-0.3-0.4,0.3,0c0.4,0.5,0.1,0.5-0.2,0.2l0.5,0.5
							c0,0.1-0.2,0-0.2,0c0.3,0.2,0.7,1.1,1.1,1.4l0,0.1c1,1.4,1.5,2,2.2,3.2c0.1-0.1,0.4,0.4,0.8,0.7c0.5,0.9,1,1.9,1.7,3
							c0.5,0.7,0.3,0.1,0.5,0.4c-0.1,0.1,0.6,1.2,0.2,0.7c0.8,1.2,1.1,1.6,2.2,3.1c-0.1-0.2-0.2-0.4-0.1-0.3
							c0.2,0.3,0.4,0.7,0.3,0.7L95,51.4c1.3,1.7,2.3,4.4,3.5,5.6l-0.1-0.1l1.1,1.4c0.4,0.7-0.4-0.4-0.1,0.2c1.2,1.5,1.5,2.6,2.4,3.8
							c0.2,1.2,2.1,3.7,2.5,5.3l0.1-0.1c0.3,0.3,0.2,0.5,0.3,0.8c0.1-0.1-0.1-0.4,0.1-0.2c1.6,3.2,2.3,6.9,2.8,10.4
							c0.1,1.3,0.6,0.7,0.6,2.4l-0.2-0.5c0.5,2.6,0.4,5.4,0.5,8.1c0-0.2-0.1-0.2-0.1-0.4c-0.1,0.5-0.1,2,0,2.1
							c0,0.4-0.1,0.1-0.2,0.3c-0.1,0.6,0.1,1.4-0.1,1.7c0,0,0-0.2,0-0.3c0,0.4-0.1,1.7,0.1,1.3c-0.1,1-0.1,1.9-0.2,2.7
							c0.1,0.5-0.2,1.7,0,1.9c-0.3-0.1-0.4,1.7-0.4,2.3c0-0.2-0.2,0.5-0.2,0.3c-0.1,0.7-0.2,1.3-0.1,1.2c-0.3,0.5-0.5,1.1-0.7,1.6
							c-0.2,0.5-0.5,0.9-0.9,1c-1.3,1.4-3.1,2.2-4.9,2.7c0-0.2,2-0.6,1.8-0.9c-1.6,0.7-2.6,1.1-4.3,1.4c-0.5,0.1,0.2-0.2,0.4-0.2
							c-1.8,0.5-3.4,0.6-5,1c0,0,0.2-0.1,0.3-0.1c-0.3,0.1-0.7,0.1-0.7,0.2l0.3-0.1c0.5,0.1-1.2,0.6-1.2,0.7
							c0.5-0.4-1.6,0.2-0.8-0.4c-0.2,0.1-0.5,0.2-0.4,0.2c-0.3,0-0.4,0-0.1-0.1c-1.1,0.2-0.7,0.3-1.7,0.4c0-0.1,0.2-0.1,0.3-0.2
							c-0.5,0.2-1,0.4-1.9,0.4c0,0-0.1-0.1,0.2-0.1c-1.5,0.2-2.5,0.6-4.1,0.7c0.5-0.3-0.6,0-0.7-0.2l-0.9,0.2l0.4,0.1
							c-0.8,0.1-1.4,0.3-2.1,0.3l0.6-0.1l-1.4,0.2l0.8,0c-0.8,0.2,0.1,0.3-0.9,0.3c0.2,0-0.8,0.1-1.2,0l0,0
							c-0.4,0.1-0.8,0.2-1.3,0.2c-0.2-0.1,0.1-0.2,0-0.3c-0.4,0.2-1.8,0.2-2.3,0.4c0.2-0.1,0.2-0.2,0.1-0.2l-0.3,0.2
							c-0.4,0-0.4,0-0.4-0.1c-1.1,0,0.4,0.3-0.9,0.2c0.1,0,0.1,0,0.3-0.1c-1.3,0-2.5,0.2-3.6,0.1c-0.3-0.2,1,0,0.6-0.2
							c-1.7,0-3.5-0.1-4.9-0.8l0.3,0.1c-0.3,0.2-1-0.6-1.8-0.9c0.2,0.1,0.3,0,0.2,0c-0.9-0.6-2-1.1-3.6-1.9l0.2,0
							c-0.6-0.4-1.6-0.8-2.2-1.2c-0.2,0-0.6-0.2-0.4,0c-1.9-1.3-4-1.3-5.8-2.2c0.2,0.1,0.6,0.1,0.4,0l-1.6-0.4
							c0.1,0.2,0.2,0.1,0.5,0.3c-0.2,0-0.7,0-1.1-0.2c0.7,0.1,0.1-0.2-0.2-0.4c0,0.1-0.1,0.1-0.1,0.1c-0.8-0.5-0.2,0.2-1.3-0.3
							l0.1,0c-0.4-0.1-0.8-0.2-1.3-0.4c-0.1-0.2,0.5,0.1,0.5,0c-0.6-0.2-1.3-0.3-1.8-0.7c0.3,0.1,0.6,0.3,0.9,0.4
							c-0.5-0.5-0.6-0.5-1-0.7l0,0c0,0-0.2-0.2-0.5-0.3c-0.2-0.2-0.4-0.3-0.4-0.3l0.2,0.2c-0.9-0.1-1.4-0.9-2.5-1.5
							c1,0.5,0.2,0,0.4-0.1c-0.2-0.2-0.5-0.5-0.4-0.5c-0.5-0.2-0.6-0.7-1.3-1c0-0.1-0.4-0.4-0.2-0.4c-0.5-0.4,0.1,0.2,0,0.2
							c-0.5-0.3-0.9-0.8-1.3-1.3c-0.4-0.5-0.7-1-1-1.7c-0.3-1.2-0.5-1.5-0.7-2.7c0.1-0.4,0.2,0.3,0.2,0.3c0-0.7,0-1.2-0.1-1.8
							c0.1,0.1,0.1,0,0.1-0.2c0-0.5-0.2-0.3-0.1-1c0.1,0.1,0.2,0.3,0.2,0.5c-0.1-0.6-0.2-1.2-0.2-1.8c0.1-0.2,0.1,0.4,0.2,0.6
							c0-0.7,0-1.8-0.2-2l-0.1,0.4c0-0.3,0.1-0.1,0.2,0.1c0.1,0.6-0.1,0.9-0.1,0.9l0-0.4c-0.4,0.4,0,1.8,0,2.7l-0.2-0.4l0.2,0.9
							c-0.1,0.2-0.2,0.3-0.2-0.1c-0.1,0.6,0.1,0.6,0,1.1c0,0.1,0,0,0,0l0.1,0.6c-0.1-0.1-0.2,0.1-0.2-0.3c0,1.1,0.4,1.8,0.2,2.2
							l0-0.1C38.8,95,38.9,95,39,95c0.1,0,0.1-0.1,0.4,0.4c0,0,0,0.2,0,0.4c0,0.2,0,0.5,0,0.5l0.2,0c0.1,0.1,0.3,0.4,0.2,0.4
							c0.5,0.4,0-0.1,0.3,0c0.4,0.7,1.6,1.4,1.5,1.7c0.3,0.1-0.5-0.6,0.2-0.1c0,0.4,0.7,0.6,1.2,1.2c-0.3,0-0.7-0.5-0.3,0
							c0.5,0.1,1,0.9,1.6,1.3c0.1-0.1,1.1,0.7,2,1.1c0,0,0.4,0.3,0.9,0.6c0.5,0.3,1.2,0.6,1.6,0.8l0,0c0.2-0.1,1.2,0.2,1.8,0.4
							c-0.1,0.1-0.2,0.1-0.6,0.1l0.6,0.2c0.2,0,0.4,0,0.8,0.1l-0.2,0.1c0.8,0.2,1.8,0.3,2.8,0.7c0.1-0.1-0.7-0.7,0.4-0.4
							c0,0.1,0,0.2-0.3,0.2c0.1,0,0.4,0.1,0.5,0.2l-0.5,0c0.5,0.2,0.3,0,0.7,0.1c0,0.1,0.3,0.2,0.2,0.2c-0.1,0-0.3-0.2-0.5-0.2
							c0.4,0.2,0.9,0.4,1.1,0.6c0-0.1,0.1-0.1,0.4,0c0.8,0.3,0.2,0.2,0.7,0.5c0.2,0,0.7,0.3,0.8,0.2c0.2,0.1,0.2,0.2,0.3,0.3
							c0.4,0.1,1.9,0.9,1.5,0.5l-0.1-0.1c0,0,0,0,0.1,0l0,0l0,0c1.4,0.5,2.6,1.6,4,2.3l0,0c0.8,0.4,1.8,0.9,2.4,1
							c0.2,0.1,0.6,0.3,0.4,0.3c0.7,0.2,0.8,0.1,1.7,0.4c-0.7,0,0.2,0.1-0.7-0.1c0.9,0.2,1.1,0.4,2,0.3c-0.3,0.1,0.7,0.2,1.1,0.2
							l-0.6-0.1c0.5,0,0.9,0,1.3,0l-0.2,0.2c1.8,0.2,3.2-0.5,4.6-0.2c0.5-0.2-1,0-0.6-0.2c0.8,0,1.7,0.2,2,0.2c1.1,0,1-0.4,2.2-0.4
							c-0.2-0.1-0.3-0.2,0.6-0.4c0.8-0.1,1,0.2,0.5,0.3c-0.2,0-0.3,0-0.3,0c-0.3,0.1-0.6,0.1-0.3,0.2l0.1-0.1c0.4,0,1.5-0.1,1.3,0.1
							c0.6-0.1,0.3-0.1-0.2-0.1c1.1,0,1.6-0.2,2.7-0.2c-0.2,0-0.3-0.1-0.2-0.1c1.6-0.1,0.7-0.2,1.8-0.4c0.6,0-0.2,0.3,0.9,0.1
							c0.7,0,0.2,0.2-0.1,0.3c1-0.3,1.9-0.2,2.4-0.2l-0.5,0.1c0.3-0.1,0.6-0.1,0.8-0.1l-0.3-0.1c0.3,0,0.6-0.1,0.6,0
							c0.3-0.1-0.3-0.2,0.3-0.4c0.4,0,1.2-0.3,1.4-0.1c-1.3,0.1,0.2,0.2-0.9,0.4c0.2-0.1,0.5-0.1,0.8-0.1c0,0,0,0-0.1,0.1
							c1.2,0,0.5-0.3,1.8-0.5c-0.1,0.1,0.3,0.1,0.5,0.1c-0.5,0.1-0.3-0.1,0.2-0.3c0.8-0.1,0.9-0.2,1.3-0.3l-0.5,0
							c0.1-0.1,0.6-0.2,1.1-0.3c0.1,0.1-0.5,0.1-0.3,0.1c0.6-0.3,1.4-0.1,2.3-0.4c0.4,0,0.1,0.2,0.4,0.2c1-0.3,1.1-0.1,2.1-0.4
							c-0.3-0.1-0.4,0,0.3-0.3l-1.7,0.4l1-0.4c-0.5,0.1-1.1,0.3-1.4,0.3c0.5-0.2,0.4-0.2,0.2-0.2c0.7,0.1,1.4-0.4,2.2-0.4l0.1,0.3
							c1.3-0.1,2.1-0.7,3.7-1.3l-0.5,0.2c0.2-0.2,0.9-0.4,1.4-0.7c0,0.1,0.3,0,0.6-0.1c-0.1,0,1-0.7,1-1c0,0,0.2-0.1,0.3-0.2
							c0.2-0.1,0.3-0.2,0.3-0.2c0.5-0.5,0.6-0.9,0.7-1.3c0.1-0.4,0.2-0.8,0.4-1.4c0,0.4,0.3-0.1,0.1,0.7c0.2-0.4,0.3-0.8,0.2-0.8
							c0.2-0.2,0.1-1.2,0.3-1.6c0-0.2-0.1-0.3-0.1-0.7c0,0,0.1,0,0.1,0c-0.1,0,0-0.7-0.2-0.3c0.5-1.2,0.4-3.5,0.7-4.6
							c0-0.9,0.1-2,0.1-2.8c0,0.1,0.1,0,0,0.2c0.2-1.1-0.3-0.7-0.1-2c0.2-0.7,0.1,0.7,0.2,0.3c0.4-0.2,0-1.6,0.2-2.4l0,0.2
							c0.1-0.7-0.1-1.6-0.1-2.7c0,0,0,0.1,0.1,0c-0.2-0.7-0.3-2.1-0.5-3.2c0.2,0.3,0.1,0.5,0.2,0.3c-0.1-0.5-0.2,0.2-0.3-0.8
							c0.1-0.3,0.1-1,0.2-1.1l0.1,0.9c0.2-0.5-0.1-1.1-0.1-1.6l0.1,0c-0.2-1.3-0.4-1.3-0.6-2.8l0,0.2c-0.3-0.7,0-0.7-0.3-1.4
							l0.2-0.3c-0.1-0.5-0.6-1.7-0.9-2.6c0.3,0.5,0.7,1.5,0.9,2.2c-0.1-0.5-0.4-1.7-0.6-2c0.1,0.2,0.2,0.4,0.2,0.6
							c-0.3-0.6-0.7-1.4-1-2.3c0.5,0-0.8-2.6-0.8-3.4c-0.9-1.6-1.5-3.3-2.5-5.2c0.1,0.8-0.3-0.5-0.6-0.3c-0.3-0.4-0.3-0.6-0.3-0.6
							l-0.6-1.4c-0.1-0.4,0.3,0.4,0.3,0.3c-0.5-1-0.1-0.5-0.4-1.1c0,0.2-0.3-0.2-0.6-0.8l0.3,0.8c-0.9-1.2-0.4-1.3-1.4-2.5l0.4,0.3
							c-0.5-0.6-1.6-2.4-2.2-2.9c0-0.1-0.1-0.3,0.2-0.1c-1-1.6-2.5-3.3-3.1-4.7l0.1,0.1c-0.2-0.3-0.5-0.4-0.6-0.8
							c0,0,0.1,0.1,0.1-0.1C95,49,94.5,48.4,94.3,48l0.3,0.3c-0.9-1.6-1.7-2.2-2.6-3.5c0.2-0.1-0.5-1.4-0.8-2l0,0
							c-1.1-1.8-2.2-2.9-3.5-4.4c-0.3-0.6-0.9-1.4-1.8-2.2c-0.8-0.8-1.8-1.6-2.7-2.2c0.2,0.2-0.1,0.1-0.5,0
							c-0.4-0.3-1.3-0.4-1.1-0.6l0.2,0.1c-0.2-0.4-1.2-0.7-2-0.8l-0.2,0.3c-1-0.4-2.3-0.5-3.5-0.3c-1.2,0.1-2.2,0.5-2.8,0.4
							c-0.4,0.2-1,0.4-1.4,0.6l0-0.2c-1.3,0.5-1.9,0.7-3.3,1.6l0.2-0.3c-0.8,0.5-0.8,1-1.4,1.5L67,36.1c-1.3,0.9-2.7,1.8-3.8,2.9
							c0,0,0-0.1,0.2-0.3c-0.6,0.5-2.3,1.8-1.9,1.8c-0.2-0.2-1.2,1.1-1.8,1.7l0-0.2c-0.4,0.6-0.4,0.7-1,1.4c-0.2,0.2-0.2,0.1,0-0.1
							c-0.6,0.5-0.3,0.5-1.1,1.2l0.2-0.3c-0.6,0.6-0.5,0.6-0.7,1c-0.3,0.4-1.1,1.1-1.3,1.1c0,0.1-0.2,0.5-0.6,0.9
							c-0.1,0,0-0.1,0.1-0.2c-1,0.9-1.3,1.6-2,2.1c-0.1,0-0.1,0-0.2,0c0.8-0.8,1.4-1.4,1.3-1.3c-0.1-0.1-0.7,0.5-0.4-0.1
							c-0.4,0.6-1.1,1.6-1.7,2.2c0,0-0.1,0-0.1,0l0-0.1c-0.1,0.1-0.3,0.3-0.4,0.4c-0.2,0.2-0.3,0.3-0.5,0.5c-0.2,0-0.7,0.7-1.1,1
							c0.1,0.1-0.3,0.5,0.2,0.2c-0.1,0,0-0.1,0.2-0.3c0,0,0.1-0.1,0.1-0.1l0,0c0.2-0.2,0.5-0.5,0.8-0.8c-0.2,0.3-0.4,0.6-0.8,0.9
							c-0.1,0.2-0.2,0.5-0.2,0.6c-0.6,0.3-1.5,1-1.7,1c-0.9,1-2.2,2.2-2.6,3c-0.2,0.3-0.4,0.2-0.5,0.3c0.1-0.2,0.3-0.4,0.4-0.5
							c-0.5,0.6-1.6,1.6-1.6,1.9c-0.7,0.6,0.2-0.5-0.7,0.4l0.1-0.2c-2.1,1.6-2.5,3.4-4.6,5.4c0.1-0.1,0.2-0.2,0.3-0.2
							c-1.1,1.2-2,2.7-2.7,4.2c-0.7,1.5-1.3,3.1-1.8,4.7c-0.3,0.9-0.1,1-0.1,1.6l-0.2,0.2l0.1,1c0,1.3-0.6,2.4-0.1,4.1l0.1-0.2
							c0,0.3,0.1,0.8,0.2,1.2c0.1,0.4,0.2,0.7,0.1,0.7c0,0.1,0.2,0.2,0.2,0.4l-0.1,0c0,0,0.6,1.4,0.7,1.4c0.2,0.6,0.1,0.6,0,0.6
							c-0.1,0.1-0.1,0.2,0.3,1c0.3,0.6,1.3,1.4,1.2,1.2c-0.1-0.2-0.3-0.6-0.3-0.6l0.4,0.4c0.3-0.1,0.7,0.1,0.1-1.1
							c0,0-0.6-0.7-0.6-0.7l0-0.3l0.4,0.7c-0.1-0.5-0.4-0.6-0.6-0.9c0-0.1,0-0.2,0-0.4c0,0-0.2-0.2-0.3-0.4
							c-0.1-0.2-0.3-0.4-0.3-0.4c0.1-0.1,0.3,0.3,0.2-0.3c-0.3-0.4-0.1,0.5-0.4-0.2c0-0.5,0.1-0.4-0.1-0.9c0-0.1,0.1,0,0.2,0.2
							c-0.2-0.4-0.3-1.2-0.5-1.4c0.1-0.5-0.2-1.6,0.1-1.6c-0.1-0.1-0.2-0.8-0.2-1.3c0.1,0.4,0.2,0,0.2-0.5c0-0.5,0.1-1,0.3-0.9
							c-0.2-0.6,0.2-2.1,0.4-3.2c0,0.1,0,0.2,0,0.3c0.2-0.6,0.3-0.7,0.5-1c-0.2-0.1,0.1-1,0.2-1.6c0.5-0.6,0.1,0.5,0.4,0.4
							c-0.2,0,0.3-1.2,0.1-1.1c0.4-0.4,0.3-0.4,0.6-0.6c-0.2-0.2,0.2-0.5,0.3-1c0.5-0.6,0.3,0,0.7-0.8
							C39.3,65.7,38.9,66.5,38.9,66.5z M53.1,50.3L53.1,50.3c-0.1,0.1-0.2,0.3-0.3,0.3C52.9,50.6,53,50.5,53.1,50.3z M54.4,49
							c-0.2,0.2-0.4,0.4-0.6,0.6c-0.1,0-0.1-0.1,0.1-0.2C53.9,49.5,54.2,49.2,54.4,49z M50.9,51c0.2-0.2,0.3-0.3,0.3-0.3
							C51.1,50.8,51,51,50.9,51c0,0.1,0,0.1,0,0.1C50.9,51.1,50.9,51.1,50.9,51z"/>
						<path fill="#202020" d="M50.7,51.5C50.7,51.6,50.6,51.6,50.7,51.5C50.7,51.6,50.7,51.6,50.7,51.5c0.1,0,0.1-0.1,0.1-0.1
							C50.8,51.4,50.7,51.5,50.7,51.5z"/>
						<path fill="#202020" d="M59.5,107L59.5,107C59.5,107,59.5,107,59.5,107C59.5,107,59.5,107,59.5,107z"/>
						<polygon fill="#202020" points="74,34.2 74,34.2 73.9,34.3 						"/>
						<path fill="#202020" d="M50.2,103.1c0,0,0,0-0.1-0.1C50.1,103,50.2,103,50.2,103.1z"/>
						<path fill="#202020" d="M46.3,101.4l-0.5-0.4C46,101.2,46.2,101.3,46.3,101.4z"/>
						<path fill="#202020" d="M43.7,99.4C43.7,99.4,43.6,99.4,43.7,99.4L43.7,99.4L43.7,99.4z"/>
						<path fill="#202020" d="M93.7,107.9c0,0,0.1,0,0.1,0C94.1,107.8,93.9,107.9,93.7,107.9z"/>
						<path fill="#202020" d="M78.1,110.3c0.2,0,0.3-0.1,0.5-0.1C78.4,110.2,78.1,110.2,78.1,110.3z"/>
						<polygon fill="#202020" points="107.1,100.3 107.1,100.3 107.1,100.2 						"/>
						<path fill="#202020" d="M79.4,110.1c-0.3,0-0.5,0-0.7,0.1C78.9,110.2,79.1,110.2,79.4,110.1z"/>
						<path fill="#202020" d="M39.1,87.1l0-0.2c0,0,0,0,0,0L39.1,87.1z"/>
						<path fill="#202020" d="M39.1,86.9l0-0.2C39.1,86.8,39.1,86.9,39.1,86.9z"/>
						<path fill="#202020" d="M39.1,86.4l0,0.4C39.1,86.6,39.1,86.5,39.1,86.4z"/>
						<path fill="#202020" d="M39.1,91.5L39.1,91.5C39.1,91.5,39.1,91.5,39.1,91.5z"/>
						<path fill="#202020" d="M39.2,92.8c0-0.3,0.1-0.8,0-1.2l0,0C39.3,91.7,39.1,92.5,39.2,92.8z"/>
						<path fill="#202020" d="M40.9,97.9l-0.8-0.8c0.1,0.2,0.2,0.4-0.2,0.1C40.9,98.3,39.9,96.8,40.9,97.9z"/>
						<path fill="#202020" d="M43.5,100.3C43,99.9,43.5,100.4,43.5,100.3C43.7,100.6,43.8,100.6,43.5,100.3z"/>
						<path fill="#202020" d="M66.4,110.8l-0.1,0.1C66.8,111,66.3,110.8,66.4,110.8z"/>
						<polygon fill="#202020" points="71.3,110.6 70.9,110.5 70.6,110.6 						"/>
						<polygon fill="#202020" points="74.2,111.5 74,111.5 74.8,111.4 						"/>
						<path fill="#202020" d="M109.1,95.6l-0.2,0.1C108.9,96.1,109.1,96.2,109.1,95.6z"/>
						<path fill="#202020" d="M108.6,77.3c0.1-0.2,0-0.7-0.1-1C108.5,76.6,108.5,77.1,108.6,77.3z"/>
						<path fill="#202020" d="M78.7,32.4l0.4,0C79.1,32.4,78.9,32.4,78.7,32.4c-0.2,0-0.3,0-0.3,0L78.7,32.4z"/>
					</g>
				</g>
			</g>
		</g>
	</g>
	<g>
		<g>
			<g>
				<g>
					<g>
						<path fill="#202020" d="M63.5,81.5c0.1,0,0.1-0.1-0.1-0.2l-0.2,0.2L63.5,81.5z"/>
						<path fill="#202020" d="M62.8,80.8c-0.2,0-0.4,0-0.4,0.2c0.3-0.1,0.2,0,0.5-0.1c0.1,0,0.2,0.2,0.1,0.2c0.1,0,0.2,0.1,0.3,0
							c-0.1-0.2-0.3-0.3-0.6-0.3C62.7,80.8,62.8,80.8,62.8,80.8z"/>
						<path fill="#202020" d="M68.1,74.1L68.1,74.1C68,74,68.1,74.1,68.1,74.1z"/>
						<path fill="#202020" d="M74,79C74,78.9,73.9,78.9,74,79C74,79,74,79,74,79z"/>
						<path fill="#202020" d="M74.6,80.2C74.6,80.2,74.6,80.1,74.6,80.2C74.6,80.1,74.6,80.2,74.6,80.2z"/>
						<path fill="#202020" d="M68.1,74.1l0.2,0.1C68.3,74.1,68.2,74.1,68.1,74.1z"/>
						<path fill="#202020" d="M61.2,79.7c0,0,0.1,0.1,0.1,0.1L61.2,79.7L61.2,79.7z"/>
						<path fill="#202020" d="M64.8,74.1L64.8,74.1c-0.1,0-0.1,0.1-0.1,0.1L64.8,74.1z"/>
						<path fill="#202020" d="M62.7,75.3c0,0-0.1-0.2-0.1-0.2C62.6,75.1,62.6,75.2,62.7,75.3C62.6,75.2,62.6,75.2,62.7,75.3z"/>
						<path fill="#202020" d="M61.6,78.9L61.6,78.9C61.6,78.9,61.6,78.9,61.6,78.9z"/>
						<path fill="#202020" d="M66.6,74C66.6,74,66.6,74,66.6,74C66.6,74,66.6,74,66.6,74z"/>
						<path fill="#202020" d="M47.8,65.8C47.8,65.8,47.8,65.8,47.8,65.8C47.8,65.8,47.8,65.8,47.8,65.8z"/>
						<path fill="#202020" d="M50.1,63.4L50.1,63.4c0,0.1,0,0.1,0.1,0.1L50.1,63.4z"/>
						<path fill="#202020" d="M75.8,82.3C75.8,82.3,75.8,82.3,75.8,82.3C75.7,82.3,75.8,82.3,75.8,82.3z"/>
						<path fill="#202020" d="M63.8,94.4c0.3,0.1-0.4,0.2,0,0.3C63.8,94.7,64.2,94.4,63.8,94.4z"/>
						<path fill="#202020" d="M61.2,79.6l-0.1-0.1C61.2,79.5,61.2,79.6,61.2,79.6z"/>
						<path fill="#202020" d="M63.8,94.7L63.8,94.7L63.8,94.7C63.9,94.7,63.9,94.7,63.8,94.7z"/>
						<path fill="#202020" d="M77.6,87.2C77.6,87.2,77.7,87.2,77.6,87.2C77.7,87.2,77.6,87.2,77.6,87.2z"/>
						<path fill="#202020" d="M76.8,83.4l0,0.1C76.8,83.5,76.8,83.5,76.8,83.4z"/>
						<path fill="#202020" d="M77,89c0,0-0.1,0-0.1,0.1L77,89C77,89.1,77,89,77,89z"/>
						<path fill="#202020" d="M75.4,90.4C75.4,90.4,75.4,90.4,75.4,90.4l0.1,0L75.4,90.4z"/>
						<path fill="#202020" d="M46.1,72.9c0.1,0,0.1-0.1,0.2-0.1C46.1,72.8,46.1,72.5,46.1,72.9z"/>
						<path fill="#202020" d="M61.3,79.6C61.3,79.6,61.2,79.6,61.3,79.6L61.3,79.6C61.3,79.7,61.3,79.7,61.3,79.6z"/>
						<path fill="#202020" d="M78,89.9c0,0-0.1,0.1-0.1,0.2c-0.1,0.1-0.2,0.1-0.2,0.1C77.8,90.1,77.9,90,78,89.9z"/>
						<path fill="#202020" d="M49.9,89.2L49.9,89.2C49.9,89.2,49.9,89.2,49.9,89.2z"/>
						<path fill="#202020" d="M76.8,91c-0.1,0-0.2,0-0.2,0c0,0,0,0,0,0.1L76.8,91z"/>
						<path fill="#202020" d="M46.3,72.8L46.3,72.8L46.3,72.8z"/>
						<path fill="#202020" d="M46.2,70.2c-0.1,0.4,0.2,0.2,0.3,0.3c0,0.4-0.2,0.2-0.3,0.3c0,0.3,0.2,0.5,0.1,0.7c0,0-0.1,0-0.1,0
							c0.1,0.3-0.1,0.8,0.1,1.2c0,0,0,0-0.1,0c0.1,0,0.2,0,0.3,0c0,0.2,0.1,0.3,0,0.4c0-0.1,0-0.1-0.1-0.2l0.1,0.2
							c-0.2,0.1-0.1-0.2-0.2-0.2c0,0.3,0.2,0.7,0.1,1c-0.2,0,0-0.6-0.2-0.3l0.1-0.4c-0.3,0.3,0-0.2-0.3,0c-0.1,0.5,0.1,0.6,0,1.1
							c0.1,0.1,0.2,0,0.3,0.1c0.2,0.7-0.5,0.6-0.2,1.1c0.1,0.1,0.4,0.2,0.3,0.6L46,75.9c0,0.5,0.3,0.3,0.2,0.8
							c-0.1-0.1-0.1-0.4-0.1-0.3c-0.2,0.3,0.1,0.2,0.2,0.5L46.1,77c0.1,0.5,0.3,1.1,0.4,1.7c-0.1,0-0.1-0.1-0.2,0
							c0.2,0.7,0.2,1.6,0.3,2.3l0.2,0.2c0,0.1,0,0.1-0.1,0.1c0,0.3,0.1,0,0.2,0.1c0,0.2,0,0.2-0.1,0.1c0.2,0.5,0.7,1.3,0.6,1.8
							l-0.1-0.1c0,0.4,0.5,0.3,0.4,0.7l-0.1-0.1c0.2,0.9,0.7,1.7,0.7,2.4c0.3,0,0.3,0.8,0.6,0.7c0.1,0.5-0.1,0.4,0.2,1.1
							c0.1,0.2,0.3,0.1,0.5,0.3l-0.2,0.1l0.3,0.2L49.7,89l0.2,0.2c0-0.1,0-0.2,0-0.2c0.2,0.3,0.3,0.8,0.3,0.8c0,0,0.1,0.1,0.3,0.3
							c0.2,0.1,0.3,0.3,0.3,0.3c-0.1,0-0.2-0.1-0.3-0.1c0.4,0.2-0.1,0.2,0.3,0.4c0-0.1,0.1,0,0.1-0.1c0,0.2,0.3,0.6,0.6,0.8l-0.1,0
							c0.4,0.5,1,0.9,1.5,1.3c-0.2-0.2,0-0.3,0.2-0.2L53,92.7c0.2,0-0.1-0.2,0.2-0.1c0.2,0.2,0,0.3-0.1,0.2l0.3,0.1
							c0,0.1-0.1,0-0.2,0.1c0.2,0,0.3,0.5,0.6,0.4l0,0.1c0.6,0.4,0.9,0.5,1.4,0.7c0.1-0.1,0.3,0,0.5-0.1c0.3,0.2,0.7,0.5,1.2,0.7
							c0.4,0,0.1-0.1,0.3-0.1c0,0.2,0.4,0.3,0.2,0.3c0.6,0.2,0.7,0.2,1.5,0.2c-0.1-0.1-0.1-0.1-0.1-0.2c0.1,0,0.3,0.1,0.3,0.2l0,0
							c0.8,0,1.8,0.7,2.5,0.5l0,0c0,0,0.2,0,0.3-0.1c0.2,0,0.3-0.1,0.3-0.1c0.3,0-0.2,0.1,0,0.2c0.7-0.2,1.2,0,1.8-0.2
							c0.5,0.4,1.7-0.2,2.3-0.1l-0.1-0.1c0.1-0.1,0.2,0,0.3,0c0-0.1-0.2-0.1-0.1-0.1c1.3-0.4,2.8-0.6,4.2-1c0.5-0.2,0.1-0.6,0.8-0.6
							L71.2,94c0.9-0.6,2-0.9,2.8-1.5c0,0.1,0,0.1-0.1,0.2c0.3,0,0.7-0.4,0.7-0.5c0.1-0.1,0.1,0.1,0.2,0.1c0.2,0,0.4-0.4,0.6-0.4
							c0,0,0,0.1-0.1,0.1c0.1-0.1,0.6-0.3,0.4-0.4c0.4-0.1,0.6-0.5,0.9-0.6c0.1-0.3,0.6-0.4,0.5-0.6c0.2,0.2,0.7-0.3,0.8-0.6
							c0,0.1,0.2-0.1,0.2,0c0.2-0.2,0.3-0.5,0.2-0.5c0.6-0.3,0.3-1.1,0.8-1.3c0.1-1-0.1-1.8-0.3-2.6c0.3,0,0.2,0.8,0.4,0.8
							c-0.2-0.8-0.5-1.1-0.7-1.8c0-0.2,0.1,0.1,0.2,0.1c-0.4-0.6-0.5-1.3-1-1.8c0,0,0.1,0,0.1,0.1c-0.1-0.1-0.1-0.3-0.2-0.2l0.1,0.1
							C77.5,83,77,82.5,77,82.5c0.4,0-0.2-0.6,0.3-0.5c-0.1-0.1-0.2-0.1-0.2-0.1c0-0.1,0-0.2,0.1-0.1c-0.3-0.3-0.3-0.1-0.5-0.5
							c0,0,0.1,0,0.2,0c-0.2-0.1-0.4-0.2-0.5-0.5c0,0,0.1-0.1,0.1,0c-0.3-0.5-0.8-0.7-1.1-1.2c0.3,0-0.1-0.2,0.1-0.4L75.2,79l0,0.2
							c-0.2-0.2-0.5-0.4-0.6-0.6l0.2,0.1l-0.4-0.4l0.1,0.3c-0.3-0.2-0.2,0.2-0.4-0.2c0.1,0-0.2-0.2-0.2-0.4l0,0
							c-0.1-0.1-0.3-0.1-0.4-0.3c0-0.1,0.2-0.1,0.2-0.2c-0.2,0-0.5-0.5-0.8-0.5c0.1,0,0.2-0.1,0.2-0.1l-0.2,0
							c-0.1-0.1-0.1-0.2,0-0.2c-0.3-0.3-0.1,0.3-0.4-0.2c0,0,0,0,0.1,0c-0.3-0.4-0.7-0.6-1-1c0-0.3,0.3,0.2,0.3,0
							c-0.5-0.4-1.2-0.7-1.7-1.1l0.1,0.1c-0.2,0.2-0.3-0.4-0.7-0.4c0.1,0,0.2-0.1,0.1-0.1c-0.4-0.3-0.8-0.4-1.5-0.5l0.1,0
							c-0.2-0.2-0.6-0.3-0.9-0.4c-0.1,0.1-0.3,0-0.2,0.1c-0.4-0.3-0.8-0.3-1.2-0.2c-0.4,0.1-0.8,0.2-1.2,0.1c0.1,0,0.2-0.1,0.1-0.1
							c0,0-0.2,0-0.3,0.1c-0.2,0.1-0.3,0.1-0.3,0.1c0.1,0.1,0.1,0.1,0.3,0.1c-0.1,0.1-0.2,0.2-0.4,0.2c0.3-0.2-0.1-0.2-0.2-0.2
							c0,0,0,0.1,0,0.1c-0.4-0.1,0,0.3-0.4,0.3l0-0.1c-0.1,0.1-0.2,0.3-0.4,0.3c-0.1-0.1,0.1-0.1,0.1-0.3c-0.2,0.1-0.3,0.5-0.6,0.5
							c0.1-0.1,0.2-0.2,0.3-0.3c-0.3,0-0.3,0-0.5,0.1l0,0c0,0-0.4,0.2-0.4,0.2l0.1,0c0,0.5-0.5,0.5-0.5,1.1c0.1-0.5-0.1-0.1-0.2-0.3
							c-0.1,0.1-0.3,0.2-0.3,0.1c0,0.3-0.3,0.3-0.3,0.7c-0.1,0-0.1,0.2-0.2,0.1c-0.1,0.3,0.1,0,0.2,0c0,0.5-0.5,1-0.2,1.7
							c0.1,0.5,0.4,0.6,0.5,1c0,0.2-0.2-0.1-0.2-0.1c0,0.3,0.1,0.5,0.2,0.7c-0.1,0-0.1,0-0.1,0.1c0.1,0.2,0.2,0,0.3,0.3
							c-0.1,0-0.2,0-0.3-0.1c0.2,0.2,0.4,0.4,0.6,0.5c0,0.1-0.2,0-0.3-0.1c0.2,0.2,0.6,0.5,0.7,0.5l-0.1-0.2
							c0.1,0.1-0.1,0.1-0.1,0.1c-0.3-0.1-0.2-0.3-0.2-0.3l0.1,0.1c0.1-0.3-0.5-0.5-0.6-0.9l0.3,0l-0.3-0.2c0-0.1,0.1-0.2,0.2-0.1
							c0-0.3-0.2-0.2-0.1-0.4c0,0,0,0,0,0c0,0-0.1-0.2-0.1-0.2c0.1,0,0.2-0.1,0.2,0.1c0-0.4-0.3-0.6-0.1-0.8l0,0
							c-0.1-0.6-0.2,0-0.4-0.5c0,0,0.1-0.1,0.2-0.1c0.1-0.1,0.2-0.1,0.2-0.1l-0.2-0.1c0-0.1,0.1-0.2,0.1-0.1c-0.1-0.2-0.1,0-0.2-0.1
							c0.2-0.2,0.2-0.8,0.4-0.7c-0.1-0.1-0.2,0.2-0.2-0.1c0.3,0.1,0.1-0.3,0.4-0.5c0.1,0.2-0.1,0.3,0.1,0.2
							c-0.1-0.3,0.3-0.4,0.4-0.5c-0.1-0.2,0.3-0.4,0.5-0.6c0,0.1,0.6-0.3,1-0.3l0,0c0-0.2,0.3-0.3,0.6-0.4c0,0.1,0,0.2-0.1,0.3
							l0.2-0.1c0-0.1,0.1-0.1,0.2-0.2l0,0.2c0.3-0.1,0.6-0.3,1-0.2c0-0.1-0.4-0.4,0.1-0.5c0,0.1,0,0.2-0.1,0.2c0,0,0.1-0.1,0.2,0
							L66,73.7c0.2,0.1,0.1-0.1,0.2-0.1c0,0.1,0.1,0.1,0.1,0.2c0,0-0.1,0-0.2,0c0.2,0,0.4,0.1,0.4,0.2c0-0.1,0-0.2,0.1-0.2
							c0.3,0,0.1,0.1,0.3,0.2c0.1-0.1,0.3,0,0.3-0.1c0.1,0,0.1,0.1,0.1,0.2c0.2-0.1,0.7,0.2,0.6-0.1l0,0l0,0l0,0l0,0
							c0.6,0,1,0.5,1.5,0.7l0,0c0.3,0.1,0.6,0.3,0.9,0.4c0.1,0.1,0.1,0.2,0.1,0.2c0.2,0.1,0.3,0.1,0.5,0.4c-0.3-0.1,0,0.1-0.2-0.1
							c0.2,0.2,0.2,0.3,0.6,0.5c-0.2,0,0.1,0.3,0.2,0.4l-0.1-0.2c0.1,0.1,0.2,0.2,0.3,0.3l-0.2,0.1c0.3,0.6,1.1,0.6,1.2,1.2
							c0.2,0-0.2-0.3,0.1-0.3c0.2,0.2,0.2,0.7,0.2,0.7c0.2,0.4,0.5,0.1,0.7,0.5c0-0.1,0.1-0.2,0.4,0c0.2,0.3,0,0.5-0.2,0.4
							c-0.1-0.1-0.1-0.1,0-0.1c-0.1-0.1-0.2-0.1-0.2,0l0.1,0c0,0.2,0.3,0.5,0.2,0.5c0.2,0.1,0.1,0,0.1-0.1c0.2,0.4,0.4,0.5,0.6,0.9
							c0-0.1,0-0.2,0.1-0.1c0.3,0.5,0.3,0.1,0.5,0.5c0,0.2-0.3,0.1,0,0.4c0.1,0.2-0.1,0.1-0.2,0.1c0.3,0.2,0.3,0.6,0.4,0.8l-0.1-0.1
							c0.1,0.1,0.1,0.2,0.2,0.2l0.1-0.2c0,0.1,0.1,0.2,0,0.2c0.1,0.1,0.1-0.2,0.4-0.1c0,0.2,0.3,0.4,0.2,0.5
							c-0.2-0.4-0.1,0.1-0.4-0.2c0.1,0.1,0.1,0.1,0.1,0.2c0,0,0,0-0.1,0c0.1,0.5,0.3,0.1,0.5,0.5c-0.1,0-0.1,0.2-0.1,0.2
							c-0.1-0.2,0.1-0.2,0.3,0c0.1,0.3,0.2,0.3,0.3,0.4l-0.1-0.2c0.1,0,0.2,0.1,0.3,0.3c-0.1,0.1-0.1-0.1-0.1-0.1
							c0.3,0.1,0.1,0.6,0.3,0.8c0,0.2-0.2,0.1-0.2,0.2c0.3,0.3,0,0.4,0.2,0.7c0.1-0.1,0.1-0.2,0.3,0.1c0,0-0.1-0.1-0.1-0.3
							c-0.1-0.1-0.2-0.3-0.2-0.3l0.3,0.3c-0.1-0.2-0.2-0.3-0.2-0.4c0.2,0.1,0.1,0.1,0.2,0c-0.1,0.3,0.3,0.4,0.3,0.8l-0.3,0.1
							c0,0.4,0.4,0.7,0.3,1.2l0-0.2c0.1,0.1,0,0.3,0.1,0.5c-0.1,0-0.2,0.1-0.2,0.1c0.1,0-0.1,0.4,0.1,0.5c0,0-0.2,0.2-0.2,0.2
							c-0.2,0.4,0.1,0.6-0.1,0.9c0-0.2-0.2-0.1-0.1-0.3c-0.1,0.1-0.2,0.2-0.1,0.3c-0.1,0-0.1,0.4-0.3,0.4c0,0.1,0.1,0.2,0,0.3
							c0,0,0,0,0,0c0,0-0.1,0.2,0.1,0.2c-0.6,0.1-1,0.9-1.5,0.8c-0.3,0.2-0.6,0.4-0.8,0.6c0,0,0,0,0-0.1c-0.4,0.1-0.1,0.4-0.5,0.5
							c-0.3,0,0.2-0.2,0-0.2c-0.2-0.3-0.5,0.3-0.9,0.3l0.1-0.1c-0.3,0-0.5,0.4-0.8,0.6c0,0,0,0,0-0.1c-0.2,0.3-0.6,0.6-0.9,0.8
							c0.1-0.2,0.1-0.1,0-0.2c-0.2,0.1,0.1,0.2-0.2,0.4c-0.1,0-0.4,0-0.5-0.1l0.3-0.1c-0.2-0.1-0.4,0.2-0.6,0.2l0-0.1
							c-0.4,0.2-0.4,0.4-0.9,0.6l0.1,0c-0.2,0.3-0.3,0-0.5,0.2l-0.2-0.2c-0.2,0.1-0.6,0.4-0.9,0.6c0.1-0.2,0.5-0.4,0.7-0.6
							c-0.2,0.1-0.6,0.2-0.7,0.4c0.1,0,0.1-0.1,0.2-0.1c-0.2,0.2-0.4,0.4-0.8,0.5c0-0.4-1,0.1-1.3-0.1c-0.6,0.3-1.3,0.2-2.1,0.3
							c0.3,0.3-0.2,0-0.1,0.4c-0.2,0-0.3,0-0.3,0l-0.6-0.2c-0.1-0.1,0.2-0.1,0.1-0.2c-0.4,0-0.2-0.1-0.4-0.2
							c0.1,0.1-0.1,0.2-0.4,0.1l0.3,0.2c-0.5,0.2-0.5-0.3-1-0.1l0.2-0.1c-0.3,0.1-1,0-1.3,0.2c0,0-0.1-0.1,0-0.2
							c-0.7-0.1-1.5,0.1-2-0.2l0.1-0.1c-0.1,0-0.3,0.1-0.4,0c0,0,0.1-0.1,0-0.1c-0.1,0-0.4,0.1-0.5,0l0.2-0.1
							c-0.6-0.3-1-0.1-1.6-0.2c0.1-0.2-0.3-0.5-0.5-0.7l0,0c-0.7-0.4-1.2-0.4-1.9-0.7c-0.2-0.5-1.1-1-1.5-1.6c0,0.1-0.2,0.1-0.3,0
							c-0.1-0.2-0.4-0.2-0.2-0.4l0,0c0.1-0.2-0.2-0.5-0.3-0.7l-0.3,0.1c-0.1-0.8-1.2-1.4-1-2c-0.1-0.1-0.2-0.3-0.4-0.4l0.1-0.1
							c-0.2-0.4-0.3-0.7-0.5-1.2l0.2,0.1c-0.1-0.3-0.6-0.2-0.7-0.5l0.2-0.2c-0.2-0.5-0.3-1.1-0.6-1.6c0,0,0.1,0,0.1,0.1
							c-0.1-0.3-0.2-1-0.5-0.8c0.2-0.1-0.1-0.6-0.3-0.9l0.2,0c-0.3-0.2-0.3-0.2-0.5-0.5c0-0.1,0.1-0.1,0.1,0c0-0.3-0.2-0.2-0.2-0.6
							l0.1,0.1c-0.1-0.3-0.1-0.3-0.3-0.4c-0.1-0.2-0.1-0.6,0-0.6c-0.1,0-0.2-0.2-0.2-0.3c0,0,0.1,0,0.1,0.1c0-0.5-0.3-0.7-0.2-1.1
							c0.1,0,0.1,0,0.1-0.1c0.1,0.4,0.1,0.7,0.1,0.7c0.1,0,0.1-0.3,0.4-0.1c-0.2-0.2-0.5-0.6-0.4-1c0,0,0,0,0,0l0,0
							c0-0.1,0-0.1,0-0.2c0-0.1,0-0.2,0-0.3c0.1-0.1,0-0.4,0-0.5c-0.2,0-0.2-0.2-0.3,0c0,0,0,0,0,0.1c0,0,0,0.1,0,0.1l0,0
							c0,0.1,0,0.2,0.1,0.4c-0.1-0.1-0.2-0.2-0.1-0.4c-0.1-0.1-0.2-0.2-0.3-0.2c0.2-0.2,0.3-0.7,0.4-0.7c-0.1-0.5-0.1-1.1-0.4-1.4
							c0-0.1,0.1-0.2,0.1-0.2c0,0.1,0,0.2,0.1,0.2c-0.1-0.3,0-0.8-0.2-0.9c0.1-0.4,0.2,0.2,0.2-0.3l0.1,0.1c0.4-0.9-0.4-1.6,0.1-2.6
							c0,0.1-0.1,0.1-0.1,0.1c0.4-1.1,0.3-2.5,1-3.5c0.2-0.3,0-0.4,0-0.6l0.2,0l-0.1-0.4c0.1-0.5,0.7-0.6,0.7-1.3l-0.1,0
							c0.1-0.2,0.3-0.7,0.4-0.6c0,0-0.1-0.1,0-0.2l0.1,0c0,0,0-0.1,0.1-0.3c0-0.1,0.1-0.3,0.1-0.3c0.3-0.3,0.3,0.2,0.6-0.3
							c0.1-0.2,0.1-0.7,0-0.7c-0.1,0.1-0.2,0.2-0.3,0.1l0.1-0.2c-0.2-0.2-0.3-0.5-0.8-0.1l-0.1,0.4l-0.2,0l0.2-0.3
							C49,63.6,49,63.8,49,63.9c-0.1,0-0.1,0-0.2,0.1l0,0.5c-0.1,0-0.1-0.3-0.3-0.1c0,0.2,0.3,0,0.2,0.3c-0.2,0.1-0.3,0-0.3,0.3
							c-0.1,0-0.1-0.1-0.1-0.2c0,0.2-0.2,0.5-0.1,0.6c-0.2,0.1-0.3,0.6-0.5,0.5c0,0.1,0.1,0.4,0,0.6c-0.2-0.4-0.3,0.6-0.5,0.4
							c0.2,0.3-0.2,0.9-0.2,1.3c0,0,0-0.1,0-0.1c-0.1,0.2-0.2,0.3-0.3,0.4c0.2,0.1,0.2,0.5,0.2,0.7c-0.3,0.2-0.2-0.2-0.4-0.2
							c0.2,0,0.1,0.5,0.2,0.5c-0.2,0.2-0.1,0.2-0.3,0.2c0.3,0.1,0,0.2,0.1,0.4c-0.2,0.3-0.3,0-0.3,0.4
							C46.3,70.6,46.2,70.2,46.2,70.2z M46.5,78.6L46.5,78.6c0-0.1,0-0.1,0-0.2C46.5,78.5,46.5,78.5,46.5,78.6z M46.6,79.3
							c0-0.1,0-0.2,0-0.3c0.1,0,0.1,0,0.1,0.1C46.7,79,46.7,79.2,46.6,79.3z M47.5,77.7c0,0.1,0,0.1,0,0.2
							C47.5,77.8,47.5,77.8,47.5,77.7L47.5,77.7C47.5,77.7,47.5,77.7,47.5,77.7z"/>
						<path fill="#202020" d="M47.3,77.6C47.3,77.6,47.3,77.5,47.3,77.6C47.3,77.5,47.3,77.6,47.3,77.6L47.3,77.6L47.3,77.6z"/>
						<path fill="#202020" d="M68,74L68,74C68,74,68,74,68,74C68,74,68,74,68,74z"/>
						<polygon fill="#202020" points="49.5,88.6 49.5,88.5 49.4,88.5 						"/>
						<path fill="#202020" d="M64.3,73.5C64.2,73.5,64.2,73.5,64.3,73.5C64.2,73.5,64.2,73.5,64.3,73.5z"/>
						<path fill="#202020" d="M62.7,74.2c0,0-0.2,0.1-0.2,0.1C62.6,74.3,62.6,74.2,62.7,74.2z"/>
						<path fill="#202020" d="M61.6,75.1C61.7,75.1,61.7,75.1,61.6,75.1L61.6,75.1L61.6,75.1z"/>
						<path fill="#202020" d="M77.7,82.8C77.7,82.9,77.7,82.9,77.7,82.8C77.8,83,77.8,82.9,77.7,82.8z"/>
						<path fill="#202020" d="M74,78c0.1,0,0.1,0.1,0.2,0.1C74.2,78.1,74.1,78,74,78z"/>
						<polygon fill="#202020" points="78,89.8 78,89.8 78,89.9 						"/>
						<path fill="#202020" d="M74.4,78.4c0-0.1-0.1-0.2-0.2-0.2C74.3,78.2,74.3,78.3,74.4,78.4z"/>
						<path fill="#202020" d="M61.9,80.7L61.9,80.7C62,80.8,62,80.8,61.9,80.7L61.9,80.7z"/>
						<path fill="#202020" d="M62,80.8L62,80.8C62.1,80.8,62,80.8,62,80.8z"/>
						<path fill="#202020" d="M62.2,80.9l-0.1-0.1C62.1,80.8,62.2,80.9,62.2,80.9z"/>
						<path fill="#202020" d="M61,79.1L61,79.1C61,79.1,61,79.1,61,79.1z"/>
						<path fill="#202020" d="M60.9,78.6c0,0.1-0.1,0.4,0,0.5l0.1,0C60.9,79,61,78.7,60.9,78.6z"/>
						<path fill="#202020" d="M61.7,76.5c0,0-0.2,0.4-0.1,0.4c0.1-0.1,0.2-0.1,0.2,0.1C62,76.5,61.5,77,61.7,76.5z"/>
						<path fill="#202020" d="M62.4,75.5C62.3,75.7,62.4,75.5,62.4,75.5C62.5,75.4,62.5,75.4,62.4,75.5z"/>
						<path fill="#202020" d="M70.5,75.4l-0.1,0.1C70.5,75.6,70.4,75.5,70.5,75.4z"/>
						<polygon fill="#202020" points="72.4,76 72.3,75.8 72.2,75.9 						"/>
						<polygon fill="#202020" points="72.4,77.5 72.3,77.5 72.5,77.6 						"/>
						<path fill="#202020" d="M75.7,90.1l0.1,0.1C75.9,90.1,75.8,89.9,75.7,90.1z"/>
						<path fill="#202020" d="M69.7,93.3c-0.1-0.1-0.3-0.1-0.4,0.1C69.5,93.3,69.7,93.3,69.7,93.3z"/>
						<polygon fill="#202020" points="51.7,89.3 51.8,89.4 51.6,89.2 						"/>
					</g>
				</g>
			</g>
		</g>
	</g>
	<g>
		<g>
			<g>
				<g>
					<g>
						<path fill="#202020" d="M81.4,96.1c0,0.1,0.1,0.1,0.1,0.1L81.5,96L81.4,96.1z"/>
						<path fill="#202020" d="M82.1,96.1c0-0.1,0-0.3-0.2-0.4c0,0.2,0,0.2,0,0.4c0,0.1-0.1,0-0.2,0c0,0.1-0.1,0-0.1,0.2
							c0.2,0.1,0.3,0,0.3-0.2C82,96,82,96.1,82.1,96.1z"/>
						<path fill="#202020" d="M87.9,91.2L87.9,91.2C87.8,91.2,87.8,91.2,87.9,91.2z"/>
						<path fill="#202020" d="M91,87.6C91,87.7,91,87.7,91,87.6C91,87.7,91.1,87.6,91,87.6z"/>
						<path fill="#202020" d="M91.7,87.1C91.7,87.1,91.7,87.1,91.7,87.1C91.7,87.1,91.7,87.1,91.7,87.1z"/>
						<path fill="#202020" d="M87.9,91.2l0.1-0.1C87.9,91.1,87.9,91.1,87.9,91.2z"/>
						<path fill="#202020" d="M82.6,95.1C82.6,95.1,82.6,95.1,82.6,95.1L82.6,95.1L82.6,95.1z"/>
						<path fill="#202020" d="M86.5,92.8L86.5,92.8c0,0.1,0,0.1,0,0.1L86.5,92.8z"/>
						<path fill="#202020" d="M85.4,93.9c0,0-0.1-0.1-0.1-0.2C85.3,93.7,85.3,93.8,85.4,93.9C85.3,93.8,85.3,93.9,85.4,93.9z"/>
						<path fill="#202020" d="M83.3,95.4L83.3,95.4C83.3,95.4,83.3,95.4,83.3,95.4z"/>
						<path fill="#202020" d="M87.3,92C87.4,92,87.4,92,87.3,92C87.4,92,87.4,92,87.3,92z"/>
						<path fill="#202020" d="M73,57.9C73,57.9,73,57.9,73,57.9C73,57.9,73,57.9,73,57.9z"/>
						<polygon fill="#202020" points="71.7,56.4 71.7,56.4 71.7,56.3 						"/>
						<path fill="#202020" d="M92.5,85.5L92.5,85.5C92.6,85.6,92.6,85.5,92.5,85.5z"/>
						<path fill="#202020" d="M86.5,75.2c-0.2,0.1-0.1-0.3-0.3-0.1C86.2,75.1,86.3,75.4,86.5,75.2z"/>
						<path fill="#202020" d="M82.6,95.1L82.6,95.1C82.6,95,82.6,95.1,82.6,95.1z"/>
						<polygon fill="#202020" points="86.1,75.1 86.1,75.1 86.1,75.1 						"/>
						<path fill="#202020" d="M91.6,81.9C91.6,81.9,91.6,81.9,91.6,81.9C91.6,81.9,91.6,81.9,91.6,81.9z"/>
						<path fill="#202020" d="M92.2,84.5L92.2,84.5C92.2,84.4,92.2,84.4,92.2,84.5z"/>
						<path fill="#202020" d="M90.9,80.7C90.9,80.7,90.9,80.7,90.9,80.7L90.9,80.7C90.9,80.7,90.9,80.7,90.9,80.7z"/>
						<polygon fill="#202020" points="90.2,79.5 90.2,79.5 90.2,79.5 						"/>
						<path fill="#202020" d="M76.4,60c0-0.1,0-0.1,0-0.2C76.4,59.9,76.2,59.9,76.4,60z"/>
						<path fill="#202020" d="M82.6,95.2C82.6,95.1,82.6,95.1,82.6,95.2L82.6,95.2C82.6,95.1,82.6,95.2,82.6,95.2z"/>
						<path fill="#202020" d="M89.7,81.2L89.7,81C89.7,81.1,89.7,81.1,89.7,81.2z"/>
						<path fill="#202020" d="M82.4,67.2L82.4,67.2C82.4,67.2,82.4,67.2,82.4,67.2z"/>
						<path fill="#202020" d="M89.4,80.5c0-0.1,0-0.1,0-0.2c0,0,0,0,0,0L89.4,80.5z"/>
						<path fill="#202020" d="M76.4,59.8L76.4,59.8L76.4,59.8z"/>
						<path fill="#202020" d="M75.1,59.3c0.2,0.1,0.2-0.1,0.3-0.2c0.2,0.1,0,0.2,0,0.3c0.2,0,0.4-0.1,0.4,0c0,0,0,0.1-0.1,0.1
							c0.2,0,0.4,0.3,0.7,0.2c0,0,0,0,0,0.1c0-0.1,0.1-0.2,0.2-0.2c0.1,0.1,0.2,0,0.2,0.1c0,0-0.1,0-0.1,0l0.1,0
							c-0.1,0.2-0.1,0-0.2,0.1c0.2,0.1,0.5,0.1,0.5,0.2c-0.1,0.2-0.3-0.2-0.3,0.1l-0.1-0.2c-0.1,0.3-0.1-0.1-0.2,0.3
							c0.2,0.2,0.3,0.1,0.5,0.4c0.1,0,0.1-0.1,0.2-0.2c0.4,0.1-0.1,0.6,0.3,0.6c0.1,0,0.3-0.2,0.4,0l-0.2,0.1
							c0.2,0.2,0.3-0.1,0.4,0.2c-0.1,0-0.2-0.1-0.2,0c0,0.3,0.2,0,0.3,0.1l-0.1,0.2c0.2,0.2,0.6,0.3,0.8,0.5c-0.1,0-0.1,0-0.1,0.1
							c0.4,0.2,0.6,0.7,0.8,1l0.2,0c0,0,0,0.1-0.1,0.1c0,0.2,0.1-0.1,0.2,0c0.1,0.1,0,0.2-0.1,0.1c0.3,0.1,0.7,0.4,0.8,0.8l-0.1,0
							c0.1,0.2,0.4,0,0.4,0.3l0,0c0.2,0.4,0.7,0.8,0.6,1.3c0.2-0.1,0.2,0.5,0.5,0.3c0,0.3-0.1,0.3,0,0.7c0,0.1,0.3,0,0.4,0.1
							l-0.2,0.1l0.2,0.1l-0.1,0.2l0.1,0.1c0,0,0-0.1,0.1-0.1c0.2,0.1,0.1,0.5,0,0.5l0.3,0.3c-0.1,0-0.1,0-0.2-0.1
							c0.3,0.1-0.1,0.1,0.1,0.2c0,0,0.1,0,0.1,0c-0.1,0.1,0.1,0.4,0.2,0.5l-0.1,0c0.1,0.3,0.4,0.7,0.7,1.1c-0.1-0.2,0.1-0.3,0.2-0.2
							l-0.1,0.2c0.1,0,0-0.2,0.2-0.1c0.1,0.1-0.1,0.2-0.2,0.2l0.2,0.1c0,0-0.1,0-0.2,0.1c0.1,0,0.1,0.4,0.4,0.3l0,0
							c0.3,0.3,0.5,0.3,0.7,0.5c0.1-0.1,0.2,0,0.3-0.1c0.1,0.2,0.1,0.4,0.2,0.6c0.1,0.1,0.1,0,0.3,0c-0.1,0.1-0.1,0.3-0.2,0.2
							c0.1,0.2,0.1,0.3,0.3,0.6c0.1,0,0.1-0.1,0.1-0.1c0,0.1-0.1,0.2-0.1,0.2l0,0c0.2,0.4-0.5,0.9-0.2,1.3l0,0l0.1,0.4
							c-0.1,0.2-0.1-0.1-0.2,0c0.2,0.5-0.2,0.6-0.1,1c-0.5,0.2-0.1,1-0.4,1.4l0.1,0c0.1,0.1-0.1,0.1-0.1,0.2c0.1,0,0.1-0.1,0.1,0
							c0,0.1,0,0.3,0,0.4c0,0.2,0,0.4,0.1,0.5c0,0.4,0.1,0.8,0.1,1.1c0.3,0,0.7,0,1.1,0l0.2,0c0.1,0,0.1,0,0.1,0
							c0.1,0,0.1,0,0.2,0.1c0.2,0.1,0.3-0.5,0.5-0.2l-0.1,0.2c0.5-0.1,0.9,0.4,1.4,0.6c-0.1,0-0.1,0.1-0.1,0c0,0.2,0.3,0.3,0.4,0.2
							c0,0.1-0.1,0.1-0.1,0.2c0,0.1,0.3,0.1,0.2,0.2c0,0-0.1,0-0.1,0c0.1,0,0.2,0.3,0.3,0.1c0.1,0.2,0.3,0.3,0.3,0.5
							c0.2,0,0.1,0.3,0.3,0.2c-0.2,0.1,0,0.4,0.1,0.5c-0.1,0,0,0.1-0.1,0.1c0.1,0.1,0.2,0.2,0.3,0.2c-0.2,0.4,0.4,0.4,0.1,0.7
							c0.3,0.4,0.5,0.8,0.7,1.1c-0.3,0.1-0.2-0.4-0.4-0.3c0.2,0.3,0.5,0.5,0.6,0.9c0,0.1-0.1,0-0.2,0c0.2,0.3,0.2,0.7,0.4,1
							c0,0-0.1,0-0.1-0.1c0,0.1,0,0.1,0.1,0.1l0-0.1c0.2-0.1,0.4,0.2,0.5,0.2c-0.3-0.1-0.1,0.3-0.5,0.2c0,0,0.1,0.1,0.2,0.1
							c0,0.1-0.1,0.1-0.2,0c0,0.2,0.2,0.1,0.1,0.3c-0.1,0-0.1-0.1-0.1-0.1c0.1,0.1,0.2,0.2,0.1,0.4c0,0-0.1,0-0.1-0.1
							c-0.1,0.3,0.1,0.6-0.2,0.8c-0.2-0.2-0.1,0.1-0.3-0.1l-0.1,0.2l0.1,0c-0.1,0.1-0.1,0.3-0.2,0.4l0-0.2l-0.2,0.3l0.2-0.1
							c0,0.2,0.2,0.2,0,0.3c0-0.1-0.1,0.1-0.3,0.1l0,0c0,0.1,0,0.2-0.1,0.3c-0.1,0-0.2-0.2-0.2-0.2c0.1,0.2-0.2,0.3-0.1,0.5
							c0-0.1-0.1-0.1-0.1-0.1l0.1,0.1c-0.1,0-0.1,0-0.2,0c-0.2,0.2,0.3,0.1,0,0.3c0,0,0,0,0-0.1c-0.2,0.2-0.3,0.5-0.5,0.6
							c-0.2-0.1,0.1-0.2-0.1-0.3c-0.2,0.3-0.3,0.8-0.6,1l0.1,0c0.2,0.2-0.3,0.1-0.3,0.3c0,0-0.1-0.2-0.1-0.1
							c-0.2,0.2-0.3,0.4-0.5,0.8l0-0.1c-0.2,0.1-0.3,0.3-0.4,0.3c0,0.1,0,0.1,0.1,0.2c-0.7,0-0.5,0.8-1.1,0.9c0,0,0-0.1,0-0.1
							l-0.2,0.3c0.1,0.1,0.1,0,0.2,0c0,0.1,0,0.2-0.1,0.3c0.1-0.2-0.2-0.2-0.3-0.2c0,0,0.1,0.1,0.1,0.1c-0.3,0,0.2,0.2-0.1,0.3
							l0-0.1c0,0.1,0,0.2-0.1,0.3c-0.1-0.1,0-0.1-0.1-0.2c-0.1,0.1,0,0.4-0.2,0.4c0-0.1,0.1-0.1,0.1-0.2c-0.2,0-0.2,0-0.3,0.1l0,0
							l-0.2,0.1l0.1,0c0.1,0.4-0.2,0.3-0.2,0.7c0-0.4-0.1-0.1-0.2-0.3c-0.1,0-0.2,0-0.2,0c0,0.2-0.2,0-0.2,0.3c0,0-0.1,0.1-0.2,0
							c-0.1,0.1,0.1,0,0.1,0.1c0,0.3-0.6,0.2-0.7,0.6c-0.2,0.3-0.1,0.5-0.2,0.7c-0.1,0-0.1-0.2-0.1-0.2c-0.2,0-0.2,0.1-0.3,0.3
							c0-0.1-0.1-0.1-0.1-0.1c-0.1,0.1,0.1,0.2-0.1,0.2c0-0.1-0.1-0.2-0.1-0.2c-0.1,0.1-0.1,0.3-0.2,0.4c-0.1-0.1,0-0.2,0-0.2
							c-0.1,0.1-0.3,0.3-0.2,0.5l0.1,0c0,0-0.1-0.1-0.1-0.1c0-0.2,0.2-0.1,0.2,0l-0.1,0.1c0.3,0.2,0.3-0.3,0.4-0.4l0.1,0.2l0-0.3
							c0.1,0,0.2,0.1,0.1,0.2c0.2,0,0-0.1,0.2-0.1c0,0,0,0,0,0l0.1-0.1c0,0.1,0.1,0.1,0,0.1c0.3-0.1,0.2-0.4,0.4-0.3l0,0
							c0.2-0.3-0.1-0.2,0-0.5l0.4,0.2L84,94.6c0,0,0.1-0.1,0.1,0c0-0.2-0.1,0-0.1-0.2c0.2,0,0.3-0.4,0.5-0.2c0-0.1-0.2,0-0.1-0.2
							c0.2,0.2,0.1-0.2,0.3-0.2c0.1,0.1-0.1,0.2,0.1,0.2c-0.1-0.3,0.3-0.2,0.3-0.3c-0.1-0.2,0.2-0.3,0.3-0.5c0,0.1,0.4-0.2,0.6-0.3
							l0,0c-0.1-0.2,0.1-0.3,0.1-0.4c0.1,0.1,0.1,0.2,0.1,0.3l0.1-0.1c0-0.1,0-0.1,0-0.2l0.1,0.1c0.1-0.1,0.2-0.4,0.4-0.5
							c-0.1-0.1-0.4-0.1-0.3-0.4c0.1,0,0.2,0.1,0.1,0.2c0,0,0-0.1,0.1-0.1l0,0.2c0.1,0,0-0.1,0-0.2c0.1,0.1,0.1,0,0.2,0.1
							c0,0-0.1,0-0.1,0.1c0.1-0.1,0.2-0.1,0.3-0.1c-0.1,0-0.1-0.1-0.1-0.2c0.1-0.1,0.1,0,0.3,0c0-0.1,0.1-0.1,0-0.2c0,0,0.1,0,0.2,0
							c0-0.1,0.3-0.4,0.1-0.4l0,0l0,0l0,0l0,0c0.1-0.4,0.5-0.4,0.7-0.7l0,0c0.1-0.2,0.3-0.4,0.3-0.5c0,0,0.2,0,0.2,0
							c0.1-0.1,0-0.2,0.2-0.3c0,0.2,0.1,0,0,0.2c0.2-0.1,0.3-0.1,0.3-0.3c0.1,0.1,0.2,0,0.3-0.1l-0.2,0c0.1-0.1,0.1-0.2,0.2-0.2
							l0.1,0.2c0.4-0.2,0.2-0.8,0.7-0.8c0-0.2-0.2,0.1-0.3-0.1c0.1-0.1,0.5-0.1,0.5-0.1c0.2-0.1-0.1-0.4,0.2-0.5
							c-0.1,0-0.2-0.1-0.2-0.3c0.1-0.1,0.4,0,0.3,0.1c0,0-0.1,0-0.1,0c0,0.1,0,0.1,0.1,0.1l0-0.1c0.1,0,0.3-0.2,0.3-0.1
							c0-0.2-0.1-0.1-0.1-0.1c0.2-0.1,0.2-0.3,0.4-0.5c-0.1,0-0.1,0-0.1,0c0.3-0.3,0-0.2,0.1-0.4c0.2-0.1,0.2,0.2,0.2-0.1
							c0.1-0.1,0.2,0,0.2,0.1c0-0.3,0.3-0.4,0.4-0.6l0,0.2c0-0.1,0-0.2,0-0.2l-0.2,0c0-0.1,0.1-0.1,0.1-0.1c-0.1-0.1-0.2,0-0.3-0.2
							c0.1-0.1,0-0.3,0.2-0.3c-0.1,0.3,0.2,0,0.2,0.3c0-0.1,0-0.1,0-0.2c0,0,0,0,0,0c0.2-0.3-0.2-0.2-0.2-0.5c0.1,0,0.2-0.1,0.2-0.1
							c0,0.1-0.2,0.1-0.3,0c0.1-0.2-0.1-0.2-0.1-0.3l0,0.1c-0.1,0-0.1-0.1-0.2-0.3c0.1,0,0.1,0.1,0.1,0.1c-0.2-0.1,0.1-0.4-0.1-0.6
							c0-0.1,0.2-0.1,0.2-0.2c-0.2-0.2,0.1-0.3-0.1-0.5c-0.1,0.1-0.1,0.1-0.3,0l0.2,0.3l-0.3-0.2c0,0.1,0.2,0.2,0.2,0.3
							c-0.1-0.1-0.1-0.1-0.2,0c0.2-0.2-0.2-0.3-0.1-0.5l0.3-0.1c0.1-0.3-0.3-0.4-0.4-0.8l0,0.1c-0.1,0-0.1-0.2-0.2-0.3
							c0.1,0,0.1-0.1,0.2-0.2c-0.1,0-0.1-0.3-0.3-0.2l0.1-0.2c-0.1-0.3-0.4-0.2-0.5-0.5c0.1,0,0.2-0.1,0.3,0c0-0.1-0.1-0.2-0.1-0.1
							c0-0.1-0.2-0.2-0.2-0.3c-0.1,0-0.2,0-0.2-0.1c0,0,0.1,0,0.1,0c-0.1,0-0.1-0.1-0.2,0c0.2-0.4-0.4-0.7-0.3-1.1
							c-0.2-0.2-0.3-0.3-0.5-0.5c0,0,0,0,0.1,0c-0.1-0.3-0.4,0.1-0.5-0.2c0-0.2,0.2,0,0.2-0.1c0.2-0.3-0.3-0.2-0.3-0.5l0.1,0
							c0-0.2-0.4-0.1-0.6-0.3c0,0,0,0,0,0c-0.3,0.1-0.6-0.1-0.8-0.1c0.1-0.1,0.1,0,0.2-0.2c-0.1,0-0.1,0.2-0.3,0.2
							c0-0.1-0.2-0.2-0.1-0.4l0.2,0.1c0-0.2-0.3-0.1-0.4-0.2l0-0.1c-0.3-0.1-0.4,0.2-0.7,0.1l0,0.1c-0.2,0.2-0.2-0.2-0.3,0l0-0.2
							c-0.1,0-0.3,0.2-0.5,0.3c0,0,0,0-0.1,0l0.1-0.1c0.2-0.2,0.4-0.2,0.4-0.3c0,0-0.2,0-0.3,0.2c0,0,0.1-0.1,0.1-0.1
							c-0.1,0.1-0.1,0.1-0.2,0.2c-0.1,0.1-0.1,0-0.1,0c0,0,0-0.1-0.1-0.1c0.4-0.3,0.1-0.4,0.4-0.6c-0.2-0.4,0.1-0.7,0.2-1.2
							c-0.4,0.1,0-0.1-0.3-0.2c0-0.1,0-0.2,0-0.2l0.3-0.3c0.1-0.1,0.1,0.1,0.1,0.1c0.1-0.2,0.2-0.1,0.3-0.2c-0.1,0-0.2-0.1-0.1-0.2
							l-0.2,0.2c-0.1-0.4,0.3-0.2,0.2-0.6l0.1,0.1c0-0.2,0.1-0.7-0.1-0.9c0,0,0.1-0.1,0.2,0c0.1-0.4-0.2-1-0.1-1.4l0.1,0
							c0-0.1-0.2-0.1-0.1-0.3c0,0,0.1,0,0.1,0c0,0-0.2-0.2-0.2-0.3l0.1,0.1c0-0.5-0.5-0.7-0.7-0.9c0.2-0.1,0-0.5-0.1-0.7l0,0
							c-0.4-0.4-0.8-0.4-1.1-0.6c0-0.3-0.4-0.6-0.4-1.1c0,0.1-0.2,0.1-0.2,0c0-0.1-0.3-0.2-0.1-0.3l0,0c0.2-0.2,0-0.3,0-0.5
							l-0.3,0.1c0.2-0.6-0.7-1-0.4-1.3c-0.1-0.1-0.2-0.2-0.3-0.2l0.1-0.1c-0.1-0.3-0.2-0.4-0.4-0.7l0.1,0c-0.1-0.2-0.5,0-0.6-0.1
							l0.2-0.2c-0.2-0.3-0.2-0.7-0.6-0.9c0,0,0.1,0,0.1,0c-0.1-0.1-0.3-0.6-0.5-0.4c0.2-0.1-0.2-0.3-0.4-0.4l0.1-0.1
							c-0.3,0-0.3,0-0.5-0.1c0-0.1,0.1-0.1,0.1,0c0-0.2-0.2,0-0.3-0.2l0.1,0c-0.1-0.1-0.1-0.1-0.3-0.1c-0.1,0-0.2-0.3-0.1-0.4
							c-0.1,0-0.2,0-0.3-0.1c0,0,0.1,0,0.1,0c-0.1-0.3-0.4-0.2-0.5-0.5c0,0,0-0.1,0-0.1c0.2,0.2,0.3,0.3,0.3,0.3
							c0.1-0.1,0-0.3,0.3-0.3c-0.2,0-0.5-0.1-0.6-0.3c0,0,0,0,0-0.1l0,0c0,0-0.1-0.1-0.1-0.1c0-0.1,0-0.1-0.1-0.1
							c0.1-0.1-0.1-0.2-0.2-0.3c-0.1,0.1-0.2,0-0.2,0.2c0,0,0,0,0.1,0c0,0,0,0,0,0c0,0,0,0,0,0c0,0,0.1,0.1,0.2,0.2
							c-0.1,0-0.2,0-0.2-0.1c-0.1,0-0.2,0.1-0.3,0.1c0.1-0.3,0-0.5,0-0.7c-0.3-0.1-0.6-0.4-0.9-0.3c-0.1,0,0-0.1,0-0.2
							c0.1,0,0.1,0,0.1,0c-0.2-0.1-0.4-0.3-0.6-0.2c-0.1-0.2,0.2-0.1,0-0.2l0.1,0c-0.2-0.6-1.1-0.2-1.3-0.9c0,0,0,0.1,0,0.1
							c-0.5-0.6-1.3-0.7-1.8-1.3c-0.1-0.2-0.2,0-0.4,0l0-0.2l-0.3,0.1c-0.3,0-0.3-0.6-0.7-0.6l0,0.1c-0.1-0.1-0.4-0.1-0.3-0.2
							c0,0-0.1,0.1-0.1,0l0-0.1l-0.4,0c-0.2-0.2,0.2-0.3-0.2-0.5c-0.1,0-0.5,0.1-0.5,0.2c0.1,0,0.1,0.1,0.1,0.2l-0.1,0
							c-0.1,0.2-0.3,0.5-0.1,0.8l0.3-0.1l0,0.1l-0.2-0.1c0,0.2,0.1,0.1,0.2,0c0,0.1,0,0.1,0,0.2l0.3-0.1c0,0.1-0.2,0.2-0.1,0.3
							c0.1-0.1,0-0.3,0.2-0.3c0,0.2,0,0.2,0.1,0.2c0,0.1-0.1,0.1-0.1,0.1c0.1,0,0.3,0.1,0.4,0c0,0.2,0.3,0.1,0.2,0.3
							c0.1,0,0.3-0.1,0.4-0.1C73,58,73.6,58,73.4,58.3c0.2-0.2,0.5,0.1,0.8,0.1c0,0-0.1,0-0.1,0c0.1,0.1,0.1,0.2,0.1,0.3
							c0.1-0.2,0.3-0.1,0.5-0.2c0,0.3-0.2,0.2-0.3,0.4c0.1-0.2,0.3,0,0.4-0.2c0,0.2,0.1,0.1,0,0.3c0.2-0.2,0.1,0,0.3-0.1
							c0.1,0.2-0.1,0.2,0.1,0.3C75.3,59.3,75.1,59.3,75.1,59.3z M79,62L79,62C78.9,62,78.9,61.9,79,62C78.9,61.9,78.9,61.9,79,62z
							 M79.2,62.3c0,0-0.1-0.1-0.1-0.1c0,0,0.1-0.1,0.1,0C79.2,62.1,79.2,62.2,79.2,62.3z M79.4,60.9C79.5,60.9,79.5,60.9,79.4,60.9
							C79.5,60.9,79.4,60.9,79.4,60.9L79.4,60.9C79.4,60.9,79.4,60.9,79.4,60.9z"/>
						<path fill="#202020" d="M79.2,60.9C79.2,60.9,79.2,60.9,79.2,60.9C79.2,60.9,79.2,61,79.2,60.9L79.2,60.9L79.2,60.9z"/>
						<path fill="#202020" d="M87.8,91.2L87.8,91.2C87.8,91.2,87.8,91.2,87.8,91.2C87.8,91.2,87.8,91.2,87.8,91.2z"/>
						<polygon fill="#202020" points="82.2,66.9 82.2,66.9 82.2,66.8 						"/>
						<path fill="#202020" d="M85.8,92.4C85.8,92.4,85.8,92.4,85.8,92.4C85.8,92.4,85.8,92.4,85.8,92.4z"/>
						<path fill="#202020" d="M85.1,93L85,93.1C85,93.1,85.1,93,85.1,93z"/>
						<path fill="#202020" d="M84.5,93.5C84.5,93.5,84.5,93.5,84.5,93.5L84.5,93.5L84.5,93.5z"/>
						<path fill="#202020" d="M91.1,84.7L91.1,84.7C91.1,84.6,91.1,84.7,91.1,84.7z"/>
						<path fill="#202020" d="M90.3,87.6c0,0,0-0.1,0-0.1C90.2,87.5,90.2,87.5,90.3,87.6z"/>
						<polygon fill="#202020" points="89.8,81.2 89.8,81.2 89.7,81.2 						"/>
						<path fill="#202020" d="M90.4,87.3c-0.1,0-0.1,0.1-0.1,0.1C90.3,87.4,90.4,87.4,90.4,87.3z"/>
						<path fill="#202020" d="M82.1,95.5L82.1,95.5C82,95.5,82,95.5,82.1,95.5L82.1,95.5z"/>
						<path fill="#202020" d="M82,95.5L82,95.5C82,95.6,82,95.5,82,95.5z"/>
						<path fill="#202020" d="M82,95.7L82,95.7C82,95.6,82,95.6,82,95.7z"/>
						<path fill="#202020" d="M82.9,94.9L82.9,94.9C82.8,94.9,82.8,94.9,82.9,94.9z"/>
						<path fill="#202020" d="M83.1,94.7c-0.1,0-0.2,0-0.3,0.1l0,0C82.8,94.8,83.1,94.8,83.1,94.7z"/>
						<path fill="#202020" d="M84.5,94.5l-0.2,0.1c0.1,0,0.2,0,0.1,0.1C84.7,94.6,84.2,94.7,84.5,94.5z"/>
						<path fill="#202020" d="M85.1,94C85,94.1,85.2,94.1,85.1,94C85.2,94,85.2,94,85.1,94z"/>
						<path fill="#202020" d="M89.1,90l0.1,0.1C89.2,90,89.1,90,89.1,90z"/>
						<polygon fill="#202020" points="89.2,88.7 89.1,88.7 89.1,88.8 						"/>
						<polygon fill="#202020" points="90.4,88.8 90.4,88.9 90.5,88.7 						"/>
						<path fill="#202020" d="M90.5,79.6l-0.1,0.1C90.4,79.8,90.6,79.7,90.5,79.6z"/>
						<path fill="#202020" d="M86.8,77.2c0-0.1-0.2-0.2-0.2-0.1C86.6,77.2,86.8,77.3,86.8,77.2z"/>
						<polygon fill="#202020" points="84,67.2 84,67.2 83.9,67.1 						"/>
					</g>
				</g>
			</g>
		</g>
	</g>
	<g>
		<g>
			<g>
				<g>
					<g>
						<path fill="#202020" d="M58.5,58.1c0,0.1,0.1,0.1,0.2,0l-0.1-0.2L58.5,58.1z"/>
						<path fill="#202020" d="M59.3,57.7c0-0.2,0-0.4-0.2-0.4c0,0.2,0,0.2,0,0.5c-0.1,0.1-0.2,0.1-0.2,0.1c0,0.1-0.1,0.1-0.1,0.2
							C59.1,58,59.2,57.9,59.3,57.7C59.3,57.6,59.3,57.7,59.3,57.7z"/>
						<path fill="#202020" d="M68,50.7L68,50.7C68,50.8,68,50.7,68,50.7z"/>
						<path fill="#202020" d="M74.3,47.8C74.2,47.8,74.2,47.8,74.3,47.8C74.2,47.8,74.3,47.8,74.3,47.8z"/>
						<path fill="#202020" d="M75.4,47.6C75.4,47.6,75.4,47.6,75.4,47.6C75.4,47.6,75.4,47.6,75.4,47.6z"/>
						<path fill="#202020" d="M68,50.7l0.2,0C68.2,50.6,68.1,50.7,68,50.7z"/>
						<path fill="#202020" d="M60,56.2c0,0,0,0.1,0,0.1L60,56.2L60,56.2z"/>
						<path fill="#202020" d="M65.6,52.6L65.6,52.6c0,0.1,0,0.1,0,0.1L65.6,52.6z"/>
						<path fill="#202020" d="M63.8,54c0,0,0-0.2-0.1-0.2C63.7,53.9,63.7,53.9,63.8,54C63.7,54,63.7,54,63.8,54z"/>
						<path fill="#202020" d="M60.9,56.3L60.9,56.3C60.8,56.4,60.9,56.3,60.9,56.3z"/>
						<path fill="#202020" d="M67,51.6C67,51.7,67,51.7,67,51.6C67,51.7,67,51.6,67,51.6z"/>
						<path fill="#202020" d="M96.6,94.4C96.6,94.4,96.6,94.4,96.6,94.4C96.6,94.4,96.6,94.4,96.6,94.4z"/>
						<path fill="#202020" d="M95.9,97.2L95.9,97.2c0,0-0.1,0-0.1,0L95.9,97.2z"/>
						<path fill="#202020" d="M77.1,47.6L77.1,47.6C77,47.6,77.1,47.6,77.1,47.6z"/>
						<path fill="#202020" d="M88.8,61.7c0.1-0.1,0.3,0.1,0.4,0C89.1,61.7,88.9,61.6,88.8,61.7z"/>
						<path fill="#202020" d="M60.1,56.2L60.1,56.2C60.1,56.2,60.1,56.2,60.1,56.2z"/>
						<path fill="#202020" d="M89.2,61.7L89.2,61.7L89.2,61.7C89.2,61.7,89.2,61.7,89.2,61.7z"/>
						<path fill="#202020" d="M78.9,51.3C78.9,51.3,79,51.3,78.9,51.3C79,51.2,78.9,51.3,78.9,51.3z"/>
						<path fill="#202020" d="M78,47.9L78,47.9C78,48,78,47.9,78,47.9z"/>
						<path fill="#202020" d="M79.8,53.2c0,0.1,0,0.1,0,0.1c0,0,0,0,0,0C79.8,53.3,79.8,53.2,79.8,53.2z"/>
						<polygon fill="#202020" points="80.8,55 80.8,55 80.7,54.9 						"/>
						<path fill="#202020" d="M95.9,88.2c0,0.1-0.1,0.1-0.1,0.1C95.9,88.3,96,88.6,95.9,88.2z"/>
						<path fill="#202020" d="M60.1,56.3C60.1,56.3,60.1,56.2,60.1,56.3L60.1,56.3C60.1,56.3,60.1,56.3,60.1,56.3z"/>
						<path fill="#202020" d="M81,52.7l0.1,0.3C81.1,52.9,81,52.8,81,52.7z"/>
						<path fill="#202020" d="M92.7,74L92.7,74C92.8,74.1,92.7,74,92.7,74z"/>
						<path fill="#202020" d="M81.5,53.8c0,0.1,0,0.1,0,0.2c0,0,0,0,0.1,0L81.5,53.8z"/>
						<path fill="#202020" d="M95.8,88.4L95.8,88.4L95.8,88.4z"/>
						<path fill="#202020" d="M96.4,90.4c0-0.3-0.2-0.1-0.4-0.2c-0.1-0.4,0.1-0.2,0.2-0.3c-0.1-0.2-0.3-0.4-0.3-0.5c0,0,0-0.1,0.1,0
							c-0.2-0.2-0.1-0.7-0.3-1c0,0,0,0,0,0c-0.1,0.1-0.2,0.1-0.3,0.1c0-0.1-0.2-0.2,0-0.3c0,0.1,0.1,0.1,0.1,0.1l-0.1-0.1
							c0.2-0.2,0.1,0.2,0.2,0.2c-0.1-0.3-0.3-0.6-0.3-0.8c0.2-0.1,0.1,0.5,0.3,0.2l0,0.3c0.3-0.3,0,0.2,0.3-0.1
							c0-0.4-0.2-0.5-0.2-0.9c-0.1-0.1-0.2,0.1-0.3,0c-0.3-0.6,0.4-0.6,0.1-1c-0.1-0.1-0.4-0.1-0.3-0.4l0.2,0.1
							c0-0.4-0.4-0.2-0.3-0.7c0.1,0.1,0.1,0.3,0.1,0.2c0.1-0.3-0.2-0.2-0.2-0.4l0.2-0.1c-0.1-0.4-0.3-0.9-0.5-1.4
							c0.1,0,0.1,0.1,0.2,0c-0.2-0.6-0.2-1.3-0.3-2l-0.2-0.2c0-0.1,0.1-0.1,0.1-0.1c0-0.2-0.1,0-0.2-0.1c0-0.1,0.1-0.2,0.1-0.1
							c-0.2-0.4-0.6-1.1-0.5-1.6l0.1,0.1c0-0.4-0.4-0.3-0.4-0.6l0,0.1c-0.1-0.7-0.5-1.5-0.4-2.1c-0.3,0-0.1-0.7-0.4-0.7
							c0-0.5,0.1-0.4,0.1-1c0-0.2-0.3-0.2-0.4-0.3l0.2-0.1l-0.3-0.2l0.2-0.2l-0.1-0.2c0,0.1,0,0.2-0.1,0.2c-0.2-0.3-0.1-0.7,0-0.7
							l-0.4-0.6c0.1,0,0.1,0.1,0.2,0.2c-0.3-0.3,0.2-0.1-0.1-0.4c0,0.1-0.1,0-0.1,0c0.1-0.2-0.1-0.6-0.2-0.8l0.1,0
							c-0.1-0.5-0.4-1-0.6-1.5c0,0.2-0.2,0.2-0.3,0.1l0.2-0.1c-0.1-0.1,0,0.2-0.2,0c-0.1-0.2,0.1-0.2,0.2-0.1L91.3,70
							c0,0,0.1,0,0.2,0c-0.1-0.1,0-0.5-0.2-0.6l0,0c-0.2-0.5-0.4-0.8-0.5-1.2c-0.2,0.1-0.2-0.1-0.4-0.2c-0.1-0.3-0.1-0.7-0.3-1.1
							c-0.2-0.2-0.2,0-0.3-0.1c0.1-0.1,0-0.4,0.1-0.3c-0.2-0.4-0.2-0.5-0.5-1.1c0,0.1-0.1,0.2-0.1,0.1c0-0.1,0-0.3,0.1-0.3l0,0
							c-0.2-0.3-0.2-0.7-0.1-1c0.1-0.3,0.2-0.6,0.1-0.8l0,0c0,0,0-0.5,0-0.5c0.1-0.2,0.1,0.1,0.2,0.1c0-0.1,0-0.2,0-0.2l0-0.1
							c0,0,0.1-0.1,0.1-0.1c0.2-0.2,0.5-0.3,0.7-0.5c0-0.2-0.2-0.4-0.3-0.6c0-0.2,0-0.4-0.2-0.6c-0.2-0.3-0.3-0.4-0.5-0.6
							c-0.3-0.3-0.7-0.5-0.9-0.8l0,0.1c-0.2,0-0.1-0.1-0.2-0.2c0,0.1,0.1,0.2,0,0.2c-1.1-0.6-2.2-1.3-3.1-1.9
							c-0.3-0.2-0.5,0.3-0.8-0.2l0.2-0.1c-0.8-0.3-1.3-1.1-2-1.5c0.1,0,0.1,0,0.2,0c0-0.2-0.4-0.5-0.5-0.4c-0.1-0.1,0.1-0.1,0.1-0.2
							c0-0.2-0.4-0.2-0.4-0.4c0,0,0.1,0,0.1,0c-0.1-0.1-0.3-0.4-0.4-0.3c-0.1-0.3-0.4-0.5-0.4-0.7c-0.2,0-0.2-0.5-0.4-0.4
							c0.2-0.1-0.1-0.6-0.2-0.7c0.1,0,0-0.2,0.1-0.2c-0.1-0.2-0.2-0.4-0.3-0.3c0.1-0.5-0.5-0.7-0.2-1c-0.3-0.6-0.5-1.2-0.8-1.8
							c0.3,0,0.2,0.7,0.5,0.6c-0.3-0.6-0.6-0.9-0.7-1.5c0-0.2,0.1,0,0.2,0.1c-0.3-0.6-0.5-1.2-1-1.6c0,0,0.1,0,0.1,0.1
							c-0.1-0.1-0.2-0.3-0.2-0.2l0.1,0.1c0,0.2-0.6-0.1-0.7,0c0.4-0.1-0.4-0.4,0.1-0.6c-0.1,0-0.2,0-0.2,0c-0.1-0.1-0.1-0.1,0-0.2
							c-0.5-0.1-0.4,0-0.8-0.1c0-0.1,0.1-0.1,0.2-0.1c-0.2,0.1-0.5,0.1-0.8,0.1c0,0,0-0.1,0.1-0.1c-0.6,0.1-0.9,0.5-1.4,0.5
							c0.1-0.3-0.2,0-0.3-0.2l-0.3,0.2l0.1,0.1c-0.2,0.1-0.4,0.3-0.6,0.3l0.1-0.1l-0.4,0.2l0.3,0c-0.2,0.2,0.1,0.2-0.2,0.3
							c0.1,0-0.2,0.1-0.4,0l0,0c-0.1,0.1-0.2,0.2-0.4,0.2c-0.1,0-0.1-0.2-0.1-0.3c0,0.2-0.5,0.3-0.6,0.5c0-0.1,0-0.2,0-0.2l0,0.2
							c-0.1,0-0.2,0-0.2-0.1c-0.3,0.1,0.2,0.2-0.2,0.3c0,0,0,0,0.1-0.1c-0.4,0.1-0.7,0.4-1.1,0.5c-0.2-0.1,0.3-0.2,0.1-0.3
							c-0.5,0.3-0.9,0.8-1.4,1l0.1,0c0.1,0.3-0.4,0.1-0.6,0.3c0-0.1,0-0.2,0-0.2c-0.3,0.1-0.6,0.4-1.1,0.8l0-0.1
							c-0.2,0.1-0.5,0.3-0.7,0.4c0,0.1-0.1,0.2,0,0.2c-0.9,0-1,1-1.8,1c0.1,0,0.1-0.2,0.1-0.1L65.1,52c0.1,0.1,0.1,0,0.3,0
							c0,0.1-0.1,0.2-0.2,0.3c0.1-0.2-0.1-0.2-0.3-0.2c0,0,0,0.1,0.1,0.1c-0.4,0,0.1,0.2-0.3,0.4l0-0.1c-0.1,0.1-0.1,0.3-0.3,0.4
							c-0.1-0.1,0.1-0.2,0-0.3c-0.2,0.1-0.2,0.5-0.4,0.5c0-0.1,0.2-0.2,0.2-0.3c-0.3,0-0.3,0.1-0.4,0.1l0,0l-0.3,0.2l0.1,0
							c0,0.5-0.4,0.4-0.5,0.9c0.1-0.4,0-0.1-0.1-0.3c-0.1,0-0.3,0.1-0.3,0c0,0.2-0.3,0.1-0.4,0.4c0,0-0.1,0.1-0.2,0
							c-0.1,0.2,0.1,0,0.1,0.1c-0.1,0.4-0.8,0.4-1,0.9c-0.2,0.4-0.2,0.6-0.4,0.9c-0.2,0-0.1-0.2-0.1-0.2c-0.2,0.1-0.3,0.2-0.4,0.4
							c0-0.1-0.1-0.1-0.2-0.1c-0.1,0.1,0.1,0.2-0.1,0.3c0-0.1-0.1-0.2,0-0.3c-0.1,0.2-0.2,0.4-0.3,0.6c-0.1,0,0-0.2,0-0.3
							c-0.1,0.2-0.3,0.5-0.3,0.7l0.1-0.1c-0.1,0.1-0.1-0.1-0.1-0.1c0-0.2,0.2-0.2,0.3-0.1l-0.1,0.1c0.3,0.1,0.4-0.5,0.6-0.7l0.1,0.3
							l0.1-0.4c0.1,0,0.2,0.1,0.1,0.2c0.2-0.1,0.1-0.2,0.3-0.2c0,0,0,0,0,0l0.1-0.2c0,0.1,0.1,0.1,0,0.2c0.4-0.2,0.3-0.5,0.5-0.5
							l0,0c0.3-0.4-0.1-0.2,0-0.6l0.5,0.1l-0.1-0.2c0,0,0.1-0.1,0.2,0c0.1-0.2-0.1,0-0.1-0.2c0.3-0.1,0.5-0.5,0.7-0.4
							c0-0.2-0.3,0.1-0.1-0.2c0.3,0.2,0.2-0.2,0.5-0.3c0,0.2-0.2,0.2,0.1,0.2c-0.1-0.3,0.4-0.3,0.5-0.4c-0.1-0.2,0.3-0.3,0.5-0.6
							c0,0.1,0.6-0.3,0.8-0.4l0,0c-0.1-0.2,0.2-0.4,0.3-0.5c0.1,0.1,0.1,0.2,0,0.3l0.2-0.1c0-0.1,0-0.2,0.1-0.3l0,0.2
							c0.2-0.2,0.4-0.5,0.7-0.6c-0.1-0.1-0.5-0.2-0.2-0.5c0.1,0.1,0.1,0.2,0.1,0.2c0,0,0.1-0.1,0.1-0.1l-0.1,0.2
							c0.2,0,0-0.1,0.1-0.2c0.1,0.1,0.1,0,0.2,0.1c0,0-0.1,0-0.1,0.1c0.1-0.1,0.3-0.1,0.4-0.1c0,0-0.1-0.1,0-0.2
							c0.2-0.2,0.2,0.1,0.3,0c0-0.1,0.2-0.1,0.1-0.3c0.1,0,0.1,0,0.2,0c0.1-0.1,0.6-0.4,0.3-0.4l0,0l0,0l0,0l0,0
							c0.3-0.4,0.9-0.4,1.3-0.7l0,0.1c0.2-0.2,0.5-0.3,0.7-0.5c0.1,0,0.2,0,0.2,0.1c0.2-0.1,0.2-0.2,0.5-0.3c-0.2,0.2,0.1,0-0.2,0.2
							c0.3-0.1,0.4,0,0.6-0.3c0,0.2,0.3,0.1,0.4,0l-0.2,0c0.1-0.1,0.3-0.1,0.4-0.2l0,0.2c0.6,0,0.8-0.8,1.4-0.6
							c0.1-0.2-0.3,0-0.3-0.2c0.3-0.1,0.6,0.1,0.7,0c0.4,0,0.2-0.4,0.6-0.5c-0.1,0-0.2-0.2,0.1-0.4c0.3-0.1,0.4,0.2,0.3,0.3
							c-0.1,0-0.1,0-0.1,0c-0.1,0.1-0.2,0.1,0,0.2l0-0.1c0.1,0,0.5-0.1,0.4,0c0.2-0.1,0-0.1-0.1-0.1c0.4,0,0.5-0.2,0.9-0.2
							c-0.1,0-0.1-0.1-0.1-0.1c0.5-0.1,0.2-0.2,0.5-0.3c0.2,0,0,0.3,0.3,0.1c0.2,0,0.1,0.2,0,0.2c0.2-0.2,0.5,0,0.6,0l-0.1,0.1
							c0.1,0,0.1,0,0.2,0l-0.1-0.1c0.1,0,0.1,0,0.1,0.1c0.1-0.1,0-0.2,0.1-0.3c0.1,0.1,0.3,0,0.3,0.2c-0.3-0.2,0,0.2-0.3,0.1
							c0,0,0.1,0,0.1,0.1c0,0,0,0,0,0c0.1,0.3,0.2-0.2,0.4,0c-0.1,0.1-0.1,0.2,0,0.2c-0.1-0.1,0.1-0.2,0.2-0.1
							c0.1,0.2,0.2,0.1,0.3,0.2l-0.1-0.1c0.1,0,0.2,0.1,0.3,0.2c-0.1,0.1-0.1-0.1-0.1,0c0.3,0.1,0.1,0.4,0.3,0.6
							c0,0.1-0.2,0.1-0.2,0.2c0.2,0.2,0,0.3,0.2,0.6c0.1-0.1,0.1-0.1,0.3,0c0,0-0.1-0.1-0.1-0.2c-0.1-0.1-0.1-0.2-0.1-0.2l0.3,0.3
							c0-0.2-0.2-0.3-0.2-0.4c0.2,0.1,0.1,0.1,0.2,0c-0.1,0.3,0.3,0.4,0.2,0.7l-0.3,0.1c0,0.4,0.4,0.6,0.4,1.1l0-0.2
							c0.1,0,0.1,0.3,0.2,0.5C79,51,79,51.2,79,51.2c0.1,0,0.1,0.4,0.3,0.4l-0.1,0.3c0.1,0.4,0.5,0.4,0.6,0.8
							c-0.2-0.1-0.2,0.1-0.4-0.1c0.1,0.1,0.1,0.3,0.2,0.2c0,0.1,0.3,0.3,0.2,0.5c0.1,0,0.2,0,0.2,0.1c0,0-0.1,0-0.1,0
							c0.1,0,0.2,0.2,0.2,0c-0.1,0.5,0.6,1,0.5,1.5c0.2,0.2,0.4,0.5,0.6,0.7c0,0,0,0-0.1,0c0.1,0.4,0.4,0,0.6,0.4
							c0,0.3-0.2-0.1-0.2,0c-0.3,0.3,0.4,0.4,0.4,0.7l-0.1,0c0.1,0.3,0.5,0.3,0.7,0.6c0,0,0,0,0,0c0.3,0,0.7,0.3,1,0.5
							c-0.2,0-0.2,0-0.2,0.1c0.1,0.1,0.1-0.2,0.4-0.1c0,0.1,0.2,0.3,0.1,0.5l-0.2-0.2c0,0.3,0.3,0.2,0.4,0.3l-0.1,0.1
							c0.4,0.2,0.5,0,0.9,0.3l0-0.1c0.3-0.1,0.1,0.2,0.4,0.2l0,0.2c0.2,0,0.6,0.1,0.9,0.2c-0.2,0.1-0.6,0-0.8,0
							c0.2,0.1,0.5,0.2,0.7,0.2c-0.1,0-0.2,0-0.2-0.1c0.3-0.1,0.6,0,0.8,0.1c-0.3,0.4,0.7,0.5,0.7,0.9c0.5,0.1,0.9,0.7,1.2,1
							c0.2-0.2,0,0,0.4-0.1c0.1,0.1,0.1,0.1,0.1,0.1c0,0.1,0,0.2-0.2,0.2l0,0c-0.1,0-0.1,0-0.1,0c0,0,0,0-0.1,0c0,0,0,0,0,0
							c-0.1,0-0.2,0-0.3-0.1c0.1,0,0.2,0.1,0.1,0.1c0,0,0.2,0,0.2,0c0,0.1,0,0.1-0.1,0.1c-0.1,0.1-0.1,0.1-0.2,0.1
							c-0.1,0.1-0.3,0.2-0.3,0.5c0,0,0-0.2,0-0.2c-0.1,0.3-0.4,1.2-0.1,1.5c0,0-0.1,0.1-0.2,0c-0.1,0.8,0.4,1.5,0.4,2l-0.1,0
							c0.1,0.1,0.2,0.2,0.2,0.3c0,0-0.1,0-0.1,0c0,0.1,0.2,0.3,0.3,0.4l-0.1-0.1c0.1,0.6,0.6,0.8,0.8,1.2c-0.2,0.1-0.1,0.6-0.1,0.8
							l0,0c0.2,0.6,0.6,1,1,1.6c-0.1,0.5,0.4,1.3,0.4,2c0-0.1,0.2-0.1,0.3,0c0,0.2,0.3,0.3,0.1,0.4l0-0.1c-0.2,0.2,0,0.5,0,0.7
							l0.3-0.1c-0.2,0.7,0.7,1.5,0.4,2c0.1,0.1,0.2,0.3,0.3,0.4l-0.2,0c0.1,0.4,0.1,0.6,0.3,1.1l-0.1-0.1c0.1,0.3,0.6,0.2,0.6,0.5
							l-0.2,0.1c0.1,0.5,0.1,1,0.4,1.5c0,0-0.1,0-0.1-0.1c0.1,0.2,0.1,0.9,0.4,0.8c-0.2,0.1,0.1,0.5,0.3,0.8l-0.2,0
							c0.3,0.2,0.3,0.2,0.4,0.5c0,0.1-0.1,0.1-0.1,0c0,0.3,0.2,0.2,0.2,0.5l-0.1-0.1c0,0.3,0.1,0.2,0.2,0.3c0.1,0.1,0.1,0.5-0.1,0.6
							c0.1,0,0.2,0.1,0.2,0.3c0,0-0.1,0-0.1,0c0,0.5,0.3,0.6,0.2,0.9c-0.1,0-0.1,0-0.1,0.1c-0.1-0.3-0.1-0.6-0.1-0.6
							c-0.1,0-0.1,0.3-0.4,0.1c0.2,0.2,0.5,0.5,0.5,0.8c0,0,0,0,0,0l0,0c0,0.1,0,0.1,0.1,0.2c0,0.1,0,0.2,0,0.2
							c-0.1,0.1,0,0.3,0,0.5c0.2,0,0.2,0.1,0.3,0c0,0,0,0,0-0.1c0,0,0,0,0-0.1l0,0c0-0.1,0-0.2-0.1-0.3c0.1,0.1,0.2,0.2,0.1,0.4
							c0.1,0.1,0.2,0.1,0.3,0.1c-0.2,0.2-0.2,0.6-0.4,0.7c0.2,0.4,0.2,1,0.6,1.2c0.1,0.1-0.1,0.2-0.1,0.2c0-0.1,0-0.1-0.1-0.2
							c0.1,0.2,0.1,0.7,0.4,0.7c0,0.3-0.2-0.1-0.1,0.3l-0.1,0c-0.2,0.9,0.7,1.3,0.4,2.3c0-0.1,0-0.1,0.1-0.1
							c-0.1,1.1,0.4,2.2,0.2,3.2c0,0.3,0.1,0.3,0.2,0.5l-0.2,0.1l0.2,0.3c0.2,0.4-0.4,0.8-0.1,1.3l0.1-0.1c0,0.2,0.1,0.6,0,0.6
							c0,0,0.1,0.1,0.1,0.1l-0.1,0l0.2,0.5c-0.1,0.4-0.4,0-0.4,0.5c0,0.2,0.3,0.6,0.3,0.5c0-0.1,0-0.2,0.1-0.2l0.1,0.2
							c0.3,0,0.5,0.2,0.7-0.3l-0.2-0.3l0.1-0.1l0,0.3c0.1-0.2,0-0.3-0.1-0.4c0.1,0,0.1-0.1,0.1-0.1l-0.3-0.3c0.1,0,0.2,0.1,0.3-0.1
							c-0.1-0.1-0.2,0.2-0.3-0.1c0.1-0.2,0.2-0.1,0.1-0.3c0.1,0,0.1,0,0.1,0.1c-0.1-0.2-0.1-0.4-0.2-0.5c0.1-0.2-0.1-0.5,0.2-0.5
							c-0.1,0-0.2-0.3-0.2-0.4c0.3,0.3,0-0.6,0.3-0.5c-0.3-0.2-0.2-0.7-0.4-1.1c0,0,0.1,0.1,0.1,0.1c0-0.2,0.1-0.3,0.1-0.4
							c-0.2,0-0.3-0.3-0.5-0.5c0.2-0.3,0.3,0.1,0.5,0c-0.2,0-0.2-0.4-0.4-0.3c0.1-0.2,0-0.2,0.2-0.3c-0.3,0-0.1-0.2-0.3-0.3
							c0.1-0.3,0.3-0.1,0.1-0.4C96.3,90.2,96.4,90.4,96.4,90.4z M94.9,83.4L94.9,83.4c0,0.1,0,0.1,0,0.1
							C94.9,83.5,94.9,83.5,94.9,83.4z M94.8,82.8c0,0.1,0,0.2,0,0.3c-0.1,0-0.1,0-0.1,0C94.7,83,94.7,82.9,94.8,82.8z M93.9,84.2
							c0-0.1,0-0.1,0-0.1C93.9,84.1,94,84.2,93.9,84.2L93.9,84.2C94,84.3,93.9,84.3,93.9,84.2z"/>
						<path fill="#202020" d="M94.1,84.4C94.2,84.4,94.2,84.4,94.1,84.4C94.2,84.4,94.2,84.4,94.1,84.4L94.1,84.4L94.1,84.4z"/>
						<path fill="#202020" d="M67.9,50.8L67.9,50.8C67.9,50.8,67.9,50.8,67.9,50.8C67.9,50.8,67.9,50.8,67.9,50.8z"/>
						<polygon fill="#202020" points="93,74.6 93,74.7 93,74.7 						"/>
						<path fill="#202020" d="M64.9,52.2C64.9,52.1,64.9,52.1,64.9,52.2C64.8,52.2,64.9,52.2,64.9,52.2z"/>
						<path fill="#202020" d="M63.7,53l-0.2,0.1C63.6,53.1,63.7,53,63.7,53z"/>
						<path fill="#202020" d="M62.8,53.7C62.8,53.7,62.9,53.7,62.8,53.7L62.8,53.7L62.8,53.7z"/>
						<path fill="#202020" d="M78.8,47.2C78.8,47.2,78.8,47.2,78.8,47.2C78.9,47.3,78.9,47.3,78.8,47.2z"/>
						<path fill="#202020" d="M73.5,47.4c0,0,0.1-0.1,0.1-0.1C73.5,47.3,73.4,47.4,73.5,47.4z"/>
						<polygon fill="#202020" points="81,52.7 81,52.7 81,52.7 						"/>
						<path fill="#202020" d="M73.8,47.2c-0.1,0-0.2,0-0.2,0.1C73.7,47.3,73.8,47.3,73.8,47.2z"/>
						<path fill="#202020" d="M59.3,57L59.3,57C59.3,57,59.3,57,59.3,57L59.3,57z"/>
						<path fill="#202020" d="M59.3,57L59.3,57C59.3,57.1,59.3,57,59.3,57z"/>
						<path fill="#202020" d="M59.2,57.2l0.1-0.1C59.3,57.1,59.2,57.1,59.2,57.2z"/>
						<path fill="#202020" d="M60.4,55.9L60.4,55.9C60.4,55.9,60.4,55.9,60.4,55.9z"/>
						<path fill="#202020" d="M60.7,55.6c-0.1,0.1-0.3,0.1-0.4,0.2l0,0C60.4,55.8,60.7,55.8,60.7,55.6z"/>
						<path fill="#202020" d="M62.5,54.9l-0.3,0.2c0.1,0,0.2,0,0.1,0.1C62.8,55,62.2,55.2,62.5,54.9z"/>
						<path fill="#202020" d="M63.5,54.2c-0.1,0.2,0.1,0.1,0.1,0.1C63.6,54.2,63.6,54.1,63.5,54.2z"/>
						<path fill="#202020" d="M70.2,49.6l0.1,0.1C70.4,49.7,70.3,49.7,70.2,49.6z"/>
						<polygon fill="#202020" points="71.3,48.2 71.1,48.2 71.1,48.3 						"/>
						<polygon fill="#202020" points="72.6,48.8 72.5,48.8 72.8,48.7 						"/>
						<path fill="#202020" d="M80.4,54.8l0.1-0.1C80.5,54.6,80.3,54.6,80.4,54.8z"/>
						<path fill="#202020" d="M85,59c0,0.1,0.1,0.3,0.3,0.2C85.1,59.1,85.1,59,85,59z"/>
						<polygon fill="#202020" points="91.1,73.6 91,73.5 91.2,73.7 						"/>
					</g>
				</g>
			</g>
		</g>
	</g>
</g>
</svg>
