<?xml version="1.0" encoding="utf-8"?>
<!-- Generator: Adobe Illustrator 18.0.0, SVG Export Plug-In . SVG Version: 6.00 Build 0)  -->
<!DOCTYPE svg PUBLIC "-//W3C//DTD SVG 1.1//EN" "http://www.w3.org/Graphics/SVG/1.1/DTD/svg11.dtd">
<svg version="1.1" id="Layer_1" xmlns="http://www.w3.org/2000/svg" xmlns:xlink="http://www.w3.org/1999/xlink" x="0px" y="0px"
	 viewBox="0 0 144 144" enable-background="new 0 0 144 144" xml:space="preserve">
<g>
	<g>
		<path fill="none" stroke="#000000" stroke-width="0.576" stroke-miterlimit="10" d="M-72-11.5"/>
	</g>
</g>
<g>
	<g>
		<path fill="none" stroke="#000000" stroke-width="0.576" stroke-miterlimit="10" d="M-60.8-10.2"/>
	</g>
</g>
<g>
	<g>
		<g>
			<g>
				<g>
					<g>
						<path fill="#202020" d="M96.4,77.8c0,0.1,0.1,0,0-0.2l-0.1-0.1L96.4,77.8z"/>
						<path fill="#202020" d="M96.2,76.5c-0.1-0.2-0.3-0.4-0.3-0.3c0.1,0.2,0.1,0.2,0.3,0.4c0.1,0.2,0.1,0.3,0,0.3
							c0,0.1,0.1,0.3,0.1,0.4C96.4,77.1,96.3,76.8,96.2,76.5C96.2,76.5,96.2,76.5,96.2,76.5z"/>
						<path fill="#202020" d="M91.4,59.1l0,0.1C91.4,59.2,91.4,59.1,91.4,59.1z"/>
						<path fill="#202020" d="M88.3,48.3c0,0.1,0,0.1,0.1,0.1C88.4,48.4,88.3,48.3,88.3,48.3z"/>
						<path fill="#202020" d="M87.9,46.4c0,0,0,0.1,0,0.1C87.9,46.5,87.9,46.5,87.9,46.4z"/>
						<path fill="#202020" d="M91.4,59.1l-0.1-0.3C91.3,58.8,91.3,59,91.4,59.1z"/>
						<path fill="#202020" d="M95.3,74.2c0,0.1,0,0.1,0.1,0.1L95.3,74.2L95.3,74.2z"/>
						<path fill="#202020" d="M92.8,63.8L92.8,63.8c0,0.1,0.1,0.1,0.1,0.1L92.8,63.8z"/>
						<path fill="#202020" d="M93.9,67.5c0-0.1-0.1-0.1-0.1-0.1C93.8,67.4,93.8,67.4,93.9,67.5C93.8,67.5,93.9,67.5,93.9,67.5z"/>
						<path fill="#202020" d="M95.4,73.3L95.4,73.3C95.4,73.4,95.4,73.3,95.4,73.3z"/>
						<path fill="#202020" d="M92.1,61.2C92.1,61.2,92.1,61.2,92.1,61.2C92.1,61.2,92.1,61.2,92.1,61.2z"/>
						<path fill="#202020" d="M92.4,76.3C92.4,76.3,92.4,76.3,92.4,76.3C92.4,76.3,92.4,76.3,92.4,76.3z"/>
						<path fill="#202020" d="M96.6,77.7L96.6,77.7C96.5,77.7,96.5,77.7,96.6,77.7L96.6,77.7z"/>
						<path fill="#202020" d="M87,43.1C87,43.1,87,43.1,87,43.1C87.1,43.2,87.1,43.1,87,43.1z"/>
						<path fill="#202020" d="M66.8,55c0.3-0.2-0.3,0.5,0.1,0.2C66.9,55.2,67.2,54.7,66.8,55z"/>
						<path fill="#202020" d="M95.3,74.1l0-0.1C95.3,74,95.3,74.1,95.3,74.1z"/>
						<path fill="#202020" d="M66.9,55.2L66.9,55.2L66.9,55.2C67,55.2,66.9,55.2,66.9,55.2z"/>
						<path fill="#202020" d="M83.5,37.7C83.6,37.7,83.6,37.7,83.5,37.7C83.6,37.7,83.6,37.7,83.5,37.7z"/>
						<path fill="#202020" d="M86.3,41.1l0-0.1C86.3,41,86.3,41.1,86.3,41.1z"/>
						<path fill="#202020" d="M81.5,40c-0.1,0.1-0.1,0.1-0.2,0.2l0,0C81.4,40.1,81.4,40.1,81.5,40z"/>
						<polygon fill="#202020" points="79.2,42.4 79.3,42.3 79.3,42.3 						"/>
						<path fill="#202020" d="M82.8,73.9c0.1,0,0.1,0.1,0.1,0.1C82.9,74,83.4,74.1,82.8,73.9z"/>
						<path fill="#202020" d="M95.4,74.2C95.3,74.2,95.3,74.1,95.4,74.2L95.4,74.2C95.3,74.2,95.4,74.2,95.4,74.2z"/>
						<path fill="#202020" d="M81.8,40.6l-0.4,0.4C81.6,40.8,81.7,40.7,81.8,40.6z"/>
						<path fill="#202020" d="M60.2,68.3l0.1,0C60.3,68.3,60.2,68.3,60.2,68.3z"/>
						<path fill="#202020" d="M80.4,42c-0.1,0-0.2,0.1-0.2,0.2c0,0,0,0,0,0.1L80.4,42z"/>
						<path fill="#202020" d="M82.9,74L82.9,74L82.9,74z"/>
						<path fill="#202020" d="M86.3,74.7c-0.5-0.1-0.2,0-0.4,0.1c-0.6-0.1-0.2-0.1-0.4-0.2c-0.4-0.1-0.7,0-0.9-0.1c0,0-0.1,0,0,0
							c-0.4,0-1.1-0.3-1.6-0.3c0,0,0,0-0.1,0c0.1,0.1,0.1,0.1,0,0.2c-0.2-0.1-0.4,0-0.5-0.1c0.1,0,0.1,0,0.2,0l-0.2,0
							c-0.2-0.1,0.3,0,0.3,0c-0.4-0.1-1-0.1-1.3-0.2c0-0.1,0.8,0.2,0.4,0l0.5,0.2c-0.4-0.2,0.3,0.1,0-0.2c-0.7-0.2-0.8-0.1-1.4-0.3
							c-0.2,0,0,0.1-0.1,0.1c-1-0.1-0.7-0.4-1.4-0.5c-0.2,0-0.3,0.1-0.8-0.1l0.2-0.1c-0.7-0.2-0.4,0.1-1.1-0.2
							c0.1,0,0.5,0.1,0.4,0.1c-0.4-0.2-0.3,0-0.7-0.1l0-0.1c-0.7-0.1-1.5-0.3-2.3-0.5c0.1,0,0.2,0,0-0.1c-1-0.2-2.1-0.5-3-0.8
							l-0.4,0c-0.1,0-0.1-0.1-0.1-0.1c-0.4-0.1,0,0-0.2,0c-0.2,0-0.3-0.1-0.1-0.1c-0.7-0.1-1.9-0.3-2.6-0.6l0.1,0
							c-0.5-0.2-0.6,0-1.1-0.2l0.1,0c-1.2-0.3-2.5-0.6-3.3-0.9c-0.2,0.1-1.1-0.3-1.3-0.2c-0.6-0.2-0.4-0.2-1.4-0.5
							c-0.2-0.1-0.4,0-0.7,0l0-0.1l-0.4,0l-0.2-0.2l-0.3,0c0.1,0,0.2,0.1,0.2,0.1c-0.5-0.1-1.1-0.3-1.1-0.4l-1.1-0.2
							c0,0,0.2,0,0.4,0c-0.6-0.1-0.1-0.1-0.6-0.2c0.1,0-0.1,0-0.1,0.1c-0.2-0.1-0.8-0.3-1.3-0.4l0.1,0c-0.2-0.1-0.4-0.1-0.6-0.2
							l-0.1,0l0-0.1c0,0,0,0,0.1-0.1l0.2-0.2c-0.2,0.2-0.3,0.1-0.1-0.1l0.1,0c0.1-0.2-0.2,0.2,0-0.1c0.2-0.2,0.2-0.1,0.1,0.1
							l0.3-0.3c0,0,0,0.1,0,0.1c0.1-0.2,0.6-0.5,0.7-0.7l0,0c0.6-0.7,0.9-1,1.4-1.5c0-0.1,0.2-0.3,0.3-0.5c0.4-0.4,0.9-0.8,1.3-1.3
							c0.3-0.4,0-0.1,0.2-0.3c0.1,0,0.5-0.5,0.3-0.2c0.5-0.6,0.7-0.7,1.3-1.5c-0.1,0.1-0.2,0.1-0.2,0.1c0.1-0.1,0.3-0.3,0.3-0.2l0,0
							c0.7-0.9,2-1.7,2.5-2.5l0,0l0.6-0.7c0.3-0.3-0.1,0.2,0.1,0c0.6-0.8,1.1-1.1,1.6-1.8c0.6-0.3,1.6-1.6,2.3-2.2l-0.1,0
							c0.1-0.2,0.2-0.2,0.3-0.3c0,0-0.2,0.1-0.1,0c1.3-1.4,2.8-2.8,4.1-4.1c0.5-0.5,0.1-0.5,0.8-1l-0.1,0.2c0.9-1.1,2-2.1,2.9-3.2
							c0,0.1,0,0.1-0.1,0.2c0.3-0.2,0.8-0.8,0.7-0.8c0.2-0.2,0.1,0,0.2-0.1c0.2-0.2,0.5-0.6,0.6-0.7c0,0,0,0.1-0.1,0.1
							c0.1-0.2,0.6-0.6,0.4-0.6c0.4-0.4,0.7-0.7,1-1c0.1-0.3,0.7-0.6,0.6-0.8c0.1,0.1,0.7-0.6,0.9-0.9c0,0.1,0.2-0.2,0.2,0
							c0.3-0.3,0.5-0.5,0.4-0.5c0.6-0.4,0.9-1.1,1.3-1.2c0.3-0.3,0.5-0.6,0.8-0.9l0.2-0.2l0.1-0.1l0.1-0.2c0,0.1,0,0.1,0.1,0.2
							c0,0.1,0.1,0.2,0.1,0.3c0,0-0.1,0-0.1-0.1c0,0,0-0.1,0-0.1c0-0.1,0-0.1-0.1-0.1c0,0,0,0.1,0,0.1c0,0,0,0,0,0
							c0,0,0.1,0,0.2,0.5c0.1,0.3,0.2,0.7,0.4,1.1c0.1,0.2-0.1-0.1-0.1-0.2c0.3,0.9,0.5,1.8,0.8,2.6c0,0-0.1-0.1-0.1-0.2
							c0.1,0.2,0.1,0.4,0.1,0.3l-0.1-0.2c0-0.3,0.4,0.6,0.4,0.6c-0.2-0.2,0.2,0.8-0.1,0.4c0,0.1,0.1,0.2,0.1,0.2
							c0,0.2,0,0.2-0.1,0.1c0.2,0.6,0.2,0.3,0.3,0.9c0,0-0.1-0.1-0.1-0.1c0.1,0.3,0.3,0.5,0.4,1c0,0,0,0-0.1-0.1
							c0.2,0.8,0.5,1.3,0.7,2.1c-0.2-0.2,0,0.3,0,0.4l0.2,0.4l0-0.2c0.1,0.4,0.3,0.7,0.3,1.1L87.8,48l0.2,0.7L88,48.3
							c0.2,0.4,0.1-0.1,0.2,0.5c0-0.1,0.1,0.4,0.1,0.6l0,0c0.1,0.2,0.2,0.4,0.2,0.7c0,0.1-0.1,0-0.1,0c0.1,0.2,0.3,0.9,0.4,1.1
							c0-0.1-0.1-0.1-0.1,0l0.1,0.1c0,0.2,0,0.2,0,0.2c0.1,0.6,0.1-0.2,0.2,0.5c0,0,0,0-0.1-0.1c0.2,0.7,0.4,1.2,0.5,1.9
							c-0.1,0.2-0.2-0.5-0.2-0.3c0.3,0.9,0.6,1.8,0.9,2.6l0-0.2c0.2,0.1,0.1,0.6,0.3,1c0-0.1-0.1-0.1-0.1-0.1c0.1,0.6,0.4,1.2,0.7,2
							L91,58.7c0.1,0.3,0.2,0.9,0.3,1.3c0.1,0.1,0.1,0.3,0.1,0.2c0.1,1.2,0.7,2.1,0.8,3.2c0-0.1-0.1-0.3-0.1-0.2l0.3,0.8
							c0-0.1,0-0.1,0-0.3c0.1,0.1,0.2,0.3,0.2,0.5c-0.2-0.4-0.1,0-0.1,0.2c0,0,0,0,0.1,0c0,0.5,0.1,0,0.2,0.7l0,0
							c0.1,0.2,0.2,0.4,0.2,0.7c0,0.1-0.1-0.2-0.2-0.2c0.1,0.3,0.3,0.6,0.4,1c-0.1-0.2-0.1-0.3-0.2-0.5c0,0.4,0,0.4,0.1,0.7l0,0
							l0.1,0.6l0-0.2c0.3,0.4,0.3,0.9,0.6,1.4c-0.3-0.5-0.1-0.1-0.2-0.1c0,0.2,0.1,0.4,0,0.3c0.1,0.3,0.1,0.5,0.3,0.8
							c0,0,0.1,0.3,0,0.3c0.1,0.4,0-0.1,0.1-0.1c0.2,0.5,0.3,1.3,0.6,2.1c0.2,0.7,0.4,0.8,0.6,1.4c0,0.2-0.1-0.1-0.1-0.1
							c0.1,0.4,0.1,0.6,0.3,0.9c0-0.1,0,0,0,0.1c0.1,0.3,0.1,0.1,0.2,0.5c0-0.1-0.1-0.1-0.2-0.2c0.1,0.3,0.2,0.6,0.4,0.9
							c0,0.1-0.1-0.2-0.2-0.3c0.1,0.4,0.3,0.9,0.4,1l0-0.2c0,0.1,0,0.1-0.1,0c-0.1-0.3-0.1-0.4-0.1-0.5l0.1,0.2
							c0.1-0.3-0.3-0.9-0.4-1.4l0.2,0.2l-0.2-0.4c0-0.1,0-0.2,0.1,0c0-0.3-0.1-0.3-0.1-0.6c0,0,0,0,0,0L95.3,73
							c0,0.1,0.1-0.1,0.1,0.1C95.3,72.5,95,72.2,95,72l0,0c-0.3-0.8-0.1-0.1-0.4-0.6l0.1-0.5l-0.1-0.1c0-0.1-0.1-0.2,0-0.2
							c-0.1-0.3,0,0.1-0.1-0.1c0-0.4-0.3-1.1-0.2-1.2c-0.1-0.1,0.1,0.4-0.1,0c0.1-0.2-0.2-0.5-0.2-0.9c0.1,0.1,0.2,0.4,0.1,0.1
							c-0.2-0.2-0.2-0.7-0.3-1c-0.1,0-0.2-0.6-0.4-1.1c0,0-0.2-1-0.3-1.5l0,0c-0.1-0.1-0.2-0.6-0.4-0.9c0.1,0,0.1,0.1,0.2,0.2
							l-0.1-0.3c-0.1-0.1-0.1-0.2-0.2-0.4l0.1,0.1c-0.1-0.4-0.3-0.9-0.5-1.5c-0.1,0-0.1,0.5-0.3-0.1c0,0,0.1-0.1,0.2,0.1
							c0-0.1-0.1-0.2-0.1-0.3l0.1,0.2c0-0.3-0.1-0.1-0.1-0.3c0.1,0,0-0.2,0-0.1c0,0.1,0,0.2,0.1,0.3c-0.1-0.2-0.1-0.5-0.1-0.6
							c0,0-0.1,0-0.1-0.1c-0.1-0.4,0-0.2,0-0.4c-0.1-0.1-0.1-0.4-0.2-0.4c0-0.1,0-0.2,0-0.2c-0.1-0.2-0.3-1.1-0.3-0.8l0,0.1l0,0l0,0
							l0,0c-0.3-0.7-0.4-1.6-0.7-2.3l0,0c-0.2-0.4-0.3-1-0.5-1.3c0-0.1,0-0.3,0-0.3c-0.1-0.3-0.2-0.4-0.3-0.9c0.1,0.3,0-0.1,0.1,0.3
							c-0.1-0.5-0.1-0.6-0.3-1c0.1,0.1,0-0.4-0.1-0.6l0,0.3c-0.1-0.2-0.1-0.4-0.2-0.7l0.1,0.1c-0.2-0.9-0.7-1.6-0.7-2.3
							c-0.1-0.2,0.1,0.5,0,0.3c-0.1-0.4-0.1-0.9-0.1-1c-0.1-0.6-0.3-0.5-0.4-1.1c0,0.1-0.1,0.2-0.2-0.3c-0.1-0.4,0-0.6,0.1-0.3
							c0,0.1,0,0.2,0,0.2c0.1,0.1,0.1,0.3,0.1,0.1l0,0c0-0.2-0.2-0.8-0.1-0.7c-0.1-0.3-0.1-0.1,0,0.1c-0.1-0.6-0.2-0.8-0.4-1.4
							c0,0.1,0,0.2,0,0.1c-0.2-0.8-0.2-0.3-0.3-0.9c0-0.3,0.2,0.1,0-0.5c-0.1-0.3,0.1-0.1,0.1,0c-0.2-0.5-0.2-1-0.3-1.2l0.1,0.3
							c-0.1-0.2-0.1-0.3-0.1-0.4l0,0.2c0-0.2-0.1-0.3,0-0.3c-0.1-0.1-0.1,0.2-0.2-0.1c0-0.2-0.2-0.6-0.2-0.7
							c0.2,0.7,0.1-0.1,0.2,0.5c0-0.1-0.1-0.2-0.1-0.4c0,0,0,0,0,0.1c-0.1-0.6-0.2-0.3-0.4-0.9c0.1,0.1,0-0.2,0-0.3
							c0.1,0.3,0,0.1-0.2-0.1c-0.1-0.4-0.2-0.4-0.2-0.7l0.1,0.3c-0.1-0.1-0.1-0.3-0.2-0.6c0,0,0.1,0.3,0.1,0.1
							c-0.2-0.3-0.1-0.8-0.3-1.2c0-0.2,0.1,0,0.1-0.2c-0.2-0.5-0.1-0.6-0.3-1.1c0,0.2,0,0.2-0.2-0.2l0.3,0.9l-0.3-0.5
							c0.1,0.3,0.2,0.5,0.2,0.7c-0.1-0.3-0.1-0.2-0.1-0.1c0-0.4-0.3-0.7-0.3-1.1l0.2,0c0-0.1,0-0.2-0.1-0.3c0-0.1-0.1-0.3-0.1-0.4
							c-0.1-0.3-0.2-0.7-0.3-1c-0.2,0.2-0.4,0.5-0.7,0.7l0.3-0.3c-0.1,0.2-0.5,0.6-0.7,0.8c0-0.1-0.2,0.1-0.3,0.1
							c0,0-0.4,0.4-0.4,0.6l-0.3,0.2c-0.5,0.5-0.4,0.7-0.9,1.1c0.1-0.2-0.1,0,0.1-0.3c-0.2,0.2-0.3,0.3-0.3,0.3
							c-0.1,0.1-0.4,0.5-0.5,0.6c0,0.1,0,0.1-0.2,0.3c0,0,0,0,0,0c0,0-0.2,0.3,0,0.2c-0.6,0.4-1.3,1.4-1.8,1.7
							c-0.3,0.4-0.7,0.8-1,1.1c0,0,0,0,0-0.1c-0.5,0.4-0.1,0.4-0.7,0.8c-0.3,0.2,0.2-0.3,0-0.2c-0.2-0.1-0.6,0.6-0.9,0.9l0.1-0.1
							c-0.3,0.2-0.5,0.7-0.9,1.1c0,0,0,0,0,0c-0.2,0.3-0.7,0.9-1.1,1.3c0.1-0.2,0.1-0.2,0-0.2c-0.2,0.2,0.1,0-0.2,0.4
							c-0.1,0.1-0.4,0.3-0.5,0.3l0.3-0.3c-0.2,0.1-0.4,0.4-0.6,0.6l0-0.1c-0.5,0.5-0.4,0.6-0.9,1.2l0.1,0c-0.2,0.4-0.3,0.2-0.5,0.6
							l-0.2,0c-0.2,0.2-0.6,0.8-0.9,1.1c0.1-0.3,0.5-0.7,0.7-1c-0.2,0.2-0.6,0.7-0.7,0.8c0.1-0.1,0.1-0.2,0.2-0.3
							c-0.2,0.3-0.4,0.7-0.8,1c-0.1-0.2-1,1-1.4,1.1c-0.6,0.7-1.4,1.3-2.1,2.2c0.4-0.2-0.2,0.2,0,0.3c-0.2,0.2-0.2,0.3-0.3,0.3
							l-0.6,0.5c-0.2,0.1,0.1-0.2,0.1-0.2c-0.4,0.4-0.2,0.1-0.5,0.4c0.1,0-0.1,0.2-0.3,0.4L66,56c-0.5,0.6-0.6,0.4-1.1,1l0.1-0.2
							c-0.3,0.3-1.1,1.1-1.2,1.5c-0.1,0-0.2,0.1,0-0.1c-0.7,0.7-1.4,1.7-2,2.2l0-0.1c-0.1,0.1-0.2,0.3-0.4,0.4c0,0,0-0.1,0,0
							c-0.1,0.1-0.3,0.4-0.5,0.6l0.1-0.2c-0.7,0.7-0.9,1.1-1.5,1.7c-0.1-0.1-0.6,0.4-0.9,0.7l0,0c-0.8,0.8-1.2,1.4-1.9,2.2
							c-0.2,0.1-0.4,0.3-0.7,0.6c-0.4,0.4-0.8,0.9-1.3,1.3c0.3,0.1,0.6,0.2,0.9,0.2c0.2,0,0.3,0.1,0.4,0.1c0.1,0,0.2,0.1,0.2,0.1
							c-0.1-0.1,0-0.1,0.2-0.1c0.2,0.1,0.7,0.1,0.6,0.2l-0.1,0c0.2,0.2,0.6,0.2,1,0.3l0.1-0.1c0.9,0.5,2.6,0.6,3.1,0.9
							c0.2,0,0.5,0.1,0.8,0.1l0,0.1c0.7,0.2,1,0.3,1.8,0.5l-0.2,0c0.5,0.1,0.6-0.1,1.1,0l0.1,0.1c0.8,0.2,1.6,0.5,2.4,0.6
							c0,0,0,0-0.2,0c0.4,0.1,1.4,0.4,1.3,0.2c0,0.1,0.8,0.2,1.3,0.3l-0.1,0.1c0.4,0,0.4,0,0.9,0.1c0.1,0,0.1,0.1-0.1,0
							c0.4,0.1,0.3,0,0.8,0.2l-0.2,0c0.4,0.1,0.4,0.1,0.6,0.1c0.3,0,0.8,0.2,0.8,0.3c0.1,0,0.3,0,0.5,0.1c0,0-0.1,0-0.1,0
							c0.7,0.2,1.1,0.2,1.5,0.4c0,0,0,0,0.1,0.1c-0.6-0.1-1-0.3-1-0.2c0,0.1,0.4,0.2,0,0.2c0.4,0,1,0.1,1.4,0.2c0,0,0,0,0.1,0l0,0
							c0.1,0,0.2,0,0.3,0.1c0.1,0,0.2,0.1,0.4,0.1c0,0.1,0.5,0.2,0.7,0.2c0-0.1,0.3,0,0-0.1c0,0,0,0-0.2,0c0,0-0.1,0-0.1,0l0,0
							c-0.1,0-0.3-0.1-0.6-0.1c0.2,0,0.4,0,0.6,0.1c0.1,0,0.3,0,0.3,0c0.3,0.2,0.9,0.4,0.9,0.5c0.7,0.1,1.6,0.4,2.1,0.3
							c0.2,0,0.2,0.1,0.3,0.1c-0.1,0-0.2,0-0.3,0c0.4,0.1,1.1,0.3,1.3,0.2c0.5,0.2-0.3,0,0.4,0.2l-0.1,0c1.3,0.5,2.2,0.3,3.6,0.8
							c-0.1,0-0.1-0.1-0.2-0.1c1.6,0.5,3.5,0.8,5.1,1.3c0.5,0.1,0.5,0.1,0.8,0.1l0.1,0.1l0.5,0c0.7,0.1,1.1,0.5,2.1,0.6L93,77
							c0.3,0.1,1,0.2,0.9,0.3c0,0,0.1,0,0.2,0l0,0l0.8,0.1c0.6,0.2-0.1,0.2,0.7,0.4c0.3,0.1,1,0.1,0.8,0c-0.1,0-0.3-0.1-0.3-0.2
							l0.3,0.1c0.1-0.1,0.3-0.2-0.4-0.5l-0.5,0l-0.1-0.1l0.4,0.1c-0.2-0.1-0.4-0.1-0.6-0.1c0,0-0.1-0.1-0.2-0.1l-0.5,0
							c0-0.1,0.2,0-0.1-0.2c-0.2,0,0.2,0.2-0.2,0.1c-0.2-0.1-0.1-0.1-0.4-0.2c0,0,0,0,0.2,0c-0.3,0-0.7-0.2-0.8-0.1
							c-0.2-0.1-0.9-0.2-0.8-0.3c-0.1,0-0.5,0-0.7-0.1c0.5,0-0.9-0.2-0.7-0.4c-0.3,0.1-1.2-0.2-1.7-0.3c0,0,0.1,0,0.1,0
							c-0.3-0.1-0.4-0.2-0.6-0.2c-0.1,0.1-0.6,0-0.8,0c-0.4-0.2,0.3-0.1,0.2-0.2c0,0.1-0.7-0.1-0.6,0c-0.3-0.1-0.2-0.1-0.4-0.2
							c-0.1,0.1-0.3,0-0.5,0c-0.4-0.2-0.1-0.2-0.6-0.2C85.9,74.6,86.3,74.7,86.3,74.7z M75.1,72.1L75.1,72.1c0.1,0,0.2,0,0.2,0.1
							C75.3,72.2,75.2,72.2,75.1,72.1z M74.2,71.9c0.1,0,0.3,0.1,0.4,0.1c0,0,0,0.1-0.1,0C74.5,72,74.3,72,74.2,71.9z M76,72.9
							c-0.2,0-0.2-0.1-0.2-0.1C75.9,72.9,75.9,72.9,76,72.9L76,72.9C76,72.9,76,72.9,76,72.9z"/>
						<path fill="#202020" d="M76.3,72.9C76.3,72.9,76.3,72.9,76.3,72.9C76.3,72.9,76.3,72.9,76.3,72.9L76.3,72.9L76.3,72.9z"/>
						<path fill="#202020" d="M91.4,59.2L91.4,59.2C91.4,59.2,91.4,59.2,91.4,59.2C91.4,59.2,91.4,59.2,91.4,59.2z"/>
						<polygon fill="#202020" points="61.3,68.5 61.3,68.6 61.3,68.6 						"/>
						<path fill="#202020" d="M92.6,64.4C92.6,64.4,92.6,64.5,92.6,64.4C92.6,64.5,92.6,64.5,92.6,64.4z"/>
						<path fill="#202020" d="M93.2,66.6l0.1,0.3C93.2,66.8,93.2,66.7,93.2,66.6z"/>
						<path fill="#202020" d="M93.7,68.3C93.7,68.4,93.7,68.4,93.7,68.3L93.7,68.3L93.7,68.3z"/>
						<path fill="#202020" d="M85.8,41.4L85.8,41.4C85.7,41.2,85.8,41.3,85.8,41.4z"/>
						<path fill="#202020" d="M88.3,49.4c0-0.1-0.1-0.2-0.1-0.2C88.2,49.3,88.3,49.4,88.3,49.4z"/>
						<polygon fill="#202020" points="81.9,40.5 81.9,40.5 81.8,40.6 						"/>
						<path fill="#202020" d="M88.1,48.7c0,0.1,0.1,0.3,0.1,0.4C88.2,49,88.1,48.9,88.1,48.7z"/>
						<path fill="#202020" d="M95.7,75.7L95.7,75.7C95.8,75.8,95.8,75.8,95.7,75.7L95.7,75.7z"/>
						<path fill="#202020" d="M95.8,75.8L95.8,75.8C95.8,75.8,95.8,75.8,95.8,75.8z"/>
						<path fill="#202020" d="M95.9,76.1l-0.1-0.2C95.8,75.9,95.8,76,95.9,76.1z"/>
						<path fill="#202020" d="M95.1,73.4L95.1,73.4C95.1,73.4,95.1,73.4,95.1,73.4z"/>
						<path fill="#202020" d="M94.9,72.8c0,0.2,0.1,0.4,0.1,0.6l0,0C95,73.3,95,72.9,94.9,72.8z"/>
						<path fill="#202020" d="M94.5,69.8l0.1,0.6c0-0.1,0-0.3,0.1,0C94.6,69.7,94.7,70.6,94.5,69.8z"/>
						<path fill="#202020" d="M94,68C94.1,68.3,94,68,94,68C94,67.8,93.9,67.8,94,68z"/>
						<path fill="#202020" d="M90.3,55.2L90.3,55.2C90.3,55,90.4,55.2,90.3,55.2z"/>
						<polygon fill="#202020" points="89.2,52.9 89.3,53.1 89.4,53.2 						"/>
						<polygon fill="#202020" points="89.3,51.3 89.4,51.4 89.2,51 						"/>
						<path fill="#202020" d="M79.6,41.9l0.1,0C79.8,41.8,79.7,41.7,79.6,41.9z"/>
						<path fill="#202020" d="M72.9,48.9c-0.1,0-0.3,0.2-0.4,0.4C72.7,49.1,72.8,49,72.9,48.9z"/>
						<polygon fill="#202020" points="58.6,68.6 58.4,68.6 58.8,68.7 						"/>
					</g>
				</g>
			</g>
		</g>
	</g>
	<g>
		<g>
			<g>
				<g>
					<g>
						<path fill="#202020" d="M50.4,61.8c0,0.1,0.1,0.1,0.1-0.1l-0.1-0.2L50.4,61.8z"/>
						<path fill="#202020" d="M50.9,60.7c0-0.2,0-0.5-0.1-0.4c0,0.2,0,0.3,0,0.5c0,0.2-0.1,0.3-0.1,0.3c0,0.1-0.1,0.3-0.1,0.4
							C50.7,61.3,50.8,61,50.9,60.7C50.9,60.6,50.9,60.7,50.9,60.7z"/>
						<path fill="#202020" d="M56.2,43.4l0,0.1C56.2,43.5,56.2,43.4,56.2,43.4z"/>
						<path fill="#202020" d="M59.5,32.7c0,0.1,0,0.1,0,0.1C59.5,32.7,59.5,32.7,59.5,32.7z"/>
						<path fill="#202020" d="M60.1,30.9c0,0,0,0.1,0,0.1C60.1,30.9,60.1,30.9,60.1,30.9z"/>
						<path fill="#202020" d="M56.2,43.4l0.1-0.3C56.3,43.1,56.2,43.3,56.2,43.4z"/>
						<path fill="#202020" d="M51.4,58.2c0,0.1,0,0.1,0,0.2L51.4,58.2L51.4,58.2z"/>
						<path fill="#202020" d="M54.9,48.2L54.9,48.2c0,0.1,0,0.1,0,0.2L54.9,48.2z"/>
						<path fill="#202020" d="M53.8,51.8c0-0.1,0-0.1-0.1-0.2C53.7,51.7,53.7,51.7,53.8,51.8C53.7,51.8,53.8,51.8,53.8,51.8z"/>
						<path fill="#202020" d="M51.9,57.5l0,0.1C51.9,57.6,51.9,57.5,51.9,57.5z"/>
						<path fill="#202020" d="M55.6,45.6C55.7,45.6,55.7,45.5,55.6,45.6C55.7,45.5,55.7,45.5,55.6,45.6z"/>
						<path fill="#202020" d="M47.8,58.4C47.8,58.4,47.8,58.4,47.8,58.4C47.8,58.5,47.8,58.5,47.8,58.4z"/>
						<path fill="#202020" d="M50.5,61.9L50.5,61.9C50.5,61.9,50.4,61.9,50.5,61.9L50.5,61.9z"/>
						<path fill="#202020" d="M61.2,27.6C61.2,27.6,61.2,27.6,61.2,27.6C61.2,27.7,61.2,27.6,61.2,27.6z"/>
						<path fill="#202020" d="M37.7,26.7c0.4,0-0.6,0.2,0,0.2C37.7,26.9,38.2,26.7,37.7,26.7z"/>
						<path fill="#202020" d="M51.4,58.1l0-0.1C51.4,58.1,51.4,58.1,51.4,58.1z"/>
						<path fill="#202020" d="M37.7,26.9L37.7,26.9L37.7,26.9C37.8,26.9,37.8,26.9,37.7,26.9z"/>
						<path fill="#202020" d="M61.2,21.2C61.2,21.2,61.2,21.2,61.2,21.2C61.2,21.2,61.2,21.2,61.2,21.2z"/>
						<path fill="#202020" d="M61.6,25.5l0.1-0.1C61.7,25.4,61.6,25.5,61.6,25.5z"/>
						<path fill="#202020" d="M58.1,22c-0.1,0-0.1,0-0.2,0l0,0C58,22,58.1,22,58.1,22z"/>
						<path fill="#202020" d="M55,22.8L55,22.8c0.1,0,0.1,0,0.2,0L55,22.8z"/>
						<path fill="#202020" d="M41,51.3c0,0.1,0,0.1,0.1,0.2C41,51.4,41.4,51.7,41,51.3z"/>
						<path fill="#202020" d="M51.4,58.2c0,0,0-0.1,0-0.1L51.4,58.2C51.4,58.3,51.4,58.3,51.4,58.2z"/>
						<path fill="#202020" d="M58.2,22.6l-0.5,0.1C57.8,22.7,58,22.7,58.2,22.6z"/>
						<path fill="#202020" d="M25,34.4L25,34.4C25,34.4,25,34.4,25,34.4z"/>
						<path fill="#202020" d="M56.2,23.1c-0.1,0-0.2,0-0.3,0c0,0,0,0-0.1,0L56.2,23.1z"/>
						<path fill="#202020" d="M41,51.4L41,51.4L41,51.4z"/>
						<path fill="#202020" d="M43.5,53.8c-0.3-0.4-0.2-0.1-0.3-0.1c-0.4-0.4-0.1-0.3-0.2-0.4c-0.3-0.2-0.5-0.4-0.7-0.6
							c0,0,0-0.1,0,0c-0.3-0.2-0.8-0.8-1.2-1.1c0,0,0,0,0-0.1c0,0.1,0,0.1-0.1,0.2c-0.2-0.2-0.3-0.3-0.3-0.4
							c0.1,0.1,0.1,0.1,0.2,0.1l-0.2-0.1c-0.1-0.2,0.2,0.2,0.3,0.2c-0.3-0.3-0.8-0.6-1-0.9c0-0.1,0.6,0.6,0.3,0.2l0.3,0.4
							c-0.2-0.4,0.2,0.2,0.1-0.1c-0.5-0.5-0.6-0.5-1-1.1c-0.1-0.1,0,0.1-0.2,0c-0.8-0.7-0.4-0.7-1-1.2c-0.2-0.1-0.3-0.1-0.6-0.5
							l0.2,0.1c-0.5-0.5-0.4-0.2-0.8-0.7c0.1,0.1,0.4,0.4,0.3,0.3c-0.3-0.4-0.3-0.2-0.5-0.5l0-0.1c-0.5-0.5-1.1-1.1-1.7-1.6
							c0.1,0,0.2,0.1,0.1-0.1c-0.7-0.7-1.5-1.6-2.1-2.3L33.1,43c-0.1-0.1-0.1-0.1,0-0.1c-0.2-0.3-0.1,0-0.2-0.1
							c-0.2-0.2-0.2-0.2,0-0.2c-0.5-0.4-1.4-1.3-1.8-1.9l0.1,0.1c-0.4-0.4-0.6-0.3-0.8-0.8l0.1,0.1c-0.8-0.9-1.8-1.8-2.3-2.6
							c-0.2,0-0.8-0.9-0.9-0.8c-0.4-0.6-0.3-0.4-0.9-1.2c-0.2-0.2-0.3-0.2-0.6-0.4l0.1-0.1l-0.4-0.2l-0.1-0.2l-0.2-0.2
							c0.1,0.1,0.1,0.2,0.1,0.2c-0.3-0.3-0.7-0.9-0.7-0.9L23.7,33c0,0,0.2,0.1,0.3,0.2c-0.5-0.4,0-0.1-0.4-0.5c0,0.1-0.1,0-0.1,0
							c-0.1-0.2-0.6-0.7-0.9-1l0.1,0c-0.1-0.2-0.3-0.3-0.5-0.5l-0.1-0.1l0.1,0c0,0,0,0,0.1,0l0.3-0.1c-0.3,0-0.3-0.1,0-0.1l0.1,0.1
							c0.2-0.1-0.3,0,0-0.1c0.3-0.1,0.2,0.1,0.1,0.1l0.4-0.1c0,0-0.1,0.1-0.1,0.1c0.2-0.1,0.7-0.1,0.9-0.2l0,0
							c0.9-0.2,1.3-0.3,2-0.5c0-0.1,0.3-0.1,0.5-0.2c0.5-0.1,1.1-0.2,1.8-0.3c0.4-0.1,0.1-0.1,0.3-0.2c0.1,0.1,0.7-0.1,0.4,0
							c0.8-0.2,1-0.2,1.9-0.5c-0.1,0-0.2,0-0.2,0c0.2-0.1,0.4-0.1,0.4,0l0,0c1.1-0.4,2.6-0.4,3.4-0.7l0,0l0.9-0.3
							c0.4-0.1-0.2,0.1,0.1,0.1c0.9-0.4,1.5-0.3,2.3-0.6c0.7,0.1,2.2-0.5,3.1-0.6l-0.1,0c0.2-0.1,0.3,0,0.4-0.1c0,0-0.2,0-0.1,0
							c1.8-0.5,3.8-0.8,5.7-1.2c0.7-0.2,0.3-0.3,1.2-0.4l-0.2,0.2c1.4-0.4,2.8-0.7,4.2-1.1c-0.1,0-0.1,0.1-0.2,0.1
							c0.3,0,1.1-0.2,1.1-0.3c0.2,0,0.1,0,0.2,0c0.3,0,0.7-0.3,0.9-0.2c0,0-0.1,0-0.1,0.1c0.2-0.1,0.9-0.2,0.7-0.2
							c0.5-0.1,1-0.3,1.4-0.3c0.2-0.1,0.9-0.2,0.9-0.3c0,0.1,0.9-0.1,1.2-0.2c-0.1,0.1,0.3,0,0.2,0.1c0.4-0.1,0.7-0.2,0.6-0.2
							c0.7,0,1.3-0.4,1.8-0.3c0.4-0.1,0.8-0.2,1.1-0.3l0.3-0.1l0.1,0l0.2-0.1c0,0.1,0,0.1,0,0.2c0,0.1,0,0.2-0.1,0.3
							c0,0,0-0.1,0-0.1c0,0,0-0.1,0-0.1c0-0.1,0-0.1,0-0.2c0,0-0.1,0-0.1,0.1c0,0,0,0,0,0c0,0.1,0.1,0-0.1,0.5
							c-0.1,0.4-0.2,0.7-0.3,1.1c-0.1,0.2,0-0.2,0-0.2c-0.2,0.9-0.5,1.8-0.7,2.6c0,0,0-0.1,0-0.2c0,0.2-0.1,0.4-0.1,0.4l0-0.2
							c0.2-0.2,0,0.7,0,0.7c-0.1-0.3-0.3,0.8-0.4,0.3c0,0.1,0,0.3,0,0.2c-0.1,0.2-0.1,0.2-0.1,0c-0.1,0.6,0,0.4-0.2,0.9
							c0,0,0-0.1,0-0.2c0,0.3-0.1,0.6-0.2,1c0,0,0,0,0-0.1C60,29.4,60,30,59.7,30.8c0-0.3-0.1,0.3-0.2,0.3l-0.1,0.5l0.1-0.2
							c-0.1,0.4-0.1,0.8-0.3,1.1l0-0.3L59,32.9l0.2-0.4c-0.1,0.4,0.1,0,0,0.5c0-0.1-0.1,0.4-0.2,0.6l0,0c0,0.2-0.1,0.4-0.2,0.7
							c-0.1,0.1-0.1-0.1-0.1-0.1c0,0.2-0.3,0.9-0.2,1.2c0-0.1,0-0.1-0.1-0.1l0,0.2c-0.1,0.2-0.1,0.2-0.1,0.2
							c-0.2,0.5,0.2-0.1-0.1,0.5c0-0.1,0,0,0-0.1c-0.2,0.6-0.3,1.3-0.5,1.9c-0.2,0.1,0.1-0.5,0-0.4c-0.2,0.9-0.4,1.8-0.7,2.7
							l0.1-0.2c0.1,0.2-0.3,0.6-0.3,1c0-0.1,0-0.2,0-0.1c-0.2,0.6-0.3,1.2-0.5,2.1l0-0.1c-0.1,0.3-0.3,0.9-0.4,1.2
							c0,0.1-0.1,0.3,0,0.2c-0.5,1.1-0.5,2.2-1,3.1c0-0.1,0.1-0.3,0-0.2l-0.2,0.9c0.1,0,0.1-0.1,0.2-0.3c0,0.1,0,0.4-0.1,0.6
							c0.1-0.4-0.1,0-0.2,0.1c0,0,0,0,0.1,0c-0.2,0.4,0.1,0.1-0.2,0.7l0,0c-0.1,0.2-0.1,0.5-0.2,0.7c-0.1,0.1,0-0.3,0-0.3
							c-0.1,0.3-0.1,0.7-0.2,1c0-0.2,0.1-0.4,0.1-0.5c-0.2,0.3-0.2,0.4-0.3,0.6l0,0l-0.2,0.6l0.1-0.1c0.1,0.5-0.2,0.9-0.3,1.5
							c0-0.6,0-0.1-0.1-0.2c-0.1,0.1-0.2,0.4-0.2,0.3c0,0.3-0.2,0.4-0.2,0.9c0,0-0.1,0.3-0.1,0.2c-0.1,0.4,0.1-0.1,0.1,0
							c-0.1,0.6-0.5,1.3-0.6,2.1c-0.2,0.7-0.1,0.8-0.2,1.5c-0.1,0.2,0-0.2,0-0.2c-0.1,0.3-0.2,0.6-0.3,0.9c0-0.1,0,0-0.1,0.1
							c-0.1,0.3,0,0.2-0.1,0.5c0-0.1,0-0.2,0-0.3c-0.1,0.3-0.1,0.6-0.2,1c-0.1,0.1,0-0.2,0-0.3c-0.1,0.4-0.2,0.9-0.2,1.1l0.1-0.2
							c0,0.1-0.1,0-0.1-0.1c0-0.3,0.2-0.4,0.2-0.4l-0.1,0.2c0.2-0.2,0.2-0.9,0.4-1.4l0.1,0.2l0-0.5c0.1-0.1,0.1-0.1,0.1,0.1
							c0.2-0.3,0-0.3,0.2-0.6c0,0,0,0,0,0l0.1-0.3c0,0.1,0.1,0,0,0.2c0.2-0.6,0.2-0.9,0.3-1.1l0,0c0.2-0.8-0.1-0.1,0-0.7l0.3-0.3
							l-0.1-0.1c0-0.1,0.1-0.2,0.1-0.2c0-0.3-0.1,0-0.1-0.2c0.2-0.4,0.3-1.1,0.4-1.1c0-0.2-0.2,0.4-0.1-0.1c0.2-0.1,0.1-0.5,0.3-0.8
							c0,0.1-0.1,0.5,0.1,0.1c-0.1-0.3,0.2-0.7,0.3-1c-0.1,0,0.2-0.7,0.3-1.2c0,0,0.3-0.9,0.5-1.4l0,0c-0.1-0.1,0.1-0.6,0.2-1
							c0.1,0,0.1,0.1,0,0.3l0.1-0.3c0-0.1,0-0.2,0.1-0.4l0.1,0.1c0.1-0.4,0.2-0.9,0.4-1.5c-0.1-0.1-0.3,0.4-0.2-0.2
							c0,0,0.1,0,0.1,0.1c0-0.1,0-0.2,0.1-0.3l0,0.3c0.1-0.3,0-0.2,0.1-0.4c0.1,0,0.1-0.1,0.1-0.1c0,0.1-0.1,0.2-0.1,0.3
							c0.1-0.2,0.2-0.5,0.3-0.6c0,0-0.1,0,0-0.2c0.1-0.4,0.1-0.1,0.2-0.4c0-0.1,0.1-0.4,0-0.4c0-0.1,0.1-0.1,0.1-0.2
							c0-0.2,0.3-1.1,0.1-0.8l0,0.1c0,0,0,0,0,0l0,0l0,0c0.1-0.8,0.5-1.6,0.7-2.3l0,0c0.1-0.5,0.3-1,0.3-1.3c0-0.1,0.1-0.3,0.2-0.2
							c0.1-0.3,0.1-0.4,0.3-0.9c-0.1,0.4,0.1-0.1-0.1,0.4c0.2-0.4,0.2-0.5,0.3-1c0,0.2,0.2-0.3,0.2-0.5l-0.1,0.3
							c0.1-0.2,0.1-0.4,0.2-0.7l0.1,0.1c0.4-0.9,0.3-1.7,0.7-2.3c0-0.3-0.2,0.5-0.2,0.2c0.1-0.4,0.4-0.8,0.4-0.9
							c0.2-0.6,0-0.6,0.2-1.2c-0.1,0.1-0.2,0.1-0.1-0.3c0.1-0.4,0.3-0.5,0.2-0.2c0,0.1-0.1,0.1-0.1,0.1c0,0.1-0.1,0.3,0,0.2l0-0.1
							c0.1-0.2,0.3-0.8,0.3-0.6c0.1-0.3,0-0.2-0.1,0.1c0.2-0.5,0.3-0.8,0.4-1.4c0,0.1-0.1,0.2-0.1,0.1c0.3-0.8,0-0.4,0.2-0.9
							c0.1-0.3,0.1,0.1,0.2-0.4c0.1-0.3,0.1,0,0.1,0.1c0.1-0.5,0.3-0.9,0.4-1.2l-0.1,0.3c0-0.2,0.1-0.3,0.1-0.4l-0.1,0.1
							c0.1-0.2,0.1-0.3,0.1-0.3c0-0.2-0.1,0.1-0.1-0.2c0.1-0.2,0.2-0.6,0.3-0.7c-0.2,0.6,0.1,0,0,0.5c0-0.1,0.1-0.2,0.1-0.4
							c0,0,0,0,0,0.1c0.3-0.6,0-0.3,0.2-1c0,0.1,0.1-0.1,0.2-0.2c-0.1,0.3-0.1,0.1-0.1-0.1c0.2-0.4,0.1-0.5,0.2-0.7l-0.1,0.2
							c0-0.1,0-0.3,0.1-0.6c0,0-0.1,0.3,0,0.2c0-0.3,0.3-0.7,0.4-1.2c0.1-0.2,0.1,0,0.2-0.2c0.1-0.5,0.2-0.5,0.3-1.1
							c-0.1,0.1-0.1,0.2-0.1-0.2l-0.2,0.9l0.1-0.6c-0.1,0.3-0.1,0.6-0.2,0.7c0-0.3,0-0.2-0.1-0.1c0.2-0.3,0.2-0.7,0.3-1.1l0.2,0.1
							c0-0.1,0.1-0.2,0.1-0.3c0-0.1,0.1-0.3,0.1-0.4c0.1-0.3,0.2-0.7,0.3-1c-0.3,0.1-0.6,0.2-1,0.2l0.4-0.1c-0.2,0.1-0.8,0.2-1,0.3
							c0-0.1-0.2,0-0.3,0c0,0-0.6,0.1-0.6,0.3l-0.4,0c-0.7,0.1-0.7,0.3-1.4,0.5c0.2-0.1-0.1-0.1,0.3-0.2c-0.2,0-0.4,0.1-0.4,0.1
							c-0.1,0-0.6,0.2-0.8,0.2c-0.1,0-0.1,0.1-0.3,0.2c0,0,0,0,0,0c0,0-0.4,0.1-0.1,0.1c-0.7,0-1.8,0.4-2.4,0.4
							c-0.5,0.1-1,0.3-1.4,0.4c0,0,0,0,0.1,0c-0.6,0.1-0.3,0.2-1,0.3c-0.4,0,0.3-0.1,0.1-0.1c-0.1-0.2-0.8,0.2-1.3,0.2l0.1,0
							c-0.4,0-0.8,0.3-1.4,0.4c0,0,0,0,0,0c-0.4,0.2-1.1,0.4-1.6,0.5c0.1-0.1,0.2-0.1,0.1-0.1c-0.2,0.1,0.1,0.1-0.4,0.2
							c-0.2,0-0.5,0-0.6,0l0.4-0.1c-0.3,0-0.6,0.1-0.8,0.2l0-0.1c-0.7,0.2-0.7,0.3-1.4,0.5l0.1,0c-0.4,0.2-0.4,0-0.7,0.2l-0.1-0.1
							c-0.3,0.1-0.9,0.3-1.4,0.5c0.3-0.1,0.8-0.3,1.1-0.5c-0.3,0.1-0.9,0.2-1,0.3c0.1,0,0.2-0.1,0.3-0.1c-0.3,0.2-0.7,0.3-1.3,0.4
							c0-0.2-1.4,0.3-1.8,0.2c-0.9,0.3-1.9,0.4-3,0.7c0.4,0.1-0.3,0.1-0.2,0.2c-0.3,0.1-0.3,0.1-0.4,0.1L36.9,27
							c-0.2,0,0.2-0.1,0.2-0.1c-0.6,0.1-0.3,0-0.6,0c0.1,0-0.2,0.1-0.5,0.2l0.5,0c-0.8,0.3-0.7,0-1.5,0.3l0.2-0.1
							c-0.4,0.1-1.5,0.4-1.8,0.6c-0.1,0-0.2,0,0-0.1c-1,0.2-2.1,0.7-2.9,0.7l0.1-0.1c-0.2,0.1-0.3,0.2-0.5,0.2c0,0,0.1-0.1,0,0
							c-0.1,0-0.5,0.2-0.7,0.2l0.2-0.1c-1,0.2-1.4,0.5-2.2,0.7c0-0.1-0.8,0-1.1,0.1l0,0c-1.1,0.2-1.8,0.5-2.8,0.8
							c-0.2,0-0.6,0.1-0.9,0.1c-0.6,0.1-1.2,0.3-1.8,0.4c0.2,0.2,0.4,0.5,0.7,0.7c0.1,0.1,0.2,0.2,0.3,0.3l0.2,0.2
							c-0.1-0.1,0.1,0,0.2,0.1c0.1,0.2,0.5,0.4,0.4,0.5l-0.1-0.1c0,0.2,0.4,0.6,0.7,0.8l0.2-0.1c0.5,0.9,1.9,1.9,2.1,2.4
							c0.2,0.2,0.4,0.4,0.6,0.5l-0.1,0c0.5,0.5,0.7,0.8,1.3,1.4L27,37.6c0.3,0.3,0.6,0.3,0.9,0.6l0,0.2c0.6,0.6,1.1,1.3,1.7,1.8
							c0,0-0.1,0-0.2-0.1c0.3,0.3,1,1.2,1,0.9c-0.1,0.1,0.6,0.6,0.9,0.9l-0.1,0c0.3,0.2,0.4,0.2,0.7,0.6c0.1,0.1,0,0.1-0.1,0
							c0.3,0.3,0.3,0.2,0.6,0.6L32.4,43c0.3,0.3,0.3,0.3,0.5,0.4c0.2,0.2,0.5,0.6,0.5,0.7c0.1,0,0.3,0.1,0.4,0.3c0,0-0.1,0-0.1,0
							c0.5,0.6,0.8,0.7,1.1,1.1c0,0,0,0.1,0,0.1c-0.4-0.4-0.7-0.8-0.7-0.7c-0.1,0.1,0.3,0.4-0.1,0.2c0.3,0.2,0.8,0.6,1.1,1
							c0,0,0,0,0,0.1l0,0c0.1,0.1,0.1,0.1,0.2,0.2c0.1,0.1,0.1,0.2,0.2,0.3c0,0.1,0.3,0.4,0.5,0.6c0-0.1,0.2,0.2,0.1-0.1
							c0,0,0,0-0.1-0.1c0,0-0.1,0-0.1-0.1l0,0c-0.1-0.1-0.2-0.3-0.4-0.4c0.2,0.1,0.3,0.2,0.5,0.4c0.1,0.1,0.2,0.1,0.3,0.1
							c0.1,0.3,0.5,0.8,0.5,0.9c0.5,0.5,1.2,1.2,1.6,1.4c0.2,0.1,0.1,0.2,0.2,0.3c-0.1-0.1-0.2-0.2-0.2-0.2c0.3,0.3,0.8,0.8,1,0.8
							c0.3,0.4-0.3-0.1,0.2,0.4l-0.1,0c0.8,1.1,1.7,1.4,2.6,2.7C42,53.1,42,53,42,53c1.1,1.3,2.5,2.5,3.5,3.8
							c0.3,0.4,0.4,0.4,0.6,0.5l0,0.1l0.4,0.3c0.5,0.5,0.7,1,1.4,1.6l0-0.1c0.2,0.2,0.7,0.7,0.6,0.7c0,0,0.1,0,0.2,0.1l0,0l0.6,0.5
							c0.4,0.5-0.2,0.1,0.4,0.7c0.2,0.2,0.8,0.6,0.7,0.5c-0.1-0.1-0.2-0.3-0.2-0.3l0.2,0.2c0.1-0.1,0.4,0-0.1-0.6L50,60.9l-0.1-0.2
							l0.3,0.3c-0.1-0.2-0.3-0.3-0.4-0.4c0-0.1,0-0.1-0.1-0.2l-0.4-0.3c0-0.1,0.2,0.1,0-0.2c-0.2-0.1,0.1,0.2-0.2,0
							c-0.1-0.2,0-0.2-0.3-0.4c0-0.1,0.1,0,0.1,0.1c-0.2-0.2-0.5-0.5-0.6-0.5c-0.1-0.2-0.6-0.6-0.5-0.7c-0.1,0-0.4-0.3-0.6-0.4
							c0.4,0.2-0.6-0.7-0.4-0.7c-0.3-0.1-0.9-0.8-1.3-1.2c0,0,0.1,0,0.1,0.1c-0.2-0.2-0.2-0.3-0.4-0.5c-0.1,0-0.5-0.3-0.7-0.5
							c-0.2-0.4,0.3,0.1,0.3-0.1c-0.1,0.1-0.5-0.4-0.5-0.3c-0.2-0.3-0.2-0.2-0.2-0.4c-0.1,0.1-0.2-0.2-0.4-0.3
							c-0.3-0.4,0-0.2-0.3-0.5C43.2,53.5,43.5,53.8,43.5,53.8z M35.4,45.6L35.4,45.6c0.1,0.1,0.1,0.1,0.2,0.2
							C35.6,45.7,35.5,45.7,35.4,45.6z M34.8,44.9c0.1,0.1,0.2,0.2,0.3,0.3c0,0,0,0-0.1,0C35,45.2,34.9,45,34.8,44.9z M35.8,46.8
							c-0.1-0.1-0.1-0.2-0.1-0.2C35.7,46.6,35.8,46.7,35.8,46.8L35.8,46.8C35.8,46.8,35.8,46.8,35.8,46.8z"/>
						<path fill="#202020" d="M36,46.9C36.1,46.9,36.1,46.9,36,46.9C36.1,46.9,36.1,46.9,36,46.9L36,46.9L36,46.9z"/>
						<path fill="#202020" d="M56.1,43.5L56.1,43.5C56.1,43.5,56.1,43.5,56.1,43.5C56.1,43.5,56.1,43.5,56.1,43.5z"/>
						<polygon fill="#202020" points="25.7,35.1 25.7,35.1 25.8,35.2 						"/>
						<path fill="#202020" d="M54.4,48.5C54.3,48.6,54.3,48.6,54.4,48.5C54.3,48.6,54.3,48.6,54.4,48.5z"/>
						<path fill="#202020" d="M53.7,50.7L53.6,51C53.6,50.9,53.7,50.8,53.7,50.7z"/>
						<path fill="#202020" d="M53.1,52.4C53.1,52.4,53.2,52.5,53.1,52.4L53.1,52.4L53.1,52.4z"/>
						<path fill="#202020" d="M61.1,25.5L61.1,25.5C61.1,25.3,61.1,25.4,61.1,25.5z"/>
						<path fill="#202020" d="M58.9,33.6c0-0.1,0-0.2,0-0.3C58.9,33.4,58.8,33.5,58.9,33.6z"/>
						<polygon fill="#202020" points="58.2,22.6 58.2,22.6 58.2,22.6 						"/>
						<path fill="#202020" d="M59,32.9c-0.1,0.1-0.1,0.3-0.1,0.4C59,33.2,59,33,59,32.9z"/>
						<path fill="#202020" d="M50.9,59.7L50.9,59.7C50.9,59.8,50.9,59.8,50.9,59.7L50.9,59.7z"/>
						<path fill="#202020" d="M50.9,59.8L50.9,59.8C50.9,59.9,50.9,59.8,50.9,59.8z"/>
						<path fill="#202020" d="M50.8,60.1l0-0.2C50.9,60,50.8,60.1,50.8,60.1z"/>
						<path fill="#202020" d="M51.6,57.5L51.6,57.5C51.6,57.5,51.6,57.5,51.6,57.5z"/>
						<path fill="#202020" d="M51.8,56.8c-0.1,0.2-0.2,0.4-0.2,0.6l0,0C51.6,57.4,51.8,57,51.8,56.8z"/>
						<path fill="#202020" d="M53,54.1l-0.2,0.6c0.1-0.1,0.1-0.2,0.1,0.1C53.2,54,52.8,54.8,53,54.1z"/>
						<path fill="#202020" d="M53.6,52.3C53.5,52.6,53.6,52.3,53.6,52.3C53.7,52.2,53.7,52.1,53.6,52.3z"/>
						<path fill="#202020" d="M57.4,39.6L57.4,39.6C57.5,39.4,57.4,39.6,57.4,39.6z"/>
						<polygon fill="#202020" points="57.8,37 57.7,37.2 57.7,37.4 						"/>
						<polygon fill="#202020" points="58.7,35.7 58.7,35.8 58.8,35.4 						"/>
						<path fill="#202020" d="M55.5,22.5L55.5,22.5C55.8,22.6,55.8,22.5,55.5,22.5z"/>
						<path fill="#202020" d="M46.1,24.9c-0.1,0-0.4,0-0.5,0.1C45.8,24.9,46,24.9,46.1,24.9z"/>
						<polygon fill="#202020" points="23.5,33.7 23.3,33.6 23.6,33.9 						"/>
					</g>
				</g>
			</g>
		</g>
	</g>
	<g>
		<g>
			<g>
				<g>
					<g>
						<path fill="#202020" d="M123.2,121.4c0.1,0,0.1,0,0-0.2l-0.2-0.1L123.2,121.4z"/>
						<path fill="#202020" d="M122.6,120.2c-0.2-0.2-0.4-0.3-0.4-0.2c0.2,0.1,0.2,0.2,0.4,0.3c0.1,0.2,0.1,0.3,0.1,0.3
							c0.1,0,0.1,0.3,0.2,0.3C123,120.8,122.8,120.5,122.6,120.2C122.6,120.2,122.6,120.2,122.6,120.2z"/>
						<path fill="#202020" d="M113.2,104.8l0.1,0.1C113.2,104.9,113.2,104.9,113.2,104.8z"/>
						<path fill="#202020" d="M107.3,95.3C107.3,95.4,107.3,95.4,107.3,95.3C107.3,95.4,107.3,95.3,107.3,95.3z"/>
						<path fill="#202020" d="M106.3,93.6C106.4,93.7,106.4,93.7,106.3,93.6C106.4,93.7,106.4,93.7,106.3,93.6z"/>
						<path fill="#202020" d="M113.2,104.8l-0.1-0.3C113,104.6,113.1,104.7,113.2,104.8z"/>
						<path fill="#202020" d="M121.1,118.3c0,0.1,0.1,0.1,0.1,0.1L121.1,118.3L121.1,118.3z"/>
						<path fill="#202020" d="M115.9,109L115.9,109c0.1,0.1,0.1,0.1,0.1,0.1L115.9,109z"/>
						<path fill="#202020" d="M117.9,112.2c0-0.1-0.1-0.1-0.2-0.1C117.8,112.2,117.8,112.2,117.9,112.2
							C117.9,112.3,117.9,112.2,117.9,112.2z"/>
						<path fill="#202020" d="M121,117.4L121,117.4C121,117.4,121,117.4,121,117.4z"/>
						<path fill="#202020" d="M114.4,106.7C114.4,106.7,114.4,106.7,114.4,106.7C114.4,106.6,114.4,106.7,114.4,106.7z"/>
						<path fill="#202020" d="M118.9,121.1C118.9,121.1,118.9,121.1,118.9,121.1C118.9,121.1,118.9,121.1,118.9,121.1z"/>
						<path fill="#202020" d="M123.3,121.3L123.3,121.3C123.3,121.3,123.2,121.4,123.3,121.3L123.3,121.3z"/>
						<path fill="#202020" d="M104.6,90.6C104.6,90.6,104.6,90.6,104.6,90.6C104.6,90.7,104.6,90.7,104.6,90.6z"/>
						<path fill="#202020" d="M88.5,107.7c0.2-0.3-0.2,0.6,0.1,0.1C88.6,107.9,88.7,107.3,88.5,107.7z"/>
						<path fill="#202020" d="M121.1,118.2L121,118C121,118.1,121.1,118.1,121.1,118.2z"/>
						<path fill="#202020" d="M88.6,107.8L88.6,107.8L88.6,107.8C88.6,107.8,88.6,107.8,88.6,107.8z"/>
						<path fill="#202020" d="M99.7,86.4C99.8,86.4,99.8,86.4,99.7,86.4C99.8,86.4,99.8,86.4,99.7,86.4z"/>
						<path fill="#202020" d="M103.3,89l-0.1-0.1C103.3,88.9,103.3,88.9,103.3,89z"/>
						<path fill="#202020" d="M98.4,89.3c0,0.1-0.1,0.1-0.1,0.2l0,0C98.3,89.4,98.3,89.3,98.4,89.3z"/>
						<path fill="#202020" d="M96.9,92.1L96.9,92.1c0.1-0.1,0.1-0.1,0.1-0.1L96.9,92.1z"/>
						<path fill="#202020" d="M109.1,121.5c0.1,0,0.1,0,0.2,0.1C109.2,121.5,109.6,121.4,109.1,121.5z"/>
						<path fill="#202020" d="M121.2,118.2C121.1,118.2,121.1,118.2,121.2,118.2L121.2,118.2C121.2,118.3,121.2,118.3,121.2,118.2z"
							/>
						<path fill="#202020" d="M98.9,89.7l-0.3,0.5C98.7,90,98.8,89.8,98.9,89.7z"/>
						<path fill="#202020" d="M85.8,122.3l0.1,0C85.8,122.3,85.8,122.3,85.8,122.3z"/>
						<path fill="#202020" d="M97.9,91.5c-0.1,0.1-0.1,0.1-0.2,0.2c0,0,0,0,0,0.1L97.9,91.5z"/>
						<path fill="#202020" d="M109.2,121.5L109.2,121.5L109.2,121.5z"/>
						<path fill="#202020" d="M112.6,121.2c-0.5,0-0.2,0.1-0.3,0.2c-0.6,0.1-0.3-0.1-0.5-0.1c-0.4,0-0.6,0.1-0.9,0.2c0,0-0.1,0,0,0
							c-0.4,0.1-1.1,0-1.6,0.2c0,0-0.1,0-0.1,0c0.1,0.1,0.1,0.1,0.1,0.1c-0.2,0-0.4,0.1-0.5,0c0.1,0,0.1,0,0.2-0.1l-0.2,0
							c-0.2-0.1,0.3,0,0.3-0.1c-0.4,0-1,0.1-1.3,0.1c-0.1-0.1,0.8-0.1,0.3-0.1l0.5,0c-0.4-0.1,0.3,0-0.1-0.2c-0.7,0-0.8,0.1-1.5,0.1
							c-0.2,0.1,0.1,0.1-0.1,0.1c-1,0.1-0.8-0.2-1.5-0.1c-0.2,0.1-0.3,0.2-0.8,0.2l0.2-0.1c-0.7,0-0.4,0.2-1.1,0.1
							c0.1,0,0.5-0.1,0.4-0.1c-0.5-0.1-0.3,0.1-0.7,0.1l-0.1-0.1c-0.7,0.1-1.5,0.1-2.3,0.2c0,0,0.2-0.1,0-0.1c-1,0.1-2.2,0.1-3.1,0
							l-0.4,0.1c-0.1,0-0.2,0-0.1-0.1c-0.4,0,0,0.1-0.2,0.1c-0.2,0-0.3,0-0.2-0.1c-0.7,0.1-1.9,0.2-2.6,0.2l0.1,0
							c-0.6,0-0.6,0.2-1.1,0.1l0.1,0c-1.2,0-2.5,0.1-3.4,0c-0.2,0.1-1.2,0-1.3,0.2c-0.7-0.1-0.5-0.1-1.5-0.1c-0.3,0-0.4,0.1-0.7,0.1
							l0-0.1l-0.4,0.1l-0.2-0.1l-0.3,0c0.1,0,0.3,0,0.2,0.1c-0.5,0.1-1.1,0-1.1-0.1l-1.1,0.1c0,0,0.2-0.1,0.4-0.1
							c-0.6,0.1-0.1-0.1-0.6,0c0.1,0,0,0.1,0,0.1c-0.3,0-0.9,0-1.3,0l0.1-0.1c-0.2,0-0.4,0-0.7,0l-0.1,0l0-0.1c0,0,0,0,0-0.1
							l0.1-0.3c-0.2,0.3-0.2,0.2-0.1-0.1l0.1-0.1c0-0.2-0.2,0.2-0.1-0.1c0.2-0.3,0.2-0.2,0.1,0l0.2-0.4c0,0,0,0.1,0,0.1
							c0-0.2,0.4-0.6,0.4-0.9l0,0c0.4-0.8,0.6-1.2,0.9-1.9c-0.1-0.1,0.1-0.3,0.1-0.5c0.3-0.5,0.6-1,0.9-1.6c0.2-0.4,0-0.2,0.1-0.4
							c0.1,0,0.4-0.6,0.3-0.3c0.4-0.7,0.5-0.9,0.9-1.8c-0.1,0.1-0.1,0.2-0.1,0.1c0.1-0.2,0.2-0.4,0.2-0.3l0,0c0.4-1,1.4-2.2,1.7-3.1
							l0,0l0.4-0.9c0.2-0.4-0.1,0.3,0.1,0c0.4-0.9,0.8-1.4,1.1-2.2c0.5-0.5,1-2,1.6-2.7l-0.1,0c0.1-0.2,0.2-0.2,0.2-0.4
							c0,0-0.2,0.2-0.1,0.1c0.8-1.7,1.9-3.4,2.8-5.1c0.3-0.6,0-0.5,0.5-1.2l0,0.3c0.6-1.3,1.4-2.6,1.9-3.9c0,0.1,0,0.1-0.1,0.2
							c0.2-0.2,0.5-1,0.5-1c0.1-0.2,0.1,0,0.2-0.1c0.2-0.2,0.3-0.7,0.4-0.8c0,0,0,0.1,0,0.1c0.1-0.2,0.4-0.8,0.3-0.7
							c0.3-0.4,0.4-0.9,0.7-1.3c0-0.3,0.5-0.8,0.4-0.9c0.1,0.1,0.5-0.8,0.6-1.1c0,0.1,0.2-0.2,0.2-0.1c0.2-0.3,0.3-0.7,0.2-0.6
							c0.5-0.5,0.5-1.3,0.9-1.6c0.2-0.4,0.3-0.7,0.5-1.1l0.1-0.3l0-0.1l0.1-0.2c0,0.1,0.1,0.1,0.1,0.2c0.1,0.1,0.1,0.2,0.2,0.2
							c0,0-0.1,0-0.1-0.1c0,0,0,0-0.1-0.1c0,0-0.1-0.1-0.1-0.1c0,0,0,0.1,0,0.1c0,0,0,0,0,0c0.1,0,0.1,0,0.3,0.4
							c0.2,0.3,0.4,0.6,0.6,1c0.1,0.2-0.1-0.1-0.2-0.1c0.6,0.8,1,1.6,1.5,2.3c0,0-0.1-0.1-0.1-0.1c0.1,0.1,0.2,0.3,0.2,0.3l-0.1-0.1
							c-0.1-0.3,0.5,0.5,0.6,0.5c-0.3-0.2,0.4,0.7,0,0.5c0.1,0.1,0.2,0.2,0.2,0.1c0.1,0.1,0.1,0.2,0,0.1c0.3,0.5,0.3,0.3,0.6,0.7
							c0,0-0.1-0.1-0.2-0.1c0.2,0.2,0.4,0.4,0.6,0.8c0,0,0,0-0.1-0.1c0.4,0.7,0.8,1.1,1.3,1.8c-0.2-0.2,0.1,0.3,0.1,0.4l0.3,0.4
							l-0.1-0.2c0.2,0.3,0.5,0.6,0.6,0.9l-0.2-0.2l0.4,0.6l-0.2-0.4c0.3,0.3,0.1-0.1,0.4,0.4c-0.1-0.1,0.2,0.3,0.3,0.6l0,0
							c0.1,0.2,0.3,0.3,0.4,0.6c0,0.1-0.1,0-0.1,0.1c0.2,0.1,0.5,0.8,0.7,1c-0.1-0.1-0.1,0-0.1,0l0.2,0.1c0.1,0.2,0.1,0.2,0,0.2
							c0.3,0.5,0-0.2,0.3,0.4c0,0,0,0-0.1-0.1c0.3,0.6,0.7,1.1,1,1.6c0,0.2-0.3-0.4-0.3-0.2c0.5,0.8,1.1,1.5,1.5,2.3l-0.1-0.1
							c0.2,0,0.3,0.6,0.6,0.9c-0.1-0.1-0.1-0.1-0.1-0.1c0.3,0.5,0.7,1,1.2,1.8l-0.1-0.1c0.2,0.3,0.5,0.8,0.7,1.1
							c0.1,0.1,0.2,0.3,0.2,0.1c0.4,1.1,1.3,1.8,1.7,2.8c-0.1-0.1-0.2-0.2-0.1-0.1l0.5,0.7c0-0.1,0-0.1-0.1-0.3
							c0.1,0.1,0.3,0.3,0.4,0.5c-0.2-0.3-0.1,0.1,0,0.2c0,0,0.1,0,0.1,0c0.1,0.5,0.2,0,0.4,0.6l0,0c0.1,0.2,0.3,0.4,0.4,0.6
							c0,0.1-0.2-0.2-0.2-0.2c0.2,0.3,0.5,0.5,0.6,0.8c-0.1-0.1-0.2-0.3-0.3-0.4c0.1,0.3,0.2,0.4,0.3,0.6l0,0l0.3,0.5l-0.1-0.1
							c0.4,0.3,0.5,0.8,0.9,1.2c-0.4-0.4-0.1,0-0.2,0c0.1,0.1,0.2,0.4,0.1,0.3c0.2,0.2,0.2,0.4,0.5,0.7c0,0,0.2,0.3,0.1,0.2
							c0.2,0.3,0-0.1,0-0.1c0.4,0.4,0.6,1.2,1.2,1.8c0.4,0.6,0.6,0.6,1,1.2c0.1,0.2-0.2-0.1-0.2-0.1c0.2,0.3,0.3,0.5,0.5,0.8
							c-0.1,0,0,0,0,0.1c0.2,0.2,0.2,0.1,0.3,0.4c-0.1,0-0.1-0.1-0.2-0.2c0.2,0.2,0.4,0.5,0.6,0.8c0,0.1-0.2-0.1-0.3-0.2
							c0.2,0.3,0.5,0.8,0.7,0.8l-0.1-0.2c0.1,0.1,0,0.1-0.1,0c-0.2-0.2-0.2-0.4-0.2-0.4l0.1,0.2c0-0.3-0.5-0.8-0.8-1.2l0.2,0.1
							l-0.3-0.4c0-0.1,0-0.2,0.1,0c-0.1-0.3-0.2-0.2-0.3-0.5c0,0,0,0,0,0l-0.2-0.3c0.1,0,0-0.1,0.1,0.1c-0.3-0.5-0.6-0.8-0.6-1l0,0
							c-0.5-0.7-0.1,0-0.5-0.5l0-0.5l-0.1,0c0-0.1-0.1-0.2-0.1-0.2c-0.2-0.2,0,0.1-0.1-0.1c-0.2-0.4-0.6-0.9-0.6-1.1
							c-0.1-0.1,0.2,0.4-0.1,0c0.1-0.2-0.3-0.4-0.4-0.8c0.1,0.1,0.3,0.4,0.1,0c-0.2-0.1-0.4-0.6-0.6-0.9c-0.1,0-0.4-0.6-0.7-1
							c0,0-0.5-0.9-0.7-1.3l0,0c-0.1,0-0.4-0.5-0.6-0.8c0.1,0,0.1,0,0.2,0.2l-0.2-0.3c-0.1-0.1-0.1-0.1-0.3-0.3l0.1,0
							c-0.3-0.4-0.6-0.7-0.8-1.3c-0.1,0,0.1,0.5-0.3,0c0,0,0.1-0.1,0.2,0c0,0-0.1-0.1-0.2-0.2l0.2,0.2c-0.1-0.2-0.1-0.1-0.2-0.3
							c0.1,0-0.1-0.2,0-0.2c0,0,0.1,0.2,0.1,0.2c-0.1-0.2-0.3-0.5-0.3-0.6c0,0-0.1,0-0.2-0.1c-0.2-0.4,0-0.2-0.1-0.4
							c-0.1-0.1-0.2-0.3-0.3-0.3c-0.1-0.1-0.1-0.2-0.1-0.2c-0.2-0.2-0.6-0.9-0.5-0.7l0,0.1l0,0l0,0l0,0c-0.5-0.6-0.8-1.4-1.3-2.1
							l0,0c-0.3-0.4-0.6-0.9-0.8-1.1c-0.1-0.1-0.1-0.3-0.1-0.3c-0.2-0.3-0.3-0.3-0.5-0.8c0.2,0.3,0-0.1,0.2,0.3
							c-0.2-0.4-0.2-0.5-0.6-0.9c0.2,0.1-0.1-0.3-0.2-0.5l0.1,0.3c-0.1-0.2-0.2-0.4-0.4-0.6l0.1,0.1c-0.4-0.9-1.1-1.3-1.3-2.1
							c-0.2-0.2,0.2,0.5,0,0.3c-0.2-0.4-0.3-0.8-0.4-0.9c-0.3-0.5-0.4-0.4-0.7-0.9c0,0.1,0,0.2-0.3-0.2c-0.2-0.4-0.2-0.5,0-0.3
							c0.1,0.1,0.1,0.1,0.1,0.1c0.1,0.1,0.2,0.3,0.1,0.1l-0.1,0c-0.1-0.2-0.4-0.7-0.3-0.6c-0.2-0.3-0.1-0.1,0,0.1
							c-0.3-0.5-0.5-0.7-0.7-1.2c0,0.1,0,0.2,0,0.1c-0.4-0.7-0.3-0.3-0.6-0.8c-0.1-0.3,0.2,0-0.2-0.4c-0.2-0.3,0-0.1,0.1,0
							c-0.3-0.4-0.5-0.9-0.6-1.1l0.2,0.2c-0.1-0.1-0.2-0.2-0.2-0.4l0,0.2c-0.1-0.1-0.1-0.3-0.1-0.3c-0.1-0.1,0,0.2-0.3-0.1
							c-0.1-0.2-0.4-0.5-0.3-0.6c0.3,0.6,0-0.1,0.4,0.4c-0.1-0.1-0.1-0.2-0.2-0.3c0,0,0,0,0.1,0c-0.3-0.6-0.2-0.2-0.6-0.8
							c0.1,0,0-0.2-0.1-0.3c0.1,0.2,0,0.2-0.2,0c-0.2-0.4-0.3-0.4-0.4-0.6l0.1,0.2c-0.1,0-0.2-0.2-0.4-0.5c0,0,0.2,0.2,0.1,0.1
							c-0.3-0.2-0.3-0.7-0.6-1.1c-0.1-0.2,0.1-0.1,0-0.2c-0.3-0.4-0.2-0.5-0.6-1c0,0.2,0.1,0.2-0.2-0.1l0.5,0.7l-0.4-0.4
							c0.1,0.2,0.3,0.5,0.4,0.6c-0.2-0.2-0.2-0.2-0.1,0c-0.1-0.4-0.4-0.6-0.6-1l0.2-0.1c-0.1-0.1-0.1-0.2-0.2-0.3
							c-0.1-0.1-0.1-0.2-0.2-0.3c-0.2-0.3-0.4-0.6-0.6-0.9c-0.1,0.3-0.3,0.6-0.5,0.9l0.2-0.3c0,0.2-0.4,0.7-0.4,0.9
							c0,0-0.1,0.1-0.2,0.2c0,0-0.3,0.5-0.2,0.7l-0.2,0.3c-0.3,0.6-0.2,0.8-0.5,1.3c0-0.2-0.1,0,0-0.4c-0.1,0.2-0.2,0.4-0.2,0.4
							c-0.1,0.1-0.2,0.6-0.4,0.7c0,0.1,0,0.1-0.1,0.4c0,0,0,0,0,0c0,0-0.1,0.4,0,0.2c-0.5,0.5-0.9,1.7-1.3,2.1
							c-0.2,0.4-0.5,0.9-0.7,1.3c0,0,0,0,0-0.1c-0.3,0.5,0,0.4-0.4,1c-0.2,0.3,0.1-0.3,0-0.2c-0.2,0-0.4,0.7-0.7,1.1l0-0.1
							c-0.2,0.3-0.3,0.8-0.6,1.3c0,0,0,0,0,0c-0.1,0.4-0.4,1.1-0.7,1.6c0-0.2,0.1-0.2,0-0.2c-0.1,0.2,0.1,0-0.1,0.4
							c-0.1,0.1-0.3,0.4-0.4,0.4l0.2-0.4c-0.2,0.2-0.3,0.5-0.4,0.7l0,0c-0.3,0.6-0.2,0.7-0.6,1.4l0.1-0.1c-0.1,0.4-0.2,0.3-0.3,0.7
							l-0.2,0.1c-0.1,0.3-0.4,0.9-0.6,1.3c0.1-0.3,0.3-0.8,0.4-1.2c-0.1,0.2-0.4,0.8-0.4,1c0-0.1,0.1-0.2,0.1-0.3
							c-0.1,0.3-0.2,0.7-0.5,1.2c-0.1-0.2-0.7,1.2-1,1.5c-0.4,0.9-0.9,1.7-1.4,2.7c0.3-0.3-0.1,0.3,0,0.3c-0.1,0.2-0.2,0.3-0.2,0.3
							l-0.5,0.7c-0.1,0.1,0.1-0.2,0-0.2c-0.3,0.5-0.2,0.2-0.4,0.5c0.1,0,0,0.2-0.2,0.5l0.3-0.4c-0.3,0.7-0.5,0.5-0.7,1.3l0.1-0.3
							c-0.2,0.4-0.7,1.3-0.8,1.8c-0.1,0.1-0.1,0.1-0.1,0c-0.5,0.9-0.9,2-1.3,2.6l0-0.1c-0.1,0.2-0.1,0.3-0.2,0.5c0,0,0-0.1,0,0
							c0,0.1-0.2,0.5-0.3,0.7l0.1-0.2c-0.5,0.8-0.6,1.4-0.9,2.1c-0.1-0.1-0.5,0.6-0.7,0.9l0,0c-0.5,1-0.8,1.7-1.2,2.7
							c-0.1,0.2-0.3,0.5-0.5,0.8c-0.3,0.5-0.6,1.1-0.9,1.6c0.3,0,0.7,0,1,0c0.2,0,0.3,0,0.5,0c0.1,0,0.2,0,0.3,0
							c-0.2,0,0-0.1,0.2-0.1c0.2,0,0.7-0.1,0.6,0l-0.1,0c0.2,0.1,0.7,0.1,1.1,0l0.1-0.2c1,0.2,2.7-0.2,3.2,0c0.2,0,0.5-0.1,0.8-0.1
							l0,0.1c0.7,0,1,0,1.9-0.1l-0.2,0.1c0.5,0,0.6-0.3,1-0.3l0.1,0.1c0.8,0,1.7,0,2.5-0.1c0,0,0,0.1-0.2,0.1c0.4,0,1.5,0,1.4-0.1
							c0,0.1,0.9,0,1.3-0.1l-0.1,0.1c0.4-0.1,0.4-0.1,0.9-0.2c0.1,0,0.1,0.1-0.1,0c0.4,0,0.3-0.1,0.8-0.1l-0.2,0.1
							c0.4,0,0.4,0,0.6-0.1c0.3,0,0.8,0,0.9,0.1c0.1,0,0.3-0.1,0.5-0.1c0,0-0.1,0-0.1,0.1c0.7,0,1.1-0.1,1.6-0.1c0,0,0,0,0.1,0
							c-0.6,0-1,0-1,0c0,0.1,0.5,0.1,0.1,0.2c0.4-0.1,1-0.2,1.4-0.2c0,0,0,0,0.1,0l0,0c0.1,0,0.2,0,0.3,0c0.1,0,0.2,0,0.4,0
							c0.1,0.1,0.5,0,0.8,0c0-0.1,0.3-0.1,0-0.1c0,0,0,0-0.2,0c0,0-0.1,0-0.1,0l0,0c-0.2,0-0.3,0-0.6,0c0.2,0,0.4-0.1,0.6-0.1
							c0.1-0.1,0.2-0.1,0.3-0.1c0.3,0.1,0.9,0.1,1,0.2c0.7-0.1,1.6-0.1,2.1-0.3c0.2,0,0.2,0,0.3,0.1c-0.1,0-0.3,0-0.3,0
							c0.4-0.1,1.2-0.1,1.3-0.2c0.5,0-0.3,0.1,0.4,0.1l-0.1,0c1.4,0.1,2.2-0.3,3.7-0.2c-0.1,0-0.2,0-0.2,0c1.7,0,3.5-0.2,5.2-0.1
							c0.5,0,0.5-0.1,0.8-0.1l0.1,0.1l0.5-0.1c0.7-0.1,1.2,0.2,2.1,0l-0.1-0.1c0.3,0,1-0.1,1,0c0,0,0.1-0.1,0.2,0l0,0l0.8-0.1
							c0.6,0-0.1,0.2,0.8,0.2c0.3,0,0.9-0.2,0.8-0.2c-0.1,0-0.3,0-0.4-0.1l0.3,0c0.1-0.1,0.3-0.3-0.5-0.3l-0.5,0.1l-0.2-0.1l0.4,0
							c-0.3-0.1-0.4,0-0.6,0.1c0,0-0.1-0.1-0.2-0.1l-0.5,0.1c-0.1,0,0.2-0.1-0.1-0.1c-0.2,0.1,0.2,0.1-0.2,0.2
							c-0.3-0.1-0.2-0.1-0.5,0c0,0,0-0.1,0.1-0.1c-0.3,0.1-0.7,0-0.8,0.1c-0.3-0.1-0.9,0.1-0.9-0.1c-0.1,0-0.5,0.1-0.7,0.1
							c0.4-0.2-0.9,0-0.8-0.1c-0.3,0.1-1.2,0.1-1.7,0.2c0,0,0.1,0,0.1,0c-0.3,0-0.4,0-0.6-0.1c0,0.1-0.5,0.2-0.8,0.2
							c-0.4-0.1,0.2-0.1,0.1-0.2c0,0.1-0.7,0.1-0.5,0.2c-0.3-0.1-0.3,0-0.4-0.1c0,0.1-0.3,0-0.5,0.1c-0.4-0.1-0.1-0.1-0.6-0.1
							C112.2,121.3,112.6,121.2,112.6,121.2z M101.1,121.9L101.1,121.9c0.1,0,0.2,0,0.2,0C101.3,121.9,101.2,121.9,101.1,121.9z
							 M100.2,121.9c0.1,0,0.3,0,0.4,0c0,0,0,0.1-0.1,0.1C100.5,121.9,100.3,121.9,100.2,121.9z M102.2,122.4c-0.2,0-0.2,0-0.2,0
							C102.1,122.4,102.2,122.4,102.2,122.4L102.2,122.4C102.3,122.4,102.3,122.4,102.2,122.4z"/>
						<path fill="#202020" d="M102.5,122.3C102.5,122.3,102.5,122.3,102.5,122.3C102.5,122.3,102.5,122.3,102.5,122.3L102.5,122.3
							L102.5,122.3z"/>
						<path fill="#202020" d="M113.2,105L113.2,105C113.2,105,113.2,105,113.2,105C113.2,105,113.2,105,113.2,105z"/>
						<polygon fill="#202020" points="86.8,122.2 86.8,122.3 86.9,122.2 						"/>
						<path fill="#202020" d="M115.8,109.6C115.8,109.6,115.8,109.7,115.8,109.6C115.8,109.7,115.8,109.7,115.8,109.6z"/>
						<path fill="#202020" d="M117,111.6l0.1,0.3C117.1,111.7,117.1,111.6,117,111.6z"/>
						<path fill="#202020" d="M117.9,113.1C118,113.1,118,113.1,117.9,113.1L117.9,113.1L117.9,113.1z"/>
						<path fill="#202020" d="M102.9,89.4L102.9,89.4C102.8,89.2,102.9,89.3,102.9,89.4z"/>
						<path fill="#202020" d="M107.5,96.3l-0.2-0.2C107.4,96.3,107.5,96.4,107.5,96.3z"/>
						<polygon fill="#202020" points="98.9,89.6 98.9,89.6 98.9,89.7 						"/>
						<path fill="#202020" d="M107.2,95.8c0.1,0.1,0.1,0.2,0.2,0.3C107.3,96,107.2,95.9,107.2,95.8z"/>
						<path fill="#202020" d="M122,119.6L122,119.6C122,119.7,122,119.7,122,119.6L122,119.6z"/>
						<path fill="#202020" d="M122,119.7L122,119.7C122.1,119.7,122,119.7,122,119.7z"/>
						<path fill="#202020" d="M122.2,119.9l-0.1-0.2C122.1,119.8,122.2,119.9,122.2,119.9z"/>
						<path fill="#202020" d="M120.7,117.6L120.7,117.6C120.7,117.6,120.7,117.6,120.7,117.6z"/>
						<path fill="#202020" d="M120.4,117c0.1,0.1,0.2,0.4,0.3,0.6l0,0C120.6,117.5,120.5,117.1,120.4,117z"/>
						<path fill="#202020" d="M119.1,114.3l0.3,0.5c0-0.1-0.1-0.2,0.1,0C119.2,114.1,119.5,115,119.1,114.3z"/>
						<path fill="#202020" d="M118.2,112.7C118.3,113,118.2,112.7,118.2,112.7C118.1,112.5,118.1,112.5,118.2,112.7z"/>
						<path fill="#202020" d="M111.1,101.4L111.1,101.4C111,101.2,111.1,101.4,111.1,101.4z"/>
						<polygon fill="#202020" points="109.4,99.4 109.5,99.7 109.6,99.7 						"/>
						<polygon fill="#202020" points="109,97.9 109.1,98 108.9,97.6 						"/>
						<path fill="#202020" d="M97.1,91.6l0.1,0C97.2,91.4,97.2,91.3,97.1,91.6z"/>
						<path fill="#202020" d="M92.6,100.2c-0.1,0.1-0.2,0.3-0.3,0.5C92.4,100.4,92.6,100.3,92.6,100.2z"/>
						<polygon fill="#202020" points="84.3,123.1 84.1,123.1 84.5,123.1 						"/>
					</g>
				</g>
			</g>
		</g>
	</g>
	<path d="M39,36.8c-1,0-1,2,0,2C41,38.8,41,36.8,39,36.8z"/>
	<path d="M31,33.3c-1,0-1,2,0,2C33,35.3,33,33.3,31,33.3z"/>
	<path d="M46,32c-1,0-1,2,0,2C48,34,48,32,46,32z"/>
	<path d="M46,43c-1,0-1,2,0,2C48,45,48,43,46,43z"/>
	<path d="M55,37c-1,0-1,2,0,2C57,39,57,37,55,37z"/>
	<path d="M81,62.8c-2,0-2,2,0,2C82,64.8,82,62.8,81,62.8z"/>
	<path d="M83,51.5c-1,0-1,2,0,2C85,53.5,85,51.5,83,51.5z"/>
	<path d="M72,60.5c-1,0-1,2,0,2C74,62.5,74,60.5,72,60.5z"/>
	<path d="M75,52c-1,0-1,2,0,2C77,54,77,52,75,52z"/>
	<path d="M97,109.3c-2,0-2,2,0,2C98,111.3,98,109.3,97,109.3z"/>
	<path d="M99,98.8c-1,0-1,2,0,2C101,100.8,101,98.8,99,98.8z"/>
	<path d="M110,110.3c-1,0-1,2,0,2C112,112.3,112,110.3,110,110.3z"/>
	<path d="M100,117.5c-1,0-1,2,0,2C102,119.5,102,117.5,100,117.5z"/>
	<path d="M106,105c-1,0-1,2,0,2C108,107,108,105,106,105z"/>
</g>
</svg>
