<?xml version="1.0" encoding="utf-8"?>
<!-- Generator: Adobe Illustrator 18.0.0, SVG Export Plug-In . SVG Version: 6.00 Build 0)  -->
<!DOCTYPE svg PUBLIC "-//W3C//DTD SVG 1.1//EN" "http://www.w3.org/Graphics/SVG/1.1/DTD/svg11.dtd">
<svg version="1.1" id="Layer_1" xmlns="http://www.w3.org/2000/svg" xmlns:xlink="http://www.w3.org/1999/xlink" x="0px" y="0px"
	 viewBox="0 0 144 144" enable-background="new 0 0 144 144" xml:space="preserve">
<g>
	<g>
		<g>
			<g>
				<g>
					<g>
						<path fill="#202020" d="M67.4,62.8c-0.1,0.2,0.1,0.2,0.4-0.2l0.1-0.4L67.4,62.8z"/>
						<path fill="#202020" d="M69.8,60.8c0.4-0.4,0.7-1,0.3-0.9c-0.3,0.5-0.5,0.5-0.7,1.1c-0.3,0.4-0.6,0.6-0.6,0.4
							c-0.1,0.2-0.5,0.5-0.6,0.8c0.5-0.3,1-0.9,1.5-1.5C69.9,60.6,69.8,60.7,69.8,60.8z"/>
						<path fill="#202020" d="M111.1,63l-0.2-0.2C110.9,62.9,111,63,111.1,63z"/>
						<path fill="#202020" d="M123.4,87.6c0-0.2-0.1-0.3-0.1-0.3C123.4,87.5,123.4,87.6,123.4,87.6z"/>
						<path fill="#202020" d="M123.8,92.3c0-0.1,0-0.2,0-0.3C123.8,92.2,123.8,92.3,123.8,92.3z"/>
						<path fill="#202020" d="M111.1,63c0,0,0.5,0.6,0.5,0.6C111.6,63.6,111.3,63.3,111.1,63z"/>
						<path fill="#202020" d="M74.7,56.8c-0.1,0.1-0.2,0.2-0.3,0.2L74.7,56.8C74.7,56.8,74.7,56.8,74.7,56.8z"/>
						<path fill="#202020" d="M100.7,56.6l-0.2-0.1c-0.1,0-0.1,0-0.2,0L100.7,56.6z"/>
						<path fill="#202020" d="M91.6,54.4c0.2,0,0.3-0.1,0.4-0.2c-0.1,0-0.3,0.1-0.5,0.1C91.5,54.4,91.5,54.4,91.6,54.4z"/>
						<path fill="#202020" d="M76.9,56.4l-0.2,0.1C76.8,56.5,76.9,56.5,76.9,56.4z"/>
						<path fill="#202020" d="M106.6,59.7C106.6,59.7,106.7,59.8,106.6,59.7C106.7,59.8,106.7,59.7,106.6,59.7z"/>
						<path fill="#202020" d="M67.2,52.8C67.2,52.8,67.2,52.9,67.2,52.8C67.2,52.9,67.3,52.9,67.2,52.8z"/>
						<path fill="#202020" d="M73.7,61.9l-0.1-0.1c0,0-0.1,0-0.1,0L73.7,61.9z"/>
						<path fill="#202020" d="M123.6,101C123.6,101,123.6,101,123.6,101C123.6,100.7,123.6,100.9,123.6,101z"/>
						<path fill="#202020" d="M58.4,124.5c0.9,0.3-1.5-0.1-0.2,0.3C58.1,124.8,59.5,124.8,58.4,124.5z"/>
						<path fill="#202020" d="M75,56.7l0.3-0.2C75.1,56.6,75,56.6,75,56.7z"/>
						<path fill="#202020" d="M58.2,124.8L58.2,124.8l0.1,0C58.3,124.9,58.3,124.9,58.2,124.8z"/>
						<path fill="#202020" d="M116.1,118.7c0,0,0.1,0,0.2-0.1C116.3,118.6,116.3,118.6,116.1,118.7z"/>
						<path fill="#202020" d="M123.2,106.1l-0.1,0.4C123.2,106.3,123.2,106.2,123.2,106.1z"/>
						<path fill="#202020" d="M109.9,123.2c-0.2,0.1-0.3,0.1-0.5,0.2c0,0,0.1,0,0.1,0C109.6,123.3,109.7,123.3,109.9,123.2z"/>
						<path fill="#202020" d="M102.4,125.9c0,0,0.1,0,0.2,0c0.1,0,0.2-0.1,0.2-0.1L102.4,125.9z"/>
						<path fill="#202020" d="M43.7,45.3c0.2,0,0.3,0.1,0.4,0.1C43.9,45.3,45.1,45.2,43.7,45.3z"/>
						<path fill="#202020" d="M74.8,56.9c0-0.1,0.1-0.1,0.2-0.2C74.9,56.7,74.8,56.8,74.8,56.9C74.7,56.8,74.7,56.9,74.8,56.9z"/>
						<path fill="#202020" d="M110.2,124.5L109,125C109.3,124.9,109.7,124.7,110.2,124.5z"/>
						<path fill="#202020" d="M19.9,92l-0.1-0.3C19.8,91.8,19.9,91.9,19.9,92z"/>
						<path fill="#202020" d="M105.3,126.4c-0.2,0-0.5,0.1-0.7,0.1c0,0-0.1,0.1-0.1,0.1L105.3,126.4z"/>
						<path fill="#202020" d="M44.1,45.4L44.1,45.4L44.1,45.4z"/>
						<path fill="#202020" d="M52.8,45.7c-1.2-0.2-0.6,0.1-0.9,0.2c-1.5-0.2-0.7-0.3-1.1-0.5c-0.9,0-1.7,0.1-2.4,0
							c0,0-0.2-0.1,0-0.1c-1,0.1-3-0.1-4.1,0.2c-0.1,0-0.1,0-0.2,0c0.2,0.1,0.2,0.2,0.2,0.3c-0.6,0-1,0.2-1.2,0.1
							c0.3,0,0.4-0.1,0.5-0.1l-0.6,0.1c-0.5-0.2,0.8-0.1,0.8-0.3c-1.2,0.1-2.4,0.5-3.3,0.6c-0.2-0.2,2-0.4,0.8-0.4l1.4-0.1
							c-1.1-0.2,0.8-0.1-0.2-0.3c-1.8,0.2-2,0.3-3.8,0.7c-0.4,0.2,0.2,0.1-0.2,0.3c-1.2,0.4-1.7,0.5-2.2,0.5c-0.4,0-0.8,0-1.6,0.5
							c-0.4,0.3-0.5,0.6-1.7,1.1l0.3-0.4c-1.6,0.8-0.8,0.7-2.4,1.6c0.2-0.3,1.1-0.8,0.9-0.7c-1.1,0.5-0.7,0.5-1.4,1.1l-0.3,0
							c-1.5,1.2-2.9,2.7-4.1,4.4c0-0.1,0.2-0.4-0.2-0.1c-1.5,2.2-2.9,4.8-3.8,7.1c0,0,0,0.2-0.1,0.5c0,0.2-0.1,0.5-0.1,0.5
							c-0.1,0.2-0.2,0.4-0.2,0.1c-0.4,0.9,0.1,0.1,0,0.5c-0.2,0.5-0.3,0.7-0.3,0.3c-0.4,1.7-1,4.8-1.4,6.5l0-0.4
							c-0.3,1.4,0.1,1.6-0.3,2.9l0-0.2c-0.5,3-0.6,6.3-0.8,8.6c0.1,0.2,0.1,1,0.1,1.7c0,0.7,0,1.4,0.2,1.5c-0.1,1.7-0.2,1.2-0.1,3.7
							c0.1,0.7,0.3,0.9,0.4,1.7l-0.2,0l0.3,1.1l-0.1,0.6c0,0,0,0.2,0.1,0.4c0,0.2,0.1,0.4,0.1,0.4c0-0.3,0-0.6,0-0.6
							c0.3,1.1,0.4,2.9,0.3,2.9c0,0,0.2,0.7,0.4,1.4c0.2,0.7,0.4,1.3,0.4,1.3c-0.1,0-0.2-0.5-0.4-0.8c0.5,1.4-0.1,0.3,0.4,1.6
							c0-0.2,0.1,0.1,0.2,0.1c0.1,0.7,0.5,2.2,0.9,3.3l-0.2-0.2c0.6,2,1.5,4.1,2.5,6.2c-0.3-0.8,0-0.7,0.3-0.1l0,0.3
							c0.3,0.3-0.3-0.7,0.3,0.1c0.4,0.8,0.1,0.6-0.2,0.2l0.6,0.9c0,0.1-0.2-0.1-0.3-0.1c0.3,0.3,0.8,1.7,1.3,2.1l0,0.1
							c0.7,1,1.2,1.7,1.8,2.3c0.6,0.6,1.1,1.1,1.8,1.8c0.1-0.1,0.7,0.4,1.2,0.7c1.1,0.9,2.3,1.9,3.8,2.7c1.1,0.5,0.4,0.1,0.9,0.2
							c0,0.2,1.5,0.9,0.7,0.6c1.8,0.9,2.3,1.1,4.7,2c-0.2-0.2-0.5-0.3-0.3-0.3c0.4,0.2,0.9,0.5,0.9,0.5l-0.1,0c2.7,0.9,6,2.7,8.3,3
							l-0.1,0c0,0,0.6,0.1,1.2,0.2c0.6,0.1,1.2,0.2,1.2,0.2c1,0.3-0.7-0.1,0.1,0.2c2.5,0.4,3.9,1,6,1.2c1.5,0.8,5.6,1,7.8,1.5
							l-0.1-0.1c0.6,0,0.7,0.2,1.1,0.2c0-0.1-0.6-0.2-0.2-0.2c4.7,0.5,9.8,1.2,14.6,1.5c1.8,0.1,1-0.5,3.3-0.2l-0.6,0.2
							c3.6-0.1,7.4,0.1,10.9-0.4c-0.2,0.1-0.2,0.1-0.6,0.2c0.8,0.1,2.8-0.3,2.8-0.4c0.6-0.1,0.1,0.1,0.5,0.1c0.8,0,1.8-0.5,2.3-0.4
							c0.1,0-0.2,0.1-0.3,0.1c0.5-0.1,2.3-0.4,1.8-0.5c1.3-0.2,2.5-0.7,3.5-0.9c0.6-0.4,2.2-0.6,2.3-1c0,0.1,0.6,0,1.2-0.3
							c0.7-0.3,1.4-0.7,1.7-0.9c-0.2,0.2,0.7-0.2,0.5,0c0.9-0.5,1.6-0.9,1.4-1c1.7-0.6,2.9-2.1,3.9-2.4c2.2-1.9,3.9-4,5.2-6.3
							c0.1,0.1-0.3,0.7-0.7,1.3c-0.4,0.6-0.8,1.1-0.7,1.1c1.4-2.1,1.9-3.4,3-5.6c0.3-0.6,0,0.4-0.1,0.6c0.9-2.3,1.6-4.5,1.9-6.7
							c0,0,0,0.2,0,0.5c0.1-0.4,0.2-1,0.1-0.9l0,0.4c-0.3,0.6-0.1-1.7-0.2-1.8c0.2,0.8,0.4-2.1,0.6-0.9c0-0.3,0-0.6-0.1-0.6
							c0.1-0.4,0.1-0.5,0.2-0.1c0.1-1.5-0.1-1,0-2.4c0.1,0,0.1,0.3,0.1,0.4c-0.1-0.7-0.1-1.4-0.1-2.6c0,0.1,0.1-0.1,0.1,0.3
							c0-1-0.1-1.9-0.2-2.7c-0.1-0.9-0.2-1.8-0.2-2.9c0.3,0.6,0-0.8,0.2-0.9l-0.2-1.2l-0.1,0.5c-0.1-1-0.4-1.9-0.5-2.8l0.2,0.7
							l-0.4-1.9l0.1,1.1c-0.3-1-0.2,0.2-0.4-1.2c0.1,0.3-0.2-1-0.2-1.6l0,0c-0.2-0.5-0.3-1-0.5-1.7c0-0.2,0.3,0.1,0.3,0
							c-0.3-0.4-0.7-2.3-1.1-2.9c0.1,0.2,0.2,0.2,0.2,0.1l-0.3-0.4c-0.1-0.5-0.1-0.5,0-0.5c-0.4-1.4-0.1,0.5-0.6-1.1
							c0.1,0.1,0.1,0.1,0.2,0.3c-0.3-0.8-0.6-1.6-0.9-2.3c-0.3-0.7-0.7-1.4-1-2.2c0-0.5,0.6,1.2,0.6,0.7c-1-2.1-2.4-4.1-3.6-5.9
							l0.2,0.4c-0.4-0.1-0.8-1.4-1.6-2.3c0.2,0.2,0.3,0.2,0.3,0.1c-0.9-1.2-2-2.4-3.7-4l0.3,0.1c-0.5-0.7-1.7-1.6-2.4-2.3
							c-0.3-0.1-0.7-0.5-0.5-0.2c-0.5-0.5-1.1-1-1.6-1.4c-0.6-0.4-1.2-0.8-1.8-1.1c-0.3-0.2-0.6-0.3-0.9-0.5
							c-0.3-0.1-0.6-0.3-0.9-0.4c-0.6-0.3-1.2-0.6-1.7-1c0.3,0.1,0.7,0.3,0.5,0.2c0,0-0.1-0.1-0.3-0.1c-0.2-0.1-0.5-0.2-0.7-0.3
							c-0.5-0.2-1.1-0.4-1.1-0.4c0.1,0.2,0.2,0.2,0.6,0.5c-0.3,0-0.9-0.2-1.4-0.4c1,0.3,0.1-0.2-0.3-0.4c0.1,0.1-0.1,0.1-0.1,0.1
							c-1-0.6-0.3,0.2-1.7-0.4l0.1,0c-0.6-0.2-1.1-0.2-1.8-0.3c-0.2-0.2,0.6,0.1,0.7,0c-0.9-0.2-1.8-0.1-2.6-0.4
							c0.4,0,0.9,0.1,1.3,0.2c-0.8-0.4-0.9-0.4-1.6-0.5l0.1,0l-1.5-0.3l0.4,0.1c-1.2,0.2-2.3-0.1-3.8,0c1.5-0.2,0.2-0.1,0.4-0.3
							c-0.4-0.1-1-0.1-0.8-0.2c-0.7,0.2-1.2-0.1-2.2,0.2c-0.1-0.1-0.8,0.1-0.6-0.1c-0.9,0.2,0.2,0.1,0.2,0.2
							c-0.7,0.2-1.6,0.2-2.5,0.3c-0.9,0.2-1.9,0.3-2.9,0.7c-1.7,0.6-2,0.9-3.4,1.6c-0.6,0.1,0.3-0.4,0.3-0.4c-0.9,0.3-1.5,0.5-2.2,1
							c0.1-0.1,0-0.1-0.3,0c-0.6,0.3-0.3,0.4-1.1,0.8c0.1-0.1,0.2-0.3,0.5-0.5c-0.7,0.4-1.3,1-2,1.5c-0.2,0,0.3-0.4,0.5-0.6
							c-0.8,0.6-2,1.5-2.1,1.8l0.5-0.3c-0.3,0.2-0.2,0,0-0.2c0.6-0.6,1-0.6,1.1-0.6l-0.5,0.4c0.7-0.1,1.9-1.4,3-1.9l-0.3,0.4l1-0.8
							c0.3-0.1,0.5,0,0,0.3c0.8-0.3,0.6-0.4,1.4-0.6c0.1,0,0.1,0,0,0l0.7-0.4c-0.1,0.1,0.2,0.1-0.3,0.3c1.4-0.5,2.2-1,2.8-1
							l-0.1,0.1c2-0.7,0.1-0.3,1.6-0.8l1.1,0.2l0.2-0.2c0.2,0,0.6-0.1,0.6,0c0.8-0.3-0.1,0,0.3-0.3c1,0.1,2.8-0.4,3.1-0.1
							c0.4-0.1-1-0.1,0.1-0.2c0.3,0.3,1.3-0.1,2.2,0c-0.3,0.2-1.2,0.1-0.2,0.2c0.6-0.3,1.8,0.1,2.6,0.1c0.1-0.3,1.7,0.1,3,0.2
							c0,0,0.6,0.2,1.3,0.4c0.8,0.2,1.7,0.4,2.2,0.7l0,0c0.3-0.1,1.5,0.2,2.4,0.6c-0.1,0.1-0.2,0.1-0.7,0c0,0,0.8,0.3,0.8,0.3
							c0.2,0,0.5,0.1,1,0.3l-0.3,0.1c1.1,0.4,2.2,0.8,3.5,1.6c0.1-0.1-0.8-0.9,0.6-0.2c0,0.1,0,0.2-0.4,0.1c0.1,0.1,0.4,0.2,0.7,0.4
							l-0.6-0.2c0.5,0.4,0.4,0.1,0.8,0.4c-0.1,0.1,0.3,0.3,0.2,0.3c-0.1-0.1-0.4-0.3-0.6-0.4c0.5,0.3,1.1,0.8,1.2,1
							c0-0.1,0.1-0.1,0.5,0.1c0.9,0.7,0.2,0.4,0.7,0.8c0.3,0.1,0.8,0.6,0.9,0.5c0.3,0.2,0.3,0.3,0.3,0.4c0.5,0.3,2.1,1.8,1.7,1.3
							l-0.1-0.1c0,0,0,0,0.1,0.1l0,0l0,0c0.8,0.6,1.5,1.4,2.1,2.1c0.7,0.8,1.2,1.6,1.9,2.3l0,0c0.7,0.9,1.6,2,2.1,2.7
							c0.2,0.3,0.3,0.7,0.2,0.7c0.5,0.7,0.6,0.8,1.2,2c-0.5-0.7,0.1,0.3-0.5-0.8c0.5,1,0.6,1.3,1.3,2.3c-0.3-0.3,0.2,0.9,0.5,1.3
							l-0.2-0.8c0.3,0.5,0.5,1,0.7,1.5l-0.3-0.2c0.4,1.1,0.8,2.1,1.3,3c0.4,0.9,0.7,1.8,0.8,2.7c0.3,0.6-0.3-1.2,0-0.8
							c0.3,1,0.3,2.2,0.4,2.5c0.3,1.4,0.6,1.3,0.9,2.8c0-0.2,0.2-0.4,0.5,0.7c0.2,1.1-0.1,1.4-0.2,0.7c0-0.3,0-0.4,0-0.4
							c-0.1-0.3-0.2-0.8-0.2-0.4l0.1,0.1c0,0.5,0.3,2,0.1,1.7c0.2,0.8,0.2,0.3,0.1-0.3c0.1,1.4,0.3,2.2,0.4,3.6
							c0-0.2,0.1-0.4,0.1-0.2c0.1,2.1,0.2,0.9,0.3,2.3c-0.1,0.8-0.3-0.3-0.1,1.2c-0.1,0.9-0.2,0.2-0.2-0.2c0.1,1.3,0,2.4-0.1,3.2
							l0-0.7c0,0.4,0,0.7,0,1.1l0.1-0.4c0,0.4,0,0.7-0.1,0.7c0.1,0.4,0.2-0.3,0.3,0.5c-0.1,0.5,0,1.6-0.2,1.8
							c0.2-1.7-0.2,0.2-0.1-1.3c0,0.3,0,0.6-0.1,1c0,0.1,0-0.1,0-0.2c-0.3,1.6,0.2,0.8-0.1,2.4c-0.1-0.2-0.2,0.4-0.3,0.6
							c0.1-0.7,0.2-0.3,0.2,0.3c-0.3,1-0.2,1.2-0.3,1.7l0.2-0.6c0,0.2-0.1,0.8-0.2,1.5c-0.1,0,0.1-0.7,0-0.4c0,0.9-0.6,1.8-0.9,2.9
							c-0.2,0.5-0.2,0-0.4,0.4c-0.3,1.2-0.6,1.2-1.1,2.5c0.3-0.3,0.3-0.4,0,0.5c0,0,0.2-0.5,0.4-1c0.2-0.5,0.4-1,0.4-1
							s-0.1,0.4-0.2,0.7c-0.1,0.3-0.2,0.7-0.2,0.7c0.3-0.6,0.5-1.3,0.7-1.7c-0.1,0.7-0.2,0.6,0.1,0.3c-0.5,0.8-0.6,1.7-1.2,2.6
							l-0.3-0.2c-0.9,1.3-1.3,2.5-2.7,4l0.5-0.5c-0.1,0.3-0.8,1-1.3,1.5c0-0.1-0.4,0.1-0.6,0.3c0.1,0-1.1,1-1.1,1.3
							c0,0-0.2,0.1-0.4,0.2c-0.2,0.1-0.4,0.2-0.4,0.2c-1.4,0.9-1.4,1.4-2.8,2.2c0.4-0.4-0.3,0,0.6-0.7c-0.5,0.3-0.9,0.5-0.9,0.6
							c-0.3,0.1-1.3,0.8-1.8,1c-0.2,0.1-0.2,0.3-0.8,0.5c-0.1,0,0-0.1,0-0.1c0,0.1-0.8,0.5-0.3,0.4c-1.7,0.4-4.4,1.7-5.9,1.7
							c-1.1,0.3-2.5,0.7-3.6,0.8c0.1,0,0-0.1,0.2-0.1c-1.5,0.1-0.9,0.5-2.6,0.6c-0.9-0.1,0.9-0.2,0.3-0.2c-0.3-0.3-2,0.3-3.2,0.2
							l0.3,0c-0.9-0.1-2.1,0.3-3.5,0.3c0,0,0.1,0,0-0.1c-1,0.2-2.8,0.3-4.2,0.3c0.4-0.1,0.6-0.1,0.4-0.2c-0.6,0,0.2,0.2-1.1,0.3
							c-0.4-0.1-1.3-0.2-1.4-0.3l1.2,0c-0.6-0.2-1.5,0-2.1-0.1l0.1-0.1c-1.8,0-1.8,0.2-3.7,0.1l0.2,0.1c-1.1,0.2-0.9-0.2-1.9-0.1
							l-0.3-0.2c-0.7,0-2.4,0-3.7,0c0.7-0.1,2.2-0.1,3.1-0.1c-0.7,0-2.3-0.2-2.7-0.1c0.3,0,0.6,0,0.9,0c-0.9,0.1-2,0.1-3.3,0
							c0.3-0.4-3.5-0.5-4.5-0.9c-2.4-0.1-4.7-0.7-7.5-1.2c0.9,0.5-0.8-0.1-0.7,0.2c-0.6-0.1-0.9-0.2-0.9-0.2c0,0-0.5-0.1-1-0.3
							c-0.5-0.1-0.9-0.3-0.9-0.3c-0.4-0.2,0.6,0.1,0.6,0c-1.4-0.3-0.6-0.3-1.5-0.6c0.2,0.2-0.5,0.1-1.3-0.2l1.1,0.4
							c-2-0.3-1.6-0.7-3.6-1l0.6,0.1c-1-0.2-3.6-1-4.7-1.1c-0.2-0.1-0.4-0.3,0.1-0.1c-2.3-0.8-5.3-1.5-7-2.5l0.2,0
							c-0.4-0.2-0.8-0.2-1.3-0.5c0,0,0.2,0,0-0.1c-0.2-0.1-1.2-0.4-1.7-0.7l0.5,0.1c-2.1-1.1-3.4-1.5-5.1-2.5c0.1-0.2-1.3-1.3-2-2
							l0,0c-2-1.8-3.4-3.1-4.8-5.2c-0.3-0.7-0.9-1.9-1.5-3.3c-0.6-1.3-1.1-2.8-1.5-4.1c0.1,0.4-0.2,0-0.4-0.4
							c-0.2-0.6-0.7-1.5-0.4-1.5l0.1,0.2c0.1-0.5-0.3-1.7-0.5-2.6L22,96.6c-0.1-0.6-0.2-1.4-0.3-2.1c-0.2-0.7-0.3-1.5-0.5-2.3
							c-0.3-1.5-0.5-2.8-0.4-3.6c-0.1-0.6-0.2-1.4-0.4-2l0.2,0c-0.1-1.7-0.1-2.5-0.2-4.6l0.1,0.4c0-1.2-0.5-1.5-0.5-2.6l0.3-0.3
							c0.1-2.1,0.4-4.1,0.5-6.2c0,0,0.1,0.1,0.1,0.4c0.1-1,0.7-3.7,0.3-3.4c0.2,0,0.4-2.1,0.6-3.2l0.1,0.2c0-1,0-1,0.2-2.3
							c0.1-0.3,0.2-0.2,0,0.2c0.4-1,0.1-0.8,0.5-2l0,0.5c0.3-1,0.3-0.9,0.3-1.5c0.2-0.7,0.7-1.9,0.9-2c0-0.2,0.1-0.7,0.4-1.3
							c0.1-0.1,0,0.2,0,0.3c0.8-1.6,1-2.4,1.8-3.4c0.1,0,0.1,0,0.2-0.1c-0.8,1.2-1.3,2.2-1.3,2.1c0.1,0.1,0.7-0.9,0.4,0
							c0.3-0.8,0.9-2.3,1.7-3.1c0,0,0.1-0.1,0.1-0.1l-0.1,0.1c0.2-0.2,0.3-0.4,0.4-0.6c0.2-0.3,0.4-0.4,0.6-0.7
							c0.2,0,0.9-0.9,1.3-1.3c-0.1-0.1,0.4-0.6-0.2-0.2c0.1-0.1-0.1,0.1-0.3,0.4c-0.1,0.1-0.1,0.1-0.2,0.2l0,0c-0.3,0.3-0.6,0.6-1,1
							c0.2-0.4,0.5-0.8,1-1.2c0.1-0.3,0.3-0.6,0.4-0.7c0.7-0.4,2-1.1,2.2-1.1c1.4-1.1,3.5-2,4.4-2.6c0.5-0.2,0.6-0.1,0.8-0.1
							c-0.3,0.1-0.6,0.2-0.7,0.3c0.4-0.2,1.1-0.5,1.7-0.7c0.6-0.2,1.1-0.3,1.2-0.5c1.2-0.2-0.6,0.4,1-0.1L39.8,47
							c1.7-0.2,3-0.5,4.4-0.7c0.4,0,0.7-0.1,1.1-0.2c0.4,0,0.7,0,1.1,0c0.8,0,1.6,0,2.5,0.3c-0.3-0.1-0.4-0.1-0.4-0.1
							c4.2,0.6,8.8,1.5,12.4,3.8c1,0.6,1.2,0.6,1.9,0.8l0.1,0.3l1.1,0.5c0.4,0.2,0.7,0.4,1,0.7c0.3,0.3,0.6,0.6,0.9,0.9
							c0.3,0.3,0.6,0.6,1,0.9c0.3,0.3,0.7,0.7,1.2,1l-0.1-0.3c0.3,0.3,0.8,0.7,1.1,1.1c0.4,0.4,0.6,0.7,0.5,0.7
							c0.1,0,0.3,0.1,0.4,0.4L70,57.1c0,0,0.4,0.3,0.7,0.7c0.3,0.4,0.7,0.7,0.7,0.7c0.8,1.3-0.4,0,0.8,1.8c0.5,0.7,1.5,1.9,1.4,1.6
							c-0.2-0.3-0.4-0.8-0.3-0.8l0.4,0.6c0.3,0,0.9,0.4,0-1.4l-0.8-1.1l-0.2-0.4c0,0,0.2,0.2,0.3,0.5c0.1,0.2,0.3,0.5,0.3,0.5
							c-0.2-0.6-0.6-0.9-0.9-1.2c0-0.1-0.1-0.3-0.2-0.5l-1-0.9c0-0.2,0.5,0.3,0-0.4c-0.5-0.4,0.2,0.6-0.5-0.1
							c-0.3-0.6-0.1-0.5-0.7-1c0-0.1,0.1,0,0.3,0.2c-0.3-0.2-0.6-0.6-0.8-0.8c-0.3-0.3-0.6-0.5-0.8-0.6c-0.2-0.3-0.6-0.7-1-1
							c-0.3-0.3-0.7-0.6-0.5-0.6c-0.2-0.1-1.1-0.6-1.5-0.9c0.5,0.2,0.1-0.2-0.5-0.5c-0.6-0.4-1.2-0.8-1-0.9
							c-0.4-0.1-1.1-0.5-1.8-0.9c-0.7-0.4-1.5-0.9-2.2-1.1c0.1,0,0.3,0,0.4,0.1c-0.7-0.4-0.9-0.5-1.4-0.8c-0.1,0.1-0.4,0-0.9-0.1
							c-0.4-0.1-0.9-0.2-1.2-0.3c-0.9-0.6,0.7,0,0.4-0.3c0,0.2-1.7-0.4-1.4-0.2c-0.7-0.4-0.6-0.2-1-0.5c-0.2,0.2-0.7-0.1-1.4-0.2
							c-1.1-0.4-0.2-0.3-1.5-0.5C51.7,45.6,52.8,45.7,52.8,45.7z M26.1,54.3L26.1,54.3c0.1-0.2,0.3-0.4,0.4-0.5
							C26.4,53.9,26.3,54.1,26.1,54.3z M24.8,56.4c0.2-0.3,0.3-0.6,0.6-0.9c0.1,0,0.1,0.1,0,0.3C25.3,55.6,25,56.1,24.8,56.4z
							 M28.7,53c-0.2,0.3-0.3,0.4-0.4,0.4c0.1-0.1,0.2-0.3,0.4-0.5c0,0,0,0,0,0C28.7,52.9,28.7,52.9,28.7,53z"/>
						<path fill="#202020" d="M29,52.4c0,0,0.1-0.1,0.1-0.1C29.1,52.3,29,52.3,29,52.4c-0.1,0.1-0.1,0.1-0.1,0.1
							C28.9,52.4,29,52.4,29,52.4z"/>
						<path fill="#202020" d="M110.8,62.8L110.8,62.8C110.8,62.8,110.8,62.8,110.8,62.8C110.8,62.8,110.8,62.8,110.8,62.8z"/>
						<polygon fill="#202020" points="19.4,89.3 19.5,89.3 19.4,89.1 						"/>
						<path fill="#202020" d="M99.8,55.4c0,0-0.1-0.1-0.2-0.1C99.6,55.3,99.7,55.4,99.8,55.4z"/>
						<path fill="#202020" d="M94.1,54l-0.8-0.2C93.7,53.9,93.9,53.9,94.1,54z"/>
						<path fill="#202020" d="M89.7,53.5C89.6,53.5,89.6,53.5,89.7,53.5L89.7,53.5L89.7,53.5z"/>
						<path fill="#202020" d="M124.3,106c0,0.1,0,0.1,0,0.2C124.3,106.6,124.3,106.3,124.3,106z"/>
						<path fill="#202020" d="M123.5,85c0.1,0.2,0.2,0.4,0.2,0.6C123.7,85.3,123.6,85,123.5,85z"/>
						<path fill="#202020" d="M110.3,124.4L110.3,124.4c0,0-0.1,0-0.1,0.1L110.3,124.4z"/>
						<path fill="#202020" d="M123.9,86.6c0-0.4-0.1-0.7-0.2-1C123.8,86,123.8,86.3,123.9,86.6z"/>
						<path fill="#202020" d="M71.3,58.9c0,0-0.2,0.1-0.2,0.1c0,0,0,0,0,0C71.1,59.1,71.3,58.9,71.3,58.9z"/>
						<path fill="#202020" d="M71.1,59.1L71,59.2C71,59.2,71.1,59.1,71.1,59.1z"/>
						<path fill="#202020" d="M70.6,59.6l0.4-0.4C70.8,59.4,70.7,59.5,70.6,59.6z"/>
						<path fill="#202020" d="M76.5,56L76.5,56C76.5,55.9,76.5,55.9,76.5,56z"/>
						<path fill="#202020" d="M78.2,55.3c-0.4,0.2-1.1,0.3-1.6,0.6l0,0.1C76.8,55.7,77.8,55.5,78.2,55.3z"/>
						<path fill="#202020" d="M85.6,54.3l-1.5,0.1c0.3,0,0.6,0.1,0,0.2C85.9,54.6,83.7,54.5,85.6,54.3z"/>
						<path fill="#202020" d="M90.2,54.3c-0.8,0,0,0.1,0,0.1C90.6,54.4,90.8,54.4,90.2,54.3z"/>
						<path fill="#202020" d="M117.2,70.9l-0.2,0C117.4,71.4,117.1,70.9,117.2,70.9z"/>
						<polygon fill="#202020" points="120.8,76.2 120.7,75.6 120.4,75.4 						"/>
						<polygon fill="#202020" points="121.2,80.1 121.1,79.9 121.5,80.8 						"/>
						<path fill="#202020" d="M103.7,125.4l0.2,0.1C104.3,125.4,104.3,125.2,103.7,125.4z"/>
						<path fill="#202020" d="M79.8,127.3c-0.3-0.1-0.9-0.2-1.4-0.1C79,127.2,79.5,127.3,79.8,127.3z"/>
						<path fill="#202020" d="M22,95.4l0.2,0.5C22.1,95.8,22.1,95.6,22,95.4c0-0.2-0.1-0.4-0.1-0.4L22,95.4z"/>
					</g>
				</g>
			</g>
		</g>
	</g>
	<g>
		<g>
			<g>
				<g>
					<g>
						<path fill="#202020" d="M59.3,56.5c0.1,0.1,0.2,0,0.1-0.2l-0.2-0.1L59.3,56.5z"/>
						<path fill="#202020" d="M59.1,55c-0.2-0.2-0.5-0.4-0.6-0.2c0.3,0.1,0.2,0.2,0.5,0.4c0.1,0.2,0.1,0.4,0,0.4
							c0.1,0.1,0.1,0.3,0.2,0.4c0.1-0.3-0.1-0.7-0.3-0.9C59,55,59.1,55,59.1,55z"/>
						<path fill="#202020" d="M67.8,48.9l-0.1-0.1C67.7,48.9,67.8,48.9,67.8,48.9z"/>
						<path fill="#202020" d="M80.6,50.7c-0.1,0-0.1,0-0.1,0C80.6,50.8,80.6,50.7,80.6,50.7z"/>
						<path fill="#202020" d="M82.8,51.2c0,0-0.1,0-0.1,0C82.7,51.2,82.8,51.2,82.8,51.2z"/>
						<path fill="#202020" d="M67.8,48.9l0.3,0.2C68.1,49.1,68,49,67.8,48.9z"/>
						<path fill="#202020" d="M57.1,52.9c0.1,0,0.1,0.1,0.2,0.1L57.1,52.9L57.1,52.9z"/>
						<path fill="#202020" d="M62.3,47.3l-0.1,0c0,0-0.1,0-0.1,0.1L62.3,47.3z"/>
						<path fill="#202020" d="M58.1,46.9c0.1,0,0.1-0.2,0.1-0.3C58.1,46.7,58.1,46.8,58.1,46.9C58,46.9,58.1,46.9,58.1,46.9z"/>
						<path fill="#202020" d="M57,51.9l0.1,0.1C57.1,51.9,57,51.9,57,51.9z"/>
						<path fill="#202020" d="M65.3,48.2C65.3,48.2,65.3,48.2,65.3,48.2C65.3,48.2,65.3,48.2,65.3,48.2z"/>
						<path fill="#202020" d="M63.3,53.7C63.3,53.7,63.3,53.7,63.3,53.7C63.3,53.7,63.3,53.7,63.3,53.7z"/>
						<path fill="#202020" d="M68.5,54.5L68.5,54.5C68.4,54.5,68.4,54.6,68.5,54.5L68.5,54.5z"/>
						<path fill="#202020" d="M85.7,52L85.7,52C85.6,52,85.6,52,85.7,52z"/>
						<path fill="#202020" d="M71.8,68.5c0.4-0.2-0.4,0.6,0.2,0.3C71.9,68.8,72.3,68.2,71.8,68.5z"/>
						<path fill="#202020" d="M57.1,52.8l-0.2-0.2C57,52.8,57.1,52.8,57.1,52.8z"/>
						<path fill="#202020" d="M72,68.8L72,68.8L72,68.8C72,68.8,72,68.8,72,68.8z"/>
						<path fill="#202020" d="M82.7,57.4c0,0,0-0.1,0-0.1C82.7,57.3,82.7,57.3,82.7,57.4z"/>
						<path fill="#202020" d="M85.4,52.7l-0.1,0.1C85.4,52.8,85.4,52.8,85.4,52.7z"/>
						<path fill="#202020" d="M85.7,59.5c0.1,0.1,0.1,0.1,0.2,0.2c0,0,0,0,0,0C85.8,59.6,85.8,59.6,85.7,59.5z"/>
						<polygon fill="#202020" points="87.8,61.4 87.9,61.4 87.9,61.4 						"/>
						<path fill="#202020" d="M51.6,53.7c0.1,0,0.1,0.1,0.2,0.1C51.7,53.7,52.3,53.7,51.6,53.7z"/>
						<path fill="#202020" d="M57.2,52.9c0,0-0.1,0-0.1,0L57.2,52.9C57.2,52.9,57.2,52.9,57.2,52.9z"/>
						<path fill="#202020" d="M86.6,58.6l0.5,0.4C87,58.9,86.8,58.8,86.6,58.6z"/>
						<path fill="#202020" d="M59.3,68.3l-0.1,0.1C59.2,68.4,59.2,68.3,59.3,68.3z"/>
						<path fill="#202020" d="M88.8,60.3c0.1,0.2,0.2,0.3,0.4,0.4c0,0,0.1,0.1,0.1,0.1C89.3,60.8,88.8,60.3,88.8,60.3z"/>
						<path fill="#202020" d="M51.8,53.8L51.8,53.8L51.8,53.8z"/>
						<path fill="#202020" d="M55.8,53.5c-0.6,0-0.3,0.2-0.4,0.3c-0.7,0.1-0.3-0.2-0.6-0.3c-0.4,0.1-0.8,0.2-1.1,0.2
							c0,0-0.1,0,0-0.1c-0.5,0.2-1.4,0-1.9,0.2c0,0-0.1,0-0.1-0.1c0.1,0.1,0.1,0.2,0.1,0.3c-0.3,0-0.5,0.1-0.6,0
							c0.2,0,0.2-0.1,0.3-0.1l-0.3,0.1c-0.3-0.2,0.4-0.1,0.4-0.2c-0.5,0.1-1.2,0.2-1.7,0.4c-0.1-0.1,0.2-0.2,0.4-0.3
							c0.2-0.1,0.4-0.1,0-0.1c0,0,0.7,0,0.7,0c-0.5-0.3,0.4,0-0.1-0.3c-0.5,0-0.8,0.1-1.1,0.2c-0.3,0.1-0.6,0.3-1,0.8
							c-0.1,0.3,0.2,0,0.1,0.3c-0.3,0.7-0.3,1-0.5,1.2c-0.1,0.2-0.2,0.5,0.1,1c0.2,0.2,0.4,0.2,0.7,0.9L49,57.9
							c0.3,0.4,0.5,0.5,0.6,0.5c0.2,0.1,0.3,0.1,0.7,0.4c-0.2,0-0.6-0.4-0.5-0.2c0.4,0.5,0.4,0.2,0.9,0.4l0,0.2
							c0.9,0.4,2,0.4,2.9,0.5c-0.1,0.1-0.2,0.1,0,0.2c1.2,0,2.4,0.5,2.9,1.2c0,0,0.3,0.1,0.3,0.1c0,0.1,0,0.2-0.1,0.1
							c0.1,0.3,0.1,0,0.2,0.1c0.1,0.2,0,0.2-0.1,0.2c0.2,0.2,0.3,0.4,0,0.8c-0.3,0.4-0.7,0.8-1.1,1.1l0.1-0.2
							c-0.5,0.5-0.2,0.8-0.7,1.2l0-0.1c-0.5,0.6-0.9,1.2-1.2,1.8c-0.2,0.3-0.4,0.6-0.5,1c-0.2,0.5-0.2,1,0,1.4
							c0.2,0.1,0.5,0.5,1.1,0.6c0.5,0.1,0.8,0,0.8-0.1c0.9,0.1,0.6,0.2,1.9,0.1c0.3-0.1,0.4-0.3,0.8-0.5l0.1,0.2l0.5-0.4l0.3,0.1
							l0.3-0.2c-0.1,0.1-0.3,0.1-0.3,0c0.5-0.3,1.3-0.5,1.4-0.5c0,0,0.3-0.2,0.5-0.4c0.1-0.1,0.3-0.2,0.4-0.3c0.1-0.1,0-0.1,0.1-0.1
							c0,0,0,0.1,0,0.1c0,0.1-0.1,0.1-0.2,0.2c0.1-0.2,0.2-0.2,0.2-0.2c0,0,0,0,0,0c0,0,0,0.1,0.1,0c0,0,0-0.1,0-0.2
							c0.1,0,0.1,0,0.2-0.1c0,0,0,0,0.1,0.1l-0.1,0.2c0,0,0,0.1,0,0.1l0,0c0,0,0,0,0,0.2c0.1,0.5,0.2,1,0.3,1.6c0-0.4,0.2-0.3,0.3,0
							l-0.2,0.2c0.1,0.2,0-0.3,0.2,0.1c0,0.4-0.2,0.3-0.3,0.1l0.1,0.5c-0.1,0-0.1-0.1-0.2-0.1c0.1,0.2,0,0.9,0.2,1.1l-0.1,0
							c0.2,1.1,0.3,1.5,0.5,2.4c0.2,0,0.2,0.3,0.4,0.6c0,0.3,0,0.7,0.1,1l0,0.3c0,0.1,0,0.2,0,0.4c0,0.3,0.1,0.7,0.2,1
							c0.1,0.2,0.1,0.3,0.1,0.4c0.1,0,0.1-0.1,0.1-0.1c0,0,0-0.1,0.2-0.2c-0.1,0.2,1.2-0.1,0.6,0.1c0.4-0.1,0.8-0.1,0.9-0.2
							c0.2-0.1,0.3-0.1,0.5-0.2c0.3-0.1,0.7-0.4,1.2-0.8c-0.1,0-0.3,0.1-0.2,0c0.2-0.1,0.4-0.3,0.5-0.2l0,0c1-1,2.6-1.9,3.1-3l0,0.1
							l0.6-0.9c0.3-0.4-0.1,0.3,0.2,0.1c0.6-1.1,1.2-1.4,1.8-2.1c0.4-0.1,0.9-0.5,1.4-0.8c0.3-0.1,0.5-0.3,0.8-0.4
							c0.1,0,0.3-0.1,0.4-0.1c0.1,0,0.2,0,0.4,0l-0.1-0.1c0.2-0.1,0.3,0,0.4,0c0-0.1-0.2-0.1-0.1-0.1c0.9-0.1,2,0.4,3.2,0.7
							c0.6,0.2,1.3,0.2,2,0.1c0.7-0.1,1.5-0.4,2-1.1c0.4-0.5,0.3-0.8,0.2-1c-0.1-0.2-0.1-0.4,0.1-1c0,0,0.2,0.3,0.2,0.4
							c0-0.5-0.1-1-0.1-1.4c0-0.2,0-0.4,0-0.6c0-0.1,0-0.2,0-0.2c0-0.1,0,0,0-0.1c0,0,0-0.1,0.1-0.1c0.1,0,0,0,0.2,0
							c0.5,0,0.9,0,1.4-0.1c-0.1,0.1-0.1,0.1-0.3,0.1c0.4,0.1,1.4-0.2,1.4-0.4c0.3-0.1,0.1,0.1,0.3,0.1c0.4,0,0.8-0.5,1.1-0.5
							c0,0-0.1,0.1-0.1,0.1c0.1-0.1,0.4-0.2,0.6-0.3c0.1-0.1,0.2-0.1,0.3-0.2c0.1-0.1,0.1-0.1,0-0.1c0.5-0.3,0.8-0.6,1.2-0.9
							l0.2-0.2c0,0,0.1-0.1,0.1-0.1l-0.1-0.1c-0.2-0.1-0.3-0.3-0.4-0.4c-0.3-0.1-0.6-0.4-0.9-0.7c-0.2-0.2-0.3-0.3-0.5-0.2
							c0.2-0.2-0.7-0.8-1.1-1c0.2,0-0.2-0.3,0-0.3c-0.4-0.3-0.7-0.5-0.7-0.3c-0.5-0.8-1.5-0.8-1.6-1.4c-0.4-0.3-0.9-0.6-1.3-0.8
							c-0.1-0.1-0.4-0.2-0.6-0.3c0.1,0,0.2-0.1,0.2-0.1c0.1,0.1,0,0.1,0,0.2c0.1,0.1,0.2,0.1,0.4,0.1c0,0-0.1,0-0.2-0.1
							c0-0.1,0-0.2,1-0.7c0.3-0.1-0.1,0.2-0.2,0.3c1-0.7,2-1.2,2.7-2c0,0-0.1,0.1-0.1,0.2c0.1-0.1,0.5-0.4,0.4-0.4l-0.2,0.2
							c-0.2,0.1-0.1-0.2,0.1-0.4c0.2-0.3,0.3-0.5,0.3-0.5c0.1,0.4,1-0.9,1.1-0.4c0.1-0.2,0.2-0.3,0-0.3c0.1-0.1,0.2-0.2,0.2-0.2
							c0,0,0.2,0,0.1,0.1c0.2-0.1-0.1-0.1-0.2-0.2c-0.1,0-0.2,0-0.3-0.1c-0.2,0-0.3,0-0.4-0.1c-0.2,0-0.4-0.1-0.8-0.2
							c0.1,0,0.3,0,0.4,0c-0.3,0-0.6-0.1-0.9-0.1c-0.1,0-0.3-0.1-0.4-0.1c-0.1,0-0.2-0.1-0.4-0.1c0,0,0-0.1,0.1,0
							c-0.9-0.2-1.6-0.1-2.6-0.3c0.3-0.2-0.3-0.1-0.4-0.4l-0.6,0l0.2,0.1c-0.5-0.1-0.9,0-1.3-0.1l0.4-0.1c0,0-0.2,0-0.5,0
							c-0.2,0-0.5,0-0.5,0l0.5,0.1c-0.5,0.1,0,0.3-0.6,0.2c0.1,0-0.5,0-0.7-0.2l0,0c-0.2,0.1-0.5,0.1-0.9,0.1
							c-0.1-0.1,0.1-0.2,0-0.3c-0.2,0.2-1.1,0.1-1.4,0.3c0.1,0,0.1-0.2,0.1-0.2l-0.2,0.2c-0.2,0-0.3-0.1-0.2-0.1
							c-0.7,0,0.2,0.3-0.6,0.2c0.1,0,0,0,0.2-0.1c-0.8,0-1.6,0.2-2.3,0.3c-0.3-0.2,0.6-0.1,0.4-0.3c-1.1,0.2-2.1,0.6-3,0.2l0.2,0.1
							c-0.2,0.3-0.6-0.4-1.1-0.5c0.1,0,0.2-0.1,0.2-0.1c-0.6-0.4-1.3-0.7-2.3-1.1l0.2,0c-0.4-0.2-1-0.5-1.4-0.7
							c-0.2,0-0.4-0.1-0.3,0.1c-1.2-0.9-2.6-0.6-3.7-1.3c0.1,0,0.4,0,0.2,0l-1-0.2c0.1,0.1,0.1,0.1,0.3,0.3c-0.1,0-0.4,0-0.7,0
							c0.5,0,0-0.2-0.1-0.3c0,0-0.1,0.1,0,0.1c-0.5-0.4-0.1,0.2-0.8-0.1l0.1-0.1c-0.3,0-0.6,0-0.8-0.1c-0.1-0.2,0.3,0,0.4-0.1
							c-0.4-0.1-0.9,0.2-1.3,0c0.2,0,0.4,0,0.6,0C59.5,46,59.4,46,59.1,46l0,0c0,0-0.2,0-0.4,0c-0.2,0-0.4,0-0.4,0l0.2,0
							c-0.3,0.2-0.5,0.3-0.8,0.4c-0.3,0.1-0.6,0.3-0.7,0.7c0.3-0.7,0-0.2-0.1-0.3c-0.2,0.1-0.4,0.5-0.4,0.4c0,0.2-0.1,0.4-0.1,0.6
							c0,0.2,0,0.5,0.1,0.7c-0.1,0,0.1,0.4,0,0.4c0.2,0.4,0.1-0.1,0.1-0.1c0.2,0.3,0.3,0.7,0.4,1.1l0.1,0.3c0,0.1,0,0.1,0,0.2
							c0,0.2,0,0.3,0,0.5c0,0.1,0,0.1-0.1,0.2c0,0.1,0,0.2-0.1,0.3c-0.1,0.1-0.2,0.2-0.2,0.3c-0.1,0.1-0.2,0-0.3,0l-0.1,0l0.1,0.1
							c0.1,0.1,0.2,0.1,0.3,0.2c0.1,0.2-0.3-0.1-0.3-0.1c0.1,0.1,0.2,0.3,0.2,0.4c0.2,0.1,0.4,0.3,0.6,0.4c-0.1,0-0.1,0.1,0,0.2
							c0.2,0.2,0.3,0,0.5,0.4c-0.1,0-0.2,0-0.4-0.1c0.3,0.2,0.6,0.4,0.8,0.7c0,0.1-0.3-0.1-0.4-0.2c0.3,0.3,0.7,0.8,0.9,0.9
							l-0.1-0.3c0.1,0.1-0.1,0.1-0.2,0.1c-0.3-0.2-0.2-0.5-0.2-0.5l0.2,0.2c0.1-0.4-0.7-0.9-1-1.3l0.3,0l-0.6-0.3
							c-0.1-0.1,0-0.2,0.2-0.1c-0.1-0.2-0.2-0.2-0.3-0.3c0,0-0.1-0.1-0.1-0.1c0,0,0,0,0.1,0l-0.4-0.2c0.1,0,0.2,0,0.3,0.1
							c0,0-0.1-0.1-0.1-0.1c0,0-0.1,0,0,0l0.1,0c0.1,0,0.2,0,0.2,0c0.1-0.1,0.2-0.2,0.3-0.2l0,0c0.2-0.4,0.2-0.5,0.1-0.5
							c-0.1,0-0.1,0-0.1-0.4c0,0,0.1-0.1,0.2-0.2c0.1-0.1,0.2-0.3,0.2-0.3L57.6,50c0-0.1-0.1-0.3,0-0.3c-0.2-0.3,0,0.1-0.2-0.1
							c0-0.5-0.6-1.2-0.3-1.4c-0.2-0.1,0,0.5-0.2,0c0.1-0.1,0.1-0.2,0.1-0.4c0-0.2,0-0.4,0.1-0.6c0.1,0.2-0.1,0.5,0.1,0.2
							c-0.1-0.1,0-0.3,0.2-0.4c0.2-0.1,0.4-0.1,0.5-0.2c-0.1-0.2,0.7-0.3,1.3-0.3c0,0,0.3,0.1,0.6,0.1c0.3,0.1,0.8,0.2,1.1,0.3l0,0
							c0.2-0.2,0.7,0,1.2,0c0,0.1-0.1,0.2-0.4,0.2l0.4,0.1c0.1,0,0.2,0,0.5,0l-0.1,0.1c0.5,0.1,1.1,0.1,1.8,0.4
							c0.1-0.1-0.4-0.5,0.3-0.4c0,0.1,0,0.2-0.2,0.2c0.1,0,0.2,0,0.4,0.1l-0.3,0c0.3,0.1,0.2-0.1,0.4,0c0,0.1,0.2,0.1,0.1,0.2
							c-0.1,0-0.2-0.1-0.3-0.1c0.3,0.1,0.6,0.3,0.7,0.4c0-0.1,0-0.1,0.3-0.1c0.5,0.2,0.1,0.2,0.4,0.3c0.2,0,0.4,0.2,0.5,0
							c0.1,0.1,0.1,0.1,0.2,0.2c0.3,0,1.2,0.5,1,0.2l-0.1,0c0,0,0,0,0,0l0,0l0,0c0.9,0.2,1.7,0.9,2.5,1.4l0,0
							c0.5,0.2,1.1,0.6,1.6,0.6c0.2,0,0.4,0.2,0.3,0.2c0.5,0,0.5,0,1.2,0c-0.4,0.1,0.2,0.1-0.5,0.1c0.6,0,0.7,0.1,1.3-0.1
							c-0.2,0.2,0.4,0.1,0.7,0L74.3,51c0.3-0.1,0.5-0.1,0.8-0.1l-0.1,0.2c1.1,0.1,1.9-0.6,2.8-0.2c0.3-0.1-0.6-0.1-0.3-0.2
							c0.5,0,1,0.3,1.2,0.3c0.7,0.1,0.7-0.3,1.4-0.2c-0.1-0.1-0.2-0.3,0.4-0.3c0.5,0.1,0.6,0.3,0.3,0.4c-0.1,0-0.2,0-0.2-0.1
							c-0.2,0-0.4,0-0.2,0.1l0.1-0.1c0.2,0.1,0.9,0.1,0.8,0.2c0.4,0,0.2-0.1-0.1-0.2c0.6,0.2,1,0.1,1.7,0.3
							c-0.1-0.1-0.2-0.1-0.1-0.1c1,0.2,0.4-0.1,1.1,0c0.4,0.2-0.2,0.2,0.5,0.3c0.4,0.2,0,0.2-0.1,0.2c0.6,0,1.1,0.3,1.4,0.4
							c0.1,0-0.3,0-0.3,0c0.1,0,0.2,0,0.3,0c0,0,0,0,0.1,0c0,0,0-0.1,0-0.1c0,0,0.1,0,0,0.1c0.1-0.1,0.1-0.2,0.4-0.3
							c0,0.1,0.5,0.1,0.3,0.2c-0.1-0.1-0.2,0-0.2,0c-0.1,0-0.2,0.1-0.2,0.1c0.1,0,0.1,0,0.1,0c0,0-0.1,0-0.1,0c-0.1,0.1,0,0,0.1,0
							c0.1,0,0.2,0,0.1,0.1c-0.1,0-0.3,0-0.3,0c0,0,0.3,0,0.2,0.1c-0.1,0.1-0.2,0.1-0.2,0.2c-0.1,0.1-0.1,0.2-0.2,0.2l0.3-0.2
							c0,0.1-0.2,0.3-0.5,0.5c-0.1,0,0.2-0.2,0.1-0.2c-0.2,0.4-0.8,0.4-1.2,0.8c-0.2,0.1-0.1-0.1-0.3-0.1c-0.4,0.4-0.6,0.2-1.1,0.6
							c0.2,0,0.3,0-0.1,0.3c0,0,0.2-0.1,0.5-0.3c0.2-0.1,0.4-0.3,0.4-0.3s-0.1,0.1-0.2,0.2c-0.1,0.1-0.2,0.2-0.2,0.2
							c0.3-0.1,0.5-0.4,0.7-0.5c-0.2,0.3-0.2,0.2,0,0.2c-0.2,0-0.4,0.1-0.6,0.3c-0.2,0.1-0.3,0.3-0.7,0.4l-0.2-0.3
							c-0.7,0.2-1.3,0.5-1.8,0.8c0.5,0.4,1,0.7,1.5,1.1l-0.3-0.3c0.2,0,0.3,0.2,0.5,0.3c0.2,0.2,0.4,0.4,0.5,0.4
							c-0.1,0.1,0,0.2,0.1,0.4c0-0.1,0.6,0.5,0.8,0.3l0.3,0.4c0.6,0.5,0.9,0.3,1.5,0.8c-0.3,0,0,0.2-0.5,0c0.2,0.2,0.4,0.3,0.4,0.3
							c0.1,0.1,0.7,0.3,0.8,0.6c0.1,0,0.2,0,0.4,0.1c0,0,0,0,0,0c0,0,0.4,0.2,0.3,0c0.2,0.4,0.7,0.7,1,1c0.1,0.1,0.3,0.2,0.4,0.3
							c0,0.1,0.2,0.1,0.1,0.1c-0.1,0-0.2,0.1-0.2,0.1c-0.1,0.1-0.2,0.2-0.4,0.3c-0.2,0.2-0.5,0.3-0.7,0.4c0,0,0-0.1,0.1-0.1
							c-0.6,0.2-0.2,0.5-1,0.6c-0.4-0.1,0.4-0.2,0.1-0.2c-0.2-0.3-0.9,0.3-1.4,0.1l0.1,0c-0.2,0-0.4,0-0.7,0c-0.2,0.1-0.8,0-1.2,0.1
							c0,0,0-0.1,0-0.1c-0.2,0.3-0.4,0.8-0.4,1.2c0,0.4,0,0.8,0.1,1.1c-0.2-0.2-0.1-0.3-0.2-0.2c0,0.3,0.2-0.1,0.3,0.5
							c-0.1,0.2-0.1,0.6-0.3,0.6c0,0,0-0.1,0-0.3c0-0.1,0-0.3,0-0.3c-0.2,0.3,0,0.7,0,0.9l-0.1,0c0,0.3,0,0.5-0.1,0.7
							c0,0.2-0.1,0.4-0.4,0.6l0.1,0c-0.3,0.4-0.4,0.1-0.7,0.4l-0.2-0.2c-0.3,0.1-1,0.4-1.6,0.3c0.4-0.1,1-0.1,1.3-0.3
							c-0.3,0.1-0.9,0-1.1,0.1c0.1,0,0.3,0,0.4,0c-0.4,0.2-0.9,0.1-1.5,0c0.2-0.4-1.6-0.6-2.1-0.9c-1.3,0.1-2.6,0.3-3.8,1.2
							c0.6,0-0.3,0.2,0,0.5c-0.2,0.2-0.3,0.3-0.4,0.3c0,0-0.2,0.1-0.4,0.2c-0.2,0.1-0.4,0.3-0.4,0.3c-0.2,0.1,0.2-0.3,0.1-0.3
							c-0.5,0.5-0.3,0.1-0.7,0.4c0.2,0,0,0.3-0.3,0.6l0.5-0.3c-0.5,0.8-0.8,0.4-1.3,1.3l0.1-0.3c-0.3,0.4-1.1,1.4-1.2,1.9
							c-0.1,0-0.2,0.1-0.1-0.1c-0.8,0.8-1.5,2-2.3,2.3l0-0.1c-0.2,0.1-0.2,0.3-0.5,0.4c0,0,0-0.1-0.1-0.1c-0.1,0.1-0.4,0.3-0.7,0.4
							l0.2-0.2c-0.1,0-0.2,0.1-0.3,0.1c0,0-0.1,0-0.1,0c0,0-0.1,0.1-0.2,0.1c0,0-0.1-0.1-0.2-0.1c0,0,0-0.1-0.1-0.2
							c0-0.1-0.1-0.2-0.1-0.3c0.3,0,0.2-0.9,0.1-1.4l0,0c-0.2-1.3-0.6-2.2-0.9-3.4c0.1-0.4,0-1-0.1-1.7c-0.1-0.3-0.1-0.7-0.2-1.1
							c0-0.3-0.1-0.6-0.1-0.8c0-0.3-0.1-0.6-0.1-0.9c0,0.4-0.2,0.1-0.3-0.1c0-0.4-0.2-0.8-0.2-0.9c0,0-0.1,0,0-0.1l0.1-0.1l0,0
							c0,0,0-0.1,0-0.1c-0.1-0.1-1,1-1.6,1.5c0,0,0,0.1,0,0.2c0,0.1,0,0.2,0,0.2l-0.3,0.2l-0.2,0.1c-0.1,0.1-0.3,0.2-0.4,0.2
							c-0.3,0.2-0.6,0.4-0.9,0.5c-0.6,0.3-1.2,0.6-1.5,0.5c-0.2,0.2-0.6,0.2-0.8,0.3l0-0.2c-0.4,0-0.6,0.1-0.9,0.1
							c-0.1,0-0.3,0-0.5,0c-0.1,0-0.3,0-0.4,0c0,0,0.1-0.1,0.1-0.1c0,0-0.1,0.1-0.2,0.2c-0.1,0.1-0.3,0.1-0.3-0.1
							c0,0,0.3-0.1,0.3-0.1c0,0,0.3-0.6,0.5-0.9c0.3-0.4,0.5-0.8,0.7-1.2c0,0,0.1,0.1,0,0.2c0.2-0.4,1.2-1.2,0.8-1.3
							c0.2,0.1,0.6-0.7,1-1.2l0.1,0.2c0.1-0.3,0.1-0.4,0.2-0.6c0-0.2,0.2-0.3,0.2-0.7c0-0.2,0.2-0.2,0.1,0.1c0.1-0.3,0-0.5,0-0.6
							c-0.1-0.1-0.1-0.3-0.2-0.6c0,0,0.2,0.2,0.2,0.2c-0.2-0.6-0.3-0.5-0.6-0.7c-0.3-0.3-0.7-0.7-0.8-0.9c-0.1,0-0.4,0-0.7-0.2
							c0-0.1,0.1-0.1,0.2,0c-0.8-0.5-1.3-0.2-1.9-0.5c0-0.1,0-0.1-0.1-0.1c0.7,0.1,1.2,0.3,1.2,0.3c0-0.1-0.5-0.3,0-0.4
							c-0.5,0-1.3,0.1-1.8-0.1c0,0,0,0-0.1-0.1l0.1,0c-0.1,0-0.2,0-0.3,0c-0.2,0-0.3-0.1-0.4-0.1c0-0.1-0.6-0.2-0.8-0.2
							c0,0.2-0.3,0.1-0.1,0.3c0,0,0,0,0.2,0c0,0,0.1,0,0.1,0l0,0c0.2,0,0.4,0.1,0.6,0.1c-0.2,0-0.4,0.1-0.7-0.1
							c-0.2,0.1-0.3,0.1-0.4,0.2c-0.3-0.3-0.8-0.7-0.8-0.9c-0.3-0.1-0.6-0.4-0.8-0.6c-0.2-0.3-0.4-0.6-0.6-0.8
							c-0.1-0.2,0.1-0.2,0.1-0.3c0,0.1,0,0.2,0.1,0.3c-0.1-0.2-0.1-0.5,0-0.7c0-0.2,0.1-0.4,0.1-0.5c0.4-0.3,0,0.3,0.4-0.1l0,0.1
							c0.5-0.2,1.1-0.2,1.8-0.4c0.7-0.1,1.4-0.2,2.3,0c-0.1,0-0.2,0-0.2-0.1c2,0.2,4.2-0.2,6.2,0.2c0.6,0.1,0.6-0.1,1-0.2l0.1,0.2
							l0.6-0.2c0.8-0.1,1.5,0.4,2.5,0.2l-0.1-0.1c0.4,0,1.2-0.1,1.1,0.1c0,0,0.1-0.1,0.3-0.1l0,0.1l0.9-0.2c0.7,0.1-0.1,0.4,0.9,0.4
							c0.4,0,1.1-0.3,1-0.3c-0.2,0-0.4-0.1-0.4-0.2l0.4,0c0.1-0.3,0.3-0.5-0.5-0.7l-0.6,0.2L67,53.8l0.5,0c-0.3-0.1-0.5,0-0.7,0.1
							c0-0.1-0.1-0.1-0.3-0.1L66,54c-0.1-0.1,0.3-0.2-0.1-0.3c-0.3,0.1,0.3,0.2-0.2,0.3c-0.3-0.1-0.2-0.2-0.6-0.1
							c0-0.1,0-0.1,0.2-0.1c-0.3,0.1-0.8,0-1,0.2c-0.3-0.2-1,0-1-0.2c-0.1,0.1-0.5,0.2-0.8,0.2c0.5-0.3-1.1,0-0.9-0.3
							c-0.4,0.3-1.4,0.1-2.1,0.3c0,0,0.1-0.1,0.2-0.1c-0.4,0-0.5-0.1-0.7-0.2c-0.1,0.2-0.6,0.3-1,0.4c-0.5-0.2,0.3-0.3,0.1-0.5
							c0,0.2-0.8,0.2-0.7,0.3c-0.4-0.1-0.3-0.1-0.5-0.3c-0.1,0.3-0.3,0-0.6,0.2c-0.5-0.1-0.1-0.3-0.7-0.2
							C55.3,53.6,55.8,53.5,55.8,53.5z M53.5,59.6L53.5,59.6c-0.1,0-0.2,0-0.3,0C53.2,59.6,53.3,59.6,53.5,59.6z M54.6,59.8
							c-0.1,0-0.3-0.1-0.5-0.1c0-0.1,0-0.1,0.1-0.1C54.2,59.6,54.4,59.7,54.6,59.8z M52.4,58.3c0.2,0,0.2,0,0.2,0.1
							C52.6,58.4,52.5,58.4,52.4,58.3L52.4,58.3C52.3,58.3,52.4,58.3,52.4,58.3z"/>
						<path fill="#202020" d="M52.1,58.4C52,58.4,52,58.4,52.1,58.4C52,58.5,52.1,58.5,52.1,58.4L52.1,58.4
							C52.1,58.5,52.1,58.5,52.1,58.4z"/>
						<path fill="#202020" d="M67.7,48.8L67.7,48.8C67.7,48.8,67.7,48.8,67.7,48.8C67.7,48.8,67.7,48.8,67.7,48.8z"/>
						<polygon fill="#202020" points="58,68.9 58,68.8 57.9,68.9 						"/>
						<path fill="#202020" d="M61.8,46.5C61.8,46.4,61.8,46.4,61.8,46.5C61.8,46.4,61.8,46.4,61.8,46.5z"/>
						<path fill="#202020" d="M59.1,46l-0.4,0C58.9,46,59,46,59.1,46z"/>
						<path fill="#202020" d="M56.9,46.7C56.9,46.8,56.9,46.8,56.9,46.7L56.9,46.7L56.9,46.7z"/>
						<path fill="#202020" d="M86.2,53.5L86.2,53.5C86.1,53.7,86.1,53.6,86.2,53.5z"/>
						<path fill="#202020" d="M79.5,50c0.1,0,0.2,0,0.3-0.1C79.6,50,79.5,50,79.5,50z"/>
						<polygon fill="#202020" points="86.6,58.6 86.6,58.6 86.6,58.6 						"/>
						<path fill="#202020" d="M80.3,50c-0.2,0-0.3,0-0.5,0C79.9,50,80.1,50,80.3,50z"/>
						<path fill="#202020" d="M58.2,54.3L58.2,54.3C58.3,54.4,58.3,54.4,58.2,54.3L58.2,54.3z"/>
						<path fill="#202020" d="M58.3,54.4L58.3,54.4C58.3,54.4,58.3,54.4,58.3,54.4z"/>
						<path fill="#202020" d="M58.5,54.7l-0.1-0.2C58.4,54.5,58.4,54.6,58.5,54.7z"/>
						<path fill="#202020" d="M56.4,52L56.4,52C56.3,52,56.4,52.1,56.4,52z"/>
						<path fill="#202020" d="M56.4,51.6C56.3,51.6,56.3,51.6,56.4,51.6C56.3,51.6,56.3,51.6,56.4,51.6c0,0.1-0.1,0.3-0.1,0.4l0,0
							c0,0,0-0.3,0-0.3C56.3,51.7,56.3,51.6,56.4,51.6C56.3,51.5,56.3,51.6,56.4,51.6z"/>
						<path fill="#202020" d="M57.3,48.7l0.2,0.7c0-0.1,0-0.3,0.2,0C57.5,48.5,57.7,49.6,57.3,48.7z"/>
						<path fill="#202020" d="M57.6,47.1c-0.2,0.2,0.1,0.1,0.1,0.1C57.8,47.1,57.8,47,57.6,47.1z"/>
						<path fill="#202020" d="M72.1,51.1l-0.1,0.1C72.4,51.2,72.1,51.2,72.1,51.1z"/>
						<polygon fill="#202020" points="75.1,50.1 74.8,50 74.7,50.1 						"/>
						<polygon fill="#202020" points="77,51 76.9,51 77.3,50.9 						"/>
						<path fill="#202020" d="M87.6,61.2l0.2-0.1C87.7,61.1,87.5,61.2,87.6,61.2z"/>
						<path fill="#202020" d="M81.6,67.3c-0.1,0-0.4,0.1-0.5,0.2C81.3,67.5,81.5,67.4,81.6,67.3z"/>
						<path fill="#202020" d="M60.1,66.2l0.1-0.2C60.2,66.1,60.1,66.1,60.1,66.2c-0.1,0-0.2,0.1-0.2,0.1L60.1,66.2z"/>
					</g>
				</g>
			</g>
		</g>
	</g>
	<g>
		<g>
			<g>
				<g>
					<g>
						<path fill="#202020" d="M89.3,15.3c0,0-0.1,0.1,0,0.2l0.1-0.1L89.3,15.3z"/>
						<path fill="#202020" d="M89.7,15.9c0.1,0,0.3,0,0.4-0.2c-0.2,0.1-0.2,0-0.4,0.1c-0.1,0-0.1-0.1-0.1-0.2c-0.1,0-0.1-0.1-0.2,0
							C89.5,15.7,89.6,15.8,89.7,15.9C89.8,15.8,89.7,15.9,89.7,15.9z"/>
						<path fill="#202020" d="M86.1,21.2L86.1,21.2C86.2,21.2,86.1,21.2,86.1,21.2z"/>
						<path fill="#202020" d="M80.9,21.4C80.9,21.4,81,21.4,80.9,21.4C80.9,21.4,80.9,21.4,80.9,21.4z"/>
						<path fill="#202020" d="M80,21.3C80,21.3,80,21.3,80,21.3C80,21.3,80,21.3,80,21.3z"/>
						<path fill="#202020" d="M86.1,21.2l-0.1,0C86,21.2,86.1,21.2,86.1,21.2z"/>
						<path fill="#202020" d="M90.8,16.7C90.8,16.7,90.8,16.6,90.8,16.7L90.8,16.7L90.8,16.7z"/>
						<path fill="#202020" d="M88.2,20.5L88.2,20.5c0,0,0-0.1,0-0.1L88.2,20.5z"/>
						<path fill="#202020" d="M89.4,19.6c0,0,0.1,0.1,0.1,0.2c0-0.1,0-0.1,0-0.1C89.5,19.6,89.5,19.6,89.4,19.6z"/>
						<path fill="#202020" d="M90.3,17.3L90.3,17.3C90.3,17.2,90.3,17.2,90.3,17.3z"/>
						<path fill="#202020" d="M87.1,20.9C87.1,20.8,87.1,20.8,87.1,20.9C87.1,20.8,87.1,20.8,87.1,20.9z"/>
						<path fill="#202020" d="M72,55.5C72,55.5,72,55.5,72,55.5C72,55.6,72,55.6,72,55.5z"/>
						<polygon fill="#202020" points="72,57.7 72,57.7 71.9,57.7 						"/>
						<path fill="#202020" d="M78.3,21.3L78.3,21.3C78.4,21.3,78.4,21.3,78.3,21.3z"/>
						<path fill="#202020" d="M67.5,30.5c0.2-0.2,0.2,0.3,0.3,0.1C67.8,30.6,67.7,30.3,67.5,30.5z"/>
						<path fill="#202020" d="M90.8,16.7L90.8,16.7C90.8,16.8,90.8,16.8,90.8,16.7z"/>
						<path fill="#202020" d="M67.9,30.6L67.9,30.6L67.9,30.6C67.9,30.5,67.9,30.6,67.9,30.6z"/>
						<path fill="#202020" d="M74.6,22C74.6,22.1,74.6,22.1,74.6,22C74.6,22.1,74.6,22.1,74.6,22z"/>
						<path fill="#202020" d="M77.4,21.7L77.4,21.7C77.4,21.7,77.4,21.7,77.4,21.7z"/>
						<path fill="#202020" d="M73.2,22.6c0,0-0.1,0-0.1,0C73.1,22.6,73.1,22.6,73.2,22.6C73.1,22.6,73.1,22.6,73.2,22.6z"/>
						<polygon fill="#202020" points="71.7,23.2 71.7,23.2 71.8,23.2 						"/>
						<path fill="#202020" d="M70.5,51.3c0,0-0.1,0.1-0.1,0.1C70.5,51.3,70.6,51.5,70.5,51.3z"/>
						<path fill="#202020" d="M90.7,16.7C90.8,16.7,90.8,16.7,90.7,16.7L90.7,16.7C90.8,16.7,90.7,16.7,90.7,16.7z"/>
						<path fill="#202020" d="M73.5,23.9l-0.2,0C73.3,23.9,73.4,23.9,73.5,23.9z"/>
						<path fill="#202020" d="M68.6,40.7L68.6,40.7C68.7,40.7,68.7,40.7,68.6,40.7z"/>
						<path fill="#202020" d="M72.7,24.1c-0.1,0-0.1-0.1-0.2-0.1c0,0,0,0,0,0L72.7,24.1z"/>
						<path fill="#202020" d="M70.4,51.4L70.4,51.4L70.4,51.4z"/>
						<path fill="#202020" d="M71.2,52.8c-0.1-0.2-0.2,0-0.4,0c-0.1-0.2,0.1-0.2,0.2-0.3c-0.1-0.1-0.3-0.2-0.4-0.3c0,0,0,0,0.1,0
							c-0.2-0.1-0.2-0.5-0.4-0.6c0,0,0,0,0,0c-0.1,0.1-0.2,0.1-0.3,0.1c0-0.1-0.2-0.1-0.1-0.2c0,0.1,0.1,0.1,0.1,0.1l-0.1-0.1
							c0.2-0.1,0.1,0.1,0.3,0.1c-0.1-0.2-0.3-0.4-0.3-0.5c0.2-0.1,0.2,0.3,0.3,0.1l0,0.3c0.2-0.3,0,0.1,0.3-0.1
							c0-0.3-0.2-0.3-0.2-0.7c-0.1,0-0.1,0.1-0.3,0c-0.3-0.4,0.4-0.5,0-0.7c-0.1-0.1-0.4,0-0.3-0.3l0.2,0c0-0.3-0.3-0.1-0.3-0.5
							c0.1,0,0.1,0.2,0.1,0.2c0.1-0.2-0.2-0.1-0.2-0.3l0.2-0.1c-0.1-0.3-0.3-0.6-0.4-1c0.1,0,0.1,0.1,0.2,0c-0.2-0.4-0.2-1-0.1-1.4
							l-0.2-0.1c0,0,0.1-0.1,0.1,0c0-0.2-0.1,0-0.2-0.1c0-0.1,0.1-0.1,0.1-0.1c-0.2-0.3-0.4-0.8-0.3-1.2l0.1,0.1
							c0-0.3-0.4-0.2-0.3-0.5l0,0c0-0.6-0.2-1.1,0-1.6c-0.2-0.1,0.1-0.6-0.3-0.6c0.1-0.3,0.2-0.2,0.3-0.7c0-0.1-0.2-0.2-0.3-0.3
							l0.2,0L68.5,41l0.2-0.1l-0.1-0.1c0,0.1-0.1,0.1-0.1,0.1c-0.1-0.2,0.1-0.5,0.2-0.5l-0.2-0.5c0.1,0,0.1,0.1,0.2,0.2
							c-0.2-0.3,0.2-0.1,0-0.3c0,0-0.1,0-0.1,0c0.1-0.1,0.1-0.4,0-0.6l0.1,0c0-0.4-0.1-0.8-0.1-1.2c-0.1,0.2-0.3,0.1-0.3,0l0.2-0.1
							c-0.1-0.1-0.1,0.1-0.2,0c0-0.2,0.2-0.1,0.3,0l-0.1-0.2c0.1,0,0.1,0,0.2,0c-0.1-0.1,0.2-0.3,0-0.4l0.1,0c0-0.4-0.1-0.6-0.1-1
							c-0.2,0-0.1-0.1-0.3-0.2c0.1-0.3,0.2-0.5,0.2-0.8c-0.1-0.2-0.1-0.1-0.2-0.2c0.1,0,0.1-0.3,0.2-0.2c0-0.4,0-0.5-0.1-0.9
							c-0.1,0-0.1,0.1-0.1,0.1c0-0.1,0.1-0.2,0.1-0.2l0,0c-0.2-0.5,0.5-1.2,0.2-1.6l0,0l-0.1-0.4c0-0.2,0.1,0.1,0.2,0
							c-0.2-0.5,0.1-0.7,0-1.1c0.5-0.2,0.1-1,0.5-1.4l-0.1,0c-0.1-0.1,0.1-0.1,0.1-0.2c-0.1,0-0.1,0.1-0.2,0c0-0.9,0.6-1.7,1-2.3
							c0.2-0.2-0.4-0.4,0-0.6l0.1,0.2c0.1-0.6,0.6-1,0.9-1.5c0,0.1,0,0.1,0,0.1c0.2,0,0.3-0.3,0.3-0.4c0.1,0,0.1,0.1,0.2,0.1
							c0.1,0,0.1-0.3,0.3-0.2c0,0,0,0.1,0,0.1c0-0.1,0.3-0.2,0.2-0.3c0.2,0,0.3-0.3,0.5-0.2c0-0.2,0.4-0.1,0.3-0.3
							c0.1,0.2,0.4,0.1,0.5-0.1c0,0.1,0.1,0,0.1,0.2c0.2-0.1,0.3-0.1,0.2-0.3c0.4,0.2,0.6-0.4,0.8,0c0.5-0.2,0.9-0.4,1.4-0.6
							c0,0.3-0.5,0.1-0.4,0.4c0.4-0.2,0.6-0.5,1.1-0.5c0.1,0,0,0.1-0.1,0.2c0.4-0.2,0.8-0.1,1.2-0.3c0,0,0,0.1-0.1,0.1
							c0.1,0,0.2,0,0.2-0.1l-0.1,0c-0.1-0.1,0.2-0.4,0.3-0.5c-0.1,0.4,0.4,0,0.3,0.5c0,0,0.1-0.1,0.1-0.2c0.1,0,0.1,0.1,0,0.2
							c0.3-0.1,0.2-0.2,0.4-0.2c0,0.1,0,0.1-0.1,0.2c0.1-0.1,0.2-0.3,0.4-0.2c0,0,0,0.1,0,0.1c0.4-0.1,0.6-0.4,1-0.3
							c-0.1,0.3,0.1,0.1,0.2,0.3l0.2-0.1l-0.1-0.1c0.2,0,0.3-0.2,0.5-0.1l-0.1,0.1l0.3-0.1l-0.2-0.1c0.2-0.1,0-0.3,0.2-0.2
							c0,0,0.2,0,0.3,0.1l0,0c0.1-0.1,0.2-0.2,0.3-0.1c0,0.1,0,0.2,0,0.3c0.1-0.2,0.4-0.1,0.5-0.3c0,0,0,0.2,0,0.2l0.1-0.2
							c0.1,0,0.1,0.1,0.1,0.2c0.3,0-0.1-0.3,0.2-0.2c0,0,0,0-0.1,0.1c0.3,0,0.6-0.1,0.9-0.1c0.1,0.2-0.3,0.1-0.1,0.2
							c0.4-0.1,0.9-0.3,1.3-0.2l-0.1,0c0-0.3,0.3,0.1,0.5,0c0,0-0.1,0.2,0,0.1c0.3,0,0.6-0.1,1-0.2l0,0.1c0.2,0.1,0.4,0,0.6,0
							c0-0.1,0.1-0.1,0.1-0.2c0.7,0.4,1-0.4,1.6-0.3c-0.1,0-0.1,0.1-0.1,0.1l0.4-0.2c-0.1-0.1-0.1-0.1-0.2-0.1
							c0-0.1,0.1-0.2,0.2-0.2c-0.1,0.2,0.1,0.2,0.2,0.2c0,0,0-0.1-0.1-0.1c0.3,0.1-0.1-0.2,0.2-0.3l0,0.1c0.1-0.1,0.1-0.2,0.2-0.3
							c0.1,0.1-0.1,0.1,0,0.2c0.1-0.1,0.1-0.4,0.3-0.4c0,0.1-0.1,0.2-0.1,0.2c0.3,0,0.2,0,0.4-0.1l0,0c0,0,0.3-0.2,0.3-0.2l-0.1,0
							c-0.1-0.4,0.2-0.4,0.2-0.8c0.1,0.4,0.1,0.1,0.2,0.2c0.1,0,0.2-0.1,0.2-0.1c-0.1-0.2,0.2-0.2,0.1-0.5c0.1,0,0.1-0.1,0.2-0.1
							c0-0.2-0.1,0-0.2,0c-0.1-0.3,0.4-0.6,0.2-1.1c-0.1-0.4-0.3-0.4-0.4-0.7c0.1-0.1,0.2,0.1,0.2,0.1c0.1-0.2,0-0.3-0.1-0.5
							c0.1,0,0.1,0,0.1-0.1c-0.1-0.1-0.2,0-0.2-0.2c0.1,0,0.2,0,0.3,0c-0.1-0.1-0.3-0.3-0.4-0.4c0.1-0.1,0.2,0,0.3,0
							c-0.1-0.2-0.4-0.4-0.5-0.3l0,0.1C90,16,90.2,16,90.2,16c0.2,0.1,0.1,0.2,0.1,0.3l-0.1-0.1c-0.2,0.3,0.3,0.4,0.4,0.6l-0.3,0
							l0.3,0.2c0,0.1-0.2,0.1-0.2,0c-0.1,0.2,0.1,0.1,0,0.3c0,0,0,0,0,0l0.1,0.1c-0.1,0-0.2,0-0.1,0c-0.1,0.3,0.2,0.4,0,0.5l0,0
							c0.1,0.4,0.2,0,0.4,0.3c0,0-0.1,0-0.2,0.1c-0.1,0-0.2,0.1-0.2,0.1l0.2,0.1c0,0,0,0.1-0.1,0.1c0.1,0.2,0.1,0,0.2,0.1
							c-0.2,0.1-0.1,0.5-0.4,0.5c0.1,0.1,0.2-0.1,0.2,0.1c-0.3-0.1-0.1,0.2-0.3,0.3c-0.1-0.1,0-0.2-0.2-0.1c0.2,0.2-0.2,0.2-0.2,0.4
							c0.2,0.1-0.1,0.3-0.2,0.5c0-0.1-0.4,0.2-0.6,0.2l0,0c0.1,0.2-0.1,0.3-0.3,0.4c0-0.1,0-0.2,0-0.3l-0.1,0.1c0,0.1,0,0.1-0.1,0.2
							l0-0.2c-0.2,0.1-0.3,0.3-0.6,0.3c0,0.1,0.3,0.3,0.1,0.5c0-0.1-0.1-0.2,0-0.3c0,0-0.1,0.1-0.1,0.1l0.1-0.2
							c-0.1,0,0,0.1-0.1,0.1c0-0.1-0.1-0.1-0.1-0.2c0,0,0.1,0,0.1,0c-0.1,0-0.3,0-0.3-0.1c0,0.1,0,0.1,0,0.2c-0.2,0-0.1-0.1-0.2-0.2
							c0,0.1-0.2,0-0.2,0.2c-0.1,0-0.1-0.1-0.1-0.1c-0.1,0.1-0.5,0.1-0.4,0.3l0,0l0,0l0,0l0,0c-0.3,0.2-0.8,0-1.1,0.1l0-0.1
							c-0.2,0.1-0.5,0.1-0.6,0.2c-0.1,0-0.2-0.1-0.1-0.2c-0.2,0-0.2,0.1-0.4,0c0.2-0.1-0.1-0.1,0.2-0.1c-0.2,0-0.3-0.1-0.5,0
							c0.1-0.1-0.2-0.2-0.3-0.1l0.2,0.1c-0.1,0-0.2,0-0.3,0l0-0.2c-0.5-0.2-0.8,0.4-1.1,0.1c-0.1,0.1,0.2,0.1,0.2,0.2
							c-0.2,0-0.4-0.3-0.5-0.3c-0.3-0.1-0.2,0.3-0.5,0.2c0,0.1,0.1,0.2-0.1,0.3c-0.2,0-0.3-0.3-0.2-0.3c0,0,0.1,0,0.1,0
							c0.1,0,0.1-0.1,0.1-0.1l0,0.1c-0.1-0.1-0.4,0-0.3-0.1c-0.1,0.1-0.1,0.1,0.1,0.1c-0.3-0.1-0.4,0-0.7,0c0,0,0.1,0.1,0.1,0.1
							c-0.4,0-0.2,0.1-0.4,0.2c-0.2-0.1,0-0.3-0.2-0.1c-0.2-0.1-0.1-0.2,0-0.2c-0.2,0.2-0.5,0-0.6,0l0.1-0.1c-0.1,0-0.1,0.1-0.2,0.1
							l0.1,0.1c-0.1,0-0.1,0-0.1-0.1c-0.1,0.1,0.1,0.2,0,0.4c-0.1-0.1-0.3,0.1-0.4-0.1c0.3,0-0.1-0.2,0.2-0.2c0,0-0.1,0-0.2,0
							c0,0,0,0,0-0.1c-0.3-0.1-0.1,0.2-0.4,0.3c0-0.1-0.1-0.2-0.2-0.2c0.1,0,0.1,0.2,0,0.3c-0.2,0-0.2,0.1-0.3,0.1l0.1,0
							c0,0.1-0.1,0.1-0.3,0.2c0-0.1,0.1-0.1,0.1-0.1c-0.1,0.2-0.4-0.1-0.6,0c-0.1-0.1,0-0.2-0.1-0.2c-0.2,0.2-0.3-0.1-0.5,0.1
							c0.1,0.1,0.1,0.1,0,0.3l0.4-0.2L76.2,22c0.1,0,0.3-0.1,0.3-0.1c-0.1,0.1-0.1,0.1,0,0.2c-0.2-0.2-0.3,0.2-0.5,0.1l-0.1-0.3
							c-0.3-0.1-0.5,0.3-0.9,0.3l0.1,0c0,0.1-0.2,0.1-0.3,0.1c0-0.1-0.1-0.1-0.2-0.2c0,0.1-0.3,0.1-0.3,0.3l-0.2-0.1
							c-0.3,0-0.3,0.4-0.6,0.4c0.1-0.1-0.1-0.2,0.1-0.3c-0.1,0-0.2,0-0.2,0.1c-0.1-0.1-0.2,0.2-0.4,0.1c0,0.1,0,0.2-0.1,0.2
							c0,0,0-0.1,0-0.1c0,0.1-0.2,0.1,0,0.2c-0.4-0.2-0.8,0.3-1.2,0.2c-0.2,0.1-0.4,0.3-0.6,0.4c0,0,0,0,0-0.1
							c-0.3,0.1,0,0.4-0.3,0.5c-0.3,0,0.1-0.2,0-0.2c-0.3-0.3-0.3,0.3-0.6,0.3l0-0.1c-0.2,0-0.2,0.4-0.4,0.6c0,0,0,0,0,0
							c0,0.3-0.1,0.6-0.2,0.8c-0.1-0.1,0-0.1-0.2-0.2c0,0.1,0.2,0.1,0.1,0.3c-0.1,0-0.3,0.1-0.4,0.1l0.1-0.2c-0.2,0-0.1,0.3-0.2,0.4
							l-0.1-0.1c-0.1,0.3,0.1,0.4-0.1,0.8l0.1,0c0.1,0.3-0.2,0.1-0.1,0.4l-0.2,0c0,0.1,0,0.5,0,0.7c-0.1-0.2-0.1-0.5-0.2-0.7
							c0,0.1-0.1,0.4,0,0.5c0-0.1,0-0.1,0-0.2c0.1,0.2,0.1,0.4,0.1,0.7c-0.4-0.2-0.3,0.6-0.6,0.7c0.1,0.5-0.2,0.9-0.3,1.4
							c0.4-0.1,0,0.2,0.3,0.2c0,0.1,0,0.2,0,0.2l-0.3,0.3c-0.1,0.1-0.1-0.1-0.1-0.1c-0.1,0.3-0.2,0.1-0.3,0.3c0.1,0,0.2,0.1,0.1,0.3
							l0.2-0.2c0.2,0.4-0.3,0.3-0.2,0.7l-0.1-0.1c0,0.2-0.1,0.7,0.2,0.9c0,0-0.1,0.1-0.2,0c-0.1,0.5,0.2,1.1,0,1.4l-0.1,0
							c0,0.1,0.2,0.2,0.1,0.3c0,0-0.1,0-0.1,0c0,0,0.1,0.2,0.1,0.4l-0.1-0.1c-0.1,0.5,0.2,0.7,0.3,1.1c-0.3,0-0.3,0.3-0.4,0.5l0,0
							c0,0.5,0.2,0.9,0.3,1.4c-0.3,0.3-0.1,1-0.2,1.5c0-0.1,0.2,0,0.2,0.1c0,0.1,0.2,0.3,0,0.3l0,0c-0.2,0.1-0.2,0.3-0.1,0.5l0.3,0
							c-0.4,0.5,0.2,1.2-0.1,1.5c0.1,0.1,0.1,0.3,0.2,0.4l-0.2,0c0,0.3,0,0.5,0.1,0.9l-0.1-0.1c0,0.2,0.5,0.2,0.5,0.4l-0.2,0.1
							c0.1,0.4-0.1,0.8,0.2,1.2c0,0-0.1,0-0.1-0.1c0,0.2-0.1,0.7,0.3,0.6c-0.2,0,0,0.4,0.2,0.6l-0.2,0c0.2,0.1,0.3,0.1,0.4,0.4
							c0,0.1-0.1,0.1-0.1,0c-0.1,0.2,0.2,0.1,0.1,0.4l-0.1-0.1c0,0.2,0.1,0.2,0.2,0.3c0.1,0.1,0,0.4-0.1,0.4c0.1,0,0.2,0.1,0.2,0.2
							c-0.1,0-0.1,0-0.1,0c0,0.4,0.3,0.5,0.2,0.7c-0.1,0-0.1,0-0.1,0.1c0-0.3-0.1-0.5-0.1-0.5c-0.1,0-0.1,0.2-0.4,0.1
							c0.1,0.2,0.4,0.4,0.4,0.6c0,0,0,0,0,0l0,0c0,0.1,0,0.1,0.1,0.1c0,0.1,0,0.1,0,0.2c-0.1,0.1,0,0.3,0,0.4c0.2,0,0.2,0.1,0.3-0.1
							c0,0,0,0,0-0.1c0,0,0,0,0,0l0,0c0-0.1,0-0.2-0.1-0.3c0.1,0.1,0.2,0.1,0.1,0.3c0.1,0,0.2,0.1,0.3,0.1c-0.2,0.2-0.2,0.5-0.4,0.6
							c0.2,0.3,0.2,0.7,0.6,0.9c0.1,0.1-0.1,0.1-0.1,0.2c0,0-0.1-0.1-0.1-0.1c0.1,0.2,0.2,0.5,0.4,0.5c0,0.3-0.2-0.1-0.1,0.2l-0.1,0
							c-0.2,0.7,0.8,0.9,0.6,1.7c0-0.1,0-0.1,0-0.1c0,0.8,0.7,1.5,0.6,2.4c0,0.2,0.2,0.2,0.3,0.3l-0.1,0.1l0.3,0.2
							c0.3,0.3-0.2,0.7,0.2,1l0.1-0.1c0,0.1,0.2,0.4,0.1,0.4c0,0,0.1,0,0.1,0.1l-0.1,0l0.3,0.3c0,0.3-0.4,0.1-0.2,0.5
							c0.1,0.1,0.4,0.3,0.4,0.2c0-0.1,0-0.2,0.1-0.2l0.1,0.1c0.3-0.1,0.6-0.1,0.6-0.5l-0.2-0.2l0.1-0.1l0.1,0.2
							c0.1-0.2-0.1-0.2-0.2-0.2c0.1,0,0.1-0.1,0.1-0.1l-0.3-0.1c0.1-0.1,0.2,0,0.2-0.1c-0.2-0.1-0.2,0.2-0.3,0
							c0.1-0.2,0.2-0.2,0-0.2c0.1,0,0.1,0,0.2,0C72.1,56.2,72,56,71.9,56c0.1-0.2-0.2-0.4,0.1-0.4c-0.1,0-0.3-0.1-0.3-0.2
							c0.4,0.1-0.1-0.4,0.2-0.5c-0.3,0-0.3-0.5-0.5-0.7c0,0,0.1,0,0.1,0c0-0.1,0-0.2,0.1-0.3c-0.2,0.1-0.3-0.2-0.5-0.2
							c0.1-0.2,0.3,0,0.5-0.1c-0.2,0.1-0.3-0.2-0.4-0.1c0.1-0.2,0-0.1,0.2-0.3c-0.3,0.1-0.1-0.1-0.3-0.2c0.1-0.2,0.2-0.1,0.1-0.3
							C71,52.6,71.2,52.8,71.2,52.8z M69.4,47.8L69.4,47.8c0,0,0,0.1,0,0.1C69.4,47.8,69.4,47.8,69.4,47.8z M69.3,47.3
							c0,0.1,0,0.1,0,0.2c-0.1,0-0.1,0-0.1,0C69.3,47.5,69.3,47.4,69.3,47.3z M68.4,48.5c0-0.1,0-0.1,0-0.1
							C68.4,48.4,68.4,48.4,68.4,48.5L68.4,48.5C68.5,48.5,68.4,48.5,68.4,48.5z"/>
						<path fill="#202020" d="M68.6,48.6C68.6,48.6,68.7,48.6,68.6,48.6C68.7,48.6,68.7,48.6,68.6,48.6L68.6,48.6L68.6,48.6z"/>
						<path fill="#202020" d="M86.2,21.2L86.2,21.2C86.2,21.2,86.2,21.2,86.2,21.2C86.2,21.2,86.2,21.2,86.2,21.2z"/>
						<polygon fill="#202020" points="68.8,41.2 68.7,41.2 68.8,41.2 						"/>
						<path fill="#202020" d="M88.7,21.1C88.7,21.1,88.8,21.1,88.7,21.1C88.8,21.1,88.8,21.1,88.7,21.1z"/>
						<path fill="#202020" d="M89.7,20.5l0.2-0.1C89.8,20.4,89.8,20.4,89.7,20.5z"/>
						<path fill="#202020" d="M90.4,19.8C90.3,19.8,90.3,19.8,90.4,19.8L90.4,19.8L90.4,19.8z"/>
						<path fill="#202020" d="M77.6,22.8L77.6,22.8C77.5,22.9,77.6,22.8,77.6,22.8z"/>
						<path fill="#202020" d="M81.4,22c0,0-0.1,0.1-0.1,0.1C81.4,22.1,81.4,22.1,81.4,22z"/>
						<polygon fill="#202020" points="73.5,23.9 73.5,23.9 73.5,23.9 						"/>
						<path fill="#202020" d="M81.1,22.1c0.1,0,0.1,0,0.2,0C81.3,22.1,81.2,22,81.1,22.1z"/>
						<path fill="#202020" d="M90.4,15.9L90.4,15.9C90.4,15.9,90.3,15.9,90.4,15.9L90.4,15.9z"/>
						<path fill="#202020" d="M90.3,15.9L90.3,15.9C90.3,15.9,90.3,15.9,90.3,15.9z"/>
						<path fill="#202020" d="M90.2,15.8l0.1,0.1C90.3,15.8,90.2,15.8,90.2,15.8z"/>
						<path fill="#202020" d="M90.9,17.1L90.9,17.1C90.9,17.1,90.9,17.1,90.9,17.1z"/>
						<path fill="#202020" d="M90.9,17.5c0-0.1,0.1-0.2,0-0.4l0,0C91,17.2,90.8,17.4,90.9,17.5z"/>
						<path fill="#202020" d="M90,18.8l0.1-0.2c-0.1,0-0.2,0.1-0.2-0.1C89.7,18.8,90.2,18.5,90,18.8z"/>
						<path fill="#202020" d="M89.6,19.5c0-0.1-0.1,0-0.1-0.1C89.5,19.5,89.5,19.5,89.6,19.5z"/>
						<path fill="#202020" d="M84.3,21.2l0-0.1C84.2,21.1,84.3,21.1,84.3,21.2z"/>
						<polygon fill="#202020" points="83.1,22 83.2,22.1 83.3,22 						"/>
						<polygon fill="#202020" points="82.4,21 82.4,21 82.2,21 						"/>
						<path fill="#202020" d="M71.9,22.9l0.1,0.1C72.1,23,72,22.8,71.9,22.9z"/>
						<path fill="#202020" d="M68.8,26.5c-0.1,0-0.2,0.1-0.2,0.2C68.7,26.7,68.8,26.6,68.8,26.5z"/>
						<polygon fill="#202020" points="67.2,40.1 67.2,40 67.2,40.2 						"/>
					</g>
				</g>
			</g>
		</g>
	</g>
</g>
</svg>
