<?xml version="1.0" encoding="utf-8"?>
<!-- Generator: Adobe Illustrator 18.0.0, SVG Export Plug-In . SVG Version: 6.00 Build 0)  -->
<!DOCTYPE svg PUBLIC "-//W3C//DTD SVG 1.1//EN" "http://www.w3.org/Graphics/SVG/1.1/DTD/svg11.dtd">
<svg version="1.1" id="Layer_1" xmlns="http://www.w3.org/2000/svg" xmlns:xlink="http://www.w3.org/1999/xlink" x="0px" y="0px"
	 viewBox="0 0 144 144" enable-background="new 0 0 144 144" xml:space="preserve">
<g>
	<g>
		<g>
			<g>
				<g>
					<path fill="#202020" d="M19.6,69.3c0-0.2-0.2-0.1-0.1,0.4l0.2,0.3L19.6,69.3z"/>
					<path fill="#202020" d="M19.4,72.2c0.1,0.5,0.3,1.1,0.5,0.7c-0.2-0.5-0.1-0.6-0.4-1.1c0-0.4,0-0.8,0.1-0.7
						c-0.1-0.2,0-0.7-0.1-0.9c-0.1,0.6-0.1,1.3,0.1,2C19.5,72.4,19.4,72.2,19.4,72.2z"/>
					<path fill="#202020" d="M39,108l-0.2-0.2C38.8,107.9,38.9,108,39,108z"/>
					<path fill="#202020" d="M63.4,116.8c-0.2,0-0.3,0-0.3,0C63.3,116.9,63.5,116.9,63.4,116.8z"/>
					<path fill="#202020" d="M67.9,117.1c-0.1,0-0.2,0-0.3,0C67.7,117.2,67.8,117.2,67.9,117.1z"/>
					<path fill="#202020" d="M39,108l0.5,0.5C39.6,108.5,39.3,108.3,39,108z"/>
					<path fill="#202020" d="M20.5,77.9c0-0.1-0.1-0.3-0.1-0.4L20.5,77.9C20.5,77.8,20.5,77.9,20.5,77.9z"/>
					<path fill="#202020" d="M30.3,100.4l-0.1-0.2c-0.1,0-0.1-0.1-0.2-0.1L30.3,100.4z"/>
					<path fill="#202020" d="M25.2,93.1c0.1,0.2,0.3,0.2,0.4,0.2c-0.1-0.1-0.2-0.2-0.3-0.3C25.2,93,25.2,93,25.2,93.1z"/>
					<path fill="#202020" d="M20.3,79.9l-0.1-0.2C20.2,79.7,20.3,79.9,20.3,79.9z"/>
					<path fill="#202020" d="M34.8,104.9C34.8,105,34.8,105,34.8,104.9C34.8,105,34.8,105,34.8,104.9z"/>
					<path fill="#202020" d="M21.1,59.3C21.1,59.3,21.1,59.3,21.1,59.3C21.1,59.3,21.1,59.3,21.1,59.3z"/>
					<path fill="#202020" d="M19.2,69.3l0-0.1c0,0-0.1,0-0.1,0L19.2,69.3z"/>
					<path fill="#202020" d="M76.2,116.5C76.1,116.5,76.1,116.5,76.2,116.5C75.9,116.5,76,116.5,76.2,116.5z"/>
					<path fill="#202020" d="M113.5,59.1c0.1,0.9-0.5-1.3-0.4,0C113.2,59,113.7,60.2,113.5,59.1z"/>
					<path fill="#202020" d="M20.6,78.1l0.1,0.4C20.6,78.3,20.6,78.2,20.6,78.1z"/>
					<path fill="#202020" d="M113.1,59.1L113.1,59.1l0,0.1C113.1,59.2,113.1,59.1,113.1,59.1z"/>
					<path fill="#202020" d="M93.6,109c0,0-0.1,0-0.2,0.1C93.4,109.1,93.5,109,93.6,109z"/>
					<path fill="#202020" d="M80.8,114.9l0.3-0.1C81,114.9,80.9,114.9,80.8,114.9z"/>
					<path fill="#202020" d="M99.2,104.2c0.1-0.1,0.2-0.1,0.4-0.3c0,0,0,0-0.1,0C99.5,104,99.4,104,99.2,104.2z"/>
					<path fill="#202020" d="M104.3,98.5c0,0-0.1,0.1-0.1,0.1c0,0.1-0.1,0.1-0.1,0.2L104.3,98.5z"/>
					<path fill="#202020" d="M31,39.1c-0.1,0.1-0.3,0.1-0.3,0.2C30.8,39.3,30.1,40.1,31,39.1z"/>
					<path fill="#202020" d="M20.4,77.9c0,0,0.1,0.1,0.1,0.2C20.5,78,20.5,77.9,20.4,77.9C20.5,77.8,20.5,77.8,20.4,77.9z"/>
					<path fill="#202020" d="M98.5,103l0.9-0.8C99.2,102.5,98.9,102.8,98.5,103z"/>
					<path fill="#202020" d="M79.5,24.4l-0.3,0C79.3,24.4,79.4,24.4,79.5,24.4z"/>
					<path fill="#202020" d="M101.8,99.7c0.2-0.1,0.4-0.3,0.5-0.4c0,0,0.1-0.1,0.1-0.1L101.8,99.7z"/>
					<path fill="#202020" d="M30.6,39.3L30.6,39.3L30.6,39.3z"/>
					<path fill="#202020" d="M26.5,45.9c0.6-1,0.1-0.6,0.1-0.8c0.7-1.2,0.5-0.5,0.8-0.8c0.2-0.4,0.3-0.7,0.5-1.1
						c0.2-0.3,0.3-0.6,0.5-0.8c0.1,0,0.1-0.1,0.1,0c0.4-0.8,1.6-2.1,2-3.1c0.1,0,0.1-0.1,0.1-0.1c-0.2,0.1-0.3,0-0.3-0.1
						c0.3-0.4,0.5-0.8,0.8-0.8c-0.2,0.2-0.2,0.3-0.3,0.4l0.3-0.4c0.5-0.2-0.4,0.6-0.3,0.7c0.6-0.8,1.3-1.8,1.9-2.4
						c0.3,0-1.2,1.4-0.4,0.8l-0.9,0.9c0.9-0.5-0.5,0.5,0.3,0.1c0.6-0.6,0.8-0.9,1.1-1.3c0.3-0.3,0.5-0.7,1.2-1.2
						c0.2-0.3-0.2,0,0-0.4c1.6-1.7,1.7-0.8,2.7-2.2c0.3-0.4,0.2-0.7,1.3-1.3l-0.2,0.4c1.3-0.9,0.5-0.8,1.9-1.7
						c-0.2,0.2-0.9,0.8-0.7,0.7c1-0.5,0.5-0.6,1.2-1l0.2,0.1c0.7-0.4,1.4-0.9,2.2-1.4c0.8-0.5,1.5-1.1,2.3-1.4
						c-0.1,0.1-0.3,0.3,0.1,0.2c1-0.5,2.1-1.1,3.3-1.6c1.2-0.4,2.3-0.8,3.4-1.1l0.8-0.5c0.2-0.1,0.4,0,0.2,0.1
						c0.9-0.2,0-0.1,0.4-0.3c0.5-0.1,0.7-0.1,0.4,0.1c0.7-0.3,1.8-0.6,2.8-0.9c0.3-0.1,0.5-0.2,0.8-0.2c0.3,0,0.5-0.1,0.8-0.1
						c0.5-0.1,1-0.1,1.4-0.1l-0.3,0.1c1.3-0.1,1.4-0.6,2.6-0.6l-0.2,0.1c1.4-0.1,2.8-0.1,4.2-0.2c0.3,0,0.7,0,1,0c0.3,0,0.7,0,1,0.1
						c0.6,0.1,1.2,0.1,1.7,0.2c0.2-0.1,0.9-0.1,1.5,0c0.7,0,1.3,0.2,1.4,0c1.5,0.4,1.1,0.4,3.2,0.8c0.6,0.1,0.9,0,1.6,0.1l0,0.2
						l1,0.1l0.5,0.3l0.7,0.1c-0.3-0.1-0.5-0.2-0.5-0.3c0.5,0.1,1.2,0.3,1.6,0.5c0.5,0.2,0.8,0.4,0.8,0.5l2.4,0.7
						c-0.1,0-0.5-0.1-0.8-0.1c1.3,0.3,0.2,0.3,1.4,0.5c-0.1-0.1,0.1-0.1,0.2-0.1c0.5,0.3,1.8,1,2.7,1.3l-0.2,0
						c1.7,0.8,3.5,1.8,5.3,2.9c-0.6-0.4-0.4-0.5,0.2-0.2l0.1,0.3c0.4,0.1-0.5-0.4,0.3-0.1c0.6,0.5,0.3,0.5-0.1,0.3l0.8,0.5
						c0,0.1-0.2,0-0.3,0c0.4,0.1,1.2,1.1,1.8,1.3l0,0.1c0.4,0.3,0.8,0.6,1.1,0.8c0.3,0.3,0.6,0.5,0.9,0.7c0.5,0.5,1,0.9,1.7,1.5
						c0.1-0.1,0.6,0.4,1.1,0.6c0.8,1,1.7,2.1,2.7,3.2c0.7,0.8,0.3,0.2,0.7,0.5c-0.1,0.2,0.9,1.4,0.3,0.8c0.6,0.7,0.9,1.2,1.3,1.7
						c0.2,0.3,0.4,0.5,0.7,0.8c0.2,0.3,0.5,0.7,0.8,1.2c-0.1-0.2-0.2-0.5-0.1-0.4c0.2,0.3,0.4,0.9,0.4,0.8l-0.1-0.1
						c0.8,1.1,1.5,2.4,2,3.7c0.3,0.7,0.5,1.3,0.8,1.9c0.1,0.3,0.3,0.6,0.4,0.8c0.1,0.3,0.2,0.5,0.4,0.8l-0.1-0.1l0.9,2
						c0.3,0.9-0.3-0.5-0.1,0.2c0.3,0.5,0.5,1,0.6,1.4c0.1,0.5,0.2,0.9,0.3,1.3c0.2,0.8,0.4,1.6,0.7,2.5c0,0.2,0,0.4,0,0.7
						c0,0.2,0,0.5,0.1,0.8c0.1,0.6,0.2,1.2,0.3,1.9c0.1,0.7,0.2,1.4,0.3,2c0,0.7,0,1.3,0,1.8l0.1-0.1c0.1,0.5,0,0.6,0,1
						c0.1-0.1,0.1-0.6,0.1-0.2c0.3,2.2,0,4.4-0.1,6.6c-0.1,1.1-0.4,2.2-0.6,3.3l-0.3,1.7c-0.2,0.5-0.3,1.1-0.5,1.6
						c-0.4,1.6,0.3,1-0.5,2.9l0-0.6c-0.3,1.6-1,3.2-1.6,4.7c-0.7,1.5-1.4,3-2.1,4.5c0.1-0.2,0-0.2,0.2-0.5c-0.4,0.5-1.3,2.1-1.2,2.2
						c-0.3,0.4-0.1,0-0.4,0.3c-0.4,0.5-0.7,1.6-1.1,1.8c-0.1,0,0.1-0.2,0.1-0.3c-0.2,0.4-1.2,1.6-0.9,1.4c-0.8,0.9-1.3,1.9-2,2.6
						c-0.3,0.6-1.5,1.5-1.4,1.8c-0.1-0.2-1.5,1.5-2.1,2c0.1-0.2-0.5,0.4-0.4,0.1c-0.6,0.6-1.2,1.2-1,1.2c-1.3,0.9-2.3,2.2-3.3,2.5
						c-0.5,0.4-1,0.8-1.5,1.2c-0.5,0.3-1,0.7-1.5,1c-0.5,0.3-1,0.7-1.5,1l-0.7,0.5l-0.8,0.4c0-0.1,0.6-0.4,1.1-0.7
						c0.5-0.3,1-0.6,0.9-0.7c-0.5,0.3-0.9,0.6-1.2,0.9c-0.4,0.2-0.8,0.5-1.2,0.7c-0.8,0.4-1.5,0.8-2.5,1.3c-0.5,0.2,0.2-0.2,0.4-0.4
						c-1,0.6-2,0.9-3,1.2c-0.5,0.2-1,0.4-1.4,0.5l-0.7,0.3l-0.7,0.2c0,0,0.2-0.1,0.4-0.2c-0.4,0.1-0.9,0.2-0.8,0.3l0.4-0.1
						c0.7,0-1.4,0.7-1.4,0.8c0.6-0.5-1.9,0.4-1-0.3c-0.2,0.1-0.5,0.2-0.5,0.3c-0.4,0.1-0.5,0.1-0.1-0.1c-0.7,0.2-0.9,0.3-1.1,0.4
						c-0.2,0.1-0.4,0.1-1,0.2c0-0.1,0.2-0.1,0.4-0.2c-0.6,0.2-1.2,0.4-2.3,0.5c0.1,0-0.1-0.1,0.2-0.1c-1.8,0.4-3.1,0.6-5.1,0.6
						c0.6-0.3-0.7,0-0.8-0.3c0,0-0.3,0-0.5,0.1c-0.3,0-0.5,0-0.5,0l0.4,0.1c-0.9-0.1-1.8,0.1-2.6,0l0.7-0.1l-1.8,0l1,0.1
						c-1,0.1,0.1,0.3-1.2,0.2c0.3,0-1,0-1.4-0.3l0,0c-0.5,0-1,0-1.6-0.2c-0.2-0.1,0.2-0.2,0.1-0.3c-0.5,0.1-2.2-0.3-2.8-0.2
						c0.2,0,0.2-0.1,0.2-0.1l-0.4,0c-0.4-0.2-0.5-0.2-0.4-0.3c-1.3-0.4,0.3,0.4-1.1-0.1c0.1,0,0.1,0,0.3,0c-0.8-0.2-1.5-0.4-2.2-0.6
						c-0.7-0.1-1.4-0.4-2.1-0.7c-0.3-0.4,1.2,0.4,0.8,0c-1-0.3-2-0.6-3-1c-1-0.3-2-0.8-2.9-1.3l0.3,0.2c-0.4,0.1-1.3-0.8-2.3-1.1
						c0.2,0.1,0.4,0,0.3,0c-1.1-0.8-2.5-1.4-4.3-2.4l0.3,0.1c-0.6-0.5-1.7-1.3-2.4-1.9c-0.3-0.1-0.7-0.4-0.5-0.1
						c-0.5-0.5-1-0.9-1.4-1.4c-0.5-0.4-1-0.8-1.5-1.2c-0.5-0.4-1-0.8-1.4-1.2c-0.4-0.5-0.8-0.9-1.1-1.4c0.2,0.2,0.5,0.5,0.4,0.3
						l-1.4-1.5c0,0.2,0.1,0.3,0.3,0.6c-0.2-0.1-0.7-0.5-1-0.9c0.7,0.6,0.1-0.1,0-0.5c0,0.1-0.1,0-0.1,0.1c-0.5-1-0.3,0-1.1-1.3
						l0.1,0c-0.4-0.4-0.7-0.8-1.1-1.3c0-0.3,0.4,0.4,0.5,0.4C28,96.3,27.2,95.8,27,95c0.2,0.3,0.5,0.7,0.7,1
						c-0.3-0.8-0.4-0.8-0.7-1.4l0,0.1l-0.7-1.2l0.1,0.3c-0.4-0.3-0.7-0.8-1-1.3c-0.2-0.2-0.3-0.5-0.5-0.8c-0.1-0.3-0.3-0.6-0.5-0.8
						C25.3,92,24.8,91,25,91c-0.1-0.3-0.3-0.9-0.2-0.7c-0.4-0.5-0.4-1-1-1.8c0-0.1-0.3-0.6-0.1-0.6c-0.4-0.8,0,0.2-0.1,0.2
						c-0.4-0.5-0.6-1.3-0.8-2.1c-0.2-0.8-0.5-1.7-1-2.5c-0.6-1.5-0.8-1.8-1.3-3.3c0-0.5,0.3,0.4,0.3,0.4c-0.1-0.8-0.3-1.4-0.5-2.2
						c0.1,0.1,0.1,0,0.1-0.3c-0.1-0.6-0.3-0.4-0.3-1.2c0.1,0.1,0.2,0.3,0.3,0.6c-0.2-0.7-0.4-1.4-0.5-2.2c0.1-0.2,0.2,0.4,0.3,0.7
						c-0.2-0.8-0.4-2.2-0.6-2.4l0,0.6c0-0.3,0.1-0.2,0.2,0.1c0.2,0.7,0.1,1.1,0.1,1.1l-0.1-0.5c-0.2,0.6,0.4,2.2,0.5,3.3L20,77.6
						l0.4,1.1c0,0.2-0.1,0.4-0.2-0.1c0,0.8,0.2,0.7,0.3,1.4c0,0.1,0,0,0,0l0.3,0.7c-0.1-0.1-0.1,0.2-0.2-0.3
						c0.2,1.4,0.7,2.1,0.7,2.7l0-0.1c0.6,1.8,0.2,0.1,0.9,1.4l-0.1,1.1l0.2,0.1c0.1,0.2,0.2,0.6,0.1,0.5c0.4,0.7,0-0.1,0.3,0.2
						c0.1,0.5,0.3,1.1,0.5,1.6c0.2,0.5,0.4,0.9,0.4,1.1c0.3,0.3-0.3-0.9,0.2,0c-0.1,0.4,0.6,1,0.8,1.9c-0.3-0.2-0.5-1-0.3-0.1
						c0.2,0.2,0.4,0.6,0.6,1c0.2,0.4,0.4,0.9,0.6,1.2c0.2-0.1,0.9,1.3,1.6,2.4c-0.2,0,1.3,2,1.9,2.9l0,0c0.3,0,0.9,1.1,1.6,1.7
						c-0.1,0.1-0.3,0-0.6-0.3c0,0,0.5,0.6,0.5,0.6c0.2,0.1,0.4,0.3,0.8,0.6l-0.3,0c0.8,0.8,1.6,1.5,2.5,2.6c0.2-0.1-0.5-1,0.6-0.1
						c0,0.1-0.1,0.2-0.4,0c0.1,0.1,0.4,0.3,0.5,0.5l-0.5-0.3c0.4,0.5,0.3,0.1,0.7,0.5c-0.1,0.1,0.2,0.3,0.1,0.3
						c-0.1-0.1-0.3-0.3-0.5-0.4c0.4,0.4,0.9,0.9,1,1.1c0-0.1,0.1-0.1,0.4,0.2c0.8,0.7,0.2,0.4,0.6,0.8c0.2,0.1,0.7,0.6,0.9,0.5
						c0.3,0.2,0.3,0.3,0.3,0.4c0.5,0.3,2.1,1.6,1.7,1l-0.1-0.1c0,0,0,0,0.1,0l0,0l0,0c0.4,0.2,0.8,0.5,1.2,0.8
						c0.4,0.3,0.8,0.5,1.2,0.8c0.8,0.5,1.6,1.1,2.4,1.5l0,0c1,0.5,2.2,1,2.9,1.3c0.3,0.1,0.6,0.4,0.5,0.4c0.8,0.3,0.9,0.4,2,0.8
						c-0.8-0.2,0.2,0.2-0.8-0.2c1,0.4,1.2,0.6,2.4,0.8c-0.4,0,0.7,0.5,1.2,0.6l-0.7-0.4c0.6,0.2,1,0.4,1.5,0.6l-0.3,0.1
						c1,0.4,2.1,0.6,3,0.7c0.9,0.1,1.8,0.4,2.6,0.6c0.6,0-1.2-0.3-0.6-0.3c1,0.2,2,0.6,2.3,0.7c1.4,0.3,1.3,0,2.8,0.2
						c-0.2-0.1-0.3-0.3,0.8-0.3c1,0.1,1.2,0.3,0.6,0.4c-0.2,0-0.4,0-0.4-0.1c-0.3,0-0.8,0-0.4,0.1l0.1-0.1c0.5,0.1,1.9,0.2,1.6,0.3
						c0.8,0,0.3-0.1-0.2-0.2c1.3,0.1,2.1,0.2,3.4,0.1c-0.2,0-0.4-0.1-0.2-0.1c2,0,0.9-0.2,2.2-0.3c0.8,0.1-0.3,0.3,1.1,0.1
						c0.8,0,0.2,0.2-0.1,0.2c0.3,0,0.6-0.1,0.9-0.1c0.3,0,0.6-0.1,0.8-0.1c0.5,0,1,0,1.3-0.1L73,117c0.4-0.1,0.7-0.1,1-0.2l-0.4-0.1
						c0.4,0,0.7-0.1,0.7,0c0.4-0.1-0.3-0.2,0.4-0.4c0.5,0,1.5-0.3,1.7-0.2c-1.6,0.2,0.2,0.2-1.1,0.4c0.3-0.1,0.6-0.1,1-0.1
						c0.1,0,0,0.1-0.1,0.1c1.5-0.2,0.6-0.4,2.2-0.8c-0.2,0.1,0.4,0.1,0.7,0c-0.6,0.2-0.3-0.1,0.2-0.3c1-0.2,1.1-0.3,1.6-0.5
						l-0.6,0.1c0.2-0.1,0.7-0.3,1.3-0.5c0.1,0.1-0.6,0.3-0.3,0.2c0.7-0.4,1.7-0.4,2.7-0.9c0.5-0.1,0.1,0.2,0.6,0.1
						c1.1-0.5,1.3-0.4,2.4-1c-0.4,0-0.4,0.1,0.3-0.4l-1.9,1l1.2-0.8c-0.6,0.3-1.2,0.7-1.6,0.8c0.6-0.3,0.5-0.3,0.2-0.3
						c0.9-0.2,1.5-0.9,2.5-1.2l0.1,0.3c0.7-0.3,1.3-0.6,1.9-1c0.6-0.4,1.3-0.9,2.1-1.4l-0.6,0.3c0.2-0.3,1-0.7,1.6-1
						c0,0.1,0.4,0,0.7-0.1c-0.1,0,1.2-0.9,1.2-1.2l0.8-0.4c1.3-0.9,1.3-1.3,2.4-2.3c-0.3,0.4,0.3,0-0.4,0.8c0.4-0.3,0.7-0.6,0.7-0.7
						c0.3-0.2,1-1.1,1.4-1.3c0.1-0.2,0.1-0.3,0.5-0.7c0.1,0,0,0,0,0c0,0,0.6-0.7,0.1-0.4c0.7-0.5,1.4-1.3,2.1-2.1
						c0.4-0.4,0.7-0.8,1-1.2c0.3-0.4,0.6-0.7,0.9-0.9c0.6-0.9,1.4-2,2-2.9c0,0.1,0,0-0.1,0.2c0.8-1.1,0.2-0.9,1.1-2.2
						c0.6-0.6-0.4,0.8,0,0.4c0.4,0,1-1.6,1.7-2.5l-0.1,0.2c0.5-0.7,0.7-1.9,1.4-3.1c0,0,0,0.1,0,0c0.3-0.9,0.8-2.6,1.2-3.8
						c0,0.4-0.1,0.6,0.1,0.4c0.2-0.6-0.3,0.1,0.1-1c0.2-0.3,0.6-1.1,0.7-1.1c0,0-0.3,1-0.3,1c0.2-0.2,0.3-0.6,0.4-0.9
						c0.1-0.4,0.1-0.7,0.2-1l0.1,0.1c0.4-1.6,0.2-1.7,0.6-3.4l-0.1,0.2c0-1,0.3-0.8,0.3-1.8l0.3-0.3c0-0.6,0.1-2.3,0.2-3.4
						c0.1,0.7,0,2,0,2.9c0.1-0.6,0.3-2.2,0.3-2.5c0,0.3,0,0.6-0.1,0.8c0-0.8-0.1-1.8,0-3.1c0.4,0.2,0.3-3.3,0.5-4.3
						c-0.1-1.1-0.2-2.3-0.2-3.4c-0.1-1.2-0.3-2.4-0.5-3.7c-0.2,1-0.1-0.8-0.4-0.5c-0.1-0.6-0.2-0.8-0.2-0.9l-0.3-1.9
						c0-0.5,0.2,0.5,0.3,0.5c-0.3-1.3,0-0.6-0.1-1.5c-0.1,0.2-0.3-0.4-0.4-1.2l0.1,1.1c-0.3-0.9-0.4-1.3-0.4-1.7
						c-0.1-0.4-0.1-0.8-0.6-1.7l0.3,0.5c-0.2-0.4-0.5-1.3-0.8-2.1c-0.1-0.2-0.2-0.4-0.3-0.6c-0.1-0.2-0.2-0.4-0.3-0.5
						c-0.2-0.3-0.4-0.6-0.6-0.8c0-0.2-0.1-0.4,0.2,0c-0.5-1.1-1.1-2.2-1.8-3.3c-0.7-1-1.3-2-1.7-2.8l0.2,0.1c-0.3-0.4-0.5-0.6-0.8-1
						c0,0,0.2,0.1,0.1-0.1c-0.2-0.2-0.8-0.8-1.1-1.3l0.4,0.3c-0.6-0.9-1.2-1.6-1.8-2.2c-0.6-0.6-1.2-1.1-1.9-1.8
						c0.2-0.1-0.9-1.6-1.6-2.2l0,0c-1-0.9-1.8-1.6-2.7-2.3c-0.9-0.7-1.8-1.2-2.8-1.9c-0.3-0.3-0.7-0.6-1.1-1
						c-0.5-0.4-1.1-0.7-1.6-1.1c-1.2-0.7-2.5-1.6-3.6-2.1c0.3,0.2-0.1,0.1-0.5,0c-0.5-0.3-1.5-0.5-1.3-0.7l0.2,0.1
						c-0.3-0.4-1.4-0.9-2.3-1.2l-0.3,0.2c-1.1-0.6-2.5-1.2-3.9-1.5c-1.4-0.3-2.7-0.6-3.3-0.9c-0.6-0.1-1.3-0.2-1.9-0.2l0.1-0.2
						c-0.8-0.1-1.4-0.2-2-0.4c-0.3,0-0.7-0.1-1-0.2c-0.4-0.1-0.8-0.1-1.3-0.1l0.4-0.1c-1.1-0.1-1.5,0.4-2.5,0.4l-0.3-0.3
						c-2-0.2-4-0.2-5.9,0.1c0,0,0.1-0.1,0.4-0.1c-0.9,0-3.6,0.3-3.2,0.5c-0.1-0.2-2,0.3-3,0.6l0.1-0.2c-0.8,0.4-0.8,0.5-2,0.8
						c-0.3,0.1-0.3-0.1,0.1-0.1c-1,0.2-0.7,0.3-1.9,0.6l0.4-0.2c-1,0.3-0.9,0.2-1.4,0.6c-0.6,0.3-1.8,0.6-2,0.5
						c-0.1,0.1-0.6,0.4-1.1,0.6c-0.1,0,0.1-0.1,0.2-0.2c-0.4,0.1-0.8,0.2-1.1,0.4c-0.3,0.1-0.6,0.3-0.8,0.4
						c-0.5,0.3-0.9,0.5-1.5,0.7c0,0-0.1,0-0.2,0c1.2-0.6,2.2-1,2.1-1c-0.1-0.1-1.1,0.3-0.4-0.3c-0.7,0.5-2,1.3-3,1.7
						c-0.1,0-0.1,0-0.2,0l0.1-0.1c-0.2,0.1-0.4,0.2-0.6,0.3c-0.3,0.2-0.5,0.3-0.8,0.4c-0.2,0-1.1,0.6-1.6,0.9
						c0.1,0.1-0.5,0.5,0.1,0.2c-0.1,0,0.1-0.1,0.4-0.3c0.1,0,0.1-0.1,0.2-0.1l0,0c0.3-0.2,0.7-0.4,1.1-0.7c-0.3,0.3-0.7,0.6-1.2,0.8
						c-0.2,0.2-0.4,0.5-0.5,0.6c-0.4,0.1-0.9,0.3-1.3,0.5c-0.5,0.2-0.8,0.4-0.9,0.4c-0.6,0.5-1.4,1.1-2.1,1.7
						c-0.3,0.3-0.7,0.6-1,0.8c-0.3,0.3-0.5,0.6-0.6,0.8c-0.3,0.3-0.5,0.3-0.6,0.4c0.2-0.2,0.4-0.4,0.5-0.6c-0.6,0.7-2,1.9-2.1,2.2
						c-0.9,0.7,0.3-0.6-0.8,0.6l0.1-0.2c-1.2,1.1-2,2.1-2.8,3.2c-0.7,1.1-1.4,2.3-2.7,3.6c0.2-0.2,0.3-0.3,0.3-0.3
						c-2.4,3.2-4.2,7.2-5.7,10.8c-0.4,1-0.4,1.2-0.5,1.9L21,55c0,0,0,0.3-0.1,0.6c0,0.3-0.1,0.6-0.1,0.6c-0.1,0.8-0.4,1.5-0.7,2.2
						c-0.1,0.4-0.3,0.8-0.4,1.2c-0.1,0.4-0.1,0.9-0.2,1.4l0.2-0.2c-0.1,0.7-0.3,2.4-0.4,2.2c0,0.1,0.1,0.3,0,0.5l-0.1,0
						c0,0,0,0.5-0.1,0.9c0,0.5,0,0.9,0,0.9c-0.1,1.4-0.3-0.3-0.5,1.9c0,0.8,0.2,2.2,0.2,2c0-0.3,0.1-0.8,0.2-0.8l0,0.7
						c0.3,0.1,0.5,0.7,0.8-1.1l-0.1-1.2l0.1-0.4l0,1c0.2-0.6,0.1-0.9,0-1.4c0.1-0.1,0.1-0.3,0.2-0.5L20,64.5
						c0.1-0.1,0.1,0.5,0.3-0.2c0-0.6-0.3,0.5-0.3-0.4c0.2-0.6,0.3-0.4,0.3-1.1c0.1-0.1,0.1,0.1,0.1,0.3c0-0.6,0.2-1.6,0.1-1.9
						c0.1-0.3,0.2-0.8,0.3-1.2c0.1-0.4,0.2-0.7,0.3-0.7c0-0.2,0.1-1.1,0.2-1.6c0,1.1,0.5-2,0.8-1.7c-0.1-0.8,0.8-2.6,1.1-3.9
						c0,0.1,0,0.2-0.1,0.3c0.3-0.7,0.4-0.9,0.6-1.3c-0.2-0.2,0.3-1.2,0.4-1.9c0.6-0.7,0,0.6,0.3,0.4c-0.2,0,0.5-1.5,0.3-1.3
						c0.4-0.6,0.3-0.5,0.6-0.8c-0.2-0.2,0.2-0.6,0.4-1.2c0.6-0.8,0.4-0.1,0.9-1.1C26.9,45,26.5,45.9,26.5,45.9z M45,27.6L45,27.6
						c-0.2,0.1-0.4,0.2-0.5,0.2C44.7,27.8,44.8,27.8,45,27.6z M47.1,26.7c-0.2,0.1-0.6,0.3-0.9,0.4c-0.1,0,0-0.1,0.2-0.2
						C46.2,27,46.7,26.8,47.1,26.7z M42.3,27.9c0.3-0.2,0.4-0.2,0.5-0.2c-0.1,0.1-0.3,0.2-0.5,0.3c0,0,0,0,0,0
						C42.2,28,42.3,27.9,42.3,27.9z"/>
					<path fill="#202020" d="M41.9,28.4c0,0-0.1,0-0.1,0.1C41.8,28.4,41.9,28.4,41.9,28.4c0.1,0,0.1-0.1,0.2-0.1
						C42,28.3,41.9,28.4,41.9,28.4z"/>
					<path fill="#202020" d="M38.8,107.8L38.8,107.8C38.8,107.8,38.7,107.8,38.8,107.8C38.7,107.8,38.7,107.8,38.8,107.8z"/>
					<polygon fill="#202020" points="77.1,23.9 77.1,23.9 76.9,23.8 					"/>
					<path fill="#202020" d="M30.1,99c0,0,0-0.1-0.1-0.2C30.1,98.8,30.1,98.9,30.1,99z"/>
					<path fill="#202020" d="M27.1,94.6L26.7,94C26.9,94.3,27,94.5,27.1,94.6z"/>
					<path fill="#202020" d="M25.1,91.1C25,91.1,25,91.1,25.1,91.1L25.1,91.1L25.1,91.1z"/>
					<path fill="#202020" d="M80.2,114c0.1,0,0.1,0,0.1,0C80.7,113.8,80.5,113.9,80.2,114z"/>
					<path fill="#202020" d="M61.1,116c0.2,0,0.4,0,0.6,0C61.4,116,61.2,116,61.1,116z"/>
					<polygon fill="#202020" points="98.4,103.1 98.4,103.1 98.5,103 					"/>
					<path fill="#202020" d="M62.7,116.1c-0.3,0-0.6-0.1-0.9,0C62,116.1,62.4,116.1,62.7,116.1z"/>
					<path fill="#202020" d="M20,74.3l0-0.2c0,0,0,0,0,0L20,74.3z"/>
					<path fill="#202020" d="M20,74.1l0-0.2C19.9,73.9,19.9,74,20,74.1z"/>
					<path fill="#202020" d="M19.9,73.4l0.1,0.5C19.9,73.7,19.9,73.5,19.9,73.4z"/>
					<path fill="#202020" d="M20.8,79.6L20.8,79.6C20.9,79.6,20.9,79.6,20.8,79.6z"/>
					<path fill="#202020" d="M21.3,81.2c-0.1-0.4-0.1-1-0.3-1.5l-0.1,0C21.1,79.9,21.1,80.8,21.3,81.2z"/>
					<path fill="#202020" d="M22.8,88c0,0-0.4-1.3-0.4-1.3c0,0.3,0.1,0.6-0.2,0C22.6,88.3,22.1,86.2,22.8,88z"/>
					<path fill="#202020" d="M24.6,91.9c-0.4-0.7-0.1,0.1-0.1,0C24.7,92.3,24.8,92.4,24.6,91.9z"/>
					<path fill="#202020" d="M47.1,112.8l-0.1,0.1C47.5,113.2,47,112.9,47.1,112.8z"/>
					<path fill="#202020" d="M52.9,114.2c0,0-0.1-0.1-0.3-0.1c-0.1-0.1-0.2-0.1-0.2-0.1l-0.3,0c0,0,0.2,0.1,0.4,0.1
						C52.7,114.2,52.9,114.2,52.9,114.2z"/>
					<polygon fill="#202020" points="56.1,116.1 55.8,116.1 56.8,116.3 					"/>
					<path fill="#202020" d="M103.6,99.7l-0.3,0C103.1,100,103.2,100.2,103.6,99.7z"/>
					<path fill="#202020" d="M113.3,79.3c0.2-0.2,0.3-0.8,0.3-1.2C113.5,78.6,113.3,79,113.3,79.3z"/>
					<polygon fill="#202020" points="83.2,24.2 83.7,24.3 82.8,24.1 					"/>
				</g>
			</g>
		</g>
	</g>
</g>
</svg>
