<?xml version="1.0" encoding="utf-8"?>
<!-- Generator: Adobe Illustrator 18.0.0, SVG Export Plug-In . SVG Version: 6.00 Build 0)  -->
<!DOCTYPE svg PUBLIC "-//W3C//DTD SVG 1.1//EN" "http://www.w3.org/Graphics/SVG/1.1/DTD/svg11.dtd">
<svg version="1.1" id="Layer_1" xmlns="http://www.w3.org/2000/svg" xmlns:xlink="http://www.w3.org/1999/xlink" x="0px" y="0px"
	 viewBox="0 0 144 144" enable-background="new 0 0 144 144" xml:space="preserve">
<pattern  width="36" height="34.9" patternUnits="userSpaceOnUse" id="New_Pattern_Swatch_1" viewBox="0 -34.9 36 34.9" overflow="visible">
	<g>
		<polygon fill="none" points="0,0 36,0 36,-34.9 0,-34.9 		"/>
		<g>
			<g>
				<g>
					<g>
						<g>
							<g>
								<path fill="#202020" d="M11.1-23C11.1-23,11.1-23,11.1-23L11.1-23L11.1-23z"/>
								<path fill="#202020" d="M11.3-22.8C11.3-22.8,11.4-22.8,11.3-22.8C11.3-22.8,11.3-22.8,11.3-22.8
									C11.2-22.8,11.2-22.8,11.3-22.8c-0.1-0.1-0.1-0.1-0.2-0.1C11.1-22.8,11.2-22.8,11.3-22.8C11.3-22.8,11.3-22.8,11.3-22.8z"/>
								<path fill="#202020" d="M13.8-21.4L13.8-21.4C13.8-21.5,13.8-21.4,13.8-21.4z"/>
								<path fill="#202020" d="M16-21.7C16-21.7,16-21.7,16-21.7C16-21.7,16-21.7,16-21.7z"/>
								<path fill="#202020" d="M16.4-21.3C16.4-21.3,16.3-21.3,16.4-21.3C16.3-21.3,16.4-21.3,16.4-21.3z"/>
								<path fill="#202020" d="M13.8-21.4L13.8-21.4C13.9-21.4,13.8-21.4,13.8-21.4z"/>
								<path fill="#202020" d="M11.6-22.5C11.6-22.5,11.6-22.5,11.6-22.5C11.6-22.5,11.6-22.5,11.6-22.5L11.6-22.5z"/>
								<polygon fill="#202020" points="13.2,-22.6 13.2,-22.6 13.2,-22.7 								"/>
								<path fill="#202020" d="M13.1-22.1C13.1-22.1,13.1-22.1,13.1-22.1C13.1-22.1,13.1-22.1,13.1-22.1
									C13.1-22.1,13.1-22.1,13.1-22.1z"/>
								<path fill="#202020" d="M11.5-22.3L11.5-22.3L11.5-22.3z"/>
								<path fill="#202020" d="M13.3-21.8L13.3-21.8C13.3-21.8,13.3-21.8,13.3-21.8z"/>
								<path fill="#202020" d="M10-22.9L10-22.9C10-22.9,10.1-22.9,10-22.9z"/>
								<polygon fill="#202020" points="11.2,-22.9 11.2,-22.9 11.2,-22.9 								"/>
								<path fill="#202020" d="M17.3-20.9L17.3-20.9C17.3-20.9,17.3-20.9,17.3-20.9z"/>
								<path fill="#202020" d="M20.1-25.8C20.1-25.7,19.9-25.9,20.1-25.8C20-25.8,20.2-25.7,20.1-25.8z"/>
								<path fill="#202020" d="M11.6-22.5L11.6-22.5C11.6-22.5,11.6-22.5,11.6-22.5z"/>
								<polygon fill="#202020" points="20,-25.8 20,-25.8 20,-25.8 								"/>
								<path fill="#202020" d="M19.4-21.7C19.4-21.7,19.4-21.7,19.4-21.7C19.3-21.7,19.4-21.7,19.4-21.7z"/>
								<path fill="#202020" d="M17.9-20.9L17.9-20.9C17.9-20.9,17.9-20.9,17.9-20.9z"/>
								<path fill="#202020" d="M19.7-22.6C19.7-22.6,19.7-22.6,19.7-22.6L19.7-22.6C19.7-22.6,19.7-22.6,19.7-22.6z"/>
								<polygon fill="#202020" points="20.3,-22.5 20.3,-22.5 20.3,-22.5 								"/>
								<path fill="#202020" d="M10.2-24.7C10.2-24.7,10.2-24.6,10.2-24.7C10.2-24.6,10.2-24.5,10.2-24.7z"/>
								<path fill="#202020" d="M11.6-22.5C11.6-22.5,11.6-22.5,11.6-22.5L11.6-22.5C11.6-22.5,11.6-22.5,11.6-22.5z"/>
								<path fill="#202020" d="M19.6-22.7l0-0.3C19.6-22.8,19.6-22.7,19.6-22.7z"/>
								<path fill="#202020" d="M14.9-27L14.9-27C14.8-27,14.9-27,14.9-27z"/>
								<path fill="#202020" d="M20.1-22.7C20.1-22.7,20.1-22.7,20.1-22.7C20.1-22.7,20.2-22.7,20.1-22.7L20.1-22.7z"/>
								<path fill="#202020" d="M10.2-24.6L10.2-24.6L10.2-24.6z"/>
								<path fill="#202020" d="M9.6-24.1c-0.1,0.1,0,0-0.1,0.1c0,0.1-0.1,0.1,0,0.1c0,0,0,0-0.1,0.1c0,0,0,0.1,0,0.1
									c0,0,0-0.1-0.1,0c0,0.1,0,0.2,0.1,0.2c0,0,0,0.1,0,0.1c0,0,0,0,0,0c0.1,0.1,0.2,0.3,0.3,0.3c-0.1,0,0.3,0.2,0.1,0.1
									c0.1,0,0.2,0,0.2,0c0,0,0.1,0.1,0.2,0.1c0,0,0.1,0,0.2,0c0,0,0,0,0,0c0.1,0,0.1,0,0.1,0c0.1,0,0,0,0,0c0.1,0,0,0,0,0
									l0.1-0.1c0,0,0,0,0.1,0c0,0,0.1,0,0.1-0.1l-0.1,0l0,0l0.1-0.1c0.2-0.1,0.2,0,0.2,0l-0.1,0c0,0,0.1,0,0.1,0
									c0,0-0.1,0.1-0.2,0.1c-0.3,0.1-0.1,0-0.2,0c0,0-0.2,0-0.2,0l0,0c0,0-0.1,0-0.1,0c0,0-0.2,0-0.3,0l0,0
									c-0.3,0-0.4-0.2-0.6-0.2L9.5-23l0,0c-0.1,0-0.1,0-0.2-0.2c-0.3-0.4,0-1.1,0.5-1.3c0,0,0,0-0.1,0c0.2-0.1,0.4,0,0.3-0.2
									c-0.1-0.2-0.1-0.3,0-0.5l0,0c0.1-0.2,0,0,0.1-0.1c0,0,0.1-0.2,0.2-0.3c0,0,0,0,0,0.1c0,0,0,0,0.1-0.1c0-0.1,0.3-0.3,0.5-0.4
									c0,0,0.2,0,0.3,0c0,0,0.1,0,0.1-0.1c0.1,0,0.1,0,0.2,0c-0.1,0-0.1,0-0.2,0l0,0c0,0,0,0,0,0c0,0-0.1,0-0.1,0c-0.1,0,0,0,0,0
									c0.1,0,0.2,0,0.2,0c0,0,0.1,0,0.1,0c0,0,0.1,0,0.1,0l0,0c0,0,0,0,0,0c0.1,0,0.3,0,0.4,0c-0.1,0,0,0,0,0.1c0,0-0.1,0-0.3-0.1
									c0,0,0,0,0,0c0.1,0,0.3,0,0.4,0.1c0,0,0,0,0,0c0,0,0.1,0,0.1,0c0,0,0.1,0.1,0,0c0,0,0-0.1,0-0.1c0,0,0,0,0-0.2l0,0.1
									c0-0.1,0-0.1,0-0.2c0,0,0,0.1,0,0c0-0.1,0-0.1,0.1-0.3l0,0c0.1-0.1,0.2-0.3,0.3-0.3c-0.1,0,0.2-0.2,0.3-0.2c0,0,0,0,0,0
									c0.2-0.1,0.5-0.2,0.7-0.2l0,0c0.1,0,0.1-0.1,0.3-0.1l0,0c0.2,0,0.3,0,0.5,0l0,0c0.1,0,0.1,0,0.2,0c0.1,0,0.7,0,0.9,0.3l0,0
									c0.1,0.1,0.2,0.2,0.2,0.3l0,0c0,0,0,0.1,0,0.1c0,0,0.1,0,0,0c0.3-0.1,0.7-0.2,0.9-0.2c0.3,0,0.5-0.1,0.8,0l0,0
									c0.1,0,0.3,0.1,0.3,0.1c0.2,0.1,0.4,0.1,0.6,0.3l-0.1,0c0.1,0.1,0.1,0.1,0.2,0.2c0,0,0,0,0,0c0,0.1,0.1,0.1,0.1,0.1l0,0
									c0.1,0.1,0.1,0.4,0.1,0.4l0,0c0,0,0.1,0,0.2,0c0,0,0,0,0,0c0.1-0.1,0.4-0.1,0.5-0.1l-0.1,0c0.2,0,0.2,0,0.4,0l-0.1,0
									c0.1,0,0.2,0,0.2,0c0.1,0,0,0,0.2,0.1c0,0-0.1,0-0.1,0c0,0,0.2,0.1,0.2,0.1c0,0,0,0,0.1,0c0-0.1,0.2,0.1,0.1,0
									c0.3,0.2,0.5,0.5,0.4,0.8c0,0.1-0.2,0.4-0.2,0.4c0,0,0,0-0.1,0c0,0-0.1,0.1-0.1,0.1c0,0,0.1,0,0.2-0.1c0,0,0,0-0.1,0
									c0,0,0.1,0,0.1,0c0,0,0,0,0,0l-0.1,0c-0.1,0-0.1,0-0.2,0.1c0.1,0,0.1,0,0.2-0.1c0.1,0,0.1,0,0.1,0l0,0
									c0.1,0,0.1,0.1,0.2,0.1l0,0c0.2,0.1,0.2,0.1,0.3,0.3l0,0c0,0.1,0.1,0.2,0.1,0.2l0-0.1c0,0,0,0.1,0,0.2c0,0.1,0,0,0.1,0.1
									c0,0,0,0,0,0c0,0.2,0,0.4,0.1,0.5c0,0,0,0,0,0c0,0.2,0,0.3-0.1,0.4l0,0c-0.1,0.1-0.2,0.3-0.3,0.3c-0.1,0,0.1-0.1,0,0
									c-0.2,0.1-0.1,0.1-0.3,0.2c0,0,0,0,0,0c-0.1,0-0.3,0.1-0.4,0.1c-0.2,0-0.5-0.1-0.6-0.2c0,0,0,0,0,0c0,0,0,0,0,0l0,0
									c0,0,0,0.1,0,0.1l0,0c0,0,0,0.1,0,0.1c0,0,0,0.2,0,0.2c0,0,0,0.1,0,0.1c0-0.1,0,0,0-0.1c-0.1,0.2,0,0.2-0.1,0.4l-0.1,0.1
									c0,0-0.1,0.2-0.1,0.2c0,0-0.1,0.1-0.1,0c0,0.1-0.1,0.1-0.1,0.2l0.1,0c-0.2,0.2-0.3,0.3-0.4,0.4l0,0c-0.1,0-0.2,0.1-0.3,0.1
									c0,0,0,0,0,0c0,0,0.1-0.1,0.2-0.1l-0.1,0.1l0.2-0.1c-0.1,0.1-0.1,0.1,0,0.1c-0.1,0.1-0.2,0.1-0.3,0.1c-0.1,0,0,0-0.1,0
									C18.1-21,18-21,17.9-21c0,0,0.1,0,0,0c-0.1,0-0.1,0-0.2,0l0.1,0c-0.1,0-0.1,0-0.2,0c-0.1,0-0.1,0,0,0c0,0-0.1,0-0.1,0
									c-0.2,0-0.1,0.1-0.3,0c0,0,0,0,0,0c0,0-0.1,0-0.1,0c0.2,0,0,0,0.1,0c0,0-0.1,0-0.2,0c-0.1,0,0,0-0.1,0c0,0,0,0-0.1,0l0,0
									c0,0-0.1,0-0.1,0l0.1,0c-0.1,0-0.2-0.1-0.3-0.1c0,0,0.1,0,0,0c-0.2-0.1,0,0-0.1-0.1c-0.1-0.1,0,0-0.2-0.1c0,0,0,0,0,0
									c-0.1-0.1-0.2-0.2-0.3-0.3c0,0.1,0.1,0.1,0,0c0,0-0.1-0.1-0.1-0.2l0,0c0-0.1,0,0,0,0c0,0,0,0,0,0c0,0.1,0.1,0,0-0.1
									c-0.1-0.1-0.1-0.1-0.1-0.1c-0.1-0.2-0.1-0.1-0.1-0.3l-0.1-0.6l0.2,0.6c0,0,0,0,0,0c0,0,0,0.2,0,0.3c0,0.1,0-0.2,0.1-0.1
									c-0.1,0.2-0.2,0.5-0.5,0.5l0,0c-0.1,0-0.1,0-0.2,0.1l0.1,0c-0.1,0-0.2,0.1-0.2,0c-0.1,0.1-0.2,0-0.3,0.1c0.1,0,0,0,0.1,0
									c-0.1,0-0.2,0-0.3,0c0,0,0,0-0.1,0c-0.1,0-0.3,0-0.4,0l0,0c-0.2,0-0.4-0.1-0.7-0.2l0,0l0,0c0,0,0,0,0,0l0,0
									c0.1,0.1-0.2-0.1-0.2-0.1c0,0,0,0,0-0.1c0,0-0.1,0-0.1-0.1c0-0.1,0,0-0.1-0.1c0,0,0,0,0,0c0-0.1,0-0.1-0.1-0.2
									c0,0,0,0.1,0,0.1c0,0,0,0,0,0c0-0.1,0,0,0-0.1l0,0.1c0,0,0-0.1,0-0.1c0,0,0,0,0,0c-0.1-0.2-0.1,0-0.1,0c0-0.2,0-0.3,0-0.4
									l0,0c0-0.1,0-0.1,0-0.1l0-0.1c0,0.1,0,0.1,0,0.1c0-0.1,0-0.1,0.1-0.2l0,0l0,0c0,0,0.1,0.1,0.1,0.1l0,0
									c0.1,0.2-0.1,0.5-0.1,0.4c-0.1,0.1-0.3,0.2-0.3,0.2C13-22,12.9-22,12.8-22c-0.1,0,0,0,0,0c-0.1,0-0.2,0.1-0.2,0
									c-0.1,0,0,0,0,0c0,0-0.2,0-0.3,0c-0.1,0,0.1,0,0,0c0,0,0,0-0.1,0l0,0L12-22c-0.2,0,0,0.1-0.2,0l0,0c0,0-0.2-0.1-0.3-0.2
									c0,0.1,0,0,0,0l-0.1-0.1c0,0,0,0,0,0c0-0.1,0-0.1-0.1-0.2c0,0.1,0,0,0,0c0,0,0-0.1,0-0.1l0,0.1c0,0,0-0.1,0.1-0.2
									c0-0.1,0.1-0.1,0.1-0.1l0,0l0.1,0c0,0,0,0,0,0c0,0,0.1-0.1,0.1-0.1c-0.1,0.1-0.1,0.1-0.3,0.2c-0.1,0.1-0.1,0.1-0.1,0.1
									c0,0-0.1,0-0.1,0c0,0,0.2-0.1,0.5-0.3c0,0-0.1,0.1-0.2,0.2c0.1-0.1,0.1-0.1,0-0.1c-0.1,0.1-0.3,0.3-0.3,0.4c0,0,0-0.1,0-0.1
									c-0.1,0.1,0,0.1,0,0.2c0,0,0,0,0,0c0,0.1,0.1,0.1,0.1,0.2c0,0-0.1-0.1-0.1,0c0.1,0.1,0.2,0.1,0.3,0.2c0.2,0,0.4,0.1,0.6,0
									c0,0-0.1,0,0,0c0,0,0.1,0,0.1,0c0.1,0,0.2,0,0.2-0.1c0,0,0,0,0.1,0c0,0,0.1,0,0,0.1c0.1-0.1,0.3-0.1,0.4-0.2l0,0
									c0,0,0.1-0.1,0.1-0.1l0,0c0,0,0.1-0.1,0.1-0.1c0,0,0,0.1-0.1,0.1c0.1-0.1,0.1-0.2,0.1-0.2c0,0,0,0.1,0,0.1
									c0-0.1,0-0.1,0-0.2l0,0c0-0.1-0.1-0.1-0.1-0.1l0,0c0,0,0,0,0,0c0,0,0,0,0,0c0,0-0.1,0.1-0.1,0c0,0.1,0,0.1,0,0.2
									c0,0,0-0.1,0-0.1c0,0,0,0.2,0,0.2c0,0,0,0,0-0.1c-0.1,0.3,0.1,0.5,0.3,0.8c0,0,0,0,0.1,0c0.1,0.1,0.2,0.1,0.3,0.2l0,0
									c0.2,0.1,0.4,0.1,0.6,0.1c0,0,0,0,0,0c0.1,0,0.3,0.1,0.3,0l0,0c0.2,0,0.5-0.1,0.7-0.2c0.1,0-0.1,0-0.1,0.1
									c0.2,0,0.3-0.1,0.4-0.3c0,0,0,0,0,0c0.1-0.1,0,0,0.1-0.1c0,0,0,0,0,0l0,0c0,0,0,0,0,0c0-0.1,0-0.3,0-0.3c0,0,0,0,0,0l0,0
									c0,0,0,0,0,0c0,0.1,0,0.1,0.1,0.2l0,0c0,0.1,0.1,0.2,0,0.2c0.1,0.1,0,0,0.1,0.1l0-0.1c0,0,0.1,0.2,0.1,0.2l-0.1-0.1
									c0,0.1,0.1,0.1,0.2,0.2l0,0l0.1,0.1c0,0,0.1,0.1,0,0.1c0.2,0.2,0.3,0.2,0.5,0.2c0,0,0,0,0,0c0.1,0,0.2,0,0.3,0c0,0,0,0,0,0
									c0.1,0,0.1,0,0.3,0c0,0,0,0,0,0c0,0,0,0,0.1,0c-0.1,0.1,0.2,0,0.1,0.1c0,0,0.3-0.1,0.2-0.1l0,0c0,0,0.1,0,0.1,0c0,0,0,0,0,0
									c0.2,0,0.5-0.1,0.7-0.2c0,0-0.1,0.1,0,0c0.2-0.1,0.4-0.2,0.5-0.4c0,0-0.2,0.2-0.2,0.2c0.2-0.2,0.4-0.4,0.6-0.6
									c0.1-0.1,0.1-0.3,0.2-0.4c0,0,0-0.1,0-0.2c0,0.1,0-0.1,0-0.1c0-0.1,0-0.2,0-0.3c0.1,0.1,0.3,0.2,0.3,0.2
									c0,0,0.2,0.1,0.2,0.1c0.1,0,0.2,0,0.4,0c0,0,0.1,0,0.2,0c0,0,0,0,0,0c0,0,0.1-0.1,0.2-0.1c0,0,0,0,0,0c0,0,0.1-0.1,0.2-0.2
									c0,0,0,0,0,0.1c0.1-0.3,0.2-0.8,0-1.1l0,0C21-24.2,21-24,20.9-24.2c-0.1-0.1-0.1-0.1-0.2-0.1c-0.1,0-0.1-0.1-0.4,0
									c-0.1-0.1-0.1-0.1-0.1-0.1c0,0,0,0,0-0.1c0.2-0.1,0.2-0.2,0.2-0.3c0-0.1,0-0.1,0-0.2c0,0,0,0,0,0c0,0,0-0.1,0-0.1l0,0
									c0-0.2-0.4-0.5-0.5-0.6c-0.2-0.1-0.3-0.1-0.6-0.1c-0.1,0,0.1,0,0,0l-0.2,0l0,0c-0.1,0-0.2,0-0.3,0.1c0,0-0.1,0-0.2,0
									c-0.1,0-0.2,0.1-0.3,0.1c0-0.1,0-0.2,0-0.3c0-0.1,0-0.1,0-0.1l0,0c0,0,0-0.1,0-0.1c0,0,0,0,0,0c-0.1-0.2-0.2-0.3-0.3-0.4
									c0.1,0-0.1-0.1-0.1-0.1c-0.1,0,0,0-0.1,0c-0.1-0.1-0.3-0.2-0.4-0.2c-0.1,0-0.1,0-0.1,0c-0.2,0-0.3,0-0.5,0l0,0
									c-0.1,0-0.2,0-0.3,0c0,0,0,0,0,0l-0.1,0c0.1,0,0.1,0,0,0c-0.1,0,0,0,0,0l0,0c-0.1,0-0.1,0.1,0,0c-0.1,0-0.2,0.1-0.4,0.1
									c-0.1,0-0.2,0.1-0.4,0.1l0,0c-0.1,0-0.2-0.2-0.2-0.2c0,0-0.1-0.1-0.1-0.1c0,0,0,0,0,0c-0.1-0.1,0,0-0.1-0.1c0,0,0.1,0,0.1,0
									c0,0-0.2-0.1-0.3-0.1c0,0-0.2-0.1-0.3-0.1c0,0,0,0,0.1,0l-0.1,0l-0.1,0l-0.1,0l0,0c-0.1,0-0.1,0-0.2,0c-0.3,0-0.2,0-0.4,0
									c0,0-0.3,0-0.3,0.1c-0.2,0-0.6,0.1-0.9,0.2l0,0c-0.1,0.1-0.1,0.1-0.2,0.2l0,0c-0.2,0.1-0.3,0.4-0.3,0.6c0,0,0,0,0,0
									c0,0.1,0-0.1,0,0.1c0,0,0,0,0,0c0,0,0,0.1,0,0.1c0,0.1,0.1,0.1,0.1,0.1c0,0.1,0.1,0.1,0.1,0.2c-0.2-0.1-0.5-0.3-0.6-0.3
									c-0.1,0-0.2-0.1-0.4-0.1c0,0,0,0,0,0c-0.2,0-0.4,0-0.6,0.1l0,0c-0.1,0,0,0.1-0.2,0.1c0,0,0.1,0,0.1-0.1
									c-0.2,0.1-0.1,0.1-0.2,0.2l0-0.1c-0.1,0.1-0.1,0.1-0.1,0.2c-0.1,0.2-0.1,0.1-0.2,0.3c0,0,0,0,0,0c-0.1,0.2,0,0.2-0.1,0.4
									c0,0.1,0-0.1,0,0l0-0.1c0,0.1,0-0.1,0-0.1c0,0.1,0,0.2,0,0.3c0,0,0-0.1,0-0.1l0,0.1c0,0,0,0,0-0.1c0,0,0,0.1,0,0.1
									c0,0,0,0,0,0c0,0,0,0,0,0c0,0.1,0.1,0.1,0.1,0.2c0,0,0,0.1,0,0.1l-0.1,0c-0.2,0-0.2,0-0.2,0.1c0,0,0,0,0,0
									c-0.1,0-0.1,0.1-0.2,0.1C9.7-24.2,9.7-24.3,9.6-24.1C9.6-24.1,9.7-24.1,9.6-24.1C9.6-24.1,9.7-24.1,9.6-24.1z M11.5-25.9
									C11.5-25.9,11.5-25.9,11.5-25.9L11.5-25.9C11.5-25.9,11.5-25.9,11.5-25.9z M11.7-25.9C11.7-25.9,11.7-25.9,11.7-25.9
									C11.7-25.8,11.8-25.8,11.7-25.9C11.8-25.8,11.7-25.9,11.7-25.9z M11.2-26L11.2-26C11.3-26,11.3-26,11.2-26
									C11.3-26,11.3-26,11.2-26C11.2-26,11.2-26,11.2-26z"/>
								<polygon fill="#202020" points="11.2,-26 11.1,-26 11.2,-26 11.2,-26 								"/>
								<polygon fill="#202020" points="13.8,-21.5 13.8,-21.5 13.7,-21.5 								"/>
								<polygon fill="#202020" points="14.6,-27 14.6,-27 14.6,-27 								"/>
								<path fill="#202020" d="M13.3-22.7C13.3-22.7,13.4-22.7,13.3-22.7C13.4-22.7,13.4-22.7,13.3-22.7z"/>
								<path fill="#202020" d="M13.3-22.3L13.3-22.3C13.2-22.3,13.3-22.3,13.3-22.3z"/>
								<path fill="#202020" d="M12.9-22.1C12.9-22.1,12.9-22.1,12.9-22.1L12.9-22.1L12.9-22.1z"/>
								<path fill="#202020" d="M17.8-21.1L17.8-21.1C17.9-21.1,17.9-21.1,17.8-21.1z"/>
								<path fill="#202020" d="M16-22C16-22,16-21.9,16-22C16-22,16-22,16-22z"/>
								<polygon fill="#202020" points="19.6,-22.6 19.6,-22.6 19.6,-22.7 								"/>
								<path fill="#202020" d="M16-21.8C16-21.9,16-21.9,16-21.8C16-21.9,16-21.8,16-21.8z"/>
								<path fill="#202020" d="M11.7-22.9L11.7-22.9c-0.1,0.1-0.1,0.1-0.1,0.1L11.7-22.9z"/>
								<path fill="#202020" d="M11.6-22.9L11.6-22.9C11.6-22.8,11.6-22.8,11.6-22.9z"/>
								<path fill="#202020" d="M11.4-22.8c0,0,0.1,0,0.1,0C11.5-22.8,11.5-22.8,11.4-22.8z"/>
								<path fill="#202020" d="M11.6-22.3L11.6-22.3L11.6-22.3z"/>
								<path fill="#202020" d="M11.7-22.2c0,0-0.1-0.1-0.1-0.1l0,0C11.6-22.3,11.7-22.2,11.7-22.2z"/>
								<path fill="#202020" d="M12.4-21.9l-0.2,0c0,0,0.1,0,0,0C12.5-21.9,12.2-21.9,12.4-21.9z"/>
								<path fill="#202020" d="M13-22C12.9-22,13-22,13-22C13-22,13-22,13-22z"/>
								<path fill="#202020" d="M14.9-21.3L14.9-21.3C15-21.2,14.9-21.2,14.9-21.3z"/>
								<polygon fill="#202020" points="15.5,-21.5 15.5,-21.5 15.5,-21.5 								"/>
								<polygon fill="#202020" points="16,-21.7 15.9,-21.7 16,-21.8 								"/>
								<path fill="#202020" d="M20.2-22.5L20.2-22.5C20.1-22.5,20.1-22.5,20.2-22.5z"/>
								<path fill="#202020" d="M20.9-24.4c0,0-0.1-0.1-0.1-0.1C20.8-24.5,20.8-24.4,20.9-24.4z"/>
								<polygon fill="#202020" points="15.3,-27.1 15.4,-27.1 15.3,-27.1 								"/>
							</g>
						</g>
					</g>
				</g>
			</g>
			<g>
				<g>
					<g>
						<g>
							<g>
								<g>
									<path fill="#202020" d="M8.7-21.7C8.7-21.7,8.7-21.7,8.7-21.7l0,0.1C8.7-21.6,8.7-21.7,8.7-21.7z"/>
									<path fill="#202020" d="M9.1-21.2c0.1,0,0.3,0,0.2,0C9.2-21.2,9.2-21.2,9.1-21.2c-0.2-0.1-0.3-0.2-0.2-0.2
										c0,0-0.1-0.1-0.2-0.2C8.8-21.4,9-21.2,9.1-21.2C9.2-21.2,9.2-21.2,9.1-21.2z"/>
									<path fill="#202020" d="M14.7-18.3L14.7-18.3L14.7-18.3z"/>
									<path fill="#202020" d="M19.7-18.8C19.7-18.9,19.6-18.9,19.7-18.8C19.7-18.9,19.7-18.8,19.7-18.8z"/>
									<path fill="#202020" d="M20.5-18C20.5-18,20.5-18,20.5-18C20.5-18,20.5-18,20.5-18z"/>
									<path fill="#202020" d="M14.7-18.3l0.2,0.1C14.9-18.2,14.8-18.3,14.7-18.3z"/>
									<path fill="#202020" d="M9.7-20.6C9.7-20.7,9.7-20.7,9.7-20.6C9.7-20.7,9.7-20.7,9.7-20.6L9.7-20.6z"/>
									<path fill="#202020" d="M13.5-20.8L13.5-20.8c0-0.1,0-0.1,0-0.1L13.5-20.8z"/>
									<path fill="#202020" d="M13.2-19.7C13.2-19.8,13.2-19.8,13.2-19.7C13.2-19.8,13.2-19.8,13.2-19.7
										C13.2-19.7,13.2-19.7,13.2-19.7z"/>
									<path fill="#202020" d="M9.8-20.1L9.8-20.1C9.7-20.2,9.8-20.1,9.8-20.1z"/>
									<path fill="#202020" d="M13.7-19.2C13.7-19.2,13.7-19.1,13.7-19.2C13.7-19.1,13.7-19.1,13.7-19.2z"/>
									<path fill="#202020" d="M6.4-21.3L6.4-21.3C6.4-21.3,6.4-21.3,6.4-21.3z"/>
									<path fill="#202020" d="M8.9-21.4L8.9-21.4C8.9-21.4,8.9-21.4,8.9-21.4L8.9-21.4z"/>
									<path fill="#202020" d="M22.5-17.2L22.5-17.2C22.5-17.2,22.5-17.2,22.5-17.2z"/>
									<path fill="#202020" d="M28.6-27.8C28.8-27.7,28.2-28,28.6-27.8C28.5-27.8,28.8-27.7,28.6-27.8z"/>
									<path fill="#202020" d="M9.7-20.6L9.7-20.6C9.7-20.5,9.7-20.5,9.7-20.6z"/>
									<path fill="#202020" d="M28.5-27.8L28.5-27.8L28.5-27.8C28.6-27.8,28.6-27.8,28.5-27.8z"/>
									<path fill="#202020" d="M27-19C27-19,27-19,27-19C27-19,27-19,27-19z"/>
									<path fill="#202020" d="M23.8-17.2L23.8-17.2C23.9-17.2,23.8-17.2,23.8-17.2z"/>
									<path fill="#202020" d="M27.8-20.8c0,0,0-0.1,0-0.1l0,0C27.8-20.9,27.8-20.8,27.8-20.8z"/>
									<polygon fill="#202020" points="29.2,-20.7 29.2,-20.7 29.1,-20.7 									"/>
									<path fill="#202020" d="M6.6-25.4L6.6-25.4C6.7-25.3,6.7-25.1,6.6-25.4z"/>
									<path fill="#202020" d="M9.7-20.6C9.7-20.6,9.7-20.6,9.7-20.6L9.7-20.6C9.7-20.6,9.7-20.6,9.7-20.6z"/>
									<path fill="#202020" d="M27.7-20.9c0,0,0-0.1,0-0.2c0-0.1,0-0.3,0-0.3c0,0.1,0,0.2,0,0.3L27.7-20.9z"/>
									<path fill="#202020" d="M17.1-30.8L17.1-30.8C17.1-30.8,17.1-30.8,17.1-30.8z"/>
									<path fill="#202020" d="M28.6-20.9c0,0,0.1,0,0.2,0.1c0,0,0,0,0,0L28.6-20.9z"/>
									<path fill="#202020" d="M6.6-25.3L6.6-25.3L6.6-25.3z"/>
									<path fill="#202020" d="M5.3-24.3C5.2-24,5.3-24.2,5.1-24C5-23.9,5-23.8,5-23.7c-0.1,0.1,0,0.1-0.1,0.2c0-0.1,0,0.3,0,0.3
										c0,0.1,0-0.3-0.1-0.1c0,0.2,0,0.5,0.1,0.5c0,0.1,0,0.2,0.1,0.3c0,0,0-0.1,0-0.1c0.1,0.3,0.5,0.7,0.7,0.8
										c-0.1,0,0.6,0.4,0.4,0.3c0.1,0.1,0.3,0.1,0.4,0.1c0,0,0.3,0.1,0.5,0.2c0.1,0,0.3,0,0.5,0c-0.1,0-0.1,0-0.1,0
										c0.2,0,0.1,0,0.3,0c0.2,0,0,0,0.1,0c0.2,0,0,0,0.1,0L8-21.2c0.1,0,0.1,0,0.1,0c0.1,0,0.2-0.1,0.3-0.1l-0.2,0.1l0.1,0
										c0,0,0.3-0.1,0.3-0.1c0.4-0.2,0.3-0.1,0.3,0l-0.2,0.1c0,0,0.1,0,0.2-0.1c0.1,0-0.2,0.2-0.4,0.3C8-21,8.4-21.2,8-21.1
										c0,0-0.5,0.1-0.5,0.1l0,0c-0.1,0-0.1,0-0.1,0c0,0-0.4,0-0.6-0.1l0.1,0c-0.6-0.1-0.8-0.3-1.2-0.5c0,0-0.3-0.2-0.3-0.2l0-0.1
										c-0.1-0.1-0.2-0.1-0.4-0.4c-0.3-0.4-0.4-1.1-0.1-1.6C5-24.3,5.5-24.7,6-24.8c0,0,0,0-0.1,0c0.2-0.1,0.4-0.1,0.6-0.1
										c0.2,0,0-0.1,0-0.3c-0.1-0.3-0.1-0.7,0-1.1l0,0.1c0.1-0.4,0,0.1,0.1-0.2c0-0.1,0.2-0.5,0.4-0.7c0,0.1-0.1,0.1-0.1,0.2
										c0,0,0.1,0,0.1-0.1c0.1-0.2,0.6-0.6,1-0.8c0.1,0,0.4-0.1,0.6-0.1c0,0,0.1,0,0.2-0.1c0.2,0,0.3,0,0.4-0.1
										c-0.1,0-0.3,0-0.4,0l0,0l-0.1,0c-0.1,0-0.1,0-0.1,0c-0.2,0,0,0,0,0c0.1,0,0.4-0.1,0.5-0.1c0.1,0,0.1,0,0.2,0
										c0.1,0,0.1,0,0.2,0l0,0c0,0,0,0,0,0c0.3,0,0.7,0.1,0.9,0.1c-0.2,0,0,0,0,0.1c0,0-0.2-0.1-0.6-0.1c0,0,0,0,0,0
										c0.3,0.1,0.5,0.1,0.9,0.3c0,0-0.1,0-0.1,0c0.2,0.1,0.2,0.1,0.2,0.1c0,0,0.1,0.1,0.1,0.1c0-0.1-0.1-0.2-0.1-0.3
										c0-0.1-0.1-0.1,0-0.4l0,0.1c0-0.3,0-0.3,0.1-0.5c0,0.1,0,0.1,0,0c0.1-0.3,0.1-0.3,0.2-0.5l0,0c0.1-0.3,0.5-0.6,0.6-0.6
										c-0.1,0,0.5-0.4,0.7-0.5c-0.1,0-0.1,0-0.1,0.1c0.5-0.2,1-0.4,1.5-0.4l0.1,0c0.3,0,0.3-0.1,0.6-0.1l-0.1,0
										c0.5-0.1,0.7-0.1,1.2-0.1l0,0c0.2,0,0.3,0,0.5,0c0.2,0,0.5,0,0.9,0.1c0.4,0.1,0.8,0.2,1,0.4l0.1,0c0.2,0.1,0.4,0.5,0.4,0.6
										l0,0c0,0,0.1,0.2,0.2,0.2c0.1,0,0.2-0.1,0.1-0.1c0.6-0.2,1.5-0.5,1.9-0.5c0.6-0.1,1.1-0.1,1.8,0l0,0c0.2,0,0.7,0.2,0.7,0.2
										c0.5,0.2,0.8,0.3,1.2,0.8l-0.1-0.1c0.1,0.1,0.3,0.3,0.3,0.3c0,0,0,0,0,0c0.1,0.1,0.1,0.2,0.2,0.3l0,0
										c0.1,0.2,0.2,0.5,0.2,0.9c0,0.1,0,0.1,0.1,0c0.2-0.1,0.3-0.1,0.5-0.1c-0.1,0,0,0,0,0c0.2-0.1,0.9-0.2,1.2-0.2l-0.2,0
										c0.5,0,0.4,0,0.9,0.1l-0.3-0.1c0.2,0,0.4,0.1,0.3,0c0.2,0.1,0,0,0.4,0.1c0,0-0.3-0.1-0.1,0c0,0,0.5,0.2,0.5,0.2
										c0,0,0.1,0,0.2,0.1c0-0.1,0.4,0.2,0.2,0c0.6,0.4,1,1,0.9,1.6c0,0.1-0.1,0.4-0.2,0.7c-0.1,0.2-0.3,0.4-0.3,0.3
										c-0.1,0.1-0.3,0.2-0.4,0.3l0-0.1c0.1-0.1,0.2-0.1,0.4-0.1c-0.1,0-0.2,0-0.2,0.1c0.1-0.1,0.5-0.1,0.7-0.1
										c-0.2,0-0.6,0-0.8,0.1c0.3-0.1,0.7-0.1,0.9-0.1l0.1,0.1c0.3,0.1,0.2,0.1,0.4,0.2l0,0c0.4,0.3,0.4,0.2,0.7,0.6l0,0
										c0.1,0.1,0.2,0.3,0.2,0.5c0,0-0.1-0.3-0.1-0.3c0,0,0.1,0.2,0.1,0.3c0.1,0.3,0.1,0.1,0.1,0.3c0,0.1,0,0,0-0.1
										c0.1,0.3,0.1,0.8,0.1,1c0,0,0,0,0,0c0,0.3,0,0.7-0.2,0.9l0-0.1C31-21.3,30.7-21,30.6-21c-0.1,0.1,0.3-0.2,0.1-0.1
										c-0.4,0.2-0.2,0.2-0.6,0.3c0.1,0,0,0,0,0c-0.3,0.1-0.6,0.1-0.9,0.1c-0.2,0-0.5-0.1-0.7-0.2c-0.3-0.1-0.5-0.3-0.6-0.3
										c0,0,0,0.1,0,0.1c0,0,0,0,0,0c0,0.1,0,0.2,0,0.2c0,0.1-0.1,0.4-0.1,0.5c0,0,0,0.1-0.1,0.2c0.1-0.3,0-0.1,0-0.2
										c-0.1,0.4-0.1,0.5-0.3,0.8l-0.1,0.2c0,0.1-0.2,0.4-0.2,0.4c-0.1,0.1-0.1,0.1-0.1,0.1c-0.1,0.1-0.3,0.3-0.3,0.4l0.1-0.1
										c-0.4,0.4-0.6,0.6-1,0.8l0,0c-0.2,0.1-0.4,0.3-0.7,0.3c0.1,0,0.1,0-0.1,0.1c0.1,0,0.3-0.1,0.4-0.2L25-17.5
										c0,0,0.1-0.1,0.3-0.1c0.1-0.1,0.2-0.1,0.2-0.1c-0.2,0.1-0.2,0.1-0.1,0.1c-0.3,0.2-0.3,0.1-0.6,0.3c-0.1,0,0,0-0.1,0
										c-0.3,0.1-0.5,0.1-0.7,0.2c-0.1,0,0.1,0,0.1,0c-0.2,0-0.3,0.1-0.4,0.1l0.2,0c-0.1,0-0.2,0-0.4,0.1c-0.2,0-0.2,0-0.1,0
										c-0.1,0-0.2,0-0.2,0c-0.4,0-0.2,0.1-0.6,0c0,0,0.1,0,0,0c-0.1,0-0.2,0-0.3,0c0.4,0-0.1,0,0.3,0c0,0-0.3,0-0.5-0.1
										c-0.2,0,0,0-0.1,0c0,0-0.1,0-0.2-0.1l0.1,0c-0.1,0-0.2,0-0.3-0.1l0.2,0c-0.2,0-0.4-0.2-0.8-0.3c0.1,0,0.2,0.1,0.1,0
										c-0.3-0.1-0.1,0-0.2-0.2c-0.3-0.2-0.1,0-0.5-0.3c0,0,0,0,0,0c-0.3-0.2-0.4-0.4-0.6-0.7c0.1,0.1,0.2,0.2,0,0.1
										c0.1,0.1-0.2-0.2-0.2-0.4l0,0c0-0.1,0,0,0.1,0.1c0,0,0,0,0,0.1c0.1,0.1,0.1,0.1,0-0.2c-0.1-0.3-0.1-0.2-0.1-0.2
										c-0.1-0.4-0.2-0.3-0.2-0.7l-0.1-0.6l0.3,0.6c0,0,0,0,0,0c0.1,0.1,0.1,0.4,0,0.7c0,0.2,0.1-0.3,0.1-0.2
										c-0.1,0.5-0.4,0.9-1,1.1l0.1-0.1c-0.1,0.1-0.3,0.1-0.4,0.2l0.2-0.1c-0.1,0.1-0.4,0.1-0.3,0.1c-0.3,0.1-0.4,0.1-0.6,0.1
										c0.3,0,0,0,0.2,0c-0.3,0-0.3,0-0.6,0.1c0,0-0.1,0-0.2,0c-0.2,0-0.6,0-0.8,0l0,0c-0.5,0-1-0.2-1.4-0.4l0,0l0,0l0,0l0,0
										c0.1,0.1-0.3-0.2-0.5-0.3c0,0,0,0-0.1-0.1c0,0-0.2-0.1-0.2-0.2c-0.1-0.1,0,0-0.2-0.2c-0.1-0.1-0.1-0.1-0.1-0.1
										c0-0.1-0.1-0.2-0.2-0.4c0,0.1,0.1,0.1,0.1,0.2c0,0,0-0.1,0-0.1c-0.1-0.1,0,0-0.1-0.2l0.1,0.1c0-0.1-0.1-0.1-0.1-0.2
										c0,0.1,0,0.1,0.1,0.1c-0.1-0.4-0.1-0.1-0.1-0.1c-0.1-0.4-0.1-0.7,0-1l0,0.1c0-0.1,0-0.2,0.1-0.3l0.1-0.2
										c-0.1,0.1-0.1,0.2,0,0.2c0-0.1,0.1-0.2,0.2-0.4c0.1,0.1,0.2,0.2,0.2,0.2l0,0c0.1,0.1,0.1,0.4,0,0.6
										c-0.1,0.2-0.2,0.3-0.2,0.3c-0.2,0.3-0.6,0.4-0.6,0.4c-0.2,0.1-0.5,0.2-0.6,0.2c-0.2,0,0,0,0,0c-0.2,0.1-0.4,0.2-0.5,0.1
										c-0.3,0.1,0.1,0,0,0c-0.1,0-0.5,0.1-0.8,0c-0.1,0,0.1,0-0.1,0c0,0-0.1,0-0.1,0l-0.1,0l-0.2-0.1c-0.4-0.1,0.1,0.1-0.4-0.1
										l0,0c-0.1-0.1-0.4-0.2-0.6-0.5c0.1,0.1,0,0,0.1,0.1c0,0-0.1-0.2-0.1-0.2c0,0,0,0,0,0c-0.1-0.2-0.1-0.1-0.1-0.3
										c0,0.1,0,0.1,0,0c0,0-0.1-0.3,0-0.3c0,0,0,0.1,0,0.1c0-0.1,0-0.3,0.1-0.4c0-0.1,0.1-0.1,0.1-0.2c0,0,0,0,0.1-0.1
										c0,0,0,0,0,0c0,0,0,0,0,0l0.1-0.1c0,0,0,0,0,0c0,0,0.1-0.1,0.1-0.1c0,0-0.3,0.2-0.5,0.3c-0.1,0-0.1,0.1,0,0
										c0,0-0.2,0-0.2,0c0,0,0.1,0,0.8-0.4c0,0,0,0,0,0l-0.1,0.1c-0.1,0.1-0.1,0.1-0.2,0.2c0.1-0.1,0.3-0.3,0.1-0.2
										C10-21.3,9.9-21.1,9.8-21c-0.1,0.1-0.1,0.2-0.1,0.3c0-0.1,0-0.1,0-0.2c-0.1,0.2,0,0.2,0,0.3c0,0.1,0,0.1,0,0.1
										c0,0.2,0.1,0.3,0.2,0.5c0,0-0.2-0.2-0.1-0.1c0.3,0.3,0.3,0.4,0.7,0.5c0.5,0.1,1,0.2,1.3,0.1c0,0-0.3,0,0,0c0,0,0.1,0,0.1,0
										c0.2-0.1,0.4-0.1,0.5-0.1c0,0,0.1,0,0.2,0c0,0,0.3-0.1-0.1,0.1c0.3-0.1,0.6-0.2,0.8-0.4l-0.1,0c0,0,0.3-0.2,0.3-0.2l0,0
										c0.1-0.1,0.1-0.1,0.2-0.3c0,0.1-0.1,0.2-0.2,0.3c0.2-0.1,0.2-0.4,0.2-0.6c0,0,0,0.2,0,0.2c0-0.2,0-0.3-0.1-0.4l0,0
										c-0.1-0.2-0.1-0.2-0.1-0.2c0,0,0,0-0.1,0.1c0,0,0,0,0,0c-0.1,0.1-0.2,0.3-0.1,0.1c-0.1,0.1-0.1,0.3-0.1,0.3
										c0-0.1,0.1-0.1,0.1-0.2c0,0-0.1,0.5-0.1,0.5c0,0.1,0,0,0-0.1c-0.1,0.6,0.2,1.3,0.7,1.7c-0.1-0.1,0,0,0.1,0.1
										c0.2,0.1,0.5,0.3,0.7,0.4l-0.1,0c0.5,0.2,0.9,0.2,1.3,0.3c0,0,0,0-0.1,0c0.3,0,0.6,0.1,0.7,0l-0.1,0c0.5,0,1.1-0.1,1.6-0.3
										c0.1,0-0.3,0.1-0.2,0.1c0.4-0.1,0.7-0.3,1-0.6c0,0,0,0-0.1,0.1c0.3-0.3,0,0,0.2-0.2c0,0,0,0,0.1-0.1l0-0.1c0,0,0,0,0,0
										c0.1-0.1,0.1-0.6,0-0.7c0,0,0,0,0,0l0,0c0,0,0,0,0,0c0,0.2,0.1,0.3,0.1,0.4l0,0c0,0.1,0.2,0.4,0.1,0.4c0.2,0.3,0,0,0.2,0.2
										c0,0-0.1-0.2-0.1-0.2c0,0,0.3,0.4,0.3,0.4l-0.1-0.1c0.1,0.2,0.3,0.3,0.5,0.5l-0.1-0.1l0.2,0.2c0,0,0.3,0.2,0.1,0.2
										c0.4,0.3,0.8,0.4,1.2,0.6c-0.1,0-0.1,0-0.1,0c0.3,0.1,0.4,0.1,0.6,0.1c0,0-0.1,0-0.1,0c0.3,0.1,0.2,0,0.6,0
										c-0.1,0-0.1,0,0,0c0,0,0.1,0,0.1,0c-0.3,0.1,0.4,0,0.2,0.1c0,0,0.6-0.1,0.4-0.1l-0.1,0c0,0,0.1,0,0.2,0c-0.1,0-0.1,0-0.1,0
										c0.5-0.1,1-0.2,1.6-0.4c0,0-0.3,0.1-0.1,0.1c0.5-0.2,0.8-0.4,1.2-0.8c0.1,0-0.5,0.4-0.5,0.4c0.5-0.3,1-0.8,1.3-1.4
										c0.2-0.2,0.3-0.6,0.5-1c0,0,0-0.2,0.1-0.4c0,0.1,0-0.2,0-0.1c0-0.1,0-0.2,0-0.3c0-0.1,0-0.2,0-0.2l0.2,0.1
										c0.2,0.2,0.3,0.2,0.3,0.2c0.1,0,0.4,0.2,0.6,0.2c0.2,0.1,0.5,0.1,0.8,0.1c-0.1,0,0.3,0,0.4-0.1c0,0-0.1,0-0.1,0
										c0.1,0,0.3-0.1,0.5-0.2c0.1,0,0,0,0.1,0c0,0,0.1-0.1,0.2-0.2c0.1-0.1,0.2-0.2,0.2-0.3c0,0.1,0,0.1,0,0.1
										c0.2-0.3,0.2-0.8,0.2-1.2c0-0.4,0-0.9-0.2-1.3l0.1,0.1c-0.2-0.5-0.2-0.3-0.4-0.6c-0.4-0.4-1.1-0.6-1.6-0.3l-0.1-0.2
										c0.5-0.2,0.9-0.8,0.8-1.3c0-0.1,0,0,0,0.1c0-0.1,0-0.1,0-0.2l0,0c0-0.2-0.2-0.6-0.5-0.8c-0.3-0.2-0.6-0.4-0.7-0.5
										C28-27.9,27.7-28,27.1-28c-0.2,0,0.2,0,0,0c0,0-0.1,0-0.3,0c-0.1,0-0.3,0-0.3,0l0,0c-0.3,0.1-0.6,0.1-1,0.2
										c-0.1,0-0.2,0.1-0.3,0.1l-0.1,0c0,0,0-0.1,0-0.1l0-0.2c0-0.2,0-0.4-0.1-0.5l0,0c0,0,0-0.1-0.1-0.2c0,0,0,0,0,0.1
										c-0.3-0.5-0.4-0.6-0.8-0.9c0.2,0.1-0.1-0.1-0.2-0.2c-0.1-0.1,0,0.1-0.2-0.1c-0.3-0.2-0.7-0.3-1-0.4c-0.1,0-0.3,0-0.3,0
										c-0.4-0.1-0.7-0.1-1.2,0l0,0c-0.1,0-0.5,0-0.6,0.1c0,0,0.1,0,0.1,0L20.5-30c0.1,0,0.2-0.1,0,0c-0.2,0.1,0.1,0,0,0l-0.1,0
										c-0.2,0-0.2,0.1,0,0c-0.3,0.1-0.5,0.1-0.8,0.2c-0.1,0-0.3,0.1-0.4,0.1c-0.1,0-0.3,0.1-0.5,0.1l0.1,0
										c-0.2,0-0.3-0.3-0.3-0.4c-0.1-0.1-0.1-0.2-0.2-0.3c0,0-0.1,0,0,0c-0.3-0.2,0-0.1-0.3-0.2c0.1,0,0.2,0.1,0.2,0.1
										c0,0-0.6-0.3-0.6-0.3c0,0-0.4-0.1-0.7-0.2c0,0,0.1,0,0.1,0l-0.2,0l-0.1,0l-0.3,0l0,0c-0.2,0-0.3,0-0.4,0
										c-0.5,0-0.5,0-0.9,0c0,0-0.7,0.1-0.8,0.1c-0.6,0-1.4,0.2-2,0.6l0,0c-0.3,0.1-0.3,0.2-0.5,0.4l0.1-0.1
										c-0.4,0.2-0.7,0.9-0.7,1.3c0-0.1,0,0,0,0.1c0,0.1,0-0.1,0,0.1c0-0.1,0,0,0,0c0,0,0,0.1,0,0.1c0,0.1,0.1,0.2,0.1,0.2
										c0,0.1,0.1,0.3,0.2,0.4c-0.2-0.1-0.5-0.3-0.6-0.4c-0.1-0.1-0.3-0.1-0.4-0.1c-0.3-0.1-0.5-0.1-0.8-0.1c-0.1,0,0,0,0,0
										c-0.5,0-1,0.1-1.4,0.2l-0.1,0c-0.2,0.1-0.1,0.1-0.4,0.2c-0.1,0,0.2-0.1,0.2-0.1c-0.4,0.2-0.2,0.1-0.6,0.3l0.1-0.1
										c-0.3,0.2-0.3,0.2-0.3,0.3C7.1-27,7-27.1,6.8-26.6c0,0.1,0,0,0,0.1c-0.1,0.4-0.1,0.4-0.2,0.8c0,0.2,0-0.2,0,0
										c0,0,0-0.3,0-0.3c-0.1,0.3,0-0.2,0-0.2c-0.1,0.2-0.1,0.5,0,0.8c0,0,0-0.3-0.1-0.2l0,0.1c0,0,0,0,0-0.1c0,0.1,0,0.2,0,0.3
										c0,0,0,0,0,0c0,0,0,0,0,0c0,0.1,0.1,0.2,0.1,0.3c0,0,0.1,0.2,0,0.2l-0.2,0c-0.2,0-0.3,0.1-0.5,0.1c0,0,0,0,0,0
										c-0.2,0-0.3,0.1-0.5,0.3C5.5-24.4,5.6-24.6,5.3-24.3c0,0,0.1-0.1-0.1,0.1C5.3-24.2,5.5-24.3,5.3-24.3z M9.6-28.2
										c0,0,0.1,0,0.1,0l0,0C9.6-28.2,9.6-28.2,9.6-28.2z M10.1-28.1C10.1-28.1,10-28.1,10.1-28.1c0,0,0.1,0,0.2,0.1
										C10.2-28.1,10.1-28.1,10.1-28.1z M9-28.3L9-28.3c0.1,0,0.1,0,0.2,0C9.2-28.3,9.1-28.3,9-28.3C9-28.3,9-28.3,9-28.3z"/>
									<path fill="#202020" d="M8.9-28.2C8.9-28.2,8.9-28.2,8.9-28.2C8.9-28.2,8.9-28.2,8.9-28.2L8.9-28.2L8.9-28.2z"/>
									<polygon fill="#202020" points="14.7,-18.3 14.7,-18.3 14.6,-18.3 									"/>
									<polygon fill="#202020" points="16.5,-30.8 16.5,-30.8 16.4,-30.8 									"/>
									<path fill="#202020" d="M13.7-21.1L13.7-21.1C13.7-21.1,13.7-21.1,13.7-21.1z"/>
									<path fill="#202020" d="M13.6-20.1L13.5-20C13.6-20.1,13.6-20.1,13.6-20.1z"/>
									<path fill="#202020" d="M12.7-19.7C12.7-19.7,12.7-19.6,12.7-19.7L12.7-19.7L12.7-19.7z"/>
									<path fill="#202020" d="M23.7-17.4L23.7-17.4C23.8-17.4,23.8-17.4,23.7-17.4z"/>
									<path fill="#202020" d="M19.5-19.4c0,0.1,0,0.1,0.1,0.1C19.5-19.4,19.5-19.4,19.5-19.4z"/>
									<polygon fill="#202020" points="27.7,-20.8 27.7,-20.8 27.7,-20.9 									"/>
									<path fill="#202020" d="M19.7-19.1c0-0.1-0.1-0.1-0.1-0.2C19.6-19.2,19.6-19.1,19.7-19.1z"/>
									<path fill="#202020" d="M9.8-21.3c0,0-0.1,0.1-0.1,0.1c0,0,0,0,0,0C9.7-21.2,9.8-21.3,9.8-21.3z"/>
									<path fill="#202020" d="M9.7-21.2L9.7-21.2C9.6-21.2,9.7-21.2,9.7-21.2z"/>
									<path fill="#202020" d="M9.5-21.2c0,0,0.1,0,0.1,0C9.5-21.2,9.5-21.2,9.5-21.2z"/>
									<path fill="#202020" d="M9.8-20.2L9.8-20.2C9.8-20.2,9.8-20.2,9.8-20.2z"/>
									<path fill="#202020" d="M10.1-19.9c-0.1-0.1-0.2-0.2-0.2-0.3l0,0C9.9-20.1,10-19.9,10.1-19.9z"/>
									<path fill="#202020" d="M11.7-19.3c0,0-0.1,0-0.2,0c-0.1,0-0.2,0-0.2,0c0.1,0,0.2,0,0,0C11.8-19.3,11.3-19.3,11.7-19.3z"/>
									<path fill="#202020" d="M12.8-19.6C12.7-19.5,12.9-19.6,12.8-19.6C13-19.6,13-19.6,12.8-19.6z"/>
									<path fill="#202020" d="M17.2-17.9L17.2-17.9C17.3-17.9,17.2-17.9,17.2-17.9z"/>
									<polygon fill="#202020" points="18.7,-18.4 18.5,-18.3 18.5,-18.3 									"/>
									<path fill="#202020" d="M19.4-18.9L19.4-18.9c0,0.1,0.1-0.2,0.1-0.2C19.5-19.1,19.4-18.9,19.4-18.9z"/>
									<path fill="#202020" d="M28.9-20.7L28.9-20.7C28.7-20.7,28.7-20.7,28.9-20.7z"/>
									<path fill="#202020" d="M30.4-24.8c-0.1,0-0.2-0.1-0.3-0.2C30.2-24.9,30.3-24.8,30.4-24.8z"/>
									<polygon fill="#202020" points="18,-30.7 18.2,-30.6 17.9,-30.7 									"/>
								</g>
							</g>
						</g>
					</g>
				</g>
				<g>
					<g>
						<g>
							<g>
								<g>
									<path fill="#202020" d="M18.7-18.5C18.7-18.5,18.7-18.4,18.7-18.5L18.7-18.5L18.7-18.5z"/>
									<path fill="#202020" d="M19-18.2c0.1,0,0.1,0,0.1,0C19-18.2,19-18.3,19-18.2C18.9-18.3,18.9-18.3,19-18.2
										c-0.1-0.1-0.2-0.1-0.2-0.1C18.8-18.3,18.9-18.3,19-18.2C19-18.2,19-18.2,19-18.2z"/>
									<path fill="#202020" d="M22.6-14.5L22.6-14.5C22.6-14.5,22.6-14.5,22.6-14.5z"/>
									<path fill="#202020" d="M23.9-11.6C23.9-11.6,23.9-11.6,23.9-11.6C23.9-11.6,23.9-11.6,23.9-11.6z"/>
									<path fill="#202020" d="M24-11C24-11,24-11.1,24-11C24-11.1,24-11,24-11z"/>
									<path fill="#202020" d="M22.6-14.5L22.6-14.5C22.7-14.5,22.6-14.5,22.6-14.5z"/>
									<path fill="#202020" d="M19.6-17.9C19.6-17.9,19.6-17.9,19.6-17.9L19.6-17.9L19.6-17.9z"/>
									<polygon fill="#202020" points="21.8,-15.7 21.7,-15.7 21.7,-15.7 									"/>
									<path fill="#202020" d="M21-16.5C21.1-16.5,21.1-16.5,21-16.5C21.1-16.5,21.1-16.5,21-16.5C21-16.5,21-16.5,21-16.5z"/>
									<path fill="#202020" d="M19.8-17.7L19.8-17.7L19.8-17.7z"/>
									<path fill="#202020" d="M22.2-15.1L22.2-15.1C22.2-15,22.2-15,22.2-15.1z"/>
									<path fill="#202020" d="M16.9-16.8L16.9-16.8C16.9-16.8,16.9-16.8,16.9-16.8z"/>
									<polygon fill="#202020" points="16.3,-17.9 16.3,-17.9 16.3,-17.9 									"/>
									<path fill="#202020" d="M24.1-10L24.1-10C24.1-10.1,24.1-10.1,24.1-10z"/>
									<path fill="#202020" d="M19.8-7.8C19.9-7.8,19.6-7.8,19.8-7.8C19.8-7.8,19.9-7.8,19.8-7.8z"/>
									<path fill="#202020" d="M19.6-17.9L19.6-17.9C19.6-17.8,19.6-17.9,19.6-17.9z"/>
									<polygon fill="#202020" points="19.8,-7.8 19.8,-7.8 19.8,-7.8 									"/>
									<path fill="#202020" d="M24.3-7.7C24.3-7.7,24.3-7.7,24.3-7.7C24.3-7.7,24.3-7.7,24.3-7.7z"/>
									<path fill="#202020" d="M24.2-9.5L24.2-9.5C24.2-9.4,24.2-9.4,24.2-9.5z"/>
									<path fill="#202020" d="M24.2-6.8C24.2-6.8,24.2-6.8,24.2-6.8L24.2-6.8C24.2-6.8,24.2-6.8,24.2-6.8z"/>
									<polygon fill="#202020" points="24.1,-5.9 24.1,-5.9 24.1,-5.9 									"/>
									<path fill="#202020" d="M18-14.2C18-14.2,18-14.2,18-14.2C18-14.2,17.9-14.4,18-14.2z"/>
									<path fill="#202020" d="M19.6-17.9C19.6-17.9,19.6-17.9,19.6-17.9L19.6-17.9C19.6-17.9,19.6-17.9,19.6-17.9z"/>
									<path fill="#202020" d="M24.4-6.8l0,0.1C24.4-6.7,24.4-6.7,24.4-6.8z"/>
									<path fill="#202020" d="M16.2-8.4L16.2-8.4C16.2-8.4,16.2-8.4,16.2-8.4z"/>
									<path fill="#202020" d="M24.3-6.2C24.3-6.1,24.3-6.1,24.3-6.2C24.3-6.1,24.3-6.1,24.3-6.2L24.3-6.2z"/>
									<path fill="#202020" d="M18-14.2L18-14.2L18-14.2z"/>
									<path fill="#202020" d="M17.7-15.1c-0.1-0.1,0,0,0-0.2c0-0.1,0-0.1-0.1-0.1c0-0.1,0,0,0-0.1c0,0-0.1-0.1-0.1-0.1
										c0,0,0.1,0.1,0.1,0c0-0.1-0.1-0.2-0.1-0.2c0-0.1,0-0.1-0.1-0.2c0,0,0,0,0,0c-0.1-0.1-0.2-0.4-0.3-0.4
										c0.1,0-0.2-0.3-0.1-0.2c0-0.1-0.1-0.1-0.1-0.2c0,0-0.1-0.2-0.1-0.2c0,0-0.1-0.1-0.2-0.2c0,0,0,0,0,0
										c-0.1-0.1,0-0.1-0.1-0.1c-0.1-0.1,0,0-0.1,0c0-0.1,0,0,0,0l-0.1-0.1c0,0,0,0,0-0.1c0,0-0.1-0.1-0.1-0.1l0.1,0.1l0,0
										l-0.1-0.1c-0.1-0.2,0-0.2,0-0.2l0.1,0.1c0,0,0-0.1,0-0.1c0,0,0.1,0.1,0.2,0.2c0.2,0.2,0,0.1,0.1,0.2l0.2,0.2l0,0
										c0,0,0,0,0,0.1c0,0,0.1,0.2,0.2,0.2l0,0c0.2,0.2,0.2,0.4,0.3,0.5l0.1,0.1l0,0c0.1,0.1,0.1,0.1,0.1,0.2
										c0.2,0.5,0.4,0.9,0.5,1.4c0,0,0,0,0-0.1c0.1,0.4,0.2,0.7,0.2,1.1l0,0c0,0.2,0,0,0,0.1c0,0,0.1,0.2,0.1,0.4c0,0,0-0.1,0-0.1
										c0,0,0,0,0,0.1c0,0.1,0.1,0.4,0.1,0.6c0,0,0,0.2-0.1,0.3c0,0,0,0.1,0,0.1c0,0.1,0,0.1,0,0.2c0-0.1,0-0.1,0-0.2l0,0
										c0,0,0,0,0,0c0,0,0-0.1,0-0.1c0-0.1,0,0,0,0c0,0.1,0,0.2,0,0.2c0,0,0,0.1,0,0.1c0,0,0,0.1,0,0.1l0,0c0,0,0,0,0,0
										c0,0.1,0,0.3,0,0.4c0-0.1,0,0-0.1,0c0,0,0-0.1,0-0.3c0,0,0,0,0,0c0,0.1,0,0.2-0.1,0.5c0,0,0,0,0,0c0,0.1,0,0.1,0,0.2
										c0,0-0.1,0.2-0.1,0.2c0,0.1,0,0.1,0,0.2l0-0.1c0,0.1,0,0.1,0,0.2c0,0,0-0.1,0,0c0,0.2,0,0.2,0,0.3l0,0
										c0,0.1-0.1,0.4-0.1,0.4c0.1,0-0.1,0.3-0.1,0.4c0,0,0,0,0-0.1c-0.1,0.2-0.2,0.5-0.3,0.7l-0.1,0c-0.1,0.1-0.1,0.2-0.2,0.3
										l0,0C17-8.6,17-8.5,16.8-8.4l0,0c-0.1,0.1-0.1,0.1-0.2,0.1c-0.2,0-0.6,0.3-0.9,0.3l0,0c-0.1,0-0.2,0.1-0.3,0.1l0,0
										c0,0-0.1,0.1-0.2,0.1c0,0-0.1,0.1,0,0.1c-0.1,0-0.2,0.1-0.2,0.2l-0.1-0.2c0.2-0.1,0.5-0.1,0.6-0.1C15.8-7.9,16-8,16.3-8
										l0,0c0.1,0,0.3,0,0.3,0c0.2,0,0.4-0.1,0.7-0.1l-0.1,0c0.1,0,0.2,0,0.2,0c0,0,0,0,0,0c0.1,0,0.1,0,0.2,0l0,0
										c0.2,0,0.6,0,0.9,0c-0.1,0,0,0,0,0c0.1,0,0.4,0,0.6,0L19-8c0.2,0,0.2,0.1,0.4,0.1l-0.1,0c0.1,0,0.2,0,0.2,0
										c0.1,0,0,0,0.2,0.1c0,0-0.1,0-0.1,0l0.2,0.1c0,0,0,0,0.1,0c0-0.1,0.2,0,0.1,0c0.3,0.1,0.6,0.2,0.9,0.2
										c0.1,0.1,0.5,0.2,0.5,0.2c0.1,0.1,0.3,0.1,0.4,0.1c0,0-0.1,0-0.1,0c0,0,0.2,0.1,0.3,0.1c-0.1,0-0.3-0.1-0.3-0.1
										c0.1,0,0.3,0.1,0.4,0.1l0,0C22.1-7,22-7,22.1-7l0,0c0.2,0.1,0.2,0.1,0.4,0.2l0,0c0.1,0,0.2,0.1,0.2,0.1l-0.1-0.1
										c0,0,0.1,0.1,0.1,0.1c0.1,0.1,0.1,0,0.1,0c0,0,0,0-0.1,0c0.1,0.1,0.3,0.2,0.4,0.2c0,0,0,0,0,0c0.1,0.1,0.3,0.2,0.3,0.2l0,0
										c0.1,0.1,0.3,0.2,0.3,0.2c0,0-0.1-0.1,0,0c0.1,0.1,0.2,0.1,0.2,0.1c0,0,0,0,0,0c0.1,0.1,0.1,0,0.1-0.1
										c0.1-0.2,0.1-0.5,0.1-0.7c0,0.1,0-0.1,0-0.1c0,0,0,0,0,0c0-0.1,0-0.1,0-0.1c0-0.1,0-0.2,0-0.2c0,0,0-0.1,0-0.1
										c0,0.1,0,0,0,0.1c0-0.2,0-0.2,0-0.4l0-0.1c0,0,0-0.2,0-0.2c0,0,0-0.1,0-0.1c0-0.1,0-0.2,0-0.2l0,0.1c0-0.2,0-0.4,0-0.6l0,0
										c0-0.1,0-0.2,0-0.3c0,0,0,0,0,0c0,0.1,0,0.1,0,0.2l0-0.2l0,0.3c0-0.1,0-0.1,0-0.1c0-0.2,0-0.2,0-0.3c0-0.1,0,0,0-0.1
										c0-0.1,0-0.3,0-0.4c0,0,0,0.1,0,0c0-0.1,0-0.1,0-0.2l0,0.1c0-0.1,0-0.1,0-0.2c0-0.1,0-0.1,0,0c0,0,0-0.1,0-0.1
										c0-0.2-0.1-0.1-0.1-0.3c0,0,0,0,0,0c0,0,0-0.1,0-0.1c0,0.2,0-0.1,0,0.1c0,0,0-0.1,0-0.2c0-0.1,0,0-0.1-0.1c0,0,0,0,0-0.1
										l0,0c0,0,0-0.1,0-0.1l0,0.1c0-0.1,0-0.2,0-0.4c0,0,0,0.1,0,0c0-0.2,0,0,0-0.1c0-0.2,0,0-0.1-0.3c0,0,0,0,0,0
										c0-0.2,0-0.2-0.1-0.4c0,0.1,0,0.1,0,0c0,0,0-0.1,0-0.2l0,0c0-0.1,0,0,0,0c0,0,0,0,0,0c0,0.1,0.1,0,0-0.1
										c0-0.1-0.1-0.1-0.1-0.1c0-0.2-0.1-0.1-0.1-0.3c0,0,0-0.2-0.1-0.3c0-0.1,0,0.2,0,0.1c0-0.2-0.2-0.4-0.2-0.7l0,0
										c0-0.1,0-0.1-0.1-0.2l0,0.1c0-0.1-0.1-0.2,0-0.2c-0.1-0.1-0.1-0.2-0.1-0.3c0.1,0.1,0,0,0.1,0.1c-0.1-0.1-0.1-0.1-0.1-0.2
										c0,0,0,0,0-0.1c-0.1-0.1-0.1-0.2-0.2-0.3l0,0c-0.1-0.2-0.2-0.4-0.4-0.6l0,0l0,0c0,0,0,0,0,0l0,0c0,0.1-0.1-0.1-0.2-0.2
										c0,0,0,0,0-0.1c0,0-0.1-0.1-0.1-0.1c0-0.1,0,0,0-0.1c0,0,0,0,0,0c0,0,0-0.1-0.1-0.2c0,0,0,0.1,0,0.1c0,0,0,0,0,0
										c0-0.1,0,0-0.1-0.1l0.1,0c0,0,0-0.1-0.1-0.1c0,0,0,0,0,0c-0.1-0.1-0.1,0-0.1,0c-0.1-0.1-0.2-0.2-0.3-0.3l0,0
										c0,0-0.1-0.1-0.1-0.1l-0.1-0.1c0,0,0.1,0.1,0.1,0c-0.1-0.1-0.2-0.2-0.2-0.2l0,0c-0.1-0.1-0.3-0.3-0.3-0.3
										c-0.1-0.1-0.2-0.3-0.3-0.2c-0.1-0.1-0.1-0.2-0.2-0.2c-0.1-0.1,0,0,0,0c-0.1-0.1-0.2-0.1-0.2-0.2c-0.1-0.1,0,0,0,0
										c0,0-0.2-0.2-0.2-0.3c-0.1,0,0,0,0,0c0,0,0,0,0-0.1l0,0l-0.1-0.1c-0.2-0.1,0,0.1-0.2-0.1l0,0c0-0.1-0.1-0.1-0.3-0.2
										c0,0,0,0,0,0l-0.1,0c0,0,0,0,0,0c-0.1-0.1-0.1,0-0.1-0.1c0.1,0,0.1,0,0,0l-0.1-0.1l0.1,0c-0.1-0.1-0.3-0.2-0.3-0.2l0.1,0
										c0,0,0-0.1-0.1-0.1c0,0-0.1,0,0,0l-0.1,0c0,0,0.2,0.1,0.3,0.1c0,0-0.1-0.1-0.1,0c0.1,0,0.2,0.1,0.2,0.1c0,0-0.1,0-0.1,0
										c0.1,0.1,0.1,0,0.1,0.1c0,0,0,0,0,0c0.1,0.1,0.1,0.1,0.2,0.2c0,0-0.1-0.1-0.1,0c0.2,0.1,0.2,0.1,0.4,0.2
										c0.2,0.1,0.3,0.3,0.5,0.4c0,0-0.1-0.1,0,0c0,0,0,0.1,0,0.1c0.1,0.1,0.1,0.1,0.2,0.2c0,0,0,0,0.1,0.1c0,0,0.1,0.1-0.1,0
										c0.2,0.1,0.2,0.2,0.3,0.3l0,0l0.1,0.1l0,0c0,0.1,0.1,0.1,0.1,0.2c0,0-0.1-0.1-0.1-0.1c0.1,0.1,0.1,0.1,0.2,0.2
										c0,0-0.1-0.1-0.1,0c0,0.1,0.1,0.1,0.1,0.1l0,0c0.1,0.2,0.1,0,0.1,0.1c0,0,0,0,0,0c0,0,0.1,0.1,0,0.1c0,0,0.1,0.1,0.1,0.1
										c0-0.1,0-0.1,0-0.1l0.2,0.2c0,0,0,0,0,0c0.1,0.3,0.4,0.5,0.5,0.8c0,0,0,0,0.1,0c0.1,0.1,0.1,0.2,0.2,0.3l0,0
										c0.2,0.2,0.2,0.4,0.3,0.5c0,0,0,0,0,0c0.1,0.1,0.1,0.3,0.1,0.3l0,0c0.1,0.2,0.3,0.5,0.4,0.7c0,0.1-0.1-0.1-0.1-0.1
										c0.1,0.2,0.2,0.3,0.2,0.5c0,0,0,0,0,0c0.1,0.2,0,0,0.1,0.1c0,0,0,0,0,0.1l0,0c0,0,0,0,0,0c0.1,0.1,0.1,0.3,0.1,0.3
										c0,0,0,0,0,0c0,0.1,0,0.1,0.1,0.2l0,0c0,0.1,0,0.2,0,0.2c0,0.2,0,0,0.1,0.1l0-0.1l0.1,0.2l0-0.1c0,0.1,0.1,0.2,0.1,0.3
										l0-0.1l0,0.1c0,0,0,0.2,0,0.1c0,0.2,0.1,0.4,0.1,0.6c0,0,0,0,0,0c0,0.1,0,0.2,0.1,0.3c0,0,0,0,0,0c0,0.2,0,0.1,0.1,0.3
										c0,0,0,0,0,0c0,0,0,0,0,0.1c-0.1-0.1,0,0.2-0.1,0.1c0,0,0.1,0.3,0.1,0.2l0,0c0,0,0,0.1,0,0.1c0,0,0-0.1,0-0.1
										c0,0.2,0,0.5,0.1,0.8c0,0,0-0.1,0-0.1c0,0.3,0,0.4,0,0.7c0,0,0-0.3,0-0.3c0,0.3,0,0.6,0,0.9c-0.1,0.1,0,0.3-0.1,0.5
										c0,0,0,0.1,0,0.2c0,0,0,0.1,0,0c0,0.1,0,0.4-0.1,0.4c0,0,0,0.2,0,0.3c0,0.1,0,0.2-0.1,0.5c0,0,0,0,0,0.1
										c0,0-0.2-0.1-0.2-0.1c0,0,0.1,0.1,0.1,0c0,0-0.1-0.1-0.2-0.1c-0.1,0-0.1-0.1-0.1-0.1c0,0,0,0,0-0.1c0,0-0.2-0.1-0.3-0.2
										c0,0,0,0,0.1,0c-0.3-0.2-0.7-0.5-1-0.7l0.1,0c-0.2-0.1-0.2,0-0.3-0.1c-0.5-0.3-1-0.5-1.5-0.6c0,0,0,0,0,0c0,0-0.1,0-0.1,0
										l0,0c-0.2-0.1-0.7-0.2-0.9-0.3c-0.2,0-0.4-0.1-0.7-0.1c-0.1,0,0.1,0,0,0l-0.3,0l0,0c-0.3,0-0.7-0.1-1-0.1l0,0
										c0,0-0.1,0-0.1,0c0,0,0,0,0,0c-0.3,0-0.4,0-0.6,0c0.1,0-0.1,0-0.1,0c-0.1,0,0,0-0.1,0c-0.2,0-0.4,0-0.5,0
										c-0.1,0-0.1,0-0.1,0.1c-0.2,0-0.3,0.1-0.6,0.1l0,0c-0.1,0-0.2,0-0.3,0.1c0,0,0,0,0,0l-0.1,0c0.1,0,0.1-0.1,0,0
										c-0.1,0,0,0,0,0l0,0c-0.1,0-0.1,0.1,0,0L15-7.5l-0.4,0.1l0.3-0.3C15-7.8,15.1-7.9,15.2-8l0,0c0.1-0.1,0.3-0.2,0.4-0.2
										c0,0,0,0,0,0c0.1-0.1,0,0,0.2-0.1c0,0-0.1,0-0.1,0.1l0.3-0.1c0,0,0.2,0,0.3-0.1c0,0,0,0-0.1,0l0.1,0l0.1,0l0.1-0.1l0,0
										c0.1,0,0.1-0.1,0.2-0.1c0.2-0.1,0.2-0.1,0.4-0.2c0,0,0.2-0.2,0.2-0.3c0.2-0.2,0.3-0.5,0.5-0.8l0,0c0.1-0.1,0-0.2,0.1-0.3
										l0,0c0.1-0.2,0.2-0.5,0.2-0.7c0,0,0,0,0,0c0-0.1,0,0,0-0.1c0,0,0,0,0,0l0-0.1c0.1-0.3,0.1-0.6,0.1-0.9c0-0.1,0,0,0,0
										c0-0.2,0-0.5,0-0.7l0,0c0-0.1,0-0.1,0-0.2c0,0,0,0.1,0,0.1c0-0.2,0-0.1,0-0.3l0,0c0-0.2,0-0.2,0-0.2
										c-0.1-0.2,0.1-0.2,0-0.4c0,0,0,0,0,0c0-0.2,0-0.2-0.1-0.4c0-0.1,0,0.1,0,0l0,0.2c0-0.1,0,0.1,0,0.1c0-0.1-0.1-0.2-0.1-0.4
										c0,0,0,0.1,0,0.1l0-0.1c0,0,0,0,0,0.1c0,0,0-0.1,0-0.1c0,0,0,0,0,0c0,0,0,0,0,0c0-0.1-0.1-0.3-0.1-0.4c0,0,0,0,0,0
										c0-0.1-0.1-0.1-0.1-0.2C17.7-15,17.8-14.9,17.7-15.1C17.7-15.1,17.7-15,17.7-15.1C17.7-15.2,17.7-15,17.7-15.1z M18.2-12
										C18.2-12,18.2-12,18.2-12L18.2-12C18.2-12,18.2-12,18.2-12z M18.2-11.7C18.2-11.8,18.2-11.8,18.2-11.7
										C18.1-11.7,18.1-11.7,18.2-11.7C18.1-11.7,18.2-11.8,18.2-11.7z M18.3-12.3L18.3-12.3C18.3-12.2,18.3-12.2,18.3-12.3
										C18.3-12.2,18.3-12.2,18.3-12.3C18.3-12.2,18.3-12.2,18.3-12.3z"/>
									<polygon fill="#202020" points="18.3,-12.3 18.3,-12.3 18.3,-12.3 18.3,-12.3 									"/>
									<path fill="#202020" d="M22.6-14.6L22.6-14.6C22.6-14.6,22.6-14.6,22.6-14.6L22.6-14.6z"/>
									<polygon fill="#202020" points="16.4,-8.5 16.4,-8.5 16.5,-8.5 									"/>
									<path fill="#202020" d="M21.7-15.9C21.7-15.9,21.7-15.9,21.7-15.9C21.7-15.9,21.7-15.9,21.7-15.9z"/>
									<path fill="#202020" d="M21.3-16.4L21.3-16.4C21.3-16.4,21.3-16.4,21.3-16.4z"/>
									<path fill="#202020" d="M21-16.7C21-16.7,20.9-16.7,21-16.7L21-16.7L21-16.7z"/>
									<path fill="#202020" d="M24.4-9.5L24.4-9.5C24.4-9.4,24.4-9.5,24.4-9.5z"/>
									<path fill="#202020" d="M23.9-11.9C23.9-11.8,23.9-11.8,23.9-11.9C23.9-11.8,23.9-11.9,23.9-11.9z"/>
									<polygon fill="#202020" points="24.4,-6.8 24.4,-6.8 24.4,-6.8 									"/>
									<path fill="#202020" d="M24-11.7c0,0,0-0.1,0-0.1C23.9-11.8,23.9-11.7,24-11.7z"/>
									<polygon fill="#202020" points="19.2,-18.1 19.2,-18.2 19.2,-18.2 									"/>
									<path fill="#202020" d="M19.2-18.2L19.2-18.2C19.2-18.2,19.2-18.2,19.2-18.2z"/>
									<path fill="#202020" d="M19.1-18.2L19.1-18.2C19.2-18.2,19.1-18.2,19.1-18.2z"/>
									<path fill="#202020" d="M19.8-17.7L19.8-17.7L19.8-17.7z"/>
									<path fill="#202020" d="M19.9-17.6c0,0-0.1-0.1-0.1-0.1l0,0C19.8-17.7,19.9-17.6,19.9-17.6z"/>
									<path fill="#202020" d="M20.5-17l-0.1-0.1c0,0,0,0.1,0,0C20.5-16.9,20.4-17.1,20.5-17z"/>
									<path fill="#202020" d="M20.9-16.6C20.9-16.7,20.9-16.6,20.9-16.6C21-16.6,21-16.6,20.9-16.6z"/>
									<path fill="#202020" d="M23.2-13.5L23.2-13.5C23.2-13.4,23.1-13.5,23.2-13.5z"/>
									<polygon fill="#202020" points="23.6,-12.9 23.5,-12.9 23.5,-13 									"/>
									<polygon fill="#202020" points="23.6,-12.4 23.6,-12.4 23.6,-12.3 									"/>
									<path fill="#202020" d="M24.1-6.1L24.1-6.1C24.1-6.1,24.1-6.1,24.1-6.1z"/>
									<path fill="#202020" d="M22.2-7c0,0-0.1-0.1-0.1-0.1C22.1-7,22.1-7,22.2-7z"/>
									<polygon fill="#202020" points="15.8,-8 15.8,-8 15.9,-8.1 									"/>
								</g>
							</g>
						</g>
					</g>
				</g>
				<g>
					<g>
						<g>
							<g>
								<g>
									<path fill="#202020" d="M14.8-7.8C14.8-7.8,14.8-7.8,14.8-7.8L14.8-7.8L14.8-7.8z"/>
									<path fill="#202020" d="M14.8-7.7C14.8-7.7,14.8-7.6,14.8-7.7C14.8-7.7,14.8-7.7,14.8-7.7C14.8-7.7,14.8-7.7,14.8-7.7
										C14.8-7.7,14.8-7.7,14.8-7.7C14.8-7.7,14.8-7.7,14.8-7.7C14.8-7.7,14.8-7.7,14.8-7.7z"/>
									<path fill="#202020" d="M15.3-6.1L15.3-6.1L15.3-6.1z"/>
									<path fill="#202020" d="M16-5.4C16-5.4,16-5.4,16-5.4C16-5.4,16-5.4,16-5.4z"/>
									<path fill="#202020" d="M16.2-5.3L16.2-5.3L16.2-5.3z"/>
									<path fill="#202020" d="M15.3-6.1L15.3-6.1C15.3-6.1,15.3-6.1,15.3-6.1z"/>
									<path fill="#202020" d="M14.9-7.5L14.9-7.5C14.9-7.5,14.9-7.5,14.9-7.5L14.9-7.5z"/>
									<polygon fill="#202020" points="15.1,-6.5 15.1,-6.5 15.1,-6.5 									"/>
									<path fill="#202020" d="M15-6.8C15-6.8,15-6.8,15-6.8C15-6.8,15-6.8,15-6.8C15-6.9,15-6.8,15-6.8z"/>
									<path fill="#202020" d="M14.8-7.4L14.8-7.4L14.8-7.4z"/>
									<path fill="#202020" d="M15.2-6.3L15.2-6.3L15.2-6.3z"/>
									<path fill="#202020" d="M23.9-4.9L23.9-4.9L23.9-4.9z"/>
									<polygon fill="#202020" points="24.2,-5.1 24.2,-5.1 24.2,-5.1 									"/>
									<path fill="#202020" d="M16.4-5.1L16.4-5.1C16.4-5.1,16.4-5.1,16.4-5.1z"/>
									<path fill="#202020" d="M19.2-4.2C19.2-4.2,19.2-4.2,19.2-4.2C19.2-4.2,19.2-4.2,19.2-4.2z"/>
									<path fill="#202020" d="M14.9-7.5L14.9-7.5C14.9-7.5,14.9-7.5,14.9-7.5z"/>
									<polygon fill="#202020" points="19.2,-4.2 19.2,-4.2 19.2,-4.2 									"/>
									<path fill="#202020" d="M17.1-4.8L17.1-4.8C17.1-4.8,17.1-4.8,17.1-4.8z"/>
									<path fill="#202020" d="M16.6-5.1L16.6-5.1C16.6-5.1,16.6-5.1,16.6-5.1z"/>
									<path fill="#202020" d="M17.4-4.7C17.4-4.7,17.4-4.7,17.4-4.7L17.4-4.7C17.4-4.7,17.4-4.7,17.4-4.7z"/>
									<polygon fill="#202020" points="17.7,-4.6 17.7,-4.6 17.6,-4.6 									"/>
									<path fill="#202020" d="M23.2-4.4L23.2-4.4C23.2-4.4,23.2-4.4,23.2-4.4z"/>
									<path fill="#202020" d="M14.9-7.5C14.9-7.5,14.9-7.5,14.9-7.5L14.9-7.5L14.9-7.5z"/>
									<path fill="#202020" d="M17.5-4.9L17.5-4.9C17.5-4.9,17.5-4.9,17.5-4.9z"/>
									<path fill="#202020" d="M21.2-4.1L21.2-4.1L21.2-4.1z"/>
									<path fill="#202020" d="M17.6-4.8C17.6-4.8,17.6-4.8,17.6-4.8L17.6-4.8L17.6-4.8z"/>
									<path fill="#202020" d="M23.2-4.4L23.2-4.4L23.2-4.4z"/>
									<path fill="#202020" d="M23.4-4.5C23.5-4.6,23.4-4.5,23.4-4.5C23.5-4.6,23.5-4.6,23.4-4.5c0.1,0,0.1,0,0.1,0c0,0,0,0,0-0.1
										c0,0,0,0.1,0,0.1c0,0,0-0.1,0-0.1c0,0,0,0,0.1,0l0,0c0,0,0.1-0.1,0.1-0.1c0,0,0.1-0.1,0.1,0c0,0,0,0,0-0.1c0,0,0,0,0.1,0
										c0,0,0,0,0-0.1c0,0,0,0,0,0c0,0,0,0,0,0c0,0,0,0,0,0c0,0,0,0,0,0l0-0.1c0,0,0,0,0,0c0,0,0,0,0,0l0,0l0,0l0,0
										c0.1,0,0.1,0,0.1,0l0,0c0,0,0,0,0,0c0,0,0,0.1,0,0.1c-0.1,0.1,0,0-0.1,0l0,0.1l0,0c0,0,0,0,0,0c0,0,0,0-0.1,0.1l0,0
										c0,0.1-0.1,0.1-0.2,0.1l0,0.1l0,0c0,0,0,0,0,0.1c-0.2,0.1-0.3,0.2-0.4,0.2c0,0,0,0,0,0c-0.1,0-0.2,0.1-0.3,0.1l0,0
										c-0.1,0,0,0,0,0c0,0-0.1,0-0.1,0.1c0,0,0,0,0,0c0,0,0,0,0,0c0,0.1-0.1,0.1-0.2,0.1c0,0-0.1,0-0.1,0c0,0,0,0,0,0
										c0,0,0,0-0.1,0c0,0,0,0,0.1,0l0,0c0,0,0,0,0,0c0,0,0,0,0,0c0,0,0,0,0,0c0,0-0.1,0-0.1,0c0,0,0,0,0,0c0,0,0,0,0,0l0,0l0,0
										c0,0-0.1,0-0.1,0.1c0,0,0,0,0,0c0,0,0,0,0.1,0c0,0,0,0,0,0c0,0-0.1,0-0.1,0c0,0,0,0,0,0c0,0,0,0,0,0c0,0-0.1,0-0.1,0
										c0,0,0,0-0.1,0l0,0c0,0,0,0-0.1,0c0,0,0,0,0,0c0,0,0,0-0.1,0.1l0,0c0,0-0.1,0-0.1,0c0,0-0.1,0-0.1,0c0,0,0,0,0,0
										c-0.1,0-0.2,0-0.2,0l0,0c0,0,0,0.1-0.1,0.1l0,0c-0.1,0-0.1,0-0.2,0l0,0c0,0,0,0-0.1,0c0-0.1-0.2,0-0.3,0l0,0
										c0,0-0.1,0-0.1,0l0,0c0,0,0,0-0.1,0c0,0,0,0,0,0c-0.1,0-0.2,0-0.3-0.1c-0.1,0-0.2,0-0.3,0l0,0c0,0-0.1,0-0.1-0.1
										c-0.1,0-0.1,0-0.2,0l0,0c0,0-0.1,0-0.1,0c0,0,0,0,0,0c0,0,0,0-0.1,0l0,0c-0.1,0-0.2,0-0.3,0c0,0,0,0,0,0c0,0-0.1,0-0.2,0
										l0,0c-0.1,0-0.1-0.1-0.1,0l0,0c0,0-0.1,0-0.1,0c0,0,0,0,0,0c0,0,0,0,0,0l-0.1,0c0,0,0,0,0,0c0,0-0.1,0,0,0
										c-0.1,0-0.2-0.1-0.3-0.1c0-0.1-0.2,0-0.1-0.1c0,0-0.1,0-0.1,0c0,0,0,0,0,0c0,0-0.1,0-0.1,0c0,0,0.1,0,0.1,0
										c0,0-0.1,0-0.1,0l0,0c0,0,0,0-0.1,0l0,0c-0.1,0-0.1,0-0.1,0l0,0c0,0-0.1,0-0.1,0l0,0c0,0,0,0,0-0.1c0,0,0,0,0,0
										c0,0,0,0,0,0c0,0-0.1,0-0.2,0l0,0c0,0-0.1,0-0.1,0l0,0c0,0-0.1,0-0.1-0.1c0,0,0,0,0,0c-0.1,0-0.1,0-0.1,0c0,0,0,0,0,0
										c0,0-0.1,0-0.1,0c0-0.1-0.2,0-0.2-0.1c0,0,0,0,0,0l0,0c0,0,0,0,0,0c0,0-0.1,0-0.1,0c0,0,0,0,0,0c0,0,0,0,0,0
										c-0.1,0-0.1,0-0.1,0l0,0c0,0-0.1,0-0.1,0c0,0,0,0,0,0c0,0-0.1,0-0.1,0l0,0c-0.1,0-0.1,0-0.2-0.1l0,0c0,0-0.1,0-0.1,0
										c0,0,0,0,0,0c0,0,0,0,0.1,0l-0.1,0l0.1,0c0,0,0,0,0,0c-0.1,0,0,0-0.1,0c0,0,0,0,0,0c0,0-0.1-0.1-0.1-0.1c0,0,0,0,0,0
										c0,0,0,0-0.1,0l0,0c0,0,0,0-0.1,0c0,0,0,0,0,0c0,0,0,0,0,0c-0.1,0,0,0-0.1,0l0,0c0,0,0,0,0,0c0,0,0,0,0.1,0c0,0,0,0-0.1,0
										c0,0,0,0,0,0c0,0,0,0,0,0l0,0c0,0,0,0,0,0l0,0c0,0,0-0.1-0.1-0.1c0,0,0,0,0,0c-0.1,0,0,0,0,0c0,0,0,0-0.1,0c0,0,0,0,0,0
										c0,0-0.1,0-0.1-0.1c0,0,0,0,0,0c0,0,0,0,0-0.1l0,0c0,0,0,0,0,0c0,0,0,0,0,0c0,0,0,0,0-0.1c0,0-0.1,0,0,0c0,0-0.1,0-0.1,0
										c0,0,0-0.1-0.1-0.1c0,0,0,0,0,0c0-0.1-0.1-0.1-0.2-0.1l0,0c0,0,0,0,0,0l0,0c0,0,0,0,0-0.1c0,0,0,0-0.1-0.1c0,0,0,0,0,0
										c0,0,0,0-0.1-0.1c0,0,0,0,0,0c0,0-0.1-0.1-0.1-0.1l0,0c-0.1-0.1-0.1-0.1-0.1-0.2l0,0l0,0l0,0l0,0c0,0,0,0-0.1-0.1
										c0,0,0,0,0,0c0,0,0,0,0,0c0,0,0,0,0,0c0,0,0,0,0,0c0,0,0,0,0-0.1c0,0,0,0,0,0c0,0,0,0,0,0c0,0,0,0,0,0l0,0c0,0,0,0,0,0
										c0,0,0,0,0,0c0,0,0,0-0.1,0c0-0.1-0.1-0.1-0.1-0.1l0,0c0,0,0,0,0,0l0,0c0,0,0,0,0,0c0,0,0-0.1-0.1-0.1l0,0c0,0,0-0.1,0-0.1
										c0,0,0-0.1-0.1-0.1c0,0,0-0.1,0-0.1c0,0,0,0,0,0c0,0,0-0.1,0-0.1c0,0,0,0,0,0c0,0,0-0.1,0-0.1c0,0,0,0,0,0c0,0,0,0,0,0l0,0
										l0-0.1c0,0,0,0-0.1,0l0,0c0,0,0,0,0-0.1c0,0,0,0,0,0l0,0l0,0c0,0,0,0,0-0.1c0,0,0,0,0,0l0,0l0,0c0,0-0.1-0.1,0-0.1l0,0
										c0,0,0,0,0,0c0,0,0,0,0,0l0,0c0,0,0,0.1,0.1,0.1c0,0,0,0,0,0c0,0,0,0.1,0,0.1c0,0,0,0,0,0c0,0,0,0,0,0c0,0,0,0,0,0
										c0,0,0,0,0,0.1c0,0,0,0,0,0c0,0.1,0.1,0.1,0.1,0.1C15-7.2,15-7.1,15-7.1c0,0,0,0,0,0c0,0,0,0,0,0c0,0,0,0.1,0,0.1
										c0,0,0,0,0,0c0,0,0,0,0,0c0.1,0,0,0.1,0.1,0.1l0,0l0,0.1l0,0c0,0,0,0,0,0.1c0,0,0,0,0,0c0,0,0,0,0.1,0.1c0,0,0,0,0,0
										c0,0,0,0,0,0.1l0,0c0,0.1,0.1,0,0,0.1c0,0,0,0,0,0c0,0,0,0.1,0,0c0,0,0,0,0,0c0,0,0,0,0,0l0,0.1c0,0,0,0,0,0
										c0,0.1,0.1,0.1,0.1,0.3c0,0,0,0,0,0c0,0,0,0.1,0.1,0.1l0,0c0.1,0.1,0.1,0.1,0.1,0.1c0,0,0,0,0,0c0,0,0,0.1,0.1,0.1l0,0
										c0,0.1,0.1,0.1,0.2,0.2c0,0,0,0,0,0c0,0,0.1,0.1,0.1,0.1c0,0,0,0,0,0c0,0.1,0,0,0,0c0,0,0,0,0,0l0,0c0,0,0,0,0,0
										c0,0,0.1,0,0.1,0c0,0,0,0,0,0c0,0,0,0,0.1,0h0c0,0,0,0,0,0c0,0,0,0,0.1,0l0,0l0.1,0l0,0c0,0,0.1,0,0.1,0l0,0l0,0
										c0,0,0,0,0,0c0.1,0.1,0.1,0,0.2,0.1c0,0,0,0,0,0c0,0,0.1,0,0.1,0c0,0,0,0,0,0c0,0,0,0,0.1,0c0,0,0,0,0,0c0,0,0,0,0,0
										c-0.1,0,0,0.1,0,0.1c0,0,0.1,0,0.1,0l0,0c0,0,0,0,0,0c0,0,0,0,0,0c0.1,0,0.1,0.1,0.2,0.1c0,0,0,0,0,0c0.1,0,0.1,0,0.2,0.1
										c0,0-0.1,0-0.1,0C17.1-5,17.1-5,17.2-5c0,0.1,0.1,0,0.1,0.1c0,0,0,0,0.1,0c0,0,0,0,0,0c0,0,0.1,0,0.1,0.1c0,0,0.1,0,0.1,0
										c0,0,0.1,0,0.1,0c0,0,0,0,0.1,0c0,0,0,0,0,0c0,0,0.1,0,0.1,0c0,0,0,0,0,0c0,0,0.1,0,0.1,0c0,0,0,0,0,0
										c0.1,0,0.2,0.1,0.4,0.1l0,0c0.1,0.1,0.1,0,0.1,0c0.2,0.1,0.3,0.1,0.5,0.2c0,0,0,0,0,0c0,0,0,0,0,0l0,0
										c0.1,0.1,0.2,0,0.3,0.1c0.1,0,0.1,0,0.2,0c0,0,0,0,0,0l0.1,0l0,0c0.1,0,0.2,0.1,0.3,0.1l0,0c0,0,0,0,0,0c0,0,0,0,0,0
										c0.1,0,0.1,0,0.2,0c0,0,0,0,0,0c0,0,0,0,0,0c0.1,0,0.1,0,0.2,0c0,0,0,0,0.1,0c0.1,0,0.1,0,0.2,0l0,0c0,0,0.1,0,0.1,0
										c0,0,0,0,0,0l0,0c0,0,0,0,0,0c0,0,0,0,0,0l0,0c0,0,0,0,0,0c0.1,0,0.2,0,0.2,0l0,0c0,0,0.1,0,0.1,0c0,0,0,0,0,0
										c0,0,0,0,0.1,0c0,0,0,0,0,0l0.1,0c0,0,0.1,0,0.1,0c0,0,0,0,0,0l0,0l0,0l0,0l0,0c0,0,0,0,0.1,0c0.1,0,0.1,0,0.1,0
										c0,0,0.1,0,0.1,0c0.1,0,0.2,0,0.3,0l0,0c0,0,0,0,0.1,0l0,0c0.1,0,0.2,0,0.2,0c0,0,0,0,0,0c0,0,0,0,0,0c0,0,0,0,0,0l0,0
										c0.1,0,0.2,0,0.3,0c0,0,0,0,0,0c0,0,0.2-0.1,0.2-0.1l0,0c0,0,0,0,0.1,0c0,0,0,0,0,0c0.1,0,0,0,0.1,0l0,0c0,0,0,0,0.1-0.1
										c0.1-0.1,0.1,0,0.1,0c0,0,0,0,0,0c0.1,0,0.1,0,0.1,0c0,0,0,0,0,0l0,0c0,0,0,0,0,0c0,0,0.1,0,0.1-0.1c0,0,0,0,0,0l0,0
										c0,0,0,0,0,0c0,0,0,0,0,0c0,0,0,0,0,0l0,0c0,0,0.1,0,0.1-0.1c0,0,0,0,0,0C23.3-4.5,23.4-4.5,23.4-4.5
										C23.4-4.5,23.4-4.5,23.4-4.5C23.4-4.5,23.4-4.5,23.4-4.5C23.4-4.6,23.4-4.5,23.4-4.5z M22.5-4.2
										C22.5-4.2,22.5-4.2,22.5-4.2L22.5-4.2C22.5-4.2,22.5-4.2,22.5-4.2z M22.5-4.2C22.5-4.2,22.5-4.2,22.5-4.2
										C22.5-4.2,22.4-4.2,22.5-4.2C22.4-4.2,22.5-4.2,22.5-4.2z M22.6-4.1L22.6-4.1C22.6-4.1,22.6-4.1,22.6-4.1
										C22.6-4.1,22.6-4,22.6-4.1L22.6-4.1z"/>
									<polygon fill="#202020" points="22.7,-4.1 22.7,-4.1 22.7,-4.1 22.6,-4.1 									"/>
									<polygon fill="#202020" points="15.3,-6.2 15.3,-6.1 15.3,-6.2 									"/>
									<polygon fill="#202020" points="21.2,-4.1 21.2,-4.1 21.3,-4.1 									"/>
									<path fill="#202020" d="M15.2-6.6L15.2-6.6L15.2-6.6z"/>
									<path fill="#202020" d="M15.1-6.8L15.1-6.8C15.1-6.8,15.1-6.8,15.1-6.8z"/>
									<polygon fill="#202020" points="15.1,-6.9 15,-6.9 15,-6.9 									"/>
									<path fill="#202020" d="M16.7-5.2L16.7-5.2C16.7-5.2,16.7-5.2,16.7-5.2z"/>
									<path fill="#202020" d="M16-5.5C16-5.5,16-5.5,16-5.5C16-5.5,16-5.6,16-5.5z"/>
									<polygon fill="#202020" points="17.5,-4.9 17.5,-4.9 17.5,-4.9 									"/>
									<path fill="#202020" d="M16.1-5.5C16.1-5.5,16.1-5.5,16.1-5.5C16.1-5.5,16.1-5.5,16.1-5.5z"/>
									<polygon fill="#202020" points="14.9,-7.6 14.9,-7.6 14.9,-7.6 									"/>
									<path fill="#202020" d="M14.9-7.6L14.9-7.6L14.9-7.6z"/>
									<path fill="#202020" d="M14.9-7.6L14.9-7.6C14.9-7.6,14.9-7.6,14.9-7.6z"/>
									<path fill="#202020" d="M14.9-7.4L14.9-7.4L14.9-7.4z"/>
									<path fill="#202020" d="M14.9-7.3C14.9-7.4,14.9-7.4,14.9-7.3L14.9-7.3C14.9-7.4,14.9-7.4,14.9-7.3z"/>
									<path fill="#202020" d="M14.9-7.1L14.9-7.1C14.9-7.1,14.9-7.1,14.9-7.1C14.9-7,14.9-7.1,14.9-7.1z"/>
									<path fill="#202020" d="M15-6.9C14.9-6.9,14.9-6.9,15-6.9C15-6.9,15-6.9,15-6.9z"/>
									<path fill="#202020" d="M15.5-5.8L15.5-5.8C15.5-5.8,15.5-5.8,15.5-5.8z"/>
									<polygon fill="#202020" points="15.8,-5.7 15.8,-5.8 15.7,-5.8 									"/>
									<polygon fill="#202020" points="15.8,-5.5 15.8,-5.6 15.8,-5.5 									"/>
									<path fill="#202020" d="M17.6-4.6L17.6-4.6C17.6-4.7,17.6-4.6,17.6-4.6z"/>
									<path fill="#202020" d="M18.4-4.4C18.4-4.4,18.5-4.4,18.4-4.4C18.5-4.4,18.5-4.4,18.4-4.4z"/>
									<polygon fill="#202020" points="21,-3.9 21,-3.9 21,-3.9 									"/>
								</g>
							</g>
						</g>
					</g>
				</g>
			</g>
		</g>
		<polygon fill="none" points="36,0 0,0 0,-34.9 36,-34.9 		"/>
	</g>
</pattern>
<pattern  id="SVGID_1_" xlink:href="#New_Pattern_Swatch_1" patternTransform="matrix(1.01 0 0 1.01 71.9664 68.6695)">
</pattern>
<rect fill="url(#SVGID_1_)" width="144" height="144.9"/>
</svg>
