<?xml version="1.0" encoding="utf-8"?>
<!-- Generator: Adobe Illustrator 18.0.0, SVG Export Plug-In . SVG Version: 6.00 Build 0)  -->
<!DOCTYPE svg PUBLIC "-//W3C//DTD SVG 1.1//EN" "http://www.w3.org/Graphics/SVG/1.1/DTD/svg11.dtd">
<svg version="1.1" id="Layer_1" xmlns="http://www.w3.org/2000/svg" xmlns:xlink="http://www.w3.org/1999/xlink" x="0px" y="0px"
	 viewBox="0 0 144 144" enable-background="new 0 0 144 144" xml:space="preserve">
<pattern  width="18" height="17.8" patternUnits="userSpaceOnUse" id="New_Pattern_Swatch_2" viewBox="0 -17.8 18 17.8" overflow="visible">
	<g>
		<polygon fill="none" points="0,0 18,0 18,-17.8 0,-17.8 		"/>
		<g>
			<g>
				<g>
					<g>
						<g>
							<g>
								<path fill="#202020" d="M6.6-10.4C6.6-10.4,6.6-10.4,6.6-10.4L6.6-10.4L6.6-10.4z"/>
								<path fill="#202020" d="M6.7-10.4C6.7-10.4,6.7-10.4,6.7-10.4C6.7-10.4,6.7-10.4,6.7-10.4C6.7-10.4,6.7-10.4,6.7-10.4
									C6.6-10.4,6.6-10.4,6.7-10.4C6.6-10.4,6.6-10.4,6.7-10.4C6.6-10.4,6.6-10.4,6.7-10.4L6.7-10.4C6.7-10.4,6.7-10.4,6.7-10.4z"
									/>
								<path fill="#202020" d="M7.4-9.9L7.4-9.9L7.4-9.9z"/>
								<path fill="#202020" d="M8.1-10L8.1-10L8.1-10z"/>
								<path fill="#202020" d="M8.2-9.8C8.2-9.8,8.2-9.8,8.2-9.8L8.2-9.8z"/>
								<path fill="#202020" d="M7.4-9.9L7.4-9.9C7.5-9.9,7.4-9.9,7.4-9.9z"/>
								<path fill="#202020" d="M6.8-10.3C6.8-10.3,6.8-10.3,6.8-10.3C6.8-10.3,6.8-10.3,6.8-10.3L6.8-10.3z"/>
								<polygon fill="#202020" points="7.2,-10.2 7.2,-10.2 7.2,-10.1 								"/>
								<path fill="#202020" d="M7.2-10.1C7.2-10.1,7.2-10.1,7.2-10.1C7.2-10.1,7.2-10.1,7.2-10.1C7.2-10.1,7.2-10.1,7.2-10.1z"/>
								<path fill="#202020" d="M6.7-10.2L6.7-10.2L6.7-10.2z"/>
								<path fill="#202020" d="M7.2-10L7.2-10L7.2-10z"/>
								<path fill="#202020" d="M6.3-10.5L6.3-10.5L6.3-10.5z"/>
								<polygon fill="#202020" points="6.6,-10.4 6.6,-10.4 6.6,-10.4 								"/>
								<path fill="#202020" d="M8.5-9.7L8.5-9.7C8.5-9.7,8.5-9.7,8.5-9.7z"/>
								<path fill="#202020" d="M9.5-11.4C9.5-11.4,9.4-11.4,9.5-11.4C9.4-11.4,9.5-11.4,9.5-11.4z"/>
								<path fill="#202020" d="M6.8-10.3C6.8-10.3,6.8-10.3,6.8-10.3L6.8-10.3z"/>
								<polygon fill="#202020" points="9.4,-11.4 9.4,-11.4 9.4,-11.4 								"/>
								<path fill="#202020" d="M9.3-10L9.3-10C9.2-10,9.2-10,9.3-10z"/>
								<path fill="#202020" d="M8.7-9.7L8.7-9.7C8.7-9.7,8.7-9.7,8.7-9.7z"/>
								<path fill="#202020" d="M9.3-10.2C9.3-10.2,9.3-10.2,9.3-10.2L9.3-10.2C9.3-10.2,9.3-10.2,9.3-10.2z"/>
								<polygon fill="#202020" points="9.5,-10.2 9.5,-10.2 9.5,-10.2 								"/>
								<path fill="#202020" d="M6.4-11C6.4-10.9,6.4-10.9,6.4-11C6.4-10.9,6.4-10.9,6.4-11z"/>
								<path fill="#202020" d="M6.8-10.3C6.8-10.3,6.8-10.3,6.8-10.3C6.8-10.3,6.8-10.3,6.8-10.3L6.8-10.3z"/>
								<path fill="#202020" d="M9.2-10.4L9.2-10.4C9.2-10.5,9.2-10.4,9.2-10.4z"/>
								<path fill="#202020" d="M7.8-11.7L7.8-11.7L7.8-11.7z"/>
								<path fill="#202020" d="M9.4-10.4C9.4-10.4,9.4-10.4,9.4-10.4L9.4-10.4C9.5-10.4,9.4-10.4,9.4-10.4z"/>
								<path fill="#202020" d="M6.4-10.9L6.4-10.9L6.4-10.9z"/>
								<path fill="#202020" d="M6.2-10.8C6.2-10.7,6.2-10.8,6.2-10.8C6.1-10.7,6.1-10.7,6.2-10.8C6.1-10.7,6.1-10.7,6.2-10.8
									c0,0.1-0.1,0.1,0,0.1C6.1-10.6,6.1-10.7,6.2-10.8c-0.1,0.1-0.1,0.1,0,0.1c0,0,0,0,0,0l0,0c0,0,0.1,0.1,0.1,0.1
									c0,0,0.1,0,0,0.1c0,0,0,0,0.1,0c0,0,0,0,0,0c0,0,0,0,0.1,0c0,0,0,0,0,0c0,0,0,0,0,0c0,0,0,0,0,0c0,0,0,0,0,0l0,0
									c0,0,0,0,0,0c0,0,0,0,0,0l0,0l0,0l0,0c0.1,0,0.1,0,0.1,0.1l0,0c0,0,0,0,0,0c0,0,0,0.1-0.1,0.1c-0.1,0,0,0-0.1,0l-0.1,0l0,0
									c0,0,0,0,0,0c0,0-0.1,0-0.1,0l0,0c-0.1,0-0.1-0.1-0.2-0.1l-0.1,0l0,0c0,0,0,0-0.1-0.1c-0.1-0.2,0-0.4,0.2-0.5c0,0,0,0,0,0
									c0,0,0.1,0,0.1,0c0,0,0,0,0-0.1c0,0,0-0.1,0-0.1l0,0c0-0.1,0,0,0,0c0,0,0-0.1,0-0.1c0,0,0,0,0,0c0,0,0,0,0,0
									c0-0.1,0.1-0.1,0.1-0.2c0,0,0.1,0,0.1,0c0,0,0,0,0,0c0,0,0,0,0.1,0c0,0,0,0-0.1,0l0,0c0,0,0,0,0,0c0,0,0,0,0,0c0,0,0,0,0,0
									c0,0,0.1,0,0.1,0c0,0,0,0,0,0c0,0,0,0,0,0l0,0l0,0c0,0,0.1,0,0.1,0c0,0,0,0,0,0.1c0,0,0,0-0.1,0c0,0,0,0,0,0
									c0.1,0,0,0,0.1,0c0,0,0,0,0,0c0,0,0,0,0,0c0,0,0,0,0,0c0,0,0,0,0,0c0,0,0,0,0-0.1l0,0c0,0,0,0,0-0.1c0,0,0,0,0,0
									c0-0.1,0-0.1,0-0.1l0,0c0,0,0.1-0.1,0.1-0.1c0,0,0.1-0.1,0.1-0.1c0,0,0,0,0,0c0.1-0.1,0.2-0.1,0.2-0.1l0,0
									c0,0,0-0.1,0.1-0.1l0,0c0.1,0,0.1,0,0.2,0l0,0c0,0,0.1,0,0.1,0c0,0.1,0.2,0,0.3,0.1l0,0c0,0,0,0,0,0c0,0,0,0,0,0l0,0
									c0,0,0,0,0,0c0,0,0,0,0,0c0,0,0.2-0.1,0.2,0c0.1,0,0.2-0.1,0.3,0l0,0c0,0,0.1,0.1,0.1,0.1c0.1,0,0.2,0,0.2,0.1l0,0
									c0,0,0.1,0,0.1,0.1c0,0,0,0,0,0c0,0,0,0,0,0l0,0c0,0,0,0,0,0.1c0,0,0,0,0,0c0,0,0,0,0,0c0,0,0.1-0.1,0.2-0.1l0,0
									c0.1,0,0.1,0,0.2,0l0,0c0,0,0.1,0,0.1,0c0,0,0,0,0.1,0.1c0,0,0,0,0,0l0.1,0.1c0,0,0,0,0,0c0,0,0.1,0,0.1,0
									c0.1,0.1,0.1,0.2,0.1,0.3c0,0,0,0,0,0c0,0,0,0-0.1,0.1c0,0,0,0,0,0c0,0,0,0,0.1,0c0,0,0,0,0,0c0,0,0.1,0,0.1,0
									c0,0-0.1,0-0.1,0c0,0,0.1,0,0.1,0l0,0c0,0,0,0,0.1,0l0,0c0.1,0,0.1,0,0.1,0.1l0,0c0,0,0,0.1,0,0.1l0,0c0,0,0,0,0,0.1
									c0,0,0,0,0,0c0,0,0,0,0,0c0,0.1,0,0.1,0,0.2l0,0c0,0.1,0,0.1,0,0.2l0,0c0,0-0.1,0.1-0.1,0.1c0,0,0,0,0,0
									c-0.1,0,0,0.1-0.1,0.1c0,0,0,0,0,0c0,0-0.1,0-0.1,0c-0.1,0-0.1,0-0.2-0.1c0,0,0,0,0,0c0,0,0,0,0,0l0,0c0,0,0,0,0,0
									c0,0,0,0,0,0c0,0,0,0,0,0c0,0,0,0,0,0c0,0,0,0.1,0,0.1l0,0c0,0,0,0.1,0,0.1c0,0,0,0,0,0c0,0,0,0,0,0.1l0,0
									C9.1-9.9,9.1-9.8,9-9.8l0,0c0,0-0.1,0.1-0.1,0c0,0,0,0,0,0c0,0,0,0,0.1,0l0,0L9-9.8c0,0,0,0,0,0c0,0-0.1,0-0.1,0
									c0,0,0,0,0,0c0,0-0.1,0-0.1,0c0,0,0,0,0,0c0,0,0,0-0.1,0l0,0c0,0,0,0-0.1,0c0,0,0,0,0,0c0,0,0,0,0,0c-0.1,0,0,0-0.1,0l0,0
									c0,0,0,0,0,0c0.1,0,0,0,0.1,0c0,0,0,0-0.1,0c0,0,0,0,0,0c0,0,0,0,0,0l0,0c0,0,0,0,0,0l0,0c0,0-0.1-0.1-0.1-0.1c0,0,0,0,0,0
									c-0.1,0,0,0,0,0c0,0,0,0-0.1,0c0,0,0,0,0,0c0-0.1-0.1-0.1-0.1-0.1c0,0,0,0,0,0c0,0,0,0,0,0c0,0,0,0,0,0l0,0c0,0,0,0,0,0l0,0
									c0,0,0,0,0-0.1c0,0,0,0,0,0c0,0,0,0,0,0c0,0,0,0,0,0c0,0,0-0.1,0,0c0,0,0,0,0,0c0,0,0,0,0,0c0,0,0,0,0,0c0,0,0,0,0,0.1
									c0,0,0,0-0.1,0l0,0c0,0,0,0-0.1,0l0,0c0,0-0.1,0-0.1,0c0,0-0.1,0-0.1,0c0,0,0,0,0,0c0,0-0.1,0-0.1,0c0,0,0,0,0,0
									c0,0-0.1,0-0.1,0l0,0c-0.1,0-0.1-0.1-0.2-0.1l0,0l0,0l0,0l0,0c0,0-0.1,0-0.1,0c0,0,0,0,0,0c0,0,0,0,0,0c0,0,0,0,0-0.1
									c0,0,0,0,0,0c0,0,0,0,0,0l0,0l0,0l0,0c0,0,0,0,0,0c0,0,0,0,0,0l0,0c0,0,0,0,0,0c0,0,0,0,0,0c0,0,0,0,0,0s0,0,0,0
									c0,0,0,0,0,0l0,0c0,0,0,0,0,0l0,0c0,0,0,0,0,0l0,0c0,0,0,0,0-0.1c0,0,0,0,0,0.1l0,0c0,0,0,0.1,0,0c0,0,0,0,0,0c0,0,0,0,0,0
									l0,0c0,0,0,0-0.1,0c0,0,0,0,0,0c0,0-0.1,0-0.1,0c0,0,0,0,0,0c0,0-0.1,0-0.1,0c0,0,0,0,0,0c0,0,0,0,0,0l0,0l0-0.1
									c-0.1,0,0,0-0.1,0l0,0c0,0-0.1,0-0.1-0.1c0,0,0,0,0,0l0,0l0,0c0,0,0,0,0-0.1c0,0,0,0,0,0l0,0l0,0l0,0c0,0,0-0.1,0-0.1
									c0,0,0,0,0,0s0,0,0,0c0,0,0,0,0,0c0,0,0,0,0,0l0,0c0,0,0,0,0.1,0c0,0,0,0,0,0c0,0,0,0,0,0c0,0,0,0,0,0.1c0,0,0,0,0,0
									c0,0,0,0,0,0c0,0,0,0,0,0l0,0l0,0c0,0,0,0,0,0.1c0,0,0,0,0,0c0,0,0.1,0,0.1,0c0.1,0,0.1,0,0.2,0c0,0,0,0,0,0c0,0,0,0,0,0
									c0,0,0,0,0.1,0c0,0,0,0,0,0c0,0,0,0,0,0c0,0,0,0,0.1,0c0,0,0,0,0.1-0.1l0,0l0,0l0,0l0,0c0,0,0,0,0,0c0,0,0,0,0,0
									c0,0,0,0,0-0.1c0,0,0,0,0,0c0,0,0,0,0,0c0,0,0-0.1,0-0.1l0,0c0,0,0,0,0,0l0,0c0,0,0,0.1,0,0.1c0,0,0,0,0,0c0,0,0,0,0-0.1
									c0,0,0,0,0,0.1c0,0,0,0,0,0s0,0,0,0c0,0,0,0,0,0.1c0,0,0,0,0,0c0,0.1,0.1,0.1,0.1,0.2c0,0,0,0,0,0c0,0,0.1,0,0.1,0.1l0,0
									c0.1,0,0.1,0,0.2,0c0,0,0,0,0,0c0,0,0.1,0,0.1,0l0,0c0.1,0,0.2,0,0.2-0.1c0,0,0,0,0,0C8-9.9,8-10,8-10c0,0,0,0,0,0
									c0,0,0,0,0,0c0.1,0,0,0,0,0c0,0,0,0,0,0l0,0c0,0,0,0,0,0c0,0,0,0,0,0c0,0,0,0,0-0.1c0,0,0,0,0,0c0-0.1,0,0,0,0l0,0l0,0
									c0,0,0,0.1,0,0c0,0,0,0,0,0l0,0c0,0,0,0,0.1,0l0,0l0,0l0,0l0,0c0,0,0.1,0.1,0.1,0.1l0,0l0,0c0,0,0,0,0,0
									c0,0.1,0.1,0,0.2,0.1c0,0,0,0,0,0c0,0,0.1,0,0.1,0c0,0,0,0,0,0c0,0,0,0,0.1,0c0,0,0,0,0,0c0,0,0,0,0,0c0,0.1,0.1,0,0,0.1
									c0,0,0.1,0,0.1-0.1l0,0c0,0,0,0,0,0c0,0,0,0,0,0c0.1,0,0.1,0,0.2-0.1c0,0,0,0,0,0C9-9.9,9-10,9-10c0,0-0.1,0.1,0,0.1
									C9-10,9.1-10.1,9.1-10.1c0.1,0,0-0.1,0.1-0.1c0,0,0-0.1,0-0.1c0,0,0,0,0,0c0,0,0-0.1,0-0.1c0,0,0.1,0.1,0.1,0.1
									c0,0,0.1,0.1,0.1,0.1c0,0,0.1,0,0.1,0c0,0,0,0,0,0l0,0c0,0,0,0,0,0c0,0,0,0,0,0c0,0,0,0,0,0c0,0,0,0,0,0c0-0.1,0-0.2,0-0.3
									l0,0c0-0.1-0.1,0-0.1,0c0,0,0,0-0.1,0c0-0.1-0.1-0.1-0.1-0.1c0,0,0,0,0-0.1c0.1-0.1,0-0.1,0-0.1c0,0,0,0,0,0c0,0,0,0,0,0
									l0,0c0,0-0.1-0.1-0.1-0.1c-0.1,0-0.1-0.1-0.2,0c0,0,0,0,0,0l-0.1,0l0,0c0,0-0.2,0.1-0.3,0.1c0-0.1,0-0.1,0-0.2l0,0
									c0,0,0,0,0-0.1c0,0,0,0,0,0c0-0.1-0.1-0.1-0.1-0.1c0,0,0,0,0,0c0,0,0,0,0,0c0,0-0.1-0.1-0.1-0.1c0,0,0,0,0,0
									c-0.1,0-0.1,0-0.2,0l0,0c0,0-0.1,0-0.1,0c0,0,0,0,0,0l0,0c0,0,0,0,0,0c0,0,0,0,0,0l0,0c0,0,0,0,0,0c0,0-0.1,0-0.1,0
									c0,0-0.1,0-0.2,0l0,0c0,0-0.1-0.1-0.1-0.1c0,0,0,0,0,0c0,0,0,0,0,0c0,0,0,0,0,0c0,0,0,0,0,0l-0.1,0c0,0,0,0-0.1,0
									c0,0,0,0,0,0l0,0l0,0l0,0l0,0c0,0,0,0-0.1,0c-0.1,0-0.1,0-0.1,0c0,0-0.1,0-0.1,0c-0.1,0-0.2,0-0.3,0.1l0,0c0,0,0,0.1,0,0.1
									l0,0c0,0-0.1,0-0.1,0.1c0,0,0,0.1,0,0.2c0,0,0,0,0,0c0,0.1,0,0,0.1,0.1c0,0,0,0,0,0l0.1,0.1l0,0c-0.1-0.1-0.4-0.3-0.5-0.2
									c0,0,0,0,0,0c-0.1,0-0.1,0-0.2,0.1l0,0c0,0,0,0,0,0c0,0,0,0,0,0c-0.1,0,0,0-0.1,0.1l0,0c0,0,0,0,0,0.1c0,0.1-0.1,0-0.1,0.1
									c0,0,0,0,0,0c0,0,0,0,0,0.1c0,0,0,0,0,0l0,0c0,0,0,0,0,0c0,0,0,0.1,0,0.1c0,0,0-0.1,0,0l0,0c0,0,0,0,0,0c0,0,0,0,0,0.1
									c0,0,0,0,0,0l0,0c0,0,0,0.1,0,0.1C6.4-10.8,6.3-10.8,6.2-10.8C6.3-10.8,6.3-10.8,6.2-10.8C6.2-10.8,6.2-10.8,6.2-10.8
									C6.2-10.8,6.2-10.8,6.2-10.8C6.2-10.8,6.2-10.7,6.2-10.8C6.2-10.7,6.2-10.8,6.2-10.8z M6.7-11.3C6.7-11.3,6.7-11.3,6.7-11.3
									L6.7-11.3C6.7-11.3,6.7-11.3,6.7-11.3z M6.8-11.4C6.8-11.4,6.8-11.3,6.8-11.4C6.8-11.3,6.8-11.3,6.8-11.4
									C6.8-11.3,6.8-11.3,6.8-11.4z M6.6-11.5L6.6-11.5C6.6-11.5,6.6-11.5,6.6-11.5C6.6-11.5,6.6-11.5,6.6-11.5L6.6-11.5z"/>
								<polygon fill="#202020" points="6.6,-11.5 6.6,-11.5 6.6,-11.5 6.6,-11.5 								"/>
								<polygon fill="#202020" points="7.4,-9.9 7.4,-9.9 7.4,-9.9 								"/>
								<polygon fill="#202020" points="7.7,-11.7 7.7,-11.7 7.7,-11.7 								"/>
								<path fill="#202020" d="M7.3-10.4L7.3-10.4L7.3-10.4z"/>
								<path fill="#202020" d="M7.3-10.2L7.3-10.2C7.3-10.2,7.3-10.2,7.3-10.2z"/>
								<polygon fill="#202020" points="7.1,-10.2 7.1,-10.2 7.1,-10.2 								"/>
								<path fill="#202020" d="M8.7-9.9L8.7-9.9C8.7-9.9,8.7-9.9,8.7-9.9z"/>
								<path fill="#202020" d="M8.1-10.1L8.1-10.1C8.1-10.1,8.1-10.1,8.1-10.1z"/>
								<polygon fill="#202020" points="9.2,-10.4 9.2,-10.4 9.2,-10.4 								"/>
								<path fill="#202020" d="M8.1-10.1C8.1-10.1,8.1-10.1,8.1-10.1C8.1-10.1,8.1-10.1,8.1-10.1z"/>
								<polygon fill="#202020" points="6.7,-10.4 6.7,-10.4 6.7,-10.4 								"/>
								<path fill="#202020" d="M6.7-10.4L6.7-10.4C6.7-10.4,6.7-10.4,6.7-10.4z"/>
								<path fill="#202020" d="M6.7-10.4L6.7-10.4C6.7-10.4,6.7-10.4,6.7-10.4z"/>
								<path fill="#202020" d="M6.8-10.2L6.8-10.2L6.8-10.2z"/>
								<path fill="#202020" d="M6.8-10.2C6.8-10.2,6.8-10.2,6.8-10.2L6.8-10.2C6.8-10.2,6.8-10.2,6.8-10.2z"/>
								<path fill="#202020" d="M7-10L7-10C7-10,7-10,7-10C7-10,6.9-10,7-10z"/>
								<path fill="#202020" d="M7.2-10.1C7.2-10.1,7.2-10.1,7.2-10.1C7.2-10.1,7.2-10.1,7.2-10.1z"/>
								<path fill="#202020" d="M7.8-9.8L7.8-9.8C7.8-9.8,7.8-9.8,7.8-9.8z"/>
								<polygon fill="#202020" points="8,-10 8,-10 8,-10 								"/>
								<polygon fill="#202020" points="8.1,-9.9 8.1,-9.9 8.1,-9.9 								"/>
								<path fill="#202020" d="M9.4-10.2L9.4-10.2C9.4-10.2,9.4-10.2,9.4-10.2z"/>
								<path fill="#202020" d="M9.7-10.9C9.7-10.9,9.7-11,9.7-10.9C9.7-10.9,9.7-10.9,9.7-10.9z"/>
								<polygon fill="#202020" points="8,-11.8 8,-11.8 7.9,-11.8 								"/>
							</g>
						</g>
					</g>
				</g>
			</g>
			<g>
				<g>
					<g>
						<g>
							<g>
								<g>
									<path fill="#202020" d="M5.9-10C5.9-10,5.9-10,5.9-10L5.9-10L5.9-10z"/>
									<path fill="#202020" d="M6-9.8C6-9.8,6.1-9.9,6-9.8C6-9.9,6-9.9,6-9.8C5.9-9.9,5.9-9.9,6-9.8C5.9-9.9,5.9-9.9,5.9-9.9
										C5.9-9.9,5.9-9.9,6-9.8C6-9.8,6-9.8,6-9.8z"/>
									<path fill="#202020" d="M7.7-8.9L7.7-8.9C7.7-8.9,7.7-8.9,7.7-8.9z"/>
									<path fill="#202020" d="M9.3-9.1C9.3-9.1,9.2-9.1,9.3-9.1C9.3-9.1,9.3-9.1,9.3-9.1z"/>
									<path fill="#202020" d="M9.5-8.7L9.5-8.7C9.5-8.7,9.5-8.7,9.5-8.7z"/>
									<path fill="#202020" d="M7.7-8.9L7.7-8.9C7.8-8.8,7.7-8.8,7.7-8.9z"/>
									<path fill="#202020" d="M6.2-9.6C6.2-9.7,6.2-9.7,6.2-9.6C6.2-9.7,6.2-9.7,6.2-9.6L6.2-9.6z"/>
									<polygon fill="#202020" points="7.3,-9.7 7.3,-9.7 7.3,-9.8 									"/>
									<path fill="#202020" d="M7.3-9.3C7.3-9.3,7.3-9.3,7.3-9.3C7.3-9.3,7.3-9.3,7.3-9.3C7.3-9.3,7.3-9.3,7.3-9.3z"/>
									<path fill="#202020" d="M6.2-9.5L6.2-9.5L6.2-9.5z"/>
									<path fill="#202020" d="M7.4-9.2L7.4-9.2C7.4-9.1,7.4-9.2,7.4-9.2z"/>
									<path fill="#202020" d="M5.1-9.9L5.1-9.9C5.1-9.9,5.1-9.9,5.1-9.9z"/>
									<polygon fill="#202020" points="5.9,-9.9 5.9,-9.9 5.9,-9.9 									"/>
									<path fill="#202020" d="M10.2-8.4L10.2-8.4C10.1-8.4,10.2-8.4,10.2-8.4z"/>
									<path fill="#202020" d="M12.2-12.1C12.2-12,12-12.1,12.2-12.1C12.1-12,12.2-12,12.2-12.1z"/>
									<path fill="#202020" d="M6.2-9.6L6.2-9.6C6.2-9.6,6.2-9.6,6.2-9.6z"/>
									<polygon fill="#202020" points="12.1,-12 12.1,-12 12.1,-12 									"/>
									<path fill="#202020" d="M11.7-9.1C11.7-9.1,11.6-9.1,11.7-9.1C11.6-9.1,11.6-9.1,11.7-9.1z"/>
									<path fill="#202020" d="M10.6-8.5L10.6-8.5C10.6-8.5,10.6-8.5,10.6-8.5z"/>
									<path fill="#202020" d="M11.9-9.7C11.9-9.7,11.9-9.7,11.9-9.7L11.9-9.7C11.9-9.7,11.9-9.7,11.9-9.7z"/>
									<polygon fill="#202020" points="12.3,-9.6 12.3,-9.6 12.3,-9.6 									"/>
									<path fill="#202020" d="M5.3-11.2C5.3-11.2,5.3-11.2,5.3-11.2C5.3-11.2,5.3-11.1,5.3-11.2z"/>
									<path fill="#202020" d="M6.2-9.6C6.2-9.6,6.2-9.6,6.2-9.6L6.2-9.6L6.2-9.6z"/>
									<path fill="#202020" d="M11.7-9.8l0-0.2C11.8-9.9,11.8-9.8,11.7-9.8z"/>
									<path fill="#202020" d="M8.5-12.9L8.5-12.9C8.5-12.9,8.5-12.9,8.5-12.9z"/>
									<path fill="#202020" d="M12.1-9.8C12.1-9.8,12.2-9.8,12.1-9.8L12.1-9.8L12.1-9.8z"/>
									<path fill="#202020" d="M5.3-11.2L5.3-11.2L5.3-11.2z"/>
									<path fill="#202020" d="M4.8-10.8C4.8-10.7,4.8-10.8,4.8-10.8c-0.1,0.1-0.1,0.1-0.1,0.2c0,0,0,0-0.1,0.1c0,0,0,0.1,0,0.1
										c0,0,0-0.1-0.1,0c0,0.1,0,0.1,0.1,0.1c0,0,0,0,0,0.1c0,0,0,0,0,0c0.1,0.1,0.1,0.2,0.2,0.2c0,0,0.2,0.1,0.1,0.1
										c0,0,0.1,0,0.1,0c0,0,0.1,0,0.1,0.1c0,0,0.1,0,0.2,0c0,0,0,0,0,0c0.1,0,0,0,0.1,0c0.1,0,0,0,0,0c0.1,0,0,0,0,0l0.1,0
										c0,0,0,0,0,0c0,0,0,0,0.1,0l-0.1,0l0,0L5.8-10c0.1,0,0.1,0,0.1,0l0,0c0,0,0,0,0.1,0c0,0-0.1,0.1-0.1,0.1
										c-0.2,0.1-0.1,0-0.2,0l-0.2,0l0,0c0,0,0,0,0,0c0,0-0.1,0-0.2,0l0,0C5-9.7,5-9.9,4.8-9.9l-0.1,0l0,0c0,0-0.1,0-0.1-0.1
										c-0.2-0.3,0-0.8,0.3-0.9c0,0,0,0,0,0c0.1,0,0.2,0,0.2,0c-0.1-0.1-0.1-0.3,0-0.4l0,0c0-0.1,0,0,0-0.1c0,0,0.1-0.2,0.1-0.2
										c0,0,0,0,0,0.1c0,0,0,0,0.1,0c0-0.1,0.2-0.2,0.3-0.3c0,0,0.2,0,0.2,0c0,0,0,0,0.1,0c0.1,0,0.1,0,0.1,0c0,0-0.1,0-0.1,0l0,0
										c0,0,0,0,0,0c0,0,0,0,0,0c-0.1,0,0,0,0,0c0,0,0.1,0,0.2,0c0,0,0,0,0.1,0c0,0,0,0,0.1,0l0,0c0,0,0,0,0,0c0.1,0,0.2,0,0.3,0
										c-0.1,0,0,0,0,0.1c0,0-0.1,0-0.2,0c0,0,0,0,0,0c0.1,0,0.2,0,0.3,0.1c0,0,0,0,0,0c0,0,0,0,0,0c0,0,0.1,0.1,0,0
										c0,0,0,0,0-0.1c0,0,0,0,0-0.1l0,0c0-0.1,0-0.1,0-0.2c0,0,0,0,0,0c0-0.1,0-0.1,0-0.2l0,0c0-0.1,0.1-0.2,0.2-0.2
										c-0.1,0,0.2-0.2,0.2-0.2c0,0,0,0,0,0C7.2-13,7.4-13,7.5-13.1l0,0c0.1,0,0.1-0.1,0.2-0.1l0,0c0.2,0,0.2,0,0.4,0l0,0
										c0.1,0,0.1,0,0.2,0c0.1,0.1,0.5,0,0.6,0.2l0,0C9-12.9,9.1-12.7,9-12.8l0,0c0,0,0,0,0,0c0,0,0,0,0,0c0.2,0,0.5-0.2,0.6-0.1
										c0.2,0,0.4-0.1,0.6,0l0,0c0.1,0,0.2,0.1,0.2,0.1c0.2,0.1,0.3,0.1,0.4,0.3l0,0c0,0,0.1,0.1,0.1,0.1c0,0,0,0,0,0
										c0,0,0,0.1,0.1,0.1l0,0c0,0.1,0,0.1,0,0.2c0,0,0,0,0,0.1c0,0,0,0,0.1-0.1c0,0,0,0,0,0c0.1-0.1,0.3-0.1,0.4-0.1l-0.1,0
										c0.2,0,0.1,0,0.3,0l-0.1,0c0.1,0,0.1,0,0.1,0c0.1,0,0,0,0.1,0.1c0,0-0.1,0-0.1,0l0.1,0.1c0,0,0,0,0.1,0
										c0-0.1,0.1,0.1,0.1,0c0.2,0.1,0.3,0.4,0.3,0.6c0,0-0.1,0.2-0.1,0.2c0,0-0.1,0-0.1,0.1c0,0-0.1,0-0.1,0c0.1,0,0.1,0,0.1-0.1
										c0,0,0,0,0,0c0,0,0.1,0,0.1,0c0,0,0,0,0,0l0,0c0,0-0.1,0-0.2,0c0,0,0.1,0,0.2,0c0,0,0.1,0,0.1,0l0,0c0.1,0,0.1,0,0.1,0.1
										l0,0c0.1,0.1,0.2,0.1,0.2,0.2l0,0c0,0,0.1,0.1,0.1,0.2l0-0.1c0,0,0,0.1,0,0.1c0,0.1,0,0,0.1,0.1c0,0,0,0,0,0
										c0,0.1,0,0.3,0,0.3c0,0,0,0,0,0c0,0.1,0,0.2,0,0.3l0,0c-0.1,0.1-0.1,0.2-0.2,0.2c0,0,0.1-0.1,0,0c-0.1,0.1-0.1,0.1-0.2,0.1
										c0,0,0,0,0,0c-0.1,0-0.2,0-0.3,0c-0.1,0-0.3-0.1-0.4-0.2c0,0,0,0,0,0c0,0,0,0.1,0,0.1l0,0c0,0,0,0,0,0.1c0,0,0,0.1,0,0.1
										c0,0,0,0,0,0.1c0-0.1,0,0,0-0.1c0,0.1,0,0.2-0.1,0.3l-0.1,0.1c0,0-0.1,0.1-0.1,0.1c0,0,0,0-0.1,0c0,0-0.1,0.1-0.1,0.1l0,0
										c-0.1,0.1-0.2,0.2-0.3,0.3l0,0c-0.1,0-0.1,0.1-0.2,0.1c0,0,0,0,0,0c0,0,0.1,0,0.1-0.1L11-8.6l0.2-0.1c-0.1,0.1-0.1,0,0,0
										c-0.1,0.1-0.1,0-0.2,0.1c0,0,0,0-0.1,0c-0.1,0-0.2,0-0.2,0.1c0,0,0,0,0,0c-0.1,0-0.1,0-0.1,0l0.1,0c0,0-0.1,0-0.1,0
										c-0.1,0-0.1,0,0,0c0,0-0.1,0-0.1,0c-0.1,0-0.1,0.1-0.2,0c0,0,0,0,0,0c0,0-0.1,0-0.1,0c0.1,0,0,0,0.1,0c0,0-0.1,0-0.1,0
										c-0.1,0,0,0-0.1,0c0,0,0,0-0.1,0l0,0c0,0,0,0-0.1,0l0.1,0c-0.1,0-0.1-0.1-0.2-0.1c0,0,0.1,0,0,0c-0.1,0,0,0-0.1-0.1
										c-0.1-0.1,0,0-0.2-0.1c0,0,0,0,0,0C9.4-8.8,9.3-8.9,9.3-9c0,0,0,0.1,0,0c0,0,0-0.1-0.1-0.1l0,0c0,0,0,0,0,0c0,0,0,0,0,0
										c0,0,0.1,0,0-0.1c0-0.1-0.1-0.1-0.1,0c0-0.1-0.1-0.1-0.1-0.2L9-10.1l0.3,0.7c0,0,0,0,0,0c0,0,0,0.2,0,0.2
										c0,0.1,0-0.1,0-0.1C9.2-9.1,9.2-8.9,9-8.8l0,0c0,0-0.1,0-0.1,0.1l0.1,0c0,0-0.1,0-0.1,0c-0.1,0-0.1,0-0.2,0
										c0.1,0,0,0,0.1,0c-0.1,0-0.1,0-0.2,0c0,0,0,0-0.1,0c-0.1,0-0.2,0-0.3,0l0,0C8-8.7,7.8-8.8,7.7-8.9l0,0l0,0l0,0l0,0
										c0,0.1-0.1,0-0.2-0.1c0,0,0,0,0,0c0,0-0.1,0-0.1,0c0-0.1,0,0,0-0.1c0,0,0,0,0,0c0,0,0-0.1,0-0.1c0,0,0,0,0,0.1c0,0,0,0,0,0
										c0,0,0,0,0-0.1l0,0c0,0,0,0,0-0.1c0,0,0,0,0,0c0-0.1-0.1,0-0.1,0c0-0.1,0-0.2,0-0.3l0,0c0,0,0-0.1,0-0.1l0-0.1
										c0,0,0,0.1,0,0.1c0,0,0-0.1,0.1-0.1l0,0l0,0c0,0,0.1,0.1,0.1,0.1l0,0c0.1,0.1-0.1,0.3-0.1,0.3C7.4-9.4,7.3-9.4,7.3-9.3
										c-0.1,0-0.2,0-0.2,0.1c-0.1,0,0,0,0,0c-0.1,0-0.1,0.1-0.2,0c-0.1,0,0,0,0,0c0,0-0.2,0-0.2,0c0,0,0,0,0,0c0,0,0,0,0,0l0,0
										L6.5-9.3c-0.1,0,0,0.1-0.1,0l0,0c0,0-0.1,0-0.2-0.2c0,0,0,0,0,0l0-0.1c0,0,0,0,0,0c0-0.1,0,0,0-0.1c0,0,0,0,0,0
										c0,0,0-0.1,0-0.1l0,0c0,0,0-0.1,0-0.2c0,0,0,0,0-0.1c0,0,0,0,0.1-0.1c0,0,0,0,0,0c0.1,0,0.1-0.1,0.2-0.1c0,0-0.1,0-0.2,0.1
										C6.2-9.9,6.2-9.9,6.2-9.9l-0.1,0c0.2-0.1,0.3-0.2,0.4-0.3c0,0.1,0,0-0.1,0.2c0-0.1,0.1-0.1,0,0c0,0-0.2,0.2-0.2,0.3
										c0,0,0-0.1,0-0.1c-0.1,0.1,0,0.1,0,0.1c0,0,0,0,0,0c0,0.1,0,0.1,0.1,0.2c0,0-0.1-0.1,0,0c0.1,0.1,0.1,0.1,0.2,0.1
										c0.1,0,0.3,0.1,0.4,0c0,0-0.1,0,0,0c0,0,0,0,0,0c0.1,0,0.1,0,0.2-0.1c0,0,0,0,0.1,0c0,0,0.1,0,0,0c0.1-0.1,0.2-0.1,0.2-0.2
										l0,0l0.1-0.1l0,0c0,0,0,0,0.1-0.1c0,0,0,0.1,0,0.1c0.1,0,0.1-0.1,0-0.2c0,0,0,0.1,0,0.1c0,0,0-0.1,0-0.1l0,0
										c0-0.1-0.1,0-0.1-0.1l0,0c0,0,0,0,0,0c0,0,0,0,0,0c0,0-0.1,0.1,0,0c0,0,0,0.1,0,0.1c0,0,0,0,0,0c0,0,0,0.2,0,0.2
										c0,0,0,0,0,0C7.3-9.4,7.5-9.2,7.6-9c0,0,0,0,0,0c0.1,0,0.1,0.1,0.2,0.1l0,0C8-8.8,8.1-8.8,8.2-8.8c0,0,0,0,0,0
										c0.1,0,0.2,0.1,0.2,0l0,0c0.2,0,0.4-0.1,0.5-0.1c0,0-0.1,0,0,0.1C8.9-8.9,9-9,9.1-9.1c0,0,0,0,0,0c0.1-0.1,0,0,0-0.1
										c0,0,0,0,0,0l0,0c0,0,0,0,0,0c0,0,0-0.2,0-0.2c0,0,0,0,0,0c0,0,0,0,0,0c0,0,0,0,0,0c0,0,0,0.1,0,0.1l0,0c0,0,0,0.1,0,0.1
										c0,0.1,0,0,0.1,0.1l0-0.1L9.4-9l0,0C9.4-9,9.4-9,9.5-8.9l0,0l0.1,0.1c0,0,0.1,0.1,0,0.1C9.7-8.7,9.8-8.7,10-8.7
										c0,0,0,0,0,0c0.1,0,0.1,0,0.2,0c0,0,0,0,0,0c0.1,0,0.1,0,0.2,0c0,0,0,0,0,0c0,0,0,0,0,0c-0.1,0.1,0.1,0,0.1,0.1
										c0,0,0.2,0,0.1-0.1l0,0c0,0,0,0,0.1,0c0,0,0,0,0,0c0.2,0,0.3-0.1,0.5-0.2c0,0-0.1,0.1,0,0c0.2-0.1,0.2-0.2,0.4-0.3
										c0,0-0.1,0.1-0.1,0.2c0.2-0.1,0.3-0.3,0.4-0.5c0.1,0,0.1-0.2,0.2-0.3c0,0,0,0,0-0.2c0,0.1,0-0.1,0,0c0-0.1,0-0.2,0-0.2
										C11.9-10,12-9.9,12-9.9c0.1,0,0.1,0.1,0.2,0.1c0.1,0,0.2,0,0.2,0c0,0,0.1,0,0.1,0c0,0,0,0,0,0c0,0,0.1,0,0.1-0.1
										c0,0,0,0,0,0c0,0,0.1-0.1,0.1-0.1c0,0,0,0,0,0c0.1-0.2,0.1-0.5,0-0.7l0,0c0-0.2-0.1-0.1-0.1-0.2c0,0-0.1-0.1-0.1-0.1
										c-0.1,0-0.1-0.1-0.3,0c0-0.1-0.1-0.1-0.1-0.1c0,0,0,0,0-0.1c0.1-0.1,0.1-0.2,0.2-0.2c0,0,0-0.1,0-0.1c0,0,0,0,0,0
										c0,0,0,0,0-0.1l0,0c0-0.2-0.2-0.3-0.3-0.4c-0.1,0-0.2-0.1-0.4-0.1c-0.1,0,0.1,0,0,0l-0.2,0l0,0c-0.1,0-0.2,0-0.5,0.1
										c0-0.1,0-0.3,0-0.3l0,0c0,0,0,0,0-0.1c0,0,0,0,0,0c-0.1-0.2-0.1-0.2-0.2-0.3c0.1,0,0,0,0-0.1c0,0,0,0-0.1,0
										c-0.1-0.1-0.2-0.1-0.3-0.2c0,0-0.1,0-0.1,0c-0.1,0-0.2,0-0.4,0l0,0c0,0-0.1,0-0.2,0c0,0,0,0,0,0l-0.1,0c0,0,0.1,0,0,0
										c-0.1,0,0,0,0,0l0,0c-0.1,0-0.1,0,0,0c-0.1,0-0.2,0-0.2,0.1c0,0-0.1,0-0.1,0c0,0-0.1,0.1-0.2,0l0,0c-0.1,0-0.1-0.1-0.2-0.2
										c0,0,0,0,0-0.1c0,0,0,0,0,0c-0.1,0,0,0-0.1-0.1c0,0,0,0,0.1,0c0,0-0.2-0.1-0.2-0.1c0,0-0.1-0.1-0.2-0.1c0,0,0,0,0,0l-0.1,0
										l0,0l-0.1,0l0,0c-0.1,0-0.1,0-0.1,0c-0.1,0-0.1,0-0.3,0c0,0-0.2,0-0.2,0.1c-0.2,0-0.4,0.1-0.6,0.2l0,0
										c-0.1,0-0.1,0.1-0.1,0.1l0,0c-0.1,0.1-0.2,0.3-0.2,0.4c0,0,0,0,0,0c0,0.1,0-0.1,0,0.1c0,0,0,0,0,0l0.1,0.2l0,0.1
										C6.8-11.8,6.5-12,6.4-12c-0.1,0-0.2,0-0.3,0c0,0,0,0,0,0c-0.2,0-0.3,0-0.4,0.1l0,0c-0.1,0,0,0.1-0.1,0.1c0,0,0,0,0.1,0
										c-0.1,0-0.1,0.1-0.2,0.1l0,0c-0.1,0-0.1,0.1-0.1,0.1c0,0.1-0.1,0-0.2,0.2c0,0,0,0,0,0c0,0.1,0,0.1,0,0.2c0,0.1,0-0.1,0,0
										l0-0.1c0,0.1,0-0.1,0-0.1c0,0.1,0,0.2,0,0.2c0,0,0-0.1,0-0.1l0,0c0,0,0,0,0,0c0,0,0,0,0,0.1c0,0,0,0,0,0c0,0,0,0,0,0
										c0,0.1,0.1,0.1,0.1,0.2c-0.1,0-0.3,0-0.3,0c0,0,0,0,0,0C5-10.9,5-10.9,4.8-10.8C4.9-10.8,4.9-10.9,4.8-10.8
										C4.8-10.8,4.9-10.8,4.8-10.8C4.8-10.8,4.9-10.8,4.8-10.8z M6.1-12.1C6.1-12.1,6.1-12.1,6.1-12.1L6.1-12.1
										C6.1-12.1,6.1-12.1,6.1-12.1z M6.3-12.1C6.3-12.1,6.2-12.1,6.3-12.1C6.3-12.1,6.3-12.1,6.3-12.1
										C6.3-12.1,6.3-12.1,6.3-12.1z M5.9-12.2L5.9-12.2C5.9-12.2,6-12.2,5.9-12.2C6-12.2,6-12.3,5.9-12.2
										C5.9-12.2,5.9-12.2,5.9-12.2z"/>
									<polygon fill="#202020" points="5.9,-12.2 5.9,-12.2 5.9,-12.2 5.9,-12.2 									"/>
									<polygon fill="#202020" points="7.7,-8.9 7.7,-8.9 7.7,-8.9 									"/>
									<polygon fill="#202020" points="8.3,-12.9 8.3,-12.9 8.3,-12.9 									"/>
									<path fill="#202020" d="M7.4-9.8C7.4-9.8,7.4-9.8,7.4-9.8C7.5-9.8,7.4-9.8,7.4-9.8z"/>
									<path fill="#202020" d="M7.4-9.5L7.4-9.5C7.4-9.5,7.4-9.5,7.4-9.5z"/>
									<path fill="#202020" d="M7.1-9.4C7.1-9.4,7.1-9.4,7.1-9.4L7.1-9.4L7.1-9.4z"/>
									<path fill="#202020" d="M10.6-8.6C10.6-8.6,10.6-8.6,10.6-8.6C10.6-8.6,10.6-8.6,10.6-8.6z"/>
									<path fill="#202020" d="M9.3-9.3C9.3-9.3,9.3-9.2,9.3-9.3C9.3-9.3,9.3-9.3,9.3-9.3z"/>
									<polygon fill="#202020" points="11.7,-9.8 11.7,-9.8 11.7,-9.8 									"/>
									<path fill="#202020" d="M9.3-9.2C9.3-9.2,9.3-9.2,9.3-9.2C9.3-9.2,9.3-9.2,9.3-9.2z"/>
									<polygon fill="#202020" points="6.5,-10.1 6.4,-10 6.3,-10 									"/>
									<path fill="#202020" d="M6.3-10L6.3-10C6.3-10,6.3-10,6.3-10z"/>
									<path fill="#202020" d="M6.1-9.9L6.3-10C6.2-9.9,6.2-9.9,6.1-9.9z"/>
									<path fill="#202020" d="M6.2-9.5L6.2-9.5L6.2-9.5z"/>
									<path fill="#202020" d="M6.3-9.4C6.3-9.5,6.3-9.5,6.3-9.4L6.3-9.4C6.3-9.5,6.3-9.4,6.3-9.4z"/>
									<path fill="#202020" d="M6.8-9.2l-0.1,0c0,0,0.1,0,0,0C6.8-9.2,6.6-9.2,6.8-9.2z"/>
									<path fill="#202020" d="M7.2-9.3C7.1-9.3,7.2-9.3,7.2-9.3C7.2-9.3,7.2-9.3,7.2-9.3z"/>
									<path fill="#202020" d="M8.5-8.7L8.5-8.7C8.6-8.7,8.5-8.7,8.5-8.7z"/>
									<polygon fill="#202020" points="9,-8.9 8.9,-8.9 8.9,-8.9 									"/>
									<polygon fill="#202020" points="9.3,-9.1 9.3,-9 9.3,-9.1 									"/>
									<path fill="#202020" d="M12.2-9.6L12.2-9.6C12.1-9.7,12.1-9.6,12.2-9.6z"/>
									<path fill="#202020" d="M12.7-11C12.7-11.1,12.7-11.1,12.7-11C12.7-11.1,12.7-11,12.7-11z"/>
									<polygon fill="#202020" points="8.8,-13 8.9,-13 8.8,-13 									"/>
								</g>
							</g>
						</g>
					</g>
				</g>
				<g>
					<g>
						<g>
							<g>
								<g>
									<path fill="#202020" d="M9-9C9-9,9-8.9,9-9L9-9L9-9z"/>
									<path fill="#202020" d="M9.1-8.9C9.1-8.9,9.1-8.9,9.1-8.9C9.1-8.9,9.1-8.9,9.1-8.9C9.1-8.9,9.1-8.9,9.1-8.9
										C9-8.9,9-8.9,9.1-8.9C9-8.9,9.1-8.9,9.1-8.9C9.1-8.9,9.1-8.9,9.1-8.9z"/>
									<path fill="#202020" d="M10.2-7.6L10.2-7.6L10.2-7.6z"/>
									<path fill="#202020" d="M10.6-6.6C10.6-6.7,10.6-6.7,10.6-6.6C10.6-6.7,10.6-6.6,10.6-6.6z"/>
									<path fill="#202020" d="M10.6-6.5L10.6-6.5L10.6-6.5z"/>
									<path fill="#202020" d="M10.2-7.6L10.2-7.6C10.2-7.6,10.2-7.6,10.2-7.6z"/>
									<path fill="#202020" d="M9.3-8.8L9.3-8.8C9.3-8.8,9.3-8.8,9.3-8.8L9.3-8.8z"/>
									<polygon fill="#202020" points="9.9,-8 9.9,-8 9.9,-8 									"/>
									<path fill="#202020" d="M9.7-8.2C9.7-8.2,9.7-8.3,9.7-8.2C9.7-8.3,9.7-8.3,9.7-8.2C9.7-8.3,9.7-8.3,9.7-8.2z"/>
									<path fill="#202020" d="M9.3-8.7L9.3-8.7L9.3-8.7z"/>
									<path fill="#202020" d="M10.1-7.8L10.1-7.8L10.1-7.8z"/>
									<path fill="#202020" d="M8.4-8.3L8.4-8.3L8.4-8.3z"/>
									<polygon fill="#202020" points="8.2,-8.7 8.2,-8.7 8.2,-8.8 									"/>
									<path fill="#202020" d="M10.6-6.1L10.6-6.1C10.6-6.2,10.6-6.2,10.6-6.1z"/>
									<path fill="#202020" d="M9.4-5.5C9.4-5.4,9.3-5.5,9.4-5.5C9.3-5.4,9.4-5.4,9.4-5.5z"/>
									<path fill="#202020" d="M9.3-8.8L9.3-8.8C9.3-8.8,9.3-8.8,9.3-8.8z"/>
									<polygon fill="#202020" points="9.3,-5.4 9.3,-5.4 9.4,-5.4 									"/>
									<path fill="#202020" d="M10.7-5.4L10.7-5.4C10.7-5.4,10.7-5.4,10.7-5.4z"/>
									<path fill="#202020" d="M10.7-6L10.7-6C10.7-6,10.7-6,10.7-6z"/>
									<path fill="#202020" d="M10.7-5.1C10.7-5.1,10.7-5.1,10.7-5.1L10.7-5.1C10.7-5.1,10.7-5.1,10.7-5.1z"/>
									<polygon fill="#202020" points="10.7,-4.9 10.7,-4.9 10.7,-4.9 									"/>
									<path fill="#202020" d="M8.7-7.5C8.7-7.5,8.7-7.5,8.7-7.5C8.7-7.5,8.7-7.6,8.7-7.5z"/>
									<polygon fill="#202020" points="9.3,-8.8 9.3,-8.8 9.3,-8.8 									"/>
									<path fill="#202020" d="M10.9-5.1L10.9-5.1C10.9-5.1,10.9-5.1,10.9-5.1z"/>
									<path fill="#202020" d="M8.2-5.7L8.2-5.7L8.2-5.7z"/>
									<path fill="#202020" d="M10.8-4.9C10.8-4.9,10.8-4.9,10.8-4.9C10.8-4.8,10.8-4.8,10.8-4.9L10.8-4.9z"/>
									<path fill="#202020" d="M8.7-7.5L8.7-7.5L8.7-7.5z"/>
									<path fill="#202020" d="M8.6-7.8C8.6-7.9,8.6-7.8,8.6-7.8C8.6-7.9,8.6-7.9,8.6-7.8c0-0.1,0-0.1,0-0.1c0,0,0,0-0.1,0
										c0,0,0,0,0.1,0c0,0-0.1-0.1-0.1,0c0,0,0,0,0-0.1l0,0c0,0-0.1-0.1-0.1-0.1c0,0,0-0.1,0-0.1c0,0,0,0-0.1,0c0,0,0-0.1,0-0.1
										c0,0,0,0-0.1-0.1c0,0,0,0,0,0c0,0,0,0,0,0c0,0,0,0,0,0c0,0,0,0,0,0l-0.1,0c0,0,0,0,0,0c0,0,0,0,0,0l0,0l0,0l0,0
										c0-0.1,0-0.1,0.1-0.1l0,0c0,0,0,0,0,0c0,0,0.1,0,0.1,0c0,0.1,0,0,0,0.1l0.1,0.1l0,0c0,0,0,0,0,0c0,0,0,0.1,0,0.1l0,0
										c0.1,0.1,0,0.1,0.1,0.2l0,0l0,0c0,0,0,0,0.1,0.1c0,0.2,0.1,0.3,0.2,0.5c0,0,0,0,0,0c0,0.2,0.1,0.2,0.1,0.3l0,0
										c0,0.1,0,0,0,0c0,0,0,0.1,0,0.1c0,0,0,0,0,0c0,0,0,0,0,0c0,0,0,0.1,0.1,0.2c0,0,0,0.1-0.1,0.1c0,0,0,0,0,0c0,0,0,0,0,0.1
										c0,0,0,0,0-0.1l0,0c0,0,0,0,0,0c0,0,0,0,0,0c0,0,0,0,0,0c0,0,0,0.1,0,0.1c0,0,0,0,0,0c0,0,0,0,0,0l0,0l0,0c0,0,0,0.1,0,0.1
										c0,0,0,0-0.1,0c0,0,0,0,0-0.1c0,0,0,0,0,0c0,0,0,0.1,0,0.1c0,0,0,0,0,0c0,0,0,0,0,0.1c0,0,0,0.1,0,0.1c0,0,0,0,0,0.1l0,0
										c0,0,0,0,0,0.1c0,0,0,0,0,0c0,0.1,0,0.1,0,0.1l0,0c0,0,0,0.1,0,0.1c0,0,0,0.1,0,0.1c0,0,0,0,0,0c0,0.1-0.1,0.2-0.1,0.2l0,0
										c0,0,0,0.1,0,0.1l0,0C8.6-5.6,8.5-5.6,8.5-5.6l0,0c0,0,0,0-0.1,0.1c-0.1,0-0.2,0.1-0.3,0.1l0,0c0,0-0.1,0-0.1,0l0,0
										c0,0,0,0-0.1,0c0,0,0,0,0,0c0,0-0.1,0-0.1,0.1L7.8-5.4c0.1,0,0.1,0,0.2,0c0.1,0,0.2-0.1,0.3-0.1l0,0c0,0,0.1,0,0.1,0
										c0.1,0,0.1-0.1,0.2-0.1l0,0c0,0,0.1,0,0.1,0c0,0,0,0,0,0c0,0,0,0,0.1,0l0,0c0.1,0,0.2,0,0.3,0c0,0,0,0,0,0c0,0,0.1,0,0.2,0
										l0,0c0.1,0,0.1,0,0.1,0l0,0c0,0,0.1,0,0.1,0c0,0,0,0,0.1,0c0,0,0,0,0,0l0.1,0c0,0,0,0,0,0c0,0,0.1,0,0,0
										c0.1,0,0.2,0.1,0.3,0.1c0,0.1,0.2,0.1,0.1,0.1c0,0,0.1,0,0.1,0c0,0,0,0,0,0c0,0,0.1,0,0.1,0c0,0-0.1,0-0.1,0
										c0,0,0.1,0,0.1,0l0,0c0,0,0,0,0.1,0l0,0c0.1,0,0.1,0,0.1,0l0,0c0,0,0.1,0,0.1,0l0,0c0,0,0,0,0,0.1c0,0,0,0,0.1,0
										c0,0,0,0,0,0c0,0,0.1,0.1,0.2,0.1l0,0c0,0,0.1,0,0.1,0.1l0,0c0,0,0,0,0,0.1c0,0,0,0,0,0c0,0.1,0,0,0,0c0,0,0,0,0,0
										c0,0,0-0.1,0-0.1c0,0,0-0.1,0.1-0.2c0,0,0,0,0,0l0,0c0,0,0,0,0,0c0,0,0-0.1,0-0.1c0,0,0,0,0,0c0,0,0,0,0,0
										c0-0.1,0-0.1,0-0.1l0,0c0,0,0-0.1,0-0.1c0,0,0,0,0,0c0,0,0-0.1,0-0.1l0,0c0-0.1,0-0.1,0-0.2l0,0c0,0,0-0.1,0-0.1
										c0,0,0,0,0,0c0,0,0,0,0,0.1l0-0.1l0,0.1c0,0,0,0,0,0c0,0,0-0.1,0-0.1c0,0,0,0,0,0c0,0,0-0.1,0-0.1c0,0,0,0,0,0
										c0,0,0,0,0-0.1l0,0c0,0,0,0,0-0.1c0,0,0,0,0,0c0,0,0,0,0,0c0-0.1-0.1,0,0-0.1l0,0c0,0,0,0,0,0c0,0.1,0,0,0,0c0,0,0,0,0-0.1
										c0,0,0,0,0,0c0,0,0,0,0,0l0,0c0,0,0,0,0,0l0,0c0,0,0-0.1,0-0.1c0,0,0,0,0,0c0-0.1,0,0,0,0c0-0.1,0,0,0-0.1c0,0,0,0,0,0
										c0-0.1,0-0.1,0-0.1c0,0,0,0,0,0c0,0,0,0,0-0.1l0,0c0,0,0,0,0,0c0,0,0,0,0,0c0,0,0,0,0,0c0,0,0,0,0,0c0-0.1-0.1,0-0.1-0.1
										c0,0,0-0.1,0-0.1c0,0,0,0.1,0,0c0-0.1-0.1-0.1-0.1-0.2l0,0c0,0,0,0,0-0.1l0,0c0,0,0-0.1,0-0.1c0,0,0,0,0-0.1c0,0,0,0,0,0
										c0,0,0,0,0-0.1c0,0,0,0,0,0c0,0,0-0.1-0.1-0.1l0,0c0-0.1,0-0.1-0.1-0.2l0,0l0,0l0,0l0,0c0,0,0,0-0.1-0.1c0,0,0,0,0,0
										c0,0,0,0,0,0c0,0,0,0,0,0c0,0,0,0,0,0c0,0,0,0,0-0.1c0,0,0,0,0,0c0,0,0,0,0,0c0,0,0,0,0,0l0,0c0,0,0,0,0,0c0,0,0,0,0,0
										c0,0,0,0-0.1,0C10-7.9,10-7.9,9.9-8l0,0c0,0,0,0,0,0l0,0c0,0,0,0,0,0c0,0-0.1-0.1-0.1-0.1l0,0c0,0-0.1-0.1-0.1-0.1
										c0,0-0.1-0.1-0.1-0.1c0,0,0-0.1-0.1-0.1c0,0,0,0,0,0c0,0-0.1,0,0-0.1c0,0,0,0,0,0c0,0-0.1-0.1-0.1-0.1c0,0,0,0,0,0
										c0,0,0,0,0,0l0,0l0-0.1c-0.1,0,0,0-0.1,0l0,0c0,0-0.1,0-0.1-0.1c0,0,0,0,0,0l0,0l0,0c0,0,0,0,0,0c0,0,0,0,0,0l-0.1,0l0,0
										c0,0-0.1,0-0.1-0.1l0,0c0,0,0,0,0,0c0,0,0,0,0,0l0,0c0,0,0.1,0,0.1,0c0,0,0,0,0,0c0,0,0.1,0,0.1,0c0,0,0,0,0,0
										c0,0,0,0,0.1,0c0,0,0,0,0,0c0,0,0.1,0,0.1,0.1c0,0,0,0,0,0c0.1,0,0.1,0,0.1,0c0.1,0,0.1,0.1,0.2,0.1c0,0,0,0,0,0
										c0,0,0,0,0,0c0,0,0,0,0.1,0.1c0,0,0,0,0,0c0,0,0,0,0,0c0.1,0,0.1,0.1,0.1,0.1l0,0l0,0.1l0,0c0,0,0,0,0,0.1c0,0,0,0,0,0
										c0,0,0.1,0,0.1,0.1c0,0,0,0,0,0c0,0,0,0,0.1,0l0,0c0,0.1,0.1,0,0.1,0c0,0,0,0,0,0c0,0,0,0.1,0,0c0,0,0,0,0,0c0,0,0,0,0,0
										L10.1-8c0,0,0,0,0,0c0,0.1,0.2,0.1,0.2,0.3c0,0,0,0,0,0c0,0,0,0.1,0.1,0.1l0,0c0.1,0.1,0.1,0.1,0.1,0.2c0,0,0,0,0,0
										c0,0,0,0.1,0,0.1l0,0c0,0.1,0.1,0.1,0.1,0.2c0,0,0,0,0,0c0,0.1,0.1,0.1,0.1,0.2c0,0,0,0,0,0c0,0.1,0,0,0,0c0,0,0,0,0,0l0,0
										c0,0,0,0,0,0c0,0,0,0.1,0.1,0.1c0,0,0,0,0,0c0,0,0,0,0,0.1l0,0c0,0,0,0.1,0,0.1c0,0.1,0,0,0,0l0,0l0,0.1l0,0
										c0,0,0,0.1,0,0.1l0,0l0,0c0,0,0,0.1,0,0c0,0.1,0,0.1,0.1,0.2c0,0,0,0,0,0c0,0,0,0.1,0,0.1c0,0,0,0,0,0c0,0.1,0,0,0,0.1
										c0,0,0,0,0,0c0,0,0,0,0,0c-0.1,0,0,0.1-0.1,0c0,0,0,0.1,0.1,0.1l0,0c0,0,0,0,0,0c0,0,0,0,0,0c0,0.1,0,0.2,0,0.3
										c0,0,0,0,0,0c0,0.1,0,0.1,0,0.2c0,0,0-0.1,0-0.1c0,0.1,0,0.2,0,0.3c-0.1,0,0,0.1,0,0.2c0,0,0,0,0,0.1c0,0,0,0,0,0
										c0,0,0,0.1,0,0.1c0,0,0,0.1,0,0.1c0,0.1,0,0.2,0,0.2c0,0,0,0.1,0,0.2c0,0,0,0,0,0c0,0-0.1,0-0.1,0c0,0,0,0,0-0.1
										c0,0-0.1,0-0.1-0.1c0,0,0,0,0,0c-0.2-0.1-0.2-0.2-0.4-0.2l0,0c-0.1-0.1-0.1,0-0.1,0C9.9-5.1,9.8-5.2,9.6-5.2c0,0,0,0,0,0
										c0,0,0,0,0,0l0,0c-0.1-0.1-0.2,0-0.3-0.1c-0.1,0-0.1,0-0.2,0c0,0,0,0,0,0L9-5.3l0,0c-0.1,0-0.2-0.1-0.3,0l0,0c0,0,0,0,0,0
										c0,0,0,0,0,0c-0.1,0-0.1,0-0.2,0c0,0,0,0,0,0c0,0,0,0,0,0c-0.1,0-0.1,0-0.2,0c0,0,0,0,0,0c-0.1,0-0.1,0-0.2,0l0,0
										c0,0-0.1,0-0.1,0c0,0,0,0,0,0l0,0c0,0,0,0,0,0c0,0,0,0,0,0l0,0c0,0,0,0,0,0c0,0,0,0-0.1,0L7.5-5.1l0.2-0.3
										c0-0.1,0.1-0.1,0.2-0.1l0,0c0,0,0.1-0.1,0.1-0.1c0,0,0,0,0,0c0,0,0,0,0.1,0c0,0,0,0,0,0l0.1-0.1c0,0,0.1,0,0.1,0
										c0,0,0,0,0,0l0,0l0,0l0,0l0,0c0,0,0,0,0-0.1c0.1,0,0.1,0,0.1,0c0,0,0.1-0.1,0-0.1C8.6-5.9,8.6-6,8.6-6.1l0,0
										c0,0,0-0.1,0-0.1l0,0c0-0.1,0-0.2,0-0.2c0,0,0,0,0,0c0,0,0,0,0,0c0,0,0,0,0,0l0,0c0-0.1,0.1-0.2,0.1-0.3c0,0,0,0,0,0
										c0-0.1,0-0.1,0-0.2l0,0c0,0,0,0,0-0.1c0,0,0,0,0,0c0-0.1,0,0,0-0.1l0,0c0,0,0-0.1,0-0.1c0-0.1,0.1-0.1,0-0.1c0,0,0,0,0,0
										c0-0.1,0-0.1,0-0.1c0,0,0,0,0,0l0,0c0,0,0,0,0,0c0,0,0-0.1,0-0.1c0,0,0,0,0,0l0,0c0,0,0,0,0,0c0,0,0,0,0,0c0,0,0,0,0,0l0,0
										c0,0,0-0.1-0.1-0.1c0,0,0,0,0,0C8.7-7.7,8.6-7.7,8.6-7.8C8.6-7.8,8.7-7.8,8.6-7.8C8.6-7.8,8.6-7.8,8.6-7.8
										C8.6-7.8,8.6-7.8,8.6-7.8z M8.8-6.8C8.8-6.8,8.8-6.8,8.8-6.8L8.8-6.8C8.8-6.8,8.8-6.8,8.8-6.8z M8.8-6.7
										C8.8-6.8,8.8-6.8,8.8-6.7C8.8-6.7,8.8-6.7,8.8-6.7C8.8-6.7,8.8-6.7,8.8-6.7z M8.9-6.9L8.9-6.9C8.9-6.9,8.9-6.9,8.9-6.9
										C8.9-6.9,8.9-6.9,8.9-6.9L8.9-6.9z"/>
									<polygon fill="#202020" points="8.9,-6.9 8.9,-6.9 8.9,-6.9 8.9,-6.9 									"/>
									<polygon fill="#202020" points="10.2,-7.6 10.2,-7.6 10.2,-7.6 									"/>
									<polygon fill="#202020" points="8.3,-5.7 8.3,-5.7 8.3,-5.7 									"/>
									<path fill="#202020" d="M10-8.1L10-8.1L10-8.1z"/>
									<path fill="#202020" d="M9.8-8.2L9.8-8.2C9.8-8.3,9.8-8.3,9.8-8.2z"/>
									<polygon fill="#202020" points="9.7,-8.4 9.7,-8.4 9.7,-8.4 									"/>
									<path fill="#202020" d="M10.8-6L10.8-6C10.8-6,10.8-6,10.8-6z"/>
									<path fill="#202020" d="M10.6-6.8C10.6-6.8,10.7-6.7,10.6-6.8C10.7-6.8,10.7-6.8,10.6-6.8z"/>
									<polygon fill="#202020" points="10.9,-5.1 10.9,-5.1 10.9,-5.1 									"/>
									<path fill="#202020" d="M10.7-6.7C10.7-6.7,10.7-6.7,10.7-6.7C10.7-6.7,10.7-6.7,10.7-6.7z"/>
									<polygon fill="#202020" points="9.2,-8.9 9.2,-8.9 9.2,-8.9 									"/>
									<path fill="#202020" d="M9.2-8.9L9.2-8.9L9.2-8.9z"/>
									<path fill="#202020" d="M9.2-8.9L9.2-8.9C9.2-8.9,9.2-8.9,9.2-8.9z"/>
									<path fill="#202020" d="M9.4-8.7L9.4-8.7L9.4-8.7z"/>
									<path fill="#202020" d="M9.4-8.7C9.4-8.7,9.4-8.7,9.4-8.7L9.4-8.7C9.4-8.7,9.4-8.7,9.4-8.7z"/>
									<path fill="#202020" d="M9.6-8.4L9.6-8.4C9.5-8.5,9.5-8.4,9.6-8.4C9.5-8.4,9.5-8.5,9.6-8.4z"/>
									<path fill="#202020" d="M9.7-8.3C9.6-8.3,9.7-8.3,9.7-8.3C9.7-8.3,9.7-8.3,9.7-8.3z"/>
									<path fill="#202020" d="M10.4-7.3L10.4-7.3C10.4-7.2,10.4-7.3,10.4-7.3z"/>
									<polygon fill="#202020" points="10.6,-7.1 10.6,-7.1 10.5,-7.1 									"/>
									<polygon fill="#202020" points="10.5,-6.9 10.5,-6.9 10.5,-6.9 									"/>
									<path fill="#202020" d="M10.6-4.9L10.6-4.9C10.7-4.9,10.6-4.9,10.6-4.9z"/>
									<path fill="#202020" d="M10.1-5.2C10.1-5.2,10.1-5.2,10.1-5.2C10.1-5.2,10.1-5.2,10.1-5.2z"/>
									<polygon fill="#202020" points="8.1,-5.4 8.1,-5.4 8.2,-5.4 									"/>
								</g>
							</g>
						</g>
					</g>
				</g>
				<g>
					<g>
						<g>
							<g>
								<g>
									<path fill="#202020" d="M7.8-5.4C7.8-5.4,7.8-5.4,7.8-5.4L7.8-5.4L7.8-5.4z"/>
									<path fill="#202020" d="M7.8-5.4C7.8-5.4,7.8-5.4,7.8-5.4C7.8-5.4,7.8-5.4,7.8-5.4C7.8-5.4,7.8-5.4,7.8-5.4
										C7.8-5.4,7.8-5.4,7.8-5.4C7.8-5.4,7.8-5.4,7.8-5.4C7.8-5.4,7.8-5.4,7.8-5.4z"/>
									<path fill="#202020" d="M7.9-4.9L7.9-4.9L7.9-4.9z"/>
									<path fill="#202020" d="M8.1-4.6L8.1-4.6L8.1-4.6z"/>
									<path fill="#202020" d="M8.1-4.5L8.1-4.5L8.1-4.5z"/>
									<path fill="#202020" d="M7.9-4.9L7.9-4.9C7.9-4.8,7.9-4.9,7.9-4.9z"/>
									<polygon fill="#202020" points="7.8,-5.3 7.8,-5.3 7.8,-5.3 									"/>
									<polygon fill="#202020" points="7.8,-5 7.8,-5 7.8,-5 									"/>
									<path fill="#202020" d="M7.8-5.1C7.8-5.1,7.8-5.1,7.8-5.1C7.8-5.1,7.8-5.1,7.8-5.1C7.8-5.1,7.8-5.1,7.8-5.1z"/>
									<path fill="#202020" d="M7.8-5.3L7.8-5.3L7.8-5.3z"/>
									<path fill="#202020" d="M7.8-4.9L7.8-4.9L7.8-4.9z"/>
									<path fill="#202020" d="M10.6-4.5L10.6-4.5L10.6-4.5z"/>
									<polygon fill="#202020" points="10.7,-4.5 10.7,-4.5 10.7,-4.5 									"/>
									<path fill="#202020" d="M8.2-4.5L8.2-4.5L8.2-4.5z"/>
									<path fill="#202020" d="M9.1-4.1C9.1-4.2,9.1-4.2,9.1-4.1C9.1-4.2,9.1-4.2,9.1-4.1z"/>
									<path fill="#202020" d="M7.8-5.3L7.8-5.3L7.8-5.3z"/>
									<polygon fill="#202020" points="9.1,-4.2 9.1,-4.2 9.1,-4.2 									"/>
									<path fill="#202020" d="M8.4-4.4L8.4-4.4L8.4-4.4z"/>
									<path fill="#202020" d="M8.3-4.5L8.3-4.5L8.3-4.5z"/>
									<polygon fill="#202020" points="8.5,-4.4 8.5,-4.4 8.5,-4.4 									"/>
									<polygon fill="#202020" points="8.6,-4.3 8.6,-4.3 8.6,-4.3 									"/>
									<path fill="#202020" d="M10.4-4.3L10.4-4.3C10.4-4.3,10.4-4.3,10.4-4.3z"/>
									<path fill="#202020" d="M7.8-5.3C7.8-5.3,7.8-5.3,7.8-5.3L7.8-5.3L7.8-5.3z"/>
									<path fill="#202020" d="M8.6-4.5L8.6-4.5C8.6-4.5,8.6-4.5,8.6-4.5z"/>
									<path fill="#202020" d="M9.8-4.2L9.8-4.2L9.8-4.2z"/>
									<path fill="#202020" d="M8.7-4.5C8.7-4.5,8.7-4.5,8.7-4.5L8.7-4.5L8.7-4.5z"/>
									<path fill="#202020" d="M10.4-4.3L10.4-4.3L10.4-4.3z"/>
									<path fill="#202020" d="M10.4-4.4C10.5-4.4,10.5-4.4,10.4-4.4C10.5-4.4,10.5-4.4,10.4-4.4C10.5-4.4,10.5-4.4,10.4-4.4
										C10.5-4.4,10.5-4.4,10.4-4.4C10.5-4.4,10.5-4.4,10.4-4.4C10.5-4.4,10.5-4.4,10.4-4.4C10.5-4.4,10.5-4.4,10.4-4.4L10.4-4.4
										C10.5-4.4,10.6-4.4,10.4-4.4c0.1,0,0.1-0.1,0.1-0.1c0,0,0,0,0,0c0,0,0,0,0,0c0,0,0,0,0,0c0,0,0,0,0,0c0,0,0,0,0,0
										c0,0,0,0,0,0c0,0,0,0,0,0l0,0c0,0,0,0,0,0c0,0,0,0,0,0l0,0l0,0l0,0c0,0,0.1,0,0.1,0l0,0c0,0,0,0,0,0c0,0,0,0,0,0
										c0,0,0,0-0.1,0l0,0l0,0c0,0,0,0,0,0c0,0,0,0,0,0l0,0c0,0-0.1,0-0.1,0l0,0l0,0c0,0,0,0,0,0c-0.1,0-0.1,0.1-0.1,0.1l0,0
										c-0.1,0,0,0.1-0.1,0.1l0,0c0,0,0,0,0,0c0,0,0,0,0,0c0,0,0,0,0,0c0,0,0,0,0,0c0,0,0,0,0,0.1c0,0,0,0,0-0.1c0,0,0,0,0,0
										c0,0,0,0,0,0l0,0l0,0l0,0l0,0c0,0,0,0,0,0c0,0,0,0,0,0c0,0,0,0,0,0l0,0l0,0l0,0c0,0,0,0,0,0c0,0,0,0,0-0.1c0,0,0,0,0,0
										c0,0,0,0,0,0c0,0,0,0,0,0c0,0,0,0,0,0c0,0,0,0,0,0c0,0,0,0,0,0c0,0,0,0,0,0l0,0c0,0,0,0,0,0c0,0,0,0,0,0c0,0,0,0,0,0l0,0
										c0,0,0,0,0,0c0,0,0,0,0,0l0,0c0,0,0,0-0.1,0l0,0c0,0,0,0.1,0,0.1l0,0c0,0,0,0-0.1,0l0,0c0,0,0,0,0,0c0-0.1-0.1,0-0.1,0l0,0
										c0,0,0,0,0,0l0,0c0,0,0,0,0,0c0,0,0,0,0,0c0,0-0.1,0-0.1,0c0,0-0.1,0-0.1,0l0,0c0,0,0,0,0-0.1c0,0,0,0.1-0.1,0l0,0
										c0,0,0,0,0,0l0,0c0,0,0,0,0,0l0,0c0,0-0.1,0-0.1,0c0,0,0,0,0,0c0,0,0,0-0.1,0l0,0c0,0,0,0,0,0l0,0c0,0,0,0,0,0c0,0,0,0,0,0
										c0,0,0,0,0,0l0,0c0,0,0,0,0,0c0,0,0,0,0,0c0,0-0.1,0-0.1,0c0,0-0.1,0,0-0.1c0,0,0,0,0,0c0,0,0,0,0,0c0,0,0,0,0,0
										c0,0,0,0,0,0c0,0,0,0-0.1,0l0,0c0,0,0,0,0,0l0,0c0,0,0,0-0.1,0l0,0c0,0,0,0,0,0l0,0c0,0,0,0,0,0c0,0,0,0,0,0c0,0,0,0,0,0
										c0,0,0,0-0.1,0l0,0c0,0,0,0,0,0l0,0c0,0,0,0,0,0c0,0,0,0,0,0c0,0,0,0,0,0l0,0c0,0,0,0,0,0c0,0-0.1,0-0.1-0.1c0,0,0,0,0,0
										l0,0c0,0,0,0,0,0c0,0,0,0,0,0c0,0,0,0,0,0c0,0,0,0,0,0c0,0,0,0-0.1,0l0,0c0,0,0,0,0,0c0,0,0,0,0,0c0,0,0,0,0,0l0,0
										c0,0,0,0-0.1,0l0,0c0,0,0,0,0,0c0,0,0,0,0,0c0,0,0,0,0,0l0,0l0,0c0,0,0,0,0,0c0,0,0,0,0,0c0,0,0,0,0,0c0,0,0,0,0,0
										c0,0,0,0,0,0c0,0,0,0,0,0l0,0c0,0,0,0,0,0c0,0,0,0,0,0c0,0,0,0,0,0c0,0,0,0,0,0l0,0c0,0,0,0,0,0c0,0,0,0,0,0c0,0,0,0,0,0
										c0,0,0,0,0,0c0,0,0,0,0,0l0,0c0,0,0,0,0,0l0,0c0,0,0,0,0,0c0,0,0,0,0,0c0,0,0,0,0,0c0,0,0,0,0,0c0,0,0,0,0,0c0,0,0,0,0,0
										c0,0,0,0,0,0c0,0,0,0,0,0l0,0c0,0,0,0,0,0l0,0c0,0,0,0,0,0c0,0,0,0,0,0c0,0,0,0,0,0c0,0,0,0,0-0.1c0,0,0,0,0,0
										c0-0.1-0.1,0-0.1-0.1l0,0c0,0,0,0,0,0l0,0c0,0,0,0,0,0c0,0,0,0,0,0c0,0,0,0,0,0c0,0,0,0,0,0c0,0,0,0,0,0c0,0,0,0,0,0l0,0
										c0,0,0-0.1,0-0.1l0,0l0,0l0,0l0,0c0,0,0,0,0,0c0,0,0,0,0,0c0,0,0,0,0,0c0,0,0,0,0,0c0,0,0,0,0,0c0,0,0,0,0,0c0,0,0,0,0,0
										c0,0,0,0,0,0c0,0,0,0,0,0l0,0c0,0,0,0,0,0c0,0,0,0,0,0c0,0,0,0-0.1,0c0,0,0,0,0,0l0,0c0,0,0,0,0,0l0,0c0,0,0,0,0,0
										c0,0,0,0,0,0l0,0c0,0,0,0,0-0.1c0,0,0,0,0,0c0,0,0,0,0,0c0,0,0,0,0,0c0,0,0,0,0,0c0,0,0,0,0,0c0,0,0,0,0,0c0,0,0,0,0,0
										c0,0,0,0,0,0l0,0l0.1,0c0,0,0,0-0.1,0l0,0c0,0,0,0,0,0c0,0,0,0,0,0l0,0l0,0c0,0,0,0,0,0c0,0,0,0,0,0l0,0l0,0c0,0-0.1,0,0,0
										l0,0c0,0,0,0,0,0l0,0l0,0c0,0,0,0,0,0c0,0,0,0,0,0c0,0,0,0,0,0c0,0,0,0,0,0c0,0,0,0,0,0c0,0,0,0,0,0c0,0,0,0,0,0
										c0,0,0,0,0,0c0,0,0,0,0.1,0c0,0,0,0,0,0.1c0,0,0,0,0,0c0,0,0,0,0,0c0,0,0,0,0,0c0,0,0,0,0,0c0,0,0,0,0,0c0,0,0,0,0.1,0l0,0
										l0,0l0,0c0,0,0,0,0,0c0,0,0,0,0,0c0,0,0,0,0,0c0,0,0,0,0,0c0,0,0,0,0,0l0,0c0,0,0,0,0,0l0,0c0,0,0,0,0,0c0,0,0,0,0,0
										c0,0,0,0,0,0l0,0l0,0c0,0,0.1,0,0,0.1c0,0,0,0,0,0c0,0,0,0,0,0l0,0c0,0,0,0,0.1,0l0,0c0,0,0,0,0,0l0,0c0,0,0,0,0.1,0
										c0,0,0,0,0,0c0,0,0,0,0,0l0,0c0,0,0,0,0,0c0,0,0,0,0,0l0,0c0,0,0,0,0,0c0,0,0,0,0,0c0,0,0,0,0,0c0,0,0,0,0,0l0,0
										c0,0,0,0,0,0c0,0,0,0,0,0l0,0l0,0l0,0c0,0,0,0,0,0l0,0l0,0c0,0,0,0,0,0c0,0,0,0,0.1,0l0,0c0,0,0,0,0,0c0,0,0,0,0,0
										c0,0,0,0,0,0c0,0,0,0,0,0c0,0,0,0,0,0c0,0,0,0,0,0.1c0,0,0,0,0,0l0,0c0,0,0,0,0,0l0,0c0,0,0,0,0.1,0c0,0,0,0,0,0
										c0,0,0,0,0.1,0c0,0,0,0,0,0c0,0,0.1,0,0.1,0c0,0.1,0,0,0,0c0,0,0,0,0,0c0,0,0,0,0,0c0,0,0,0,0,0c0,0,0,0,0,0c0,0,0,0,0,0
										c0,0,0,0,0,0l0,0c0,0,0,0,0,0c0,0,0,0,0,0c0,0,0,0,0,0c0,0,0,0,0,0c0,0,0.1,0,0.1,0l0,0c0,0,0,0,0,0c0,0,0.1,0.1,0.1,0.1
										c0,0,0,0,0,0c0,0,0,0,0,0l0,0c0,0,0.1,0,0.1,0.1c0,0,0,0,0.1,0c0,0,0,0,0,0l0,0l0,0c0,0,0.1,0.1,0.1,0l0,0c0,0,0,0,0,0
										c0,0,0,0,0,0c0,0,0,0,0.1,0c0,0,0,0,0,0c0,0,0,0,0,0c0,0,0,0,0,0c0,0,0,0,0,0c0,0,0,0,0.1,0l0,0c0,0,0,0,0,0c0,0,0,0,0,0
										l0,0c0,0,0,0,0,0c0,0,0,0,0,0l0,0c0,0,0,0,0,0c0,0,0.1,0,0.1,0l0,0c0,0,0,0,0,0c0,0,0,0,0,0c0,0,0,0,0,0c0,0,0,0,0,0l0,0
										c0,0,0,0,0,0c0,0,0,0,0,0l0,0l0,0l0,0l0,0c0,0,0,0,0,0c0,0,0,0,0,0c0,0,0,0,0,0c0,0,0.1,0,0.1,0l0,0c0,0,0,0,0,0l0,0
										c0,0,0.1,0,0.1,0c0,0,0,0,0,0c0,0,0,0,0,0c0,0,0,0,0,0l0,0c0,0,0.1,0,0.1,0c0,0,0,0,0,0c0,0,0,0,0.1,0l0,0c0,0,0,0,0,0
										c0,0,0,0,0,0c0,0,0,0,0,0l0,0c0,0,0,0,0,0c0,0,0,0.1,0,0c0,0,0,0,0,0C10.3-4.3,10.3-4.3,10.4-4.4
										C10.4-4.3,10.3-4.3,10.4-4.4L10.4-4.4c-0.1,0.1-0.1,0.1-0.1,0.1C10.4-4.3,10.4-4.3,10.4-4.4C10.4-4.3,10.4-4.3,10.4-4.4
										L10.4-4.4c-0.1,0.1-0.1,0.1-0.1,0.1C10.4-4.3,10.4-4.3,10.4-4.4C10.4-4.3,10.4-4.3,10.4-4.4L10.4-4.4
										C10.4-4.3,10.4-4.3,10.4-4.4C10.4-4.4,10.4-4.3,10.4-4.4C10.4-4.4,10.4-4.4,10.4-4.4C10.4-4.4,10.4-4.3,10.4-4.4
										C10.4-4.4,10.4-4.4,10.4-4.4C10.4-4.4,10.4-4.4,10.4-4.4z M10.2-4.2L10.2-4.2L10.2-4.2L10.2-4.2z M10.2-4.2
										C10.2-4.2,10.2-4.2,10.2-4.2C10.2-4.2,10.2-4.2,10.2-4.2C10.2-4.2,10.2-4.2,10.2-4.2z M10.2-4.1L10.2-4.1L10.2-4.1
										C10.2-4.1,10.2-4.1,10.2-4.1L10.2-4.1z"/>
									<polygon fill="#202020" points="10.2,-4.1 10.2,-4.1 10.2,-4.1 10.2,-4.1 									"/>
									<polygon fill="#202020" points="7.9,-4.9 7.9,-4.9 7.9,-4.9 									"/>
									<polygon fill="#202020" points="9.8,-4.3 9.8,-4.2 9.8,-4.3 									"/>
									<path fill="#202020" d="M7.9-5L7.9-5L7.9-5z"/>
									<path fill="#202020" d="M7.9-5.1L7.9-5.1C7.9-5.1,7.9-5.1,7.9-5.1z"/>
									<polygon fill="#202020" points="7.9,-5.1 7.9,-5.1 7.9,-5.1 									"/>
									<path fill="#202020" d="M8.4-4.6L8.4-4.6C8.4-4.6,8.4-4.6,8.4-4.6z"/>
									<path fill="#202020" d="M8.1-4.7C8.1-4.7,8.2-4.7,8.1-4.7C8.2-4.7,8.2-4.7,8.1-4.7z"/>
									<polygon fill="#202020" points="8.6,-4.5 8.6,-4.5 8.6,-4.5 									"/>
									<path fill="#202020" d="M8.2-4.7C8.2-4.7,8.2-4.7,8.2-4.7C8.2-4.7,8.2-4.7,8.2-4.7z"/>
									<polygon fill="#202020" points="7.8,-5.4 7.8,-5.4 7.8,-5.4 									"/>
									<path fill="#202020" d="M7.8-5.4L7.8-5.4L7.8-5.4z"/>
									<path fill="#202020" d="M7.8-5.4L7.8-5.4C7.8-5.4,7.8-5.4,7.8-5.4z"/>
									<path fill="#202020" d="M7.8-5.3L7.8-5.3L7.8-5.3z"/>
									<path fill="#202020" d="M7.8-5.3C7.8-5.3,7.9-5.3,7.8-5.3L7.8-5.3C7.9-5.3,7.8-5.3,7.8-5.3z"/>
									<path fill="#202020" d="M7.8-5.2L7.8-5.2C7.8-5.2,7.8-5.2,7.8-5.2C7.7-5.1,7.8-5.2,7.8-5.2z"/>
									<path fill="#202020" d="M7.8-5.1C7.8-5.1,7.8-5.1,7.8-5.1C7.8-5.1,7.8-5.1,7.8-5.1z"/>
									<path fill="#202020" d="M8-4.7L8-4.7C7.9-4.7,7.9-4.7,8-4.7z"/>
									<polygon fill="#202020" points="8.1,-4.8 8.1,-4.8 8.1,-4.8 									"/>
									<polygon fill="#202020" points="8,-4.6 8,-4.6 8,-4.6 									"/>
									<path fill="#202020" d="M8.6-4.3L8.6-4.3C8.6-4.3,8.6-4.3,8.6-4.3z"/>
									<path fill="#202020" d="M8.9-4.2C8.9-4.2,8.9-4.2,8.9-4.2C8.9-4.2,8.9-4.2,8.9-4.2z"/>
									<polygon fill="#202020" points="9.7,-4.1 9.7,-4 9.7,-4.1 									"/>
								</g>
							</g>
						</g>
					</g>
				</g>
			</g>
		</g>
		<polygon fill="none" points="18,0 0,0 0,-17.8 18,-17.8 		"/>
	</g>
</pattern>
<pattern  id="SVGID_1_" xlink:href="#New_Pattern_Swatch_2" patternTransform="matrix(0.9814 0 0 0.9923 -176.1892 -87.3951)">
</pattern>
<rect opacity="0.5" fill="url(#SVGID_1_)" width="144.2" height="144.5"/>
</svg>
