<?xml version="1.0" encoding="utf-8"?>
<!-- Generator: Adobe Illustrator 18.0.0, SVG Export Plug-In . SVG Version: 6.00 Build 0)  -->
<!DOCTYPE svg PUBLIC "-//W3C//DTD SVG 1.1//EN" "http://www.w3.org/Graphics/SVG/1.1/DTD/svg11.dtd">
<svg version="1.1" id="Layer_1" xmlns="http://www.w3.org/2000/svg" xmlns:xlink="http://www.w3.org/1999/xlink" x="0px" y="0px"
	 viewBox="0 0 144 144" enable-background="new 0 0 144 144" xml:space="preserve">
<g>
	<g>
		<path fill="none" stroke="#000000" stroke-width="0.576" stroke-miterlimit="10" d="M-72-11.5"/>
	</g>
</g>
<g>
	<g>
		<path fill="none" stroke="#000000" stroke-width="0.576" stroke-miterlimit="10" d="M-60.8-10.2"/>
	</g>
</g>
<g>
	<g>
		<g>
			<g>
				<g>
					<g>
						<g>
							<path fill="#3C3C3C" d="M20.5,98.2c-0.2-0.1-0.3,0.1,0,0.6l0.6,0.2L20.5,98.2z"/>
							<path fill="#3C3C3C" d="M21.7,102c0.5,0.5,1.1,1.1,1.3,0.5c-0.6-0.4-0.6-0.7-1.3-1.1c-0.3-0.5-0.4-1-0.2-0.9
								c-0.2-0.1-0.4-0.8-0.7-1c0.1,0.8,0.5,1.6,1.2,2.4C22,102.1,21.8,102,21.7,102z"/>
							<path fill="#3C3C3C" d="M64.1,110.4l-0.3-0.1C63.9,110.3,64,110.4,64.1,110.4z"/>
							<path fill="#3C3C3C" d="M94.3,108.5c0.1,0.3,0.2,0.4,0.2,0.4C94.4,108.6,94.3,108.4,94.3,108.5z"/>
							<path fill="#3C3C3C" d="M93.1,102.8c0,0.1,0,0.2,0,0.3C93.2,103,93.2,102.8,93.1,102.8z"/>
							<path fill="#3C3C3C" d="M64.1,110.4l0.8,0.4C65,110.7,64.5,110.6,64.1,110.4z"/>
							<path fill="#3C3C3C" d="M26,108.5c-0.1-0.2-0.2-0.3-0.3-0.4L26,108.5C25.9,108.5,25.9,108.5,26,108.5z"/>
							<path fill="#3C3C3C" d="M50.5,113.1l-0.2,0.2c0,0.1,0,0.2,0,0.3c0,0,0-0.1,0.1-0.2C50.4,113.2,50.5,113.1,50.5,113.1z"/>
							<path fill="#3C3C3C" d="M41.6,121.2c0.3,0,0.3-0.4,0.4-0.6c-0.1,0.2-0.3,0.3-0.6,0.4C41.4,121.1,41.5,121.1,41.6,121.2z"/>
							<path fill="#3C3C3C" d="M26,111.5l-0.2-0.3C25.9,111.3,26,111.4,26,111.5z"/>
							<path fill="#3C3C3C" d="M57.5,110.1c0,0,0.1,0.1,0.1,0.1C57.6,110.2,57.5,110.1,57.5,110.1z"/>
							<path fill="#3C3C3C" d="M18.7,87.6C18.6,87.6,18.6,87.6,18.7,87.6C18.7,87.7,18.7,87.7,18.7,87.6z"/>
							<path fill="#3C3C3C" d="M21,101l-0.1-0.2c-0.1,0-0.1,0-0.2,0L21,101z"/>
							<path fill="#3C3C3C" d="M95.7,94C95.7,94,95.7,94,95.7,94C95.6,94.2,95.7,94.1,95.7,94z"/>
							<path fill="#3C3C3C" d="M123.4,28.5c0.7-0.9-0.4,1.9,0.6,0.4C123.9,29,124.2,27.3,123.4,28.5z"/>
							<path fill="#3C3C3C" d="M26.1,108.8l0.2,0.4C26.2,109,26.1,108.9,26.1,108.8z"/>
							<path fill="#3C3C3C" d="M124,28.9L124,28.9l0.1-0.1C124.1,28.9,124.1,28.9,124,28.9z"/>
							<path fill="#3C3C3C" d="M116.9,84.7c-0.1,0.1-0.1,0.2-0.2,0.3C116.8,84.9,116.8,84.9,116.9,84.7z"/>
							<path fill="#3C3C3C" d="M100.4,91.7l0.4,0.1C100.6,91.7,100.5,91.7,100.4,91.7z"/>
							<path fill="#3C3C3C" d="M113.9,74.7c-0.1-0.2-0.1-0.3-0.3-0.6c0,0,0,0.1,0,0.1C113.7,74.3,113.8,74.5,113.9,74.7z"/>
							<path fill="#3C3C3C" d="M109.4,65.9c0,0.1,0,0.1,0,0.2c0,0.1,0.1,0.2,0.1,0.3L109.4,65.9z"/>
							<path fill="#3C3C3C" d="M25.5,61.3c-0.2,0-0.4,0-0.5-0.1C25.2,61.4,24.1,62.1,25.5,61.3z"/>
							<path fill="#3C3C3C" d="M25.8,108.6c0.1,0,0.2,0.1,0.3,0.2C26,108.7,26,108.6,25.8,108.6C25.8,108.5,25.8,108.5,25.8,108.6z"
								/>
							<path fill="#3C3C3C" d="M111.3,75.7l-0.8-1.4C110.8,74.7,111,75.2,111.3,75.7z"/>
							<path fill="#3C3C3C" d="M78.2,60.1L77.8,60C78,60.1,78.1,60.1,78.2,60.1z"/>
							<path fill="#3C3C3C" d="M108.1,70.1c0-0.3-0.1-0.7-0.2-1c-0.1-0.1-0.1-0.1-0.2-0.2c0,0,0.1,0.3,0.2,0.6
								C108,69.8,108.1,70.1,108.1,70.1z"/>
							<path fill="#3C3C3C" d="M25,61.2L25,61.2L25,61.2z"/>
							<path fill="#3C3C3C" d="M19.7,69.1c0.5-1.3-0.2-0.8-0.3-1.2c0.6-1.6,0.6-0.6,1.1-1c0.4-1,0.5-1.9,1-2.5
								c0.1,0,0.2-0.1,0.2,0.1c0.2-0.5,0.7-1.2,1.3-1.7c0.6-0.6,1.3-1.1,1.7-1.6c0.1,0,0.2,0,0.2,0c-0.3-0.1-0.4-0.3-0.5-0.4
								c0.6-0.3,1-0.8,1.3-0.6c-0.4,0.1-0.4,0.3-0.5,0.4c0,0,0.1-0.1,0.3-0.2c0.1-0.1,0.3-0.2,0.3-0.2c0.4,0.1,0.2,0.2-0.1,0.3
								c-0.3,0.1-0.6,0.3-0.5,0.5c1-0.7,2.5-1.4,3.5-1.3c0.1,0.2-0.5,0.2-0.9,0.3c-0.4,0.1-0.7,0.2,0,0.2c0,0-0.4,0-0.7,0.1
								c-0.4,0-0.7,0.1-0.7,0.1c1.3,0.3-0.8,0.2,0.3,0.6c0.9-0.2,1.3-0.3,1.8-0.4c0.5-0.1,1-0.1,1.8,0.1c0.4-0.1,0-0.4,0.4-0.5
								c0.7,0.1,1.1,0.3,1.4,0.6c0.3,0.2,0.4,0.5,0.6,0.7c0.3,0.5,0.4,0.8,1.4,1.3c0.6,0.1,1.1-0.1,2.2,1.2l-0.7,0
								c0.8,0.7,1.1,0.8,1.5,0.9c0.3,0.1,0.6,0.3,1.5,1.1c-0.5-0.1-1.5-1-1.3-0.7c1,1.2,1,0.5,2,1.1l0,0.5c1.1,0.6,2.5,1.1,3.9,1.2
								c1.5,0.1,2.9-0.3,4.2-0.9c-0.1,0.2-0.5,0.5,0.2,0.3c1.7-0.8,3.2-2,4.4-3.5c1.2-1.5,2-3.2,2.5-4.8c0,0,0-0.3,0-0.7
								c0-0.3,0-0.6,0-0.6c0.1-0.3,0.3-0.5,0.3-0.2c0.3-1.2-0.2-0.1-0.2-0.7c0.1-0.7,0.3-0.9,0.4-0.4c0-1.1-0.1-2.7,0-4
								c0.1-1.4,0.7-2.5,1.5-2.9c0,0-0.2,0.3-0.2,0.3c0.5-0.4,0.7-0.7,1-1.1c0.3-0.3,0.6-0.6,1.3-0.7c0,0-0.2,0.1-0.2,0.1
								c1.6-0.4,3.4-0.4,4.9,0.2c1.6,0.6,2.9,1.6,3.8,2.6c0.7-0.1,2.5,2.5,3.2,2.2c1.3,1.7,0.7,1.4,3,3.6c0.6,0.6,1.3,0.4,2.2,1
								L75,58.4c0,0,0.4,0.1,0.7,0.2c0.4,0.1,0.7,0.2,0.7,0.2s0.1,0.2,0.2,0.4c0.1,0.2,0.2,0.4,0.2,0.4s0.2,0.1,0.5,0.2
								c0.2,0.1,0.5,0.2,0.5,0.2c-0.4-0.2-0.7-0.5-0.6-0.6c0.7,0.3,1.6,0.7,2.3,1c0.7,0.3,1.3,0.6,1.3,0.7c0,0,1,0.1,2,0
								c1-0.1,2-0.3,2-0.3c-0.1,0.2-0.7,0.3-1.2,0.4c1.1-0.3,1.2-0.2,1.2-0.1c0.1,0.1,0.2,0.2,1.1-0.2c-0.3,0,0.1-0.3,0.1-0.3
								c0.5,0,1.3-0.3,2.1-0.8c0.4-0.3,0.8-0.6,1.1-0.8c0.3-0.3,0.6-0.7,0.9-1l0,0.4c1.1-1.1,1.8-2.5,2.4-3.9c0.6-1.4,1-2.8,1.4-4.2
								c-0.4,0.9-0.8,0.6-0.6-0.2l0.5-0.2c-0.1-0.6-0.4,0.8-0.4-0.4c0.4-1,0.7-0.5,0.6,0.1l0.3-1.2c0.1,0,0.1,0.3,0.2,0.4
								c-0.1-0.6,1.1-1.8,1-2.6l0.1,0c0.1-0.3,0.3-0.5,0.4-0.8c0.1-0.2,0.3-0.4,0.4-0.6c0.1-0.2,0.3-0.4,0.4-0.5
								c0.1-0.1,0.3-0.3,0.4-0.4c0.5-0.5,1.1-1,1.9-1.3c0-0.2,0.1-0.3,0.3-0.4c0.2-0.1,0.6-0.2,0.8-0.4c1.5-0.1,3.1,0.5,4.9,1.1
								c1.3,0.3,0.5-0.1,1.1-0.1c0,0.3,1.8,1.1,0.8,0.9c2.2,1,2.7,1.3,5.6,2.7c-0.3-0.3-0.5-0.5-0.3-0.5c0.5,0.2,1.1,0.8,1,0.9
								l-0.2,0c0.5,0.2,1,0.4,1.6,0.5c0.6,0.1,1.4,0,2-0.2c1.3-0.5,2.1-1.6,2.7-2.5c0.3-0.5,0.6-0.9,0.8-1.4
								c0.2-0.4,0.4-0.8,0.6-1.2c0.4-0.8,0.7-1.6,0.8-2.3l0,0.2l0.8-2.8c0.6-1.2-0.1,0.8,0.5,0c0.8-3.1,2-4.5,2.7-7
								c0.9-0.8,1.7-2.9,2.5-4.9l0.3-0.9l-0.6-0.8c-0.3-0.4-0.8-0.7-1.3-0.8c-0.5-0.1-0.8,0-1,0.1c-0.5,0.2-0.8,0.4-1.1,0.6
								c-0.3,0.3-0.6,0.6-0.9,0.9c-0.3,0.3-0.6,0.7-0.9,1c-0.2,0.3-0.5,0.6-0.7,0.8l0.3,0c-0.2,0.8-0.6,0.8-0.9,1.3
								c0.2,0,0.6-0.7,0.4-0.2c-1.3,3.1-1.7,6.3-1.9,9.4c-0.1,1.5-0.2,3.1-0.3,4.6c-0.1,1.5-0.3,2.9-0.6,4.3c-0.2,1,0,1.3,0.1,1.7
								c0.1,0.2,0.1,0.4,0.1,0.7c0,0.3-0.2,0.7-0.6,1.3l-0.1-0.8c-0.4,2-1.5,3.7-3,4.8c-0.4,0.2-0.8,0.5-1.2,0.7
								c-0.4,0.2-0.9,0.4-1.5,0.6c-1,0.4-2.3,0.9-3.3,1.8c0.2-0.3,0.1-0.4,0.6-0.7c-0.6,0.2-1.5,0.9-2,1.7c-0.5,0.8-0.7,1.5-0.6,1.6
								c-0.4,0.7-0.3,0.1-0.6,0.5c-0.3,0.5-0.4,1.2-0.5,1.8c-0.1,0.6,0,1.2-0.2,1.4c-0.1,0.1-0.1-0.3-0.1-0.5c0,0.4,0,1.2,0,1.8
								c0,0.6,0.1,1.1,0.3,0.8c0,0.9,0.2,1.8,0.5,2.6c0.3,0.8,0.6,1.5,0.8,2.1c0.7,0.7,1.2,2.7,1.8,2.7c-0.5,0.2,1.1,2.7,1.8,3.5
								c-0.3-0.2,0.3,0.8-0.1,0.6c0.6,1,1.1,1.8,1.3,1.5c0.2,1.1,0.6,1.9,1,2.8c0.4,0.8,0.6,1.6,0.2,2.2c0.3,1.5,0.2,2.9-0.4,4.2
								c-0.6,1.3-1.5,2.4-2.7,3.1c-0.1-0.3,0.5-0.7,1.1-1.1c0.5-0.5,0.9-1.1,0.7-1.2c-0.7,1-1.4,1.8-2.2,2.3c-0.8,0.6-1.8,1-3.1,0.9
								c-0.7-0.1,0.4-0.2,0.6-0.4c-2.5,0.4-5.3-1-8.3-0.7c0-0.1,0.3-0.1,0.6-0.1c-0.6,0-1.4,0-1.3,0.2c0,0,0.1,0,0.3-0.1
								c0.1,0,0.3,0,0.3,0c0.5,0.2-0.1,0.3-0.8,0.6c-0.7,0.2-1.4,0.6-1.4,0.7c0.3-0.5-0.4-0.3-1-0.1c-0.6,0.2-1.2,0.5-0.7-0.3
								c-0.3,0.3-0.7,0.6-0.5,0.7c-0.5,0.3-0.7,0.3-0.3-0.2c-0.8,0.7-1,1.1-1.1,1.4c-0.1,0.3-0.3,0.5-0.8,1.3
								c-0.1-0.1,0.1-0.4,0.1-0.7c-0.4,0.9-0.7,1.8-1.3,3.3c0-0.1-0.2,0,0-0.4c-0.5,1.3-0.5,2.5-0.4,3.6c0.1,1.2,0.2,2.3,0.3,3.7
								c-0.7-0.7,0,1-0.4,1.2c0,0,0.1,0.4,0.2,0.7c0.1,0.4,0.3,0.7,0.3,0.7l0.1-0.6c0.3,1.3,1,2.3,1.2,3.4l-0.5-0.8
								c0,0,0.2,0.6,0.4,1.1c0.2,0.5,0.3,1,0.3,1c0,0-0.1-1.2-0.2-1.2c0.3,0.6,0.4,0.5,0.5,0.5c0.1,0,0.2,0,0.3,0.9
								c-0.1-0.2,0,0.1-0.1,0.6c0,0.4-0.5,0.9-0.5,1.1v0c0,0.6-0.3,1.2-1.1,1.7c-0.3,0-0.2-0.5-0.4-0.5c-0.1,0.3-0.6,0.8-1.2,1.2
								c-0.6,0.4-1.3,0.7-1.6,1c0.2-0.2,0.1-0.4,0-0.4l-0.4,0.5c-0.6,0.1-0.7,0-0.6-0.2c-1.6,0.3,0.7,0.5-1.4,0.6
								c0.2-0.1,0.1-0.1,0.4-0.2c-2,0.2-3.9,0.5-5.8,0c-0.5-0.5,1.6,0.1,1.1-0.4c-2.7-0.2-5.6-0.7-8.1-1.9l0.4,0.2
								c-0.6,0.5-1.7-1.1-3.1-1.3c0.3,0.1,0.5-0.2,0.4-0.1c-1.7-0.8-3.6-1.4-6.4-2.1l0.4,0c-1-0.5-2.8-0.9-4-1.2
								c-0.4,0.1-1.1,0-0.7,0.3c-1.8-0.7-3.7-0.5-5.4-0.1c-1.7,0.5-3.2,1.2-4.9,1.9c0.3-0.3,0.8-0.7,0.5-0.5c0,0-0.6,0.4-1.2,0.9
								c-0.3,0.3-0.5,0.5-0.7,0.7c-0.2,0.2-0.3,0.4-0.3,0.4c0.4,0,0.4-0.2,1-0.4c-0.2,0.4-0.6,1-1,1.6c0.6-1.1-0.4-0.3-0.8,0.1
								c0.1,0,0.1,0.2,0.2,0.2c-1.2,1,0.3,0.5-1,2l-0.1-0.2c-0.3,0.7-0.5,1.3-1.1,1.9c-0.4,0,0.4-0.7,0.2-0.9
								c-0.3,0.4-0.5,0.9-0.8,1.4c-0.3,0.4-0.7,0.8-1.2,1c0.3-0.3,0.8-0.7,1.1-1.1c-0.5,0.2-0.8,0.4-1,0.5c-0.2,0.1-0.4,0.3-0.7,0.4
								l0.1,0c0,0-0.1,0-0.2,0.1c-0.2,0.1-0.4,0.1-0.6,0.2c-0.4,0.1-0.8,0.2-0.8,0.2l0.4-0.1c-0.4,0.6-1.1,0.9-1.9,1
								c-0.7,0.1-1.5,0.1-2.5,0.3c1.8-0.4,0.3-0.3,0.5-0.6c-0.4-0.1-1.1-0.3-0.9-0.4c-0.9,0.2-1.3-0.4-2.5-0.4
								c0-0.1-0.8-0.3-0.5-0.5c-1-0.4,0.1,0.3,0,0.4c-0.8-0.1-1.7-0.8-2.5-1.5c-0.8-0.7-1.6-1.6-2.6-2.3c-1.6-1.5-2.1-1.6-3.4-3.2
								c-0.2-0.7,0.7,0.3,0.7,0.3c-0.4-1-0.9-1.7-1.5-2.6c0.2,0.1,0.2-0.1,0.1-0.4c-0.4-0.7-0.6-0.3-1-1.4c0.2,0.1,0.5,0.2,0.8,0.5
								c-0.5-0.8-1.2-1.6-1.7-2.5c0.1-0.3,0.5,0.4,0.8,0.7c-0.6-1-1.5-2.6-1.9-2.8l0.2,0.7c-0.2-0.4,0.2-0.3,0.3-0.1
								c0.7,0.8,0.5,1.3,0.4,1.4l-0.4-0.6c-0.3,1,1.4,2.6,2,3.9l-0.7-0.3l1.1,1.1c0,0.3-0.1,0.7-0.5,0.1c0.3,1.1,0.6,0.7,0.8,1.7
								c0,0.1,0,0.1-0.1,0l0.7,0.8c-0.2-0.1-0.2,0.3-0.5-0.2c0.8,1.8,2,2.3,2.2,3.1l-0.1-0.1c0.9,1,1,0.9,1.1,0.8
								c0.1-0.1,0.1-0.3,1,0.3c0,0,0.1,0.4,0.2,0.8c0.1,0.4,0.2,0.8,0.2,0.8l0.4-0.1c0.2,0.2,0.6,0.5,0.4,0.6c1,0.4,0-0.2,0.6-0.1
								c0.4,0.5,1.2,1,1.9,1.3c0.7,0.3,1.3,0.6,1.3,0.9c0.5-0.1-1.1-0.6,0.3-0.3c0.2,0.7,1.6,0.4,2.7,0.7c-0.4,0.3-1.5-0.1-0.4,0.4
								c0.4-0.2,1-0.2,1.6-0.1c0.6,0.1,1.3,0.1,1.8,0c0-0.2,0.5-0.4,1.3-0.6c0.7-0.2,1.6-0.6,2.3-1.2c0,0.1,0.7-0.3,1.5-1
								c0.8-0.7,1.5-1.8,2-2.4l0,0.1c-0.2-0.5,0.7-1.8,1.3-2.7c0.2,0.2,0.1,0.4-0.1,1c0,0,0.2-0.2,0.3-0.4c0.2-0.2,0.3-0.4,0.3-0.4
								c0.1-0.2,0.2-0.6,0.7-1l0,0.4c0.9-0.9,2-2,3.7-2.3c0-0.3-1.7-0.4,0.2-1.2c0.1,0.1,0.3,0.4-0.2,0.6c0.1-0.1,0.5-0.3,0.9-0.3
								c0,0-0.2,0.1-0.3,0.2c-0.2,0.1-0.3,0.2-0.3,0.2c0.8-0.1,0.4-0.3,1-0.5c0,0.2,0.5,0.1,0.5,0.3c-0.2,0-0.6,0-0.8,0.2
								c0.7-0.1,1.6-0.1,1.9,0.1c-0.1-0.1,0-0.3,0.5-0.4c1.4-0.1,0.5,0.3,1.3,0.4c0.3-0.2,1.2,0.1,1.3-0.3c0.4,0,0.5,0.2,0.6,0.3
								c0.4,0,1.2,0.1,1.8,0.2c0.6,0.1,1.1,0.2,0.8-0.1l-0.2-0.1c0,0,0.1,0,0.1,0c0,0,0,0,0,0l0,0c2.5,0.3,4.7,1.8,7,2.6l-0.1,0.1
								c1.4,0.5,3,1.2,4.1,1.4c0.4,0.2,0.9,0.6,0.7,0.6c1.1,0.3,1.2,0.2,2.8,0.9c-1.2-0.1,0.3,0.3-1.2-0.2c1.4,0.5,1.7,0.8,3.3,0.8
								c-0.6,0.2,1,0.6,1.8,0.6c0,0-0.3-0.1-0.5-0.2c-0.3-0.1-0.5-0.2-0.5-0.2c0.8,0.1,1.5,0.2,2.2,0.2l-0.4,0.4
								c1.6,0.4,3,0.1,4.3-0.3c1.3-0.4,2.4-0.9,3.7-1.1c0.3-0.3-0.1-0.1-0.5,0c-0.4,0.1-0.9,0.3-0.6-0.1c1.3-0.5,2.9-0.9,3.3-1.3
								c0.9-0.7,1.1-1.3,1.3-1.8c0.1-0.6,0.3-1.1,0.4-2.4c-0.1,0.2-0.2,0.3-0.3,0.2c-0.1-0.1-0.2-0.5-0.4-1.2
								c-0.3-1.4,0.1-1.8,0.5-1c0.1,0.3,0.1,0.5,0.1,0.5c0.2,0.4,0.3,1.1,0.4,0.5l-0.2-0.2c0-0.4-0.2-1.1-0.3-1.6
								c-0.1-0.5-0.2-0.8,0-0.7c-0.4-0.9-0.4-0.3-0.2,0.4c-0.3-1.7-0.8-2.5-1-4.2c0,0.3-0.1,0.6-0.2,0.3c-0.1-1.3-0.2-1.5-0.3-1.7
								c-0.1-0.2-0.3-0.2-0.3-1.1c0.2-1,0.5,0.3,0.4-1.3c0.3-1,0.4-0.2,0.5,0.2c-0.2-1.5,0.6-2.6,1-3.2c0,0-0.1,0.2-0.1,0.4
								c0,0.2-0.1,0.4-0.1,0.4c0.1-0.4,0.2-0.7,0.4-1.1L94,96.2c0.2-0.4,0.4-0.7,0.5-0.6c0.1-0.5-0.6,0.1-0.3-0.9
								c0.4-0.4,1.1-1.6,1.5-1.4c-0.7,0.6-0.6,0.6-0.5,0.6c0.2,0,0.3,0-0.1,0.6c0.1-0.3,0.4-0.5,0.7-0.8c0.1,0,0,0.1,0,0.2
								c0.7-0.4,0.8-0.6,0.9-0.8c0.1-0.2,0.1-0.5,0.9-0.9c-0.1,0.3,0.5,0.3,0.7,0.2c-0.6,0.2-0.4-0.3,0.2-0.6c1.1,0,1.3-0.2,1.9-0.2
								c0,0-0.2,0-0.4-0.1c-0.2,0-0.4,0-0.4,0c0.2-0.2,0.9-0.2,1.8-0.1c0.1,0.2-0.8,0-0.5,0.1c1-0.3,2.2,0.8,3.7,0.8
								c0.7,0.2,0,0.4,0.6,0.6c0.9,0,1.4,0.1,1.9,0.2c0.5,0.1,1.1,0.2,2.1-0.2c-0.6-0.2-0.7-0.1,0.6-0.7c0,0-0.7,0.3-1.6,0.4
								c-0.8,0.1-1.6,0.1-1.6,0.1s0.1,0,0.3-0.1c0.2,0,0.4-0.1,0.7-0.2c0.2-0.1,0.5-0.1,0.7-0.2c0.2-0.1,0.3-0.1,0.3-0.1
								c-0.9,0.2-2,0.3-2.5,0.2c0.9-0.2,0.8-0.1,0.4-0.4c0.6,0.2,1.2,0.2,1.9,0c0.6-0.2,1.2-0.4,2-0.5l0.2,0.7
								c1.2-0.3,2-0.9,2.8-1.7c0.8-0.8,1.5-1.8,2.2-3c0,0-0.1,0.2-0.3,0.4c-0.1,0.2-0.3,0.4-0.3,0.4c0-0.5,0.9-1.6,1-2.6
								c0.2,0.2,0.4-0.4,0.7-0.8c-0.1,0,0-0.5,0-1.1c0-0.6-0.1-1.2-0.3-1.3c0,0,0.1-0.3,0.1-0.6c0-0.3,0.1-0.7,0.1-0.7
								c-0.1-1.2-0.5-1.7-0.9-2.3c-0.4-0.5-0.7-1-1.2-2c0.5,0.5,0.3-0.5,1,0.8c-0.3-0.7-0.5-1.3-0.7-1.2c0-0.5-1.2-1.6-1.3-2.2
								c-0.2-0.2-0.5-0.2-0.9-0.8c0-0.1,0.1-0.1,0.1-0.1c-0.1,0.1-0.8-0.9-0.6-0.2c-0.2-1.1-1-2.3-1.7-3.6c-0.7-1.2-1.2-2.5-1.1-3.4
								c-0.5-1.3-0.7-3-0.5-4.2c0.1,0.1,0.1,0,0.1,0.2c0.2-0.8,0.1-1.1,0.1-1.4c-0.1-0.3-0.2-0.7,0.4-1.6c0.4-0.3,0.3-0.1,0.2,0.2
								c-0.1,0.3-0.3,0.6-0.1,0.3c0.4,0,0.6-0.5,1-1c0.3-0.6,0.9-1.2,1.5-1.2l-0.2,0.2c0.4-0.1,0.9-0.4,1.6-0.8
								c0.6-0.3,1.4-0.7,2.3-1.1c0,0-0.1,0.1,0,0.1c0.5-0.5,1.3-1.1,2-1.8c0.7-0.7,1.3-1.6,1.8-2.4c-0.1,0.6-0.3,0.8,0.1,0.7
								c0.2-0.4,0.1-0.4,0-0.5c-0.1-0.1-0.1-0.3,0.2-1c0.4-0.4,1-1.4,1.3-1.4c0,0-0.1,0.4-0.3,0.7c-0.2,0.4-0.3,0.7-0.3,0.7
								c0.7-0.5,0.8-1.9,1.1-2.6l0.2,0.2c0.3-1.1,0.3-1.8,0.3-2.4c0-0.6,0-1.2,0.1-2.5l-0.2,0.2c-0.4-1.4,0.4-1.1,0.1-2.4l0.5-0.4
								c-0.1-0.9-0.5-3-0.5-4.6c0.3,0.9,0.5,2.7,0.7,3.8c0-0.9,0-2.9-0.2-3.3c0,0.3,0.2,0.8,0.1,1.1c-0.4-1-0.5-2.4-0.4-4.1
								c0.5,0.2,0.6-0.9,0.8-2.1c0.2-1.2,0.7-2.6,1.2-2.9c0.2-0.9,0.7-1.7,1.2-2.4l0.4-0.5c0.2-0.2,0.4-0.3,0.5-0.5
								c0.2-0.2,0.2-0.2,0.3-0.2c-0.1-0.1-0.2-0.5-0.2-0.7c0-0.2,0.1-0.2,0-0.1c-0.3-0.3-0.6-0.5-0.9-0.8c-0.5,1-1,2-1.4,3.1
								c1.2-0.9-0.4,0.9,0.4,1c-0.3,0.8-0.4,1-0.5,1.1l-1.4,2.1c-0.4,0.5,0.2-0.8,0-0.8c-0.8,1.6-0.6,0.6-1.2,1.6
								c0.3-0.1,0.1,0.7-0.4,1.6l0.9-1.2c-0.6,2.4-1.4,1.7-2.1,4.2l0.1-0.8c-0.4,1.2-1.9,4.4-1.8,5.8c-0.2,0.2-0.5,0.4-0.3-0.2
								c-0.3,0.7-0.6,1.4-0.9,2c-0.3,0.6-0.7,1.1-1,1.3c-0.3,0.2-0.7,0.3-1.3,0c-0.5-0.2-1.1-0.6-1.6-1l0.3,0
								c-0.5-0.2-1-0.2-1.6-0.7c0.1,0,0.3,0,0.1-0.2c-0.3-0.1-1.5-0.5-2.2-0.9l0.7,0.1c-2.6-1.6-4.6-1.7-7.2-2.1
								c0-0.2-0.6-0.6-1.4-0.7c-0.8-0.2-1.9-0.1-2.6,0l0-0.1c-0.5,0.1-1,0.3-1.5,0.5c-0.4,0.2-0.9,0.4-1.3,0.7
								c-0.4,0.3-0.7,0.6-1.1,0.9c-0.3,0.3-0.6,0.7-0.9,1c-1,1.4-1.6,2.9-2.1,4.5c-1.4,1.7-2.2,6.7-4.1,8.7c0.3-0.3,0.3,0.3,0,0.7
								c-0.2,0.2-0.5,0.6-0.7,0.9c-0.3,0.3-0.5,0.4-0.6,0.2l0.2-0.1c-0.3-0.1-0.7,0.2-1.1,0.4c-0.4,0.2-0.9,0.4-1.4,0.5l0,0.7
								c-1.4-0.2-3.2-0.2-4.9-0.7c-1.6-0.4-3.1-1.3-3.5-2.1c-0.7-0.3-1.4-0.9-2.1-1.2l0.3-0.2c-1.5-1.4-2.2-2.2-4.2-3.9l0.6,0.2
								c-1.1-1-2.1-0.6-3.2-1.4l0-0.7c-1.1-0.8-2.3-1.6-3.7-2.2c-1.4-0.6-3-0.8-4.4-0.4c0-0.1,0.1-0.3,0.6-0.3
								c-0.7,0-2.1,0.1-3.3,0.6c-1.1,0.5-1.8,1.2-1.4,1.3c-0.1-0.2-0.9,0.3-1.5,1.2c-0.6,0.9-0.9,2.1-1,2.9l-0.3-0.3
								c0.1,1.4,0.2,1.5,0.2,3.1c-0.1,0.4-0.3,0.3-0.2-0.2c-0.3,1.3,0.3,1-0.1,2.5l-0.1-0.6c-0.2,1.3-0.1,1.2,0,1.9
								c0,0.8-0.8,2.3-1.1,2.4c0.1,0.2,0.1,1-0.4,1.6c-0.1,0-0.1-0.2,0-0.4c-0.6,0.9-1,1.5-1.4,2.1c-0.4,0.6-0.8,1-1.5,1.3
								c-0.1-0.1-0.2-0.1-0.3,0c1.4-0.8,2.1-1.9,2.1-1.8c-0.2-0.2-1.1,0.7-0.8-0.3c-0.2,0.4-0.5,1-1,1.5c-0.5,0.5-1.1,1-1.7,1.1
								c-0.1,0-0.1,0-0.2,0l0.1-0.1c-0.3,0.1-0.5,0.2-0.7,0.3c-0.4,0-0.6,0-0.9,0.1c-0.1-0.1-0.4-0.1-0.8-0.2
								c-0.4,0-0.8-0.1-1.1-0.2c0,0.3-0.8,0-0.2,0.5c-0.1,0,0.1,0,0.5,0.1c0.1,0,0.2,0,0.3,0c0,0,0,0,0,0c0.4,0.1,0.9,0.1,1.5,0
								c-0.5,0.2-1,0.4-1.7,0.1c-0.4,0.2-0.8,0.3-1,0.3c-0.8-0.7-2-1.9-2.1-2.3c-1.7-1-3.9-3.3-5.5-3.6C34,60.2,34,60,33.9,59.7
								c0.4,0.2,0.7,0.4,0.9,0.5c-0.6-0.3-1.4-0.9-2.2-1.2c-0.8-0.3-1.6-0.5-1.8-0.3c-0.8-0.3-0.6-0.3-0.4-0.4
								c0.2,0,0.3-0.1-0.9-0.2l0.3-0.1c-1.2-0.3-2.3-0.2-3.3,0.1c-1,0.3-1.8,0.8-2.6,1.4c-1.5,1.2-2.8,2.6-4.5,4.3
								c0.2-0.2,0.4-0.4,0.5-0.4c-1.8,2.1-2.9,4.9-3.5,7.7c-0.6,2.8-0.7,5.6-1,8.3c-0.1,1.5,0.2,1.7,0.5,2.6l-0.3,0.4
								c0,0,0.1,0.4,0.3,0.8c0.1,0.4,0.3,0.8,0.3,0.8c0.6,2.2-0.4,4,0.8,6.7l0.2-0.4c0.2,1,0.9,3.1,0.6,3c0.1,0.1,0.3,0.3,0.3,0.7
								L17.8,94c0,0,0.3,0.6,0.5,1.2c0.3,0.6,0.5,1.1,0.5,1.1c0.5,1.9-0.8,0,0.1,2.7c0.5,1,1.7,2.6,1.6,2.2c-0.2-0.4-0.3-1-0.2-1.1
								l0.5,0.8c0.6-0.1,1.4,0.4,0.9-1.9c0,0-0.2-0.3-0.5-0.7c-0.2-0.3-0.4-0.7-0.4-0.7l0.1-0.6l0.5,1.3c0-0.8-0.4-1.2-0.7-1.6
								c0.1-0.2,0.1-0.4,0.1-0.7l-1-1.3c0.2-0.2,0.6,0.5,0.4-0.5c-0.5-0.6-0.3,0.8-0.8-0.3c0-0.8,0.3-0.6-0.2-1.5
								c0.1-0.2,0.2,0,0.4,0.3c-0.4-0.7-0.6-2-1-2.4c0.1-0.8-0.6-2.6-0.1-2.7c-0.2-0.2-0.7-1.3-0.8-2c0.8,1.2-0.3-2.7,0.4-2.5
								c-0.7-0.9-0.5-3.5-0.8-5.3c0,0.1,0.1,0.3,0.1,0.4c0.1-1,0.3-1.3,0.4-1.9c-0.5-0.2-0.5-1.7-0.6-2.5c0.6-1.1,0.4,0.8,0.9,0.5
								c-0.4,0-0.1-2.1-0.4-1.7c0.5-0.8,0.3-0.7,0.8-1.1c-0.5-0.3,0.1-0.8,0-1.6c0.7-1.1,0.6-0.1,0.9-1.5
								C20,67.9,19.7,69.1,19.7,69.1z M47.3,67.3L47.3,67.3c-0.3,0.2-0.6,0.2-0.8,0.3C46.7,67.5,46.9,67.5,47.3,67.3z M50.1,65.5
								c-0.3,0.3-0.7,0.6-1.1,0.9c-0.2,0-0.1-0.2,0.1-0.4C49,66.1,49.6,65.7,50.1,65.5z M43.8,65.6c0.4,0,0.5,0,0.6,0.1
								c-0.2,0-0.4,0-0.7,0c0,0,0,0,0,0C43.6,65.7,43.7,65.6,43.8,65.6z"/>
							<path fill="#3C3C3C" d="M43,65.9c-0.1,0-0.1,0-0.2,0c0.1,0,0.1,0.1,0.2,0.1c0.1,0,0.1-0.1,0.2-0.1C43.2,66,43.1,65.9,43,65.9
								z"/>
							<path fill="#3C3C3C" d="M63.7,110.2L63.7,110.2C63.7,110.2,63.7,110.2,63.7,110.2C63.7,110.2,63.7,110.2,63.7,110.2z"/>
							<polygon fill="#3C3C3C" points="74.9,58.5 75,58.4 74.7,58.3 							"/>
							<path fill="#3C3C3C" d="M48.3,113.4c0,0-0.1,0-0.2,0.1C48.1,113.5,48.2,113.5,48.3,113.4z"/>
							<path fill="#3C3C3C" d="M43.9,118.6c0,0-0.9,0.3-0.9,0.3C43.4,118.8,43.7,118.7,43.9,118.6z"/>
							<path fill="#3C3C3C" d="M39,119.6c-0.1,0.1-0.1,0.1-0.1,0.1l0,0L39,119.6z"/>
							<path fill="#3C3C3C" d="M100.1,89.4c0.1,0,0.2,0,0.2,0C100.9,89.4,100.5,89.4,100.1,89.4z"/>
							<path fill="#3C3C3C" d="M93.1,111.6c0-0.2,0-0.5,0-0.7C93,111.2,92.9,111.5,93.1,111.6z"/>
							<path fill="#3C3C3C" d="M111.4,75.9L111.4,75.9c0-0.1,0-0.1-0.1-0.2L111.4,75.9z"/>
							<path fill="#3C3C3C" d="M93.1,109.9c0,0.4,0,0.7,0,1C93.2,110.6,93.2,110.2,93.1,109.9z"/>
							<path fill="#3C3C3C" d="M23.9,104.1l-0.1-0.2c0,0,0,0-0.1,0L23.9,104.1z"/>
							<path fill="#3C3C3C" d="M23.7,103.9l-0.2-0.3C23.6,103.7,23.7,103.8,23.7,103.9z"/>
							<path fill="#3C3C3C" d="M23.2,103.1l0.3,0.5C23.5,103.4,23.3,103.2,23.2,103.1z"/>
							<path fill="#3C3C3C" d="M27,110.6l0.1,0C27.1,110.6,27,110.6,27,110.6z"/>
							<path fill="#3C3C3C" d="M28.2,112.4c-0.3-0.4-0.5-1.2-0.9-1.8l-0.1,0C27.4,110.8,27.7,112.1,28.2,112.4z"/>
							<path fill="#3C3C3C" d="M33.8,119.7c0,0-0.4-0.2-0.8-0.5c-0.4-0.3-0.8-0.6-0.8-0.6c0.2,0.3,0.5,0.7-0.3,0.2
								c0.9,0.9,0.9,0.7,0.8,0.5C32.7,119.3,32.7,119.1,33.8,119.7z"/>
							<path fill="#3C3C3C" d="M39.6,121.3c-1.1,0.1,0,0.2,0,0.3C40.3,121.4,40.4,121.3,39.6,121.3z"/>
							<path fill="#3C3C3C" d="M75.7,115.2l-0.2,0.3C76.2,115.7,75.5,115.3,75.7,115.2z"/>
							<path fill="#3C3C3C" d="M83.7,115.3l-0.7-0.2l-0.4,0.3c0,0,0.3,0,0.5,0C83.5,115.3,83.7,115.3,83.7,115.3z"/>
							<path fill="#3C3C3C" d="M88.7,116.9l-0.3,0.1c0,0,0.3-0.1,0.7-0.3c0.3-0.1,0.7-0.3,0.7-0.3L88.7,116.9z"/>
							<path fill="#3C3C3C" d="M110.2,67.4l-0.3,0.3C110.2,68.2,110.6,68.1,110.2,67.4z"/>
							<path fill="#3C3C3C" d="M122.4,44c0.2-0.3,0.4-1.2,0.3-1.7C122.6,42.9,122.4,43.6,122.4,44z"/>
							<path fill="#3C3C3C" d="M83.2,58.1l0.5-0.2C83.7,58,83.5,58,83.2,58.1c-0.2,0-0.5,0-0.5,0L83.2,58.1z"/>
						</g>
					</g>
				</g>
			</g>
		</g>
	</g>
	<g>
		<g>
			<g>
				<g>
					<g>
						<path fill="#3C3C3C" d="M103.3,69.6c-0.1,0-0.3,0.2-0.1,0.3l0.4-0.1L103.3,69.6z"/>
						<path fill="#3C3C3C" d="M103.5,71.2c0.3,0.1,0.7,0.2,1-0.1c-0.5-0.1-0.3-0.2-0.9-0.2c-0.1-0.1-0.1-0.4,0.1-0.4
							c-0.1,0-0.1-0.3-0.4-0.3c-0.1,0.4,0.1,0.6,0.4,0.8C103.7,71.2,103.5,71.1,103.5,71.2z"/>
						<path fill="#3C3C3C" d="M91.8,74.6l0.1,0.1C91.9,74.7,91.8,74.7,91.8,74.6z"/>
						<path fill="#3C3C3C" d="M80.2,77.9c0.1-0.1,0-0.1,0-0.1C80.2,77.9,80.2,77.9,80.2,77.9z"/>
						<path fill="#3C3C3C" d="M81.7,79.8c0,0-0.1-0.1-0.1-0.1C81.6,79.8,81.7,79.8,81.7,79.8z"/>
						<path fill="#3C3C3C" d="M91.8,74.6l-0.3-0.2C91.5,74.6,91.7,74.6,91.8,74.6z"/>
						<path fill="#3C3C3C" d="M105,73.6c0-0.1-0.1-0.1-0.1-0.2C104.9,73.5,104.9,73.5,105,73.6C104.9,73.6,104.9,73.6,105,73.6z"/>
						<path fill="#3C3C3C" d="M96.6,76.4L96.6,76.4c0.1,0,0.2,0,0.2-0.1L96.6,76.4z"/>
						<path fill="#3C3C3C" d="M99.6,77.1c-0.1,0-0.1,0.3-0.1,0.5c0-0.1,0.1-0.2,0.1-0.2C99.6,77.3,99.6,77.2,99.6,77.1z"/>
						<path fill="#3C3C3C" d="M103.5,74.3l0-0.1C103.5,74.3,103.5,74.3,103.5,74.3z"/>
						<path fill="#3C3C3C" d="M94.2,75c0,0,0-0.1,0-0.1C94.2,74.9,94.2,74.9,94.2,75z"/>
						<path fill="#3C3C3C" d="M39.4,84.9C39.4,84.9,39.5,84.9,39.4,84.9C39.4,84.9,39.4,84.9,39.4,84.9z"/>
						<path fill="#3C3C3C" d="M42,80.9L42,80.9c0.1,0.1,0.1,0.1,0.2,0.1L42,80.9z"/>
						<path fill="#3C3C3C" d="M84.4,82.5C84.4,82.5,84.4,82.5,84.4,82.5C84.3,82.5,84.4,82.5,84.4,82.5z"/>
						<path fill="#3C3C3C" d="M73.7,89.8c-0.1,0.5-0.6-0.3-0.7,0.3C73.1,90,73.7,90.3,73.7,89.8z"/>
						<path fill="#3C3C3C" d="M104.9,73.7c0,0.1,0,0.1,0,0.2C104.9,73.8,104.9,73.8,104.9,73.7z"/>
						<path fill="#3C3C3C" d="M73,90.1L73,90.1L73,90.1C73,90.1,73,90.1,73,90.1z"/>
						<path fill="#3C3C3C" d="M86.8,88.4c0.1,0,0.1,0,0.2-0.1C87,88.3,86.9,88.3,86.8,88.4z"/>
						<path fill="#3C3C3C" d="M86.1,83.4c0,0,0,0.1,0,0.1C86.1,83.5,86.1,83.4,86.1,83.4z"/>
						<path fill="#3C3C3C" d="M86.7,91.1c0,0.1-0.1,0.1-0.1,0.2c0,0,0,0,0.1,0C86.7,91.3,86.7,91.2,86.7,91.1z"/>
						<path fill="#3C3C3C" d="M85.3,93.6C85.3,93.6,85.3,93.6,85.3,93.6c0.1,0,0.1,0,0.1-0.1L85.3,93.6z"/>
						<path fill="#3C3C3C" d="M41.3,95.3c0-0.1,0.1-0.2,0.2-0.3C41.3,95.2,41,94.7,41.3,95.3z"/>
						<path fill="#3C3C3C" d="M104.8,73.6c0.1,0,0.1,0.1,0.1,0.1c0,0,0-0.1,0-0.1C104.8,73.6,104.8,73.6,104.8,73.6z"/>
						<path fill="#3C3C3C" d="M89.2,92.2l-0.3,0.5C89,92.6,89.1,92.4,89.2,92.2z"/>
						<path fill="#3C3C3C" d="M58,89.2l0,0.1C58.1,89.3,58,89.3,58,89.2z"/>
						<path fill="#3C3C3C" d="M88.1,94.4c-0.2,0-0.3,0.1-0.4,0.1c0,0,0,0.1,0,0.1L88.1,94.4z"/>
						<path fill="#3C3C3C" d="M41.5,95L41.5,95L41.5,95z"/>
						<path fill="#3C3C3C" d="M39.3,91.8c0.1,0.6,0.5,0.1,0.8,0.2c0.3,0.6-0.2,0.4-0.4,0.7c0.2,0.4,0.7,0.5,0.8,0.8
							c-0.1,0-0.1,0.1-0.2,0.1c0.5,0.3,0.5,1.2,1.2,1.4c0,0.1,0,0.1-0.1,0.1c0.2-0.2,0.3-0.3,0.5-0.4c0.1,0.2,0.5,0.2,0.3,0.4
							c-0.1-0.1-0.2-0.1-0.3-0.1l0.2,0.1c-0.2,0.4-0.3-0.2-0.6,0c0.4,0.4,1,0.6,1.1,1c-0.3,0.3-0.6-0.6-0.6,0l-0.2-0.6
							c-0.3,0.7-0.2-0.3-0.5,0.4c0.4,0.7,0.7,0.6,1.1,1.3c0.3,0,0.2-0.3,0.5-0.3c1,0.5-0.1,1.4,0.9,1.5c0.4-0.1,0.7-0.4,1,0.1
							l-0.4,0.3c0.6,0.5,0.7-0.3,1.2,0.4c-0.2,0.1-0.6-0.2-0.5-0.1c0.3,0.6,0.5,0,0.8,0.1l-0.1,0.4c0.8,0.3,1.8,0.3,2.7,0.4
							c-0.1,0.1-0.2,0.2,0,0.4c1.2,0,2.5,0.1,3.7,0l0.3-0.5c0.1,0,0.2,0.1,0.1,0.2c0.5,0-0.1-0.2,0.1-0.4c0.2-0.1,0.4,0.1,0.3,0.2
							c0.7-0.6,1.6-1.5,2.5-1.9l0,0.2c0.6-0.4,0-1,0.6-1.2l0,0.1c0.5-0.5,0.8-1.2,1.1-1.8c0.2-0.7,0.4-1.3,0.7-1.7
							c-0.5-0.2,0.3-1.3-0.4-1.4c0.4-0.7,0.5-0.5,0.7-1.4c0-0.2-0.4-0.4-0.5-0.7l0.4,0l-0.4-0.4l0.5-0.2L58,89.3
							c0,0.1-0.2,0.2-0.3,0.2c-0.1-0.4,0.4-0.9,0.6-0.9c0,0-0.1-0.9,0-0.9c0.1,0.1,0.1,0.2,0.2,0.4c-0.2-0.5,0.4,0.1,0.2-0.4
							c-0.1,0-0.2-0.1-0.2-0.2c0.3-0.1,0.5-0.4,0.7-0.7l0.2,0.2c0.4-0.4,0.8-1,1.5-1.3c-0.3,0-0.5-0.4-0.3-0.5l0.3,0.3
							c0-0.3-0.3,0-0.1-0.4c0.3-0.1,0.4,0.3,0.3,0.5l0.2-0.3c0.1,0.1,0,0.2,0.1,0.3c0-0.3,0.6,0.2,0.7-0.3l0,0.1
							c0.7-0.2,1-0.3,1.5-0.4c0-0.3,0.2-0.3,0.4-0.5c0.5,0.1,0.9,0.5,1.4,0.6c0.4,0,0.2-0.2,0.4-0.4c-0.1,0.3,0.4,0.5,0.1,0.6
							c0.6,0.2,0.8,0.3,1.7,0.5c0-0.2-0.1-0.3,0-0.3c0.2,0.1,0.2,0.3,0.1,0.4l-0.1,0c0.5,0.1,0.9,0.7,1.1,1.2c0.2,0.5,0.4,1,0.9,1.1
							l-0.1,0c0,0,0.2,0.1,0.4,0.2c0.2,0.1,0.4,0.3,0.4,0.3c0.2,0.4-0.3-0.1-0.3,0.3c0.9,0.5,0.7,1.3,1.4,1.8c-0.5,1,1.1,2,1.1,3
							l0.2-0.2c0.3,0.1,0,0.3,0.1,0.5c0.1-0.1,0-0.3,0.2-0.3c0.7,0.8,1.2,1.7,2,2.6c0.8,0.9,1.8,1.7,3.1,2.1c0.9,0.2,0.7-1,1.7-0.4
							l-0.3,0.4c0.9-0.2,1.8-0.2,2.6-0.4c0.8-0.2,1.7-0.4,2.3-1c0,0.1,0,0.2-0.1,0.3c0.5,0.1,1.1-0.6,1-0.8c0.2-0.1,0.2,0.1,0.4,0.2
							c0.4-0.1,0.5-0.8,0.8-0.7c0.1,0,0,0.1,0,0.2c0.1-0.2,0.8-0.7,0.4-0.8c0.3-0.2,0.4-0.4,0.6-0.6c0.1-0.2,0.3-0.5,0.5-0.6
							c-0.1-0.4,0.7-0.8,0.3-1.1c0.2,0.2,0.5,0,0.6-0.3c0.1-0.3,0.2-0.7,0.2-0.9c0.1,0.2,0.3-0.2,0.4,0c0.1-0.4,0.2-0.8-0.1-0.8
							c0.5-0.3,0.4-0.7,0.4-1.1c0-0.4-0.1-0.7,0.4-0.8c-0.1-1.3-0.4-2.5-0.7-3.5c0.3,0,0.3,0.3,0.4,0.6c0,0.3,0.1,0.6,0.4,0.5
							c-0.3-1.1-0.9-1.6-1.1-2.6c0-0.3,0.3,0.1,0.4,0.1c-0.2-0.5-0.5-1-0.7-1.4c-0.3-0.4-0.5-0.9-0.9-1.2c0,0,0.2,0,0.2,0.1
							c-0.1-0.1-0.2-0.4-0.4-0.2l0.2,0.1c-0.1,0.4-1-0.1-1.2,0c0.7-0.3-0.5-0.8,0.5-1c-0.1-0.1-0.3-0.1-0.4,0.1
							c-0.1-0.2-0.1-0.3,0.2-0.3c-0.6-0.4-0.6,0-1-0.4c0.1-0.1,0.2,0,0.3-0.1c-0.4,0-0.7,0-1-0.4c0.1,0,0.1-0.1,0.2-0.1
							c-0.6-0.5-1.6-0.4-1.8-0.9c0.6-0.2,0-0.2,0.5-0.4c0,0-0.3-0.1-0.3-0.1c0,0-0.2,0.1-0.2,0.1c-0.1-0.1-0.8-0.2-0.7-0.4
							c0,0,0.1,0,0.2,0.1c0.1,0,0.2,0,0.2,0L82.9,78c0,0,0-0.1,0-0.1c-0.1,0-0.3,0.1-0.3,0.1l0,0c-0.1,0-0.1,0-0.2,0
							c-0.3-0.1-0.8,0-0.3-0.2c0,0.1-0.1-0.2,0.9-0.2v0c0-0.1-0.2-0.3,0.1-0.4c0.2,0.1,0.4,0.3,0.5,0.4c-0.1-0.1-0.1-0.2,0.1-0.3
							c0.1-0.1,0.2-0.2,0.2-0.4c0,0.1,0.1,0.3,0.1,0.4c0,0,0-0.3,0-0.3c0.2,0,0.2,0,0.3,0.2c0.5-0.2-0.4-0.5,0.3-0.5
							c0,0,0,0.1-0.1,0.2c0.6-0.1,1.1-0.6,1.7-0.7c0.3,0.4-0.5,0.2-0.2,0.6c0.7-0.3,1.6-0.9,2.4-0.9l-0.2,0c0.1-0.7,0.6,0.3,1,0
							c-0.1,0.1-0.1,0.4-0.1,0.3c0.5,0.1,1.1-0.1,2-0.2l-0.1,0.1c0.3,0.2,0.8,0.2,1.1,0.4c0.1-0.1,0.3,0,0.3-0.3
							c0.4,0.6,0.9,0.7,1.4,0.8c0.5,0.1,1,0.2,1.3,0.8c-0.1-0.1-0.3,0-0.2,0l0.8,0.3c0.1-0.3,0-0.2-0.1-0.5c0.2-0.1,0.5-0.1,0.7,0
							c-0.4,0-0.2,0.4-0.1,0.6c0-0.1,0.1-0.1,0.1-0.2c0.2,0.7,0.3-0.5,0.7,0.1L97.1,78c0.3,0,0.5-0.1,0.8,0c0,0.3-0.3,0.1-0.4,0.3
							c0.4,0.1,0.9-0.4,1.1,0c-0.2,0.1-0.4,0-0.6,0.1c0.3,0.5,0.4,0.4,0.7,0.5l0,0c0,0,0.2,0.1,0.3,0.1c0.2,0,0.4,0.1,0.4,0.1
							l-0.2-0.1c0.3-0.4,0.5-0.5,0.7-0.5c0.3,0,0.6-0.1,0.8-0.4c-0.4,0.7,0,0.3,0,0.7c0.2,0,0.5,0.1,0.5,0.2c0.2-0.4,0.6,0,0.9-0.6
							c0.1,0.1,0.3-0.2,0.4,0.1c0.3-0.3-0.2-0.1-0.2-0.3c0.2-0.3,0.5-0.5,0.9-0.7c0.4-0.2,0.8-0.5,0.8-1.1c0.2-0.8-0.1-1.1-0.1-1.8
							c0.2-0.2,0.4,0.3,0.4,0.3c0.3-0.3,0.3-0.6,0.2-1c0.1,0.1,0.2,0,0.3-0.1c0-0.3-0.4-0.2-0.3-0.6c0.1,0.1,0.4,0.1,0.5,0.3
							c-0.1-0.4-0.4-0.7-0.5-1c0.2-0.1,0.3,0.2,0.5,0.3c-0.1-0.4-0.4-1.1-0.8-1.1c0,0,0,0.3,0,0.3c-0.1-0.1,0.2-0.2,0.3-0.1
							c0.4,0.3,0,0.5-0.1,0.6l-0.1-0.2c-0.3,0.2-0.2,0.4-0.1,0.7c0.1,0.3,0.3,0.6,0.3,0.8c0,0-0.1-0.1-0.3-0.1
							c-0.1,0-0.3-0.1-0.3-0.1c0,0,0.4,0.5,0.4,0.5c-0.1,0.1-0.4,0.1-0.5-0.1c-0.3,0.3,0.1,0.3-0.2,0.5c0,0-0.1,0-0.1,0l0.1,0.3
							c-0.1-0.1-0.4,0-0.2-0.2c-0.4,0.4,0.1,1-0.4,1l0-0.1c-0.2,0.7,0.3,0.2,0.3,1c0,0-1-0.3-1-0.3l0.2,0.3c-0.1,0.1-0.2,0.1-0.3,0
							c0,0.4,0.1,0.1,0.2,0.4c-0.5,0-0.8,0.8-1.2,0.3c0,0.3,0.4,0,0.2,0.4c-0.4-0.5-0.4,0.3-0.8,0.2c0-0.3,0.3-0.3-0.1-0.4
							c0,0.6-0.6,0.1-0.9,0.2c0,0.4-0.6,0.3-1.1,0.3c0-0.1-0.8-0.4-1.1-0.8l0-0.1c-0.3,0.4-0.7,0.1-1,0c0.1-0.2,0.2-0.3,0.5-0.3
							l-0.3-0.2c-0.1,0.1-0.3,0.1-0.5,0l0.2-0.2C96,76,95.4,76,95,75.6c-0.2,0.3,0,1-0.6,0.9c0.1-0.2,0.2-0.4,0.3-0.4
							c-0.1,0-0.2,0-0.3-0.1l0.4-0.1c-0.2-0.2-0.2,0.1-0.4,0c0.1-0.2-0.1-0.2,0-0.4c0.1,0,0.1,0.2,0.3,0.1c-0.2-0.1-0.4-0.4-0.5-0.6
							c0,0.1-0.1,0.3-0.3,0.3c-0.5-0.2,0-0.3-0.3-0.5c-0.2,0.1-0.4-0.2-0.5,0.2c-0.1,0-0.1-0.2-0.1-0.3c-0.3,0.1-1.2-0.3-1,0.2
							l0.1,0.2c0,0,0,0.1,0,0.1h0h0c-0.8,0-1.6-0.6-2.5-0.5l0-0.2c-0.5,0.1-1.1,0.1-1.4,0.4c-0.1,0-0.4-0.2-0.3-0.3
							c-0.4,0.1-0.4,0.3-0.9,0.2c0.3-0.3-0.2-0.2,0.4-0.2c-0.5,0-0.7-0.2-1.1,0.3c0.1-0.3-0.5-0.3-0.7-0.1l0.4,0.1
							c-0.2,0.1-0.5,0.2-0.7,0.2l0-0.4c-0.6-0.1-0.9,0.3-1.3,0.6c-0.2,0.2-0.3,0.3-0.5,0.4c-0.2,0.1-0.5,0.2-0.8,0.2
							c-0.1,0.4,0.8-0.2,0.7,0.2c-0.3,0.1-0.6,0.2-1,0.2c-0.3,0-0.7,0.1-0.8,0.2C81,76.4,81,76.6,81,76.8c0,0.2,0.1,0.4-0.4,0.6
							c0.3-0.1,0.8,0,0.6,0.4c-0.1,0.1-0.3,0.1-0.4,0.2c-0.1,0.1-0.6,0.2-0.9,0l0,0c0-0.1,0.2-0.1,0.3-0.1c0.1-0.1,0.2-0.3-0.2-0.2
							l0.1,0.1c-0.1,0.1-0.3,0.1-0.4,0.2c0.2,0.2,0.4,0.5,0.1,0.5c0.6,0.3,0.5,0.1,0.3-0.1c0.3,0.6,0.9,0.9,1.5,1.5
							c0-0.1,0-0.3,0.1-0.2c0.8,0.9,0.7,0.2,1.3,0.6c0.1,0.4-0.4,0.4,0.2,0.5C83.4,81,83,81,82.9,81c0.6,0.1,0.6,0.7,0.8,0.9
							l-0.3-0.1c0.2,0,0.3,0.1,0.4,0.2l0.1-0.3c0.1,0.1,0.2,0.2,0.1,0.3c0.2,0,0.2-0.4,0.6-0.4c0.1,0.2,0.6,0.3,0.3,0.6
							c-0.4-0.5-0.2,0.3-0.6,0c0.1,0,0.2,0.1,0.3,0.2c0,0-0.1,0-0.1,0c0.2,0.6,0.5-0.1,0.9,0.3c-0.2,0.1-0.2,0.4-0.1,0.4
							c-0.1-0.2,0.2-0.3,0.5-0.3c0.1,0.4,0.3,0.2,0.4,0.4L86,83.2c0.2-0.1,0.3,0.1,0.5,0.3c-0.1,0.1-0.2-0.2-0.2,0
							c0.5,0.1,0,0.8,0.4,1c-0.1,0.2-0.4,0.2-0.4,0.4c0.4,0.3-0.1,0.5,0.2,0.9c0.2-0.2,0.2-0.2,0.5,0c0,0-0.1-0.2-0.2-0.3
							c-0.1-0.2-0.2-0.3-0.2-0.3c0,0,0.1,0.1,0.3,0.2c0.1,0.1,0.3,0.2,0.3,0.2c-0.1-0.2-0.3-0.4-0.3-0.6c0.3,0.1,0.2,0.1,0.4,0
							c-0.3,0.5,0.4,0.6,0.3,1.1L86.8,86c-0.1,0.3,0,0.5,0.2,0.8c0.1,0.3,0.3,0.5,0.2,0.9l0.1-0.2c0.3,0.1,0.1,0.5,0.2,0.7
							c-0.2,0-0.3,0.1-0.5,0.2c0.2,0-0.1,0.5,0.4,0.7L87,89.3c-0.2,0.5,0.5,0.8,0.3,1.4c-0.2-0.2-0.4,0-0.5-0.5c0,0.2-0.2,0.3,0,0.4
							c-0.2,0.1,0.1,0.6-0.1,0.7c0.1,0.1,0.3,0.2,0.2,0.4c-0.1,0-0.1,0-0.1,0c0.1,0,0,0.4,0.3,0.3c-0.5,0.1-0.7,0.5-0.9,0.9
							c-0.2,0.4-0.4,0.7-0.8,0.7c-0.2,0.4-0.5,0.8-0.8,1c0-0.1-0.1-0.1,0-0.1c-0.5,0.2,0.2,0.8-0.5,0.9c-0.5-0.2,0.2-0.4-0.1-0.4
							c-0.5-0.6-0.5,0.5-1.1,0.2l0.1-0.1c-0.4-0.1-0.6,0.6-1.1,0.7c0,0,0-0.1,0-0.1c-0.2,0.5-0.9,0.8-1.4,0.9
							c0.1-0.3,0.2-0.2,0.1-0.5c-0.2,0.1,0.1,0.5-0.4,0.6c-0.2-0.2-0.5-0.3-0.5-0.7l0.4,0c-0.2-0.4-0.5,0-0.7-0.1l0-0.2
							c-0.6,0-0.7,0.4-1.3,0.2l0,0.2c-0.5,0.3-0.2-0.4-0.7-0.2l0.1-0.5c-0.2,0-1,0-1.4-0.3c0.4-0.1,0.9,0.1,1.3,0
							c-0.2-0.1-0.6-0.4-0.9-0.3c0.1,0,0.3,0,0.3,0.1c-0.5,0.1-0.9,0-1.2-0.4c0.4-0.3,0.2-0.6,0-0.9c-0.2-0.3-0.5-0.7-0.3-1
							c-0.8-0.5-0.8-1.6-1.3-2.5c-0.5,0.7-0.2-0.3-0.8,0.1C73,90.2,73,90.2,73,90.1l0-0.9c0.1-0.3,0.3,0.1,0.4,0
							c-0.2-0.5,0.2-0.4,0.1-0.8c-0.2,0.2-0.4,0-0.5-0.3L73,88.7c-0.8-0.5,0.2-0.9-0.6-1.5l0.3,0.1c-0.3-0.3-1-1.4-1.8-1.3
							c0-0.1,0.1-0.3,0.3-0.2c-0.7-0.9-2.2-1.2-2.7-1.9l0.2-0.1c-0.2-0.1-0.5,0.1-0.6-0.2c0-0.1,0.2-0.1,0.1-0.2
							c-0.1,0-0.6,0-0.8-0.2l0.3-0.1c-0.9-0.7-1.8-0.2-2.6-0.3c0.1-0.5-0.7-0.9-1.2-1l0-0.1c-1.4-0.1-2.3,0.6-3.3,1.1
							c-0.4-0.2-1.1,0.1-1.7,0.4c-0.6,0.3-1.2,0.8-1.8,1.2c0.2-0.1,0.3,0.3,0.2,0.5c-0.3,0.1-0.2,0.8-0.6,0.5l0.1-0.1
							c-0.5-0.1-0.8,0.5-1,1l0.5,0.3c-0.7,0.4-0.9,1.2-0.9,1.9c0,0.7,0.1,1.3-0.3,1.6c0.2,0.3,0.1,0.6,0.3,0.8l-0.3,0
							c-0.1,0.7-0.1,1-0.1,1.8l-0.2-0.2c0,0.4,1,0.6,0.9,1l-0.5,0c-0.1,0.3-0.2,0.6-0.4,0.9c-0.1,0.3-0.3,0.5-0.2,0.9
							c-0.1,0-0.2-0.1-0.1-0.2c-0.2,0.2-0.9,0.6-0.4,1c-0.3-0.3-0.5,0.4-0.7,0.8l-0.1-0.3c0,0.5,0,0.7-0.3,1c-0.1,0-0.2-0.2,0-0.2
							c-0.4,0-0.1,0.4-0.6,0.4l0.1-0.3c-0.4,0.1-0.3,0.2-0.4,0.5c-0.2,0.2-0.7,0.1-0.8-0.2c0,0.2-0.2,0.5-0.4,0.4
							c0-0.1,0-0.2,0.1-0.2c-0.3-0.1-0.5,0-0.7,0.1c-0.2,0.1-0.4,0.2-0.6,0c0-0.1,0-0.2-0.1-0.2c0.5,0.1,0.9,0,0.8,0.1
							c0-0.3-0.4-0.4-0.1-0.8c-0.3,0.3-0.8,0.7-1.2,0.5c0,0,0-0.1,0-0.1l0,0c-0.1,0-0.2,0-0.2,0c-0.1-0.1-0.2-0.1-0.3-0.2
							c0-0.2-0.4-0.2-0.5-0.3c-0.1,0.3-0.3,0.2-0.2,0.5c0,0,0.1,0,0.2,0c0,0,0.1,0,0.1,0l0,0c0.1,0,0.3,0.1,0.5,0.1
							c-0.2,0.1-0.4,0.2-0.5,0c-0.2,0.2-0.4,0.3-0.5,0.4c-0.1-0.6-0.4-1-0.4-1.3c-0.6-0.1-1.2-0.6-1.9-0.4c-0.2-0.1,0-0.3,0-0.4
							c0.1,0,0.2,0.1,0.3,0.1c-0.4-0.1-0.8-0.7-1.2-0.5c-0.1-0.5,0.5-0.1,0-0.5l0.2,0c-0.1-0.7-0.6-0.9-1.1-1.2
							c-0.5-0.3-1-0.8-0.8-1.6c0,0.1,0,0.2-0.1,0.2c-0.1-0.8-0.4-1.6-0.6-2.4c-0.2-0.8-0.3-1.7,0-2.5c0.1-0.4-0.2-0.5-0.4-0.8
							l0.4-0.1l-0.4-0.5c-0.3-0.7,1-1.1,0.6-2l-0.3,0.1c0.1-0.3,0-1,0.3-0.9c0,0-0.2-0.2-0.1-0.2l0.2,0l-0.1-0.8
							c0.3-0.5,0.7,0.3,1-0.6c0-0.3-0.3-1-0.4-1c0,0.1-0.2,0.3-0.4,0.2l0-0.3c-0.5-0.2-1-0.6-1.6,0l0.2,0.6l-0.3,0.1l0.1-0.4
							c-0.3,0.2-0.1,0.4,0,0.6c-0.2,0-0.3,0.1-0.3,0.1l0.4,0.6c-0.2,0-0.4-0.3-0.6,0c0.2,0.3,0.5-0.1,0.6,0.3
							c-0.3,0.2-0.5,0.1-0.3,0.4c-0.2,0-0.2-0.1-0.3-0.2c0.1,0.3-0.1,0.7,0.2,0.9c-0.4,0.2-0.1,0.9-0.6,0.8c0.1,0.1,0.4,0.5,0.4,0.8
							c-0.6-0.5-0.1,0.9-0.8,0.8c0.5,0.4,0.2,1.3,0.5,1.9c0,0-0.1-0.1-0.1-0.2c0,0.3-0.2,0.5-0.3,0.7c0.5,0,0.6,0.5,0.9,0.8
							c-0.4,0.5-0.6-0.2-1,0c0.4-0.1,0.5,0.7,0.8,0.5c-0.2,0.4-0.1,0.3-0.5,0.5c0.6,0,0.2,0.3,0.6,0.5c-0.2,0.5-0.5,0.2-0.2,0.7
							C39.7,92.2,39.3,91.8,39.3,91.8z M48.5,99.9L48.5,99.9c-0.1,0-0.2,0-0.3,0C48.3,99.9,48.4,99.9,48.5,99.9z M49.6,100
							c-0.1,0-0.3,0-0.5,0c0-0.1,0-0.2,0.1-0.2C49.2,99.8,49.4,99.9,49.6,100z M48.1,97.4c0.1,0,0.1,0.1,0.1,0.1c-0.1,0-0.1,0-0.2,0
							l0,0C48,97.5,48,97.4,48.1,97.4z"/>
						<path fill="#3C3C3C" d="M47.7,97.8C47.7,97.8,47.7,97.8,47.7,97.8c0,0,0,0.1,0,0.1L47.7,97.8L47.7,97.8z"/>
						<path fill="#3C3C3C" d="M91.9,74.7L91.9,74.7C91.9,74.7,91.9,74.7,91.9,74.7C91.9,74.7,91.9,74.7,91.9,74.7z"/>
						<polygon fill="#3C3C3C" points="58.1,90.2 58,90.2 58.1,90.2 						"/>
						<path fill="#3C3C3C" d="M96.3,78c0,0,0,0.1,0,0.1C96.3,78,96.3,78,96.3,78z"/>
						<path fill="#3C3C3C" d="M98.6,78.8c0,0,0.4,0.2,0.4,0.1C98.8,78.9,98.7,78.8,98.6,78.8z"/>
						<path fill="#3C3C3C" d="M100.7,78.8c0-0.1,0-0.1,0-0.2l0,0L100.7,78.8z"/>
						<path fill="#3C3C3C" d="M87.9,82C87.9,82,87.9,82,87.9,82C88.1,82.2,88,82.1,87.9,82z"/>
						<path fill="#3C3C3C" d="M82.8,77.5c0,0.1,0.1,0.1,0.1,0.2C83,77.6,83,77.6,82.8,77.5z"/>
						<path fill="#3C3C3C" d="M89.2,92.2L89.2,92.2C89.2,92.2,89.2,92.2,89.2,92.2L89.2,92.2z"/>
						<path fill="#3C3C3C" d="M82.7,77.8c0.2-0.1,0.2-0.1,0.2-0.2C82.8,77.7,82.6,77.8,82.7,77.8z"/>
						<path fill="#3C3C3C" d="M104.8,71.7l0-0.1C104.7,71.6,104.7,71.6,104.8,71.7L104.8,71.7z"/>
						<path fill="#3C3C3C" d="M104.7,71.6L104.7,71.6C104.6,71.6,104.6,71.6,104.7,71.6z"/>
						<path fill="#3C3C3C" d="M104.5,71.3l0.2,0.2C104.6,71.5,104.6,71.4,104.5,71.3z"/>
						<path fill="#3C3C3C" d="M104.7,74.5l0.1,0.1C104.8,74.5,104.8,74.5,104.7,74.5z"/>
						<path fill="#3C3C3C" d="M104.6,75.3c0.1-0.2,0.4-0.4,0.4-0.7l-0.1,0C105,74.7,104.4,75.1,104.6,75.3z"/>
						<path fill="#3C3C3C" d="M101.6,76.8c0,0,0.5-0.2,0.5-0.2c-0.2,0-0.4-0.1-0.2-0.3C101.1,76.3,102.2,76.4,101.6,76.8z"/>
						<path fill="#3C3C3C" d="M100.1,77.2c0.2-0.1,0-0.2,0-0.3C99.9,77.1,99.8,77.2,100.1,77.2z"/>
						<path fill="#3C3C3C" d="M87.6,74.3l0-0.3C87.4,74,87.6,74.1,87.6,74.3z"/>
						<polygon fill="#3C3C3C" points="85.6,76.4 85.8,76.5 85.8,76.2 						"/>
						<path fill="#3C3C3C" d="M83.3,75L83.3,75C83.4,74.9,83.3,74.9,83.3,75c-0.2,0.1-0.3,0.2-0.3,0.2c0,0,0.1-0.1,0.2-0.1
							C83.2,75,83.3,75,83.3,75z"/>
						<path fill="#3C3C3C" d="M85.4,93l0.3,0.2C85.7,93,85.4,92.8,85.4,93z"/>
						<path fill="#3C3C3C" d="M78.2,95.9c0-0.2-0.2-0.4-0.4-0.3C78,95.7,78.1,95.9,78.2,95.9z"/>
						<polygon fill="#3C3C3C" points="55.6,87.1 55.5,86.8 55.5,87.3 						"/>
					</g>
				</g>
			</g>
		</g>
	</g>
</g>
</svg>
