<?xml version="1.0" encoding="utf-8"?>
<!-- Generator: Adobe Illustrator 18.0.0, SVG Export Plug-In . SVG Version: 6.00 Build 0)  -->
<!DOCTYPE svg PUBLIC "-//W3C//DTD SVG 1.1//EN" "http://www.w3.org/Graphics/SVG/1.1/DTD/svg11.dtd">
<svg version="1.1" id="Layer_1" xmlns="http://www.w3.org/2000/svg" xmlns:xlink="http://www.w3.org/1999/xlink" x="0px" y="0px"
	 viewBox="0 0 144 144" enable-background="new 0 0 144 144" xml:space="preserve">
<g>
	<g>
		<g>
			<g>
				<g>
					<g>
						<g>
							<path fill="#202020" d="M41.3,34.8c0-0.1-0.2,0-0.1,0.2l0.2,0.1L41.3,34.8z"/>
							<path fill="#202020" d="M41.1,36.2c0.2,0.2,0.4,0.4,0.5,0.2c-0.2-0.2-0.2-0.2-0.5-0.4c-0.1-0.2,0-0.4,0.1-0.3
								c-0.1-0.1,0-0.3-0.1-0.4c-0.1,0.3-0.1,0.6,0.1,0.9C41.2,36.2,41.2,36.2,41.1,36.2z"/>
							<path fill="#202020" d="M57.7,46.2l-0.1,0C57.6,46.2,57.6,46.2,57.7,46.2z"/>
							<path fill="#202020" d="M70.1,47.7c-0.1,0-0.1,0-0.1,0C70.1,47.7,70.1,47.7,70.1,47.7z"/>
							<path fill="#202020" d="M72.3,47.9c0,0-0.1,0-0.1,0C72.2,47.9,72.2,47.9,72.3,47.9z"/>
							<path fill="#202020" d="M57.7,46.2l0.3,0.1C58,46.3,57.8,46.3,57.7,46.2z"/>
							<path fill="#202020" d="M42.7,38.3c0,0-0.1-0.1-0.1-0.1L42.7,38.3L42.7,38.3z"/>
							<path fill="#202020" d="M52.3,45L52.3,45c-0.1,0-0.2,0-0.2,0L52.3,45z"/>
							<path fill="#202020" d="M48.3,43.5c0.1,0,0.2-0.1,0.2-0.1c-0.1,0-0.2,0-0.2,0C48.3,43.4,48.3,43.4,48.3,43.5z"/>
							<path fill="#202020" d="M42.9,39.4l-0.1-0.1C42.8,39.4,42.8,39.4,42.9,39.4z"/>
							<path fill="#202020" d="M55.2,45.9C55.2,45.9,55.2,45.9,55.2,45.9C55.2,45.9,55.2,45.9,55.2,45.9z"/>
							<path fill="#202020" d="M43.4,31C43.4,30.9,43.4,30.9,43.4,31C43.4,31,43.4,31,43.4,31z"/>
							<path fill="#202020" d="M40.9,34.8L40.9,34.8C40.8,34.7,40.8,34.7,40.9,34.8L40.9,34.8z"/>
							<path fill="#202020" d="M76.2,48C76.2,48,76.2,48,76.2,48C76.1,48,76.1,48,76.2,48z"/>
							<path fill="#202020" d="M101,30c0.2,0.4-0.6-0.4-0.3,0.2C100.7,30.1,101.2,30.5,101,30z"/>
							<path fill="#202020" d="M42.8,38.4l0.1,0.1C42.9,38.5,42.8,38.4,42.8,38.4z"/>
							<path fill="#202020" d="M100.7,30.2L100.7,30.2L100.7,30.2C100.7,30.3,100.7,30.3,100.7,30.2z"/>
							<path fill="#202020" d="M85.2,46.7c0,0-0.1,0-0.1-0.1C85.1,46.7,85.1,46.7,85.2,46.7z"/>
							<path fill="#202020" d="M78.5,47.5l0.2,0C78.6,47.5,78.5,47.5,78.5,47.5z"/>
							<path fill="#202020" d="M88.6,45.7c0.1,0,0.1,0,0.2,0c0,0,0,0,0,0C88.7,45.7,88.7,45.7,88.6,45.7z"/>
							<path fill="#202020" d="M92,44.6L92,44.6c-0.1,0-0.1,0-0.2,0L92,44.6z"/>
							<path fill="#202020" d="M52.5,25.7c-0.1,0-0.2-0.1-0.2-0.1C52.4,25.7,51.9,25.9,52.5,25.7z"/>
							<path fill="#202020" d="M42.7,38.4c0,0,0.1,0,0.1,0L42.7,38.4C42.7,38.3,42.7,38.4,42.7,38.4z"/>
							<path fill="#202020" d="M88.4,44.5l0.6-0.1C88.8,44.4,88.6,44.4,88.4,44.5z"/>
							<path fill="#202020" d="M77.9,23.2l-0.1,0C77.8,23.2,77.9,23.2,77.9,23.2z"/>
							<path fill="#202020" d="M90.5,43.8c0.1,0,0.2,0,0.3,0c0,0,0,0,0-0.1L90.5,43.8z"/>
							<path fill="#202020" d="M52.3,25.6L52.3,25.6L52.3,25.6z"/>
							<path fill="#202020" d="M49,27.4c0.5-0.2,0.1-0.3,0.2-0.5c0.6-0.3,0.3,0,0.6,0c0.3-0.2,0.6-0.5,0.8-0.6c0,0,0.1,0,0,0.1
								c0.3-0.3,1.2-0.4,1.6-0.8c0,0,0.1,0,0.1,0c-0.1-0.1-0.2-0.2-0.2-0.3c0.2-0.1,0.4-0.3,0.5-0.2c-0.1,0-0.1,0.1-0.2,0.2l0.2-0.1
								c0.3,0.1-0.3,0.2-0.3,0.3c0.5-0.2,1-0.6,1.3-0.6c0.1,0.2-0.8,0.3-0.3,0.3l-0.6,0.1c0.5,0.2-0.3,0.1,0.1,0.3
								c0.7-0.2,0.8-0.3,1.5-0.5c0.1-0.2-0.1-0.1,0-0.3c1-0.5,1,0.2,1.7-0.2c0.2-0.2,0.2-0.4,0.8-0.4l-0.1,0.3
								c0.7-0.1,0.4-0.4,1.2-0.4c-0.1,0.1-0.6,0.2-0.4,0.2c0.5,0.1,0.3-0.2,0.7-0.3l0.1,0.2c0.8-0.2,1.6-0.5,2.5-0.6
								c0,0.1-0.2,0.1,0,0.2c1.1-0.3,2.4-0.3,3.4-0.3l0.4-0.2c0.1,0,0.2,0.1,0.1,0.1c0.4,0,0-0.1,0.2-0.2c0.2,0,0.3,0.1,0.2,0.1
								c0.7-0.2,2.1-0.5,2.9-0.3L68,23c0.6,0,0.7-0.4,1.2-0.2l-0.1,0c1.3,0,2.8-0.1,3.8,0.1c0.2-0.2,1.3,0.1,1.4-0.2
								c0.7,0.2,0.5,0.3,1.6,0.4c0.3,0,0.4-0.2,0.8-0.2l0,0.2l0.5-0.2l0.2,0.2l0.3,0c-0.1,0-0.3-0.1-0.2-0.1c0.5,0,1.2,0.2,1.2,0.3
								l1.2,0c0,0.1-0.2,0.1-0.4,0.1c0.7-0.1,0.1,0.2,0.7,0.1c-0.1,0,0.1-0.1,0.1-0.1c0.3,0.1,0.9,0.2,1.4,0.3l-0.1,0.1
								c0.9,0.2,1.9,0.2,2.9,0.4c-0.3-0.1-0.2-0.3,0.1-0.3l0.1,0.2c0.2-0.1-0.3-0.1,0.1-0.2c0.4,0.1,0.2,0.3,0,0.3l0.5,0
								c0,0.1-0.1,0.1-0.1,0.1c0.2-0.1,0.7,0.3,1,0.2l0,0.1c1,0.2,1.4,0.3,2.2,0.5c0.1-0.2,0.4,0,0.6-0.1c0.6,0.2,1.2,0.5,1.9,0.7
								c0.5,0.1,0.2-0.1,0.4-0.1c0,0.2,0.7,0.4,0.3,0.4c0.8,0.3,1,0.3,2.1,0.7c-0.1-0.1-0.2-0.2-0.1-0.2c0.2,0.1,0.4,0.2,0.3,0.3
								l-0.1,0c1.2,0.3,2.3,1.6,3.3,1.9l-0.1,0c0,0,0.2,0.1,0.5,0.2c0.2,0.1,0.5,0.2,0.5,0.2c0.4,0.3-0.3-0.1-0.1,0.2
								c1,0.4,1.3,1.1,2,1.6c0.1,0.4,0.4,0.8,0.8,1.3c0.3,0.5,0.6,1,0.6,1.5l0.1-0.1c0.2,0.2,0,0.3,0,0.4c0.1,0,0-0.2,0.1-0.1
								c0.2,0.9,0.1,1.9-0.3,2.7c-0.4,0.9-1.1,1.6-1.8,2.3c-0.5,0.5,0.1,0.7-0.8,1.1l0.1-0.3c-1,1.1-2.5,1.8-3.8,2.6
								c0.1-0.1,0-0.1,0.2-0.2c-0.3,0-1.1,0.5-1,0.6c-0.2,0.1-0.1-0.1-0.2-0.1c-0.3,0-0.7,0.5-0.9,0.4c0,0,0.1-0.1,0.1-0.1
								c-0.2,0.1-0.9,0.3-0.7,0.4c-0.6,0.1-1,0.4-1.5,0.5c-0.2,0.3-1,0.2-1,0.5c0-0.3-1,0.1-1.3,0.3c0.1-0.1-0.3,0-0.2-0.1
								c-0.4,0.1-0.8,0.3-0.7,0.4c-0.8-0.1-1.4,0.6-2,0.3c-1.2,0.4-2.3,0.7-3.4,0.9c0-0.3,1.2-0.2,1.1-0.5c-1,0.3-1.6,0.6-2.6,0.7
								c-0.3,0,0.1-0.1,0.2-0.2c-1,0.2-2,0.2-3,0.4c0,0,0.1-0.1,0.2-0.1c-0.2,0-0.4,0-0.4,0.1l0.2,0c0.3,0.1-0.7,0.4-0.7,0.5
								c0.3-0.4-0.9,0-0.5-0.5c-0.1,0-0.3,0.1-0.2,0.2c-0.2,0-0.2-0.1-0.1-0.2c-0.7,0.1-0.4,0.2-1,0.2c0-0.1,0.1-0.1,0.2-0.2
								c-0.3,0.1-0.6,0.3-1.1,0.2c0,0,0-0.1,0.1-0.1c-0.9,0-1.5,0.3-2.5,0.2c0.3-0.3-0.3-0.1-0.4-0.3l-0.5,0.1l0.2,0.1
								c-0.5,0-0.9,0.1-1.2,0.1l0.3-0.1l-0.8,0l0.5,0.1c-0.5,0.1,0,0.3-0.6,0.2c0.1,0-0.5,0-0.7-0.2l0,0c-0.2,0.1-0.5,0.1-0.8,0.1
								c-0.1-0.1,0.1-0.2,0-0.3c-0.2,0.2-1.1,0-1.4,0.2c0.1,0,0.1-0.2,0.1-0.2l-0.2,0.1c-0.2-0.1-0.2-0.1-0.2-0.2
								C66,46.7,66.8,47,66,46.9c0.1,0,0,0,0.2,0c-0.7-0.1-1.5,0-2.1-0.2c-0.2-0.2,0.6,0,0.4-0.2c-1-0.1-2.1,0-3-0.2l0.2,0
								c-0.2,0.3-0.7-0.2-1.2-0.2c0.1,0,0.2-0.1,0.1-0.1c-0.6-0.1-1.3-0.1-2.3-0.2l0.1-0.1c-0.4-0.1-1-0.2-1.4-0.4
								c-0.1,0-0.4,0-0.3,0.1c-1.2-0.7-2.5-0.4-3.5-1.1c0.1,0,0.3,0,0.2,0l-1-0.2c0,0.2,0.1,0.1,0.3,0.3c-0.1,0-0.4,0-0.7-0.1
								c0.4,0.1,0.1-0.2-0.1-0.3c0,0-0.1,0.1-0.1,0.1c-0.4-0.4-0.2,0.2-0.8-0.2l0.1-0.1c-0.3,0-0.5-0.1-0.8-0.2
								c-0.1-0.2,0.3,0,0.3-0.1c-0.4-0.1-0.8,0-1.1-0.3c0.2,0,0.4,0.1,0.6,0.1c-0.3-0.3-0.4-0.3-0.6-0.4l0,0l-0.6-0.3l0.1,0.1
								c-0.6,0.2-0.9-0.3-1.7-0.4c0.7,0.1,0.2-0.1,0.3-0.2c-0.1-0.1-0.3-0.3-0.2-0.3c-0.3,0-0.4-0.3-0.9-0.4c0-0.1-0.3-0.2-0.2-0.3
								c-0.4-0.2,0,0.1,0,0.2c-0.6-0.2-1.1-1-2-1.3c-0.7-0.4-0.9-0.4-1.5-0.8c-0.1-0.2,0.3,0,0.3,0c-0.2-0.3-0.4-0.5-0.7-0.8
								c0.1,0,0.1-0.1,0-0.2c-0.2-0.2-0.3,0-0.4-0.4c0.1,0,0.2,0,0.3,0.1c-0.2-0.2-0.5-0.5-0.7-0.7c0-0.1,0.2,0.1,0.3,0.2
								c-0.2-0.3-0.5-0.8-0.7-0.9l0.1,0.3c-0.1-0.1,0.1-0.1,0.2,0c0.2,0.3,0.2,0.5,0.1,0.5l-0.2-0.2c-0.1,0.2,0.1,0.4,0.3,0.6
								c0.2,0.2,0.5,0.4,0.6,0.6l-0.3,0l0.5,0.3c0,0.1,0,0.3-0.2,0.1c0.2,0.4,0.3,0.2,0.4,0.5c0,0,0,0,0,0l0.3,0.2
								c-0.1,0-0.1,0.2-0.2,0c0.4,0.6,0.9,0.6,1,0.9l-0.1,0c0.8,0.5,0.2-0.1,0.9,0.2l0.1,0.6l0.2-0.1c0.1,0.1,0.2,0.2,0.2,0.2
								c0.4,0.1,0-0.1,0.2-0.1c0.3,0.4,1.1,0.6,1.1,0.9c0.2,0-0.3-0.3,0.1-0.1c0,0.3,0.5,0.2,0.8,0.5c-0.2,0.1-0.5-0.2-0.2,0.1
								c0.3-0.1,0.7,0.4,1.1,0.5c0.1-0.2,0.7,0.2,1.3,0.4c-0.1,0.1,1,0.5,1.5,0.8l0,0c0.2-0.2,0.7,0.1,1.1,0.2
								c-0.1,0.1-0.1,0.1-0.4,0.1l0.4,0.1c0.1,0,0.2,0,0.5,0l-0.1,0.1c0.5,0.2,1.1,0.1,1.7,0.4c0.1-0.1-0.4-0.5,0.3-0.4
								c0,0.1,0,0.2-0.2,0.2c0.1,0,0.2,0,0.3,0.1l-0.3,0.1c0.3,0.1,0.2-0.1,0.4,0c0,0.1,0.2,0.1,0.1,0.2c-0.1,0-0.2-0.1-0.3-0.1
								c0.3,0.1,0.6,0.2,0.6,0.3c0-0.1,0-0.1,0.2-0.1c0.5,0.1,0.1,0.2,0.4,0.3c0.1,0,0.4,0.1,0.5-0.1c0.1,0,0.2,0.1,0.2,0.2
								c0.3,0,1.2,0.2,1,0l-0.1,0c0,0,0,0,0,0l0,0l0,0c0.9,0,1.8,0.4,2.6,0.5l0,0.1c0.5,0,1.2,0.1,1.5,0.1c0.2,0,0.3,0.2,0.3,0.2
								c0.4,0,0.5,0,1,0.1c-0.4,0.1,0.1,0.1-0.4,0c0.5,0.1,0.6,0.2,1.2,0.1c-0.2,0.1,0.4,0.2,0.6,0.2L64,47.3c0.3,0,0.5,0,0.8,0.1
								l-0.2,0.2c1,0.3,1.9-0.2,2.7,0.2c0.3-0.1-0.6-0.1-0.3-0.3c0.5,0.1,1,0.4,1.1,0.4c0.7,0.1,0.6-0.3,1.3-0.2
								c-0.1-0.1-0.2-0.3,0.4-0.3c0.5,0,0.6,0.3,0.3,0.3c-0.1,0-0.2,0-0.2,0c-0.2,0-0.4,0-0.2,0.1l0.1-0.1c0.2,0.1,0.9,0.1,0.8,0.2
								c0.4-0.1,0.2-0.1-0.1-0.1c0.6,0.1,1,0,1.6,0.1c-0.1,0-0.2-0.1-0.1-0.1c0.9,0.1,0.4-0.1,1.1-0.2c0.4,0.1-0.1,0.3,0.5,0.1
								c0.4,0.1,0.1,0.2-0.1,0.2c0.6-0.2,1.1,0.1,1.4,0.1l-0.3,0.1c0.2,0,0.3,0,0.5-0.1L75,47.9c0.2,0,0.3,0,0.3,0.1
								c0.2-0.1-0.2-0.2,0.2-0.4c0.2,0.1,0.7-0.1,0.8,0.1c-0.8,0,0.1,0.2-0.5,0.2c0.1,0,0.3,0,0.5,0c0,0,0,0-0.1,0.1
								c0.7,0.1,0.3-0.2,1.1-0.3c-0.1,0.1,0.2,0.2,0.3,0.1c-0.3,0-0.2-0.2,0.1-0.3c0.5,0,0.5-0.1,0.8-0.1l-0.3,0
								c0.1-0.1,0.3-0.1,0.7-0.2c0,0.1-0.3,0.1-0.2,0.1c0.4-0.2,0.9,0.1,1.4-0.1c0.2,0,0,0.2,0.3,0.2c0.6-0.2,0.7,0.1,1.3-0.1
								c-0.2-0.1-0.2-0.1,0.2-0.3l-1,0.2l0.6-0.3c-0.3,0-0.6,0.2-0.8,0.2c0.3-0.1,0.3-0.1,0.1-0.2c0.4,0.2,0.8-0.2,1.3-0.2l0,0.3
								c0.7,0,1.3-0.4,2.2-0.4l-0.3,0c0.1-0.2,0.6-0.1,0.9-0.2c0,0.1,0.2,0.1,0.3,0.2c0-0.1,0.7-0.1,0.7-0.4l0.4,0.1
								c0.8-0.1,0.8-0.5,1.5-0.6c-0.2,0.2,0.2,0.2-0.3,0.4c0.2-0.1,0.5-0.1,0.4-0.2c0.2,0,0.6-0.3,0.9-0.3c0.1-0.1,0.1-0.2,0.4-0.3
								c0,0,0,0.1,0,0.1c0-0.1,0.4-0.2,0.1-0.2c0.8,0.1,2-0.6,2.7-0.6c0.5-0.2,1.1-0.5,1.5-0.7c0,0,0,0.1-0.1,0.1
								c0.7-0.2,0.3-0.5,1-0.7c0.4,0-0.3,0.3-0.1,0.2c0.3,0.3,0.8-0.4,1.4-0.5l-0.1,0.1c0.4-0.1,0.8-0.6,1.4-0.9c0,0,0,0,0,0.1
								c0.3-0.4,1-0.9,1.4-1.3c-0.1,0.2-0.2,0.2,0,0.3c0.2-0.2-0.2-0.1,0.2-0.5c0.2,0,0.5-0.2,0.7-0.1l-0.4,0.3
								c0.3,0,0.5-0.4,0.8-0.6l0,0.1c0.6-0.6,0.4-0.7,1.1-1.4l-0.1,0c0.1-0.5,0.4-0.2,0.5-0.7l0.3,0c0.1-0.3,0.4-1.1,0.6-1.6
								c0,0.4-0.2,1-0.4,1.4c0.2-0.3,0.5-1,0.5-1.2c0,0.1,0,0.3-0.1,0.4c0-0.4,0.1-0.9,0.3-1.5c0.2,0.1,0.3-0.3,0.4-0.8
								c0.1-0.5,0-1.1,0.1-1.3c-0.3-1.1-0.6-2.3-1.5-3.4c0,0.6-0.3-0.3-0.5,0c-0.2-0.2-0.3-0.3-0.3-0.3c0,0-0.5-0.8-0.5-0.8
								c-0.1-0.2,0.3,0.1,0.3,0.1c-0.5-0.5-0.1-0.3-0.4-0.7c0,0.2-0.3,0-0.6-0.3c0,0,0.1,0.1,0.2,0.2c0.1,0.1,0.2,0.2,0.2,0.2
								c-0.8-0.4-0.4-0.8-1.3-1.1l0.3,0.1c-0.4-0.2-1.5-1-2-1c-0.1-0.1-0.1-0.2,0.1-0.1c-1-0.6-2.4-0.9-3.1-1.4l0.1,0
								c-0.2-0.1-0.4,0-0.6-0.2c0,0,0.1,0,0-0.1c-0.1,0-0.6-0.1-0.8-0.2l0.3,0c-1-0.5-1.7-0.3-2.5-0.6c0.1-0.2-0.7-0.6-1.1-0.7l0,0
								c-1.2-0.4-2.1-0.3-3.3-0.5c-0.7-0.4-2.4-0.6-3.5-0.9c0.2,0.1-0.1,0.2-0.3,0.2c-0.3-0.1-0.8,0.1-0.7-0.2l0.1,0
								c-0.2-0.3-0.7-0.3-1.2-0.3l-0.1,0.3c-1.1-0.6-3-0.1-3.6-0.6c-0.3,0.1-0.6,0-0.9,0.1l0-0.2c-0.8-0.1-1.1-0.1-2.1-0.1l0.2-0.1
								c-0.5,0-0.7,0.4-1.2,0.5l-0.1-0.2c-0.9,0-1.9-0.2-2.8,0c0,0,0-0.1,0.2-0.1c-0.4,0-1.7-0.1-1.5,0.2c0-0.2-1,0-1.5,0.2l0.1-0.2
								c-0.4,0.2-0.4,0.3-1,0.4c-0.1,0-0.1-0.1,0.1-0.1c-0.5,0-0.4,0.2-0.9,0.1l0.2-0.1c-0.5,0-0.4,0.1-0.7,0.2
								c-0.3,0.1-0.9,0-1-0.1c-0.1,0.1-0.3,0.2-0.6,0.2c0-0.1,0.1-0.1,0.1-0.1c-0.8,0-1.2,0.3-1.7,0.3c0-0.1-0.1-0.1-0.1-0.1
								c0.6-0.1,1.1-0.1,1.1-0.1c0-0.1-0.5-0.1-0.2-0.4c-0.4,0.2-1.1,0.5-1.6,0.5c0,0-0.1,0-0.1,0l0,0c-0.1,0-0.2,0-0.3,0.1
								c-0.2,0-0.3,0-0.4,0c-0.1-0.1-0.6,0-0.9,0.1c0,0.2-0.3,0.2,0,0.3c0,0,0,0,0.2-0.1c0,0,0.1,0,0.1,0l0,0c0.2,0,0.4-0.1,0.6-0.1
								c-0.2,0.1-0.4,0.2-0.7,0.2c-0.1,0.1-0.2,0.3-0.3,0.3c-0.4-0.2-1.1-0.2-1.2-0.3c-0.8,0.2-1.8,0.5-2.2,0.9
								c-0.2,0.1-0.3,0-0.4,0c0.1-0.1,0.3-0.1,0.3-0.2c-0.4,0.2-1.3,0.4-1.3,0.6c-0.6,0.1,0.3-0.3-0.5,0l0.1-0.1
								c-1.6,0.1-2.2,1.2-3.9,1.4c0.1,0,0.2,0,0.2,0c-1.9,0.5-3.6,1.8-5.3,2.6c-0.5,0.3-0.5,0.4-0.7,0.7L44,28.8l-0.3,0.5
								c-0.5,0.6-1.3,0.7-1.8,1.7l0.2,0c-0.2,0.3-0.6,1-0.7,0.9c0,0,0,0.2-0.1,0.3l-0.1,0c0,0-0.1,0.2-0.1,0.5
								C41.1,32.7,41,33,41,33c-0.3,0.7-0.4-0.2-0.6,0.8c-0.1,0.4,0.2,1.2,0.2,1c0-0.2,0.1-0.4,0.2-0.4l0,0.3
								c0.3,0.1,0.5,0.3,0.8-0.4c0,0-0.1-0.5-0.1-0.5s0.2-0.1,0.2-0.1c0,0-0.1,0.4-0.1,0.4c0.2-0.2,0.1-0.4,0.1-0.6
								c0.1,0,0.1-0.1,0.2-0.2c0,0,0-0.1,0-0.3c0-0.1,0-0.3,0-0.3c0.1,0,0.1,0.3,0.3,0c0-0.3-0.3,0.1-0.2-0.3
								c0.2-0.2,0.3-0.1,0.3-0.4c0.1,0,0.1,0.1,0.1,0.2c0-0.3,0.4-0.6,0.3-0.8c0.3-0.1,0.6-0.7,0.7-0.5c0-0.1,0.2-0.5,0.4-0.7
								c-0.1,0.5,0.7-0.6,0.8-0.3c0.1-0.4,0.9-0.9,1.3-1.3c0,0-0.1,0.1-0.1,0.1c0.3-0.2,0.4-0.2,0.7-0.2c-0.1-0.2,0.4-0.5,0.6-0.8
								c0.5,0-0.1,0.4,0.1,0.5c-0.1-0.2,0.6-0.5,0.4-0.6c0.4,0,0.3-0.1,0.5,0c-0.1-0.3,0.2-0.2,0.4-0.5c0.5-0.1,0.2,0.2,0.7-0.1
								C49.4,27.1,49,27.4,49,27.4z M61,23.5L61,23.5c-0.1,0-0.2,0-0.3,0.1C60.7,23.6,60.8,23.5,61,23.5z M62,23.4
								c-0.1,0-0.3,0-0.5,0.1c0-0.1,0-0.1,0.1-0.1C61.6,23.3,61.8,23.3,62,23.4z M59.6,22.6c0.2,0,0.2,0,0.3,0
								C59.8,22.6,59.7,22.6,59.6,22.6L59.6,22.6C59.5,22.7,59.6,22.6,59.6,22.6z"/>
							<path fill="#202020" d="M59.3,22.9C59.3,22.9,59.3,22.9,59.3,22.9C59.3,22.9,59.3,22.9,59.3,22.9L59.3,22.9
								C59.4,22.8,59.3,22.9,59.3,22.9z"/>
							<path fill="#202020" d="M57.5,46.2L57.5,46.2C57.5,46.2,57.5,46.2,57.5,46.2C57.5,46.2,57.5,46.2,57.5,46.2z"/>
							<polygon fill="#202020" points="76.7,23.2 76.7,23.2 76.6,23.2 							"/>
							<path fill="#202020" d="M52,44.1C52,44.1,52,44.1,52,44.1C51.9,44,52,44.1,52,44.1z"/>
							<path fill="#202020" d="M49.6,43.2L49.3,43C49.5,43.1,49.6,43.1,49.6,43.2z"/>
							<path fill="#202020" d="M47.9,42.3C47.9,42.3,47.9,42.3,47.9,42.3L47.9,42.3L47.9,42.3z"/>
							<path fill="#202020" d="M78.2,46.4L78.2,46.4C78.5,46.3,78.4,46.4,78.2,46.4z"/>
							<path fill="#202020" d="M69,47c0.1,0,0.2-0.1,0.3-0.1C69.2,46.9,69,46.9,69,47z"/>
							<polygon fill="#202020" points="88.3,44.5 88.3,44.5 88.4,44.5 							"/>
							<path fill="#202020" d="M69.7,47c-0.2,0-0.3,0-0.4,0C69.5,47,69.6,47,69.7,47z"/>
							<path fill="#202020" d="M41.9,36.9L41.9,36.9C41.9,36.8,41.8,36.8,41.9,36.9L41.9,36.9z"/>
							<path fill="#202020" d="M41.8,36.8L41.8,36.8C41.8,36.8,41.8,36.8,41.8,36.8z"/>
							<path fill="#202020" d="M41.7,36.6l0.1,0.2C41.8,36.7,41.7,36.6,41.7,36.6z"/>
							<path fill="#202020" d="M43.2,39L43.2,39C43.3,38.9,43.2,39,43.2,39z"/>
							<path fill="#202020" d="M43.8,39.5c-0.1-0.1-0.2-0.4-0.4-0.6l-0.1,0C43.4,39,43.6,39.5,43.8,39.5z"/>
							<path fill="#202020" d="M46,42l-0.5-0.4c0.1,0.1,0.2,0.3-0.1,0.1C45.9,42.4,45.2,41.5,46,42z"/>
							<path fill="#202020" d="M47.8,43.1c-0.3-0.1,0,0.1-0.1,0.1C47.9,43.3,48,43.3,47.8,43.1z"/>
							<path fill="#202020" d="M62.1,47.1l-0.1,0.1C62.3,47.2,62.1,47.2,62.1,47.1z"/>
							<polygon fill="#202020" points="65,46.6 64.8,46.5 64.6,46.6 							"/>
							<polygon fill="#202020" points="66.6,47.8 66.5,47.8 67,47.8 							"/>
							<path fill="#202020" d="M91.5,45l-0.1-0.1C91.2,44.9,91.2,45.2,91.5,45z"/>
							<path fill="#202020" d="M100.8,39.4c0.1,0,0.4-0.2,0.5-0.5C101.1,39.1,100.9,39.3,100.8,39.4z"/>
							<polygon fill="#202020" points="79.7,22 79.9,22 79.5,22 							"/>
						</g>
					</g>
				</g>
			</g>
		</g>
		<g>
			<g>
				<g>
					<g>
						<g>
							<path fill="#202020" d="M40.9,35.2c-0.1-0.1-0.2-0.1-0.1,0.3l0.2,0.3L40.9,35.2z"/>
							<path fill="#202020" d="M40.7,37.7c0.1,0.4,0.3,0.9,0.5,0.6c-0.2-0.4-0.1-0.5-0.4-1c0-0.4,0-0.7,0.1-0.6
								c-0.1-0.1,0-0.6-0.1-0.8c-0.1,0.5-0.1,1.1,0.1,1.8C40.7,37.9,40.7,37.8,40.7,37.7z"/>
							<path fill="#202020" d="M50.3,73.5l-0.1-0.2C50.2,73.4,50.2,73.4,50.3,73.5z"/>
							<path fill="#202020" d="M65.9,86.6c0-0.2,0-0.3,0-0.3C65.9,86.5,65.9,86.6,65.9,86.6z"/>
							<path fill="#202020" d="M65.7,90.5c0-0.1,0-0.2,0-0.2C65.7,90.4,65.7,90.5,65.7,90.5z"/>
							<path fill="#202020" d="M50.3,73.5l0.3,0.5C50.7,74,50.4,73.8,50.3,73.5z"/>
							<path fill="#202020" d="M41.5,42.8c0-0.1-0.1-0.2-0.1-0.3L41.5,42.8C41.5,42.8,41.5,42.8,41.5,42.8z"/>
							<path fill="#202020" d="M45.5,64.4l-0.1-0.2c0,0-0.1-0.1-0.1-0.1L45.5,64.4z"/>
							<path fill="#202020" d="M43.1,56.9c0,0.2,0.2,0.2,0.3,0.2c-0.1-0.1-0.2-0.2-0.2-0.3C43.1,56.8,43.1,56.9,43.1,56.9z"/>
							<path fill="#202020" d="M41.1,44.6L41,44.4C41.1,44.5,41.1,44.6,41.1,44.6z"/>
							<path fill="#202020" d="M47.7,69.6C47.7,69.6,47.7,69.7,47.7,69.6C47.7,69.7,47.7,69.7,47.7,69.6z"/>
							<path fill="#202020" d="M101.6,44.1C101.6,44.1,101.6,44.1,101.6,44.1C101.6,44.1,101.6,44.1,101.6,44.1z"/>
							<path fill="#202020" d="M103.1,35.2l0,0.1c0,0,0.1,0,0.1,0L103.1,35.2z"/>
							<path fill="#202020" d="M65.5,97.8C65.5,97.7,65.5,97.7,65.5,97.8C65.5,97.5,65.5,97.6,65.5,97.8z"/>
							<path fill="#202020" d="M80.5,122.3c-0.8-0.1,1.2-0.2,0.1-0.3C80.7,122,79.5,122.2,80.5,122.3z"/>
							<path fill="#202020" d="M41.5,43l0,0.3C41.6,43.2,41.6,43.1,41.5,43z"/>
							<path fill="#202020" d="M80.6,121.9L80.6,121.9l-0.1,0C80.5,121.9,80.5,121.9,80.6,121.9z"/>
							<path fill="#202020" d="M63.1,112.2c0,0,0.1,0,0.2,0C63.2,112.1,63.2,112.1,63.1,112.2z"/>
							<path fill="#202020" d="M65.8,102l0,0.3C65.8,102.2,65.8,102.1,65.8,102z"/>
							<path fill="#202020" d="M57.6,115.6c-0.2,0.1-0.2,0.1-0.4,0.2c0,0,0,0,0.1,0C57.3,115.8,57.4,115.7,57.6,115.6z"/>
							<path fill="#202020" d="M51.8,119c0,0,0.1,0,0.1,0c0.1,0,0.1-0.1,0.2-0.1L51.8,119z"/>
							<path fill="#202020" d="M97.2,63.8c0.1-0.1,0.2-0.2,0.2-0.2C97.3,63.6,97.6,62.7,97.2,63.8z"/>
							<path fill="#202020" d="M41.5,42.8c0,0,0.1,0.1,0.1,0.2C41.5,42.9,41.5,42.9,41.5,42.8C41.5,42.8,41.5,42.8,41.5,42.8z"/>
							<path fill="#202020" d="M58,116.9l-0.9,0.5C57.4,117.2,57.7,117.1,58,116.9z"/>
							<path fill="#202020" d="M76.6,101.1l0-0.2C76.6,100.9,76.6,101,76.6,101.1z"/>
							<path fill="#202020" d="M54.4,119c-0.2,0-0.4,0.1-0.6,0.2c0,0-0.1,0.1-0.1,0.1L54.4,119z"/>
							<path fill="#202020" d="M97.4,63.6L97.4,63.6L97.4,63.6z"/>
							<path fill="#202020" d="M99.1,56.8c-0.3,1,0.1,0.5,0.1,0.7c-0.3,1.2-0.3,0.5-0.5,0.9c-0.2,0.7-0.1,1.3-0.3,1.9
								c0,0-0.1,0.1-0.1,0c-0.1,0.8-0.7,2.2-0.8,3.2c0,0.1-0.1,0.1-0.1,0.1c0.2-0.1,0.3-0.1,0.3,0c-0.2,0.4-0.2,0.8-0.4,0.9
								c0.1-0.3,0.1-0.3,0.1-0.4l-0.1,0.5c-0.3,0.3,0.2-0.6,0-0.7c-0.3,0.9-0.5,2-0.9,2.6c-0.2,0.1,0.6-1.5,0.1-0.7
								c0,0,0.1-0.2,0.3-0.5c0.1-0.2,0.2-0.5,0.2-0.5c-0.6,0.7,0.3-0.6-0.3,0c-0.6,1.3-0.5,1.5-1.2,2.8c0,0.3,0.2,0,0.1,0.3
								c-0.7,1.9-1.1,1.2-1.6,2.6c-0.1,0.4,0.1,0.7-0.6,1.5l0-0.4c-0.8,1.1-0.1,0.9-1.1,1.9c0.1-0.2,0.6-0.9,0.4-0.8
								c-0.7,0.7-0.3,0.6-0.7,1.2l-0.2,0c-0.8,1.2-1.8,2.5-3,3.6c0-0.1,0.2-0.3-0.1-0.1c-1.5,1.4-3.5,2.5-5.3,3.1l-0.6,0.4
								c-0.2,0.1-0.3,0-0.2-0.1c-0.7,0.2,0,0.1-0.3,0.3c-0.4,0.1-0.6,0.1-0.3-0.1c-0.3,0.2-0.7,0.3-1.1,0.4
								c-0.4,0.1-0.9,0.2-1.4,0.3c-0.2,0-0.5,0-0.7,0.1c-0.3,0-0.5,0-0.8,0c-0.4,0-0.7,0-1.1,0l-0.1,0c0,0,0,0.1,0,0.1l0,0.2
								c0,0.2,0,0.3,0,0.4l-0.1-0.5c0,0.5,0,0.9,0,1.1c0,0.2,0.1,0.3,0.1,0.5c0.1,0.3,0.1,0.6,0.1,1.1l0-0.2
								c-0.1,2.5,0.1,5.2-0.2,7.1c0.2,0.4-0.1,2.4,0.2,2.6c-0.2,1.4-0.2,1-0.3,3c0,0.5,0.2,0.8,0.2,1.4l-0.2,0l0.2,0.9l-0.2,0.5
								l0,0.6c0-0.2,0.1-0.5,0.1-0.5c0.1,1-0.1,2.3-0.2,2.4l0.2,2.3c-0.1-0.1-0.1-0.4-0.1-0.7c0.2,1.2-0.2,0.2,0,1.3
								c0-0.1,0.1,0.1,0.1,0.1c-0.1,0.6-0.1,1.8-0.1,2.8l-0.1-0.2c0,0.4,0,0.9,0,1.4c0,0.6,0,1.3,0,1.9c0.9,0.5,1.8,1,2.7,1.5
								c-0.6-0.4-0.3-0.5,0.2-0.2l0.1,0.3c0.4,0.1-0.5-0.4,0.2-0.1c0.6,0.4,0.3,0.4-0.1,0.3l0.8,0.4c0,0.1-0.2,0-0.3,0
								c0.4,0.1,1.2,0.9,1.7,1l0,0.1c1.6,1,2.4,1.3,3.7,2.1c0.1-0.1,0.6,0.2,1.1,0.3c0.9,0.6,2,1.4,3.1,2.1c0.9,0.4,0.3,0,0.7,0.2
								c0,0.2,1.2,0.8,0.5,0.6c0.3,0.2,0.6,0.3,0.8,0.4c0.1,0,0.2,0.1,0.2,0.1c0.2,0.1,0.5,0.2,1,0.4c0.1,0,0.1,0,0.3,0
								c0.1,0,0.2,0.1,0.2,0.1c-0.2,0-0.5-0.1-0.6-0.1l0,0c0,0.1-0.4,0.1-0.7,0c-0.4,0-0.4-0.1-1.2-0.1c-1.3-0.1-2.5-0.2-3.4,0
								l0.1,0l-1.9,0.2c-0.9,0,0.5-0.1-0.1-0.2c-2.1,0.2-3.3,0-5,0.1c-1.3-0.4-4.7,0-6.5-0.2l0.1,0.1c-0.5,0.1-0.6-0.1-0.9-0.1
								c0,0.1,0.5,0.1,0.2,0.1c-3.9,0.1-8.1-0.1-12.1-0.2c-1.5,0-0.8,0.5-2.7,0.3l0.5-0.2c-1.5,0.1-3,0.1-4.5,0.1
								c-0.8,0-1.5,0-2.2,0l-0.6,0c-0.2,0-0.4,0-0.4,0l-0.3,0.1c0.1,0,0.2-0.1,0.2-0.1c0-0.1,0-0.1-0.2,0c-0.1,0-0.4,0.1-0.6,0.1
								c-0.1,0,0.3-0.1,0.5-0.2c0.2-0.1,0.1,0,0-0.1c-0.1,0,0-0.1,0.1-0.1c0.1,0,0.1,0,0.1,0c-0.1,0,0.2-0.1,0-0.2c0,0,0.1,0,0.1,0
								l0.3-0.2c0.2-0.1,0.4-0.3,0.6-0.4c0.4-0.3,0.8-0.5,1.2-0.7c0.4-0.4,1.6-0.9,1.7-1.2c0.1,0.3,1.7-0.8,2.3-1.2
								c-0.2,0.2,0.6-0.2,0.4,0c0.7-0.4,1.3-0.8,1.1-0.8c1.4-0.5,2.4-1.7,3.3-1.7c0.7-0.5,1.4-0.9,2.1-1.4c0.3-0.2,0.7-0.4,1-0.6
								c0.4-0.3,0.8-0.5,1.2-0.8c0-0.7,0-1.4-0.1-2c0.1,0,0.1,0.3,0.1,0.6c0,0.5,0,1,0,1.4c-0.4,0.3-0.7,0.5-0.7,0.5
								c0.3-0.2,0.5-0.3,0.8-0.5c0-0.4,0-0.7,0-1c0-0.2,0-0.4,0-0.6c0-0.4-0.1-0.7-0.1-1.1c-0.1-0.7-0.1-1.4-0.1-2.3
								c0-0.5,0.1,0.3,0.2,0.5c-0.1-2,0-3.8-0.1-5.6c0,0,0.1,0.2,0.1,0.4c0-0.3,0-0.8-0.1-0.8l0,0.3c-0.2,0.6-0.4-1.4-0.4-1.4
								c0.3,0.6,0.1-1.7,0.5-0.8c0-0.2-0.1-0.5-0.2-0.5c0-0.3,0.1-0.4,0.2-0.1c-0.1-1.2-0.2-0.8-0.2-1.9c0.1,0,0.1,0.2,0.1,0.3
								c-0.1-0.6-0.2-1.1-0.2-2.1c0,0.1,0.1-0.1,0.1,0.2c0-1.6-0.3-2.8-0.2-4.6c0.2,0.5,0.1-0.6,0.3-0.7l-0.1-1l-0.1,0.4
								c0-0.8-0.2-1.6-0.1-2.3l0.1,0.6l0-1.6l-0.1,0.9c-0.1-0.9-0.3,0.1-0.2-1c0,0.2,0-0.8,0.1-1.3l0,0c-0.1-0.4-0.1-0.8-0.1-1.5
								c0.1-0.2,0.2,0.1,0.3,0c0-0.1-0.1-0.4-0.1-0.7c0-0.1,0-0.1,0-0.2c0-0.1-0.1,0-0.2,0c-0.2,0-0.3,0-0.5,0c-0.2,0-0.3,0-0.5,0
								c-0.1,0-0.2,0-0.4,0c-0.2,0-0.4,0-0.6,0.1c0.2,0,0.2-0.1,0.1-0.2L64.3,82c-0.4-0.1-0.4-0.1-0.4-0.2c-1.1-0.2,0.3,0.3-1,0
								c0.1,0,0.1,0,0.3,0c-0.7-0.2-1.3-0.2-2-0.4c-0.6-0.2-1.3-0.3-1.8-0.6c-0.3-0.3,1,0.4,0.7,0.1c-1.7-0.7-3.5-1.4-4.8-2.6
								l0.2,0.2c-0.2,0-0.4-0.2-0.7-0.5c-0.3-0.3-0.6-0.7-0.9-1c0.2,0.1,0.3,0.1,0.3,0.1c-0.2-0.2-0.4-0.4-0.7-0.6
								c-0.2-0.2-0.4-0.5-0.7-0.7c-0.2-0.2-0.5-0.5-0.8-0.8c-0.3-0.3-0.5-0.6-0.8-1l0.2,0.1c-0.4-0.6-1.1-1.6-1.4-2.2
								c-0.2-0.2-0.4-0.5-0.4-0.2c-0.8-2.3-2.4-3.9-2.9-6.1c0.1,0.2,0.3,0.5,0.2,0.3c0,0-0.2-0.4-0.4-0.8c-0.2-0.4-0.4-0.8-0.4-0.8
								c-0.1,0.2,0,0.3,0,0.6c-0.2-0.2-0.4-0.6-0.6-1.1c0.4,0.7,0.2-0.1,0.1-0.4c0,0.1-0.1,0-0.1,0c-0.1-1-0.3-0.1-0.6-1.3l0.1,0
								c-0.2-0.5-0.4-0.8-0.6-1.4c0.1-0.3,0.2,0.5,0.4,0.5c-0.2-0.7-0.7-1.3-0.7-2c0.1,0.3,0.3,0.7,0.4,1c0-0.7-0.1-0.8-0.2-1.3
								l0,0.1l-0.2-1.2l0,0.3c-0.6-0.8-0.5-1.8-1.1-3c0.5,1.1,0.2,0.2,0.4,0.2c0-0.3-0.1-0.8,0-0.7c-0.3-0.5-0.1-1-0.5-1.7
								c0,0-0.1-0.6,0-0.5c-0.2-0.7-0.1,0.2-0.1,0.1c-0.4-1.1-0.3-2.8-0.8-4.4c-0.3-1.4-0.6-1.7-0.8-3c0-0.5,0.3,0.3,0.3,0.3
								c0-0.7-0.1-1.3-0.2-2c0.1,0.1,0.1,0,0.1-0.2c-0.1-0.6-0.2-0.3-0.2-1.1c0.1,0.1,0.2,0.3,0.3,0.5c-0.1-0.6-0.3-1.3-0.4-2
								c0.1-0.2,0.2,0.4,0.3,0.6c-0.1-0.8-0.3-2-0.4-2.2l0,0.5c0-0.3,0.1-0.2,0.2,0c0.2,0.6,0,0.9,0,1L40.9,40
								c-0.3,0.5,0.2,1.9,0.3,2.9L41,42.5l0.3,1c0,0.2-0.2,0.4-0.2-0.1c0,0.7,0.1,0.6,0.1,1.2c0,0.1,0,0,0,0l0.2,0.7
								c-0.1-0.1-0.2,0.1-0.2-0.3c0,1.2,0.4,1.9,0.3,2.4l0-0.1c0.3,1.7,0.2,0.1,0.6,1.4l-0.3,0.9l0.2,0.1c0,0.2,0.1,0.5,0,0.5
								c0.2,0.6,0.1-0.1,0.2,0.2c0,0.9,0.5,2.3,0.3,2.5c0.2,0.3-0.1-0.8,0.2,0.1c-0.2,0.3,0.3,1,0.3,1.8c-0.2-0.2-0.3-0.9-0.3-0.1
								c0.4,0.4,0.3,1.5,0.5,2.1c0.2,0,0.4,1.4,0.8,2.4c-0.1,0,0.5,2,0.7,3l0,0c0.3,0.1,0.6,1.1,0.9,1.8c-0.1,0-0.2-0.1-0.4-0.5
								l0.3,0.7c0.1,0.1,0.2,0.3,0.4,0.8l-0.2-0.1c0.3,0.9,0.9,1.7,1.3,2.9c0.2,0-0.1-1.1,0.6,0.1c-0.1,0.1-0.2,0.2-0.3-0.1
								c0.1,0.1,0.2,0.3,0.3,0.5l-0.4-0.4c0.2,0.5,0.2,0.2,0.4,0.6c-0.1,0,0.1,0.3,0,0.3c-0.1-0.1-0.1-0.4-0.2-0.5
								c0.2,0.5,0.4,1.1,0.4,1.3c0-0.1,0.1-0.1,0.3,0.3c0.5,0.8,0,0.4,0.3,0.9c0.2,0.2,0.4,0.7,0.6,0.7c0.1,0.2,0.1,0.3,0.1,0.4
								c0.3,0.4,1.3,2,1.1,1.4l-0.1-0.1c0,0,0,0,0.1,0.1l0,0l0,0c0.5,0.6,1,1.3,1.5,2c0.5,0.6,1,1.4,1.7,1.9l0,0
								c0.4,0.3,0.8,0.7,1.2,1c0.4,0.3,0.8,0.6,1.1,0.7c0.2,0.2,0.5,0.5,0.3,0.5c0.6,0.4,0.8,0.4,1.6,1c-0.7-0.3,0.2,0.2-0.7-0.3
								c0.8,0.6,1,0.8,2,1c-0.4,0,0.6,0.5,1,0.6c0,0-0.6-0.4-0.6-0.4c0.5,0.2,0.9,0.3,1.4,0.5l-0.3,0.1c0.5,0.2,0.9,0.4,1.4,0.5
								c0.5,0.1,0.9,0.1,1.3,0.1c0.8,0.1,1.6,0.1,2.4,0.3c0.1,0,0.1-0.1,0-0.1c0,0-0.2,0-0.3-0.1c-0.3,0-0.6-0.1-0.3-0.2
								c0.2,0,0.5,0.1,0.7,0.1c0.1,0,0.2,0.1,0.3,0.1c0.1,0,0,0.1,0,0.2c0,0.1,0,0.1,0,0.1c0,0,0,0,0,0.1c0,0.1,0,0.1,0,0.2
								c0,0.1,0,0.2,0,0.3c0,0.2,0.1,0.3,0.1,0.5c0.1,0.3,0.2,0.6,0.1,1.2c0.1-0.2,0.3-0.3,0.3,0.6c0,0.9-0.3,1.1-0.3,0.5
								c0-0.2,0-0.3,0-0.3c0-0.3-0.1-0.7-0.1-0.3l0.1,0.1c-0.1,0.4-0.1,1.7-0.2,1.4c0.1,0.7,0.1,0.3,0.1-0.2c-0.1,1.2,0,1.8-0.1,3
								c0-0.2,0.1-0.4,0.1-0.2c-0.1,1.7,0.1,0.8,0.2,2c-0.1,0.7-0.2-0.2-0.2,0.9c-0.1,0.7-0.2,0.2-0.2-0.1c0.1,1.1-0.1,2-0.1,2.6
								l-0.1-0.6c0,0.3,0,0.6,0,0.9l0.1-0.3c0,0.3,0,0.6-0.1,0.6c0.1,0.3,0.2-0.3,0.3,0.4c-0.1,0.4,0.1,1.4-0.1,1.5
								c0.1-1.4-0.2,0.2-0.2-1c0,0.2,0,0.5,0,0.8c0,0.1,0,0,0-0.1c-0.2,1.3,0.2,0.6,0.2,2c-0.1-0.2-0.2,0.3-0.2,0.6
								c0-0.6,0.2-0.3,0.2,0.2c-0.1,0.9,0.1,1,0,1.4l0-0.5c0.1,0.2,0.1,0.6,0.1,1.3c-0.1,0.1-0.1-0.6-0.1-0.3
								c0.2,0.7-0.2,1.6-0.1,2.5c-0.1,0.4-0.2,0-0.2,0.4c0.1,1.1-0.1,1.2,0,2.3c0.1-0.3,0.1-0.4,0.2,0.4l-0.1-1.9l0.2,1.2
								c0-0.6-0.1-1.2-0.1-1.5c0.1,0.6,0.1,0.5,0.2,0.2c-0.2,0.8,0.1,1.5,0,2.4l-0.3,0c-0.1,0.4,0,0.9,0,1.3c0,0.2,0,0.4,0,0.6
								c0,0.1,0,0.2,0,0.2l0,0.1l-0.1,0.1l-0.1,0l-0.2,0.1c-0.2,0.1-0.5,0.3-0.7,0.4l0.5-0.2c-0.1,0.2-0.9,0.6-1.4,0.9
								c0-0.1-0.3,0-0.6,0.1c0.1,0.1-1.1,0.6-1.1,0.9l-0.7,0.3c-1.2,0.7-1.2,1.1-2.4,1.7c0.3-0.3-0.3-0.1,0.5-0.6
								c-0.4,0.2-0.8,0.4-0.7,0.5c-0.3,0.1-1,0.8-1.4,0.9c-0.1,0.1-0.1,0.3-0.6,0.5c-0.1,0,0,0,0,0c0,0-0.6,0.5-0.2,0.4
								c-1.4,0.4-3.3,2-4.5,2.3c-0.7,0.4-2.3,1.4-3.3,2c0,0-0.1,0,0.1-0.1c-1.5,0.8-0.5,0.5-1.1,0.9c0.2,0,0.4,0,0.6,0
								c0.4,0.2-1.3,0.1-0.9,0.2c-0.5,0.2,0.2,0.2,1.1,0.1c0.9,0,1.8-0.1,2.4,0l-0.4,0c1.4,0.1,2.2-0.1,3.4-0.1c0,0-0.1,0,0,0.1
								c0.8-0.2,2.3-0.3,3.5-0.3c-0.4,0.1-0.5,0.1-0.3,0.2c0.5,0-0.1-0.2,0.9-0.3c0.3,0.1,1.1,0.2,1.2,0.3l-1,0c0.5,0.2,1.2,0,1.7,0
								l-0.1,0.1c1.5,0,1.5-0.3,3.1-0.2l-0.2-0.1c0.9-0.2,0.7,0.1,1.6,0l0.3,0.2c0.6-0.1,2-0.2,3-0.3c-0.6,0.2-1.8,0.3-2.5,0.4
								c0.6,0,1.9,0,2.2-0.1c-0.2,0-0.5,0.1-0.7,0c0.7-0.2,1.6-0.3,2.7-0.3c-0.2,0.4,2.9,0.1,3.7,0.5c2-0.2,3.9,0.1,6.3,0
								c-0.8-0.3,0.7,0,0.5-0.4c0.5,0,0.7,0,0.8,0l1.6,0.2c0.4,0.1-0.5,0.1-0.5,0.2c1.2,0,0.5,0.1,1.3,0.2c-0.2-0.1,0.4-0.2,1.1-0.1
								l-0.9-0.2c1.7-0.2,1.4,0.3,3.1,0.1l-0.5,0.1c0.9-0.1,3.2,0,4-0.3c0.2,0,0.4,0.1,0,0.2c1.2,0,5.1-0.2,7.4-0.2
								c-0.4-0.2-0.7-0.4-0.9-0.6l0.5,0.2c-0.7-0.4-1.4-0.6-1.9-1c0.1,0,0.4,0.1,0.2,0c-0.4-0.2-1.7-0.8-2.4-1.3l0.7,0.3
								c-0.3-0.2-0.7-0.4-1-0.6c-0.2-0.1-0.4-0.2-0.6-0.3c-0.4-0.2-0.7-0.4-1-0.5c-0.7-0.3-1.3-0.6-2-1c0.1-0.2-1.2-1.1-1.8-1.5l0,0
								c-2-1.2-3.5-1.8-5.4-2.8c-0.4-0.3-1-0.7-1.6-1.2c-0.6-0.4-1.3-0.8-1.9-1.2l0-0.1c0-0.2,0-0.3,0-0.5c0-0.3,0-0.7,0-1
								c0,0.3-0.2-0.1-0.2-0.4c0.1-0.5-0.2-1.4,0.1-1.3l0,0.2c0.2-0.4,0.2-1.4,0.2-2.2l-0.3-0.1c0.4-2.1-0.2-5.5,0.2-6.7
								c-0.1-0.5-0.1-1.1-0.2-1.6l0.2,0c0-1.4,0.1-2.1,0-3.9l0.1,0.4c0-1-0.5-1.2-0.5-2.1l0.2-0.3c0-1.7,0.2-3.5,0-5.1
								c0,0,0.1,0.1,0.1,0.4c0-0.8,0.2-3.1-0.2-2.8C78,83.2,78,83.2,78,83c0.1,0,0.1-0.1,0.3-0.1c0.3,0,0.6-0.1,0.8-0.1l-0.1,0.2
								c0.8-0.2,0.8-0.3,1.9-0.6c0.3,0,0.3,0.1-0.1,0.1c0.9-0.1,0.7-0.2,1.7-0.5l-0.4,0.2c0.9-0.3,0.8-0.3,1.2-0.6
								c0.5-0.2,1.6-0.6,1.8-0.5c0.1-0.1,0.5-0.4,1-0.7c0.1,0-0.1,0.1-0.1,0.2c0.7-0.3,1.1-0.7,1.5-1c0.4-0.3,0.7-0.6,1.2-0.9
								c0.1,0,0.1,0,0.2,0c-0.5,0.4-0.9,0.7-1.2,0.9c-0.3,0.2-0.5,0.3-0.5,0.3c0.1,0.1,0.9-0.4,0.4,0.2c0.3-0.2,0.7-0.7,1.1-1
								c0.4-0.4,0.8-0.8,1.2-1.1c0,0,0.1,0,0.1,0l-0.1,0.1c0.2-0.1,0.3-0.3,0.4-0.4c0.2-0.2,0.4-0.3,0.6-0.5c0.2,0,0.8-0.8,1.1-1.1
								c-0.1-0.1,0.3-0.5-0.2-0.2c0.1,0,0,0.1-0.3,0.3c0,0.1-0.1,0.1-0.1,0.2l0,0c-0.2,0.2-0.5,0.6-0.8,0.9c0.2-0.3,0.4-0.7,0.8-1
								c0.1-0.3,0.2-0.5,0.2-0.7c0.6-0.3,1.4-1.3,1.7-1.4c0.8-1.2,1.9-3,2-3.9c0.2-0.4,0.3-0.4,0.4-0.5c-0.1,0.2-0.2,0.5-0.3,0.6
								c0.4-0.8,1.1-2.2,1-2.5c0.5-0.9-0.1,0.6,0.5-0.7l0,0.2c1.5-2.5,1.2-4.5,2.6-7.3c-0.1,0.2-0.1,0.3-0.2,0.3
								c1.2-3.4,1.7-7.1,2.6-10.5c0.2-1,0.1-1.1,0.1-1.7l0.2-0.2l0-1.1c0.1-1.5,0.8-2.5,0.7-4.4l-0.1,0.2c0.1-0.7,0.1-2.1,0.3-2
								c0-0.1-0.1-0.2,0-0.5l0.1,0l0-1.7c0.1-1.3,0.4,0.2,0.5-1.6c0-0.7-0.2-2-0.3-1.7c0,0.3-0.1,0.7-0.2,0.7l0-0.6
								c-0.3-0.1-0.5-0.6-0.8,0.9l0.1,1.1l-0.2,0.3l0-0.9c-0.1,0.5-0.1,0.8,0,1.2c-0.1,0.1-0.1,0.2-0.2,0.4l0.2,1.1
								c-0.1,0.1-0.2-0.5-0.3,0.2c0.1,0.5,0.3-0.5,0.3,0.4c-0.2,0.5-0.2,0.3-0.2,1c-0.1,0.1-0.1-0.1-0.1-0.3c0,0.5-0.1,1.4,0,1.7
								c-0.2,0.5-0.2,1.8-0.4,1.7c0,0.2,0.1,1,0,1.5c-0.2-0.9-0.3,1.8-0.6,1.5c0.2,0.7-0.2,2.4-0.3,3.6c0-0.1,0-0.2,0-0.3
								c-0.1,0.7-0.3,0.8-0.4,1.2c0.2,0.1,0.1,1.2,0.1,1.7c-0.4,0.8-0.2-0.5-0.4-0.3c0.2,0-0.1,1.4,0.1,1.2
								c-0.3,0.6-0.2,0.5-0.4,0.8c0.2,0.2-0.1,0.6,0,1.1c-0.4,0.8-0.3,0.2-0.5,1.1C99,57.7,99.1,56.8,99.1,56.8z M88.9,77.5
								L88.9,77.5c0.1-0.1,0.3-0.3,0.3-0.3C89.2,77.2,89.1,77.3,88.9,77.5z M87.4,78.7c0.2-0.1,0.4-0.3,0.7-0.5
								c0.1,0,0.1,0.1-0.1,0.2C88,78.3,87.6,78.5,87.4,78.7z M91.3,76.7C91.1,77,91,77,90.9,77c0.1-0.1,0.2-0.3,0.4-0.4c0,0,0,0,0,0
								C91.3,76.6,91.3,76.6,91.3,76.7z"/>
							<path fill="#202020" d="M91.5,76.1c0,0,0-0.1,0.1-0.1C91.5,76.1,91.5,76.1,91.5,76.1c-0.1,0.1-0.1,0.1-0.1,0.1
								C91.4,76.2,91.5,76.2,91.5,76.1z"/>
							<path fill="#202020" d="M50.1,73.3L50.1,73.3C50.1,73.3,50.1,73.2,50.1,73.3C50.1,73.2,50.1,73.2,50.1,73.3z"/>
							<polygon fill="#202020" points="76.6,98.9 76.6,98.9 76.6,98.7 							"/>
							<path fill="#202020" d="M45.8,63.2c0,0,0-0.1,0-0.1C45.8,63.1,45.8,63.1,45.8,63.2z"/>
							<path fill="#202020" d="M44.4,58.7L44.3,58C44.3,58.3,44.3,58.5,44.4,58.7z"/>
							<path fill="#202020" d="M43.5,55.1C43.5,55.1,43.5,55.1,43.5,55.1L43.5,55.1L43.5,55.1z"/>
							<path fill="#202020" d="M66.9,101.8c0,0,0,0.1,0,0.1C67,102.2,66.9,102,66.9,101.8z"/>
							<path fill="#202020" d="M66.5,84.5c0,0.2,0.1,0.4,0.1,0.6C66.6,84.7,66.6,84.5,66.5,84.5z"/>
							<polygon fill="#202020" points="58.1,116.8 58.1,116.8 58,116.9 							"/>
							<path fill="#202020" d="M66.6,85.8c0-0.3,0-0.6,0-0.8C66.6,85.3,66.6,85.6,66.6,85.8z"/>
							<path fill="#202020" d="M41.3,39.6l0-0.2c0,0,0,0,0,0L41.3,39.6z"/>
							<path fill="#202020" d="M41.2,39.4l0-0.2C41.2,39.3,41.2,39.4,41.2,39.4z"/>
							<path fill="#202020" d="M41.1,38.8l0.1,0.4C41.2,39.1,41.2,38.9,41.1,38.8z"/>
							<path fill="#202020" d="M41.7,44.4L41.7,44.4C41.7,44.4,41.7,44.4,41.7,44.4z"/>
							<path fill="#202020" d="M41.9,45.8c0-0.3,0-0.9-0.1-1.4l-0.1,0C41.8,44.6,41.7,45.5,41.9,45.8z"/>
							<path fill="#202020" d="M42.1,52L42,50.8c0,0.2-0.1,0.5-0.2,0C41.9,52.3,41.9,50.4,42.1,52z"/>
							<path fill="#202020" d="M42.9,55.7c-0.2-0.6-0.1,0-0.1,0C42.9,56.1,42.9,56.2,42.9,55.7z"/>
							<path fill="#202020" d="M56.1,79.6l-0.1,0.1C56.4,79.9,56,79.6,56.1,79.6z"/>
							<polygon fill="#202020" points="61.1,81.2 60.7,80.9 60.4,81 							"/>
							<path fill="#202020" d="M64,82.9c0,0-0.2,0-0.2,0c0,0,0.9,0,0.9,0L64,82.9z"/>
							<path fill="#202020" d="M52.8,118.3l0.2,0.1C53.3,118.2,53.2,117.9,52.8,118.3z"/>
							<path fill="#202020" d="M62.7,122c0.2,0.1,0.8,0.1,1.1,0.1C63.3,122.1,62.9,122,62.7,122z"/>
							<polygon fill="#202020" points="78,104.2 78.1,104.6 78,103.8 							"/>
						</g>
					</g>
				</g>
			</g>
		</g>
	</g>
	<g>
		<g>
			<g>
				<g>
					<g>
						<path fill="#202020" d="M100.8,55.1c0-0.1-0.1-0.1-0.1-0.1l0.1,0.2L100.8,55.1z"/>
						<path fill="#202020" d="M100.1,55.2c0,0.1,0,0.3,0.1,0.4c0-0.2,0-0.2,0-0.4c0.1-0.1,0.2,0,0.2,0c0-0.1,0.1,0,0.1-0.2
							c-0.2-0.1-0.3,0-0.4,0.2C100.1,55.3,100.1,55.2,100.1,55.2z"/>
						<path fill="#202020" d="M92.5,58.7L92.5,58.7C92.6,58.7,92.6,58.7,92.5,58.7z"/>
						<path fill="#202020" d="M87.6,59.9C87.6,59.9,87.6,59.8,87.6,59.9C87.6,59.8,87.5,59.8,87.6,59.9z"/>
						<path fill="#202020" d="M86.7,59.7C86.7,59.7,86.7,59.8,86.7,59.7C86.7,59.7,86.7,59.7,86.7,59.7z"/>
						<path fill="#202020" d="M92.5,58.7l-0.2,0C92.4,58.7,92.5,58.7,92.5,58.7z"/>
						<path fill="#202020" d="M99.4,56.2C99.4,56.2,99.4,56.1,99.4,56.2L99.4,56.2L99.4,56.2z"/>
						<path fill="#202020" d="M94.6,57.7L94.6,57.7c0,0,0-0.1,0-0.1L94.6,57.7z"/>
						<path fill="#202020" d="M96.1,56.9c0,0,0,0.2,0,0.2C96.2,57.1,96.2,57.1,96.1,56.9C96.2,57,96.2,57,96.1,56.9z"/>
						<path fill="#202020" d="M98.7,55.8L98.7,55.8C98.7,55.8,98.7,55.8,98.7,55.8z"/>
						<path fill="#202020" d="M93.4,58.2C93.4,58.1,93.4,58.1,93.4,58.2C93.4,58.1,93.4,58.1,93.4,58.2z"/>
						<path fill="#202020" d="M45.6,57.3C45.6,57.3,45.6,57.3,45.6,57.3C45.6,57.3,45.6,57.3,45.6,57.3z"/>
						<polygon fill="#202020" points="43.5,56.8 43.5,56.8 43.5,56.7 						"/>
						<path fill="#202020" d="M85.1,59.6L85.1,59.6C85.1,59.6,85.1,59.6,85.1,59.6z"/>
						<path fill="#202020" d="M71.1,55.5c0.1,0.2-0.3,0.1-0.1,0.3C71,55.8,71.3,55.7,71.1,55.5z"/>
						<path fill="#202020" d="M99.3,56.2L99.3,56.2C99.3,56.2,99.3,56.2,99.3,56.2z"/>
						<path fill="#202020" d="M71,55.9L71,55.9L71,55.9C71,55.9,71,55.9,71,55.9z"/>
						<path fill="#202020" d="M81.6,59.3C81.6,59.4,81.6,59.4,81.6,59.3C81.6,59.4,81.6,59.4,81.6,59.3z"/>
						<path fill="#202020" d="M84.2,59.9L84.2,59.9C84.1,59.9,84.2,59.9,84.2,59.9z"/>
						<path fill="#202020" d="M80.2,59.2C80.1,59.1,80.1,59.1,80.2,59.2L80.2,59.2C80.1,59.1,80.1,59.1,80.2,59.2z"/>
						<polygon fill="#202020" points="78.8,58.6 78.8,58.6 78.9,58.6 						"/>
						<path fill="#202020" d="M50.1,56.7c0,0-0.1-0.1-0.1-0.1C50.1,56.7,49.9,56.7,50.1,56.7z"/>
						<path fill="#202020" d="M99.3,56.1C99.3,56.2,99.3,56.2,99.3,56.1L99.3,56.1C99.4,56.1,99.3,56.1,99.3,56.1z"/>
						<path fill="#202020" d="M79.7,60.3l-0.2-0.1C79.5,60.3,79.6,60.3,79.7,60.3z"/>
						<path fill="#202020" d="M60.9,56L60.9,56C60.8,56.1,60.8,56.1,60.9,56z"/>
						<path fill="#202020" d="M78.7,60c0-0.1,0-0.1-0.1-0.2c0,0,0,0,0,0L78.7,60z"/>
						<path fill="#202020" d="M50.1,56.5L50.1,56.5L50.1,56.5z"/>
						<path fill="#202020" d="M48.6,57.1c0.2,0,0.1-0.2,0.1-0.3c0.3-0.1,0.1,0.1,0.2,0.2c0.2-0.1,0.3-0.3,0.4-0.3c0,0,0,0,0,0.1
							c0.2-0.2,0.5-0.1,0.7-0.3c0,0,0,0,0,0c0-0.1-0.1-0.2-0.1-0.3c0.1,0,0.2-0.2,0.2,0c-0.1,0-0.1,0.1-0.1,0.1l0.1-0.1
							c0.1,0.2-0.1,0.1-0.1,0.2c0.2-0.1,0.4-0.3,0.6-0.2c0.1,0.2-0.4,0.1-0.1,0.3l-0.3,0c0.2,0.3-0.2,0,0.1,0.3
							c0.3,0,0.4-0.1,0.7-0.1c0.1-0.1,0-0.2,0-0.3c0.4-0.2,0.4,0.5,0.7,0.2c0.1-0.1,0.1-0.4,0.3-0.3l-0.1,0.2c0.3,0,0.2-0.3,0.5-0.2
							c-0.1,0.1-0.2,0.1-0.2,0.1c0.2,0.2,0.1-0.1,0.3-0.2l0.1,0.2c0.3-0.1,0.7-0.2,1.1-0.3c0,0.1-0.1,0.1,0,0.2c0.5-0.1,1,0,1.5,0
							l0.2-0.2c0,0,0.1,0.1,0,0.1c0.2,0.1,0-0.1,0.1-0.2c0.1,0,0.1,0.1,0.1,0.1c0.3-0.2,0.9-0.4,1.2-0.2l-0.1,0.1
							c0.3,0.1,0.3-0.4,0.5-0.2l0,0c0.6,0.1,1.2-0.1,1.6,0.1c0.1-0.2,0.5,0.1,0.6-0.2c0.3,0.2,0.2,0.2,0.7,0.3
							c0.1,0,0.2-0.2,0.3-0.2l0,0.2l0.2-0.2l0.1,0.2l0.1,0c-0.1,0-0.1-0.1-0.1-0.1c0.2-0.1,0.5,0.1,0.5,0.2l0.5-0.1
							c0,0.1-0.1,0.1-0.2,0.1c0.3-0.2,0,0.2,0.3,0c0,0,0-0.1,0-0.1c0.1,0.1,0.4,0.1,0.6,0.1l0,0.1c0.4,0,0.8,0,1.2,0
							c-0.1-0.1-0.1-0.3,0-0.3l0,0.2c0.1-0.1-0.1-0.1,0-0.2c0.2,0,0.1,0.2,0,0.3l0.2-0.1c0,0.1,0,0.1-0.1,0.2c0.1-0.1,0.3,0.2,0.4,0
							l0,0.1c0.4,0,0.6,0,1,0c0-0.2,0.1-0.1,0.3-0.2c0.2,0.1,0.5,0.2,0.8,0.2c0.2-0.1,0.1-0.1,0.2-0.2c0,0.1,0.3,0.2,0.1,0.3
							c0.4,0,0.5,0,0.9-0.1c0-0.1-0.1-0.1-0.1-0.1c0.1,0,0.2,0.1,0.2,0.1l0,0c0.5-0.2,1.1,0.6,1.6,0.3l0,0l0.4-0.1
							c0.2,0.1-0.1,0.1,0,0.2c0.5-0.2,0.7,0.1,1.1,0c0.2,0.5,1,0.2,1.3,0.6l0-0.1c0.1-0.1,0.1,0.1,0.2,0.1c0-0.1-0.1-0.1,0-0.2
							c0.9,0,1.6,0.6,2.4,1c0.3,0.1,0.4-0.4,0.7-0.1l-0.2,0.1c0.7,0,1.1,0.6,1.8,0.7c-0.1,0-0.1,0.1-0.1,0c0,0.2,0.4,0.2,0.5,0.1
							c0.1,0.1,0,0.1,0,0.2c0.1,0.1,0.4,0,0.4,0.2c0,0-0.1,0-0.1,0c0.1,0,0.4,0.2,0.4,0c0.2,0.2,0.5,0.2,0.6,0.3
							c0.2-0.1,0.4,0.3,0.5,0.1c-0.1,0.2,0.3,0.4,0.5,0.3c-0.1,0.1,0.1,0.1,0,0.2c0.2,0.1,0.4,0.1,0.4-0.1c0.2,0.4,0.7,0,0.8,0.4
							c0.6,0.1,1.1,0,1.6,0c-0.1,0.3-0.5-0.1-0.6,0.2c0.5,0,0.8-0.2,1.2-0.1c0.1,0.1-0.1,0.1-0.1,0.1c0.5,0,0.9,0.1,1.3,0
							c0,0,0,0-0.1,0.1c0.1,0,0.2,0,0.2-0.1l-0.1,0c-0.1-0.2,0.3-0.3,0.3-0.4c-0.1,0.3,0.4,0.1,0.2,0.5c0.1,0,0.1-0.1,0.1-0.2
							c0.1,0,0.1,0.1,0,0.2c0.3-0.1,0.2-0.2,0.4-0.2c0,0.1-0.1,0.1-0.1,0.1c0.1-0.1,0.3-0.2,0.5-0.2c0,0,0,0.1,0,0.1
							c0.4,0,0.6-0.3,1-0.3c-0.1,0.3,0.1,0.1,0.2,0.3l0.2-0.1l-0.1-0.1c0.2,0,0.3-0.2,0.5-0.1l-0.1,0.1l0.4-0.1l-0.2,0
							c0.2-0.1-0.1-0.3,0.2-0.3c0,0,0.2,0,0.3,0.1l0,0c0.1-0.1,0.2-0.2,0.3-0.1c0,0.1,0,0.2,0,0.3c0.1-0.2,0.4-0.1,0.5-0.3
							c0,0.1,0,0.2,0,0.2l0-0.2c0.1,0,0.1,0.1,0.1,0.1c0.3,0-0.1-0.2,0.2-0.2c0,0,0,0-0.1,0.1c0.3,0,0.6-0.2,0.9-0.2
							c0.1,0.2-0.2,0.1-0.1,0.3c0.4-0.1,0.8-0.5,1.2-0.5l-0.1,0c0-0.3,0.3,0,0.5-0.2c0,0,0,0.2,0,0.1c0.3,0,0.5-0.3,0.9-0.5l0,0.1
							c0.2,0,0.4-0.1,0.6-0.1c0-0.1,0.1-0.1,0-0.2c0.7,0.2,0.9-0.6,1.5-0.5c-0.1,0-0.1,0.1-0.1,0.1l0.3-0.2
							c-0.1-0.1-0.1-0.1-0.2-0.1c0-0.1,0.1-0.2,0.2-0.2c-0.1,0.2,0.1,0.2,0.2,0.2c0,0,0-0.1,0-0.1c0.3,0.1-0.1-0.3,0.3-0.2l0,0.1
							c0.1-0.1,0.1-0.2,0.3-0.2c0.1,0.1-0.1,0.1,0,0.2c0.1-0.1,0.2-0.4,0.4-0.3c0,0.1-0.1,0.1-0.2,0.2c0.2,0.1,0.2,0,0.3,0l0,0
							l0.3-0.1l-0.1,0c0-0.5,0.3-0.3,0.5-0.6c-0.1,0.3,0,0.1,0.1,0.3c0.1,0,0.2,0,0.2,0.1c0.1-0.2,0.3,0,0.3-0.3
							c0,0,0.1-0.1,0.2,0.1c0.1-0.1-0.1-0.1-0.1-0.1c0.1-0.3,0.7-0.1,0.9-0.5c0.2-0.3,0.2-0.5,0.4-0.7c0.1,0,0,0.2,0,0.2
							c0.2,0,0.3-0.1,0.4-0.2c0,0.1,0,0.1,0.1,0.1c0.1-0.1,0-0.2,0.2-0.2c0,0.1,0,0.2,0,0.3c0.1-0.1,0.2-0.3,0.3-0.4
							c0.1,0.1,0,0.2,0,0.3c0.1-0.1,0.3-0.3,0.3-0.5l-0.1,0c0,0,0.1,0.1,0.1,0.1c-0.1,0.2-0.2,0.1-0.2,0l0.1-0.1
							c-0.3-0.2-0.3,0.3-0.5,0.4l0-0.3L99.1,56c-0.1,0-0.2-0.1-0.1-0.2c-0.2,0-0.1,0.1-0.3,0.1c0,0,0,0,0,0L98.6,56
							c0-0.1-0.1-0.1,0-0.2c-0.3,0-0.3,0.4-0.5,0.3l0,0c-0.3,0.3,0.1,0.2-0.1,0.5l-0.4-0.3l0.1,0.2c0,0-0.1,0-0.1,0
							c-0.1,0.2,0.1,0.1,0,0.2c-0.2,0-0.4,0.3-0.6,0.1c0,0.1,0.2,0,0.1,0.2c-0.2-0.2-0.2,0.2-0.4,0.1c0-0.2,0.2-0.2-0.1-0.2
							c0,0.3-0.3,0.1-0.4,0.2c0.1,0.2-0.2,0.2-0.4,0.4c0-0.1-0.5,0.1-0.7,0.1l0,0c0,0.2-0.2,0.3-0.3,0.4c0-0.1,0-0.2,0-0.3l-0.1,0.1
							c0,0.1,0,0.1-0.1,0.2l0-0.2c-0.2,0.1-0.3,0.3-0.6,0.3c0,0.1,0.4,0.3,0.1,0.5c0-0.1-0.1-0.2,0-0.3c0,0-0.1,0.1-0.1,0.1l0.1-0.2
							c-0.1,0,0,0.1-0.1,0.2c0-0.1-0.1,0-0.1-0.1c0,0,0.1,0,0.1,0c-0.1,0-0.3,0-0.3-0.1c0,0.1,0.1,0.1,0,0.2
							c-0.2,0.1-0.1-0.1-0.3-0.1c0,0.1-0.2,0.1-0.1,0.2c-0.1,0-0.1,0-0.1-0.1c-0.1,0.1-0.5,0.2-0.3,0.3l0,0l0,0l0,0l0,0
							c-0.3,0.3-0.7,0.1-1.1,0.3l0-0.1c-0.2,0.1-0.4,0.2-0.6,0.4c-0.1,0-0.2-0.1-0.2-0.1c-0.1,0.1-0.1,0.1-0.4,0.1
							c0.1-0.1-0.1-0.1,0.1-0.1c-0.2,0-0.3-0.1-0.5,0.1c0-0.2-0.2-0.1-0.3-0.1l0.2,0.1c-0.1,0-0.2,0.1-0.3,0.1l0-0.2
							c-0.5-0.1-0.7,0.6-1.1,0.2c-0.1,0.2,0.2,0.1,0.2,0.2c-0.2,0-0.5-0.2-0.5-0.2c-0.3-0.1-0.2,0.3-0.5,0.3c0,0.1,0.1,0.2-0.1,0.3
							c-0.2,0-0.3-0.2-0.2-0.3c0,0,0.1,0,0.1,0c0.1,0,0.1-0.1,0.1-0.1l0,0.1c-0.1-0.1-0.4,0-0.3-0.1c-0.1,0.1,0,0.1,0.1,0.1
							c-0.3-0.1-0.4,0-0.7,0c0,0,0.1,0.1,0,0.1c-0.4-0.1-0.2,0.1-0.4,0.2c-0.2-0.1,0-0.3-0.2-0.1c-0.2-0.1,0-0.2,0-0.2
							c-0.2,0.2-0.4-0.1-0.6-0.1l0.1-0.1c-0.1,0-0.1,0-0.2,0l0.1,0.1c-0.1,0-0.1,0-0.1-0.1c-0.1,0.1,0.1,0.2-0.1,0.4
							c-0.1-0.1-0.3,0.1-0.3-0.1c0.3,0.1,0-0.2,0.2-0.2c0,0-0.1,0-0.2,0c0,0,0,0,0,0c-0.3-0.2-0.1,0.2-0.4,0.2
							c0-0.1-0.1-0.2-0.1-0.2c0.1,0,0.1,0.2-0.1,0.2c-0.2-0.1-0.2,0.1-0.3,0l0.1,0c0,0.1-0.1,0.1-0.3,0.1c0-0.1,0.1-0.1,0.1-0.1
							c-0.2,0.2-0.3-0.2-0.5-0.1c-0.1-0.1,0-0.2-0.1-0.2c-0.2,0.1-0.2-0.2-0.5-0.1c0.1,0.1,0.1,0.1-0.1,0.2l0.4,0L83,59.9
							c0.1,0,0.3,0,0.3,0c-0.1,0.1-0.1,0.1-0.1,0.2c-0.1-0.2-0.3,0.1-0.5-0.1l0.1-0.3c-0.3-0.2-0.5,0.1-0.9-0.1l0.1,0.1
							c-0.1,0.1-0.2,0-0.4,0c0-0.1,0-0.2-0.1-0.2c0,0.1-0.3-0.1-0.3,0.1l-0.1-0.2c-0.3-0.1-0.4,0.2-0.7,0.1c0.1-0.1,0-0.2,0.2-0.2
							c-0.1,0-0.2-0.1-0.2,0c0-0.1-0.3,0.1-0.4-0.1c-0.1,0-0.1,0.1-0.2,0.1c0,0,0-0.1,0-0.1c0,0.1-0.2,0-0.1,0.2
							c-0.2-0.4-0.8-0.3-0.9-0.7c-0.2-0.1-0.5-0.1-0.6-0.2c0,0,0,0,0.1,0c-0.2-0.2-0.3,0.2-0.5,0c-0.1-0.2,0.2,0,0.1-0.1
							c0.2-0.3-0.4-0.1-0.5-0.4l0.1,0c-0.1-0.2-0.4-0.1-0.7-0.2c0,0,0,0,0,0c-0.3,0.1-0.6,0-0.8-0.1c0.1-0.1,0.1,0,0.2-0.2
							c-0.1,0-0.1,0.2-0.3,0.2c0-0.1-0.2-0.2-0.1-0.4c0,0,0.2,0.1,0.2,0.1c0-0.2-0.3-0.1-0.4-0.2l0-0.1c-0.3-0.1-0.4,0.1-0.7,0
							l0,0.1c-0.3,0.1-0.1-0.2-0.4-0.1l0-0.2c-0.1,0-0.5,0.1-0.7,0c0.2-0.1,0.5-0.1,0.6-0.2c-0.1,0-0.4-0.1-0.5,0c0.1,0,0.1,0,0.2,0
							c-0.2,0.1-0.4,0.1-0.7,0.1c0.2-0.4-0.6-0.3-0.7-0.6c-0.5,0.1-0.9-0.3-1.4-0.4c0.1,0.4-0.2,0-0.2,0.3c-0.1,0-0.2,0-0.2,0
							l-0.3-0.3c-0.1-0.1,0.1-0.1,0.1-0.1c-0.3-0.1-0.1-0.2-0.2-0.3c0,0.1-0.1,0.2-0.3,0.1l0.2,0.2c-0.4,0.1-0.3-0.3-0.7-0.2
							l0.1-0.1c-0.2,0-0.7-0.1-0.9,0.1c0,0-0.1-0.1,0-0.2c-0.5-0.1-1.1,0.1-1.4,0l0-0.1c-0.1,0-0.2,0.1-0.3,0.1c0,0,0-0.1,0-0.1
							c0,0-0.2,0.1-0.4,0.1l0.1-0.1c-0.4-0.2-0.7,0.2-1.1,0.2c0-0.3-0.3-0.4-0.5-0.4l0,0c-0.5-0.1-0.9,0.2-1.4,0.2
							c-0.3-0.3-1-0.2-1.5-0.3c0.1,0,0,0.2-0.1,0.2c-0.1-0.1-0.3,0.2-0.3-0.1l0,0c-0.1-0.2-0.3-0.2-0.5-0.2l0,0.3
							c-0.5-0.4-1.2,0.2-1.5-0.2c-0.1,0.1-0.3,0.1-0.4,0.2l0-0.2c-0.3,0-0.5-0.1-0.9,0l0.1-0.1c-0.2,0-0.3,0.5-0.5,0.5l-0.1-0.2
							c-0.4,0-0.8-0.2-1.2,0c0,0,0-0.1,0.1-0.1c-0.2,0-0.7-0.1-0.6,0.2c0-0.2-0.4,0-0.6,0.1l0-0.2c-0.2,0.2-0.2,0.3-0.4,0.3
							c-0.1,0-0.1-0.1,0-0.1c-0.2-0.1-0.1,0.2-0.4,0.1l0.1-0.1c-0.2,0-0.2,0.1-0.3,0.2c-0.1,0.1-0.4,0-0.4-0.2
							c0,0.1-0.1,0.2-0.2,0.2c0-0.1,0-0.1,0-0.1c-0.3-0.1-0.5,0.2-0.7,0.1c0-0.1,0-0.1,0-0.1c0.3,0,0.5,0,0.5,0
							c0-0.1-0.2-0.2-0.1-0.4c-0.2,0.1-0.4,0.4-0.7,0.3c0,0,0,0,0,0l0,0c0,0-0.1,0-0.1,0c-0.1,0-0.1,0-0.2,0c0-0.1-0.3,0-0.4,0
							c0,0.2-0.1,0.1,0,0.3c0,0,0,0,0.1,0c0,0,0,0,0,0l0,0c0.1,0,0.2,0,0.3,0c-0.1,0.1-0.2,0.2-0.3,0.1c0,0.1-0.1,0.2-0.1,0.3
							c-0.2-0.2-0.5-0.3-0.5-0.4c-0.3,0.1-0.8,0.1-0.9,0.4c-0.1,0-0.1-0.1-0.2-0.1c0.1,0,0.1,0,0.1-0.1c-0.2,0.1-0.5,0.1-0.6,0.3
							c-0.2-0.1,0.1-0.2-0.2-0.1l0-0.1c-0.7-0.3-1,0.6-1.7,0.3c0.1,0,0.1,0,0.1,0.1c-0.8-0.1-1.6,0.4-2.4,0.2
							c-0.2,0-0.2,0.1-0.4,0.2L46.3,56l-0.2,0.2c-0.3,0.2-0.6-0.3-1,0l0.1,0.1c-0.2,0-0.5,0.1-0.5,0c0,0,0,0.1-0.1,0.1l0-0.1
							l-0.3,0.2c-0.3,0,0-0.4-0.4-0.3c-0.1,0.1-0.4,0.3-0.3,0.4c0.1,0,0.2,0,0.2,0.1l-0.1,0.1c0,0.3,0,0.6,0.3,0.7l0.2-0.2l0.1,0.1
							l-0.2,0c0.1,0.1,0.2,0,0.3-0.1c0,0.1,0.1,0.1,0.1,0.1l0.2-0.3c0,0.1-0.1,0.2,0.1,0.3c0.1-0.1-0.1-0.2,0-0.3
							c0.1,0.1,0.1,0.2,0.2,0.1c0,0.1,0,0.1,0,0.2c0.1-0.1,0.3-0.1,0.4-0.2c0.1,0.1,0.4-0.1,0.4,0.2c0-0.1,0.2-0.2,0.3-0.3
							c-0.2,0.3,0.4,0,0.4,0.3c0.1-0.3,0.5-0.2,0.8-0.4c0,0,0,0.1-0.1,0.1c0.2,0,0.2,0.1,0.3,0.1c0-0.2,0.2-0.3,0.3-0.5
							c0.2,0.2-0.1,0.3,0,0.5c0-0.2,0.3-0.2,0.2-0.4c0.2,0.1,0.1,0.1,0.2,0.2c0-0.3,0.1-0.1,0.2-0.2c0.2,0.1,0.1,0.3,0.3,0.1
							C48.7,57,48.6,57.1,48.6,57.1z M53.8,56.1L53.8,56.1c0,0-0.1,0-0.1,0C53.7,56.1,53.7,56.1,53.8,56.1z M54.2,56.1
							c-0.1,0-0.1,0-0.2,0c0-0.1,0-0.1,0-0.1C54,56,54.1,56,54.2,56.1z M53.2,55c0.1,0,0.1,0,0.1,0C53.3,55.1,53.2,55.1,53.2,55
							L53.2,55C53.2,55.1,53.2,55,53.2,55z"/>
						<path fill="#202020" d="M53.1,55.2C53.1,55.2,53.1,55.2,53.1,55.2C53.1,55.3,53.1,55.3,53.1,55.2L53.1,55.2L53.1,55.2z"/>
						<path fill="#202020" d="M92.6,58.7L92.6,58.7C92.6,58.7,92.6,58.7,92.6,58.7C92.6,58.7,92.6,58.7,92.6,58.7z"/>
						<polygon fill="#202020" points="60.4,56.1 60.4,56.1 60.3,56.1 						"/>
						<path fill="#202020" d="M95.1,58.3C95.1,58.3,95.1,58.3,95.1,58.3C95.1,58.3,95.1,58.3,95.1,58.3z"/>
						<path fill="#202020" d="M96.1,57.9l0.2,0C96.2,57.8,96.1,57.8,96.1,57.9z"/>
						<path fill="#202020" d="M96.9,57.6C96.9,57.5,96.9,57.5,96.9,57.6L96.9,57.6L96.9,57.6z"/>
						<path fill="#202020" d="M84.2,61C84.2,61,84.2,61,84.2,61C84.1,61,84.1,61,84.2,61z"/>
						<path fill="#202020" d="M88.1,60.4c0,0-0.1,0.1-0.1,0.1C88.1,60.5,88.1,60.5,88.1,60.4z"/>
						<polygon fill="#202020" points="79.7,60.3 79.7,60.3 79.7,60.3 						"/>
						<path fill="#202020" d="M87.8,60.5c0.1,0,0.1,0,0.2,0C87.9,60.5,87.9,60.5,87.8,60.5z"/>
						<path fill="#202020" d="M100,55.8L100,55.8C100,55.8,100,55.8,100,55.8L100,55.8z"/>
						<path fill="#202020" d="M100,55.8L100,55.8C100,55.7,100,55.8,100,55.8z"/>
						<path fill="#202020" d="M100.1,55.6L100.1,55.6C100.1,55.7,100.1,55.7,100.1,55.6z"/>
						<path fill="#202020" d="M99,56.3L99,56.3C99.1,56.4,99,56.4,99,56.3z"/>
						<path fill="#202020" d="M98.8,56.5c0.1,0,0.2,0,0.3-0.1l0,0C99.1,56.5,98.8,56.4,98.8,56.5z"/>
						<path fill="#202020" d="M97.2,56.6l0.3-0.1c-0.1,0-0.2-0.1-0.1-0.1C97,56.3,97.5,56.4,97.2,56.6z"/>
						<path fill="#202020" d="M96.4,56.9c0.1-0.1,0-0.1-0.1-0.1C96.3,56.9,96.3,56.9,96.4,56.9z"/>
						<path fill="#202020" d="M90.8,59.2l0-0.1C90.6,59.1,90.7,59.1,90.8,59.2z"/>
						<polygon fill="#202020" points="89.8,60.2 89.9,60.3 90,60.1 						"/>
						<polygon fill="#202020" points="88.9,59.3 88.9,59.3 88.8,59.4 						"/>
						<path fill="#202020" d="M79.1,58.6l0,0.2C79.2,58.7,79.3,58.6,79.1,58.6z"/>
						<path fill="#202020" d="M74.9,56.8c0-0.1-0.1-0.2-0.2-0.1C74.8,56.7,74.9,56.8,74.9,56.8z"/>
						<polygon fill="#202020" points="61.6,54.7 61.6,54.6 61.5,54.7 						"/>
					</g>
				</g>
			</g>
		</g>
	</g>
</g>
</svg>
