<?xml version="1.0" encoding="utf-8"?>
<!-- Generator: Adobe Illustrator 18.0.0, SVG Export Plug-In . SVG Version: 6.00 Build 0)  -->
<!DOCTYPE svg PUBLIC "-//W3C//DTD SVG 1.1//EN" "http://www.w3.org/Graphics/SVG/1.1/DTD/svg11.dtd">
<svg version="1.1" id="Layer_1" xmlns="http://www.w3.org/2000/svg" xmlns:xlink="http://www.w3.org/1999/xlink" x="0px" y="0px"
	 viewBox="0 0 144 144" enable-background="new 0 0 144 144" xml:space="preserve">
<g>
	<g>
		<g>
			<g>
				<g>
					<g>
						<path fill="#202020" d="M103.9,43.3c-0.2,0-0.1,0.2,0.4,0.1l0.3-0.2C104.5,43.2,103.9,43.3,103.9,43.3z"/>
						<path fill="#202020" d="M106.8,42.6c0.4-0.4,0.7-1,0.3-0.9c-0.2,0.5-0.4,0.5-0.7,1c-0.4,0.3-0.7,0.3-0.7,0.2
							c-0.1,0.1-0.7,0.2-0.9,0.4c0.6,0,1.4-0.3,1.9-0.9C106.9,42.4,106.8,42.6,106.8,42.6z"/>
						<path fill="#202020" d="M75.8,29l0.3,0C76,29,75.9,29,75.8,29z"/>
						<path fill="#202020" d="M46.9,28.5c0.2,0,0.3,0,0.3,0C47,28.4,46.8,28.4,46.9,28.5z"/>
						<path fill="#202020" d="M41.8,28.8c0.1,0,0.2,0,0.3,0C42,28.7,41.9,28.7,41.8,28.8z"/>
						<path fill="#202020" d="M75.8,29L75,28.9C75,29,75.4,29,75.8,29z"/>
						<path fill="#202020" d="M108.9,36.9c0,0.2,0,0.3,0,0.4L108.9,36.9C108.9,36.9,108.9,36.9,108.9,36.9z"/>
						<path fill="#202020" d="M88.5,28.6l0.2,0c0.1,0,0.1-0.1,0.2-0.1L88.5,28.6z"/>
						<path fill="#202020" d="M98.3,28.1c-0.2,0-0.3,0.2-0.4,0.2c0.1-0.1,0.3-0.1,0.5-0.1C98.4,28.2,98.3,28.1,98.3,28.1z"/>
						<path fill="#202020" d="M109.6,34.8l0,0.3C109.6,35,109.6,34.8,109.6,34.8z"/>
						<path fill="#202020" d="M81.5,28.7C81.5,28.7,81.5,28.7,81.5,28.7C81.4,28.7,81.5,28.7,81.5,28.7z"/>
						<path fill="#202020" d="M41,60.5C41,60.5,41,60.5,41,60.5C41,60.5,41,60.5,41,60.5z"/>
						<path fill="#202020" d="M37.8,49.6l0,0.1c0,0,0.1,0,0.1,0L37.8,49.6z"/>
						<path fill="#202020" d="M33.6,33.1C33.6,33.1,33.6,33.1,33.6,33.1C33.8,32.9,33.7,33,33.6,33.1z"/>
						<path fill="#202020" d="M100.8,44.1c-0.9-0.2,1.5-0.1,0.1-0.3C101.1,43.8,99.7,43.9,100.8,44.1z"/>
						<path fill="#202020" d="M108.9,36.7l0-0.4C108.9,36.5,108.9,36.6,108.9,36.7z"/>
						<path fill="#202020" d="M101,43.7L101,43.7l-0.1,0C100.9,43.7,100.9,43.7,101,43.7z"/>
						<path fill="#202020" d="M39.4,51.1c0,0-0.1-0.1-0.2-0.1C39.1,51,39.2,51,39.4,51.1z"/>
						<path fill="#202020" d="M31.7,38.4l-0.1,0.4C31.6,38.6,31.6,38.5,31.7,38.4z"/>
						<path fill="#202020" d="M47.4,49.6c0.2,0,0.3,0,0.6-0.1c0,0-0.1,0-0.1,0C47.8,49.6,47.7,49.6,47.4,49.6z"/>
						<path fill="#202020" d="M55.5,47.4c0,0-0.1,0-0.2,0c-0.1,0-0.2,0-0.3,0.1L55.5,47.4z"/>
						<path fill="#202020" d="M56.5,80.9c-0.1-0.2-0.1-0.3-0.2-0.4C56.3,80.7,55.4,79.9,56.5,80.9z"/>
						<path fill="#202020" d="M109,36.9c0-0.1-0.1-0.1-0.1-0.2C108.9,36.8,108.9,36.8,109,36.9C109,37,109,37,109,36.9z"/>
						<path fill="#202020" d="M47.4,48.3l1.3-0.3C48.4,48.1,47.9,48.2,47.4,48.3z"/>
						<path fill="#202020" d="M87.8,91.7L87.7,92C87.7,91.9,87.8,91.8,87.8,91.7z"/>
						<path fill="#202020" d="M52.5,46.9c0.2,0,0.5,0,0.8-0.1c0.1,0,0.1-0.1,0.1-0.1L52.5,46.9z"/>
						<path fill="#202020" d="M56.3,80.6L56.3,80.6L56.3,80.6z"/>
						<path fill="#202020" d="M50.1,74.3c0.8,1,0.5,0.3,0.8,0.5c1,1.1,0.3,0.6,0.6,1.1c0.7,0.7,1.3,1.1,1.8,1.6c0,0.1,0.1,0.2,0,0.1
							c0.8,0.6,2,2.2,3,2.9c0,0.1,0.1,0.1,0.1,0.1c-0.1-0.2,0-0.3,0.1-0.3c0.4,0.4,0.8,0.7,0.9,0.9c-0.2-0.2-0.3-0.2-0.5-0.3
							l0.5,0.4c0.2,0.5-0.6-0.5-0.7-0.4c0.9,0.8,1.9,1.6,2.6,2.3c0,0.3-1.5-1.4-0.8-0.5l-0.9-1c0.5,1-0.6-0.6-0.1,0.3
							c1.2,1.3,1.5,1.4,2.8,2.7c0.4,0.2,0-0.2,0.4,0c2,1.6,1.1,1.7,2.7,2.9c0.4,0.2,0.8,0.2,1.6,1.2l-0.5-0.2c1.2,1.3,0.9,0.5,2,1.9
							c-0.3-0.2-1-1-0.8-0.8c0.7,1,0.7,0.5,1.2,1.2l0,0.3c1.2,1.4,2.5,3,3.6,4.7c-0.1-0.1-0.3-0.3-0.1,0.1c1.4,2.2,2.7,4.8,3.8,7.1
							l0.6,0.8c0.1,0.2,0.1,0.4,0,0.2c0.4,0.9,0.1,0,0.4,0.4c0.3,0.5,0.3,0.7,0.1,0.4c0.5,0.7,1.1,1.8,1.8,2.9
							c0.3,0.5,0.6,1.1,0.9,1.6c0.2,0.3,0.3,0.6,0.4,0.9c0.2,0.4,0.4,0.8,0.5,1.1l-0.3-0.5c0.6,1.1,0.9,1.6,1.2,1.9l0.1,0.1
							c0,0,0-0.1,0-0.1l0.1-0.3c0-0.2,0.1-0.3,0.1-0.5c0.1-0.3,0.2-0.7,0.4-1.1l-0.1,0.4c0.2-0.5,0.4-1.1,0.5-1.6l0.4-1.1
							c0.3-0.7,0.5-1.5,0.8-2.2c0.5-1.4,1.1-2.8,1.6-3.8c-0.1-0.5,1.3-2.8,1-3.1c0.8-1.6,0.7-1.1,1.8-3.3c0.3-0.6,0.2-1,0.5-1.8
							l0.2,0.1l0.3-1.1l0.4-0.5l0.3-0.7c-0.1,0.3-0.3,0.6-0.4,0.5c0.4-1.1,1.2-2.7,1.3-2.7l0.9-2.7c0,0.1-0.1,0.5-0.2,0.9
							c0.4-1.5,0.3-0.2,0.6-1.6c-0.1,0.2-0.1-0.1-0.1-0.2c0.4-0.6,0.9-2.1,1.2-3.2l0,0.3c0.7-2,1.3-4.3,1.9-6.6
							c-0.3,0.8-0.4,0.6-0.3-0.1l0.2-0.2c0-0.5-0.2,0.7-0.2-0.2c0.2-0.9,0.3-0.5,0.3,0l0.2-1.1c0.1,0,0,0.2,0.1,0.3
							c0-0.5,0.6-1.8,0.5-2.5l0.1,0c0.5-2.3,0.6-3.4,1-5.3c-0.2-0.1,0-0.8,0-1.4c0.3-1.4,0.8-2.9,1.2-4.5c0.2-1.2,0-0.4,0-0.9
							c0.2,0,0.6-1.7,0.5-0.8c0.6-1.9,0.7-2.5,1.7-4.8c-0.2,0.2-0.3,0.5-0.3,0.3c0.2-0.4,0.5-0.9,0.5-0.8l0,0.1
							c0.6-1.3,1.5-2.7,2.5-3.9c1-1.2,2.1-2.2,2.8-3.3l-0.1,0.1c0,0,0.4-0.5,0.7-1c0.3-0.5,0.6-1.1,0.6-1.1c0.6-1-0.3,0.7,0.3,0
							c0.1-0.2,0.2-0.4,0.2-0.5c0.1-0.2,0.2-0.5,0.3-0.7c0.2-0.4,0.3-0.9,0.4-1.3c-0.8-0.1-1.6-0.2-2.3-0.2c-1-0.1-1.9-0.2-2.9-0.2
							c-1.6-0.5-5.9-0.2-8.1-0.4l0.1,0.1c-0.6,0.1-0.7,0-1.1-0.1c0.1,0.1,0.6,0.1,0.3,0.1c-4.9,0.2-10.1,0.4-15.1,0.9
							c-1.8,0.2-1,0.7-3.3,0.7l0.6-0.3c-3.6,0.7-7.4,0.8-11,1.3c0.2-0.1,0.2-0.1,0.6-0.1c-0.8-0.1-2.8,0.2-2.8,0.4
							c-0.6,0-0.1-0.1-0.5-0.1c-0.8,0-1.9,0.4-2.3,0.3c-0.1,0,0.2-0.1,0.3-0.1c-0.5,0.1-2.3,0.4-1.8,0.4c-1.4,0.2-2.6,0.6-3.6,0.8
							c-0.6,0.4-2.3,0.5-2.4,0.8c0-0.3-2.3,0.5-3.1,0.8c0.3-0.2-0.7,0.1-0.4-0.1c-0.9,0.3-1.8,0.5-1.6,0.6c-1.8,0.1-3.5,0.9-4.5,0.6
							c-1.4,0.2-2.7,0.3-3.9-0.1c-1.1-0.4-2-1.3-2.7-2.4c0.1,0,0.5,0.6,0.9,1c0.4,0.5,0.9,0.8,0.9,0.7c-0.9-0.6-1.5-1.3-1.9-2.1
							c-0.5-0.8-0.9-1.7-1.2-2.8c-0.1-0.6,0.2,0.3,0.3,0.5c-0.8-2.3-1.2-4.5-1-6.5c0,0,0,0.2,0,0.4c0-0.4,0.2-0.9,0.1-0.9l-0.1,0.4
							c-0.1,0.3-0.2-0.1-0.1-0.6c0.1-0.5,0.2-1.1,0.2-1.2c0,0.4,0.2-0.1,0.5-0.5c0.3-0.4,0.5-0.7,0.4-0.1c0.1-0.2,0.3-0.5,0.2-0.5
							c0.2-0.3,0.4-0.4,0.2,0c0.4-0.6,0.5-0.8,0.6-1c0.1-0.2,0.2-0.4,0.7-0.8c0,0-0.1,0.3-0.2,0.4c0.4-0.6,0.9-1.1,1.9-1.7
							c0,0.1,0.1,0-0.2,0.2c1.6-1.1,2.9-1.9,5.1-2.2c-0.6,0.4,0.8-0.1,0.9,0.1c0,0,0.3-0.1,0.6-0.1c0.3-0.1,0.6-0.1,0.6-0.1
							l-0.5-0.1c1-0.1,1.9-0.3,2.8-0.3l-0.8,0.1c0,0,0.5,0,1-0.1c0.5,0,1,0,1,0l-1.1-0.1c1.1-0.1-0.1-0.3,1.3-0.2
							c-0.3,0,1.1,0,1.6,0.2l0,0c0.5-0.1,1.1-0.1,1.8,0c0.2,0.1-0.2,0.2,0,0.3c0.5-0.2,2.5,0,3.1-0.1c-0.2,0-0.2,0.1-0.2,0.2
							l0.4-0.1c0.5,0.1,0.6,0.1,0.5,0.2c1.5,0.1-0.5-0.3,1.3-0.1c-0.1,0-0.1,0-0.4,0c1.8,0.1,3.4,0,5,0.1c0.5,0.2-1.4,0-0.9,0.2
							c2.3,0,4.8-0.2,7.1-0.1l-0.4,0c0.3-0.3,1.7,0.2,2.8,0c-0.3,0-0.4,0.2-0.3,0.1c1.5,0.1,3.2-0.1,5.5-0.2l-0.3,0.1
							c0.9,0.1,2.4,0,3.4,0c0.3-0.1,0.9-0.1,0.5-0.2c3,0.4,5.8-0.4,8.5-0.1c-0.3,0-0.8,0.1-0.5,0.1l2.3-0.1
							c-0.2-0.1-0.3-0.1-0.8-0.2c0.3-0.1,0.9-0.2,1.5-0.2c-1,0.1,0,0.2,0.5,0.3c-0.1,0,0.1-0.1,0-0.1c1.2,0.2,0.2-0.3,1.8-0.2
							L91.6,29c0.6-0.1,1.2-0.2,1.8-0.2c0.3,0.1-0.6,0.1-0.7,0.2c0.9-0.1,1.8-0.4,2.7-0.3c-0.4,0.1-1,0.1-1.3,0.1
							c0.9,0.1,1,0.1,1.7,0.1l-0.1,0l1.6,0l-0.4,0c1.1-0.5,2.3-0.2,3.9-0.6c-1.5,0.3-0.2,0.2-0.3,0.3c0.4,0,1,0,0.8,0.1
							c0.7-0.2,1.2,0,2.2-0.2c0,0,0.8,0,0.6,0.2c0.9,0-0.2-0.1-0.1-0.2c1.4-0.1,3.4,0.6,4.6,2.1c0.5,0.7,0.6,1.2,0.7,1.7
							c0.1,0.5,0.2,1,0.3,1.9c-0.1,0.6-0.2-0.5-0.2-0.5c-0.1,0.9,0,1.6,0,2.5c0-0.2-0.1,0-0.2,0.3c0,0.7,0.2,0.5,0,1.4
							c0-0.2-0.1-0.4-0.1-0.7c0,0.8-0.1,1.6-0.3,2.4c-0.2,0.2,0-0.5,0-0.8c-0.1,0.4-0.3,1-0.5,1.5c-0.2,0.5-0.4,0.9-0.4,1
							c0,0,0.1-0.1,0.2-0.2c0.1-0.1,0.2-0.2,0.2-0.2c-0.2,0.3-0.2,0.1-0.1-0.1c0.3-0.7,0.5-1,0.6-1c0,0,0,0.1-0.1,0.3
							c-0.1,0.1-0.1,0.3-0.1,0.3c0.3-0.2,0.5-0.8,0.6-1.5c0.1-0.7,0.1-1.4,0.2-2l0.2,0.5c0,0,0-0.3,0-0.6c0-0.3-0.1-0.6-0.1-0.6
							c0.1-0.3,0.2-0.4,0.2,0.2c0.1-0.9-0.1-0.8,0.1-1.5c0-0.1,0,0,0,0l-0.1-0.9c0.1,0.2,0.2-0.1,0.1,0.4c0.1-1.6-0.3-2.5-0.3-3.1
							l0.1,0.1c-0.2-0.5-0.4-0.8-0.5-0.9c-0.1-0.1-0.1-0.1-0.1-0.1c0,0.1,0,0.1-0.6-0.4c0,0-0.1-0.3-0.3-0.5
							c-0.1-0.3-0.3-0.5-0.3-0.5s-0.3,0-0.3,0c-0.2-0.1-0.6-0.3-0.5-0.3c-0.8-0.2,0.1,0.1-0.4,0.1c-1-0.5-2.9-0.4-3.1-0.6
							c-0.4,0.1,1,0.1-0.1,0.2c-0.3-0.3-1.3,0.1-2.3,0c0.3-0.2,1.2-0.1,0.2-0.2c-0.6,0.3-1.9,0.1-2.7,0.1c0,0.2-1.8,0.2-3.1,0.3
							c0.1-0.1-2.6,0-3.9,0l0,0c-0.2,0.2-1.6,0.2-2.5,0.3c0-0.1,0.2-0.2,0.7-0.3l-0.9,0c-0.2,0.1-0.5,0.1-1.1,0.2l0.2-0.2
							c-1.2,0.1-2.4,0.3-3.9,0.2c-0.1,0.1,1.2,0.4-0.4,0.5c-0.1-0.1-0.1-0.2,0.3-0.3c-0.1,0-0.5,0.1-0.8,0.1l0.6-0.2
							c-0.7,0-0.4,0.1-0.9,0.1c0-0.1-0.4-0.1-0.3-0.2c0.1,0,0.5,0,0.7,0c-0.6,0-1.4-0.1-1.7-0.1c0.1,0.1,0,0.2-0.5,0.2
							c-1.2,0-0.4-0.1-1.1-0.2c-0.3,0.1-1.1,0-1.1,0.2c-0.4,0-0.4-0.1-0.6-0.1c-0.6,0.1-2.9,0.1-2.2,0.2l0.2,0c0,0-0.1,0-0.1,0
							c0,0,0,0,0,0l0,0c-2,0.2-4.2-0.1-6.2,0l0-0.1c-1.2,0.1-2.7,0-3.5,0.1c-0.4,0-0.8-0.1-0.7-0.2c-0.9,0-1,0.1-2.3,0
							c0.9-0.1-0.3-0.1,0.9-0.1c-1.2-0.1-1.5-0.2-2.7,0c0.4-0.1-0.9-0.2-1.5-0.2l0.8,0.1c-0.6,0-1.2,0-1.8,0l0.3-0.2
							c-2.4-0.3-4.4,0.3-6.3-0.2c-0.7,0.1,1.3,0.1,0.7,0.3c-1.1-0.1-2.3-0.4-2.6-0.4c-1.5-0.2-1.4,0.2-3.1,0.1
							c0.2,0.1,0.4,0.2-0.8,0.3c-1.1,0-1.4-0.3-0.7-0.3c0.3,0,0.4,0,0.4,0c0.4,0,0.8-0.1,0.4-0.1l-0.1,0.1c-0.6-0.1-2.1,0-1.8-0.1
							c-0.9,0.1-0.4,0.1,0.3,0.1c-1.5,0-2.3,0.1-3.8,0.4c0.2,0,0.5,0,0.2,0.1c-1.1,0.2-1.3,0.3-1.5,0.4c-0.1,0.1-0.2,0.1-0.9,0.4
							c-0.8,0.2,0.2-0.4-1.2,0.3c-0.9,0.3-0.3-0.1,0.1-0.3c-1.3,0.7-2.4,1.1-3.1,1.6c0,0,0.1-0.1,0.3-0.2c0.2-0.1,0.3-0.2,0.3-0.2
							c-0.4,0.3-0.7,0.5-1,0.7l0.4-0.1c-0.4,0.2-0.7,0.5-0.7,0.4c-0.3,0.4,0.4,0-0.2,0.6c-0.5,0.3-1.2,1.3-1.4,1.4
							c1.2-1.4-0.3,0,0.7-1.2c-0.2,0.2-0.5,0.5-0.8,0.8c-0.1,0,0-0.1,0.1-0.2c-0.6,0.7-0.7,0.9-0.8,1.1c-0.1,0.2-0.1,0.4-0.5,1.3
							c0-0.3-0.4,0.3-0.4,0.6c0.3-0.7,0.3-0.3,0.1,0.4c-0.4,1.1-0.3,1.3-0.4,1.9c0,0,0.1-0.7,0.1-0.7c0.1,0.3-0.1,0.8,0,1.6
							c-0.1,0.1,0-0.7-0.1-0.4c0.1,0.9-0.1,2.1,0.3,3.2c0.1,0.6-0.2,0.1-0.1,0.6c0.5,1.3,0.2,1.5,0.8,2.8c0-0.4-0.1-0.5,0.4,0.4
							c0,0-0.3-0.5-0.5-1.1c-0.2-0.6-0.4-1.1-0.4-1.1s0.2,0.4,0.3,0.7c0.2,0.3,0.3,0.7,0.3,0.7c-0.2-0.7-0.5-1.4-0.6-1.8
							c0.3,0.7,0.2,0.6,0.3,0.2c0.1,1,0.7,1.8,1,2.9l-0.3,0.1c0.3,0.8,0.7,1.5,1.3,2.2c0.6,0.6,1.3,1.3,2.4,1.8c0,0-0.2-0.1-0.3-0.2
							c-0.2-0.1-0.3-0.2-0.3-0.2c0.3,0.1,1.3,0.6,2.1,0.6c-0.1,0.1,0.4,0.2,0.7,0.3c0-0.1,1.7,0,1.8-0.3c0,0,0.2,0,0.5,0
							c0.2,0,0.5,0,0.5,0c1.8-0.2,2-0.6,3.6-0.9c-0.5,0.2,0.3,0.1-0.8,0.5c0.6-0.1,1.1-0.2,1.1-0.3c0.3,0,1.5-0.5,2-0.6
							c0.2-0.1,0.3-0.2,0.9-0.4c0.1,0,0,0.1,0,0.1c0-0.1,0.9-0.3,0.4-0.3c1.8-0.1,4.7-1.4,6.2-1.4c1.2-0.3,2.6-0.6,3.7-0.8
							c-0.1,0,0,0.1-0.2,0.1c1.5-0.1,0.9-0.5,2.6-0.5c0.9,0.1-0.9,0.2-0.4,0.2c0.3,0.3,2.1-0.3,3.3-0.1l-0.3,0
							c0.9,0.1,2.2-0.3,3.7-0.4c0,0-0.1,0,0,0.1c1-0.3,2.9-0.5,4.3-0.8c-0.4,0.2-0.6,0.1-0.3,0.3c0.6-0.1-0.2-0.2,1-0.4
							c0.4,0,1.3,0,1.5,0.1l-1.2,0.2c0.6,0.1,1.5-0.2,2.2-0.2l-0.1,0.1C77,45,77,44.8,79,44.5l-0.2,0c1-0.3,0.9,0,2-0.3l0.3,0.2
							c0.7-0.1,2.4-0.5,3.7-0.6c-0.7,0.2-2.2,0.4-3.1,0.6c0.7-0.1,2.4-0.2,2.7-0.4c-0.3,0-0.6,0.1-0.9,0.1c0.8-0.3,2-0.4,3.4-0.5
							c-0.2,0.4,3.7-0.1,4.7,0.2c2.5-0.2,4.9,0,7.8,0.1c-1-0.4,0.8,0,0.7-0.3c0.7,0,0.9,0,1,0.1l2,0.3c0.5,0.1-0.6,0-0.6,0.1
							c1.5,0.1,0.6,0.2,1.6,0.3c0,0,0-0.1,0-0.1c0,0,0.1,0,0.1,0c0,0,0,0,0,0c0.1,0,0.2,0,0.2,0c0,0,0,0,0-0.1c0,0-0.1-0.1-0.1-0.1
							c0.2,0,0.4,0,0.5,0c0.1,0,0,0.1,0,0.1c0,0-0.1,0.1-0.1,0.1c-0.1,0.1-0.1,0.1-0.2,0.1c-0.1,0.2-0.3,0.5-0.5,0.9L104,45
							c-0.4,0.9-2.3,3-2.8,4c-0.2,0.1-0.4,0.2-0.1-0.1c-0.4,0.5-0.9,1-1.2,1.6l-0.6,0.9c-0.2,0.3-0.3,0.6-0.5,0.9
							c-0.7,1.2-1.2,2.4-1.7,3.3l0-0.2c-0.2,0.5-0.2,0.8-0.5,1.4c0,0,0-0.2-0.1,0c-0.1,0.2-0.3,1.3-0.6,1.8l0.1-0.5
							c-0.9,2.4-0.9,3.8-1.4,5.8c-0.3-0.1-0.8,1.8-1,2.8l0,0c-0.6,2.8-0.7,4.9-1.2,7.5c-0.6,1.6-1.4,5.4-2.4,7.9
							c0.2-0.4,0.2,0.1,0,0.6c-0.2,0.6-0.4,1.7-0.6,1.5l0.1-0.2c-0.4,0.4-0.7,1.6-1.1,2.5l0.2,0.3c-1.3,2.3-2.4,6.4-3.4,7.6
							c-0.2,0.6-0.5,1.3-0.7,1.9L84.4,96c-0.7,1.6-1.1,2.4-1.9,4.4l0.1-0.5c-0.5,1.1-0.2,1.6-0.6,2.7l-0.4,0.2c-0.8,2-1.7,4-2.2,6.1
							c0,0-0.1-0.1,0-0.5c0,0.1-0.1,0.3-0.2,0.4c0,0,0,0.1-0.1,0.1l0,0.1c0,0.1-0.1,0.2-0.1,0.2c0,0,0,0.1,0,0.1c0,0,0,0,0,0
							c0,0,0,0.1,0,0.3c0-0.2-0.1-0.3-0.2-0.5c-0.3-0.5-0.8-1.2-1-1.6l0.2,0.1c-0.6-0.8-0.7-0.8-1.4-1.9c-0.1-0.3,0-0.3,0.1,0.1
							c-0.4-1-0.5-0.7-1.1-1.9l0.3,0.4c-0.5-1-0.5-0.9-0.9-1.4c-0.4-0.6-1-1.9-0.9-2.1c-0.1-0.1-0.5-0.6-0.8-1.2
							c0-0.1,0.1,0.1,0.2,0.2c-0.8-1.7-1.5-2.3-2-3.5c0,0,0-0.1,0-0.2c0.7,1.3,1.3,2.3,1.2,2.2c0.1-0.1-0.4-1.1,0.2-0.4
							c-0.6-0.8-1.6-2.1-2.1-3.1c0-0.1,0-0.1,0-0.2L71,95c-0.1-0.2-0.3-0.4-0.4-0.6c-0.2-0.3-0.3-0.5-0.5-0.8c0-0.2-0.7-1.2-1.1-1.7
							c-0.1,0.1-0.6-0.5-0.2,0.2c0-0.1,0.1,0.1,0.3,0.4c0.1,0.1,0.1,0.2,0.2,0.2l0,0c0.2,0.3,0.5,0.7,0.8,1.2
							c-0.3-0.3-0.7-0.7-1-1.3c-0.3-0.2-0.5-0.4-0.7-0.5c-0.3-0.8-1.2-2.1-1.3-2.3c-1.3-1.3-3-3.1-4.1-3.7c-0.4-0.3-0.4-0.5-0.5-0.6
							c0.2,0.2,0.5,0.4,0.6,0.5c-0.8-0.7-2.2-2.1-2.6-2.1c-0.9-1,0.7,0.4-0.6-0.8l0.2,0.1c-2.3-2.7-4.5-3.6-6.7-6.8
							c0.2,0.2,0.2,0.3,0.3,0.4c-2.8-3.4-6.1-6.8-8.2-10.6c-0.6-1.1-0.8-1.1-1.3-1.7l0-0.3c0,0-0.2-0.2-0.4-0.5
							c-0.2-0.3-0.4-0.5-0.4-0.5c-0.5-0.8-0.8-1.5-1.1-2.3c-0.3-0.8-0.7-1.6-1.3-2.6l0,0.3c-0.2-0.4-0.4-1-0.7-1.5
							c-0.2-0.5-0.3-0.9-0.3-0.9c-0.1-0.1-0.2-0.2-0.3-0.5l0.1-0.1c0,0-0.2-0.5-0.4-0.9c-0.2-0.5-0.4-0.9-0.4-0.9
							c-0.4-1.5,0.4,0.1-0.3-2.1c-0.3-0.8-0.9-2.3-0.9-2c0.1,0.3,0.2,0.9,0.1,0.9l-0.3-0.8c-0.3-0.1-0.7-0.6-0.4,1.3l0.5,1.3l0,0.5
							c0,0-0.1-0.3-0.2-0.5c-0.1-0.3-0.2-0.6-0.2-0.6c0,0.7,0.3,1,0.5,1.4c0,0.1,0,0.3,0,0.6c0,0,0.2,0.3,0.3,0.6
							c0.2,0.3,0.3,0.6,0.3,0.6c0,0.2-0.4-0.5-0.1,0.4c0.3,0.5,0-0.6,0.5,0.3c0.1,0.7,0,0.5,0.3,1.2c0,0.1-0.1,0-0.3-0.3
							c0.3,0.6,0.7,1.7,1,1.9c0.1,0.7,1,2.1,0.8,2.1c0.2,0.2,0.7,1,1,1.5c-0.8-0.9,1.1,2,0.7,1.9c0.7,0.6,1.7,2.6,2.7,3.7
							c-0.1-0.1-0.2-0.2-0.3-0.3c0.5,0.7,0.5,1,0.8,1.4c0.2,0,1.1,1,1.6,1.5c0.4,1-0.6-0.3-0.6,0c0.1-0.1,1.2,1.3,1.1,0.9
							c0.4,0.7,0.4,0.6,0.5,1c0.3-0.1,0.5,0.6,1,0.9c0.6,1,0,0.4,0.9,1.3C50.9,75.1,50.1,74.3,50.1,74.3z M70.3,95.8L70.3,95.8
							c-0.1-0.2-0.3-0.4-0.3-0.5C70,95.4,70.1,95.6,70.3,95.8z M71.5,98c-0.1-0.3-0.3-0.6-0.5-0.9c0-0.1,0.1-0.1,0.2,0.2
							C71.1,97.1,71.4,97.6,71.5,98z M69.7,92.9c0.2,0.3,0.3,0.4,0.3,0.5c-0.1-0.2-0.2-0.3-0.4-0.6c0,0,0,0,0,0
							C69.6,92.8,69.6,92.8,69.7,92.9z"/>
						<path fill="#202020" d="M69.1,92.4c0,0-0.1-0.1-0.1-0.1C69,92.4,69.1,92.4,69.1,92.4c0,0.1,0.1,0.1,0.1,0.2
							C69.2,92.5,69.1,92.5,69.1,92.4z"/>
						<path fill="#202020" d="M76.1,29L76.1,29C76.1,29,76.2,29,76.1,29C76.2,29,76.2,29,76.1,29z"/>
						<polygon fill="#202020" points="86.8,94.3 86.7,94.3 86.7,94.5 						"/>
						<path fill="#202020" d="M89.9,29.3c0,0,0.1,0,0.2,0C90,29.3,90,29.3,89.9,29.3z"/>
						<path fill="#202020" d="M95.8,29l0.8,0C96.3,29,96,29,95.8,29z"/>
						<path fill="#202020" d="M100.3,28.9C100.4,28.8,100.4,28.8,100.3,28.9L100.3,28.9L100.3,28.9z"/>
						<path fill="#202020" d="M32.8,38.2c0,0.1,0,0.1,0,0.2C32.8,38.8,32.7,38.5,32.8,38.2z"/>
						<path fill="#202020" d="M49.5,29.1c-0.2,0-0.5,0-0.7,0.1C49.1,29.2,49.4,29.2,49.5,29.1z"/>
						<path fill="#202020" d="M47.3,48.4L47.3,48.4c0,0,0.1,0,0.1,0L47.3,48.4z"/>
						<path fill="#202020" d="M47.8,29.1c0.4,0,0.7,0,1,0C48.4,29.1,48.1,29.1,47.8,29.1z"/>
						<path fill="#202020" d="M107.9,40.6l-0.1,0.2c0,0,0,0,0,0L107.9,40.6z"/>
						<path fill="#202020" d="M107.8,40.8l-0.1,0.2C107.8,40.9,107.8,40.8,107.8,40.8z"/>
						<path fill="#202020" d="M107.5,41.4c0,0,0.1-0.1,0.1-0.2c0.1-0.1,0.1-0.2,0.1-0.2C107.6,41.1,107.5,41.3,107.5,41.4z"/>
						<path fill="#202020" d="M109,35L109,35C109,35,109,35,109,35z"/>
						<path fill="#202020" d="M109,33.2c0,0.4-0.1,1.1-0.1,1.7l0,0.1C108.9,34.6,109.1,33.6,109,33.2z"/>
						<path fill="#202020" d="M104.6,28.1c0,0,1.6,0.3,1.5,0.3c-0.2-0.1-0.6-0.3,0.1-0.1c-1-0.3-0.9-0.3-0.8-0.2
							C105.5,28.2,105.6,28.3,104.6,28.1z"/>
						<path fill="#202020" d="M99.8,28.1c0.8-0.1,0-0.1,0-0.1C99.3,28.1,99.1,28.1,99.8,28.1z"/>
						<path fill="#202020" d="M65.4,28.9l0.1-0.1C64.8,28.8,65.5,28.8,65.4,28.9z"/>
						<polygon fill="#202020" points="58.8,29.5 59.4,29.6 59.7,29.5 						"/>
						<polygon fill="#202020" points="54.9,28.4 55.2,28.4 54.2,28.4 						"/>
						<path fill="#202020" d="M54.1,47.9l-0.2-0.1C53.5,48,53.4,48.2,54.1,47.9z"/>
						<path fill="#202020" d="M78.7,44.7c0.3,0.1,1,0,1.4-0.1C79.6,44.6,79,44.6,78.7,44.7z"/>
						<polygon fill="#202020" points="87.9,87.6 88.1,87.1 87.8,88 						"/>
					</g>
				</g>
			</g>
		</g>
	</g>
	<g>
		<g>
			<g>
				<g>
					<g>
						<path fill="#202020" d="M47.1,70.4c0,0.1,0.1,0.2,0.1,0.1L47.1,70.4L47.1,70.4z"/>
						<path fill="#202020" d="M47.5,70.6c0-0.1,0-0.3-0.1-0.4C47.4,70.4,47.4,70.3,47.5,70.6c-0.1,0-0.2-0.1-0.2-0.2
							c0,0-0.1,0,0,0.1c0.1,0.1,0.2,0.1,0.2,0C47.5,70.6,47.5,70.6,47.5,70.6z"/>
						<path fill="#202020" d="M50.3,68.6L50.3,68.6C50.3,68.6,50.3,68.6,50.3,68.6z"/>
						<path fill="#202020" d="M51.4,66.6C51.4,66.6,51.4,66.6,51.4,66.6C51.4,66.6,51.4,66.6,51.4,66.6z"/>
						<path fill="#202020" d="M51.7,66.2C51.7,66.2,51.7,66.2,51.7,66.2C51.7,66.2,51.7,66.2,51.7,66.2z"/>
						<path fill="#202020" d="M50.3,68.6L50.3,68.6C50.4,68.5,50.3,68.5,50.3,68.6z"/>
						<path fill="#202020" d="M47.7,70C47.7,70,47.7,70.1,47.7,70L47.7,70L47.7,70z"/>
						<path fill="#202020" d="M49.8,69.4L49.8,69.4C49.8,69.5,49.8,69.5,49.8,69.4L49.8,69.4z"/>
						<path fill="#202020" d="M49.3,70c0,0-0.1-0.1-0.1-0.2C49.2,69.9,49.2,69.9,49.3,70C49.2,70,49.3,70,49.3,70z"/>
						<path fill="#202020" d="M48.2,70.5L48.2,70.5L48.2,70.5z"/>
						<path fill="#202020" d="M50.2,69C50.2,69,50.2,69.1,50.2,69C50.2,69.1,50.2,69,50.2,69z"/>
						<path fill="#202020" d="M40.3,57.3C40.3,57.3,40.3,57.3,40.3,57.3C40.3,57.3,40.3,57.3,40.3,57.3z"/>
						<polygon fill="#202020" points="39.4,56.6 39.4,56.6 39.4,56.5 						"/>
						<path fill="#202020" d="M52,65.5L52,65.5C52,65.6,52,65.5,52,65.5z"/>
						<path fill="#202020" d="M50.4,59.2c-0.1,0.1-0.2,0-0.3,0.2C50.1,59.3,50.3,59.3,50.4,59.2z"/>
						<path fill="#202020" d="M47.7,70C47.7,70,47.7,70,47.7,70C47.7,70,47.7,70,47.7,70z"/>
						<polygon fill="#202020" points="50.1,59.3 50.1,59.3 50.1,59.3 						"/>
						<path fill="#202020" d="M51.9,63.8C51.9,63.8,51.8,63.8,51.9,63.8C51.8,63.8,51.9,63.8,51.9,63.8z"/>
						<path fill="#202020" d="M51.7,65.1L51.7,65.1C51.7,65.1,51.7,65.1,51.7,65.1z"/>
						<path fill="#202020" d="M51.6,63.2C51.6,63.2,51.6,63.2,51.6,63.2L51.6,63.2C51.6,63.2,51.6,63.2,51.6,63.2z"/>
						<polygon fill="#202020" points="51.4,62.6 51.4,62.6 51.4,62.6 						"/>
						<path fill="#202020" d="M42.2,57.1c0,0,0-0.1,0-0.1C42.2,57,42.1,57.1,42.2,57.1z"/>
						<path fill="#202020" d="M47.7,70.1C47.7,70.1,47.7,70,47.7,70.1L47.7,70.1C47.7,70.1,47.7,70.1,47.7,70.1z"/>
						<path fill="#202020" d="M50.3,63.4L50.3,63.4C50.3,63.4,50.3,63.4,50.3,63.4z"/>
						<path fill="#202020" d="M46.3,57.5L46.3,57.5C46.3,57.6,46.3,57.6,46.3,57.5z"/>
						<path fill="#202020" d="M50.2,63.1C50.3,63,50.3,63,50.2,63.1C50.3,63,50.3,63,50.2,63.1L50.2,63.1z"/>
						<path fill="#202020" d="M42.1,56.9L42.1,56.9L42.1,56.9z"/>
						<path fill="#202020" d="M41.5,57.3c0.1,0,0-0.2,0-0.3c0.1-0.1,0.1,0.2,0.1,0.3c0.1-0.1,0.1-0.3,0.2-0.3c0,0,0,0,0,0.1
							c0.1-0.2,0.2,0,0.3-0.2c0,0,0,0,0,0.1c0-0.1,0-0.2,0-0.3c0,0,0.1-0.1,0.1,0c0,0,0,0.1,0,0.1l0-0.1c0,0.2-0.1,0.1,0,0.2
							c0.1-0.1,0.2-0.2,0.2-0.2c0,0.2-0.1,0.1-0.1,0.2l-0.1-0.1c0.1,0.3-0.1,0,0,0.3c0.1,0.1,0.1-0.1,0.3-0.1c0-0.1,0-0.2,0-0.3
							c0.2-0.2,0.2,0.5,0.3,0.2c0-0.1,0-0.4,0.1-0.2l0,0.2c0.1,0,0.1-0.3,0.2-0.2c0,0.1-0.1,0.1-0.1,0.1c0.1,0.2,0.1-0.1,0.1-0.1
							l0,0.2c0.1,0,0.3-0.2,0.4-0.2c0,0.1,0,0.1,0,0.2c0.2-0.1,0.4,0,0.6,0.2l0.1-0.2c0,0,0,0.1,0,0.1c0.1,0.1,0-0.1,0.1-0.2
							c0,0,0,0.1,0,0.1c0.1-0.1,0.4-0.3,0.5-0.1l0,0c0.1,0.1,0.2-0.3,0.2-0.2l0,0c0.2,0.1,0.5,0,0.6,0.3c0.1-0.2,0.2,0.2,0.3-0.2
							c0.1,0.2,0,0.2,0.1,0.4c0,0,0.1-0.2,0.2-0.2l-0.1,0.2l0.1-0.2l0,0.2l0.1,0c0,0,0-0.1,0-0.1c0.1,0,0.1,0.2,0.1,0.3l0.2-0.1
							c0,0.1-0.1,0.1-0.1,0.1c0.2-0.1-0.1,0.2,0.1,0.1c0,0,0-0.1,0.1-0.1c0,0.1,0.1,0.2,0.2,0.2l-0.1,0.1c0.1,0.1,0.3,0.1,0.4,0.2
							c0-0.1,0.1-0.3,0.1-0.3L47.3,58c0.1-0.1,0-0.1,0.1-0.2c0,0-0.1,0.2-0.1,0.2l0.1,0c0,0.1-0.1,0.1-0.1,0.1
							c0.1-0.1,0,0.2,0.1,0.1l0,0c0.1,0.1,0.2,0.1,0.3,0.1c0.1-0.1,0.1-0.1,0.2-0.2c0,0.1,0,0.3,0.1,0.3c0.1,0,0.1-0.1,0.2-0.1
							c-0.1,0.1,0,0.2-0.1,0.2c0.1,0.1,0.1,0.1,0.4,0.1c0-0.1,0-0.1,0.1-0.1c0,0,0,0.1,0,0.1l0,0c0.3,0,0,0.6,0.3,0.5l0,0l0.2,0
							c0,0.1-0.1,0-0.2,0.1c0.3,0,0.1,0.2,0.3,0.3c-0.3,0.3,0.2,0.3,0,0.6l0.1-0.1c0.1,0,0,0.1,0,0.1c0.1,0,0.1-0.1,0.1-0.1
							c0.3,0.3,0.1,0.7,0.1,1.1c0,0.1,0.5-0.1,0.3,0.1l-0.2,0c0.3,0.2,0.2,0.5,0.4,0.7c0,0-0.1,0-0.1,0c-0.1,0.1,0,0.2,0.2,0.2
							c0,0-0.1,0-0.1,0.1c-0.1,0.1,0.2,0.1,0.1,0.2c0,0,0,0-0.1,0c0.1,0,0,0.2,0.2,0.1c0,0.1,0.1,0.2,0,0.3c0.2,0,0,0.2,0.2,0.1
							c-0.3,0.1-0.2,0.2,0,0.2c-0.1,0-0.1,0.1-0.2,0.1c0,0.1,0.1,0.1,0.2,0.1c-0.3,0.2,0.3,0.2-0.1,0.3c0.2,0.2,0.3,0.3,0.4,0.5
							c-0.3,0,0-0.2-0.3-0.2c0.1,0.2,0.3,0.2,0.3,0.4c0,0-0.1,0-0.2,0c0.1,0.2,0,0.3,0.1,0.5c0,0,0,0-0.1,0c0,0,0,0.1,0.1,0.1l0,0
							c0.2,0,0.3,0.1,0.4,0.2c-0.3-0.1-0.1,0.1-0.5,0c0,0,0.1,0.1,0.2,0.1c0,0-0.1,0-0.2,0c0.1,0.1,0.2,0.1,0.2,0.2
							c-0.1,0-0.1,0-0.1,0c0.1,0.1,0.2,0.1,0.1,0.2c0,0-0.1,0-0.1,0c0,0.1,0.3,0.3,0.1,0.4c-0.2-0.1-0.1,0-0.3,0l0,0.1l0.1,0
							c0,0.1,0.1,0.2,0,0.2l-0.1-0.1l0,0.1l0.1-0.1c0.1,0.1,0.3,0.1,0.2,0.1c0,0,0,0.1-0.2,0.1l0,0c0.1,0.1,0.1,0.1,0,0.2
							c-0.1,0-0.2-0.1-0.3-0.1c0.2,0.1,0,0.2,0.2,0.3c0,0-0.1-0.1-0.2-0.1l0.1,0.1c-0.1,0-0.1,0-0.2,0C50.4,67,50.7,67,50.6,67
							c0,0,0,0,0,0c-0.1,0.1,0,0.3-0.1,0.3c-0.2-0.1,0-0.1-0.2-0.2c0,0.2,0.1,0.4,0,0.5l0,0c0.3,0.2-0.2,0-0.1,0.2
							c0,0-0.1-0.1-0.1-0.1c-0.1,0.1,0,0.2-0.1,0.4l-0.1-0.1c-0.1,0-0.1,0.1-0.2,0.2c0.1,0.1,0,0.1,0.1,0.1
							c-0.5-0.1-0.1,0.5-0.5,0.4c0,0,0-0.1,0-0.1l-0.1,0.2c0.1,0.1,0.1,0,0.2,0.1c0,0.1,0.1,0.1,0,0.2c0-0.1-0.2-0.1-0.2-0.2
							c0,0,0.1,0.1,0.1,0.1c-0.2-0.1,0.2,0.2,0,0.2l0-0.1c0,0.1,0,0.2,0,0.2c-0.1-0.1,0-0.1-0.1-0.2c0,0.1,0.1,0.3,0,0.2
							c0-0.1,0-0.1,0-0.1c-0.2-0.1-0.1,0-0.2,0l0,0l-0.1,0l0.1,0c0.2,0.4-0.1,0.2,0,0.4c-0.1-0.3-0.1-0.1-0.2-0.3
							c-0.1,0-0.1,0-0.1-0.1c0,0.1-0.1,0-0.1,0.2c0,0,0,0-0.1-0.1c0,0.1,0.1,0.1,0.1,0.1c0,0.2-0.3,0-0.3,0.3c0,0.2,0,0.3,0,0.5
							C48,70.3,48,70.2,48,70.2c-0.1,0-0.1,0-0.2,0.1c0,0,0-0.1-0.1-0.1c0,0,0.1,0.2,0,0.2c0-0.1-0.1-0.2-0.1-0.2
							c0,0.1,0,0.2-0.1,0.3c-0.1-0.1,0-0.1-0.1-0.2c0,0.1-0.1,0.2-0.1,0.3l0.1,0c0,0-0.1-0.1-0.1-0.1c0-0.1,0.1,0,0.1,0.1l0,0.1
							c0.2,0.3,0.1-0.1,0.2-0.2l0.1,0.2l0-0.2c0,0,0.1,0.2,0.1,0.2c0.1,0.1,0-0.1,0.1,0c0,0,0,0,0,0l0-0.1c0,0,0.1,0.1,0,0.1
							c0.2,0.1,0.1-0.3,0.2-0.1l0,0c0.1-0.2-0.1-0.2-0.1-0.4l0.3,0.3l-0.1-0.2c0,0,0.1,0,0.1,0c0-0.1-0.1-0.1-0.1-0.2
							c0.2,0.1,0.1-0.2,0.3,0c-0.1-0.1-0.1,0-0.1-0.2c0.2,0.2,0-0.1,0.2,0c0.1,0.1,0,0.1,0.1,0.2c-0.1-0.2,0.2,0,0.2-0.1
							c-0.1-0.2,0-0.2,0.1-0.3c0,0.1,0.2-0.1,0.3-0.1l0,0c-0.1-0.2,0-0.2,0-0.3c0.1,0.1,0.1,0.1,0.1,0.2l0-0.1c0-0.1-0.1-0.1,0-0.1
							l0.1,0.1c0.1-0.1,0-0.3,0.1-0.3c-0.1-0.1-0.4-0.2-0.4-0.3c0.1,0,0.2,0.1,0.2,0.2c0,0,0-0.1,0-0.1l0.1,0.1c0.1,0-0.1-0.1,0-0.1
							C50,69,50,68.9,50,69c0,0-0.1,0,0,0c0,0,0.1,0,0.2,0c-0.1,0-0.1-0.1-0.1-0.1c0.1-0.1,0.1,0.1,0.2,0c0-0.1,0.1-0.1-0.1-0.2
							c0,0,0.1,0,0.1,0c0-0.1,0.1-0.2-0.1-0.3l0,0c0,0,0,0,0,0l0,0l0,0c-0.1-0.2,0.3-0.2,0.3-0.4l0,0c0-0.1,0.1-0.2,0-0.3
							c0,0,0.1,0,0.2,0c0-0.1-0.1-0.1,0.1-0.2c0.1,0.1,0.1,0,0,0.1c0.1-0.1,0.2,0,0.1-0.2c0.1,0.1,0.2,0,0.2,0l-0.1,0
							c0-0.1,0-0.1,0.1-0.1l0.2,0.1c0.3-0.1-0.2-0.5,0.2-0.5c-0.1-0.1-0.1,0.1-0.3,0c0.1-0.1,0.3-0.1,0.4-0.1
							c0.1-0.1-0.2-0.2-0.1-0.3c-0.1,0-0.2,0-0.3-0.1c0-0.1,0.3,0,0.3,0c0,0,0,0,0,0c0,0,0,0.1,0.1,0.1l-0.1,0
							c0.1,0,0.1-0.1,0.2-0.1c0-0.1-0.1-0.1-0.1,0c0.1-0.1,0-0.2,0.1-0.3c0,0-0.1,0-0.1,0c0.1-0.2-0.1-0.1-0.1-0.2
							c0.1,0,0.2,0.1,0.2-0.1c0.1-0.1,0.2,0,0.2,0.1c-0.1-0.1,0.1-0.2,0.2-0.3l0,0.1c0,0,0-0.1,0-0.1l-0.1,0c0,0,0-0.1,0.1-0.1
							c-0.1,0-0.2,0-0.3-0.1c0.1,0-0.1-0.1,0.1-0.1c-0.1,0.1,0.2,0,0.2,0.1c0,0,0-0.1,0-0.1c0,0,0,0,0,0c0.2-0.1-0.2-0.1-0.2-0.2
							c0.1,0,0.2,0,0.2,0c0,0.1-0.2,0-0.2,0c0.1-0.1-0.1-0.1,0-0.1l0,0.1c-0.1,0-0.1-0.1-0.1-0.1c0.1,0,0.1,0.1,0.1,0
							c-0.2-0.1,0.2-0.1,0.1-0.3c0.1,0,0.2,0,0.2,0c-0.1-0.1,0.1-0.1,0-0.2c-0.1,0-0.1,0-0.2,0l0.1,0.2l-0.2-0.1
							c0,0.1,0.1,0.1,0.1,0.2c-0.1-0.1-0.1,0-0.2,0c0.2-0.1-0.1-0.1,0-0.2l0.3,0c0.1-0.1-0.2-0.2-0.1-0.4l-0.1,0.1
							c-0.1,0,0-0.1-0.1-0.2c0.1,0,0.2,0,0.2-0.1c-0.1,0,0-0.1-0.2-0.1l0.1-0.1c0-0.1-0.3-0.1-0.3-0.2c0.1,0,0.2-0.1,0.3,0
							c0,0,0-0.1-0.1-0.1c0.1,0-0.2-0.1-0.1-0.2c-0.1,0-0.2,0-0.2,0c0,0,0.1,0,0.1,0c-0.1,0-0.1-0.1-0.2,0c0.3-0.2-0.1-0.4,0.2-0.5
							c-0.1-0.1-0.1-0.2-0.2-0.3c0,0,0.1,0,0,0c0.1-0.1-0.3,0-0.3-0.1c0.2-0.1,0.1,0,0.2,0c0.4-0.1-0.1-0.1,0.1-0.3l0,0
							c0.1-0.1-0.2-0.1-0.2-0.2c0,0,0,0,0.1,0c-0.2,0-0.3-0.1-0.4-0.2c0.1,0,0.1,0,0.2,0c0,0-0.2,0.1-0.3,0c0.1-0.1,0.1-0.1,0.3-0.2
							l0,0.1c0.2-0.1,0-0.1,0-0.2l0.1,0C51,61,50.8,61,50.8,60.9l-0.1,0c-0.2,0,0.1-0.1-0.1-0.1l0.2-0.1c-0.1,0-0.3-0.1-0.3-0.2
							c0.2,0,0.3,0.1,0.4,0.1c0-0.1-0.1-0.2-0.2-0.2c0,0,0.1,0,0.1,0.1c-0.2,0-0.3,0-0.3-0.1c0.4-0.1,0-0.3,0.3-0.5
							c-0.2-0.1-0.1-0.4-0.2-0.6c-0.3,0.2,0-0.1-0.3,0.1c0,0-0.1-0.1,0-0.1l0.1-0.2c0.1-0.1,0.1,0,0.2,0c0-0.1,0.1-0.1,0.1-0.2
							c-0.1,0.1-0.2,0.1-0.2,0l-0.1,0.2c-0.2,0,0.2-0.3-0.1-0.3l0.1,0c-0.1,0-0.2-0.3-0.5-0.2c0,0,0.1-0.1,0.1-0.1
							c-0.1-0.2-0.5-0.2-0.5-0.4l0.1,0c0,0-0.2,0.1-0.1,0c0,0,0.1-0.1,0.1-0.1c0,0-0.2,0-0.2,0l0.1,0c-0.1-0.2-0.4,0-0.6-0.1
							c0.2-0.2,0.1-0.4,0-0.4l0,0c-0.2-0.2-0.5-0.1-0.7-0.1c0-0.3-0.3-0.3-0.5-0.6c0,0.1-0.1,0.2-0.1,0.2c0-0.1-0.2,0.1-0.1-0.1l0,0
							c0.1-0.2-0.1-0.2-0.1-0.2l-0.1,0.3c0-0.5-0.6,0-0.5-0.5c-0.1,0.1-0.1,0-0.2,0.1l0.1-0.2C46.3,56,46.2,56,46,56l0.1-0.1
							c-0.1,0-0.2,0.4-0.3,0.4l0-0.2c-0.2,0-0.3-0.3-0.5-0.1c0,0,0-0.1,0.1-0.1c-0.1,0-0.3-0.2-0.3,0.1c0-0.2-0.2-0.1-0.3,0l0-0.2
							c-0.1,0.2-0.1,0.2-0.2,0.3c0,0,0-0.1,0-0.1c-0.1-0.1-0.1,0.1-0.2,0l0-0.1c-0.1,0-0.1,0-0.1,0.1c-0.1,0.1-0.2-0.1-0.2-0.2
							c0,0.1-0.1,0.2-0.1,0.2c0-0.1,0-0.1,0-0.1c-0.1-0.1-0.2,0.2-0.3,0c0-0.1,0-0.1,0-0.1c0.1,0,0.2,0,0.2,0c0-0.1-0.1-0.2,0-0.4
							c-0.1,0.1-0.2,0.3-0.3,0.3c0,0,0,0,0-0.1l0,0c0,0,0,0-0.1,0c0,0,0,0-0.1,0c0-0.1-0.1-0.1-0.2-0.1c0,0.2-0.1,0.1,0,0.3
							c0,0,0,0,0,0c0,0,0,0,0,0l0,0c0,0,0.1,0,0.1,0c0,0.1-0.1,0.1-0.1,0.1c0,0.1-0.1,0.2-0.1,0.3c-0.1-0.2-0.2-0.4-0.2-0.5
							c-0.1,0.1-0.3,0.1-0.4,0.4c0,0,0-0.1-0.1-0.1c0,0,0,0,0.1-0.1c-0.1,0.1-0.2,0-0.2,0.2c-0.1-0.1,0-0.2-0.1-0.2l0-0.1
							c-0.3-0.3-0.4,0.6-0.7,0.1c0,0,0,0,0,0.1c-0.4-0.2-0.7,0.2-1,0c-0.1-0.1-0.1,0.1-0.1,0.2l0-0.2l-0.1,0.2
							c-0.1,0.2-0.3-0.4-0.4-0.1l0,0.1c-0.1,0-0.2,0.1-0.2,0c0,0,0,0.1,0,0.1l0-0.1l-0.1,0.2c-0.1-0.1,0-0.4-0.2-0.4
							c-0.1,0-0.2,0.3-0.1,0.3c0,0,0.1,0,0.1,0.1l-0.1,0.1c0,0.3,0,0.5,0.2,0.7l0.1-0.2l0,0.1l-0.1,0c0.1,0.1,0.1,0,0.1-0.1
							c0,0.1,0,0.1,0.1,0.1l0.1-0.3c0,0.1,0,0.2,0.1,0.3c0-0.1-0.1-0.2,0-0.3c0.1,0.1,0.1,0.2,0.1,0.1c0,0.1,0,0.1,0,0.1
							c0-0.1,0.1-0.1,0.1-0.2c0.1,0.1,0.2-0.1,0.2,0.2c0-0.1,0.1-0.2,0.1-0.2c0,0.3,0.2,0,0.2,0.3c0-0.3,0.2-0.1,0.3-0.3
							c0,0,0,0.1,0,0.1c0.1,0,0.1,0.1,0.1,0.1c0-0.2,0.1-0.3,0.1-0.4c0.1,0.2,0,0.3,0,0.5c0-0.2,0.1-0.2,0.1-0.3
							c0.1,0.1,0.1,0.1,0.1,0.2c0-0.3,0-0.1,0.1-0.2c0.1,0.1,0,0.3,0.1,0.2C41.6,57.2,41.5,57.3,41.5,57.3z M43.6,56.8L43.6,56.8
							C43.6,56.8,43.6,56.8,43.6,56.8C43.6,56.8,43.6,56.8,43.6,56.8z M43.8,56.8C43.8,56.8,43.8,56.8,43.8,56.8
							c-0.1-0.1-0.1-0.1-0.1-0.1C43.8,56.7,43.8,56.8,43.8,56.8z M43.5,55.7C43.5,55.7,43.5,55.7,43.5,55.7
							C43.5,55.7,43.5,55.7,43.5,55.7L43.5,55.7C43.5,55.7,43.5,55.7,43.5,55.7z"/>
						<path fill="#202020" d="M43.4,55.9C43.4,55.9,43.4,55.9,43.4,55.9C43.4,55.9,43.4,55.9,43.4,55.9L43.4,55.9L43.4,55.9z"/>
						<path fill="#202020" d="M50.3,68.6L50.3,68.6C50.3,68.6,50.3,68.6,50.3,68.6L50.3,68.6z"/>
						<polygon fill="#202020" points="46.1,57.5 46.1,57.5 46.1,57.5 						"/>
						<path fill="#202020" d="M49.2,69C49.2,69,49.2,69,49.2,69C49.2,69,49.2,69,49.2,69z"/>
						<path fill="#202020" d="M48.9,69.3L48.9,69.3C48.9,69.3,48.9,69.3,48.9,69.3z"/>
						<path fill="#202020" d="M48.6,69.4C48.6,69.5,48.6,69.5,48.6,69.4L48.6,69.4L48.6,69.4z"/>
						<path fill="#202020" d="M50.6,65C50.6,65,50.6,65,50.6,65C50.6,65,50.6,65,50.6,65z"/>
						<path fill="#202020" d="M50.7,66.6C50.7,66.5,50.7,66.5,50.7,66.6C50.6,66.5,50.6,66.5,50.7,66.6z"/>
						<polygon fill="#202020" points="50.3,63.4 50.3,63.4 50.3,63.4 						"/>
						<path fill="#202020" d="M50.7,66.4C50.6,66.5,50.6,66.5,50.7,66.4C50.7,66.5,50.7,66.5,50.7,66.4z"/>
						<path fill="#202020" d="M47.4,70.1L47.4,70.1C47.4,70.2,47.4,70.2,47.4,70.1L47.4,70.1z"/>
						<path fill="#202020" d="M47.4,70.2L47.4,70.2C47.4,70.2,47.4,70.2,47.4,70.2z"/>
						<path fill="#202020" d="M47.4,70.2L47.4,70.2C47.4,70.2,47.4,70.2,47.4,70.2z"/>
						<path fill="#202020" d="M47.8,70L47.8,70C47.8,70,47.8,70,47.8,70z"/>
						<path fill="#202020" d="M47.9,69.9c0,0-0.1-0.1-0.1,0l0,0C47.8,69.9,48,70,47.9,69.9z"/>
						<path fill="#202020" d="M48.8,70.2l-0.1,0c0.1,0,0.1,0.1,0.1,0.1C49,70.4,48.7,70.3,48.8,70.2z"/>
						<path fill="#202020" d="M49.2,70C49.1,70.1,49.2,70.1,49.2,70C49.2,70.1,49.2,70,49.2,70z"/>
						<path fill="#202020" d="M50.8,67.9L51,68C51,67.9,50.9,68,50.8,67.9z"/>
						<polygon fill="#202020" points="50.4,67.1 50.3,67.1 50.4,67.2 						"/>
						<polygon fill="#202020" points="51.4,67.3 51.4,67.3 51.4,67.2 						"/>
						<path fill="#202020" d="M51.6,62.7l-0.2,0.1C51.4,62.7,51.6,62.7,51.6,62.7z"/>
						<path fill="#202020" d="M50.9,60.9c0.1,0,0.1-0.1,0-0.1C50.9,60.8,50.8,60.9,50.9,60.9z"/>
						<polygon fill="#202020" points="47.1,56.4 47.2,56.3 47.1,56.3 						"/>
					</g>
				</g>
			</g>
		</g>
	</g>
	<g>
		<g>
			<g>
				<g>
					<g>
						<path fill="#202020" d="M62.9,70.4c0,0,0.1,0.1,0.1,0.1L62.9,70.4L62.9,70.4z"/>
						<path fill="#202020" d="M63.3,70.6c0-0.1,0-0.3-0.1-0.4C63.2,70.4,63.2,70.3,63.3,70.6c-0.1,0-0.2-0.1-0.2-0.2
							c0,0-0.1,0,0,0.1c0.1,0.1,0.2,0.1,0.2,0C63.3,70.5,63.3,70.6,63.3,70.6z"/>
						<path fill="#202020" d="M66.6,70.1L66.6,70.1C66.6,70.1,66.6,70.1,66.6,70.1z"/>
						<path fill="#202020" d="M68.8,69.5C68.8,69.5,68.8,69.6,68.8,69.5C68.8,69.5,68.8,69.5,68.8,69.5z"/>
						<path fill="#202020" d="M69.3,69.4C69.3,69.4,69.3,69.4,69.3,69.4C69.3,69.4,69.3,69.4,69.3,69.4z"/>
						<path fill="#202020" d="M66.6,70.1L66.6,70.1C66.7,70.1,66.6,70.1,66.6,70.1z"/>
						<path fill="#202020" d="M63.6,70C63.5,70,63.5,70.1,63.6,70L63.6,70L63.6,70z"/>
						<path fill="#202020" d="M65.7,70.4L65.7,70.4C65.7,70.4,65.7,70.4,65.7,70.4L65.7,70.4z"/>
						<path fill="#202020" d="M65.1,70.5c0,0,0-0.2,0-0.2c0,0.1,0,0.1,0,0.1C65,70.4,65.1,70.5,65.1,70.5z"/>
						<path fill="#202020" d="M63.9,70.6L63.9,70.6L63.9,70.6z"/>
						<path fill="#202020" d="M66.2,70.3C66.2,70.3,66.2,70.4,66.2,70.3C66.2,70.4,66.2,70.3,66.2,70.3z"/>
						<path fill="#202020" d="M65.3,69.9C65.3,69.9,65.3,69.9,65.3,69.9C65.3,69.9,65.3,69.9,65.3,69.9z"/>
						<polygon fill="#202020" points="66.1,70.6 66.1,70.6 66.1,70.7 						"/>
						<path fill="#202020" d="M69.9,68.7L69.9,68.7C69.9,68.7,69.9,68.7,69.9,68.7z"/>
						<path fill="#202020" d="M66.1,63.5c0.1,0.1-0.1,0.2,0,0.3C66.1,63.7,66.2,63.6,66.1,63.5z"/>
						<path fill="#202020" d="M63.6,70C63.6,70,63.6,70,63.6,70C63.6,70,63.6,70,63.6,70z"/>
						<polygon fill="#202020" points="66.1,63.8 66.1,63.8 66.1,63.8 						"/>
						<path fill="#202020" d="M69.9,66.8C69.9,66.8,69.9,66.8,69.9,66.8C69.9,66.8,69.9,66.8,69.9,66.8z"/>
						<path fill="#202020" d="M69.8,68.1L69.8,68.1C69.8,68.1,69.8,68.1,69.8,68.1z"/>
						<path fill="#202020" d="M69.5,66.2C69.5,66.2,69.5,66.2,69.5,66.2L69.5,66.2C69.5,66.2,69.5,66.2,69.5,66.2z"/>
						<polygon fill="#202020" points="69.2,65.6 69.2,65.6 69.2,65.6 						"/>
						<path fill="#202020" d="M64,69.6c0,0,0,0.1-0.1,0.1C63.9,69.6,64,69.6,64,69.6z"/>
						<path fill="#202020" d="M63.6,70.1C63.6,70.1,63.6,70,63.6,70.1L63.6,70.1C63.6,70.1,63.6,70.1,63.6,70.1z"/>
						<path fill="#202020" d="M68.3,66.7L68.3,66.7C68.3,66.6,68.3,66.6,68.3,66.7z"/>
						<path fill="#202020" d="M63.3,66.4L63.3,66.4C63.3,66.4,63.3,66.4,63.3,66.4z"/>
						<path fill="#202020" d="M68.2,66.4C68.2,66.4,68.3,66.3,68.2,66.4C68.3,66.3,68.3,66.3,68.2,66.4L68.2,66.4z"/>
						<path fill="#202020" d="M63.9,69.7L63.9,69.7L63.9,69.7z"/>
						<path fill="#202020" d="M64.5,69.6c-0.1,0-0.1,0.2-0.2,0.3c-0.1,0,0-0.2,0.1-0.3c-0.1,0-0.2,0.2-0.2,0.1c0,0,0,0,0-0.1
							c-0.1,0.1-0.1-0.1-0.3,0c0,0,0,0,0,0c-0.1,0.1-0.1,0.2-0.2,0.2c0,0-0.1,0.1-0.1-0.1c0,0,0.1,0,0.1-0.1l-0.1,0
							c0.1-0.2,0.1,0,0.2-0.1c-0.1,0-0.3,0.1-0.3,0c0.1-0.1,0.1,0,0.2-0.1l0,0.1c0.2-0.3,0,0,0.2-0.2c0-0.1-0.1,0-0.2-0.1
							c-0.1,0.1-0.1,0.1-0.2,0.2c-0.3,0,0.3-0.4,0-0.3c-0.1,0.1-0.3,0.2-0.3,0.1l0.2-0.1c0-0.1-0.3,0.1-0.2,0c0.1,0,0.1,0,0.1,0
							c0.1-0.2-0.1,0-0.2,0l0.2-0.1c-0.1-0.1-0.3-0.1-0.3-0.2c0.1,0,0.1,0,0.2-0.1c-0.2-0.1-0.1-0.3,0-0.5l-0.2,0c0,0,0.1,0,0.1,0
							c0.1-0.1-0.1,0-0.2,0c0,0,0.1-0.1,0.1,0C63,68,62.8,67.8,63,67.7l0.1,0c0.1-0.1-0.3-0.1-0.2-0.2l0,0c0.1-0.2,0-0.4,0.2-0.5
							c-0.2-0.1,0.2-0.1-0.2-0.2c0.2-0.1,0.2,0,0.4-0.1c0,0-0.2-0.1-0.2-0.2l0.2,0.1l-0.1-0.1l0.2,0.1l0-0.1c0,0-0.1,0-0.1,0
							c0-0.1,0.2-0.1,0.3-0.1c0,0,0-0.2,0-0.2c0.1,0,0.1,0.1,0.1,0.1c-0.1-0.2,0.2,0.1,0.1-0.1c0,0-0.1-0.1-0.1-0.1
							c0.1,0,0.2,0,0.2-0.1l0.1,0.1c0.1-0.1,0.1-0.2,0.2-0.3c-0.1,0-0.2-0.2-0.2-0.2l0.1,0.1c-0.1-0.1-0.1,0-0.1-0.2
							c0.1,0,0.2,0.1,0.2,0.2l0-0.1c0,0,0.1,0.1,0.1,0.1c-0.1-0.1,0.2,0.1,0.1-0.1l0,0c0.1-0.1,0.1-0.2,0.2-0.2
							c-0.1-0.1,0-0.1-0.1-0.3c0.1,0,0.2,0.1,0.3,0c0-0.1,0-0.1-0.1-0.2c0.1,0.1,0.2,0.1,0.2,0.2c0.1-0.1,0.1-0.1,0.2-0.3
							c0-0.1-0.1-0.1-0.1-0.1c0,0,0.1,0,0.1,0.1l0,0c0.1-0.3,0.5,0.3,0.5,0l0,0c0,0,0.1-0.2,0.1-0.2c0.1,0,0,0.1,0,0.2
							c0.1-0.3,0.2,0,0.4-0.1c0,0.4,0.3,0,0.4,0.3l0-0.1c0.1-0.1,0,0.1,0,0.1c0-0.1,0-0.1,0-0.1c0.3,0,0.5,0.3,0.7,0.6
							c0.1,0.1,0.4-0.4,0.3-0.1l-0.1,0.1c0.3-0.1,0.3,0.3,0.6,0.3c0,0-0.1,0.1-0.1,0c-0.1,0.1,0.1,0.1,0.2,0.1c0,0-0.1,0.1-0.1,0.1
							c0,0.1,0.2,0,0.1,0.1c0,0,0,0-0.1,0c0.1,0,0.1,0.1,0.2,0c0,0.1,0.1,0.1,0.1,0.2c0.2-0.1,0,0.2,0.2,0.1c-0.2,0.1-0.1,0.2,0,0.2
							c-0.1,0-0.1,0.1-0.2,0.1c0,0,0.1,0.1,0.2,0c-0.3,0.2,0.3,0.1-0.1,0.3c0.2,0.1,0.3,0.3,0.4,0.4c-0.3,0,0-0.2-0.3-0.1
							c0.1,0.1,0.3,0.2,0.3,0.3c0,0-0.1,0-0.2,0c0.1,0.2,0,0.3,0.1,0.4c0,0,0,0-0.1,0c0,0,0,0,0.1,0.1l0,0c0.2,0,0.3,0.2,0.4,0.2
							c-0.3-0.1-0.1,0.1-0.5-0.1c0,0,0.1,0.1,0.1,0.1c0,0-0.1,0-0.2,0c0,0.1,0.2,0.1,0.1,0.2c-0.1,0-0.1,0-0.1-0.1
							c0.1,0.1,0.2,0.2,0.1,0.2c0,0-0.1,0-0.1-0.1c0,0.1,0.1,0.3,0,0.4c-0.2-0.2-0.1,0-0.2-0.2l0,0.1l0.1,0.1c0,0,0,0.2-0.1,0.2
							l0-0.1l-0.1,0.1l0.1,0c0,0.1,0.2,0.2,0.1,0.2c0,0-0.1,0-0.2-0.1l0,0c0,0.1,0,0.2-0.1,0.1c0-0.1-0.1-0.2-0.1-0.3
							c0.1,0.2-0.1,0.1-0.1,0.3c0,0,0-0.2-0.1-0.2l0,0.1c0,0-0.1-0.1-0.1-0.1c-0.1,0,0.1,0.2,0,0.2c0,0,0,0,0-0.1
							c-0.1,0-0.2,0.2-0.3,0.1c-0.1-0.2,0.1-0.1,0-0.2c-0.1,0.1-0.3,0.3-0.4,0.3l0,0c0,0.3-0.1-0.1-0.2,0c0,0,0-0.2,0-0.1
							c-0.1,0-0.2,0.1-0.4,0.2l0-0.1c-0.1-0.1-0.2,0-0.2,0c0,0.1-0.1,0.1,0,0.2c-0.3-0.4-0.4,0.3-0.6-0.1c0,0,0-0.1,0-0.1l-0.2,0.1
							c0,0.1,0,0.1,0.1,0.2c0,0.1,0,0.1-0.1,0.2c0.1-0.1,0-0.2-0.1-0.3c0,0,0,0.1,0,0.1c-0.1-0.2,0,0.3-0.1,0.1l0-0.1
							c0,0-0.1,0.1-0.1,0.1c0-0.1,0-0.1,0-0.2c-0.1,0-0.1,0.3-0.2,0.2c0,0,0.1-0.1,0.1-0.1c-0.1-0.2-0.1-0.1-0.2-0.1l0,0l-0.1-0.1
							l0,0c0,0.4-0.2,0.1-0.2,0.4c0-0.3,0-0.1-0.1-0.3c0,0-0.1-0.1-0.1-0.1c0,0.2-0.1-0.1-0.1,0.1C64.5,69.7,64.4,69.8,64.5,69.6
							c-0.1,0.1,0,0.1,0,0.2c-0.1,0.2-0.3-0.1-0.4,0.2c-0.1,0.1-0.1,0.3-0.1,0.5c-0.1-0.1,0-0.2,0-0.2c-0.1-0.1-0.1,0-0.2,0.1
							c0-0.1,0-0.1-0.1-0.1c0,0,0,0.2-0.1,0.2c0-0.1,0-0.2,0-0.2c0,0.1-0.1,0.2-0.1,0.3c-0.1-0.1,0-0.2,0-0.2
							c-0.1,0.1-0.1,0.2-0.1,0.3l0.1,0c0,0-0.1-0.1-0.1-0.1c0-0.1,0.1,0,0.1,0.1l0,0.1c0.2,0.3,0.1-0.1,0.2-0.1l0.1,0.2l0-0.2
							c0,0.1,0.1,0.2,0.1,0.2c0.1,0.1,0-0.1,0.1,0c0,0,0,0,0,0l0-0.1c0,0.1,0.1,0.2,0,0.1c0.1,0.1,0.1-0.2,0.2-0.1l0,0
							c0.1-0.1,0-0.2,0-0.4l0.2,0.4l0-0.2c0,0,0.1,0,0.1,0.1c0-0.1,0-0.1,0-0.2c0.1,0.1,0.2-0.1,0.3,0.1c0-0.1-0.1-0.1,0-0.2
							c0.1,0.3,0.1-0.1,0.2,0c0,0.2-0.1,0.1,0,0.2c0-0.3,0.1,0,0.2,0c0-0.2,0.1-0.1,0.2-0.2c0,0.1,0.2,0.1,0.3,0.1l0,0
							c0-0.2,0.1-0.2,0.1-0.2c0,0.1,0,0.2,0,0.2l0.1,0c0-0.1,0-0.1,0.1-0.1l0,0.2c0.1,0,0.1-0.2,0.3-0.1c0-0.1-0.1-0.4,0-0.5
							c0,0.1,0,0.2,0,0.2c0,0,0-0.1,0.1,0l0,0.1c0.1,0.1,0-0.1,0.1-0.1c0,0.1,0,0.1,0,0.2c0,0,0,0-0.1,0c0,0,0.1,0.1,0.1,0.2
							c0-0.1,0-0.2,0-0.2c0.1,0,0,0.1,0.1,0.2c0-0.1,0.1,0,0.1-0.2c0,0,0,0.1,0.1,0.1c0-0.1,0.2,0,0.1-0.2l0,0l0,0l0,0l0,0
							c0.1-0.2,0.3,0.1,0.5,0l0,0.1c0.1-0.1,0.2-0.1,0.2-0.2c0,0,0.1,0.1,0.1,0.2c0.1-0.1,0.1-0.1,0.2-0.1c0,0.1,0,0.1-0.1,0.1
							c0.1,0,0.1,0.1,0.2-0.1c0,0.1,0.1,0.2,0.1,0.1L67.7,70c0,0,0.1,0,0.1,0l0,0.2c0.3,0.2,0.2-0.5,0.5-0.2c0-0.1-0.1,0-0.2-0.2
							c0.1,0,0.3,0.2,0.3,0.2c0.2,0,0-0.3,0.1-0.3c-0.1,0-0.2-0.2-0.1-0.3c0.1,0,0.3,0.2,0.2,0.2c0,0,0,0-0.1,0c0,0,0,0.1,0,0.1
							l0-0.1c0.1,0,0.2-0.1,0.2,0c0-0.1,0-0.1-0.1-0.1c0.2,0,0.2-0.1,0.3-0.2c0,0-0.1-0.1-0.1-0.1c0.2-0.1,0-0.2,0-0.3
							c0.1,0,0.2,0.2,0.2,0c0.1,0,0.2,0.1,0.2,0.2c0-0.2,0.2-0.2,0.3-0.2l0,0.1c0-0.1,0-0.1,0-0.1l-0.1,0c0,0,0.1-0.1,0.1,0
							c-0.1-0.1-0.2-0.1-0.3-0.2c0.1,0,0-0.2,0.2-0.1c-0.1,0.1,0.2,0,0.1,0.2c0,0,0-0.1,0-0.1c0,0,0,0,0,0c0.2-0.1-0.2-0.1-0.1-0.3
							c0.1,0,0.2,0,0.2,0c0,0.1-0.2,0-0.2-0.1c0.1-0.1,0-0.1,0-0.2l0,0.1c-0.1,0-0.1-0.1-0.1-0.2c0.1,0,0,0.1,0.1,0
							c-0.2-0.1,0.2-0.1,0.1-0.3c0.1,0,0.2,0,0.2,0c-0.1-0.1,0.1-0.1,0-0.3c-0.1,0-0.1,0-0.2,0l0.1,0.2l-0.2-0.1
							c0,0.1,0.1,0.1,0.1,0.2c-0.1-0.1-0.1-0.1-0.2,0c0.2-0.1-0.1-0.1,0-0.2l0.3,0c0.1-0.2-0.2-0.2-0.1-0.4l0,0.1
							c-0.1,0,0-0.1-0.1-0.2c0.1,0,0.1-0.1,0.2-0.1c-0.1,0,0-0.1-0.3-0.1l0.1-0.1c0-0.2-0.4-0.1-0.4-0.2c0.1,0,0.2-0.1,0.3,0
							c0,0,0-0.1-0.1-0.1c0.1-0.1-0.2-0.1-0.1-0.1c-0.1,0-0.2,0-0.2,0c0,0,0.1,0,0.1,0c-0.1,0-0.1,0-0.2,0.1c0.3-0.3-0.2-0.3,0-0.6
							c-0.1-0.1-0.2-0.1-0.2-0.2c0,0,0,0,0,0c0-0.2-0.3,0.1-0.3,0c0.1-0.2,0.1,0,0.1-0.1c0.3-0.3-0.1-0.1,0-0.3l0,0
							c0-0.1-0.2,0-0.3-0.1c0,0,0,0,0,0c-0.2,0.1-0.3,0-0.5,0c0.1-0.1,0.1,0,0.2-0.2c-0.1,0-0.1,0.2-0.2,0.2c0-0.1,0-0.2,0.1-0.3
							l0.1,0.1c0.1-0.2-0.1-0.1-0.1-0.1l0.1-0.1c-0.1-0.1-0.3,0.1-0.4,0l0,0.1c-0.2,0.1,0-0.1-0.2,0l0.1-0.2c-0.1,0-0.3,0.1-0.4,0.1
							c0.1-0.1,0.3-0.2,0.4-0.2c-0.1,0-0.2-0.1-0.3,0c0,0,0.1,0,0.1,0c-0.1,0.1-0.3,0.2-0.4,0.1c0.2-0.4-0.2-0.2-0.2-0.6
							c-0.2,0.1-0.4-0.2-0.7-0.2c0.1,0.3-0.1,0-0.1,0.4c-0.1,0-0.1,0-0.1,0l-0.2-0.2c0-0.1,0.1-0.1,0.1-0.2c-0.1,0-0.1-0.2-0.1-0.2
							c0,0.1,0,0.2-0.1,0.1l0.1,0.2c-0.2,0.2-0.2-0.3-0.4-0.1l0.1-0.1c-0.1,0.1-0.4,0-0.4,0.3c0,0-0.1-0.1,0-0.2
							c-0.2,0-0.4,0.4-0.6,0.3l0-0.1c0,0,0,0.2-0.1,0.1c0,0,0-0.1,0-0.1c0,0,0,0.2-0.1,0.2l0-0.1c-0.2,0-0.2,0.4-0.3,0.5
							c-0.1-0.2-0.3-0.2-0.4-0.2l0,0c-0.2,0.1-0.2,0.4-0.3,0.6c-0.3-0.1-0.4,0.2-0.7,0.3c0.1,0,0.2,0.1,0.1,0.2
							c-0.1,0,0.1,0.2-0.1,0.1l0,0c-0.2-0.1-0.2,0-0.3,0.1l0.2,0.2c-0.5,0-0.1,0.6-0.5,0.5c0,0.1,0,0.1,0.1,0.2l-0.2-0.1
							c-0.1,0.1-0.1,0.2-0.2,0.4l-0.1-0.1c0,0.1,0.4,0.2,0.4,0.3l-0.2,0c0,0.2-0.3,0.4-0.1,0.6c0,0-0.1,0-0.1,0
							c0,0.1-0.2,0.4,0.2,0.3c-0.2,0,0,0.2,0.1,0.3l-0.2,0c0.2,0.1,0.3,0.1,0.3,0.2c0,0-0.1,0-0.1,0c-0.1,0.1,0.2,0,0.1,0.2l-0.1,0
							c0,0.1,0.1,0.1,0.2,0.1c0.1,0,0,0.2-0.1,0.2c0.1,0,0.2,0,0.2,0.1c-0.1,0-0.1,0-0.1,0c-0.1,0.2,0.2,0.2,0.1,0.3
							c0,0-0.1,0-0.1,0.1c0-0.1-0.1-0.2-0.1-0.2c-0.1,0-0.1,0.2-0.4,0.1c0.1,0.1,0.4,0.1,0.4,0.2c0,0,0,0,0,0l0,0c0,0,0,0,0,0
							c0,0,0,0.1,0,0.1c-0.1,0.1,0,0.1,0,0.2c0.1-0.1,0.1,0,0.2-0.1c0,0,0,0,0,0c0,0,0,0,0,0l0,0c0,0,0-0.1-0.1-0.1
							c0.1,0,0.2,0,0.1,0.1c0.1,0,0.2-0.1,0.3-0.1c-0.2,0.2-0.2,0.3-0.3,0.4c0.2,0.1,0.3,0.3,0.6,0.2c0.1,0,0,0.1-0.1,0.1
							c0,0-0.1,0-0.1,0c0.1,0,0.2,0.2,0.4,0c0,0.1-0.2,0.1-0.1,0.2l-0.1,0c0,0.5,0.7-0.1,0.7,0.4c0,0,0-0.1,0-0.1
							c0.2,0.4,0.7,0.1,1,0.5c0.1,0.1,0.1-0.1,0.2-0.1l0,0.2l0.1-0.2c0.1-0.1,0.2,0.4,0.4,0.2l0-0.1c0.1,0,0.2-0.1,0.2,0
							c0,0,0-0.1,0-0.1l0,0.1l0.1-0.2c0.1,0,0.1,0.4,0.3,0.3c0.1-0.1,0.1-0.3,0.1-0.4c0,0-0.1,0-0.1-0.1l0-0.1
							c-0.1-0.3-0.1-0.5-0.3-0.7l0,0.2L65.7,70l0.1,0c-0.1-0.1-0.1,0-0.1,0.1c0-0.1,0-0.1-0.1-0.1l0,0.3c0-0.1,0-0.2-0.1-0.3
							c0,0.1,0.1,0.2,0,0.3c-0.1-0.1-0.1-0.2-0.1-0.1c0-0.1,0-0.1,0-0.1c0,0.1-0.1,0-0.1,0.2c0-0.1-0.1,0-0.1-0.2
							c0,0.1-0.1,0.2-0.1,0.2c0.1-0.3-0.1,0-0.1-0.4c-0.1,0.3-0.2,0.1-0.3,0.2c0,0,0-0.1,0,0c0,0,0-0.1,0-0.2
							c-0.1,0.2-0.1,0.2-0.2,0.4c0-0.2,0.1-0.2,0.2-0.4c-0.1,0.2-0.1,0.1-0.2,0.3c0-0.1,0-0.1,0-0.3c-0.1,0.3-0.1,0-0.2,0.2
							c0-0.2,0.1-0.2,0-0.2C64.4,69.7,64.5,69.6,64.5,69.6z M63,68.7L63,68.7C63.1,68.7,63.1,68.8,63,68.7
							C63.1,68.8,63.1,68.8,63,68.7z M63,68.6C63,68.6,63,68.6,63,68.6C62.9,68.7,62.9,68.7,63,68.6C62.9,68.7,62.9,68.6,63,68.6z
							 M62.1,69.4C62.1,69.4,62.1,69.4,62.1,69.4C62.1,69.4,62.1,69.4,62.1,69.4L62.1,69.4C62.2,69.4,62.1,69.4,62.1,69.4z"/>
						<path fill="#202020" d="M62.3,69.4C62.3,69.4,62.3,69.4,62.3,69.4C62.4,69.4,62.4,69.3,62.3,69.4L62.3,69.4L62.3,69.4z"/>
						<path fill="#202020" d="M66.6,70.1L66.6,70.1C66.6,70.1,66.6,70.1,66.6,70.1L66.6,70.1z"/>
						<polygon fill="#202020" points="63.3,66.6 63.3,66.6 63.3,66.6 						"/>
						<path fill="#202020" d="M65.5,69.6C65.5,69.6,65.5,69.6,65.5,69.6C65.5,69.6,65.5,69.6,65.5,69.6z"/>
						<path fill="#202020" d="M65.1,69.7L65.1,69.7C65,69.7,65,69.7,65.1,69.7z"/>
						<path fill="#202020" d="M64.7,69.7C64.7,69.7,64.7,69.7,64.7,69.7L64.7,69.7L64.7,69.7z"/>
						<path fill="#202020" d="M68.7,68C68.7,68,68.7,68,68.7,68C68.7,67.9,68.7,67.9,68.7,68z"/>
						<path fill="#202020" d="M68.3,69.1C68.3,69.1,68.3,69,68.3,69.1C68.3,69,68.3,69,68.3,69.1z"/>
						<polygon fill="#202020" points="68.3,66.7 68.3,66.7 68.3,66.7 						"/>
						<path fill="#202020" d="M68.4,69C68.3,69,68.3,69,68.4,69C68.3,69,68.3,69,68.4,69z"/>
						<path fill="#202020" d="M63.3,70.1L63.3,70.1C63.2,70.1,63.2,70.1,63.3,70.1L63.3,70.1z"/>
						<path fill="#202020" d="M63.2,70.2L63.2,70.2C63.2,70.2,63.3,70.2,63.2,70.2z"/>
						<path fill="#202020" d="M63.2,70.2L63.2,70.2C63.2,70.2,63.2,70.2,63.2,70.2z"/>
						<path fill="#202020" d="M63.7,70L63.7,70C63.7,70,63.7,70,63.7,70z"/>
						<path fill="#202020" d="M63.8,70c0,0-0.1-0.1-0.2,0l0,0C63.7,69.9,63.8,70.1,63.8,70z"/>
						<path fill="#202020" d="M64.6,70.5l-0.1,0c0,0.1,0.1,0.1,0,0.2C64.7,70.7,64.5,70.5,64.6,70.5z"/>
						<path fill="#202020" d="M64.9,70.5c0,0,0,0.1,0,0.1C65,70.5,65,70.5,64.9,70.5z"/>
						<path fill="#202020" d="M67.4,70.1l0,0.1C67.5,70.2,67.4,70.2,67.4,70.1z"/>
						<polygon fill="#202020" points="67.7,69.2 67.6,69.1 67.6,69.3 						"/>
						<polygon fill="#202020" points="68.3,70.1 68.3,70.1 68.4,70 						"/>
						<path fill="#202020" d="M69.4,65.6l-0.1,0.1C69.3,65.7,69.5,65.6,69.4,65.6z"/>
						<path fill="#202020" d="M67.8,64.3c0-0.1,0-0.2-0.1-0.1C67.8,64.2,67.8,64.3,67.8,64.3z"/>
						<polygon fill="#202020" points="62.3,65.5 62.2,65.4 62.2,65.5 						"/>
					</g>
				</g>
			</g>
		</g>
	</g>
	<g>
		<g>
			<g>
				<g>
					<g>
						<path fill="#202020" d="M87,43.6c-0.1,0-0.1,0.1-0.1,0.1l0.2-0.1L87,43.6z"/>
						<path fill="#202020" d="M87.1,44.3c0.1,0,0.3,0,0.4-0.1c-0.2,0-0.2,0-0.4,0c-0.1,0,0-0.2,0-0.2c-0.1,0-0.1-0.1-0.2-0.1
							c0,0.2,0,0.3,0.2,0.3C87.2,44.3,87.1,44.3,87.1,44.3z"/>
						<path fill="#202020" d="M85.4,49.2L85.4,49.2C85.4,49.2,85.4,49.2,85.4,49.2z"/>
						<path fill="#202020" d="M82.3,51.8C82.2,51.8,82.2,51.8,82.3,51.8C82.2,51.8,82.2,51.8,82.3,51.8z"/>
						<path fill="#202020" d="M82.9,52.5C82.8,52.5,82.8,52.5,82.9,52.5C82.8,52.5,82.8,52.5,82.9,52.5z"/>
						<path fill="#202020" d="M85.4,49.2l-0.1-0.1C85.2,49.2,85.3,49.1,85.4,49.2z"/>
						<path fill="#202020" d="M88,45C88,45,88,45,88,45L88,45L88,45z"/>
						<path fill="#202020" d="M87.2,49.1L87.2,49.1C87.2,49.1,87.2,49.1,87.2,49.1L87.2,49.1z"/>
						<path fill="#202020" d="M87.6,48c0,0,0.1,0.1,0.2,0.1c-0.1,0-0.1-0.1-0.1-0.1C87.7,48,87.6,48,87.6,48z"/>
						<path fill="#202020" d="M87.6,45.6L87.6,45.6C87.6,45.6,87.6,45.6,87.6,45.6z"/>
						<path fill="#202020" d="M86.3,49.1C86.3,49.1,86.3,49.1,86.3,49.1C86.3,49.1,86.3,49.1,86.3,49.1z"/>
						<path fill="#202020" d="M65.1,47.1C65.1,47.1,65.1,47.1,65.1,47.1C65.1,47,65.1,47,65.1,47.1z"/>
						<polygon fill="#202020" points="65.7,45.2 65.7,45.3 65.8,45.2 						"/>
						<path fill="#202020" d="M83.6,53.4L83.6,53.4C83.6,53.4,83.6,53.4,83.6,53.4z"/>
						<path fill="#202020" d="M77.3,56.3c-0.1,0.1-0.2-0.2-0.3,0C77.1,56.2,77.3,56.4,77.3,56.3z"/>
						<path fill="#202020" d="M88,45.1L88,45.1C88.1,45.1,88.1,45.1,88,45.1z"/>
						<path fill="#202020" d="M77,56.2L77,56.2L77,56.2C77,56.2,77,56.2,77,56.2z"/>
						<path fill="#202020" d="M83.3,55.9C83.3,55.9,83.4,55.9,83.3,55.9C83.4,55.9,83.3,55.9,83.3,55.9z"/>
						<path fill="#202020" d="M84.1,53.9L84.1,53.9C84.1,53.9,84.1,53.9,84.1,53.9z"/>
						<path fill="#202020" d="M82.7,57C82.7,57,82.7,57,82.7,57L82.7,57C82.7,57,82.7,57,82.7,57z"/>
						<polygon fill="#202020" points="81.8,57.9 81.9,57.9 81.9,57.9 						"/>
						<path fill="#202020" d="M65.1,51.5c0,0,0.1-0.1,0.1-0.1C65.1,51.4,65,51.2,65.1,51.5z"/>
						<path fill="#202020" d="M88,45C88,45,88,45,88,45L88,45C88,45,88,45,88,45z"/>
						<path fill="#202020" d="M83.7,57.9L83.5,58C83.5,58,83.6,57.9,83.7,57.9z"/>
						<path fill="#202020" d="M73.4,49.7L73.4,49.7C73.3,49.8,73.4,49.7,73.4,49.7z"/>
						<path fill="#202020" d="M83,58.6c-0.1,0-0.1,0-0.2,0c0,0,0,0,0,0L83,58.6z"/>
						<path fill="#202020" d="M65.2,51.4L65.2,51.4L65.2,51.4z"/>
						<path fill="#202020" d="M64.7,49.8c0,0.2,0.2,0.1,0.3,0.2c0.1,0.3-0.2,0.1-0.3,0.2c0.1,0.2,0.3,0.3,0.3,0.4c0,0,0,0-0.1,0
							c0.2,0.2,0.1,0.6,0.4,0.7c0,0,0,0,0,0c0.1-0.1,0.2-0.1,0.3-0.1c0,0.1,0.2,0.1,0.1,0.2c0-0.1-0.1,0-0.1-0.1l0.1,0.1
							c-0.2,0.2-0.1-0.1-0.3-0.1c0.1,0.2,0.4,0.4,0.4,0.5c-0.2,0.1-0.2-0.3-0.3-0.1c0,0,0-0.3,0-0.3c-0.2,0.3,0-0.2-0.3,0.1
							c0.1,0.4,0.2,0.3,0.4,0.7c0.1,0,0.1-0.1,0.3-0.1c0.4,0.3-0.2,0.6,0.3,0.8c0.2,0,0.4-0.2,0.5,0.1l-0.2,0.1
							c0.3,0.2,0.3-0.1,0.6,0.2c-0.1,0.1-0.3-0.1-0.3,0c0.1,0.3,0.2,0,0.4,0l0,0.2c0.4,0.1,0.9,0,1.3,0c0,0.1-0.1,0.1,0,0.2
							c0.5-0.1,1.1-0.2,1.6-0.3l0.1-0.2c0,0,0.1,0,0.1,0.1c0.2,0,0-0.1,0-0.2c0.1-0.1,0.2,0,0.1,0.1c0.2-0.3,0.6-0.8,0.9-0.9l0,0.1
							c0.2-0.2-0.1-0.5,0.2-0.5l0,0.1c0.4-0.4,0.6-1,1-1.1c-0.2-0.2,0.4-0.3,0.1-0.5c0.3-0.1,0.3,0,0.6-0.2c0.1,0,0-0.2,0-0.3
							l0.1,0.1l0-0.2l0.2,0.1l0.1-0.1c0,0-0.1,0-0.1-0.1c0.1-0.1,0.4,0,0.4,0.1c0,0,0.3-0.2,0.3-0.2c0,0.1-0.1,0.1-0.1,0.1
							c0.1-0.2,0,0.2,0.2,0c0,0,0-0.1,0-0.1c0.1,0.1,0.2,0.1,0.3,0.2l-0.1,0.1c0.2,0.1,0.4,0.2,0.6,0.4c0-0.1,0.1-0.2,0.2-0.2
							l-0.1,0.1c0.1,0,0-0.1,0.2-0.1c0.1,0.1-0.1,0.2-0.2,0.2l0.1,0.1c0,0-0.1,0-0.1,0.1c0.1,0,0,0.3,0.2,0.3l0,0
							c0.2,0.3,0.3,0.4,0.4,0.6c0.2-0.1,0.2,0.1,0.3,0.1c0,0.2,0,0.5,0,0.7c0.1,0.2,0.1,0,0.3,0.1c-0.1,0-0.1,0.3-0.2,0.2
							c0.1,0.3,0.1,0.4,0.3,0.8c0.1-0.1,0.1-0.1,0.1-0.1c0,0.1,0,0.2-0.1,0.2l0,0c0.3,0.4-0.3,1.1,0,1.4l0,0l0.2,0.4
							c0,0.2-0.1-0.1-0.2,0c0.2,0.4-0.1,0.7,0.1,1c-0.4,0.3,0,1.1-0.1,1.6l0.1-0.1c0.1,0.1,0,0.2,0,0.3c0.1,0,0-0.2,0.1-0.1
							c0.5,0.9,1.2,1.8,2.3,2.2c0.4,0.1,0.3-0.5,0.7-0.2l-0.1,0.2c0.7-0.1,1.6-0.1,2.2-0.5c0,0.1,0,0.1-0.1,0.1
							c0.2,0.1,0.5-0.2,0.4-0.3c0.1,0,0.1,0.1,0.2,0.1c0.2,0,0.2-0.3,0.4-0.3c0,0,0,0.1,0,0.1c0-0.1,0.4-0.2,0.2-0.3
							c0.3-0.1,0.3-0.3,0.5-0.4c0-0.2,0.4-0.2,0.2-0.4c0.2,0.2,0.5-0.2,0.5-0.4c0,0.1,0.1,0,0.2,0.1c0.1-0.1,0.2-0.3,0.1-0.4
							c0.4-0.1,0.2-0.6,0.6-0.6c0.2-0.5,0.3-1,0.4-1.5c0.2,0.1-0.2,0.5,0.1,0.6c0.1-0.5,0-0.8,0.2-1.2c0.1-0.1,0.1,0.1,0.1,0.1
							c0-0.5,0.2-1,0-1.4c0,0,0.1,0,0.1,0.1c0-0.1,0-0.2-0.1-0.2l0.1,0.1c-0.1,0.2-0.4-0.3-0.5-0.2c0.4,0-0.1-0.4,0.4-0.4
							c0-0.1-0.1-0.1-0.2,0c0-0.1,0-0.1,0.1-0.1c-0.2-0.3-0.3-0.1-0.4-0.3c0,0,0.1,0,0.2,0c-0.2-0.1-0.4-0.1-0.5-0.3
							c0,0,0-0.1,0.1,0c-0.3-0.3-0.7-0.1-0.9-0.4c0.2-0.2-0.1-0.1,0-0.3l-0.2,0l0,0.1c-0.1-0.1-0.3-0.1-0.4-0.2l0.1,0
							c0,0-0.2-0.1-0.2-0.1l0,0.2c-0.2,0-0.2,0.2-0.3,0c0,0-0.1-0.1,0-0.3l0,0c-0.1,0-0.2-0.1-0.2-0.2c0.1,0,0.2,0,0.3-0.1
							c-0.2,0-0.1-0.2-0.3-0.3c0,0,0.2,0.1,0.2,0.1l-0.1-0.1c0.1,0,0.1,0,0.2,0c0.1-0.1-0.3-0.1-0.1-0.2c0,0,0,0,0,0.1l0,0
							c0.1-0.1,0.2-0.3,0.5-0.3c0.1,0.2-0.2,0.1,0,0.3c0.3-0.2,0.6-0.5,1-0.5l-0.1,0c0-0.3,0.3,0.1,0.4,0c0,0,0,0.2,0,0.1
							c0.2,0,0.5-0.1,0.9-0.2l-0.1,0.1c0.1,0.1,0.4,0.1,0.5,0.1c0.1-0.1,0.1,0,0.1-0.2c0.2,0.3,0.4,0.3,0.7,0.2c0.3,0,0.5-0.1,0.8,0
							c-0.1,0-0.2,0.1-0.1,0.1c0,0,0.5-0.2,0.5-0.3c-0.1-0.1-0.1,0-0.2-0.1c0-0.1,0.1-0.2,0.2-0.3c-0.1,0.2,0.1,0.2,0.3,0.1
							c0,0,0-0.1-0.1-0.1c0.3,0-0.2-0.2,0.1-0.3l0.1,0c0-0.1,0-0.2,0-0.3c0.2,0,0,0.1,0.1,0.2c0.1-0.2-0.2-0.4,0-0.5
							c0,0.1,0,0.2,0,0.2c0.2-0.1,0.2-0.1,0.2-0.2l0,0l0.1-0.3l-0.1,0.1c-0.4-0.3,0-0.4-0.2-0.7c0.2,0.3,0.1,0.1,0.3,0.1
							c0.1-0.1,0.1-0.2,0.2-0.1c-0.1-0.1,0.1-0.2-0.1-0.4c0.1,0,0-0.1,0.1-0.1c-0.1-0.2-0.1,0-0.2,0c-0.2-0.2,0.2-0.7-0.2-1
							c-0.2-0.3-0.4-0.3-0.6-0.5c0.1-0.1,0.2,0,0.2,0c0-0.2,0-0.3-0.2-0.4c0.1,0,0.1,0,0.1-0.1c-0.1-0.1-0.2,0-0.2-0.2
							c0.1,0,0.2,0,0.3,0c-0.1-0.1-0.3-0.2-0.4-0.3c0.1-0.1,0.2,0,0.3,0c-0.1-0.1-0.3-0.3-0.5-0.3l0,0.1c0,0,0.1-0.1,0.1-0.1
							c0.2,0.1,0.1,0.2,0,0.2l-0.1-0.1c-0.2,0.3,0.3,0.3,0.3,0.5l-0.3,0l0.3,0.1c0,0.1-0.2,0.1-0.2,0.1c-0.1,0.2,0.1,0.1,0.1,0.2
							c0,0,0,0,0,0l0.1,0.1c-0.1,0-0.2,0.1-0.1,0c0,0.3,0.3,0.3,0.1,0.5l0,0c0.2,0.3,0.2,0,0.4,0.2l-0.4,0.3l0.2,0
							c0,0,0,0.1-0.1,0.1c0.1,0.1,0.1,0,0.2,0c-0.1,0.2,0.1,0.5-0.2,0.5c0.1,0.1,0.1-0.2,0.2,0c-0.3,0.1,0.1,0.2-0.1,0.4
							c-0.2-0.1-0.1-0.2-0.2,0c0.3,0.1-0.1,0.3,0,0.4c0.2,0,0,0.3,0.1,0.5c-0.1,0-0.2,0.4-0.4,0.4l0,0c0.2,0.1,0,0.3,0,0.4
							c-0.1-0.1-0.1-0.2-0.1-0.2l-0.1,0.1c0,0.1,0,0.1,0,0.2l0-0.2c-0.1,0-0.2,0.3-0.4,0.1c0,0.1,0.2,0.4-0.1,0.5
							c0-0.1,0-0.2,0.1-0.2c0,0-0.1,0.1-0.1,0l0.1-0.1c-0.1-0.1-0.1,0.1-0.2,0.1c0-0.1-0.1-0.1,0-0.2c0,0,0.1,0.1,0.1,0
							c-0.1,0-0.2-0.1-0.2-0.2c0,0.1,0,0.2-0.1,0.2c-0.2,0,0-0.1-0.1-0.2c-0.1,0.1-0.2,0-0.2,0.1c-0.1,0-0.1-0.1-0.1-0.1
							c-0.1,0.1-0.5,0-0.4,0.1l0,0l0,0l0,0l0,0c-0.4,0.1-0.7-0.1-1.1,0l0-0.1c-0.2,0.1-0.5,0.1-0.6,0.2c-0.1,0-0.2-0.1-0.1-0.1
							c-0.1,0.1-0.1,0.1-0.4,0.1c0.1-0.1-0.1-0.1,0.1-0.1c-0.2,0-0.3-0.1-0.5,0.1c0-0.2-0.2-0.1-0.3,0l0.2,0
							c-0.1,0.1-0.2,0.1-0.3,0.1l0-0.2c-0.3,0-0.5,0.3-0.6,0.5c-0.1,0.3-0.1,0.5-0.3,0.8c0.1,0.2,0.1-0.3,0.3-0.1
							c-0.1,0.2-0.3,0.6-0.3,0.7c0,0.4,0.4,0.2,0.5,0.5c0-0.1,0.2-0.2,0.3-0.1c0.1,0.2,0,0.4-0.2,0.3c0,0,0-0.1,0-0.1
							c-0.1,0-0.2-0.1-0.2,0l0.1,0c0,0.1,0.3,0.4,0.1,0.4c0.2,0.1,0.1,0,0.1-0.1c0.2,0.3,0.3,0.3,0.5,0.5c0-0.1,0-0.1,0-0.1
							c0.3,0.3,0.2,0,0.4,0.1c0.1,0.2-0.2,0.2,0.1,0.2c0.1,0.1-0.1,0.2-0.2,0.2c0.2,0,0.2,0.3,0.3,0.3l-0.1,0c0.1,0,0.1,0,0.1,0.1
							l0.1-0.1c0,0,0,0.1,0,0.1c0.1,0,0.1-0.2,0.3-0.2c0,0.1,0.2,0.1,0,0.3c-0.1-0.2-0.1,0.1-0.3,0c0,0,0.1,0,0.1,0.1c0,0,0,0,0,0
							c-0.1,0.2,0.2,0,0.3,0.1c-0.1,0-0.2,0.1-0.1,0.1c0-0.1,0.2-0.1,0.2,0c0,0.1,0.1,0.1,0.1,0.2l0-0.1c0.1,0,0.1,0.1,0.1,0.2
							c-0.1,0-0.1-0.1-0.1-0.1c0.2,0.1-0.2,0.3-0.1,0.4c-0.1,0.1-0.2,0-0.2,0c0.1,0.2-0.2,0.2-0.1,0.4c0.1,0,0.1,0,0.2,0.1
							c0,0,0-0.3,0-0.3c0,0,0.1,0.3,0.1,0.3c0-0.1,0-0.2,0-0.3c0.1,0.1,0.1,0.1,0.2,0.1c-0.2,0.1,0.1,0.3-0.1,0.4l-0.3-0.1
							c-0.2,0.2,0,0.5-0.2,0.7l0.1-0.1c0.1,0.1-0.1,0.2-0.1,0.3c-0.1-0.1-0.2,0-0.2,0c0.1,0-0.1,0.2,0,0.3l-0.2,0
							c-0.2,0.2,0.1,0.4-0.1,0.6c0-0.1-0.2-0.1-0.1-0.3c-0.1,0.1-0.1,0.1-0.1,0.2c-0.1,0,0,0.3-0.2,0.3c0,0.1,0.1,0.1,0,0.2
							c0,0,0,0,0,0c0,0-0.1,0.2,0.1,0.2c-0.4,0-0.5,0.6-0.9,0.5c-0.1,0.1-0.3,0.3-0.4,0.4c0,0,0,0,0-0.1c-0.3,0,0,0.4-0.3,0.4
							c-0.2-0.1,0.1-0.2,0-0.2c-0.2-0.3-0.3,0.2-0.5,0.1l0,0c-0.2-0.1-0.3,0.2-0.5,0.3c0,0,0,0,0-0.1c-0.1,0.2-0.4,0.3-0.6,0.4
							c0.1-0.1,0.1-0.1,0.1-0.2c-0.1,0,0,0.2-0.2,0.3c-0.1-0.1-0.2-0.2-0.2-0.3l0.2,0c-0.1-0.2-0.2,0-0.3-0.1l0-0.1
							c-0.3,0-0.3,0.2-0.6,0.1l0,0.1c-0.2,0.2-0.1-0.2-0.3-0.1l0.1-0.2c-0.1,0-0.4,0-0.6-0.1c0.2-0.1,0.4,0,0.6-0.1
							c-0.1,0-0.3-0.1-0.4-0.1c0,0,0.1,0,0.1,0c-0.2,0.1-0.4,0-0.5-0.1c0.3-0.3-0.3-0.5,0-0.8c-0.3-0.2-0.1-0.6-0.1-1
							c-0.3,0.2,0-0.1-0.4-0.1c0-0.1,0-0.1,0-0.2l0.2-0.3c0.1-0.1,0.1,0.1,0.2,0.1c0-0.2,0.2-0.1,0.3-0.2c-0.1,0-0.2-0.1-0.1-0.2
							l-0.2,0.2c-0.2-0.4,0.3-0.3,0.1-0.7l0.1,0.1c-0.1-0.2,0-0.7-0.3-0.9c0,0,0.1-0.1,0.2,0c0-0.5-0.4-1-0.2-1.3l0.1,0
							c0-0.1-0.2-0.1-0.1-0.2c0,0,0.1,0,0.1,0c0,0-0.2-0.2-0.2-0.3l0.1,0.1c0-0.5-0.3-0.6-0.5-0.9c0.2-0.1,0.2-0.4,0.2-0.6l0,0
							c-0.2-0.5-0.5-0.8-0.9-1.1c0.1-0.4-0.6-0.9-1-1.4c0.1,0.1-0.1,0.2-0.2,0.1c-0.1-0.1-0.4,0-0.3-0.2l0,0c0-0.3-0.4-0.3-0.6-0.3
							l-0.1,0.3c-0.3-0.2-0.7-0.1-1,0c-0.3,0.2-0.5,0.4-0.7,0.3C72.1,49,72,49.1,72,49.2l-0.1-0.1c-0.3,0.2-0.4,0.3-0.6,0.7l0-0.1
							c-0.1,0.2,0.2,0.5,0.1,0.7l-0.2-0.1c-0.2,0.3-0.6,0.5-0.6,0.9c0,0-0.1-0.1-0.1-0.1c-0.1,0.1-0.5,0.3-0.2,0.5
							c-0.2-0.1-0.2,0.2-0.3,0.4l-0.1-0.1c0,0.2,0.1,0.3-0.1,0.5c-0.1,0-0.1-0.1,0-0.1c-0.2,0,0,0.2-0.2,0.2l0-0.1
							c-0.1,0.1-0.1,0.1-0.1,0.3c-0.1,0.1-0.3,0.1-0.4,0c0,0.1,0,0.2-0.1,0.2c0,0,0-0.1,0-0.1c-0.3,0-0.3,0.3-0.6,0.2
							c0-0.1,0-0.1,0-0.1c0.2,0,0.4-0.1,0.3,0c0-0.1-0.2-0.1-0.1-0.4c-0.1,0.1-0.3,0.4-0.4,0.3c0,0,0,0,0-0.1l0,0c0,0-0.1,0-0.1,0
							c0,0-0.1,0-0.1-0.1c0-0.1-0.1-0.1-0.2-0.1c0,0.2-0.1,0.1-0.1,0.3c0,0,0,0,0.1,0c0,0,0,0,0,0l0,0c0,0,0.1,0,0.2,0
							c-0.1,0.1-0.1,0.1-0.2,0c-0.1,0.1-0.1,0.2-0.2,0.2c-0.1-0.2-0.2-0.4-0.2-0.6c-0.2,0-0.4-0.2-0.8-0.1c-0.1,0,0-0.1,0-0.2
							c0,0,0.1,0.1,0.1,0c-0.2,0-0.3-0.3-0.5-0.2c0-0.2,0.2,0,0.1-0.2l0.1,0c0-0.3-0.2-0.4-0.3-0.6c-0.2-0.2-0.3-0.4-0.2-0.7
							c0,0,0,0.1-0.1,0.1c0.1-0.7-0.2-1.4,0.2-2.1c0.1-0.2,0-0.2-0.1-0.4l0.2,0L66,47.7c-0.1-0.3,0.5-0.5,0.2-0.9l-0.1,0
							c0-0.1-0.1-0.5,0.1-0.4c0,0-0.1,0-0.1-0.1l0.1,0L66,45.9c0-0.3,0.4,0,0.3-0.4c-0.1-0.2-0.4-0.4-0.4-0.3c0,0.1,0,0.2-0.1,0.2
							l-0.1-0.1c-0.3,0-0.5,0-0.7,0.4l0.2,0.2l-0.1,0.1l0-0.2c-0.1,0.1,0,0.1,0.1,0.2c-0.1,0-0.1,0.1-0.1,0.1l0.3,0.2
							c-0.1,0-0.2-0.1-0.3,0.1c0.1,0.1,0.2-0.1,0.3,0c-0.1,0.1-0.2,0.1-0.1,0.2c-0.1,0-0.1,0-0.1,0c0.1,0.1,0,0.3,0.2,0.3
							c-0.2,0.1,0,0.4-0.2,0.3c0.1,0,0.2,0.2,0.2,0.3c-0.3-0.2-0.1,0.4-0.4,0.3c0.3,0.2,0.1,0.5,0.2,0.8c0,0-0.1,0,0-0.1
							c0,0.1-0.1,0.2-0.2,0.3c0.2,0,0.3,0.3,0.4,0.4c-0.2,0.2-0.3-0.1-0.5-0.1c0.2,0,0.2,0.3,0.3,0.3c-0.1,0.1-0.1,0.1-0.3,0.2
							c0.3,0,0,0.1,0.2,0.3c-0.1,0.2-0.3,0.1-0.2,0.3C64.8,50,64.7,49.8,64.7,49.8z M68.3,53.6L68.3,53.6c0,0-0.1,0-0.1,0
							C68.2,53.6,68.2,53.6,68.3,53.6z M68.7,53.6c-0.1,0-0.1,0-0.2,0c0-0.1,0-0.1,0-0.1C68.5,53.5,68.6,53.5,68.7,53.6z M67.9,52.5
							C67.9,52.5,67.9,52.5,67.9,52.5C67.9,52.5,67.9,52.5,67.9,52.5L67.9,52.5C67.8,52.5,67.9,52.5,67.9,52.5z"/>
						<path fill="#202020" d="M67.7,52.7C67.7,52.7,67.7,52.7,67.7,52.7C67.7,52.7,67.7,52.7,67.7,52.7L67.7,52.7L67.7,52.7z"/>
						<path fill="#202020" d="M85.4,49.2L85.4,49.2C85.4,49.2,85.4,49.2,85.4,49.2C85.4,49.2,85.4,49.2,85.4,49.2z"/>
						<polygon fill="#202020" points="73.1,50 73.1,49.9 73.1,50 						"/>
						<path fill="#202020" d="M87.8,49.6C87.8,49.6,87.8,49.6,87.8,49.6C87.8,49.6,87.8,49.6,87.8,49.6z"/>
						<path fill="#202020" d="M88.3,48.6l0.1-0.1C88.3,48.5,88.3,48.5,88.3,48.6z"/>
						<path fill="#202020" d="M88.5,47.8C88.5,47.8,88.5,47.7,88.5,47.8L88.5,47.8L88.5,47.8z"/>
						<path fill="#202020" d="M85.2,53.7L85.2,53.7C85.3,53.8,85.2,53.7,85.2,53.7z"/>
						<path fill="#202020" d="M82.5,51.1c0,0,0.1,0,0.1,0C82.6,51.1,82.6,51,82.5,51.1z"/>
						<polygon fill="#202020" points="83.7,57.9 83.7,57.8 83.7,57.9 						"/>
						<path fill="#202020" d="M82.7,51.2c0-0.1,0-0.1-0.1-0.1C82.6,51.2,82.6,51.2,82.7,51.2z"/>
						<path fill="#202020" d="M87.7,44.4L87.7,44.4C87.7,44.3,87.7,44.3,87.7,44.4L87.7,44.4z"/>
						<path fill="#202020" d="M87.7,44.3L87.7,44.3C87.6,44.3,87.6,44.3,87.7,44.3z"/>
						<path fill="#202020" d="M87.5,44.2L87.5,44.2C87.6,44.3,87.6,44.2,87.5,44.2z"/>
						<path fill="#202020" d="M88.1,45.4L88.1,45.4C88.2,45.3,88.2,45.3,88.1,45.4z"/>
						<path fill="#202020" d="M88.3,45.7c0-0.1,0.1-0.2,0-0.3l0,0C88.3,45.4,88.1,45.6,88.3,45.7z"/>
						<path fill="#202020" d="M87.8,47.1l0-0.2c-0.1,0-0.1,0.1-0.2,0C87.5,47.1,87.8,46.7,87.8,47.1z"/>
						<path fill="#202020" d="M87.7,47.8c0-0.1-0.1,0-0.1,0C87.6,47.9,87.6,47.9,87.7,47.8z"/>
						<path fill="#202020" d="M83.5,49.2l0-0.1C83.4,49.1,83.5,49.1,83.5,49.2z"/>
						<path fill="#202020" d="M82.8,50.2L82.8,50.2L82.8,50.2C82.9,50.1,82.8,50.2,82.8,50.2z"/>
						<path fill="#202020" d="M81.5,50.1L81.5,50.1c0-0.1,0,0.2,0,0.2C81.5,50.3,81.5,50.1,81.5,50.1z"/>
						<path fill="#202020" d="M81.9,57.6l0.1,0.1C82.1,57.7,81.9,57.5,81.9,57.6z"/>
						<path fill="#202020" d="M78.6,58.7c0-0.1-0.1-0.2-0.2-0.1C78.5,58.6,78.6,58.7,78.6,58.7z"/>
						<path fill="#202020" d="M73.6,48.3l0.1-0.1c0,0-0.2,0.1-0.2,0.1L73.6,48.3z"/>
					</g>
				</g>
			</g>
		</g>
	</g>
	<g>
		<g>
			<g>
				<g>
					<g>
						<path fill="#202020" d="M74.6,104c0,0,0,0.2,0,0.1L74.6,104L74.6,104z"/>
						<path fill="#202020" d="M74.9,104.4c0.1-0.1,0.1-0.2,0.1-0.4c-0.1,0.2-0.1,0.1-0.2,0.3c-0.1,0-0.1-0.1-0.1-0.1
							c0,0-0.1-0.1-0.1,0.1c0,0.2,0.1,0.2,0.2,0.1C74.9,104.3,74.9,104.3,74.9,104.4z"/>
						<path fill="#202020" d="M79.1,101.4L79.1,101.4C79.1,101.4,79.1,101.4,79.1,101.4z"/>
						<path fill="#202020" d="M79.4,97.9C79.4,98,79.5,98,79.4,97.9C79.4,97.9,79.4,97.9,79.4,97.9z"/>
						<path fill="#202020" d="M79,97.4C79,97.4,79,97.4,79,97.4C79,97.4,79,97.4,79,97.4z"/>
						<path fill="#202020" d="M79.1,101.4L79.1,101.4C79.2,101.3,79.2,101.4,79.1,101.4z"/>
						<path fill="#202020" d="M75.5,103.9C75.5,103.9,75.5,103.9,75.5,103.9L75.5,103.9L75.5,103.9z"/>
						<path fill="#202020" d="M78.5,102.8L78.5,102.8C78.5,102.9,78.5,102.9,78.5,102.8L78.5,102.8z"/>
						<path fill="#202020" d="M77.7,103.8c0,0-0.1-0.1-0.1-0.2C77.6,103.6,77.6,103.7,77.7,103.8C77.7,103.7,77.7,103.7,77.7,103.8z
							"/>
						<path fill="#202020" d="M75.9,104.5L75.9,104.5L75.9,104.5z"/>
						<path fill="#202020" d="M79,102.1C79,102.1,79,102.1,79,102.1C79,102.1,79,102.1,79,102.1z"/>
						<path fill="#202020" d="M66.5,88.7L66.5,88.7C66.5,88.7,66.5,88.7,66.5,88.7z"/>
						<polygon fill="#202020" points="65.3,89.5 65.3,89.5 65.2,89.4 						"/>
						<path fill="#202020" d="M78.1,96.7L78.1,96.7C78.1,96.7,78.1,96.7,78.1,96.7z"/>
						<path fill="#202020" d="M77.2,88.7c0.1,0.2-0.3,0.1-0.1,0.3C77.1,89,77.4,88.9,77.2,88.7z"/>
						<path fill="#202020" d="M75.6,103.9C75.6,103.9,75.6,103.9,75.6,103.9C75.6,103.9,75.6,103.9,75.6,103.9z"/>
						<polygon fill="#202020" points="77.1,89 77.1,89 77.1,89.1 						"/>
						<path fill="#202020" d="M77.7,96.4C77.7,96.4,77.7,96.4,77.7,96.4C77.6,96.4,77.7,96.4,77.7,96.4z"/>
						<path fill="#202020" d="M77.5,96.8L77.5,96.8C77.5,96.8,77.5,96.8,77.5,96.8z"/>
						<path fill="#202020" d="M78,95.4C78,95.4,78,95.4,78,95.4L78,95.4C78,95.4,78,95.4,78,95.4z"/>
						<polygon fill="#202020" points="78.3,94.4 78.3,94.5 78.3,94.5 						"/>
						<path fill="#202020" d="M68.3,87.4c0,0,0-0.1-0.1-0.1C68.3,87.3,68.2,87.4,68.3,87.4z"/>
						<path fill="#202020" d="M75.5,104C75.5,103.9,75.5,103.9,75.5,104L75.5,104C75.5,104,75.5,104,75.5,104z"/>
						<path fill="#202020" d="M76.8,94.9l0.1-0.1C76.9,94.8,76.8,94.8,76.8,94.9z"/>
						<path fill="#202020" d="M71.1,92.7L71.1,92.7C71.1,92.7,71.1,92.7,71.1,92.7z"/>
						<path fill="#202020" d="M77,94.4c0.1,0,0.1,0,0.1,0C77.1,94.3,77.1,94.3,77,94.4L77,94.4z"/>
						<path fill="#202020" d="M68.3,87.2L68.3,87.2L68.3,87.2z"/>
						<path fill="#202020" d="M67.7,87.9c0.1,0,0-0.2-0.1-0.3c0.1-0.1,0.1,0.1,0.2,0.2c0.1-0.1,0-0.3,0.1-0.3c0,0,0,0,0,0.1
							c0-0.2,0.2-0.1,0.3-0.3c0,0,0,0,0,0.1c0-0.1-0.1-0.2-0.1-0.3c0.1,0,0.1-0.2,0.1,0c0,0,0,0.1,0,0.1l0.1-0.1
							c0.1,0.2-0.1,0.1-0.1,0.2c0.1-0.1,0.2-0.3,0.3-0.2c0,0.2-0.2,0.1-0.1,0.2l-0.1-0.1c0.1,0.3-0.1,0,0,0.3c0.1,0,0.2-0.1,0.3,0
							c0-0.1,0-0.2,0.1-0.3c0.3-0.1,0,0.5,0.2,0.3c0.1-0.1,0.2-0.3,0.2-0.1L69,87.5c0,0.1,0.3-0.2,0.2,0c-0.1,0-0.1,0-0.1,0
							c-0.1,0.1,0.1,0,0.2,0l-0.2,0.1c0.1,0.1,0.3,0.2,0.3,0.4c-0.1,0-0.1,0-0.2,0c0.1,0.3,0.1,0.7,0,1l0.2,0.1c0,0-0.1,0.1-0.1,0
							c0,0.1,0.1,0,0.2,0c0,0.1-0.1,0.1-0.1,0.1c0.2,0.2,0.5,0.5,0.4,0.8l-0.1,0c0,0.2,0.4,0.1,0.3,0.3l0,0c0.1,0.4,0.4,0.7,0.3,1.1
							c0.2-0.1,0.1,0.4,0.4,0.3c0,0.3-0.1,0.3,0,0.6c0,0.1,0.3,0,0.4,0.1l-0.1,0.1l0.2,0L71,92.6l0.1,0.1c0,0,0-0.1,0-0.2
							c0.2,0.1,0.3,0.4,0.3,0.5c0,0,0.6,0.1,0.6,0c0,0.1-0.1,0.1-0.2,0.1c0.3-0.1,0,0.2,0.3,0.1c0,0,0-0.1,0-0.1
							c0.1,0.1,0.5,0.1,0.7-0.1l0,0.1c0.4-0.1,0.6-0.5,0.9-0.7c-0.1,0-0.2-0.1-0.2-0.2l0.1,0.1c0-0.1-0.1,0-0.1-0.2
							c0.1-0.1,0.2,0.1,0.2,0.2l0-0.1c0,0,0,0.1,0.1,0.1c0-0.1,0.3,0,0.2-0.2l0,0c0.2-0.2,0.3-0.3,0.4-0.5c-0.1-0.1,0-0.2-0.1-0.3
							c0.2-0.1,0.4-0.1,0.5-0.2c0-0.2-0.1-0.1-0.1-0.2c0.1,0.1,0.2,0,0.2,0.1c0.2-0.2,0.2-0.2,0.3-0.5c-0.1,0-0.1,0-0.1-0.1
							c0-0.1,0.1,0,0.2,0l0,0c0.1-0.4,0.8-0.1,0.8-0.4l0,0l0.1-0.2c0.1,0,0,0.1,0.1,0.2c0.1-0.3,0.1,0,0.3-0.2c-0.1,0.4,0.1,0,0,0.4
							l0.1-0.1c0.1,0,0,0.1,0,0.1c0.1,0,0.1-0.1,0.1-0.1c0.3,0.4,0.2,1,0.2,1.5c0,0.2,0.5,0.1,0.3,0.3l-0.2-0.1
							c0.3,0.4,0,0.8,0.1,1.2c0,0-0.1,0-0.1-0.1c-0.1,0.1,0,0.3,0.1,0.3c0,0.1-0.1,0-0.2,0c-0.1,0.1,0.1,0.2,0,0.2c0,0,0,0,0,0
							c0.1,0.1-0.1,0.2,0.1,0.2c-0.1,0.1,0,0.3-0.1,0.4c0.1,0.1-0.2,0.2,0.1,0.3c-0.2-0.1-0.3,0.2-0.2,0.3c-0.1-0.1-0.1,0-0.2,0
							c0,0.1,0,0.2,0.1,0.2c-0.4,0,0,0.5-0.4,0.3c0,0.1,0,0.2-0.1,0.3c-0.1,0.1-0.1,0.2-0.2,0.4c-0.1,0.2-0.2,0.4-0.3,0.6
							c-0.4,0,0.3-0.4,0-0.4c-0.2,0.4-0.1,0.5-0.3,0.7c0,0,0.1,0.1,0.2,0.1c0.1,0.1-0.2,0-0.3,0c0.6,0.1,0.9,0.4,1.4,0.5
							c0,0-0.1,0-0.1,0c0.1,0,0.2,0.1,0.2,0l-0.1,0c0-0.2,0.5-0.2,0.5-0.3c-0.1,0.1-0.1,0.2,0,0.2c0,0.1,0.1,0.1-0.1,0.3
							c0,0,0.1,0,0.1-0.1c0,0,0,0.1-0.1,0.2c0.2,0,0.2-0.1,0.3-0.1c0,0.1-0.1,0.1-0.1,0.1c0.1-0.1,0.2-0.1,0.3,0c0,0,0,0.1-0.1,0.1
							c0.2,0.1,0.5-0.1,0.6,0.1c-0.2,0.2,0,0.1-0.1,0.3l0.1,0l0-0.1c0.1,0.1,0.3,0,0.3,0.1l-0.1,0l0.2,0.1l0-0.1
							c0.2,0,0.2-0.2,0.2-0.1c0,0,0.1,0.1,0,0.2l0,0c0.1,0,0.2,0,0.2,0.1c0,0.1-0.2,0.1-0.2,0.1c0.2,0,0.1,0.1,0.3,0.2
							c0,0-0.2,0-0.2,0l0.2,0c0,0.1-0.1,0.1-0.1,0.1c0,0.1,0.3-0.1,0.2,0.1c0,0,0,0-0.1,0c0,0.1,0.1,0.3,0,0.5c-0.2,0,0-0.1-0.2-0.1
							c0,0.2,0.1,0.5-0.1,0.8l0,0c0.3,0.2-0.2,0.1-0.1,0.3c0,0-0.1-0.1-0.1-0.1c-0.1,0.1-0.1,0.4-0.1,0.6l-0.1-0.1
							c-0.1,0.1-0.2,0.2-0.2,0.3c0.1,0.1,0,0.1,0.1,0.1c-0.5,0.1-0.1,0.7-0.6,0.8c0,0,0-0.1,0-0.1l-0.1,0.2c0.1,0.1,0.1,0,0.2,0
							c0,0.1,0.1,0.2,0,0.2c0-0.1-0.2-0.1-0.3-0.1c0,0,0.1,0.1,0.1,0.1c-0.3,0,0.2,0.2,0,0.2l0-0.1c0,0.1,0,0.2,0,0.2
							c-0.1-0.1,0-0.1-0.1-0.2c-0.1,0.1,0.1,0.3-0.1,0.3c0-0.1,0-0.1,0-0.2c-0.2,0-0.2,0-0.2,0l0,0l-0.2,0.1l0.1,0
							c0.2,0.4-0.1,0.2-0.1,0.5c0-0.3-0.1-0.1-0.2-0.3c-0.1,0-0.1,0-0.2-0.1c0,0.2-0.2,0-0.1,0.2c0,0-0.1,0-0.1-0.1
							c-0.1,0.1,0.1,0.1,0.1,0.1c0,0.3-0.4,0-0.5,0.3c-0.1,0.2-0.1,0.4-0.3,0.5c-0.1-0.1,0-0.2,0-0.2c-0.1-0.1-0.2,0-0.3,0.1
							c0-0.1,0-0.1-0.1-0.1c-0.1,0,0,0.2-0.1,0.1c0-0.1,0-0.2,0-0.2c-0.1,0.1-0.1,0.2-0.2,0.2c0-0.1,0-0.1,0.1-0.2
							c-0.1,0.1-0.2,0.1-0.3,0.3l0.1,0.1c0,0,0-0.1,0-0.2c0.1-0.1,0.1,0,0.1,0.1l-0.1,0c0.1,0.3,0.3-0.1,0.4-0.1l0,0.2l0.1-0.2
							c0,0.1,0.1,0.2,0,0.2c0.1,0.1,0.1-0.1,0.2,0c0,0,0,0,0,0l0.1-0.1c0,0.1,0.1,0.2,0,0.1c0.2,0.1,0.2-0.3,0.4-0.1l0,0
							c0.2-0.2,0-0.2,0-0.4l0.3,0.3l-0.1-0.2c0,0,0.1,0,0.1,0c0-0.2-0.1-0.1-0.1-0.2c0.2,0.1,0.3-0.2,0.4,0c0-0.1-0.2,0-0.1-0.2
							c0.2,0.2,0.1-0.1,0.3-0.1c0.1,0.1-0.1,0.2,0.1,0.2c-0.1-0.2,0.2-0.1,0.3-0.2c-0.1-0.2,0.1-0.2,0.2-0.4c0,0.1,0.3-0.2,0.5-0.2
							l0,0c-0.1-0.2,0-0.3,0-0.4c0.1,0.1,0.1,0.1,0.1,0.2l0.1-0.1c0-0.1-0.1-0.1,0-0.2l0.1,0.1c0.1-0.1,0-0.3,0.2-0.5
							c-0.1-0.1-0.4-0.1-0.4-0.3c0.1,0,0.2,0.1,0.2,0.2c0,0,0-0.1,0-0.1l0.1,0.1c0.1,0-0.1-0.1,0-0.1c0.1,0.1,0.1,0,0.2,0.1
							c0,0-0.1,0,0,0.1c0.1-0.1,0.2-0.1,0.2-0.1c-0.1,0-0.1-0.1-0.1-0.1c0.1-0.1,0.1,0,0.2,0c-0.1-0.1,0.1-0.1-0.1-0.2
							c0,0,0.1,0,0.1,0c0-0.1,0.1-0.3-0.1-0.3l0,0l0,0l0,0l0,0c0-0.3,0.3-0.4,0.3-0.7l0.1,0c0-0.2,0.1-0.3,0-0.4c0,0,0.1,0,0.2,0
							c0-0.1,0-0.2,0.1-0.3c0.1,0.1,0.1,0,0,0.1c0.1-0.1,0.2-0.1,0.1-0.3c0.1,0.1,0.2-0.1,0.2-0.2L80,99.8c0-0.1,0-0.2,0.1-0.2
							l0.2,0.1c0.2-0.2,0.1-0.4,0-0.5c-0.1-0.2-0.2-0.3,0-0.5c-0.2-0.1,0,0.2-0.2,0.2c0-0.2,0.1-0.5,0.1-0.5c-0.1-0.3-0.4,0-0.5-0.3
							c0,0.1-0.1,0.2-0.3,0.1c-0.1-0.1,0.1-0.3,0.2-0.3c0,0,0,0.1,0,0.1c0.1,0,0.1,0,0.1-0.1l-0.1,0c0-0.1-0.2-0.2-0.1-0.3
							c-0.1,0-0.1,0.1-0.1,0.1c-0.1-0.2-0.2-0.2-0.4-0.3c0,0,0,0.1,0,0.1c-0.2-0.2-0.2,0-0.3,0c0-0.1,0.1-0.2-0.1-0.2
							c-0.1-0.1,0.1-0.2,0.1-0.2c-0.2,0-0.3-0.2-0.3-0.3l0.1,0c-0.1,0-0.1,0-0.1,0l0,0.1c0,0-0.1-0.1,0-0.1
							c-0.1,0.1-0.1,0.2-0.2,0.3c0-0.1-0.2,0-0.2-0.2c0.2,0.1,0.1-0.2,0.2-0.1c0,0-0.1,0-0.1-0.1c0,0,0,0,0,0
							c-0.1-0.2-0.2,0.1-0.3,0.1c0.1-0.1,0.1-0.2,0.1-0.2c0,0-0.1,0.2-0.2,0.2c0-0.1-0.1,0-0.1,0l0,0c-0.1,0.1-0.1,0-0.2,0
							c0.1-0.1,0.1,0,0.1-0.1c-0.2,0.1,0.1-0.2-0.1-0.1c0.1-0.1,0.2-0.1,0.3-0.1c-0.2,0,0.1-0.1,0,0c-0.2,0-0.2,0.1-0.3,0.1
							c0,0,0,0-0.1,0l0,0c0,0,0.1,0,0.2,0c0,0-0.4,0.1-0.4,0.1c0,0,0.2,0,0.2,0c-0.2,0-0.1,0-0.3,0.1c0.2-0.1-0.1,0-0.1-0.1
							c0,0,0,0,0.1-0.1l0.5-0.1c0.2-0.1-0.1-0.1,0-0.2l-0.1,0c-0.1,0,0-0.1,0-0.1c0.1,0,0.2,0,0.2,0.1c0,0,0,0,0-0.1
							c0-0.1,0-0.1-0.1-0.2l0.2,0c0.2-0.2-0.2-0.4,0-0.5c0.1,0.1,0.2,0.1,0.2,0.2c0-0.1,0.1-0.1,0-0.1c0.1,0-0.1-0.2,0.1-0.3
							c0,0-0.1-0.1-0.1-0.2c0,0,0.1,0,0.1,0c-0.1,0,0-0.1-0.2-0.1c0.4-0.1,0.2-0.6,0.5-0.6c0-0.2,0-0.3,0-0.5c0,0,0.1,0,0,0
							c0.1-0.2-0.3-0.2-0.1-0.4c0.2-0.1,0.1,0.1,0.2,0.1c0.4,0,0-0.3,0.2-0.4l0,0c0.1-0.1-0.1-0.3-0.1-0.5c0,0,0,0,0.1,0
							c-0.2-0.1-0.2-0.4-0.3-0.5c0.1,0,0.1,0.1,0.2,0c0-0.1-0.2,0-0.3-0.1c0.1-0.1,0.1-0.2,0.3-0.2l0,0.1c0.2-0.1,0-0.2,0-0.3l0.1,0
							c-0.1-0.2-0.3-0.2-0.3-0.4l-0.1,0c-0.2-0.1,0.1-0.1-0.1-0.2l0.2-0.1c-0.1-0.1-0.3-0.3-0.4-0.4c0.2,0,0.3,0.2,0.4,0.3
							c0-0.1-0.1-0.3-0.2-0.3c0,0,0.1,0.1,0.1,0.1c-0.2-0.1-0.3-0.2-0.4-0.3c0.4-0.1,0-0.5,0.2-0.7c-0.1-0.1-0.2-0.2-0.2-0.5
							c-0.1-0.2-0.2-0.5-0.5-0.6c0,0.4-0.1-0.1-0.3,0.3c-0.1,0-0.1,0-0.1-0.1c0,0-0.3-0.3-0.3-0.3c-0.1-0.1,0.1-0.1,0.1-0.1
							c-0.3,0-0.1-0.2-0.3-0.2c0,0.1-0.1,0.2-0.3,0.2c0,0,0.3,0.1,0.3,0.1c-0.2,0.1-0.3,0.1-0.4,0c-0.1-0.1-0.2-0.1-0.3,0.1l0.1-0.1
							c-0.2,0.1-0.6,0.3-0.5,0.6c0,0-0.1-0.1-0.1-0.1c-0.3,0.2-0.4,0.7-0.7,0.7l0-0.1c0,0.1,0,0.2-0.1,0.2c0,0,0-0.1-0.1-0.1
							c0,0,0,0.2-0.1,0.2l0-0.1c-0.3,0.1-0.2,0.5-0.3,0.7c-0.2-0.2-0.4-0.1-0.5-0.1l0,0c-0.3,0.2-0.3,0.5-0.4,0.8
							c-0.3-0.1-0.6,0.4-0.8,0.3c0,0,0.1,0.2,0.1,0.2c0,0,0,0.2-0.1,0l0,0c-0.1-0.2-0.1-0.2-0.1-0.2l0,0.3c0-0.2,0-0.2-0.2-0.2
							c-0.1,0-0.2-0.1-0.1-0.3c-0.1,0-0.1-0.1-0.2-0.1l0.1-0.1c-0.1-0.2-0.1-0.2-0.2-0.4l0.1,0c0-0.1-0.5,0.1-0.6-0.1l0.2-0.1
							c-0.1-0.2,0-0.5-0.3-0.6c0,0,0.1,0,0.1,0c0-0.1,0-0.4-0.3-0.3c0.2-0.1-0.1-0.2-0.2-0.3l0.2,0c-0.2,0-0.3,0-0.4-0.2
							c0,0,0.1-0.1,0.1,0c0.1-0.1-0.2-0.1-0.1-0.2l0.1,0c0-0.1-0.1-0.1-0.2-0.1c-0.1-0.1,0-0.2,0.1-0.3c-0.1,0-0.2,0-0.2-0.1
							c0.1,0,0.1,0,0.1,0c0.1-0.2-0.2-0.3-0.1-0.4c0.1,0,0.1,0,0.1,0c0,0.2,0,0.3,0,0.3c0.1,0,0.2-0.2,0.4-0.1
							c-0.1-0.1-0.4-0.2-0.3-0.4c0,0,0,0,0,0l0,0c0,0,0-0.1,0-0.1c0-0.1,0-0.1,0-0.1c0.1,0,0-0.2,0-0.3c-0.2,0.1-0.2-0.1-0.3,0.1
							c0,0,0,0,0,0.1c0,0,0,0,0,0c0,0,0,0,0,0c0,0.1,0,0.1,0.1,0.2c-0.1,0-0.2-0.1-0.1-0.2c-0.1,0-0.2,0-0.3,0
							c0.2-0.2,0.2-0.5,0.3-0.6c-0.2-0.2-0.6-0.5-0.9-0.3c-0.1,0,0-0.1-0.1-0.2c0.1,0,0.1,0,0.1,0c-0.2,0-0.5-0.1-0.5,0.1
							c-0.2-0.1,0.1-0.2-0.1-0.2l0-0.1c-0.3-0.2-0.5,0-0.6,0.1c-0.2,0.2-0.3,0.3-0.6,0.2c0,0,0.1,0,0.1,0.1c-0.6,0-0.9,0.7-1.5,0.8
							c-0.2,0.1-0.1,0.2-0.1,0.3l-0.2-0.1l0,0.3c0,0.3-0.6,0.1-0.5,0.5l0.1,0c-0.1,0.1-0.1,0.3-0.2,0.2c0,0,0.1,0.1,0,0.1l-0.1,0
							l0,0.3c-0.1,0.2-0.3-0.2-0.4,0.1c0,0.1,0.2,0.4,0.2,0.4c0,0,0.1-0.1,0.2-0.1l0,0.1c0.3,0.1,0.5,0.2,0.7,0.1l-0.1-0.2l0.1,0
							l0,0.1c0.1,0,0-0.1,0-0.2c0.1,0,0.1,0,0.2,0l-0.2-0.2c0.1,0,0.2,0.1,0.3,0.1c-0.1-0.1-0.2,0-0.3-0.2c0.1,0,0.2,0.1,0.2-0.1
							c0.1,0,0.1,0.1,0.1,0.1c0-0.1,0-0.2-0.1-0.3c0.2,0,0.1-0.2,0.3-0.1c0,0-0.1-0.2-0.1-0.3c0.2,0.3,0.2-0.2,0.4,0.1
							c-0.2-0.2,0.1-0.3,0.1-0.5c0,0,0,0.1,0,0.1c0.1,0,0.1,0,0.2,0C67,87.9,67,87.8,67,87.6c0.2,0.1,0.1,0.3,0.3,0.4
							c-0.1-0.1,0-0.2-0.1-0.4c0.1,0.1,0.1,0,0.2,0.2c-0.1-0.2,0-0.1,0-0.3c0.2,0.1,0.2,0.2,0.2,0.1C67.7,87.7,67.7,87.9,67.7,87.9z
							 M69.5,88L69.5,88C69.5,88,69.5,88,69.5,88C69.5,88,69.5,88,69.5,88z M69.5,88.3c0,0,0-0.1,0-0.1c0.1,0,0.1,0,0.1,0
							C69.6,88.2,69.6,88.3,69.5,88.3z M70.5,87.5C70.5,87.5,70.5,87.5,70.5,87.5C70.5,87.5,70.5,87.5,70.5,87.5L70.5,87.5
							C70.5,87.5,70.5,87.5,70.5,87.5z"/>
						<path fill="#202020" d="M70.3,87.4C70.3,87.4,70.3,87.4,70.3,87.4C70.2,87.4,70.2,87.4,70.3,87.4L70.3,87.4L70.3,87.4z"/>
						<path fill="#202020" d="M79.1,101.4L79.1,101.4C79.1,101.4,79.1,101.4,79.1,101.4L79.1,101.4z"/>
						<polygon fill="#202020" points="70.8,92.4 70.8,92.4 70.8,92.4 						"/>
						<path fill="#202020" d="M77.8,102.5C77.8,102.5,77.8,102.5,77.8,102.5C77.8,102.5,77.8,102.5,77.8,102.5z"/>
						<path fill="#202020" d="M77.4,103l-0.1,0C77.3,103,77.4,103,77.4,103z"/>
						<path fill="#202020" d="M77,103.3C77,103.3,77,103.3,77,103.3L77,103.3L77,103.3z"/>
						<path fill="#202020" d="M76.7,97.7L76.7,97.7C76.6,97.7,76.7,97.7,76.7,97.7z"/>
						<path fill="#202020" d="M79.2,98.6c0,0-0.1,0-0.1,0C79.1,98.6,79.1,98.7,79.2,98.6z"/>
						<polygon fill="#202020" points="76.8,94.9 76.8,94.9 76.8,94.9 						"/>
						<path fill="#202020" d="M79,98.5C79,98.6,79,98.6,79,98.5C79.1,98.6,79.1,98.5,79,98.5z"/>
						<path fill="#202020" d="M75.1,103.9L75.1,103.9C75.1,103.9,75.1,103.9,75.1,103.9L75.1,103.9z"/>
						<path fill="#202020" d="M75.1,103.9L75.1,103.9C75.1,104,75.1,104,75.1,103.9z"/>
						<path fill="#202020" d="M75,104L75,104C75.1,104,75.1,104,75,104z"/>
						<path fill="#202020" d="M75.7,103.9L75.7,103.9C75.7,103.9,75.7,103.9,75.7,103.9z"/>
						<path fill="#202020" d="M75.9,103.8c0,0-0.1-0.1-0.2,0l0,0C75.7,103.8,75.9,104,75.9,103.8z"/>
						<path fill="#202020" d="M77,104.1l-0.2,0.1c0.1,0,0.1,0.1,0.1,0.1C77.2,104.4,76.8,104.2,77,104.1z"/>
						<path fill="#202020" d="M77.5,103.8C77.5,103.9,77.6,103.9,77.5,103.8C77.6,103.9,77.6,103.8,77.5,103.8z"/>
						<path fill="#202020" d="M79.7,100.3l0.1,0.1C79.9,100.3,79.8,100.4,79.7,100.3z"/>
						<polygon fill="#202020" points="79.2,99.4 79.1,99.4 79.3,99.5 						"/>
						<polygon fill="#202020" points="80.3,98.9 80.3,98.9 80.2,98.8 						"/>
						<path fill="#202020" d="M78.4,94.7l-0.2,0C78.2,94.7,78.4,94.8,78.4,94.7z"/>
						<path fill="#202020" d="M78.5,91.6c0.1,0,0.1-0.1,0-0.2C78.5,91.4,78.4,91.5,78.5,91.6z"/>
						<polygon fill="#202020" points="72.1,91.7 72.2,91.7 72.1,91.7 						"/>
					</g>
				</g>
			</g>
		</g>
	</g>
	<g>
		<g>
			<g>
				<g>
					<g>
						<path fill="#202020" d="M96.2,57.7c0.1,0,0.1-0.1,0.1-0.1L96.2,57.7L96.2,57.7z"/>
						<path fill="#202020" d="M96.1,57.2c-0.1,0.1-0.2,0.2-0.2,0.4c0.1-0.2,0.1-0.1,0.2-0.3c0.1,0,0.1,0.1,0,0.2c0,0,0,0.1,0.1,0
							c0-0.2-0.1-0.2-0.2-0.2C96,57.2,96.1,57.2,96.1,57.2z"/>
						<path fill="#202020" d="M92,59.7L92,59.7C92,59.7,92,59.7,92,59.7z"/>
						<path fill="#202020" d="M88,61.4C88,61.3,88,61.3,88,61.4C88,61.3,88,61.4,88,61.4z"/>
						<path fill="#202020" d="M87.5,62C87.5,62,87.5,62,87.5,62C87.5,62,87.5,62,87.5,62z"/>
						<path fill="#202020" d="M92,59.7l-0.1-0.1C91.9,59.7,92,59.7,92,59.7z"/>
						<path fill="#202020" d="M95.3,57.6C95.3,57.6,95.3,57.5,95.3,57.6L95.3,57.6L95.3,57.6z"/>
						<path fill="#202020" d="M93,59.8L93,59.8c0-0.1,0-0.1-0.1-0.1L93,59.8z"/>
						<path fill="#202020" d="M93.1,58.8c0,0,0.1,0.1,0.2,0.1c-0.1,0-0.1-0.1-0.1-0.1C93.2,58.8,93.2,58.8,93.1,58.8z"/>
						<path fill="#202020" d="M94.8,57L94.8,57C94.8,57,94.8,57,94.8,57z"/>
						<path fill="#202020" d="M92.7,59.7C92.6,59.7,92.6,59.6,92.7,59.7L92.7,59.7z"/>
						<path fill="#202020" d="M85.8,88.7L85.8,88.7C85.8,88.7,85.8,88.7,85.8,88.7z"/>
						<polygon fill="#202020" points="86.9,90 86.9,90 86.8,90.1 						"/>
						<path fill="#202020" d="M86.9,63.4L86.9,63.4C86.9,63.3,86.9,63.4,86.9,63.4z"/>
						<path fill="#202020" d="M82.7,72.1c0.2-0.1,0.2,0.3,0.3,0.1C83,72.2,82.9,71.9,82.7,72.1z"/>
						<path fill="#202020" d="M95.3,57.6C95.3,57.6,95.2,57.6,95.3,57.6C95.2,57.6,95.3,57.6,95.3,57.6z"/>
						<polygon fill="#202020" points="83.1,72.1 83.1,72.1 83.1,72.1 						"/>
						<path fill="#202020" d="M87.5,66.7C87.6,66.7,87.6,66.7,87.5,66.7C87.6,66.7,87.6,66.7,87.5,66.7z"/>
						<path fill="#202020" d="M87.2,64.3L87.2,64.3C87.2,64.3,87.2,64.3,87.2,64.3z"/>
						<path fill="#202020" d="M88.2,67.6C88.2,67.7,88.2,67.7,88.2,67.6L88.2,67.6C88.2,67.7,88.2,67.7,88.2,67.6z"/>
						<polygon fill="#202020" points="88.1,68.4 88.1,68.4 88.1,68.4 						"/>
						<path fill="#202020" d="M83.9,86.3c0,0-0.1,0.1-0.1,0.1C83.9,86.3,84,86.5,83.9,86.3z"/>
						<path fill="#202020" d="M95.3,57.5C95.3,57.5,95.3,57.6,95.3,57.5L95.3,57.5C95.3,57.5,95.3,57.5,95.3,57.5z"/>
						<path fill="#202020" d="M89.4,67.4c0,0,0,0.3,0,0.3C89.5,67.6,89.5,67.4,89.4,67.4z"/>
						<path fill="#202020" d="M87.7,79.2L87.7,79.2C87.8,79.3,87.8,79.3,87.7,79.2z"/>
						<path fill="#202020" d="M89.4,68.6c-0.1,0-0.1,0.1-0.2,0.1c0,0,0,0,0,0.1C89.3,68.8,89.4,68.6,89.4,68.6z"/>
						<path fill="#202020" d="M83.8,86.4L83.8,86.4L83.8,86.4z"/>
						<path fill="#202020" d="M84.6,87.2c-0.1-0.1-0.2,0-0.3,0.1c-0.1-0.1,0.1-0.2,0.2-0.3c-0.1-0.1-0.3-0.1-0.3-0.2c0,0,0,0,0.1,0
							c-0.2-0.1-0.1-0.3-0.4-0.4c0,0,0,0,0,0c-0.1,0-0.2,0.1-0.3,0.1c0-0.1-0.2-0.1,0-0.2c0,0,0.1,0,0.1,0.1l-0.1-0.1
							c0.2-0.1,0.1,0.1,0.2,0.1c-0.1-0.1-0.3-0.3-0.2-0.4c0.2,0,0.1,0.3,0.3,0.1l0,0.2c0.3-0.2,0,0.1,0.3-0.1c0-0.2-0.1-0.2-0.1-0.5
							c-0.1,0-0.2,0-0.3,0c-0.2-0.3,0.5-0.3,0.2-0.5c-0.1-0.1-0.4-0.1-0.2-0.3l0.2,0.1c0-0.2-0.3-0.2-0.1-0.4c0.1,0.1,0,0.2,0.1,0.2
							c0.2-0.1-0.1-0.1-0.1-0.2l0.2,0c0-0.2,0-0.5,0-0.8c0,0,0.1,0.1,0.2,0.1c0-0.3,0.3-0.6,0.6-0.8l-0.1-0.2c0,0,0.1,0,0.1,0.1
							c0.1-0.1-0.1-0.1-0.1-0.2c0-0.1,0.1,0,0.1,0.1c0-0.2,0.2-0.7,0.5-0.7l0,0.1c0.2-0.1,0-0.4,0.2-0.4l0,0
							c0.4-0.2,0.7-0.6,1.2-0.6c-0.1-0.2,0.5-0.3,0.2-0.6c0.3-0.2,0.3,0,0.6-0.4c0.1-0.1-0.1-0.3-0.1-0.4l0.2,0l-0.1-0.2l0.2-0.1
							l0-0.2c0,0.1-0.1,0.1-0.1,0.1c0-0.2,0.1-0.5,0.2-0.5c0,0-0.2-0.5-0.2-0.5c0.1,0,0.1,0.1,0.2,0.1c-0.2-0.2,0.2-0.1,0-0.3
							c0,0-0.1,0-0.1,0c0.1-0.1,0-0.4-0.1-0.6l0.1,0c-0.1-0.4-0.4-0.7-0.6-1c0,0.1-0.2,0.2-0.2,0.2l0.1-0.1c-0.1,0,0,0.1-0.2,0.1
							c-0.1-0.1,0.1-0.2,0.2-0.2l-0.2-0.1c0,0,0.1,0,0.2-0.1c-0.1,0,0-0.4-0.3-0.3l0,0c-0.3-0.3-0.4-0.4-0.6-0.6
							c-0.1,0.1-0.2,0-0.3,0c-0.1-0.2-0.2-0.4-0.3-0.6c-0.2-0.1-0.1,0.1-0.3,0.1c0.1-0.1-0.1-0.3,0.1-0.3c-0.2-0.2-0.3-0.2-0.6-0.4
							c0,0.1,0,0.1-0.1,0.1c-0.1,0,0-0.2,0-0.2l0,0c-0.2-0.1-0.2-0.3-0.3-0.6c0-0.2,0-0.4-0.2-0.5l0,0c0,0-0.2-0.2-0.2-0.2
							c0-0.1,0.1,0,0.2-0.1c-0.3-0.2,0-0.4-0.2-0.7c0.2-0.1,0.2-0.2,0.3-0.4c0-0.2,0-0.4,0.2-0.4l-0.1,0c-0.1-0.1,0.1,0,0.1-0.1
							c-0.1,0-0.1,0-0.1,0c0.2-0.6,0.9-0.8,1.3-0.8c0.2,0,0-0.5,0.3-0.4l0,0.2c0.4-0.3,1-0.2,1.6-0.5c0,0.1,0,0.1-0.1,0.1
							c0.2,0.1,0.5-0.1,0.4-0.2c0.1,0,0.1,0.1,0.1,0.1c0.2,0,0.3-0.3,0.4-0.2c0,0,0,0.1,0,0.1c0.1-0.1,0.4-0.3,0.3-0.3
							c0.3-0.1,0.4-0.5,0.5-0.7c-0.1-0.2,0.2-0.5,0-0.6c0.3,0.1,0.2-0.6,0-0.7c0.1,0,0-0.2,0.2-0.1c-0.1-0.2-0.2-0.3-0.3-0.2
							c0.2-0.4-0.5-0.4-0.2-0.7c-0.3-0.3-0.5-0.6-0.6-0.9c0.2-0.1,0.1,0.4,0.4,0.3c-0.2-0.3-0.5-0.4-0.5-0.7c0-0.1,0.1,0,0.2,0
							c-0.2-0.3-0.1-0.6-0.2-0.9c0,0,0.1,0,0.1,0.1c0-0.1,0-0.1-0.1-0.1l0,0.1c-0.2,0.1-0.4-0.2-0.4-0.2c0.3,0.1,0.1-0.3,0.5-0.1
							c0,0-0.1-0.1-0.2-0.1c0-0.1,0.1-0.1,0.2,0c0-0.2-0.2-0.1-0.2-0.3c0.1,0,0.1,0,0.1,0.1c-0.1-0.1-0.2-0.2-0.1-0.4
							c0,0,0.1,0,0.1,0.1c0-0.3-0.2-0.5,0-0.8c0.2,0.2,0.1-0.1,0.3,0l0-0.2l-0.1,0c0.1-0.1,0-0.3,0.1-0.4l0,0.1c0,0,0.1-0.2,0.1-0.2
							l-0.1,0.1c0-0.2-0.2-0.1-0.1-0.3c0,0,0.1-0.1,0.2-0.1l0,0c0-0.1,0-0.2,0.1-0.2c0.1,0,0.2,0.2,0.2,0.2
							c-0.1-0.2,0.2-0.3,0.1-0.5c0,0.1,0.1,0.1,0.1,0.2l0-0.1c0.1,0,0.1,0,0.1,0.1c0.2-0.1-0.2-0.2,0-0.2c0,0,0,0,0,0.1
							c0.2-0.1,0.3-0.3,0.6-0.4c0.1,0.2-0.1,0.1,0,0.3c0.2-0.2,0.5-0.5,0.8-0.5l-0.1,0c0-0.3,0.2,0.1,0.4-0.1c0,0,0,0.2,0,0.1
							c0.2,0,0.4-0.1,0.7-0.2l0,0.1c0.1,0.1,0.3,0.1,0.4,0.2c0.1-0.1,0.2,0,0.1-0.1c0.2,0.2,0.5,0.5,0.7,0.5
							c0.2,0.1,0.3,0.1,0.5,0.3c0,0,0.2,0.1,0.2,0.1c0,0.1,0,0.2,0.1,0.2c0,0,0-0.6,0-0.6c-0.1-0.1-0.1,0-0.2-0.1
							c-0.1-0.2-0.1-0.3-0.1-0.4c0.1,0.3,0.2,0.3,0.3,0.3c0,0-0.1-0.1-0.1-0.2c0.2,0-0.2-0.3-0.1-0.4l0.1,0.1c0-0.1-0.1-0.3-0.1-0.4
							c0.2,0,0.1,0.1,0.2,0.2c0-0.2-0.2-0.4-0.1-0.5c0,0.1,0,0.2,0.1,0.3c0.2-0.1,0.2-0.2,0.2-0.3l0,0l0.1-0.2l-0.1,0
							c-0.4-0.2,0-0.3-0.2-0.6c0.2,0.3,0.1,0.1,0.3,0.2c0.1,0,0.1-0.1,0.2,0c-0.1-0.1,0.2-0.1,0-0.3c0.1,0,0.1-0.1,0.2,0
							c0-0.1-0.1,0-0.2-0.1c0-0.1,0.1-0.2,0.2-0.3c0.1-0.1,0.2-0.1,0.2-0.3c0.1-0.2,0-0.4,0.2-0.6c0.1,0,0,0.2,0,0.2
							c0.1,0,0.2,0,0.3-0.1c0,0.1,0,0.1,0.1,0.1c0.1,0,0-0.2,0.1-0.2c0,0.1,0,0.2,0,0.2c0.1-0.1,0.2-0.2,0.3-0.2
							c0,0.1-0.1,0.1-0.1,0.2c0.1-0.1,0.3-0.1,0.3-0.2l-0.1-0.1c0,0,0,0.1,0,0.2c-0.1,0.1-0.1-0.1-0.1-0.1l0.1,0
							c-0.1-0.3-0.3,0.1-0.5,0.1l0-0.2c0,0-0.1,0.2-0.1,0.2c-0.1,0-0.1-0.2,0-0.2c-0.2-0.1-0.1,0.1-0.2,0c0,0,0,0,0,0l-0.1,0.1
							c0-0.1-0.1-0.1,0-0.1c-0.3,0-0.2,0.3-0.4,0.3l0,0c-0.2,0.3,0.1,0.2,0,0.5c0,0-0.4-0.2-0.4-0.2l0.1,0.1c0,0-0.1,0.1-0.1,0
							c0,0.2,0.1,0,0.1,0.2c-0.2,0-0.2,0.4-0.4,0.3c0.1,0.1,0.2-0.1,0.2,0.1c-0.3-0.1,0,0.2-0.2,0.3c-0.1-0.1,0-0.2-0.2-0.1
							c0.2,0.2-0.2,0.3-0.1,0.4c0.2,0.1,0,0.3,0.1,0.5c-0.1,0-0.2,0.2-0.2,0.3l0,0c0.2,0.2,0.1,0.3,0.2,0.5
							c-0.1-0.2-0.2-0.2-0.2-0.3l0,0.1c0.1,0.1,0.1,0.2,0.1,0.3L93,59.8c0,0,0,0.1,0,0.2c0,0.1,0,0,0,0c0,0-0.1,0-0.1-0.1
							c0.1,0.2,0.4,0.6,0.2,0.7c0-0.1-0.1-0.2-0.1-0.3c0-0.1,0-0.1,0-0.1c0,0,0,0.1-0.1,0l0-0.1c-0.1-0.1,0,0.1,0,0.1
							c0-0.1-0.1-0.1-0.1-0.2c0,0,0.1,0.1,0.1,0c-0.1-0.1-0.1-0.2-0.2-0.3c0,0.1,0,0.2,0,0.2c-0.1,0-0.1-0.2-0.1-0.3
							c0,0.1-0.1,0-0.1,0.1c0,0,0-0.1,0-0.1c-0.1,0-0.5-0.1-0.4,0.1l0,0l0,0l0,0l0,0c-0.3,0.1-0.6-0.2-1-0.1l0-0.1
							c-0.2,0.1-0.4,0.1-0.5,0.2c-0.1,0-0.1-0.1-0.1-0.1c-0.1,0.1-0.1,0.1-0.3,0.1c0.1-0.1-0.1-0.1,0.1-0.1c-0.2,0-0.3-0.1-0.4,0.2
							c0-0.2-0.2-0.1-0.3,0l0.2,0c-0.1,0.1-0.2,0.1-0.3,0.1l0-0.2c-0.5,0-0.4,0.7-0.9,0.6c0,0.2,0.2-0.1,0.3,0.1
							c-0.2,0.1-0.5,0-0.5,0.1c-0.3,0.1,0.1,0.4-0.2,0.5c0.1,0,0.2,0.1,0.2,0.3c-0.1,0.1-0.4,0-0.3-0.1c0,0,0,0,0.1,0
							c0-0.1,0-0.1-0.1-0.1l0,0.1c-0.1,0-0.2,0.3-0.3,0.2c0,0.2,0.1,0.1,0.1,0c-0.2,0.2-0.2,0.3-0.3,0.5c0.1,0,0.1,0,0.1,0
							c-0.2,0.3,0.1,0.2,0,0.4c-0.1,0.1-0.2-0.1-0.2,0.1c-0.1,0.1-0.2,0-0.2-0.1c0.1,0.3-0.2,0.4-0.2,0.5l0-0.1c0,0.1,0,0.1,0,0.2
							l0.1,0c0,0.1,0,0.1-0.1,0.1c0.1,0.1,0.2,0,0.3,0.1c-0.1,0.1,0,0.3-0.1,0.3c0.1-0.3-0.2,0-0.2-0.2c0,0.1,0,0.1,0,0.2
							c0,0,0,0,0,0c-0.2,0.3,0.2,0.1,0.2,0.4c-0.1,0-0.2,0.1-0.2,0.1c0-0.1,0.2,0,0.2,0.1c-0.1,0.2,0.1,0.2,0.1,0.3l0-0.1
							c0.1,0,0.1,0.1,0.1,0.2c-0.1,0-0.1-0.1-0.1-0.1c0.2,0.1-0.2,0.3,0,0.5c-0.1,0.1-0.2,0-0.2,0.1c0.2,0.2-0.1,0.3,0.1,0.5
							c0.1-0.1,0.1-0.1,0.2,0l-0.2-0.3l0.2,0.2c0-0.1-0.1-0.2-0.1-0.3c0.1,0.1,0.1,0.1,0.2,0c-0.2,0.2,0.2,0.3,0.1,0.5l-0.3,0.1
							c-0.1,0.3,0.3,0.4,0.3,0.8l0-0.1c0.1,0,0.1,0.2,0.2,0.3c-0.1,0-0.1,0.1-0.2,0.2c0.1,0,0.1,0.2,0.3,0.2L87.8,67
							c0.1,0.3,0.4,0.1,0.5,0.3c-0.1,0-0.2,0.1-0.3,0c0,0.1,0,0.1,0.1,0.1c-0.1,0.1,0.2,0.1,0.1,0.2c0.1,0,0.2,0,0.2,0.1
							c0,0-0.1,0-0.1,0c0.1,0,0.1,0.1,0.2,0c-0.2,0.1-0.2,0.2-0.2,0.4c0,0.1-0.1,0.3-0.2,0.2c0,0.1-0.1,0.2-0.3,0.3c0,0,0-0.1,0-0.1
							c-0.2,0,0,0.4-0.2,0.3c-0.2-0.1,0.1-0.1,0-0.2c-0.1-0.3-0.2,0.1-0.5,0l0,0c-0.1-0.1-0.3,0.2-0.5,0.2c0,0,0,0,0-0.1
							c-0.1,0.2-0.4,0.3-0.6,0.4c0-0.2,0.1-0.1,0-0.2c-0.1,0,0.1,0.2-0.1,0.3c-0.1-0.1-0.2-0.1-0.3-0.3l0.2,0
							c-0.1-0.2-0.2,0.1-0.3,0l0-0.1c-0.3,0.1-0.2,0.3-0.5,0.4l0.1,0.1c-0.1,0.3-0.2-0.1-0.3,0.2l-0.2-0.2c-0.1,0.1-0.2,0.4-0.4,0.6
							c0-0.2,0.1-0.4,0.2-0.6c-0.1,0.1-0.3,0.2-0.3,0.4c0,0,0-0.1,0.1-0.1c0,0.2-0.1,0.4-0.2,0.6c-0.3-0.3-0.5,0.4-0.8,0.3
							c-0.1,0.4-0.5,0.7-0.5,1.3c0.4-0.1,0,0.1,0.3,0.2c0,0.1,0,0.2,0,0.2c0,0-0.2,0.3-0.2,0.3c-0.1,0.1-0.1-0.1-0.2-0.1
							c0,0.3-0.1,0.1-0.2,0.3c0.1,0,0.2,0.1,0.2,0.2c0,0,0.1-0.2,0.1-0.2c0.2,0.3-0.3,0.4,0,0.7l-0.1-0.1c0.1,0.2,0.2,0.7,0.6,0.7
							c0,0-0.1,0.1-0.1,0.1c0.2,0.4,0.7,0.6,0.8,1l-0.1,0c0.1,0,0.2,0,0.2,0.1c0,0-0.1,0-0.1,0.1c0,0,0.2,0.1,0.3,0.2l-0.1,0
							c0.2,0.4,0.6,0.3,0.8,0.4c-0.2,0.2,0,0.4,0,0.6l0,0c0.3,0.3,0.6,0.3,0.9,0.6c-0.1,0.3,0.3,0.7,0.3,1c0-0.1,0.2-0.1,0.2,0
							c0,0.1,0.2,0.1,0,0.2l0,0c-0.2,0.1-0.1,0.2-0.1,0.4l0.3,0c-0.2,0.2-0.1,0.4-0.1,0.5c0,0.2,0.1,0.3-0.2,0.3
							c0.1,0.1,0,0.1,0.1,0.2l-0.1-0.1c-0.1,0.1-0.2,0.2-0.3,0.4l-0.1-0.1c-0.1,0.1,0.2,0.5,0.1,0.6l-0.2-0.2
							c-0.2,0.2-0.6,0.1-0.7,0.5c0,0,0-0.1,0-0.1c-0.1,0.1-0.6,0.2-0.4,0.5c-0.1-0.2-0.3,0.2-0.4,0.4l-0.1-0.1
							c0,0.3,0.1,0.3-0.1,0.5c0,0-0.1-0.1,0-0.1c-0.2,0.1,0,0.2-0.2,0.3l0-0.1c-0.1,0.1-0.1,0.2,0,0.3c0,0.1-0.2,0.2-0.4,0.2
							c0.1,0.1,0.1,0.2,0,0.3c-0.1,0-0.1-0.1-0.1-0.1c-0.2,0.2,0,0.5-0.3,0.6c-0.1,0-0.1,0-0.1,0c0.1-0.2,0.2-0.4,0.2-0.4
							c-0.1-0.1-0.2,0.1-0.4-0.1c0,0.2,0.1,0.5,0,0.7c0,0,0,0-0.1,0l0,0c0,0,0,0.1,0,0.1c0,0-0.1,0.1-0.1,0.1
							c-0.1,0-0.1,0.2-0.2,0.3c0.2,0,0.1,0.2,0.3,0.1c0,0,0,0,0-0.1c0,0,0,0,0,0c0,0,0,0,0,0c0-0.1,0-0.1,0.1-0.2
							c0.1,0.1,0.1,0.2,0,0.3c0.1,0.1,0.2,0.2,0.2,0.2c-0.2,0.1-0.4,0.3-0.6,0.3c0,0.3,0,0.7,0.3,0.9c0,0.1-0.1,0.1-0.1,0.1
							c0,0,0-0.1-0.1-0.1c0.1,0.2,0,0.5,0.2,0.5c-0.1,0.2-0.2-0.1-0.1,0.2l-0.1,0c-0.1,0.3,0,0.5,0.2,0.7c0.2,0.2,0.3,0.4,0.3,0.7
							c0,0,0-0.1,0-0.1c0.1,0.7,0.8,1.1,1.1,1.8c0.1,0.2,0.2,0.1,0.4,0.1l-0.1,0.2l0.3,0c0.3,0,0.2,0.6,0.6,0.6l0-0.1
							c0.1,0.1,0.4,0.1,0.3,0.2c0,0,0.1-0.1,0.1,0l0,0.1c0,0,0.4,0,0.4,0c0.2,0.1-0.2,0.3,0.2,0.5c0.2,0,0.4-0.2,0.4-0.2
							c-0.1,0-0.1-0.1-0.1-0.2l0.1,0c0.1-0.3,0.2-0.5,0-0.7l-0.2,0.1l0-0.1l0.1,0c0-0.1-0.1-0.1-0.2,0c0-0.1,0-0.1,0-0.2l-0.2,0.2
							c0-0.1,0.1-0.2,0.1-0.3c-0.1,0.1,0,0.2-0.2,0.3c0-0.1,0-0.2-0.1-0.2c0-0.1,0.1-0.1,0.1-0.1c-0.1,0-0.2-0.1-0.3,0
							c0-0.2-0.3-0.1-0.1-0.3c-0.1,0-0.2,0.1-0.3,0c0.3-0.2-0.2-0.2,0-0.4c-0.3,0.1-0.4-0.1-0.6-0.2c0,0,0.1,0,0.1,0
							c-0.1-0.1,0-0.2,0-0.3c-0.2,0.1-0.3,0-0.5,0.1c0.1-0.2,0.3-0.1,0.4-0.3c-0.1,0.1-0.3-0.1-0.4,0.1c0.1-0.2,0-0.1,0.1-0.3
							c-0.2,0.1-0.1,0-0.3,0c0-0.2,0.2-0.2,0.1-0.3C84.4,87.1,84.6,87.2,84.6,87.2z M83.9,83.7L83.9,83.7
							C83.9,83.7,83.9,83.8,83.9,83.7C83.9,83.8,83.9,83.7,83.9,83.7z M84.1,83.4c0,0,0,0.1-0.1,0.1c-0.1,0-0.1,0-0.1-0.1
							C83.9,83.5,84,83.4,84.1,83.4z M82.7,83.7C82.7,83.6,82.8,83.6,82.7,83.7C82.8,83.6,82.8,83.7,82.7,83.7L82.7,83.7
							C82.8,83.7,82.7,83.7,82.7,83.7z"/>
						<path fill="#202020" d="M82.9,83.9C82.9,83.9,82.9,83.9,82.9,83.9C82.9,83.9,82.9,83.9,82.9,83.9L82.9,83.9L82.9,83.9z"/>
						<path fill="#202020" d="M92.1,59.7L92.1,59.7C92.1,59.7,92.1,59.7,92.1,59.7C92.1,59.7,92.1,59.7,92.1,59.7z"/>
						<polygon fill="#202020" points="87.7,79.8 87.7,79.8 87.7,79.8 						"/>
						<path fill="#202020" d="M93.7,60.5C93.7,60.5,93.7,60.5,93.7,60.5C93.7,60.5,93.7,60.5,93.7,60.5z"/>
						<path fill="#202020" d="M93.8,59.3l0.1-0.1C93.9,59.3,93.8,59.3,93.8,59.3z"/>
						<path fill="#202020" d="M94,58.8C94,58.8,94,58.8,94,58.8L94,58.8L94,58.8z"/>
						<path fill="#202020" d="M88.3,64.2C88.3,64.2,88.3,64.2,88.3,64.2C88.3,64.3,88.3,64.2,88.3,64.2z"/>
						<path fill="#202020" d="M88.7,61.4c0,0,0,0.1,0,0.1C88.8,61.5,88.8,61.5,88.7,61.4z"/>
						<polygon fill="#202020" points="89.4,67.3 89.4,67.3 89.4,67.4 						"/>
						<path fill="#202020" d="M88.7,61.6c0.1,0,0.1-0.1,0.1-0.1C88.7,61.6,88.7,61.6,88.7,61.6z"/>
						<path fill="#202020" d="M95.7,57.6L95.7,57.6C95.7,57.6,95.7,57.5,95.7,57.6L95.7,57.6z"/>
						<path fill="#202020" d="M95.7,57.5L95.7,57.5C95.7,57.5,95.7,57.5,95.7,57.5z"/>
						<path fill="#202020" d="M95.8,57.5L95.8,57.5C95.8,57.5,95.8,57.5,95.8,57.5z"/>
						<path fill="#202020" d="M95.1,57.6L95.1,57.6C95.1,57.6,95.1,57.6,95.1,57.6z"/>
						<path fill="#202020" d="M94.9,57.7c0.1,0,0.2,0.1,0.2,0l0,0C95.1,57.7,94.9,57.6,94.9,57.7z"/>
						<path fill="#202020" d="M93.6,57.9l0.2-0.2c-0.1,0-0.2,0-0.1-0.1C93.4,57.8,93.8,57.7,93.6,57.9z"/>
						<path fill="#202020" d="M93.3,58.6c0-0.1-0.1,0-0.1,0C93.2,58.7,93.2,58.7,93.3,58.6z"/>
						<path fill="#202020" d="M90.4,59.7l0-0.1C90.3,59.6,90.4,59.6,90.4,59.7z"/>
						<polygon fill="#202020" points="89.8,60.7 89.9,60.8 89.9,60.6 						"/>
						<polygon fill="#202020" points="88.7,60.2 88.7,60.1 88.6,60.3 						"/>
						<path fill="#202020" d="M88,68.2l0.2,0.1C88.2,68.2,88,68.1,88,68.2z"/>
						<path fill="#202020" d="M85.1,69.3c-0.1-0.1-0.2-0.1-0.2,0C85,69.3,85.1,69.3,85.1,69.3z"/>
						<polygon fill="#202020" points="86.3,78.8 86.3,78.7 86.3,78.8 						"/>
					</g>
				</g>
			</g>
		</g>
	</g>
</g>
</svg>
