<?xml version="1.0" encoding="utf-8"?>
<!-- Generator: Adobe Illustrator 18.0.0, SVG Export Plug-In . SVG Version: 6.00 Build 0)  -->
<!DOCTYPE svg PUBLIC "-//W3C//DTD SVG 1.1//EN" "http://www.w3.org/Graphics/SVG/1.1/DTD/svg11.dtd">
<svg version="1.1" id="Layer_1" xmlns="http://www.w3.org/2000/svg" xmlns:xlink="http://www.w3.org/1999/xlink" x="0px" y="0px"
	 viewBox="0 0 144 144" enable-background="new 0 0 144 144" xml:space="preserve">
<pattern  width="49" height="49" patternUnits="userSpaceOnUse" id="New_Pattern_Swatch_2" viewBox="61 -110 49 49" overflow="visible">
	<g>
		<polygon fill="none" points="61,-110 110,-110 110,-61 61,-61 		"/>
		<g>
			<polygon fill="none" points="171.1,0 98,0 98,-73.1 171.1,-73.1 			"/>
		</g>
		<g>
			<polygon fill="none" points="122.1,0 49,0 49,-73.1 122.1,-73.1 			"/>
		</g>
		<g>
			<polygon fill="none" points="73.1,0 0,0 0,-73.1 73.1,-73.1 			"/>
		</g>
		<g>
			<polygon fill="none" points="171.1,-49 98,-49 98,-122.1 171.1,-122.1 			"/>
		</g>
		<g>
			<g>
				<g>
					<path fill="#202020" d="M98.2-96.3c-0.1,0,0,0.2,0.1,0.1l0.1-0.2C98.4-96.3,98.2-96.3,98.2-96.3z"/>
					<path fill="#202020" d="M99.3-96.3c0.1-0.2,0.1-0.5-0.1-0.5c0,0.3-0.1,0.2-0.1,0.5c-0.1,0.1-0.3,0.1-0.3,0
						c0,0.1-0.2,0.1-0.3,0.2c0.2,0.1,0.5,0,0.7-0.3C99.3-96.4,99.3-96.3,99.3-96.3z"/>
					<path fill="#202020" d="M87.6-101.6l0.1,0C87.7-101.6,87.6-101.6,87.6-101.6z"/>
					<path fill="#202020" d="M76.6-101.9c0.1,0,0.1,0,0.1,0C76.7-101.9,76.6-101.9,76.6-101.9z"/>
					<path fill="#202020" d="M74.6-101.9c0,0,0.1,0,0.1,0C74.7-101.9,74.7-101.9,74.6-101.9z"/>
					<path fill="#202020" d="M87.6-101.6l-0.3-0.1C87.3-101.6,87.4-101.6,87.6-101.6z"/>
					<path fill="#202020" d="M99.8-98.5c0,0.1,0,0.1,0,0.2L99.8-98.5L99.8-98.5z"/>
					<path fill="#202020" d="M92.4-101.9L92.4-101.9c0.1,0,0.1-0.1,0.2-0.1L92.4-101.9z"/>
					<path fill="#202020" d="M96.1-102.1c-0.1,0-0.1,0.2-0.1,0.2c0-0.1,0.1-0.1,0.2-0.1C96.1-102,96.1-102,96.1-102.1z"/>
					<path fill="#202020" d="M100.5-99.3l0,0.1C100.5-99.2,100.5-99.2,100.5-99.3z"/>
					<path fill="#202020" d="M89.7-101.8C89.7-101.9,89.7-101.9,89.7-101.8C89.7-101.9,89.7-101.8,89.7-101.8z"/>
					<path fill="#202020" d="M74-89.3C74-89.3,74-89.3,74-89.3C74-89.3,74-89.3,74-89.3z"/>
					<path fill="#202020" d="M73.2-93.6L73.2-93.6c0.1,0.1,0.1,0.1,0.1,0L73.2-93.6z"/>
					<path fill="#202020" d="M71.2-100.2C71.2-100.2,71.2-100.2,71.2-100.2C71.3-100.3,71.3-100.2,71.2-100.2z"/>
					<path fill="#202020" d="M97-95.3c-0.3-0.2,0.6-0.2,0.1-0.3C97.2-95.6,96.6-95.4,97-95.3z"/>
					<path fill="#202020" d="M99.8-98.6l0-0.1C99.8-98.6,99.8-98.6,99.8-98.6z"/>
					<path fill="#202020" d="M97.1-95.7L97.1-95.7L97.1-95.7C97.1-95.7,97.1-95.7,97.1-95.7z"/>
					<path fill="#202020" d="M73.8-92.6C73.7-92.7,73.7-92.7,73.8-92.6C73.7-92.7,73.7-92.7,73.8-92.6z"/>
					<path fill="#202020" d="M70.6-97.9l0,0.2C70.6-97.8,70.6-97.9,70.6-97.9z"/>
					<path fill="#202020" d="M76.9-93.3c0.1,0,0.1,0,0.2,0c0,0,0,0,0,0C77.1-93.4,77-93.3,76.9-93.3z"/>
					<path fill="#202020" d="M80-94.2C79.9-94.2,79.9-94.2,80-94.2c-0.1,0-0.1,0-0.2,0L80-94.2z"/>
					<path fill="#202020" d="M80-81.5c0-0.1,0-0.1,0-0.2C79.9-81.6,79.5-81.9,80-81.5z"/>
					<path fill="#202020" d="M99.9-98.5C99.9-98.5,99.8-98.5,99.9-98.5L99.9-98.5C99.9-98.4,99.9-98.4,99.9-98.5z"/>
					<path fill="#202020" d="M76.7-94.6l0.5-0.1C77.1-94.7,76.9-94.7,76.7-94.6z"/>
					<path fill="#202020" d="M92.5-77.5l0,0.1C92.5-77.5,92.5-77.5,92.5-77.5z"/>
					<path fill="#202020" d="M78.6-95.1c0.1,0,0.2,0,0.3,0c0,0,0,0,0-0.1L78.6-95.1z"/>
					<path fill="#202020" d="M80-81.7L80-81.7L80-81.7z"/>
					<path fill="#202020" d="M77.7-83.9c-0.4-0.3-0.1-0.1-0.2-0.6c-0.3-0.1-0.3-0.4-0.5-0.3c0.1-0.2,0-0.2-0.1-0.5
						c0,0.2-0.5-0.4-0.6-0.2c0.1-0.2,0.5,0.3,0.4-0.2c-0.3-0.1-0.6-0.5-0.8-0.4c-0.1-0.2-0.1-0.3-0.2-0.6c0,0,0.1,0.1,0.1,0.1
						c-0.5-0.4-0.8-1.2-1.2-1.3c0.3-0.1-0.6-1.1-0.1-0.9c-0.1-0.2-0.4-0.5-0.5-0.5c0.2-0.1-0.2-0.6-0.2-0.9
						c-0.2-0.1-0.3-0.5-0.5-0.7c0.1,0.1,0.1,0.1,0.2,0.1c-0.2-0.2-0.1-0.2-0.1-0.5c-0.2-0.3-0.2,0.1-0.4,0c-0.1-0.3,0.1-0.1,0.2-0.2
						l-0.4-0.4c0-0.1,0-0.2,0.1-0.3c-0.1-0.1-0.3-0.3-0.2-0.5c0,0,0,0.1,0.1,0.2c0,0.1,0.1,0.2,0.1,0.2l0.1-0.2L72.6-93
						c0-0.8,0.3-0.6,0.6-0.6l0.1,0.3c0.1,0,0.1-0.2,0.1-0.4c0-0.1,0.4,0.4,0.5,0.7c0.2,0.8-0.2,0.3-0.1,0.8c0,0,0.1,0.2,0.2,0.3
						c0.1,0.2,0.2,0.3,0.2,0.3l-0.1,0c0,0.1,0.1,0.2,0.1,0.2c-0.2,0,0.2,0.6,0.3,0.9l0.1-0.2c0.6,0.7,0.3,1.4,0.8,1.9l0.4,0.3
						l-0.1,0.2c0.2,0.2,0.4,0.2,0.6,0.6c0.7,1.5,2,2.7,3,4c0,0,0-0.1-0.1-0.2c0.7,1.4,1.9,1.3,2.6,2.5l-0.1,0c0.5,0.4-0.1,0,0.2,0.4
						c0.2-0.1,0.7,0.5,1.1,0.7c-0.1,0-0.2-0.1-0.3-0.2c0,0.1,0,0.2,0.1,0.3c0.5,0.1,1.2,0.8,1.7,1.2c0,0.2,0.3,0.7,0.3,1.1
						c0.1,0,0.2,0.1,0.4,0.1c0.1,0.3,0.2,0.4,0.4,0.5c-0.1-0.2-0.2-0.3-0.3-0.5l0,0c0,0,0,0-0.1-0.1c-0.1-0.1-0.2-0.2-0.1-0.1
						c-0.1-0.3,0.1,0,0.2-0.2c0.1,0.2,0.5,0.6,0.4,0.7c0.1,0.1,0.1,0.2,0.2,0.3c0.1,0.1,0.1,0.1,0.2,0.2l0,0c0,0,0,0.1,0,0.1
						c0.2,0.4,0.7,0.8,1,1.1c-0.4-0.2-0.2,0.2-0.3,0.3c0,0-0.2-0.4-0.5-0.9c0,0,0,0.1,0,0.1c0.1,0.5,0.5,0.7,0.8,1.3
						c0,0-0.1-0.1-0.1,0c0.1,0.2,0.3,0.4,0.4,0.4c-0.1,0.1,0.1,0.6,0.2,0.8c0.2,0.1,0.2,0.1,0.4,0.5l-0.2-0.1
						c0.2,0.5,0.3,0.3,0.4,0.7c0-0.2-0.1-0.1-0.1,0c0.2,0.2,0.2,0.2,0.3,0.3c0.1,0,0.1,0,0.2-0.1l-0.1,0.2c0.2,0.1,0.3-0.1,0.3,0.4
						c0-0.3,0-0.4,0-0.4c0-0.1,0.1-0.1,0.1-0.1c0,0,0,0.2,0,0.2c0-0.3,0-0.3,0.1-0.4c0.2-0.4,0.4-0.7,0.5-1.1l0.3,0
						c0.2-0.4-0.2-0.7-0.1-1.1l0,0.2c0.3-0.8,0.4-1.1,0.7-1.7l0.1,0.1c0-0.2,0.1-0.5,0.2-0.8c0.6-0.3,0.6-2.1,1.4-2.8l-0.3-0.2
						c0.1-0.3,0.2-0.8,0.5-0.9l0,0.1c0.2,0.1,0.1-0.4,0.3-0.6c0-0.2-0.1-0.4-0.1-0.3c0.5-0.9,0.7-2.3,1.1-2.9c0.1-1,0-1.8,0.3-2.9
						l0,0c0.1-0.4,0.4-1.1,0.6-1c0.1-0.8-0.1-1.4,0.3-2.3l0,0.2C95-90.6,95-91,95-91.1c0-0.1,0.1,0,0.1,0c0.2-0.2,0.1-0.4,0.2-0.6
						l0,0.1c0.5-0.6,0.8-1.9,1.5-2.7c-0.1,0.2,0,0.1,0.1,0.1c0-0.2,0.3-0.6,0.4-0.8c0-0.1,0-0.1,0-0.1c0,0,0.1,0,0.1,0
						c-0.1,0,0-0.1,0.1-0.1c0,0,0.1-0.1,0.2-0.1c0.1,0,0.1-0.1,0.1-0.1c0,0-0.1,0-0.2,0c0,0,0,0.1-0.1,0.1l0,0l0,0
						c0,0-0.1,0-0.2,0.1c0.1-0.1,0.2-0.2,0.1-0.2c0-0.1,0.2,0,0.2-0.1c0,0-0.3-0.2-0.4-0.2c0,0-0.1,0-0.4,0c0.1,0.4-0.6,0-0.3,0.4
						c-1.1,0-2-0.2-2.9-0.1c-0.4-0.3-1.8,0.1-1.8-0.4c-0.5,0-1,0.2-1.3,0.4c0.1,0,0.2,0,0.3-0.1c-0.1,0.1-0.8,0.2-1,0.2
						c0.3-0.1,0.9-0.3,1.1-0.5c-0.5,0.1-1.1,0.3-1.4,0.4l-0.1-0.2c-0.4,0.2-0.4-0.1-0.7,0.1l0.1,0.1c-0.7,0.1-0.7,0.3-1.4,0.4l0-0.1
						c-0.2,0-0.6,0.2-0.8,0.1L87-95c-0.1-0.2-0.4-0.2-0.6-0.2C86-95.2,86.3-95,86.1-95c-0.1-0.1,0-0.1,0.1-0.2
						c-0.5,0.1-1.2,0.3-1.6,0.5c0,0,0-0.1,0-0.1c-0.6,0-1,0.3-1.4,0.2l0.1,0c-0.5-0.2-1.1,0.3-1.2-0.1c-0.2,0,0.5,0,0.1-0.2
						c-0.7,0-0.4,0.4-1,0.3c0.1,0,0.1,0,0.1-0.1c-0.4,0.1-0.9,0.2-1.4,0.3c-0.6-0.2-1.7,0.5-2.4,0.4c0.2,0.1-0.1,0.2-0.1,0.2
						c0,0,0,0,0-0.1c-0.2,0.1-0.2,0.2-0.3,0.2c-0.2-0.1-0.6,0.3-0.8,0.2c0,0.1-0.2,0.1-0.4,0.1c0.4-0.2,0.1-0.2,0.3-0.4
						c-0.6,0.1-0.7,0.5-1.4,0.5L74.4-93c-0.1,0.2-0.7,0.2-0.7,0.2c-0.1-0.1-0.3-0.1-0.3-0.3c-0.3,0-0.7-0.3-0.9-0.2
						c0,0,0.3,0.2,0.3,0.2c-0.9-0.5-1.5-0.9-1.7-1.6l0.3-0.1c-0.1-0.5-0.5-0.7-0.4-1.1c-0.1,0.2,0,0.2-0.2-0.1
						c0,0.2,0.2,0.4,0.3,0.7c0,0-0.1-0.1-0.2-0.3c-0.1-0.1-0.2-0.3-0.2-0.3s0.1,0.2,0.2,0.4c0.1,0.2,0.2,0.4,0.2,0.4
						c-0.3-0.3-0.2-0.3-0.3-0.1c-0.3-0.5,0-0.6-0.3-1.1c0-0.2,0.2,0,0.2-0.3c-0.2-0.5,0.1-0.9-0.1-1.3c0-0.1,0,0.2,0.1,0.2
						c0-0.3,0-0.6-0.1-0.7l-0.1,0.3c0-0.2-0.1-0.3,0.1-0.8c0-0.3-0.1-0.5-0.2-0.2c0-0.1,0.2-0.4,0.3-0.2c0.4-0.7-0.1-0.5,0.4-1.1
						c0,0,0,0.1,0,0.1c0.1-0.1,0.2-0.2,0.3-0.3c-0.4,0.5,0.3,0-0.2,0.6c0.2,0,0.4-0.4,0.6-0.5c0.2-0.3-0.1-0.2-0.1-0.4
						c0,0,0.2-0.1,0.3-0.1l-0.2,0c0.1-0.1,0.2-0.2,0.4-0.3l-0.2,0.2c0.3-0.2,0.8-0.3,1.3-0.6c-0.1,0.1-0.3,0.3,0,0.2
						c0.5-0.3,0.2,0,0.5,0c0.6-0.2,0-0.3,0.9-0.4c0.1,0,0-0.1-0.1-0.1c0.6,0,0.9-0.2,1.5-0.1c-0.2,0-0.4-0.1-0.1-0.1
						c-0.1,0.1,0.5,0.1,0.7,0.2l0.1-0.1c0.2,0.1,0,0.1-0.2,0.1c0,0,0,0-0.2,0c-0.3,0.1-0.2,0.3,0.3,0.3c0.5-0.1,0.4-0.2,0.3-0.3
						c0.6,0.1,0.6-0.3,1.2-0.2c0.1,0,0.6,0.3,1,0.3c0.2-0.1-0.5-0.1-0.3-0.3c0.7,0.4,1.5-0.2,2.4,0.1l-0.1,0.2c0.2,0,0.4,0,0.7,0
						l-0.3-0.1c0.2,0,0.7,0,0.6,0.2c0.5-0.1,0.6-0.1,1,0c-0.5,0,0,0-0.4,0.1c0.5,0.1,0.5,0,0.9,0c-0.1,0.1,0.1,0.2,0.3,0.2
						c0.3-0.1,0.9-0.1,1.3-0.2l0,0.1c0.8-0.1,1.6,0.2,2.4,0l0,0l0,0c0,0,0,0,0,0l-0.1,0c-0.3-0.2,0.6-0.1,0.8-0.2
						c0.1,0,0.1,0.1,0.2,0.1c0-0.2,0.3-0.1,0.4-0.2c0.3,0.1,0,0.2,0.4,0.2c0.2,0,0.2-0.1,0.2-0.2c0.1,0.1,0.4,0.1,0.6,0.2
						c-0.1,0-0.2,0-0.3,0c0,0.1,0.1,0.1,0.1,0.2c0.2,0,0.1-0.2,0.3-0.1l-0.2,0.1c0.1,0,0.2,0,0.3,0c-0.2,0-0.1,0.2-0.1,0.3
						c0.6-0.1,0.1-0.4,0.1-0.5c0.6,0.1,1-0.1,1.5-0.1l-0.1,0.2c0.2,0,0.3-0.1,0.4-0.1l0.3,0c-0.2,0.1-0.3,0.1-0.3,0.2
						c0.4-0.1,0.9,0,0.9-0.3l0,0c0.5,0.1,1.5,0.1,1.5,0.1c0.5-0.1,1.2,0,1.2-0.2c0.3-0.1,0.8,0.2,1-0.1c0.4,0.1,0,0.1-0.1,0.2
						c0.4,0.1,0.7-0.3,0.9,0.1c0.4-0.1-0.1-0.1,0-0.2c0.1,0.3,0.8,0.1,1.2,0.4c0.2,0-0.2-0.1,0.2-0.1c-0.1,0.1,0.1,0.1,0.2,0.2
						l0.2-0.1c0,0,0.1,0.6,0.1,0.6c0.3,0.1,0.3,0.1,0.4,0c0,0,0.1-0.1,0.3,0.4l0,0c-0.1,0.3,0.3,0.6,0.1,1.2c0-0.2-0.1-0.1-0.1-0.1
						l0.1,0.3c0,0,0,0,0,0c-0.1,0.3,0.1,0.3-0.1,0.6c0-0.2-0.2-0.2-0.2-0.1c0,0,0,0.1,0.1,0.2c0,0.1,0.1,0.2,0.1,0.2l-0.2-0.2
						c0,0.4,0.2,1.2-0.3,1.3l0-0.2c-0.1,0-0.3,0-0.3,0.3c0,0.1,0.1,0.2,0.1,0.1l-0.2,0.1c0-0.2,0.1-0.6,0.2-0.9c0,0.1,0,0.4,0.1,0.3
						c0.1-0.3,0-0.6,0-0.9c0,0.1,0.1,0.2,0.2,0.3c0.1-0.3-0.1-0.3-0.1-0.5c0.1-0.1,0.1-0.2,0.2-0.1c0-0.3-0.1-0.6,0-0.9
						c0,0,0.1,0.4,0.2,0.2c-0.1-0.6-0.3-0.8-0.6-1.2c-0.3-0.2-0.4-0.3-0.7-0.5c-0.3-0.1-0.6-0.2-0.8-0.2c0,0.1,0.4,0.2,0,0.2
						c0.1-0.1-0.2-0.1-0.2-0.2c-0.4,0.2-0.5,0-0.8,0.1c0.1-0.1-0.2-0.1-0.3-0.1c0-0.2-0.4,0,0.1-0.3c-0.6,0.3-1,0-1.5,0.4l0.2,0
						l-0.6-0.1l0,0c-0.3,0-0.3,0-0.6-0.1c0.1,0,0.4-0.1,0.5-0.1c-0.3-0.1-0.7,0.2-1,0.2c0-0.1,0.4-0.1,0.3-0.2
						c-0.2,0-0.5,0.1-0.7,0.1l0-0.1c-0.6-0.1-0.2,0.4-0.7,0.1c0,0,0,0.1,0,0.1c-0.2-0.1-0.6-0.2-0.2-0.3c-0.2,0-0.5,0.1-0.6,0.2
						c0.2,0.1,0.2,0,0.3,0.2l-0.9,0.1c-0.1,0,0.1-0.1,0.2-0.1c-1-0.3-2.1,0.4-3.2-0.1c0.1,0.1-0.1,0.1-0.2,0.2c-0.4,0-0.9,0-1.3-0.1
						l0.1-0.1c-0.9,0.1-1.5,0.2-2.1,0.2c0,0,0-0.1,0.1-0.1c-0.4,0.1-0.9-0.3-1.1,0l0.2,0c-0.9-0.1-1.8,0.1-2.7,0.2
						c-0.2-0.2,0.5,0,0.3-0.2c-0.6-0.1-1.2,0.1-1.9,0c0.1,0,0.1,0,0.1-0.1c-0.7-0.1,0.1,0.2-0.5,0.1c0-0.1,0-0.1-0.2-0.2l-0.2,0.1
						c0,0,0-0.1,0.1-0.2c-0.3,0.2-1,0-1.2,0.2c0,0,0.1-0.2,0-0.3c-0.3-0.1-0.5,0-0.7,0.1l0,0c-0.2-0.1-0.7-0.1-0.6-0.1
						c-0.5-0.1-0.1,0.1-0.5,0.2l0.4,0.1c0,0-0.2,0-0.4,0c-0.2,0-0.4,0-0.4,0l0.3-0.1c-0.3-0.1-0.7,0.1-1,0.2l0.2,0.1l-0.4,0.1
						c-0.1-0.2-0.5,0.1-0.4-0.2c-0.8,0.1-1.2,0.5-1.8,0.9c0.1-0.1,0-0.1,0-0.1c-0.4,0.2-0.5,0.4-0.6,0.7c0-0.1,0-0.2,0-0.2
						c-0.3,0.3-0.1,0.3-0.4,0.7c0-0.2-0.1-0.2-0.2-0.1c0.1,0,0.1,0.2,0,0.2c-0.2-0.6-0.4,0.4-0.6,0.1c0,0.1,0,0.9,0.2,0.7l0-0.1
						c0.1,0,0,0.2,0,0.3c0-0.1,0-0.1,0-0.2c0,0.7,0.1,1.5,0.4,2.3c-0.1-0.1-0.2-0.4-0.2-0.1c0.2,0.8,0.6,1.3,1.2,1.6
						c-0.1,0.1-0.2,0-0.4-0.1c-0.1-0.1-0.3-0.3-0.4-0.3c0.2,0.4,0.6,0.6,0.9,0.7c0.3,0.1,0.8,0,1.3-0.1c0.4,0.4,1-0.3,1.7-0.1
						c-0.1-0.1,0.2-0.2,0.6-0.3c-0.1,0.1,0.3,0,0.2,0.1c0.3-0.2,1.2-0.5,1.2-0.2c0-0.3,0.7-0.2,0.9-0.4c0.4,0,0.9-0.3,1.4-0.3
						c-0.2-0.1,0.5-0.2,0.7-0.3c-0.1,0-0.2,0.1-0.1,0.1c0.2,0.1,0.6-0.2,0.9-0.2c0.1,0,0,0.1,0.2,0.1c0-0.1,0.8-0.3,1.1-0.2
						c-0.1,0-0.1,0.1-0.2,0.1c1.4-0.3,2.8-0.2,4.2-0.6l-0.2,0.2c0.9,0.1,0.5-0.4,1.2-0.4c1.9-0.1,3.9-0.1,5.8-0.2
						c0.1-0.1-0.1-0.1-0.1-0.1c0.2,0,0.2,0.2,0.4,0.1l-0.1-0.1c0.9,0.3,2.5-0.2,3.1,0.3c0.1,0,0.4,0,0.6,0c0.2,0,0.4,0,0.6,0
						c0.4,0,0.8,0.1,1.3,0.1c0,0.1-0.1,0.3-0.1,0.5c-0.1,0.2-0.1,0.3-0.1,0.5c-0.3,0.4,0-0.4-0.3,0.1c0,0-0.1,0.3-0.2,0.6
						c-0.1,0.2-0.2,0.3-0.2,0.4c-0.1,0.1-0.1,0.2-0.1,0.2l0-0.1c-0.3,0.6-0.7,0.9-1.1,1.3c-0.4,0.4-0.8,0.9-1,1.4l0,0
						c-0.1-0.1-0.2,0.1-0.3,0.3c0,0.1,0.1,0,0.2-0.1c-0.3,0.9-0.3,1.1-0.5,1.8c0-0.3-0.2,0.3-0.3,0.3c0,0.2,0.2-0.1,0.1,0.4
						c-0.2,0.6-0.4,1.1-0.6,1.7c0.1,0.2,0,0.5,0.1,0.6c-0.1,0.7-0.1,1.1-0.3,2l-0.1,0c0.2,0.3-0.3,0.8-0.2,0.9
						c-0.1,0-0.1-0.1-0.1-0.1l0,0.4c0-0.2-0.2-0.4-0.3,0c0.1,0.4,0.1-0.1,0.2,0.1l-0.2,0.1c0,0.3,0.1,0.4,0.3,0.1
						c-0.2,0.9-0.4,1.8-0.7,2.6l-0.1-0.1c-0.1,0.4-0.3,1-0.5,1.2c0,0,0.1,0.1,0.1,0.1c0,0.6-0.2,0-0.2,0.6c0-0.2,0.1-0.3,0-0.4
						l-0.3,1.1c-0.1,0-0.5,0.5-0.6,1c0,0,0.2-0.1,0.2-0.2l-0.1,0.3L92.1-77l0,0.5L92-76.6c-0.1,0.3,0.1,0.5,0,0.7
						c-0.5,0.8-0.5,0.6-0.9,1.2c0.3,0.2-0.4,1-0.3,1.2c-0.3,0.4-0.5,0.9-0.7,1.4c-0.3,0.7-0.6,1.8-0.9,2.6l0-0.2
						c-0.1,0.2-0.2,0.4-0.2,0.8c-0.1,0-0.2,0-0.5-0.5l0.1,0.1c-0.5-1.3-1.5-2.8-1.8-3.1c0.1,0.1,0.2,0,0.1-0.2
						c-0.1-0.1-0.1,0.3-0.2-0.1c0.1,0.1,0.1,0,0.1-0.1l-0.3-0.2c-0.4-0.9-0.8-1.9-1.4-2.7c0-0.2,0.1-0.1,0.2-0.1
						c-0.4-0.6-1-1.2-1.4-1.7l0.1-0.2c-0.2-0.3-0.4,0-0.5-0.4c0-0.1,0.2,0.2,0.3,0.2c-0.3-0.6-0.4-0.2-0.8-0.6l0.3,0
						c-0.3-0.4-0.5-0.3-0.7-0.4c-0.7-0.3-0.1-0.7-0.9-1.2c-0.2,0-0.1,0.2-0.3,0.1c-0.5-0.5-0.6-0.5-1.1-1c0-0.5,0.2,0.2,0.2-0.3
						l0.3,0.4c-0.2-0.4,0.3,0.3,0.4,0.1c-0.2-0.3-0.7-0.5-1-0.8c0.1-0.1,0.4,0.4,0.4,0.1l-0.2-0.1c0.1,0,0.1,0,0.2,0.1
						c0-0.2-0.2-0.2-0.3-0.3c-0.1,0-0.1,0.1-0.2,0.3c0,0,0,0,0-0.1c-0.5-0.2-0.9-0.8-1.2-1c0.1,0,0,0,0.1-0.1
						c-0.2-0.2-0.5-0.3-0.8-0.5c0-0.2,0.3-0.1-0.1-0.5c-0.2,0-0.2,0.3-0.5,0C77.4-83.9,77.7-83.6,77.7-83.9z M85.1-76.2
						c0,0,0.1,0.1,0.1,0.2l0,0C85.2-76.1,85.1-76.1,85.1-76.2z M85.7-75.5c0-0.1-0.1-0.1-0.1,0c0.1,0.1,0.1,0.3,0.2,0.4
						C85.7-75.3,85.6-75.5,85.7-75.5z M85.5-77.5L85.5-77.5c0.1,0.1,0.2,0.2,0.2,0.2c0,0,0-0.1-0.1-0.2
						C85.6-77.5,85.6-77.5,85.5-77.5z"/>
					<path fill="#202020" d="M85.3-77.6C85.3-77.6,85.3-77.6,85.3-77.6C85.2-77.6,85.3-77.6,85.3-77.6L85.3-77.6L85.3-77.6z"/>
					<path fill="#202020" d="M87.7-101.6L87.7-101.6C87.7-101.6,87.7-101.6,87.7-101.6C87.7-101.6,87.7-101.6,87.7-101.6z"/>
					<polygon fill="#202020" points="92.2,-76.5 92.1,-76.5 92.1,-76.5 					"/>
					<path fill="#202020" d="M92.9-101.1C92.9-101.1,92.9-101.1,92.9-101.1C93-101.1,92.9-101.1,92.9-101.1z"/>
					<path fill="#202020" d="M95.2-101.2l0.3,0C95.3-101.2,95.2-101.2,95.2-101.2z"/>
					<path fill="#202020" d="M96.9-101.2C96.9-101.3,96.9-101.3,96.9-101.2L96.9-101.2L96.9-101.2z"/>
					<path fill="#202020" d="M71.7-97.9C71.7-97.9,71.7-97.9,71.7-97.9C71.7-97.7,71.7-97.8,71.7-97.9z"/>
					<path fill="#202020" d="M77.6-101.3c-0.1,0-0.2,0.1-0.3,0.1C77.5-101.2,77.6-101.2,77.6-101.3z"/>
					<polygon fill="#202020" points="76.7,-94.6 76.7,-94.6 76.7,-94.6 					"/>
					<path fill="#202020" d="M77-101.2c0.1,0,0.3,0,0.4,0C77.2-101.2,77.1-101.2,77-101.2z"/>
					<path fill="#202020" d="M99.5-97.2L99.5-97.2C99.4-97.1,99.4-97.1,99.5-97.2L99.5-97.2z"/>
					<path fill="#202020" d="M99.4-97.1L99.4-97.1C99.4-97.1,99.5-97.1,99.4-97.1z"/>
					<path fill="#202020" d="M99.4-96.9l0.1-0.2C99.4-97,99.4-97,99.4-96.9z"/>
					<path fill="#202020" d="M99.9-99.2L99.9-99.2C99.9-99.2,99.9-99.2,99.9-99.2z"/>
					<path fill="#202020" d="M99.9-99.8c0,0.2-0.1,0.4-0.1,0.6l0,0C99.8-99.3,100-99.7,99.9-99.8z"/>
					<path fill="#202020" d="M98.5-101.9c0,0,0.6,0.1,0.6,0.2c-0.1-0.1-0.2-0.2,0.1-0.1C98.4-102.3,99.3-101.8,98.5-101.9z"/>
					<path fill="#202020" d="M96.6-102c0.3,0,0-0.1,0-0.1C96.5-102.1,96.4-102.1,96.6-102z"/>
					<path fill="#202020" d="M83.6-101.7l0-0.1C83.4-101.8,83.7-101.8,83.6-101.7z"/>
					<polygon fill="#202020" points="81.1,-101 81.4,-100.9 81.5,-101 					"/>
					<polygon fill="#202020" points="79.7,-102.1 79.8,-102.1 79.4,-102.1 					"/>
					<path fill="#202020" d="M79.5-93.9l-0.1-0.2C79.2-94,79.2-93.8,79.5-93.9z"/>
					<path fill="#202020" d="M88.7-95.2c0.1,0.1,0.4,0.1,0.5,0C89-95.2,88.8-95.3,88.7-95.2z"/>
					<polygon fill="#202020" points="91.8,-79.4 91.8,-79.6 91.7,-79.2 					"/>
				</g>
				<g>
					<path fill="#202020" d="M76.6-86c0,0,0.1,0.2,0.1,0.1L76.6-86L76.6-86z"/>
					<path fill="#202020" d="M76.8-85.7c0-0.1-0.1-0.2-0.2-0.4C76.7-85.9,76.7-86,76.8-85.7c-0.1-0.1-0.1-0.1-0.1-0.2c0,0,0,0,0,0.1
						c0.1,0.1,0.1,0.1,0.1,0C76.8-85.8,76.8-85.7,76.8-85.7z"/>
					<path fill="#202020" d="M78.1-86.4L78.1-86.4C78.1-86.4,78.1-86.4,78.1-86.4z"/>
					<path fill="#202020" d="M78.5-87.1C78.6-87.1,78.6-87.1,78.5-87.1C78.6-87.1,78.6-87.1,78.5-87.1z"/>
					<path fill="#202020" d="M78.8-87.3C78.8-87.3,78.8-87.3,78.8-87.3C78.8-87.2,78.8-87.3,78.8-87.3z"/>
					<path fill="#202020" d="M78.1-86.4L78.1-86.4C78.1-86.4,78.1-86.4,78.1-86.4z"/>
					<path fill="#202020" d="M76.8-86.2C76.8-86.2,76.8-86.1,76.8-86.2L76.8-86.2L76.8-86.2z"/>
					<path fill="#202020" d="M77.9-85.9L77.9-85.9C77.9-85.9,78-85.9,77.9-85.9L77.9-85.9z"/>
					<path fill="#202020" d="M77.7-85.7c0,0-0.1-0.1-0.1-0.2C77.6-85.8,77.6-85.8,77.7-85.7C77.7-85.8,77.7-85.7,77.7-85.7z"/>
					<path fill="#202020" d="M77.2-85.6L77.2-85.6L77.2-85.6z"/>
					<path fill="#202020" d="M78.1-86.1C78.1-86.1,78.1-86.1,78.1-86.1L78.1-86.1z"/>
					<path fill="#202020" d="M74.2-90.2C74.2-90.3,74.2-90.3,74.2-90.2C74.2-90.3,74.2-90.2,74.2-90.2z"/>
					<polygon fill="#202020" points="73.8,-91 73.8,-91 73.8,-91.1 					"/>
					<path fill="#202020" d="M79.1-87.5L79.1-87.5C79.1-87.5,79.1-87.5,79.1-87.5z"/>
					<path fill="#202020" d="M78.3-90.2c-0.1,0.1-0.2,0-0.3,0.2C78.1-90.1,78.2-90.1,78.3-90.2z"/>
					<path fill="#202020" d="M76.8-86.1L76.8-86.1C76.8-86.2,76.8-86.2,76.8-86.1z"/>
					<polygon fill="#202020" points="78,-90.1 78,-90.1 78,-90 					"/>
					<path fill="#202020" d="M78.9-88.3C78.9-88.3,78.9-88.3,78.9-88.3C78.9-88.3,78.9-88.3,78.9-88.3z"/>
					<path fill="#202020" d="M78.7-87.8L78.7-87.8C78.7-87.8,78.7-87.8,78.7-87.8z"/>
					<path fill="#202020" d="M78.7-88.5C78.7-88.5,78.7-88.6,78.7-88.5L78.7-88.5C78.7-88.6,78.7-88.6,78.7-88.5z"/>
					<polygon fill="#202020" points="78.6,-88.8 78.6,-88.8 78.6,-88.8 					"/>
					<path fill="#202020" d="M74.9-90.4c0,0,0-0.1,0-0.1C74.9-90.4,74.8-90.4,74.9-90.4z"/>
					<path fill="#202020" d="M76.8-86.1C76.8-86.1,76.8-86.1,76.8-86.1L76.8-86.1C76.8-86.1,76.8-86.1,76.8-86.1z"/>
					<path fill="#202020" d="M77.4-88.3L77.4-88.3C77.4-88.3,77.4-88.3,77.4-88.3z"/>
					<path fill="#202020" d="M76.3-90.2L76.3-90.2C76.3-90.2,76.3-90.2,76.3-90.2z"/>
					<path fill="#202020" d="M77.4-88.4c0.1,0,0.1,0,0.1,0C77.5-88.5,77.5-88.5,77.4-88.4L77.4-88.4z"/>
					<path fill="#202020" d="M74.8-90.5L74.8-90.5L74.8-90.5z"/>
					<path fill="#202020" d="M74.6-90.3c0,0.1,0,0-0.1-0.2C74.6-90.3,74.6-90.6,74.6-90.3c-0.1-0.1-0.1-0.1-0.1-0.2
						c0,0.2,0,0.2,0,0.3c0-0.2,0-0.3,0-0.5c0,0.1,0,0.2,0,0.4c0,0,0-0.1-0.1-0.2c0,0,0,0,0-0.1c0,0.2-0.1,0-0.1,0.3
						c0-0.3-0.1,0-0.1-0.3c0,0,0,0.2,0,0.2c0-0.3,0-0.1-0.1-0.2c0,0.1,0,0.1,0,0.2c0,0,0-0.1,0-0.1c0,0.1,0,0,0-0.1
						c0,0.1,0,0.2,0,0.3c0-0.1,0-0.2,0-0.3l0,0.3c0,0,0-0.1,0-0.1c0,0.1,0,0.2,0,0.1l0,0l0-0.1l0,0.2c-0.1-0.2-0.1-0.5-0.1-0.7l0,0
						c0-0.1,0-0.1,0-0.1c0-0.1,0-0.3,0-0.3c0.1,0,0.1,0.3,0.1,0.4l0-0.2l0,0.1c0,0.1,0,0,0-0.1c0,0.1,0.1,0,0.1,0.1l0-0.1
						c0-0.3,0.1,0.3,0.2,0.1l0-0.2l0,0.2c0-0.1,0-0.2,0-0.2c0.2,0.3,0.3-0.1,0.4,0.1c0,0,0,0,0-0.1c0.1,0.4,0.2-0.5,0.3-0.1l0,0.1
						c0.1,0,0,0.1,0,0.2c0-0.2,0.1-0.2,0.1-0.2c0,0,0,0,0,0.1c0,0,0,0.2,0,0.1c0-0.3,0.1-0.3,0.2-0.4c0,0.1,0.1,0.3,0.1,0.5
						c0-0.1,0-0.2,0-0.3c0,0.1,0,0,0.1-0.1c0,0,0,0,0,0l0,0c0,0,0,0,0,0c0,0,0,0,0,0c0-0.1,0-0.1,0-0.3c0,0,0.1,0,0.1,0.1
						c0,0,0,0,0,0c0,0,0,0,0,0l0,0c0,0,0,0,0,0.1c0,0.1,0.1-0.2,0.1-0.3c0,0.2,0,0.2,0,0.4c0,0,0,0-0.1,0c0,0,0,0,0,0.1
						c0,0.2,0.1-0.1,0.1,0c0,0,0,0,0,0.1c0,0,0-0.1,0.1-0.2c0,0.1,0,0.3,0.1,0.2c0-0.1,0-0.2,0.1-0.2l0,0.1c0,0.1,0-0.1,0.1-0.1
						c0,0,0,0.1,0,0.1c0-0.1,0.1-0.1,0.1-0.3l0,0.2c0-0.1,0.2-0.3,0.1-0.1c0-0.3,0.1-0.2,0.1-0.1c0,0,0,0.1,0,0.1
						c0.1-0.2,0.1,0,0.2,0l0,0.2c0,0,0.2-0.5,0.2-0.4l0,0.1c0.1,0,0.1,0,0.2,0.1l0,0.2c0-0.1,0.1-0.1,0.1-0.1
						c-0.1,0.4,0.3-0.1,0.2,0.3l0.1-0.3c0,0,0.1,0,0,0.2l0,0c-0.1,0.2,0,0,0,0.1c0,0,0.1-0.1,0.1-0.2c0,0.2,0.2,0.1,0.1,0.4
						c0.1,0,0.3-0.2,0.4-0.1l0,0c0,0.1,0,0.2-0.1,0.4c0.1,0,0.4-0.2,0.4-0.1l-0.1,0.1c0,0.1,0.1,0,0.1,0c0,0,0,0-0.1,0.1
						c0,0.1,0.1,0,0.1,0l-0.1,0.1c-0.1,0.2,0.3,0,0.3,0.1c0,0-0.1,0.1-0.1,0.1c0.2-0.1,0.3,0,0.3,0l-0.1,0c0.2,0-0.2,0.2,0,0.2
						l0.1-0.1c0,0.1,0,0,0.1,0c-0.1,0.1-0.2,0.1-0.2,0.2c-0.1,0-0.1,0-0.1,0.1L78-90.1c0,0,0,0,0,0c0.3-0.2,0,0,0.3-0.2
						c0.1,0.1-0.1,0.3,0.1,0.3c-0.3,0.2,0.1,0.2-0.4,0.3c0,0,0.1,0,0.3,0c0,0,0,0-0.1,0c0.1,0,0.1,0,0.2,0c-0.1,0-0.2,0-0.4,0
						c0.1,0,0.2,0,0.3,0l-0.2,0.1c0.2,0-0.2,0.1,0.1,0l0.1,0c0,0.1,0.2,0,0.3,0l-0.1,0c0,0,0.2,0,0,0.1l0,0
						c-0.2,0.1-0.2,0.1-0.3,0.1c0.1,0,0.3-0.1,0.3-0.1c-0.1,0.1-0.1,0-0.2,0.1c0.1,0,0.1,0.1,0.3,0c0,0-0.1,0-0.1,0
						c0,0,0.3,0,0.1,0.1l0,0c-0.2,0.1,0.2,0-0.1,0.1c-0.1,0,0,0-0.2,0c-0.1,0.1,0.3-0.1,0.2,0c0,0,0,0,0,0c0,0,0.1,0.1,0.1,0.1
						c-0.3,0.1,0.1,0.1-0.2,0.2c0.1,0,0.1,0,0.2,0c0,0,0,0-0.1,0c0,0,0.1,0,0.2,0c-0.1,0,0.1,0,0.1,0.1c0.1,0,0.1,0,0.1,0
						c-0.1,0-0.2,0-0.3,0c0,0.1,0.4,0,0.3,0.1l-0.1,0.1c0.2,0,0.1,0,0.2,0c-0.1,0-0.1,0-0.2,0.1c0.1,0-0.1,0.1,0.1,0.1l0.1,0
						c-0.1,0.1,0.3,0.1,0.1,0.2l-0.3,0c-0.1,0,0.2,0.1,0,0.1c0.1,0,0.1,0,0.2,0c0,0-0.1,0-0.1-0.1l0.2,0L78.8-88c0.1,0,0.1,0,0.2,0
						c0.1,0.1-0.2,0.1,0,0.1c0,0-0.2,0-0.2,0c0.1,0-0.2,0.1-0.1,0.1c0,0,0,0-0.1,0c0,0,0,0,0.1,0.1l0,0c0,0,0.1,0,0,0.1
						c0.1,0,0.2,0.1,0.2,0c0,0-0.1,0-0.2,0c0,0.1,0.4,0.1,0.2,0.1c0,0,0,0,0,0c0,0,0,0,0,0c0-0.1-0.3,0-0.2-0.1c-0.2,0,0,0-0.1,0.1
						c0.1,0,0.3,0,0.3,0.1c-0.1,0-0.1,0-0.1,0l0.1,0c0,0,0,0,0,0l-0.1,0c0,0-0.3,0-0.1,0.1c-0.1,0-0.2-0.1-0.2,0
						c0.1,0.1-0.1,0-0.2,0c0,0.1,0.2,0.1,0.1,0.1c0,0,0.1,0,0.1,0c-0.1,0,0,0.1-0.1,0.1c0,0,0.1,0,0.1,0c-0.1,0-0.1,0-0.2,0l0.1,0
						c-0.1,0-0.1,0-0.1,0c0,0,0,0,0,0c0,0-0.3-0.1-0.3-0.1c0.1,0.1,0.2,0.1,0.3,0.1c-0.1,0,0.3,0.1,0.2,0.2c0,0-0.3,0-0.3,0
						c0.1,0.1,0.1,0,0.2,0.1c-0.4-0.1,0.2,0.2-0.1,0.2l-0.2-0.1c0,0,0,0,0,0.1l0.1,0c0,0,0,0.1-0.1,0c0.1,0.1,0,0.1,0,0.1
						c0,0,0,0-0.1-0.1c-0.1,0,0,0,0,0.1c-0.1,0-0.2-0.1-0.2-0.1c0.1,0.1,0,0.1,0.1,0.2l0,0c0,0.1-0.2,0-0.1,0.1l0,0l0,0l0,0l0,0
						c0.2,0.1,0.1,0.1,0.1,0.2c0,0-0.1-0.1-0.1-0.1c0.1,0.1,0.1,0.1,0.1,0.1c-0.1,0-0.2-0.1-0.2-0.1c0,0,0.1,0.1,0.1,0.1
						c-0.1,0-0.1-0.1-0.2-0.1c0,0,0,0,0,0c-0.1-0.1-0.1,0-0.1-0.1c0,0,0.1,0.1,0.1,0.1l-0.1-0.1c0,0,0,0,0,0c0,0-0.1-0.1-0.2-0.2
						c0,0.1,0.3,0.2,0.4,0.3c-0.1,0,0,0.1,0,0.2L77.9-86c0,0,0,0.1,0.1,0.1l0,0c0-0.1-0.1-0.1-0.2-0.2c0,0.1,0,0.1,0.1,0.2l0,0
						c-0.1,0-0.2,0-0.2-0.1c0,0.1-0.1,0,0,0.2c0,0.1-0.2-0.2-0.1,0.1c-0.1-0.1,0,0-0.1-0.2c-0.1-0.1,0.1,0.2-0.1,0
						c0,0.1,0,0,0.1,0.2c-0.2-0.2-0.1,0-0.2-0.1c0.1,0.1,0.1,0,0.1,0.2c0-0.1-0.1-0.1-0.1-0.1l0.1,0.1L77.1-86
						c0.1,0.2,0.2,0.2,0.2,0.3l0,0c-0.1-0.1,0,0.1-0.1,0.1c0,0,0-0.1-0.1-0.1l0,0.1c0,0,0,0,0,0c-0.1-0.1,0,0.1-0.1,0
						c0,0-0.1-0.2-0.1-0.2l0.1,0.2l-0.1-0.2c0,0,0.1,0.4-0.1,0.1l0,0c0,0-0.1-0.2-0.1-0.1c0,0,0.1,0.2,0.1,0.1l0,0
						c-0.1-0.1,0-0.2-0.1-0.2c0,0.1,0,0.1,0.1,0.2c0-0.1,0-0.2,0-0.2c0,0.1,0.1,0.1,0.1,0.2c0.1,0.1,0-0.1,0-0.1
						c0,0.1,0.1,0.1,0.1,0.1c0-0.1,0-0.1,0.1,0c0,0,0,0.1,0.1,0.2c0-0.1-0.1-0.3-0.1-0.4c-0.1-0.2,0.2,0.1,0.1-0.1
						c0-0.1-0.1-0.1-0.1-0.1c0.1,0.1,0.1,0.1,0.1,0.1c-0.1-0.2,0.1,0,0-0.1c0,0,0.1,0.1,0.1,0.1c0.1,0.1,0.1,0,0.2,0.2
						c-0.1-0.2,0.1,0-0.1-0.3l0,0l0.1,0l0,0c0,0,0,0,0.1,0.1c0,0,0,0,0,0.1c0.1,0.1-0.1-0.1,0-0.1c0.1,0.1,0,0,0.1,0.2
						c0,0,0-0.1,0-0.1l0,0.1c0.1,0.1-0.2-0.2,0-0.1l-0.1-0.1c0.1,0,0.2,0.1,0.2,0.2c0,0,0-0.1-0.1-0.1c-0.1-0.1,0,0-0.2-0.1l0-0.1
						c0,0,0,0,0,0.1c0.3,0.2-0.2-0.3,0.2-0.1c-0.1-0.1-0.1-0.1-0.1-0.1c0,0,0,0,0.1,0l0.1,0c0-0.1-0.1-0.2-0.1-0.2
						c0,0,0.1,0.1,0.1,0.1c-0.1-0.1,0.3,0.1,0-0.1l0,0c0.1,0-0.1-0.2-0.1-0.2c0.2,0.1,0,0,0.2,0.1c0.1,0,0-0.1,0-0.1c0,0,0,0,0,0
						c0.1,0-0.2-0.1-0.1-0.1c0.1,0,0.1,0,0.2,0l-0.1-0.1c0,0,0.1,0,0.2,0.1c-0.2-0.1,0-0.1-0.2-0.2c0,0,0.2,0.1,0.3,0.1
						c0.1,0,0,0-0.1-0.1l0,0c0.1,0,0.1,0,0.1,0c0.1,0-0.1,0-0.2-0.1l-0.1,0l0-0.1l0.1,0c0.1,0-0.1-0.1-0.1-0.1l-0.1,0l-0.1,0
						c0.2,0,0.1,0,0.3,0c0.1,0-0.1-0.1-0.2-0.2c0,0,0,0,0.1,0c0.1,0-0.1-0.1-0.2-0.1c0.1,0,0.1,0,0.1,0c0,0-0.1,0-0.2-0.1
						c0.1,0,0.1,0,0.2,0c-0.1,0-0.1,0-0.2,0c0.4,0.1,0.2,0,0.5,0c-0.1,0-0.3-0.1-0.4-0.1l0,0c-0.1,0-0.1,0-0.1,0c0,0,0,0,0.1,0
						c-0.1-0.1,0-0.1-0.1-0.1c0,0,0.1,0,0.2,0c0.1-0.1-0.2-0.1-0.3-0.1c0.3,0,0,0.1,0.3,0c-0.1-0.1-0.2-0.1-0.3-0.1
						c0.4-0.1-0.2,0,0.1-0.1c-0.1,0-0.2,0-0.2,0c0.1,0,0.1,0,0.2,0c-0.1,0-0.2,0,0.1-0.1c-0.2,0.1,0,0-0.2,0c0.1,0-0.1,0,0-0.1
						c-0.2,0.1-0.1,0-0.1,0c0,0,0,0,0.1,0c0.1,0-0.1,0-0.1,0c0.1,0,0.1,0,0.2-0.1c-0.1,0-0.2,0-0.1,0c0,0,0.1,0,0.1,0
						c-0.2,0,0-0.2-0.3-0.2l0.2,0c0.2-0.1-0.3,0.1-0.3,0c0.1-0.1,0.3-0.4,0.1-0.4c-0.1,0-0.1,0-0.1,0.1c0,0,0.2-0.1,0.1-0.1l-0.1,0
						c0.2-0.2-0.2,0,0.1-0.3c-0.2,0,0.1-0.1-0.2,0c0.1-0.1,0.2-0.1,0.2-0.1L77-89.7l0,0c-0.3,0.2,0.2-0.3,0-0.2l0,0
						c0.1,0,0.1-0.1,0.1-0.1c0,0-0.1,0.1-0.1,0.1c-0.1,0-0.1,0-0.2,0c0.1-0.1,0-0.1,0.1-0.2c-0.1,0.1-0.1,0.1-0.2,0.2
						c0,0,0-0.1,0-0.2c-0.1,0.1-0.1,0.1-0.2,0.2c0,0-0.1,0-0.1,0l0,0c-0.1,0.2,0-0.1,0,0c0-0.1,0.1-0.1,0.1-0.1l-0.1,0
						c0,0,0.1-0.2,0.1-0.2c-0.1,0.1,0,0.1-0.1,0.2l0.1-0.2c0,0-0.1,0.2-0.1,0.3c0,0-0.1,0-0.1,0l0.1-0.1c0,0-0.1,0,0-0.1
						c0,0,0,0.1-0.1,0.1c-0.1,0.1,0.1-0.2,0,0c0,0,0-0.1,0.1-0.1l-0.1,0.1c0-0.1,0.1-0.3,0-0.2c0,0,0,0.1,0,0.1l0,0l0.1-0.2
						l-0.1,0.2l0.1-0.2c0,0-0.1,0.2-0.1,0.2c0-0.1,0-0.2,0-0.4c-0.1,0.3-0.1,0-0.1,0.2c0-0.3-0.1-0.1-0.2-0.2l0,0
						c0-0.2-0.1,0.2-0.1,0.2l0,0c0-0.2-0.1,0-0.2,0.1c0,0,0-0.2,0-0.1c0,0.1,0,0.2,0,0.2c0,0,0-0.1,0-0.1l0,0.2
						c0-0.1-0.1-0.2-0.2-0.2c0-0.1,0-0.1,0-0.2c-0.1,0-0.1,0.2-0.2,0.2l0-0.2c0,0,0,0.3,0,0.1c0,0,0,0,0-0.1c0-0.1,0,0.2-0.1,0.2
						l0-0.2c0-0.1,0,0.1,0,0.2c0,0.3,0-0.4-0.1-0.2c0,0.1,0,0.2,0,0.3c0-0.1,0,0.1-0.1,0c0-0.3,0,0,0-0.3l0,0.1c0-0.2,0,0,0-0.2
						c0-0.1-0.1,0.1-0.1,0.2c0-0.1,0,0,0-0.2l0,0.1c0,0,0-0.1,0-0.1c0-0.1,0,0,0,0c0,0.1,0,0.2,0,0.3l0-0.1c0,0.2-0.1,0.1-0.1,0.2
						c0,0,0-0.1,0-0.1c0,0,0,0.2,0,0.2c0-0.1,0-0.3-0.1-0.3c0,0.1,0,0.3,0,0.3C74.6-90.1,74.7-90.2,74.6-90.3z M75.4-90.6
						C75.4-90.6,75.4-90.6,75.4-90.6L75.4-90.6C75.4-90.6,75.4-90.6,75.4-90.6z M75.4-90.8c0,0,0,0.1,0,0.1c0,0,0,0,0,0
						C75.4-90.7,75.4-90.7,75.4-90.8z M75.3-91.7L75.3-91.7C75.4-91.7,75.4-91.7,75.3-91.7C75.4-91.8,75.4-91.8,75.3-91.7
						C75.3-91.7,75.3-91.7,75.3-91.7z"/>
					<path fill="#202020" d="M75.3-91.6L75.3-91.6C75.3-91.5,75.3-91.5,75.3-91.6L75.3-91.6L75.3-91.6z"/>
					<path fill="#202020" d="M78-86.4L78-86.4C78-86.4,78-86.4,78-86.4L78-86.4z"/>
					<polygon fill="#202020" points="76.2,-90.2 76.2,-90.2 76.2,-90.2 					"/>
					<path fill="#202020" d="M77.4-86.4L77.4-86.4C77.3-86.4,77.4-86.4,77.4-86.4z"/>
					<path fill="#202020" d="M77.2-86.3L77.2-86.3C77.2-86.3,77.2-86.3,77.2-86.3z"/>
					<path fill="#202020" d="M77.1-86.3C77.1-86.3,77.1-86.3,77.1-86.3L77.1-86.3L77.1-86.3z"/>
					<path fill="#202020" d="M77.7-87.8L77.7-87.8C77.6-87.8,77.6-87.8,77.7-87.8z"/>
					<path fill="#202020" d="M77.9-87.3C77.9-87.3,77.9-87.3,77.9-87.3C77.9-87.3,77.8-87.3,77.9-87.3z"/>
					<polygon fill="#202020" points="77.4,-88.3 77.4,-88.3 77.4,-88.3 					"/>
					<path fill="#202020" d="M77.9-87.3C77.8-87.3,77.8-87.3,77.9-87.3C77.9-87.3,77.9-87.3,77.9-87.3z"/>
					<path fill="#202020" d="M76.7-86.1L76.7-86.1C76.7-86.1,76.7-86.1,76.7-86.1L76.7-86.1z"/>
					<path fill="#202020" d="M76.7-86.1L76.7-86.1C76.7-86.1,76.7-86.1,76.7-86.1z"/>
					<path fill="#202020" d="M76.7-86.1L76.7-86.1C76.7-86.1,76.7-86.1,76.7-86.1z"/>
					<path fill="#202020" d="M76.8-86.1L76.8-86.1C76.8-86.2,76.8-86.2,76.8-86.1z"/>
					<path fill="#202020" d="M76.9-86.2C76.9-86.2,76.8-86.3,76.9-86.2L76.9-86.2C76.8-86.3,76.9-86.1,76.9-86.2z"/>
					<path fill="#202020" d="M77.5-85.7L77.5-85.7c0,0,0,0.1,0,0.1C77.7-85.5,77.4-85.7,77.5-85.7z"/>
					<path fill="#202020" d="M77.6-85.7C77.6-85.7,77.7-85.7,77.6-85.7C77.7-85.7,77.7-85.7,77.6-85.7z"/>
					<path fill="#202020" d="M78.3-86.6l0.1,0.1C78.4-86.5,78.4-86.5,78.3-86.6z"/>
					<polygon fill="#202020" points="77.7,-87.1 77.6,-87.1 77.7,-87 					"/>
					<polygon fill="#202020" points="78.7,-86.8 78.7,-86.8 78.7,-86.8 					"/>
					<path fill="#202020" d="M78.8-88.8l-0.2,0C78.6-88.7,78.8-88.8,78.8-88.8z"/>
					<path fill="#202020" d="M78.4-89.5C78.5-89.5,78.5-89.5,78.4-89.5C78.4-89.5,78.4-89.5,78.4-89.5z"/>
					<polygon fill="#202020" points="76.9,-91.5 76.9,-91.5 76.9,-91.5 					"/>
				</g>
				<g>
					<path fill="#202020" d="M82.6-86c0,0,0.1,0.1,0.1,0.1L82.6-86L82.6-86z"/>
					<path fill="#202020" d="M82.8-85.7c0-0.1-0.1-0.2-0.2-0.4C82.7-85.9,82.7-86,82.8-85.7c-0.1-0.1-0.1-0.1-0.1-0.2c0,0,0,0,0,0.1
						c0.1,0.1,0.1,0.1,0.1,0C82.8-85.8,82.8-85.7,82.8-85.7z"/>
					<path fill="#202020" d="M84.1-85.7L84.1-85.7C84.1-85.7,84.1-85.7,84.1-85.7z"/>
					<path fill="#202020" d="M85.1-85.9C85.1-85.9,85.1-85.9,85.1-85.9C85.1-85.9,85.1-85.9,85.1-85.9z"/>
					<path fill="#202020" d="M85.4-85.9C85.4-85.9,85.4-85.9,85.4-85.9C85.4-85.9,85.4-85.9,85.4-85.9z"/>
					<path fill="#202020" d="M84.1-85.7L84.1-85.7C84.1-85.7,84.1-85.7,84.1-85.7z"/>
					<path fill="#202020" d="M82.8-86.2C82.8-86.2,82.8-86.2,82.8-86.2C82.8-86.1,82.8-86.1,82.8-86.2L82.8-86.2z"/>
					<path fill="#202020" d="M83.8-85.5L83.8-85.5C83.8-85.5,83.8-85.5,83.8-85.5L83.8-85.5z"/>
					<path fill="#202020" d="M83.6-85.4c0,0,0-0.2,0-0.2c0,0.1,0,0.1,0,0.1C83.6-85.5,83.6-85.5,83.6-85.4z"/>
					<path fill="#202020" d="M83.1-85.6L83.1-85.6L83.1-85.6z"/>
					<path fill="#202020" d="M84-85.5C84-85.5,84-85.5,84-85.5L84-85.5z"/>
					<path fill="#202020" d="M83.6-86.4C83.6-86.4,83.6-86.4,83.6-86.4C83.6-86.4,83.6-86.4,83.6-86.4z"/>
					<polygon fill="#202020" points="83.9,-85.7 83.9,-85.6 83.9,-85.6 					"/>
					<path fill="#202020" d="M85.8-86.2L85.8-86.2C85.8-86.1,85.8-86.2,85.8-86.2z"/>
					<path fill="#202020" d="M84-88.8c0,0.1-0.1,0.2,0,0.3C83.9-88.5,84-88.7,84-88.8z"/>
					<path fill="#202020" d="M82.8-86.2L82.8-86.2C82.8-86.2,82.8-86.2,82.8-86.2z"/>
					<polygon fill="#202020" points="83.9,-88.5 83.9,-88.5 83.9,-88.4 					"/>
					<path fill="#202020" d="M85.8-87.2C85.8-87.2,85.7-87.2,85.8-87.2C85.7-87.2,85.8-87.2,85.8-87.2z"/>
					<path fill="#202020" d="M85.6-86.5L85.6-86.5C85.6-86.5,85.6-86.5,85.6-86.5z"/>
					<path fill="#202020" d="M85.5-87.5C85.5-87.5,85.5-87.5,85.5-87.5L85.5-87.5C85.5-87.5,85.5-87.5,85.5-87.5z"/>
					<polygon fill="#202020" points="85.3,-87.7 85.3,-87.7 85.3,-87.7 					"/>
					<path fill="#202020" d="M83.4-86.4c0,0-0.1,0.1-0.1,0.1C83.3-86.4,83.4-86.4,83.4-86.4z"/>
					<path fill="#202020" d="M82.9-86.1C82.8-86.1,82.8-86.2,82.9-86.1L82.9-86.1C82.8-86.1,82.9-86.1,82.9-86.1z"/>
					<path fill="#202020" d="M84.3-87L84.3-87C84.3-87,84.3-87,84.3-87z"/>
					<path fill="#202020" d="M83.2-87.1L83.2-87.1C83.2-87.1,83.2-87.1,83.2-87.1z"/>
					<path fill="#202020" d="M84.3-87C84.3-87.1,84.3-87.1,84.3-87C84.3-87.1,84.3-87.1,84.3-87L84.3-87z"/>
					<path fill="#202020" d="M83.3-86.3L83.3-86.3L83.3-86.3z"/>
					<path fill="#202020" d="M83.5-86.4c0-0.1,0,0-0.1,0.2C83.5-86.4,83.4-86.2,83.5-86.4c0,0.1,0,0.1,0,0.2c0-0.1,0.1-0.1,0.1-0.3
						c-0.1,0.2-0.1,0.2-0.1,0.5C83.4-86.2,83.5-86.2,83.5-86.4c0.1,0,0.1,0.1,0.1,0.1c0,0,0,0,0,0c0-0.1,0,0,0.1-0.3
						c0,0.3,0,0,0,0.3c0,0,0-0.1,0-0.2c0,0.3,0,0.1,0,0.2c0-0.1,0-0.1,0-0.2c0,0,0,0.1,0,0.1c0-0.1,0,0,0,0.1c0-0.1,0-0.2,0-0.3
						c0,0.1,0,0.2,0,0.3l0-0.3c0,0,0,0.1,0,0.1c0-0.1,0-0.2,0-0.1l0,0l0,0.1l0-0.2c0.1,0.2,0.2,0.4,0.2,0.7l0,0.1
						c0,0.1,0.1,0.1,0.1,0.1c0,0.1,0,0.3,0,0.3c-0.1,0-0.1-0.3-0.2-0.4l0,0.2l0-0.1c0-0.1,0,0,0,0.1c0-0.1-0.1,0-0.1-0.1l0,0.1
						c-0.1,0.3-0.1-0.3-0.2-0.2l-0.1,0.2l0-0.2c0,0.1-0.1,0.2-0.1,0.2c-0.1-0.3-0.4,0-0.4-0.3c0,0,0,0,0,0.1
						c0.1-0.4-0.5,0.2-0.4-0.1l0.1,0c-0.1,0,0.1,0,0.1-0.1c-0.2,0.1-0.2,0.1-0.3,0.1c0,0,0,0,0.1,0c0,0,0.1-0.1,0.1-0.1
						c-0.3,0.2-0.3,0.1-0.4,0c0.1-0.1,0.2-0.2,0.4-0.3c0,0-0.1,0.1-0.2,0.1c0.1-0.1,0,0-0.1,0c0,0,0,0,0,0l0,0c0,0,0,0,0,0
						c0,0,0,0,0,0c-0.1,0.1-0.1,0.1-0.2,0.1c0,0-0.1,0,0-0.1c0,0,0,0,0-0.1c0,0,0,0,0,0l0,0c0,0,0,0,0,0c0-0.1-0.2,0-0.3,0
						c0.2,0,0.2-0.1,0.4-0.1c0,0,0,0,0,0.1c0,0,0,0,0.1,0c0.1-0.1-0.2,0-0.1-0.1c0,0,0.1,0,0.1,0c0,0-0.1,0-0.2,0
						c0.1,0,0.2-0.1,0.2-0.1c-0.1,0-0.2,0-0.2,0l0.1,0c0.1-0.1-0.2,0-0.1-0.1c0,0,0.1,0,0.1,0c-0.1,0-0.1,0-0.3-0.1l0.2,0
						c-0.1,0-0.3-0.1-0.1-0.1c-0.3,0-0.2-0.1-0.2-0.2c0,0,0.1,0,0.1,0c-0.2-0.1,0-0.2,0-0.3l0.2,0c0,0-0.5-0.2-0.4-0.2l0.1,0
						c0-0.1,0-0.1,0.1-0.2l0.2,0.1c-0.1-0.1,0-0.1-0.1-0.1c0.4,0.1-0.1-0.3,0.4-0.2L82-87.9c0,0,0-0.1,0.2,0l0,0c0.2,0.1,0,0,0.1,0
						c0,0-0.1-0.1-0.2-0.2c0.2,0,0.2-0.2,0.4-0.1c0-0.1-0.1-0.4,0-0.4l0,0c0.1,0,0.2,0,0.3,0.3c0-0.1-0.1-0.4,0.1-0.4l0,0.1
						c0,0,0-0.1,0-0.1c0,0,0,0.1,0,0.1c0.1,0.1,0-0.1,0-0.1l0,0.1c0.1,0.1,0.1-0.2,0.3-0.2c0,0,0,0.1,0,0.2c0-0.3,0.1-0.2,0.2-0.3
						l0,0.1c0.1-0.2,0.1,0.3,0.2,0.1l-0.1-0.2c0,0,0.1,0,0.1-0.1c0,0.1,0,0.2,0.1,0.2c0,0.1,0,0.1,0,0.2l0.1,0.2c0,0,0,0,0,0
						c0-0.4,0.1,0,0.1-0.4c0.1,0,0.2,0.2,0.3,0.1c-0.1,0.3,0.2,0.1,0,0.5c0,0,0.1,0,0.2-0.2c0,0,0,0,0,0c0.1-0.1,0.1-0.1,0.1-0.1
						c-0.1,0.1-0.2,0.1-0.3,0.3c0.1,0,0.2-0.1,0.2-0.2l-0.1,0.2c0.1-0.1-0.1,0.2,0.1,0l0-0.1c0,0,0.2-0.1,0.2-0.1l-0.1,0.1
						c0,0,0.2-0.1,0,0.1l0,0c-0.1,0.1-0.1,0.2-0.2,0.3c0.1,0,0.2-0.2,0.2-0.2c-0.1,0.1,0,0.1-0.2,0.2c0.1,0,0.2,0,0.3-0.1
						c0,0,0,0,0,0c0,0.1,0.2-0.1,0.2,0l0,0c-0.1,0.2,0.2,0-0.1,0.2c0,0.1,0,0-0.1,0.1c-0.1,0.1,0.3-0.2,0.2-0.1c0,0,0,0,0,0
						c0,0,0.1,0,0.1,0.1c-0.2,0.2,0.2,0.1-0.1,0.3c0.1-0.1,0.1,0,0.2-0.1c0,0,0,0-0.1,0c0,0,0.1,0,0.2,0c-0.1,0.1,0.1,0,0.1,0.1
						c0.1,0,0.1,0,0.1,0c-0.1,0-0.2,0-0.3,0.1c0,0.1,0.4,0,0.3,0.1l-0.1,0.1c0.2,0,0.2,0.1,0.2,0c-0.1,0-0.1,0-0.2,0.1
						c0.1,0-0.1,0.1,0.1,0.1l0.1,0c-0.1,0.1,0.3,0.2,0.1,0.2l-0.3,0c-0.1,0,0.2,0.1,0,0.1c0.1,0,0.1,0,0.2,0c0,0-0.1-0.1-0.1-0.1
						l0.2,0.1l-0.1-0.1c0.1,0.1,0.1,0.1,0.2,0c0.1,0.1-0.2,0.1,0,0.1c0,0-0.2,0-0.2,0c0.1,0.1-0.3,0-0.1,0.1c0,0,0,0-0.1,0
						c0,0,0,0.1,0.1,0.1l0,0c0,0,0.1,0.1,0,0.1c0.1,0.1,0.2,0.1,0.2,0.1c0,0-0.1,0-0.2,0c0,0.1,0.3,0.2,0.1,0.2c0,0,0,0,0,0
						c0,0,0,0,0,0c0-0.1-0.3-0.1-0.2-0.1c-0.2-0.1-0.1,0-0.1,0c0.1,0.1,0.2,0.1,0.3,0.2c0,0-0.1,0-0.1,0l0.1,0c0,0,0,0,0,0.1l0-0.1
						c0,0-0.3,0-0.2,0.1c0,0-0.1-0.1-0.2-0.1c0,0.1-0.1,0-0.2-0.1c0,0.1,0.2,0.2,0.1,0.2c0,0,0.1,0.1,0.1,0.1c-0.1,0,0,0.1-0.2,0.1
						c0,0,0.1,0,0.1,0.1c-0.1-0.1-0.1,0-0.2-0.1l0,0.1c-0.1,0-0.1-0.1-0.1-0.1c0,0,0,0,0,0c0-0.1-0.2-0.2-0.2-0.2
						c0,0.1,0.1,0.2,0.2,0.3c-0.1,0,0.1,0.3,0,0.2c0,0-0.2-0.2-0.3-0.2c0.1,0.1,0.1,0.1,0.2,0.2c-0.3-0.3,0,0.3-0.3,0.1l-0.1-0.2
						c0,0-0.1,0-0.1,0l0.1,0.1c0,0-0.1,0-0.1-0.1c0,0.2,0,0.1-0.1,0c0.1,0,0,0,0-0.1c-0.1-0.1-0.1,0-0.1,0c0-0.1,0-0.2-0.1-0.2
						c0,0.1,0,0.1-0.1,0.2l0-0.1c0,0.1-0.1-0.2-0.2,0l0,0l0,0l0,0l0,0c0,0.2,0,0.1,0,0.2c0,0,0-0.1,0-0.1c0,0.2,0,0.1,0,0.2
						c0-0.1,0-0.2-0.1-0.2c0,0,0,0.1,0,0.2c0-0.1,0-0.1-0.1-0.2c0,0,0,0,0,0c0-0.1,0-0.1,0-0.2c0,0,0,0.2,0,0.1l0-0.1c0,0,0,0,0,0
						c0,0,0-0.2,0-0.2c0,0.1,0,0.4,0.1,0.5c-0.1-0.1-0.1,0.1-0.1,0.1l0-0.2c0,0,0,0.1,0,0.1l0,0c0-0.1,0-0.1,0-0.2c0,0-0.1,0,0,0.2
						l0,0c0-0.1-0.1-0.1-0.1-0.2c0,0.1-0.1,0,0,0.2c0,0.1-0.1-0.2-0.1,0c-0.1-0.1,0-0.1,0-0.2c-0.1-0.1,0,0.2-0.1-0.1
						c0,0.1,0,0.1,0.1,0.2c-0.1-0.3-0.1,0-0.1-0.2c0,0.1,0,0.1,0,0.2c0-0.1,0-0.1,0-0.1l0,0.2l-0.2-0.4c0,0.2,0.1,0.3,0.1,0.4l0,0
						c-0.1-0.2,0,0.1-0.1,0c0,0,0-0.1,0-0.1l0,0.1c0,0,0,0,0,0c-0.1-0.1,0,0.1-0.1,0c0,0-0.1-0.2-0.1-0.2l0,0.2l-0.1-0.2
						c0,0,0.1,0.4-0.1,0.1l0,0c0-0.1-0.1-0.2-0.1-0.1c0,0,0.1,0.2,0.1,0.1l0,0c-0.1-0.1,0-0.2,0-0.3c0,0.1,0,0.1,0.1,0.2
						c0-0.1,0-0.2,0-0.2c0,0.1,0,0.2,0.1,0.2c0.1,0.1,0-0.1,0-0.1c0,0.1,0.1,0.1,0.1,0.1c0-0.1,0-0.1,0.1,0c0,0,0,0.1,0.1,0.2
						c0-0.1,0-0.3,0-0.4c0-0.3,0.2,0.1,0.2-0.1c0-0.1-0.1-0.1-0.1-0.2c0,0.1,0,0.1,0.1,0.1c0-0.2,0.1,0,0-0.1c0,0,0,0.1,0.1,0.1
						c0,0.2,0,0.1,0.1,0.3c0-0.3,0.1,0,0-0.4l0,0l0.1,0.1l0,0c0,0,0,0,0.1,0.1c0,0,0,0,0,0.1c0.1,0.1,0-0.1,0-0.2c0,0.1,0,0,0,0.2
						c0,0,0-0.1,0-0.1l0,0.1c0.1,0.1,0-0.3,0-0.1l0-0.1c0,0.1,0.1,0.2,0.1,0.3c0,0,0-0.1,0-0.1c0-0.1,0,0-0.1-0.2l0.1-0.1
						c0,0,0,0.1,0,0.1c0.1,0.4,0.1-0.3,0.3,0.1c0-0.1,0-0.1,0-0.2c0,0,0.1,0,0.1,0.1l0,0.1c0-0.1,0.1-0.2,0.1-0.2c0,0,0,0.1,0,0.1
						c0-0.1,0.1,0.3,0.1,0l0,0c0.1,0,0-0.2,0.1-0.2c0.1,0.2,0,0,0.1,0.2c0.1,0.1,0-0.1,0.1,0c0,0,0,0,0,0.1c0.1,0.1-0.1-0.2-0.1-0.1
						c0,0.1,0.1,0.1,0.1,0.1l-0.1-0.1c0,0,0.1,0.1,0.1,0.2c-0.1-0.2,0-0.1-0.1-0.2c0,0,0.1,0.2,0.2,0.2c0,0,0,0,0-0.1l0,0
						c0.1,0.1,0.1,0.1,0.1,0.1c0.1,0-0.1-0.1-0.1-0.2l-0.1-0.1l0,0l0.1,0.1c0.1,0,0-0.1,0-0.1l-0.1-0.1l0-0.1c0.2,0.2,0.1,0,0.3,0.2
						c0.1,0-0.1-0.2-0.1-0.2c0,0,0,0,0.1,0c0.1,0,0-0.1-0.1-0.1c0.1,0,0.1,0,0.1,0.1c0,0-0.1-0.1-0.2-0.1c0.1,0,0.1,0.1,0.2,0.1
						c-0.1,0-0.1-0.1-0.2-0.1c0.4,0.2,0.2,0,0.5,0.2c-0.1,0-0.3-0.1-0.4-0.2l0,0c-0.1,0-0.1,0-0.1,0c0,0,0,0,0.1,0
						c-0.1-0.1,0-0.1-0.1-0.1c0,0,0.1,0,0.2,0c0.1,0-0.2-0.1-0.3-0.1c0.3,0,0,0,0.3,0c-0.1,0-0.2-0.1-0.3,0c0.4-0.1-0.2,0,0.1-0.1
						c-0.1,0-0.2,0.1-0.2,0.1c0.1,0,0.1-0.1,0.2-0.1c-0.1,0-0.2,0,0.1-0.1c-0.2,0.1,0,0-0.2,0c0.1-0.1-0.1,0,0-0.1
						c-0.1,0.1-0.1,0-0.1,0.1c0,0,0,0,0,0c0.1-0.1-0.1,0.1,0,0c0,0,0.1-0.1,0.1-0.1c-0.1,0.1-0.2,0.1-0.1,0c0,0,0,0,0.1-0.1
						c-0.2,0.1-0.1-0.1-0.2,0l0.1-0.1c0.1-0.2-0.2,0.2-0.2,0.2c0-0.1,0.1-0.4,0-0.3c0,0.1,0,0.1,0,0.1c0,0,0-0.2,0-0.1l0,0.1
						c0-0.3-0.1,0.2,0-0.3c0,0.2-0.1-0.1-0.1,0.1c0-0.1,0-0.2,0-0.2l0,0.2l0,0c0,0.3-0.2-0.3-0.1-0.1l0,0c0-0.1-0.1-0.1-0.1-0.1
						c0,0,0,0.1,0.1,0.1c0,0.1,0,0.1,0,0.2c0-0.1-0.1-0.1-0.1-0.2c0,0.1,0.1,0.1,0.1,0.2c0,0-0.1-0.1-0.1-0.1c0.1,0.1,0,0.1,0.1,0.2
						c0,0,0,0.1,0,0.1l0,0c0.1,0.2-0.1-0.1,0,0c0-0.1-0.1-0.1-0.1-0.1l0,0.1c0,0-0.2-0.2-0.2-0.2c0.1,0.1,0.1,0.1,0.1,0.2l-0.1-0.1
						c0,0,0.2,0.2,0.2,0.2c0,0,0,0.1,0,0.1l-0.1-0.1c0,0,0,0.1-0.1,0c0,0,0.1,0.1,0.1,0.1c0.1,0.1-0.2-0.1,0,0c0,0-0.1,0-0.1-0.1
						l0.1,0.1c-0.1,0-0.3-0.1-0.2-0.1c0,0,0.1,0,0.1,0.1l0,0l-0.2-0.1l0.2,0.1l-0.2-0.1c0,0,0.2,0.1,0.2,0.1c-0.1,0-0.2,0-0.3-0.1
						c0.3,0.1,0,0,0.2,0.1c-0.3,0-0.1,0.1-0.2,0.1l0,0c-0.2,0,0.3,0,0.2,0l-0.1,0c-0.2,0,0,0.1,0.1,0.1c-0.1,0-0.2,0-0.1,0
						c0.1,0,0.2-0.1,0.2,0c0,0-0.1,0-0.1,0l0.2,0c-0.1,0-0.2,0.1-0.1,0.1c-0.1,0-0.1,0-0.2,0.1c0,0,0.2,0,0.2,0l-0.2,0.1
						c0,0,0.3-0.2,0.1,0c0,0,0,0-0.1,0c-0.1,0.1,0.2-0.1,0.2-0.1l-0.2,0.1c-0.1,0.1,0.1,0,0.2-0.1c0.2-0.2-0.3,0.3-0.1,0.2
						C83.3-86.4,83.3-86.4,83.5-86.4C83.3-86.4,83.5-86.6,83.5-86.4c-0.2,0.2,0-0.1-0.2,0.1l0-0.1c-0.1,0.1,0,0-0.2,0.2
						c0,0.1,0.1-0.1,0.2-0.1c-0.1,0.1,0,0-0.1,0.2l0,0c0,0-0.1,0.1-0.1,0.1c-0.1,0.1,0,0,0,0c0-0.1,0.1-0.1,0.2-0.2l0,0
						C83.4-86.4,83.3-86.3,83.5-86.4C83.4-86.4,83.4-86.4,83.5-86.4c-0.1,0.1,0-0.1,0-0.1c0,0.1-0.2,0.3-0.1,0.2
						c0.1-0.1,0.1-0.3,0.1-0.3C83.5-86.6,83.5-86.5,83.5-86.4z M83-86.5C83-86.5,83-86.5,83-86.5L83-86.5C83-86.5,83-86.5,83-86.5z
						 M82.9-86.5c0,0,0.1,0,0.1,0c0,0,0,0,0,0C82.9-86.5,82.9-86.5,82.9-86.5z M82.1-86L82.1-86C82.1-86,82-86,82.1-86
						C82-86,82-85.9,82.1-86C82-85.9,82.1-86,82.1-86z"/>
					<path fill="#202020" d="M82.2-86L82.2-86C82.2-86,82.2-86,82.2-86L82.2-86L82.2-86z"/>
					<path fill="#202020" d="M84.1-85.7L84.1-85.7C84.1-85.7,84.1-85.7,84.1-85.7L84.1-85.7z"/>
					<polygon fill="#202020" points="83.3,-87 83.2,-87 83.3,-87 					"/>
					<path fill="#202020" d="M83.7-86.2L83.7-86.2C83.6-86.3,83.6-86.3,83.7-86.2z"/>
					<path fill="#202020" d="M83.5-86.2L83.5-86.2C83.4-86.3,83.5-86.2,83.5-86.2z"/>
					<path fill="#202020" d="M83.3-86.3C83.3-86.3,83.3-86.2,83.3-86.3L83.3-86.3L83.3-86.3z"/>
					<path fill="#202020" d="M84.5-86.8L84.5-86.8C84.5-86.9,84.5-86.8,84.5-86.8z"/>
					<path fill="#202020" d="M84.6-86.4C84.6-86.4,84.6-86.4,84.6-86.4C84.6-86.4,84.6-86.4,84.6-86.4z"/>
					<polygon fill="#202020" points="84.3,-87 84.3,-87 84.3,-87 					"/>
					<path fill="#202020" d="M84.6-86.4C84.6-86.5,84.6-86.5,84.6-86.4C84.6-86.4,84.6-86.4,84.6-86.4z"/>
					<path fill="#202020" d="M82.7-86.1L82.7-86.1C82.7-86.1,82.7-86.1,82.7-86.1L82.7-86.1z"/>
					<path fill="#202020" d="M82.7-86.1L82.7-86.1C82.7-86.1,82.7-86.1,82.7-86.1z"/>
					<path fill="#202020" d="M82.7-86.1L82.7-86.1C82.7-86.1,82.7-86.1,82.7-86.1z"/>
					<path fill="#202020" d="M82.9-86.2L82.9-86.2C82.9-86.2,82.9-86.2,82.9-86.2z"/>
					<path fill="#202020" d="M83-86.2C82.9-86.2,82.9-86.3,83-86.2L83-86.2C82.9-86.3,83-86.1,83-86.2z"/>
					<path fill="#202020" d="M83.4-85.6L83.4-85.6c0,0,0,0.1,0,0.1C83.5-85.3,83.3-85.6,83.4-85.6z"/>
					<path fill="#202020" d="M83.5-85.5c0,0,0,0.1,0,0.1C83.6-85.4,83.6-85.5,83.5-85.5z"/>
					<path fill="#202020" d="M84.4-85.7l0,0.1C84.5-85.5,84.5-85.6,84.4-85.7z"/>
					<polygon fill="#202020" points="84.4,-86.4 84.3,-86.5 84.4,-86.4 					"/>
					<polygon fill="#202020" points="85,-85.5 85,-85.5 85,-85.6 					"/>
					<path fill="#202020" d="M85.5-87.8l-0.2,0.1C85.4-87.7,85.5-87.8,85.5-87.8z"/>
					<path fill="#202020" d="M84.7-88.3C84.7-88.4,84.7-88.4,84.7-88.3C84.7-88.4,84.7-88.3,84.7-88.3z"/>
					<polygon fill="#202020" points="82.1,-87.8 82,-87.9 82.1,-87.8 					"/>
				</g>
				<g>
					<path fill="#202020" d="M92-96.1c0,0-0.1,0.1-0.1,0.1L92-96.1L92-96.1z"/>
					<path fill="#202020" d="M91.9-95.7c0.1,0,0.3-0.1,0.4-0.2C92.1-95.8,92.1-95.8,91.9-95.7c0-0.1,0.1-0.2,0.1-0.2
						c0,0,0-0.1-0.1,0c-0.1,0.1-0.1,0.2,0.1,0.1C91.9-95.7,91.9-95.7,91.9-95.7z"/>
					<path fill="#202020" d="M91.2-94L91.2-94C91.2-94,91.2-94,91.2-94z"/>
					<path fill="#202020" d="M89.9-92.6C89.8-92.7,89.8-92.7,89.9-92.6C89.8-92.6,89.8-92.6,89.9-92.6z"/>
					<path fill="#202020" d="M90.1-92.2C90.1-92.2,90.1-92.2,90.1-92.2C90.1-92.2,90.1-92.2,90.1-92.2z"/>
					<path fill="#202020" d="M91.2-94L91.2-94C91.2-94,91.2-94,91.2-94z"/>
					<path fill="#202020" d="M92.5-95.5C92.5-95.5,92.5-95.5,92.5-95.5L92.5-95.5L92.5-95.5z"/>
					<path fill="#202020" d="M91.7-94.1L91.7-94.1C91.7-94.1,91.6-94.2,91.7-94.1L91.7-94.1z"/>
					<path fill="#202020" d="M91.8-94.4c0,0,0.2,0.1,0.2,0.1c-0.1,0-0.1-0.1-0.1-0.1C91.9-94.4,91.8-94.4,91.8-94.4z"/>
					<path fill="#202020" d="M91.9-95.1L91.9-95.1L91.9-95.1z"/>
					<path fill="#202020" d="M91.4-94.1C91.4-94.1,91.4-94.2,91.4-94.1L91.4-94.1z"/>
					<path fill="#202020" d="M83-94.6C83.1-94.6,83.1-94.6,83-94.6C83.1-94.6,83-94.6,83-94.6z"/>
					<polygon fill="#202020" points="83.8,-95.3 83.8,-95.3 83.9,-95.3 					"/>
					<path fill="#202020" d="M90.1-91.9L90.1-91.9C90.1-91.9,90.1-91.9,90.1-91.9z"/>
					<path fill="#202020" d="M88.6-91.1c-0.1,0-0.2-0.1-0.3,0C88.3-91.1,88.5-91,88.6-91.1z"/>
					<path fill="#202020" d="M92.5-95.5C92.5-95.5,92.5-95.5,92.5-95.5C92.5-95.5,92.5-95.5,92.5-95.5z"/>
					<polygon fill="#202020" points="88.2,-91.1 88.2,-91.1 88.2,-91.1 					"/>
					<path fill="#202020" d="M90.1-91.5C90.1-91.5,90.1-91.5,90.1-91.5C90.1-91.5,90.1-91.5,90.1-91.5z"/>
					<path fill="#202020" d="M90.4-92L90.4-92C90.4-91.9,90.4-92,90.4-92z"/>
					<path fill="#202020" d="M90-91C90-91,90-91,90-91L90-91C90-91,90-91,90-91z"/>
					<polygon fill="#202020" points="89.7,-90.7 89.7,-90.7 89.7,-90.7 					"/>
					<path fill="#202020" d="M83.1-92.8c0,0,0.1-0.1,0.1-0.1C83.2-92.8,83.1-92.9,83.1-92.8z"/>
					<path fill="#202020" d="M92.4-95.5C92.5-95.5,92.5-95.5,92.4-95.5L92.4-95.5C92.4-95.5,92.4-95.5,92.4-95.5z"/>
					<path fill="#202020" d="M90.9-90.2L90.9-90.2C90.9-90.1,90.9-90.1,90.9-90.2z"/>
					<path fill="#202020" d="M86.7-93.1L86.7-93.1C86.7-93.1,86.7-93.1,86.7-93.1z"/>
					<path fill="#202020" d="M90.7-89.9c-0.1,0-0.1,0-0.1,0c0,0,0,0,0,0L90.7-89.9z"/>
					<path fill="#202020" d="M83.3-92.9L83.3-92.9L83.3-92.9z"/>
					<path fill="#202020" d="M83-93.5c-0.1-0.1,0,0,0.2-0.1c-0.2-0.1,0.1-0.1-0.2-0.1c0.2,0,0.1,0,0.3-0.1c-0.2,0-0.1-0.1-0.3-0.1
						c0.2,0,0.2,0.1,0.5,0.1c-0.1-0.1-0.2-0.2-0.4-0.2c0.1,0,0.1,0,0.2-0.1c0,0,0,0,0,0c-0.1-0.1,0-0.2-0.2-0.3
						c0.3,0,0.1-0.2,0.4-0.1c0,0-0.1-0.1-0.2-0.1c0.3,0,0.1-0.1,0.2-0.1c-0.1,0-0.1-0.1-0.2-0.1c0,0,0.1,0,0.1,0c-0.1,0,0,0,0.1-0.1
						c-0.1,0-0.2,0-0.3,0c0.1,0,0.2,0,0.3,0l-0.3,0c0,0,0.1,0,0.1,0c-0.1,0-0.2,0-0.1,0l0,0l0.1,0l-0.2,0c0.2-0.1,0.4-0.2,0.7-0.2
						l0.1,0c0.1,0,0.1-0.1,0.1-0.1c0.1,0,0.3,0,0.4,0.1c0,0.2-0.3,0.1-0.4,0.2l0.2,0.1l-0.1,0c-0.1,0,0,0,0.1,0
						c-0.1,0,0,0.1-0.1,0.2l0.1,0c0.3,0.2-0.3,0.2-0.2,0.4l0.2,0.1l-0.2,0c0.1,0.1,0.2,0.1,0.2,0.2c-0.3,0.3,0,0.5-0.2,0.8
						c0,0,0,0,0.1,0c-0.2,0.1-0.1,0.2,0.1,0.2c0.1,0,0.3,0,0.2,0.1l-0.1,0c0.1,0-0.1,0-0.1,0.1c0.2-0.1,0.2,0,0.3-0.1c0,0,0,0-0.1,0
						c0,0-0.1,0.1-0.1,0.1c0.2-0.1,0.2-0.1,0.3-0.2c0,0,0,0,0,0c-0.1,0.1-0.1,0.3-0.1,0.5c0,0,0.1-0.1,0.1-0.3c0,0.1,0,0,0.1-0.1
						c0,0,0,0,0,0l0,0c0,0,0,0,0,0c0,0,0,0,0,0c0-0.1,0-0.1,0.1-0.3c0,0,0,0,0,0.1c0,0,0,0,0,0c0,0,0,0,0,0l0,0c0,0,0,0,0,0.1
						c0,0.1,0.1-0.2,0-0.3c0,0.2,0.1,0.2,0.1,0.4c0,0,0,0-0.1,0c0,0,0,0,0,0.1c0.1,0.1,0-0.1,0.1-0.1c0,0,0,0.1,0,0.1
						c0,0,0-0.1,0-0.2c0.1,0.1,0.2,0.2,0.2,0.1c0-0.1-0.1-0.2,0-0.2l0,0.1c0.1,0,0-0.2,0-0.1c0,0,0,0.1,0,0.1c0-0.1,0-0.1-0.1-0.3
						l0.1,0.1c0-0.1-0.1-0.3,0-0.1c-0.3-0.2-0.1-0.2,0-0.2c0,0,0.1,0.1,0.1,0.1c-0.1-0.2,0.1-0.2,0.2-0.3l0.2,0.1
						c0-0.1-0.3-0.4-0.2-0.5l0.1,0.1c0.1-0.2,0.2-0.3,0.4-0.4l0.1,0.1c0-0.1,0.1-0.2,0.1-0.3c0.1,0.1,0.2,0,0.4-0.1
						c0.1-0.1,0.3-0.2,0.4,0.1l0-0.3c0.1,0,0.3,0,0.3,0.2l0,0c-0.1,0.2,0.1,0,0.1,0.1c0,0,0.1-0.1,0.1-0.2c0.2,0.2,0.6,0.4,0.5,0.8
						c0.2,0.1,0.6,0.3,0.6,0.5l0,0c0,0.1,0,0.3-0.3,0.3c0.1,0.1,0.5,0.2,0.4,0.4l-0.1,0c0,0.1,0.1,0.1,0.1,0.1c0,0-0.1,0-0.1,0
						c-0.1,0.1,0.1,0.1,0.1,0.1l-0.1,0c-0.2,0.2,0.2,0.3,0.2,0.5c0,0-0.1,0-0.2,0c0.3,0.1,0.2,0.3,0.3,0.3l-0.1,0
						c0.2,0.2-0.3,0.1-0.1,0.3l0.2-0.1c-0.1,0.1,0,0.1,0.1,0.1c-0.1,0.1-0.2,0-0.2,0.1c-0.1,0-0.1-0.1-0.2,0l-0.2,0.1c0,0,0,0,0,0.1
						c0.4,0,0,0.1,0.4,0c0,0.1-0.2,0.2,0,0.2c-0.3,0.2,0.1,0.1-0.3,0.4c0,0.1,0.2,0,0.3-0.1c0,0,0,0-0.1,0c0.1-0.1,0.1-0.1,0.1-0.1
						c-0.1,0.1-0.2,0.1-0.3,0.2c0.1,0,0.2-0.1,0.3-0.1l-0.1,0.2c0.1-0.1,0,0.2,0.1,0l0-0.1c0.1,0,0.1-0.2,0.2-0.2l0,0.1
						c0,0,0.1-0.2,0.1,0l-0.1,0c0,0.2,0,0.2,0.1,0.3c0.1,0,0-0.3,0.1-0.3c0,0.1,0,0.1,0,0.2c0.1-0.1,0.2-0.1,0.2-0.3
						c0,0,0,0.1,0,0.1c0.1,0,0-0.3,0.1-0.2l0,0c0.1,0.2,0-0.2,0.2,0.1c0.1,0-0.1,0,0.1,0.2c0.1,0.1-0.1-0.3,0-0.3c0,0,0,0,0,0
						c0,0,0.1-0.1,0.1-0.2c0.3,0.2,0.1-0.2,0.4,0c-0.1-0.1-0.1-0.1-0.1-0.2c0,0,0,0,0,0c0,0-0.1-0.1-0.1-0.1c0.1,0,0-0.1,0-0.1
						c-0.1-0.1,0-0.1,0-0.1c0,0.1,0.1,0.1,0.2,0.2c0.1-0.1-0.2-0.3-0.1-0.3l0.2,0c-0.2-0.1-0.1-0.1-0.1-0.2c0.1,0,0.1,0,0.2,0.1
						c0-0.1,0.1-0.1,0-0.1l-0.1,0c0.1-0.1-0.2-0.2,0-0.2l0.3,0.1c0.2,0-0.2-0.1,0.1-0.1c-0.1,0-0.1,0-0.2,0c0,0,0.1,0,0,0.1
						c0,0-0.2-0.1-0.2-0.1c0,0,0.1,0.1,0.1,0.1c-0.1-0.1-0.1-0.1-0.2-0.1c-0.1,0,0.2,0,0,0c0,0,0.2,0,0.2,0c-0.1,0,0.3-0.1,0.1-0.1
						c0,0,0,0,0.1,0c0,0,0-0.1-0.1,0l0,0c0,0-0.1,0-0.1,0c-0.1,0-0.2,0.1-0.2,0.1c0,0,0.1,0,0.2-0.1c0,0-0.3,0.1-0.2,0.1
						c0,0,0,0,0,0c0,0,0,0,0,0c0,0,0.2-0.2,0.2-0.1c0.2-0.1,0-0.1,0.1-0.1c-0.1,0.1-0.2,0.2-0.3,0.2c0,0,0,0,0.1-0.1l-0.1,0.1
						c0,0,0,0,0,0l0,0c0,0,0.2-0.2,0-0.1c0,0,0.1-0.1,0.1-0.2c-0.1,0,0-0.1,0.1-0.2c-0.1,0-0.1,0.2-0.2,0.1c0,0,0,0.1,0,0.1
						c-0.1-0.1-0.2-0.1-0.2-0.2c0,0,0.1,0.2-0.1,0.1c0,0,0.1-0.1,0-0.1c0-0.1-0.1-0.1-0.1-0.2l-0.1,0c0-0.1,0.1-0.1,0.1,0
						c0,0,0,0,0,0.1c0.1,0,0.2-0.2,0.2-0.3c-0.1,0-0.3,0.1-0.3,0.1c0-0.2-0.4,0-0.3-0.2c0-0.1,0.2-0.3,0.3-0.4
						c-0.1-0.1-0.1,0.2-0.3,0.1c0.2-0.1,0.2-0.3,0.2-0.5c0-0.2,0.2-0.4,0.3-0.4l0.1,0.2c0.1,0,0.1,0,0.1-0.1L90-94
						c0-0.1,0.1-0.1,0.2,0.1c0-0.2,0.1-0.1,0.2-0.1c-0.1,0,0,0,0,0.1c0.1,0.1,0.1,0,0.2-0.1c0,0.1,0.1,0.2,0.1,0.2
						c0-0.1,0.1-0.1,0.2-0.2l0,0.1c0.1-0.1,0.3,0.2,0.4,0l0,0l0,0l0,0l0,0c0-0.2,0.1-0.1,0.1-0.2c0,0,0,0.1,0,0.1c0-0.2,0-0.1,0-0.2
						c0,0.1,0,0.2,0.1,0.2c0,0,0-0.1,0-0.2c0,0.1,0.1,0.2,0.1,0.2c0,0,0,0,0,0c0,0.1,0,0.1,0.1,0.2c0,0,0-0.2,0-0.1l0,0.1
						c0,0,0,0,0,0c0,0,0,0.2,0.1,0.3c0.1-0.1-0.1-0.4-0.2-0.5c0.1,0.1,0.1-0.1,0.1-0.1l0.1,0.2c0,0,0-0.1-0.1-0.2l0,0
						c0,0.1,0.1,0.1,0.2,0.2c0-0.1,0.1-0.1-0.1-0.3l0,0c0.1,0,0.2-0.1,0.2,0c0-0.1,0.1-0.1-0.1-0.2c0,0,0.3,0,0-0.1
						c0.1,0,0.1,0,0.2,0.1c0.1,0-0.2-0.1,0.1-0.1c-0.1-0.1-0.1,0-0.2,0c0.3,0,0-0.1,0.2-0.2c-0.1,0-0.1,0-0.2,0c0.1,0,0.1,0,0.1,0
						l-0.2,0l0.4-0.1c-0.2-0.1-0.3,0.1-0.4,0l0,0c0.2-0.1-0.2,0,0-0.2c0,0,0.1,0,0.1,0l-0.1,0c0,0,0,0,0,0c0.1-0.1-0.1,0,0-0.1
						c0,0,0.2,0,0.2-0.1l-0.2,0l0.2-0.1c0-0.1-0.4,0-0.2-0.2l0.1,0c0,0,0.2-0.1,0-0.1c0,0-0.2,0.1-0.1,0.1l0-0.1
						c0.1-0.1,0.2,0,0.3,0c-0.1,0-0.1,0-0.2,0.1c0.1,0,0.2,0,0.3,0.1c-0.1,0-0.2,0-0.2,0.1c0,0.1,0.1,0,0.2,0c0,0-0.1,0.1-0.1,0.1
						c0.1,0,0.1,0.1,0.1,0.2c0,0-0.1,0-0.2,0c0.1,0.1,0.3,0,0.5,0.1c0.3,0.1-0.1,0.3,0.1,0.5c0.1,0,0.1-0.1,0.2,0
						c-0.1,0-0.1,0-0.1,0c0.2,0.1,0,0.1,0.1,0.2c0,0-0.1,0-0.2,0c-0.2-0.1-0.1,0.1-0.3-0.1c0.2,0.2-0.1,0.1,0.3,0.4l0.1,0l-0.1,0.1
						l0,0c0,0,0,0.1-0.2,0c0-0.1,0-0.1,0-0.1c-0.1,0,0.1,0.2,0,0.3c-0.1-0.1,0-0.1-0.1-0.2c0,0,0,0.1,0,0.2l0-0.1
						c-0.2,0,0.2,0.3,0,0.2c0,0,0,0.1,0.1,0.1c-0.1,0-0.2-0.1-0.2-0.2c0,0,0,0.1,0,0.2c0.1,0.1,0.1,0,0.2,0.1c0,0-0.1,0.2-0.1,0.1
						c0,0,0-0.1,0-0.1c-0.2-0.1-0.2-0.1-0.3,0c-0.1,0.1-0.2,0.1-0.4-0.1c0,0.1,0,0.1,0,0.2c-0.1-0.1-0.2,0-0.2-0.1l0-0.1
						c-0.1,0.1-0.2,0.2-0.3,0.2c0,0,0-0.1,0-0.1c0,0.1-0.2-0.3-0.2,0l0,0c-0.1,0-0.2,0.2-0.3,0.3c-0.1-0.2,0,0,0-0.2
						c-0.1,0-0.1,0.1-0.1,0.1c0,0,0,0,0,0c-0.1,0,0,0,0,0c0,0,0,0,0,0s0,0,0,0l0.1,0c0,0,0,0,0,0c0,0-0.1,0-0.1,0
						c0.2,0,0.1,0.1,0.2,0c0,0-0.2,0.1-0.3,0.1c0,0.1,0,0.1,0.1,0l0,0c-0.1,0.1,0,0.1-0.1,0.1c0,0.1,0.1,0,0.2-0.1l0-0.1
						c0,0,0,0,0.1,0c0,0-0.1,0-0.1,0c0,0.1,0.1,0,0.1,0l0-0.1l0.1,0c-0.1,0.2,0,0.1-0.1,0.3c0,0.2,0.3,0,0.5,0.1c0,0,0,0-0.1,0
						c0,0.1,0.2,0.1,0.3,0.1c-0.1,0-0.1,0-0.1,0.1c0.1,0.1,0.2,0,0.3,0.1c-0.1,0-0.1,0-0.1,0.1c0.1,0,0.1,0,0.2,0
						c-0.4,0.1-0.1,0.2-0.4,0.3c0.1,0,0.3,0.1,0.5,0l0,0c0.1,0,0.1,0,0.1,0.1c0,0-0.1,0-0.1,0c0.2,0.2,0,0.4,0.1,0.7
						c0,0-0.1-0.1-0.1-0.1c-0.1,0.2,0.1,0.4,0.1,0.6c-0.2-0.1,0.1-0.2-0.2-0.3c0,0.2,0,0.4-0.1,0.7c-0.4-0.2,0,0.3-0.3,0.2
						c0.1,0.1,0.1,0.2,0.1,0.2c-0.1-0.1-0.1,0-0.2-0.1c0.1,0.1,0,0.3-0.2,0.1c0.2,0.2-0.1,0.1,0,0.3c-0.1,0-0.1,0.2-0.2,0.2
						c0.1,0.1,0,0.1,0,0.2c0,0,0,0,0-0.1c-0.1-0.1-0.1,0.2-0.2,0.1c-0.1,0-0.1-0.1-0.1-0.1c0.1,0.1-0.1,0.3-0.2,0.2c0,0,0-0.1,0-0.1
						c-0.2,0.3-0.7,0.2-1,0.3l0.1-0.2c-0.2-0.3-0.2,0.3-0.4,0.2c-0.3-0.1-0.5-0.3-0.7-0.5c-0.2-0.2-0.3-0.5-0.5-0.7
						c-0.1,0-0.1,0-0.1,0.1c0-0.1,0.1-0.1,0-0.2l-0.1,0c0.2-0.3-0.3-0.7,0.1-0.8c-0.2-0.2,0.1-0.2-0.1-0.4c0.1,0,0.2,0.1,0.2,0
						l-0.2-0.1l0,0c-0.3-0.1,0.3-0.4,0.1-0.5l0,0c0.1,0,0.2,0,0.1-0.1c-0.1,0-0.1,0-0.1,0c-0.1-0.1-0.1-0.2-0.2-0.3
						c0.1,0,0.1-0.1,0.2-0.1c-0.1,0-0.1,0-0.2,0c0-0.1,0.1-0.2,0.1-0.3c-0.1,0-0.1,0-0.3,0c0,0,0-0.1-0.1-0.1c0,0,0,0,0,0l0,0
						c-0.2,0.1,0.1-0.1,0,0C87-92.9,87-93,87-93L87-93c0,0,0.2-0.2,0.2-0.2C87-93.1,87.1-93.1,87-93l0.1-0.2c0,0-0.2,0.2-0.2,0.2
						c0,0-0.1,0.1-0.1,0l0-0.1c0,0,0,0,0-0.1c0,0,0,0.1,0,0.2c0,0.2,0-0.2,0,0c0-0.1,0-0.1,0-0.2c0,0,0,0.2,0,0.2
						c0-0.1-0.1-0.3-0.1-0.2c0,0.1,0,0.1,0.1,0.1l0,0.1l-0.1-0.2l0.1,0.2l-0.1-0.2c0,0.1,0.1,0.3,0.1,0.3c-0.1-0.1-0.1-0.1-0.3-0.2
						c0.2,0.3-0.1,0,0.1,0.2c-0.3,0-0.3,0.2-0.5,0.4l0,0c-0.2,0,0.1,0.3,0,0.3l0-0.1c-0.2,0-0.3,0.3-0.4,0.5c0-0.1-0.1-0.1-0.1-0.1
						c0,0.1,0.2,0.2,0,0.2c0,0-0.1-0.1-0.1-0.1l0,0.2c-0.3,0-0.6,0-0.8,0.1c-0.1-0.1,0-0.1,0-0.2c-0.2,0-0.4,0.2-0.6,0.1l0.1-0.2
						c-0.1,0-0.2,0.2-0.2,0c0,0,0,0,0,0c0,0,0.1,0,0.1,0c0-0.1-0.1-0.1-0.1-0.1c-0.1,0-0.2,0.2-0.3,0.1l0.2-0.2c0-0.2-0.2,0-0.3,0.1
						c-0.3,0,0.2-0.4-0.1-0.5c-0.1,0-0.1,0.1-0.2,0.1c0-0.2-0.2-0.2-0.2-0.4c0.3-0.2,0,0.1,0.3-0.1l0,0.1c0.1-0.2,0.1,0.1,0.3,0
						c0-0.1-0.2-0.1-0.3-0.2c0.1,0,0,0.1,0.2,0l-0.1,0c0,0,0.1,0,0.1,0c0.1-0.1,0,0,0-0.1c-0.1,0-0.2,0-0.3,0.1c0,0,0,0,0,0
						c-0.2,0-0.1-0.2-0.3-0.3c0,0,0.1,0,0.1,0c0-0.1-0.2-0.1-0.3-0.2c0.1,0,0.3,0,0.3-0.1c-0.1,0-0.3,0-0.3-0.1
						C82.8-93.6,82.9-93.5,83-93.5z M84.7-91.8C84.7-91.8,84.7-91.8,84.7-91.8L84.7-91.8C84.7-91.8,84.7-91.8,84.7-91.8z M84.9-92
						c0,0,0,0.1,0,0.1c0,0,0.1,0,0.1,0C84.9-91.9,84.9-91.9,84.9-92z M84.6-92.9L84.6-92.9C84.7-92.9,84.7-92.9,84.6-92.9
						C84.7-93,84.7-93,84.6-92.9C84.7-92.9,84.6-92.9,84.6-92.9z"/>
					<path fill="#202020" d="M84.6-92.8L84.6-92.8C84.6-92.7,84.6-92.7,84.6-92.8L84.6-92.8L84.6-92.8z"/>
					<path fill="#202020" d="M91.2-93.9L91.2-93.9C91.2-93.9,91.2-93.9,91.2-93.9L91.2-93.9z"/>
					<polygon fill="#202020" points="86.7,-93 86.7,-93 86.7,-93 					"/>
					<path fill="#202020" d="M92.2-93.5C92.2-93.5,92.3-93.5,92.2-93.5C92.3-93.5,92.3-93.5,92.2-93.5z"/>
					<path fill="#202020" d="M92.5-93.9L92.5-93.9C92.5-93.9,92.5-93.9,92.5-93.9z"/>
					<path fill="#202020" d="M92.6-94.2C92.6-94.2,92.6-94.2,92.6-94.2L92.6-94.2L92.6-94.2z"/>
					<path fill="#202020" d="M91.5-92.2L91.5-92.2C91.6-92.1,91.5-92.2,91.5-92.2z"/>
					<path fill="#202020" d="M90.2-93.1C90.3-93.2,90.3-93.2,90.2-93.1C90.3-93.2,90.3-93.2,90.2-93.1z"/>
					<polygon fill="#202020" points="91,-90.2 90.9,-90.2 90.9,-90.2 					"/>
					<path fill="#202020" d="M90.3-93.1C90.4-93.2,90.4-93.2,90.3-93.1C90.3-93.2,90.3-93.1,90.3-93.1z"/>
					<path fill="#202020" d="M92.3-95.8L92.3-95.8C92.3-95.8,92.3-95.8,92.3-95.8L92.3-95.8z"/>
					<path fill="#202020" d="M92.3-95.8L92.3-95.8C92.3-95.8,92.3-95.8,92.3-95.8z"/>
					<path fill="#202020" d="M92.2-95.8L92.2-95.8C92.3-95.8,92.3-95.8,92.2-95.8z"/>
					<path fill="#202020" d="M92.5-95.3L92.5-95.3C92.5-95.4,92.5-95.4,92.5-95.3z"/>
					<path fill="#202020" d="M92.6-95.2c0,0,0.1-0.1,0-0.2l0,0C92.6-95.4,92.5-95.2,92.6-95.2z"/>
					<path fill="#202020" d="M92-94.6L92-94.6c0-0.1-0.1,0-0.1-0.1C91.6-94.6,92-94.7,92-94.6z"/>
					<path fill="#202020" d="M91.9-94.4c0,0-0.1,0-0.1,0C91.8-94.4,91.8-94.4,91.9-94.4z"/>
					<path fill="#202020" d="M90.5-94l0-0.1C90.4-94.1,90.5-94.1,90.5-94z"/>
					<polygon fill="#202020" points="90.3,-93.2 90.4,-93.1 90.3,-93.2 					"/>
					<path fill="#202020" d="M89.4-93.6L89.4-93.6c0-0.1,0,0.2,0,0.2C89.4-93.4,89.4-93.6,89.4-93.6z"/>
					<path fill="#202020" d="M89.6-90.9l0.1,0.1C89.8-90.8,89.6-90.9,89.6-90.9z"/>
					<path fill="#202020" d="M88.7-90.4C88.7-90.5,88.7-90.6,88.7-90.4C88.7-90.5,88.7-90.4,88.7-90.4z"/>
					<polygon fill="#202020" points="86.8,-94.6 86.8,-94.7 86.7,-94.6 					"/>
				</g>
				<g>
					<path fill="#202020" d="M87.2-73.3c0,0,0,0.2,0,0.1L87.2-73.3L87.2-73.3z"/>
					<path fill="#202020" d="M87.2-72.9c0-0.1,0.1-0.3,0.1-0.4c0,0.2,0,0.1-0.1,0.3c0,0,0-0.1,0-0.1c0,0,0,0,0,0.1
						c0,0.2,0,0.2,0.1,0C87.2-73,87.2-72.9,87.2-72.9z"/>
					<path fill="#202020" d="M89-73.9L89-73.9C89-73.9,89-73.9,89-73.9z"/>
					<path fill="#202020" d="M89.1-75.5C89.1-75.5,89.1-75.5,89.1-75.5C89.1-75.5,89.1-75.5,89.1-75.5z"/>
					<path fill="#202020" d="M89-75.8C89-75.8,89-75.8,89-75.8C89-75.8,89-75.8,89-75.8z"/>
					<path fill="#202020" d="M89-73.9L89-73.9C89-74,89-73.9,89-73.9z"/>
					<path fill="#202020" d="M87.4-73.4C87.4-73.4,87.4-73.3,87.4-73.4L87.4-73.4L87.4-73.4z"/>
					<path fill="#202020" d="M88.8-73.3L88.8-73.3C88.8-73.3,88.9-73.3,88.8-73.3L88.8-73.3z"/>
					<path fill="#202020" d="M88.5-72.9c0,0-0.1-0.1-0.1-0.2C88.4-73,88.4-73,88.5-72.9C88.4-73,88.5-72.9,88.5-72.9z"/>
					<path fill="#202020" d="M87.6-72.7L87.6-72.7L87.6-72.7z"/>
					<path fill="#202020" d="M89-73.6C89.1-73.6,89.1-73.6,89-73.6L89-73.6z"/>
					<path fill="#202020" d="M84.4-78.5L84.4-78.5C84.4-78.5,84.4-78.5,84.4-78.5z"/>
					<polygon fill="#202020" points="83.6,-78.5 83.6,-78.5 83.5,-78.6 					"/>
					<path fill="#202020" d="M89-76L89-76C89-76.1,89-76.1,89-76z"/>
					<path fill="#202020" d="M88.3-79.2c0,0.2-0.1,0.1-0.1,0.3C88.1-78.9,88.3-79.1,88.3-79.2z"/>
					<path fill="#202020" d="M87.4-73.3L87.4-73.3C87.4-73.4,87.4-73.4,87.4-73.3z"/>
					<polygon fill="#202020" points="88.1,-78.9 88.1,-78.9 88.1,-78.9 					"/>
					<path fill="#202020" d="M88.9-76.1C88.8-76.1,88.8-76.1,88.9-76.1C88.8-76.1,88.8-76.1,88.9-76.1z"/>
					<path fill="#202020" d="M88.6-75.9L88.6-75.9C88.6-75.9,88.6-75.9,88.6-75.9z"/>
					<path fill="#202020" d="M88.7-76.2C88.7-76.2,88.7-76.2,88.7-76.2L88.7-76.2C88.7-76.2,88.7-76.2,88.7-76.2z"/>
					<polygon fill="#202020" points="88.8,-76.6 88.8,-76.6 88.8,-76.6 					"/>
					<path fill="#202020" d="M84.6-78.7c0-0.1,0-0.1,0-0.2C84.6-78.7,84.6-78.7,84.6-78.7z"/>
					<path fill="#202020" d="M87.4-73.3C87.4-73.3,87.4-73.3,87.4-73.3L87.4-73.3C87.4-73.3,87.4-73.3,87.4-73.3z"/>
					<path fill="#202020" d="M87.4-76.6L87.4-76.6C87.5-76.6,87.4-76.6,87.4-76.6z"/>
					<path fill="#202020" d="M85.8-76.9L85.8-76.9C85.7-76.9,85.7-76.9,85.8-76.9z"/>
					<path fill="#202020" d="M87.6-76.8c0.1,0,0.1,0,0.1,0C87.7-76.8,87.6-76.8,87.6-76.8L87.6-76.8z"/>
					<path fill="#202020" d="M84.6-78.9L84.6-78.9L84.6-78.9z"/>
					<path fill="#202020" d="M84.5-78.6c0,0.1,0,0-0.1-0.2C84.5-78.6,84.4-78.9,84.5-78.6c-0.1-0.1,0-0.1-0.1-0.2
						c0.1,0.2,0,0.2,0.1,0.4c-0.1-0.2-0.1-0.3-0.2-0.5c0,0.2,0,0.2,0.2,0.4c0,0-0.1-0.1-0.1-0.1c0,0,0,0,0-0.1c0.1,0.1,0,0,0.1,0.3
						c-0.2-0.3,0,0-0.3-0.2c0,0,0.1,0.1,0.1,0.2c-0.2-0.2-0.1,0-0.2-0.1c0.1,0.1,0.1,0.1,0.1,0.1c0,0-0.1,0-0.1-0.1
						c0.1,0.1,0,0-0.1,0c0.1,0.1,0.2,0.1,0.3,0.1c-0.1,0-0.1-0.1-0.2-0.1l0.2,0.1c0,0-0.1,0-0.1,0c0.1,0,0.2,0.1,0,0.1l0,0l-0.1,0
						l0.1,0.1c-0.2,0-0.5-0.1-0.7-0.2l0,0c-0.1,0-0.1,0-0.2,0c-0.1,0-0.3-0.1-0.3-0.2c0.1-0.1,0.3,0.1,0.4,0l-0.1-0.2l0.1,0
						c0.1,0,0,0,0-0.1c0.1,0.1,0.1-0.1,0.1-0.1l-0.1,0c-0.1-0.3,0.4,0,0.3-0.2l-0.1-0.2l0.1,0.1c0-0.1-0.1-0.2,0-0.2
						c0.2,0,0.3,0,0.4-0.1c0.1-0.1,0.2-0.2,0.4-0.1c0,0,0,0,0-0.1c0.1,0.2,0.2,0.1,0.3-0.1c0.1-0.1,0.2-0.3,0.3-0.1l0,0.1
						c0.1,0,0,0.1,0,0.2c0.1-0.2,0.2-0.1,0.3-0.2c0,0,0,0-0.1,0c0,0-0.1,0.2,0,0.1c0.2-0.3,0.3-0.1,0.4-0.1
						c-0.1,0.1-0.1,0.3-0.2,0.5c0,0,0.1-0.1,0.2-0.2c0,0.1,0,0.1,0.1,0c0,0,0-0.1,0-0.1l0,0c0,0,0,0,0,0c0,0,0,0,0,0
						c0.1-0.1,0.1-0.1,0.2-0.2c0,0,0.1,0.1,0,0.2c0,0,0,0,0,0.1c0,0,0,0,0,0l0,0c0,0,0,0,0,0c0,0.1,0.2,0,0.3,0.1
						c-0.2,0.1-0.2,0.2-0.3,0.2c0,0,0-0.1,0-0.2c0,0,0,0-0.1,0.1c-0.1,0.2,0.2,0,0.1,0.2c0,0-0.1,0-0.1,0c0,0.1,0.1,0,0.2,0
						c-0.1,0.1-0.2,0.2-0.1,0.2c0.1,0,0.2,0,0.2,0l-0.1,0c-0.1,0.1,0.2,0,0.1,0.1c0,0-0.1,0-0.1,0c0.1,0,0.1,0,0.3,0l-0.2,0
						c0.1,0,0.3,0,0.1,0.1c0.3-0.1,0.2,0,0.2,0c0,0-0.1,0-0.1,0.1c0.2-0.1,0,0,0,0.1L86-78.3c0,0,0.4-0.4,0.4-0.4l-0.1,0.1
						c0,0,0,0,0,0.1l-0.1,0.2c0.1-0.1,0.1-0.1,0.1-0.1c-0.1,0.2-0.1,0.2,0,0.2c0,0,0.1-0.1,0,0.2l0.1-0.4c0,0,0-0.1,0,0.2l0,0
						c0,0.3,0,0,0,0.1c0,0,0-0.2,0-0.3c0,0.2,0,0,0.1,0.3c0-0.1,0-0.2,0-0.2c0,0-0.1,0-0.1,0c0,0,0,0-0.1,0c0,0,0,0,0,0l0,0
						c0.1,0,0.2,0,0.3,0.2c0.1-0.1,0.1-0.6,0.2-0.6l0,0.1c0.1,0,0.1-0.1,0.1-0.2c0,0,0,0.1,0,0.1c0.1,0.1,0-0.1,0.1-0.1l0,0.1
						c0.1,0.1,0.3-0.4,0.4-0.4c0,0,0,0.1,0,0.2c0.1-0.3,0.2-0.3,0.3-0.4l-0.1,0.1c0.2-0.2,0,0.3,0.2,0.1l0-0.2c0,0,0.1,0,0.1-0.1
						c0,0.1,0,0.2,0,0.3c0,0.1-0.1,0-0.1,0.1l0,0.2c0,0,0,0,0,0c0.1-0.3,0.1,0,0.2-0.3c0.2,0.1,0.2,0.4,0.3,0.4
						c-0.2,0.3,0.1,0.3-0.2,0.6c0,0.1,0.1,0.1,0.3,0c0,0,0,0-0.1,0c0.1-0.1,0.1,0,0.2,0.1c-0.1,0-0.2,0-0.3,0.1c0,0,0.2,0,0.3,0
						l-0.2,0.2c0.2,0-0.2,0.1,0.1,0.1l0.1,0c0,0.1,0.2,0,0.3,0.1l-0.1,0c0,0,0.2,0,0,0.1l0-0.1c-0.2,0.1-0.2,0.1-0.3,0.2
						c0,0.1,0.3,0,0.3,0c-0.1,0.1-0.1,0-0.2,0c0.1,0.1,0.1,0.2,0.3,0.2c0,0-0.1,0-0.1,0c0,0.1,0.2,0.2,0.1,0.2l0,0
						c-0.2,0,0.2,0.2-0.2,0.2c-0.1,0,0-0.1-0.2,0c-0.1,0.1,0.3,0.1,0.2,0.2c0,0,0,0,0,0c0,0.1,0,0.1,0,0.2c-0.3,0,0,0.3-0.4,0.2
						c0.1,0,0.1,0.1,0.2,0.1c0,0,0,0-0.1,0c0,0,0.1,0,0.1,0.1c-0.1,0,0.1,0.1,0,0c0.1,0,0.1,0,0,0c-0.1,0-0.2,0-0.3-0.1
						c-0.1,0,0.3,0.1,0.3,0.1l-0.2,0c0.3,0,0.1,0,0.2,0c-0.1,0-0.1,0-0.3,0c0.1,0-0.1,0,0.1,0l0.1,0c-0.1,0,0.1,0,0.1,0
						c0,0,0,0-0.1,0l-0.5,0.1c-0.2,0.1,0.2,0,0,0.1c0.1-0.1,0.1,0,0.3-0.1c0,0-0.1,0-0.1,0l0.3-0.1c0,0-0.2,0-0.1,0
						c0.2,0,0.1,0,0.3-0.1c0.2,0-0.2,0.1,0,0c-0.1,0-0.2,0.1-0.3,0.1c0.2-0.1-0.2,0.2,0,0.1c0,0,0,0-0.1,0c0.1,0,0.1,0,0.2-0.1l0,0
						c0,0,0.2-0.1,0.1,0c0.1,0,0.3-0.1,0.3-0.1c0,0-0.1,0-0.2,0.1c0,0,0.4-0.2,0.2-0.1c0,0,0,0,0,0c0,0,0,0,0,0c0,0-0.2,0.2-0.2,0.1
						c-0.2,0.1,0,0-0.1,0.1c0.1-0.1,0.2-0.2,0.3-0.2c0,0,0,0-0.1,0.1l0.1-0.1c0,0,0,0,0,0l0,0c0,0-0.2,0.2-0.1,0.1
						c0,0-0.1,0.1-0.2,0.2c0.1-0.1,0,0-0.1,0.1c0.1,0,0.1-0.2,0.2-0.1c0,0,0-0.1,0.1-0.1c0,0.1,0.1,0.1,0.2,0.2c0-0.1,0-0.1,0.1-0.1
						c-0.1,0.1,0,0.1,0,0.2l0.1,0c0,0.1-0.1,0.1-0.1,0.1c0,0,0,0,0,0c-0.1,0-0.2,0.2-0.2,0.3c0.1,0,0.2-0.1,0.3-0.2
						c0,0.1,0.3-0.1,0.3,0.1c0,0-0.2,0.3-0.2,0.3c0.2,0,0.1-0.1,0.2-0.1c-0.2,0.1-0.1,0.2,0,0.3c0.1,0.1,0.2,0.2,0,0.3l-0.2-0.1
						c0,0,0,0.1,0,0.1l0.1,0c0,0.1,0,0.1-0.2,0.1c0.1,0.1,0,0.1,0,0.1c0-0.1,0,0,0-0.1c-0.1,0-0.1,0.1,0,0.1c-0.1,0-0.2-0.1-0.2,0
						c0.1,0.1,0,0.1,0.1,0.2l-0.1,0c0,0.1-0.3,0.1-0.1,0.2l0,0l0,0l0,0l0,0c0.2,0,0.1,0.1,0.1,0.2c0,0-0.1,0-0.1,0
						c0.2,0.1,0.1,0.1,0.1,0.1c-0.1,0-0.2-0.1-0.2,0c0,0,0.1,0.1,0.1,0.1c-0.1,0-0.2,0-0.2,0c0,0,0,0,0,0c-0.1,0-0.1,0-0.2-0.1
						c0,0,0.1,0.1,0.1,0.1l-0.1-0.1c0,0,0,0,0,0c0,0-0.1-0.1-0.2-0.1c0,0.1,0.3,0.2,0.4,0.3c-0.1,0,0,0.2,0,0.2l-0.1-0.1
						c0,0,0,0.1,0.1,0.1l0,0c0-0.1-0.1-0.1-0.2-0.2c0,0.1-0.1,0.1,0.1,0.2l0,0c-0.1,0-0.2,0.1-0.3,0c0,0.1-0.1,0.1,0,0.2
						c0,0.1-0.3-0.1-0.1,0.1c-0.1-0.1,0,0-0.1-0.2c-0.1-0.1,0.1,0.2-0.1,0c0,0.1,0,0,0.1,0.2c-0.2-0.2-0.1,0-0.2-0.1
						c0,0.1,0.1,0,0.1,0.2c0-0.1-0.1-0.1-0.1-0.1l0.1,0.2l-0.2-0.4c0,0.2,0.1,0.3,0.1,0.4l0,0c-0.1-0.2,0,0.2-0.2,0.1
						c0,0,0-0.1,0-0.1l0,0.1c0,0,0,0,0,0c-0.1-0.1,0,0.1-0.1,0c0,0,0-0.2,0-0.2l0,0.2l0-0.2c0,0-0.1,0.4-0.1,0l0,0
						c0-0.1,0-0.2,0-0.1c0,0,0,0.2,0,0.2l0-0.1c0-0.2,0.1-0.2,0.1-0.2c0,0.1,0,0.1,0,0.2c0-0.1,0-0.2,0.1-0.2c0,0.1,0,0.2,0,0.2
						c0,0.1,0-0.1,0-0.1c0,0.1,0,0.1,0,0.1c0-0.1,0-0.1,0.1,0c0,0,0,0.1,0,0.2c0-0.1,0-0.3,0-0.4c-0.1-0.3,0.2,0.1,0.1-0.1
						c0-0.1-0.1-0.1-0.1-0.1c0.1,0.1,0.1,0.1,0.1,0.1c-0.1-0.2,0.1,0,0-0.1c0,0,0.1,0.1,0.1,0.1c0.1,0.1,0.1,0,0.2,0.3
						c-0.1-0.2,0.1,0-0.1-0.3l0,0l0.1,0l0,0c0,0,0,0,0.2,0.1c0,0,0,0.1,0,0.1c0.1,0.1,0-0.1,0-0.2c0.1,0.1,0,0.1,0.1,0.1
						c0,0,0-0.1,0-0.1l0.1,0c0.2,0-0.3-0.2,0-0.1l-0.1-0.1c0.1,0,0.2,0.1,0.2,0.2c0,0,0-0.1-0.1-0.1c-0.1,0-0.1,0-0.2-0.1l0-0.1
						c0,0,0.1,0,0,0.1c0.4,0.1-0.2-0.3,0.3-0.2c-0.1,0-0.1-0.1-0.2-0.1c0,0,0-0.1,0.1-0.1l0.1,0c0-0.1-0.1-0.2-0.1-0.3
						c0,0,0.1,0,0.1,0.1c-0.1-0.1,0.3,0,0.1-0.1l0,0c0.1-0.1-0.1-0.3-0.1-0.3c0.2,0,0,0,0.2,0.1c0.1,0-0.1-0.1,0-0.1c0,0,0,0,0.1,0
						c0.1,0-0.2,0-0.2,0c0.1,0,0.1,0,0.2,0l-0.1,0c0,0,0.1,0,0.2,0c-0.2,0-0.1,0-0.2,0c0,0,0.2-0.1,0.2-0.1c0,0,0,0-0.1,0l0,0
						c0.1-0.1,0-0.1,0.1-0.1c0-0.1-0.1,0.1-0.2,0.1l0,0.1l-0.1,0l0.1-0.1c0-0.1-0.1,0-0.1,0l0,0.1l-0.1,0c0.1-0.2,0-0.1,0.1-0.3
						c0-0.1-0.3,0-0.5,0c0,0,0,0,0.1-0.1c0-0.1-0.2,0-0.3,0.1c0.1,0,0.1-0.1,0.2-0.1c-0.1,0-0.2,0.1-0.3,0.1c0.1,0,0.1-0.1,0.1-0.1
						c-0.1,0.1-0.2,0.1-0.2,0.1c0.5-0.2,0.1-0.2,0.5-0.4c-0.1,0.1-0.4,0.1-0.6,0.2l0.1,0c-0.1,0.1-0.1,0-0.2,0c0,0,0.1,0,0.1,0
						c-0.3,0-0.3-0.1-0.6-0.1c0.1,0,0.3,0,0.3-0.1c-0.1,0-0.1-0.1-0.3-0.1c-0.1,0-0.1-0.1-0.1-0.1c0.4-0.1-0.1,0.2,0.3,0.1
						c0-0.1,0-0.3,0-0.5c0.6-0.1,0-0.2,0.4-0.3c-0.2,0-0.1-0.1-0.1-0.2c0.1,0,0.1,0,0.2,0c-0.1-0.1,0-0.3,0.2-0.2
						c-0.2-0.1,0-0.1-0.1-0.1c0.1,0,0-0.1,0.1-0.1c-0.2,0-0.1-0.1-0.1-0.1c0,0,0,0,0.1,0c0.1,0-0.1-0.1,0-0.1c0.1,0,0.1,0,0.2,0
						c-0.1,0-0.2-0.1-0.1-0.1c0,0,0.1,0,0.1,0c-0.2-0.1,0-0.1-0.2-0.1l0.2-0.1c0.2-0.1-0.3,0.1-0.3,0.1c0.1,0,0.3-0.4,0.2-0.3
						c0,0.1-0.1,0.1-0.1,0.2c0,0,0.1-0.2,0.1-0.1l-0.1,0.1c0.2-0.4-0.1,0.2,0.1-0.4c-0.1,0.2,0-0.2-0.1,0.2c0-0.1,0.1-0.3,0-0.3
						c0,0-0.1,0.2-0.1,0.2l0,0c0,0.2,0,0.1,0,0c0-0.1-0.1-0.2-0.1-0.1l0,0c0-0.1,0-0.2,0-0.1c0,0.1,0,0.1,0,0.2c0,0.2,0,0.2,0,0.2
						c0-0.1,0-0.1-0.1-0.2c0,0.1,0.1,0.2,0.1,0.2c0,0,0-0.1,0-0.1c-0.1,0-0.1,0-0.1,0c0.1,0.1,0,0.1,0.1,0.2
						c-0.1,0.1-0.2,0.2-0.2,0.3c-0.1,0.1-0.1,0.1-0.2,0.2l0-0.1c0,0.2-0.2,0-0.2,0.1c0-0.1,0-0.1,0-0.2l0,0.1c0-0.1,0-0.3-0.1-0.3
						c0,0.2,0,0.1,0,0.2l-0.1-0.2c0,0,0,0.3,0.1,0.3c-0.1,0.1-0.3,0.2-0.4,0.2l0-0.1c-0.1,0.1-0.2,0.1-0.2-0.1c0,0,0,0.1,0,0.1
						c-0.1,0.1,0-0.2-0.1,0c0,0,0.1-0.1,0.1-0.1c0,0-0.2,0.1-0.2,0.1c0-0.1,0-0.3-0.1-0.3c0,0,0,0.1,0,0.1l-0.1,0l0.1-0.2l-0.1,0.1
						l0.1-0.2c-0.1,0-0.2,0.2-0.2,0.2c-0.1-0.2,0-0.3,0-0.5c-0.2,0.3-0.1-0.2-0.3,0c0.1-0.3-0.1-0.4-0.1-0.7l0,0
						c0.1-0.1-0.3,0-0.2-0.1l0.1,0c0.1-0.1-0.1-0.3-0.2-0.3c0.1,0,0.2,0,0.1-0.1c-0.1,0-0.2,0.1-0.2,0.1c0,0,0.1,0,0.1,0l-0.2,0.1
						c0.1-0.1,0.2-0.2,0.1-0.2c0.1-0.1,0.1-0.1,0.2-0.1c0,0-0.2,0.1-0.2,0.1l0.2-0.2c0,0-0.2,0.3-0.1,0.1c0,0,0,0,0.1-0.1
						c0.1-0.2-0.2,0.2-0.2,0.2l0.2-0.3c0.1-0.2-0.1,0.1-0.2,0.3c-0.2,0.3,0.2-0.5,0.1-0.3c0,0.1-0.1,0.2-0.1,0.3
						C84.6-78.7,84.6-78.5,84.5-78.6c0.1-0.4,0.1,0.1,0.1-0.3l0,0.1c0-0.2,0-0.1,0.1-0.3c0-0.1-0.1,0.1-0.1,0.2c0-0.2,0,0,0.1-0.3
						l0,0.1c0-0.1,0-0.1,0-0.1c0-0.2,0,0,0,0c0,0.1,0,0.2,0,0.4c0,0,0,0,0-0.1C84.6-78.7,84.5-78.9,84.5-78.6c0-0.1,0-0.1,0-0.2
						c0,0,0,0.2,0,0.3c0-0.1,0-0.4-0.1-0.3c0,0.1,0.1,0.3,0.1,0.4C84.5-78.4,84.5-78.5,84.5-78.6z M85-78.8C85-78.8,85-78.8,85-78.8
						L85-78.8C85-78.8,85-78.8,85-78.8z M85.1-78.8C85.1-78.8,85-78.8,85.1-78.8C85-78.7,85-78.7,85-78.7
						C85-78.8,85.1-78.8,85.1-78.8z M85.8-79.7L85.8-79.7C85.8-79.7,85.8-79.7,85.8-79.7C85.8-79.7,85.9-79.8,85.8-79.7
						C85.8-79.8,85.8-79.7,85.8-79.7z"/>
					<path fill="#202020" d="M85.7-79.6L85.7-79.6C85.6-79.6,85.6-79.6,85.7-79.6L85.7-79.6L85.7-79.6z"/>
					<path fill="#202020" d="M89-73.9L89-73.9C89-73.9,89-73.9,89-73.9L89-73.9z"/>
					<polygon fill="#202020" points="85.6,-76.9 85.6,-76.9 85.6,-76.9 					"/>
					<path fill="#202020" d="M88.2-73.7C88.2-73.7,88.2-73.7,88.2-73.7C88.2-73.7,88.2-73.7,88.2-73.7z"/>
					<path fill="#202020" d="M88-73.6L88-73.6C88-73.6,88-73.6,88-73.6z"/>
					<path fill="#202020" d="M87.9-73.5C87.9-73.5,87.9-73.5,87.9-73.5L87.9-73.5L87.9-73.5z"/>
					<path fill="#202020" d="M87.4-75.2C87.4-75.2,87.4-75.2,87.4-75.2C87.3-75.2,87.4-75.2,87.4-75.2z"/>
					<path fill="#202020" d="M88.7-75C88.7-75,88.7-75,88.7-75C88.7-74.9,88.7-74.9,88.7-75z"/>
					<polygon fill="#202020" points="87.4,-76.5 87.4,-76.5 87.4,-76.6 					"/>
					<path fill="#202020" d="M88.7-75C88.6-74.9,88.6-74.9,88.7-75C88.7-75,88.7-75,88.7-75z"/>
					<path fill="#202020" d="M87.3-73.4L87.3-73.4C87.3-73.4,87.3-73.4,87.3-73.4L87.3-73.4z"/>
					<path fill="#202020" d="M87.3-73.4L87.3-73.4C87.3-73.3,87.3-73.3,87.3-73.4z"/>
					<path fill="#202020" d="M87.3-73.3L87.3-73.3C87.3-73.3,87.3-73.3,87.3-73.3z"/>
					<path fill="#202020" d="M87.5-73.3L87.5-73.3C87.5-73.4,87.5-73.3,87.5-73.3z"/>
					<path fill="#202020" d="M87.5-73.4C87.5-73.4,87.5-73.5,87.5-73.4L87.5-73.4C87.5-73.5,87.5-73.3,87.5-73.4z"/>
					<path fill="#202020" d="M88.1-72.8L88.1-72.8c0,0,0,0.1,0,0.1C88.3-72.6,88-72.8,88.1-72.8z"/>
					<path fill="#202020" d="M88.4-72.9C88.4-72.9,88.4-72.8,88.4-72.9C88.4-72.9,88.4-72.9,88.4-72.9z"/>
					<path fill="#202020" d="M89.3-74.3l0.1,0.1C89.4-74.3,89.4-74.3,89.3-74.3z"/>
					<polygon fill="#202020" points="88.6,-74.8 88.6,-74.8 88.7,-74.8 					"/>
					<path fill="#202020" d="M89.7-75L89.7-75C89.7-75,89.7-75,89.7-75C89.7-75,89.7-75,89.7-75C89.7-75,89.7-75,89.7-75
						C89.7-75.1,89.7-75,89.7-75C89.6-75.1,89.6-75.1,89.7-75L89.7-75z"/>
					<path fill="#202020" d="M88.9-76.5l-0.2,0C88.8-76.5,89-76.4,88.9-76.5z"/>
					<path fill="#202020" d="M88.8-77.9c0.1-0.1,0.1-0.1,0-0.1C88.8-78,88.8-77.9,88.8-77.9z"/>
					<polygon fill="#202020" points="86.3,-78.4 86.4,-78.5 86.3,-78.4 					"/>
				</g>
				<g>
					<path fill="#202020" d="M95.2-90.4c0,0,0.1-0.1,0.1-0.1L95.2-90.4L95.2-90.4z"/>
					<path fill="#202020" d="M95.3-90.8c-0.1,0.1-0.1,0.2-0.2,0.4c0.1-0.2,0-0.1,0.1-0.3c0,0,0,0.1,0,0.1c0,0,0,0,0.1-0.1
						c0.1-0.1,0-0.2-0.1-0.1C95.2-90.7,95.2-90.7,95.3-90.8z"/>
					<path fill="#202020" d="M93.6-90L93.6-90C93.7-90,93.7-90,93.6-90z"/>
					<path fill="#202020" d="M92-89.3C92-89.3,92-89.3,92-89.3C92-89.3,92-89.3,92-89.3z"/>
					<path fill="#202020" d="M91.7-89.1C91.7-89.1,91.7-89.1,91.7-89.1C91.7-89.1,91.7-89.1,91.7-89.1z"/>
					<path fill="#202020" d="M93.6-90L93.6-90C93.6-90,93.6-90,93.6-90z"/>
					<path fill="#202020" d="M95-90.3C95-90.3,95-90.3,95-90.3L95-90.3L95-90.3z"/>
					<path fill="#202020" d="M93.9-90.1L93.9-90.1c0,0,0-0.1-0.1-0.1L93.9-90.1z"/>
					<path fill="#202020" d="M93.9-90.4c0,0,0.1,0.1,0.2,0.2C94.1-90.3,94-90.3,93.9-90.4C94-90.3,94-90.4,93.9-90.4z"/>
					<path fill="#202020" d="M94.7-90.9L94.7-90.9L94.7-90.9z"/>
					<path fill="#202020" d="M93.8-90.1C93.7-90.2,93.7-90.2,93.8-90.1L93.8-90.1z"/>
					<path fill="#202020" d="M91.6-79.2L91.6-79.2C91.6-79.2,91.6-79.2,91.6-79.2z"/>
					<polygon fill="#202020" points="91.8,-78.3 91.8,-78.3 91.7,-78.2 					"/>
					<path fill="#202020" d="M91.3-88.5L91.3-88.5C91.3-88.5,91.3-88.5,91.3-88.5z"/>
					<path fill="#202020" d="M89.8-85.2c0.2-0.1,0.2,0.1,0.3,0C90.1-85.1,89.9-85.2,89.8-85.2z"/>
					<path fill="#202020" d="M95-90.3L95-90.3C95-90.3,95-90.3,95-90.3z"/>
					<polygon fill="#202020" points="90.1,-85.1 90.1,-85.1 90.2,-85.1 					"/>
					<path fill="#202020" d="M91.6-87.1C91.6-87.1,91.6-87.1,91.6-87.1C91.6-87.1,91.6-87.1,91.6-87.1z"/>
					<path fill="#202020" d="M91.6-88.1L91.6-88.1C91.6-88.1,91.6-88.1,91.6-88.1z"/>
					<path fill="#202020" d="M91.9-86.9C91.9-86.9,91.9-86.9,91.9-86.9C91.9-86.9,91.9-86.9,91.9-86.9
						C91.9-86.9,91.9-86.9,91.9-86.9z"/>
					<path fill="#202020" d="M91.9-86.7C91.9-86.7,91.9-86.7,91.9-86.7L91.9-86.7L91.9-86.7z"/>
					<path fill="#202020" d="M91.1-79.8c0,0-0.1,0-0.1,0C91-79.8,91.1-79.8,91.1-79.8z"/>
					<path fill="#202020" d="M95-90.4C95-90.4,95-90.3,95-90.4L95-90.4C95-90.4,95-90.4,95-90.4z"/>
					<path fill="#202020" d="M93.3-86.7l0,0.1C93.3-86.6,93.3-86.6,93.3-86.7z"/>
					<path fill="#202020" d="M92.5-82.3L92.5-82.3C92.5-82.3,92.5-82.3,92.5-82.3z"/>
					<path fill="#202020" d="M93.2-86.2c-0.1,0-0.1,0-0.1,0C93.1-86.2,93.1-86.2,93.2-86.2L93.2-86.2z"/>
					<path fill="#202020" d="M90.9-79.8L90.9-79.8L90.9-79.8z"/>
					<path fill="#202020" d="M91.2-79.6c0.1,0,0,0-0.1,0.1C91.3-79.5,91.1-79.4,91.2-79.6c-0.1,0.2,0,0.1-0.1,0.2
						c0.1-0.1,0.2,0,0.3-0.2c-0.2,0.1-0.2,0.1-0.4,0.3c0.1-0.1,0.2-0.1,0.4-0.2c0,0-0.1,0.1-0.1,0.1c0,0,0,0,0,0
						c0.1-0.1,0.1,0.1,0.3-0.1c-0.2,0.2,0.1,0.1-0.2,0.3c0,0,0.1-0.1,0.2-0.1c-0.1,0.2,0,0.1,0,0.2c0.1-0.1,0.1-0.1,0.1-0.1
						c0,0,0,0.1-0.1,0.1c0.1-0.1,0,0,0,0.1c0.1-0.1,0.1-0.2,0.1-0.3c0,0.1-0.1,0.2-0.1,0.3l0.1-0.2c0,0,0,0.1,0,0.1
						c0-0.1,0.1-0.2,0.1,0l0,0l0,0.1l0.1-0.1c0,0.2,0,0.5-0.1,0.7l-0.1,0c0,0.1,0,0.1,0,0.2c0,0.1-0.1,0.3-0.2,0.3
						c-0.2-0.1,0.1-0.3,0-0.4l-0.2,0.1l0-0.1c0-0.1,0,0-0.1,0c0.1-0.1-0.1-0.1-0.1-0.1l0,0.1c-0.3,0.2,0-0.4-0.2-0.3l-0.2,0.1
						l0.1-0.1c-0.1,0-0.2,0.1-0.2,0c0-0.4-0.4-0.4-0.4-0.8c0,0,0,0-0.1,0.1c0.2-0.2,0-0.2-0.1-0.3c-0.1-0.1-0.3-0.2-0.1-0.3l0.1,0
						c0-0.1,0.1,0,0.2-0.1c-0.2,0-0.2-0.1-0.2-0.2c0,0,0,0,0.1,0.1c0,0,0.2,0,0.1,0c-0.3-0.1-0.3-0.3-0.3-0.4c0.1,0,0.3-0.1,0.5-0.1
						c0,0-0.1-0.1-0.2-0.1c0.1,0,0-0.1,0-0.1c0,0,0,0.1,0,0.1l0,0c0,0,0,0,0,0c0,0,0,0,0,0c-0.1,0-0.1,0-0.3-0.1c0,0,0-0.1,0.1-0.1
						c0,0,0,0,0.1-0.1c0,0,0,0,0-0.1l0,0c0,0,0,0,0.1,0c0.1,0-0.1-0.3-0.1-0.4c0.1,0.2,0.2,0.1,0.3,0.2c0,0-0.1,0.1-0.1,0.1
						c0,0,0,0,0.1,0c0.2,0-0.1-0.2,0.1-0.3c0,0,0,0,0.1,0.1c0.1,0,0-0.1-0.1-0.2c0.1,0.1,0.3,0.1,0.2,0c-0.1-0.1-0.1-0.1-0.1-0.2
						l0.1,0.1c0.1,0-0.1-0.2,0-0.2c-0.1,0,0,0.1,0.1,0.1c0-0.1,0-0.1-0.1-0.3l0.1,0.1c0-0.1,0-0.4,0.1-0.2c-0.2-0.3,0-0.3,0.1-0.3
						c0,0,0,0.1,0,0.1c0-0.2,0.2-0.1,0.2-0.2l0.2,0.2c0,0-0.3-0.4-0.3-0.4l0.1,0.1c0,0,0,0,0,0c0,0,0,0,0,0l0.2,0.1
						c-0.1,0-0.1-0.1-0.1-0.1c0.2,0.1,0.2,0,0.1,0c0,0-0.1,0,0.1-0.1L91-82.6c0,0-0.1,0,0.2-0.1l0,0c0.2-0.1,0,0,0-0.1
						c0,0-0.2,0-0.2,0.1c0.1-0.1-0.1-0.2,0.1-0.4c-0.1,0-0.4,0.1-0.5-0.1l0,0c0-0.1,0-0.2,0.2-0.4c-0.1,0-0.4,0.1-0.5-0.1l0.1,0
						c0-0.1-0.1,0-0.2,0c0,0,0,0,0.1-0.1c0-0.1-0.1,0-0.1,0l0.1,0c0.1-0.2-0.4-0.2-0.4-0.4c0,0,0.1,0,0.1-0.1
						c-0.3,0.1-0.3-0.2-0.4-0.3l0.1,0c-0.2-0.1,0.3-0.2,0-0.4l-0.1,0.1c0-0.1,0-0.2-0.1-0.1c0.1-0.1,0.2,0,0.2-0.2
						c0.1,0,0.1,0.1,0.2,0.1c0,0,0.2-0.2,0.2-0.1c0,0,0,0,0-0.1c-0.4,0,0-0.1-0.3-0.1c0-0.3,0.3-0.4,0.3-0.6c0.3,0.1,0.3-0.3,0.6,0
						c0.1-0.1,0.1-0.2,0-0.4c0,0,0,0,0,0.1c0-0.1,0.1-0.2,0.1-0.2c0,0.1-0.1,0.3,0,0.4c0-0.1,0-0.3,0.1-0.4l0.1,0.2
						c0-0.2,0.1,0.1,0.1-0.1l0-0.1c0.1,0,0.1-0.2,0.2-0.3l0,0.1c0,0,0.1-0.2,0.1,0l-0.1,0c0,0.2,0.1,0.2,0.1,0.3
						c0.1-0.1,0-0.3,0-0.3c0,0.1,0,0.1,0,0.2c0.1-0.1,0.1-0.1,0.1-0.3c0,0,0,0.1,0,0.1c0.1,0-0.1-0.2,0-0.1l0,0
						c0.2,0.2-0.1-0.2,0.2,0.1c0.1,0.1-0.1,0,0.1,0.1c0.2,0.1-0.2-0.3-0.1-0.2c0,0,0,0,0,0c0,0,0-0.1,0-0.1c0.3,0.1,0.1-0.1,0.3-0.1
						c0,0,0.1,0,0.1,0c-0.1,0-0.2-0.1-0.2-0.1c0,0,0,0,0.1,0c0,0-0.1-0.1-0.2-0.1c0.1,0-0.1-0.1-0.1-0.1c-0.1,0-0.1,0-0.1,0
						c0.1,0,0.2,0,0.3,0c0-0.1-0.4-0.1-0.4-0.1l0.1,0c-0.2,0-0.2,0-0.2,0c0.1,0,0.1,0,0.2-0.1c-0.1,0,0-0.1-0.1-0.1l0,0.1
						c0-0.2-0.3-0.2-0.2-0.3l0.3-0.1c0.1-0.1-0.2-0.1,0-0.2c-0.1,0-0.1,0-0.2,0c0,0,0.1,0.1,0.1,0.1l-0.2-0.1l0.1,0.1
						c-0.1,0-0.1,0-0.2,0c-0.1-0.1,0.1-0.1,0-0.2c0,0,0.2,0,0.2-0.1c-0.1-0.1,0.2-0.2,0-0.2c0,0,0,0,0.1,0c0,0,0-0.1-0.1-0.1l0,0
						c0,0-0.1,0-0.1-0.1c-0.1,0-0.2-0.1-0.2,0c0,0,0.1-0.1,0.2,0c0-0.1-0.4-0.1-0.2-0.2c0,0,0,0,0,0c0,0,0-0.1,0-0.1
						c0,0.1,0.3,0,0.2,0.1c0.2,0,0-0.1,0.1-0.1c-0.1-0.1-0.3,0-0.3-0.1c0.1,0,0.1,0,0.1,0l-0.1,0c0,0,0-0.1,0-0.1l0,0.1
						c0-0.1,0.3-0.1,0.2-0.2c0,0,0.1,0.1,0.2,0.1c-0.1-0.1,0.1,0,0.2,0c0-0.1-0.2-0.1-0.1-0.2c0,0-0.1,0-0.1,0
						c0.1-0.1,0-0.2,0.2-0.2c-0.1,0-0.1,0-0.1-0.1c0.1,0.1,0.1,0,0.2,0l-0.1,0c0.1,0,0.1,0.1,0.1,0.1c0,0,0,0,0,0
						c0,0.1,0.3,0.2,0.3,0.1c0-0.1-0.2-0.2-0.2-0.2c0.1,0-0.2-0.3,0-0.3c0,0,0.3,0.1,0.4,0.1c-0.1-0.1-0.2,0-0.2-0.2
						c0.3,0.2,0.1-0.4,0.4-0.3l0.1,0.2c0,0,0.1,0,0.1-0.1L92.6-90c0-0.1,0.1-0.1,0.2,0.1c0-0.2,0.1-0.1,0.2-0.1c-0.1,0,0,0,0,0.1
						c0.1,0.1,0.1,0,0.1-0.1c0,0.1,0.1,0.2,0.1,0.2c0-0.1,0.1-0.1,0.2-0.2l0,0.1c0.1-0.1,0.3,0.2,0.3,0l0,0l0,0l0,0l0,0
						c-0.1-0.2,0-0.1,0-0.2c0,0,0.1,0.1,0.1,0.1c-0.1-0.2,0-0.1,0-0.2c0,0.1,0.1,0.2,0.1,0.2c0,0,0-0.1-0.1-0.2
						c0,0.1,0.1,0.1,0.1,0.2c0,0,0,0.1,0,0.1c0,0,0,0,0,0c0.1,0.1,0,0.1,0.1,0.2c0,0-0.1-0.2,0-0.1l0.1,0.1c0,0,0,0,0,0
						c0,0,0,0.1,0.1,0.1c0,0.1,0.1,0.2,0.1,0.3c-0.1-0.2-0.3-0.5-0.4-0.7c0.1,0.2,0,0,0-0.1l0.1,0.2c0-0.1,0-0.1-0.1-0.2l0,0
						c0,0.1,0.1,0.1,0.2,0.3c0-0.1,0-0.1-0.2-0.3l0,0c0.1,0,0.1,0,0.2,0c0-0.1,0.1-0.1-0.1-0.2c0,0,0.3,0.1,0-0.1
						c0.1,0,0.1,0,0.2,0.1c0.1,0-0.2-0.2,0.1-0.1c-0.1-0.1-0.1,0-0.2-0.1c0.3,0.1,0.1-0.1,0.3-0.1c-0.1-0.1-0.1,0-0.1-0.1
						c0.1,0,0.1,0,0.1,0l-0.1-0.1c0,0,0.4,0.2,0.4,0.2c-0.1-0.2-0.2-0.2-0.2-0.4l0,0c0.1,0.1,0-0.2,0.2-0.1c0,0,0,0.1,0,0.1l0-0.1
						c0,0,0,0,0,0c0.1,0.1,0-0.1,0.1,0c0,0,0,0.2,0.1,0.2c0,0,0-0.2,0-0.2l0,0.2c0,0,0.1-0.4,0.1,0l0,0c0,0.1,0,0.2,0,0.1
						c0,0,0-0.2,0-0.2l0,0.1c0,0.2-0.1,0.2-0.1,0.2c0-0.1,0-0.1,0-0.2c0,0.1,0,0.2,0,0.2c0-0.1,0-0.2,0-0.2c-0.1-0.1,0,0.1,0,0.1
						c0-0.1,0-0.1-0.1-0.1c0,0.1,0,0.1-0.1,0c0,0,0-0.1-0.1-0.2c0,0.1,0,0.3,0.1,0.4c0.2,0.2-0.2,0-0.1,0.1c0.1,0,0.1,0,0.1,0.1
						c-0.1-0.1-0.1,0-0.1-0.1c0.2,0.1-0.1,0,0,0.1c0,0-0.1,0-0.2,0c-0.2-0.1-0.1,0-0.3-0.2c0.2,0.2-0.1,0.1,0.3,0.5l0,0l-0.1,0.1
						l0,0c0,0,0,0.1-0.2,0c0-0.1,0-0.1-0.1-0.2c-0.2-0.1,0.1,0.2,0.1,0.3c-0.1-0.1,0-0.1-0.2-0.3c0,0,0.1,0.1,0.1,0.2l-0.1-0.1
						c-0.2-0.1,0.3,0.5,0.1,0.3c0,0.1,0.1,0.1,0.1,0.2c-0.1-0.1-0.2-0.2-0.3-0.4c0,0,0.1,0.2,0.1,0.3c0.1,0.1,0,0,0.2,0.2l0.1,0.3
						c0,0-0.1-0.1-0.1-0.1c-0.2-0.2-0.2-0.2-0.1,0.1c0,0.1-0.2,0-0.4-0.4c0.1,0.2,0,0.2,0.1,0.3c-0.1-0.1-0.2-0.2-0.3-0.3l0-0.1
						c-0.2,0-0.2,0.1-0.3,0.1c0,0,0-0.1,0-0.1c0,0.1-0.2-0.3-0.1,0l0,0c-0.1,0-0.1,0.2-0.2,0.3c-0.1-0.2,0,0-0.1-0.2
						c-0.1,0-0.1,0.1-0.2,0.1c0,0,0,0,0-0.1c-0.1-0.1,0.1,0.1,0,0.2c-0.1-0.1-0.1-0.1-0.1-0.1l0.1,0.1c0,0-0.1-0.1-0.1-0.1
						c0.1,0.2,0,0.1,0.1,0.3c0,0-0.2-0.2-0.2-0.2c-0.1,0,0,0.1,0,0.1l0,0c-0.1-0.1-0.1,0-0.1,0c-0.1,0,0.1,0.1,0.1,0.2l0.1,0l0,0.1
						l-0.1-0.1c-0.1,0,0,0.1,0,0.1l0.1,0l0,0.1c-0.2-0.1-0.1,0-0.3-0.1c-0.1,0.1,0.1,0.2,0.1,0.3c0,0,0,0-0.1,0
						c-0.1,0,0,0.1,0.2,0.1c-0.1,0-0.1,0-0.1,0c0,0.1,0.1,0.1,0.2,0.1c-0.1,0-0.1,0-0.2,0c0.1,0,0.1,0,0.2,0c-0.4-0.1-0.2,0.1-0.5,0
						c0.1,0,0.3,0.1,0.4,0.1l0,0c0.1,0,0.1,0,0.1,0c0,0,0,0-0.1,0c0.1,0.1,0,0.2,0.1,0.3c0,0-0.1,0-0.2,0c0,0.1,0.2,0.1,0.3,0.2
						c-0.3,0.1-0.1-0.1-0.3,0c0,0,0.1,0.1,0.2,0.1c0.1,0.1,0.2,0.2,0.3,0.3c-0.4,0.1,0.3,0.3,0,0.4c0.1,0,0.2,0.1,0.2,0.2
						c-0.1,0-0.1,0-0.2,0c0.1,0,0.1,0.1,0.1,0.2c0,0.1-0.1,0.1-0.2,0c0.2,0.1-0.1,0.1,0.1,0.3c-0.1,0-0.1,0.2-0.2,0.3
						c0.2,0.1,0,0.1,0,0.2c0,0,0,0,0-0.1c-0.1-0.1,0,0.2-0.1,0.2c-0.1,0-0.1-0.1-0.1-0.1c0.1,0.1,0,0.3-0.2,0.2c0,0,0-0.1,0-0.1
						c-0.1,0.1-0.3,0.2-0.5,0.2c-0.1,0-0.2,0-0.3,0.1c-0.1,0-0.1,0.1-0.1,0.1l0-0.2c-0.1-0.2,0,0.3,0,0.3c0-0.1-0.3-0.2-0.3,0
						c0,0,0.1,0,0.1,0.1c0,0-0.2-0.1-0.1,0l0.1,0c-0.1,0-0.1,0-0.1,0c0,0,0,0-0.2,0c0.2,0-0.1,0.1,0.1,0.1c-0.1,0-0.2,0-0.2,0.1
						l0.2,0l0,0c0.2,0,0.1,0,0,0.1c-0.1,0.1-0.1,0.2,0,0.2l0,0c-0.1,0-0.1,0.1-0.1,0.1c0,0,0.1-0.1,0.1-0.1c0.2,0,0.2,0,0.3,0.1
						c-0.1,0,0,0.1-0.1,0.2c0.1,0,0.1-0.1,0.2-0.1c0.1,0.1,0,0.2,0.1,0.3c0.1-0.1,0.1,0,0.2-0.1c0.1,0.1,0.2,0.1,0.3,0.2l0,0
						c0.2-0.1,0,0.2,0.1,0.1c-0.1,0-0.1,0-0.1,0.1l0.1,0c-0.1,0-0.2,0.1-0.2,0.2c0.2,0,0.1-0.1,0.2-0.1L92-83.5c0,0,0.2-0.1,0.2-0.2
						c0.1,0.1,0.3,0.3,0.3,0.4l-0.1,0c0.1,0.1,0.1,0.2,0,0.3c0,0,0.1,0,0.1,0c0.2,0.1-0.2,0,0,0.2c-0.1,0-0.1-0.1-0.2-0.1
						c0,0,0.2,0.2,0.2,0.3c-0.1,0-0.3,0.1-0.2,0.3c0,0,0.1,0,0.1,0l0,0.1l-0.2,0l0.2,0.1l-0.2,0c0,0.1,0.2,0.2,0.2,0.2
						c-0.2,0.1-0.2,0.1-0.3,0.1c0,0-0.1,0-0.1,0c0.3,0.2-0.2,0.2,0,0.4c-0.4,0-0.4,0.2-0.6,0.2l0,0c-0.1-0.1,0.1,0.3,0,0.2l0,0
						c-0.2-0.1-0.2,0.1-0.1,0.2c0,0-0.1-0.1-0.1-0.1c0,0.1,0.2,0.1,0.1,0.1c0,0-0.1-0.1-0.1-0.1l0.1,0.1c-0.1,0-0.3,0-0.3,0.2
						c-0.1,0-0.1,0-0.2-0.1c0,0.1,0.1,0.2,0.1,0.3l-0.2,0c0,0,0.3,0.1,0.1,0.1c0,0,0,0-0.1-0.1c-0.2,0,0.2,0.1,0.2,0.1l-0.2,0
						c-0.1,0,0.1,0.1,0.2,0.1c0.3,0.1-0.4,0-0.2,0.1c0.1,0,0.2,0,0.3,0c0,0.1,0.1,0,0.1,0.1c-0.3,0.1,0,0-0.3,0.1l0.1-0.1
						c-0.2,0.1-0.1,0-0.2,0c-0.1,0,0.1,0.1,0.2,0.1c-0.1,0,0,0-0.2,0l0.1,0c0,0-0.1,0-0.1,0c-0.1,0,0,0,0,0.1c0.1,0,0.2,0,0.3-0.1
						l0,0c0.2,0,0.1,0.1,0.3,0.1c0,0-0.1,0-0.1,0C91.1-79.6,91.2-79.7,91.2-79.6c0,0-0.2,0-0.1,0.1c0.1-0.1,0.3-0.2,0.3-0.1
						C91.4-79.7,91.3-79.7,91.2-79.6z M90.9-80.6C90.9-80.6,90.9-80.6,90.9-80.6L90.9-80.6C90.9-80.6,90.9-80.6,90.9-80.6z
						 M90.8-80.7C90.8-80.7,90.9-80.7,90.8-80.7c0.1,0,0.1,0,0.1,0C90.9-80.7,90.9-80.7,90.8-80.7z M89.9-80.8L89.9-80.8
						C89.8-80.9,89.8-80.9,89.9-80.8C89.8-80.9,89.8-80.9,89.9-80.8C89.8-80.8,89.8-80.8,89.9-80.8z"/>
					<path fill="#202020" d="M90-80.7C90-80.7,90-80.7,90-80.7C90-80.7,90-80.7,90-80.7L90-80.7C90-80.8,90-80.7,90-80.7z"/>
					<path fill="#202020" d="M93.7-90L93.7-90C93.7-90,93.7-90,93.7-90L93.7-90z"/>
					<polygon fill="#202020" points="92.5,-82.1 92.5,-82.1 92.5,-82 					"/>
					<path fill="#202020" d="M94.5-89.2C94.5-89.2,94.6-89.2,94.5-89.2C94.6-89.2,94.5-89.2,94.5-89.2z"/>
					<path fill="#202020" d="M94.6-89.7L94.6-89.7C94.6-89.7,94.6-89.7,94.6-89.7z"/>
					<path fill="#202020" d="M94.7-90C94.7-90,94.7-90,94.7-90L94.7-90L94.7-90z"/>
					<path fill="#202020" d="M92.7-88.1L92.7-88.1C92.7-88.1,92.7-88.1,92.7-88.1z"/>
					<path fill="#202020" d="M92.6-89.1C92.6-89,92.6-89,92.6-89.1C92.7-89,92.7-89,92.6-89.1z"/>
					<polygon fill="#202020" points="93.3,-86.7 93.3,-86.7 93.3,-86.7 					"/>
					<path fill="#202020" d="M92.6-89C92.7-89,92.7-89,92.6-89C92.6-89,92.6-89,92.6-89z"/>
					<path fill="#202020" d="M95.1-90.3L95.1-90.3C95.1-90.3,95.1-90.3,95.1-90.3L95.1-90.3z"/>
					<path fill="#202020" d="M95.1-90.3L95.1-90.3C95.1-90.3,95.1-90.3,95.1-90.3z"/>
					<path fill="#202020" d="M95.1-90.4L95.1-90.4C95.1-90.3,95.1-90.3,95.1-90.4z"/>
					<path fill="#202020" d="M95-90.4L95-90.4C95-90.3,95-90.3,95-90.4z"/>
					<path fill="#202020" d="M94.9-90.3C95-90.3,95-90.2,94.9-90.3L94.9-90.3C95-90.2,94.9-90.4,94.9-90.3z"/>
					<path fill="#202020" d="M94.2-90.6L94.2-90.6c0-0.1,0-0.1,0-0.2C93.9-90.7,94.3-90.7,94.2-90.6z"/>
					<path fill="#202020" d="M94-90.4c0,0-0.1,0-0.1-0.1C93.9-90.4,94-90.4,94-90.4z"/>
					<path fill="#202020" d="M93-90l0-0.1C93-90.2,93-90.1,93-90z"/>
					<polygon fill="#202020" points="93,-89.2 93.1,-89.1 93,-89.3 					"/>
					<polygon fill="#202020" points="92.2,-89.9 92.2,-90 92.2,-89.9 					"/>
					<path fill="#202020" d="M91.7-86.8l0.2,0.1C91.9-86.8,91.7-86.9,91.7-86.8z"/>
					<path fill="#202020" d="M91-86.4c-0.1-0.1-0.1-0.1-0.1,0C90.9-86.4,91-86.4,91-86.4z"/>
					<polygon fill="#202020" points="91.1,-82.6 91.1,-82.6 91.1,-82.6 					"/>
				</g>
			</g>
			<polygon fill="none" points="122.1,-49 49,-49 49,-122.1 122.1,-122.1 			"/>
		</g>
		<g>
			<polygon fill="none" points="73.1,-49 0,-49 0,-122.1 73.1,-122.1 			"/>
		</g>
		<g>
			<polygon fill="none" points="171.1,-98 98,-98 98,-171.1 171.1,-171.1 			"/>
		</g>
		<g>
			<polygon fill="none" points="122.1,-98 49,-98 49,-171.1 122.1,-171.1 			"/>
		</g>
		<g>
			<polygon fill="none" points="73.1,-98 0,-98 0,-171.1 73.1,-171.1 			"/>
		</g>
	</g>
</pattern>
<pattern  id="SVGID_1_" xlink:href="#New_Pattern_Swatch_2" patternTransform="matrix(1.0042 0 0 1 -0.2586 0)">
</pattern>
<rect opacity="0.3" fill="url(#SVGID_1_)" stroke="url(#New_Pattern_Swatch_2)" stroke-miterlimit="10" width="143.8" height="144"/>
</svg>
