<?xml version="1.0" encoding="utf-8"?>
<!-- Generator: Adobe Illustrator 18.0.0, SVG Export Plug-In . SVG Version: 6.00 Build 0)  -->
<!DOCTYPE svg PUBLIC "-//W3C//DTD SVG 1.1//EN" "http://www.w3.org/Graphics/SVG/1.1/DTD/svg11.dtd">
<svg version="1.1" id="Layer_1" xmlns="http://www.w3.org/2000/svg" xmlns:xlink="http://www.w3.org/1999/xlink" x="0px" y="0px"
	 viewBox="0 0 144 144" enable-background="new 0 0 144 144" xml:space="preserve">
<pattern  width="20" height="20" patternUnits="userSpaceOnUse" id="New_Pattern_Swatch_5" viewBox="0 -20 20 20" overflow="visible">
	<g>
		<polygon fill="none" points="0,-20 20,-20 20,0 0,0 		"/>
		<g>
			<g>
				<path fill="#202020" d="M13.3-8.6C13.3-8.6,13.3-8.5,13.3-8.6L13.3-8.6L13.3-8.6z"/>
				<path fill="#202020" d="M13.6-8.3c0.1,0,0.1-0.1,0.1-0.1C13.6-8.4,13.6-8.4,13.6-8.3c-0.1,0-0.1-0.1-0.1-0.1c0,0-0.1,0-0.1,0
					C13.4-8.4,13.5-8.3,13.6-8.3C13.6-8.4,13.6-8.3,13.6-8.3z"/>
				<path fill="#202020" d="M12.2-12.2L12.2-12.2C12.2-12.2,12.2-12.2,12.2-12.2z"/>
				<path fill="#202020" d="M9.7-14.7C9.8-14.7,9.8-14.6,9.7-14.7C9.7-14.7,9.7-14.7,9.7-14.7z"/>
				<path fill="#202020" d="M9.3-15.1C9.3-15.1,9.3-15.1,9.3-15.1C9.3-15.1,9.3-15.1,9.3-15.1z"/>
				<path fill="#202020" d="M12.2-12.2L12.2-12.2C12.1-12.3,12.2-12.2,12.2-12.2z"/>
				<path fill="#202020" d="M14.2-8.7C14.2-8.7,14.2-8.7,14.2-8.7L14.2-8.7L14.2-8.7z"/>
				<polygon fill="#202020" points="13.3,-11.2 13.3,-11.1 13.4,-11.1 				"/>
				<path fill="#202020" d="M14.2-10.3C14.1-10.4,14.1-10.3,14.2-10.3C14.1-10.3,14.1-10.3,14.2-10.3C14.1-10.3,14.2-10.3,14.2-10.3
					z"/>
				<path fill="#202020" d="M14.5-8.7L14.5-8.7L14.5-8.7z"/>
				<path fill="#202020" d="M12.7-11.8C12.7-11.8,12.7-11.8,12.7-11.8C12.7-11.8,12.7-11.8,12.7-11.8z"/>
				<path fill="#202020" d="M6.4-12.4L6.4-12.4C6.4-12.4,6.4-12.4,6.4-12.4z"/>
				<polygon fill="#202020" points="7.1,-13.6 7.1,-13.6 7.1,-13.6 				"/>
				<path fill="#202020" d="M8.2-15.5L8.2-15.5C8.2-15.5,8.2-15.5,8.2-15.5z"/>
				<path fill="#202020" d="M12.9-8.7C12.8-8.8,13.1-8.6,12.9-8.7C13-8.7,12.8-8.8,12.9-8.7z"/>
				<path fill="#202020" d="M14.2-8.7L14.2-8.7C14.3-8.7,14.2-8.7,14.2-8.7z"/>
				<polygon fill="#202020" points="13,-8.7 13,-8.7 13,-8.7 				"/>
				<path fill="#202020" d="M7.1-13.3C7.1-13.3,7.1-13.3,7.1-13.3C7.1-13.3,7.1-13.3,7.1-13.3z"/>
				<path fill="#202020" d="M7.5-15.1L7.5-15.1C7.5-15.1,7.5-15.1,7.5-15.1z"/>
				<path fill="#202020" d="M7.9-12.7C7.9-12.7,7.9-12.7,7.9-12.7L7.9-12.7C8-12.7,7.9-12.7,7.9-12.7z"/>
				<polygon fill="#202020" points="8.8,-12.2 8.8,-12.2 8.7,-12.3 				"/>
				<path fill="#202020" d="M6-9.4C6-9.4,6-9.4,6-9.4C6-9.4,6-9.5,6-9.4z"/>
				<path fill="#202020" d="M14.2-8.7C14.2-8.7,14.2-8.7,14.2-8.7L14.2-8.7C14.2-8.7,14.2-8.7,14.2-8.7z"/>
				<path fill="#202020" d="M8.1-13l0.1,0.1C8.2-12.9,8.2-13,8.1-13z"/>
				<path fill="#202020" d="M7.8-5.7L7.8-5.7C7.8-5.7,7.8-5.7,7.8-5.7z"/>
				<path fill="#202020" d="M8.7-12.7C8.7-12.6,8.7-12.6,8.7-12.7C8.7-12.6,8.7-12.6,8.7-12.7L8.7-12.7z"/>
				<path fill="#202020" d="M6-9.4L6-9.4L6-9.4z"/>
				<path fill="#202020" d="M6-10.4c0-0.2,0,0,0.1-0.2c0-0.1,0-0.1,0-0.2c0.1,0,0,0,0.1-0.1c0,0,0-0.2-0.1-0.2c0.1,0,0,0.2,0.1,0.1
					c0-0.1,0-0.2-0.1-0.3c0-0.1,0.1-0.1,0.1-0.2c0,0,0,0,0,0c0-0.2,0.1-0.4,0.1-0.6c0.1,0.1,0.1-0.4,0.1-0.2c0-0.1,0-0.2,0-0.2
					c0.1,0,0.1-0.2,0.1-0.2c0-0.1,0-0.2,0.1-0.3c0,0,0,0.1,0,0.1c0-0.1,0-0.1,0.1-0.1c0-0.1-0.1,0,0-0.1c0.1-0.1,0,0,0.1,0l0-0.2
					c0,0,0,0,0.1,0c0-0.1,0-0.1,0.1-0.2l-0.1,0.1l0.1,0l0-0.2c0.2-0.2,0.2-0.1,0.2,0l0,0.1c0,0,0.1,0,0.1-0.1c0,0,0,0.2-0.1,0.3
					c-0.1,0.2-0.1,0-0.2,0.2l-0.1,0.2l0,0c0,0,0,0.1,0,0.1c0,0-0.1,0.2-0.1,0.3l0,0c0,0.3-0.2,0.4-0.2,0.6l0,0.2l0,0
					c0,0.1,0,0.1,0,0.3C6.3-11,6.3-10.5,6.2-9.9c0,0,0,0,0-0.1c-0.1,0.5,0.1,0.7,0,1.1l0,0c0,0.2,0,0,0,0.1c0.1,0,0,0.3,0.1,0.4
					c0,0,0-0.1,0-0.1c0,0,0,0,0,0.1c0.1,0.1,0.1,0.4,0.1,0.7c0,0-0.1,0.2-0.2,0.3c0,0,0,0.1,0,0.1c0,0.1,0,0.1,0,0.2
					c0-0.1,0-0.1,0-0.2l0,0c0,0,0,0,0,0c0,0,0-0.1,0-0.1c0.1-0.1,0,0,0.1,0c0,0.1,0,0.2-0.1,0.2c0,0,0,0.1,0,0.1c0,0,0,0.1,0,0.1
					l0,0l0,0c0,0.1,0,0.3,0,0.5c0-0.1-0.1,0-0.1,0c0,0,0-0.1,0.1-0.3c0,0,0,0,0,0C6-6.6,6-6.5,5.9-6.2c0,0,0,0,0,0
					c0,0.1,0,0.2,0,0.2c0,0-0.1,0.2-0.1,0.2c0,0.1,0,0.1,0,0.2l0-0.1c-0.1,0.1,0,0.1-0.1,0.3c0,0,0-0.1,0,0c0,0.1,0,0.2,0,0.2l0,0
					c0,0.1,0.1,0.1,0,0.2c0.1-0.1,0.1-0.1,0.1-0.1c0,0,0,0,0,0c0-0.1,0.3-0.2,0.6-0.3l0.1,0c0.1-0.1,0.1-0.2,0.3-0.2l0,0
					c0.2-0.1,0.3-0.1,0.5-0.2l0,0c0.1-0.1,0.1-0.1,0.2-0.1c0.2,0,0.6-0.3,0.9-0.3l0-0.1c0.1,0,0.2-0.1,0.3-0.1l0,0
					c0,0.1,0.1,0,0.2-0.1c0,0,0.1-0.1,0-0.1c0.3-0.1,0.7-0.4,0.9-0.4c0.3-0.2,0.4-0.4,0.7-0.6l0,0c0.1-0.1,0.3-0.2,0.4-0.1
					C10.9-7.8,11-7.9,11.3-8l0,0.1c0.1,0,0.2-0.1,0.2-0.1c0,0,0,0,0,0c0.1,0,0.1-0.1,0.2-0.1l0,0c0.2-0.1,0.6-0.2,0.9-0.2
					c-0.1,0,0,0,0,0c0.1-0.1,0.5-0.1,0.4-0.1l0,0c0,0,0.1,0,0.1,0c0,0,0,0,0,0c0,0,0,0,0,0l0,0l0,0c0,0,0,0-0.1,0c0,0,0.1,0,0,0
					c0,0,0,0,0.1,0c0,0-0.1-0.2-0.1-0.2c0,0,0,0-0.1-0.1c-0.1,0.1-0.1-0.1-0.1,0c-0.2-0.2-0.4-0.5-0.6-0.7c0-0.1-0.4-0.4-0.3-0.5
					c-0.1-0.1-0.2-0.2-0.4-0.2c0,0,0.1,0,0.1,0.1c-0.1,0-0.2-0.1-0.3-0.2c0.1,0,0.3,0.1,0.3,0.2c-0.1-0.1-0.3-0.2-0.4-0.2l0-0.1
					c-0.1,0-0.1-0.1-0.2-0.1l0,0c-0.2-0.2-0.2-0.1-0.4-0.2l0,0c-0.1-0.1-0.2-0.1-0.2-0.2l0.1,0.1c0,0-0.1-0.1-0.1-0.2
					c-0.1-0.1-0.1,0-0.1,0c0,0,0,0,0.1,0c-0.1-0.1-0.3-0.2-0.5-0.3c0,0,0,0,0,0c-0.1-0.1-0.3-0.2-0.4-0.3l0,0
					c-0.1-0.1-0.3-0.2-0.3-0.3c0-0.1,0.1,0.1,0.1,0c-0.1-0.2-0.2,0-0.3-0.2c0,0,0,0,0,0c-0.1-0.1-0.2-0.2-0.4-0.3
					c-0.1-0.2-0.5-0.3-0.6-0.4c0,0.1-0.1,0-0.1,0c0,0,0,0,0,0c-0.1,0-0.1,0-0.1,0c0-0.1-0.2-0.1-0.2-0.1c0,0-0.1,0-0.1-0.1
					c0.1,0.1,0.1,0,0.1,0c-0.2-0.1-0.2-0.1-0.4-0.2l-0.1-0.1c-0.1,0-0.2-0.1-0.2-0.1c0,0,0-0.1,0-0.1c-0.1-0.1-0.1-0.2-0.1-0.2
					l0,0.1c-0.1-0.3-0.1-0.5,0-0.7l0.1,0c0.1-0.1,0.1-0.3,0.2-0.3c0,0,0,0,0-0.1c0,0-0.1,0.1-0.1,0.2l0-0.2L7-14.3
					c0-0.1,0-0.1,0-0.1c0.1-0.2,0.1-0.2,0.2-0.3c0,0,0,0,0.1,0c0.1-0.1,0.2-0.2,0.3-0.3c0,0,0,0,0,0.1c0.1-0.1,0.1-0.1,0.1-0.2
					l-0.1,0c0.1,0,0.1-0.1,0.2-0.1c0.1-0.1,0.1-0.1,0-0.1c0,0,0.1,0,0.1,0c0.2-0.1,0.1-0.1,0.3-0.1c0,0,0,0,0,0c0.1,0,0.1,0,0.1,0
					c-0.2,0,0.1,0.1-0.2,0.1c0,0,0.2,0,0.2,0c0.1,0,0-0.1,0.1-0.1c0,0,0,0,0.1,0l0,0c0,0,0.1,0,0.2,0l-0.1,0c0.1,0,0.2,0.1,0.4,0.1
					c-0.1,0-0.1,0,0,0c0.2,0.1,0,0,0.1,0.1c0.2,0.1,0.1,0,0.3,0.1c0,0,0,0,0,0c0.1,0.1,0.2,0.2,0.4,0.3c-0.1-0.1-0.1-0.1,0,0
					c-0.1,0,0.1,0.1,0.1,0.2l0,0c0,0.1,0,0-0.1,0c0,0,0,0,0,0c-0.1-0.1-0.1,0,0,0.1c0.1,0.1,0.1,0,0.1,0c0.1,0.2,0.2,0.1,0.3,0.2
					c0,0,0.1,0.2,0.2,0.3c0.1,0-0.1-0.1,0-0.1c0.1,0.2,0.4,0.3,0.5,0.5l-0.1,0c0,0,0.1,0.1,0.2,0.1l-0.1-0.1c0.1,0,0.2,0.2,0.1,0.1
					c0.1,0.1,0.1,0.1,0.2,0.2c-0.1-0.1,0,0-0.1-0.1c0.1,0.1,0.1,0.1,0.2,0.2c0,0,0,0.1,0,0.1c0.1,0.1,0.2,0.2,0.3,0.3l0,0
					c0.2,0.2,0.3,0.4,0.5,0.5l0,0l0,0c0,0,0,0,0,0l0,0c0-0.1,0.2,0.1,0.2,0.1c0,0,0,0,0,0.1c0,0,0.1,0,0.1,0.1c0,0.1,0,0,0.1,0.1
					c0,0,0.1,0,0.1,0c0,0,0.1,0.1,0.1,0.2c0,0,0,0-0.1-0.1c0,0,0,0,0,0.1c0,0,0,0,0.1,0.1l-0.1,0c0,0,0.1,0,0.1,0.1c0,0-0.1,0-0.1,0
					c0.2,0.1,0.1,0,0.1-0.1c0.1,0.1,0.2,0.2,0.4,0.3l0,0c0.1,0,0.1,0.1,0.1,0.1l0.1,0.1c-0.1,0-0.1,0-0.1,0c0.1,0.1,0.2,0.2,0.3,0.2
					l0,0c0.1,0.1,0.3,0.4,0.3,0.4c0.1,0.1,0.3,0.3,0.3,0.2c0.1,0.1,0.1,0.2,0.2,0.2c0.1,0.1,0,0-0.1,0c0.1,0.1,0.2,0.1,0.2,0.2
					c0.1,0.1,0,0,0,0c0,0.1,0.2,0.2,0.2,0.3c0.1,0,0-0.1,0.1,0c0,0,0,0,0,0.1l0,0c0,0-0.1,0.2-0.1,0.1c0,0.2,0.1,0,0,0.2l0,0
					c-0.1,0-0.1,0.2-0.2,0.3c0.1,0,0,0,0-0.1l-0.1,0.1c0,0,0,0,0,0c-0.1,0,0,0.1-0.1,0.1c0-0.1,0-0.1,0-0.1l-0.1,0.1l0-0.1
					c-0.1,0.1-0.2,0.3-0.4,0.2l0.1,0c0,0-0.1,0-0.1,0c0,0,0,0.1,0,0l-0.1,0c0,0,0.2-0.1,0.3-0.2c0,0-0.1,0.1-0.1,0.1
					c0.1-0.1,0.1-0.1,0.2-0.2c0,0,0,0.1,0,0.1c0.1,0,0-0.1,0.1-0.1c0,0,0.1,0,0,0c0.1-0.1,0.1-0.1,0.2-0.2c0,0-0.1,0.1,0,0.1
					C14.6-9,14.7-9,14.7-9.2c0-0.2-0.1-0.4-0.2-0.5c0,0,0.1,0.1,0,0c0,0,0-0.1,0-0.1c-0.1,0-0.1-0.1-0.2-0.2c0,0,0-0.1,0-0.1
					c0,0-0.1-0.1,0.1,0c-0.2-0.1-0.2-0.2-0.4-0.3l0,0l-0.1-0.1l0,0c-0.1-0.1-0.1-0.1-0.1-0.2c0.1,0,0.1,0.1,0.1,0.1
					c0-0.1-0.2-0.1-0.3-0.2c0,0,0.1,0.1,0.1,0c-0.1-0.1-0.1-0.1-0.2-0.1l0,0c-0.1-0.2-0.1,0-0.2-0.1c0,0,0,0,0,0
					c0-0.1-0.1-0.2,0-0.1c0,0-0.1-0.1-0.2-0.1c0,0.1,0,0.1,0,0.1L13-11.2c0,0,0,0,0.1,0c-0.2-0.3-0.5-0.4-0.7-0.7c0,0,0,0-0.1,0
					C12.2-12,12-12.1,12-12.2l0,0c-0.2-0.2-0.4-0.3-0.5-0.4c0,0,0,0,0,0c-0.1-0.1-0.2-0.3-0.2-0.2l0,0c-0.2-0.2-0.4-0.4-0.6-0.6
					c0-0.1,0.1,0.1,0.1,0c-0.1-0.1-0.3-0.3-0.4-0.4c0,0,0,0,0,0c-0.1-0.2,0,0-0.1-0.1c0,0,0,0,0-0.1l-0.1,0c0,0,0,0,0,0
					c-0.1,0-0.2-0.2-0.3-0.2c0,0,0.1,0,0.1,0c-0.1-0.1-0.1-0.1-0.2-0.1l0,0c0-0.1-0.1-0.2-0.1-0.2c-0.1-0.1,0,0-0.1-0.1l0.1,0.1
					l-0.2-0.2l0.1,0c-0.1-0.1-0.2-0.1-0.3-0.2l0,0.1l-0.1-0.1c0-0.1-0.1-0.1,0-0.1c-0.2-0.2-0.4-0.2-0.6-0.2c0,0,0,0,0,0
					c-0.1,0-0.2,0-0.3,0c0,0,0,0,0,0c-0.2,0-0.1,0-0.3,0.1c0,0,0,0,0,0c0,0,0,0-0.1,0.1c0.1-0.1-0.2,0-0.1-0.1c0,0-0.2,0.2-0.1,0.2
					l0,0c0,0,0,0-0.1,0.1c0,0,0,0,0,0c-0.2,0.1-0.3,0.3-0.4,0.6c0,0,0-0.1,0-0.1c-0.1,0.2-0.2,0.4-0.1,0.6c-0.1,0,0-0.2-0.1-0.3
					c-0.1,0.3,0.1,0.5,0.3,0.7c0,0.2,0.3,0.2,0.4,0.3c0,0,0.1,0,0.2,0.1c0,0,0.1,0.1,0,0.1c0.1,0,0.4,0.2,0.3,0.2
					c0.1,0,0.2,0.1,0.3,0.1c0.1,0.1,0.3,0.1,0.4,0.2c0-0.1,0.1,0.1,0.2,0.1c0,0,0,0,0,0c0,0.1,0.2,0.1,0.2,0.2c0,0,0,0,0,0.1
					c0,0,0.2,0.1,0.3,0.2c0,0,0,0-0.1,0c0.4,0.2,0.7,0.6,1.1,0.8l-0.1,0c0.2,0.2,0.2,0.1,0.4,0.2c0.5,0.4,0.9,0.8,1.3,1.2
					c0,0,0,0,0,0c0,0,0,0.1,0.1,0.1l0,0c0.1,0.2,0.6,0.5,0.6,0.8c0.1,0.1,0.3,0.3,0.5,0.6c-0.1,0-0.2,0.1-0.3,0.2
					c-0.2,0,0.1-0.1-0.1,0c0,0-0.1,0-0.2,0.1c-0.1,0-0.2,0-0.2,0l0,0c-0.3,0.1-0.7,0-1,0.1l0,0c0,0-0.1,0-0.1,0c0,0,0,0,0.1,0
					c-0.3,0.1-0.3,0.2-0.5,0.3c0.1-0.1-0.1,0-0.1,0c0,0.1,0,0-0.1,0.1c-0.2,0.1-0.3,0.2-0.5,0.3c0,0.1-0.1,0.1-0.1,0.1
					C10.3-7,10.2-6.9,10-6.8l0,0c0,0.1-0.2,0.1-0.3,0.2c0,0,0,0,0,0L9.6-6.6c0,0,0-0.1,0-0.1c-0.1,0.1,0,0,0,0.1l-0.1,0
					c-0.1,0-0.1,0.1,0,0.1C9.3-6.4,9.1-6.2,8.8-6.1l0,0C8.7-6.1,8.6-6,8.5-6c0,0,0,0,0,0c-0.1,0.1,0,0-0.2,0.1c0,0,0.1-0.1,0.1-0.1
					L8.1-5.8c0,0-0.2,0-0.4,0.1c0,0,0,0,0.1,0l-0.1,0l-0.1,0L7.5-5.6l0,0c-0.1,0-0.1,0.1-0.2,0.1C7-5.4,7.1-5.4,6.9-5.4
					c0,0.1-0.3,0.1-0.3,0.2C6.4-5.1,6.2-5.1,6.1-5C5.8-4.9,5.6-4.8,5.4-4.7l0,0c-0.1,0-0.2,0.1-0.2,0.1c0,0,0-0.1,0-0.2l0,0.1
					c0.1-0.2,0.1-0.4,0.2-0.6c0-0.1,0.1-0.3,0.1-0.4c0,0,0,0,0,0c0-0.1-0.1,0,0-0.1c0,0,0,0,0,0l0-0.1c0.1-0.3,0.2-0.6,0.3-0.9
					c0-0.1,0,0,0,0c0-0.2,0.1-0.5,0.1-0.7l0,0c0-0.1-0.1-0.1,0-0.2c0,0,0,0.1,0,0.1c0-0.2,0-0.1,0-0.3L6-8C6-8.2,6-8.2,6-8.2
					C5.9-8.5,6.1-8.4,6-8.7c0,0,0,0-0.1,0c0-0.2,0-0.2,0-0.5c0.1-0.1,0,0.1,0.1,0l0,0.2c0-0.1,0,0.1,0.1,0.1c0-0.1,0-0.3,0-0.4
					c0,0,0,0.2,0.1,0.1l0-0.1c0,0,0,0,0,0.1c0,0,0-0.1,0-0.2c0,0,0,0-0.1,0c0,0,0,0,0,0C6-9.6,6-9.8,6-9.9c0,0,0,0,0,0
					c0-0.1,0-0.2,0-0.3C6-10.3,6-10.2,6-10.4C6-10.4,5.9-10.3,6-10.4C6-10.5,6-10.3,6-10.4z M5.9-7C5.9-7,5.9-7,5.9-7L5.9-7
					C5.9-7,5.9-7,5.9-7z M5.9-6.7C5.9-6.8,5.9-6.8,5.9-6.7C5.8-6.7,5.8-6.7,5.9-6.7C5.8-6.7,5.8-6.7,5.9-6.7z M6.2-7.2L6.2-7.2
					C6.2-7.2,6.2-7.2,6.2-7.2C6.2-7.1,6.2-7.2,6.2-7.2C6.2-7.2,6.2-7.2,6.2-7.2z"/>
				<polygon fill="#202020" points="6.2,-7.3 6.2,-7.3 6.2,-7.3 6.2,-7.3 				"/>
				<polygon fill="#202020" points="12.2,-12.2 12.2,-12.2 12.2,-12.2 				"/>
				<polygon fill="#202020" points="7.5,-5.5 7.5,-5.6 7.5,-5.5 				"/>
				<path fill="#202020" d="M13.3-10.9C13.3-10.9,13.3-10.9,13.3-10.9C13.3-10.9,13.3-10.9,13.3-10.9z"/>
				<path fill="#202020" d="M13.8-10.4L13.8-10.4C13.8-10.4,13.8-10.4,13.8-10.4z"/>
				<path fill="#202020" d="M14.2-10C14.2-10,14.2-10,14.2-10L14.2-10L14.2-10z"/>
				<path fill="#202020" d="M7.7-14.9L7.7-14.9C7.7-14.9,7.7-14.9,7.7-14.9z"/>
				<path fill="#202020" d="M9.8-14.3C9.8-14.4,9.8-14.4,9.8-14.3C9.8-14.4,9.8-14.3,9.8-14.3z"/>
				<polygon fill="#202020" points="8.1,-13 8.1,-13 8.1,-13 				"/>
				<path fill="#202020" d="M9.7-14.5C9.7-14.4,9.7-14.4,9.7-14.5C9.7-14.4,9.7-14.4,9.7-14.5z"/>
				<polygon fill="#202020" points="13.8,-8.5 13.8,-8.5 13.8,-8.5 				"/>
				<path fill="#202020" d="M13.8-8.5L13.8-8.5C13.8-8.5,13.8-8.5,13.8-8.5z"/>
				<path fill="#202020" d="M13.7-8.4L13.7-8.4C13.8-8.4,13.8-8.4,13.7-8.4z"/>
				<path fill="#202020" d="M14.4-8.8L14.4-8.8C14.4-8.8,14.4-8.8,14.4-8.8z"/>
				<path fill="#202020" d="M14.5-9c0,0-0.1,0.1-0.2,0.1l0,0C14.4-8.9,14.5-8.9,14.5-9z"/>
				<path fill="#202020" d="M14.7-9.8c0,0,0.1,0.2,0.1,0.2c0,0,0-0.1,0,0C14.7-9.9,14.8-9.6,14.7-9.8z"/>
				<path fill="#202020" d="M14.3-10.2C14.3-10.1,14.3-10.2,14.3-10.2C14.2-10.3,14.2-10.3,14.3-10.2z"/>
				<path fill="#202020" d="M11.3-13.1L11.3-13.1C11.3-13.2,11.3-13.1,11.3-13.1z"/>
				<polygon fill="#202020" points="10.6,-13.5 10.6,-13.4 10.7,-13.4 				"/>
				<polygon fill="#202020" points="10.5,-14 10.5,-14 10.4,-14.1 				"/>
				<path fill="#202020" d="M8.6-12.3L8.6-12.3C8.6-12.4,8.5-12.3,8.6-12.3z"/>
				<path fill="#202020" d="M11-10.5c0,0,0.1,0.1,0.1,0.1C11.1-10.4,11-10.5,11-10.5z"/>
				<polygon fill="#202020" points="8.1,-6.2 8.2,-6.2 8.1,-6.2 				"/>
			</g>
			<g>
				<path fill="#202020" d="M6.2-11.1C6.2-11.1,6.2-11,6.2-11.1L6.2-11.1L6.2-11.1z"/>
				<path fill="#202020" d="M6.2-11C6.2-11,6.2-11.1,6.2-11C6.2-11.1,6.2-11.1,6.2-11C6.2-11,6.2-11,6.2-11C6.2-11,6.2-11.1,6.2-11
					C6.2-11,6.2-11,6.2-11C6.2-11,6.2-11,6.2-11z"/>
				<path fill="#202020" d="M6.6-10.9L6.6-10.9L6.6-10.9z"/>
				<path fill="#202020" d="M6.9-11L6.9-11L6.9-11z"/>
				<path fill="#202020" d="M6.9-10.9L6.9-10.9L6.9-10.9z"/>
				<path fill="#202020" d="M6.6-10.9L6.6-10.9C6.6-10.9,6.6-10.9,6.6-10.9z"/>
				<path fill="#202020" d="M6.2-11.1C6.2-11.1,6.2-11.1,6.2-11.1L6.2-11.1L6.2-11.1z"/>
				<polygon fill="#202020" points="6.5,-10.8 6.5,-10.8 6.5,-10.8 				"/>
				<path fill="#202020" d="M6.4-10.8C6.4-10.8,6.4-10.9,6.4-10.8C6.4-10.9,6.4-10.9,6.4-10.8C6.4-10.9,6.4-10.8,6.4-10.8z"/>
				<path fill="#202020" d="M6.2-10.9L6.2-10.9L6.2-10.9z"/>
				<path fill="#202020" d="M6.5-10.8C6.5-10.8,6.5-10.8,6.5-10.8C6.5-10.8,6.5-10.8,6.5-10.8z"/>
				<path fill="#202020" d="M6.6-12.7L6.6-12.7L6.6-12.7z"/>
				<polygon fill="#202020" points="6.7,-12.9 6.7,-12.9 6.7,-12.9 				"/>
				<path fill="#202020" d="M7-11L7-11C7-11,7-11,7-11z"/>
				<path fill="#202020" d="M7.5-11.7C7.4-11.7,7.4-11.7,7.5-11.7C7.4-11.7,7.4-11.7,7.5-11.7z"/>
				<path fill="#202020" d="M6.2-11.1L6.2-11.1L6.2-11.1z"/>
				<polygon fill="#202020" points="7.4,-11.7 7.4,-11.7 7.4,-11.7 				"/>
				<path fill="#202020" d="M7.2-11.1L7.2-11.1C7.2-11.2,7.2-11.1,7.2-11.1z"/>
				<path fill="#202020" d="M7-11.1L7-11.1L7-11.1z"/>
				<path fill="#202020" d="M7.2-11.2C7.2-11.2,7.2-11.2,7.2-11.2L7.2-11.2C7.2-11.2,7.2-11.2,7.2-11.2z"/>
				<polygon fill="#202020" points="7.2,-11.3 7.2,-11.3 7.2,-11.3 				"/>
				<path fill="#202020" d="M6.8-12.5L6.8-12.5C6.8-12.5,6.8-12.5,6.8-12.5z"/>
				<path fill="#202020" d="M6.2-11.1C6.2-11.1,6.2-11.1,6.2-11.1L6.2-11.1C6.2-11.1,6.2-11.1,6.2-11.1z"/>
				<path fill="#202020" d="M6.9-11.4L6.9-11.4L6.9-11.4z"/>
				<path fill="#202020" d="M7.1-12.2L7.1-12.2L7.1-12.2z"/>
				<path fill="#202020" d="M6.9-11.5C7-11.5,7-11.5,6.9-11.5L6.9-11.5L6.9-11.5z"/>
				<path fill="#202020" d="M6.8-12.6L6.8-12.6L6.8-12.6z"/>
				<path fill="#202020" d="M6.7-12.6C6.7-12.6,6.7-12.6,6.7-12.6C6.7-12.6,6.8-12.6,6.7-12.6C6.7-12.6,6.7-12.6,6.7-12.6
					C6.7-12.6,6.7-12.6,6.7-12.6C6.7-12.6,6.7-12.6,6.7-12.6C6.7-12.6,6.7-12.6,6.7-12.6C6.7-12.6,6.7-12.6,6.7-12.6
					C6.7-12.6,6.7-12.6,6.7-12.6c-0.1-0.1-0.1-0.1-0.1,0c0.1-0.1,0,0,0-0.1c0,0,0,0,0,0c0,0,0,0,0-0.1c0,0,0,0,0,0c0,0,0,0,0,0
					c0,0,0,0,0,0c0,0,0,0-0.1,0.1c0,0,0,0,0-0.1l0,0c0,0,0,0,0,0c0,0,0,0,0,0l0,0l0,0l0,0c0,0,0.1-0.1,0.1-0.2l0,0c0,0,0,0,0,0
					c0,0,0.1-0.1,0.1-0.1c0,0,0,0.1,0,0.1l0,0l0,0c0,0,0,0,0,0c0,0,0,0,0,0l0,0c0.1,0,0,0.1,0,0.1l0,0l0,0c0,0,0,0,0,0
					c0,0.1,0.1,0,0.1,0.1c0,0,0,0,0,0c0,0.1,0.1,0,0.1,0l0,0c0,0,0,0,0,0c0,0,0,0,0.1,0c0,0,0,0,0,0c0,0,0,0,0,0c0.1,0,0.1,0,0.1,0
					c0,0,0,0.1-0.1,0.1c0,0,0,0,0.1,0c0,0,0,0,0,0c0,0,0,0,0,0l0,0l0,0l0,0c0,0,0,0,0,0c0,0,0,0,0,0c0,0,0,0,0,0c0,0,0,0,0,0l0,0
					c0,0,0,0,0,0c0,0,0.1,0,0.1,0c0,0,0,0-0.1,0.1c0,0,0,0,0,0c0,0,0,0,0,0c0,0,0,0,0,0c0,0,0,0,0,0c0,0,0,0,0,0c0,0,0,0.1,0,0
					c0,0,0,0,0,0l0,0c0,0,0,0,0,0c0,0,0,0,0,0c0,0,0,0,0.1,0l0,0c0,0,0.1,0,0,0c0.1-0.1,0.1,0,0.1,0c0,0,0,0,0,0c0.1,0,0,0,0,0.1
					l-0.1,0c0,0,0.1-0.1,0.1,0l0,0c0,0,0,0,0,0l0,0c0,0,0,0,0,0c-0.1,0.1,0.1,0,0,0.1l0.1,0c0,0,0,0,0,0l0,0c-0.1,0,0,0,0,0
					c0,0,0,0,0.1,0c0,0,0,0.1,0,0.1c0,0,0.1,0,0.1,0.1l0,0c0,0,0,0-0.1,0c0,0,0.1,0,0.1,0.1l0,0c0,0,0,0,0,0c0,0,0,0,0,0
					c0,0,0,0,0,0l0,0c0,0,0,0.1,0,0.1c0,0,0,0,0,0c0.1,0,0,0.1,0.1,0.1l0,0c0,0-0.1,0,0,0l0,0c0,0,0,0,0,0c0,0-0.1,0-0.1,0
					c0,0,0,0,0,0l-0.1,0c0,0,0,0,0,0c0.1,0,0,0,0.1,0c0,0-0.1,0,0,0.1c-0.1,0,0,0-0.1,0c0,0,0,0,0,0.1c0,0,0,0,0,0c0,0,0,0,0,0
					c0,0,0,0-0.1-0.1c0,0,0,0,0,0.1l-0.1,0c0,0,0,0,0,0l0,0c0,0,0,0,0,0.1l0,0c0,0,0,0,0,0l0,0c0,0-0.1,0-0.1,0c0,0,0.1,0,0.1,0
					c0,0,0,0,0,0c0,0,0,0,0.1,0.1c0,0,0,0,0,0c0,0,0,0.1,0,0l0,0c-0.1,0,0,0.1-0.1,0c0,0,0,0,0,0c0,0,0.1,0,0,0c0,0,0,0,0,0
					c0,0,0,0,0,0c-0.1,0,0,0-0.1,0c0,0,0,0,0,0c0,0,0,0,0,0c0,0,0,0,0,0c0,0,0,0,0,0c0,0,0,0,0,0c0,0,0,0-0.1-0.1c0,0,0.1,0.1,0,0.1
					l0,0c0,0,0,0,0,0c0,0,0,0,0,0c0,0,0,0,0,0l0,0c0,0,0,0.1,0,0.1l-0.1-0.1c0,0,0,0,0,0c0,0,0,0,0,0c0,0,0,0,0,0l0,0l0,0
					c0,0,0,0,0,0c0,0,0,0,0,0c0,0,0,0,0,0c0,0-0.1,0,0,0c0,0,0,0,0,0c0,0,0,0,0,0l0,0c0,0,0,0,0,0c0,0,0,0.1,0,0c0,0,0,0,0,0
					c0,0,0.1,0.1,0,0.1c0,0,0,0,0,0c0,0,0,0,0,0c0,0,0-0.1,0,0c0,0,0,0,0,0C7-11,7-11,7-11c0,0,0,0,0,0l0,0c0,0,0,0,0,0l0,0
					c0,0-0.1,0,0,0c0,0,0,0,0-0.1c0,0,0,0,0,0c0,0,0,0.1,0,0c0,0,0,0,0,0c0,0,0,0,0,0c0,0,0,0,0,0c0,0,0,0,0,0l0,0c0,0,0,0,0,0
					c0,0,0,0,0,0c0,0,0-0.1,0-0.1c0,0,0,0.1,0,0.1c0,0,0,0.1,0,0.1c0,0,0-0.1-0.1-0.1c0,0,0,0,0,0.1c-0.1-0.1,0,0.1-0.1,0l0,0
					c0,0,0,0,0,0l0,0c0,0,0,0,0,0c0,0,0,0,0,0c0,0,0,0,0,0c0,0,0,0,0,0c0,0,0,0,0,0c0,0,0,0,0,0l0,0c0,0,0,0-0.1,0l0,0l0,0l0,0l0,0
					c0,0,0,0,0,0.1c0,0,0,0,0,0c0,0,0,0,0,0c0,0,0-0.1,0,0c0,0,0,0,0,0c0,0,0,0,0,0c0,0,0,0,0,0c0,0,0,0,0,0c0,0,0,0,0,0l0,0
					c0,0,0,0,0,0c0,0,0,0,0-0.1c0,0,0,0.1,0,0.1c0,0,0,0,0,0l0,0c0,0,0,0,0,0l0,0c0,0,0,0,0-0.1c0,0,0,0,0,0.1l0,0c0,0,0,0,0,0
					c0,0,0,0,0,0c0,0,0-0.1,0,0c0,0,0,0,0-0.1c0,0,0,0.1,0,0c0,0,0,0,0,0c0-0.1,0,0,0-0.1c0,0,0,0,0,0c0,0,0,0,0,0l0,0l0-0.1
					c0,0,0,0.1,0,0.1l0,0c0,0,0,0,0,0c0,0,0,0,0,0l0,0c0,0,0,0,0,0c0,0,0,0,0,0c0,0,0,0,0-0.1l0,0l0-0.1c0,0-0.1,0.1,0,0l0,0
					c0,0,0-0.1,0,0c0,0,0,0,0,0l0,0c0,0,0,0,0-0.1c0,0,0,0,0,0c0,0,0,0,0,0c0,0,0,0,0,0.1c0,0,0,0,0,0c0,0,0,0,0,0c0,0,0,0,0,0
					c0,0,0,0,0,0c0,0,0-0.1,0.1-0.1c0-0.1,0,0,0,0c0,0,0,0,0,0c0,0,0,0,0,0c0-0.1,0,0,0,0c0,0,0,0,0,0c0,0,0,0,0,0.1
					c0-0.1,0,0,0-0.1l0,0l0,0l0,0c0,0,0,0,0,0c0,0,0,0,0,0c0,0,0,0,0,0c0,0,0,0,0,0c0,0,0,0,0,0l0,0c0,0,0-0.1,0,0l0,0
					c0,0,0,0,0,0.1c0,0,0,0,0,0c0,0,0,0,0,0l0,0l0,0c0,0.1,0-0.1,0.1,0c0,0,0,0,0,0c0,0,0,0,0,0l0,0c0,0,0-0.1,0-0.1c0,0,0,0,0,0
					c0,0,0,0.1,0,0l0,0c0,0,0-0.1,0-0.1c0,0,0,0,0,0.1c0,0,0,0,0,0c0,0,0,0,0,0c0,0,0,0,0,0c0,0,0,0,0,0l0,0c0,0,0,0,0,0
					c0,0,0,0,0-0.1c0,0,0,0,0,0.1c0,0,0,0,0,0l0,0c0,0,0,0,0,0c0,0,0,0,0-0.1l0,0l0,0l0,0c0,0,0,0,0,0l0,0l0,0c0,0,0,0,0,0.1
					c0,0,0-0.1,0-0.1c0,0,0,0,0,0c0,0,0,0,0,0c0,0,0,0,0,0c0,0,0,0,0,0c0,0,0,0,0,0c0,0,0,0,0,0c0.1,0.1,0,0,0.1,0.1
					c0,0,0-0.1-0.1-0.1l0,0c0,0,0,0,0,0l0,0c0,0,0,0,0-0.1c0,0,0,0,0,0c0,0,0,0,0-0.1c0.1,0,0,0,0,0.1c0,0,0-0.1,0-0.1
					c0.1,0.1,0,0,0,0c0,0,0,0,0,0c0,0,0,0,0,0c0,0,0,0,0,0c-0.1,0,0,0,0,0c0,0,0,0,0,0c0,0,0,0,0,0c0,0,0,0,0,0c0,0,0,0,0,0
					c0,0,0,0,0,0c0,0,0,0,0,0c0,0,0,0,0,0c0,0,0,0,0-0.1l0,0c0.1,0-0.1,0-0.1-0.1c0,0,0.1,0,0.1-0.1c0,0,0,0,0,0c0,0,0,0,0,0l0,0
					c0.1,0,0-0.1,0.1,0c0,0,0,0,0,0c0,0,0,0,0.1,0l0,0l0,0c-0.1,0,0.1,0,0-0.1l0,0c0,0,0,0,0,0c0,0,0,0,0,0c0,0,0,0,0,0
					c0,0,0,0,0.1,0c0,0,0,0-0.1,0c0,0,0,0,0,0c0,0,0,0-0.1,0c0,0,0,0,0,0l0,0c-0.1,0,0,0,0,0c0,0,0,0,0,0l0,0c0,0,0.1,0,0.1,0
					c0,0,0,0-0.1,0l0,0c0,0-0.1,0-0.1,0c0,0,0,0,0,0l0,0c0,0,0,0,0,0c0,0,0,0,0,0c0,0,0,0,0,0c0,0,0,0,0,0l0,0c0,0,0.1,0,0,0
					c0,0,0,0,0,0l0,0l0,0l0,0l0,0c0,0-0.1,0-0.1,0c0,0,0,0,0.1-0.1c-0.1,0,0,0-0.1,0c0,0,0-0.1,0-0.1l0,0c0,0-0.1,0-0.1,0l0,0
					c0,0,0,0-0.1,0c0,0,0,0,0,0c0,0,0,0,0,0c0,0,0,0,0,0l0,0c0,0,0-0.1,0-0.1c0,0,0,0,0,0c0,0-0.1,0-0.1,0l0,0c0,0-0.1,0,0,0
					c0,0,0,0,0,0c0,0,0,0,0,0l0,0c0,0,0,0-0.1,0c-0.1,0,0.1-0.1,0-0.1C6.9-12.5,6.8-12.5,6.7-12.6C6.8-12.5,6.8-12.5,6.7-12.6
					c0.1,0,0.1,0.1,0.1,0L6.7-12.6c0.1,0,0.1,0,0.1,0C6.9-12.6,6.9-12.6,6.7-12.6c0.1,0,0.1,0,0.1,0l0,0c0,0,0,0,0,0c0,0,0,0,0,0
					C6.9-12.6,6.8-12.6,6.7-12.6L6.7-12.6C6.8-12.5,6.8-12.6,6.7-12.6C6.8-12.6,6.8-12.6,6.7-12.6C6.8-12.6,6.7-12.5,6.7-12.6
					C6.7-12.6,6.8-12.6,6.7-12.6C6.7-12.6,6.7-12.5,6.7-12.6C6.7-12.5,6.7-12.6,6.7-12.6z M7-12.5L7-12.5L7-12.5L7-12.5z M7-12.5
					C7-12.5,7-12.5,7-12.5L7-12.5C7-12.5,7-12.5,7-12.5z M7.1-12.7L7.1-12.7L7.1-12.7C7.2-12.7,7.2-12.7,7.1-12.7L7.1-12.7z"/>
				<polygon fill="#202020" points="7.1,-12.6 7.1,-12.6 7.1,-12.6 7.1,-12.6 				"/>
				<polygon fill="#202020" points="6.6,-10.9 6.6,-10.9 6.6,-10.9 				"/>
				<polygon fill="#202020" points="7.1,-12.2 7.1,-12.2 7.1,-12.2 				"/>
				<path fill="#202020" d="M6.4-11L6.4-11L6.4-11z"/>
				<path fill="#202020" d="M6.4-11L6.4-11C6.4-11,6.4-11,6.4-11z"/>
				<path fill="#202020" d="M6.4-11.1C6.4-11,6.4-11,6.4-11.1L6.4-11.1L6.4-11.1z"/>
				<path fill="#202020" d="M6.9-11.3L6.9-11.3C6.8-11.3,6.8-11.3,6.9-11.3z"/>
				<path fill="#202020" d="M6.8-11.1C6.8-11.1,6.8-11.1,6.8-11.1C6.8-11.1,6.8-11.1,6.8-11.1z"/>
				<polygon fill="#202020" points="6.9,-11.4 6.9,-11.4 6.9,-11.4 				"/>
				<path fill="#202020" d="M6.8-11.1C6.8-11.1,6.8-11.1,6.8-11.1C6.8-11.1,6.8-11.1,6.8-11.1z"/>
				<polygon fill="#202020" points="6.2,-11.1 6.2,-11.1 6.2,-11.1 				"/>
				<path fill="#202020" d="M6.2-11.1L6.2-11.1L6.2-11.1z"/>
				<path fill="#202020" d="M6.2-11.1L6.2-11.1C6.2-11.1,6.2-11.1,6.2-11.1z"/>
				<path fill="#202020" d="M6.3-11.1L6.3-11.1C6.3-11.1,6.3-11.1,6.3-11.1z"/>
				<path fill="#202020" d="M6.3-11.1C6.3-11.1,6.3-11.1,6.3-11.1L6.3-11.1C6.3-11.1,6.3-11,6.3-11.1z"/>
				<path fill="#202020" d="M6.3-10.9L6.3-10.9C6.3-10.9,6.3-10.9,6.3-10.9C6.3-10.8,6.3-10.9,6.3-10.9z"/>
				<path fill="#202020" d="M6.4-10.9C6.3-10.8,6.4-10.8,6.4-10.9C6.4-10.8,6.4-10.8,6.4-10.9z"/>
				<path fill="#202020" d="M6.7-10.9L6.7-10.9C6.7-10.9,6.7-10.9,6.7-10.9z"/>
				<polygon fill="#202020" points="6.7,-11.1 6.7,-11.1 6.7,-11.1 				"/>
				<polygon fill="#202020" points="6.8,-10.9 6.8,-10.9 6.8,-10.9 				"/>
				<path fill="#202020" d="M7.2-11.3L7.2-11.3C7.2-11.3,7.3-11.3,7.2-11.3z"/>
				<path fill="#202020" d="M7.3-11.5C7.3-11.5,7.4-11.5,7.3-11.5C7.3-11.5,7.3-11.5,7.3-11.5z"/>
				<polygon fill="#202020" points="7.4,-12.3 7.4,-12.3 7.4,-12.3 				"/>
			</g>
			<g>
				<path fill="#202020" d="M7.5-9.7C7.5-9.7,7.5-9.7,7.5-9.7L7.5-9.7L7.5-9.7z"/>
				<path fill="#202020" d="M7.5-9.6C7.5-9.7,7.5-9.7,7.5-9.6C7.5-9.7,7.5-9.7,7.5-9.6C7.5-9.7,7.5-9.7,7.5-9.6
					C7.5-9.7,7.5-9.7,7.5-9.6C7.5-9.7,7.5-9.7,7.5-9.6C7.5-9.7,7.5-9.7,7.5-9.6z"/>
				<path fill="#202020" d="M7.8-9.4L7.8-9.4L7.8-9.4z"/>
				<path fill="#202020" d="M8.1-9.2L8.1-9.2L8.1-9.2z"/>
				<path fill="#202020" d="M8.1-9.2L8.1-9.2L8.1-9.2z"/>
				<path fill="#202020" d="M7.8-9.4L7.8-9.4C7.8-9.4,7.8-9.4,7.8-9.4z"/>
				<polygon fill="#202020" points="7.6,-9.7 7.6,-9.7 7.6,-9.7 				"/>
				<polygon fill="#202020" points="7.7,-9.4 7.7,-9.4 7.7,-9.4 				"/>
				<path fill="#202020" d="M7.6-9.4C7.6-9.4,7.7-9.5,7.6-9.4C7.7-9.5,7.6-9.5,7.6-9.4C7.6-9.5,7.6-9.5,7.6-9.4z"/>
				<path fill="#202020" d="M7.6-9.6L7.6-9.6L7.6-9.6z"/>
				<path fill="#202020" d="M7.7-9.4C7.7-9.4,7.7-9.4,7.7-9.4C7.7-9.4,7.7-9.4,7.7-9.4z"/>
				<path fill="#202020" d="M7.8-9.6L7.8-9.6L7.8-9.6z"/>
				<polygon fill="#202020" points="7.7,-9.4 7.7,-9.4 7.7,-9.4 				"/>
				<path fill="#202020" d="M8.3-9.2L8.3-9.2C8.3-9.1,8.3-9.2,8.3-9.2z"/>
				<path fill="#202020" d="M8.4-10.1C8.4-10,8.4-10.1,8.4-10.1C8.4-10,8.4-10,8.4-10.1z"/>
				<path fill="#202020" d="M7.6-9.7L7.6-9.7L7.6-9.7z"/>
				<polygon fill="#202020" points="8.4,-10 8.4,-10 8.4,-10 				"/>
				<path fill="#202020" d="M8.5-9.4L8.5-9.4C8.5-9.4,8.5-9.4,8.5-9.4z"/>
				<path fill="#202020" d="M8.3-9.3L8.3-9.3L8.3-9.3z"/>
				<path fill="#202020" d="M8.5-9.5C8.5-9.5,8.5-9.5,8.5-9.5L8.5-9.5C8.5-9.5,8.5-9.5,8.5-9.5z"/>
				<polygon fill="#202020" points="8.5,-9.6 8.5,-9.6 8.5,-9.6 				"/>
				<path fill="#202020" d="M7.7-9.7L7.7-9.7C7.7-9.7,7.7-9.7,7.7-9.7z"/>
				<path fill="#202020" d="M7.6-9.7C7.6-9.7,7.6-9.7,7.6-9.7L7.6-9.7C7.6-9.7,7.6-9.7,7.6-9.7z"/>
				<path fill="#202020" d="M8.2-9.6L8.2-9.6L8.2-9.6z"/>
				<path fill="#202020" d="M7.9-9.9L7.9-9.9L7.9-9.9z"/>
				<path fill="#202020" d="M8.2-9.6C8.2-9.6,8.2-9.6,8.2-9.6L8.2-9.6L8.2-9.6z"/>
				<path fill="#202020" d="M7.7-9.7L7.7-9.7L7.7-9.7z"/>
				<path fill="#202020" d="M7.8-9.7C7.8-9.7,7.8-9.7,7.8-9.7C7.8-9.7,7.7-9.6,7.8-9.7C7.7-9.6,7.8-9.6,7.8-9.7
					C7.8-9.6,7.8-9.6,7.8-9.7C7.8-9.6,7.7-9.6,7.8-9.7C7.7-9.6,7.7-9.6,7.8-9.7C7.8-9.6,7.8-9.6,7.8-9.7C7.8-9.6,7.8-9.6,7.8-9.7
					C7.8-9.6,7.8-9.6,7.8-9.7C7.8-9.6,7.8-9.6,7.8-9.7C7.8-9.6,7.8-9.6,7.8-9.7c0,0.1,0,0.1,0,0.1C7.8-9.6,7.8-9.6,7.8-9.7
					c0,0.1,0,0.1,0,0.1c0,0,0,0,0,0C7.8-9.5,7.8-9.6,7.8-9.7c0,0.1,0,0.1,0,0.1L7.8-9.7c0.1,0.1,0,0.1,0,0.1
					C7.8-9.6,7.8-9.6,7.8-9.7L7.8-9.7l0,0.1L7.8-9.7c0,0.1,0,0.2,0,0.3l0,0c0,0,0,0,0,0c0,0,0,0.1-0.1,0.1c0,0,0-0.1,0-0.1l0,0l0,0
					c0,0,0,0,0,0c0,0,0,0,0,0l0,0c-0.1,0,0-0.1,0-0.1l0,0l0,0c0,0-0.1,0,0,0c0-0.1-0.1-0.1,0-0.1c0,0,0,0,0,0c0.1-0.1-0.1-0.1,0-0.1
					l0,0c0,0,0,0,0,0c-0.1,0,0,0-0.1,0c0,0,0,0,0,0c0,0,0,0,0,0c-0.1,0-0.1,0-0.1-0.1c0,0,0.1,0,0.1,0c0,0,0,0-0.1,0c0,0,0,0,0,0
					l0,0l0,0l0,0l0,0c0,0,0,0-0.1,0c0,0,0,0,0,0c0,0,0,0,0,0c0,0,0,0,0,0l0,0c0,0,0,0,0,0c0,0,0,0,0-0.1c0,0,0.1,0,0.1,0
					c0,0,0,0,0,0c0,0,0,0,0,0c0,0,0,0,0,0c0,0,0,0,0,0c0,0,0,0,0,0c0,0,0.1,0,0.1,0c0,0,0,0,0,0l0,0c0,0,0,0,0,0c0,0,0,0,0,0
					c0,0,0,0,0-0.1l0,0c0,0,0-0.1,0,0c-0.1-0.1,0-0.1,0-0.1c0,0,0,0,0,0c0-0.1,0,0,0.1-0.1l0,0c0,0-0.1-0.1,0-0.1l0,0c0,0,0,0,0.1,0
					l0,0c0,0,0,0,0,0c0,0.1,0.1-0.1,0.1,0l0-0.1c0,0,0,0,0,0l0,0c0,0.1,0,0,0,0c0,0,0,0,0-0.1c0,0,0.1,0,0.1,0.1
					c0,0,0.1-0.1,0.1-0.1l0,0c0,0,0,0,0,0.1c0,0,0.1-0.1,0.1-0.1l0,0c0,0,0,0,0,0c0,0,0,0,0,0c0,0,0,0,0,0l0,0c0,0,0.1,0,0.1,0
					c0,0,0,0,0,0c0-0.1,0.1,0,0.1,0l0,0c0.1,0,0,0.1,0,0.1l0,0c0,0,0,0,0,0c0,0,0,0,0,0.1c0,0,0,0,0,0l0,0.1c0,0,0,0,0,0
					c0.1-0.1,0,0,0.1-0.1c0,0,0,0.1,0,0.1c-0.1,0,0,0.1-0.1,0.1c0,0,0,0,0.1,0c0,0,0,0,0,0c0,0,0,0,0,0c0,0-0.1,0-0.1,0
					c0,0,0.1,0,0.1,0l-0.1,0c0,0,0,0,0,0l0,0c0,0,0.1,0,0.1,0l0,0c0,0,0,0,0,0l0,0c0,0-0.1,0-0.1,0c0,0,0.1,0,0.1,0c0,0,0,0-0.1,0
					c0,0,0,0,0.1,0c0,0,0,0,0,0c0,0,0.1,0,0,0l0,0c-0.1,0,0,0,0,0c0,0,0,0,0,0c0,0,0.1,0,0,0c0,0,0,0,0,0c0,0,0,0,0,0
					c-0.1,0,0,0.1-0.1,0c0,0,0,0,0,0c0,0,0,0,0,0c0,0,0,0,0,0c0,0,0,0,0,0c0,0,0,0,0,0c0,0,0,0-0.1,0c0,0,0.1,0.1,0,0.1l0,0
					c0,0,0,0,0,0c0,0,0,0-0.1,0c0,0,0,0,0,0l0,0c0,0,0,0.1,0,0.1L8.3-9.4c0,0,0,0,0,0c0,0,0,0,0,0c0,0,0,0,0,0l0,0l0,0c0,0,0,0,0,0
					c0,0,0,0,0,0c0,0,0,0,0,0c0,0-0.1,0,0,0c0,0,0,0,0,0c0,0,0,0,0,0l0,0c0,0,0,0,0,0c0,0,0,0.1,0,0.1c0,0,0,0,0,0c0,0,0,0.1,0,0.1
					c0,0,0,0,0,0c0,0,0,0,0,0c0,0,0-0.1,0-0.1c0,0,0,0,0,0c0,0,0,0.1,0,0.1c0,0,0,0,0,0l0,0c0,0,0,0,0,0l0,0c0,0,0-0.1-0.1,0
					c0,0,0,0,0-0.1c0,0,0,0,0,0c0,0,0,0.1,0,0c0,0,0,0,0,0c0,0,0,0-0.1,0c0,0,0,0,0,0c0,0,0,0,0,0l0,0c0,0,0,0,0,0c0,0,0,0,0,0
					c0,0,0-0.1,0-0.1c0,0,0,0.1,0,0.1c0,0,0,0.1-0.1,0c0,0,0-0.1,0-0.1c0,0,0,0,0,0.1c0-0.1-0.1,0-0.1,0l0,0c0,0,0,0,0,0l0,0
					c0,0,0,0,0,0c0,0,0,0,0,0c0,0,0,0,0,0c0,0,0,0,0,0c0,0,0,0,0,0c0,0,0,0,0,0l0,0c0,0,0-0.1,0,0l0,0l0,0l0,0l0,0c0,0,0,0,0,0
					c0,0,0,0,0,0c0,0,0,0,0,0c0,0,0,0,0,0c0,0,0,0,0,0c0,0,0,0,0,0c0,0,0,0,0,0c0,0,0,0,0,0c0,0,0,0,0,0l0,0c0,0,0,0,0,0
					c0,0,0,0,0,0c0,0-0.1,0.1-0.1,0.1c0,0,0,0,0,0l0,0c0,0,0,0,0,0l0,0c0,0,0,0,0,0c0,0,0,0,0,0l0,0c0,0,0,0,0-0.1c0,0,0,0,0,0
					c0,0,0-0.1,0,0c0,0,0,0,0,0c0,0,0,0,0,0c0,0,0,0,0,0c0-0.1,0,0,0-0.1c0,0,0,0,0,0c0,0,0,0,0,0l0,0l0-0.1c0,0,0,0.1-0.1,0.1l0,0
					c0,0,0,0,0,0c0,0,0,0,0,0l0,0c0,0,0,0,0,0c0,0,0,0,0,0c0,0,0,0,0-0.1l0,0l0-0.1c0,0-0.1,0.1,0,0l0,0c0,0,0-0.1,0,0c0,0,0,0,0,0
					l0,0c0,0,0,0,0,0c0,0,0,0,0,0c0,0,0,0,0,0c0,0,0,0,0,0c0,0,0,0,0,0c0,0,0,0,0,0c0,0,0,0,0,0c0,0,0,0,0,0c0,0,0-0.1,0.1-0.1
					C7.7-9.7,7.7-9.6,7.8-9.7C7.7-9.7,7.7-9.7,7.8-9.7C7.7-9.7,7.7-9.7,7.8-9.7C7.7-9.7,7.7-9.6,7.8-9.7C7.7-9.7,7.7-9.6,7.8-9.7
					c-0.1,0.1,0,0.1-0.1,0.1C7.7-9.6,7.7-9.5,7.8-9.7L7.8-9.7L7.8-9.7L7.8-9.7C7.8-9.6,7.8-9.6,7.8-9.7c0,0.1,0,0.1,0,0.1
					C7.7-9.5,7.8-9.6,7.8-9.7c0,0.1,0,0.1,0,0.1c0,0,0,0,0,0l0,0c0,0,0.1-0.1,0,0L7.8-9.7c0,0.1,0,0.1,0,0.2c0,0,0,0,0,0
					C7.8-9.6,7.8-9.5,7.8-9.7L7.8-9.7L7.8-9.7c0,0.2,0.2,0.1,0.1,0.2c0,0,0,0,0,0c0,0,0,0,0,0l0,0c0,0,0.1,0,0.1,0c0,0,0,0,0,0
					c0,0,0,0.1,0,0l0,0c0,0,0.1,0,0.1,0c0,0,0,0,0,0c0,0,0,0,0,0c0,0,0,0,0,0c0,0,0,0,0,0c0,0,0,0,0,0l0,0c0,0,0,0,0,0c0,0,0,0,0,0
					c0,0,0,0.1,0,0.1c0,0,0,0,0,0l0,0c0,0,0,0,0,0c0,0,0,0,0-0.1l0,0l0,0l0,0c0,0,0,0,0,0l0,0l0,0c0,0.1,0,0,0,0.1c0,0,0,0,0-0.1
					c0,0,0,0,0,0c0,0,0,0,0,0c0,0,0,0,0,0c0,0,0,0,0,0c0,0,0,0,0,0c0,0,0,0,0,0c0,0.1,0,0,0.1,0.1c0,0,0-0.1,0-0.1l0,0c0,0,0,0,0,0
					l0,0c0,0,0,0,0,0c0,0,0,0,0,0c0,0,0,0,0-0.1c0.1,0,0,0,0,0.1c0,0,0,0,0-0.1c0.1,0,0,0,0,0c0,0,0,0,0,0c0,0,0,0,0,0c0,0,0,0,0,0
					c-0.1,0,0,0,0,0c0,0,0,0,0,0c0,0,0,0,0,0c0,0,0,0,0,0c0,0,0,0,0,0c0,0,0,0,0,0c0,0-0.1,0,0,0c0,0,0,0,0,0c0,0,0,0,0-0.1l0,0
					c0.1,0-0.1,0-0.1,0c0,0,0.1-0.1,0-0.1c0,0,0,0,0,0c0,0,0,0,0,0l0,0c0.1,0-0.1,0,0-0.1c0,0,0,0,0,0c0,0,0,0,0,0l0,0l0,0
					c0,0.1,0-0.1,0-0.1l0,0c0,0,0,0,0,0c0,0,0,0,0,0c0,0,0,0,0,0c0,0,0,0,0-0.1c0,0,0,0,0,0.1c0,0,0,0,0,0c0,0,0,0,0,0.1
					c0,0,0,0,0,0l0,0c0,0.1,0,0,0,0c0,0,0,0,0,0l0,0c0,0,0-0.1,0-0.1c0,0,0,0,0,0.1l0,0c0,0,0,0.1,0,0.1c0,0,0,0,0,0l0,0
					c0,0,0,0,0,0c0,0,0,0,0,0c0,0,0,0,0,0c0,0,0,0,0,0l0,0c0,0,0-0.1,0,0c0,0,0,0,0,0l0,0l0,0l0,0l0,0c0,0,0,0.1,0,0.1
					c0,0,0,0-0.1-0.1c0,0.1,0,0,0,0.1c0,0,0,0-0.1,0l0,0c0,0,0,0.1,0,0l0,0c0,0,0,0,0,0c0,0,0,0,0,0c0,0,0.1,0,0,0c0,0,0,0,0,0l0,0
					c0,0-0.1,0,0,0c0,0,0,0,0,0C7.7-9.8,7.7-9.8,7.8-9.7L7.7-9.8C7.7-9.8,7.8-9.7,7.8-9.7c0-0.1,0-0.1-0.1-0.1
					C7.7-9.8,7.8-9.7,7.8-9.7L7.8-9.7C7.7-9.7,7.7-9.7,7.8-9.7C7.8-9.7,7.6-9.7,7.8-9.7C7.7-9.7,7.7-9.7,7.8-9.7
					C7.7-9.7,7.8-9.7,7.8-9.7C7.7-9.7,7.8-9.7,7.8-9.7L7.8-9.7c-0.1,0-0.1,0-0.1,0C7.6-9.7,7.7-9.7,7.8-9.7c-0.1,0-0.1,0-0.1,0l0,0
					c0,0,0,0,0,0c0,0,0,0,0,0C7.7-9.7,7.7-9.7,7.8-9.7L7.8-9.7C7.7-9.7,7.7-9.7,7.8-9.7C7.7-9.7,7.7-9.7,7.8-9.7
					C7.7-9.7,7.8-9.7,7.8-9.7C7.8-9.7,7.7-9.7,7.8-9.7C7.8-9.7,7.8-9.7,7.8-9.7C7.8-9.7,7.8-9.7,7.8-9.7z M7.7-9.8L7.7-9.8L7.7-9.8
					L7.7-9.8z M7.7-9.8C7.7-9.8,7.7-9.8,7.7-9.8L7.7-9.8C7.7-9.8,7.7-9.8,7.7-9.8z M7.4-9.9L7.4-9.9C7.4-9.9,7.4-9.9,7.4-9.9
					C7.4-9.9,7.4-9.9,7.4-9.9L7.4-9.9z"/>
				<polygon fill="#202020" points="7.5,-9.9 7.5,-9.9 7.5,-9.9 7.5,-9.9 				"/>
				<polygon fill="#202020" points="7.8,-9.4 7.8,-9.4 7.8,-9.4 				"/>
				<polygon fill="#202020" points="7.9,-9.9 7.9,-9.9 7.9,-9.9 				"/>
				<path fill="#202020" d="M7.8-9.6L7.8-9.6L7.8-9.6z"/>
				<path fill="#202020" d="M7.8-9.6L7.8-9.6C7.8-9.6,7.8-9.6,7.8-9.6z"/>
				<path fill="#202020" d="M7.7-9.6C7.7-9.6,7.7-9.6,7.7-9.6L7.7-9.6L7.7-9.6z"/>
				<path fill="#202020" d="M8.1-9.5L8.1-9.5C8.1-9.5,8.1-9.5,8.1-9.5z"/>
				<path fill="#202020" d="M8.1-9.4C8.1-9.4,8.1-9.4,8.1-9.4C8.1-9.4,8.1-9.4,8.1-9.4z"/>
				<polygon fill="#202020" points="8.2,-9.6 8.2,-9.6 8.2,-9.6 				"/>
				<path fill="#202020" d="M8.1-9.4C8.1-9.4,8.1-9.4,8.1-9.4C8.1-9.4,8.1-9.4,8.1-9.4z"/>
				<polygon fill="#202020" points="7.6,-9.7 7.6,-9.8 7.6,-9.7 				"/>
				<path fill="#202020" d="M7.6-9.7L7.6-9.7L7.6-9.7z"/>
				<path fill="#202020" d="M7.6-9.7L7.6-9.7C7.6-9.7,7.6-9.7,7.6-9.7z"/>
				<path fill="#202020" d="M7.6-9.7L7.6-9.7C7.6-9.7,7.6-9.7,7.6-9.7z"/>
				<path fill="#202020" d="M7.6-9.7C7.6-9.7,7.6-9.7,7.6-9.7L7.6-9.7C7.6-9.7,7.6-9.7,7.6-9.7z"/>
				<path fill="#202020" d="M7.6-9.5L7.6-9.5C7.6-9.5,7.6-9.5,7.6-9.5C7.6-9.4,7.6-9.5,7.6-9.5z"/>
				<path fill="#202020" d="M7.6-9.5C7.6-9.5,7.6-9.4,7.6-9.5C7.6-9.5,7.6-9.5,7.6-9.5z"/>
				<path fill="#202020" d="M7.9-9.3L7.9-9.3C7.9-9.3,7.9-9.3,7.9-9.3z"/>
				<polygon fill="#202020" points="8,-9.4 8,-9.5 8,-9.4 				"/>
				<polygon fill="#202020" points="7.9,-9.2 7.9,-9.2 8,-9.2 				"/>
				<path fill="#202020" d="M8.5-9.5L8.5-9.5C8.5-9.5,8.5-9.5,8.5-9.5z"/>
				<path fill="#202020" d="M8.5-9.8C8.5-9.8,8.5-9.8,8.5-9.8C8.5-9.8,8.5-9.8,8.5-9.8z"/>
				<polygon fill="#202020" points="7.8,-10.3 7.8,-10.3 7.8,-10.3 				"/>
			</g>
			<g>
				<path fill="#202020" d="M11.9-9.9C11.9-9.9,11.8-9.9,11.9-9.9L11.9-9.9L11.9-9.9z"/>
				<path fill="#202020" d="M11.8-9.9c0,0,0.1,0,0.1,0C11.8-9.9,11.9-9.9,11.8-9.9C11.8-9.9,11.8-9.9,11.8-9.9
					C11.8-9.9,11.8-9.9,11.8-9.9C11.8-9.9,11.8-9.9,11.8-9.9C11.8-9.9,11.8-9.9,11.8-9.9z"/>
				<path fill="#202020" d="M11.2-9.6L11.2-9.6L11.2-9.6z"/>
				<path fill="#202020" d="M10.7-9.7C10.7-9.7,10.7-9.7,10.7-9.7C10.7-9.7,10.7-9.7,10.7-9.7z"/>
				<path fill="#202020" d="M10.6-9.6L10.6-9.6C10.6-9.6,10.6-9.6,10.6-9.6z"/>
				<path fill="#202020" d="M11.2-9.6L11.2-9.6C11.2-9.6,11.2-9.6,11.2-9.6z"/>
				<polygon fill="#202020" points="11.9,-9.7 11.8,-9.7 11.8,-9.7 				"/>
				<polygon fill="#202020" points="11.4,-9.5 11.4,-9.5 11.4,-9.5 				"/>
				<path fill="#202020" d="M11.5-9.6C11.5-9.6,11.5-9.5,11.5-9.6C11.5-9.5,11.5-9.5,11.5-9.6C11.5-9.5,11.5-9.5,11.5-9.6z"/>
				<path fill="#202020" d="M11.7-9.7L11.7-9.7L11.7-9.7z"/>
				<path fill="#202020" d="M11.3-9.6C11.3-9.6,11.4-9.6,11.3-9.6C11.4-9.6,11.3-9.6,11.3-9.6z"/>
				<path fill="#202020" d="M9.6-11.6L9.6-11.6L9.6-11.6z"/>
				<polygon fill="#202020" points="9.9,-11.6 9.9,-11.6 9.9,-11.6 				"/>
				<path fill="#202020" d="M10.6-9.4L10.6-9.4L10.6-9.4z"/>
				<path fill="#202020" d="M10-9.6C10-9.6,10-9.7,10-9.6C9.9-9.7,10-9.6,10-9.6z"/>
				<path fill="#202020" d="M11.8-9.7L11.8-9.7L11.8-9.7z"/>
				<polygon fill="#202020" points="9.9,-9.7 9.9,-9.7 9.9,-9.7 				"/>
				<path fill="#202020" d="M10.4-9.3L10.4-9.3C10.5-9.3,10.4-9.3,10.4-9.3z"/>
				<path fill="#202020" d="M10.7-9.3L10.7-9.3L10.7-9.3z"/>
				<path fill="#202020" d="M10.3-9.2C10.3-9.2,10.3-9.2,10.3-9.2L10.3-9.2C10.3-9.2,10.3-9.2,10.3-9.2z"/>
				<polygon fill="#202020" points="10.2,-9.2 10.2,-9.2 10.2,-9.2 				"/>
				<path fill="#202020" d="M9.2-11.2C9.2-11.2,9.2-11.2,9.2-11.2C9.2-11.2,9.2-11.2,9.2-11.2z"/>
				<path fill="#202020" d="M11.8-9.7C11.8-9.7,11.8-9.7,11.8-9.7L11.8-9.7C11.8-9.7,11.8-9.7,11.8-9.7z"/>
				<path fill="#202020" d="M10.3-8.9L10.3-8.9C10.3-8.9,10.3-8.9,10.3-8.9z"/>
				<path fill="#202020" d="M10.1-10.5L10.1-10.5L10.1-10.5z"/>
				<path fill="#202020" d="M10.2-8.9C10.2-8.9,10.2-8.9,10.2-8.9L10.2-8.9L10.2-8.9z"/>
				<path fill="#202020" d="M9.3-11.2L9.3-11.2L9.3-11.2z"/>
				<path fill="#202020" d="M9.3-11.3C9.3-11.4,9.4-11.3,9.3-11.3C9.4-11.4,9.4-11.4,9.3-11.3c0.1,0,0.1,0,0.1,0c0,0,0-0.1,0-0.1
					c0,0,0,0.1,0.1,0.1c0,0,0-0.1,0-0.1c0,0,0,0,0.1,0c0,0,0,0,0,0c0,0,0.1,0,0-0.1c0,0.1,0.1,0,0.1,0c0,0,0,0,0-0.1c0,0,0,0,0.1,0
					c0,0,0,0,0-0.1c0,0,0,0,0,0c0,0,0,0,0,0c0,0,0,0-0.1-0.1c0,0,0,0,0.1,0l0-0.1c0,0,0,0,0,0c0,0,0,0,0,0l0,0l0,0l0,0
					c0.1,0,0.1,0,0.2,0.1l0,0c0,0,0,0,0,0c0,0,0,0.1,0,0.1c0,0-0.1,0-0.1,0l0,0.1l0,0c0,0,0,0,0,0c0,0,0,0,0,0l0,0
					c0,0.1-0.1,0-0.1,0l0,0.1l0,0c0,0,0,0.1,0,0.1c-0.1,0-0.1,0.1-0.2,0.1c0,0,0,0,0,0c-0.1,0,0,0.1,0,0.1l0,0c0,0,0,0,0,0
					c0,0,0,0,0.1,0.1c0,0,0,0,0,0c0,0,0,0,0,0c0.1,0,0.1,0,0.1,0c0,0-0.1,0-0.1,0.1c0,0,0,0,0.1,0c0,0,0,0,0,0l0,0l0,0l0,0l0,0
					c0,0,0,0,0.1,0c0,0,0,0,0,0c0,0,0,0,0,0c0,0,0,0,0,0l0,0c0,0,0,0,0,0c0,0,0.1,0,0.1,0c0,0,0,0.1,0,0.1c0,0,0,0,0,0c0,0,0,0,0,0
					c0,0,0,0,0.1,0c0,0,0,0,0,0c0,0,0,0,0,0c0,0,0,0.1,0,0.1c0,0,0,0,0,0l0,0c0,0,0,0,0,0c0,0,0,0,0,0c0,0,0,0,0-0.1l0,0
					c0,0,0-0.1,0,0c0-0.1,0,0,0,0c0,0,0,0,0,0c0-0.1,0.1,0,0.1,0l0,0.1c0,0,0-0.1,0-0.1l0,0c0.1,0,0.1,0,0.1,0l0,0c0,0,0,0,0.1,0
					c0,0.1,0.2,0,0.2,0.2l0.1,0c0,0,0.1,0.1,0,0.1l0,0c-0.1,0,0,0,0,0.1c0,0,0.1,0,0.1,0c0,0.1,0,0.2-0.1,0.3c0,0.1,0,0.1,0,0.2l0,0
					c0,0-0.1,0.1-0.1,0c0,0.1,0,0.1,0,0.1l0,0c0,0,0,0,0,0c0,0,0,0,0,0c0,0,0,0,0,0l0,0c-0.1,0,0,0.1-0.1,0.1c0,0,0,0,0,0
					c0,0.1,0,0.1,0,0.1l0,0c0,0.1-0.1,0-0.1,0l0,0c0,0,0,0,0,0c0,0,0,0-0.1,0c0,0,0,0,0,0l-0.1,0c0,0,0,0,0,0c0.1,0.1,0,0,0.1,0.1
					c0,0-0.1,0-0.1,0.1c-0.1,0,0,0-0.1,0c0,0,0,0,0.1,0c0,0,0,0,0,0c0,0,0,0,0,0c0,0-0.1,0-0.1,0c0,0,0.1,0,0.1,0l-0.1,0
					c0,0,0,0,0,0l0,0c0,0,0.1,0,0.1,0l0,0c0,0,0,0,0,0l0,0c0,0,0,0,0,0.1c0,0,0.1,0,0.1,0c0,0,0,0,0,0c0,0,0.1,0,0.1,0c0,0,0,0,0,0
					c0,0,0.1,0,0.1,0l0,0c0,0.1,0.1,0,0,0.1c0,0,0,0,0,0c0,0,0-0.1,0.1,0c0,0,0,0,0,0c0,0,0,0,0.1,0c0,0.1,0.1,0,0.1,0.1
					c0,0,0,0,0-0.1c0,0,0,0,0,0c0,0,0,0,0,0c0,0,0,0,0,0c0,0,0,0,0,0c0,0,0,0,0,0.1c0,0,0-0.1,0.1-0.1l0,0c0-0.1,0,0,0-0.1
					c0,0,0,0,0,0.1c0,0,0,0,0,0l0,0c0,0,0-0.1,0.1,0l0,0.1c0,0,0-0.1,0,0c0,0,0,0,0,0c0,0,0,0,0,0l0-0.1l0,0c0,0,0,0,0-0.1
					c0,0,0,0,0,0c0,0,0,0,0,0c0,0,0.1,0,0,0c0,0,0,0,0,0c0,0,0,0,0,0l0,0c0,0,0,0,0,0c0,0-0.1,0-0.1,0s0,0,0,0c0,0-0.1,0,0,0
					c0,0,0,0,0,0c0,0,0,0,0,0c0,0,0.1,0,0.1,0c0,0,0,0,0,0c0,0-0.1,0-0.1,0c0,0,0,0,0,0l0,0c0,0,0,0,0,0l0,0c0,0,0.1,0,0-0.1
					c0,0,0,0,0.1,0c0,0,0,0,0,0c0,0-0.1,0,0-0.1c0,0,0,0,0,0c0,0,0-0.1,0-0.1c0,0,0,0,0,0c0,0,0,0,0,0l0,0c0,0,0,0,0,0c0,0,0,0,0,0
					c0,0,0.1,0.1,0.1,0.1c0,0,0-0.1-0.1-0.1c0,0,0-0.1,0-0.1c0,0,0.1,0,0.1,0c0,0,0,0,0,0c0.1,0.1,0.1-0.1,0.2,0l0,0c0,0,0,0,0,0
					l0,0c0,0,0,0,0,0c0,0,0,0,0.1,0c0,0,0,0,0,0c0,0,0,0,0,0c0,0,0,0.1,0,0.1c0,0,0,0,0.1,0l0,0c0,0,0.1,0.1,0.1,0.1l0,0l0,0l0,0
					l0,0c0,0,0,0,0.1,0c0,0,0,0,0,0c0,0,0,0,0,0c0,0,0,0,0,0c0,0,0,0,0,0c0,0,0,0,0,0c0,0,0,0,0,0c0,0,0,0,0,0c0,0,0,0,0,0l0,0
					c0,0,0,0,0,0c0,0,0,0-0.1,0c0,0,0.1-0.1,0.1-0.1c0,0,0,0,0,0l0,0c0,0,0,0,0,0l0,0l0,0c-0.1,0,0,0,0,0l0,0l0,0c0,0,0,0,0,0.1
					c0,0,0,0,0-0.1l0,0c0,0,0,0,0.1,0c0,0,0,0,0,0c0,0,0,0,0,0c0,0,0.1,0,0-0.1c0,0,0.1,0,0,0c0,0,0,0,0,0c0,0,0-0.1,0,0
					c0,0,0,0,0,0c0.1,0,0,0,0.1,0c0,0,0,0,0,0c0,0,0,0,0,0l0,0l0.1,0c0-0.1-0.1,0-0.1-0.1l0,0c0,0,0,0,0,0c0,0,0,0,0,0l0,0
					c0,0,0,0,0,0c0,0,0,0,0,0c0,0,0,0,0.1,0l0,0l0.1,0c0,0-0.1-0.1,0-0.1l0,0c0,0,0.1,0,0,0c0,0,0,0,0,0l0,0c0,0,0,0.1,0,0.1
					c0,0,0,0,0,0c0,0,0,0,0,0.1c0,0,0,0,0,0c0,0,0,0,0,0c0,0,0,0,0,0c0,0,0,0,0,0c0,0,0,0,0,0c0,0,0,0.1,0,0.1
					c0,0.1-0.1,0.1-0.1,0.1c0,0,0,0,0,0c0,0,0,0,0,0c0,0.1,0,0,0,0.1c0,0,0,0,0,0c0,0,0,0,0-0.1c0,0.1-0.1,0,0,0.1l0,0l0,0l0,0
					c0,0,0,0,0,0c0,0,0,0,0,0c0,0,0,0,0,0c0,0,0,0,0,0c0,0,0,0-0.1,0.1c0,0,0,0,0-0.1c0,0,0,0,0,0l0,0c0,0,0,0.1,0,0l0,0
					c0,0-0.1,0,0-0.1c0,0,0,0,0,0c0,0,0,0,0,0.1c0,0-0.1,0-0.1,0c0,0,0,0,0,0c0-0.1-0.2-0.1-0.1-0.2c0,0,0,0,0,0c0,0,0,0,0,0l0,0
					c0,0-0.1,0-0.1,0c0,0,0,0,0,0c0,0,0-0.1,0,0l0,0c0,0-0.1,0-0.1,0c0-0.1,0,0,0-0.1c0,0,0,0-0.1,0c0,0,0,0,0,0c0,0,0,0.1,0,0.1
					c0,0,0,0,0-0.1l0,0.1c0,0,0-0.1,0-0.1c0,0.1,0,0.1,0,0.1c0,0-0.1-0.1-0.1-0.1c0,0,0,0,0,0.1l0,0c0,0,0,0,0,0c0,0,0,0,0.1,0.1
					l0,0l0,0l0,0c0,0,0,0,0,0l0,0l0,0c-0.1,0,0,0-0.1,0c0,0,0,0,0.1,0.1c0,0,0,0,0,0c0,0,0,0,0,0.1c0,0,0,0,0,0c0,0,0,0,0,0.1
					c0,0,0,0,0,0c0,0,0,0,0,0c-0.1-0.1-0.1,0-0.1,0c0,0,0,0.1,0.1,0.1l0,0c0,0,0,0,0,0c0,0,0,0,0,0c0,0.1-0.1,0.1-0.1,0.2
					c0,0,0,0,0,0c-0.1,0-0.1,0.1-0.1,0.1c0-0.1,0.1,0,0-0.1c0,0-0.1,0.1-0.2,0.1c0-0.1-0.1,0.1-0.1,0c0,0,0,0,0,0c0,0,0,0,0,0
					c0,0-0.1,0-0.1,0c0,0.1,0,0-0.1,0c0,0-0.1,0-0.1,0c0,0,0,0-0.1,0c0,0,0,0,0,0c0,0,0,0-0.1,0c0,0,0,0,0,0c0,0-0.1,0-0.1,0
					c0,0,0,0,0,0C9.8-9,9.8-9.1,9.7-9.1l0,0c0-0.1-0.1,0-0.1,0c-0.1-0.2,0-0.3,0-0.5c0,0,0,0,0,0c0,0,0,0,0,0l0,0
					c0.1,0,0.1-0.2,0.2-0.1c0-0.1,0.1,0,0.1-0.1c0,0,0,0,0,0l0-0.1l0,0c0-0.1,0.1,0,0.1-0.1l0,0c0,0,0,0,0,0c0,0,0,0,0,0
					c0-0.1,0-0.1,0-0.1c0,0,0,0,0.1,0c0,0,0,0,0,0c0,0,0.1,0,0.1,0c0,0,0,0,0,0c0,0,0,0,0-0.1l0,0c0,0,0,0,0,0c0,0,0,0,0,0l0,0
					c0,0,0.1,0,0.1,0c0,0,0,0-0.1,0l0,0c0,0-0.1,0-0.1,0c0,0,0,0,0,0l0,0c0,0,0,0,0,0c0,0,0,0,0,0c0,0,0,0,0,0c0,0,0,0,0,0l0,0
					c0,0,0-0.1,0-0.1c0,0,0,0,0,0l0,0l0-0.1l0,0l0,0c0,0,0,0.1,0,0.1c0,0,0,0-0.1-0.1c0,0.1,0,0,0,0.1c-0.1-0.1-0.1,0-0.2,0l0,0
					c0,0,0,0.1-0.1,0.1l0,0c0,0-0.1,0-0.2,0c0,0,0,0,0,0c0,0,0,0.1,0,0c0,0,0,0,0,0l0,0c-0.1-0.1-0.1-0.1-0.2-0.1c0,0,0,0,0,0
					c0,0-0.1-0.1-0.1-0.1l0,0c0,0-0.1,0,0,0c0,0,0,0,0,0c0-0.1-0.1,0-0.1-0.1l0.1,0c0,0,0,0-0.1-0.1c-0.1-0.1,0.1,0,0.1-0.1
					c0,0,0,0-0.1,0c0,0,0-0.1,0-0.1c0.1,0,0,0,0.1,0l0,0c0.1,0,0,0,0,0c0,0,0-0.1,0-0.1c0,0,0,0,0,0l0,0c0,0,0,0,0,0c0,0,0,0,0,0
					c0,0,0,0-0.1,0l0,0C9.2-11.2,9.3-11.2,9.3-11.3C9.3-11.3,9.3-11.3,9.3-11.3C9.3-11.3,9.3-11.3,9.3-11.3
					C9.3-11.3,9.3-11.3,9.3-11.3C9.3-11.3,9.3-11.4,9.3-11.3C9.3-11.4,9.3-11.4,9.3-11.3z M9.3-10.6C9.3-10.6,9.3-10.6,9.3-10.6
					L9.3-10.6C9.3-10.6,9.3-10.6,9.3-10.6z M9.4-10.6C9.4-10.6,9.4-10.6,9.4-10.6C9.4-10.6,9.4-10.6,9.4-10.6
					C9.4-10.6,9.4-10.6,9.4-10.6z M9.5-10.8L9.5-10.8L9.5-10.8C9.5-10.9,9.5-10.9,9.5-10.8L9.5-10.8z"/>
				<polygon fill="#202020" points="9.5,-10.8 9.5,-10.8 9.5,-10.8 9.5,-10.8 				"/>
				<polygon fill="#202020" points="11.2,-9.6 11.2,-9.6 11.2,-9.6 				"/>
				<polygon fill="#202020" points="10.1,-10.5 10.1,-10.5 10.1,-10.5 				"/>
				<path fill="#202020" d="M11.4-9.3L11.4-9.3L11.4-9.3z"/>
				<path fill="#202020" d="M11.5-9.4L11.5-9.4C11.5-9.4,11.5-9.4,11.5-9.4z"/>
				<path fill="#202020" d="M11.6-9.4C11.6-9.4,11.6-9.4,11.6-9.4L11.6-9.4L11.6-9.4z"/>
				<path fill="#202020" d="M10.9-9.2L10.9-9.2C10.9-9.2,10.9-9.2,10.9-9.2z"/>
				<path fill="#202020" d="M10.8-9.6C10.8-9.6,10.9-9.6,10.8-9.6C10.9-9.6,10.9-9.6,10.8-9.6z"/>
				<polygon fill="#202020" points="10.3,-8.9 10.3,-8.9 10.3,-8.9 				"/>
				<path fill="#202020" d="M10.9-9.6C10.9-9.6,10.9-9.6,10.9-9.6C10.9-9.6,10.9-9.6,10.9-9.6z"/>
				<polygon fill="#202020" points="11.9,-9.8 11.9,-9.8 11.9,-9.8 				"/>
				<path fill="#202020" d="M11.9-9.8L11.9-9.8L11.9-9.8z"/>
				<path fill="#202020" d="M11.9-9.8L11.9-9.8C11.9-9.8,11.9-9.8,11.9-9.8z"/>
				<path fill="#202020" d="M11.8-9.7L11.8-9.7C11.8-9.7,11.8-9.7,11.8-9.7z"/>
				<path fill="#202020" d="M11.8-9.6C11.8-9.6,11.8-9.6,11.8-9.6L11.8-9.6C11.9-9.6,11.8-9.6,11.8-9.6z"/>
				<path fill="#202020" d="M11.6-9.6L11.6-9.6C11.6-9.6,11.6-9.6,11.6-9.6C11.5-9.6,11.6-9.6,11.6-9.6z"/>
				<path fill="#202020" d="M11.5-9.6C11.5-9.6,11.5-9.6,11.5-9.6C11.5-9.6,11.5-9.6,11.5-9.6z"/>
				<path fill="#202020" d="M11-9.8L11-9.8C11-9.9,11-9.8,11-9.8z"/>
				<polygon fill="#202020" points="11,-9.6 11,-9.6 11,-9.6 				"/>
				<polygon fill="#202020" points="10.8,-9.9 10.8,-9.9 10.7,-9.9 				"/>
				<path fill="#202020" d="M10.2-9.2L10.2-9.2C10.2-9.2,10.2-9.3,10.2-9.2z"/>
				<path fill="#202020" d="M9.9-9.4C9.9-9.4,9.9-9.4,9.9-9.4C9.9-9.4,9.9-9.4,9.9-9.4z"/>
				<polygon fill="#202020" points="10.4,-10.7 10.4,-10.7 10.3,-10.8 				"/>
			</g>
			<g>
				<path fill="#202020" d="M5.7-5.9C5.7-5.9,5.6-5.9,5.7-5.9L5.7-5.9L5.7-5.9z"/>
				<path fill="#202020" d="M5.6-5.8C5.6-5.8,5.7-5.8,5.6-5.8C5.7-5.8,5.7-5.8,5.6-5.8C5.6-5.8,5.6-5.8,5.6-5.8
					C5.7-5.8,5.7-5.9,5.6-5.8C5.6-5.8,5.6-5.8,5.6-5.8C5.6-5.8,5.6-5.8,5.6-5.8z"/>
				<path fill="#202020" d="M6.2-5.6L6.2-5.6L6.2-5.6z"/>
				<path fill="#202020" d="M6.6-5.9L6.6-5.9C6.6-5.9,6.6-5.9,6.6-5.9z"/>
				<path fill="#202020" d="M6.6-6L6.6-6L6.6-6z"/>
				<path fill="#202020" d="M6.2-5.6L6.2-5.6C6.3-5.7,6.3-5.6,6.2-5.6z"/>
				<polygon fill="#202020" points="5.8,-5.8 5.7,-5.8 5.8,-5.8 				"/>
				<polygon fill="#202020" points="6.1,-5.6 6.1,-5.6 6.1,-5.5 				"/>
				<path fill="#202020" d="M5.9-5.5C5.9-5.5,5.9-5.6,5.9-5.5C5.9-5.6,5.9-5.6,5.9-5.5C5.9-5.6,5.9-5.6,5.9-5.5z"/>
				<path fill="#202020" d="M5.7-5.7L5.7-5.7L5.7-5.7z"/>
				<path fill="#202020" d="M6.2-5.6C6.2-5.6,6.2-5.6,6.2-5.6C6.2-5.6,6.2-5.6,6.2-5.6z"/>
				<path fill="#202020" d="M6.3-7.7L6.3-7.7L6.3-7.7z"/>
				<polygon fill="#202020" points="6.1,-7.9 6.1,-7.9 6.1,-7.9 				"/>
				<path fill="#202020" d="M6.7-6.1L6.7-6.1C6.7-6.1,6.7-6.1,6.7-6.1z"/>
				<path fill="#202020" d="M7.2-7C7.2-6.9,7.2-7,7.2-7C7.2-6.9,7.2-6.9,7.2-7z"/>
				<path fill="#202020" d="M5.8-5.8L5.8-5.8L5.8-5.8z"/>
				<polygon fill="#202020" points="7.2,-6.9 7.2,-6.9 7.1,-6.9 				"/>
				<path fill="#202020" d="M6.7-6.2L6.7-6.2C6.6-6.2,6.7-6.2,6.7-6.2z"/>
				<path fill="#202020" d="M6.6-6.2L6.6-6.2L6.6-6.2z"/>
				<path fill="#202020" d="M6.7-6.2C6.7-6.2,6.7-6.2,6.7-6.2L6.7-6.2C6.7-6.2,6.7-6.2,6.7-6.2z"/>
				<polygon fill="#202020" points="6.8,-6.3 6.8,-6.3 6.8,-6.3 				"/>
				<path fill="#202020" d="M6.4-7.7L6.4-7.7C6.4-7.7,6.4-7.7,6.4-7.7z"/>
				<path fill="#202020" d="M5.7-5.8C5.7-5.8,5.8-5.8,5.7-5.8L5.7-5.8C5.7-5.8,5.7-5.8,5.7-5.8z"/>
				<path fill="#202020" d="M6.6-6.5L6.6-6.5C6.6-6.5,6.6-6.5,6.6-6.5z"/>
				<path fill="#202020" d="M6.2-7L6.2-7L6.2-7z"/>
				<path fill="#202020" d="M6.6-6.6C6.6-6.5,6.6-6.5,6.6-6.6L6.6-6.6L6.6-6.6z"/>
				<path fill="#202020" d="M6.5-7.8L6.5-7.8L6.5-7.8z"/>
				<path fill="#202020" d="M6.4-7.7C6.4-7.7,6.4-7.8,6.4-7.7C6.4-7.7,6.4-7.8,6.4-7.7C6.4-7.8,6.4-7.8,6.4-7.7
					C6.4-7.8,6.4-7.8,6.4-7.7C6.4-7.8,6.4-7.8,6.4-7.7C6.4-7.8,6.3-7.8,6.4-7.7C6.3-7.7,6.3-7.8,6.4-7.7C6.3-7.8,6.3-7.8,6.4-7.7
					c-0.1,0-0.1,0-0.1,0c0-0.1,0,0,0-0.1c0,0,0,0,0,0.1c0-0.1,0,0,0,0c0,0,0,0,0,0c0,0,0,0,0,0c0,0,0,0,0,0c0,0,0,0,0,0.1
					c0,0,0,0,0-0.1l0,0.1c0,0,0,0,0,0c0,0,0,0,0,0l0,0l0,0l0,0c0,0-0.1-0.1-0.1-0.2l0,0c0,0,0,0,0,0C6-7.9,6-8,6-8
					c0,0,0,0.1,0.1,0.1l0,0l0,0c0,0,0,0,0,0c0,0,0,0,0,0l0,0c0-0.1,0.1,0.1,0.1,0l0-0.1l0,0c0,0,0-0.1,0,0C6.4-8,6.5-8,6.5-8
					c0,0,0,0,0,0c0,0.1,0.2,0,0.2,0.1l0,0c0,0,0,0,0,0c0.1,0,0.1,0,0.1,0c0,0,0,0,0,0c0,0,0,0,0,0c0.1,0,0.1,0.1,0.1,0.1
					c0,0-0.1,0-0.1,0c0,0,0,0,0.1,0c0,0,0,0,0,0l0,0l0,0l0,0c0,0,0,0,0,0c0,0,0,0,0.1,0c0,0,0,0,0,0c0,0,0,0,0,0c0,0,0,0,0,0l0,0
					c0,0,0,0,0,0c0,0,0,0.1,0,0.1c0,0-0.1,0-0.1,0c0,0,0,0,0,0c0,0,0,0,0,0c-0.1,0,0,0,0,0.1c0,0,0,0,0,0c0,0,0,0,0,0
					c0,0-0.1,0-0.1,0c0,0,0,0,0,0l0,0c0,0,0,0,0,0c0,0,0,0,0,0c0,0,0,0,0.1,0.1l0,0c0,0,0,0.1,0,0c0.1,0,0,0,0,0.1c0,0,0,0,0,0
					c0,0.1,0,0,0,0.1l-0.1,0c0,0,0.1,0,0.1,0l0,0c0,0,0,0,0,0l0,0c0,0,0,0,0,0c-0.1,0,0.1,0-0.1,0.1l0.1-0.1c0,0,0,0,0,0l0,0
					c-0.1,0.1,0,0,0,0c0,0,0,0,0-0.1c0,0,0,0,0,0.1c0,0,0-0.1,0.1-0.1l0,0c0,0,0,0,0,0.1c0,0,0.1-0.1,0.1-0.1l0,0c0,0,0,0,0,0
					c0,0,0,0,0,0c0,0,0,0,0,0l0,0c0,0,0.1,0,0.2,0c0,0,0,0,0,0c0.1-0.1,0.1,0,0.1,0l0,0c0.1,0,0,0.1,0,0.1l0,0c0,0,0,0,0,0
					c0,0,0,0,0,0.1c0,0,0,0,0,0l0,0.1c0,0,0,0,0,0c0.1,0,0,0,0.1,0c0,0.1,0,0.1,0,0.2c-0.1,0,0,0.1-0.1,0.1c0,0,0,0,0,0.1
					c0,0,0,0,0,0c0,0,0,0,0,0.1c0,0,0-0.1-0.1-0.1c0,0,0,0.1,0,0.1L7-6.6c0,0,0,0,0,0l0,0c0,0,0,0.1,0,0.1l0,0c0,0,0,0,0,0l0,0
					c0,0-0.1,0-0.1,0c0,0,0,0,0,0.1c0,0,0,0,0,0c0,0,0,0.1,0,0.1c0,0,0,0,0,0c0,0,0,0.1,0,0.1l0,0c0,0,0,0.1-0.1,0c0,0,0,0,0,0
					c0,0,0,0.1,0,0.1c0,0,0,0,0,0c0,0,0,0,0,0c-0.1-0.1-0.1,0.1-0.1,0c0,0,0,0,0,0c0,0,0,0,0,0c0,0,0,0,0,0c0,0,0,0,0,0c0,0,0,0,0,0
					c0,0,0,0,0-0.1c0,0,0,0.1,0,0.1l0,0c0,0,0,0,0,0c0,0,0,0-0.1,0c0,0,0,0,0,0l0,0c0,0,0,0,0,0L6.5-6.2c-0.1,0,0,0,0,0
					c0,0,0,0,0.1,0c0,0,0,0,0,0l0.1,0c0,0,0,0,0,0c0,0,0,0,0.1,0c0,0-0.1,0,0,0c0,0-0.1,0-0.1,0c0,0-0.1,0,0,0c0,0,0,0,0,0
					c0,0,0,0,0,0l0,0c0,0,0,0,0,0c0,0,0.1,0,0.1,0c0,0,0,0,0,0c0,0,0.1,0,0.1,0c0,0,0,0,0,0c0,0,0,0,0,0c0,0-0.1,0-0.1,0
					c0,0,0,0,0,0c0,0,0.1,0,0.1,0c0,0,0,0,0,0l0,0c0,0,0,0,0,0l0,0c0,0-0.1,0,0,0c0,0,0,0-0.1,0c0,0,0,0,0,0c0,0,0.1,0,0.1,0
					c0,0,0,0,0,0c0,0,0,0.1,0,0.1c0,0,0,0,0,0c0,0,0,0,0,0l0,0c0,0,0,0,0,0c0,0,0,0,0,0c0,0-0.1,0-0.1,0c0,0,0.1,0,0.1,0
					c0,0,0.1,0.1,0,0.1c0,0-0.1,0-0.1,0c0,0,0,0,0.1,0c-0.1,0,0,0.1-0.1,0.1l0,0c0,0,0,0,0,0l0,0c0,0,0,0,0,0c0,0,0,0,0,0
					c0,0,0,0,0,0c0,0,0,0,0,0c0,0,0,0,0,0c0,0,0,0,0,0.1l0,0c0,0-0.1,0-0.1,0l0,0l0,0l0,0l0,0c0,0,0,0,0,0.1c0,0,0,0,0,0
					c0,0,0,0,0,0c0,0,0,0,0,0c0,0,0,0,0,0c0,0,0,0,0,0c0,0,0,0,0,0c0,0,0,0,0,0c0,0,0,0,0,0l0,0c0,0,0,0,0,0c0,0,0,0,0-0.1
					c0,0,0,0.1,0,0.1c0,0,0,0-0.1,0l0,0c0,0,0,0,0,0l0,0c0,0,0,0,0-0.1c0,0,0,0,0,0.1l0,0c0,0-0.1,0-0.1,0c0,0,0,0,0,0
					c0,0,0-0.1,0,0c0,0,0,0,0-0.1c0,0,0,0,0,0c0,0,0,0,0,0c0-0.1,0,0,0-0.1c0,0,0,0,0,0c0,0,0,0,0,0l0,0l0-0.1c0,0,0,0.1-0.1,0.1
					l0,0c0,0,0,0,0,0c0,0,0,0,0,0l0,0c0,0,0,0,0,0c0,0,0,0,0,0c0,0,0,0,0,0l0,0l0,0c0,0-0.1,0,0,0l0,0c0,0,0,0,0,0c0,0,0,0,0,0l0,0
					c0,0,0,0,0.1,0c0,0,0,0,0,0c0,0,0,0,0.1,0c0,0,0,0,0,0c0,0,0,0,0,0c0,0,0,0,0,0c0,0,0,0,0,0c0,0,0,0,0,0c0,0,0.1-0.1,0.1-0.1
					c0-0.1,0,0.1,0.1,0c0,0,0,0,0,0c0,0,0,0,0,0c0,0,0,0,0,0c0,0,0,0,0,0c0,0,0,0,0,0.1c0-0.1,0,0,0.1-0.1l0,0l0,0l0,0c0,0,0,0,0,0
					c0,0,0,0,0,0c0,0,0,0,0,0c0,0,0,0,0,0.1c0,0,0,0,0,0l0,0c0,0,0-0.1,0,0l0,0c0,0,0,0,0,0.1c0,0,0,0,0,0c0,0,0,0,0,0l0,0l0,0
					c0.1,0.1,0-0.1,0.1,0c0,0,0,0,0,0c0,0,0,0,0,0l0,0c0,0,0-0.1,0.1-0.1c0,0,0,0,0,0c0,0,0.1,0.1,0,0l0,0c0,0,0-0.1,0-0.1
					c0,0,0,0,0,0.1c0,0,0,0,0,0c0,0,0,0,0,0c0,0,0,0,0,0c0,0,0,0,0,0l0,0c0,0,0,0,0,0c0,0,0,0,0-0.1c0,0,0.1,0,0.1,0c0,0,0,0,0,0
					l0,0c0,0,0,0,0,0c0,0,0,0-0.1,0l0,0l0,0l0,0c0,0,0,0,0,0l0,0l0,0c0.1,0,0,0,0.1,0c0,0-0.1,0-0.1-0.1c0,0,0,0,0,0c0,0,0,0-0.1,0
					c0,0,0,0,0,0c0,0,0,0-0.1-0.1c0,0,0,0,0,0c0,0,0,0,0,0c0.1,0,0,0,0.1,0c0,0-0.1-0.1-0.1-0.1l0,0c0,0,0,0,0,0c0,0,0,0,0,0
					c-0.1-0.1,0-0.1-0.1-0.2c0,0,0.1,0,0.1,0c0,0,0,0,0-0.1c0,0,0,0,0-0.1c0.1,0.1-0.1,0,0,0.1c0,0,0.1,0,0.1-0.1
					c0.1,0.1,0.1,0,0.1,0c0,0,0,0,0-0.1c0,0,0,0,0,0c0,0,0-0.1,0,0c0-0.1,0,0,0,0c0,0,0,0,0,0c0,0,0,0,0,0c0,0,0,0,0,0c0,0,0,0,0,0
					c0,0,0,0,0,0c0,0,0-0.1,0,0c0,0,0,0,0,0c0-0.1,0.1,0,0.1-0.1l0,0c0.1,0,0-0.1,0-0.1c0,0,0.1,0,0.1,0c0,0,0,0,0,0c0,0,0.1,0,0,0
					l0,0c0.1,0-0.1,0,0.1,0c-0.1,0,0,0-0.1,0c0,0,0,0,0,0l0,0l0,0c-0.1,0.1,0-0.1,0,0l0,0c0,0,0,0,0,0c0,0,0,0,0,0c0,0,0,0,0,0
					c0,0,0,0,0-0.1c0,0,0,0,0,0.1c0,0,0,0-0.1,0c0,0,0,0,0,0.1c0,0-0.1,0-0.1,0l0,0c0,0,0,0-0.1,0c0,0,0,0,0,0l0,0c0,0,0-0.1,0-0.1
					c0,0,0,0,0,0.1l0,0c0,0,0,0.1,0,0.1c-0.1,0-0.1,0-0.2,0l0,0c0,0-0.1,0,0-0.1c0,0,0,0,0,0c-0.1,0,0,0,0,0c0,0,0,0,0,0L6.2-7
					c0,0,0.1-0.1,0-0.1c0,0,0,0,0,0l0,0l0,0l0,0l0,0c0,0-0.1,0-0.1,0c0-0.1,0-0.1,0.1-0.1c-0.1,0,0-0.1,0-0.1c0.1,0,0.1-0.1,0.1-0.1
					l0,0c0,0,0,0,0-0.1l0,0c0.1,0,0-0.1,0-0.1c0,0,0,0,0,0c0,0-0.1,0,0,0c0,0,0,0,0,0l0,0C6.4-7.6,6.5-7.7,6.4-7.7
					C6.5-7.7,6.5-7.7,6.4-7.7C6.5-7.7,6.4-7.7,6.4-7.7l0.1,0C6.5-7.7,6.4-7.7,6.4-7.7C6.5-7.7,6.5-7.7,6.4-7.7
					C6.5-7.7,6.4-7.7,6.4-7.7l0.1,0C6.5-7.7,6.5-7.7,6.4-7.7C6.4-7.7,6.6-7.8,6.4-7.7C6.5-7.7,6.4-7.7,6.4-7.7
					C6.4-7.7,6.4-7.7,6.4-7.7C6.5-7.8,6.4-7.7,6.4-7.7L6.4-7.7c0.1,0,0.1,0,0.1,0C6.5-7.8,6.5-7.8,6.4-7.7c0.1-0.1,0.1,0,0.1-0.1
					l0,0c0,0,0,0,0,0c0,0,0,0,0,0C6.5-7.8,6.5-7.8,6.4-7.7L6.4-7.7C6.4-7.7,6.4-7.8,6.4-7.7C6.4-7.8,6.4-7.8,6.4-7.7
					C6.4-7.8,6.4-7.7,6.4-7.7C6.4-7.7,6.4-7.8,6.4-7.7C6.4-7.7,6.4-7.7,6.4-7.7C6.4-7.7,6.4-7.7,6.4-7.7z M6.5-7.7L6.5-7.7L6.5-7.7
					L6.5-7.7z M6.5-7.6C6.5-7.6,6.5-7.6,6.5-7.6L6.5-7.6C6.5-7.6,6.5-7.6,6.5-7.6z M6.8-7.6L6.8-7.6C6.8-7.6,6.8-7.6,6.8-7.6
					C6.8-7.6,6.8-7.6,6.8-7.6L6.8-7.6z"/>
				<polygon fill="#202020" points="6.7,-7.6 6.7,-7.6 6.7,-7.6 6.7,-7.6 				"/>
				<polygon fill="#202020" points="6.2,-5.7 6.2,-5.7 6.2,-5.7 				"/>
				<polygon fill="#202020" points="6.2,-7.1 6.2,-7.1 6.2,-7.1 				"/>
				<path fill="#202020" d="M6-5.7L6-5.7L6-5.7z"/>
				<path fill="#202020" d="M6-5.7L6-5.7C5.9-5.7,6-5.7,6-5.7z"/>
				<path fill="#202020" d="M5.9-5.8C5.9-5.8,5.9-5.7,5.9-5.8L5.9-5.8L5.9-5.8z"/>
				<path fill="#202020" d="M6.2-6.3L6.2-6.3C6.2-6.3,6.2-6.3,6.2-6.3z"/>
				<path fill="#202020" d="M6.4-5.9C6.4-5.9,6.4-5.9,6.4-5.9C6.4-5.9,6.4-5.9,6.4-5.9z"/>
				<polygon fill="#202020" points="6.6,-6.5 6.6,-6.5 6.6,-6.5 				"/>
				<path fill="#202020" d="M6.4-6C6.4-5.9,6.4-5.9,6.4-6C6.4-5.9,6.4-5.9,6.4-6z"/>
				<polygon fill="#202020" points="5.7,-5.9 5.7,-5.9 5.7,-5.9 				"/>
				<path fill="#202020" d="M5.7-5.9L5.7-5.9L5.7-5.9z"/>
				<path fill="#202020" d="M5.7-5.8L5.7-5.8C5.7-5.9,5.7-5.9,5.7-5.8z"/>
				<path fill="#202020" d="M5.8-5.8L5.8-5.8C5.8-5.8,5.8-5.8,5.8-5.8z"/>
				<path fill="#202020" d="M5.8-5.8C5.8-5.8,5.8-5.8,5.8-5.8L5.8-5.8C5.8-5.8,5.8-5.8,5.8-5.8z"/>
				<path fill="#202020" d="M5.8-5.6L5.8-5.6C5.8-5.6,5.8-5.6,5.8-5.6C5.8-5.5,5.8-5.6,5.8-5.6z"/>
				<path fill="#202020" d="M5.9-5.6C5.9-5.6,5.9-5.5,5.9-5.6C5.9-5.5,5.9-5.5,5.9-5.6z"/>
				<path fill="#202020" d="M6.4-5.7L6.4-5.7C6.4-5.7,6.4-5.7,6.4-5.7z"/>
				<polygon fill="#202020" points="6.4,-5.9 6.3,-5.9 6.4,-5.9 				"/>
				<polygon fill="#202020" points="6.6,-5.8 6.6,-5.7 6.6,-5.8 				"/>
				<path fill="#202020" d="M6.8-6.2L6.8-6.2C6.8-6.3,6.8-6.2,6.8-6.2z"/>
				<path fill="#202020" d="M7.1-6.5C7.1-6.5,7.1-6.5,7.1-6.5C7.1-6.5,7.1-6.6,7.1-6.5z"/>
				<polygon fill="#202020" points="6.6,-7.2 6.6,-7.2 6.6,-7.2 				"/>
			</g>
			<g>
				<path fill="#202020" d="M11.4-7.9C11.4-7.9,11.4-7.9,11.4-7.9L11.4-7.9L11.4-7.9z"/>
				<path fill="#202020" d="M11.4-8C11.4-8,11.4-8,11.4-8C11.4-8,11.4-8,11.4-8C11.4-8,11.4-8,11.4-8C11.4-8,11.4-8,11.4-8
					C11.4-8,11.4-8,11.4-8C11.4-8,11.4-8,11.4-8z"/>
				<path fill="#202020" d="M10.9-8.2L10.9-8.2L10.9-8.2z"/>
				<path fill="#202020" d="M10.4-8.4L10.4-8.4C10.4-8.4,10.4-8.4,10.4-8.4z"/>
				<path fill="#202020" d="M10.3-8.4L10.3-8.4C10.3-8.4,10.3-8.4,10.3-8.4z"/>
				<path fill="#202020" d="M10.9-8.2L10.9-8.2C10.9-8.2,10.9-8.2,10.9-8.2z"/>
				<polygon fill="#202020" points="11.3,-8 11.3,-8 11.3,-8 				"/>
				<polygon fill="#202020" points="11,-8.1 11,-8.1 11,-8.1 				"/>
				<path fill="#202020" d="M11-8.2C11-8.2,11.1-8.1,11-8.2C11.1-8.1,11.1-8.2,11-8.2C11.1-8.2,11-8.2,11-8.2z"/>
				<path fill="#202020" d="M11.4-8.1L11.4-8.1L11.4-8.1z"/>
				<path fill="#202020" d="M11-8.2C11-8.2,11-8.2,11-8.2L11-8.2z"/>
				<path fill="#202020" d="M8-6.2L8-6.2L8-6.2z"/>
				<polygon fill="#202020" points="7.9,-6 7.9,-6 7.8,-6 				"/>
				<path fill="#202020" d="M10.1-8.3L10.1-8.3C10.1-8.3,10.1-8.3,10.1-8.3z"/>
				<path fill="#202020" d="M9-7.9C9-7.9,9-7.9,9-7.9C9-7.9,9-7.9,9-7.9z"/>
				<path fill="#202020" d="M11.3-8L11.3-8L11.3-8z"/>
				<polygon fill="#202020" points="9,-7.9 9,-7.9 9,-7.9 				"/>
				<path fill="#202020" d="M9.8-8L9.8-8C9.8-8,9.8-8,9.8-8z"/>
				<path fill="#202020" d="M10-8.2L10-8.2L10-8.2z"/>
				<path fill="#202020" d="M9.8-7.9C9.8-7.9,9.8-7.9,9.8-7.9L9.8-7.9C9.8-7.9,9.8-7.9,9.8-7.9z"/>
				<polygon fill="#202020" points="9.8,-7.8 9.8,-7.8 9.8,-7.8 				"/>
				<path fill="#202020" d="M8-6.5L8-6.5C8-6.5,8-6.5,8-6.5z"/>
				<path fill="#202020" d="M11.3-8C11.3-8,11.3-8,11.3-8L11.3-8C11.3-8,11.3-8,11.3-8z"/>
				<path fill="#202020" d="M10.1-7.6L10.1-7.6C10-7.6,10.1-7.6,10.1-7.6z"/>
				<path fill="#202020" d="M8.9-6.8L8.9-6.8C8.9-6.8,8.9-6.8,8.9-6.8z"/>
				<path fill="#202020" d="M9.9-7.5C9.9-7.5,9.9-7.5,9.9-7.5C9.9-7.5,9.9-7.5,9.9-7.5L9.9-7.5z"/>
				<path fill="#202020" d="M8-6.5L8-6.5L8-6.5z"/>
				<path fill="#202020" d="M8-6.4C8-6.4,8-6.4,8-6.4C8-6.4,7.9-6.4,8-6.4C7.9-6.4,8-6.4,8-6.4C8-6.4,7.9-6.4,8-6.4
					C7.9-6.4,7.9-6.4,8-6.4C7.9-6.4,7.9-6.3,8-6.4c0,0.1,0,0.1,0,0.1C7.9-6.3,7.9-6.3,8-6.4c0,0.1,0,0.1,0,0.2c-0.1,0,0,0-0.1,0
					c0,0,0,0,0.1,0c-0.1,0,0,0,0,0c0,0,0,0,0.1,0c0,0,0,0,0,0c0,0,0,0,0,0c0,0,0,0,0.1,0c0,0,0,0-0.1,0l0.1,0c0,0,0,0,0,0
					c0,0,0,0,0,0l0,0l0,0l0,0C8-6.1,7.9-6,7.9-6l0,0c0,0,0,0,0,0c0,0-0.1,0-0.1,0c0,0,0.1,0,0.1-0.1l-0.1,0l0,0c0,0,0,0,0,0
					c0,0,0,0,0-0.1l0,0c-0.1,0,0.1-0.1,0-0.1l-0.1,0l0,0c0,0-0.1,0,0,0c0.1-0.1,0-0.2,0.1-0.3c0,0,0,0,0,0c0.1,0,0-0.2,0.1-0.2l0,0
					c0,0,0,0,0,0c0,0,0-0.1,0-0.1c0,0,0,0,0,0c0,0,0,0,0,0c0-0.1,0-0.1,0-0.1c0,0,0.1,0,0.1,0.1c0,0,0,0,0-0.1c0,0,0,0,0,0l0,0l0,0
					l0,0c0,0,0,0,0,0c0,0,0,0,0-0.1c0,0,0,0,0,0c0,0,0,0,0,0c0,0,0,0,0,0l0,0c0,0,0,0,0,0c0,0,0-0.1,0.1-0.1c0,0.1,0,0.1,0,0.1
					c0,0,0,0-0.1,0c0,0,0,0,0,0c0,0,0,0,0.1,0c0,0,0,0,0,0c0,0,0,0,0,0c0,0,0,0.1,0.1,0c0,0,0,0,0,0l0,0c0,0,0,0,0,0c0,0,0,0,0,0
					c0,0,0,0,0.1-0.1l0,0c0,0,0.1-0.1,0.1,0c0-0.1,0.1,0,0.1,0c0,0,0,0,0,0c0.1,0,0.1,0,0.1,0l0,0.1c0,0,0-0.1,0-0.1l0,0
					c0,0,0,0,0,0l0,0c0,0,0,0,0,0c0.1,0.1,0-0.1,0.1,0l-0.1,0c0,0,0,0,0.1,0l0,0c0.1,0,0,0,0,0c0,0,0,0,0,0c0,0,0-0.1,0.1-0.1
					c0,0-0.1-0.1-0.1-0.1l0,0c0,0,0-0.1,0.1,0c0,0-0.1-0.1-0.1-0.1l0,0c0,0,0,0,0,0c0,0,0,0,0,0c0,0,0,0,0,0l0,0c0,0,0-0.1,0-0.2
					c0,0,0,0,0,0c-0.1,0,0-0.1,0-0.1l0,0c0-0.1,0.1,0,0.1-0.1l-0.1,0c0,0,0,0,0-0.1c0,0,0,0,0.1,0c0,0,0,0,0,0l0.1,0c0,0,0,0,0,0
					C9-7.9,9.1-7.9,9-8C9.1-8,9.2-8,9.2-8c0,0.1,0.1,0,0.1,0.1c0,0,0.1,0,0.1-0.1c0,0,0,0,0,0c0,0,0.1,0,0.1,0c0,0-0.1,0-0.1,0.1
					c0,0,0.1,0,0.1,0l0,0.1c0,0,0,0,0,0l0,0c0,0,0.1,0,0.1,0l0,0c0,0,0.1,0,0,0l0,0c0,0,0,0.1,0,0.1c0,0,0,0,0.1,0c0,0,0,0,0,0
					c0,0,0.1,0,0.1,0c0,0,0,0,0,0c0,0,0,0,0,0l0,0c0,0.1,0,0,0,0.1c0,0,0,0,0,0c0,0,0-0.1,0,0c0,0,0,0,0,0c0,0,0,0,0,0
					c0,0.1,0,0,0.1,0c0,0,0,0,0,0c0,0,0,0,0-0.1c0,0,0,0,0,0c0,0,0,0,0,0c0,0,0,0,0,0c0,0,0,0,0,0c0,0,0,0,0.1,0.1
					c0,0-0.1-0.1,0-0.1l0,0c-0.1,0,0,0,0-0.1c0,0,0,0,0.1,0c0,0,0,0,0,0l0,0c0,0,0-0.1,0-0.1L10-8c0,0,0-0.1,0,0c0,0,0,0,0,0
					c0,0,0,0,0,0l0-0.1l0,0.1c0,0,0,0,0,0c0,0,0.1,0,0,0c0,0,0,0,0.1,0c0,0,0.1,0,0.1,0c0,0,0,0,0,0c0,0,0,0,0,0l0,0c0,0,0,0,0,0
					c0,0,0-0.1,0,0c0,0,0,0,0,0c0,0,0-0.1,0-0.1c0,0,0,0,0,0c0,0,0,0,0,0c0,0,0.1,0,0,0.1c0,0,0,0,0,0c0,0,0-0.1,0-0.1c0,0,0,0,0,0
					l0,0c0,0,0,0,0,0l0,0c0,0,0.1,0,0.1,0c0,0,0,0,0,0.1c0,0,0,0,0,0c0,0,0-0.1,0-0.1c0,0,0,0,0,0c0,0,0,0,0.1,0c0,0,0,0,0,0
					c0,0,0,0,0,0l0,0c0,0,0,0,0,0c0,0,0,0,0,0c0,0,0,0.1,0,0.1c0,0,0-0.1,0-0.1c0,0,0-0.1,0.1-0.1c0,0,0,0.1,0.1,0.1c0,0,0,0,0-0.1
					c0,0.1,0.1-0.1,0.1,0l0,0c0,0,0,0,0,0l0,0c0,0,0,0,0,0c0,0,0,0,0.1,0c0,0,0,0,0,0c0,0,0,0,0,0c0,0,0,0,0,0c0,0,0.1,0,0.1,0l0,0
					c0,0,0,0.1,0.1,0.1l0,0l0,0l0,0l0,0c0,0,0,0,0,0c0,0,0,0,0,0c0,0,0,0,0,0c0,0,0,0.1,0,0.1c0,0,0,0,0,0c0,0,0,0.1,0,0.1
					c0,0,0,0,0,0c0,0,0,0,0,0.1c0,0,0,0,0,0c0,0,0,0,0,0l0,0c0,0,0,0,0,0s0,0.1,0,0.1c0-0.1,0-0.1,0.1-0.2c0,0.1,0,0,0,0l0,0.1
					c0,0,0,0,0-0.1l0,0c0,0,0,0,0,0.1c0,0,0,0,0-0.1l0,0c0,0,0,0,0,0c0,0,0,0,0-0.1c0,0,0,0.1,0,0c0,0,0,0,0,0.1c0,0,0-0.1,0,0
					c0,0,0,0,0,0c0,0.1,0,0,0.1,0c0,0,0,0,0,0c0,0,0,0,0,0l0,0l0,0.1c0,0,0-0.1,0-0.1l0,0c0,0,0,0,0.1,0c0,0,0,0,0,0l0,0
					c0,0,0,0,0,0c0,0,0,0,0,0c0,0,0,0,0,0.1l0,0l0,0c0,0,0.1,0,0,0l0,0c0,0,0,0,0,0c0,0,0,0,0,0l0,0c0,0,0,0-0.1,0c0,0,0,0,0,0
					c0,0,0,0-0.1,0c0,0,0,0,0,0c0,0,0,0,0,0c0,0,0,0,0,0c0,0,0,0,0,0c0,0,0,0,0,0c0,0-0.1,0.1-0.1,0.1c0,0.1,0,0-0.1,0c0,0,0,0,0,0
					c0,0,0,0,0,0c0,0.1,0,0,0,0c0,0,0,0,0,0c0,0,0,0,0-0.1c0,0.1,0,0,0,0.1l0,0l0,0l0,0c0,0,0,0,0,0c0,0,0,0,0,0c0,0,0,0.1,0,0.1
					c0,0,0,0,0-0.1c0,0,0,0,0,0.1l0,0c0,0,0,0.1,0,0.1l0,0.1c0,0,0-0.1,0-0.1c0,0,0,0,0,0.1c0,0,0,0,0,0.1l-0.1,0.1c0,0,0,0,0,0
					c0-0.1,0-0.1,0,0c0,0-0.1,0,0-0.2c0,0,0,0,0,0c0,0,0-0.1,0-0.1l0,0c-0.1,0-0.1,0-0.1,0c0,0,0,0,0,0c0,0,0-0.1,0,0l0,0
					c0,0-0.1,0-0.1,0c0,0,0,0,0-0.1c0,0-0.1,0-0.1,0c0,0,0,0,0,0c0,0,0,0,0,0c0,0,0,0,0,0l0,0c0,0,0,0,0,0c0,0,0,0,0,0.1
					c0,0,0-0.1,0-0.1c0,0,0,0,0,0l0,0c0,0,0,0,0,0c0,0,0,0,0,0.1l0,0l0,0l0,0c0,0,0,0,0,0l0,0l0,0c0,0,0,0,0-0.1c0,0,0,0.1,0,0.1
					c0,0,0,0,0,0c0,0,0,0,0,0.1c0,0,0,0,0,0c0,0,0,0,0,0.1c0,0,0,0,0,0c0,0,0,0,0,0c-0.1-0.1,0,0-0.1-0.1c0,0,0,0.1,0.1,0.1l0,0
					c0,0,0,0,0,0l0,0c0,0,0,0,0,0.1c0,0,0,0,0,0c0,0,0,0.1,0,0.1c-0.1,0,0,0,0-0.1c0,0,0,0.1,0,0.1c-0.1,0,0,0.1-0.1,0.1
					c0,0,0,0.1,0,0.1c0,0,0,0,0,0c0,0,0,0.1,0,0.1c0,0,0,0,0,0c0,0.1,0,0,0,0.1c0,0-0.1,0-0.1,0c0,0,0,0-0.1,0c0,0,0,0,0,0
					c0,0,0,0-0.1,0c0,0,0,0,0,0c0,0-0.1,0-0.1,0c0,0,0,0,0,0c-0.1,0-0.2-0.1-0.2-0.1l0,0c0-0.1-0.1,0.1-0.1,0c0,0-0.1-0.1-0.1-0.1
					c0,0,0,0,0,0c0,0,0,0,0,0l0,0c0-0.1,0,0.1-0.1,0c0,0,0,0,0,0.1c0,0,0,0,0,0l0,0l0,0c0.1,0-0.1,0-0.1,0.1l0,0c0,0,0,0,0,0
					c0,0,0,0,0,0c0,0,0,0,0,0.1c0,0,0,0-0.1,0c0,0,0,0,0.1,0c0,0,0,0.1,0,0.1c0,0,0,0,0.1,0c0,0,0,0.1,0,0.1l0,0c0,0,0,0,0,0.1
					c0,0,0,0,0,0l0,0c0,0-0.1,0-0.1,0c0,0,0,0,0.1,0l0,0c0,0,0.1,0,0.1,0c0,0.1,0,0.1,0,0.2l0,0c0,0,0,0.1-0.1,0.1c0,0,0,0,0,0
					c0,0.1,0,0,0,0c0,0,0,0,0,0l0,0.1c0,0-0.1,0-0.1,0c0,0,0,0,0,0l0,0l0,0l0,0.1l0,0c0,0,0,0.1,0,0.1c-0.1,0-0.1,0-0.1-0.1
					c0,0.1-0.1,0-0.1,0.1c-0.1-0.1-0.1,0-0.2-0.1l0,0c0,0,0,0.1,0,0l0,0c0,0-0.1,0-0.1,0c0,0,0,0,0,0c0,0,0,0.1,0,0c0,0,0,0,0,0l0,0
					c0,0-0.1,0-0.1,0c0,0,0,0,0,0c0,0,0,0.1,0,0.1l0,0c0,0,0,0.1,0,0c0,0,0,0,0,0c0,0,0,0,0,0.1l0,0c0,0,0,0,0,0.1
					c0,0.1-0.1-0.1-0.1,0c0,0,0,0,0,0C8-6.5,8.1-6.5,8-6.4C8-6.5,8-6.5,8-6.6l0,0c0,0,0,0,0,0c0,0,0,0,0,0.1c0,0,0,0,0,0l0,0
					c0,0,0,0,0,0c0,0,0,0,0,0c0,0,0,0,0.1,0l0,0C8-6.5,8-6.5,8-6.4C8-6.5,8-6.5,8-6.4C8-6.5,8-6.4,8-6.4C8-6.4,7.9-6.5,8-6.4
					C8-6.4,8-6.4,8-6.4C8-6.4,8-6.4,8-6.4z M8.2-6.7L8.2-6.7L8.2-6.7C8.2-6.7,8.2-6.7,8.2-6.7z M8.2-6.8C8.2-6.8,8.2-6.8,8.2-6.8
					C8.2-6.7,8.2-6.7,8.2-6.8C8.2-6.8,8.2-6.8,8.2-6.8z M8-6.9L8-6.9C8-7,8-7,8-6.9C8-7,8-7,8-6.9L8-6.9z"/>
				<polygon fill="#202020" points="8,-6.9 8,-6.9 8,-6.9 8,-6.9 				"/>
				<polygon fill="#202020" points="10.9,-8.2 10.9,-8.2 10.9,-8.2 				"/>
				<polygon fill="#202020" points="8.9,-6.7 8.8,-6.7 8.8,-6.7 				"/>
				<path fill="#202020" d="M10.9-7.9C10.9-7.9,10.9-7.8,10.9-7.9C10.9-7.8,10.9-7.9,10.9-7.9z"/>
				<path fill="#202020" d="M11.1-7.9L11.1-7.9C11.1-7.9,11.1-7.9,11.1-7.9z"/>
				<path fill="#202020" d="M11.2-8C11.2-8,11.1-8,11.2-8L11.2-8L11.2-8z"/>
				<path fill="#202020" d="M10.2-8L10.2-8C10.2-8,10.2-8,10.2-8z"/>
				<path fill="#202020" d="M10.5-8.2C10.5-8.2,10.5-8.2,10.5-8.2C10.5-8.2,10.5-8.2,10.5-8.2z"/>
				<polygon fill="#202020" points="10.1,-7.6 10.1,-7.6 10.1,-7.6 				"/>
				<path fill="#202020" d="M10.4-8.2C10.4-8.2,10.5-8.2,10.4-8.2C10.4-8.2,10.4-8.2,10.4-8.2z"/>
				<polygon fill="#202020" points="11.3,-8 11.3,-8 11.3,-8 				"/>
				<path fill="#202020" d="M11.3-8L11.3-8L11.3-8z"/>
				<path fill="#202020" d="M11.3-8L11.3-8C11.3-8,11.3-8,11.3-8z"/>
				<path fill="#202020" d="M11.3-8L11.3-8C11.3-8,11.3-8,11.3-8z"/>
				<path fill="#202020" d="M11.3-8C11.3-8,11.3-8,11.3-8L11.3-8C11.3-8,11.3-8,11.3-8z"/>
				<path fill="#202020" d="M11.2-8.2L11.2-8.2C11.2-8.2,11.2-8.2,11.2-8.2C11.1-8.3,11.2-8.2,11.2-8.2z"/>
				<path fill="#202020" d="M11.1-8.2C11.1-8.2,11.1-8.2,11.1-8.2C11.1-8.2,11.1-8.2,11.1-8.2z"/>
				<path fill="#202020" d="M10.8-8.3L10.8-8.3C10.8-8.4,10.8-8.3,10.8-8.3z"/>
				<polygon fill="#202020" points="10.6,-8.2 10.6,-8.2 10.6,-8.2 				"/>
				<polygon fill="#202020" points="10.6,-8.5 10.6,-8.5 10.5,-8.5 				"/>
				<path fill="#202020" d="M9.8-7.9L9.8-7.9C9.8-7.8,9.8-7.9,9.8-7.9z"/>
				<path fill="#202020" d="M9.5-8C9.5-8,9.5-8,9.5-8C9.5-8,9.5-8,9.5-8z"/>
				<polygon fill="#202020" points="8.7,-7.1 8.7,-7.1 8.7,-7 				"/>
			</g>
		</g>
		<polygon fill="none" points="20,0 0,0 0,-20 20,-20 		"/>
	</g>
</pattern>
<rect opacity="0.45" fill="url(#New_Pattern_Swatch_5)" width="143.4" height="144"/>
</svg>
